<?xml version="1.0" encoding="UTF-8" standalone="no"?>
<svg
   xmlns:dc="http://purl.org/dc/elements/1.1/"
   xmlns:cc="http://creativecommons.org/ns#"
   xmlns:rdf="http://www.w3.org/1999/02/22-rdf-syntax-ns#"
   xmlns:svg="http://www.w3.org/2000/svg"
   xmlns="http://www.w3.org/2000/svg"
   xmlns:sodipodi="http://sodipodi.sourceforge.net/DTD/sodipodi-0.dtd"
   xmlns:inkscape="http://www.inkscape.org/namespaces/inkscape"
   width="353"
   height="156.5"
   viewBox="0 0 353 156.5"
   version="1.1"
   id="svg114"
   sodipodi:docname="NCS-5501_RP.svg"
   inkscape:version="1.0.1 (3bc2e813f5, 2020-09-07)">
  <metadata
     id="metadata120">
    <rdf:RDF>
      <cc:Work
         rdf:about="">
        <dc:format>image/svg+xml</dc:format>
        <dc:type
           rdf:resource="http://purl.org/dc/dcmitype/StillImage" />
      </cc:Work>
    </rdf:RDF>
  </metadata>
  <defs
     id="defs118" />
  <sodipodi:namedview
     pagecolor="#ffffff"
     bordercolor="#666666"
     borderopacity="1"
     objecttolerance="10"
     gridtolerance="10"
     guidetolerance="10"
     inkscape:pageopacity="0"
     inkscape:pageshadow="2"
     inkscape:window-width="1280"
     inkscape:window-height="658"
     id="namedview116"
     showgrid="false"
     inkscape:zoom="2.9518414"
     inkscape:cx="176.5"
     inkscape:cy="78.25"
     inkscape:window-x="-6"
     inkscape:window-y="-6"
     inkscape:window-maximized="1"
     inkscape:current-layer="svg114" />
  <path
     stroke-miterlimit="10"
     fill="#989898"
     stroke="#1a1a1a"
     d="M349.3 151.7h3.2V7.7h-3.2V.5H3.3v7.2H.5v144h2.8l346.2.1"
     id="path2" />
  <path
     d="M319.2 156c-2 0-3.5-1.6-3.5-3.5v-4.8h-4v6H41.4v-6h-4v4.8c0 1.9-1.6 3.5-3.5 3.5H8.5c-2 0-3.5-1.6-3.5-3.5V7.5C5 5.6 6.6 4 8.5 4h335.9c2 0 3.5 1.6 3.5 3.5v145c0 1.9-1.6 3.5-3.5 3.5h-25.2z"
     fill="#b4b4b4"
     id="path4" />
  <path
     d="M344.5 4.5c1.7 0 3 1.3 3 3v145c0 1.7-1.4 3-3 3h-25.3c-1.7 0-3-1.3-3-3v-5.2h-5v6H41.9v-6h-5v5.2c0 1.7-1.4 3-3 3H8.5c-1.7 0-3-1.3-3-3V7.5c0-1.7 1.4-3 3-3h336m0-1H8.5c-2.2 0-4 1.8-4 4v145c0 2.2 1.8 4 4 4h25.3c2.2 0 4-1.8 4-4v-4.2h3v6H312v-6h3v4.2c0 2.2 1.8 4 4 4h25.3c2.2 0 4-1.8 4-4V7.5c.2-2.2-1.6-4-3.8-4z"
     fill="#818181"
     id="path6" />
  <g
     id="g112">
    <path
       d="M85.4 63.8l-1.6-.7v1H69.3c.4-.3.7-.7 1-1 .4-.5.8-.9 1.1-1.2.3-.4.7-.6.9-.7.1-.1.2-.1.3-.1H75c.2.6.8 1.1 1.5 1.1.9 0 1.6-.7 1.6-1.6 0-.9-.7-1.6-1.6-1.6-.7 0-1.4.5-1.5 1.2h-2.5c-1.3.3-2 1.6-2.9 2.5-.4.4-1 .8-1.5 1.1-.1.1-.4.2-.7.3h-1.2c-.2-1.1-1.2-1.9-2.4-1.9-1.3 0-2.4 1.1-2.4 2.4 0 1.3 1.1 2.4 2.4 2.4 1.2 0 2.1-.8 2.4-1.9h4.6c.5 0 1.1.4 1.5.7.7.5 1.2 1.2 1.8 1.9.6.7 1.3 1.6 2.3 1.6h2.1v1.1h3.3V67h-3.3v1.3h-2.3c-.3-.2-1-.8-1.4-1.3-.3-.3-.7-1-1.3-1.6l-.5-.5h10.8v1l1.6-.7 1.6-.7-1.6-.7z"
       fill="#4e4e4e"
       id="path8" />
    <path
       d="M83.2 130.4h-18c-2.2 0-4-1.8-4-4V77.9c0-2.2 1.8-4 4-4h18c2.2 0 4 1.8 4 4v48.6c0 2.1-1.8 3.9-4 3.9z"
       fill="#b4b4b4"
       id="path10" />
    <path
       d="M63.1 77.5c0-.9.7-1.6 1.6-1.6h19.7c.9 0 1.6.7 1.6 1.6v48.9c0 .9-.7 1.6-1.6 1.6H64.7c-.9 0-1.6-.7-1.6-1.6V77.5z"
       fill="#1a1a1a"
       id="path12" />
    <path
       d="M85.4 126.4c0 .6-.4 1.1-1.1 1.1H64.7c-.6 0-1.1-.4-1.1-1.1V77.5c0-.6.4-1.1 1.1-1.1h19.7c.6 0 1.1.4 1.1 1.1v48.9m.9 0V77.5c0-1.2-1-2.1-2.1-2.1H64.7c-1.2 0-2.1 1-2.1 2.1v48.9c0 1.2 1 2.1 2.1 2.1h19.7c1.1 0 2-1 2-2.1z"
       fill="#ccc"
       id="path14" />
    <g
       fill="#4e4e4e"
       id="g18">
      <path
         d="M75.4 82.4h5.4v39.2h-5.4zM68.2 82.4h5.4v39.2h-5.4z"
         id="path16" />
    </g>
    <g
       id="g26">
      <g
         fill="#4e4e4e"
         id="g22">
        <path
           d="M293.7 38.4h1.9V46h-1.9zM311.2 40.6c-.1 0-.7-.4-1.6-.4-1.2 0-2.1.9-2.1 2s.8 2 2.1 2c.9 0 1.5-.4 1.6-.4v2.1c-.2.1-.9.3-1.8.3-2.2 0-4.1-1.5-4.1-4 0-2.3 1.7-4 4.1-4 .9 0 1.6.2 1.8.3v2.1zM291.1 40.6c-.1 0-.7-.4-1.6-.4-1.2 0-2.1.9-2.1 2s.8 2 2.1 2c.9 0 1.5-.4 1.6-.4v2.1c-.2.1-.9.3-1.8.3-2.2 0-4.1-1.5-4.1-4 0-2.3 1.7-4 4.1-4 .9 0 1.6.2 1.8.3v2.1zM321.3 42.3c0 2.2-1.7 4-4 4-2.4 0-4-1.8-4-4s1.7-4 4-4 4 1.8 4 4zm-4-2.1c-1.1 0-2 .9-2 2s.8 2 2 2c1.1 0 2-.9 2-2s-.9-2-2-2zM302.9 40.2s-.8-.2-1.5-.2c-.8 0-1.2.3-1.2.6 0 .5.6.6.9.7l.5.2c1.3.4 1.8 1.3 1.8 2.2 0 1.9-1.7 2.6-3.2 2.6-1 0-2-.2-2.1-.2v-1.8c.2 0 1 .3 1.8.3 1 0 1.4-.3 1.4-.7 0-.4-.4-.6-.9-.8-.1 0-.3-.1-.4-.1-1.1-.3-2-1-2-2.2 0-1.4 1.1-2.4 2.8-2.4.9 0 1.8.2 1.9.2l.2 1.6z"
           id="path20" />
      </g>
      <path
         d="M283.2 30.2c0-.5-.4-1-1-1-.5 0-1 .4-1 1v2c0 .5.4 1 1 1 .5 0 1-.4 1-1v-2zM288.4 27.6c0-.5-.4-1-1-1-.5 0-1 .4-1 1v4.6c0 .5.4 1 1 1 .5 0 1-.4 1-1v-4.6zM293.7 24c0-.5-.4-1-1-1-.5 0-1 .4-1 1v10.2c0 .5.4 1 1 1 .5 0 1-.4 1-1V24zM299 27.6c0-.5-.4-1-1-1-.5 0-1 .4-1 1v4.6c0 .5.4 1 1 1 .5 0 1-.4 1-1v-4.6zM304.2 30.2c0-.5-.4-1-1-1-.5 0-1 .4-1 1v2c0 .5.4 1 1 1 .5 0 1-.4 1-1v-2zM309.5 27.6c0-.5-.4-1-1-1-.5 0-1 .4-1 1v4.6c0 .5.4 1 1 1 .5 0 1-.4 1-1v-4.6zM314.7 24c0-.5-.4-1-1-1-.5 0-1 .4-1 1v10.2c0 .5.4 1 1 1 .5 0 1-.4 1-1V24zM320 27.6c0-.5-.4-1-1-1-.5 0-1 .4-1 1v4.6c0 .5.4 1 1 1 .5 0 1-.4 1-1v-4.6zM325.3 30.2c0-.5-.4-1-1-1-.5 0-1 .4-1 1v2c0 .5.4 1 1 1 .5 0 1-.4 1-1v-2z"
         fill="#4e4e4e"
         id="path24" />
    </g>
    <g
       id="g110">
      <path
         d="M332.5 145.2c-6.3 0-11.5-5.2-11.5-11.5s5.2-11.5 11.5-11.5 11.5 5.2 11.5 11.5-5.2 11.5-11.5 11.5z"
         fill="#e6e6e5"
         id="path28" />
      <path
         d="M332.5 122.8c6.1 0 11 4.9 11 11s-4.9 11-11 11-11-4.9-11-11 4.9-11 11-11m0-1c-6.6 0-12 5.4-12 12s5.4 12 12 12 12-5.4 12-12-5.4-12-12-12z"
         fill="#b4b4b4"
         id="path30" />
      <path
         d="M332.5 143.2c-5.2 0-9.5-4.3-9.5-9.5s4.3-9.5 9.5-9.5 9.5 4.3 9.5 9.5-4.3 9.5-9.5 9.5z"
         fill="#ccc"
         id="path32" />
      <path
         d="M332.5 124.8c5 0 9 4 9 9s-4 9-9 9-9-4-9-9 4-9 9-9m0-1c-5.5 0-10 4.5-10 10s4.5 10 10 10 10-4.5 10-10-4.5-10-10-10z"
         fill="#4e4e4e"
         id="path34" />
      <path
         fill="#4e4e4e"
         d="M336.5 133.8l-2.3 1 .3 2.4-2-1.4-2 1.4.3-2.4-2.3-1 2.3-1-.3-2.5 2 1.5 2-1.5-.3 2.5z"
         id="path36" />
      <path
         d="M20.5 145.2C14.2 145.2 9 140 9 133.7s5.2-11.5 11.5-11.5S32 127.4 32 133.8c0 6.4-5.2 11.4-11.5 11.4z"
         fill="#e6e6e5"
         id="path38" />
      <path
         d="M20.5 122.8c6.1 0 11 4.9 11 11s-4.9 11-11 11-11-4.9-11-11 4.9-11 11-11m0-1c-6.6 0-12 5.4-12 12s5.4 12 12 12 12-5.4 12-12-5.4-12-12-12z"
         fill="#b4b4b4"
         id="path40" />
      <path
         d="M20.5 143.2c-5.2 0-9.5-4.3-9.5-9.5s4.3-9.5 9.5-9.5 9.5 4.3 9.5 9.5-4.3 9.5-9.5 9.5z"
         fill="#ccc"
         id="path42" />
      <path
         d="M20.5 124.8c5 0 9 4 9 9s-4 9-9 9-9-4-9-9 4-9 9-9m0-1c-5.5 0-10 4.5-10 10s4.5 10 10 10 10-4.5 10-10-4.5-10-10-10z"
         fill="#4e4e4e"
         id="path44" />
      <path
         fill="#4e4e4e"
         d="M24.5 133.8l-2.3 1 .3 2.4-2-1.4-2 1.4.3-2.4-2.3-1 2.3-1-.3-2.5 2 1.5 2-1.5-.3 2.5z"
         id="path46" />
      <g
         clip-rule="evenodd"
         fill-rule="evenodd"
         id="g64">
        <path
           fill="#ccc"
           d="M199.2 75.8h64v53h-64z"
           id="path48" />
        <path
           fill="#1a1a1a"
           d="M200.6 77.1h61.3v50.3h-61.3z"
           id="path50" />
        <path
           d="M259.4 117.3c-.5 0-.9-.4-.9-.9s1.3-.9 1.8-.9v-9.1c-.5 0-1.8-.4-1.8-.9s.4-.9.9-.9v-5.5c-.5 0-.9-.4-.9-.9s1.3-.9 1.8-.9V88c-.5 0-1.8-.4-1.8-.9s.4-.9.9-.9V79c0-.5-.4-.9-.9-.9h-9.8v.1c0 .5-.4.9-.9.9s-.9-.4-.9-.9v-.1h-9.5v.1c0 .5-.4.9-.9.9s-.9-.4-.9-.9v-.1h-9v.1c0 .5-.4.9-.9.9s-.9-.4-.9-.9v-.1h-9.5v.1c0 .5-.4.9-.9.9s-.9-.4-.9-.9v-.1h-9.7c-.5 0-.9.4-.9.9v7.4c.4.1.8.4.8.9s-1.3.8-1.7.9v9.3c.4.1 1.7.4 1.7.9s-.3.8-.8.9v5.5c.4.1.8.4.8.9s-1.3.8-1.7.9v9.1c.4.1 1.7.4 1.7.9s-.3.8-.8.9v7.4c0 1 .8 1.8 1.8 1.8h6.8c.1-.3.5-.6.8-.6.4 0 .7.2.8.6h35.6c.1-.3.5-.6.8-.6.4 0 .7.2.8.6h7c1 0 1.8-.8 1.8-1.8l.3-7.6z"
           fill="#ccc"
           id="path52" />
        <path
           d="M256 113.4h-2.5V91c0-2-1.6-3.6-3.6-3.6h-37.3c-2 0-3.6 1.6-3.6 3.6v22.4h-2.5v9.1h14.6v3h20.2v-3H256v-9.1z"
           data-cv-id="PORT-2"
           fill="#1a1a1a"
           id="path54" />
        <g
           fill="#ccc"
           id="g58">
          <path
             d="M217.6 121.7H207v-3.2c0-1.1.9-2 2-2h6.6c1.1 0 2 .9 2 2v3.2zM255.4 121.7h-10.6v-3.2c0-1.1.9-2 2-2h6.6c1.1 0 2 .9 2 2v3.2z"
             id="path56" />
        </g>
        <g
           fill="#85652c"
           id="g62">
          <path
             d="M244.4 89h1.6v4.6h-1.6zM240.5 89h1.6v4.6h-1.6zM232.8 89h1.6v4.6h-1.6zM236.7 89h1.6v4.6h-1.6zM228.1 89h2.3v4.6h-2.3zM224.2 89h2.3v4.6h-2.3zM220.4 89h3.1v4.6h-3.1zM216.5 89h3.1v4.6h-3.1z"
             id="path60" />
        </g>
      </g>
      <g
         fill="#010101"
         id="g68">
        <path
           d="M218.9 68.2l.9.4c-.1.6-.4 1.1-.7 1.4-.3.3-.7.4-1.2.4-.6 0-1.1-.2-1.5-.7-.4-.5-.7-1.3-.7-2.2 0-1 .2-1.7.7-2.3.4-.5.9-.7 1.5-.7.5 0 1 .2 1.3.5.3.3.4.6.6 1.1l-.9.3c-.1-.3-.2-.5-.4-.7-.2-.2-.4-.2-.6-.2-.3 0-.6.2-.8.5-.2.3-.3.8-.3 1.5s.1 1.2.3 1.5c.2.3.5.5.8.5.2 0 .5-.1.6-.3.2-.3.4-.6.4-1zM220.3 67.4c0-.7.1-1.2.3-1.7.2-.4.5-.8.8-1 .3-.2.7-.3 1.2-.3.7 0 1.2.3 1.6.8.4.5.6 1.2.6 2.2 0 1-.2 1.7-.7 2.2-.4.5-.9.7-1.6.7-.7 0-1.2-.2-1.6-.7-.4-.5-.6-1.2-.6-2.2zm.9 0c0 .7.1 1.2.4 1.5.2.3.6.5.9.5.4 0 .7-.2.9-.5.2-.3.4-.8.4-1.5s-.1-1.2-.4-1.5c-.2-.3-.6-.5-.9-.5-.3 0-.7.2-.9.5-.2.3-.4.8-.4 1.5zM225.4 70.3v-5.7h.9l1.9 3.8v-3.8h.9v5.7h-1l-1.9-3.7v3.7h-.8zM229.7 68.4l.9-.1c.1.7.4 1.1 1 1.1.3 0 .5-.1.7-.2.2-.1.2-.3.2-.6 0-.1 0-.2-.1-.3-.1-.1-.1-.2-.3-.2-.2 0-.4-.2-.9-.3-.4-.1-.7-.3-.9-.4-.2-.1-.3-.3-.4-.6-.1-.2-.2-.5-.2-.8 0-.3.1-.6.2-.8.1-.2.3-.4.6-.6.2-.1.6-.2.9-.2.6 0 1 .1 1.3.4.3.3.5.7.5 1.3l-.9.1c0-.3-.1-.5-.3-.6-.1-.1-.3-.2-.6-.2s-.5.1-.6.2c-.1.1-.2.2-.2.4s.1.3.2.4c.1.1.4.2.9.4.5.1.8.3 1 .4.2.1.4.3.5.6.1.2.2.5.2.9 0 .5-.2.9-.5 1.3-.3.3-.8.5-1.4.5-1.1-.1-1.7-.8-1.8-2.1zM233.9 67.4c0-.7.1-1.2.3-1.7.2-.4.5-.8.8-1 .3-.2.7-.3 1.2-.3.7 0 1.2.3 1.6.8.4.5.6 1.2.6 2.2 0 1-.2 1.7-.7 2.2-.4.5-.9.7-1.6.7-.7 0-1.2-.2-1.6-.7-.4-.5-.6-1.2-.6-2.2zm1 0c0 .7.1 1.2.4 1.5.2.3.6.5.9.5.4 0 .7-.2.9-.5.2-.3.4-.8.4-1.5s-.1-1.2-.4-1.5c-.2-.3-.6-.5-.9-.5-.3 0-.7.2-.9.5-.3.3-.4.8-.4 1.5zM239 70.3v-5.7h.9v4.7h2.4v1H239zM242.8 70.3v-5.7h3.5v1h-2.5v1.3h2.4v1h-2.4v1.6h2.6v1h-3.6z"
           id="path66" />
      </g>
      <g
         id="g72">
        <path
           d="M139 17.5c.5 0 .8.2 1.1.7.3.4.4 1.2.4 2.3 0 1.1-.1 1.8-.4 2.3-.3.4-.6.7-1.1.7-.5 0-.8-.2-1.1-.6-.3-.4-.4-1.2-.4-2.3 0-1.1.1-1.8.4-2.3.3-.6.7-.8 1.1-.8zm0 .9c-.2 0-.3.1-.4.4-.1.2-.2.8-.2 1.7 0 .9.1 1.4.2 1.7.1.2.2.3.4.3s.3-.1.4-.4c.1-.2.2-.8.2-1.7 0-.9-.1-1.4-.2-1.7 0-.2-.2-.3-.4-.3z"
           fill="#010101"
           id="path70" />
      </g>
      <g
         id="g76">
        <path
           d="M171.8 23.3h-.9v-4.1c-.3.4-.7.7-1.2.8v-1c.2-.1.5-.3.8-.5.3-.3.5-.6.6-.9h.7v5.7z"
           fill="#010101"
           id="path74" />
      </g>
      <g
         id="g82">
        <path
           d="M125.1 16.7v2h-3v-2h3m1-1h-5v4h5v-4zM121.9 23.6v2h-3v-2h3m1-1h-5v4h5v-4zM128.6 23.6v2h-3v-2h3m1-1h-5v4h5v-4z"
           fill="#010101"
           id="path78" />
        <path
           stroke-miterlimit="2"
           fill="none"
           stroke="#010101"
           stroke-linejoin="round"
           d="M117.9 21.2h11.7M123.6 19.2v2M120.4 20.9v2M127.1 20.9v2"
           id="path80" />
      </g>
      <g
         id="g106">
        <path
           fill="#333"
           d="M111 32.3h66.4v97.4H111z"
           id="path84" />
        <path
           stroke-miterlimit="10"
           d="M176 126.1c0 1-.8 1.8-1.8 1.8h-59.8c-1 0-1.8-.8-1.8-1.8V35.9c0-1 .8-1.8 1.8-1.8h59.8c1 0 1.8.8 1.8 1.8v90.2z"
           clip-rule="evenodd"
           fill="#c2c2c2"
           fill-rule="evenodd"
           stroke="#010101"
           id="path86" />
        <path
           data-cv-id="PORT-0"
           clip-rule="evenodd"
           fill="#515151"
           fill-rule="evenodd"
           d="M131.1 42.1h4.6v-3.7h14.7v3.7h3.6v5.5h11.1v24.8H121V47.6h10.1z"
           id="path88" />
        <path
           d="M149.9 38.9v3.7h3.7v5.5h11v23.8h-43.1V48.1h10.1v-5.5h4.6v-3.7h13.7m1-1h-15.7v3.7h-4.6v5.5h-10.1v25.8h45.1V47.1h-11v-5.5h-3.7v-3.7z"
           fill="#010101"
           id="path90" />
        <g
           stroke-miterlimit="10"
           fill="none"
           stroke="#fff"
           stroke-linecap="square"
           id="g94">
          <path
             d="M130.6 70.1V60M134.3 70.1V60M138 70.1V60M141.7 70.1V60M145.3 70.1V60M149 70.1V60M152.7 70.1V60M156.4 70.1V60"
             id="path92" />
        </g>
        <path
           data-cv-id="PORT-1"
           clip-rule="evenodd"
           fill="#515151"
           fill-rule="evenodd"
           d="M131.1 114.7H121V89.9h44.1v24.8H154v5.6h-3.6v3.6h-14.7v-3.6h-4.6z"
           id="path96" />
        <path
           d="M164.6 90.4v23.8h-11v5.5h-3.7v3.7h-13.7v-3.7h-4.6v-5.5h-10.1V90.4h43.1m1-1h-45.1v25.8h10.1v5.5h4.6v3.7h15.7v-3.7h3.7v-5.5h11V89.4z"
           fill="#010101"
           id="path98" />
        <g
           stroke-miterlimit="10"
           fill="none"
           stroke="#fff"
           stroke-linecap="square"
           id="g102">
          <path
             d="M130.6 92.2v10.1M134.3 92.2v10.1M138 92.2v10.1M141.7 92.2v10.1M145.3 92.2v10.1M149 92.2v10.1M152.7 92.2v10.1M156.4 92.2v10.1"
             id="path100" />
        </g>
        <path
           stroke-miterlimit="10"
           clip-rule="evenodd"
           fill="#c2c2c2"
           fill-rule="evenodd"
           stroke="#010101"
           stroke-linecap="square"
           d="M158.2 37.9v7.3h9.2v-7.3zM118.6 37.9v7.3h9.2v-7.3zM158.2 117.1v7.3h9.2v-7.3zM118.6 117.1v7.3h9.2v-7.3z"
           id="path104" />
      </g>
      <path
         clip-rule="evenodd"
         fill="#010101"
         fill-rule="evenodd"
         d="M146.8 24.1h6.4l-3.2-6.4zM162.8 17.7h-6.4l3.2 6.4z"
         id="path108" />
    </g>
  </g>
  <text
     xml:space="preserve"
     style="font-style:normal;font-weight:normal;font-size:40px;line-height:1.25;font-family:sans-serif;fill:#000000;fill-opacity:1;stroke:none"
     x="40.991364"
     y="61.317657"
     id="text124"><tspan
       sodipodi:role="line"
       id="tspan122"
       x="40.991364"
       y="61.317657" /></text>
</svg>
