<?xml version="1.0" encoding="UTF-8" standalone="no"?>
<svg
   xmlns:dc="http://purl.org/dc/elements/1.1/"
   xmlns:cc="http://creativecommons.org/ns#"
   xmlns:rdf="http://www.w3.org/1999/02/22-rdf-syntax-ns#"
   xmlns:svg="http://www.w3.org/2000/svg"
   xmlns="http://www.w3.org/2000/svg"
   xmlns:sodipodi="http://sodipodi.sourceforge.net/DTD/sodipodi-0.dtd"
   xmlns:inkscape="http://www.inkscape.org/namespaces/inkscape"
   width="310"
   height="154"
   viewBox="0 0 310 154"
   version="1.1"
   id="svg326"
   sodipodi:docname="NCS-5501_Rear_fan.svg"
   inkscape:version="1.0.1 (3bc2e813f5, 2020-09-07)">
  <metadata
     id="metadata332">
    <rdf:RDF>
      <cc:Work
         rdf:about="">
        <dc:format>image/svg+xml</dc:format>
        <dc:type
           rdf:resource="http://purl.org/dc/dcmitype/StillImage" />
      </cc:Work>
    </rdf:RDF>
  </metadata>
  <defs
     id="defs330" />
  <sodipodi:namedview
     pagecolor="#ffffff"
     bordercolor="#666666"
     borderopacity="1"
     objecttolerance="10"
     gridtolerance="10"
     guidetolerance="10"
     inkscape:pageopacity="0"
     inkscape:pageshadow="2"
     inkscape:window-width="1280"
     inkscape:window-height="658"
     id="namedview328"
     showgrid="false"
     inkscape:zoom="3.1818182"
     inkscape:cx="155"
     inkscape:cy="77"
     inkscape:window-x="-6"
     inkscape:window-y="-6"
     inkscape:window-maximized="1"
     inkscape:current-layer="svg326" />
  <path
     fill="#b4b4b4"
     d="M31 23h251v121H31z"
     id="path2" />
  <g
     clip-rule="evenodd"
     fill="#1a1a1a"
     fill-rule="evenodd"
     id="g6">
    <path
       d="M34.1 115l3.2 5.5h6.3l3.2-5.5-3.2-5.5h-6.3zM34.1 101.8l3.2 5.4h6.3l3.2-5.4-3.2-5.6h-6.3zM34.1 128.2l3.2 5.6h6.3l3.2-5.6-3.2-5.4h-6.3zM34.1 141.5l3.2 5.5h6.3l3.2-5.5-3.2-5.5h-6.3zM34.1 75.2l3.2 5.6h6.3l3.2-5.6-3.2-5.4h-6.3zM34.1 62l3.2 5.5h6.3l3.2-5.5-3.2-5.5h-6.3zM34.1 48.8l3.2 5.4h6.3l3.2-5.4-3.2-5.6h-6.3zM34.1 35.5l3.2 5.5h6.3l3.2-5.5-3.2-5.5h-6.3zM34.1 88.5l3.2 5.5h6.3l3.2-5.5-3.2-5.5h-6.3z"
       id="path4" />
  </g>
  <g
     clip-rule="evenodd"
     fill="#1a1a1a"
     fill-rule="evenodd"
     id="g14">
    <path
       d="M56.1 115l3.2 5.5h6.3l3.2-5.5-3.2-5.5h-6.3zM56.1 101.8l3.2 5.4h6.3l3.2-5.4-3.2-5.6h-6.3zM56.1 128.2l3.2 5.6h6.3l3.2-5.6-3.2-5.4h-6.3zM56.1 141.5l3.2 5.5h6.3l3.2-5.5-3.2-5.5h-6.3zM56.1 75.2l3.2 5.6h6.3l3.2-5.6-3.2-5.4h-6.3zM56.1 62l3.2 5.5h6.3l3.2-5.5-3.2-5.5h-6.3zM56.1 48.8l3.2 5.4h6.3l3.2-5.4-3.2-5.6h-6.3zM56.1 35.5l3.2 5.5h6.3l3.2-5.5-3.2-5.5h-6.3zM56.1 88.5l3.2 5.5h6.3l3.2-5.5-3.2-5.5h-6.3z"
       id="path8" />
    <g
       id="g12">
      <path
         d="M45 121l3.2 5.5h6.3l3.2-5.5-3.2-5.5h-6.3zM45 107.8l3.2 5.4h6.3l3.2-5.4-3.2-5.6h-6.3zM45 134.2l3.2 5.6h6.3l3.2-5.6-3.2-5.4h-6.3zM45 81.2l3.2 5.6h6.3l3.2-5.6-3.2-5.4h-6.3zM45 68l3.2 5.5h6.3l3.2-5.5-3.2-5.5h-6.3zM45 54.8l3.2 5.4h6.3l3.2-5.4-3.2-5.6h-6.3zM45 41.5l3.2 5.5h6.3l3.2-5.5-3.2-5.5h-6.3zM45 94.5l3.2 5.5h6.3l3.2-5.5-3.2-5.5h-6.3z"
         id="path10" />
    </g>
  </g>
  <g
     clip-rule="evenodd"
     fill="#1a1a1a"
     fill-rule="evenodd"
     id="g22">
    <path
       d="M78.1 115l3.2 5.5h6.3l3.2-5.5-3.2-5.5h-6.3zM78.1 101.8l3.2 5.4h6.3l3.2-5.4-3.2-5.6h-6.3zM78.1 128.2l3.2 5.6h6.3l3.2-5.6-3.2-5.4h-6.3zM78.1 141.5l3.2 5.5h6.3l3.2-5.5-3.2-5.5h-6.3zM78.1 75.2l3.2 5.6h6.3l3.2-5.6-3.2-5.4h-6.3zM78.1 62l3.2 5.5h6.3l3.2-5.5-3.2-5.5h-6.3zM78.1 48.8l3.2 5.4h6.3l3.2-5.4-3.2-5.6h-6.3zM78.1 35.5l3.2 5.5h6.3l3.2-5.5-3.2-5.5h-6.3zM78.1 88.5l3.2 5.5h6.3l3.2-5.5-3.2-5.5h-6.3z"
       id="path16" />
    <g
       id="g20">
      <path
         d="M67 121l3.2 5.5h6.3l3.2-5.5-3.2-5.5h-6.3zM67 107.8l3.2 5.4h6.3l3.2-5.4-3.2-5.6h-6.3zM67 134.2l3.2 5.6h6.3l3.2-5.6-3.2-5.4h-6.3zM67 81.2l3.2 5.6h6.3l3.2-5.6-3.2-5.4h-6.3zM67 68l3.2 5.5h6.3l3.2-5.5-3.2-5.5h-6.3zM67 54.8l3.2 5.4h6.3l3.2-5.4-3.2-5.6h-6.3zM67 41.5l3.2 5.5h6.3l3.2-5.5-3.2-5.5h-6.3zM67 94.5l3.2 5.5h6.3l3.2-5.5-3.2-5.5h-6.3z"
         id="path18" />
    </g>
  </g>
  <g
     clip-rule="evenodd"
     fill="#1a1a1a"
     fill-rule="evenodd"
     id="g30">
    <path
       d="M100.1 115l3.2 5.5h6.3l3.2-5.5-3.2-5.5h-6.3zM100.1 101.8l3.2 5.4h6.3l3.2-5.4-3.2-5.6h-6.3zM100.1 128.2l3.2 5.6h6.3l3.2-5.6-3.2-5.4h-6.3zM100.1 141.5l3.2 5.5h6.3l3.2-5.5-3.2-5.5h-6.3zM100.1 75.2l3.2 5.6h6.3l3.2-5.6-3.2-5.4h-6.3zM100.1 62l3.2 5.5h6.3l3.2-5.5-3.2-5.5h-6.3zM100.1 48.8l3.2 5.4h6.3l3.2-5.4-3.2-5.6h-6.3zM100.1 35.5l3.2 5.5h6.3l3.2-5.5-3.2-5.5h-6.3zM100.1 88.5l3.2 5.5h6.3l3.2-5.5-3.2-5.5h-6.3z"
       id="path24" />
    <g
       id="g28">
      <path
         d="M89 121l3.2 5.5h6.3l3.2-5.5-3.2-5.5h-6.3zM89 107.8l3.2 5.4h6.3l3.2-5.4-3.2-5.6h-6.3zM89 134.2l3.2 5.6h6.3l3.2-5.6-3.2-5.4h-6.3zM89 81.2l3.2 5.6h6.3l3.2-5.6-3.2-5.4h-6.3zM89 68l3.2 5.5h6.3l3.2-5.5-3.2-5.5h-6.3zM89 54.8l3.2 5.4h6.3l3.2-5.4-3.2-5.6h-6.3zM89 41.5l3.2 5.5h6.3l3.2-5.5-3.2-5.5h-6.3zM89 94.5l3.2 5.5h6.3l3.2-5.5-3.2-5.5h-6.3z"
         id="path26" />
    </g>
  </g>
  <g
     clip-rule="evenodd"
     fill="#1a1a1a"
     fill-rule="evenodd"
     id="g38">
    <path
       d="M122.1 115l3.2 5.5h6.3l3.2-5.5-3.2-5.5h-6.3zM122.1 101.8l3.2 5.4h6.3l3.2-5.4-3.2-5.6h-6.3zM122.1 141.5l3.2 5.5h6.3l3.2-5.5-3.2-5.5h-6.3zM122.1 75.2l3.2 5.6h6.3l3.2-5.6-3.2-5.4h-6.3zM122.1 62l3.2 5.5h6.3l3.2-5.5-3.2-5.5h-6.3zM122.1 48.8l3.2 5.4h6.3l3.2-5.4-3.2-5.6h-6.3zM122.1 35.5l3.2 5.5h6.3l3.2-5.5-3.2-5.5h-6.3zM122.1 88.5l3.2 5.5h6.3l3.2-5.5-3.2-5.5h-6.3z"
       id="path32" />
    <g
       id="g36">
      <path
         d="M111 121l3.2 5.5h6.3l3.2-5.5-3.2-5.5h-6.3zM111 107.8l3.2 5.4h6.3l3.2-5.4-3.2-5.6h-6.3zM111 134.2l3.2 5.6h6.3l3.2-5.6-3.2-5.4h-6.3zM111 81.2l3.2 5.6h6.3l3.2-5.6-3.2-5.4h-6.3zM111 68l3.2 5.5h6.3l3.2-5.5-3.2-5.5h-6.3zM111 54.8l3.2 5.4h6.3l3.2-5.4-3.2-5.6h-6.3zM111 41.5l3.2 5.5h6.3l3.2-5.5-3.2-5.5h-6.3zM111 94.5l3.2 5.5h6.3l3.2-5.5-3.2-5.5h-6.3z"
         id="path34" />
    </g>
  </g>
  <g
     clip-rule="evenodd"
     fill="#1a1a1a"
     fill-rule="evenodd"
     id="g46">
    <path
       d="M144.1 115l3.2 5.5h6.3l3.2-5.5-3.2-5.5h-6.3zM144.1 101.8l3.2 5.4h6.3l3.2-5.4-3.2-5.6h-6.3zM144.1 128.2l3.2 5.6h6.3l3.2-5.6-3.2-5.4h-6.3zM144.1 141.5l3.2 5.5h6.3l3.2-5.5-3.2-5.5h-6.3zM144.1 75.2l3.2 5.6h6.3l3.2-5.6-3.2-5.4h-6.3zM144.1 62l3.2 5.5h6.3l3.2-5.5-3.2-5.5h-6.3zM144.1 48.8l3.2 5.4h6.3l3.2-5.4-3.2-5.6h-6.3zM144.1 35.5l3.2 5.5h6.3l3.2-5.5-3.2-5.5h-6.3zM144.1 88.5l3.2 5.5h6.3l3.2-5.5-3.2-5.5h-6.3z"
       id="path40" />
    <g
       id="g44">
      <path
         d="M133 121l3.2 5.5h6.3l3.2-5.5-3.2-5.5h-6.3zM133 107.8l3.2 5.4h6.3l3.2-5.4-3.2-5.6h-6.3zM133 134.2l3.2 5.6h6.3l3.2-5.6-3.2-5.4h-6.3zM133 81.2l3.2 5.6h6.3l3.2-5.6-3.2-5.4h-6.3zM133 68l3.2 5.5h6.3l3.2-5.5-3.2-5.5h-6.3zM133 54.8l3.2 5.4h6.3l3.2-5.4-3.2-5.6h-6.3zM133 41.5l3.2 5.5h6.3l3.2-5.5-3.2-5.5h-6.3zM133 94.5l3.2 5.5h6.3l3.2-5.5-3.2-5.5h-6.3z"
         id="path42" />
    </g>
  </g>
  <g
     clip-rule="evenodd"
     fill="#1a1a1a"
     fill-rule="evenodd"
     id="g54">
    <path
       d="M166.1 115l3.2 5.5h6.3l3.2-5.5-3.2-5.5h-6.3zM166.1 101.8l3.2 5.4h6.3l3.2-5.4-3.2-5.6h-6.3zM166.1 141.5l3.2 5.5h6.3l3.2-5.5-3.2-5.5h-6.3zM166.1 75.2l3.2 5.6h6.3l3.2-5.6-3.2-5.4h-6.3zM166.1 62l3.2 5.5h6.3l3.2-5.5-3.2-5.5h-6.3zM166.1 48.8l3.2 5.4h6.3l3.2-5.4-3.2-5.6h-6.3zM166.1 35.5l3.2 5.5h6.3l3.2-5.5-3.2-5.5h-6.3zM166.1 88.5l3.2 5.5h6.3l3.2-5.5-3.2-5.5h-6.3z"
       id="path48" />
    <g
       id="g52">
      <path
         d="M155 121l3.2 5.5h6.3l3.2-5.5-3.2-5.5h-6.3zM155 107.8l3.2 5.4h6.3l3.2-5.4-3.2-5.6h-6.3zM155 134.2l3.2 5.6h6.3l3.2-5.6-3.2-5.4h-6.3zM155 81.2l3.2 5.6h6.3l3.2-5.6-3.2-5.4h-6.3zM155 68l3.2 5.5h6.3l3.2-5.5-3.2-5.5h-6.3zM155 54.8l3.2 5.4h6.3l3.2-5.4-3.2-5.6h-6.3zM155 41.5l3.2 5.5h6.3l3.2-5.5-3.2-5.5h-6.3zM155 94.5l3.2 5.5h6.3l3.2-5.5-3.2-5.5h-6.3z"
         id="path50" />
    </g>
  </g>
  <g
     clip-rule="evenodd"
     fill="#1a1a1a"
     fill-rule="evenodd"
     id="g62">
    <path
       d="M188.1 115l3.2 5.5h6.3l3.2-5.5-3.2-5.5h-6.3zM188.1 101.8l3.2 5.4h6.3l3.2-5.4-3.2-5.6h-6.3zM188.1 128.2l3.2 5.6h6.3l3.2-5.6-3.2-5.4h-6.3zM188.1 141.5l3.2 5.5h6.3l3.2-5.5-3.2-5.5h-6.3zM188.1 75.2l3.2 5.6h6.3l3.2-5.6-3.2-5.4h-6.3zM188.1 62l3.2 5.5h6.3l3.2-5.5-3.2-5.5h-6.3zM188.1 48.8l3.2 5.4h6.3l3.2-5.4-3.2-5.6h-6.3zM188.1 35.5l3.2 5.5h6.3l3.2-5.5-3.2-5.5h-6.3zM188.1 88.5l3.2 5.5h6.3l3.2-5.5-3.2-5.5h-6.3z"
       id="path56" />
    <g
       id="g60">
      <path
         d="M177 121l3.2 5.5h6.3l3.2-5.5-3.2-5.5h-6.3zM177 107.8l3.2 5.4h6.3l3.2-5.4-3.2-5.6h-6.3zM177 134.2l3.2 5.6h6.3l3.2-5.6-3.2-5.4h-6.3zM177 81.2l3.2 5.6h6.3l3.2-5.6-3.2-5.4h-6.3zM177 68l3.2 5.5h6.3l3.2-5.5-3.2-5.5h-6.3zM177 54.8l3.2 5.4h6.3l3.2-5.4-3.2-5.6h-6.3zM177 41.5l3.2 5.5h6.3l3.2-5.5-3.2-5.5h-6.3zM177 94.5l3.2 5.5h6.3l3.2-5.5-3.2-5.5h-6.3z"
         id="path58" />
    </g>
  </g>
  <g
     clip-rule="evenodd"
     fill="#1a1a1a"
     fill-rule="evenodd"
     id="g70">
    <path
       d="M210.1 115l3.2 5.5h6.3l3.2-5.5-3.2-5.5h-6.3zM210.1 101.8l3.2 5.4h6.3l3.2-5.4-3.2-5.6h-6.3zM210.1 128.2l3.2 5.6h6.3l3.2-5.6-3.2-5.4h-6.3zM210.1 141.5l3.2 5.5h6.3l3.2-5.5-3.2-5.5h-6.3zM210.1 75.2l3.2 5.6h6.3l3.2-5.6-3.2-5.4h-6.3zM210.1 62l3.2 5.5h6.3l3.2-5.5-3.2-5.5h-6.3zM210.1 48.8l3.2 5.4h6.3l3.2-5.4-3.2-5.6h-6.3zM210.1 35.5l3.2 5.5h6.3l3.2-5.5-3.2-5.5h-6.3zM210.1 88.5l3.2 5.5h6.3l3.2-5.5-3.2-5.5h-6.3z"
       id="path64" />
    <g
       id="g68">
      <path
         d="M199 121l3.2 5.5h6.3l3.2-5.5-3.2-5.5h-6.3zM199 107.8l3.2 5.4h6.3l3.2-5.4-3.2-5.6h-6.3zM199 134.2l3.2 5.6h6.3l3.2-5.6-3.2-5.4h-6.3zM199 81.2l3.2 5.6h6.3l3.2-5.6-3.2-5.4h-6.3zM199 68l3.2 5.5h6.3l3.2-5.5-3.2-5.5h-6.3zM199 54.8l3.2 5.4h6.3l3.2-5.4-3.2-5.6h-6.3zM199 41.5l3.2 5.5h6.3l3.2-5.5-3.2-5.5h-6.3zM199 94.5l3.2 5.5h6.3l3.2-5.5-3.2-5.5h-6.3z"
         id="path66" />
    </g>
  </g>
  <g
     clip-rule="evenodd"
     fill="#1a1a1a"
     fill-rule="evenodd"
     id="g78">
    <path
       d="M232.1 115l3.2 5.5h6.3l3.2-5.5-3.2-5.5h-6.3zM232.1 101.8l3.2 5.4h6.3l3.2-5.4-3.2-5.6h-6.3zM232.1 128.2l3.2 5.6h6.3l3.2-5.6-3.2-5.4h-6.3zM232.1 141.5l3.2 5.5h6.3l3.2-5.5-3.2-5.5h-6.3zM232.1 75.2l3.2 5.6h6.3l3.2-5.6-3.2-5.4h-6.3zM232.1 62l3.2 5.5h6.3l3.2-5.5-3.2-5.5h-6.3zM232.1 48.8l3.2 5.4h6.3l3.2-5.4-3.2-5.6h-6.3zM232.1 35.5l3.2 5.5h6.3l3.2-5.5-3.2-5.5h-6.3zM232.1 88.5l3.2 5.5h6.3l3.2-5.5-3.2-5.5h-6.3z"
       id="path72" />
    <g
       id="g76">
      <path
         d="M221 121l3.2 5.5h6.3l3.2-5.5-3.2-5.5h-6.3zM221 107.8l3.2 5.4h6.3l3.2-5.4-3.2-5.6h-6.3zM221 134.2l3.2 5.6h6.3l3.2-5.6-3.2-5.4h-6.3zM221 81.2l3.2 5.6h6.3l3.2-5.6-3.2-5.4h-6.3zM221 68l3.2 5.5h6.3l3.2-5.5-3.2-5.5h-6.3zM221 54.8l3.2 5.4h6.3l3.2-5.4-3.2-5.6h-6.3zM221 41.5l3.2 5.5h6.3l3.2-5.5-3.2-5.5h-6.3zM221 94.5l3.2 5.5h6.3l3.2-5.5-3.2-5.5h-6.3z"
         id="path74" />
    </g>
  </g>
  <g
     clip-rule="evenodd"
     fill="#1a1a1a"
     fill-rule="evenodd"
     id="g86">
    <path
       d="M254.1 115l3.2 5.5h6.3l3.2-5.5-3.2-5.5h-6.3zM254.1 101.8l3.2 5.4h6.3l3.2-5.4-3.2-5.6h-6.3zM254.1 128.2l3.2 5.6h6.3l3.2-5.6-3.2-5.4h-6.3zM254.1 141.5l3.2 5.5h6.3l3.2-5.5-3.2-5.5h-6.3zM254.1 75.2l3.2 5.6h6.3l3.2-5.6-3.2-5.4h-6.3zM254.1 62l3.2 5.5h6.3l3.2-5.5-3.2-5.5h-6.3zM254.1 48.8l3.2 5.4h6.3l3.2-5.4-3.2-5.6h-6.3zM254.1 35.5l3.2 5.5h6.3l3.2-5.5-3.2-5.5h-6.3zM254.1 88.5l3.2 5.5h6.3l3.2-5.5-3.2-5.5h-6.3z"
       id="path80" />
    <g
       id="g84">
      <path
         d="M243 121l3.2 5.5h6.3l3.2-5.5-3.2-5.5h-6.3zM243 107.8l3.2 5.4h6.3l3.2-5.4-3.2-5.6h-6.3zM243 134.2l3.2 5.6h6.3l3.2-5.6-3.2-5.4h-6.3zM243 81.2l3.2 5.6h6.3l3.2-5.6-3.2-5.4h-6.3zM243 68l3.2 5.5h6.3l3.2-5.5-3.2-5.5h-6.3zM243 54.8l3.2 5.4h6.3l3.2-5.4-3.2-5.6h-6.3zM243 41.5l3.2 5.5h6.3l3.2-5.5-3.2-5.5h-6.3zM243 94.5l3.2 5.5h6.3l3.2-5.5-3.2-5.5h-6.3z"
         id="path82" />
    </g>
  </g>
  <g
     clip-rule="evenodd"
     fill="#1a1a1a"
     fill-rule="evenodd"
     id="g90">
    <path
       d="M265 121l3.2 5.5h6.3l3.2-5.5-3.2-5.5h-6.3zM265 107.8l3.2 5.4h6.3l3.2-5.4-3.2-5.6h-6.3zM265 134.2l3.2 5.6h6.3l3.2-5.6-3.2-5.4h-6.3zM265 81.2l3.2 5.6h6.3l3.2-5.6-3.2-5.4h-6.3zM265 68l3.2 5.5h6.3l3.2-5.5-3.2-5.5h-6.3zM265 54.8l3.2 5.4h6.3l3.2-5.4-3.2-5.6h-6.3zM265 41.5l3.2 5.5h6.3l3.2-5.5-3.2-5.5h-6.3zM265 94.5l3.2 5.5h6.3l3.2-5.5-3.2-5.5h-6.3z"
       id="path88" />
  </g>
  <g
     id="g96">
    <path
       d="M20.3 153.5C9.4 153.5.5 144.8.5 134V20C.5 9.2 9.4.5 20.3.5h113.9v2.8h9V.5h23.5v3.2h9V.5h113.9c10.9 0 19.8 8.7 19.8 19.5v114c0 10.8-8.9 19.5-19.8 19.5zm152-22c3.2 0 5.8 2.4 6.1 5.5v.5h92.5c2.5 0 4.6-2 4.6-4.5V38.5h-10.2V35c0-2.5-2-4.5-4.6-4.5H51.3c-2.5 0-4.6 2-4.6 4.5v3.5H36.6V133c0 2.5 2 4.5 4.6 4.5h90.4v-.5c.2-3.1 2.9-5.5 6.1-5.5 3.2 0 5.8 2.4 6.1 5.5v.5h22.3v-.5c.3-3.1 3-5.5 6.2-5.5z"
       fill="#333"
       id="path92" />
    <path
       d="M289.7 1C300.3 1 309 9.5 309 20v114c0 10.5-8.7 19-19.3 19H20.3C9.7 153 1 144.5 1 134V20C1 9.5 9.7 1 20.3 1h113.4v2.8h10V1h22.5v3.2h10V1h113.5M46.3 38H36.1v95c0 2.8 2.3 5 5.1 5h90.9l.1-.9c.2-2.8 2.7-5.1 5.6-5.1 2.9 0 5.4 2.2 5.6 5.1l.1.9H166.7l.1-.9c.2-2.8 2.7-5.1 5.6-5.1 2.9 0 5.4 2.2 5.6 5.1l.1.9H271c2.8 0 5.1-2.2 5.1-5V38h-10.2v-3c0-2.8-2.3-5-5.1-5H51.3c-2.8 0-5.1 2.2-5.1 5v3M289.7 0H175.2v3.2h-8V0h-24.5v2.8h-8V0H20.3C9.1 0 0 9 0 20v114c0 11 9.1 20 20.3 20h269.3c11.2 0 20.3-9 20.3-20V20c.1-11-9-20-20.2-20zM41.2 137c-2.2 0-4.1-1.8-4.1-4V39h10.2v-4c0-2.2 1.8-4 4.1-4h209.4c2.2 0 4.1 1.8 4.1 4v4h10.2v94c0 2.2-1.8 4-4.1 4h-92c-.3-3.4-3.1-6-6.6-6-3.5 0-6.3 2.6-6.6 6h-21.4c-.3-3.4-3.1-6-6.6-6-3.5 0-6.3 2.6-6.6 6z"
       fill="#b4b4b4"
       id="path94" />
  </g>
  <g
     id="g102">
    <circle
       cx="18"
       cy="17"
       r="5.3"
       fill="#333"
       id="circle98" />
    <path
       d="M18 12.3c2.6 0 4.7 2.1 4.7 4.7s-2.1 4.7-4.7 4.7-4.7-2.1-4.7-4.7 2.1-4.7 4.7-4.7m0-1.3c-3.3 0-6 2.7-6 6s2.7 6 6 6 6-2.7 6-6-2.7-6-6-6z"
       fill="#1a1a1a"
       id="path100" />
  </g>
  <g
     id="g124">
    <path
       fill="#1a1a1a"
       d="M36 6h194v23H36z"
       id="path104" />
    <path
       fill="#676767"
       d="M37 28h192l1 1H36z"
       id="path106" />
    <path
       d="M42 26.5c-1.9 0-3.5-1.6-3.5-3.5V11c0-1.9 1.6-3.5 3.5-3.5h182c1.9 0 3.5 1.6 3.5 3.5v12c0 1.9-1.6 3.5-3.5 3.5z"
       fill="#989898"
       id="path108" />
    <path
       d="M224 8c1.7 0 3 1.3 3 3v12c0 1.7-1.3 3-3 3H42c-1.7 0-3-1.3-3-3V11c0-1.7 1.3-3 3-3h182m0-1H42c-2.2 0-4 1.8-4 4v12c0 2.2 1.8 4 4 4h182c2.2 0 4-1.8 4-4V11c0-2.2-1.8-4-4-4z"
       fill="#b4b4b4"
       id="path110" />
    <g
       fill="#333"
       id="g122">
      <path
         d="M45.8 19.9v-5.7h3.9v1H47v1.4h2.4v1H47V20h-1.2zM55.4 19.9h-1.3l-.5-1.3h-2.3l-.5 1.3h-1.2l2.2-5.7H53zm-2.2-2.3l-.8-2.1-.8 2.1zM55.9 19.9v-5.7H57l2.3 3.8v-3.8h1.1v5.7h-1.2L57 16.1v3.7h-1.1z"
         id="path112" />
      <g
         id="g116">
        <path
           d="M65.5 18l1.1-.1c.1.4.2.7.4.8.2.1.5.3.8.3.4 0 .7-.1.8-.2.2-.2.3-.3.3-.6 0-.1 0-.3-.1-.3-.1-.1-.2-.2-.4-.2-.1 0-.4-.1-.9-.2-.6-.2-1.1-.3-1.3-.6-.4-.3-.5-.7-.5-1.2 0-.3.1-.6.2-.8.2-.3.4-.4.7-.6.3-.1.7-.2 1.1-.2.7 0 1.3.2 1.6.5.3.3.6.7.6 1.3l-1.2.1c0-.3-.2-.5-.3-.6-.2-.1-.4-.2-.7-.2-.3 0-.6.1-.8.2-.1.1-.2.2-.2.4 0 .1.1.3.2.3.1.1.5.2 1.1.4.6.2 1 .3 1.2.4.2.1.5.3.6.6.1.3.2.6.2.9 0 .3-.1.6-.3.9-.2.3-.4.5-.8.6-.3.1-.7.2-1.2.2-.7 0-1.3-.2-1.7-.5-.2-.5-.4-1-.5-1.6zM72.4 19.9v-4.8h-1.7v-1h4.6v1h-1.7v4.8zM80.5 19.9h-1.3l-.5-1.3h-2.3l-.5 1.3h-1.2l2.2-5.7h1.2zm-2.2-2.3l-.8-2.1-.8 2.1zM81.7 19.9v-4.8H80v-1h4.6v1h-1.7v4.8z"
           id="path114" />
      </g>
      <g
         id="g120">
        <path
           d="M123.2 19.9v-5.7h1.1l2.3 3.8v-3.8h1.1v5.7h-1.2l-2.3-3.7v3.7zM132.6 17.8l1.1.4c-.2.6-.5 1.1-.9 1.4-.4.3-.9.5-1.5.5-.8 0-1.4-.3-1.9-.8s-.7-1.2-.7-2.1c0-1 .2-1.7.7-2.2.5-.5 1.1-.8 1.9-.8.7 0 1.3.2 1.7.6.3.2.5.6.6 1.1l-1.1.3c-.1-.3-.2-.5-.4-.7-.2-.2-.5-.3-.8-.3-.4 0-.8.2-1 .5-.3.3-.4.8-.4 1.5s.1 1.2.4 1.5c.3.3.6.5 1 .5.3 0 .6-.1.8-.3.2-.4.4-.7.5-1.1zM134.3 18l1.1-.1c.1.4.2.7.4.8.2.1.5.3.8.3.4 0 .7-.1.8-.2.2-.2.3-.3.3-.6 0-.1 0-.3-.1-.3-.1-.1-.2-.2-.4-.2-.1 0-.4-.1-.9-.2-.6-.2-1.1-.3-1.3-.6-.4-.3-.5-.7-.5-1.2 0-.3.1-.6.2-.8.2-.3.4-.4.7-.6.3-.1.7-.2 1.1-.2.7 0 1.3.2 1.6.5.3.3.6.7.6 1.3l-1.2.1c0-.3-.2-.5-.3-.6-.2-.1-.4-.2-.7-.2-.3 0-.6.1-.8.2-.1.1-.2.2-.2.4 0 .1.1.3.2.3.1.1.5.2 1.1.4.6.2 1 .3 1.2.4.2.1.5.3.6.6.1.3.2.6.2.9 0 .3-.1.6-.3.9-.2.3-.4.5-.8.6-.3.1-.7.2-1.2.2-.7 0-1.3-.2-1.7-.5-.2-.5-.4-1-.5-1.6zM139.7 18.3v-1.1h2.2v1.1zM145 19.9h-1.1v-4.1c-.4.4-.9.7-1.4.8v-1c.3-.1.6-.3.9-.5.3-.2.6-.6.7-.9h.9zM146.8 19.9v-5.7h2.4c.6 0 1.1.1 1.3.2.2.1.5.3.7.5.2.3.2.6.2.9 0 .4-.1.8-.4 1.1-.3.3-.6.5-1.1.5.2.1.5.3.6.5.2.2.4.5.7.9l.7 1.1h-1.4l-.8-1.2c-.3-.4-.5-.7-.6-.8-.1-.1-.2-.2-.3-.2-.1 0-.3-.1-.6-.1h-.2V20h-1.2zm1.2-3.3h.9c.6 0 .9 0 1-.1.1 0 .2-.1.3-.2.1-.1.1-.3.1-.4 0-.2-.1-.3-.2-.5-.1-.1-.2-.2-.4-.2H148zM152.5 14.1h1.2v4.1c0 .2.2.4.4.6.2.1.4.2.8.2.3 0 .6-.1.7-.2.2-.1.3-.3.3-.5s.1-.5.1-1v-3.2h1.2v3c0 .7 0 1.2-.1 1.5-.1.3-.2.5-.3.7-.1.2-.4.4-.7.5-.3.1-.6.2-1.1.2-.5 0-1-.1-1.2-.2-.3-.1-.5-.3-.7-.5-.2-.2-.3-.4-.3-.6-.1-.3-.1-.8-.1-1.5v-3.1zM158.1 18.3v-1.1h2.2v1.1zM160.8 19.9v-5.7h3.9v1h-2.8v1.4h2.4v1h-2.4V20h-1.1zM170.3 19.9H169l-.5-1.3h-2.3l-.5 1.3h-1.2l2.2-5.7h1.2zm-2.1-2.3l-.8-2.1-.8 2.1zM170.9 19.9v-5.7h1.1l2.3 3.8v-3.8h1.1v5.7h-1.2l-2.3-3.7v3.7zM176.4 18.3v-1.1h2.2v1.1zM179.1 19.9v-5.7h3.9v1h-2.8v1.4h2.4v1h-2.4V20h-1.1zM184.7 19.9l-1.4-5.7h1.2l.9 3.9 1-3.9h1.4l1 4 .9-4h1.2l-1.4 5.7h-1.2l-1.1-4.3-1.1 4.3z"
           id="path118" />
      </g>
    </g>
  </g>
  <g
     id="g152">
    <path
       fill="#333"
       d="M94 54h5v46h-5z"
       id="path126" />
    <path
       fill="#1a1a1a"
       d="M94 100h5v1h-5zM94 53h5v1h-5z"
       id="path128" />
    <path
       fill="#333"
       d="M206 54h5v46h-5z"
       id="path130" />
    <path
       fill="#1a1a1a"
       d="M206 100h5v1h-5zM206 53h5v1h-5z"
       id="path132" />
    <g
       id="g138">
      <path
         fill="#1a1a1a"
         d="M211 54l45-3v52l-45-3z"
         id="path134" />
      <path
         fill="#333"
         d="M211 100l45 3v1l-45-3zM211 53l45-3v1l-45 3z"
         id="path136" />
    </g>
    <g
       id="g144">
      <path
         fill="#1a1a1a"
         d="M99 54l-45-3v52l45-3z"
         id="path140" />
      <path
         fill="#333"
         d="M99 100l-45 3v1l45-3zM99 53l-45-3v1l45 3z"
         id="path142" />
    </g>
    <g
       id="g150">
      <path
         fill="#4e4e4e"
         d="M99 54h107v46H99z"
         id="path146" />
      <path
         fill="#676767"
         d="M99 100h107v1H99zM99 53h107v1H99z"
         id="path148" />
    </g>
  </g>
  <g
     id="g238">
    <path
       d="M258.5 115.5v-77l49.4-1.9c.9 0 1.6.7 1.6 1.5v77.8c0 .8-.7 1.5-1.5 1.5z"
       fill="#989898"
       id="path154" />
    <path
       d="M308 37.1c.6 0 1 .4 1 1v77.8c0 .6-.4 1-1 1l-49-1.9V39l49-1.9m0-1s-.1 0 0 0L258 38v78l49.9 1.9h.1c1.1 0 2-.9 2-2V38.1c0-1.1-.9-2-2-2z"
       fill="#e6e6e5"
       id="path156" />
    <path
       d="M252 115.5c-.8 0-1.5-.7-1.5-1.5V40c0-.8.7-1.5 1.5-1.5h8c.8 0 1.5.7 1.5 1.5v74c0 .8-.7 1.5-1.5 1.5z"
       fill="#b4b4b4"
       id="path158" />
    <path
       d="M260 39c.6 0 1 .4 1 1v74c0 .6-.4 1-1 1h-8c-.6 0-1-.4-1-1V40c0-.6.4-1 1-1h8m0-1h-8c-1.1 0-2 .9-2 2v74c0 1.1.9 2 2 2h8c1.1 0 2-.9 2-2V40c0-1.1-.9-2-2-2z"
       fill="#989898"
       id="path160" />
    <path
       d="M307.6 117h-3.1c-.8 0-1.4-.6-1.4-1.4V38.4c0-.8.6-1.4 1.4-1.4h3.1c.8 0 1.4.6 1.4 1.4v77.1c0 .9-.6 1.5-1.4 1.5z"
       fill="#818181"
       id="path162" />
    <g
       fill="#e6e6e5"
       id="g168">
      <path
         d="M279.5 51.5h1v50h-1z"
         id="path164" />
      <path
         d="M280 52v49-49m1-1h-2v51h2z"
         id="path166" />
    </g>
    <g
       fill="#ccc"
       id="g174">
      <path
         d="M281.4 51.4h.3v50.3h-.3z"
         id="path170" />
      <path
         d="M281 102h1V51h-1z"
         id="path172" />
    </g>
    <g
       fill="#e6e6e5"
       id="g180">
      <path
         d="M270.5 51.5h1v50h-1z"
         id="path176" />
      <path
         d="M271 52v49-49m1-1h-2v51h2z"
         id="path178" />
    </g>
    <path
       fill="#b4b4b4"
       d="M272.4 51.4h.3v50.3h-.3z"
       id="path182" />
    <path
       fill="#ccc"
       d="M272 102h1V51h-1z"
       id="path184" />
    <g
       id="g198">
      <g
         fill="#e6e6e5"
         id="g190">
        <path
           d="M265.5 51.5h1v50h-1z"
           id="path186" />
        <path
           d="M266 52v49-49m1-1h-2v51h2z"
           id="path188" />
      </g>
      <g
         fill="#b4b4b4"
         id="g196">
        <path
           d="M267.4 51.4h.3v50.3h-.3z"
           id="path192" />
        <path
           d="M267 102h1V51h-1z"
           id="path194" />
      </g>
    </g>
    <g
       id="g212">
      <g
         fill="#e6e6e5"
         id="g204">
        <path
           d="M262.5 51.5h1v50h-1z"
           id="path200" />
        <path
           d="M263 52v49-49m1-1h-2v51h2z"
           id="path202" />
      </g>
      <g
         fill="#b4b4b4"
         id="g210">
        <path
           d="M264.4 51.4h.3v50.3h-.3z"
           id="path206" />
        <path
           d="M264 102h1V51h-1z"
           id="path208" />
      </g>
    </g>
    <g
       id="g224">
      <path
         d="M271 41.5c-.3 0-.5-.2-.5-.5v-2c0-.3.2-.5.5-.5l29-1c.3 0 .5.2.5.5v3c0 .3-.2.5-.5.5z"
         fill="#989898"
         id="path214" />
      <path
         d="M300 38v3h-29v-2l29-1m0-1l-29 1c-.6 0-1 .4-1 1v2c0 .6.4 1 1 1h29c.6 0 1-.4 1-1v-3c0-.6-.4-1-1-1z"
         fill="#e6e6e5"
         id="path216" />
      <g
         id="g222">
        <path
           fill="#818181"
           d="M300.1 41.5l-2.4 4h-24.4l-2.4-4z"
           id="path218" />
        <path
           d="M299.2 42l-1.8 3h-23.9l-1.8-3h27.5m1.8-1h-31l3 5h25z"
           fill="#e6e6e5"
           id="path220" />
      </g>
    </g>
    <g
       id="g236">
      <path
         d="M271 115.5c-.3 0-.5-.2-.5-.5v-2c0-.3.2-.5.5-.5h29c.3 0 .5.2.5.5v3c0 .3-.2.5-.5.5z"
         fill="#989898"
         id="path226" />
      <path
         d="M300 113v3l-29-1v-2h29m0-1h-29c-.6 0-1 .4-1 1v2c0 .6.4 1 1 1l29 1c.6 0 1-.4 1-1v-3c0-.6-.4-1-1-1z"
         fill="#e6e6e5"
         id="path228" />
      <g
         id="g234">
        <path
           fill="#818181"
           d="M297.7 108.5l2.4 4h-29.2l2.4-4z"
           id="path230" />
        <path
           d="M297.4 109l1.8 3h-27.5l1.8-3h23.9m.6-1h-25l-3 5h31z"
           fill="#e6e6e5"
           id="path232" />
      </g>
    </g>
  </g>
  <g
     id="g324">
    <path
       d="M2 117.4c-.8 0-1.5-.7-1.5-1.5V38.1c0-.8.7-1.5 1.5-1.5l49.5 1.9v77z"
       fill="#989898"
       id="path240" />
    <path
       d="M2 37.1L51 39v76l-49 1.9c-.6 0-1-.4-1-1V38.1c0-.6.4-1 1-1m0-1c-1.1 0-2 .9-2 2v77.8c0 1.1.9 2 2 2h.1L52 116V38L2 36.1c.1 0 0 0 0 0z"
       fill="#e6e6e5"
       id="path242" />
    <path
       d="M50 115.5c-.8 0-1.5-.7-1.5-1.5V40c0-.8.7-1.5 1.5-1.5h8c.8 0 1.5.7 1.5 1.5v74c0 .8-.7 1.5-1.5 1.5z"
       fill="#b4b4b4"
       id="path244" />
    <path
       d="M58 39c.6 0 1 .4 1 1v74c0 .6-.4 1-1 1h-8c-.6 0-1-.4-1-1V40c0-.6.4-1 1-1h8m0-1h-8c-1.1 0-2 .9-2 2v74c0 1.1.9 2 2 2h8c1.1 0 2-.9 2-2V40c0-1.1-.9-2-2-2z"
       fill="#989898"
       id="path246" />
    <path
       d="M2.4 117h3.1c.8 0 1.4-.6 1.4-1.4V38.4c.1-.8-.5-1.4-1.3-1.4H2.4c-.8 0-1.4.6-1.4 1.4v77.1c0 .9.6 1.5 1.4 1.5z"
       fill="#818181"
       id="path248" />
    <g
       fill="#e6e6e5"
       id="g254">
      <path
         d="M29.5 51.5h1v50h-1z"
         id="path250" />
      <path
         d="M30 52v49-49m1-1h-2v51h2z"
         id="path252" />
    </g>
    <g
       fill="#ccc"
       id="g260">
      <path
         d="M28.4 51.4h.3v50.3h-.3z"
         id="path256" />
      <path
         d="M28 102h1V51h-1z"
         id="path258" />
    </g>
    <g
       fill="#e6e6e5"
       id="g266">
      <path
         d="M38.5 51.5h1v50h-1z"
         id="path262" />
      <path
         d="M39 52v49-49m1-1h-2v51h2z"
         id="path264" />
    </g>
    <path
       fill="#b4b4b4"
       d="M37.4 51.4h.3v50.3h-.3z"
       id="path268" />
    <path
       fill="#ccc"
       d="M37 102h1V51h-1z"
       id="path270" />
    <g
       id="g284">
      <g
         fill="#e6e6e5"
         id="g276">
        <path
           d="M43.5 51.5h1v50h-1z"
           id="path272" />
        <path
           d="M44 52v49-49m1-1h-2v51h2z"
           id="path274" />
      </g>
      <g
         fill="#b4b4b4"
         id="g282">
        <path
           d="M42.4 51.4h.3v50.3h-.3z"
           id="path278" />
        <path
           d="M42 102h1V51h-1z"
           id="path280" />
      </g>
    </g>
    <g
       id="g298">
      <g
         fill="#e6e6e5"
         id="g290">
        <path
           d="M46.5 51.5h1v50h-1z"
           id="path286" />
        <path
           d="M47 52v49-49m1-1h-2v51h2z"
           id="path288" />
      </g>
      <g
         fill="#b4b4b4"
         id="g296">
        <path
           d="M45.4 51.4h.3v50.3h-.3z"
           id="path292" />
        <path
           d="M45 102h1V51h-1z"
           id="path294" />
      </g>
    </g>
    <g
       id="g310">
      <path
         d="M10 41.5c-.3 0-.5-.2-.5-.5v-3c0-.3.2-.5.5-.5l29 1c.3 0 .5.2.5.5v2c0 .3-.2.5-.5.5z"
         fill="#989898"
         id="path300" />
      <path
         d="M10 38l29 1v2H10v-3m0-1c-.6 0-1 .4-1 1v3c0 .6.4 1 1 1h29c.6 0 1-.4 1-1v-2c0-.6-.4-1-1-1z"
         fill="#e6e6e5"
         id="path302" />
      <g
         id="g308">
        <path
           fill="#818181"
           d="M39.1 41.5l-2.4 4H12.3l-2.4-4z"
           id="path304" />
        <path
           d="M38.2 42l-1.8 3H12.6l-1.8-3h27.4m1.8-1H9l3 5h25z"
           fill="#e6e6e5"
           id="path306" />
      </g>
    </g>
    <g
       id="g322">
      <path
         d="M10 116.5c-.3 0-.5-.2-.5-.5v-3c0-.3.2-.5.5-.5h29c.3 0 .5.2.5.5v2c0 .3-.2.5-.5.5z"
         fill="#989898"
         id="path312" />
      <path
         d="M39 113v2l-29 1v-3h29m0-1H10c-.6 0-1 .4-1 1v3c0 .6.4 1 1 1l29-1c.6 0 1-.4 1-1v-2c0-.6-.4-1-1-1z"
         fill="#e6e6e5"
         id="path314" />
      <g
         id="g320">
        <path
           fill="#818181"
           d="M36.7 108.5l2.4 4H9.9l2.4-4z"
           id="path316" />
        <path
           d="M36.4 109l1.8 3H10.8l1.8-3h23.8m.6-1H12l-3 5h31z"
           fill="#e6e6e5"
           id="path318" />
      </g>
    </g>
  </g>
  <text
     xml:space="preserve"
     style="font-style:normal;font-weight:normal;font-size:40px;line-height:1.25;font-family:sans-serif;fill:#000000;fill-opacity:1;stroke:none"
     x="125.3"
     y="80.800003"
     id="text336"><tspan
       sodipodi:role="line"
       id="tspan334"
       x="125.3"
       y="80.800003" /></text>
</svg>
