<?xml version="1.0" encoding="UTF-8" standalone="no"?>
<svg
   xmlns:dc="http://purl.org/dc/elements/1.1/"
   xmlns:cc="http://creativecommons.org/ns#"
   xmlns:rdf="http://www.w3.org/1999/02/22-rdf-syntax-ns#"
   xmlns:svg="http://www.w3.org/2000/svg"
   xmlns="http://www.w3.org/2000/svg"
   xmlns:sodipodi="http://sodipodi.sourceforge.net/DTD/sodipodi-0.dtd"
   xmlns:inkscape="http://www.inkscape.org/namespaces/inkscape"
   width="210"
   height="154"
   viewBox="0 0 210.00002 154"
   version="1.1"
   id="svg158"
   sodipodi:docname="NCS-5501_Rear_powersupply.svg"
   inkscape:version="1.0.1 (3bc2e813f5, 2020-09-07)">
  <metadata
     id="metadata164">
    <rdf:RDF>
      <cc:Work
         rdf:about="">
        <dc:format>image/svg+xml</dc:format>
        <dc:type
           rdf:resource="http://purl.org/dc/dcmitype/StillImage" />
      </cc:Work>
    </rdf:RDF>
  </metadata>
  <defs
     id="defs162" />
  <sodipodi:namedview
     pagecolor="#ffffff"
     bordercolor="#666666"
     borderopacity="1"
     objecttolerance="10"
     gridtolerance="10"
     guidetolerance="10"
     inkscape:pageopacity="0"
     inkscape:pageshadow="2"
     inkscape:window-width="1280"
     inkscape:window-height="658"
     id="namedview160"
     showgrid="false"
     inkscape:zoom="3.1818182"
     inkscape:cx="105"
     inkscape:cy="77"
     inkscape:window-x="-6"
     inkscape:window-y="-6"
     inkscape:window-maximized="1"
     inkscape:current-layer="svg158" />
  <path
     fill="#1a1a1a"
     d="M0 0h210v154H0z"
     id="path2" />
  <path
     d="M4 33.2V4.8c0-1.7 1.3-3 3-3h121v31.5H4zM5 152.5c-.8 0-1.5-.7-1.5-1.5s.7-1.5 1.5-1.5h199c.8 0 1.5.7 1.5 1.5s-.7 1.5-1.5 1.5z"
     fill="#ccc"
     id="path4" />
  <path
     d="M204 150c.6 0 1 .4 1 1s-.4 1-1 1H5c-.6 0-1-.4-1-1s.4-1 1-1h199m0-1H5c-1.1 0-2 .9-2 2s.9 2 2 2h199c1.1 0 2-.9 2-2s-.9-2-2-2z"
     fill="#333"
     id="path6" />
  <path
     d="M171 140.2h10l18.5-18.5h7.5v-111c-1.4 0-6.5-2.2-6.5-5H129v146.5h42z"
     fill="#ccc"
     id="path8" />
  <path
     d="M4 34.8v113.5c3 0 5.4 1.8 5.4 4H171V34.8z"
     fill="#ccc"
     id="path10" />
  <path
     fill="#1a1a1a"
     d="M163.3 36.4l-4.3-7.5h-8.5l-4.3 7.5 4.3 7.5h8.5zM163.3 56.3l-4.3-7.5h-8.5l-4.3 7.5 4.3 7.5h8.5zM163.3 76.2l-4.3-7.4h-8.5l-4.3 7.4 4.3 7.5h8.5zM163.3 96.2l-4.3-7.5h-8.5l-4.3 7.5 4.3 7.4h8.5zM163.3 116.1l-4.3-7.5h-8.5l-4.3 7.5 4.3 7.5h8.5zM180.7 65.8l-4.3-7.4h-8.5l-4.3 7.4 4.3 7.5h8.5zM180.7 85.8l-4.3-7.5h-8.5l-4.3 7.5 4.3 7.4h8.5zM180.7 105.7l-4.3-7.5h-8.5l-4.3 7.5 4.3 7.5h8.5zM180.7 125.6l-4.3-7.5h-8.5l-4.3 7.5 4.3 7.5h8.5zM128.5 16.5L124.2 9h-8.5l-4.3 7.5 4.3 7.5h8.5zM128.5 116.1l-4.3-7.5h-8.5l-4.3 7.5 4.3 7.5h8.5zM128.5 136l-4.3-7.5h-8.5l-4.3 7.5 4.3 7.5h8.5zM145.9 45.9l-4.3-7.5h-8.5l-4.3 7.5 4.3 7.5h8.5zM145.9 65.8l-4.3-7.4h-8.5l-4.3 7.4 4.3 7.5h8.5zM145.9 85.8l-4.3-7.5h-8.5l-4.3 7.5 4.3 7.4h8.5zM145.9 105.7l-4.3-7.5h-8.5l-4.3 7.5 4.3 7.5h8.5zM145.9 125.6l-4.3-7.5h-8.5l-4.3 7.5 4.3 7.5h8.5zM93.7 16.5L89.4 9h-8.5l-4.3 7.5 4.3 7.5h8.5zM93.7 116.1l-4.3-7.5h-8.5l-4.3 7.5 4.3 7.5h8.5zM93.7 136l-4.3-7.5h-8.5l-4.3 7.5 4.3 7.5h8.5z"
     id="path12" />
  <g
     id="g16">
    <path
       fill="#1a1a1a"
       d="M111.1 26l-4.3-7.5h-8.5L94 26l4.3 7.5h8.5zM111.1 105.7l-4.3-7.5h-8.5l-4.3 7.5 4.3 7.5h8.5zM111.1 125.6l-4.3-7.5h-8.5l-4.3 7.5 4.3 7.5h8.5z"
       id="path14" />
  </g>
  <g
     id="g20">
    <path
       fill="#1a1a1a"
       d="M58.9 16.5L54.6 9h-8.5l-4.3 7.5 4.3 7.5h8.5zM58.9 116.1l-4.3-7.5h-8.5l-4.3 7.5 4.3 7.5h8.5zM58.9 136l-4.3-7.5h-8.5l-4.3 7.5 4.3 7.5h8.5z"
       id="path18" />
  </g>
  <g
     id="g24">
    <path
       fill="#1a1a1a"
       d="M76.3 26L72 18.5h-8.5L59.2 26l4.3 7.5H72zM76.3 105.7L72 98.2h-8.5l-4.3 7.5 4.3 7.5H72zM76.3 125.6l-4.3-7.5h-8.5l-4.3 7.5 4.3 7.5H72z"
       id="path22" />
  </g>
  <g
     id="g28">
    <path
       fill="#1a1a1a"
       d="M24.1 16.5L19.8 9h-8.5L7 16.5l4.3 7.5h8.5zM24.1 116.1l-4.3-7.5h-8.5L7 116.1l4.3 7.5h8.5zM24.1 136l-4.3-7.5h-8.5L7 136l4.3 7.5h8.5z"
       id="path26" />
  </g>
  <g
     id="g32">
    <path
       fill="#1a1a1a"
       d="M41.5 26l-4.3-7.5h-8.5L24.4 26l4.3 7.5h8.5z"
       id="path30" />
  </g>
  <g
     id="g36">
    <path
       fill="#1a1a1a"
       d="M41.5 105.7l-4.3-7.5h-8.5l-4.3 7.5 4.3 7.5h8.5z"
       id="path34" />
  </g>
  <g
     id="g40">
    <path
       fill="#1a1a1a"
       d="M41.5 125.6l-4.3-7.5h-8.5l-4.3 7.5 4.3 7.5h8.5z"
       id="path38" />
  </g>
  <g
     id="g44">
    <path
       fill="#1a1a1a"
       d="M185.3 63.8l-4.3-7.5h17.1l-4.3 7.5zM198.1 76.2l-4.3-7.4h-8.5l-4.3 7.4 4.3 7.5h8.5zM198.1 96.2l-4.3-7.5h-8.5l-4.3 7.5 4.3 7.4h8.5zM198.1 116.1l-4.3-7.5h-8.5l-4.3 7.5 4.3 7.5h8.5z"
       id="path42" />
  </g>
  <g
     id="g48">
    <path
       fill="#1a1a1a"
       d="M106.8 15.5l4.2-7.3H94.1l4.2 7.3z"
       id="path46" />
  </g>
  <g
     id="g52">
    <path
       fill="#1a1a1a"
       d="M72 15.5l4.2-7.3H59.3l4.2 7.3z"
       id="path50" />
  </g>
  <g
     id="g56">
    <path
       fill="#1a1a1a"
       d="M37.2 15.5l4.2-7.3H24.5l4.2 7.3z"
       id="path54" />
  </g>
  <g
     id="g60">
    <path
       fill="#1a1a1a"
       d="M133.1 138l-3 5.2h14.5l-3-5.2z"
       id="path58" />
  </g>
  <g
     id="g64">
    <path
       fill="#1a1a1a"
       d="M98.3 138l-3 5.2h14.5l-3-5.2z"
       id="path62" />
  </g>
  <g
     id="g68">
    <path
       fill="#1a1a1a"
       d="M63.5 138l-3 5.2H75l-3-5.2z"
       id="path66" />
  </g>
  <g
     id="g72">
    <path
       fill="#1a1a1a"
       d="M28.7 138l-3.4 6h15.3l-3.4-6z"
       id="path70" />
  </g>
  <g
     id="g78">
    <path
       d="M133 4.5c-.8 0-1.5-.7-1.5-1.5s.7-1.5 1.5-1.5h71c.8 0 1.5.7 1.5 1.5s-.7 1.5-1.5 1.5z"
       fill="#ccc"
       id="path74" />
    <path
       d="M204 2c.6 0 1 .4 1 1s-.4 1-1 1h-71c-.6 0-1-.4-1-1s.4-1 1-1h71m0-1h-71c-1.1 0-2 .9-2 2s.9 2 2 2h71c1.1 0 2-.9 2-2s-.9-2-2-2z"
       fill="#333"
       id="path76" />
  </g>
  <g
     id="g84">
    <path
       d="M207 150.8c-.3 0-.5-.2-.5-.5V2.2c0-.3.2-.5.5-.5h2c.3 0 .5.2.5.5v148c0 .3-.2.5-.5.5h-2z"
       fill="#ccc"
       id="path80" />
    <path
       d="M209 2.2v148h-2V2.2h2m0-1h-2c-.6 0-1 .4-1 1v148c0 .6.4 1 1 1h2c.6 0 1-.4 1-1V2.2c0-.5-.4-1-1-1z"
       fill="#333"
       id="path82" />
  </g>
  <g
     id="g90">
    <path
       d="M1 151c-.3 0-.5-.2-.5-.5V2.5c0-.3.2-.5.5-.5h2c.3 0 .5.2.5.5v148c0 .3-.2.5-.5.5z"
       fill="#ccc"
       id="path86" />
    <path
       d="M3 2.5v148H1V2.5h2m0-1H1c-.6 0-1 .4-1 1v148c0 .6.4 1 1 1h2c.6 0 1-.4 1-1V2.5c0-.6-.4-1-1-1z"
       fill="#333"
       id="path88" />
  </g>
  <g
     id="g96">
    <path
       d="M151 143.5c-5.5 0-10-4.5-10-10v-110c0-5.5 4.5-10 10-10s10 4.5 10 10v110c0 5.5-4.5 10-10 10z"
       fill="#b4b4b4"
       id="path92" />
    <path
       d="M151 14.5c5 0 9 4 9 9v110c0 5-4 9-9 9s-9-4-9-9v-110c0-5 4-9 9-9m0-2c-6.1 0-11 4.9-11 11v110c0 6.1 4.9 11 11 11s11-4.9 11-11v-110c0-6.1-4.9-11-11-11z"
       fill="#4e4e4e"
       id="path94" />
  </g>
  <g
     id="g102">
    <path
       d="M195 149c-3.6 0-6.5-2.9-6.5-6.5v-25c0-3.6 2.9-6.5 6.5-6.5h6c3.6 0 6.5 2.9 6.5 6.5v25c0 3.6-2.9 6.5-6.5 6.5z"
       fill="#b4b4b4"
       id="path98" />
    <path
       d="M201 111.5c3.3 0 6 2.7 6 6v25c0 3.3-2.7 6-6 6h-6c-3.3 0-6-2.7-6-6v-25c0-3.3 2.7-6 6-6h6m0-1h-6c-3.9 0-7 3.1-7 7v25c0 3.9 3.1 7 7 7h6c3.9 0 7-3.1 7-7v-25c0-3.9-3.1-7-7-7z"
       fill="#4e4e4e"
       id="path100" />
  </g>
  <g
     id="g120">
    <path
       d="M11 114.8c-.8 0-1.5-.7-1.5-1.5v-88c0-.8.7-1.5 1.5-1.5h112c.8 0 1.5.7 1.5 1.5v88c0 .8-.7 1.5-1.5 1.5z"
       clip-rule="evenodd"
       fill="#333"
       fill-rule="evenodd"
       id="path104" />
    <path
       d="M123 24.2c.6 0 1 .5 1 1v88c0 .6-.5 1-1 1H11c-.6 0-1-.5-1-1v-88c0-.6.5-1 1-1h112m0-1H11c-1.1 0-2 .9-2 2v88c0 1.1.9 2 2 2h112c1.1 0 2-.9 2-2v-88c0-1-.9-2-2-2z"
       fill="#989898"
       id="path106" />
    <g
       id="g118">
      <path
         stroke-miterlimit="2"
         d="M100.2 101.5H33.8c-8 0-14.4-6.4-14.4-14.4V69.6c0-4 1.6-7.2 4-9.6l14.4-16.8c3.2-2.4 6.4-4 10.4-4h37.6c4 0 8 1.6 10.4 4L110.6 60c2.4 2.4 4 5.6 4 9.6v17.6c0 7.9-6.4 14.3-14.4 14.3z"
         fill="none"
         stroke="#000"
         stroke-width=".06"
         stroke-linecap="round"
         stroke-linejoin="round"
         id="path108" />
      <path
         d="M100.2 101.5H33.8c-8 0-14.4-6.4-14.4-14.4V69.6c0-4 1.6-7.2 4-9.6l14.4-16.8c3.2-2.4 6.4-4 10.4-4h37.6c4 0 8 1.6 10.4 4L110.6 60c2.4 2.4 4 5.6 4 9.6v17.6c0 7.9-6.4 14.3-14.4 14.3z"
         clip-rule="evenodd"
         fill="#262626"
         fill-rule="evenodd"
         id="path110" />
      <path
         d="M70.6 56.8h-6.4c-.8 0-1.6 0-1.6.8v12.8c0 .8.8.8 1.6.8h6.4s.8 0 .8-.8V57.6c0-.8-.8-.8-.8-.8zM47.4 73.5h-5.6c-.8 0-1.6.8-1.6 1.6v12.8s.8.8 1.6.8h5.6c.8 0 1.6-.8 1.6-.8V75.1c0-.8-.8-1.6-1.6-1.6z"
         clip-rule="evenodd"
         fill="#818181"
         fill-rule="evenodd"
         id="path112" />
      <path
         d="M93 73.5h-6.4c-.8 0-.8.8-.8 1.6v12.8s0 .8.8.8H93l.8-.8V75.1c0-.8-.8-1.6-.8-1.6z"
         clip-rule="evenodd"
         fill="#989898"
         fill-rule="evenodd"
         id="path114" />
      <path
         stroke-miterlimit="2"
         d="M70.6 56.8h-6.4c-.8 0-1.6 0-1.6.8v12.8c0 .8.8.8 1.6.8h6.4s.8 0 .8-.8V57.6c0-.8-.8-.8-.8-.8zM47.4 73.5h-5.6c-.8 0-1.6.8-1.6 1.6v12.8s.8.8 1.6.8h5.6c.8 0 1.6-.8 1.6-.8V75.1c0-.8-.8-1.6-1.6-1.6zM93 73.5h-6.4c-.8 0-.8.8-.8 1.6v12.8s0 .8.8.8H93l.8-.8V75.1c0-.8-.8-1.6-.8-1.6z"
         fill="none"
         stroke="#8c8c8c"
         stroke-width=".06"
         stroke-linecap="round"
         stroke-linejoin="round"
         id="path116" />
    </g>
  </g>
  <g
     id="g134">
    <path
       d="M174.5 27.8c-5.5 0-10-4.5-10-10s4.5-10 10-10 10 4.5 10 10-4.5 10-10 10z"
       clip-rule="evenodd"
       fill="#333"
       fill-rule="evenodd"
       id="path122" />
    <path
       d="M174.5 8.2c5.2 0 9.5 4.3 9.5 9.5s-4.3 9.5-9.5 9.5-9.5-4.2-9.5-9.4 4.3-9.6 9.5-9.6m0-1c-5.8 0-10.5 4.7-10.5 10.5s4.7 10.5 10.5 10.5S185 23.5 185 17.8s-4.7-10.6-10.5-10.6z"
       fill="#818181"
       id="path124" />
    <circle
       cx="174.5"
       cy="17.8"
       r="5"
       clip-rule="evenodd"
       fill="#ccc"
       fill-rule="evenodd"
       id="circle126" />
    <path
       d="M174.5 13.2c2.5 0 4.5 2 4.5 4.5s-2 4.5-4.5 4.5-4.5-2-4.5-4.5 2-4.5 4.5-4.5m0-1c-3 0-5.5 2.5-5.5 5.5s2.5 5.5 5.5 5.5 5.5-2.5 5.5-5.5-2.5-5.5-5.5-5.5z"
       fill="#818181"
       id="path128" />
    <g
       id="g132">
      <ellipse
         cx="174.5"
         cy="15.8"
         rx="2"
         ry="1"
         clip-rule="evenodd"
         fill="#f3f3f3"
         fill-rule="evenodd"
         id="ellipse130" />
    </g>
  </g>
  <g
     id="g148">
    <path
       d="M174.5 51.8c-5.5 0-10-4.5-10-10s4.5-10 10-10 10 4.5 10 10-4.5 10-10 10z"
       clip-rule="evenodd"
       fill="#333"
       fill-rule="evenodd"
       id="path136" />
    <path
       d="M174.5 32.2c5.2 0 9.5 4.3 9.5 9.5s-4.3 9.5-9.5 9.5-9.5-4.2-9.5-9.4 4.3-9.6 9.5-9.6m0-1c-5.8 0-10.5 4.7-10.5 10.5s4.7 10.5 10.5 10.5S185 47.5 185 41.8s-4.7-10.6-10.5-10.6z"
       fill="#818181"
       id="path138" />
    <circle
       cx="174.5"
       cy="41.8"
       r="5"
       clip-rule="evenodd"
       fill="#ccc"
       fill-rule="evenodd"
       id="circle140" />
    <path
       d="M174.5 37.2c2.5 0 4.5 2 4.5 4.5s-2 4.5-4.5 4.5-4.5-2-4.5-4.5 2-4.5 4.5-4.5m0-1c-3 0-5.5 2.5-5.5 5.5s2.5 5.5 5.5 5.5 5.5-2.5 5.5-5.5-2.5-5.5-5.5-5.5z"
       fill="#818181"
       id="path142" />
    <g
       id="g146">
      <ellipse
         cx="174.5"
         cy="39.8"
         rx="2"
         ry="1"
         clip-rule="evenodd"
         fill="#f3f3f3"
         fill-rule="evenodd"
         id="ellipse144" />
    </g>
  </g>
  <g
     fill="#010101"
     id="g152">
    <path
       d="M188.2 21.5v-7.2h4v.8H189v2.2h2.8v.8H189v3.3h-.8zM192 21.5l2.3-7.2h.8l2.4 7.2h-.9l-.7-2.2h-2.5l-.6 2.2zm1.7-2.9h2l-.6-2c-.2-.6-.3-1.1-.4-1.5-.1.5-.2.9-.3 1.4zM198.3 21.5v-7.2h.8v7.2zM200.4 21.5v-7.2h.8v6.3h2.9v.8h-3.7z"
       id="path150" />
  </g>
  <g
     fill="#010101"
     id="g156">
    <path
       d="M187.9 42c0-1.2.3-2.2.8-2.8.5-.6 1.2-1 2-1 .5 0 1 .1 1.4.4.4.3.8.7 1 1.3.2.6.4 1.2.4 2 0 1.1-.2 1.9-.7 2.6-.5.7-1.2 1.1-2.1 1.1-.9 0-1.6-.4-2.1-1.1-.5-.7-.7-1.5-.7-2.5zm.8 0c0 .9.2 1.6.6 2.1.4.5.9.7 1.4.7.6 0 1-.2 1.4-.7.4-.5.6-1.2.6-2.2 0-.6-.1-1.2-.3-1.7-.2-.4-.4-.7-.7-.9-.3-.2-.6-.3-1-.3-.6 0-1.1.2-1.4.7-.3.5-.6 1.3-.6 2.3zM194.5 45.5v-7.2h.8v3.5l2.9-3.5h1.1l-2.5 2.9 2.6 4.3h-1l-2.1-3.6-1 1.1v2.5z"
       id="path154" />
  </g>
  <text
     xml:space="preserve"
     style="font-style:normal;font-weight:normal;font-size:40px;line-height:1.25;font-family:sans-serif;fill:#000000;fill-opacity:1;stroke:none"
     x="149.91429"
     y="100.25714"
     id="text168"><tspan
       sodipodi:role="line"
       id="tspan166"
       x="149.91429"
       y="100.25714" /></text>
</svg>
