<?xml version="1.0" encoding="UTF-8" standalone="no"?>
<svg
   xmlns:dc="http://purl.org/dc/elements/1.1/"
   xmlns:cc="http://creativecommons.org/ns#"
   xmlns:rdf="http://www.w3.org/1999/02/22-rdf-syntax-ns#"
   xmlns:svg="http://www.w3.org/2000/svg"
   xmlns="http://www.w3.org/2000/svg"
   xmlns:sodipodi="http://sodipodi.sourceforge.net/DTD/sodipodi-0.dtd"
   xmlns:inkscape="http://www.inkscape.org/namespaces/inkscape"
   version="1.1"
   id="Layer_3"
   x="0"
   y="0"
   viewBox="0 0 837 164"
   xml:space="preserve"
   width="837"
   height="164"
   sodipodi:docname="A99-RP-F_filler.svg"
   inkscape:version="0.92.1 r15371"><metadata
     id="metadata60"><rdf:RDF><cc:Work
         rdf:about=""><dc:format>image/svg+xml</dc:format><dc:type
           rdf:resource="http://purl.org/dc/dcmitype/StillImage" /></cc:Work></rdf:RDF></metadata><defs
     id="defs58" /><sodipodi:namedview
     pagecolor="#ffffff"
     bordercolor="#666666"
     borderopacity="1"
     objecttolerance="10"
     gridtolerance="10"
     guidetolerance="10"
     inkscape:pageopacity="0"
     inkscape:pageshadow="2"
     inkscape:window-width="1920"
     inkscape:window-height="986"
     id="namedview56"
     showgrid="false"
     inkscape:zoom="2.0920077"
     inkscape:cx="418.4975"
     inkscape:cy="82.00037"
     inkscape:window-x="-11"
     inkscape:window-y="-11"
     inkscape:window-maximized="1"
     inkscape:current-layer="Layer_3" /><style
     type="text/css"
     id="style2">.st1{fill:#666}.st2{fill-rule:evenodd;clip-rule:evenodd;fill:#d9d9d9}.st3{fill:#ccc}.st4{fill:#999}.st5{fill:#4d4d4d}</style><g
     id="g98"
     transform="scale(.9847 1.03797)"><g
       id="g96"><g
         id="g10"><path
           d="M49.2 157.5c-1.4 0-2.5-1.1-2.5-2.5V64.8H6c-3 0-5.5-2.5-5.5-5.5V10.4C.5 7.4 3 4.9 6 4.9h40.7V.5h756.5v75.4H844c3 0 5.5 2.5 5.5 5.5V127c0 3-2.5 5.5-5.5 5.5h-40.7V154c0 1.9-1.6 3.5-3.5 3.5z"
           id="path4"
           style="fill:#eee" /><g
           id="g8"><path
             class="st1"
             d="M802.8 1v75.4H844c2.8 0 5 2.2 5 5V127c0 2.8-2.2 5-5 5h-41.2v22c0 1.7-1.3 3-3 3H49.2c-1.1 0-2-.9-2-2V64.3H6c-2.8 0-5-2.2-5-5V10.4c0-2.8 2.2-5 5-5h41.2V1h755.6m1-1H46.2v4.4H6c-3.3 0-6 2.7-6 6v48.9c0 3.3 2.7 6 6 6h40.2V155c0 1.7 1.3 3 3 3h750.5c2.2 0 4-1.8 4-4v-21H844c3.3 0 6-2.7 6-6V81.4c0-3.3-2.7-6-6-6h-40.2z"
             id="path6"
             style="fill:#666" /></g></g><g
         id="g52"><g
           id="g16"><path
             class="st2"
             d="M829 124.2c-5.5 0-10.6-2.1-14.5-6-3.9-3.9-6-9-6-14.5s2.1-10.6 6-14.5c3.9-3.9 9-6 14.5-6s10.6 2.1 14.5 6c3.9 3.9 6 9 6 14.5s-2.1 10.6-6 14.5c-3.9 3.9-9 6-14.5 6z"
             id="path12"
             style="clip-rule:evenodd;fill:#d9d9d9;fill-rule:evenodd" /><path
             class="st1"
             d="M829 83.7c5.3 0 10.4 2.1 14.1 5.9 3.8 3.8 5.9 8.8 5.9 14.1 0 5.3-2.1 10.4-5.9 14.1-3.8 3.8-8.8 5.9-14.1 5.9-5.3 0-10.4-2.1-14.1-5.9-3.8-3.8-5.9-8.8-5.9-14.1 0-5.3 2.1-10.4 5.9-14.1 3.7-3.8 8.8-5.9 14.1-5.9m0-1c-5.6 0-10.9 2.2-14.9 6.1-4 4-6.1 9.2-6.1 14.9 0 5.7 2.2 10.9 6.1 14.9 4 4 9.2 6.1 14.9 6.1 5.6 0 10.9-2.2 14.9-6.1 4-4 6.1-9.2 6.1-14.9 0-5.7-2.2-10.9-6.1-14.9-4-3.9-9.3-6.1-14.9-6.1z"
             id="path14"
             style="fill:#666" /></g><g
           id="g22"><path
             class="st2"
             d="M829 123.6c-5.3 0-10.4-2.1-14.1-5.8-3.8-3.8-5.8-8.8-5.8-14.1 0-5.3 2.1-10.4 5.8-14.1 3.8-3.8 8.8-5.8 14.1-5.8 5.3 0 10.4 2.1 14.1 5.8 3.7 3.7 5.8 8.8 5.8 14.1 0 5.3-2.1 10.4-5.8 14.1-3.7 3.7-8.8 5.8-14.1 5.8z"
             id="path18"
             style="clip-rule:evenodd;fill:#d9d9d9;fill-rule:evenodd" /><path
             class="st3"
             d="M829 84.2c5.2 0 10.1 2 13.8 5.7 3.7 3.7 5.7 8.6 5.7 13.8 0 5.2-2 10.1-5.7 13.8-3.7 3.7-8.6 5.7-13.8 5.7-5.2 0-10.1-2-13.8-5.7-3.7-3.7-5.7-8.6-5.7-13.8 0-5.2 2-10.1 5.7-13.8 3.7-3.7 8.6-5.7 13.8-5.7m0-1c-5.5 0-10.6 2.1-14.5 6-3.9 3.9-6 9-6 14.5s2.1 10.6 6 14.5c3.9 3.9 9 6 14.5 6s10.6-2.1 14.5-6c3.9-3.9 6-9 6-14.5s-2.1-10.6-6-14.5c-3.9-3.9-9-6-14.5-6z"
             id="path20"
             style="fill:#ccc" /></g><g
           id="g28"><path
             class="st2"
             d="M829 117.2c-3.6 0-7-1.4-9.5-3.9s-3.9-5.9-3.9-9.5c0-3.6 1.4-7 3.9-9.5s5.9-3.9 9.5-3.9c3.6 0 7 1.4 9.5 3.9s3.9 5.9 3.9 9.5c0 3.6-1.4 7-3.9 9.5s-5.9 3.9-9.5 3.9z"
             id="path24"
             style="clip-rule:evenodd;fill:#d9d9d9;fill-rule:evenodd" /><path
             class="st4"
             d="M829 90.7c3.5 0 6.7 1.3 9.2 3.8 2.4 2.4 3.8 5.7 3.8 9.2 0 3.5-1.3 6.7-3.8 9.2-2.4 2.4-5.7 3.8-9.2 3.8-3.5 0-6.7-1.3-9.2-3.8-2.4-2.4-3.8-5.7-3.8-9.2 0-3.5 1.3-6.7 3.8-9.2 2.5-2.4 5.7-3.8 9.2-3.8m0-1c-3.7 0-7.3 1.5-9.9 4.1-2.6 2.6-4.1 6.2-4.1 9.9s1.5 7.3 4.1 9.9c2.6 2.6 6.2 4.1 9.9 4.1s7.3-1.5 9.9-4.1c2.6-2.6 4.1-6.2 4.1-9.9s-1.5-7.3-4.1-9.9c-2.6-2.7-6.2-4.1-9.9-4.1z"
             id="path26"
             style="fill:#999" /></g><g
           id="g34"><path
             class="st2"
             d="M829 115.6c-3.2 0-6.2-1.2-8.4-3.5-4.6-4.6-4.6-12.2 0-16.8 2.2-2.2 5.2-3.5 8.4-3.5s6.2 1.2 8.4 3.5 3.5 5.2 3.5 8.4-1.2 6.2-3.5 8.4-5.2 3.5-8.4 3.5z"
             id="path30"
             style="clip-rule:evenodd;fill:#d9d9d9;fill-rule:evenodd" /><path
             class="st5"
             d="M829 92.3c3 0 5.9 1.2 8.1 3.3 4.4 4.4 4.4 11.7 0 16.1-2.1 2.1-5 3.3-8.1 3.3-3.1 0-5.9-1.2-8.1-3.3-4.4-4.4-4.4-11.7 0-16.1 2.2-2.1 5.1-3.3 8.1-3.3m0-1c-3.2 0-6.3 1.2-8.8 3.6-4.8 4.8-4.8 12.7 0 17.5 2.4 2.4 5.6 3.6 8.8 3.6 3.2 0 6.3-1.2 8.8-3.6 4.8-4.8 4.8-12.7 0-17.5-2.5-2.4-5.6-3.6-8.8-3.6z"
             id="path32"
             style="fill:#4d4d4d" /></g><g
           id="g40"><path
             class="st2"
             d="M829 114.4c-2.9 0-5.6-1.1-7.6-3.2s-3.2-4.7-3.2-7.6c0-2.9 1.1-5.6 3.2-7.6s4.7-3.2 7.6-3.2c2.9 0 5.6 1.1 7.6 3.2 4.2 4.2 4.2 11 0 15.2-2 2.1-4.7 3.2-7.6 3.2z"
             id="path36"
             style="clip-rule:evenodd;fill:#d9d9d9;fill-rule:evenodd" /><path
             class="st5"
             d="M829 93.4c2.7 0 5.3 1.1 7.3 3 4 4 4 10.5 0 14.5-1.9 1.9-4.5 3-7.3 3s-5.3-1.1-7.3-3c-4-4-4-10.5 0-14.5 2-1.9 4.6-3 7.3-3m0-1c-2.9 0-5.8 1.1-8 3.3-4.4 4.4-4.4 11.5 0 15.9 2.2 2.2 5.1 3.3 8 3.3 2.9 0 5.8-1.1 8-3.3 4.4-4.4 4.4-11.5 0-15.9-2.2-2.2-5.1-3.3-8-3.3z"
             id="path38"
             style="fill:#4d4d4d" /></g><g
           id="g50"><g
             id="g44"><path
               class="st5"
               id="rect42"
               style="fill:#4d4d4d"
               d="M827.3 96.4h3.4V111h-3.4z" /></g><g
             id="g48"><path
               class="st5"
               id="rect46"
               style="fill:#4d4d4d"
               d="M821.7 102h14.6v3.4h-14.6z" /></g></g></g><g
         id="g94"><g
           id="g58"><path
             class="st2"
             d="M21 55.2c-5.5 0-10.6-2.1-14.5-6-3.9-3.9-6-9-6-14.5s2.1-10.6 6-14.5c3.9-3.9 9-6 14.5-6s10.6 2.1 14.5 6c3.9 3.9 6 9 6 14.5s-2.1 10.6-6 14.5c-3.9 3.9-9 6-14.5 6z"
             id="path54"
             style="clip-rule:evenodd;fill:#d9d9d9;fill-rule:evenodd" /><path
             class="st1"
             d="M21 14.7c5.3 0 10.4 2.1 14.1 5.9 3.8 3.8 5.9 8.8 5.9 14.1 0 5.3-2.1 10.4-5.9 14.1-3.8 3.8-8.8 5.9-14.1 5.9-5.3 0-10.4-2.1-14.1-5.9C3.1 45.1 1 40 1 34.7c0-5.3 2.1-10.4 5.9-14.1 3.7-3.8 8.8-5.9 14.1-5.9m0-1c-5.6 0-10.9 2.2-14.9 6.1-4 4-6.1 9.2-6.1 14.9 0 5.6 2.2 10.9 6.1 14.9 4 4 9.2 6.1 14.9 6.1 5.6 0 10.9-2.2 14.9-6.1 4-4 6.1-9.2 6.1-14.9 0-5.6-2.2-10.9-6.1-14.9-4-3.9-9.3-6.1-14.9-6.1z"
             id="path56"
             style="fill:#666" /></g><g
           id="g64"><path
             class="st2"
             d="M21 54.6c-5.3 0-10.4-2.1-14.1-5.8C3.1 45 1 40 1 34.7c0-5.3 2.1-10.4 5.8-14.1 3.8-3.8 8.8-5.8 14.1-5.8 5.3 0 10.4 2.1 14.1 5.8 3.8 3.8 5.8 8.8 5.8 14.1 0 5.3-2.1 10.4-5.8 14.1-3.6 3.8-8.7 5.8-14 5.8z"
             id="path60"
             style="clip-rule:evenodd;fill:#d9d9d9;fill-rule:evenodd" /><path
             class="st3"
             d="M21 15.2c5.2 0 10.1 2 13.8 5.7 3.7 3.7 5.7 8.6 5.7 13.8 0 5.2-2 10.1-5.7 13.8-3.7 3.7-8.6 5.7-13.8 5.7-5.2 0-10.1-2-13.8-5.7-3.7-3.7-5.7-8.6-5.7-13.8 0-5.2 2-10.1 5.7-13.8 3.7-3.7 8.6-5.7 13.8-5.7m0-1c-5.5 0-10.6 2.1-14.5 6-3.9 3.9-6 9-6 14.5s2.1 10.6 6 14.5c3.9 3.9 9 6 14.5 6s10.6-2.1 14.5-6c3.9-3.9 6-9 6-14.5s-2.1-10.6-6-14.5c-3.9-3.9-9-6-14.5-6z"
             id="path62"
             style="fill:#ccc" /></g><g
           id="g70"><path
             class="st2"
             d="M21 48.2c-3.6 0-7-1.4-9.5-3.9s-3.9-5.9-3.9-9.5c0-3.6 1.4-7 3.9-9.5s5.9-3.9 9.5-3.9c3.6 0 7 1.4 9.5 3.9s3.9 5.9 3.9 9.5c0 3.6-1.4 7-3.9 9.5s-5.9 3.9-9.5 3.9z"
             id="path66"
             style="clip-rule:evenodd;fill:#d9d9d9;fill-rule:evenodd" /><path
             class="st4"
             d="M21 21.7c3.5 0 6.7 1.3 9.2 3.8 2.4 2.4 3.8 5.7 3.8 9.2 0 3.5-1.3 6.7-3.8 9.2-2.4 2.4-5.7 3.8-9.2 3.8-3.5 0-6.7-1.3-9.2-3.8C9.4 41.4 8 38.2 8 34.7c0-3.5 1.3-6.7 3.8-9.2 2.5-2.4 5.7-3.8 9.2-3.8m0-1c-3.7 0-7.3 1.5-9.9 4.1C8.5 27.4 7 30.9 7 34.7c0 3.7 1.5 7.3 4.1 9.9 2.6 2.6 6.2 4.1 9.9 4.1s7.3-1.5 9.9-4.1c2.6-2.6 4.1-6.2 4.1-9.9s-1.5-7.3-4.1-9.9c-2.6-2.7-6.2-4.1-9.9-4.1z"
             id="path68"
             style="fill:#999" /></g><g
           id="g76"><path
             class="st2"
             d="M21 46.6c-3.2 0-6.2-1.2-8.4-3.5-4.6-4.6-4.6-12.2 0-16.8 2.2-2.2 5.2-3.5 8.4-3.5s6.2 1.2 8.4 3.5 3.5 5.2 3.5 8.4-1.2 6.2-3.5 8.4-5.2 3.5-8.4 3.5z"
             id="path72"
             style="clip-rule:evenodd;fill:#d9d9d9;fill-rule:evenodd" /><path
             class="st5"
             d="M21 23.3c3 0 5.9 1.2 8.1 3.3 4.4 4.4 4.4 11.7 0 16.1-2.1 2.1-5 3.3-8.1 3.3-3 0-5.9-1.2-8.1-3.3-4.4-4.4-4.4-11.7 0-16.1 2.2-2.1 5.1-3.3 8.1-3.3m0-1c-3.2 0-6.3 1.2-8.8 3.6-4.8 4.8-4.8 12.7 0 17.5 2.4 2.4 5.6 3.6 8.8 3.6 3.2 0 6.3-1.2 8.8-3.6 4.8-4.8 4.8-12.7 0-17.5-2.5-2.4-5.6-3.6-8.8-3.6z"
             id="path74"
             style="fill:#4d4d4d" /></g><g
           id="g82"><path
             class="st2"
             d="M21 45.4c-2.9 0-5.6-1.1-7.6-3.2s-3.2-4.7-3.2-7.6c0-2.9 1.1-5.6 3.2-7.6s4.7-3.2 7.6-3.2c2.9 0 5.6 1.1 7.6 3.2s3.2 4.7 3.2 7.6c0 2.9-1.1 5.6-3.2 7.6s-4.7 3.2-7.6 3.2z"
             id="path78"
             style="clip-rule:evenodd;fill:#d9d9d9;fill-rule:evenodd" /><path
             class="st5"
             d="M21 24.4c2.7 0 5.3 1.1 7.3 3 4 4 4 10.5 0 14.5-1.9 1.9-4.5 3-7.3 3-2.7 0-5.3-1.1-7.3-3-4-4-4-10.5 0-14.5 2-1.9 4.6-3 7.3-3m0-1c-2.9 0-5.8 1.1-8 3.3-4.4 4.4-4.4 11.5 0 15.9 2.2 2.2 5.1 3.3 8 3.3 2.9 0 5.8-1.1 8-3.3 4.4-4.4 4.4-11.5 0-15.9-2.2-2.2-5.1-3.3-8-3.3z"
             id="path80"
             style="fill:#4d4d4d" /></g><g
           id="g92"><g
             id="g86"><path
               class="st5"
               id="rect84"
               style="fill:#4d4d4d"
               d="M19.3 27.4h3.4V42h-3.4z" /></g><g
             id="g90"><path
               class="st5"
               id="rect88"
               style="fill:#4d4d4d"
               d="M13.7 33h14.6v3.4H13.7z" /></g></g></g></g></g><g
     id="g106"
     transform="scale(.9847 1.03797)"><path
       d="M62.2 146.7c-3 0-5.5-2.5-5.5-5.5V16.3c0-3 2.5-5.5 5.5-5.5h726c3 0 5.5 2.5 5.5 5.5v124.9c0 3-2.5 5.5-5.5 5.5z"
       id="path100"
       style="fill:#bfbfbf" /><g
       id="g104"><path
         d="M788.2 11.3c2.8 0 5 2.2 5 5v124.9c0 2.8-2.2 5-5 5h-726c-2.8 0-5-2.2-5-5V16.3c0-2.8 2.2-5 5-5h726m0-1h-726c-3.3 0-6 2.7-6 6v124.9c0 3.3 2.7 6 6 6h726c3.3 0 6-2.7 6-6V16.3c0-3.3-2.6-6-6-6z"
         id="path102"
         style="fill:gray" /></g></g><text
     xml:space="preserve"
     style="font-style:normal;font-weight:normal;font-size:40px;line-height:1.25;font-family:sans-serif;letter-spacing:0px;word-spacing:0px;fill:#000000;fill-opacity:1;stroke:none"
     x="245.21898"
     y="128.14928"
     id="text64"><tspan
       sodipodi:role="line"
       id="tspan62"
       x="245.21898"
       y="164.64249" /></text>
</svg>