<?xml version="1.0" encoding="UTF-8" standalone="no"?>
<svg
   xmlns:dc="http://purl.org/dc/elements/1.1/"
   xmlns:cc="http://creativecommons.org/ns#"
   xmlns:rdf="http://www.w3.org/1999/02/22-rdf-syntax-ns#"
   xmlns:svg="http://www.w3.org/2000/svg"
   xmlns="http://www.w3.org/2000/svg"
   xmlns:sodipodi="http://sodipodi.sourceforge.net/DTD/sodipodi-0.dtd"
   xmlns:inkscape="http://www.inkscape.org/namespaces/inkscape"
   id="ASR-9903_front_coreLayer_6"
   data-name="Layer 6"
   version="1.1"
   width="1680.064"
   height="498"
   viewBox="0 0 1680.0641 498.00009"
   sodipodi:docname="ASR-9903_front_core.svg"
   inkscape:version="0.92.1 r15371">
  <metadata
     id="metadata67">
    <rdf:RDF>
      <cc:Work
         rdf:about="">
        <dc:format>image/svg+xml</dc:format>
        <dc:type
           rdf:resource="http://purl.org/dc/dcmitype/StillImage" />
      </cc:Work>
    </rdf:RDF>
  </metadata>
  <sodipodi:namedview
     pagecolor="#ffffff"
     bordercolor="#666666"
     borderopacity="1"
     objecttolerance="10"
     gridtolerance="10"
     guidetolerance="10"
     inkscape:pageopacity="0"
     inkscape:pageshadow="2"
     inkscape:window-width="1920"
     inkscape:window-height="986"
     id="namedview65"
     showgrid="false"
     inkscape:zoom="1.0422222"
     inkscape:cx="840.03198"
     inkscape:cy="248.99995"
     inkscape:window-x="-11"
     inkscape:window-y="-11"
     inkscape:window-maximized="1"
     inkscape:current-layer="ASR-9903_front_coreLayer_6" />
  <defs
     id="ASR-9903_front_coredefs4">
    <style
       id="ASR-9903_front_corestyle2" />
  </defs>
  <path
     id="ASR-9903_front_corerect6"
     d="M.021 0h1680v498H.021z" />
  <g
     id="ASR-9903_front_coreLayer_5"
     data-name="Layer 5"
     transform="translate(.021)">
    <path
       class="ASR-9903_front_corecls-1"
       id="ASR-9903_front_corerect8"
       style="fill:#e6e6e6"
       d="M27 1h1641v5H27z" />
    <path
       class="ASR-9903_front_corecls-2"
       id="ASR-9903_front_corerect10"
       style="fill:#ccc"
       d="M27.5 490.5h1640v7H27.5z" />
    <path
       class="ASR-9903_front_corecls-3"
       d="M1667 491v6H28v-6h1639m1-1H27v8h1641z"
       id="ASR-9903_front_corepath12"
       style="fill:#1a1a1a" />
    <path
       class="ASR-9903_front_corecls-2"
       d="M1667.48 497.5v-3.24h8.52l.09-.21c.41-.2.39-.73.35-2.28V7.22c0-1.55.06-2.08-.36-2.27l-.08-.19H1668.44V1.5h7.56a2.86 2.86 0 0 1 2.17 1c1.39 1.52 1.43 2.2 1.35 4.86V491.7c.08 2.66 0 3.34-1.35 4.86a2.86 2.86 0 0 1-2.17 1z"
       id="ASR-9903_front_corepath14"
       style="fill:#ccc" />
    <path
       class="ASR-9903_front_corecls-4"
       d="M1676 2a2.34 2.34 0 0 1 1.8.81c1.27 1.38 1.29 1.91 1.22 4.5v484.37c.07 2.6 0 3.13-1.22 4.51a2.34 2.34 0 0 1-1.8.81h-8v-2.24h8.39l.16-.36c.52-.38.49-1.18.45-2.62V7.24c0-1.45.07-2.26-.45-2.64l-.16-.36H1669V2h7m0-1h-8v4.24h7.73c.18.43.34-.51.27 2V491.82c.07 2.48-.09 1.54-.27 2H1667V498h9a3.36 3.36 0 0 0 2.54-1.13c1.51-1.65 1.56-2.47 1.48-5.22V7.35c.08-2.75 0-3.57-1.48-5.22A3.36 3.36 0 0 0 1676 1z"
       id="ASR-9903_front_corepath16"
       style="fill:#999" />
    <path
       class="ASR-9903_front_corecls-2"
       d="M4 497.5a2.86 2.86 0 0 1-2.17-1C.48 495 .44 494.33.52 491.67V249C.52 138.4.53 6.51.52 6.33.44 3.67.48 3 1.87 1.47A2.86 2.86 0 0 1 4 .5h21.5v3.24H4L3.87 4c-.41.2-.39.73-.35 2.28v485.5c0 1.55-.06 2.08.35 2.27l.09.19H27.5v3.24z"
       id="ASR-9903_front_corepath18"
       style="fill:#ccc" />
    <path
       class="ASR-9903_front_corecls-4"
       d="M25 1v2.24H3.63l-.16.36C3 4 3 4.78 3 6.22V491.76c0 1.45-.07 2.26.45 2.64l.16.36H27V497H4a2.34 2.34 0 0 1-1.8-.81C1 494.81 1 494.28 1 491.68V6.32c0-2.6 0-3.13 1.24-4.51A2.34 2.34 0 0 1 4 1h21m1-1H4a3.36 3.36 0 0 0-2.5 1.13C0 2.78-.06 3.6 0 6.35v485.3c-.08 2.75 0 3.57 1.48 5.22A3.36 3.36 0 0 0 4 498h24v-4.24H4.29c-.18-.43-.34.51-.27-2V298.97H4V6.21c-.07-2.48.09-1.54.27-2H26z"
       id="ASR-9903_front_corepath20"
       style="fill:#999" />
  </g>
  <path
     class="ASR-9903_front_corecls-2"
     id="ASR-9903_front_corerect23"
     style="fill:#ccc"
     d="M4.521 332.5h7v7h-7z" />
  <path
     class="ASR-9903_front_corecls-4"
     d="M11.021 333v6h-6v-6h6m1-1h-8v8h8z"
     id="ASR-9903_front_corepath25"
     style="fill:#999" />
  <path
     class="ASR-9903_front_corecls-2"
     id="ASR-9903_front_corerect27"
     style="fill:#ccc"
     d="M4.521 186.5h3v145h-3z" />
  <path
     class="ASR-9903_front_corecls-4"
     d="M7.021 187v144h-2V187h2m1-1h-4v146h4z"
     id="ASR-9903_front_corepath29"
     style="fill:#999" />
  <path
     class="ASR-9903_front_corecls-2"
     id="ASR-9903_front_corerect31"
     style="fill:#ccc"
     d="M1672.521 186.5h3v145h-3z" />
  <path
     class="ASR-9903_front_corecls-4"
     d="M1675.021 187v144h-2V187h2m1-1h-4v146h4z"
     id="ASR-9903_front_corepath33"
     style="fill:#999" />
  <path
     class="ASR-9903_front_corecls-2"
     id="ASR-9903_front_corerect35"
     style="fill:#ccc"
     d="M1668.521 332.5h7v7h-7z" />
  <path
     class="ASR-9903_front_corecls-4"
     d="M1675.021 333v6h-6v-6h6m1-1h-8v8h8z"
     id="ASR-9903_front_corepath37"
     style="fill:#999" />
  <g
     id="ASR-9903_front_coreLayer_16"
     data-name="Layer 16"
     transform="translate(.021)">
    <path
       class="ASR-9903_front_corecls-5"
       id="ASR-9903_front_corepolygon39"
       style="fill:#ccc;stroke:#999;stroke-miterlimit:10"
       d="M57 12h19.5v3H60v7.5h-3z" />
    <path
       class="ASR-9903_front_corecls-5"
       id="ASR-9903_front_corepolygon41"
       style="fill:#ccc;stroke:#999;stroke-miterlimit:10"
       d="M57 180.5h19.5v-3H60V170h-3z" />
    <rect
       class="ASR-9903_front_corecls-2"
       x="8.5"
       y="8.5"
       width="52"
       height="175"
       rx="3.5"
       id="ASR-9903_front_corerect43"
       style="fill:#ccc" />
    <path
       class="ASR-9903_front_corecls-4"
       d="M57 9a3 3 0 0 1 3 3v168a3 3 0 0 1-3 3H12a3 3 0 0 1-3-3V12a3 3 0 0 1 3-3h45m0-1H12a4 4 0 0 0-4 4v168a4 4 0 0 0 4 4h45a4 4 0 0 0 4-4V12a4 4 0 0 0-4-4z"
       id="ASR-9903_front_corepath45"
       style="fill:#999" />
    <circle
       class="ASR-9903_front_corecls-2"
       cx="36"
       cy="143"
       r="10.5"
       id="ASR-9903_front_corecircle47"
       style="fill:#ccc" />
    <path
       class="ASR-9903_front_corecls-4"
       d="M36 133a10 10 0 1 1-10 10 10 10 0 0 1 10-10m0-1a11 11 0 1 0 11 11 11 11 0 0 0-11-11z"
       id="ASR-9903_front_corepath49"
       style="fill:#999" />
    <circle
       class="ASR-9903_front_corecls-2"
       cx="36"
       cy="24"
       r="10.5"
       id="ASR-9903_front_corecircle51"
       style="fill:#ccc" />
    <path
       class="ASR-9903_front_corecls-4"
       d="M36 14a10 10 0 1 1-10 10 10 10 0 0 1 10-10m0-1a11 11 0 1 0 11 11 11 11 0 0 0-11-11z"
       id="ASR-9903_front_corepath53"
       style="fill:#999" />
    <circle
       class="ASR-9903_front_corecls-6"
       cx="36"
       cy="55"
       r="12.5"
       id="ASR-9903_front_corecircle55"
       style="fill:#333" />
    <path
       class="ASR-9903_front_corecls-4"
       d="M36 43a12 12 0 1 1-12 12 12 12 0 0 1 12-12m0-1a13 13 0 1 0 13 13 13 13 0 0 0-13-13z"
       id="ASR-9903_front_corepath57"
       style="fill:#999" />
    <rect
       class="ASR-9903_front_corecls-2"
       x="814.5"
       y="16.5"
       width="52"
       height="162"
       rx="3.5"
       id="ASR-9903_front_corerect59"
       style="fill:#ccc" />
    <path
       class="ASR-9903_front_corecls-4"
       d="M863 17a3 3 0 0 1 3 3v155a3 3 0 0 1-3 3h-45a3 3 0 0 1-3-3V20a3 3 0 0 1 3-3h45m0-1h-45a4 4 0 0 0-4 4v155a4 4 0 0 0 4 4h45a4 4 0 0 0 4-4V20a4 4 0 0 0-4-4z"
       id="ASR-9903_front_corepath61"
       style="fill:#999" />
    <path
       class="ASR-9903_front_corecls-2"
       id="ASR-9903_front_corerect63"
       style="fill:#ccc"
       d="M819.5 45.5h3v19h-3z" />
    <path
       class="ASR-9903_front_corecls-4"
       d="M822 46v18h-2V46h2m1-1h-4v20h4z"
       id="ASR-9903_front_corepath65"
       style="fill:#999" />
    <path
       class="ASR-9903_front_corecls-2"
       d="M821.5 75.5v-39H843a19.5 19.5 0 0 1 0 39z"
       id="ASR-9903_front_corepath67"
       style="fill:#ccc" />
    <path
       class="ASR-9903_front_corecls-4"
       d="M843 37a19 19 0 0 1 0 38h-21V37h21m0-1h-22v40h22a20 20 0 0 0 20-20 20 20 0 0 0-20-20z"
       id="ASR-9903_front_corepath69"
       style="fill:#999" />
    <circle
       class="ASR-9903_front_corecls-2"
       cx="842"
       cy="158"
       r="10.5"
       id="ASR-9903_front_corecircle71"
       style="fill:#ccc" />
    <path
       class="ASR-9903_front_corecls-4"
       d="M842 148a10 10 0 1 1-10 10 10 10 0 0 1 10-10m0-1a11 11 0 1 0 11 11 11 11 0 0 0-11-11z"
       id="ASR-9903_front_corepath73"
       style="fill:#999" />
    <circle
       class="ASR-9903_front_corecls-2"
       cx="842"
       cy="55"
       r="10.5"
       id="ASR-9903_front_corecircle75"
       style="fill:#ccc" />
    <path
       class="ASR-9903_front_corecls-4"
       d="M842 45a10 10 0 1 1-10 10 10 10 0 0 1 10-10m0-1a11 11 0 1 0 11 11 11 11 0 0 0-11-11z"
       id="ASR-9903_front_corepath77"
       style="fill:#999" />
    <circle
       class="ASR-9903_front_corecls-6"
       cx="843"
       cy="124"
       r="12.5"
       id="ASR-9903_front_corecircle79"
       style="fill:#333" />
    <path
       class="ASR-9903_front_corecls-4"
       d="M843 112a12 12 0 1 1-12 12 12 12 0 0 1 12-12m0-1a13 13 0 1 0 13 13 13 13 0 0 0-13-13z"
       id="ASR-9903_front_corepath81"
       style="fill:#999" />
    <path
       class="ASR-9903_front_corecls-5"
       id="ASR-9903_front_corepolygon83"
       style="fill:#ccc;stroke:#999;stroke-miterlimit:10"
       d="M1624.5 12H1605v3h16.5v7.5h3z" />
    <path
       class="ASR-9903_front_corecls-5"
       id="ASR-9903_front_corepolygon85"
       style="fill:#ccc;stroke:#999;stroke-miterlimit:10"
       d="M1624.5 180.5H1605v-3h16.5V170h3z" />
    <rect
       class="ASR-9903_front_corecls-2"
       x="1621"
       y="8.5"
       width="52"
       height="175"
       rx="3.5"
       id="ASR-9903_front_corerect87"
       style="fill:#ccc" />
    <path
       class="ASR-9903_front_corecls-4"
       d="M1669.5 9a3 3 0 0 1 3 3v168a3 3 0 0 1-3 3h-45a3 3 0 0 1-3-3V12a3 3 0 0 1 3-3h45m0-1h-45a4 4 0 0 0-4 4v168a4 4 0 0 0 4 4h45a4 4 0 0 0 4-4V12a4 4 0 0 0-4-4z"
       id="ASR-9903_front_corepath89"
       style="fill:#999" />
    <circle
       class="ASR-9903_front_corecls-2"
       cx="1651"
       cy="97"
       r="10.5"
       id="ASR-9903_front_corecircle91"
       style="fill:#ccc" />
    <path
       class="ASR-9903_front_corecls-4"
       d="M1651 87a10 10 0 1 1-10 10 10 10 0 0 1 10-10m0-1a11 11 0 1 0 11 11 11 11 0 0 0-11-11z"
       id="ASR-9903_front_corepath93"
       style="fill:#999" />
    <circle
       class="ASR-9903_front_corecls-7"
       cx="1653"
       cy="67"
       r="9.5"
       id="ASR-9903_front_corecircle95"
       style="fill:#4d4d4d" />
    <path
       class="ASR-9903_front_corecls-4"
       d="M1653 59a8 8 0 1 1-8 8 8 8 0 0 1 8-8m0-3a11 11 0 1 0 11 11 11 11 0 0 0-11-11z"
       id="ASR-9903_front_corepath97"
       style="fill:#999" />
    <circle
       class="ASR-9903_front_corecls-2"
       cx="1645.5"
       cy="24"
       r="10.5"
       id="ASR-9903_front_corecircle99"
       style="fill:#ccc" />
    <path
       class="ASR-9903_front_corecls-4"
       d="M1645.5 14a10 10 0 1 1-10 10 10 10 0 0 1 10-10m0-1a11 11 0 1 0 11 11 11 11 0 0 0-11-11z"
       id="ASR-9903_front_corepath101"
       style="fill:#999" />
    <circle
       class="ASR-9903_front_corecls-6"
       cx="1651"
       cy="122"
       r="12.5"
       id="ASR-9903_front_corecircle103"
       style="fill:#333" />
    <path
       class="ASR-9903_front_corecls-4"
       d="M1651 110a12 12 0 1 1-12 12 12 12 0 0 1 12-12m0-1a13 13 0 1 0 13 13 13 13 0 0 0-13-13z"
       id="ASR-9903_front_corepath105"
       style="fill:#999" />
    <path
       class="ASR-9903_front_corecls-2"
       id="ASR-9903_front_corerect107"
       style="fill:#ccc"
       d="M77.5 8.5h1527v5H77.5z" />
    <path
       class="ASR-9903_front_corecls-7"
       d="M1604 9v4H78V9h1526m1-1H77v6h1528z"
       id="ASR-9903_front_corepath109"
       style="fill:#4d4d4d" />
    <path
       class="ASR-9903_front_corecls-2"
       id="ASR-9903_front_corerect111"
       style="fill:#ccc"
       d="M68.5 177.5h748v5h-748z" />
    <path
       class="ASR-9903_front_corecls-7"
       d="M816 178v4H69v-4h747m1-1H68v6h749z"
       id="ASR-9903_front_corepath113"
       style="fill:#4d4d4d" />
    <path
       class="ASR-9903_front_corecls-2"
       id="ASR-9903_front_corerect115"
       style="fill:#ccc"
       d="M863.5 177.5h748v5h-748z" />
    <path
       class="ASR-9903_front_corecls-7"
       d="M1611 178v4H864v-4h747m1-1H863v6h749z"
       id="ASR-9903_front_corepath117"
       style="fill:#4d4d4d" />
  </g>
  <path
     class="ASR-9903_front_corecls-2"
     id="ASR-9903_front_corerect120"
     style="fill:#ccc"
     d="M816.521 37.5h3v35h-3z" />
  <path
     class="ASR-9903_front_corecls-4"
     d="M819.021 38v34h-2V38h2m1-1h-4v36h4z"
     id="ASR-9903_front_corepath122"
     style="fill:#999" />
  <text
     xml:space="preserve"
     style="font-style:normal;font-weight:normal;font-size:40px;line-height:1.25;font-family:sans-serif;letter-spacing:0px;word-spacing:0px;fill:#000000;fill-opacity:1;stroke:none"
     x="26.865673"
     y="109.40723"
     id="text71"><tspan
       sodipodi:role="line"
       id="tspan69"
       x="26.865673"
       y="145.90044" /></text>
</svg>
