<svg xmlns="http://www.w3.org/2000/svg" viewBox="0 0 1280 430" width="1280" height="430" role="img" aria-label="Cisco NCS55A1 front view">
  <defs>
    <linearGradient id="face" x1="0" x2="1">
      <stop offset="0" stop-color="#111827"/>
      <stop offset=".55" stop-color="#1f2937"/>
      <stop offset="1" stop-color="#0f172a"/>
    </linearGradient>
    <linearGradient id="metal" x1="0" x2="0" y1="0" y2="1">
      <stop offset="0" stop-color="#e5e7eb"/>
      <stop offset="1" stop-color="#9ca3af"/>
    </linearGradient>
  </defs>
  <rect x="28" y="42" width="1140" height="350" rx="10" fill="url(#metal)" stroke="#6b7280" stroke-width="3"/>
  <rect x="46" y="64" width="1104" height="306" rx="7" fill="url(#face)" stroke="#030712" stroke-width="2"/>
  <text x="70" y="88" font-size="20" font-family="Arial, Helvetica, sans-serif" font-weight="700" fill="#f9fafb">Cisco NCS55A1</text>
  <text x="70" y="112" font-size="13" font-family="Arial, Helvetica, sans-serif" fill="#9ca3af">Fixed 36x100G Scale Route Processor</text>
  <rect x="60" y="132" width="160" height="136" rx="6" fill="#374151" stroke="#6b7280"/>
  <text x="140" y="158" text-anchor="middle" font-size="14" font-family="Arial, Helvetica, sans-serif" fill="#f9fafb">0/RP0</text>
  <circle cx="93" cy="196" r="12" fill="#22c55e"/>
  <circle cx="136" cy="196" r="12" fill="#facc15"/>
  <circle cx="179" cy="196" r="12" fill="#64748b"/>
  <rect x="70" y="296" width="100" height="32" rx="4" fill="#111827" stroke="#60a5fa" stroke-width="2"/>
  <text x="120" y="318" text-anchor="middle" font-size="12" font-family="Arial, Helvetica, sans-serif" fill="#bfdbfe">MGMT</text>
  <rect x="252" y="64" width="620" height="220" rx="6" fill="#111827" stroke="#374151"/>
  <text x="562" y="80" text-anchor="middle" font-size="12" font-family="Arial, Helvetica, sans-serif" fill="#9ca3af">QSFP28 100G ports</text>
  <g><rect x="270" y="86" width="58" height="34" rx="4" fill="#1d4ed8" stroke="#93c5fd" stroke-width="2"/><rect x="277" y="94" width="44" height="18" rx="2" fill="#07111f" opacity=".74"/><text x="299" y="142" text-anchor="middle" font-size="12" fill="#d1d5db">0</text></g><g><rect x="337" y="86" width="58" height="34" rx="4" fill="#1d4ed8" stroke="#93c5fd" stroke-width="2"/><rect x="344" y="94" width="44" height="18" rx="2" fill="#07111f" opacity=".74"/><text x="366" y="142" text-anchor="middle" font-size="12" fill="#d1d5db">1</text></g><g><rect x="404" y="86" width="58" height="34" rx="4" fill="#1d4ed8" stroke="#93c5fd" stroke-width="2"/><rect x="411" y="94" width="44" height="18" rx="2" fill="#07111f" opacity=".74"/><text x="433" y="142" text-anchor="middle" font-size="12" fill="#d1d5db">2</text></g><g><rect x="471" y="86" width="58" height="34" rx="4" fill="#1f2937" stroke="#4b5563" stroke-width="2"/><rect x="478" y="94" width="44" height="18" rx="2" fill="#07111f" opacity=".74"/><text x="500" y="142" text-anchor="middle" font-size="12" fill="#d1d5db">3</text></g><g><rect x="538" y="86" width="58" height="34" rx="4" fill="#1d4ed8" stroke="#93c5fd" stroke-width="2"/><rect x="545" y="94" width="44" height="18" rx="2" fill="#07111f" opacity=".74"/><text x="567" y="142" text-anchor="middle" font-size="12" fill="#d1d5db">4</text></g><g><rect x="605" y="86" width="58" height="34" rx="4" fill="#1d4ed8" stroke="#93c5fd" stroke-width="2"/><rect x="612" y="94" width="44" height="18" rx="2" fill="#07111f" opacity=".74"/><text x="634" y="142" text-anchor="middle" font-size="12" fill="#d1d5db">5</text></g><g><rect x="672" y="86" width="58" height="34" rx="4" fill="#1f2937" stroke="#4b5563" stroke-width="2"/><rect x="679" y="94" width="44" height="18" rx="2" fill="#07111f" opacity=".74"/><text x="701" y="142" text-anchor="middle" font-size="12" fill="#d1d5db">6</text></g><g><rect x="739" y="86" width="58" height="34" rx="4" fill="#1f2937" stroke="#4b5563" stroke-width="2"/><rect x="746" y="94" width="44" height="18" rx="2" fill="#07111f" opacity=".74"/><text x="768" y="142" text-anchor="middle" font-size="12" fill="#d1d5db">7</text></g><g><rect x="806" y="86" width="58" height="34" rx="4" fill="#1f2937" stroke="#4b5563" stroke-width="2"/><rect x="813" y="94" width="44" height="18" rx="2" fill="#07111f" opacity=".74"/><text x="835" y="142" text-anchor="middle" font-size="12" fill="#d1d5db">8</text></g><g><rect x="270" y="134" width="58" height="34" rx="4" fill="#1f2937" stroke="#4b5563" stroke-width="2"/><rect x="277" y="142" width="44" height="18" rx="2" fill="#07111f" opacity=".74"/><text x="299" y="190" text-anchor="middle" font-size="12" fill="#d1d5db">9</text></g><g><rect x="337" y="134" width="58" height="34" rx="4" fill="#1d4ed8" stroke="#93c5fd" stroke-width="2"/><rect x="344" y="142" width="44" height="18" rx="2" fill="#07111f" opacity=".74"/><text x="366" y="190" text-anchor="middle" font-size="12" fill="#d1d5db">10</text></g><g><rect x="404" y="134" width="58" height="34" rx="4" fill="#1d4ed8" stroke="#93c5fd" stroke-width="2"/><rect x="411" y="142" width="44" height="18" rx="2" fill="#07111f" opacity=".74"/><text x="433" y="190" text-anchor="middle" font-size="12" fill="#d1d5db">11</text></g><g><rect x="471" y="134" width="58" height="34" rx="4" fill="#1d4ed8" stroke="#93c5fd" stroke-width="2"/><rect x="478" y="142" width="44" height="18" rx="2" fill="#07111f" opacity=".74"/><text x="500" y="190" text-anchor="middle" font-size="12" fill="#d1d5db">12</text></g><g><rect x="538" y="134" width="58" height="34" rx="4" fill="#1d4ed8" stroke="#93c5fd" stroke-width="2"/><rect x="545" y="142" width="44" height="18" rx="2" fill="#07111f" opacity=".74"/><text x="567" y="190" text-anchor="middle" font-size="12" fill="#d1d5db">13</text></g><g><rect x="605" y="134" width="58" height="34" rx="4" fill="#1d4ed8" stroke="#93c5fd" stroke-width="2"/><rect x="612" y="142" width="44" height="18" rx="2" fill="#07111f" opacity=".74"/><text x="634" y="190" text-anchor="middle" font-size="12" fill="#d1d5db">14</text></g><g><rect x="672" y="134" width="58" height="34" rx="4" fill="#1d4ed8" stroke="#93c5fd" stroke-width="2"/><rect x="679" y="142" width="44" height="18" rx="2" fill="#07111f" opacity=".74"/><text x="701" y="190" text-anchor="middle" font-size="12" fill="#d1d5db">15</text></g><g><rect x="739" y="134" width="58" height="34" rx="4" fill="#1d4ed8" stroke="#93c5fd" stroke-width="2"/><rect x="746" y="142" width="44" height="18" rx="2" fill="#07111f" opacity=".74"/><text x="768" y="190" text-anchor="middle" font-size="12" fill="#d1d5db">16</text></g><g><rect x="806" y="134" width="58" height="34" rx="4" fill="#1d4ed8" stroke="#93c5fd" stroke-width="2"/><rect x="813" y="142" width="44" height="18" rx="2" fill="#07111f" opacity=".74"/><text x="835" y="190" text-anchor="middle" font-size="12" fill="#d1d5db">17</text></g><g><rect x="270" y="182" width="58" height="34" rx="4" fill="#1d4ed8" stroke="#93c5fd" stroke-width="2"/><rect x="277" y="190" width="44" height="18" rx="2" fill="#07111f" opacity=".74"/><text x="299" y="238" text-anchor="middle" font-size="12" fill="#d1d5db">18</text></g><g><rect x="337" y="182" width="58" height="34" rx="4" fill="#1d4ed8" stroke="#93c5fd" stroke-width="2"/><rect x="344" y="190" width="44" height="18" rx="2" fill="#07111f" opacity=".74"/><text x="366" y="238" text-anchor="middle" font-size="12" fill="#d1d5db">19</text></g><g><rect x="404" y="182" width="58" height="34" rx="4" fill="#1d4ed8" stroke="#93c5fd" stroke-width="2"/><rect x="411" y="190" width="44" height="18" rx="2" fill="#07111f" opacity=".74"/><text x="433" y="238" text-anchor="middle" font-size="12" fill="#d1d5db">20</text></g><g><rect x="471" y="182" width="58" height="34" rx="4" fill="#1d4ed8" stroke="#93c5fd" stroke-width="2"/><rect x="478" y="190" width="44" height="18" rx="2" fill="#07111f" opacity=".74"/><text x="500" y="238" text-anchor="middle" font-size="12" fill="#d1d5db">21</text></g><g><rect x="538" y="182" width="58" height="34" rx="4" fill="#1d4ed8" stroke="#93c5fd" stroke-width="2"/><rect x="545" y="190" width="44" height="18" rx="2" fill="#07111f" opacity=".74"/><text x="567" y="238" text-anchor="middle" font-size="12" fill="#d1d5db">22</text></g><g><rect x="605" y="182" width="58" height="34" rx="4" fill="#1f2937" stroke="#4b5563" stroke-width="2"/><rect x="612" y="190" width="44" height="18" rx="2" fill="#07111f" opacity=".74"/><text x="634" y="238" text-anchor="middle" font-size="12" fill="#d1d5db">23</text></g><g><rect x="672" y="182" width="58" height="34" rx="4" fill="#1f2937" stroke="#4b5563" stroke-width="2"/><rect x="679" y="190" width="44" height="18" rx="2" fill="#07111f" opacity=".74"/><text x="701" y="238" text-anchor="middle" font-size="12" fill="#d1d5db">24</text></g><g><rect x="739" y="182" width="58" height="34" rx="4" fill="#1f2937" stroke="#4b5563" stroke-width="2"/><rect x="746" y="190" width="44" height="18" rx="2" fill="#07111f" opacity=".74"/><text x="768" y="238" text-anchor="middle" font-size="12" fill="#d1d5db">25</text></g><g><rect x="806" y="182" width="58" height="34" rx="4" fill="#1f2937" stroke="#4b5563" stroke-width="2"/><rect x="813" y="190" width="44" height="18" rx="2" fill="#07111f" opacity=".74"/><text x="835" y="238" text-anchor="middle" font-size="12" fill="#d1d5db">26</text></g><g><rect x="270" y="230" width="58" height="34" rx="4" fill="#1f2937" stroke="#4b5563" stroke-width="2"/><rect x="277" y="238" width="44" height="18" rx="2" fill="#07111f" opacity=".74"/><text x="299" y="286" text-anchor="middle" font-size="12" fill="#d1d5db">27</text></g><g><rect x="337" y="230" width="58" height="34" rx="4" fill="#1f2937" stroke="#4b5563" stroke-width="2"/><rect x="344" y="238" width="44" height="18" rx="2" fill="#07111f" opacity=".74"/><text x="366" y="286" text-anchor="middle" font-size="12" fill="#d1d5db">28</text></g><g><rect x="404" y="230" width="58" height="34" rx="4" fill="#1f2937" stroke="#4b5563" stroke-width="2"/><rect x="411" y="238" width="44" height="18" rx="2" fill="#07111f" opacity=".74"/><text x="433" y="286" text-anchor="middle" font-size="12" fill="#d1d5db">29</text></g><g><rect x="471" y="230" width="58" height="34" rx="4" fill="#1f2937" stroke="#4b5563" stroke-width="2"/><rect x="478" y="238" width="44" height="18" rx="2" fill="#07111f" opacity=".74"/><text x="500" y="286" text-anchor="middle" font-size="12" fill="#d1d5db">30</text></g><g><rect x="538" y="230" width="58" height="34" rx="4" fill="#1f2937" stroke="#4b5563" stroke-width="2"/><rect x="545" y="238" width="44" height="18" rx="2" fill="#07111f" opacity=".74"/><text x="567" y="286" text-anchor="middle" font-size="12" fill="#d1d5db">31</text></g><g><rect x="605" y="230" width="58" height="34" rx="4" fill="#1d4ed8" stroke="#93c5fd" stroke-width="2"/><rect x="612" y="238" width="44" height="18" rx="2" fill="#07111f" opacity=".74"/><text x="634" y="286" text-anchor="middle" font-size="12" fill="#d1d5db">32</text></g><g><rect x="672" y="230" width="58" height="34" rx="4" fill="#1d4ed8" stroke="#93c5fd" stroke-width="2"/><rect x="679" y="238" width="44" height="18" rx="2" fill="#07111f" opacity=".74"/><text x="701" y="286" text-anchor="middle" font-size="12" fill="#d1d5db">33</text></g><g><rect x="739" y="230" width="58" height="34" rx="4" fill="#1d4ed8" stroke="#93c5fd" stroke-width="2"/><rect x="746" y="238" width="44" height="18" rx="2" fill="#07111f" opacity=".74"/><text x="768" y="286" text-anchor="middle" font-size="12" fill="#d1d5db">34</text></g><g><rect x="806" y="230" width="58" height="34" rx="4" fill="#1d4ed8" stroke="#93c5fd" stroke-width="2"/><rect x="813" y="238" width="44" height="18" rx="2" fill="#07111f" opacity=".74"/><text x="835" y="286" text-anchor="middle" font-size="12" fill="#d1d5db">35</text></g>
  <rect x="250" y="292" width="390" height="92" rx="6" fill="#111827" stroke="#374151"/>
  <rect x="270" y="310" width="150" height="58" rx="5" fill="#475569" stroke="#94a3b8"/>
  <rect x="450" y="310" width="150" height="58" rx="5" fill="#475569" stroke="#94a3b8"/>
  <text x="345" y="344" text-anchor="middle" font-size="15" font-family="Arial, Helvetica, sans-serif" fill="#f8fafc">0/PM0</text>
  <text x="525" y="344" text-anchor="middle" font-size="15" font-family="Arial, Helvetica, sans-serif" fill="#f8fafc">0/PM1</text>
  <rect x="930" y="64" width="230" height="306" rx="6" fill="#111827" stroke="#374151"/>
  <text x="1045" y="82" text-anchor="middle" font-size="12" font-family="Arial, Helvetica, sans-serif" fill="#9ca3af">Fan trays</text>
  <g fill="#374151" stroke="#94a3b8" stroke-width="2">
    <rect x="960" y="88" width="170" height="62" rx="5"/>
    <rect x="960" y="178" width="170" height="62" rx="5"/>
    <rect x="960" y="268" width="170" height="62" rx="5"/>
  </g>
  <g font-size="15" font-family="Arial, Helvetica, sans-serif" fill="#f8fafc" text-anchor="middle">
    <text x="1045" y="125">0/FT0</text>
    <text x="1045" y="215">0/FT1</text>
    <text x="1045" y="305">0/FT2</text>
  </g>
</svg>
