<?xml version="1.0" encoding="UTF-8" standalone="no"?>
<svg
   xmlns:dc="http://purl.org/dc/elements/1.1/"
   xmlns:cc="http://creativecommons.org/ns#"
   xmlns:rdf="http://www.w3.org/1999/02/22-rdf-syntax-ns#"
   xmlns:svg="http://www.w3.org/2000/svg"
   xmlns="http://www.w3.org/2000/svg"
   xmlns:sodipodi="http://sodipodi.sourceforge.net/DTD/sodipodi-0.dtd"
   xmlns:inkscape="http://www.inkscape.org/namespaces/inkscape"
   version="1.1"
   id="Layer_1"
   x="0"
   y="0"
   viewBox="0 0 1360 123"
   xml:space="preserve"
   width="1360"
   height="123"
   sodipodi:docname="NCS560-4-FILLER-RSP.svg"
   inkscape:version="1.0.1 (3bc2e813f5, 2020-09-07)"><metadata
     id="metadata16"><rdf:RDF><cc:Work
         rdf:about=""><dc:format>image/svg+xml</dc:format><dc:type
           rdf:resource="http://purl.org/dc/dcmitype/StillImage" /></cc:Work></rdf:RDF></metadata><defs
     id="defs14" /><sodipodi:namedview
     pagecolor="#ffffff"
     bordercolor="#666666"
     borderopacity="1"
     objecttolerance="10"
     gridtolerance="10"
     guidetolerance="10"
     inkscape:pageopacity="0"
     inkscape:pageshadow="2"
     inkscape:window-width="1280"
     inkscape:window-height="658"
     id="namedview12"
     showgrid="false"
     inkscape:zoom="0.76617647"
     inkscape:cx="680"
     inkscape:cy="61.5"
     inkscape:window-x="-6"
     inkscape:window-y="-6"
     inkscape:window-maximized="1"
     inkscape:current-layer="Layer_1" /><style
     type="text/css"
     id="style2">.st1{fill:gray}</style><g
     id="g18"><g
       id="g8"><path
         d="M.4 6C.4 3 2.5.5 5 .5h1349.9c2.5 0 4.6 2.5 4.6 5.5v111c0 3-2.1 5.5-4.6 5.5H5.1c-2.5 0-4.6-2.5-4.6-5.5z"
         id="path4"
         fill="#eee" /><path
         class="st1"
         d="M1359.2 117c0 2.8-1.9 5-4.2 5H5.1c-2.4 0-4.2-2.2-4.2-5V6c0-2.8 1.9-5 4.2-5H1355c2.4 0 4.2 2.2 4.2 5v111m.8 0V6c0-3.3-2.3-6-5.1-6H5.1C2.3 0 0 2.7 0 6v111c0 3.3 2.3 6 5.1 6H1355c2.7 0 5-2.7 5-6z"
         id="path6"
         fill="gray" /></g><g
       id="g16"><path
         d="M9.8 16c0-3 2.1-5.5 4.6-5.5h1331.2c2.5 0 4.6 2.5 4.6 5.5v91c0 3-2.1 5.5-4.6 5.5H14.4c-2.5 0-4.6-2.5-4.6-5.5V16z"
         id="path10"
         fill="#bfbfbf" /><g
         id="g14"><path
           class="st1"
           d="M1349.9 107c0 2.8-1.9 5-4.2 5H14.4c-2.4 0-4.2-2.2-4.2-5V16c0-2.8 1.9-5 4.2-5h1331.2c2.4 0 4.2 2.2 4.2 5l.1 91m.8 0V16c0-3.3-2.3-6-5.1-6H14.4c-2.8 0-5.1 2.7-5.1 6v91c0 3.3 2.3 6 5.1 6h1331.2c2.8 0 5.1-2.7 5.1-6z"
           id="path12"
           fill="gray" /></g></g></g><text
     xml:space="preserve"
     style="font-style:normal;font-weight:normal;font-size:40px;line-height:1.25;font-family:sans-serif;fill:#000000;fill-opacity:1;stroke:none"
     x="198.38773"
     y="79.616119"
     id="text20"><tspan
       sodipodi:role="line"
       id="tspan18"
       x="198.38773"
       y="79.616119" /></text></svg>
