<?xml version="1.0" encoding="utf-8"?>
<!-- Generator: Adobe Illustrator 23.0.2, SVG Export Plug-In . SVG Version: 6.00 Build 0)  -->
<svg version="1.1" id="NCS560-4-front_coreLayer_1" xmlns="http://www.w3.org/2000/svg" xmlns:xlink="http://www.w3.org/1999/xlink" x="0px" y="0px"
	 viewBox="0 0 1674 672" style="enable-background:new 0 0 1674 672;" xml:space="preserve">
<style type="text/css">
	.NCS560-4-front_corest0{fill-rule:evenodd;clip-rule:evenodd;fill:#1A1A1A;}
	.NCS560-4-front_corest1{fill-rule:evenodd;clip-rule:evenodd;fill:#B3B3B3;}
	.NCS560-4-front_corest2{fill:#666666;}
	.NCS560-4-front_corest3{fill-rule:evenodd;clip-rule:evenodd;fill:#CCCCCC;}
	.NCS560-4-front_corest4{fill-rule:evenodd;clip-rule:evenodd;fill:#999999;}
	.NCS560-4-front_corest5{fill:#E6E6E6;}
	.NCS560-4-front_corest6{fill:#B3B3B3;}
	.NCS560-4-front_corest7{fill:#F0F0F0;}
	.NCS560-4-front_corest8{fill-rule:evenodd;clip-rule:evenodd;fill:#D8D8D8;}
	.NCS560-4-front_corest9{fill:#808080;}
	.NCS560-4-front_corest10{fill:#CCCCCC;}
	
		.NCS560-4-front_corest11{fill-rule:evenodd;clip-rule:evenodd;fill:#3D3D3D;stroke:#F3F3F3;stroke-width:0.9026;stroke-linecap:round;stroke-linejoin:round;stroke-miterlimit:3;}
	
		.NCS560-4-front_corest12{fill-rule:evenodd;clip-rule:evenodd;fill:#3D3D3D;stroke:#F3F3F3;stroke-width:0.8796;stroke-linecap:round;stroke-linejoin:round;stroke-miterlimit:3;}
	.NCS560-4-front_corest13{fill-rule:evenodd;clip-rule:evenodd;fill:#ABABAB;}
	.NCS560-4-front_corest14{fill:#4D4D4D;}
	.NCS560-4-front_corest15{fill-rule:evenodd;clip-rule:evenodd;fill:#E6E6E6;}
	.NCS560-4-front_corest16{fill:#333333;stroke:#999999;stroke-miterlimit:10;}
</style>
<path class="NCS560-4-front_corest0" d="M0,3.2v666.1c0,1.6,2.5,2.8,5.9,2.8h1661.3c3.4,0,6.8-1.2,6.8-2.8V3.2c0-2-3.4-3.2-6.8-3.2H5.9
	C2.5,0,0,1.2,0,3.2L0,3.2z"/>
<g>
	<g>
		<g>
			<rect x="263.4" y="5.4" class="NCS560-4-front_corest1" width="39.2" height="659.2"/>
			<path class="NCS560-4-front_corest2" d="M302.2,5.8v658.5h-38.5V5.8H302.2 M303,5h-40v660h40V5L303,5z"/>
		</g>
		<g>
			<rect x="292" y="5" class="NCS560-4-front_corest3" width="10" height="660"/>
		</g>
		<g>
			<rect x="264" y="5" class="NCS560-4-front_corest4" width="10" height="660"/>
		</g>
	</g>
	<g>
		<g>
			<rect x="1620.4" y="5.4" class="NCS560-4-front_corest1" width="35.3" height="659.3"/>
			<path class="NCS560-4-front_corest2" d="M1655.3,5.7v658.6h-34.6V5.7H1655.3 M1656,5h-36v660h36V5L1656,5z"/>
		</g>
		<g>
			<rect x="1645" y="5" class="NCS560-4-front_corest3" width="10" height="660"/>
		</g>
		<g>
			<rect x="1620" y="5" class="NCS560-4-front_corest4" width="10" height="660"/>
		</g>
	</g>
	<g>
		<rect x="1666.4" y="5.4" class="NCS560-4-front_corest1" width="7.2" height="661.2"/>
		<path class="NCS560-4-front_corest2" d="M1673.2,5.8v660.5h-6.5V5.8H1673.2 M1674,5h-8v662h8V5L1674,5z"/>
	</g>
	<g>
		<rect x="0.4" y="5.4" class="NCS560-4-front_corest1" width="7.2" height="661.2"/>
		<path class="NCS560-4-front_corest2" d="M7.2,5.8v660.5H0.8V5.8H7.2 M8,5H0v662h8V5L8,5z"/>
	</g>
	<g>
		<g>
			<rect x="0.5" y="666.5" class="NCS560-4-front_corest1" width="1673" height="5"/>
			<g>
				<path class="NCS560-4-front_corest2" d="M1673,667v4H1v-4H1673 M1674,666H0v6h1674V666L1674,666z"/>
			</g>
		</g>
	</g>
	<g>
		<g>
			<g>
				<rect x="870.5" y="7.5" class="NCS560-4-front_corest5" width="9" height="3"/>
				<path class="NCS560-4-front_corest6" d="M879,8v2h-8V8H879 M880,7h-10v4h10V7L880,7z"/>
			</g>
			<g>
				<rect x="870.5" y="11.5" class="NCS560-4-front_corest7" width="9" height="1"/>
				<path class="NCS560-4-front_corest2" d="M879,12L879,12l-8,0v0H879 M880,11h-10v2h10V11L880,11z"/>
			</g>
		</g>
		<g>
			<g>
				<rect x="881.8" y="7.5" class="NCS560-4-front_corest5" width="9" height="3"/>
				<path class="NCS560-4-front_corest6" d="M890.3,8v2h-8V8H890.3 M891.3,7h-10v4h10V7L891.3,7z"/>
			</g>
			<g>
				<rect x="881.8" y="11.5" class="NCS560-4-front_corest7" width="9" height="1"/>
				<path class="NCS560-4-front_corest2" d="M890.3,12L890.3,12l-8,0v0H890.3 M891.3,11h-10v2h10V11L891.3,11z"/>
			</g>
		</g>
		<g>
			<g>
				<rect x="893.2" y="7.5" class="NCS560-4-front_corest5" width="9" height="3"/>
				<path class="NCS560-4-front_corest6" d="M901.7,8v2h-8V8H901.7 M902.6,7h-10v4h10V7L902.6,7z"/>
			</g>
			<g>
				<rect x="893.2" y="11.5" class="NCS560-4-front_corest7" width="9" height="1"/>
				<path class="NCS560-4-front_corest2" d="M901.7,12L901.7,12l-8,0v0H901.7 M902.6,11h-10v2h10V11L902.6,11z"/>
			</g>
		</g>
		<g>
			<g>
				<rect x="904.5" y="7.5" class="NCS560-4-front_corest5" width="9" height="3"/>
				<path class="NCS560-4-front_corest6" d="M913,8v2h-8V8H913 M914,7h-10v4h10V7L914,7z"/>
			</g>
			<g>
				<rect x="904.5" y="11.5" class="NCS560-4-front_corest7" width="9" height="1"/>
				<path class="NCS560-4-front_corest2" d="M913,12L913,12l-8,0v0H913 M914,11h-10v2h10V11L914,11z"/>
			</g>
		</g>
		<g>
			<g>
				<rect x="915.8" y="7.5" class="NCS560-4-front_corest5" width="9" height="3"/>
				<path class="NCS560-4-front_corest6" d="M924.3,8v2h-8V8H924.3 M925.3,7h-10v4h10V7L925.3,7z"/>
			</g>
			<g>
				<rect x="915.8" y="11.5" class="NCS560-4-front_corest7" width="9" height="1"/>
				<path class="NCS560-4-front_corest2" d="M924.3,12L924.3,12l-8,0v0H924.3 M925.3,11h-10v2h10V11L925.3,11z"/>
			</g>
		</g>
		<g>
			<g>
				<rect x="927.2" y="7.5" class="NCS560-4-front_corest5" width="9" height="3"/>
				<path class="NCS560-4-front_corest6" d="M935.7,8v2h-8V8H935.7 M936.6,7h-10v4h10V7L936.6,7z"/>
			</g>
			<g>
				<rect x="927.2" y="11.5" class="NCS560-4-front_corest7" width="9" height="1"/>
				<path class="NCS560-4-front_corest2" d="M935.7,12L935.7,12l-8,0v0H935.7 M936.6,11h-10v2h10V11L936.6,11z"/>
			</g>
		</g>
		<g>
			<g>
				<rect x="938.5" y="7.5" class="NCS560-4-front_corest5" width="9" height="3"/>
				<path class="NCS560-4-front_corest6" d="M947,8v2h-8V8H947 M948,7h-10v4h10V7L948,7z"/>
			</g>
			<g>
				<rect x="938.5" y="11.5" class="NCS560-4-front_corest7" width="9" height="1"/>
				<path class="NCS560-4-front_corest2" d="M947,12L947,12l-8,0v0H947 M948,11h-10v2h10V11L948,11z"/>
			</g>
		</g>
		<g>
			<g>
				<rect x="949.8" y="7.5" class="NCS560-4-front_corest5" width="9" height="3"/>
				<path class="NCS560-4-front_corest6" d="M958.3,8v2h-8V8H958.3 M959.3,7h-10v4h10V7L959.3,7z"/>
			</g>
			<g>
				<rect x="949.8" y="11.5" class="NCS560-4-front_corest7" width="9" height="1"/>
				<path class="NCS560-4-front_corest2" d="M958.3,12L958.3,12l-8,0v0H958.3 M959.3,11h-10v2h10V11L959.3,11z"/>
			</g>
		</g>
		<g>
			<g>
				<rect x="961.2" y="7.5" class="NCS560-4-front_corest5" width="9" height="3"/>
				<path class="NCS560-4-front_corest6" d="M969.7,8v2h-8V8H969.7 M970.6,7h-10v4h10V7L970.6,7z"/>
			</g>
			<g>
				<rect x="961.2" y="11.5" class="NCS560-4-front_corest7" width="9" height="1"/>
				<path class="NCS560-4-front_corest2" d="M969.7,12L969.7,12l-8,0v0H969.7 M970.6,11h-10v2h10V11L970.6,11z"/>
			</g>
		</g>
		<g>
			<g>
				<rect x="972.5" y="7.5" class="NCS560-4-front_corest5" width="9" height="3"/>
				<path class="NCS560-4-front_corest6" d="M981,8v2h-8V8H981 M982,7h-10v4h10V7L982,7z"/>
			</g>
			<g>
				<rect x="972.5" y="11.5" class="NCS560-4-front_corest7" width="9" height="1"/>
				<path class="NCS560-4-front_corest2" d="M981,12L981,12l-8,0v0H981 M982,11h-10v2h10V11L982,11z"/>
			</g>
		</g>
		<g>
			<g>
				<rect x="983.9" y="7.5" class="NCS560-4-front_corest5" width="9" height="3"/>
				<path class="NCS560-4-front_corest6" d="M992.3,8v2h-8V8H992.3 M993.3,7h-10v4h10V7L993.3,7z"/>
			</g>
			<g>
				<rect x="983.9" y="11.5" class="NCS560-4-front_corest7" width="9" height="1"/>
				<path class="NCS560-4-front_corest2" d="M992.3,12L992.3,12l-8,0v0H992.3 M993.3,11h-10v2h10V11L993.3,11z"/>
			</g>
		</g>
		<g>
			<g>
				<rect x="995.2" y="7.5" class="NCS560-4-front_corest5" width="9" height="3"/>
				<path class="NCS560-4-front_corest6" d="M1003.7,8v2h-8V8H1003.7 M1004.7,7h-10v4h10V7L1004.7,7z"/>
			</g>
			<g>
				<rect x="995.2" y="11.5" class="NCS560-4-front_corest7" width="9" height="1"/>
				<path class="NCS560-4-front_corest2" d="M1003.7,12L1003.7,12l-8,0v0H1003.7 M1004.7,11h-10v2h10V11L1004.7,11z"/>
			</g>
		</g>
		<g>
			<g>
				<rect x="1006.5" y="7.5" class="NCS560-4-front_corest5" width="9" height="3"/>
				<path class="NCS560-4-front_corest6" d="M1015,8v2h-8V8H1015 M1016,7h-10v4h10V7L1016,7z"/>
			</g>
			<g>
				<rect x="1006.5" y="11.5" class="NCS560-4-front_corest7" width="9" height="1"/>
				<path class="NCS560-4-front_corest2" d="M1015,12L1015,12l-8,0v0H1015 M1016,11h-10v2h10V11L1016,11z"/>
			</g>
		</g>
		<g>
			<g>
				<rect x="1017.9" y="7.5" class="NCS560-4-front_corest5" width="9" height="3"/>
				<path class="NCS560-4-front_corest6" d="M1026.3,8v2h-8V8H1026.3 M1027.3,7h-10v4h10V7L1027.3,7z"/>
			</g>
			<g>
				<rect x="1017.9" y="11.5" class="NCS560-4-front_corest7" width="9" height="1"/>
				<path class="NCS560-4-front_corest2" d="M1026.3,12L1026.3,12l-8,0v0H1026.3 M1027.3,11h-10v2h10V11L1027.3,11z"/>
			</g>
		</g>
		<g>
			<g>
				<rect x="1029.2" y="7.5" class="NCS560-4-front_corest5" width="9" height="3"/>
				<path class="NCS560-4-front_corest6" d="M1037.7,8v2h-8V8H1037.7 M1038.7,7h-10v4h10V7L1038.7,7z"/>
			</g>
			<g>
				<rect x="1029.2" y="11.5" class="NCS560-4-front_corest7" width="9" height="1"/>
				<path class="NCS560-4-front_corest2" d="M1037.7,12L1037.7,12l-8,0v0H1037.7 M1038.7,11h-10v2h10V11L1038.7,11z"/>
			</g>
		</g>
		<g>
			<g>
				<rect x="1040.5" y="7.5" class="NCS560-4-front_corest5" width="9" height="3"/>
				<path class="NCS560-4-front_corest6" d="M1049,8v2h-8V8H1049 M1050,7h-10v4h10V7L1050,7z"/>
			</g>
			<g>
				<rect x="1040.5" y="11.5" class="NCS560-4-front_corest7" width="9" height="1"/>
				<path class="NCS560-4-front_corest2" d="M1049,12L1049,12l-8,0v0H1049 M1050,11h-10v2h10V11L1050,11z"/>
			</g>
		</g>
	</g>
	<g>
		<g>
			<path class="NCS560-4-front_corest8" d="M986,90.5V84c0-1.9-1.6-3.5-3.5-3.5h-44c-1.9,0-3.5,1.6-3.5,3.5v6.5h-58c-4.1,0-7.5-3.4-7.5-7.5V21
				c0-4.1,3.4-7.5,7.5-7.5h58V19c0,1.9,1.6,3.5,3.5,3.5h44c1.9,0,3.5-1.6,3.5-3.5v-5.5h57c4.1,0,7.5,3.4,7.5,7.5v62
				c0,4.1-3.4,7.5-7.5,7.5H986z"/>
			<path class="NCS560-4-front_corest9" d="M1043,14c3.9,0,7,3.1,7,7v62c0,3.9-3.1,7-7,7h-56.5v-6c0-2.2-1.8-4-4-4h-44c-2.2,0-4,1.8-4,4v6H877
				c-3.9,0-7-3.1-7-7V21c0-3.9,3.1-7,7-7h57.5v5c0,2.2,1.8,4,4,4h44c2.2,0,4-1.8,4-4v-5H1043 M1043,13h-57.5v6c0,1.7-1.3,3-3,3h-44
				c-1.7,0-3-1.3-3-3v-6H877c-4.4,0-8,3.6-8,8v62c0,4.4,3.6,8,8,8h58.5v-7c0-1.7,1.3-3,3-3h44c1.7,0,3,1.3,3,3v7h57.5
				c4.4,0,8-3.6,8-8V21C1051,16.6,1047.4,13,1043,13L1043,13z"/>
		</g>
		<g>
			<g>
				<path class="NCS560-4-front_corest6" d="M960,65.5c-3.3,0-6.5-1.3-8.8-3.7c-4.9-4.9-4.9-12.8,0-17.7c2.4-2.4,5.5-3.7,8.8-3.7s6.5,1.3,8.8,3.7
					c4.9,4.9,4.9,12.8,0,17.7C966.5,64.2,963.3,65.5,960,65.5z"/>
				<path class="NCS560-4-front_corest2" d="M960,41c3.2,0,6.2,1.2,8.5,3.5c4.7,4.7,4.7,12.3,0,17c-2.3,2.3-5.3,3.5-8.5,3.5s-6.2-1.2-8.5-3.5
					c-4.7-4.7-4.7-12.3,0-17C953.8,42.3,956.8,41,960,41 M960,40c-3.3,0-6.7,1.3-9.2,3.8c-5.1,5.1-5.1,13.3,0,18.4
					c2.5,2.5,5.9,3.8,9.2,3.8s6.7-1.3,9.2-3.8c5.1-5.1,5.1-13.3,0-18.4C966.7,41.3,963.3,40,960,40L960,40z"/>
			</g>
			<g>
				<path class="NCS560-4-front_corest10" d="M960,63.5c-2.8,0-5.4-1.1-7.4-3.1c-4.1-4.1-4.1-10.8,0-14.8c2-2,4.6-3.1,7.4-3.1s5.4,1.1,7.4,3.1
					c4.1,4.1,4.1,10.8,0,14.8C965.4,62.4,962.8,63.5,960,63.5z"/>
				<path class="NCS560-4-front_corest2" d="M960,43c2.7,0,5.2,1,7.1,2.9c3.9,3.9,3.9,10.2,0,14.1c-1.9,1.9-4.4,2.9-7.1,2.9s-5.2-1-7.1-2.9
					c-3.9-3.9-3.9-10.2,0-14.1C954.8,44,957.3,43,960,43 M960,42c-2.8,0-5.6,1.1-7.8,3.2c-4.3,4.3-4.3,11.3,0,15.6
					c2.1,2.1,5,3.2,7.8,3.2s5.6-1.1,7.8-3.2c4.3-4.3,4.3-11.3,0-15.6C965.6,43.1,962.8,42,960,42L960,42z"/>
			</g>
			<g>
				<path class="NCS560-4-front_corest5" d="M961,55.3c-0.1-0.1-0.2-0.1-0.4-0.1s-0.3,0-0.4,0.1l-3.3,3.3l-2.6-2.6l3.3-3.3c0.1-0.1,0.1-0.2,0.1-0.4
					s-0.1-0.3-0.1-0.4l-6.5-6.5l1.3-1.3l6.5,6.5c0.1,0.1,0.2,0.1,0.4,0.1s0.3,0,0.4-0.1l3.3-3.3l2.6,2.6l-3.3,3.3
					c-0.1,0.1-0.1,0.2-0.1,0.4s0.1,0.3,0.1,0.4l6.5,6.5l-1.3,1.3L961,55.3z"/>
				<path class="NCS560-4-front_corest2" d="M952.4,44.9l6.2,6.2c0.2,0.2,0.5,0.3,0.7,0.3s0.5-0.1,0.7-0.3l2.9-2.9l1.9,1.9l-2.9,2.9
					c-0.4,0.4-0.4,1,0,1.4l6.2,6.2l-0.6,0.6l-6.2-6.2c-0.2-0.2-0.5-0.3-0.7-0.3s-0.5,0.1-0.7,0.3l-2.9,2.9l-1.9-1.9l2.9-2.9
					c0.4-0.4,0.4-1,0-1.4l-6.2-6.2L952.4,44.9 M952.4,43.5l-2,2l6.9,6.9l-3.6,3.6l3.3,3.3l3.6-3.6l6.9,6.9l2-2l-6.9-6.9l3.6-3.6
					l-3.3-3.3l-3.6,3.6L952.4,43.5L952.4,43.5z"/>
			</g>
		</g>
		<path class="NCS560-4-front_corest11" d="M876.1,39.4c-3.3,3.3-3.3,8.7,0,12s8.6,3.3,11.9,0c3.3-3.2,3.3-8.6,0-11.9S879.3,36.2,876.1,39.4L876.1,39.4
			z"/>
		<path class="NCS560-4-front_corest12" d="M1034,39.4c-3.1,3.3-3.1,8.7,0,12s8.2,3.3,11.3,0c3.1-3.2,3.1-8.6,0-11.9C1042.1,36.2,1037.1,36.2,1034,39.4
			L1034,39.4z"/>
		<g>
			<g>
				<g>
					<rect x="1040.5" y="93.5" class="NCS560-4-front_corest5" width="9" height="3"/>
					<path class="NCS560-4-front_corest6" d="M1049,94v2h-8v-2H1049 M1050,93h-10v4h10V93L1050,93z"/>
				</g>
				<g>
					<rect x="1040.5" y="91.5" class="NCS560-4-front_corest7" width="9" height="1"/>
					<path class="NCS560-4-front_corest2" d="M1049,92L1049,92l-8,0v0H1049 M1050,91h-10v2h10V91L1050,91z"/>
				</g>
			</g>
			<g>
				<g>
					<rect x="1029.2" y="93.5" class="NCS560-4-front_corest5" width="9" height="3"/>
					<path class="NCS560-4-front_corest6" d="M1037.7,94v2h-8v-2H1037.7 M1038.7,93h-10v4h10V93L1038.7,93z"/>
				</g>
				<g>
					<rect x="1029.2" y="91.5" class="NCS560-4-front_corest7" width="9" height="1"/>
					<path class="NCS560-4-front_corest2" d="M1037.7,92L1037.7,92l-8,0v0H1037.7 M1038.7,91h-10v2h10V91L1038.7,91z"/>
				</g>
			</g>
			<g>
				<g>
					<rect x="1017.9" y="93.5" class="NCS560-4-front_corest5" width="9" height="3"/>
					<path class="NCS560-4-front_corest6" d="M1026.3,94v2h-8v-2H1026.3 M1027.3,93h-10v4h10V93L1027.3,93z"/>
				</g>
				<g>
					<rect x="1017.9" y="91.5" class="NCS560-4-front_corest7" width="9" height="1"/>
					<path class="NCS560-4-front_corest2" d="M1026.3,92L1026.3,92l-8,0v0H1026.3 M1027.3,91h-10v2h10V91L1027.3,91z"/>
				</g>
			</g>
			<g>
				<g>
					<rect x="1006.5" y="93.5" class="NCS560-4-front_corest5" width="9" height="3"/>
					<path class="NCS560-4-front_corest6" d="M1015,94v2h-8v-2H1015 M1016,93h-10v4h10V93L1016,93z"/>
				</g>
				<g>
					<rect x="1006.5" y="91.5" class="NCS560-4-front_corest7" width="9" height="1"/>
					<path class="NCS560-4-front_corest2" d="M1015,92L1015,92l-8,0v0H1015 M1016,91h-10v2h10V91L1016,91z"/>
				</g>
			</g>
			<g>
				<g>
					<rect x="995.2" y="93.5" class="NCS560-4-front_corest5" width="9" height="3"/>
					<path class="NCS560-4-front_corest6" d="M1003.7,94v2h-8v-2H1003.7 M1004.7,93h-10v4h10V93L1004.7,93z"/>
				</g>
				<g>
					<rect x="995.2" y="91.5" class="NCS560-4-front_corest7" width="9" height="1"/>
					<path class="NCS560-4-front_corest2" d="M1003.7,92L1003.7,92l-8,0v0H1003.7 M1004.7,91h-10v2h10V91L1004.7,91z"/>
				</g>
			</g>
			<g>
				<g>
					<rect x="983.9" y="93.5" class="NCS560-4-front_corest5" width="9" height="3"/>
					<path class="NCS560-4-front_corest6" d="M992.3,94v2h-8v-2H992.3 M993.3,93h-10v4h10V93L993.3,93z"/>
				</g>
				<g>
					<rect x="983.9" y="91.5" class="NCS560-4-front_corest7" width="9" height="1"/>
					<path class="NCS560-4-front_corest2" d="M992.3,92L992.3,92l-8,0v0H992.3 M993.3,91h-10v2h10V91L993.3,91z"/>
				</g>
			</g>
			<g>
				<g>
					<rect x="972.5" y="93.5" class="NCS560-4-front_corest5" width="9" height="3"/>
					<path class="NCS560-4-front_corest6" d="M981,94v2h-8v-2H981 M982,93h-10v4h10V93L982,93z"/>
				</g>
				<g>
					<rect x="972.5" y="91.5" class="NCS560-4-front_corest7" width="9" height="1"/>
					<path class="NCS560-4-front_corest2" d="M981,92L981,92l-8,0v0H981 M982,91h-10v2h10V91L982,91z"/>
				</g>
			</g>
			<g>
				<g>
					<rect x="961.2" y="93.5" class="NCS560-4-front_corest5" width="9" height="3"/>
					<path class="NCS560-4-front_corest6" d="M969.7,94v2h-8v-2H969.7 M970.6,93h-10v4h10V93L970.6,93z"/>
				</g>
				<g>
					<rect x="961.2" y="91.5" class="NCS560-4-front_corest7" width="9" height="1"/>
					<path class="NCS560-4-front_corest2" d="M969.7,92L969.7,92l-8,0v0H969.7 M970.6,91h-10v2h10V91L970.6,91z"/>
				</g>
			</g>
			<g>
				<g>
					<rect x="949.8" y="93.5" class="NCS560-4-front_corest5" width="9" height="3"/>
					<path class="NCS560-4-front_corest6" d="M958.3,94v2h-8v-2H958.3 M959.3,93h-10v4h10V93L959.3,93z"/>
				</g>
				<g>
					<rect x="949.8" y="91.5" class="NCS560-4-front_corest7" width="9" height="1"/>
					<path class="NCS560-4-front_corest2" d="M958.3,92L958.3,92l-8,0v0H958.3 M959.3,91h-10v2h10V91L959.3,91z"/>
				</g>
			</g>
			<g>
				<g>
					<rect x="938.5" y="93.5" class="NCS560-4-front_corest5" width="9" height="3"/>
					<path class="NCS560-4-front_corest6" d="M947,94v2h-8v-2H947 M948,93h-10v4h10V93L948,93z"/>
				</g>
				<g>
					<rect x="938.5" y="91.5" class="NCS560-4-front_corest7" width="9" height="1"/>
					<path class="NCS560-4-front_corest2" d="M947,92L947,92l-8,0v0H947 M948,91h-10v2h10V91L948,91z"/>
				</g>
			</g>
			<g>
				<g>
					<rect x="927.2" y="93.5" class="NCS560-4-front_corest5" width="9" height="3"/>
					<path class="NCS560-4-front_corest6" d="M935.7,94v2h-8v-2H935.7 M936.6,93h-10v4h10V93L936.6,93z"/>
				</g>
				<g>
					<rect x="927.2" y="91.5" class="NCS560-4-front_corest7" width="9" height="1"/>
					<path class="NCS560-4-front_corest2" d="M935.7,92L935.7,92l-8,0v0H935.7 M936.6,91h-10v2h10V91L936.6,91z"/>
				</g>
			</g>
			<g>
				<g>
					<rect x="915.8" y="93.5" class="NCS560-4-front_corest5" width="9" height="3"/>
					<path class="NCS560-4-front_corest6" d="M924.3,94v2h-8v-2H924.3 M925.3,93h-10v4h10V93L925.3,93z"/>
				</g>
				<g>
					<rect x="915.8" y="91.5" class="NCS560-4-front_corest7" width="9" height="1"/>
					<path class="NCS560-4-front_corest2" d="M924.3,92L924.3,92l-8,0v0H924.3 M925.3,91h-10v2h10V91L925.3,91z"/>
				</g>
			</g>
			<g>
				<g>
					<rect x="904.5" y="93.5" class="NCS560-4-front_corest5" width="9" height="3"/>
					<path class="NCS560-4-front_corest6" d="M913,94v2h-8v-2H913 M914,93h-10v4h10V93L914,93z"/>
				</g>
				<g>
					<rect x="904.5" y="91.5" class="NCS560-4-front_corest7" width="9" height="1"/>
					<path class="NCS560-4-front_corest2" d="M913,92L913,92l-8,0v0H913 M914,91h-10v2h10V91L914,91z"/>
				</g>
			</g>
			<g>
				<g>
					<rect x="893.2" y="93.5" class="NCS560-4-front_corest5" width="9" height="3"/>
					<path class="NCS560-4-front_corest6" d="M901.7,94v2h-8v-2H901.7 M902.6,93h-10v4h10V93L902.6,93z"/>
				</g>
				<g>
					<rect x="893.2" y="91.5" class="NCS560-4-front_corest7" width="9" height="1"/>
					<path class="NCS560-4-front_corest2" d="M901.7,92L901.7,92l-8,0v0H901.7 M902.6,91h-10v2h10V91L902.6,91z"/>
				</g>
			</g>
			<g>
				<g>
					<rect x="881.8" y="93.5" class="NCS560-4-front_corest5" width="9" height="3"/>
					<path class="NCS560-4-front_corest6" d="M890.3,94v2h-8v-2H890.3 M891.3,93h-10v4h10V93L891.3,93z"/>
				</g>
				<g>
					<rect x="881.8" y="91.5" class="NCS560-4-front_corest7" width="9" height="1"/>
					<path class="NCS560-4-front_corest2" d="M890.3,92L890.3,92l-8,0v0H890.3 M891.3,91h-10v2h10V91L891.3,91z"/>
				</g>
			</g>
			<g>
				<g>
					<rect x="870.5" y="93.5" class="NCS560-4-front_corest5" width="9" height="3"/>
					<path class="NCS560-4-front_corest6" d="M879,94v2h-8v-2H879 M880,93h-10v4h10V93L880,93z"/>
				</g>
				<g>
					<rect x="870.5" y="91.5" class="NCS560-4-front_corest7" width="9" height="1"/>
					<path class="NCS560-4-front_corest2" d="M879,92L879,92l-8,0v0H879 M880,91h-10v2h10V91L880,91z"/>
				</g>
			</g>
		</g>
	</g>
	<g>
		<g>
			<path class="NCS560-4-front_corest8" d="M986,175.5V167c0-1.9-1.6-3.5-3.5-3.5h-44c-1.9,0-3.5,1.6-3.5,3.5v8.5h-58c-4.1,0-7.5-3.4-7.5-7.5v-62
				c0-4.1,3.4-7.5,7.5-7.5h58v5.5c0,1.9,1.6,3.5,3.5,3.5h44c1.9,0,3.5-1.6,3.5-3.5v-5.5h57c4.1,0,7.5,3.4,7.5,7.5v62
				c0,4.1-3.4,7.5-7.5,7.5H986z"/>
			<path class="NCS560-4-front_corest9" d="M1043,99c3.9,0,7,3.1,7,7v62c0,3.9-3.1,7-7,7h-56.5v-8c0-2.2-1.8-4-4-4h-44c-2.2,0-4,1.8-4,4v8H877
				c-3.9,0-7-3.1-7-7v-62c0-3.9,3.1-7,7-7h57.5v5c0,2.2,1.8,4,4,4h44c2.2,0,4-1.8,4-4v-5H1043 M1043,98h-57.5v6c0,1.7-1.3,3-3,3h-44
				c-1.7,0-3-1.3-3-3v-6H877c-4.4,0-8,3.6-8,8v62c0,4.4,3.6,8,8,8h58.5v-9c0-1.7,1.3-3,3-3h44c1.7,0,3,1.3,3,3v9h57.5
				c4.4,0,8-3.6,8-8v-62C1051,101.6,1047.4,98,1043,98L1043,98z"/>
		</g>
		<g>
			<g>
				<path class="NCS560-4-front_corest6" d="M960,150.5c-3.3,0-6.5-1.3-8.8-3.7c-4.9-4.9-4.9-12.8,0-17.7c2.4-2.4,5.5-3.7,8.8-3.7s6.5,1.3,8.8,3.7
					c4.9,4.9,4.9,12.8,0,17.7C966.5,149.2,963.3,150.5,960,150.5z"/>
				<path class="NCS560-4-front_corest2" d="M960,126c3.2,0,6.2,1.2,8.5,3.5s3.5,5.3,3.5,8.5s-1.2,6.2-3.5,8.5s-5.3,3.5-8.5,3.5s-6.2-1.2-8.5-3.5
					s-3.5-5.3-3.5-8.5s1.2-6.2,3.5-8.5S956.8,126,960,126 M960,125c-3.3,0-6.7,1.3-9.2,3.8c-5.1,5.1-5.1,13.3,0,18.4
					c2.5,2.5,5.9,3.8,9.2,3.8s6.7-1.3,9.2-3.8c5.1-5.1,5.1-13.3,0-18.4C966.7,126.3,963.3,125,960,125L960,125z"/>
			</g>
			<g>
				<path class="NCS560-4-front_corest10" d="M960,148.5c-2.8,0-5.4-1.1-7.4-3.1c-4.1-4.1-4.1-10.8,0-14.8c2-2,4.6-3.1,7.4-3.1s5.4,1.1,7.4,3.1
					c4.1,4.1,4.1,10.8,0,14.8C965.4,147.4,962.8,148.5,960,148.5z"/>
				<path class="NCS560-4-front_corest2" d="M960,128c2.7,0,5.2,1,7.1,2.9c3.9,3.9,3.9,10.2,0,14.1c-1.9,1.9-4.4,2.9-7.1,2.9s-5.2-1-7.1-2.9
					c-3.9-3.9-3.9-10.2,0-14.1C954.8,129,957.3,128,960,128 M960,127c-2.8,0-5.6,1.1-7.8,3.2c-4.3,4.3-4.3,11.3,0,15.6
					c2.1,2.1,5,3.2,7.8,3.2s5.6-1.1,7.8-3.2c4.3-4.3,4.3-11.3,0-15.6C965.6,128.1,962.8,127,960,127L960,127z"/>
			</g>
			<g>
				<path class="NCS560-4-front_corest5" d="M961,140.3c-0.1-0.1-0.2-0.1-0.4-0.1s-0.3,0-0.4,0.1l-3.3,3.3l-2.6-2.6l3.3-3.3c0.1-0.1,0.1-0.2,0.1-0.4
					s-0.1-0.3-0.1-0.4l-6.5-6.5l1.3-1.3l6.5,6.5c0.1,0.1,0.2,0.1,0.4,0.1s0.3,0,0.4-0.1l3.3-3.3l2.6,2.6l-3.3,3.3
					c-0.1,0.1-0.1,0.2-0.1,0.4s0.1,0.3,0.1,0.4l6.5,6.5l-1.3,1.3L961,140.3z"/>
				<path class="NCS560-4-front_corest2" d="M952.4,129.9l6.2,6.2c0.2,0.2,0.5,0.3,0.7,0.3s0.5-0.1,0.7-0.3l2.9-2.9l1.9,1.9l-2.9,2.9
					c-0.4,0.4-0.4,1,0,1.4l6.2,6.2l-0.6,0.6l-6.2-6.2c-0.2-0.2-0.5-0.3-0.7-0.3s-0.5,0.1-0.7,0.3l-2.9,2.9l-1.9-1.9l2.9-2.9
					c0.4-0.4,0.4-1,0-1.4l-6.2-6.2L952.4,129.9 M952.4,128.5l-2,2l6.9,6.9l-3.6,3.6l3.3,3.3l3.6-3.6l6.9,6.9l2-2l-6.9-6.9l3.6-3.6
					l-3.3-3.3l-3.6,3.6L952.4,128.5L952.4,128.5z"/>
			</g>
		</g>
		<path class="NCS560-4-front_corest11" d="M876.1,124.4c-3.3,3.3-3.3,8.7,0,12s8.6,3.3,11.9,0c3.3-3.2,3.3-8.6,0-11.9S879.3,121.2,876.1,124.4
			L876.1,124.4z"/>
		<path class="NCS560-4-front_corest12" d="M1034,124.4c-3.1,3.3-3.1,8.7,0,12s8.2,3.3,11.3,0c3.1-3.2,3.1-8.6,0-11.9
			C1042.1,121.2,1037.1,121.2,1034,124.4L1034,124.4z"/>
		<g>
			<g>
				<g>
					<rect x="1040.5" y="178.5" class="NCS560-4-front_corest5" width="9" height="3"/>
					<path class="NCS560-4-front_corest6" d="M1049,179v2h-8v-2H1049 M1050,178h-10v4h10V178L1050,178z"/>
				</g>
				<g>
					<rect x="1040.5" y="176.5" class="NCS560-4-front_corest7" width="9" height="1"/>
					<path class="NCS560-4-front_corest2" d="M1049,177L1049,177l-8,0v0H1049 M1050,176h-10v2h10V176L1050,176z"/>
				</g>
			</g>
			<g>
				<g>
					<rect x="1029.2" y="178.5" class="NCS560-4-front_corest5" width="9" height="3"/>
					<path class="NCS560-4-front_corest6" d="M1037.7,179v2h-8v-2H1037.7 M1038.7,178h-10v4h10V178L1038.7,178z"/>
				</g>
				<g>
					<rect x="1029.2" y="176.5" class="NCS560-4-front_corest7" width="9" height="1"/>
					<path class="NCS560-4-front_corest2" d="M1037.7,177L1037.7,177l-8,0v0H1037.7 M1038.7,176h-10v2h10V176L1038.7,176z"/>
				</g>
			</g>
			<g>
				<g>
					<rect x="1017.9" y="178.5" class="NCS560-4-front_corest5" width="9" height="3"/>
					<path class="NCS560-4-front_corest6" d="M1026.3,179v2h-8v-2H1026.3 M1027.3,178h-10v4h10V178L1027.3,178z"/>
				</g>
				<g>
					<rect x="1017.9" y="176.5" class="NCS560-4-front_corest7" width="9" height="1"/>
					<path class="NCS560-4-front_corest2" d="M1026.3,177L1026.3,177l-8,0v0H1026.3 M1027.3,176h-10v2h10V176L1027.3,176z"/>
				</g>
			</g>
			<g>
				<g>
					<rect x="1006.5" y="178.5" class="NCS560-4-front_corest5" width="9" height="3"/>
					<path class="NCS560-4-front_corest6" d="M1015,179v2h-8v-2H1015 M1016,178h-10v4h10V178L1016,178z"/>
				</g>
				<g>
					<rect x="1006.5" y="176.5" class="NCS560-4-front_corest7" width="9" height="1"/>
					<path class="NCS560-4-front_corest2" d="M1015,177L1015,177l-8,0v0H1015 M1016,176h-10v2h10V176L1016,176z"/>
				</g>
			</g>
			<g>
				<g>
					<rect x="995.2" y="178.5" class="NCS560-4-front_corest5" width="9" height="3"/>
					<path class="NCS560-4-front_corest6" d="M1003.7,179v2h-8v-2H1003.7 M1004.7,178h-10v4h10V178L1004.7,178z"/>
				</g>
				<g>
					<rect x="995.2" y="176.5" class="NCS560-4-front_corest7" width="9" height="1"/>
					<path class="NCS560-4-front_corest2" d="M1003.7,177L1003.7,177l-8,0v0H1003.7 M1004.7,176h-10v2h10V176L1004.7,176z"/>
				</g>
			</g>
			<g>
				<g>
					<rect x="983.9" y="178.5" class="NCS560-4-front_corest5" width="9" height="3"/>
					<path class="NCS560-4-front_corest6" d="M992.3,179v2h-8v-2H992.3 M993.3,178h-10v4h10V178L993.3,178z"/>
				</g>
				<g>
					<rect x="983.9" y="176.5" class="NCS560-4-front_corest7" width="9" height="1"/>
					<path class="NCS560-4-front_corest2" d="M992.3,177L992.3,177l-8,0v0H992.3 M993.3,176h-10v2h10V176L993.3,176z"/>
				</g>
			</g>
			<g>
				<g>
					<rect x="972.5" y="178.5" class="NCS560-4-front_corest5" width="9" height="3"/>
					<path class="NCS560-4-front_corest6" d="M981,179v2h-8v-2H981 M982,178h-10v4h10V178L982,178z"/>
				</g>
				<g>
					<rect x="972.5" y="176.5" class="NCS560-4-front_corest7" width="9" height="1"/>
					<path class="NCS560-4-front_corest2" d="M981,177L981,177l-8,0v0H981 M982,176h-10v2h10V176L982,176z"/>
				</g>
			</g>
			<g>
				<g>
					<rect x="961.2" y="178.5" class="NCS560-4-front_corest5" width="9" height="3"/>
					<path class="NCS560-4-front_corest6" d="M969.7,179v2h-8v-2H969.7 M970.6,178h-10v4h10V178L970.6,178z"/>
				</g>
				<g>
					<rect x="961.2" y="176.5" class="NCS560-4-front_corest7" width="9" height="1"/>
					<path class="NCS560-4-front_corest2" d="M969.7,177L969.7,177l-8,0v0H969.7 M970.6,176h-10v2h10V176L970.6,176z"/>
				</g>
			</g>
			<g>
				<g>
					<rect x="949.8" y="178.5" class="NCS560-4-front_corest5" width="9" height="3"/>
					<path class="NCS560-4-front_corest6" d="M958.3,179v2h-8v-2H958.3 M959.3,178h-10v4h10V178L959.3,178z"/>
				</g>
				<g>
					<rect x="949.8" y="176.5" class="NCS560-4-front_corest7" width="9" height="1"/>
					<path class="NCS560-4-front_corest2" d="M958.3,177L958.3,177l-8,0v0H958.3 M959.3,176h-10v2h10V176L959.3,176z"/>
				</g>
			</g>
			<g>
				<g>
					<rect x="938.5" y="178.5" class="NCS560-4-front_corest5" width="9" height="3"/>
					<path class="NCS560-4-front_corest6" d="M947,179v2h-8v-2H947 M948,178h-10v4h10V178L948,178z"/>
				</g>
				<g>
					<rect x="938.5" y="176.5" class="NCS560-4-front_corest7" width="9" height="1"/>
					<path class="NCS560-4-front_corest2" d="M947,177L947,177l-8,0v0H947 M948,176h-10v2h10V176L948,176z"/>
				</g>
			</g>
			<g>
				<g>
					<rect x="927.2" y="178.5" class="NCS560-4-front_corest5" width="9" height="3"/>
					<path class="NCS560-4-front_corest6" d="M935.7,179v2h-8v-2H935.7 M936.6,178h-10v4h10V178L936.6,178z"/>
				</g>
				<g>
					<rect x="927.2" y="176.5" class="NCS560-4-front_corest7" width="9" height="1"/>
					<path class="NCS560-4-front_corest2" d="M935.7,177L935.7,177l-8,0v0H935.7 M936.6,176h-10v2h10V176L936.6,176z"/>
				</g>
			</g>
			<g>
				<g>
					<rect x="915.8" y="178.5" class="NCS560-4-front_corest5" width="9" height="3"/>
					<path class="NCS560-4-front_corest6" d="M924.3,179v2h-8v-2H924.3 M925.3,178h-10v4h10V178L925.3,178z"/>
				</g>
				<g>
					<rect x="915.8" y="176.5" class="NCS560-4-front_corest7" width="9" height="1"/>
					<path class="NCS560-4-front_corest2" d="M924.3,177L924.3,177l-8,0v0H924.3 M925.3,176h-10v2h10V176L925.3,176z"/>
				</g>
			</g>
			<g>
				<g>
					<rect x="904.5" y="178.5" class="NCS560-4-front_corest5" width="9" height="3"/>
					<path class="NCS560-4-front_corest6" d="M913,179v2h-8v-2H913 M914,178h-10v4h10V178L914,178z"/>
				</g>
				<g>
					<rect x="904.5" y="176.5" class="NCS560-4-front_corest7" width="9" height="1"/>
					<path class="NCS560-4-front_corest2" d="M913,177L913,177l-8,0v0H913 M914,176h-10v2h10V176L914,176z"/>
				</g>
			</g>
			<g>
				<g>
					<rect x="893.2" y="178.5" class="NCS560-4-front_corest5" width="9" height="3"/>
					<path class="NCS560-4-front_corest6" d="M901.7,179v2h-8v-2H901.7 M902.6,178h-10v4h10V178L902.6,178z"/>
				</g>
				<g>
					<rect x="893.2" y="176.5" class="NCS560-4-front_corest7" width="9" height="1"/>
					<path class="NCS560-4-front_corest2" d="M901.7,177L901.7,177l-8,0v0H901.7 M902.6,176h-10v2h10V176L902.6,176z"/>
				</g>
			</g>
			<g>
				<g>
					<rect x="881.8" y="178.5" class="NCS560-4-front_corest5" width="9" height="3"/>
					<path class="NCS560-4-front_corest6" d="M890.3,179v2h-8v-2H890.3 M891.3,178h-10v4h10V178L891.3,178z"/>
				</g>
				<g>
					<rect x="881.8" y="176.5" class="NCS560-4-front_corest7" width="9" height="1"/>
					<path class="NCS560-4-front_corest2" d="M890.3,177L890.3,177l-8,0v0H890.3 M891.3,176h-10v2h10V176L891.3,176z"/>
				</g>
			</g>
			<g>
				<g>
					<rect x="870.5" y="178.5" class="NCS560-4-front_corest5" width="9" height="3"/>
					<path class="NCS560-4-front_corest6" d="M879,179v2h-8v-2H879 M880,178h-10v4h10V178L880,178z"/>
				</g>
				<g>
					<rect x="870.5" y="176.5" class="NCS560-4-front_corest7" width="9" height="1"/>
					<path class="NCS560-4-front_corest2" d="M879,177L879,177l-8,0v0H879 M880,176h-10v2h10V176L880,176z"/>
				</g>
			</g>
		</g>
	</g>
	<g>
		<g>
			<path class="NCS560-4-front_corest8" d="M986,260.5V252c0-1.9-1.6-3.5-3.5-3.5h-44c-1.9,0-3.5,1.6-3.5,3.5v8.5h-58c-4.1,0-7.5-3.4-7.5-7.5v-62
				c0-4.1,3.4-7.5,7.5-7.5h58v5.5c0,1.9,1.6,3.5,3.5,3.5h44c1.9,0,3.5-1.6,3.5-3.5v-5.5h57c4.1,0,7.5,3.4,7.5,7.5v62
				c0,4.1-3.4,7.5-7.5,7.5H986z"/>
			<path class="NCS560-4-front_corest9" d="M1043,184c3.9,0,7,3.1,7,7v62c0,3.9-3.1,7-7,7h-56.5v-8c0-2.2-1.8-4-4-4h-44c-2.2,0-4,1.8-4,4v8H877
				c-3.9,0-7-3.1-7-7v-62c0-3.9,3.1-7,7-7h57.5v5c0,2.2,1.8,4,4,4h44c2.2,0,4-1.8,4-4v-5H1043 M1043,183h-57.5v6c0,1.7-1.3,3-3,3
				h-44c-1.7,0-3-1.3-3-3v-6H877c-4.4,0-8,3.6-8,8v62c0,4.4,3.6,8,8,8h58.5v-9c0-1.7,1.3-3,3-3h44c1.7,0,3,1.3,3,3v9h57.5
				c4.4,0,8-3.6,8-8v-62C1051,186.6,1047.4,183,1043,183L1043,183z"/>
		</g>
		<g>
			<g>
				<path class="NCS560-4-front_corest6" d="M960,235.5c-3.3,0-6.5-1.3-8.8-3.7c-4.9-4.9-4.9-12.8,0-17.7c2.4-2.4,5.5-3.7,8.8-3.7s6.5,1.3,8.8,3.7
					c4.9,4.9,4.9,12.8,0,17.7C966.5,234.2,963.3,235.5,960,235.5z"/>
				<path class="NCS560-4-front_corest2" d="M960,211c3.2,0,6.2,1.2,8.5,3.5c2.3,2.3,3.5,5.3,3.5,8.5s-1.2,6.2-3.5,8.5c-2.3,2.3-5.3,3.5-8.5,3.5
					s-6.2-1.2-8.5-3.5c-2.3-2.3-3.5-5.3-3.5-8.5s1.2-6.2,3.5-8.5C953.8,212.3,956.8,211,960,211 M960,210c-3.3,0-6.7,1.3-9.2,3.8
					c-5.1,5.1-5.1,13.3,0,18.4c2.5,2.5,5.9,3.8,9.2,3.8s6.7-1.3,9.2-3.8c5.1-5.1,5.1-13.3,0-18.4C966.7,211.3,963.3,210,960,210
					L960,210z"/>
			</g>
			<g>
				<path class="NCS560-4-front_corest10" d="M960,233.5c-2.8,0-5.4-1.1-7.4-3.1c-4.1-4.1-4.1-10.8,0-14.8c2-2,4.6-3.1,7.4-3.1s5.4,1.1,7.4,3.1
					c4.1,4.1,4.1,10.8,0,14.8C965.4,232.4,962.8,233.5,960,233.5z"/>
				<path class="NCS560-4-front_corest2" d="M960,213c2.7,0,5.2,1,7.1,2.9c3.9,3.9,3.9,10.2,0,14.1c-1.9,1.9-4.4,2.9-7.1,2.9s-5.2-1-7.1-2.9
					c-3.9-3.9-3.9-10.2,0-14.1C954.8,214,957.3,213,960,213 M960,212c-2.8,0-5.6,1.1-7.8,3.2c-4.3,4.3-4.3,11.3,0,15.6
					c2.1,2.1,5,3.2,7.8,3.2s5.6-1.1,7.8-3.2c4.3-4.3,4.3-11.3,0-15.6C965.6,213.1,962.8,212,960,212L960,212z"/>
			</g>
			<g>
				<path class="NCS560-4-front_corest5" d="M961,225.3c-0.1-0.1-0.2-0.1-0.4-0.1s-0.3,0-0.4,0.1l-3.3,3.3l-2.6-2.6l3.3-3.3c0.1-0.1,0.1-0.2,0.1-0.4
					s-0.1-0.3-0.1-0.4l-6.5-6.5l1.3-1.3l6.5,6.5c0.1,0.1,0.2,0.1,0.4,0.1s0.3,0,0.4-0.1l3.3-3.3l2.6,2.6l-3.3,3.3
					c-0.1,0.1-0.1,0.2-0.1,0.4s0.1,0.3,0.1,0.4l6.5,6.5l-1.3,1.3L961,225.3z"/>
				<path class="NCS560-4-front_corest2" d="M952.4,214.9l6.2,6.2c0.2,0.2,0.5,0.3,0.7,0.3s0.5-0.1,0.7-0.3l2.9-2.9l1.9,1.9l-2.9,2.9
					c-0.4,0.4-0.4,1,0,1.4l6.2,6.2l-0.6,0.6l-6.2-6.2c-0.2-0.2-0.5-0.3-0.7-0.3s-0.5,0.1-0.7,0.3l-2.9,2.9l-1.9-1.9l2.9-2.9
					c0.4-0.4,0.4-1,0-1.4l-6.2-6.2L952.4,214.9 M952.4,213.5l-2,2l6.9,6.9l-3.6,3.6l3.3,3.3l3.6-3.6l6.9,6.9l2-2l-6.9-6.9l3.6-3.6
					l-3.3-3.3l-3.6,3.6L952.4,213.5L952.4,213.5z"/>
			</g>
		</g>
		<path class="NCS560-4-front_corest11" d="M876.1,209.4c-3.3,3.3-3.3,8.7,0,12s8.6,3.3,11.9,0c3.3-3.2,3.3-8.6,0-11.9S879.3,206.2,876.1,209.4
			L876.1,209.4z"/>
		<path class="NCS560-4-front_corest12" d="M1034,209.4c-3.1,3.3-3.1,8.7,0,12s8.2,3.3,11.3,0c3.1-3.2,3.1-8.6,0-11.9
			C1042.1,206.2,1037.1,206.2,1034,209.4L1034,209.4z"/>
		<g>
			<g>
				<g>
					<rect x="1040.5" y="263.5" class="NCS560-4-front_corest5" width="9" height="3"/>
					<path class="NCS560-4-front_corest6" d="M1049,264v2h-8v-2H1049 M1050,263h-10v4h10V263L1050,263z"/>
				</g>
				<g>
					<rect x="1040.5" y="261.5" class="NCS560-4-front_corest7" width="9" height="1"/>
					<path class="NCS560-4-front_corest2" d="M1049,262L1049,262l-8,0v0H1049 M1050,261h-10v2h10V261L1050,261z"/>
				</g>
			</g>
			<g>
				<g>
					<rect x="1029.2" y="263.5" class="NCS560-4-front_corest5" width="9" height="3"/>
					<path class="NCS560-4-front_corest6" d="M1037.7,264v2h-8v-2H1037.7 M1038.7,263h-10v4h10V263L1038.7,263z"/>
				</g>
				<g>
					<rect x="1029.2" y="261.5" class="NCS560-4-front_corest7" width="9" height="1"/>
					<path class="NCS560-4-front_corest2" d="M1037.7,262L1037.7,262l-8,0v0H1037.7 M1038.7,261h-10v2h10V261L1038.7,261z"/>
				</g>
			</g>
			<g>
				<g>
					<rect x="1017.9" y="263.5" class="NCS560-4-front_corest5" width="9" height="3"/>
					<path class="NCS560-4-front_corest6" d="M1026.3,264v2h-8v-2H1026.3 M1027.3,263h-10v4h10V263L1027.3,263z"/>
				</g>
				<g>
					<rect x="1017.9" y="261.5" class="NCS560-4-front_corest7" width="9" height="1"/>
					<path class="NCS560-4-front_corest2" d="M1026.3,262L1026.3,262l-8,0v0H1026.3 M1027.3,261h-10v2h10V261L1027.3,261z"/>
				</g>
			</g>
			<g>
				<g>
					<rect x="1006.5" y="263.5" class="NCS560-4-front_corest5" width="9" height="3"/>
					<path class="NCS560-4-front_corest6" d="M1015,264v2h-8v-2H1015 M1016,263h-10v4h10V263L1016,263z"/>
				</g>
				<g>
					<rect x="1006.5" y="261.5" class="NCS560-4-front_corest7" width="9" height="1"/>
					<path class="NCS560-4-front_corest2" d="M1015,262L1015,262l-8,0v0H1015 M1016,261h-10v2h10V261L1016,261z"/>
				</g>
			</g>
			<g>
				<g>
					<rect x="995.2" y="263.5" class="NCS560-4-front_corest5" width="9" height="3"/>
					<path class="NCS560-4-front_corest6" d="M1003.7,264v2h-8v-2H1003.7 M1004.7,263h-10v4h10V263L1004.7,263z"/>
				</g>
				<g>
					<rect x="995.2" y="261.5" class="NCS560-4-front_corest7" width="9" height="1"/>
					<path class="NCS560-4-front_corest2" d="M1003.7,262L1003.7,262l-8,0v0H1003.7 M1004.7,261h-10v2h10V261L1004.7,261z"/>
				</g>
			</g>
			<g>
				<g>
					<rect x="983.9" y="263.5" class="NCS560-4-front_corest5" width="9" height="3"/>
					<path class="NCS560-4-front_corest6" d="M992.3,264v2h-8v-2H992.3 M993.3,263h-10v4h10V263L993.3,263z"/>
				</g>
				<g>
					<rect x="983.9" y="261.5" class="NCS560-4-front_corest7" width="9" height="1"/>
					<path class="NCS560-4-front_corest2" d="M992.3,262L992.3,262l-8,0v0H992.3 M993.3,261h-10v2h10V261L993.3,261z"/>
				</g>
			</g>
			<g>
				<g>
					<rect x="972.5" y="263.5" class="NCS560-4-front_corest5" width="9" height="3"/>
					<path class="NCS560-4-front_corest6" d="M981,264v2h-8v-2H981 M982,263h-10v4h10V263L982,263z"/>
				</g>
				<g>
					<rect x="972.5" y="261.5" class="NCS560-4-front_corest7" width="9" height="1"/>
					<path class="NCS560-4-front_corest2" d="M981,262L981,262l-8,0v0H981 M982,261h-10v2h10V261L982,261z"/>
				</g>
			</g>
			<g>
				<g>
					<rect x="961.2" y="263.5" class="NCS560-4-front_corest5" width="9" height="3"/>
					<path class="NCS560-4-front_corest6" d="M969.7,264v2h-8v-2H969.7 M970.6,263h-10v4h10V263L970.6,263z"/>
				</g>
				<g>
					<rect x="961.2" y="261.5" class="NCS560-4-front_corest7" width="9" height="1"/>
					<path class="NCS560-4-front_corest2" d="M969.7,262L969.7,262l-8,0v0H969.7 M970.6,261h-10v2h10V261L970.6,261z"/>
				</g>
			</g>
			<g>
				<g>
					<rect x="949.8" y="263.5" class="NCS560-4-front_corest5" width="9" height="3"/>
					<path class="NCS560-4-front_corest6" d="M958.3,264v2h-8v-2H958.3 M959.3,263h-10v4h10V263L959.3,263z"/>
				</g>
				<g>
					<rect x="949.8" y="261.5" class="NCS560-4-front_corest7" width="9" height="1"/>
					<path class="NCS560-4-front_corest2" d="M958.3,262L958.3,262l-8,0v0H958.3 M959.3,261h-10v2h10V261L959.3,261z"/>
				</g>
			</g>
			<g>
				<g>
					<rect x="938.5" y="263.5" class="NCS560-4-front_corest5" width="9" height="3"/>
					<path class="NCS560-4-front_corest6" d="M947,264v2h-8v-2H947 M948,263h-10v4h10V263L948,263z"/>
				</g>
				<g>
					<rect x="938.5" y="261.5" class="NCS560-4-front_corest7" width="9" height="1"/>
					<path class="NCS560-4-front_corest2" d="M947,262L947,262l-8,0v0H947 M948,261h-10v2h10V261L948,261z"/>
				</g>
			</g>
			<g>
				<g>
					<rect x="927.2" y="263.5" class="NCS560-4-front_corest5" width="9" height="3"/>
					<path class="NCS560-4-front_corest6" d="M935.7,264v2h-8v-2H935.7 M936.6,263h-10v4h10V263L936.6,263z"/>
				</g>
				<g>
					<rect x="927.2" y="261.5" class="NCS560-4-front_corest7" width="9" height="1"/>
					<path class="NCS560-4-front_corest2" d="M935.7,262L935.7,262l-8,0v0H935.7 M936.6,261h-10v2h10V261L936.6,261z"/>
				</g>
			</g>
			<g>
				<g>
					<rect x="915.8" y="263.5" class="NCS560-4-front_corest5" width="9" height="3"/>
					<path class="NCS560-4-front_corest6" d="M924.3,264v2h-8v-2H924.3 M925.3,263h-10v4h10V263L925.3,263z"/>
				</g>
				<g>
					<rect x="915.8" y="261.5" class="NCS560-4-front_corest7" width="9" height="1"/>
					<path class="NCS560-4-front_corest2" d="M924.3,262L924.3,262l-8,0v0H924.3 M925.3,261h-10v2h10V261L925.3,261z"/>
				</g>
			</g>
			<g>
				<g>
					<rect x="904.5" y="263.5" class="NCS560-4-front_corest5" width="9" height="3"/>
					<path class="NCS560-4-front_corest6" d="M913,264v2h-8v-2H913 M914,263h-10v4h10V263L914,263z"/>
				</g>
				<g>
					<rect x="904.5" y="261.5" class="NCS560-4-front_corest7" width="9" height="1"/>
					<path class="NCS560-4-front_corest2" d="M913,262L913,262l-8,0v0H913 M914,261h-10v2h10V261L914,261z"/>
				</g>
			</g>
			<g>
				<g>
					<rect x="893.2" y="263.5" class="NCS560-4-front_corest5" width="9" height="3"/>
					<path class="NCS560-4-front_corest6" d="M901.7,264v2h-8v-2H901.7 M902.6,263h-10v4h10V263L902.6,263z"/>
				</g>
				<g>
					<rect x="893.2" y="261.5" class="NCS560-4-front_corest7" width="9" height="1"/>
					<path class="NCS560-4-front_corest2" d="M901.7,262L901.7,262l-8,0v0H901.7 M902.6,261h-10v2h10V261L902.6,261z"/>
				</g>
			</g>
			<g>
				<g>
					<rect x="881.8" y="263.5" class="NCS560-4-front_corest5" width="9" height="3"/>
					<path class="NCS560-4-front_corest6" d="M890.3,264v2h-8v-2H890.3 M891.3,263h-10v4h10V263L891.3,263z"/>
				</g>
				<g>
					<rect x="881.8" y="261.5" class="NCS560-4-front_corest7" width="9" height="1"/>
					<path class="NCS560-4-front_corest2" d="M890.3,262L890.3,262l-8,0v0H890.3 M891.3,261h-10v2h10V261L891.3,261z"/>
				</g>
			</g>
			<g>
				<g>
					<rect x="870.5" y="263.5" class="NCS560-4-front_corest5" width="9" height="3"/>
					<path class="NCS560-4-front_corest6" d="M879,264v2h-8v-2H879 M880,263h-10v4h10V263L880,263z"/>
				</g>
				<g>
					<rect x="870.5" y="261.5" class="NCS560-4-front_corest7" width="9" height="1"/>
					<path class="NCS560-4-front_corest2" d="M879,262L879,262l-8,0v0H879 M880,261h-10v2h10V261L880,261z"/>
				</g>
			</g>
		</g>
	</g>
	<g>
		<rect x="303.2" y="392.5" class="NCS560-4-front_corest13" width="1315" height="5"/>
		<path class="NCS560-4-front_corest14" d="M1617.8,393v4h-1314v-4H1617.8 M1618.8,392h-1316v6h1316V392L1618.8,392z"/>
	</g>
	<g>
		<path class="NCS560-4-front_corest15" d="M308,531.5c-0.8,0-1.5-0.7-1.5-1.5v-4c0-0.8,0.7-1.5,1.5-1.5h1306c0.8,0,1.5,0.7,1.5,1.5v4
			c0,0.8-0.7,1.5-1.5,1.5H308z"/>
		<g>
			<path class="NCS560-4-front_corest2" d="M1614,525c0.6,0,1,0.4,1,1v4c0,0.6-0.4,1-1,1H308c-0.6,0-1-0.4-1-1v-4c0-0.6,0.4-1,1-1H1614 M1614,524H308
				c-1.1,0-2,0.9-2,2v4c0,1.1,0.9,2,2,2h1306c1.1,0,2-0.9,2-2v-4C1616,524.9,1615.1,524,1614,524L1614,524z"/>
		</g>
	</g>
	<g>
		<g>
			<path class="NCS560-4-front_corest1" d="M703.5,664.5V620c0-0.8,0.7-1.5,1.5-1.5h5.5v-7H705c-0.8,0-1.5-0.7-1.5-1.5v-49c0-0.8,0.7-1.5,1.5-1.5h5.5
				v-7H705c-0.8,0-1.5-0.7-1.5-1.5v-18.5h57V579c0,0.8-0.7,1.5-1.5,1.5h-5.5v7h5.5c0.8,0,1.5,0.7,1.5,1.5v49c0,0.8-0.7,1.5-1.5,1.5
				h-5.5v7h5.5c0.8,0,1.5,0.7,1.5,1.5v16.5H703.5z"/>
			<path class="NCS560-4-front_corest2" d="M760,533v46c0,0.6-0.4,1-1,1h-5h-1v1v6v1h1h5c0.6,0,1,0.4,1,1v49c0,0.6-0.4,1-1,1h-5h-1v1v6v1h1h5
				c0.6,0,1,0.4,1,1v16h-28h-28v-44c0-0.6,0.4-1,1-1h5h1v-1v-6v-1h-1h-5c-0.6,0-1-0.4-1-1v-49c0-0.6,0.4-1,1-1h5h1v-1v-6v-1h-1h-5
				c-0.6,0-1-0.4-1-1v-18H760 M761,532h-58v19c0,1.1,0.9,2,2,2h5v6h-5c-1.1,0-2,0.9-2,2v49c0,1.1,0.9,2,2,2h5v6h-5c-1.1,0-2,0.9-2,2
				v45h29h29v-17c0-1.1-0.9-2-2-2h-5v-6h5c1.1,0,2-0.9,2-2v-49c0-1.1-0.9-2-2-2h-5v-6h5c1.1,0,2-0.9,2-2V532L761,532z"/>
		</g>
		<g>
			<circle class="NCS560-4-front_corest0" cx="732" cy="599.5" r="7.5"/>
			<path class="NCS560-4-front_corest2" d="M732,592.5c3.9,0,7,3.1,7,7s-3.1,7-7,7s-7-3.1-7-7S728.1,592.5,732,592.5 M732,591.5c-4.4,0-8,3.6-8,8
				s3.6,8,8,8s8-3.6,8-8S736.4,591.5,732,591.5L732,591.5z"/>
		</g>
	</g>
	<g>
		<g>
			<path class="NCS560-4-front_corest1" d="M1162.5,664.5V620c0-0.8,0.7-1.5,1.5-1.5h5.5v-7h-5.5c-0.8,0-1.5-0.7-1.5-1.5v-49c0-0.8,0.7-1.5,1.5-1.5h5.5
				v-7h-5.5c-0.8,0-1.5-0.7-1.5-1.5v-18.5h57V579c0,0.8-0.7,1.5-1.5,1.5h-5.5v7h5.5c0.8,0,1.5,0.7,1.5,1.5v49c0,0.8-0.7,1.5-1.5,1.5
				h-5.5v7h5.5c0.8,0,1.5,0.7,1.5,1.5v16.5H1162.5z"/>
			<path class="NCS560-4-front_corest2" d="M1219,533v46c0,0.6-0.4,1-1,1h-5h-1v1v6v1h1h5c0.6,0,1,0.4,1,1v49c0,0.6-0.4,1-1,1h-5h-1v1v6v1h1h5
				c0.6,0,1,0.4,1,1v16h-28h-28v-44c0-0.6,0.4-1,1-1h5h1v-1v-6v-1h-1h-5c-0.6,0-1-0.4-1-1v-49c0-0.6,0.4-1,1-1h5h1v-1v-6v-1h-1h-5
				c-0.6,0-1-0.4-1-1v-18H1219 M1220,532h-58v19c0,1.1,0.9,2,2,2h5v6h-5c-1.1,0-2,0.9-2,2v49c0,1.1,0.9,2,2,2h5v6h-5
				c-1.1,0-2,0.9-2,2v45h29h29v-17c0-1.1-0.9-2-2-2h-5v-6h5c1.1,0,2-0.9,2-2v-49c0-1.1-0.9-2-2-2h-5v-6h5c1.1,0,2-0.9,2-2V532
				L1220,532z"/>
		</g>
		<g>
			<circle class="NCS560-4-front_corest0" cx="1191" cy="599.5" r="7.5"/>
			<path class="NCS560-4-front_corest2" d="M1191,592.5c3.9,0,7,3.1,7,7s-3.1,7-7,7s-7-3.1-7-7S1187.1,592.5,1191,592.5 M1191,591.5c-4.4,0-8,3.6-8,8
				s3.6,8,8,8s8-3.6,8-8S1195.4,591.5,1191,591.5L1191,591.5z"/>
		</g>
	</g>
	<circle class="NCS560-4-front_corest16" cx="713" cy="568" r="7"/>
	<circle class="NCS560-4-front_corest16" cx="274.5" cy="568.5" r="7"/>
	<circle class="NCS560-4-front_corest16" cx="750" cy="637" r="7"/>
	<circle class="NCS560-4-front_corest16" cx="1175" cy="568" r="7"/>
	<circle class="NCS560-4-front_corest16" cx="1633.5" cy="568.5" r="7"/>
	<circle class="NCS560-4-front_corest16" cx="1208" cy="637" r="7"/>
	<circle class="NCS560-4-front_corest16" cx="288" cy="637" r="7"/>
	<circle class="NCS560-4-front_corest16" cx="1627.5" cy="463.5" r="7"/>
	<circle class="NCS560-4-front_corest16" cx="292.5" cy="463.5" r="7"/>
	<circle class="NCS560-4-front_corest16" cx="1627.5" cy="332.5" r="7"/>
	<circle class="NCS560-4-front_corest16" cx="292.5" cy="332.5" r="7"/>
	<circle class="NCS560-4-front_corest16" cx="292.5" cy="220.5" r="7"/>
	<circle class="NCS560-4-front_corest16" cx="292.5" cy="132.5" r="7"/>
	<circle class="NCS560-4-front_corest16" cx="292.5" cy="45.5" r="7"/>
	<path class="NCS560-4-front_corest11" d="M1635.5,39.1c3.3,3.3,3.3,8.7,0,12c-3.3,3.3-8.6,3.3-11.9,0c-3.3-3.2-3.3-8.6,0-11.9
		C1626.9,35.9,1632.3,35.9,1635.5,39.1L1635.5,39.1z"/>
	<path class="NCS560-4-front_corest11" d="M1635.5,127.1c3.3,3.3,3.3,8.7,0,12c-3.3,3.3-8.6,3.3-11.9,0c-3.3-3.2-3.3-8.6,0-11.9
		C1626.9,123.9,1632.3,123.9,1635.5,127.1L1635.5,127.1z"/>
	<path class="NCS560-4-front_corest11" d="M1635.5,214.1c3.3,3.3,3.3,8.7,0,12c-3.3,3.3-8.6,3.3-11.9,0c-3.3-3.2-3.3-8.6,0-11.9
		C1626.9,210.9,1632.3,210.9,1635.5,214.1L1635.5,214.1z"/>
	<g>
		<rect x="0.5" y="0.5" class="NCS560-4-front_corest1" width="1673" height="5"/>
		<g>
			<path class="NCS560-4-front_corest2" d="M1673,1v4H1V1H1673 M1674,0H0v6h1674V0L1674,0z"/>
		</g>
	</g>
</g>
</svg>
