<svg xmlns="http://www.w3.org/2000/svg" viewBox="0 0 1280 460" width="1280" height="460" role="img" aria-label="Cisco NCS560 front view">
  <defs>
    <linearGradient id="face" x1="0" x2="1">
      <stop offset="0" stop-color="#111827"/>
      <stop offset=".55" stop-color="#1f2937"/>
      <stop offset="1" stop-color="#0f172a"/>
    </linearGradient>
    <linearGradient id="metal" x1="0" x2="0" y1="0" y2="1">
      <stop offset="0" stop-color="#e5e7eb"/>
      <stop offset="1" stop-color="#9ca3af"/>
    </linearGradient>
  </defs>
  <rect x="28" y="42" width="1168" height="378" rx="10" fill="url(#metal)" stroke="#6b7280" stroke-width="3"/>
  <rect x="46" y="64" width="1132" height="334" rx="7" fill="url(#face)" stroke="#030712" stroke-width="2"/>
  <text x="70" y="88" font-size="20" font-family="Arial, Helvetica, sans-serif" font-weight="700" fill="#f9fafb">Cisco NCS560</text>
  <text x="70" y="112" font-size="13" font-family="Arial, Helvetica, sans-serif" fill="#9ca3af">Modular access router from ENTITY-MIB inventory</text>
  <rect x="42" y="72" width="130" height="104" rx="5" fill="#374151" stroke="#94a3b8" stroke-width="2"/><text x="107.0" y="129.0" text-anchor="middle" font-size="12" font-family="Arial, Helvetica, sans-serif" fill="#f8fafc">RP0</text>
  <rect x="58" y="194" width="92" height="28" rx="5" fill="#111827" stroke="#60a5fa" stroke-width="2"/><text x="104.0" y="213.0" text-anchor="middle" font-size="12" font-family="Arial, Helvetica, sans-serif" fill="#f8fafc">MGMT0</text>
  <rect x="42" y="244" width="130" height="104" rx="5" fill="#374151" stroke="#94a3b8" stroke-width="2"/><text x="107.0" y="301.0" text-anchor="middle" font-size="12" font-family="Arial, Helvetica, sans-serif" fill="#f8fafc">RP1</text>
  <rect x="58" y="366" width="92" height="28" rx="5" fill="#111827" stroke="#60a5fa" stroke-width="2"/><text x="104.0" y="385.0" text-anchor="middle" font-size="12" font-family="Arial, Helvetica, sans-serif" fill="#f8fafc">MGMT1</text>
  <rect x="210" y="70" width="174" height="46" rx="5" fill="#334155" stroke="#64748b" stroke-width="2"/><text x="297.0" y="98.0" text-anchor="middle" font-size="12" font-family="Arial, Helvetica, sans-serif" fill="#f8fafc">0/2</text>
  <rect x="210" y="152" width="386" height="46" rx="5" fill="#334155" stroke="#64748b" stroke-width="2"/><text x="403.0" y="180.0" text-anchor="middle" font-size="12" font-family="Arial, Helvetica, sans-serif" fill="#f8fafc">0/4</text>
  <rect x="210" y="234" width="386" height="46" rx="5" fill="#334155" stroke="#64748b" stroke-width="2"/><text x="403.0" y="262.0" text-anchor="middle" font-size="12" font-family="Arial, Helvetica, sans-serif" fill="#f8fafc">0/5</text>
  <rect x="410" y="72" width="48" height="34" rx="5" fill="#1d4ed8" stroke="#93c5fd" stroke-width="2"/><text x="434.0" y="122" text-anchor="middle" font-size="12" font-family="Arial, Helvetica, sans-serif" fill="#f8fafc">0/2/0</text>
  <rect x="468" y="72" width="48" height="34" rx="5" fill="#1f2937" stroke="#4b5563" stroke-width="2"/><text x="492.0" y="122" text-anchor="middle" font-size="12" font-family="Arial, Helvetica, sans-serif" fill="#f8fafc">0/2/1</text>
  <rect x="526" y="72" width="48" height="34" rx="5" fill="#1f2937" stroke="#4b5563" stroke-width="2"/><text x="550.0" y="122" text-anchor="middle" font-size="12" font-family="Arial, Helvetica, sans-serif" fill="#f8fafc">0/2/2</text>
  <rect x="584" y="72" width="48" height="34" rx="5" fill="#1f2937" stroke="#4b5563" stroke-width="2"/><text x="608.0" y="122" text-anchor="middle" font-size="12" font-family="Arial, Helvetica, sans-serif" fill="#f8fafc">0/2/3</text>
  <rect x="642" y="72" width="48" height="34" rx="5" fill="#1f2937" stroke="#4b5563" stroke-width="2"/><text x="666.0" y="122" text-anchor="middle" font-size="12" font-family="Arial, Helvetica, sans-serif" fill="#f8fafc">0/2/4</text>
  <rect x="700" y="72" width="48" height="34" rx="5" fill="#1f2937" stroke="#4b5563" stroke-width="2"/><text x="724.0" y="122" text-anchor="middle" font-size="12" font-family="Arial, Helvetica, sans-serif" fill="#f8fafc">0/2/5</text>
  <rect x="758" y="72" width="48" height="34" rx="5" fill="#1f2937" stroke="#4b5563" stroke-width="2"/><text x="782.0" y="122" text-anchor="middle" font-size="12" font-family="Arial, Helvetica, sans-serif" fill="#f8fafc">0/2/6</text>
  <rect x="816" y="72" width="48" height="34" rx="5" fill="#1f2937" stroke="#4b5563" stroke-width="2"/><text x="840.0" y="122" text-anchor="middle" font-size="12" font-family="Arial, Helvetica, sans-serif" fill="#f8fafc">0/2/7</text>
  <rect x="620" y="136" width="48" height="34" rx="5" fill="#1d4ed8" stroke="#93c5fd" stroke-width="2"/><text x="644.0" y="186" text-anchor="middle" font-size="12" font-family="Arial, Helvetica, sans-serif" fill="#f8fafc">0/4/0</text>
  <rect x="678" y="136" width="48" height="34" rx="5" fill="#1f2937" stroke="#4b5563" stroke-width="2"/><text x="702.0" y="186" text-anchor="middle" font-size="12" font-family="Arial, Helvetica, sans-serif" fill="#f8fafc">0/4/1</text>
  <rect x="736" y="136" width="48" height="34" rx="5" fill="#1d4ed8" stroke="#93c5fd" stroke-width="2"/><text x="760.0" y="186" text-anchor="middle" font-size="12" font-family="Arial, Helvetica, sans-serif" fill="#f8fafc">0/4/2</text>
  <rect x="794" y="136" width="48" height="34" rx="5" fill="#1f2937" stroke="#4b5563" stroke-width="2"/><text x="818.0" y="186" text-anchor="middle" font-size="12" font-family="Arial, Helvetica, sans-serif" fill="#f8fafc">0/4/3</text>
  <rect x="852" y="136" width="48" height="34" rx="5" fill="#1d4ed8" stroke="#93c5fd" stroke-width="2"/><text x="876.0" y="186" text-anchor="middle" font-size="12" font-family="Arial, Helvetica, sans-serif" fill="#f8fafc">0/4/4</text>
  <rect x="910" y="136" width="48" height="34" rx="5" fill="#1f2937" stroke="#4b5563" stroke-width="2"/><text x="934.0" y="186" text-anchor="middle" font-size="12" font-family="Arial, Helvetica, sans-serif" fill="#f8fafc">0/4/5</text>
  <rect x="968" y="136" width="48" height="34" rx="5" fill="#1f2937" stroke="#4b5563" stroke-width="2"/><text x="992.0" y="186" text-anchor="middle" font-size="12" font-family="Arial, Helvetica, sans-serif" fill="#f8fafc">0/4/6</text>
  <rect x="1026" y="136" width="48" height="34" rx="5" fill="#1f2937" stroke="#4b5563" stroke-width="2"/><text x="1050.0" y="186" text-anchor="middle" font-size="12" font-family="Arial, Helvetica, sans-serif" fill="#f8fafc">0/4/7</text>
  <rect x="1084" y="136" width="48" height="34" rx="5" fill="#1f2937" stroke="#4b5563" stroke-width="2"/><text x="1108.0" y="186" text-anchor="middle" font-size="12" font-family="Arial, Helvetica, sans-serif" fill="#f8fafc">0/4/8</text>
  <rect x="620" y="180" width="48" height="34" rx="5" fill="#1f2937" stroke="#4b5563" stroke-width="2"/><text x="644.0" y="230" text-anchor="middle" font-size="12" font-family="Arial, Helvetica, sans-serif" fill="#f8fafc">0/4/9</text>
  <rect x="678" y="180" width="48" height="34" rx="5" fill="#1f2937" stroke="#4b5563" stroke-width="2"/><text x="702.0" y="230" text-anchor="middle" font-size="12" font-family="Arial, Helvetica, sans-serif" fill="#f8fafc">0/4/10</text>
  <rect x="736" y="180" width="48" height="34" rx="5" fill="#1f2937" stroke="#4b5563" stroke-width="2"/><text x="760.0" y="230" text-anchor="middle" font-size="12" font-family="Arial, Helvetica, sans-serif" fill="#f8fafc">0/4/11</text>
  <rect x="794" y="180" width="48" height="34" rx="5" fill="#1f2937" stroke="#4b5563" stroke-width="2"/><text x="818.0" y="230" text-anchor="middle" font-size="12" font-family="Arial, Helvetica, sans-serif" fill="#f8fafc">0/4/12</text>
  <rect x="852" y="180" width="48" height="34" rx="5" fill="#1f2937" stroke="#4b5563" stroke-width="2"/><text x="876.0" y="230" text-anchor="middle" font-size="12" font-family="Arial, Helvetica, sans-serif" fill="#f8fafc">0/4/13</text>
  <rect x="910" y="180" width="48" height="34" rx="5" fill="#1f2937" stroke="#4b5563" stroke-width="2"/><text x="934.0" y="230" text-anchor="middle" font-size="12" font-family="Arial, Helvetica, sans-serif" fill="#f8fafc">0/4/14</text>
  <rect x="968" y="180" width="48" height="34" rx="5" fill="#1f2937" stroke="#4b5563" stroke-width="2"/><text x="992.0" y="230" text-anchor="middle" font-size="12" font-family="Arial, Helvetica, sans-serif" fill="#f8fafc">0/4/15</text>
  <rect x="1026" y="180" width="48" height="34" rx="5" fill="#1f2937" stroke="#4b5563" stroke-width="2"/><text x="1050.0" y="230" text-anchor="middle" font-size="12" font-family="Arial, Helvetica, sans-serif" fill="#f8fafc">0/4/16</text>
  <rect x="620" y="218" width="48" height="34" rx="5" fill="#1d4ed8" stroke="#93c5fd" stroke-width="2"/><text x="644.0" y="268" text-anchor="middle" font-size="12" font-family="Arial, Helvetica, sans-serif" fill="#f8fafc">0/5/0</text>
  <rect x="678" y="218" width="48" height="34" rx="5" fill="#1f2937" stroke="#4b5563" stroke-width="2"/><text x="702.0" y="268" text-anchor="middle" font-size="12" font-family="Arial, Helvetica, sans-serif" fill="#f8fafc">0/5/1</text>
  <rect x="736" y="218" width="48" height="34" rx="5" fill="#1d4ed8" stroke="#93c5fd" stroke-width="2"/><text x="760.0" y="268" text-anchor="middle" font-size="12" font-family="Arial, Helvetica, sans-serif" fill="#f8fafc">0/5/2</text>
  <rect x="794" y="218" width="48" height="34" rx="5" fill="#1f2937" stroke="#4b5563" stroke-width="2"/><text x="818.0" y="268" text-anchor="middle" font-size="12" font-family="Arial, Helvetica, sans-serif" fill="#f8fafc">0/5/3</text>
  <rect x="852" y="218" width="48" height="34" rx="5" fill="#1f2937" stroke="#4b5563" stroke-width="2"/><text x="876.0" y="268" text-anchor="middle" font-size="12" font-family="Arial, Helvetica, sans-serif" fill="#f8fafc">0/5/4</text>
  <rect x="910" y="218" width="48" height="34" rx="5" fill="#1f2937" stroke="#4b5563" stroke-width="2"/><text x="934.0" y="268" text-anchor="middle" font-size="12" font-family="Arial, Helvetica, sans-serif" fill="#f8fafc">0/5/5</text>
  <rect x="968" y="218" width="48" height="34" rx="5" fill="#1f2937" stroke="#4b5563" stroke-width="2"/><text x="992.0" y="268" text-anchor="middle" font-size="12" font-family="Arial, Helvetica, sans-serif" fill="#f8fafc">0/5/6</text>
  <rect x="1026" y="218" width="48" height="34" rx="5" fill="#1f2937" stroke="#4b5563" stroke-width="2"/><text x="1050.0" y="268" text-anchor="middle" font-size="12" font-family="Arial, Helvetica, sans-serif" fill="#f8fafc">0/5/7</text>
  <rect x="1084" y="218" width="48" height="34" rx="5" fill="#1f2937" stroke="#4b5563" stroke-width="2"/><text x="1108.0" y="268" text-anchor="middle" font-size="12" font-family="Arial, Helvetica, sans-serif" fill="#f8fafc">0/5/8</text>
  <rect x="620" y="262" width="48" height="34" rx="5" fill="#1f2937" stroke="#4b5563" stroke-width="2"/><text x="644.0" y="312" text-anchor="middle" font-size="12" font-family="Arial, Helvetica, sans-serif" fill="#f8fafc">0/5/9</text>
  <rect x="678" y="262" width="48" height="34" rx="5" fill="#1f2937" stroke="#4b5563" stroke-width="2"/><text x="702.0" y="312" text-anchor="middle" font-size="12" font-family="Arial, Helvetica, sans-serif" fill="#f8fafc">0/5/10</text>
  <rect x="736" y="262" width="48" height="34" rx="5" fill="#1f2937" stroke="#4b5563" stroke-width="2"/><text x="760.0" y="312" text-anchor="middle" font-size="12" font-family="Arial, Helvetica, sans-serif" fill="#f8fafc">0/5/11</text>
  <rect x="794" y="262" width="48" height="34" rx="5" fill="#1d4ed8" stroke="#93c5fd" stroke-width="2"/><text x="818.0" y="312" text-anchor="middle" font-size="12" font-family="Arial, Helvetica, sans-serif" fill="#f8fafc">0/5/12</text>
  <rect x="852" y="262" width="48" height="34" rx="5" fill="#1f2937" stroke="#4b5563" stroke-width="2"/><text x="876.0" y="312" text-anchor="middle" font-size="12" font-family="Arial, Helvetica, sans-serif" fill="#f8fafc">0/5/13</text>
  <rect x="910" y="262" width="48" height="34" rx="5" fill="#1f2937" stroke="#4b5563" stroke-width="2"/><text x="934.0" y="312" text-anchor="middle" font-size="12" font-family="Arial, Helvetica, sans-serif" fill="#f8fafc">0/5/14</text>
  <rect x="968" y="262" width="48" height="34" rx="5" fill="#1f2937" stroke="#4b5563" stroke-width="2"/><text x="992.0" y="312" text-anchor="middle" font-size="12" font-family="Arial, Helvetica, sans-serif" fill="#f8fafc">0/5/15</text>
  <rect x="1026" y="262" width="48" height="34" rx="5" fill="#1d4ed8" stroke="#93c5fd" stroke-width="2"/><text x="1050.0" y="312" text-anchor="middle" font-size="12" font-family="Arial, Helvetica, sans-serif" fill="#f8fafc">0/5/16</text>
  <rect x="994" y="72" width="152" height="58" rx="5" fill="#3f3f46" stroke="#a1a1aa" stroke-width="2"/><text x="1070.0" y="106.0" text-anchor="middle" font-size="12" font-family="Arial, Helvetica, sans-serif" fill="#f8fafc">FT0</text>
  <rect x="994" y="166" width="152" height="58" rx="5" fill="#3f3f46" stroke="#a1a1aa" stroke-width="2"/><text x="1070.0" y="200.0" text-anchor="middle" font-size="12" font-family="Arial, Helvetica, sans-serif" fill="#f8fafc">FT1</text>
  <rect x="994" y="260" width="152" height="58" rx="5" fill="#3f3f46" stroke="#a1a1aa" stroke-width="2"/><text x="1070.0" y="294.0" text-anchor="middle" font-size="12" font-family="Arial, Helvetica, sans-serif" fill="#f8fafc">FT2</text>
  <rect x="408" y="334" width="160" height="54" rx="5" fill="#475569" stroke="#94a3b8" stroke-width="2"/><text x="488.0" y="366.0" text-anchor="middle" font-size="12" font-family="Arial, Helvetica, sans-serif" fill="#f8fafc">PM0</text>
  <rect x="608" y="334" width="160" height="54" rx="5" fill="#475569" stroke="#94a3b8" stroke-width="2"/><text x="688.0" y="366.0" text-anchor="middle" font-size="12" font-family="Arial, Helvetica, sans-serif" fill="#f8fafc">PM1</text>
  
</svg>
