<?xml version="1.0" encoding="UTF-8" standalone="no"?>
<svg
   xmlns:dc="http://purl.org/dc/elements/1.1/"
   xmlns:cc="http://creativecommons.org/ns#"
   xmlns:rdf="http://www.w3.org/1999/02/22-rdf-syntax-ns#"
   xmlns:svg="http://www.w3.org/2000/svg"
   xmlns="http://www.w3.org/2000/svg"
   xmlns:sodipodi="http://sodipodi.sourceforge.net/DTD/sodipodi-0.dtd"
   xmlns:inkscape="http://www.inkscape.org/namespaces/inkscape"
   version="1.1"
   id="NCS-55A1-24H_Rear_coreLayer_1"
   x="0"
   y="0"
   viewBox="0 0 1660 165"
   xml:space="preserve"
   width="1660"
   height="165"
   sodipodi:docname="NCS-55A1-24H_Rear_core.svg"
   inkscape:version="1.0.1 (3bc2e813f5, 2020-09-07)"><metadata
     id="metadata168"><rdf:RDF><cc:Work
         rdf:about=""><dc:format>image/svg+xml</dc:format><dc:type
           rdf:resource="http://purl.org/dc/dcmitype/StillImage" /></cc:Work></rdf:RDF></metadata><defs
     id="defs166" /><sodipodi:namedview
     pagecolor="#ffffff"
     bordercolor="#666666"
     borderopacity="1"
     objecttolerance="10"
     gridtolerance="10"
     guidetolerance="10"
     inkscape:pageopacity="0"
     inkscape:pageshadow="2"
     inkscape:window-width="1280"
     inkscape:window-height="658"
     id="namedview164"
     showgrid="false"
     inkscape:zoom="0.65120482"
     inkscape:cx="830"
     inkscape:cy="82.5"
     inkscape:window-x="-6"
     inkscape:window-y="-6"
     inkscape:window-maximized="1"
     inkscape:current-layer="NCS-55A1-24H_Rear_coreLayer_1" /><style
     type="text/css"
     id="NCS-55A1-24H_Rear_corestyle2" /><g
     id="NCS-55A1-24H_Rear_coreg8"><path
       class="st0"
       id="NCS-55A1-24H_Rear_corerect4"
       clip-rule="evenodd"
       fill="#ccc"
       fill-rule="evenodd"
       d="M.5.5h1659v164H.5z" /><path
       class="st1"
       d="M1659 1v163H1V1h1658m1-1H0v165h1660z"
       id="NCS-55A1-24H_Rear_corepath6"
       fill="#1a1a1a" /></g><g
     id="NCS-55A1-24H_Rear_coreg14"><path
       class="st2"
       d="M6.9 160.5c-1.9 0-3.5-1.6-3.5-3.5V7c0-1.9 1.6-3.5 3.5-3.5H1653c1.9 0 3.5 1.6 3.5 3.5v150c0 1.9-1.6 3.5-3.5 3.5z"
       id="NCS-55A1-24H_Rear_corepath10"
       clip-rule="evenodd"
       fill="#1a1a1a"
       fill-rule="evenodd" /><path
       class="st3"
       d="M1653.1 4c1.6 0 3 1.3 3 3v150c0 1.7-1.3 3-3 3H6.9c-1.6 0-3-1.3-3-3V7c0-1.7 1.3-3 3-3h1646.2m0-1H6.9C4.8 3 3 4.8 3 7v150c0 2.2 1.8 4 4 4h1646.1c2.2 0 4-1.8 4-4V7c-.1-2.2-1.9-4-4-4z"
       id="NCS-55A1-24H_Rear_corepath12"
       fill="#999" /></g><g
     id="NCS-55A1-24H_Rear_coreg24"><path
       class="st4"
       d="M18.2 159H7.8c-1.6 0-2.8-1.3-2.8-2.8V7.8C5 6.3 6.3 5 7.8 5h10.3C19.7 5 21 6.3 21 7.8v148.3c0 1.6-1.3 2.9-2.8 2.9z"
       id="NCS-55A1-24H_Rear_corepath16"
       clip-rule="evenodd"
       fill="#b3b3b3"
       fill-rule="evenodd" /><path
       class="st4"
       id="NCS-55A1-24H_Rear_corerect18"
       clip-rule="evenodd"
       fill="#b3b3b3"
       fill-rule="evenodd"
       d="M10.2 5h5.6v154h-5.6z" /><path
       class="st0"
       id="NCS-55A1-24H_Rear_corerect20"
       clip-rule="evenodd"
       fill="#ccc"
       fill-rule="evenodd"
       d="M7.8 5h2.4v154H7.8z" /><path
       class="st0"
       id="NCS-55A1-24H_Rear_corerect22"
       clip-rule="evenodd"
       fill="#ccc"
       fill-rule="evenodd"
       d="M15.8 5h2.4v154h-2.4z" /></g><g
     id="NCS-55A1-24H_Rear_coreg34"><path
       class="st4"
       d="M1652.2 159h-10.3c-1.6 0-2.8-1.3-2.8-2.8V7.8c0-1.6 1.3-2.8 2.8-2.8h10.3c1.6 0 2.8 1.3 2.8 2.8v148.3c0 1.6-1.3 2.9-2.8 2.9z"
       id="NCS-55A1-24H_Rear_corepath26"
       clip-rule="evenodd"
       fill="#b3b3b3"
       fill-rule="evenodd" /><path
       class="st4"
       id="NCS-55A1-24H_Rear_corerect28"
       clip-rule="evenodd"
       fill="#b3b3b3"
       fill-rule="evenodd"
       d="M1644.2 5h5.6v154h-5.6z" /><path
       class="st0"
       id="NCS-55A1-24H_Rear_corerect30"
       clip-rule="evenodd"
       fill="#ccc"
       fill-rule="evenodd"
       d="M1641.8 5h2.4v154h-2.4z" /><path
       class="st0"
       id="NCS-55A1-24H_Rear_corerect32"
       clip-rule="evenodd"
       fill="#ccc"
       fill-rule="evenodd"
       d="M1649.8 5h2.4v154h-2.4z" /></g><g
     id="NCS-55A1-24H_Rear_coreg48"><g
       id="NCS-55A1-24H_Rear_coreg40"><path
         class="st5"
         id="NCS-55A1-24H_Rear_corepolygon36"
         fill="#b3b3b3"
         d="M235.5 4v5h4.9l1-3h103.2l1 3h4.9V4h2v156h-119V4z" /><path
         class="st6"
         d="M352 4.5v155H234V4.5h1v5h5.7l.2-.7.8-2.3h102.6l.8 2.3.2.7h5.7v-5h1m1-1h-3v5h-4l-1-3H241l-1 3h-4v-5h-3v157h120V8.5z"
         id="NCS-55A1-24H_Rear_corepath38"
         fill="#666" /></g><g
       id="NCS-55A1-24H_Rear_coreg46"><path
         class="st7"
         d="M238.5 159V11H268c.8 0 1.5.7 1.5 1.5v123c0 1.4 1.1 2.5 2.5 2.5h42c1.4 0 2.5-1.1 2.5-2.5v-123c0-.8.7-1.5 1.5-1.5h29.5v148z"
         id="NCS-55A1-24H_Rear_corepath42"
         fill="#ccc" /><path
         class="st3"
         d="M347 11.5v147H239v-147h29c.6 0 1 .4 1 1v123c0 1.7 1.3 3 3 3h42c1.7 0 3-1.3 3-3v-123c0-.6.4-1 1-1h29m1-1h-30c-1.1 0-2 .9-2 2v123c0 1.1-.9 2-2 2h-42c-1.1 0-2-.9-2-2v-123c0-1.1-.9-2-2-2h-30v149h110z"
         id="NCS-55A1-24H_Rear_corepath44"
         fill="#999" /></g></g><g
     id="NCS-55A1-24H_Rear_coreg66"><g
       id="NCS-55A1-24H_Rear_coreg52"><path
         class="st8"
         id="NCS-55A1-24H_Rear_corerect50"
         clip-rule="evenodd"
         fill="#333"
         fill-rule="evenodd"
         d="M284.5 147.3h17v1.7h-17z" /></g><g
       id="NCS-55A1-24H_Rear_coreg56"><path
         class="st8"
         id="NCS-55A1-24H_Rear_corerect54"
         clip-rule="evenodd"
         fill="#333"
         fill-rule="evenodd"
         d="M287 150.7h11.9v1.7H287z" /></g><g
       id="NCS-55A1-24H_Rear_coreg60"><path
         class="st8"
         id="NCS-55A1-24H_Rear_corerect58"
         clip-rule="evenodd"
         fill="#333"
         fill-rule="evenodd"
         d="M289.6 154.1h6.8v1.7h-6.8z" /></g><g
       id="NCS-55A1-24H_Rear_coreg64"><path
         class="st8"
         id="NCS-55A1-24H_Rear_corerect62"
         clip-rule="evenodd"
         fill="#333"
         fill-rule="evenodd"
         d="M292.1 140.5h1.7v6.8h-1.7z" /></g></g><g
     id="NCS-55A1-24H_Rear_coreg74"><path
       d="M241.8 41.3v-10h2.7c1 0 1.6 0 1.9.1.5.2.9.5 1.2 1 .3.5.5 1.2.5 2 0 .7-.1 1.3-.4 1.8-.3.5-.6.8-1 1-.4.2-1.1.3-2.1.3h-1.1v3.8zm1.7-8.4v2.9h.9c.6 0 1 0 1.3-.1.2-.1.4-.2.5-.5.1-.3.2-.5.2-.8 0-.3-.1-.6-.2-.8-.1-.2-.3-.4-.5-.5-.2-.1-.7-.1-1.4-.1h-.8z"
       id="NCS-55A1-24H_Rear_corepath68" /><path
       d="M249.5 41.3v-10h2.5l1.5 6.8 1.5-6.8h2.5v10H256v-7.9l-1.6 7.9h-1.6l-1.6-7.9v7.9z"
       id="NCS-55A1-24H_Rear_corepath70" /><path
       d="M261.4 31.2c.8 0 1.4.4 1.9 1.1.5.8.7 2.1.7 4s-.2 3.2-.7 4c-.5.8-1.1 1.1-1.9 1.1-.8 0-1.4-.4-1.9-1.1-.5-.7-.7-2.1-.7-4s.2-3.2.7-4c.4-.7 1.1-1.1 1.9-1.1zm0 1.6c-.3 0-.6.2-.7.6-.2.4-.3 1.4-.3 2.9s.1 2.5.3 2.9c.2.4.4.6.7.6.3 0 .6-.2.7-.6.2-.4.3-1.4.3-2.9s-.1-2.5-.3-2.9c-.2-.4-.4-.6-.7-.6z"
       id="NCS-55A1-24H_Rear_corepath72" /></g><g
     id="NCS-55A1-24H_Rear_coreg82"><path
       d="M320.4 41.3v-10h5.6V33h-4v2.4h3.4V37H322v4.3z"
       id="NCS-55A1-24H_Rear_corepath76" /><path
       d="M329.3 41.3V33h-2.4v-1.7h6.5V33H331v8.3z"
       id="NCS-55A1-24H_Rear_corepath78" /><path
       d="M336.8 31.2c.8 0 1.4.4 1.9 1.1.5.8.7 2.1.7 4s-.2 3.2-.7 4c-.5.8-1.1 1.1-1.9 1.1-.8 0-1.4-.4-1.9-1.1-.5-.7-.7-2.1-.7-4s.2-3.2.7-4c.4-.7 1.1-1.1 1.9-1.1zm0 1.6c-.3 0-.6.2-.7.6-.2.4-.3 1.4-.3 2.9s.1 2.5.3 2.9c.2.4.4.6.7.6.3 0 .6-.2.7-.6.2-.4.3-1.4.3-2.9s-.1-2.5-.3-2.9c-.2-.4-.4-.6-.7-.6z"
       id="NCS-55A1-24H_Rear_corepath80" /></g><path
     class="st9"
     id="NCS-55A1-24H_Rear_corepolygon84"
     clip-rule="evenodd"
     fill-rule="evenodd"
     d="M257.5 14.2v14.4l-11.2-7.2z" /><path
     class="st9"
     id="NCS-55A1-24H_Rear_corepolygon86"
     clip-rule="evenodd"
     fill-rule="evenodd"
     d="M326 14.2v14.4l11.2-7.2z" /><g
     id="NCS-55A1-24H_Rear_coreg100"><g
       id="NCS-55A1-24H_Rear_coreg92"><circle
         class="st10"
         cx="293"
         cy="92.5"
         r="12.5"
         id="NCS-55A1-24H_Rear_corecircle88"
         fill="#e6e6e6" /><path
         class="st11"
         d="M293 80.5c6.6 0 12 5.4 12 12s-5.4 12-12 12-12-5.4-12-12 5.4-12 12-12m0-1c-7.2 0-13 5.8-13 13s5.8 13 13 13 13-5.8 13-13-5.8-13-13-13z"
         id="NCS-55A1-24H_Rear_corepath90"
         fill="#595959" /></g><g
       id="NCS-55A1-24H_Rear_coreg98"><circle
         class="st1"
         cx="293"
         cy="92.5"
         r="7.5"
         id="NCS-55A1-24H_Rear_corecircle94"
         fill="#1a1a1a" /><path
         class="st12"
         d="M293 85.5c3.9 0 7 3.1 7 7s-3.1 7-7 7-7-3.1-7-7 3.1-7 7-7m0-1c-4.4 0-8 3.6-8 8s3.6 8 8 8 8-3.6 8-8-3.6-8-8-8z"
         id="NCS-55A1-24H_Rear_corepath96"
         fill="gray" /></g></g><g
     id="NCS-55A1-24H_Rear_coreg114"><g
       id="NCS-55A1-24H_Rear_coreg106"><circle
         class="st10"
         cx="293"
         cy="32.5"
         r="12.5"
         id="NCS-55A1-24H_Rear_corecircle102"
         fill="#e6e6e6" /><path
         class="st11"
         d="M293 20.5c6.6 0 12 5.4 12 12s-5.4 12-12 12-12-5.4-12-12 5.4-12 12-12m0-1c-7.2 0-13 5.8-13 13s5.8 13 13 13 13-5.8 13-13-5.8-13-13-13z"
         id="NCS-55A1-24H_Rear_corepath104"
         fill="#595959" /></g><g
       id="NCS-55A1-24H_Rear_coreg112"><circle
         class="st1"
         cx="293"
         cy="32.5"
         r="7.5"
         id="NCS-55A1-24H_Rear_corecircle108"
         fill="#1a1a1a" /><path
         class="st12"
         d="M293 25.5c3.9 0 7 3.1 7 7s-3.1 7-7 7-7-3.1-7-7 3.1-7 7-7m0-1c-4.4 0-8 3.6-8 8s3.6 8 8 8 8-3.6 8-8-3.6-8-8-8z"
         id="NCS-55A1-24H_Rear_corepath110"
         fill="gray" /></g></g><g
     id="NCS-55A1-24H_Rear_coreg134"><g
       id="NCS-55A1-24H_Rear_coreg118"><path
         d="M330.9 54.1l9.5 17.2h-19l9.5-17.2m0-1c-.3 0-.7.2-.9.5l-9.5 17.2c-.4.7.1 1.5.9 1.5h19c.8 0 1.3-.8.9-1.5l-9.5-17.2c-.2-.3-.6-.5-.9-.5z"
         id="NCS-55A1-24H_Rear_corepath116" /></g><g
       id="NCS-55A1-24H_Rear_coreg132"><g
         id="NCS-55A1-24H_Rear_coreg124"><path
           class="st9"
           d="M330.9 68.5c-.3 0-.5-.2-.5-.6 0-.4.2-.5.5-.5s.6.2.6.5-.3.6-.6.6z"
           id="NCS-55A1-24H_Rear_corepath120"
           clip-rule="evenodd"
           fill-rule="evenodd" /><path
           d="M330.9 67.9s0 .1 0 0v.1s-.1 0 0-.1c-.1.1 0 0 0 0m0-1c-.6 0-1 .5-1 1.1 0 .6.5 1 1 1s1-.5 1-1c0-.6-.4-1.1-1-1.1z"
           id="NCS-55A1-24H_Rear_corepath122" /></g><g
         id="NCS-55A1-24H_Rear_coreg130"><path
           class="st2"
           d="M330.8 65.5l-.3-6.3c0-.1 0-.2.1-.3.1-.1.2-.1.3-.1.1 0 .2 0 .3.1.1.1.1.2.1.3l-.3 6.3z"
           id="NCS-55A1-24H_Rear_corepath126"
           clip-rule="evenodd"
           fill="#1a1a1a"
           fill-rule="evenodd" /><path
           d="M330.9 58.3c-.5 0-.9.4-.9 1l.4 6.7h1.1l.4-6.7c-.1-.5-.5-1-1-1z"
           id="NCS-55A1-24H_Rear_corepath128" /></g></g></g><g
     id="NCS-55A1-24H_Rear_coreg164"><g
       id="NCS-55A1-24H_Rear_coreg138"><path
         d="M330 78.2l8.8 16h-17.6l8.8-16m0-2.1l-10.5 19h21z"
         id="NCS-55A1-24H_Rear_corepath136" /></g><g
       id="NCS-55A1-24H_Rear_coreg162"><g
         id="NCS-55A1-24H_Rear_coreg142"><path
           d="M330.7 89.5c.5.4 1.3 1.2 1.3 1.9 0 .5-.5 1.2-1.4 1.2 0 0-.8 0-1.1-.5 0-.1-.1-.1-.1-.1 0-.1.2-.3.3-.4.2-.2.4-.5.5-.8.3-.6.4-1 .5-1.3m-.3-1.2c-.8 0-.5 1.1-1 1.9-.6 1-1.3 1.4-.7 2.4.6 1 1.9 1 1.9 1 1.4 0 2.4-1.2 2.4-2.2 0-1.5-1.8-3.1-2.6-3.1z"
           id="NCS-55A1-24H_Rear_corepath140" /></g><g
         id="NCS-55A1-24H_Rear_coreg146"><path
           d="M326.3 88.3c.1 0 .3.1.4.2.2.1.5.3.9.4.5.2.9.2 1.2.2-.3.6-1 1.5-1.7 1.6h-.1c-.4 0-1.1-.4-1.3-1.2 0 0-.1-.8.3-1.1l.3-.1m0-1c-.2 0-.5.1-.8.4-.9.8-.7 2-.7 2 .2 1.3 1.3 2 2.3 2h.3c1.4-.2 2.8-2.3 2.6-3.1-.1-.8-1.1-.3-2-.6-.7-.3-1.2-.7-1.7-.7z"
           id="NCS-55A1-24H_Rear_corepath144" /></g><g
         id="NCS-55A1-24H_Rear_coreg150"><path
           d="M333.1 86.7c.3 0 .6.2.8.4.2.2.4.6.3 1 0 0-.1.8-.6 1-.1 0-.1.1-.1.1-.1 0-.3-.2-.4-.3-.2-.2-.5-.4-.8-.6-.4-.3-.8-.4-1.2-.5.4-.5 1.3-1.1 2-1.1m0-1c-1.4 0-3.1 1.6-3.2 2.4-.1.8 1 .6 1.8 1.1.8.5 1.1 1.1 1.7 1.1.2 0 .4-.1.6-.2 1-.5 1.2-1.8 1.2-1.8.1-1.4-.9-2.5-1.9-2.6h-.2z"
           id="NCS-55A1-24H_Rear_corepath148" /></g><g
         id="NCS-55A1-24H_Rear_coreg154"><path
           d="M329.7 84.3h.1s.7.1 1 .6c0 .1.1.1.1.1 0 .1-.2.3-.3.4-.2.2-.4.5-.6.8-.3.4-.4.8-.5 1.2-.5-.4-1.2-1.4-1.2-2 .1-.5.6-1.1 1.4-1.1m0-1c-1.3 0-2.2 1-2.3 2-.1 1.4 1.6 3.3 2.3 3.3h.1c.7 0 .5-1.1 1.1-1.8.7-1 1.5-1.3.9-2.3-.5-1-1.8-1.2-1.8-1.2h-.3z"
           id="NCS-55A1-24H_Rear_corepath152" /></g><g
         id="NCS-55A1-24H_Rear_coreg160"><path
           class="st13"
           d="M330.2 89.2c-.3 0-.5-.2-.5-.5s.2-.5.5-.5.5.2.5.5c-.1.3-.3.5-.5.5z"
           id="NCS-55A1-24H_Rear_corepath156"
           clip-rule="evenodd"
           fill="#f7de61"
           fill-rule="evenodd" /><path
           d="M330.2 87.7c-.5 0-1 .4-1 1 0 .5.4 1 1 1 .5 0 1-.4 1-1-.1-.5-.5-1-1-1z"
           id="NCS-55A1-24H_Rear_corepath158" /></g></g></g><g
     id="NCS-55A1-24H_Rear_coreg184"><g
       id="NCS-55A1-24H_Rear_coreg172"><path
         class="st7"
         id="NCS-55A1-24H_Rear_corepolygon166"
         fill="#ccc"
         d="M1345.5 5.5v5h4.9l1-3h67.2l1 3h4.9v-5h2v156h-83V5.5z" /><g
         id="NCS-55A1-24H_Rear_coreg170"><path
           class="st3"
           d="M1426 6v155h-82V6h1v5h5.7l.2-.7.8-2.3h66.6l.8 2.3.2.7h5.7V6h1m1-1h-3v5h-4l-1-3h-68l-1 3h-4V5h-3v157h84V10z"
           id="NCS-55A1-24H_Rear_corepath168"
           fill="#999" /></g></g><g
       id="NCS-55A1-24H_Rear_coreg180"><path
         d="M1394.4 42.8v-10h2.7c1 0 1.6 0 1.9.1.5.2.9.5 1.2 1 .3.5.5 1.2.5 2 0 .7-.1 1.3-.4 1.8-.3.5-.6.8-1 1-.4.2-1.1.3-2.1.3h-1.1v3.8zm1.7-8.4v2.9h.9c.6 0 1 0 1.3-.1.2-.1.4-.2.5-.5.1-.2.2-.5.2-.8 0-.3-.1-.6-.2-.8-.1-.2-.3-.4-.5-.5-.2-.1-.7-.1-1.4-.1h-.8z"
         id="NCS-55A1-24H_Rear_corepath174" /><path
         d="M1402.1 42.8v-10h2.5l1.5 6.8 1.5-6.8h2.5v10h-1.5v-7.9l-1.6 7.9h-1.6l-1.6-7.9v7.9z"
         id="NCS-55A1-24H_Rear_corepath176" /><path
         d="M1415.3 42.8h-1.6v-7.2c-.6.7-1.3 1.1-2 1.5v-1.7c.4-.2.9-.5 1.4-1 .5-.5.8-1 1-1.6h1.3v10z"
         id="NCS-55A1-24H_Rear_corepath178" /></g><path
       class="st9"
       id="NCS-55A1-24H_Rear_corepolygon182"
       clip-rule="evenodd"
       fill-rule="evenodd"
       d="M1406 15.8v14.3l11.2-7.2z" /></g><path
     d="M341.2 116l-9.5-17.2c-.2-.4-.5-.5-.9-.5-.3 0-.7.2-.9.5l-9.5 17.2c-.4.7.1 1.5.9 1.5h19c.8 0 1.3-.8.9-1.5zm-8.6-4.5l.6-.4c.4-.5.8-1 1-1.5.3-.5 1.5-1 2.1-1.2l4.4 8v.1zm-2-12.3c.1-.2.3-.2.3-.2.1 0 .2 0 .3.2l3.6 6.5c-.7.2-3.2.9-5.1.7-1.5-.1-2 .4-2.3 1l-.4.6-.9-.5zm-9.5 17.5c0-.1-.1-.2 0-.4l4.6-8.4.8.5c-.6 1-.6 3.2-.6 4.1 0 1 1.1 2.1 1.8 2 .7-.1 0-1.1.1-1.9.2-.8-.3-2.1 0-2.8.1-.2.3-.3.5-.3l1.1.7c.2.5.4 1 0 1-.5 0-.6 1.3-.8 2.1-.2.8.5 1.3 1 1 .5-.3.8-1.1 1-1.6.2-.5.8-.9 1.4-1l8.1 5h-18.7c-.2.2-.3.1-.3 0z"
     id="NCS-55A1-24H_Rear_corepath186" /><g
     id="NCS-55A1-24H_Rear_coreg254"><g
       id="NCS-55A1-24H_Rear_coreg190"><path
         class="st0"
         d="M688.8 159h-21.6c-.7 0-1.2-.5-1.2-1.2V6.2c0-.7.5-1.2 1.2-1.2h21.6c.7 0 1.2.5 1.2 1.2v151.6c0 .7-.5 1.2-1.2 1.2z"
         id="NCS-55A1-24H_Rear_corepath188"
         clip-rule="evenodd"
         fill="#ccc"
         fill-rule="evenodd" /></g><g
       id="NCS-55A1-24H_Rear_coreg252"><g
         id="NCS-55A1-24H_Rear_coreg198"><path
           d="M668 41.3v-10h5.6V33h-4v2.4h3.4V37h-3.4v4.3z"
           id="NCS-55A1-24H_Rear_corepath192" /><path
           d="M676.8 41.3V33h-2.4v-1.7h6.5V33h-2.4v8.3z"
           id="NCS-55A1-24H_Rear_corepath194" /><path
           d="M685.7 41.3h-1.6V34c-.6.7-1.3 1.1-2 1.5v-1.7c.4-.2.9-.5 1.4-1 .5-.5.8-1 1-1.6h1.3v10.1z"
           id="NCS-55A1-24H_Rear_corepath196" /></g><path
         class="st9"
         id="NCS-55A1-24H_Rear_corepolygon200"
         clip-rule="evenodd"
         fill-rule="evenodd"
         d="M673.6 14.2v14.4l11.1-7.2z" /><g
         id="NCS-55A1-24H_Rear_coreg220"><g
           id="NCS-55A1-24H_Rear_coreg204"><path
             d="M678.4 54.1l9.5 17.2h-19l9.5-17.2m0-1c-.3 0-.7.2-.9.5L668 70.8c-.4.7.1 1.5.9 1.5h19c.8 0 1.3-.8.9-1.5l-9.5-17.2c-.2-.3-.5-.5-.9-.5z"
             id="NCS-55A1-24H_Rear_corepath202" /></g><g
           id="NCS-55A1-24H_Rear_coreg218"><g
             id="NCS-55A1-24H_Rear_coreg210"><path
               class="st9"
               d="M678.4 68.5c-.3 0-.5-.2-.5-.6 0-.4.2-.5.5-.5s.6.2.6.5-.3.6-.6.6z"
               id="NCS-55A1-24H_Rear_corepath206"
               clip-rule="evenodd"
               fill-rule="evenodd" /><path
               d="M678.4 67.9c.1 0 .1.1 0 0v0c0 .1 0 0 0 0m0-1c-.6 0-1 .5-1 1.1 0 .6.5 1 1 1s1-.5 1-1c.1-.6-.4-1.1-1-1.1z"
               id="NCS-55A1-24H_Rear_corepath208" /></g><g
             id="NCS-55A1-24H_Rear_coreg216"><path
               class="st2"
               d="M678.4 65.5l-.3-6.3c0-.1 0-.2.1-.3.1-.1.2-.1.3-.1.1 0 .2 0 .3.1.1.1.1.2.1.3l-.3 6.3z"
               id="NCS-55A1-24H_Rear_corepath212"
               clip-rule="evenodd"
               fill="#1a1a1a"
               fill-rule="evenodd" /><path
               d="M678.4 58.3c-.5 0-.9.4-.9 1l.4 6.7h1.1l.4-6.7c0-.5-.4-1-1-1z"
               id="NCS-55A1-24H_Rear_corepath214" /></g></g></g><g
         id="NCS-55A1-24H_Rear_coreg250"><g
           id="NCS-55A1-24H_Rear_coreg224"><path
             d="M677.6 78.2l8.8 16h-17.6l8.8-16m0-2.1l-10.5 19h21z"
             id="NCS-55A1-24H_Rear_corepath222" /></g><g
           id="NCS-55A1-24H_Rear_coreg248"><g
             id="NCS-55A1-24H_Rear_coreg228"><path
               d="M678.2 89.5c.5.4 1.3 1.2 1.3 1.9 0 .5-.5 1.2-1.4 1.2 0 0-.8 0-1.1-.5 0-.1-.1-.1-.1-.1 0-.1.2-.3.3-.4.2-.2.4-.5.5-.8.4-.6.5-1 .5-1.3m-.3-1.2c-.8 0-.5 1.1-1 1.9-.6 1-1.3 1.4-.7 2.4.6 1 1.9 1 1.9 1 1.4 0 2.4-1.2 2.4-2.2.1-1.5-1.8-3.1-2.6-3.1z"
               id="NCS-55A1-24H_Rear_corepath226" /></g><g
             id="NCS-55A1-24H_Rear_coreg232"><path
               d="M673.9 88.3c.1 0 .3.1.4.2.2.1.5.3.9.4.5.2.9.2 1.2.2-.3.6-1 1.5-1.7 1.6h-.1c-.4 0-1.1-.4-1.3-1.2 0 0-.1-.8.3-1.2h.3m0-1c-.2 0-.5.1-.8.4-.9.8-.7 2-.7 2 .2 1.3 1.3 2 2.3 2h.3c1.4-.2 2.8-2.3 2.6-3.1-.1-.8-1.1-.3-2-.6-.8-.3-1.3-.7-1.7-.7z"
               id="NCS-55A1-24H_Rear_corepath230" /></g><g
             id="NCS-55A1-24H_Rear_coreg236"><path
               d="M680.6 86.7s.1 0 0 0c.3 0 .6.2.8.4.2.2.4.6.3 1 0 0-.1.8-.6 1-.1 0-.1.1-.1.1-.1 0-.3-.2-.4-.3-.2-.2-.5-.4-.8-.6-.4-.3-.8-.4-1.2-.5.5-.5 1.3-1.1 2-1.1m0-1c-1.4 0-3.1 1.6-3.2 2.4-.1.8 1 .6 1.8 1.1.8.5 1.1 1.1 1.7 1.1.2 0 .4-.1.6-.2 1-.5 1.2-1.8 1.2-1.8.1-1.4-.9-2.5-1.9-2.6h-.2z"
               id="NCS-55A1-24H_Rear_corepath234" /></g><g
             id="NCS-55A1-24H_Rear_coreg240"><path
               d="M677.2 84.3h.1s.8.1 1 .6c0 .1.1.1.1.1 0 .1-.2.3-.3.4-.2.2-.4.5-.6.8-.3.4-.4.8-.5 1.2-.5-.4-1.2-1.4-1.2-2 .1-.5.6-1.1 1.4-1.1m0-1c-1.3 0-2.2 1-2.3 2-.1 1.4 1.6 3.3 2.3 3.3h.1c.7 0 .5-1.1 1.1-1.8.7-1 1.5-1.3.9-2.3-.5-1-1.8-1.2-1.8-1.2h-.3z"
               id="NCS-55A1-24H_Rear_corepath238" /></g><g
             id="NCS-55A1-24H_Rear_coreg246"><path
               class="st13"
               d="M677.7 89.2c-.3 0-.5-.2-.5-.5s.2-.5.5-.5.5.2.5.5-.2.5-.5.5z"
               id="NCS-55A1-24H_Rear_corepath242"
               clip-rule="evenodd"
               fill="#f7de61"
               fill-rule="evenodd" /><path
               d="M677.7 87.7c-.5 0-1 .4-1 1 0 .5.4 1 1 1 .5 0 1-.4 1-1 0-.5-.4-1-1-1z"
               id="NCS-55A1-24H_Rear_corepath244" /></g></g></g></g></g><g
     id="NCS-55A1-24H_Rear_coreg322"><g
       id="NCS-55A1-24H_Rear_coreg258"><path
         class="st0"
         d="M1027.8 159h-21.6c-.7 0-1.2-.5-1.2-1.2V6.2c0-.7.5-1.2 1.2-1.2h21.6c.7 0 1.2.5 1.2 1.2v151.6c0 .7-.5 1.2-1.2 1.2z"
         id="NCS-55A1-24H_Rear_corepath256"
         clip-rule="evenodd"
         fill="#ccc"
         fill-rule="evenodd" /></g><g
       id="NCS-55A1-24H_Rear_coreg320"><g
         id="NCS-55A1-24H_Rear_coreg266"><path
           d="M1007 41.3v-10h5.6V33h-4v2.4h3.4V37h-3.4v4.3z"
           id="NCS-55A1-24H_Rear_corepath260" /><path
           d="M1015.8 41.3V33h-2.4v-1.7h6.5V33h-2.4v8.3z"
           id="NCS-55A1-24H_Rear_corepath262" /><path
           d="M1026 39.5v1.8h-5.5c.1-.7.2-1.3.5-1.9.3-.6.9-1.4 1.8-2.4.7-.8 1.1-1.3 1.3-1.6.2-.4.4-.8.4-1.2 0-.4-.1-.8-.3-1-.2-.2-.5-.3-.8-.3-.7 0-1.1.5-1.1 1.6l-1.6-.2c.1-1 .4-1.8.9-2.2.5-.4 1.1-.7 1.9-.7.9 0 1.5.3 1.9.8.4.5.7 1.2.7 1.9 0 .4-.1.8-.2 1.2-.1.4-.3.8-.5 1.2-.2.4-.6.9-1.2 1.5-.5.6-.8.9-1 1.1-.2.2-.2.4-.3.5h3.1z"
           id="NCS-55A1-24H_Rear_corepath264" /></g><path
         class="st9"
         id="NCS-55A1-24H_Rear_corepolygon268"
         clip-rule="evenodd"
         fill-rule="evenodd"
         d="M1012.6 14.2v14.4l11.1-7.2z" /><g
         id="NCS-55A1-24H_Rear_coreg288"><g
           id="NCS-55A1-24H_Rear_coreg272"><path
             d="M1017.4 54.1l9.5 17.2h-19l9.5-17.2m0-1c-.3 0-.7.2-.9.5l-9.5 17.2c-.4.7.1 1.5.9 1.5h19c.8 0 1.3-.8.9-1.5l-9.5-17.2c-.2-.3-.5-.5-.9-.5z"
             id="NCS-55A1-24H_Rear_corepath270" /></g><g
           id="NCS-55A1-24H_Rear_coreg286"><g
             id="NCS-55A1-24H_Rear_coreg278"><path
               class="st9"
               d="M1017.4 68.5c-.3 0-.5-.2-.5-.6 0-.4.2-.5.5-.5s.5.2.5.5-.2.6-.5.6z"
               id="NCS-55A1-24H_Rear_corepath274"
               clip-rule="evenodd"
               fill-rule="evenodd" /><path
               d="M1017.4 67.9c.1 0 .1.1 0 0v0c0 .1 0 0 0 0m0-1c-.6 0-1 .5-1 1.1 0 .6.5 1 1 1s1-.5 1-1c.1-.6-.4-1.1-1-1.1z"
               id="NCS-55A1-24H_Rear_corepath276" /></g><g
             id="NCS-55A1-24H_Rear_coreg284"><path
               class="st2"
               d="M1017.4 65.5l-.3-6.3c0-.1 0-.2.1-.3.1-.1.2-.1.3-.1.1 0 .2 0 .3.1.1.1.1.2.1.3l-.3 6.3z"
               id="NCS-55A1-24H_Rear_corepath280"
               clip-rule="evenodd"
               fill="#1a1a1a"
               fill-rule="evenodd" /><path
               d="M1017.4 58.3c-.5 0-.9.4-.9 1l.4 6.7h1.1l.4-6.7c0-.5-.4-1-1-1z"
               id="NCS-55A1-24H_Rear_corepath282" /></g></g></g><g
         id="NCS-55A1-24H_Rear_coreg318"><g
           id="NCS-55A1-24H_Rear_coreg292"><path
             d="M1016.6 78.2l8.8 16h-17.6l8.8-16m0-2.1l-10.5 19h21z"
             id="NCS-55A1-24H_Rear_corepath290" /></g><g
           id="NCS-55A1-24H_Rear_coreg316"><g
             id="NCS-55A1-24H_Rear_coreg296"><path
               d="M1017.2 89.5c.5.4 1.3 1.2 1.3 1.9 0 .5-.5 1.2-1.4 1.2 0 0-.8 0-1.1-.5 0-.1-.1-.1-.1-.1 0-.1.2-.3.3-.4.2-.2.4-.5.5-.8.4-.6.5-1 .5-1.3m-.3-1.2c-.8 0-.5 1.1-1 1.9-.6 1-1.3 1.4-.7 2.4.6 1 1.9 1 1.9 1 1.4 0 2.4-1.2 2.4-2.2.1-1.5-1.8-3.1-2.6-3.1z"
               id="NCS-55A1-24H_Rear_corepath294" /></g><g
             id="NCS-55A1-24H_Rear_coreg300"><path
               d="M1012.9 88.3c.1 0 .3.1.4.2.2.1.5.3.9.4.5.2.9.2 1.2.2-.3.6-1 1.5-1.7 1.6h-.1c-.4 0-1.1-.4-1.3-1.2 0 0-.1-.8.3-1.2h.3m0-1c-.2 0-.5.1-.8.4-.9.8-.7 2-.7 2 .2 1.3 1.3 2 2.3 2h.3c1.4-.2 2.8-2.3 2.6-3.1-.1-.8-1.1-.3-2-.6-.8-.3-1.3-.7-1.7-.7z"
               id="NCS-55A1-24H_Rear_corepath298" /></g><g
             id="NCS-55A1-24H_Rear_coreg304"><path
               d="M1019.6 86.7s.1 0 0 0c.6.1 1.2.6 1.1 1.5 0 0-.1.8-.6 1-.1 0-.1.1-.1.1-.1 0-.3-.2-.4-.3-.2-.2-.5-.4-.8-.6-.4-.3-.8-.4-1.2-.5.5-.6 1.3-1.2 2-1.2m0-1c-1.4 0-3.1 1.6-3.2 2.4-.1.8 1 .6 1.8 1.1.8.5 1.1 1.1 1.7 1.1.2 0 .4-.1.6-.2 1-.5 1.2-1.8 1.2-1.8.1-1.4-.9-2.5-1.9-2.6h-.2z"
               id="NCS-55A1-24H_Rear_corepath302" /></g><g
             id="NCS-55A1-24H_Rear_coreg308"><path
               d="M1016.2 84.3h.1s.8.1 1 .6c0 .1.1.1.1.1 0 .1-.2.3-.3.4-.2.2-.4.5-.6.8-.3.4-.4.8-.5 1.2-.5-.4-1.2-1.4-1.2-2 .1-.5.6-1.1 1.4-1.1m0-1c-1.3 0-2.2 1-2.3 2-.1 1.4 1.6 3.3 2.3 3.3h.1c.7 0 .5-1.1 1.1-1.8.7-1 1.5-1.3.9-2.3-.5-1-1.8-1.2-1.8-1.2h-.3z"
               id="NCS-55A1-24H_Rear_corepath306" /></g><g
             id="NCS-55A1-24H_Rear_coreg314"><path
               class="st13"
               d="M1016.7 89.2c-.3 0-.5-.2-.5-.5s.2-.5.5-.5.5.2.5.5-.2.5-.5.5z"
               id="NCS-55A1-24H_Rear_corepath310"
               clip-rule="evenodd"
               fill="#f7de61"
               fill-rule="evenodd" /><path
               d="M1016.7 87.7c-.5 0-1 .4-1 1 0 .5.4 1 1 1 .5 0 1-.4 1-1 0-.5-.4-1-1-1z"
               id="NCS-55A1-24H_Rear_corepath312" /></g></g></g></g></g><text
     xml:space="preserve"
     style="font-style:normal;font-weight:normal;font-size:40px;line-height:1.25;font-family:sans-serif;fill:#000000;fill-opacity:1;stroke:none"
     x="250.30527"
     y="138.20537"
     id="text172"><tspan
       sodipodi:role="line"
       id="tspan170"
       x="250.30527"
       y="138.20537" /></text></svg>
