<?xml version="1.0" encoding="UTF-8" standalone="no"?>
<svg
   xmlns:dc="http://purl.org/dc/elements/1.1/"
   xmlns:cc="http://creativecommons.org/ns#"
   xmlns:rdf="http://www.w3.org/1999/02/22-rdf-syntax-ns#"
   xmlns:svg="http://www.w3.org/2000/svg"
   xmlns="http://www.w3.org/2000/svg"
   xmlns:sodipodi="http://sodipodi.sourceforge.net/DTD/sodipodi-0.dtd"
   xmlns:inkscape="http://www.inkscape.org/namespaces/inkscape"
   version="1.1"
   id="ASR-9902_front_coreLayer_6"
   x="0"
   y="0"
   viewBox="0 0 1662 331.3988"
   xml:space="preserve"
   sodipodi:docname="ASR-9902_front_core.svg"
   inkscape:version="0.92.1 r15371"
   width="1662"
   height="331.3988"><metadata
     id="ASR-9902_front_coremetadata113"><rdf:RDF><cc:Work
         rdf:about=""><dc:format>image/svg+xml</dc:format><dc:type
           rdf:resource="http://purl.org/dc/dcmitype/StillImage" /><dc:title></dc:title></cc:Work></rdf:RDF></metadata><defs
     id="ASR-9902_front_coredefs111" /><sodipodi:namedview
     pagecolor="#ffffff"
     bordercolor="#666666"
     borderopacity="1"
     objecttolerance="10"
     gridtolerance="10"
     guidetolerance="10"
     inkscape:pageopacity="0"
     inkscape:pageshadow="2"
     inkscape:window-width="2560"
     inkscape:window-height="1315"
     id="ASR-9902_front_corenamedview109"
     showgrid="false"
     inkscape:zoom="1.4337349"
     inkscape:cx="831"
     inkscape:cy="165.69939"
     inkscape:window-x="-13"
     inkscape:window-y="-13"
     inkscape:window-maximized="1"
     inkscape:current-layer="Layer_6"
     fit-margin-top="0"
     fit-margin-left="0"
     fit-margin-right="0"
     fit-margin-bottom="0" /><style
     type="text/css"
     id="ASR-9902_front_corestyle2">.st1{fill:#999}.st2{fill:#ccc}.st3{fill:#4d4d4d}.st4{fill:#ccc;stroke:#999;stroke-miterlimit:10}.st5{fill:#333}</style><g
     id="ASR-9902_front_coreg8"
     transform="scale(1.0012048)"><path
       id="ASR-9902_front_corerect4"
       d="M 2,2 H 1658 V 329 H 2 Z"
       inkscape:connector-curvature="0"
       style="clip-rule:evenodd;fill:#1a1a1a;fill-rule:evenodd" /><path
       class="ASR-9902_front_corest1"
       d="M 1656,4 V 327 H 4 V 4 h 1652 m 4,-4 H 0 v 331 h 1660 z"
       id="ASR-9902_front_corepath6"
       inkscape:connector-curvature="0"
       style="fill:#999999" /></g><g
     id="ASR-9902_front_coreg14"
     transform="translate(1,0.19939759)"><path
       class="ASR-9902_front_corest2"
       id="ASR-9902_front_corerect10"
       d="m 856.5,175 h 737 v 5 h -737 z"
       inkscape:connector-curvature="0"
       style="fill:#cccccc" /><path
       class="ASR-9902_front_corest3"
       d="m 1593,175.5 v 4 H 857 v -4 h 736 m 1,-1 H 856 v 6 h 738 z"
       id="ASR-9902_front_corepath12"
       inkscape:connector-curvature="0"
       style="fill:#4d4d4d" /></g><g
     id="ASR-9902_front_coreg20"
     transform="translate(1,0.19939759)"><path
       class="ASR-9902_front_corest2"
       id="ASR-9902_front_corerect16"
       d="m 67.5,175 h 737 v 5 h -737 z"
       inkscape:connector-curvature="0"
       style="fill:#cccccc" /><path
       class="ASR-9902_front_corest3"
       d="m 804,175.5 v 4 H 68 v -4 h 736 m 1,-1 H 67 v 6 h 738 z"
       id="ASR-9902_front_corepath18"
       inkscape:connector-curvature="0"
       style="fill:#4d4d4d" /></g><g
     id="ASR-9902_front_coreg210"
     transform="translate(1,0.19939759)"><g
       id="ASR-9902_front_coreg82"><g
         id="ASR-9902_front_coreg24"><path
           class="ASR-9902_front_corest4"
           id="ASR-9902_front_corepolygon22"
           d="m 49.2,20 h -3 V 9.5 h 19.6 v 3 H 49.2 Z"
           inkscape:connector-curvature="0"
           style="fill:#cccccc;stroke:#999999;stroke-miterlimit:10" /></g><g
         id="ASR-9902_front_coreg28"><path
           class="ASR-9902_front_corest4"
           id="ASR-9902_front_corepolygon26"
           d="m 49.2,167.5 h -3 V 178 h 19.6 v -3 H 49.2 Z"
           inkscape:connector-curvature="0"
           style="fill:#cccccc;stroke:#999999;stroke-miterlimit:10" /></g><g
         id="ASR-9902_front_coreg34"><path
           class="ASR-9902_front_corest2"
           d="m 8.2,181 c -1.9,0 -3.5,-1.6 -3.5,-3.5 V 9.5 C 4.8,7.6 6.3,6 8.2,6 h 34 c 1.9,0 3.5,1.6 3.5,3.5 v 168 c 0,1.9 -1.6,3.5 -3.5,3.5 z"
           id="ASR-9902_front_corepath30"
           inkscape:connector-curvature="0"
           style="fill:#cccccc" /><path
           class="ASR-9902_front_corest1"
           d="m 42.2,6.5 c 1.7,0 3,1.3 3,3 v 168 c 0,1.7 -1.3,3 -3,3 h -34 c -1.7,0 -3,-1.3 -3,-3 V 9.5 c 0,-1.7 1.3,-3 3,-3 h 34 m 0,-1 h -34 c -2.2,0 -4,1.8 -4,4 v 168 c 0,2.2 1.8,4 4,4 h 34 c 2.2,0 4,-1.8 4,-4 V 9.5 c 0,-2.2 -1.7,-4 -4,-4 z"
           id="ASR-9902_front_corepath32"
           inkscape:connector-curvature="0"
           style="fill:#999999" /></g><g
         id="ASR-9902_front_coreg40"><circle
           class="ASR-9902_front_corest5"
           cx="25.200001"
           cy="52.5"
           r="12.5"
           id="ASR-9902_front_corecircle36"
           style="fill:#333333" /><path
           class="ASR-9902_front_corest1"
           d="m 25.2,40.5 c 6.6,0 12,5.4 12,12 0,6.6 -5.4,12 -12,12 -6.6,0 -12,-5.4 -12,-12 0,-6.6 5.4,-12 12,-12 m 0,-1 c -7.2,0 -13,5.8 -13,13 0,7.2 5.8,13 13,13 7.2,0 13,-5.8 13,-13 0,-7.2 -5.8,-13 -13,-13 z"
           id="ASR-9902_front_corepath38"
           inkscape:connector-curvature="0"
           style="fill:#999999" /></g><g
         id="ASR-9902_front_coreg60"><g
           id="ASR-9902_front_coreg46"><circle
             class="ASR-9902_front_corest2"
             cx="25.200001"
             cy="140.5"
             r="10.5"
             id="ASR-9902_front_corecircle42"
             style="fill:#cccccc" /><path
             class="ASR-9902_front_corest1"
             d="m 25.2,130.5 c 5.5,0 10,4.5 10,10 0,5.5 -4.5,10 -10,10 -5.5,0 -10,-4.5 -10,-10 0,-5.5 4.5,-10 10,-10 m 0,-1 c -6.1,0 -11,4.9 -11,11 0,6.1 4.9,11 11,11 6.1,0 11,-4.9 11,-11 0,-6.1 -4.9,-11 -11,-11 z"
             id="ASR-9902_front_corepath44"
             inkscape:connector-curvature="0"
             style="fill:#999999" /></g><g
           id="ASR-9902_front_coreg52"><circle
             class="ASR-9902_front_corest2"
             cx="25.200001"
             cy="140.5"
             r="8.6000004"
             id="ASR-9902_front_corecircle48"
             style="fill:#cccccc" /><path
             class="ASR-9902_front_corest1"
             d="m 25.2,132.3 c 4.5,0 8.2,3.7 8.2,8.2 0,4.5 -3.7,8.2 -8.2,8.2 -4.5,0 -8.2,-3.7 -8.2,-8.2 0,-4.5 3.7,-8.2 8.2,-8.2 m 0,-0.8 c -5,0 -9,4 -9,9 0,5 4,9 9,9 5,0 9,-4 9,-9 0,-5 -4,-9 -9,-9 z"
             id="ASR-9902_front_corepath50"
             inkscape:connector-curvature="0"
             style="fill:#999999" /></g><g
           id="ASR-9902_front_coreg58"><circle
             class="ASR-9902_front_corest1"
             cx="25.200001"
             cy="140.5"
             r="4.8000002"
             id="ASR-9902_front_corecircle54"
             style="fill:#999999" /><path
             class="ASR-9902_front_corest2"
             d="m 25.2,136 c 2.5,0 4.5,2 4.5,4.5 0,2.5 -2,4.5 -4.5,4.5 -2.5,0 -4.5,-2 -4.5,-4.5 0,-2.5 2,-4.5 4.5,-4.5 m 0,-0.5 c -2.8,0 -5,2.2 -5,5 0,2.8 2.2,5 5,5 2.8,0 5,-2.2 5,-5 0,-2.8 -2.2,-5 -5,-5 z"
             id="ASR-9902_front_corepath56"
             inkscape:connector-curvature="0"
             style="fill:#cccccc" /></g></g><g
         id="ASR-9902_front_coreg80"><g
           id="ASR-9902_front_coreg66"><circle
             class="ASR-9902_front_corest2"
             cx="25"
             cy="94"
             r="10.5"
             id="ASR-9902_front_corecircle62"
             style="fill:#cccccc" /><path
             class="ASR-9902_front_corest1"
             d="m 25,84 c 5.5,0 10,4.5 10,10 0,5.5 -4.5,10 -10,10 -5.5,0 -10,-4.5 -10,-10 0,-5.5 4.5,-10 10,-10 m 0,-1 c -6.1,0 -11,4.9 -11,11 0,6.1 4.9,11 11,11 6.1,0 11,-4.9 11,-11 0,-6.1 -4.9,-11 -11,-11 z"
             id="ASR-9902_front_corepath64"
             inkscape:connector-curvature="0"
             style="fill:#999999" /></g><g
           id="ASR-9902_front_coreg72"><circle
             class="ASR-9902_front_corest2"
             cx="25"
             cy="94"
             r="8.6000004"
             id="ASR-9902_front_corecircle68"
             style="fill:#cccccc" /><path
             class="ASR-9902_front_corest1"
             d="m 25,85.8 c 4.5,0 8.2,3.7 8.2,8.2 0,4.5 -3.7,8.2 -8.2,8.2 -4.5,0 -8.2,-3.7 -8.2,-8.2 0,-4.5 3.7,-8.2 8.2,-8.2 M 25,85 c -5,0 -9,4 -9,9 0,5 4,9 9,9 5,0 9,-4 9,-9 0,-5 -4,-9 -9,-9 z"
             id="ASR-9902_front_corepath70"
             inkscape:connector-curvature="0"
             style="fill:#999999" /></g><g
           id="ASR-9902_front_coreg78"><circle
             class="ASR-9902_front_corest1"
             cx="25"
             cy="94"
             r="4.8000002"
             id="ASR-9902_front_corecircle74"
             style="fill:#999999" /><path
             class="ASR-9902_front_corest2"
             d="m 25,89.5 c 2.5,0 4.5,2 4.5,4.5 0,2.5 -2,4.5 -4.5,4.5 -2.5,0 -4.5,-2 -4.5,-4.5 0,-2.5 2,-4.5 4.5,-4.5 M 25,89 c -2.8,0 -5,2.2 -5,5 0,2.8 2.2,5 5,5 2.8,0 5,-2.2 5,-5 0,-2.8 -2.2,-5 -5,-5 z"
             id="ASR-9902_front_corepath76"
             inkscape:connector-curvature="0"
             style="fill:#cccccc" /></g></g></g><g
       id="ASR-9902_front_coreg134"><g
         id="ASR-9902_front_coreg88"><path
           class="ASR-9902_front_corest2"
           d="m 807.2,176 c -1.9,0 -3.5,-1.6 -3.5,-3.5 v -159 c 0,-1.9 1.6,-3.5 3.5,-3.5 h 45 c 1.9,0 3.5,1.6 3.5,3.5 v 159 c 0,1.9 -1.6,3.5 -3.5,3.5 z"
           id="ASR-9902_front_corepath84"
           inkscape:connector-curvature="0"
           style="fill:#cccccc" /><path
           class="ASR-9902_front_corest1"
           d="m 852.2,10.5 c 1.7,0 3,1.3 3,3 v 159 c 0,1.7 -1.3,3 -3,3 h -45 c -1.7,0 -3,-1.3 -3,-3 v -159 c 0,-1.7 1.3,-3 3,-3 h 45 m 0,-1 h -45 c -2.2,0 -4,1.8 -4,4 v 159 c 0,2.2 1.8,4 4,4 h 45 c 2.2,0 4,-1.8 4,-4 v -159 c 0,-2.2 -1.7,-4 -4,-4 z"
           id="ASR-9902_front_corepath86"
           inkscape:connector-curvature="0"
           style="fill:#999999" /></g><g
         id="ASR-9902_front_coreg94"><path
           class="ASR-9902_front_corest2"
           id="ASR-9902_front_corerect90"
           d="m 808.8,43 h 3 v 19 h -3 z"
           inkscape:connector-curvature="0"
           style="fill:#cccccc" /><path
           class="ASR-9902_front_corest1"
           d="m 811.2,43.5 v 18 h -2 v -18 h 2 m 1,-1 h -4 v 20 h 4 z"
           id="ASR-9902_front_corepath92"
           inkscape:connector-curvature="0"
           style="fill:#999999" /></g><g
         id="ASR-9902_front_coreg100"><path
           class="ASR-9902_front_corest2"
           d="M 810.8,73 V 34 h 21.5 c 10.8,0 19.5,8.7 19.5,19.5 0,10.8 -8.8,19.5 -19.6,19.5 z"
           id="ASR-9902_front_corepath96"
           inkscape:connector-curvature="0"
           style="fill:#cccccc" /><path
           class="ASR-9902_front_corest1"
           d="m 832.2,34.5 c 10.5,0 19,8.5 19,19 0,10.5 -8.5,19 -19,19 h -21 v -38 h 21 m 0,-1 h -22 v 40 h 22 c 11,0 20,-9 20,-20 0,-11 -8.9,-20 -20,-20 z"
           id="ASR-9902_front_corepath98"
           inkscape:connector-curvature="0"
           style="fill:#999999" /></g><g
         id="ASR-9902_front_coreg106"><circle
           class="ASR-9902_front_corest2"
           cx="831.20001"
           cy="52.5"
           r="10.5"
           id="ASR-9902_front_corecircle102"
           style="fill:#cccccc" /><path
           class="ASR-9902_front_corest1"
           d="m 831.2,42.5 c 5.5,0 10,4.5 10,10 0,5.5 -4.5,10 -10,10 -5.5,0 -10,-4.5 -10,-10 0,-5.5 4.5,-10 10,-10 m 0,-1 c -6.1,0 -11,4.9 -11,11 0,6.1 4.9,11 11,11 6.1,0 11,-4.9 11,-11 0,-6.1 -4.9,-11 -11,-11 z"
           id="ASR-9902_front_corepath104"
           inkscape:connector-curvature="0"
           style="fill:#999999" /></g><g
         id="ASR-9902_front_coreg112"><circle
           class="ASR-9902_front_corest5"
           cx="832.20001"
           cy="121.5"
           r="12.5"
           id="ASR-9902_front_corecircle108"
           style="fill:#333333" /><path
           class="ASR-9902_front_corest1"
           d="m 832.2,109.5 c 6.6,0 12,5.4 12,12 0,6.6 -5.4,12 -12,12 -6.6,0 -12,-5.4 -12,-12 0,-6.6 5.4,-12 12,-12 m 0,-1 c -7.2,0 -13,5.8 -13,13 0,7.2 5.8,13 13,13 7.2,0 13,-5.8 13,-13 0,-7.2 -5.8,-13 -13,-13 z"
           id="ASR-9902_front_corepath110"
           inkscape:connector-curvature="0"
           style="fill:#999999" /></g><g
         id="ASR-9902_front_coreg132"><g
           id="ASR-9902_front_coreg118"><circle
             class="ASR-9902_front_corest2"
             cx="830"
             cy="155"
             r="10.5"
             id="ASR-9902_front_corecircle114"
             style="fill:#cccccc" /><path
             class="ASR-9902_front_corest1"
             d="m 830,145 c 5.5,0 10,4.5 10,10 0,5.5 -4.5,10 -10,10 -5.5,0 -10,-4.5 -10,-10 0,-5.5 4.5,-10 10,-10 m 0,-1 c -6.1,0 -11,4.9 -11,11 0,6.1 4.9,11 11,11 6.1,0 11,-4.9 11,-11 0,-6.1 -4.9,-11 -11,-11 z"
             id="ASR-9902_front_corepath116"
             inkscape:connector-curvature="0"
             style="fill:#999999" /></g><g
           id="ASR-9902_front_coreg124"><circle
             class="ASR-9902_front_corest2"
             cx="830"
             cy="155"
             r="8.6000004"
             id="ASR-9902_front_corecircle120"
             style="fill:#cccccc" /><path
             class="ASR-9902_front_corest1"
             d="m 830,146.8 c 4.5,0 8.2,3.7 8.2,8.2 0,4.5 -3.7,8.2 -8.2,8.2 -4.5,0 -8.2,-3.7 -8.2,-8.2 0,-4.5 3.7,-8.2 8.2,-8.2 m 0,-0.8 c -5,0 -9,4 -9,9 0,5 4,9 9,9 5,0 9,-4 9,-9 0,-5 -4,-9 -9,-9 z"
             id="ASR-9902_front_corepath122"
             inkscape:connector-curvature="0"
             style="fill:#999999" /></g><g
           id="ASR-9902_front_coreg130"><circle
             class="ASR-9902_front_corest1"
             cx="830"
             cy="155"
             r="4.8000002"
             id="ASR-9902_front_corecircle126"
             style="fill:#999999" /><path
             class="ASR-9902_front_corest2"
             d="m 830,150.5 c 2.5,0 4.5,2 4.5,4.5 0,2.5 -2,4.5 -4.5,4.5 -2.5,0 -4.5,-2 -4.5,-4.5 0,-2.5 2,-4.5 4.5,-4.5 m 0,-0.5 c -2.8,0 -5,2.2 -5,5 0,2.8 2.2,5 5,5 2.8,0 5,-2.2 5,-5 0,-2.8 -2.2,-5 -5,-5 z"
             id="ASR-9902_front_corepath128"
             inkscape:connector-curvature="0"
             style="fill:#cccccc" /></g></g></g><g
       id="ASR-9902_front_coreg202"><g
         id="ASR-9902_front_coreg138"><path
           class="ASR-9902_front_corest4"
           id="ASR-9902_front_corepolygon136"
           d="m 1610.8,20 h 3 V 9.5 h -19.6 v 3 h 16.6 z"
           inkscape:connector-curvature="0"
           style="fill:#cccccc;stroke:#999999;stroke-miterlimit:10" /></g><g
         id="ASR-9902_front_coreg142"><path
           class="ASR-9902_front_corest4"
           id="ASR-9902_front_corepolygon140"
           d="m 1610.8,167.5 h 3 V 178 h -19.6 v -3 h 16.6 z"
           inkscape:connector-curvature="0"
           style="fill:#cccccc;stroke:#999999;stroke-miterlimit:10" /></g><g
         id="ASR-9902_front_coreg148"><path
           class="ASR-9902_front_corest2"
           d="m 1617.8,181 c -1.9,0 -3.5,-1.6 -3.5,-3.5 V 9.5 c 0,-1.9 1.6,-3.5 3.5,-3.5 h 34 c 1.9,0 3.5,1.6 3.5,3.5 v 168 c 0,1.9 -1.6,3.5 -3.5,3.5 z"
           id="ASR-9902_front_corepath144"
           inkscape:connector-curvature="0"
           style="fill:#cccccc" /><path
           class="ASR-9902_front_corest1"
           d="m 1651.8,6.5 c 1.7,0 3,1.3 3,3 v 168 c 0,1.7 -1.3,3 -3,3 h -34 c -1.7,0 -3,-1.3 -3,-3 V 9.5 c 0,-1.7 1.3,-3 3,-3 h 34 m 0,-1 h -34 c -2.2,0 -4,1.8 -4,4 v 168 c 0,2.2 1.8,4 4,4 h 34 c 2.2,0 4,-1.8 4,-4 V 9.5 c 0,-2.2 -1.8,-4 -4,-4 z"
           id="ASR-9902_front_corepath146"
           inkscape:connector-curvature="0"
           style="fill:#999999" /></g><g
         id="ASR-9902_front_coreg154"><circle
           class="ASR-9902_front_corest5"
           cx="1638"
           cy="121"
           r="12.5"
           id="ASR-9902_front_corecircle150"
           style="fill:#333333" /><path
           class="ASR-9902_front_corest1"
           d="m 1638,109 c 6.6,0 12,5.4 12,12 0,6.6 -5.4,12 -12,12 -6.6,0 -12,-5.4 -12,-12 0,-6.6 5.4,-12 12,-12 m 0,-1 c -7.2,0 -13,5.8 -13,13 0,7.2 5.8,13 13,13 7.2,0 13,-5.8 13,-13 0,-7.2 -5.8,-13 -13,-13 z"
           id="ASR-9902_front_corepath152"
           inkscape:connector-curvature="0"
           style="fill:#999999" /></g><g
         id="ASR-9902_front_coreg160"><circle
           class="ASR-9902_front_corest5"
           cx="1637"
           cy="59"
           r="10.6"
           id="ASR-9902_front_corecircle156"
           style="fill:#333333" /><path
           class="ASR-9902_front_corest1"
           d="m 1637,48.8 c 5.6,0 10.2,4.6 10.2,10.2 0,5.6 -4.6,10.2 -10.2,10.2 -5.6,0 -10.2,-4.6 -10.2,-10.2 0,-5.6 4.6,-10.2 10.2,-10.2 m 0,-0.8 c -6.1,0 -11,4.9 -11,11 0,6.1 4.9,11 11,11 6.1,0 11,-4.9 11,-11 0,-6.1 -4.9,-11 -11,-11 z"
           id="ASR-9902_front_corepath158"
           inkscape:connector-curvature="0"
           style="fill:#999999" /></g><g
         id="ASR-9902_front_coreg180"><g
           id="ASR-9902_front_coreg166"><circle
             class="ASR-9902_front_corest2"
             cx="1634.8"
             cy="162.5"
             r="10.5"
             id="ASR-9902_front_corecircle162"
             style="fill:#cccccc" /><path
             class="ASR-9902_front_corest1"
             d="m 1634.8,152.5 c 5.5,0 10,4.5 10,10 0,5.5 -4.5,10 -10,10 -5.5,0 -10,-4.5 -10,-10 0,-5.5 4.4,-10 10,-10 m 0,-1 c -6.1,0 -11,4.9 -11,11 0,6.1 4.9,11 11,11 6.1,0 11,-4.9 11,-11 0,-6.1 -5,-11 -11,-11 z"
             id="ASR-9902_front_corepath164"
             inkscape:connector-curvature="0"
             style="fill:#999999" /></g><g
           id="ASR-9902_front_coreg172"><circle
             class="ASR-9902_front_corest2"
             cx="1634.8"
             cy="162.5"
             r="8.6000004"
             id="ASR-9902_front_corecircle168"
             style="fill:#cccccc" /><path
             class="ASR-9902_front_corest1"
             d="m 1634.8,154.3 c 4.5,0 8.2,3.7 8.2,8.2 0,4.5 -3.7,8.2 -8.2,8.2 -4.5,0 -8.2,-3.7 -8.2,-8.2 0,-4.5 3.6,-8.2 8.2,-8.2 m 0,-0.8 c -5,0 -9,4 -9,9 0,5 4,9 9,9 5,0 9,-4 9,-9 0,-5 -4.1,-9 -9,-9 z"
             id="ASR-9902_front_corepath170"
             inkscape:connector-curvature="0"
             style="fill:#999999" /></g><g
           id="ASR-9902_front_coreg178"><circle
             class="ASR-9902_front_corest1"
             cx="1634.8"
             cy="162.5"
             r="4.8000002"
             id="ASR-9902_front_corecircle174"
             style="fill:#999999" /><path
             class="ASR-9902_front_corest2"
             d="m 1634.8,158 c 2.5,0 4.5,2 4.5,4.5 0,2.5 -2,4.5 -4.5,4.5 -2.5,0 -4.5,-2 -4.5,-4.5 0,-2.5 1.9,-4.5 4.5,-4.5 m 0,-0.5 c -2.8,0 -5,2.2 -5,5 0,2.8 2.2,5 5,5 2.8,0 5,-2.2 5,-5 0,-2.8 -2.3,-5 -5,-5 z"
             id="ASR-9902_front_corepath176"
             inkscape:connector-curvature="0"
             style="fill:#cccccc" /></g></g><g
         id="ASR-9902_front_coreg200"><g
           id="ASR-9902_front_coreg186"><circle
             class="ASR-9902_front_corest2"
             cx="1635"
             cy="21"
             r="10.5"
             id="ASR-9902_front_corecircle182"
             style="fill:#cccccc" /><path
             class="ASR-9902_front_corest1"
             d="m 1635,11 c 5.5,0 10,4.5 10,10 0,5.5 -4.5,10 -10,10 -5.5,0 -10,-4.5 -10,-10 0,-5.5 4.5,-10 10,-10 m 0,-1 c -6.1,0 -11,4.9 -11,11 0,6.1 4.9,11 11,11 6.1,0 11,-4.9 11,-11 0,-6.1 -4.9,-11 -11,-11 z"
             id="ASR-9902_front_corepath184"
             inkscape:connector-curvature="0"
             style="fill:#999999" /></g><g
           id="ASR-9902_front_coreg192"><circle
             class="ASR-9902_front_corest2"
             cx="1635"
             cy="21"
             r="8.6000004"
             id="ASR-9902_front_corecircle188"
             style="fill:#cccccc" /><path
             class="ASR-9902_front_corest1"
             d="m 1635,12.8 c 4.5,0 8.2,3.7 8.2,8.2 0,4.5 -3.7,8.2 -8.2,8.2 -4.5,0 -8.2,-3.7 -8.2,-8.2 0,-4.5 3.7,-8.2 8.2,-8.2 m 0,-0.8 c -5,0 -9,4 -9,9 0,5 4,9 9,9 5,0 9,-4 9,-9 0,-5 -4,-9 -9,-9 z"
             id="ASR-9902_front_corepath190"
             inkscape:connector-curvature="0"
             style="fill:#999999" /></g><g
           id="ASR-9902_front_coreg198"><circle
             class="ASR-9902_front_corest1"
             cx="1635"
             cy="21"
             r="4.8000002"
             id="ASR-9902_front_corecircle194"
             style="fill:#999999" /><path
             class="ASR-9902_front_corest2"
             d="m 1635,16.5 c 2.5,0 4.5,2 4.5,4.5 0,2.5 -2,4.5 -4.5,4.5 -2.5,0 -4.5,-2 -4.5,-4.5 0,-2.5 2,-4.5 4.5,-4.5 m 0,-0.5 c -2.8,0 -5,2.2 -5,5 0,2.8 2.2,5 5,5 2.8,0 5,-2.2 5,-5 0,-2.8 -2.2,-5 -5,-5 z"
             id="ASR-9902_front_corepath196"
             inkscape:connector-curvature="0"
             style="fill:#cccccc" /></g></g></g><g
       id="ASR-9902_front_coreg208"><path
         class="ASR-9902_front_corest2"
         id="ASR-9902_front_corerect204"
         d="m 66.8,6 h 1527 v 5 H 66.8 Z"
         inkscape:connector-curvature="0"
         style="fill:#cccccc" /><path
         class="ASR-9902_front_corest3"
         d="m 1593.2,6.5 v 4 H 67.2 v -4 h 1526 m 1,-1 H 66.2 v 6 h 1528 z"
         id="ASR-9902_front_corepath206"
         inkscape:connector-curvature="0"
         style="fill:#4d4d4d" /></g></g>
</svg>