<?xml version="1.0" encoding="UTF-8" standalone="no"?>
<svg
   xmlns:dc="http://purl.org/dc/elements/1.1/"
   xmlns:cc="http://creativecommons.org/ns#"
   xmlns:rdf="http://www.w3.org/1999/02/22-rdf-syntax-ns#"
   xmlns:svg="http://www.w3.org/2000/svg"
   xmlns="http://www.w3.org/2000/svg"
   xmlns:sodipodi="http://sodipodi.sourceforge.net/DTD/sodipodi-0.dtd"
   xmlns:inkscape="http://www.inkscape.org/namespaces/inkscape"
   width="1661"
   height="331"
   viewBox="0 0 1661 331"
   version="1.1"
   id="svg134"
   sodipodi:docname="NCS-5502-Rear-core.svg"
   inkscape:version="1.0.1 (3bc2e813f5, 2020-09-07)">
  <metadata
     id="metadata140">
    <rdf:RDF>
      <cc:Work
         rdf:about="">
        <dc:format>image/svg+xml</dc:format>
        <dc:type
           rdf:resource="http://purl.org/dc/dcmitype/StillImage" />
      </cc:Work>
    </rdf:RDF>
  </metadata>
  <defs
     id="defs138" />
  <sodipodi:namedview
     pagecolor="#ffffff"
     bordercolor="#666666"
     borderopacity="1"
     objecttolerance="10"
     gridtolerance="10"
     guidetolerance="10"
     inkscape:pageopacity="0"
     inkscape:pageshadow="2"
     inkscape:window-width="1280"
     inkscape:window-height="658"
     id="namedview136"
     showgrid="false"
     inkscape:zoom="0.62733293"
     inkscape:cx="830.5"
     inkscape:cy="165.5"
     inkscape:window-x="-6"
     inkscape:window-y="-6"
     inkscape:window-maximized="1"
     inkscape:current-layer="svg134" />
  <path
     clip-rule="evenodd"
     fill="#1a1a1a"
     fill-rule="evenodd"
     d="M2 2h1657v327H2z"
     id="path2" />
  <path
     d="M1657 4v323H4V4h1653m4-4H0v331h1661z"
     fill="#989898"
     id="path4" />
  <path
     clip-rule="evenodd"
     fill="#d9d9d8"
     fill-rule="evenodd"
     d="M399.5 5h857.1v4H399.5z"
     id="path6" />
  <path
     clip-rule="evenodd"
     fill="#b4b4b4"
     fill-rule="evenodd"
     d="M399.5 9h857.1v5H399.5z"
     id="path8" />
  <path
     d="M399.5 9.5c-7-5.5-8.1-5.5-8.6-5.5H320v2h70.8c1.1.4 5.2 3.5 8.7 6.3z"
     fill="#e6e6e5"
     id="path10" />
  <path
     d="M399.5 11.5c-7-5.5-8.1-5.5-8.6-5.5H320v2h70.8c1.1.4 5.2 3.5 8.7 6.3z"
     fill="#b4b4b4"
     id="path12" />
  <path
     d="M1256.5 9.5c7-5.5 8.1-5.5 8.6-5.5h70.9v2h-70.8c-1.1.4-5.2 3.5-8.7 6.3z"
     fill="#e6e6e5"
     id="path14" />
  <path
     d="M1256.5 11.5c7-5.5 8.1-5.5 8.6-5.5h70.9v2h-70.8c-1.1.4-5.2 3.5-8.7 6.3zM30 161.5c-.3 0-.5-.2-.5-.5v-3c0-.3.2-.5.5-.5h284c.3 0 .5.2.5.5v3c0 .3-.2.5-.5.5z"
     fill="#b4b4b4"
     id="path16" />
  <path
     d="M314 158v3H30v-3h284m0-1H30c-.6 0-1 .4-1 1v3c0 .6.4 1 1 1h284c.6 0 1-.4 1-1v-3c0-.6-.4-1-1-1z"
     fill="#818181"
     id="path18" />
  <path
     d="M1344 161.5c-.3 0-.5-.2-.5-.5v-3c0-.3.2-.5.5-.5h284c.3 0 .5.2.5.5v3c0 .3-.2.5-.5.5z"
     fill="#b4b4b4"
     id="path20" />
  <path
     d="M1628 158v3h-284v-3h284m0-1h-284c-.6 0-1 .4-1 1v3c0 .6.4 1 1 1h284c.6 0 1-.4 1-1v-3c0-.6-.4-1-1-1z"
     fill="#818181"
     id="path22" />
  <path
     d="M1340 326.5c-.3 0-.5-.2-.5-.5V5c0-.3.2-.5.5-.5h2c.3 0 .5.2.5.5v321c0 .3-.2.5-.5.5z"
     fill="#b4b4b4"
     id="path24" />
  <path
     d="M1342 5v321h-2V5h2m0-1h-2c-.6 0-1 .4-1 1v321c0 .6.4 1 1 1h2c.6 0 1-.4 1-1V5c0-.6-.4-1-1-1z"
     fill="#818181"
     id="path26" />
  <g
     id="g32">
    <path
       d="M316 326.5c-.3 0-.5-.2-.5-.5V5c0-.3.2-.5.5-.5h2c.3 0 .5.2.5.5v321c0 .3-.2.5-.5.5z"
       fill="#b4b4b4"
       id="path28" />
    <path
       d="M318 5v321h-2V5h2m0-1h-2c-.6 0-1 .4-1 1v321c0 .6.4 1 1 1h2c.6 0 1-.4 1-1V5c0-.6-.4-1-1-1z"
       fill="#818181"
       id="path30" />
  </g>
  <g
     id="g50">
    <path
       d="M3.5 323.5V7.5H26c1.9 0 3.5 1.6 3.5 3.5v309c0 1.9-1.6 3.5-3.5 3.5z"
       fill="#b4b4b4"
       id="path34" />
    <path
       d="M26 8c1.7 0 3 1.3 3 3v309c0 1.7-1.3 3-3 3H4V8h22m0-1H3v317h23c2.2 0 4-1.8 4-4V11c0-2.2-1.8-4-4-4z"
       fill="#818181"
       id="path36" />
    <path
       fill="#333"
       d="M12.3 259.9l12-7-12-6.9z"
       id="path38" />
    <g
       fill="#333"
       id="g42">
      <path
         d="M10.1 232.3v-7.2H12c.7 0 1.2 0 1.4.1.3.1.6.3.9.7.3.4.3.8.3 1.4 0 .5-.1 1-.3 1.3-.2.4-.4.6-.7.7-.3.1-.8.2-1.5.2h-.8v2.7h-1.2zm1.2-6v2h.7c.4 0 .7 0 .9-.1.2-.1.3-.2.4-.3.1-.2.2-.4.2-.6 0-.2-.1-.4-.2-.6-.1-.2-.2-.3-.4-.3s-.5-.1-1-.1zM15.5 232.3v-7.2h1.8l1.1 4.9 1.1-4.9h1.8v7.2H20v-5.6l-1.2 5.6h-1.1l-1.2-5.6v5.6zM24.8 232.3h-1.1v-5.2c-.4.5-.9.8-1.5 1v-1.2c.3-.1.6-.4 1-.7.4-.3.6-.7.7-1.1h.9z"
         id="path40" />
    </g>
    <path
       fill="#333"
       d="M12.3 99.9l12-7-12-6.9z"
       id="path44" />
    <g
       fill="#333"
       id="g48">
      <path
         d="M10.1 72.3v-7.2H12c.7 0 1.2 0 1.4.1.3.1.6.3.9.7.3.4.3.8.3 1.4 0 .5-.1 1-.3 1.3-.2.3-.4.6-.7.7-.3.1-.8.2-1.5.2h-.8v2.7h-1.2zm1.2-6v2h.7c.4 0 .7 0 .9-.1.2-.1.3-.2.4-.3.1-.1.2-.4.2-.6 0-.2-.1-.4-.2-.6-.1-.2-.2-.3-.4-.3-.2-.1-.5-.1-1-.1zM15.5 72.3v-7.2h1.8l1.1 4.9 1.1-4.9h1.8v7.2H20v-5.6l-1.2 5.6h-1.1l-1.2-5.6v5.6zM23.9 65.1c.6 0 1 .3 1.4.8.4.5.5 1.5.5 2.8 0 1.4-.2 2.3-.5 2.8s-.8.8-1.4.8c-.6 0-1-.3-1.4-.8-.4-.5-.5-1.4-.5-2.8 0-1.3.2-2.3.5-2.8s.8-.8 1.4-.8zm0 1.1c-.2 0-.4.1-.5.4-.1.3-.2 1-.2 2.1s.1 1.8.2 2.1c.1.3.3.4.5.4s.4-.1.5-.4c.1-.3.2-1 .2-2.1s-.1-1.8-.2-2.1c-.1-.2-.3-.4-.5-.4z"
         id="path46" />
    </g>
  </g>
  <g
     id="g68">
    <path
       d="M1633 323.5c-1.9 0-3.5-1.6-3.5-3.5V11c0-1.9 1.6-3.5 3.5-3.5h22.5v316z"
       fill="#b4b4b4"
       id="path52" />
    <path
       d="M1655 8v315h-22c-1.7 0-3-1.3-3-3V11c0-1.7 1.3-3 3-3h22m1-1h-23c-2.2 0-4 1.8-4 4v309c0 2.2 1.8 4 4 4h23z"
       fill="#818181"
       id="path54" />
    <path
       fill="#333"
       d="M1646.7 259.9l-12-7 12-6.9z"
       id="path56" />
    <g
       fill="#333"
       id="g60">
      <path
         d="M1634.1 232.3v-7.2h1.9c.7 0 1.2 0 1.4.1.3.1.6.3.9.7.2.4.3.8.3 1.4 0 .5-.1 1-.3 1.3-.2.4-.4.6-.7.7-.3.1-.8.2-1.5.2h-.8v2.7h-1.2zm1.2-6v2h.7c.4 0 .7 0 .9-.1.2-.1.3-.2.4-.3.1-.2.2-.4.2-.6 0-.2-.1-.4-.2-.6-.1-.2-.2-.3-.4-.3-.2-.1-.5-.1-1-.1zM1639.4 232.3v-7.2h1.8l1.1 4.9 1.1-4.9h1.8v7.2h-1.1v-5.6l-1.2 5.6h-1.1l-1.2-5.6v5.6zM1645.9 230.4l1.1-.2c0 .3.1.6.3.8.2.2.3.3.6.3.2 0 .4-.1.6-.3.2-.2.2-.5.2-.9 0-.3-.1-.6-.2-.8-.2-.2-.3-.3-.6-.3-.1 0-.3 0-.5.1l.1-1.1c.3 0 .5-.1.7-.2.2-.2.3-.4.3-.7 0-.2-.1-.4-.2-.6-.1-.1-.3-.2-.5-.2s-.4.1-.5.2c-.1.1-.2.4-.2.7l-1-.2c.1-.7.3-1.1.6-1.4.3-.3.7-.4 1.2-.4s1 .2 1.3.6c.3.4.5.8.5 1.3 0 .3-.1.6-.2.8-.1.2-.4.5-.6.7.3.1.6.3.8.6.2.3.3.7.3 1.1 0 .7-.2 1.2-.6 1.6-.4.4-.9.6-1.4.6-.5 0-1-.2-1.3-.5-.5-.5-.7-1-.8-1.6z"
         id="path58" />
    </g>
    <path
       fill="#333"
       d="M1646.7 99.9l-12-7 12-6.9z"
       id="path62" />
    <g
       fill="#333"
       id="g66">
      <path
         d="M1634.1 72.3v-7.2h1.9c.7 0 1.2 0 1.4.1.3.1.6.3.9.7.2.4.3.8.3 1.4 0 .5-.1 1-.3 1.3-.2.3-.4.6-.7.7-.3.1-.8.2-1.5.2h-.8v2.7h-1.2zm1.2-6v2h.7c.4 0 .7 0 .9-.1.2-.1.3-.2.4-.3.1-.2.2-.4.2-.6 0-.2-.1-.4-.2-.6-.1-.2-.2-.3-.4-.3-.2-.1-.5-.1-1-.1zM1639.4 72.3v-7.2h1.8l1.1 4.9 1.1-4.9h1.8v7.2h-1.1v-5.6l-1.2 5.6h-1.1l-1.2-5.6v5.6zM1649.7 71v1.3h-3.9c0-.5.2-.9.4-1.4.2-.4.6-1 1.3-1.7.5-.6.8-.9.9-1.1.2-.3.3-.6.3-.9 0-.3-.1-.5-.2-.7-.1-.2-.3-.2-.6-.2-.5 0-.8.4-.8 1.1l-1.1-.1c.1-.7.3-1.3.6-1.6.3-.3.8-.5 1.3-.5.6 0 1.1.2 1.4.6.3.4.5.9.5 1.4 0 .3 0 .6-.1.9-.1.3-.2.6-.4.8-.2.3-.4.6-.8 1.1-.4.4-.6.7-.7.8-.1.1-.2.3-.2.4h2.1z"
         id="path64" />
    </g>
  </g>
  <g
     id="g80">
    <path
       d="M324 320.5c-1.9 0-3.5-1.6-3.5-3.5V205c0-1.9 1.6-3.5 3.5-3.5h20c1.9 0 3.5 1.6 3.5 3.5v112c0 1.9-1.6 3.5-3.5 3.5z"
       fill="#b4b4b4"
       id="path70" />
    <path
       d="M344 202c1.7 0 3 1.3 3 3v112c0 1.7-1.3 3-3 3h-20c-1.7 0-3-1.3-3-3V205c0-1.7 1.3-3 3-3h20m0-1h-20c-2.2 0-4 1.8-4 4v112c0 2.2 1.8 4 4 4h20c2.2 0 4-1.8 4-4V205c0-2.2-1.8-4-4-4z"
       fill="#818181"
       id="path72" />
    <path
       fill="#333"
       d="M327.5 240.9l12-7-12-6.9z"
       id="path74" />
    <g
       fill="#333"
       id="g78">
      <path
         d="M327 221.3v-7.2h4v1.2h-2.8v1.7h2.5v1.2h-2.5v3H327zM333.2 221.3v-5.9h-1.7v-1.2h4.7v1.2h-1.7v5.9zM338.4 214.1c.6 0 1 .3 1.4.8.4.5.5 1.5.5 2.8 0 1.4-.2 2.3-.5 2.8-.4.5-.8.8-1.4.8-.6 0-1-.3-1.4-.8-.4-.5-.5-1.5-.5-2.9 0-1.3.2-2.3.5-2.8.4-.4.9-.7 1.4-.7zm0 1.1c-.2 0-.4.1-.5.4-.1.3-.2 1-.2 2.1s.1 1.8.2 2.1c.1.3.3.4.5.4s.4-.1.5-.4c.1-.3.2-1 .2-2.1s-.1-1.8-.2-2.1c-.1-.2-.2-.4-.5-.4z"
         id="path76" />
    </g>
  </g>
  <g
     id="g92">
    <path
       d="M663 320.5c-1.9 0-3.5-1.6-3.5-3.5V205c0-1.9 1.6-3.5 3.5-3.5h20c1.9 0 3.5 1.6 3.5 3.5v112c0 1.9-1.6 3.5-3.5 3.5z"
       fill="#b4b4b4"
       id="path82" />
    <path
       d="M683 202c1.7 0 3 1.3 3 3v112c0 1.7-1.3 3-3 3h-20c-1.7 0-3-1.3-3-3V205c0-1.7 1.3-3 3-3h20m0-1h-20c-2.2 0-4 1.8-4 4v112c0 2.2 1.8 4 4 4h20c2.2 0 4-1.8 4-4V205c0-2.2-1.8-4-4-4z"
       fill="#818181"
       id="path84" />
    <path
       fill="#333"
       d="M666.5 240.9l12-7-12-6.9z"
       id="path86" />
    <g
       fill="#333"
       id="g90">
      <path
         d="M666 221.3v-7.2h4v1.2h-2.8v1.7h2.5v1.2h-2.5v3H666zM672.2 221.3v-5.9h-1.7v-1.2h4.7v1.2h-1.7v5.9zM678.4 221.3h-1.1v-5.2c-.4.5-.9.8-1.5 1v-1.2c.3-.1.6-.4 1-.7.4-.3.6-.7.7-1.1h.9z"
         id="path88" />
    </g>
  </g>
  <g
     id="g104">
    <path
       d="M1002 320.5c-1.9 0-3.5-1.6-3.5-3.5V205c0-1.9 1.6-3.5 3.5-3.5h20c1.9 0 3.5 1.6 3.5 3.5v112c0 1.9-1.6 3.5-3.5 3.5z"
       fill="#b4b4b4"
       id="path94" />
    <path
       d="M1022 202c1.7 0 3 1.3 3 3v112c0 1.7-1.3 3-3 3h-20c-1.7 0-3-1.3-3-3V205c0-1.7 1.3-3 3-3h20m0-1h-20c-2.2 0-4 1.8-4 4v112c0 2.2 1.8 4 4 4h20c2.2 0 4-1.8 4-4V205c0-2.2-1.8-4-4-4z"
       fill="#818181"
       id="path96" />
    <path
       fill="#333"
       d="M1005.5 240.9l12-7-12-6.9z"
       id="path98" />
    <g
       fill="#333"
       id="g102">
      <path
         d="M1005 221.3v-7.2h4v1.2h-2.8v1.7h2.5v1.2h-2.5v3h-1.2zM1011.2 221.3v-5.9h-1.7v-1.2h4.7v1.2h-1.7v5.9zM1018.3 220v1.3h-3.9c0-.5.2-.9.4-1.4.2-.4.6-1 1.3-1.7.5-.6.8-.9.9-1.1.2-.3.3-.6.3-.9 0-.3-.1-.5-.2-.7-.1-.2-.3-.2-.6-.2-.5 0-.8.4-.8 1.1l-1.1-.1c.1-.7.3-1.3.6-1.6.3-.3.8-.5 1.3-.5.6 0 1.1.2 1.4.6.3.4.5.9.5 1.4 0 .3 0 .6-.1.9-.1.3-.2.6-.4.8-.2.2-.4.6-.8 1.1-.4.4-.6.7-.7.8-.1.1-.2.3-.2.4h2.1z"
         id="path100" />
    </g>
  </g>
  <g
     id="g126">
    <path
       d="M331.3 262.3l9.3 16.9H322l9.3-16.9m0-1c-.3 0-.7.2-.9.5l-9.3 16.9c-.4.7.1 1.5.9 1.5h18.6c.8 0 1.2-.8.9-1.5l-9.3-16.9c-.2-.4-.5-.5-.9-.5z"
       fill="#010101"
       id="path106" />
    <circle
       cx="331.3"
       cy="277"
       r="1.3"
       clip-rule="evenodd"
       fill="#010101"
       fill-rule="evenodd"
       id="circle108" />
    <path
       d="M332 274.6h-1.3l-.4-8c0-.6.5-1.1 1.1-1.1.6 0 1.1.5 1.1 1.1z"
       clip-rule="evenodd"
       fill="#010101"
       fill-rule="evenodd"
       id="path110" />
    <g
       id="g124">
      <path
         d="M331.3 289.1l9.3 16.9H322l9.3-16.9m0-1c-.3 0-.7.2-.9.5l-9.3 16.9c-.4.7.1 1.5.9 1.5h18.6c.8 0 1.2-.8.9-1.5l-9.3-16.9c-.2-.4-.5-.5-.9-.5z"
         fill="#010101"
         id="path112" />
      <path
         d="M331.7 300.3c.5 0 2.3 1.5 2.3 2.7 0 .8-.8 1.8-2 1.8 0 0-1.1 0-1.6-.8-.3-.4-.2-.6.2-1.2.2-.2.3-.5.5-.8.2-.4.3-.8.4-1.2 0-.2.1-.5.2-.5-.1 0-.1 0 0 0m0-.5c-.8 0-.5 1.1-1 2-.6 1.1-1.4 1.5-.7 2.5s2 1 2 1c1.5 0 2.5-1.2 2.5-2.3-.1-1.5-2-3.2-2.8-3.2z"
         fill="#010101"
         id="path114" />
      <path
         d="M327.4 299.2c.2 0 .4.1.7.3.2.1.5.3.9.4.4.2.9.2 1.2.2.2 0 .5 0 .6.1v.1c.1.5-1.1 2.5-2.3 2.7h-.2c-.8 0-1.7-.6-1.9-1.7 0 0-.1-1.1.5-1.7.3-.4.4-.4.5-.4m0-.5c-.3 0-.5.1-.8.4-.9.8-.7 2.1-.7 2.1.2 1.4 1.4 2.1 2.4 2.1h.3c1.5-.2 2.9-2.4 2.8-3.3-.1-.8-1.2-.3-2.1-.7-.9-.2-1.4-.6-1.9-.6z"
         fill="#010101"
         id="path116" />
      <path
         d="M330.5 295.5c.2 0 1.1 0 1.6.7.3.4.2.6-.2 1.2-.2.2-.3.5-.5.8-.2.4-.3.8-.3 1.2 0 .2-.1.5-.1.6h-.1c-.6 0-2.3-1.4-2.4-2.6 0-.9.8-1.9 2-1.9m0-.5s-.1 0 0 0c-1.6.1-2.5 1.4-2.4 2.4.1 1.5 2.1 3.1 2.9 3.1.8 0 .5-1.2.9-2 .5-1.1 1.3-1.6.6-2.5-.6-1-1.8-1-2-1z"
         fill="#010101"
         id="path118" />
      <path
         d="M334.5 297.5h.1c.8.1 1.7 1 1.6 2.2 0 0-.1 1.1-.9 1.5-.2.1-.3.1-.4.1-.2 0-.4-.2-.7-.5-.2-.2-.4-.4-.7-.6-.4-.3-.8-.4-1.1-.5-.2-.1-.5-.1-.5-.2v-.1c-.2-.4 1.3-1.9 2.6-1.9m0-.5c-1.5 0-3.2 1.7-3.3 2.5-.1.8 1.1.6 1.9 1.2.8.5 1.2 1.2 1.8 1.2.2 0 .4-.1.6-.2 1.1-.6 1.2-1.9 1.2-1.9.1-1.5-1-2.6-2-2.7-.1-.1-.1-.1-.2-.1z"
         fill="#010101"
         id="path120" />
      <path
         d="M331.5 299.7c.3 0 .5.2.5.5s-.2.5-.5.5-.5-.2-.5-.5.2-.5.5-.5m0-.5c-.6 0-1 .5-1 1 0 .6.5 1 1 1 .6 0 1-.5 1-1 0-.6-.5-1-1-1z"
         fill="#010101"
         id="path122" />
    </g>
  </g>
  <g
     id="g132">
    <path
       clip-rule="evenodd"
       fill="#ccc"
       fill-rule="evenodd"
       d="M318.5 323.5h1017v7h-1017z"
       id="path128" />
    <path
       d="M1335 324v6H319v-6h1016m1-1H318v8h1018z"
       fill="#989898"
       id="path130" />
  </g>
  <text
     xml:space="preserve"
     style="font-style:normal;font-weight:normal;font-size:40px;line-height:1.25;font-family:sans-serif;fill:#000000;fill-opacity:1;stroke:none"
     x="475.02686"
     y="196.06815"
     id="text144"><tspan
       sodipodi:role="line"
       id="tspan142"
       x="475.02686"
       y="196.06815" /></text>
</svg>
