<?xml version="1.0" encoding="UTF-8" standalone="no"?>
<svg
   xmlns:dc="http://purl.org/dc/elements/1.1/"
   xmlns:cc="http://creativecommons.org/ns#"
   xmlns:rdf="http://www.w3.org/1999/02/22-rdf-syntax-ns#"
   xmlns:svg="http://www.w3.org/2000/svg"
   xmlns="http://www.w3.org/2000/svg"
   xmlns:sodipodi="http://sodipodi.sourceforge.net/DTD/sodipodi-0.dtd"
   xmlns:inkscape="http://www.inkscape.org/namespaces/inkscape"
   version="1.1"
   id="N540X-16Z4G8Q2C-A_Front_FanLayer_1"
   x="0"
   y="0"
   viewBox="0 0 198 158"
   xml:space="preserve"
   width="198"
   height="158"
   sodipodi:docname="N540X-16Z4G8Q2C-A_Front_Fan.svg"
   inkscape:version="1.0.1 (3bc2e813f5, 2020-09-07)"><metadata
     id="metadata53"><rdf:RDF><cc:Work
         rdf:about=""><dc:format>image/svg+xml</dc:format><dc:type
           rdf:resource="http://purl.org/dc/dcmitype/StillImage" /></cc:Work></rdf:RDF></metadata><defs
     id="defs51" /><sodipodi:namedview
     pagecolor="#ffffff"
     bordercolor="#666666"
     borderopacity="1"
     objecttolerance="10"
     gridtolerance="10"
     guidetolerance="10"
     inkscape:pageopacity="0"
     inkscape:pageshadow="2"
     inkscape:window-width="1280"
     inkscape:window-height="658"
     id="namedview49"
     showgrid="false"
     inkscape:zoom="2.9620253"
     inkscape:cx="99"
     inkscape:cy="79"
     inkscape:window-x="-6"
     inkscape:window-y="-6"
     inkscape:window-maximized="1"
     inkscape:current-layer="N540X-16Z4G8Q2C-A_Front_FanLayer_1" /><style
     type="text/css"
     id="N540X-16Z4G8Q2C-A_Front_Fanstyle2">.N540X-16Z4G8Q2C-A_Front_Fanst0{fill:#b3b3b3}.N540X-16Z4G8Q2C-A_Front_Fanst1{fill:#666}.N540X-16Z4G8Q2C-A_Front_Fanst2{fill:#ccc}.N540X-16Z4G8Q2C-A_Front_Fanst4{fill-rule:evenodd;clip-rule:evenodd;fill:#333}.N540X-16Z4G8Q2C-A_Front_Fanst5{fill:#333}</style><g
     id="N540X-16Z4G8Q2C-A_Front_Fang92"><g
       id="N540X-16Z4G8Q2C-A_Front_Fang74"><g
         id="N540X-16Z4G8Q2C-A_Front_Fang36"><g
           id="N540X-16Z4G8Q2C-A_Front_Fang8"><path
             class="N540X-16Z4G8Q2C-A_Front_Fanst0"
             d="M0 4v150c0 2.2 1.8 4 4 4h142c2.2 0 4-1.8 4-4V4c0-2.2-1.8-4-4-4H4C1.8 0 0 1.8 0 4z"
             id="N540X-16Z4G8Q2C-A_Front_Fanpath4"
             fill="#b3b3b3" /><path
             class="N540X-16Z4G8Q2C-A_Front_Fanst1"
             d="M146 1c1.7 0 3 1.3 3 3v150c0 1.7-1.3 3-3 3H4c-1.7 0-3-1.3-3-3V4c0-1.7 1.3-3 3-3h142m0-1H4C1.8 0 0 1.8 0 4v150c0 2.2 1.8 4 4 4h142c2.2 0 4-1.8 4-4V4c0-2.2-1.8-4-4-4z"
             id="N540X-16Z4G8Q2C-A_Front_Fanpath6"
             fill="#666" /></g><g
           id="N540X-16Z4G8Q2C-A_Front_Fang14"><path
             class="N540X-16Z4G8Q2C-A_Front_Fanst0"
             d="M150 3.1V158h20V81.3h22c3.3 0 6-2.7 6-6V9.1c0-3.3-2.7-6-6-6z"
             id="N540X-16Z4G8Q2C-A_Front_Fanpath10"
             fill="#b3b3b3" /><path
             class="N540X-16Z4G8Q2C-A_Front_Fanst1"
             d="M192 4.1c2.8 0 5 2.2 5 5v66.2c0 2.8-2.2 5-5 5h-23V157h-18V4.1h41m0-1h-42V158h20V81.3h22c3.3 0 6-2.7 6-6V9.1c0-3.4-2.7-6-6-6z"
             id="N540X-16Z4G8Q2C-A_Front_Fanpath12"
             fill="#666" /></g><g
           id="N540X-16Z4G8Q2C-A_Front_Fang34"><g
             id="N540X-16Z4G8Q2C-A_Front_Fang20"><circle
               class="N540X-16Z4G8Q2C-A_Front_Fanst0"
               cx="177.5"
               cy="29.4"
               r="12.5"
               id="N540X-16Z4G8Q2C-A_Front_Fancircle16"
               fill="#b3b3b3" /><path
               class="N540X-16Z4G8Q2C-A_Front_Fanst1"
               d="M177.5 17.4c6.6 0 12 5.4 12 12s-5.4 12-12 12-12-5.4-12-12 5.4-12 12-12m0-1c-7.1 0-13 5.8-13 13s5.8 13 13 13 13-5.8 13-13-5.8-13-13-13z"
               id="N540X-16Z4G8Q2C-A_Front_Fanpath18"
               fill="#666" /></g><g
             id="N540X-16Z4G8Q2C-A_Front_Fang26"><path
               class="N540X-16Z4G8Q2C-A_Front_Fanst2"
               d="M169.6 29.4c0-4.4 3.5-8 7.9-8s8 3.6 8 8c0 4.3-3.6 7.9-8 7.9s-7.9-3.5-7.9-7.9z"
               id="N540X-16Z4G8Q2C-A_Front_Fanpath22"
               fill="#ccc" /><path
               class="N540X-16Z4G8Q2C-A_Front_Fanst1"
               d="M177.5 21.9c4.1 0 7.5 3.4 7.5 7.5s-3.4 7.5-7.5 7.5-7.4-3.3-7.4-7.5 3.3-7.5 7.4-7.5m0-1c-4.6 0-8.4 3.8-8.4 8.5s3.7 8.5 8.4 8.5 8.5-3.8 8.5-8.5-3.8-8.5-8.5-8.5z"
               id="N540X-16Z4G8Q2C-A_Front_Fanpath24"
               fill="#666" /></g><g
             id="N540X-16Z4G8Q2C-A_Front_Fang32"><path
               d="M176.5 33.5v-3.1c0-.3-.2-.5-.5-.5h-6.3v-1h6.3c.3 0 .5-.2.5-.5v-3.1h2.2v3.1c0 .3.2.5.5.5h6.3v1h-6.3c-.3 0-.5.2-.5.5v3.1z"
               id="N540X-16Z4G8Q2C-A_Front_Fanpath28"
               fill="#e6e6e6" /><path
               class="N540X-16Z4G8Q2C-A_Front_Fanst1"
               d="M176.9 25.8h1.3v2.6c0 .5.4.9.8 1-.5.1-.8.5-.8 1V33h-1.3v-2.6c0-.5-.4-.9-.8-1 .5-.1.8-.5.8-1v-2.6m-1-1v3.6h-6.8v1.9h6.8v3.6h3.3v-3.6h6.8v-1.9h-6.8v-3.6z"
               id="N540X-16Z4G8Q2C-A_Front_Fanpath30"
               fill="#666" /></g></g></g><g
         id="N540X-16Z4G8Q2C-A_Front_Fang66"><path
           class="N540X-16Z4G8Q2C-A_Front_Fanst4"
           id="N540X-16Z4G8Q2C-A_Front_Fanrect38"
           clip-rule="evenodd"
           fill="#333"
           fill-rule="evenodd"
           d="M113 21.6h1.8v7H113z" /><path
           class="N540X-16Z4G8Q2C-A_Front_Fanst4"
           d="M129.1 23.6s-.7-.2-1.5-.2c-1.1 0-2 .7-2 1.8s.9 2 2 2c.9 0 1.5-.4 1.5-.4v2c-.2 0-.9.2-1.5.2-2 0-3.7-1.5-3.7-3.7 0-2 1.5-3.5 3.7-3.5.7 0 1.3.2 1.5.2z"
           id="N540X-16Z4G8Q2C-A_Front_Fanpath40"
           clip-rule="evenodd"
           fill="#333"
           fill-rule="evenodd" /><path
           class="N540X-16Z4G8Q2C-A_Front_Fanst4"
           d="M110.6 23.6s-.4-.2-1.3-.2c-1.1 0-2 .7-2 1.8s.7 2 2 2c.7 0 1.3-.4 1.3-.4v2c-.2 0-.7.2-1.5.2-2 0-3.7-1.5-3.7-3.7 0-2 1.5-3.5 3.7-3.5.9 0 1.5.2 1.5.2z"
           id="N540X-16Z4G8Q2C-A_Front_Fanpath42"
           clip-rule="evenodd"
           fill="#333"
           fill-rule="evenodd" /><path
           class="N540X-16Z4G8Q2C-A_Front_Fanst4"
           d="M138.3 25.2c0 2-1.5 3.7-3.7 3.7s-3.7-1.8-3.7-3.7c0-1.9 1.5-3.5 3.7-3.5 2.2-.1 3.7 1.5 3.7 3.5zm-3.7-1.8c-1.1 0-1.8.9-1.8 1.8 0 1.1.7 2 1.8 2s1.8-.9 1.8-2c-.1-.9-.7-1.8-1.8-1.8z"
           id="N540X-16Z4G8Q2C-A_Front_Fanpath44"
           clip-rule="evenodd"
           fill="#333"
           fill-rule="evenodd" /><path
           class="N540X-16Z4G8Q2C-A_Front_Fanst4"
           d="M121.6 23.4s-.9-.2-1.3-.2c-.9 0-1.1.2-1.1.4 0 .4.4.7.7.7l.4.2c1.3.4 1.8 1.1 1.8 2 0 1.8-1.5 2.4-2.9 2.4-.9 0-1.8-.2-2-.2v-1.8c.2.2.9.4 1.8.4s1.3-.4 1.3-.7c0-.4-.4-.7-.9-.7 0-.2-.2-.2-.4-.2-.9-.2-1.8-.9-1.8-2 0-1.3 1.1-2.2 2.6-2.2.9 0 1.8.2 1.8.2v1.7z"
           id="N540X-16Z4G8Q2C-A_Front_Fanpath46"
           clip-rule="evenodd"
           fill="#333"
           fill-rule="evenodd" /><path
           class="N540X-16Z4G8Q2C-A_Front_Fanst4"
           d="M103.6 14.2c0-.4-.4-.9-.9-.9s-.9.4-.9.9v2c0 .4.4.9.9.9s.9-.4.9-.9v-2z"
           id="N540X-16Z4G8Q2C-A_Front_Fanpath48"
           clip-rule="evenodd"
           fill="#333"
           fill-rule="evenodd" /><path
           class="N540X-16Z4G8Q2C-A_Front_Fanst4"
           d="M108.4 11.8c0-.4-.4-.9-.9-.9-.7 0-.9.4-.9.9v4.4c0 .4.2.9.9.9.4 0 .9-.4.9-.9z"
           id="N540X-16Z4G8Q2C-A_Front_Fanpath50"
           clip-rule="evenodd"
           fill="#333"
           fill-rule="evenodd" /><path
           class="N540X-16Z4G8Q2C-A_Front_Fanst4"
           d="M113 8.5c0-.4-.2-.9-.9-.9-.4 0-.9.4-.9.9V18c0 .4.4.7.9.7.7 0 .9-.2.9-.7z"
           id="N540X-16Z4G8Q2C-A_Front_Fanpath52"
           clip-rule="evenodd"
           fill="#333"
           fill-rule="evenodd" /><path
           class="N540X-16Z4G8Q2C-A_Front_Fanst4"
           d="M117.9 11.8c0-.4-.4-.9-.9-.9s-.9.4-.9.9v4.4c0 .4.4.9.9.9s.9-.4.9-.9z"
           id="N540X-16Z4G8Q2C-A_Front_Fanpath54"
           clip-rule="evenodd"
           fill="#333"
           fill-rule="evenodd" /><path
           class="N540X-16Z4G8Q2C-A_Front_Fanst4"
           d="M122.7 14.2c0-.4-.4-.9-.9-.9-.4 0-.9.4-.9.9v2c0 .4.4.9.9.9.4 0 .9-.4.9-.9z"
           id="N540X-16Z4G8Q2C-A_Front_Fanpath56"
           clip-rule="evenodd"
           fill="#333"
           fill-rule="evenodd" /><path
           class="N540X-16Z4G8Q2C-A_Front_Fanst4"
           d="M127.5 11.8c0-.4-.4-.9-.9-.9-.4 0-.9.4-.9.9v4.4c0 .4.4.9.9.9.4 0 .9-.4.9-.9z"
           id="N540X-16Z4G8Q2C-A_Front_Fanpath58"
           clip-rule="evenodd"
           fill="#333"
           fill-rule="evenodd" /><path
           class="N540X-16Z4G8Q2C-A_Front_Fanst4"
           d="M132.4 8.5c0-.4-.4-.9-.9-.9s-.9.4-.9.9V18c0 .4.4.7.9.7s.9-.2.9-.7V8.5z"
           id="N540X-16Z4G8Q2C-A_Front_Fanpath60"
           clip-rule="evenodd"
           fill="#333"
           fill-rule="evenodd" /><path
           class="N540X-16Z4G8Q2C-A_Front_Fanst4"
           d="M137.2 11.8c0-.4-.4-.9-.9-.9-.7 0-.9.4-.9.9v4.4c0 .4.2.9.9.9.4 0 .9-.4.9-.9z"
           id="N540X-16Z4G8Q2C-A_Front_Fanpath62"
           clip-rule="evenodd"
           fill="#333"
           fill-rule="evenodd" /><path
           class="N540X-16Z4G8Q2C-A_Front_Fanst4"
           d="M141.8 14.2c0-.4-.2-.9-.9-.9-.4 0-.9.4-.9.9v2c0 .4.4.9.9.9.7 0 .9-.4.9-.9z"
           id="N540X-16Z4G8Q2C-A_Front_Fanpath64"
           clip-rule="evenodd"
           fill="#333"
           fill-rule="evenodd" /></g><g
         id="N540X-16Z4G8Q2C-A_Front_Fang72"><path
           class="N540X-16Z4G8Q2C-A_Front_Fanst5"
           d="M38.5 139h-1c-5.8 0-10.5-4.7-10.5-10.5v-99C27 23.7 31.7 19 37.5 19h1C44.3 19 49 23.7 49 29.5v99c0 5.8-4.7 10.5-10.5 10.5z"
           id="N540X-16Z4G8Q2C-A_Front_Fanpath68"
           fill="#333" /><path
           class="N540X-16Z4G8Q2C-A_Front_Fanst2"
           d="M38.5 21c4.7 0 8.5 3.8 8.5 8.5v99c0 4.7-3.8 8.5-8.5 8.5h-1c-4.7 0-8.5-3.8-8.5-8.5v-99c0-4.7 3.8-8.5 8.5-8.5h1m0-2h-1C31.7 19 27 23.7 27 29.5v99c0 5.8 4.7 10.5 10.5 10.5h1c5.8 0 10.5-4.7 10.5-10.5v-99C49 23.7 44.3 19 38.5 19z"
           id="N540X-16Z4G8Q2C-A_Front_Fanpath70"
           fill="#ccc" /></g></g><g
       id="N540X-16Z4G8Q2C-A_Front_Fang82"><path
         d="M7.1 29.5v-5.9H5v-1.2h5.7v1.2H8.6v5.9z"
         id="N540X-16Z4G8Q2C-A_Front_Fanpath76" /><path
         d="M11.4 26c0-.7.1-1.3.3-1.8.2-.4.4-.7.7-1 .3-.3.6-.5.9-.6.4-.2 1-.3 1.5-.3 1.1 0 1.9.3 2.5 1 .6.7.9 1.6.9 2.7 0 1.2-.3 2.1-.9 2.7-.6.6-1.5 1-2.5 1-1.1 0-1.9-.3-2.5-1-.6-.7-.9-1.6-.9-2.7zm1.5-.1c0 .8.2 1.4.6 1.8.4.4.8.6 1.4.6.6 0 1-.2 1.4-.6.4-.4.6-1 .6-1.9 0-.8-.2-1.4-.5-1.8-.3-.4-.8-.6-1.4-.6-.6 0-1.1.2-1.4.6-.3.4-.7 1.1-.7 1.9z"
         id="N540X-16Z4G8Q2C-A_Front_Fanpath78" /><path
         d="M19.7 29.5v-7.2H22c.9 0 1.5 0 1.7.1.4.1.8.3 1 .7.2.4.4.8.4 1.4 0 .4-.1.8-.2 1.1-.1.3-.4.5-.6.7-.2.2-.5.3-.7.3-.3.1-.8.1-1.5.1h-.9v2.7h-1.5zm1.4-5.9v2h.8c.6 0 1 0 1.1-.1.1-.1.3-.2.5-.4s.2-.3.2-.6-.1-.5-.2-.6c-.1-.1-.3-.3-.6-.3h-1z"
         id="N540X-16Z4G8Q2C-A_Front_Fanpath80" /></g><g
       id="N540X-16Z4G8Q2C-A_Front_Fang90"><path
         class="N540X-16Z4G8Q2C-A_Front_Fanst5"
         id="N540X-16Z4G8Q2C-A_Front_Fanrect84"
         fill="#333"
         d="M14 9.2h3V18h-3z" /><g
         id="N540X-16Z4G8Q2C-A_Front_Fang88"><path
           class="N540X-16Z4G8Q2C-A_Front_Fanst5"
           id="N540X-16Z4G8Q2C-A_Front_Fanpolygon86"
           fill="#333"
           d="M15.5 6l3.6 3.6h-7.2z" /></g></g></g><text
     xml:space="preserve"
     style="font-style:normal;font-weight:normal;font-size:40px;line-height:1.25;font-family:sans-serif;fill:#000000;fill-opacity:1;stroke:none"
     x="72.585472"
     y="115.46154"
     id="text57"><tspan
       sodipodi:role="line"
       id="tspan55"
       x="72.585472"
       y="115.46154" /></text></svg>
