<?xml version="1.0" encoding="UTF-8" standalone="no"?>
<!-- Generator: Adobe Illustrator 21.0.0, SVG Export Plug-In . SVG Version: 6.00 Build 0)  -->

<svg
   xmlns:dc="http://purl.org/dc/elements/1.1/"
   xmlns:cc="http://creativecommons.org/ns#"
   xmlns:rdf="http://www.w3.org/1999/02/22-rdf-syntax-ns#"
   xmlns:svg="http://www.w3.org/2000/svg"
   xmlns="http://www.w3.org/2000/svg"
   xmlns:sodipodi="http://sodipodi.sourceforge.net/DTD/sodipodi-0.dtd"
   xmlns:inkscape="http://www.inkscape.org/namespaces/inkscape"
   version="1.1"
   id="A99-RSP-TR-FILLERLayer_1"
   x="0px"
   y="0px"
   viewBox="0 0 1620 174"
   xml:space="preserve"
   inkscape:version="0.91 r13725"
   sodipodi:docname="A99-RSP-TR-FILLER.svg"
   width="1620"
   height="174"><metadata
     id="A99-RSP-TR-FILLERmetadata25"><rdf:RDF><cc:Work
         rdf:about=""><dc:format>image/svg+xml</dc:format><dc:type
           rdf:resource="http://purl.org/dc/dcmitype/StillImage" /><dc:title></dc:title></cc:Work></rdf:RDF></metadata><defs
     id="A99-RSP-TR-FILLERdefs23" /><sodipodi:namedview
     pagecolor="#ffffff"
     bordercolor="#666666"
     borderopacity="1"
     objecttolerance="10"
     gridtolerance="10"
     guidetolerance="10"
     inkscape:pageopacity="0"
     inkscape:pageshadow="2"
     inkscape:window-width="1366"
     inkscape:window-height="705"
     id="A99-RSP-TR-FILLERnamedview21"
     showgrid="false"
     inkscape:zoom="0.17777778"
     inkscape:cx="1040.625"
     inkscape:cy="87"
     inkscape:window-x="-8"
     inkscape:window-y="-8"
     inkscape:window-maximized="1"
     inkscape:current-layer="Layer_1" /><style
     type="text/css"
     id="A99-RSP-TR-FILLERstyle3">
	.A99-RSP-TR-FILLER-st0{fill:#EEEEEE;}
	.A99-RSP-TR-FILLER-st1{fill:#808080;}
	.A99-RSP-TR-FILLER-st2{fill:#BFBFBF;}
</style><g
     id="A99-RSP-TR-FILLERg5"><g
       id="A99-RSP-TR-FILLERg7"><path
         class="A99-RSP-TR-FILLER-st0"
         d="M 6,173.5 C 3,173.5 0.5,171 0.5,168 L 0.5,6 C 0.5,3 3,0.5 6,0.5 l 1608,0 c 3,0 5.5,2.5 5.5,5.5 l 0,162 c 0,3 -2.5,5.5 -5.5,5.5 l -1608,0 z"
         id="A99-RSP-TR-FILLERpath9"
         inkscape:connector-curvature="0"
         style="fill:#eeeeee" /><path
         class="A99-RSP-TR-FILLER-st1"
         d="m 1614,1 c 2.8,0 5,2.2 5,5 l 0,162 c 0,2.8 -2.2,5 -5,5 L 6,173 c -2.8,0 -5,-2.2 -5,-5 L 1,6 C 1,3.2 3.2,1 6,1 L 1614,1 M 1614,0 6,0 C 2.7,0 0,2.7 0,6 l 0,162 c 0,3.3 2.7,6 6,6 l 1608,0 c 3.3,0 6,-2.7 6,-6 l 0,-162 c 0,-3.3 -2.7,-6 -6,-6 l 0,0 z"
         id="A99-RSP-TR-FILLERpath11"
         inkscape:connector-curvature="0"
         style="fill:#808080" /></g><g
       id="A99-RSP-TR-FILLERg13"><path
         class="A99-RSP-TR-FILLER-st2"
         d="m 16,162.4 c -3,0 -5.5,-2.5 -5.5,-5.5 L 10.5,17 c 0,-3 2.5,-5.5 5.5,-5.5 l 1588,0 c 3,0 5.5,2.5 5.5,5.5 l 0,139.9 c 0,3 -2.5,5.5 -5.5,5.5 l -1588,0 z"
         id="A99-RSP-TR-FILLERpath15"
         inkscape:connector-curvature="0"
         style="fill:#bfbfbf" /><g
         id="A99-RSP-TR-FILLERg17"><path
           class="A99-RSP-TR-FILLER-st1"
           d="m 1604,12 c 2.8,0 5,2.2 5,5 l 0,139.9 c 0,2.8 -2.2,5 -5,5 l -1588,0 c -2.8,0 -5,-2.2 -5,-5 L 11,17 c 0,-2.8 2.2,-5 5,-5 l 1588,0 m 0,-1 -1588,0 c -3.3,0 -6,2.7 -6,6 l 0,139.9 c 0,3.3 2.7,6 6,6 l 1588,0 c 3.3,0 6,-2.7 6,-6 L 1610,17 c 0,-3.3 -2.7,-6 -6,-6 l 0,0 z"
           id="A99-RSP-TR-FILLERpath19"
           inkscape:connector-curvature="0"
           style="fill:#808080" /></g></g></g></svg>