<?xml version="1.0" encoding="UTF-8" standalone="no"?>
<!-- Generator: Adobe Illustrator 22.1.0, SVG Export Plug-In . SVG Version: 6.00 Build 0)  -->

<svg
   xmlns:dc="http://purl.org/dc/elements/1.1/"
   xmlns:cc="http://creativecommons.org/ns#"
   xmlns:rdf="http://www.w3.org/1999/02/22-rdf-syntax-ns#"
   xmlns:svg="http://www.w3.org/2000/svg"
   xmlns="http://www.w3.org/2000/svg"
   xmlns:sodipodi="http://sodipodi.sourceforge.net/DTD/sodipodi-0.dtd"
   xmlns:inkscape="http://www.inkscape.org/namespaces/inkscape"
   version="1.1"
   id="NC55-1200W-ACFW-PWR-FILLERLayer_1"
   x="0px"
   y="0px"
   viewBox="0 0 364 154"
   xml:space="preserve"
   sodipodi:docname="NC55-1200W-ACFW-PWR-FILLER.svg"
   width="364"
   height="154"
   inkscape:version="0.92.3 (2405546, 2018-03-11)"><metadata
   id="NC55-1200W-ACFW-PWR-FILLERmetadata23"><rdf:RDF><cc:Work
       rdf:about=""><dc:format>image/svg+xml</dc:format><dc:type
         rdf:resource="http://purl.org/dc/dcmitype/StillImage" /><dc:title></dc:title></cc:Work></rdf:RDF></metadata><defs
   id="NC55-1200W-ACFW-PWR-FILLERdefs21" /><sodipodi:namedview
   pagecolor="#ffffff"
   bordercolor="#666666"
   borderopacity="1"
   objecttolerance="10"
   gridtolerance="10"
   guidetolerance="10"
   inkscape:pageopacity="0"
   inkscape:pageshadow="2"
   inkscape:window-width="732"
   inkscape:window-height="480"
   id="NC55-1200W-ACFW-PWR-FILLERnamedview19"
   showgrid="false"
   inkscape:zoom="0.78021978"
   inkscape:cx="182"
   inkscape:cy="77"
   inkscape:window-x="0"
   inkscape:window-y="0"
   inkscape:window-maximized="0"
   inkscape:current-layer="Layer_1" />
<style
   type="text/css"
   id="NC55-1200W-ACFW-PWR-FILLERstyle2">
	.NC55-1200W-ACFW-PWR-FILLERst0{fill:#EEEEEE;}
	.NC55-1200W-ACFW-PWR-FILLERst1{fill:#808080;}
	.NC55-1200W-ACFW-PWR-FILLERst2{fill:#BFBFBF;}
</style>
<g
   id="NC55-1200W-ACFW-PWR-FILLERg16">
	<g
   id="NC55-1200W-ACFW-PWR-FILLERg8">
		<path
   class="NC55-1200W-ACFW-PWR-FILLERst0"
   d="m 363.5,137.1 c 0,9 -7.4,16.4 -16.4,16.4 H 16.9 c -9,0 -16.4,-7.4 -16.4,-16.4 V 16.9 C 0.5,7.9 7.9,0.5 16.9,0.5 h 330.2 c 9,0 16.4,7.4 16.4,16.4 z"
   id="NC55-1200W-ACFW-PWR-FILLERpath4"
   inkscape:connector-curvature="0"
   style="fill:#eeeeee" />
		<path
   class="NC55-1200W-ACFW-PWR-FILLERst1"
   d="M 1,16.9 C 1,8.1 8.1,1 16.9,1 h 330.2 c 8.8,0 15.9,7.1 15.9,15.9 v 120.2 c 0,8.8 -7.1,15.9 -15.9,15.9 H 16.9 C 8.1,153 1,145.9 1,137.1 V 16.9 m -1,0 v 120.2 c 0,9.3 7.6,16.9 16.9,16.9 h 330.2 c 9.3,0 16.9,-7.6 16.9,-16.9 V 16.9 C 364,7.6 356.4,0 347.1,0 H 16.9 C 7.6,0 0,7.6 0,16.9 Z"
   id="NC55-1200W-ACFW-PWR-FILLERpath6"
   inkscape:connector-curvature="0"
   style="fill:#808080" />
	</g>
	<g
   id="NC55-1200W-ACFW-PWR-FILLERg14">
		<path
   class="NC55-1200W-ACFW-PWR-FILLERst2"
   d="m 350.6,126.3 c 0,8.7 -7.1,15.7 -15.7,15.7 H 29.1 c -8.7,0 -15.7,-7.1 -15.7,-15.7 V 27.6 c 0,-8.7 7.1,-15.7 15.7,-15.7 h 305.8 c 8.7,0 15.7,7.1 15.7,15.7 z"
   id="NC55-1200W-ACFW-PWR-FILLERpath10"
   inkscape:connector-curvature="0"
   style="fill:#bfbfbf" />
		<path
   class="NC55-1200W-ACFW-PWR-FILLERst1"
   d="m 13.9,27.7 c 0,-8.4 6.8,-15.2 15.2,-15.2 h 305.8 c 8.4,0 15.2,6.8 15.2,15.2 v 98.6 c 0,8.4 -6.8,15.2 -15.2,15.2 H 29.1 c -8.4,0 -15.2,-6.8 -15.2,-15.2 V 27.7 m -1,0 v 98.6 c 0,8.9 7.3,16.2 16.2,16.2 h 305.8 c 8.9,0 16.2,-7.3 16.2,-16.2 V 27.6 c 0,-8.9 -7.3,-16.2 -16.2,-16.2 H 29.1 c -8.9,0.1 -16.2,7.4 -16.2,16.3 z"
   id="NC55-1200W-ACFW-PWR-FILLERpath12"
   inkscape:connector-curvature="0"
   style="fill:#808080" />
	</g>
</g>
</svg>