<?xml version="1.0" encoding="UTF-8" standalone="no"?>
<svg
   xmlns:dc="http://purl.org/dc/elements/1.1/"
   xmlns:cc="http://creativecommons.org/ns#"
   xmlns:rdf="http://www.w3.org/1999/02/22-rdf-syntax-ns#"
   xmlns:svg="http://www.w3.org/2000/svg"
   xmlns="http://www.w3.org/2000/svg"
   xmlns:sodipodi="http://sodipodi.sourceforge.net/DTD/sodipodi-0.dtd"
   xmlns:inkscape="http://www.inkscape.org/namespaces/inkscape"
   version="1.1"
   id="NC55-SCLayer_1"
   x="0"
   y="0"
   viewBox="0 0 660 138"
   xml:space="preserve"
   width="660"
   height="138"
   sodipodi:docname="NC55-SC.svg"
   inkscape:version="1.0.1 (3bc2e813f5, 2020-09-07)"><metadata
     id="metadata114"><rdf:RDF><cc:Work
         rdf:about=""><dc:format>image/svg+xml</dc:format><dc:type
           rdf:resource="http://purl.org/dc/dcmitype/StillImage" /></cc:Work></rdf:RDF></metadata><defs
     id="defs112" /><sodipodi:namedview
     pagecolor="#ffffff"
     bordercolor="#666666"
     borderopacity="1"
     objecttolerance="10"
     gridtolerance="10"
     guidetolerance="10"
     inkscape:pageopacity="0"
     inkscape:pageshadow="2"
     inkscape:window-width="1280"
     inkscape:window-height="658"
     id="namedview110"
     showgrid="false"
     inkscape:zoom="1.5787879"
     inkscape:cx="330"
     inkscape:cy="69"
     inkscape:window-x="-6"
     inkscape:window-y="-6"
     inkscape:window-maximized="1"
     inkscape:current-layer="NC55-SCLayer_1" /><style
     type="text/css"
     id="NC55-SCstyle3">.NC55-SCst1{fill:#666}.NC55-SCst3,.NC55-SCst4{fill-rule:evenodd;clip-rule:evenodd;fill:#bfbfbf}.NC55-SCst4{fill:#999}.NC55-SCst6{fill:#333}.NC55-SCst7{fill:#e6e6e6}.NC55-SCst8{fill:#d9d9d9}.NC55-SCst9{fill:#323232}.NC55-SCst10{fill:#d9d9d9;stroke:#4d4d4d;stroke-width:1.8154;stroke-miterlimit:10}.NC55-SCst11,.NC55-SCst12{fill-rule:evenodd;clip-rule:evenodd;fill:#c41230}.NC55-SCst12{fill:#005568}.NC55-SCst16{fill:none;stroke:#a6a6a6;stroke-width:.7822;stroke-linecap:round;stroke-linejoin:round;stroke-miterlimit:10}.NC55-SCst17{fill-rule:evenodd;clip-rule:evenodd;fill:#262626}</style><g
     id="NC55-SCg5"><path
       id="NC55-SCrect7"
       clip-rule="evenodd"
       fill="#e6e6e6"
       fill-rule="evenodd"
       d="M67.5.5H586v8.3H67.5z" /><path
       class="NC55-SCst1"
       d="M585.5 1v7.3H68V1h517.5m1-1H67v9.3h519.5V0z"
       id="NC55-SCpath9"
       fill="#666" /></g><g
     id="NC55-SCg11"><path
       d="M69.3 137.5v-11h-63c-2.7 0-5.8-2-5.8-5V76.9c0-2.9 2.9-5.8 5.8-5.8h3.9c4 0 6.8-2.4 6.8-6V14.3c0-2.8 2.2-5.8 5.8-5.8h631.1c2.9 0 5.8 2.9 5.8 5.8v47c0 2.9-2.9 5.8-5.8 5.8h-5.5c-3.3 0-6.8 2.4-6.8 6v39.2c0 2.8-2.1 5-5 5h-67v20.3H69.3z"
       id="NC55-SCpath13"
       fill="#bfbfbf" /><path
       class="NC55-SCst1"
       d="M653.7 9c2.6 0 5.3 2.7 5.3 5.3v47c0 2.6-2.7 5.3-5.3 5.3h-5.5c-3.5 0-7.3 2.6-7.3 6.5v39.2c0 2.6-1.9 4.5-4.5 4.5H569V137H69.8v-11H6.3c-2.5 0-5.3-1.8-5.3-4.5V76.9c0-2.6 2.7-5.3 5.3-5.3h3.9c4.3 0 7.3-2.7 7.3-6.5V14.3c0-2.6 1.8-5.3 5.3-5.3h630.9m0-1h-631c-3.9 0-6.3 3.1-6.3 6.3v50.8c0 3.1-2.3 5.5-6.3 5.5H6.3c-3.1 0-6.3 3.1-6.3 6.3v44.7c0 3.1 3.1 5.5 6.3 5.5h62.6v11H570v-20.3h66.5c3.1 0 5.5-2.4 5.5-5.5V73c0-3.1 3.1-5.5 6.3-5.5h5.5c3.1 0 6.3-3.1 6.3-6.3v-47c-.1-3.1-3.2-6.2-6.4-6.2z"
       id="NC55-SCpath15"
       fill="#666" /></g><g
     id="NC55-SCg17"><path
       class="NC55-SCst3"
       id="NC55-SCrect19"
       clip-rule="evenodd"
       fill="#bfbfbf"
       fill-rule="evenodd"
       d="M570.5 134.5h29v3h-29z" /><path
       class="NC55-SCst1"
       d="M599 135v2h-28v-2h28m1-1h-30v4h30v-4z"
       id="NC55-SCpath21"
       fill="#666" /></g><g
     id="NC55-SCg23"><path
       class="NC55-SCst4"
       id="NC55-SCrect25"
       clip-rule="evenodd"
       fill="#999"
       fill-rule="evenodd"
       d="M57.7 9.2h5v117h-5z" /><path
       class="NC55-SCst1"
       d="M62.2 9.7v116h-4V9.7h4m1-1h-6v118h6V8.7z"
       id="NC55-SCpath27"
       fill="#666" /></g><g
     id="NC55-SCg29"><path
       class="NC55-SCst4"
       id="NC55-SCrect31"
       clip-rule="evenodd"
       fill="#999"
       fill-rule="evenodd"
       d="M595.5 9.2h5v108h-5z" /><path
       class="NC55-SCst1"
       d="M600 9.7v107.1h-4.1V9.7h4.1m1-1h-6v109h6V8.7z"
       id="NC55-SCpath33"
       fill="#666" /></g><g
     id="NC55-SCg37"><circle
       class="NC55-SCst6"
       cx="136.5"
       cy="53.2"
       r="4.5"
       id="NC55-SCcircle39"
       fill="#333" /><path
       class="NC55-SCst7"
       d="M136.5 49.2c2.2 0 4 1.8 4 4s-1.8 4-4 4-4-1.8-4-4 1.8-4 4-4m0-1c-2.8 0-5 2.2-5 5s2.2 5 5 5 5-2.2 5-5-2.3-5-5-5z"
       id="NC55-SCpath41"
       fill="#e6e6e6" /></g><g
     id="NC55-SCg43"><circle
       class="NC55-SCst6"
       cx="137"
       cy="68.7"
       r="4.5"
       id="NC55-SCcircle45"
       fill="#333" /><path
       class="NC55-SCst7"
       d="M137 64.7c2.2 0 4 1.8 4 4s-1.8 4-4 4-4-1.8-4-4 1.8-4 4-4m0-1c-2.8 0-5 2.2-5 5s2.2 5 5 5 5-2.2 5-5-2.3-5-5-5z"
       id="NC55-SCpath47"
       fill="#e6e6e6" /></g><g
     id="NC55-SCg49"><circle
       class="NC55-SCst6"
       cx="137"
       cy="85.7"
       r="4.5"
       id="NC55-SCcircle51"
       fill="#333" /><path
       class="NC55-SCst7"
       d="M137 81.7c2.2 0 4 1.8 4 4s-1.8 4-4 4-4-1.8-4-4 1.8-4 4-4m0-1c-2.8 0-5 2.2-5 5s2.2 5 5 5 5-2.2 5-5-2.3-5-5-5z"
       id="NC55-SCpath53"
       fill="#e6e6e6" /></g><g
     id="NC55-SCg55"><path
       d="M102.9 50.4c.4-.1 1.2-.2 2-.2 1 0 1.6.1 2.1.5.5.3.8.8.8 1.4 0 .7-.4 1.3-1.2 1.6.8.2 1.5.8 1.5 1.8 0 .7-.3 1.2-.7 1.5-.5.5-1.4.7-2.8.7-.7 0-1.3-.1-1.7-.1v-7.2zm1.4 2.9h.7c.9 0 1.5-.4 1.5-1.1 0-.7-.5-1-1.4-1-.4 0-.6 0-.8.1v2zm0 3.4h.7c.9 0 1.6-.3 1.6-1.2 0-.9-.7-1.2-1.7-1.2h-.7v2.4z"
       id="NC55-SCpath57" /><path
       d="M115.1 57.5c-.3.2-1 .3-1.9.3-2.4 0-3.8-1.5-3.8-3.7 0-2.4 1.7-3.9 4-3.9.9 0 1.5.2 1.8.3l-.3 1.1c-.4-.2-.8-.3-1.5-.3-1.5 0-2.6.9-2.6 2.7 0 1.6 1 2.7 2.6 2.7.6 0 1.1-.1 1.5-.3l.2 1.1z"
       id="NC55-SCpath59" /><path
       d="M116.8 57.7v-7.4h1.5l1.9 3.2c.5.8.9 1.7 1.3 2.5-.1-1-.1-1.9-.1-3.1v-2.6h1.3v7.4h-1.4l-1.9-3.3c-.5-.8-1-1.7-1.3-2.6.1 1 .1 1.9.1 3.2v2.7h-1.4z"
       id="NC55-SCpath61" /></g><g
     id="NC55-SCg63"><path
       d="M106 72.2c.4.3 1.1.5 1.8.5.9 0 1.4-.4 1.4-1s-.4-.9-1.3-1.2c-1.2-.4-2-1.1-2-2.2 0-1.2 1-2.1 2.6-2.1.8 0 1.4.2 1.8.4l-.3 1.1c-.3-.1-.8-.4-1.5-.4-.9 0-1.2.5-1.2.9 0 .6.4.8 1.4 1.2 1.3.5 1.9 1.1 1.9 2.2 0 1.2-.9 2.2-2.8 2.2-.8 0-1.6-.2-2-.5l.2-1.1z"
       id="NC55-SCpath65" /><path
       d="M113.7 67.4h-2.1v-1.1h5.6v1.1h-2.1v6.3h-1.4v-6.3z"
       id="NC55-SCpath67" /><path
       d="M118.5 72.2c.4.3 1.1.5 1.8.5.9 0 1.4-.4 1.4-1s-.4-.9-1.3-1.2c-1.2-.4-2-1.1-2-2.2 0-1.2 1-2.1 2.6-2.1.8 0 1.4.2 1.8.4l-.3 1.1c-.3-.1-.8-.4-1.5-.4-.9 0-1.2.5-1.2.9 0 .6.4.8 1.4 1.2 1.3.5 1.9 1.1 1.9 2.2 0 1.2-.9 2.2-2.8 2.2-.8 0-1.6-.2-2-.5l.2-1.1z"
       id="NC55-SCpath69" /></g><g
     id="NC55-SCg71"><path
       d="M105.4 88.6l-.6 2.1h-1.4l2.4-7.4h1.7l2.4 7.4h-1.5l-.7-2.1h-2.3zm2.1-1l-.6-1.8c-.1-.5-.3-1-.4-1.4-.1.4-.2.9-.4 1.4l-.6 1.8h2z"
       id="NC55-SCpath73" /><path
       d="M116.6 90.5c-.3.2-1 .3-1.9.3-2.4 0-3.8-1.5-3.8-3.7 0-2.4 1.7-3.9 4-3.9.9 0 1.5.2 1.8.3l-.3 1.1c-.4-.2-.8-.3-1.5-.3-1.5 0-2.6.9-2.6 2.7 0 1.6 1 2.7 2.6 2.7.5 0 1.1-.1 1.5-.3l.2 1.1z"
       id="NC55-SCpath75" /><path
       d="M119.9 84.4h-2.1v-1.1h5.6v1.1h-2.1v6.3h-1.4v-6.3z"
       id="NC55-SCpath77" /></g><g
     id="NC55-SCg79"><path
       d="M93.6 116.7v-10.8h2.2l2.8 4.6c.7 1.2 1.3 2.4 1.8 3.6-.1-1.4-.2-2.8-.2-4.5v-3.8h1.8v10.8h-2l-2.8-4.7c-.7-1.2-1.4-2.5-1.9-3.7.1 1.4.1 2.8.1 4.6v3.9h-1.8z"
       id="NC55-SCpath81" /><path
       d="M112.2 116.4c-.5.2-1.5.5-2.8.5-3.4 0-5.5-2.1-5.5-5.4 0-3.6 2.5-5.7 5.8-5.7 1.3 0 2.2.3 2.6.5l-.4 1.6c-.5-.2-1.2-.4-2.1-.4-2.2 0-3.8 1.4-3.8 4 0 2.4 1.4 3.9 3.8 3.9.8 0 1.6-.2 2.1-.4l.3 1.4z"
       id="NC55-SCpath83" /><path
       d="M120 107.9h-4l-.3 2.1h.8c.9 0 1.8.2 2.5.7.8.5 1.4 1.4 1.4 2.6 0 2-1.6 3.6-4.2 3.6-1.2 0-2.2-.3-2.8-.6l.4-1.5c.4.2 1.3.5 2.3.5 1.2 0 2.3-.7 2.3-1.9s-.9-2-3-2c-.6 0-1 0-1.4.1l.7-5.2h5.4v1.6z"
       id="NC55-SCpath85" /><path
       d="M128.6 107.9h-4l-.3 2.1h.8c.9 0 1.8.2 2.5.7.8.5 1.4 1.4 1.4 2.6 0 2-1.6 3.6-4.2 3.6-1.2 0-2.2-.3-2.8-.6l.4-1.5c.4.2 1.3.5 2.3.5 1.2 0 2.3-.7 2.3-1.9s-.9-2-3-2c-.6 0-1 0-1.4.1l.7-5.2h5.4v1.6z"
       id="NC55-SCpath87" /><path
       d="M134.4 111.8v1.4h-4.1v-1.4h4.1z"
       id="NC55-SCpath89" /><path
       d="M136 114.6c.6.4 1.6.7 2.6.7 1.3 0 2-.6 2-1.5 0-.8-.5-1.3-1.9-1.8-1.8-.6-2.9-1.6-2.9-3.1 0-1.8 1.5-3.1 3.8-3.1 1.2 0 2 .3 2.6.5l-.5 1.6c-.4-.2-1.1-.5-2.1-.5-1.2 0-1.8.7-1.8 1.3 0 .8.6 1.2 2.1 1.8 1.9.7 2.8 1.6 2.8 3.2 0 1.7-1.3 3.2-4.1 3.2-1.1 0-2.3-.3-2.9-.7l.3-1.6z"
       id="NC55-SCpath91" /><path
       d="M152.1 116.4c-.5.2-1.5.5-2.8.5-3.4 0-5.5-2.1-5.5-5.4 0-3.6 2.5-5.7 5.8-5.7 1.3 0 2.2.3 2.6.5l-.4 1.6c-.5-.2-1.2-.4-2.1-.4-2.2 0-3.8 1.4-3.8 4 0 2.4 1.4 3.9 3.8 3.9.8 0 1.6-.2 2.1-.4l.3 1.4z"
       id="NC55-SCpath93" /></g><g
     id="NC55-SCg95"><g
       id="NC55-SCg97"><path
         class="NC55-SCst8"
         d="M30.5 118.6c-.2-.1-.4-.1-.6-.1-.2 0-.4 0-.6.1l-.6.3-.5-.3c-.2-.1-.5-.2-.8-.2-.1 0-.3 0-.4.1l-.6.2-.5-.4c-.3-.2-.6-.3-.9-.3H24.7l-.6.1-.4-.5c-.3-.3-.7-.5-1.1-.5h-.7l-.4-.5c-.2-.3-.6-.6-1-.6l-.6-.1-.3-.6c-.2-.4-.5-.6-1-.7l-.6-.1-.2-.6c-.1-.4-.5-.7-.9-.9l-.6-.2-.1-.6c-.1-.4-.4-.8-.7-1l-.6-.3-.1-.6c0-.4-.3-.8-.6-1.1l-.5-.4v-.6c0-.4-.2-.8-.5-1.1l-.5-.4.1-.6c.1-.4 0-.8-.3-1.2l-.4-.5.2-.6c.1-.4.1-.8-.2-1.2l-.3-.5.3-.6c.2-.4.2-.8 0-1.2l-.1-.5.3-.5c.2-.4.3-.8.2-1.2l-.2-.6.4-.5c.3-.3.4-.8.3-1.2l-.1-.6.5-.4c.3-.3.5-.7.5-1.1v-.6l.5-.4c.3-.2.6-.6.6-1.1l.1-.6.6-.3c.4-.2.6-.5.7-1l.1-.6.6-.2c.4-.1.7-.5.9-.9l.2-.6.6-.1c.4-.1.8-.4 1-.7l.3-.6.6-.1c.4 0 .8-.3 1.1-.6l.4-.5h.6c.5 0 .8-.2 1.1-.5l.4-.5.7.1h.2c.3 0 .7-.1.9-.3l.5-.4.6.2c.1 0 .3.1.4.1.3 0 .5-.1.8-.2l.5-.3.6.3c.2.1.4.1.6.1.2 0 .4 0 .6-.1l.6-.3.5.3c.2.1.5.2.8.2.1 0 .3 0 .4-.1l.6-.2.5.4c.3.2.6.3.9.3H35.3l.6-.1.4.5c.3.3.7.5 1.1.5h.7l.4.5c.2.3.6.6 1.1.6l.6.1.3.6c.2.4.6.6 1 .7l.6.1-.1.6c.1.4.5.7.9.9l.6.2.1.6c.1.4.4.8.7 1l.6.3.1.6c0 .4.3.8.6 1.1l.4.3v.6c0 .4.2.8.5 1.1l.5.4-.1.6c-.1.4 0 .8.3 1.2l.4.5-.2.6c-.1.4-.1.8.2 1.2l.3.5-.3.6c-.2.4-.2.8 0 1.2l.3.6-.3.5c-.2.4-.3.8-.2 1.2l.2.6-.4.5c-.3.3-.4.8-.3 1.2l.1.6-.5.4c-.3.3-.5.7-.5 1.1v.6l-.5.4c-.3.2-.6.6-.6 1.1l-.1.6-.6.3c-.4.2-.6.5-.7 1l-.1.6-.6.2c-.4.1-.7.5-.9.9l-.2.6-.6.1c-.4.1-.8.4-1 .7l-.3.6-.6.1c-.4 0-.8.3-1.1.6l-.4.5h-.6c-.5 0-.8.2-1.1.5l-.4.5-.7-.1h-.2c-.3 0-.7.1-.9.3l-.5.4-.6-.2c-.1 0-.3-.1-.4-.1-.3 0-.5.1-.8.2l-.5.3-.5-.3z"
         id="NC55-SCpath99"
         fill="#d9d9d9" /><path
         class="NC55-SCst9"
         d="M28.8 84.1c.4.2.7.3 1.1.3.4 0 .7-.1 1-.2h.2c.4.2.8.4 1.3.4.2 0 .5 0 .7-.1h.1l.1.1c.4.4 1 .6 1.6.6h.5l.1.1c.5.5 1.1.8 1.8.8h.2v.1c.4.6 1.1 1 1.8 1h.1v.1c.3.6.9 1.1 1.6 1.2h.1v.1c.2.7.8 1.2 1.5 1.5h.1v.1c.2.7.6 1.3 1.2 1.6h.1v.1c.1.7.4 1.4 1 1.8h.1v.1c0 .7.3 1.4.8 1.9l.1.1v.1c-.1.7.1 1.4.5 2l.1.1v.1c-.2.7-.1 1.4.3 2v.2c-.3.7-.3 1.4 0 2.1v.2c-.4.6-.5 1.3-.3 2v.1l-.1.1c-.5.6-.7 1.3-.5 2v.1l-.1.1c-.5.5-.8 1.2-.8 1.9v.1H45c-.6.4-1 1.1-1 1.8v.1h-.1c-.6.3-1.1.9-1.2 1.6v.1h-.1c-.7.2-1.2.8-1.5 1.5v.1H41c-.7.2-1.3.6-1.6 1.2v.1h-.1c-.7.1-1.4.4-1.8 1v.1h-.2c-.7 0-1.3.3-1.8.8l-.1.1h-.5c-.6 0-1.1.2-1.6.6l-.1.1h-.1c-.2-.1-.5-.1-.7-.1-.5 0-.9.1-1.3.4h-.2c-.3-.1-.7-.2-1-.2-.4 0-.7.1-1 .2h-.2c-.4-.2-.8-.4-1.3-.4-.2 0-.5 0-.7.1h-.1l-.1-.1c-.4-.4-1-.6-1.6-.6h-.5l-.1-.1c-.5-.5-1.1-.8-1.8-.8h-.2v-.1c-.4-.6-1.1-1-1.8-1h-.1v-.1c-.3-.6-.9-1.1-1.6-1.2h-.1v-.1c-.2-.7-.8-1.2-1.5-1.5h-.1v-.1c-.2-.7-.6-1.3-1.2-1.6h-.1v-.1c-.1-.7-.4-1.4-1-1.8h-.1v-.1c0-.7-.3-1.4-.8-1.9l-.1-.1v-.1c.1-.7-.1-1.4-.5-2l-.1-.1v-.1c.2-.7.1-1.4-.3-2v-.2c.3-.7.3-1.4 0-2.1v-.2c.4-.6.5-1.3.3-2V98l.1-.1c.5-.6.7-1.3.5-2v-.1l.1-.1c.5-.5.8-1.2.8-1.9v-.1h.1c.6-.4 1-1.1 1-1.8v-.1h.1c.6-.3 1.1-.9 1.3-1.6v-.1h.1c.7-.2 1.2-.8 1.5-1.5v-.1h.1c.7-.2 1.3-.6 1.6-1.2v-.1h.1c.7-.1 1.4-.4 1.8-1v-.1h.2c.7 0 1.3-.3 1.8-.8l.1-.1h.5c.6 0 1.1-.2 1.6-.6l.1-.1h.1c.2.1.5.1.7.1.4 0 .9-.2 1.3-.5m2.3-2.2h-.2l-.8.4h-.4l-.8-.3h-.2c-.1 0-.2 0-.2.1l-.8.5c-.1 0-.2.1-.2.1h-.1l-.9-.3h-.1c-.1 0-.2 0-.3.1l-.7.6c-.2-.1-.3-.1-.4-.1h-.1l-.9-.1h-.1c-.1 0-.2.1-.3.1l-.6.7c-.1.1-.2.1-.3.1h-.9c-.1 0-.3.1-.4.2l-.5.8c-.1.1-.2.2-.3.2h-1c-.2 0-.3.1-.4.2l-.4.8c-.1.1-.2.2-.3.2l-.9.2c-.1 0-.3.1-.3.3l-.3.9c0 .1-.1.2-.3.3l-.9.3c-.1.1-.3.2-.3.3l-.2.9c0 .1-.1.2-.2.3l-.8.4c-.1.1-.2.2-.2.4l-.1.9c0 .1-.1.3-.2.3l-.8.6c-.1.1-.2.2-.2.4v.9c0 .1 0 .3-.1.4l-.7.6c-.1.1-.2.3-.1.4l.2.9c0 .1 0 .3-.1.4l-.7.7c-.1.1-.1.3-.1.4l.3.9v.4l-.5.8c-.1.1-.1.3 0 .4l.4.8c.1.1.1.3 0 .4l-.4.9c-.1.1-.1.3 0 .4l.5.8c.1.1.1.2 0 .4l-.3.9c0 .1 0 .3.1.4l.6.7c.1.1.1.2.1.4l-.2.9c0 .2 0 .3.1.4l.7.6c.1.1.2.2.1.4v.9c0 .2.1.3.2.4l.8.5c.1.1.2.2.2.3l.1.9c0 .2.1.3.2.4l.8.4c.1.1.2.2.2.3l.2.9c0 .1.1.3.3.3l.9.3c.1 0 .2.1.3.3l.3.9c.1.1.2.3.3.3l.9.2c.1 0 .2.1.3.2l.4.8c.1.1.2.2.4.2l.9.1c.1 0 .3.1.3.2l.5.8c.1.1.2.2.4.2h.9c.1 0 .2.1.3.1l.6.7c.1.1.2.1.3.1h.1l.9-.2h.1c.1 0 .2 0 .3.1l.7.6c.1.1.2.1.3.1h.1l.9-.3h.1c.1 0 .2 0 .2.1l.8.5c.1 0 .2.1.2.1h.2l.8-.4h.4l.8.4h.2c.1 0 .2 0 .2-.1l.8-.5c.1 0 .2-.1.2-.1h.1l.9.3h.1c.1 0 .2 0 .3-.1l.7-.6c.1-.1.2-.1.3-.1h.1l.9.2h.1c.1 0 .2-.1.3-.1l.6-.7c.1-.1.2-.1.3-.1h.9c.1 0 .3-.1.4-.2l.5-.8c.1-.1.2-.2.3-.2l.9-.1c.2 0 .3-.1.4-.2l.4-.8c.1-.1.2-.2.3-.2l.9-.2c.1 0 .3-.1.3-.3l.3-.9c0-.1.1-.2.3-.3l.9-.3c.1-.1.3-.2.3-.3l.2-.9c0-.1.1-.2.2-.3l.8-.4c.1-.1.2-.2.2-.4l.1-.9c0-.1.1-.3.2-.3l.8-.5c.1-.1.2-.2.2-.4v-.9c0-.1 0-.3.1-.4l.7-.6c.1-.1.2-.3.1-.4l-.2-.9c0-.1 0-.3.1-.4l.6-.7c.1-.1.1-.3.1-.4l-.3-.9v-.4l.5-.8c.1-.1.1-.3 0-.4l-.4-.8c-.1-.1-.1-.3 0-.4l.4-.8c.1-.1.1-.3 0-.4l-.5-.8c-.1-.1-.1-.2 0-.4l.3-.9c0-.1 0-.3-.1-.4l-.6-.7c-.1-.1-.1-.2-.1-.4l.8-1c0-.2 0-.3-.1-.4l-.7-.6c-.1-.1-.2-.2-.1-.4v-.9c0-.2-.1-.3-.2-.4l-.8-.5c-.1-.1-.2-.2-.2-.3l-.1-.9c0-.2-.1-.3-.2-.4l-.8-.4c-.1-.1-.2-.2-.2-.3l-.2-.9c0-.1-.1-.3-.3-.3l-.9-.3c-.1 0-.2-.1-.3-.3l-.3-.9c-.1-.1-.2-.3-.3-.3l-.9-.2c-.1 0-.2-.1-.3-.2l-.4-.8c-.1-.1-.2-.2-.4-.2l-.9-.1c-.1 0-.3-.1-.3-.2l-.6-.8c-.1-.1-.2-.2-.4-.2h-.9c-.1 0-.2-.1-.3-.1l-.7-.7c-.1-.1-.2-.1-.3-.1h-.1l-.9.1h-.1c-.1 0-.2 0-.3-.1l-.7-.6c-.1-.1-.2-.1-.3-.1h-.1l-.9.3h-.1c-.1 0-.2 0-.2-.1l-.8-.4c-.1 0-.2-.1-.3-.1z"
         id="NC55-SCpath101"
         fill="#323232" /></g><g
       id="NC55-SCg103"><circle
         transform="rotate(-45.001 29.926 100.93)"
         class="NC55-SCst8"
         cx="29.9"
         cy="100.9"
         id="NC55-SCellipse105"
         r="17"
         fill="#d9d9d9" /></g><g
       id="NC55-SCg107"><path
         class="NC55-SCst10"
         id="NC55-SCpolygon109"
         fill="#d9d9d9"
         stroke="#4d4d4d"
         stroke-width="1.815"
         stroke-miterlimit="10"
         d="M19.7 94.5l6.4 6.4-10.3 10.3 3.9 3.9 10.2-10.3 6.4 6.4 3.9-3.9-6.4-6.4L44 90.7l-3.8-3.9-10.3 10.3-6.4-6.4z" /><g
         id="NC55-SCg111"><g
           id="NC55-SCg113"><path
             transform="rotate(-45.001 30.568 100.289)"
             class="NC55-SCst1"
             id="NC55-SCrect115"
             fill="#666"
             d="M18.8 96.7h23.6v7.3H18.8z" /></g><g
           id="NC55-SCg117"><path
             transform="rotate(-45.001 29.926 100.93)"
             class="NC55-SCst1"
             id="NC55-SCrect119"
             fill="#666"
             d="M26.3 88.2h7.3v25.4h-7.3z" /></g></g></g></g><g
     id="NC55-SCg121"><g
       id="NC55-SCg123"><path
         class="NC55-SCst8"
         d="M627.3 53.3c-.2-.1-.5-.2-.8-.2-.1 0-.3 0-.4.1l-.6.2-.5-.4c-.3-.2-.6-.3-.9-.3H623.8l-.6.1-.4-.5c-.3-.3-.7-.5-1.1-.5h-.7l-.4-.5c-.2-.3-.6-.6-1.1-.6l-.6-.1-.3-.6c-.2-.4-.5-.6-1-.7l-.6-.1-.2-.6c-.1-.4-.5-.7-.9-.9l-.6-.2-.1-.6c-.1-.4-.4-.8-.7-1l-.6-.3-.1-.6c0-.4-.3-.8-.6-1.1l-.5-.4v-.6c0-.4-.2-.8-.5-1.1l-.5-.4.1-.6c.1-.4 0-.9-.3-1.2l-.4-.5.2-.6c.1-.4.1-.8-.2-1.2l-.3-.5.3-.6c.2-.4.2-.8 0-1.2l-.3-.6.3-.5c.2-.4.3-.8.2-1.2l-.2-.6.4-.5c.3-.3.4-.8.3-1.2l-.1-.6.5-.4c.3-.3.5-.7.5-1.1v-.6l.5-.4c.3-.2.6-.6.6-1l.1-.6.6-.3c.4-.2.6-.5.7-1l.1-.6.6-.2c.4-.1.7-.5.9-.9l.2-.6.6-.1c.4-.1.8-.4 1-.7l.3-.5.6-.1c.4 0 .8-.3 1.1-.6l.4-.5h.6c.5 0 .8-.2 1.1-.5l.4-.5.7.1h.2c.3 0 .7-.1.9-.3l.5-.4.6.2c.1 0 .3.1.4.1.3 0 .5-.1.8-.2l.5-.3.6.3c.2.1.4.1.6.1.2 0 .4 0 .6-.1l.6-.3.5.3c.2.1.5.2.8.2.1 0 .3 0 .4-.1l.6-.2.5.4c.3.2.6.3.9.3H634.1l.6-.1.4.5c.3.3.7.5 1.1.5h.7l.4.5c.2.3.6.6 1.1.6l.6.1.3.6c.2.4.5.6 1 .7l.6.1.2.6c.1.4.5.7.9.9l.6.2.1.6c.1.4.4.8.7 1l.6.3.1.6c0 .4.3.8.6 1.1l.5.4v.6c0 .4.2.8.5 1.1l.5.4-.1.6c-.1.4 0 .8.3 1.2l.4.5-.2.6c-.1.4-.1.9.2 1.2l.3.5-.3.6c-.2.4-.2.8 0 1.2l.3.6-.3.5c-.2.4-.3.8-.2 1.2l.2.6-.4.5c-.3.3-.4.8-.3 1.2l.1.6-.5.4c-.3.3-.5.7-.5 1.1v.6l-.5.4c-.3.2-.6.6-.6 1.1l-.1.6-.6.3c-.4.2-.6.5-.7 1l-.1.6-.6.2c-.4.1-.7.5-.9.9l-.2.6-.6.1c-.4.1-.8.4-1 .7l-.3.5-.6.1c-.4 0-.8.3-1.1.6l-.4.5h-.6c-.5 0-.8.2-1.1.5l-.4.5-.7-.1h-.2c-.3 0-.7.1-.9.3l-.5.4-.6-.2c-.1 0-.3-.1-.4-.1-.3 0-.5.1-.8.2l-.5.3-.6-.3c-.2-.1-.4-.1-.6-.1-.2 0-.4 0-.6.1l-.6.3-.5-.4z"
         id="NC55-SCpath125"
         fill="#d9d9d9" /><path
         class="NC55-SCst9"
         d="M627.9 18.9c.4.2.7.3 1.1.3.4 0 .7-.1 1-.2h.2c.4.2.8.4 1.3.4.2 0 .5 0 .7-.1h.1l.1.1c.4.4 1 .6 1.6.6h.5l.1.1c.5.5 1.1.8 1.8.8h.2v.1c.4.6 1.1 1 1.8 1h.1v.1c.3.6.9 1.1 1.6 1.2h.1v.1c.2.7.8 1.2 1.5 1.5h.1v.1c.2.7.6 1.3 1.2 1.6h.1v.1c.1.7.4 1.4 1 1.8h.1v.1c0 .7.3 1.4.8 1.9l.1.1v.1c-.1.7.1 1.4.5 2l.1.1v.1c-.2.7-.1 1.4.3 2v.2c-.3.7-.3 1.4 0 2.1v.2c-.4.6-.5 1.3-.3 2v.1l-.1.1c-.5.6-.7 1.3-.5 2v.1l-.1.1c-.5.5-.8 1.2-.8 1.9v.1h-.1c-.6.4-1 1.1-1 1.8v.1h-.1c-.6.3-1.1.9-1.2 1.6v.1h-.1c-.7.2-1.2.8-1.5 1.5v.1h-.1c-.7.2-1.3.6-1.6 1.2v.1h-.1c-.7.1-1.4.4-1.8 1v.1h-.2c-.7 0-1.3.3-1.8.8l-.1.1h-.5c-.6 0-1.1.2-1.6.6l-.1.1h-.1c-.2-.1-.5-.1-.7-.1-.5 0-.9.1-1.3.4h-.2c-.3-.1-.7-.2-1-.2-.4 0-.7.1-1 .2h-.2c-.4-.2-.8-.4-1.3-.4-.2 0-.5 0-.7.1h-.1l-.1-.1c-.4-.4-1-.6-1.6-.6h-.5l-.1-.1c-.5-.5-1.1-.8-1.8-.8h-.2v-.1c-.4-.6-1.1-1-1.8-1h-.1v-.1c-.3-.6-.9-1.1-1.6-1.3h-.1v-.1c-.2-.7-.8-1.2-1.5-1.5h-.1v-.1c-.2-.7-.6-1.3-1.2-1.6h-.1v-.1c-.1-.7-.4-1.4-1-1.8h-.1v-.1c0-.7-.3-1.4-.8-1.9l-.1-.1v-.1c.1-.7-.1-1.4-.5-2l-.1-.1v-.1c.2-.7.1-1.4-.3-2v-.2c.3-.7.3-1.4 0-2.1v-.2c.4-.6.5-1.3.3-2v-.1l.1-.1c.5-.6.7-1.3.5-2v-.1l.1-.1c.5-.5.8-1.2.8-1.9v-.1h.1c.6-.4 1-1.1 1-1.8v-.1h.1c.6-.3 1.1-.9 1.2-1.6v-.1h.1c.7-.2 1.2-.8 1.5-1.5v-.1h.1c.7-.2 1.3-.6 1.6-1.2v-.1h.1c.7-.1 1.4-.4 1.8-1v-.1h.2c.7 0 1.3-.3 1.8-.8l.1-.1h.5c.6 0 1.1-.2 1.6-.6l.1-.1h.1c.2.1.5.1.7.1.5 0 .9-.1 1.4-.4m2.3-2.2h-.2l-.8.4h-.4l-.8-.4h-.2c-.1 0-.2 0-.2.1l-.8.5c-.1 0-.2.1-.2.1h-.1l-.9-.3h-.1c-.1 0-.2 0-.3.1l-.7.6c-.1.1-.2.1-.3.1h-.1l-.9-.2h-.1c-.1 0-.2.1-.3.1l-.6.7c-.1.1-.2.1-.3.1h-.9c-.1 0-.3.1-.4.2l-.5.8c-.1.1-.2.2-.3.2l-.9.1c-.2 0-.3.1-.4.2l-.4.8c-.1.1-.2.2-.3.2l-.9.2c-.1 0-.3.1-.3.3l-.3.9c0 .1-.1.2-.3.3l-.9.3c-.1.1-.3.2-.3.3l-.2.9c0 .1-.1.2-.2.3l-.8.4c-.1.1-.2.2-.2.4l-.1.9c0 .1-.1.3-.2.3l-.8.5c-.1.1-.2.2-.2.4v.9c0 .1 0 .3-.1.4l-.7.6c-.1.1-.2.3-.1.4l.2.9c0 .1 0 .3-.1.4l-.6.7c-.1.1-.1.3-.1.4l.3.9v.4l-.5.8c-.1.1-.1.3 0 .4l.4.8c.1.1.1.3 0 .4l-.4.8c-.1.1-.1.3 0 .4l.5.8c.1.1.1.2 0 .4l-.3.9c0 .1 0 .3.1.4l.6.7c.1.1.1.2.1.4l-.2.9c0 .2 0 .3.1.4l.7.6c.1.1.2.2.1.4v.9c0 .2.1.3.2.4l.8.5c.1.1.2.2.2.3l.1.9c0 .2.1.3.2.4l.8.4c.1.1.2.2.2.3l.2.9c0 .1.1.3.3.3l.9.3c.1 0 .2.1.3.3l.3.9c.1.1.2.3.3.3l.9.2c.1 0 .2.1.3.2l.4.8c.1.1.2.2.4.2l.9.1c.1 0 .3.1.3.2l.5.8c.1.1.2.2.4.2h.9c.1 0 .2.1.3.1l.6.7c.1.1.2.1.3.1h.1l.9-.2h.1c.1 0 .2 0 .3.1l.7.6c.1.1.2.1.3.1h.1l.9-.3h.1c.1 0 .2 0 .2.1l.8.5c.1 0 .2.1.2.1h.2l.8-.4h.4l.8.4h.2c.1 0 .2 0 .2-.1l.8-.5c.1 0 .2-.1.2-.1h.1l.9.3h.1c.1 0 .2 0 .3-.1l.7-.6c.1-.1.2-.1.3-.1h.1l.9.2h.1c.1 0 .2-.1.3-.1l.6-.7c.1-.1.2-.1.3-.1h.9c.1 0 .3-.1.4-.2l.5-.8c.1-.1.2-.2.3-.2l.9-.1c.2 0 .3-.1.4-.2l.4-.8c.1-.1.2-.2.3-.2l.9-.2c.1 0 .3-.1.3-.3l.6-.8c0-.1.1-.2.3-.3l.9-.3c.1-.1.3-.2.3-.3l.2-.9c0-.1.1-.2.2-.3l.8-.4c.1-.1.2-.2.2-.4l.1-.9c0-.1.1-.3.2-.3l.8-.5c.1-.1.2-.2.2-.4v-.9c0-.1 0-.3.1-.4l.7-.6c.1-.1.2-.3.1-.4l-.2-.9c0-.1 0-.3.1-.4l.6-.7c.1-.1.1-.3.1-.4l-.3-.9V38l.5-.8c.1-.1.1-.3 0-.4l-.4-.8c-.1-.1-.1-.3 0-.4l.4-.8c.1-.1.1-.3 0-.4l-.5-.8c-.1-.1-.1-.2 0-.4l.3-.9c0-.1 0-.3-.1-.4l-.6-.7c-.1-.1-.1-.2-.1-.4l.2-.9c0-.2 0-.3-.1-.4l-.7-.6c-.1-.1-.2-.2-.1-.4v-.9c0-.2-.1-.3-.2-.4l-.8-.5c-.1-.1-.2-.2-.2-.3l-.1-.9c0-.2-.1-.3-.2-.4l-.8-.4c-.1-.1-.2-.2-.2-.3l-.2-.9c0-.1-.1-.3-.3-.3l-.9-.3c-.1 0-.2-.1-.3-.3l-.3-.9c-.1-.1-.2-.3-.3-.3l-.9-.2c-.1 0-.2-.1-.3-.2l-.4-.8c-.1-.1-.2-.2-.4-.2l-.9-.1c-.1 0-.3-.1-.3-.2l-.5-.8c-.1-.1-.2-.2-.4-.2h-.9c-.1 0-.2-.1-.3-.1l-.6-.7c-.1-.1-.2-.1-.3-.1h-.1l-.9.2h-.1c-.1 0-.2 0-.3-.1l-.7-.6c-.1-.1-.2-.1-.3-.1h-.1l-.9.3h-.1c-.1 0-.2 0-.2-.1l-.8-.5c-.3-.2-.4-.2-.5-.2z"
         id="NC55-SCpath127"
         fill="#323232" /></g><g
       id="NC55-SCg129"><circle
         transform="rotate(-45.001 628.973 35.72)"
         class="NC55-SCst8"
         cx="629"
         cy="35.7"
         id="NC55-SCellipse131"
         r="17"
         fill="#d9d9d9" /></g><g
       id="NC55-SCg133"><path
         class="NC55-SCst10"
         id="NC55-SCpolygon135"
         fill="#d9d9d9"
         stroke="#4d4d4d"
         stroke-width="1.815"
         stroke-miterlimit="10"
         d="M618.7 29.3l6.4 6.4L614.8 46l3.9 3.8L629 39.6l6.4 6.4 3.8-3.9-6.4-6.4 10.3-10.3-3.9-3.8L629 31.9l-6.4-6.5z" /><g
         id="NC55-SCg137"><g
           id="NC55-SCg139"><path
             transform="rotate(-45.001 629.614 35.079)"
             class="NC55-SCst1"
             id="NC55-SCrect141"
             fill="#666"
             d="M617.8 31.4h23.6v7.3h-23.6z" /></g><g
           id="NC55-SCg143"><path
             transform="rotate(-45.001 628.973 35.72)"
             class="NC55-SCst1"
             id="NC55-SCrect145"
             fill="#666"
             d="M625.3 23h7.3v25.4h-7.3z" /></g></g></g></g><g
     id="NC55-SCg147"><path
       class="NC55-SCst11"
       id="NC55-SCrect149"
       clip-rule="evenodd"
       fill="#c41230"
       fill-rule="evenodd"
       d="M547.3 35.9h1.5v6h-1.5z" /><path
       class="NC55-SCst11"
       d="M561 37.6s-.6-.2-1.3-.2c-.9 0-1.7.6-1.7 1.5s.7 1.7 1.7 1.7c.7 0 1.3-.4 1.3-.4v1.7c-.2 0-.7.2-1.3.2-1.7 0-3.2-1.3-3.2-3.2 0-1.7 1.3-3 3.2-3 .6 0 1.1.2 1.3.2v1.5z"
       id="NC55-SCpath151"
       clip-rule="evenodd"
       fill="#c41230"
       fill-rule="evenodd" /><path
       class="NC55-SCst11"
       d="M545.3 37.6s-.4-.2-1.1-.2c-.9 0-1.7.6-1.7 1.5s.6 1.7 1.7 1.7c.6 0 1.1-.4 1.1-.4v1.7c-.2 0-.6.2-1.3.2-1.7 0-3.2-1.3-3.2-3.2 0-1.7 1.3-3 3.2-3 .7 0 1.3.2 1.3.2v1.5z"
       id="NC55-SCpath153"
       clip-rule="evenodd"
       fill="#c41230"
       fill-rule="evenodd" /><path
       class="NC55-SCst11"
       d="M568.8 38.9c0 1.7-1.3 3.2-3.2 3.2-1.9 0-3.2-1.5-3.2-3.2 0-1.7 1.3-3 3.2-3 1.9 0 3.2 1.3 3.2 3zm-3.1-1.5c-.9 0-1.5.7-1.5 1.5 0 .9.6 1.7 1.5 1.7s1.5-.7 1.5-1.7c-.1-.7-.6-1.5-1.5-1.5z"
       id="NC55-SCpath155"
       clip-rule="evenodd"
       fill="#c41230"
       fill-rule="evenodd" /><path
       class="NC55-SCst11"
       d="M554.6 37.4s-.7-.2-1.1-.2c-.7 0-.9.2-.9.4 0 .4.4.6.6.6l.4.2c1.1.4 1.5.9 1.5 1.7 0 1.5-1.3 2.1-2.4 2.1-.7 0-1.5-.2-1.7-.2v-1.5c.2.2.7.4 1.5.4s1.1-.4 1.1-.6c0-.4-.4-.6-.7-.6 0-.2-.2-.2-.4-.2-.7-.2-1.5-.7-1.5-1.7 0-1.1.9-1.9 2.2-1.9.7 0 1.5.2 1.5.2v1.3h-.1z"
       id="NC55-SCpath157"
       clip-rule="evenodd"
       fill="#c41230"
       fill-rule="evenodd" /><path
       class="NC55-SCst12"
       d="M539.3 29.6c0-.4-.4-.7-.7-.7-.4 0-.7.4-.7.7v1.7c0 .4.4.7.7.7.4 0 .7-.4.7-.7v-1.7z"
       id="NC55-SCpath159"
       clip-rule="evenodd"
       fill="#005568"
       fill-rule="evenodd" /><path
       class="NC55-SCst12"
       d="M543.4 27.5c0-.4-.4-.7-.7-.7-.6 0-.7.4-.7.7v3.7c0 .4.2.7.7.7.4 0 .7-.4.7-.7v-3.7z"
       id="NC55-SCpath161"
       clip-rule="evenodd"
       fill="#005568"
       fill-rule="evenodd" /><path
       class="NC55-SCst12"
       d="M547.3 24.7c0-.4-.2-.7-.7-.7-.4 0-.7.4-.7.7v8c0 .4.4.6.7.6.6 0 .7-.2.7-.6v-8z"
       id="NC55-SCpath163"
       clip-rule="evenodd"
       fill="#005568"
       fill-rule="evenodd" /><path
       class="NC55-SCst12"
       d="M551.5 27.5c0-.4-.4-.7-.7-.7-.4 0-.7.4-.7.7v3.7c0 .4.4.7.7.7.4 0 .7-.4.7-.7v-3.7z"
       id="NC55-SCpath165"
       clip-rule="evenodd"
       fill="#005568"
       fill-rule="evenodd" /><path
       class="NC55-SCst12"
       d="M555.6 29.6c0-.4-.4-.7-.7-.7-.4 0-.7.4-.7.7v1.7c0 .4.4.7.7.7.4 0 .7-.4.7-.7v-1.7z"
       id="NC55-SCpath167"
       clip-rule="evenodd"
       fill="#005568"
       fill-rule="evenodd" /><path
       class="NC55-SCst12"
       d="M559.7 27.5c0-.4-.4-.7-.7-.7-.4 0-.7.4-.7.7v3.7c0 .4.4.7.7.7.4 0 .7-.4.7-.7v-3.7z"
       id="NC55-SCpath169"
       clip-rule="evenodd"
       fill="#005568"
       fill-rule="evenodd" /><path
       class="NC55-SCst12"
       d="M563.8 24.7c0-.4-.4-.7-.7-.7-.4 0-.7.4-.7.7v8c0 .4.4.6.7.6.4 0 .7-.2.7-.6v-8z"
       id="NC55-SCpath171"
       clip-rule="evenodd"
       fill="#005568"
       fill-rule="evenodd" /><path
       class="NC55-SCst12"
       d="M567.9 27.5c0-.4-.4-.7-.7-.7-.6 0-.7.4-.7.7v3.7c0 .4.2.7.7.7.4 0 .7-.4.7-.7v-3.7z"
       id="NC55-SCpath173"
       clip-rule="evenodd"
       fill="#005568"
       fill-rule="evenodd" /><path
       class="NC55-SCst12"
       d="M571.8 29.6c0-.4-.2-.7-.7-.7-.4 0-.7.4-.7.7v1.7c0 .4.4.7.7.7.6 0 .7-.4.7-.7v-1.7z"
       id="NC55-SCpath175"
       clip-rule="evenodd"
       fill="#005568"
       fill-rule="evenodd" /></g><g
     id="NC55-SCg177"><g
       id="NC55-SCg179"><path
         class="NC55-SCst3"
         id="NC55-SCrect181"
         clip-rule="evenodd"
         fill="#bfbfbf"
         fill-rule="evenodd"
         d="M573.5 117.2h14v17h-14z" /><path
         class="NC55-SCst1"
         d="M587 117.7v16h-13v-16h13m1-1h-15v18h15v-18z"
         id="NC55-SCpath183"
         fill="#666" /></g><g
       id="NC55-SCg185"><path
         id="NC55-SCrect187"
         clip-rule="evenodd"
         fill="#4d4d4d"
         fill-rule="evenodd"
         d="M586.3 117h5.4v17.4h-5.4z" /><path
         class="NC55-SCst1"
         d="M591.3 117.3V134h-4.7v-16.7h4.7m.7-.6h-6v18h6v-18z"
         id="NC55-SCpath189"
         fill="#666" /></g><g
       id="NC55-SCg191"><path
         id="NC55-SCrect193"
         clip-rule="evenodd"
         fill="#333"
         fill-rule="evenodd"
         d="M570.2 117h3.5v17.5h-3.5z" /><path
         class="NC55-SCst1"
         d="M573.5 117.2v17h-3v-17h3m.5-.5h-4v18h4v-18z"
         id="NC55-SCpath195"
         fill="#666" /></g></g><g
     id="NC55-SCg197"><path
       id="NC55-SCrect199"
       fill="#b3b3b3"
       d="M552.6 122h65.5v6.8h-65.5z" /><path
       class="NC55-SCst1"
       d="M617.5 122.5v5.8H553v-5.8h64.5m1-1H552v7.8h66.5v-7.8z"
       id="NC55-SCpath201"
       fill="#666" /></g><g
     id="NC55-SCg203"><path
       class="NC55-SCst16"
       id="NC55-SCline205"
       fill="none"
       stroke="#a6a6a6"
       stroke-width=".782"
       stroke-linecap="round"
       stroke-linejoin="round"
       stroke-miterlimit="10"
       d="M413.6 121v10.9" /><path
       class="NC55-SCst17"
       id="NC55-SCpolygon207"
       clip-rule="evenodd"
       fill="#262626"
       fill-rule="evenodd"
       d="M403.4 121l-2.3 1.5v7.9l2.3 1.5h70.4V121z" /><path
       class="NC55-SCst16"
       id="NC55-SCpolygon209"
       fill="none"
       stroke="#a6a6a6"
       stroke-width=".782"
       stroke-linecap="round"
       stroke-linejoin="round"
       stroke-miterlimit="10"
       d="M403.4 121h0l-2.3 1.5v7.9l2.3 1.5h70.4V121z" /><path
       class="NC55-SCst17"
       id="NC55-SCrect211"
       clip-rule="evenodd"
       fill="#262626"
       fill-rule="evenodd"
       d="M480.9 121h72v11h-72z" /><path
       class="NC55-SCst16"
       id="NC55-SCpolygon213"
       fill="none"
       stroke="#a6a6a6"
       stroke-width=".782"
       stroke-linecap="round"
       stroke-linejoin="round"
       stroke-miterlimit="10"
       d="M552.8 131.9V121h-71.9v10.9h0z" /><path
       class="NC55-SCst17"
       id="NC55-SCrect215"
       clip-rule="evenodd"
       fill="#262626"
       fill-rule="evenodd"
       d="M473.8 122.9h7v7h-7z" /><path
       class="NC55-SCst16"
       id="NC55-SCpolygon217"
       fill="none"
       stroke="#a6a6a6"
       stroke-width=".782"
       stroke-linecap="round"
       stroke-linejoin="round"
       stroke-miterlimit="10"
       d="M480.9 129.9v-7h-7.1v7h0z" /></g><text
     xml:space="preserve"
     style="font-style:normal;font-weight:normal;font-size:40px;line-height:1.25;font-family:sans-serif;fill:#000000;fill-opacity:1;stroke:none"
     x="268.56046"
     y="96.90979"
     id="text118"><tspan
       sodipodi:role="line"
       id="tspan116"
       x="268.56046"
       y="96.90979" /></text></svg>
