<?xml version="1.0" encoding="UTF-8" standalone="no"?>
<svg
   xmlns:dc="http://purl.org/dc/elements/1.1/"
   xmlns:cc="http://creativecommons.org/ns#"
   xmlns:rdf="http://www.w3.org/1999/02/22-rdf-syntax-ns#"
   xmlns:svg="http://www.w3.org/2000/svg"
   xmlns="http://www.w3.org/2000/svg"
   xmlns:sodipodi="http://sodipodi.sourceforge.net/DTD/sodipodi-0.dtd"
   xmlns:inkscape="http://www.inkscape.org/namespaces/inkscape"
   version="1.1"
   id="NC55-5508-FCLayer_1"
   x="0"
   y="0"
   viewBox="0 0 1634 240.00002"
   xml:space="preserve"
   width="1634"
   height="240"
   sodipodi:docname="NC55-5508-FC.svg"
   inkscape:version="1.0.1 (3bc2e813f5, 2020-09-07)"><metadata
     id="metadata115"><rdf:RDF><cc:Work
         rdf:about=""><dc:format>image/svg+xml</dc:format><dc:type
           rdf:resource="http://purl.org/dc/dcmitype/StillImage" /></cc:Work></rdf:RDF></metadata><defs
     id="defs113" /><sodipodi:namedview
     pagecolor="#ffffff"
     bordercolor="#666666"
     borderopacity="1"
     objecttolerance="10"
     gridtolerance="10"
     guidetolerance="10"
     inkscape:pageopacity="0"
     inkscape:pageshadow="2"
     inkscape:window-width="1280"
     inkscape:window-height="658"
     id="namedview111"
     showgrid="false"
     inkscape:zoom="0.6376989"
     inkscape:cx="817"
     inkscape:cy="120"
     inkscape:window-x="-6"
     inkscape:window-y="-6"
     inkscape:window-maximized="1"
     inkscape:current-layer="NC55-5508-FCLayer_1" /><style
     type="text/css"
     id="NC55-5508-FCstyle3">.NC55-5508-FCst0{fill-rule:evenodd;clip-rule:evenodd;fill:#595959}.NC55-5508-FCst1{fill:#a5a5a5}.NC55-5508-FCst1,.NC55-5508-FCst2{fill-rule:evenodd;clip-rule:evenodd}.NC55-5508-FCst3{fill:none;stroke:#000;stroke-width:.8012;stroke-linecap:round;stroke-linejoin:round;stroke-miterlimit:10}.NC55-5508-FCst5{fill-rule:evenodd;clip-rule:evenodd;fill:#8c8c8c}.NC55-5508-FCst6{fill:none;stroke:#000;stroke-linecap:round;stroke-linejoin:round;stroke-miterlimit:10}.NC55-5508-FCst7{fill:#595959}.NC55-5508-FCst8{fill:none;stroke:#595959;stroke-width:.8012;stroke-linecap:round;stroke-linejoin:round;stroke-miterlimit:10}.NC55-5508-FCst9{fill-rule:evenodd;clip-rule:evenodd;fill:#7f7f7f}.NC55-5508-FCst10{fill:#d9d9d9}.NC55-5508-FCst11{fill:#323232}.NC55-5508-FCst12{fill:#d9d9d9;stroke:#4d4d4d;stroke-width:1.8154;stroke-miterlimit:10}.NC55-5508-FCst13{fill:#666}</style><g
     id="NC55-5508-FCg5"
     transform="rotate(90 817.462 818.835)"><path
       class="NC55-5508-FCst0"
       id="NC55-5508-FCrect7"
       clip-rule="evenodd"
       fill="#595959"
       fill-rule="evenodd"
       d="M0 0h240v1634H0z" /><g
       id="NC55-5508-FCg9"><g
         id="NC55-5508-FCg11"><path
           class="NC55-5508-FCst1"
           id="NC55-5508-FCrect13"
           clip-rule="evenodd"
           fill="#a5a5a5"
           fill-rule="evenodd"
           d="M3 .6h7.2v92.1H3z" /><g
           id="NC55-5508-FCg15"><path
             d="M9.2 1.6v90.1H4V1.6h5.2m1-1H3v92.1h7.2V.6z"
             id="NC55-5508-FCpath17" /></g><path
           class="NC55-5508-FCst2"
           id="NC55-5508-FCrect19"
           clip-rule="evenodd"
           fill-rule="evenodd"
           d="M10.2 35.9h218.7v1562.3H10.2z" /><path
           class="NC55-5508-FCst3"
           id="NC55-5508-FCpolygon21"
           fill="none"
           stroke="#000"
           stroke-width=".801"
           stroke-linecap="round"
           stroke-linejoin="round"
           stroke-miterlimit="10"
           d="M10.2 1598.1H229V35.9H10.2z" /><path
           class="NC55-5508-FCst1"
           id="NC55-5508-FCrect23"
           clip-rule="evenodd"
           fill="#a5a5a5"
           fill-rule="evenodd"
           d="M229 .6h8v92.1h-8z" /><g
           id="NC55-5508-FCg25"><path
             d="M236 1.6v90.1h-6V1.6h6m1-1h-8v92.1h8V.6z"
             id="NC55-5508-FCpath27" /></g><path
           id="NC55-5508-FCrect29"
           clip-rule="evenodd"
           fill="#bfbfbf"
           fill-rule="evenodd"
           d="M13.4 35.9h212.3v1562.3H13.4z" /><g
           id="NC55-5508-FCg31"><path
             d="M224.8 36.9v1560.3H14.4V36.9h210.4m1-1H13.4v1562.3h212.3V35.9h.1z"
             id="NC55-5508-FCpath33" /></g><path
           class="NC55-5508-FCst5"
           id="NC55-5508-FCrect35"
           clip-rule="evenodd"
           fill="#8c8c8c"
           fill-rule="evenodd"
           d="M13.4 35.1h16.8v1563.1H13.4z" /><path
           class="NC55-5508-FCst6"
           d="M13.4 1598.1h16.8m.1-1562.2H13.4v1562.3"
           id="NC55-5508-FCpath37"
           fill="none"
           stroke="#000"
           stroke-linecap="round"
           stroke-linejoin="round"
           stroke-miterlimit="10" /><path
           class="NC55-5508-FCst5"
           id="NC55-5508-FCrect39"
           clip-rule="evenodd"
           fill="#8c8c8c"
           fill-rule="evenodd"
           d="M208.9 35.1h16.8v1563.1h-16.8z" /><path
           class="NC55-5508-FCst6"
           d="M225.8 1598.1H209m-.1-1562.2h16.8v1562.3"
           id="NC55-5508-FCpath41"
           fill="none"
           stroke="#000"
           stroke-linecap="round"
           stroke-linejoin="round"
           stroke-miterlimit="10" /><g
           id="NC55-5508-FCg43"><path
             class="NC55-5508-FCst7"
             d="M70.3 45.7c5.8 0 10.2 4.4 10.2 10.2 0 5.8-4.4 10.2-10.2 10.2-5.8 0-10.2-4.4-10.2-10.2 0-5.8 4.4-10.2 10.2-10.2m0-1c-6.4 0-11.2 4.8-11.2 11.2 0 6.4 4.8 11.2 11.2 11.2 6.4 0 11.2-4.8 11.2-11.2 0-6.4-4.8-11.2-11.2-11.2z"
             id="NC55-5508-FCpath45"
             fill="#595959" /></g><path
           class="NC55-5508-FCst2"
           d="M75.9 55.9c0-3.2-2.4-5.6-5.6-5.6-3.2 0-5.6 2.4-5.6 5.6 0 3.2 2.4 5.6 5.6 5.6 3.2 0 5.6-2.4 5.6-5.6z"
           id="NC55-5508-FCpath47"
           clip-rule="evenodd"
           fill-rule="evenodd" /><path
           class="NC55-5508-FCst8"
           d="M75.9 55.9c0-3.2-2.4-5.6-5.6-5.6-3.2 0-5.6 2.4-5.6 5.6 0 3.2 2.4 5.6 5.6 5.6 3.2 0 5.6-2.4 5.6-5.6h0z"
           id="NC55-5508-FCpath49"
           fill="none"
           stroke="#595959"
           stroke-width=".801"
           stroke-linecap="round"
           stroke-linejoin="round"
           stroke-miterlimit="10" /><g
           id="NC55-5508-FCg51"><path
             class="NC55-5508-FCst7"
             d="M194.5 45.7c6.1 0 11 4.6 11 10.2s-4.9 10.2-11 10.2c-6 0-10.2-5.4-10.2-10.2 0-6 5.4-10.2 10.2-10.2m0-1c-5.6 0-11.2 4.8-11.2 11.2 0 6.4 5.6 11.2 11.2 11.2 6.4 0 12-4.8 12-11.2 0-6.4-5.6-11.2-12-11.2z"
             id="NC55-5508-FCpath53"
             fill="#595959" /></g><path
           class="NC55-5508-FCst2"
           d="M200.9 55.9c0-3.2-3.2-5.6-6.4-5.6-2.4 0-5.6 2.4-5.6 5.6 0 3.2 3.2 5.6 5.6 5.6 3.2 0 6.4-2.4 6.4-5.6z"
           id="NC55-5508-FCpath55"
           clip-rule="evenodd"
           fill-rule="evenodd" /><path
           class="NC55-5508-FCst8"
           d="M200.9 55.9c0-3.2-3.2-5.6-6.4-5.6-2.4 0-5.6 2.4-5.6 5.6 0 3.2 3.2 5.6 5.6 5.6 3.2 0 6.4-2.4 6.4-5.6h0z"
           id="NC55-5508-FCpath57"
           fill="none"
           stroke="#595959"
           stroke-width=".801"
           stroke-linecap="round"
           stroke-linejoin="round"
           stroke-miterlimit="10" /><path
           class="NC55-5508-FCst9"
           d="M163.3 15.8h-24.8c-3.2 0-5.6 2.4-5.6 6.4 0 3.2-3.2 5.6-6.4 5.6h-13.6c-3.2 0-5.6-2.4-5.6-5.6 0-4-3.2-6.4-6.4-6.4h-24V23h16.8c3.2 0 5.6 3.2 5.6 6.4s3.2 6.4 6.4 6.4h28.8c3.2 0 5.6-3.2 5.6-6.4s3.2-6.4 6.4-6.4h16.8v-7.2z"
           id="NC55-5508-FCpath59"
           clip-rule="evenodd"
           fill="#7f7f7f"
           fill-rule="evenodd" /><g
           id="NC55-5508-FCg61"><path
             d="M162.3 16.8V22h-15.8c-3.7 0-7.4 3.7-7.4 7.4 0 2.6-1.9 5.4-4.6 5.4h-28.8c-2.6 0-5.4-2.8-5.4-5.4 0-4.4-3.4-7.4-6.6-7.4h-16v-5.2h23c2.6 0 5.4 1.9 5.4 5.4 0 3.8 2.8 6.6 6.6 6.6h13.6c4.4 0 7.4-3.4 7.4-6.6 0-3.3 1.8-5.4 4.6-5.4h24m1-1h-24.8c-3.2 0-5.6 2.4-5.6 6.4 0 3.2-3.2 5.6-6.4 5.6h-13.6c-3.2 0-5.6-2.4-5.6-5.6 0-4-3.2-6.4-6.4-6.4h-24V23h16.8c3.2 0 5.6 3.2 5.6 6.4s3.2 6.4 6.4 6.4h28.8c3.2 0 5.6-3.2 5.6-6.4s3.2-6.4 6.4-6.4h16.8v-7.2z"
             id="NC55-5508-FCpath63" /></g><path
           class="NC55-5508-FCst0"
           id="NC55-5508-FCrect65"
           clip-rule="evenodd"
           fill="#595959"
           fill-rule="evenodd"
           d="M35.1 92.7h169.8v291.6H35.1z" /><path
           class="NC55-5508-FCst3"
           id="NC55-5508-FCpolygon67"
           fill="none"
           stroke="#000"
           stroke-width=".801"
           stroke-linecap="round"
           stroke-linejoin="round"
           stroke-miterlimit="10"
           d="M35.1 384.4h169.8V92.7H35.1z" /><path
           class="NC55-5508-FCst0"
           id="NC55-5508-FCrect69"
           clip-rule="evenodd"
           fill="#595959"
           fill-rule="evenodd"
           d="M35.1 402.8h169.8v761.1H35.1z" /><path
           class="NC55-5508-FCst3"
           id="NC55-5508-FCpolygon71"
           fill="none"
           stroke="#000"
           stroke-width=".801"
           stroke-linecap="round"
           stroke-linejoin="round"
           stroke-miterlimit="10"
           d="M35.1 1163.9h169.8V402.8H35.1z" /><path
           class="NC55-5508-FCst0"
           id="NC55-5508-FCrect73"
           clip-rule="evenodd"
           fill="#595959"
           fill-rule="evenodd"
           d="M35.1 1179.9h169.8v218.7H35.1z" /><path
           class="NC55-5508-FCst3"
           id="NC55-5508-FCpolygon75"
           fill="none"
           stroke="#000"
           stroke-width=".801"
           stroke-linecap="round"
           stroke-linejoin="round"
           stroke-miterlimit="10"
           d="M35.1 1398.7h169.8v-218.8H35.1z" /><path
           class="NC55-5508-FCst1"
           id="NC55-5508-FCrect77"
           clip-rule="evenodd"
           fill="#a5a5a5"
           fill-rule="evenodd"
           d="M3 732.1h7.2v169.8H3z" /><path
           class="NC55-5508-FCst3"
           id="NC55-5508-FCpolygon79"
           fill="none"
           stroke="#000"
           stroke-width=".801"
           stroke-linecap="round"
           stroke-linejoin="round"
           stroke-miterlimit="10"
           d="M3 901.9h7.2V732.1H3z" /><path
           class="NC55-5508-FCst1"
           id="NC55-5508-FCrect81"
           clip-rule="evenodd"
           fill="#a5a5a5"
           fill-rule="evenodd"
           d="M229 732.1h8v169.8h-8z" /><path
           class="NC55-5508-FCst3"
           id="NC55-5508-FCpolygon83"
           fill="none"
           stroke="#000"
           stroke-width=".801"
           stroke-linecap="round"
           stroke-linejoin="round"
           stroke-miterlimit="10"
           d="M229 901.9h8V732.1h-8z" /><path
           class="NC55-5508-FCst9"
           id="NC55-5508-FCpolygon85"
           clip-rule="evenodd"
           fill="#7f7f7f"
           fill-rule="evenodd"
           d="M40.7 740.9v-8.8h157.8v8.8z" /><path
           class="NC55-5508-FCst6"
           d="M40.7 740.9v-8.8m157.8 0v8.8H40.7"
           id="NC55-5508-FCpath87"
           fill="none"
           stroke="#000"
           stroke-linecap="round"
           stroke-linejoin="round"
           stroke-miterlimit="10" /><path
           class="NC55-5508-FCst9"
           id="NC55-5508-FCpolygon89"
           clip-rule="evenodd"
           fill="#7f7f7f"
           fill-rule="evenodd"
           d="M198.5 685.6v8.8H40.7v-8.8z" /><path
           class="NC55-5508-FCst3"
           d="M198.5 685.6v8.8m-157.8 0v-8.8h157.8"
           id="NC55-5508-FCpath91"
           fill="none"
           stroke="#000"
           stroke-width=".801"
           stroke-linecap="round"
           stroke-linejoin="round"
           stroke-miterlimit="10" /><path
           class="NC55-5508-FCst1"
           d="M40.7 694.4c-6.4 0-12-5.6-12-12v-427c0-7.2 5.6-12 12-12h157.8c7.2 0 12 4.8 12 12v427c0 6.4-4.8 12-12 12H144c-3.2 0-5.6-.8-7.2-2.4-10.4-7.2-24-7.2-33.6 0-2.4 1.6-4.8 2.4-7.2 2.4H40.7zm-20-601.7H3V732h93.7c1.6 0 4 .8 5.6 1.6 9.6 9.6 24.8 9.6 35.3 0 1.6-.8 3.2-1.6 4.8-1.6H237V92.7h-18.4c-4 0-8 3.2-8 7.2v109.8c0 7.2-4.8 12-12 12H40.7c-6.4 0-12-4.8-12-12V99.9c0-4-3.2-7.2-8-7.2z"
           id="NC55-5508-FCpath93"
           clip-rule="evenodd"
           fill="#a5a5a5"
           fill-rule="evenodd" /><path
           class="NC55-5508-FCst6"
           d="M40.7 694.4c-6.4 0-12-5.6-12-12v-427c0-7.2 5.6-12 12-12h157.8c7.2 0 12 4.8 12 12v427c0 6.4-4.8 12-12 12H144c-3.2 0-5.6-.8-7.2-2.4-10.4-7.2-24-7.2-33.6 0-2.4 1.6-4.8 2.4-7.2 2.4H40.7h0zm-20-601.7H3V732h93.7c1.6 0 4 .8 5.6 1.6 9.6 9.6 24.8 9.6 35.3 0 1.6-.8 3.2-1.6 4.8-1.6H237V92.7h-18.4c-4 0-8 3.2-8 7.2v109.8c0 7.2-4.8 12-12 12H40.7c-6.4 0-12-4.8-12-12V99.9c0-4-3.2-7.2-8-7.2h0z"
           id="NC55-5508-FCpath95"
           fill="none"
           stroke="#000"
           stroke-linecap="round"
           stroke-linejoin="round"
           stroke-miterlimit="10" /><path
           class="NC55-5508-FCst9"
           id="NC55-5508-FCrect97"
           clip-rule="evenodd"
           fill="#7f7f7f"
           fill-rule="evenodd"
           d="M3 92.7h15.2V732H3z" /><path
           class="NC55-5508-FCst3"
           d="M3 732.1h15.2m.1-639.4H3V732"
           id="NC55-5508-FCpath99"
           fill="none"
           stroke="#000"
           stroke-width=".801"
           stroke-linecap="round"
           stroke-linejoin="round"
           stroke-miterlimit="10" /><path
           class="NC55-5508-FCst9"
           id="NC55-5508-FCrect101"
           clip-rule="evenodd"
           fill="#7f7f7f"
           fill-rule="evenodd"
           d="M221.7 92.7h15.2V732h-15.2z" /><path
           class="NC55-5508-FCst6"
           d="M237 732.1h-15.2m-.1-639.4H237V732"
           id="NC55-5508-FCpath103"
           fill="none"
           stroke="#000"
           stroke-linecap="round"
           stroke-linejoin="round"
           stroke-miterlimit="10" /><path
           class="NC55-5508-FCst0"
           id="NC55-5508-FCpolygon105"
           clip-rule="evenodd"
           fill="#595959"
           fill-rule="evenodd"
           d="M162.5 1432.3v9.6h-117v67.3h117v9.6h13.6v-9.6h8.8v-67.3h-8.8v-9.6z" /><g
           id="NC55-5508-FCg107"><path
             d="M175.1 1433.3v8.6c0 .6.4 1 1 1h7.8v65.3h-7.8c-.6 0-1 .4-1 1v8.6h-11.6v-8.6c0-.6-.4-1-1-1h-116v-65.3h116c.6 0 1-.4 1-1v-8.6h11.6m1-1h-13.6v9.6h-117v67.3h117v9.6h13.6v-9.6h8.8v-67.3h-8.8v-9.6z"
             id="NC55-5508-FCpath109" /></g><path
           class="NC55-5508-FCst1"
           id="NC55-5508-FCrect111"
           clip-rule="evenodd"
           fill="#a5a5a5"
           fill-rule="evenodd"
           d="M3 1541.3h7.2v92.1H3z" /><path
           class="NC55-5508-FCst3"
           id="NC55-5508-FCpolygon113"
           fill="none"
           stroke="#000"
           stroke-width=".801"
           stroke-linecap="round"
           stroke-linejoin="round"
           stroke-miterlimit="10"
           d="M3 1541.3h7.2v92.1H3z" /><path
           class="NC55-5508-FCst1"
           id="NC55-5508-FCrect115"
           clip-rule="evenodd"
           fill="#a5a5a5"
           fill-rule="evenodd"
           d="M229 1541.3h8v92.1h-8z" /><path
           class="NC55-5508-FCst3"
           id="NC55-5508-FCpolygon117"
           fill="none"
           stroke="#000"
           stroke-width=".801"
           stroke-linecap="round"
           stroke-linejoin="round"
           stroke-miterlimit="10"
           d="M229 1541.3h8v92.1h-8z" /><g
           id="NC55-5508-FCg119"><path
             class="NC55-5508-FCst7"
             d="M70.3 1567.9c5.8 0 10.2 4.4 10.2 10.2 0 5.8-4.4 10.2-10.2 10.2-5.8 0-10.2-4.4-10.2-10.2 0-5.8 4.4-10.2 10.2-10.2m0-1c-6.4 0-11.2 4.8-11.2 11.2 0 6.4 4.8 11.2 11.2 11.2 6.4 0 11.2-4.8 11.2-11.2 0-6.4-4.8-11.2-11.2-11.2z"
             id="NC55-5508-FCpath121"
             fill="#595959" /></g><path
           class="NC55-5508-FCst2"
           d="M75.9 1578.1c0 3.2-2.4 5.6-5.6 5.6-3.2 0-5.6-2.4-5.6-5.6 0-3.2 2.4-5.6 5.6-5.6 3.2 0 5.6 2.4 5.6 5.6z"
           id="NC55-5508-FCpath123"
           clip-rule="evenodd"
           fill-rule="evenodd" /><path
           class="NC55-5508-FCst8"
           d="M75.9 1578.1c0 3.2-2.4 5.6-5.6 5.6-3.2 0-5.6-2.4-5.6-5.6 0-3.2 2.4-5.6 5.6-5.6 3.2 0 5.6 2.4 5.6 5.6h0z"
           id="NC55-5508-FCpath125"
           fill="none"
           stroke="#595959"
           stroke-width=".801"
           stroke-linecap="round"
           stroke-linejoin="round"
           stroke-miterlimit="10" /><g
           id="NC55-5508-FCg127"><path
             class="NC55-5508-FCst7"
             d="M194.5 1567.9c6.1 0 11 4.6 11 10.2s-4.9 10.2-11 10.2c-6 0-10.2-5.4-10.2-10.2 0-6 5.4-10.2 10.2-10.2m0-1c-5.6 0-11.2 4.8-11.2 11.2 0 6.4 5.6 11.2 11.2 11.2 6.4 0 12-4.8 12-11.2 0-6.4-5.6-11.2-12-11.2z"
             id="NC55-5508-FCpath129"
             fill="#595959" /></g><path
           class="NC55-5508-FCst2"
           d="M200.9 1578.1c0 3.2-3.2 5.6-6.4 5.6-2.4 0-5.6-2.4-5.6-5.6 0-3.2 3.2-5.6 5.6-5.6 3.2 0 6.4 2.4 6.4 5.6z"
           id="NC55-5508-FCpath131"
           clip-rule="evenodd"
           fill-rule="evenodd" /><path
           class="NC55-5508-FCst8"
           d="M200.9 1578.1c0 3.2-3.2 5.6-6.4 5.6-2.4 0-5.6-2.4-5.6-5.6 0-3.2 3.2-5.6 5.6-5.6 3.2 0 6.4 2.4 6.4 5.6h0z"
           id="NC55-5508-FCpath133"
           fill="none"
           stroke="#595959"
           stroke-width=".801"
           stroke-linecap="round"
           stroke-linejoin="round"
           stroke-miterlimit="10" /><path
           class="NC55-5508-FCst9"
           d="M163.3 1618.2h-24.8c-3.2 0-5.6-3.2-5.6-6.4s-3.2-5.6-6.4-5.6h-13.6c-3.2 0-5.6 2.4-5.6 5.6 0 3.2-3.2 6.4-6.4 6.4h-24v-8h16.8c3.2 0 5.6-2.4 5.6-5.6 0-3.2 3.2-6.4 6.4-6.4h28.8c3.2 0 5.6 3.2 5.6 6.4s3.2 5.6 6.4 5.6h16.8v8z"
           id="NC55-5508-FCpath135"
           clip-rule="evenodd"
           fill="#7f7f7f"
           fill-rule="evenodd" /><g
           id="NC55-5508-FCg137"><path
             d="M134.4 1599.1c2.7 0 4.6 2.9 4.6 5.4 0 3.2 3 6.6 7.4 6.6h15.8v6h-23.8c-2.7 0-4.6-2.9-4.6-5.4 0-3.2-3-6.6-7.4-6.6h-13.6c-3.8 0-6.6 2.8-6.6 6.6 0 2.6-2.8 5.4-5.4 5.4h-23v-6h15.8c3.8 0 6.6-2.8 6.6-6.6 0-2.6 2.8-5.4 5.4-5.4h28.8m0-1h-28.8c-3.2 0-6.4 3.2-6.4 6.4s-2.4 5.6-5.6 5.6H76.7v8h24c3.2 0 6.4-3.2 6.4-6.4s2.4-5.6 5.6-5.6h13.6c3.2 0 6.4 2.4 6.4 5.6 0 3.2 2.4 6.4 5.6 6.4h24.8v-8h-16.8c-3.2 0-6.4-2.4-6.4-5.6 0-3.2-2.3-6.4-5.5-6.4z"
             id="NC55-5508-FCpath139" /></g><path
           class="NC55-5508-FCst9"
           id="NC55-5508-FCpolygon141"
           clip-rule="evenodd"
           fill="#7f7f7f"
           fill-rule="evenodd"
           d="M40.7 948.4v-8.8h157.8v8.8z" /><path
           class="NC55-5508-FCst3"
           d="M40.7 948.4v-8.8m157.8 0v8.8H40.7"
           id="NC55-5508-FCpath143"
           fill="none"
           stroke="#000"
           stroke-width=".801"
           stroke-linecap="round"
           stroke-linejoin="round"
           stroke-miterlimit="10" /><path
           class="NC55-5508-FCst9"
           id="NC55-5508-FCpolygon145"
           clip-rule="evenodd"
           fill="#7f7f7f"
           fill-rule="evenodd"
           d="M198.5 893.1v8.8H40.7v-8.8z" /><path
           class="NC55-5508-FCst6"
           d="M198.5 893.1v8.8m-157.8 0v-8.8h157.8"
           id="NC55-5508-FCpath147"
           fill="none"
           stroke="#000"
           stroke-linecap="round"
           stroke-linejoin="round"
           stroke-miterlimit="10" /><path
           class="NC55-5508-FCst1"
           d="M40.7 939.6c-6.4 0-12 5.6-12 12v427c0 7.2 5.6 12 12 12h157.8c7.2 0 12-4.8 12-12v-427c0-6.4-4.8-12-12-12H144c-3.2 0-5.6.8-7.2 2.4-10.4 7.2-24 7.2-33.6 0-2.4-1.6-4.8-2.4-7.2-2.4H40.7zm-20 601.7H3V901.9h93.7c1.6 0 4-.8 5.6-2.4 9.6-8.8 24.8-8.8 35.3 0 1.6 1.6 3.2 2.4 4.8 2.4H237v639.3h-18.4c-4 0-8-3.2-8-8v-109c0-7.2-4.8-12-12-12H40.7c-6.4 0-12 4.8-12 12v109c0 4.9-3.2 8.1-8 8.1z"
           id="NC55-5508-FCpath149"
           clip-rule="evenodd"
           fill="#a5a5a5"
           fill-rule="evenodd" /><g
           id="NC55-5508-FCg151"><path
             d="M119.7 893.9c6.3 0 12.4 2.3 17.2 6.3 1.8 1.8 3.6 2.7 5.5 2.7H236v637.3h-17.4c-3.4 0-7-2.7-7-7v-109c0-7.8-5.2-13-13-13H40.7c-7.4 0-13 5.6-13 13v109c0 4.3-2.8 7-7 7H4V902.9h92.7c1.7 0 4.5-.8 6.3-2.7 4.5-4 10.4-6.3 16.7-6.3m16.5 47.3c-4.9 3.4-10.6 5.2-16.5 5.2s-11.4-1.8-15.9-5.2c-2.6-1.7-5.2-2.6-7.8-2.6H40.7c-6.9 0-13 6.1-13 13v427c0 7.4 5.6 13 13 13h157.8c7.8 0 13-5.2 13-13v-427c0-7.4-5.6-13-13-13H144c-3.4 0-6 .9-7.8 2.6m-16.5-48.3c-6.3 0-12.5 2.2-17.3 6.6-1.6 1.6-4 2.4-5.6 2.4H3v639.3h17.6c4.8 0 8-3.2 8-8v-109c0-7.2 5.6-12 12-12h157.8c7.2 0 12 4.8 12 12v109c0 4.8 4 8 8 8H237V901.9h-94.5c-1.6 0-3.2-.8-4.8-2.4-5.3-4.4-11.7-6.6-18-6.6zm0 54.5c5.9 0 11.9-1.8 17.1-5.4 1.6-1.6 4-2.4 7.2-2.4h54.5c7.2 0 12 5.6 12 12v427c0 7.2-4.8 12-12 12H40.7c-6.4 0-12-4.8-12-12v-427c0-6.4 5.6-12 12-12H96c2.4 0 4.8.8 7.2 2.4 4.8 3.6 10.6 5.4 16.5 5.4z"
             id="NC55-5508-FCpath153" /></g><path
           class="NC55-5508-FCst9"
           id="NC55-5508-FCrect155"
           clip-rule="evenodd"
           fill="#7f7f7f"
           fill-rule="evenodd"
           d="M3 901.9h15.2v639.3H3z" /><path
           class="NC55-5508-FCst3"
           d="M3 901.9h15.2m.1 639.4H3V901.9"
           id="NC55-5508-FCpath157"
           fill="none"
           stroke="#000"
           stroke-width=".801"
           stroke-linecap="round"
           stroke-linejoin="round"
           stroke-miterlimit="10" /><path
           class="NC55-5508-FCst9"
           id="NC55-5508-FCrect159"
           clip-rule="evenodd"
           fill="#7f7f7f"
           fill-rule="evenodd"
           d="M221.7 901.9h15.2v639.3h-15.2z" /><path
           class="NC55-5508-FCst3"
           d="M237 901.9h-15.2m-.1 639.4H237V901.9"
           id="NC55-5508-FCpath161"
           fill="none"
           stroke="#000"
           stroke-width=".801"
           stroke-linecap="round"
           stroke-linejoin="round"
           stroke-miterlimit="10" /><g
           id="NC55-5508-FCg163"><path
             d="M181.7 1425.3c6.8 0 11.8 4.6 11.8 11v76.1c0 6.1-5.3 11-11.8 11h-141c-5.9 0-11-5.1-11-11v-76.1c0-6.3 4.7-11 11-11h141m0-1h-141c-6.4 0-12 4.8-12 12v76.1c0 6.4 5.6 12 12 12h141c7.2 0 12.8-5.6 12.8-12v-76.1c0-7.2-5.6-12-12.8-12z"
             id="NC55-5508-FCpath165" /></g></g><g
         id="NC55-5508-FCg167"><g
           id="NC55-5508-FCg169"><path
             class="NC55-5508-FCst10"
             d="M120.6 937.9c-.2-.1-.4-.1-.6-.1-.2 0-.4 0-.6.1l-.6.3-.5-.3c-.2-.1-.5-.2-.8-.2-.1 0-.3 0-.4.1l-.6.2-.5-.4c-.3-.2-.6-.3-.9-.3H114.8l-.6.1-.4-.5c-.3-.3-.7-.5-1.1-.5h-.7l-.4-.5c-.2-.3-.6-.6-1-.6l-.6-.1-.3-.6c-.2-.4-.5-.6-1-.7l-.6-.1-.2-.6c-.1-.4-.5-.7-.9-.9l-.6-.2-.1-.6c-.1-.4-.4-.8-.7-1l-.6-.3-.1-.6c0-.4-.3-.8-.6-1.1l-.5-.4v-.6c0-.4-.2-.8-.5-1.1l-.5-.4.1-.6c.1-.4 0-.8-.3-1.2l-.4-.5.2-.6c.1-.4.1-.8-.2-1.2l-.3-.5.3-.6c.2-.4.2-.8 0-1.2l-.2-.6.3-.5c.2-.4.3-.8.2-1.2l-.2-.6.4-.5c.3-.3.4-.8.3-1.2l-.1-.6.5-.4c.3-.3.5-.7.5-1.1v-.6l.5-.4c.3-.2.6-.6.6-1.1l.1-.6.6-.3c.4-.2.6-.5.7-1l.1-.6.6-.2c.4-.1.7-.5.9-.9l.2-.6.6-.1c.4-.1.8-.4 1-.7l.3-.6.6-.1c.4 0 .8-.3 1.1-.6l.4-.5h.6c.5 0 .8-.2 1.1-.5l.4-.5.7.1h.2c.3 0 .7-.1.9-.3l.5-.4.6.2c.1 0 .3.1.4.1.3 0 .5-.1.8-.2l.5-.3.6.3c.2.1.4.1.6.1.2 0 .4 0 .6-.1l.6-.3.5.3c.2.1.5.2.8.2.1 0 .3 0 .4-.1l.6-.2.5.4c.3.2.6.3.9.3H125.3l.6-.1.4.5c.3.3.7.5 1.1.5h.7l.4.5c.2.3.6.6 1.1.6l.6.1.3.6c.2.4.6.6 1 .7l.6.1.2.6c.1.4.5.7.9.9l.6.2.1.6c.1.4.4.8.7 1l.5.3.1.6c0 .4.3.8.6 1.1l.5.4v.6c0 .4.2.8.5 1.1l.5.4-.1.6c-.1.4 0 .8.3 1.2l.4.5-.2.6c-.1.4-.1.8.2 1.2l.3.5-.3.6c-.2.4-.2.8 0 1.2l.3.6-.3.5c-.2.4-.3.8-.2 1.2l.2.6-.4.5c-.3.3-.4.8-.3 1.2l.1.6-.5.4c-.3.3-.5.7-.5 1.1v.6l-.5.4c-.3.2-.6.6-.6 1l-.1.6-.6.3c-.4.2-.6.5-.7 1l-.1.6-.6.2c-.4.1-.7.5-.9.9l-.2.6-.6.1c-.4.1-.8.4-1 .7l-.3.6-.6.1c-.4 0-.8.3-1.1.6l-.4.5h-.6c-.5 0-.8.2-1.1.5l-.4.5-.7-.1h-.2c-.3 0-.7.1-.9.3l-.5.4-.6-.2c-.1 0-.3-.1-.4-.1-.3 0-.5.1-.8.2l-.5.3-.7-.2z"
             id="NC55-5508-FCpath171"
             fill="#d9d9d9" /><path
             class="NC55-5508-FCst11"
             d="M118.9 903.4c.4.2.7.3 1.1.3.4 0 .7-.1 1-.2h.2c.4.2.8.4 1.3.4.2 0 .5 0 .7-.1h.1l.1.1c.4.4 1 .6 1.6.6h.5l.1.1c.5.5 1.1.8 1.8.8h.2v.1c.4.6 1.1 1 1.8 1h.1v.1c.3.6.9 1.1 1.6 1.2h.1v.1c.2.7.8 1.2 1.5 1.5h.1v.1c.2.7.6 1.3 1.2 1.6h.1v.1c.1.7.4 1.4 1 1.8h.1v.1c0 .7.3 1.4.8 1.9l.1.1v.1c-.1.7.1 1.4.5 2l.1.1v.1c-.2.7-.1 1.4.3 2v.2c-.3.7-.3 1.4 0 2.1v.2c-.4.6-.5 1.3-.3 2v.1l-.1.1c-.5.6-.7 1.3-.5 2v.1l-.1.1c-.5.5-.8 1.2-.8 1.9v.1h-.1c-.6.4-1 1.1-1 1.8v.1h-.1c-.6.3-1.1.9-1.3 1.6v.1h-.1c-.7.2-1.2.8-1.5 1.5v.1h-.1c-.7.2-1.3.6-1.6 1.2v.1h-.1c-.7.1-1.4.4-1.8 1v.1h-.2c-.7 0-1.3.3-1.8.8l-.1.1h-.5c-.6 0-1.1.2-1.6.6l-.1.1h-.1c-.2-.1-.5-.1-.7-.1-.5 0-.9.1-1.3.4h-.2c-.3-.1-.7-.2-1-.2-.4 0-.7.1-1 .2h-.2c-.4-.2-.8-.4-1.3-.4-.2 0-.5 0-.7.1h-.1l-.1-.1c-.4-.4-1-.6-1.6-.6h-.5l-.1-.1c-.5-.5-1.1-.8-1.8-.8h-.2v-.1c-.4-.6-1.1-1-1.8-1h-.1v-.1c-.3-.6-.9-1.1-1.6-1.2h-.1v-.1c-.2-.7-.8-1.2-1.5-1.5h-.1v-.1c-.2-.7-.6-1.3-1.2-1.6h-.1v-.1c-.1-.7-.4-1.4-1-1.8h-.1v-.1c0-.7-.3-1.4-.8-1.9l-.1-.1v-.1c.1-.7-.1-1.4-.5-2l-.1-.1v-.1c.2-.7.1-1.4-.3-2v-.2c.3-.7.3-1.4 0-2.1v-.2c.4-.6.5-1.3.3-2v-.1l.1-.1c.5-.6.7-1.3.5-2v-.1l.1-.1c.5-.5.8-1.2.8-1.9v-.1h.1c.6-.4 1-1.1 1-1.8v-.1h.1c.6-.3 1.1-.9 1.3-1.6v-.1h.1c.7-.2 1.2-.8 1.5-1.5v-.1h.1c.7-.2 1.3-.6 1.6-1.2v-.1h.1c.7-.1 1.4-.4 1.8-1v-.1h.2c.7 0 1.3-.3 1.8-.8l.1-.1h.5c.6 0 1.1-.2 1.6-.6l.1-.1h.1c.2.1.5.1.7.1.4-.1.9-.2 1.4-.5m2.3-2.2h-.2l-.8.4h-.4l-.8-.4h-.2c-.1 0-.2 0-.2.1l-.8.5c-.1 0-.2.1-.2.1h-.1l-.9-.3h-.1c-.1 0-.2 0-.3.1l-.7.6c-.1.1-.2.1-.3.1h-.1l-.9-.2h-.1c-.1 0-.2.1-.3.1l-.8.7c-.1.1-.2.1-.3.1h-.9c-.1 0-.3.1-.4.2l-.5.8c-.1.1-.2.2-.3.2l-.9.1c-.2 0-.3.1-.4.2l-.4.8c-.1.1-.2.2-.3.2l-.9.2c-.1 0-.3.1-.3.3l-.3.9c0 .1-.1.2-.3.3l-.9.3c-.1.1-.3.2-.3.3l-.2.9c0 .1-.1.2-.2.3l-.8.4c-.1.1-.2.2-.2.4l-.1.9c0 .1-.1.3-.2.3l-.8.5c-.1.1-.2.2-.2.4v.9c0 .1 0 .3-.1.4l-.7.6c-.1.1-.2.3-.1.4l.2.9c0 .1 0 .3-.1.4l-.6.7c-.1.1-.1.3-.1.4l.3.9v.4l-.5.8c-.1.1-.1.3 0 .4l.4.8c.1.1.1.3 0 .4l-.4.8c-.1.1-.1.3 0 .4l.5.8c.1.1.1.2 0 .4l-.3.9c0 .1 0 .3.1.4l.6.7c.1.1.1.2.1.4l-.2.9c0 .2 0 .3.1.4l.7.6c.1.1.2.2.1.4v.9c0 .2.1.3.2.4l.8.5c.1.1.2.2.2.3l.1.9c0 .2.1.3.2.4l.8.4c.1.1.2.2.2.3l.2.9c0 .1.1.3.3.3l.9.3c.1 0 .2.1.3.3l.3.9c.1.1.2.3.3.3l.9.2c.1 0 .2.1.3.2l.4.8c.1.1.2.2.4.2l.9.1c.1 0 .3.1.3.2l.5.8c.1.1.2.2.4.2h.9c.1 0 .2.1.3.1l.6.7c.1.1.2.1.3.1h.1l.9-.2h.1c.1 0 .2 0 .3.1l.7.6c.1.1.2.1.3.1h.1l.9-.3h.1c.1 0 .2 0 .2.1l.8.5c.1 0 .2.1.2.1h.2l.8-.4h.4l.8.4h.2c.1 0 .2 0 .2-.1l.8-.5c.1 0 .2-.1.2-.1h.1l.9.3h.1c.1 0 .2 0 .3-.1l.7-.6c.1-.1.2-.1.3-.1h.1l.9.2h.1c.1 0 .2-.1.3-.1l.6-.7c.1-.1.2-.1.3-.1h.9c.1 0 .3-.1.4-.2l.5-.8c.1-.1.2-.2.3-.2l.9-.1c.2 0 .3-.1.4-.2l.4-.8c.1-.1.2-.2.3-.2l.9-.2c.1 0 .3-.1.3-.3l.3-.9c0-.1.1-.2.3-.3l.9-.3c.1-.1.3-.2.3-.3l.2-.9c0-.1.1-.2.2-.3l.8-.4c.1-.1.2-.2.2-.4l.1-.9c0-.1.1-.3.2-.3l.8-.5c.1-.1.2-.2.2-.4v-.9c0-.1 0-.3.1-.4l.7-.6c.1-.1.2-.3.1-.4l-.2-.9c0-.1 0-.3.1-.4l.6-.7c.1-.1.1-.3.1-.4l-.3-.9v-.4l.5-.8c.1-.1.1-.3 0-.4l-.4-.8c-.1-.1-.1-.3 0-.4l.4-.8c.1-.1.1-.3 0-.4l-.5-.8c-.1-.1-.1-.2 0-.4l.3-.9c0-.1 0-.3-.1-.4l-.6-.7c-.1-.1-.1-.2-.1-.4l.2-.9c0-.2 0-.3-.1-.4l-.7-.6c-.1-.1-.2-.2-.1-.4v-.9c0-.2-.1-.3-.2-.4l-.8-.5c-.1-.1-.2-.2-.2-.3l-.1-.9c0-.2-.1-.3-.2-.4l-.8-.4c-.1-.1-.2-.2-.2-.3l-.2-.9c0-.1-.1-.3-.3-.3l-.9-.3c-.1 0-.2-.1-.3-.3l-.3-.9c-.1-.1-.2-.3-.3-.3l-.9-.2c-.1 0-.2-.1-.3-.2l-.4-.8c-.1-.1-.2-.2-.4-.2l-.9-.1c-.1 0-.3-.1-.3-.2l-.5-.8c-.1-.1-.2-.2-.4-.2h-.9c-.1 0-.2-.1-.3-.1l-.6-.7c-.1-.1-.2-.1-.3-.1h-.1l-.9.2h-.1c-.1 0-.2 0-.3-.1l-.7-.6c-.1-.1-.2-.1-.3-.1h-.1l-.9.3h-.1c-.1 0-.2 0-.2-.1l-.8-.5c.1-.1.1-.1 0-.1z"
             id="NC55-5508-FCpath173"
             fill="#323232" /></g><g
           id="NC55-5508-FCg175"><circle
             class="NC55-5508-FCst10"
             cx="120"
             cy="920.2"
             r="17"
             id="NC55-5508-FCcircle177"
             fill="#d9d9d9" /></g><g
           id="NC55-5508-FCg179"><path
             class="NC55-5508-FCst12"
             id="NC55-5508-FCpolygon181"
             fill="#d9d9d9"
             stroke="#4d4d4d"
             stroke-width="1.815"
             stroke-miterlimit="10"
             d="M131.8 917.5h-9.1V903h-5.5v14.5h-9v5.4h9v14.6h5.5v-14.6h9.1z" /><g
             id="NC55-5508-FCg183"><g
               id="NC55-5508-FCg185"><path
                 class="NC55-5508-FCst13"
                 id="NC55-5508-FCrect187"
                 fill="#666"
                 d="M116.3 907.5h7.3v23.6h-7.3z" /></g><g
               id="NC55-5508-FCg189"><path
                 class="NC55-5508-FCst13"
                 id="NC55-5508-FCrect191"
                 fill="#666"
                 d="M107.2 916.6h25.4v7.3h-25.4z" /></g></g></g></g><g
         id="NC55-5508-FCg193"><g
           id="NC55-5508-FCg195"><path
             class="NC55-5508-FCst10"
             d="M120.6 730.9c-.2-.1-.4-.1-.6-.1-.2 0-.4 0-.6.1l-.6.3-.5-.3c-.2-.1-.5-.2-.8-.2-.1 0-.3 0-.4.1l-.6.2-.5-.4c-.3-.2-.6-.3-.9-.3H114.8l-.6.1-.4-.5c-.3-.3-.7-.5-1.1-.5h-.7l-.4-.5c-.2-.3-.6-.6-1.1-.6l-.6-.1-.3-.6c-.2-.4-.6-.6-1-.7l-.6-.1-.2-.6c-.1-.4-.5-.7-.9-.9l-.6-.2-.1-.6c-.1-.4-.4-.8-.7-1l-.6-.3-.1-.6c0-.4-.3-.8-.6-1.1l-.5-.4v-.6c0-.4-.2-.8-.5-1.1l-.5-.4.1-.6c.1-.4 0-.8-.3-1.2l-.4-.5.2-.6c.1-.4.1-.8-.2-1.2l-.3-.5.3-.6c.2-.4.2-.8 0-1.2l-.1-.6.3-.5c.2-.4.3-.8.2-1.2l-.2-.6.4-.5c.3-.3.4-.8.3-1.2l-.1-.6.5-.4c.3-.3.5-.7.5-1.1v-.6l.5-.4c.3-.2.6-.6.6-1.1l.1-.6.6-.3c.4-.2.6-.6.7-1l.1-.6.6-.2c.4-.1.7-.5.9-.9l.2-.6.6-.1c.4-.1.8-.4 1-.7l.3-.6.6-.1c.4 0 .8-.3 1.1-.6l.4-.5h.6c.5 0 .8-.2 1.1-.5l.4-.5.7.1h.2c.3 0 .7-.1.9-.3l.5-.4.6.2c.1 0 .3.1.4.1.3 0 .5-.1.8-.2l.5-.3.6.3c.2.1.4.1.6.1.2 0 .4 0 .6-.1l.6-.3.5.3c.2.1.5.2.8.2.1 0 .3 0 .4-.1l.6-.2.5.4c.3.2.6.3.9.3H125.3l.6-.1.4.5c.3.3.7.5 1.1.5h.7l.4.5c.2.3.6.6 1.1.6l.6.1.3.6c.2.4.6.6 1 .7l.6.1.2.6c.1.4.5.7.9.9l.6.2.1.6c.1.4.4.8.7 1l.6.3.1.6c0 .4.3.8.6 1.1l.5.4v.6c0 .4.2.8.5 1.1l.5.4-.1.6c-.1.4 0 .8.3 1.2l.4.5-.2.6c-.1.4-.1.8.2 1.2l.3.5-.3.6c-.2.4-.2.8 0 1.2l.3.6-.3.5c-.2.4-.3.8-.2 1.2l.2.6-.4.5c-.3.3-.4.8-.3 1.2l.1.6-.5.4c-.3.3-.5.7-.5 1.1v.6l-.5.4c-.3.2-.6.6-.6 1l-.1.6-.6.3c-.4.2-.6.5-.7 1l-.1.6-.6.2c-.4.1-.7.5-.9.9l-.2.6-.6.1c-.4.1-.8.4-1 .7l-.3.6-.6.1c-.4 0-.8.3-1.1.6l-.4.5h-.6c-.5 0-.8.2-1.1.5l-.4.5-.7-.1h-.2c-.3 0-.7.1-.9.3l-.5.4-.6-.2c-.1 0-.3-.1-.4-.1-.3 0-.5.1-.8.2l-.5.3-.8-.2z"
             id="NC55-5508-FCpath197"
             fill="#d9d9d9" /><path
             class="NC55-5508-FCst11"
             d="M118.9 696.4c.4.2.7.3 1.1.3.4 0 .7-.1 1-.2h.2c.4.2.8.4 1.3.4.2 0 .5 0 .7-.1h.1l.1.1c.4.4 1 .6 1.6.6h.5l.1.1c.5.5 1.1.8 1.8.8h.2v.1c.4.6 1.1 1 1.8 1h.1v.1c.3.6.9 1.1 1.6 1.2h.1v.1c.2.7.8 1.2 1.5 1.5h.1v.1c.2.7.6 1.3 1.2 1.6h.1v.1c.1.7.4 1.4 1 1.8h.1v.1c0 .7.3 1.4.8 1.9l.1.1v.1c-.1.7.1 1.4.5 2l.1.1v.1c-.2.7-.1 1.4.3 2v.2c-.3.7-.3 1.4 0 2.1v.2c-.4.6-.5 1.3-.3 2v.1l-.1.1c-.5.6-.7 1.3-.5 2v.1l-.1.1c-.5.5-.8 1.2-.8 1.9v.1h-.1c-.6.4-1 1.1-1 1.8v.1h-.1c-.6.3-1.1.9-1.2 1.6v.1h-.1c-.7.2-1.2.8-1.5 1.5v.1h-.1c-.7.2-1.3.6-1.6 1.2v.1h-.1c-.7.1-1.4.4-1.8 1v.1h-.2c-.7 0-1.3.3-1.8.8l-.1.1h-.5c-.6 0-1.1.2-1.6.6l-.1.1h-.1c-.2-.1-.5-.1-.7-.1-.5 0-.9.1-1.3.4h-.2c-.3-.1-.7-.2-1-.2-.4 0-.7.1-1 .2h-.2c-.4-.2-.8-.4-1.3-.4-.2 0-.5 0-.7.1h-.1l-.1-.1c-.4-.4-1-.6-1.6-.6h-.5l-.1-.1c-.5-.5-1.1-.8-1.8-.8h-.2v-.1c-.4-.6-1.1-1-1.8-1h-.1v-.1c-.3-.6-.9-1.1-1.6-1.3h-.1v-.1c-.2-.7-.8-1.2-1.5-1.5h-.1v-.1c-.2-.7-.6-1.3-1.2-1.6h-.1v-.1c-.1-.7-.4-1.4-1-1.8h-.1v-.1c0-.7-.3-1.4-.8-1.9l-.1-.1v-.1c.1-.7-.1-1.4-.5-2l-.1-.1v-.1c.2-.7.1-1.4-.3-2v-.2c.3-.7.3-1.4 0-2.1v-.2c.4-.6.5-1.3.3-2v-.1l.1-.1c.5-.6.7-1.3.5-2v-.1l.1-.1c.5-.5.8-1.2.8-1.9v-.1h.1c.6-.4 1-1.1 1-1.8v-.1h.1c.6-.3 1.1-.9 1.2-1.6v-.1h.1c.7-.2 1.2-.8 1.5-1.5v-.1h.1c.7-.2 1.3-.6 1.6-1.2v-.1h.1c.7-.1 1.4-.4 1.8-1v-.1h.2c.7 0 1.3-.3 1.8-.8l.1-.1h.5c.6 0 1.1-.2 1.6-.6l.1-.1h.1c.2.1.5.1.7.1.4 0 .9-.1 1.4-.4m2.3-2.2h-.2l-.8.4h-.4l-.8-.4h-.2c-.1 0-.2 0-.2.1l-.8.5c-.1 0-.2.1-.2.1h-.1l-.9-.3h-.1c-.1 0-.2 0-.3.1l-.7.6c-.1.1-.2.1-.3.1h-.1l-.9-.2h-.1c-.1 0-.2.1-.3.1l-.8.7c-.1.1-.2.1-.3.1h-.9c-.1 0-.3.1-.4.2l-.5.8c-.1.1-.2.2-.3.2l-.9.1c-.2 0-.3.1-.4.2l-.4.8c-.1.1-.2.2-.3.2l-.9.2c-.1 0-.3.1-.3.3l-.3.9c0 .1-.1.2-.3.3l-.9.3c-.1.1-.3.2-.3.3l-.2.9c0 .1-.1.2-.2.3l-.8.4c-.1.1-.2.2-.2.4l-.1.9c0 .1-.1.3-.2.3l-.8.5c-.1.1-.2.2-.2.4v.9c0 .1 0 .3-.1.4l-.7.6c-.1.1-.2.3-.1.4l.2.9c0 .1 0 .3-.1.4l-.6.7c-.1.1-.1.3-.1.4l.3.9v.4l-.5.8c-.1.1-.1.3 0 .4l.4.8c.1.1.1.3 0 .4l-.4.8c-.1.1-.1.3 0 .4l.5.8c.1.1.1.2 0 .4l-.3.9c0 .1 0 .3.1.4l.6.7c.1.1.1.2.1.4l-.2.9c0 .2 0 .3.1.4l.7.6c.1.1.2.2.1.4v.9c0 .2.1.3.2.4l.8.5c.1.1.2.2.2.3l.1.9c0 .2.1.3.2.4l.8.4c.1.1.2.2.2.3l.2.9c0 .1.1.3.3.3l.9.3c.1 0 .2.1.3.3l.3.9c.1.1.2.3.3.3l.9.2c.1 0 .2.1.3.2l.4.8c.1.1.2.2.4.2l.9.1c.1 0 .3.1.3.2l.5.8c.1.1.2.2.4.2h.9c.1 0 .2.1.3.1l.6.7c.1.1.2.1.3.1h.1l.9-.2h.1c.1 0 .2 0 .3.1l.7.6c.1.1.2.1.3.1h.1l.9-.3h.1c.1 0 .2 0 .2.1l.8.5c.1 0 .2.1.2.1h.2l.8-.4h.4l.8.4h.2c.1 0 .2 0 .2-.1l.8-.5c.1 0 .2-.1.2-.1h.1l.9.3h.1c.1 0 .2 0 .3-.1l.7-.6c.1-.1.2-.1.3-.1h.1l.9.2h.1c.1 0 .2-.1.3-.1l.6-.7c.1-.1.2-.1.3-.1h.9c.1 0 .3-.1.4-.2l.5-.8c.1-.1.2-.2.3-.2l.9-.1c.2 0 .3-.1.4-.2l.4-.8c.1-.1.2-.2.3-.2l.9-.2c.1 0 .3-.1.3-.3l.3-.9c0-.1.1-.2.3-.3l.9-.3c.1-.1.3-.2.3-.3l.2-.9c0-.1.1-.2.2-.3l.8-.4c.1-.1.2-.2.2-.4l.1-.9c0-.1.1-.3.2-.3l.8-.5c.1-.1.2-.2.2-.4v-.9c0-.1 0-.3.1-.4l.7-.6c.1-.1.2-.3.1-.4l-.2-.9c0-.1 0-.3.1-.4l.6-.7c.1-.1.1-.3.1-.4l-.3-.9v-.4l.5-.8c.1-.1.1-.3 0-.4l-.4-.8c-.1-.1-.1-.3 0-.4l.4-.8c.1-.1.1-.3 0-.4l-.5-.8c-.1-.1-.1-.2 0-.4l.3-.9c0-.1 0-.3-.1-.4l-.6-.7c-.1-.1-.1-.2-.1-.4l.2-.9c0-.2 0-.3-.1-.4l-.7-.6c-.1-.1-.2-.2-.1-.4v-.9c0-.2-.1-.3-.2-.4l-.8-.5c-.1-.1-.2-.2-.2-.3l-.1-.9c0-.2-.1-.3-.2-.4l-.8-.4c-.1-.1-.2-.2-.2-.3l-.2-.9c0-.1-.1-.3-.3-.3l-.9-.3c-.1 0-.2-.1-.3-.3l-.3-.9c-.1-.1-.2-.3-.3-.3l-.9-.2c-.1 0-.2-.1-.3-.2l-.4-.8c-.1-.1-.2-.2-.4-.2l-.9-.1c-.1 0-.3-.1-.3-.2l-.5-.8c-.1-.1-.2-.2-.4-.2h-.9c-.1 0-.2-.1-.3-.1l-.6-.7c-.1-.1-.2-.1-.3-.1h-.1l-.9.2h-.1c-.1 0-.2 0-.3-.1l-.7-.6c-.1-.1-.2-.1-.3-.1h-.1l-.9.3h-.1c-.1 0-.2 0-.2-.1l-.8-.5c.1-.1.1-.1 0-.1z"
             id="NC55-5508-FCpath199"
             fill="#323232" /></g><g
           id="NC55-5508-FCg201"><circle
             class="NC55-5508-FCst10"
             cx="120"
             cy="713.2"
             r="17"
             id="NC55-5508-FCcircle203"
             fill="#d9d9d9" /></g><g
           id="NC55-5508-FCg205"><path
             class="NC55-5508-FCst12"
             id="NC55-5508-FCpolygon207"
             fill="#d9d9d9"
             stroke="#4d4d4d"
             stroke-width="1.815"
             stroke-miterlimit="10"
             d="M131.8 710.5h-9.1V696h-5.5v14.5h-9v5.4h9v14.6h5.5v-14.6h9.1z" /><g
             id="NC55-5508-FCg209"><g
               id="NC55-5508-FCg211"><path
                 class="NC55-5508-FCst13"
                 id="NC55-5508-FCrect213"
                 fill="#666"
                 d="M116.3 700.5h7.3v23.6h-7.3z" /></g><g
               id="NC55-5508-FCg215"><path
                 class="NC55-5508-FCst13"
                 id="NC55-5508-FCrect217"
                 fill="#666"
                 d="M107.2 709.6h25.4v7.3h-25.4z" /></g></g></g></g></g></g><text
     xml:space="preserve"
     style="font-style:normal;font-weight:normal;font-size:40px;line-height:1.25;font-family:sans-serif;fill:#000000;fill-opacity:1;stroke:none"
     x="305.78696"
     y="161.51823"
     id="text119"><tspan
       sodipodi:role="line"
       id="tspan117"
       x="305.78696"
       y="161.51823" /></text></svg>
