<?xml version="1.0" encoding="UTF-8" standalone="no"?>
<svg
   xmlns:dc="http://purl.org/dc/elements/1.1/"
   xmlns:cc="http://creativecommons.org/ns#"
   xmlns:rdf="http://www.w3.org/1999/02/22-rdf-syntax-ns#"
   xmlns:svg="http://www.w3.org/2000/svg"
   xmlns="http://www.w3.org/2000/svg"
   xmlns:sodipodi="http://sodipodi.sourceforge.net/DTD/sodipodi-0.dtd"
   xmlns:inkscape="http://www.inkscape.org/namespaces/inkscape"
   width="773"
   height="180"
   viewBox="0 0 773 180"
   version="1.1"
   id="svg358"
   sodipodi:docname="NC55-RP-E.svg"
   inkscape:version="1.0.1 (3bc2e813f5, 2020-09-07)">
  <metadata
     id="metadata364">
    <rdf:RDF>
      <cc:Work
         rdf:about="">
        <dc:format>image/svg+xml</dc:format>
        <dc:type
           rdf:resource="http://purl.org/dc/dcmitype/StillImage" />
      </cc:Work>
    </rdf:RDF>
  </metadata>
  <defs
     id="defs362" />
  <sodipodi:namedview
     pagecolor="#ffffff"
     bordercolor="#666666"
     borderopacity="1"
     objecttolerance="10"
     gridtolerance="10"
     guidetolerance="10"
     inkscape:pageopacity="0"
     inkscape:pageshadow="2"
     inkscape:window-width="1280"
     inkscape:window-height="658"
     id="namedview360"
     showgrid="false"
     inkscape:zoom="1.3479948"
     inkscape:cx="386.5"
     inkscape:cy="90"
     inkscape:window-x="-6"
     inkscape:window-y="-6"
     inkscape:window-maximized="1"
     inkscape:current-layer="svg358" />
  <path
     d="M52.2 179.5c-3 0-5.5-2.5-5.5-5.5V70.3H6c-3 0-5.5-2.5-5.5-5.5V15.9c0-3 2.5-5.5 5.5-5.5h40.7V4.1h10V.5H713v5h7.7c3 0 5.5 2.5 5.5 5.5v67.5H767c3 0 5.5 2.5 5.5 5.5v45.5c0 3-2.5 5.5-5.5 5.5h-12.9l-8.2 13.2h-43.6v31.3z"
     fill="#bfbfbf"
     id="path2" />
  <path
     d="M712.5 1v5h8.2c2.8 0 5 2.2 5 5v68H767c2.8 0 5 2.2 5 5v45.5c0 2.8-2.2 5-5 5h-13.2l-.3.5-7.9 12.7h-43.9V179H52.2c-2.8 0-5-2.2-5-5V69.8H6c-2.8 0-5-2.2-5-5V15.9c0-2.8 2.2-5 5-5h41.2V4.6h10V1h655.3m1-1H56.2v3.6h-10v6.3H6c-3.3 0-6 2.7-6 6v48.9c0 3.3 2.7 6 6 6h40.2V174c0 3.3 2.7 6 6 6h650.5v-31.3h43.4l8.2-13.2H767c3.3 0 6-2.7 6-6V84c0-3.3-2.7-6-6-6h-40.2V11c0-3.3-2.7-6-6-6h-7.2V0z"
     fill="#666"
     id="path4" />
  <path
     d="M630.8 16.3l-5.7 3.2v7.3l5.7 3.2zm-8.9 3.3l-6.5-3.2-5.7 3.2v7.3l5.7 3.2 6.5-3.2zm-15.4 0l-6.5-3.2-5.7 3.2v7.3l5.7 3.2 6.5-3.2zm-15.4 0l-6.5-3.2-5.7 3.2v7.3l5.7 3.2 6.5-3.2zm-15.4 0l-6.5-3.2-5.7 3.2v7.3l5.7 3.2 6.5-3.2zm-15.4 0l-6.5-3.2-5.7 3.2v7.3l5.7 3.2 6.5-3.2zm-15.4 0l-6.5-3.2-5.7 3.2v7.3l5.7 3.2 6.5-3.2zm-16.2 0l-5.7-3.2-5.7 3.2v7.3l5.7 3.2 5.7-3.2zm-15.4 0l-5.7-3.2-5.7 3.2v7.3l5.7 3.2 5.7-3.2zm-15.4 0l-5.7-3.2-5.7 3.2v7.3l5.7 3.2 5.7-3.2zm-15.4 0l-5.7-3.2-5.7 3.2v7.3l5.7 3.2 5.7-3.2zm-15.4 0l-5.7-3.2-5.7 3.2v7.3l5.7 3.2 5.7-3.2zm-15.4 0l-5.7-3.2-5.7 3.2v7.3l5.7 3.2 5.7-3.2zm-15.4 0l-5.7-3.2-5.7 3.2v7.3l5.7 3.2 5.7-3.2zm-15.4 0l-5.7-3.2-6.5 3.2v7.3l6.5 3.2 5.7-3.2zm-15.4 0l-5.7-3.2-6.5 3.2v7.3l6.5 3.2 5.7-3.2zm-15.4 0l-5.7-3.2-6.5 3.2v7.3l6.5 3.2 5.7-3.2zm-15.4 0l-5.7-3.2-6.5 3.2v7.3l6.5 3.2 5.7-3.2zm-15.4 0l-5.7-3.2-6.5 3.2v7.3l6.5 3.2 5.7-3.2zm-15.4 0l-5.7-3.2-6.5 3.2v7.3l6.5 3.2 5.7-3.2zm-15.4 0l-5.7-3.2-6.5 3.2v7.3l6.5 3.2 5.7-3.2zm-15.4 0l-5.7-3.2-6.5 3.2v7.3l6.5 3.2 5.7-3.2zm-15.4 0l-5.7-3.2-6.5 3.2v7.3l6.5 3.2 5.7-3.2zm-15.4 0l-5.7-3.2-6.5 3.2v7.3l6.5 3.2 5.7-3.2zm-15.4 0l-5.7-3.2-6.5 3.2v7.3l6.5 3.2 5.7-3.2zm-15.4 0l-5.7-3.2-6.5 3.2v7.3l6.5 3.2 5.7-3.2zm-15.4 0l-5.7-3.2-6.5 3.2v7.3l6.5 3.2 5.7-3.2zm-15.4 0l-5.7-3.2-6.5 3.2v7.3l6.5 3.2 5.7-3.2zm-15.4 0l-5.7-3.2-6.5 3.2v7.3l6.5 3.2 5.7-3.2zm423.9 14.6l-5.7-4.1-6.5 4.1v6.5l6.5 4.1 5.7-4.1zm-15.4 0l-5.7-4.1-6.5 4.1v6.5l6.5 4.1 5.7-4.1zm-15.4 0l-5.7-4.1-6.5 4.1v6.5l6.5 4.1 5.7-4.1zm-15.4 0l-5.7-4.1-6.5 4.1v6.5l6.5 4.1 5.7-4.1zm-15.4 0l-5.7-4.1-6.5 4.1v6.5l6.5 4.1 5.7-4.1zm-15.4 0l-6.5-4.1-5.7 4.1v6.5l5.7 4.1 6.5-4.1zm-15.4 0l-6.5-4.1-5.7 4.1v6.5l5.7 4.1 6.5-4.1zm-15.4 0l-6.5-4.1-5.7 4.1v6.5l5.7 4.1 6.5-4.1zm-15.4 0l-6.5-4.1-5.7 4.1v6.5l5.7 4.1 6.5-4.1zm-15.4 0l-6.5-4.1-5.7 4.1v6.5l5.7 4.1 6.5-4.1zm-15.4 0l-6.5-4.1-5.7 4.1v6.5l5.7 4.1 6.5-4.1zm-15.4 0l-6.5-4.1-5.7 4.1v6.5l5.7 4.1 6.5-4.1zm-15.4 0l-6.5-4.1-5.7 4.1v6.5l5.7 4.1 6.5-4.1zm-15.4 0l-6.5-4.1-5.7 4.1v6.5l5.7 4.1 6.5-4.1zm-15.4 0l-6.5-4.1-5.7 4.1v6.5l5.7 4.1 6.5-4.1zm-15.4 0l-6.5-4.1-5.7 4.1v6.5l5.7 4.1 6.5-4.1zm-15.4 0l-6.5-4.1-5.7 4.1v6.5l5.7 4.1 6.5-4.1zm-15.4 0l-6.5-4.1-5.7 4.1v6.5l5.7 4.1 6.5-4.1zm-15.4 0l-6.5-4.1-5.7 4.1v6.5l5.7 4.1 6.5-4.1zm-15.4 0l-6.5-4.1-5.7 4.1v6.5l5.7 4.1 6.5-4.1zm-15.4 0l-6.5-4.1-5.7 4.1v6.5l5.7 4.1 6.5-4.1zm-15.4 0l-6.5-4.1-5.7 4.1v6.5l5.7 4.1 6.5-4.1zm-15.4 0l-6.5-4.1-5.7 4.1v6.5l5.7 4.1 6.5-4.1zm-15.4 0l-6.5-4.1-5.7 4.1v6.5l5.7 4.1 6.5-4.1zm-16.2 0l-5.7-4.1-5.7 4.1v6.5l5.7 4.1 5.7-4.1zm-15.4 0l-5.7-4.1-5.7 4.1v6.5l5.7 4.1 5.7-4.1zm-15.5 0l-5.7-4.1-5.7 4.1v6.5l5.7 4.1 5.7-4.1zm-15.4 0l-5.7-4.1-5.7 4.1v6.5l5.7 4.1 5.7-4.1zm418.3 10.5l-5.7 3.2v7.3l5.7 3.2zm-8.9 3.3l-6.5-3.2-5.7 3.2v7.3l5.7 3.2 6.5-3.2zm-15.4 0l-6.5-3.2-5.7 3.2v7.3l5.7 3.2 6.5-3.2zm-15.4 0l-6.5-3.2-5.7 3.2v7.3l5.7 3.2 6.5-3.2zm-15.4 0l-6.5-3.2-5.7 3.2v7.3l5.7 3.2 6.5-3.2zm-15.4 0l-6.5-3.2-5.7 3.2v7.3l5.7 3.2 6.5-3.2zm-15.4 0l-6.5-3.2-5.7 3.2v7.3l5.7 3.2 6.5-3.2zm-16.2 0l-5.7-3.2-5.7 3.2v7.3l5.7 3.2 5.7-3.2zm-15.4 0l-5.7-3.2-5.7 3.2v7.3l5.7 3.2 5.7-3.2zm-15.4 0l-5.7-3.2-5.7 3.2v7.3l5.7 3.2 5.7-3.2zm-15.4 0l-5.7-3.2-5.7 3.2v7.3l5.7 3.2 5.7-3.2zm-15.4 0l-5.7-3.2-5.7 3.2v7.3l5.7 3.2 5.7-3.2zm-15.4 0l-5.7-3.2-5.7 3.2v7.3l5.7 3.2 5.7-3.2zm-15.4 0l-5.7-3.2-5.7 3.2v7.3l5.7 3.2 5.7-3.2zm-15.4 0l-5.7-3.2-6.5 3.2v7.3l6.5 3.2 5.7-3.2zm-15.4 0l-5.7-3.2-6.5 3.2v7.3l6.5 3.2 5.7-3.2zm-15.4 0l-5.7-3.2-6.5 3.2v7.3l6.5 3.2 5.7-3.2zm-15.4 0l-5.7-3.2-6.5 3.2v7.3l6.5 3.2 5.7-3.2zm-15.4 0l-5.7-3.2-6.5 3.2v7.3l6.5 3.2 5.7-3.2zm-15.4 0l-5.7-3.2-6.5 3.2v7.3l6.5 3.2 5.7-3.2zm-15.4 0l-5.7-3.2-6.5 3.2v7.3l6.5 3.2 5.7-3.2zm-15.4 0l-5.7-3.2-6.5 3.2v7.3l6.5 3.2 5.7-3.2zm-15.4 0l-5.7-3.2-6.5 3.2v7.3l6.5 3.2 5.7-3.2zm-15.4 0l-5.7-3.2-6.5 3.2v7.3l6.5 3.2 5.7-3.2zm-15.4 0l-5.7-3.2-6.5 3.2v7.3l6.5 3.2 5.7-3.2zm-15.4 0l-5.7-3.2-6.5 3.2v7.3l6.5 3.2 5.7-3.2zm-15.4 0l-5.7-3.2-6.5 3.2v7.3l6.5 3.2 5.7-3.2zm-15.4 0l-5.7-3.2-6.5 3.2v7.3l6.5 3.2 5.7-3.2zm-15.4 0l-5.7-3.2-6.5 3.2v7.3l6.5 3.2 5.7-3.2zm423.9 14.6l-5.7-3.2-6.5 3.2V69l6.5 4.1 5.7-4.1zm-15.4 0l-5.7-3.2-6.5 3.2V69l6.5 4.1 5.7-4.1zm-15.4 0l-5.7-3.2-6.5 3.2V69l6.5 4.1 5.7-4.1zm-15.4 0l-5.7-3.2-6.5 3.2V69l6.5 4.1L583 69zm-15.4 0l-5.7-3.2-6.5 3.2V69l6.5 4.1 5.7-4.1zm-15.4 0l-5.7-3.2-6.5 3.2V69l6.5 4.1 5.7-4.1zm-15.4 0l-5.7-3.2-6.5 3.2V69l6.5 4.1 5.7-4.1zm-15.4 0l-5.7-3.2-6.5 3.2V69l6.5 4.1 5.7-4.1zm-15.4 0l-5.7-3.2-6.5 3.2V69l6.5 4.1L506 69zm-15.4 0l-5.7-3.2-6.5 3.2V69l6.5 4.1 5.7-4.1zm-15.4 0l-5.7-3.2-6.5 3.2V69l6.5 4.1 5.7-4.1zm-15.4 0l-5.7-3.2-6.5 3.2V69l6.5 4.1 5.7-4.1zm-15.4 0l-5.7-3.2-6.5 3.2V69l6.5 4.1 5.7-4.1zm-15.4 0l-5.7-3.2-6.5 3.2V69l6.5 4.1L429 69zm-15.4 0l-6.5-3.2-5.7 3.2V69l5.7 4.1 6.5-4.1zm-15.4 0l-6.5-3.2-5.7 3.2V69l5.7 4.1 6.5-4.1zm-15.4 0l-6.5-3.2-5.7 3.2V69l5.7 4.1 6.5-4.1zm-15.4 0l-6.5-3.2-5.7 3.2V69l5.7 4.1 6.5-4.1zm-15.4 0l-6.5-3.2-5.7 3.2V69l5.7 4.1L352 69zm-15.4 0l-6.5-3.2-5.7 3.2V69l5.7 4.1 6.5-4.1zm-15.4 0l-6.5-3.2-5.7 3.2V69l5.7 4.1 6.5-4.1zm-15.4 0l-6.5-3.2-5.7 3.2V69l5.7 4.1 6.5-4.1zm-15.4 0l-6.5-3.2-5.7 3.2V69l5.7 4.1 6.5-4.1zm-15.4 0l-6.5-3.2-5.7 3.2V69l5.7 4.1L275 69zm-15.4 0l-6.5-3.2-5.7 3.2V69l5.7 4.1 6.5-4.1zm-15.4 0l-6.5-3.2-5.7 3.2V69l5.7 4.1 6.5-4.1zm-15.4 0l-6.5-3.2-5.7 3.2V69l5.7 4.1 6.5-4.1zm-15.4 0l-6.5-3.2-5.7 3.2V69l5.7 4.1 6.5-4.1zm407.7 14.5l-6.5-4.1-5.7 4.1v6.5l5.7 3.2 6.5-3.2zm-15.4 0l-6.5-4.1-5.7 4.1v6.5l5.7 3.2 6.5-3.2zm-15.4 0l-6.5-4.1-5.7 4.1v6.5l5.7 3.2 6.5-3.2zm-15.4 0l-6.5-4.1-5.7 4.1v6.5l5.7 3.2 6.5-3.2zm-15.4 0L553 73l-5.7 4.1v6.5l5.7 3.2 6.5-3.2zm-15.4 0l-6.5-4.1-5.7 4.1v6.5l5.7 3.2 6.5-3.2zm-15.4 0l-6.5-4.1-5.7 4.1v6.5l5.7 3.2 6.5-3.2zm-15.4 0l-6.5-4.1-5.7 4.1v6.5l5.7 3.2 6.5-3.2zm-15.4 0l-6.5-4.1-5.7 4.1v6.5l5.7 3.2 6.5-3.2zm-15.4 0L476 73l-5.7 4.1v6.5l5.7 3.2 6.5-3.2zm-15.4 0l-6.5-4.1-5.7 4.1v6.5l5.7 3.2 6.5-3.2zm-15.4 0l-6.5-4.1-5.7 4.1v6.5l5.7 3.2 6.5-3.2zm-15.4 0l-6.5-4.1-5.7 4.1v6.5l5.7 3.2 6.5-3.2zm-15.4 0l-6.5-4.1-5.7 4.1v6.5l5.7 3.2 6.5-3.2zm-15.4 0L399 73l-5.7 4.1v6.5l5.7 3.2 6.5-3.2zm-15.4 0l-6.5-4.1-5.7 4.1v6.5l5.7 3.2 6.5-3.2zm-15.4 0l-6.5-4.1-5.7 4.1v6.5l5.7 3.2 6.5-3.2zm-16.2 0l-5.7-4.1-5.7 4.1v6.5l5.7 3.2 5.7-3.2zm-15.4 0l-5.7-4.1-5.7 4.1v6.5l5.7 3.2 5.7-3.2zm-15.4 0L322 73l-5.7 4.1v6.5l5.7 3.2 5.7-3.2zm-15.4 0l-5.7-4.1-5.7 4.1v6.5l5.7 3.2 5.7-3.2zm-15.5 0l-5.7-4.1-5.7 4.1v6.5l5.7 3.2 5.7-3.2zm-15.4 0l-5.7-4.1-5.7 4.1v6.5l5.7 3.2 5.7-3.2zm-15.1 0l-5.7-4.1-5.7 4.1v6.5l5.7 3.2 5.7-3.2zm-15.4 0l-5.7-4.1-5.7 4.1v6.5l5.7 3.2 5.7-3.2zm-15.4 0l-5.7-4.1-5.7 4.1v6.5l5.7 3.2 5.7-3.2zm-15.4 0l-5.7-4.1-5.7 4.1v6.5l5.7 3.2 5.7-3.2zm-14.6 0l-5.7-4.1-5.7 4.1v6.5l5.7 3.2 5.7-3.2zM613 90.9l-6.5-3.2-5.7 3.2v7.3l5.7 3.2 6.5-3.2zm-15.4 0l-6.5-3.2-5.7 3.2v7.3l5.7 3.2 6.5-3.2zm-15.4 0l-6.5-3.2-5.7 3.2v7.3l5.7 3.2 6.5-3.2zm-15.4 0l-6.5-3.2-5.7 3.2v7.3l5.7 3.2 6.5-3.2zm-15.4 0l-6.5-3.2-5.7 3.2v7.3l5.7 3.2 6.5-3.2zm-15.4 0l-6.5-3.2-5.7 3.2v7.3l5.7 3.2 6.5-3.2zm-15.4 0l-6.5-3.2-5.7 3.2v7.3l5.7 3.2 6.5-3.2zm-15.4 0l-6.5-3.2-5.7 3.2v7.3l5.7 3.2 6.5-3.2zm-15.4 0l-6.5-3.2-5.7 3.2v7.3l5.7 3.2 6.5-3.2zm-15.4 0l-6.5-3.2-5.7 3.2v7.3l5.7 3.2 6.5-3.2zm-15.4 0l-6.5-3.2-5.7 3.2v7.3l5.7 3.2 6.5-3.2zm-15.4 0l-6.5-3.2-5.7 3.2v7.3l5.7 3.2 6.5-3.2zm-15.4 0l-6.5-3.2-5.7 3.2v7.3l5.7 3.2 6.5-3.2zm-15.4 0l-6.5-3.2-5.7 3.2v7.3l5.7 3.2 6.5-3.2zm-15.4 0l-6.5-3.2-5.7 3.2v7.3l5.7 3.2 6.5-3.2zm-16.2 0l-5.7-3.2-5.7 3.2v7.3l5.7 3.2 5.7-3.2zm-15.4 0l-5.7-3.2-5.7 3.2v7.3l5.7 3.2 5.7-3.2zm-15.5 0l-5.7-3.2-5.7 3.2v7.3l5.7 3.2 5.7-3.2zm-15.4 0l-5.7-3.2-5.7 3.2v7.3l5.7 3.2 5.7-3.2zm-15.4 0l-5.7-3.2-5.7 3.2v7.3l5.7 3.2 5.7-3.2zm-15.4 0l-5.7-3.2-5.7 3.2v7.3l5.7 3.2 5.7-3.2zm-15.4 0l-5.7-3.2-5.7 3.2v7.3l5.7 3.2 5.7-3.2zM97.4 46.3l-5.7-4.1-5.7 4.1v6.5l5.7 3.2 5.7-3.2zm-15.4 0l-5.7-4.1-5.7 4.1v6.5l5.7 3.2 5.7-3.2zm23.5-14.6L99 28.5l-5.7 3.2V39l5.7 3.2 6.5-3.2zm-15.4 0l-6.5-3.2-5.6 3.2V39l5.7 3.2 6.5-3.2v-7.3zm-15.4 0l-6.5-3.2-5.7 3.2V39l5.7 3.2 6.5-3.2zM97.4 74l-5.6-4-5.7 4v6.5l5.7 3.2 5.7-3.2V74zM82 74l-5.6-4-5.7 4v6.5l5.7 3.2 5.7-3.2V74zm23.5-14.6L99 56.2l-5.7 3.2v7.3l5.7 3.2 6.5-3.2zm-15.4 0l-6.5-3.2-5.6 3.2v7.3l5.7 3.2 6.5-3.2v-7.3zm-15.4 0l-6.5-3.2-5.7 3.2v7.3l5.7 3.2 6.5-3.2zm22.7-42.2L91.7 14 86 17.2v7.3l5.7 3.2 5.7-3.2zm-15.4 0L76.3 14l-5.7 3.2v7.3l5.7 3.2 5.7-3.2z"
     clip-rule="evenodd"
     fill-rule="evenodd"
     id="path6" />
  <path
     clip-rule="evenodd"
     fill="#e6e6e6"
     fill-rule="evenodd"
     d="M48.4 6h674v3h-674z"
     id="path8" />
  <path
     d="M57.3 172.7c-.8 0-1.5-.7-1.5-1.5V88.5c0-.8.7-1.5 1.5-1.5h43.4c.3 0 .5-.2.5-.5V10.3c0-.8.7-1.5 1.5-1.5h90.1c.8 0 1.5.7 1.5 1.5v74c0 2.5 2 4.5 4.5 4.5h273.9c2.5 0 4.5-2 4.5-4.5v-50c0-1.9 1.6-3.5 3.5-3.5h93.4c1.9 0 3.5 1.6 3.5 3.5v49.9c0 2.5 2 4.5 4.5 4.5h36.5c1.4 0 2.5 1.1 2.5 2.5v2.1c0 3.1 2.5 5.5 5.5 5.5h84.7c1.9 0 3.5 1.6 3.5 3.5v35.3c0 1.9-1.6 3.5-3.5 3.5h-17.1c-.3 0-.5.2-.5.5V171c0 .8-.7 1.5-1.5 1.5H57.3z"
     fill="#ccc"
     id="path10" />
  <path
     d="M192.9 9.2c.6 0 1 .5 1 1v74c0 2.8 2.2 5 5 5h273.9c2.8 0 5-2.3 5-5V34.3c0-1.7 1.3-3 3-3h93.4c1.7 0 3 1.4 3 3v49.9c0 2.8 2.2 5 5 5h36.5c1.1 0 2 .9 2 2v2.1c0 3.3 2.7 6 6 6h84.7c1.7 0 3 1.4 3 3v35.3c0 1.7-1.3 3-3 3h-17.1c-.6 0-1 .4-1 1V171c0 .6-.4 1-1 1h-635c-.6 0-1-.5-1-1V88.5c0-.6.4-1 1-1h43.4c.6 0 1-.4 1-1V10.3c0-.6.4-1 1-1h90.2m0-1.1h-90.1c-1.1 0-2 .9-2 2v76.2H57.3c-1.1 0-2 .9-2 2v82.7c0 1.1.9 2 2 2h635c1.1 0 2-.9 2-2v-29.4h17.1c2.2 0 4-1.8 4-4v-35.3c0-2.2-1.8-4-4-4h-84.7c-2.8 0-5-2.3-5-5v-2.1c0-1.7-1.3-3-3-3h-36.5c-2.2 0-4-1.8-4-4v-50c0-2.2-1.8-4-4-4h-93.4c-2.2 0-4 1.8-4 4v49.9c0 2.2-1.8 4-4 4H198.9c-2.2 0-4-1.8-4-4v-74c0-1.1-.9-2-2-2z"
     fill="#7f7f7f"
     id="path12" />
  <path
     clip-rule="evenodd"
     fill="#ccc"
     fill-rule="evenodd"
     d="M57.5 1h655v5h-655zM48.4 174.1h652.2v4H48.4z"
     id="path14" />
  <path
     clip-rule="evenodd"
     fill-rule="evenodd"
     d="M115.3 26.1h68.9v121.6h-68.9z"
     id="path16" />
  <path
     fill="none"
     stroke="gray"
     stroke-width=".811"
     stroke-linecap="round"
     stroke-linejoin="round"
     stroke-miterlimit="10"
     d="M184.2 26.1h-68.9v121.6h68.9z"
     id="path18" />
  <path
     d="M180.1 146h-60.8s-.8-.8-.8-1.6V30.1c0-.8.8-1.6.8-1.6h60.8c.8 0 .8.8.8 1.6v114.3c0 .8 0 1.6-.8 1.6z"
     clip-rule="evenodd"
     fill="#fff"
     fill-rule="evenodd"
     id="path20" />
  <path
     d="M180.1 146h-60.8s-.8-.8-.8-1.6V30.1c0-.8.8-1.6.8-1.6h60.8c.8 0 .8.8.8 1.6v114.3c0 .8 0 1.6-.8 1.6z"
     fill="none"
     stroke="gray"
     stroke-width=".811"
     stroke-linecap="round"
     stroke-linejoin="round"
     stroke-miterlimit="10"
     id="path22" />
  <path
     d="M159 30.1v2.4c0 .8.8 1.6.8 1.6h2.4c.8 0 .8 0 .8.8v4.9l.8.8h10.5s.8 0 .8.8v26.7c0 .8-.8 1.6-.8 1.6h-48.6c-.8 0-.8-.8-.8-1.6V41.5c0-.8 0-.8.8-.8h9.7c.8 0 1.6-.8 1.6-.8V35c0-.8 0-.8.8-.8h1.6c.8 0 .8-.8.8-1.6v-2.4H159z"
     data-cv-id="PORT-0"
     clip-rule="evenodd"
     fill="#262626"
     fill-rule="evenodd"
     id="path24" />
  <path
     clip-rule="evenodd"
     fill="#856427"
     fill-rule="evenodd"
     d="M162.3 63.4h2.4v4.9h-2.4zM158.2 63.4h2.4v4.9h-2.4zM150.9 63.4h2.4v4.9h-2.4zM154.2 63.4h2.4v4.9h-2.4zM146.9 63.4h2.4v4.9h-2.4zM142.8 63.4h2.4v4.9h-2.4zM138.8 63.4h2.4v4.9h-2.4zM135.5 63.4h2.4v4.9h-2.4z"
     id="path26" />
  <path
     d="M124.2 105.5h51.1c.8 0 2.4-1.6 2.4-2.4V80.4c0-1.6-1.6-2.4-2.4-2.4h-51.1c-1.6 0-2.4.8-2.4 2.4v22.7c0 .8.8 2.4 2.4 2.4z"
     clip-rule="evenodd"
     fill="#1a1a1a"
     fill-rule="evenodd"
     id="path28" />
  <path
     d="M124.2 105.5h51.1c.8 0 2.4-1.6 2.4-2.4V80.4c0-1.6-1.6-2.4-2.4-2.4h-51.1c-1.6 0-2.4.8-2.4 2.4v22.7c0 .8.8 2.4 2.4 2.4z"
     fill="none"
     stroke="#d8d8d8"
     stroke-width=".811"
     stroke-linecap="round"
     stroke-linejoin="round"
     stroke-miterlimit="10"
     id="path30" />
  <path
     d="M172 78.8h-44.6c-1.6 0-1.6 1.6-1.6 2.4v1.6h-2.4v17h2.4v1.6c0 1.6 0 2.4 1.6 2.4H172c1.6 0 2.4-.8 2.4-2.4v-1.6h1.6v-17h-1.6v-1.6c0-.8-.8-2.4-2.4-2.4z"
     clip-rule="evenodd"
     fill="#d8d8d8"
     fill-rule="evenodd"
     id="path32" />
  <path
     d="M172 78.8h-44.6c-1.6 0-1.6 1.6-1.6 2.4v1.6h-2.4v17h2.4v1.6c0 1.6 0 2.4 1.6 2.4H172c1.6 0 2.4-.8 2.4-2.4v0-1.6h1.6v-17h-1.6v-1.6c0-.8-.8-2.4-2.4-2.4z"
     fill="none"
     stroke="#7f7f7f"
     stroke-width=".811"
     stroke-linecap="round"
     stroke-linejoin="round"
     stroke-miterlimit="10"
     id="path34" />
  <path
     d="M144.5 82.8h-18.6v17s0 .8.8.8h46.2c.8 0 1.6-.8 1.6-.8v-17h-1.6z"
     clip-rule="evenodd"
     fill="#333"
     fill-rule="evenodd"
     id="path36" />
  <path
     d="M133.1 92.5h2.4v-1.6h-2.4zm9.7 0h3.2v-1.6h-3.2zm11.4 0h2.4v-1.6h-2.4zm9.7 0h3.2v-1.6h-3.2z"
     clip-rule="evenodd"
     fill="#e6a835"
     fill-rule="evenodd"
     id="path38" />
  <path
     clip-rule="evenodd"
     fill="#666"
     fill-rule="evenodd"
     d="M171.2 85.2h-42.1v5.7h42.1z"
     id="path40" />
  <path
     fill="none"
     stroke="#7f7f7f"
     stroke-width=".811"
     stroke-linecap="round"
     stroke-linejoin="round"
     stroke-miterlimit="10"
     d="M171.2 85.2h-42.1v5.7h42.1z"
     id="path42" />
  <path
     d="M124.2 143.6h51.1c.8 0 2.4-1.6 2.4-2.4v-22.7c0-1.6-1.6-2.4-2.4-2.4h-51.1c-1.6 0-2.4.8-2.4 2.4v22.7c0 .8.8 2.4 2.4 2.4z"
     clip-rule="evenodd"
     fill="#1a1a1a"
     fill-rule="evenodd"
     id="path44" />
  <path
     d="M124.2 143.6h51.1c.8 0 2.4-1.6 2.4-2.4v-22.7c0-1.6-1.6-2.4-2.4-2.4h-51.1c-1.6 0-2.4.8-2.4 2.4v22.7c0 .8.8 2.4 2.4 2.4z"
     fill="none"
     stroke="#d8d8d8"
     stroke-width=".811"
     stroke-linecap="round"
     stroke-linejoin="round"
     stroke-miterlimit="10"
     id="path46" />
  <path
     d="M172 116.9h-44.6c-1.6 0-1.6 1.6-1.6 2.4v1.6h-2.4v17h2.4v1.6c0 1.6 0 2.4 1.6 2.4H172c1.6 0 2.4-.8 2.4-2.4v-1.6h1.6v-17h-1.6v-1.6c0-.8-.8-2.4-2.4-2.4z"
     clip-rule="evenodd"
     fill="#d8d8d8"
     fill-rule="evenodd"
     id="path48" />
  <path
     d="M172 116.9h-44.6c-1.6 0-1.6 1.6-1.6 2.4v1.6h-2.4v17h2.4v1.6c0 1.6 0 2.4 1.6 2.4H172c1.6 0 2.4-.8 2.4-2.4v0-1.6h1.6v-17h-1.6v-1.6c0-.8-.8-2.4-2.4-2.4z"
     fill="none"
     stroke="#7f7f7f"
     stroke-width=".811"
     stroke-linecap="round"
     stroke-linejoin="round"
     stroke-miterlimit="10"
     id="path50" />
  <path
     d="M144.5 120.9h-18.6v17s0 .8.8.8h46.2c.8 0 1.6-.8 1.6-.8v-17h-1.6z"
     clip-rule="evenodd"
     fill="#333"
     fill-rule="evenodd"
     id="path52" />
  <path
     d="M133.1 130.6h2.4V129h-2.4zm9.7 0h3.2V129h-3.2zm11.4 0h2.4V129h-2.4zm9.7 0h3.2V129h-3.2z"
     clip-rule="evenodd"
     fill="#e6a835"
     fill-rule="evenodd"
     id="path54" />
  <path
     clip-rule="evenodd"
     fill="#666"
     fill-rule="evenodd"
     d="M171.2 123.3h-42.1v5.7h42.1z"
     id="path56" />
  <path
     fill="none"
     stroke="#7f7f7f"
     stroke-width=".811"
     stroke-linecap="round"
     stroke-linejoin="round"
     stroke-miterlimit="10"
     d="M171.2 123.3h-42.1v5.7h42.1z"
     id="path58" />
  <path
     d="M131.5 75.5H168c1.6-.8 1.6-2.4.8-3.2l-.8-.8h-35.7c-1.6.8-2.4 2.4-1.6 3.2z"
     clip-rule="evenodd"
     fill="#ccc"
     fill-rule="evenodd"
     id="path60" />
  <path
     d="M116.1 122.5H111m21.3 32.7H111V91.7h5.1M183.4 122.5h4.1m-20.3 32.7h21.3V91.7h-5.1"
     fill="none"
     stroke="#000"
     stroke-linecap="square"
     stroke-miterlimit="2"
     id="path62" />
  <g
     clip-rule="evenodd"
     fill-rule="evenodd"
     id="g80">
    <path
       fill="#ccc"
       d="M263.54 149.53h-68v-57.2h68z"
       id="path64" />
    <path
       fill="#1a1a1a"
       d="M262.14 148.03h-65.1v-54.3h65.1z"
       id="path66" />
    <path
       d="M199.7 104.7c.5 0 1 .4 1 1 0 .5-1.4 1-1.9 1v9.8c.5 0 1.9.4 1.9 1 0 .5-.4 1-1 1v5.9c.5 0 1 .4 1 1 0 .5-1.4 1-1.9 1v10c.5 0 1.9.4 1.9 1 0 .5-.4 1-1 1v7.9c0 .5.4 1 1 1H211v-.1c0-.5.4-1 1-1 .5 0 1 .4 1 1v.1h10v-.1c0-.5.4-1 1-1 .5 0 1 .4 1 1v.1h9.6v-.1c0-.5.4-1 1-1 .5 0 1 .4 1 1v.1h10v-.1c0-.5.4-1 1-1 .5 0 1 .4 1 1v.1h10.3c.5 0 1-.4 1-1v-8c-.5-.1-.8-.4-.8-.9s1.3-.9 1.8-.9v-10.1c-.5-.1-1.8-.4-1.8-.9s.4-.9.8-.9v-5.9c-.5-.1-.8-.4-.8-.9s1.3-.9 1.8-.9v-9.8c-.5-.1-1.8-.4-1.8-.9s.4-.9.8-.9v-8c0-1.1-.9-1.9-1.9-1.9h-7.3c-.1.4-.5.6-.9.6s-.8-.3-.9-.6h-37.8c-.1.4-.5.6-.9.6s-.8-.3-.9-.6h-7.4c-1.1 0-1.9.9-1.9 1.9l-.3 7.4c-.1 0-.1 0 0 0z"
       fill="#ccc"
       id="path68" />
    <path
       data-cv-id="PORT-MGMT"
       fill="#1a1a1a"
       d="M205.9 136.9h47.3v-28h2.6v-9.8h-15.5v-3.2h-21.5v3.2h-15.5v9.8h2.6z"
       id="path70" />
    <g
       fill="#ccc"
       id="g74">
      <path
         d="M244.1 99.9h11.2v3.7c0 1.1-.9 1.9-1.9 1.9H246c-1.1 0-1.9-.9-1.9-1.9zM203.9 99.9h11.2v3.7c0 1.1-.9 1.9-1.9 1.9h-7.4c-1.1 0-1.9-.9-1.9-1.9z"
         id="path72" />
    </g>
    <g
       fill="#856427"
       id="g78">
      <path
         d="M213.9 130.3h1.6v4.9h-1.6zM218 130.3h1.6v4.9H218zM226.3 130.3h1.6v4.9h-1.6zM222.2 130.3h1.6v4.9h-1.6zM230.4 130.3h2.5v4.9h-2.5zM234.5 130.3h2.5v4.9h-2.5zM237.8 130.3h3.3v4.9h-3.3zM241.9 130.3h3.3v4.9h-3.3z"
         id="path76" />
    </g>
  </g>
  <path
     d="M679.6 50.4h-30.2c-2.2 0-4-1.8-4-4V28.3c0-2.2 1.8-4 4-4h30.2c2.2 0 4 1.8 4 4v18.2c0 2.1-1.8 3.9-4 3.9z"
     clip-rule="evenodd"
     fill="#d8d8d8"
     fill-rule="evenodd"
     id="path82" />
  <circle
     cx="708.2"
     cy="52.8"
     r="9.5"
     fill="#b3b3b3"
     id="circle84" />
  <path
     d="M708.2 43.8c5 0 9 4 9 9s-4 9-9 9-9-4-9-9 4.1-9 9-9m0-1c-5.5 0-10 4.5-10 10s4.5 10 10 10 10-4.5 10-10-4.5-10-10-10z"
     fill="#999"
     id="path86" />
  <circle
     cx="708.2"
     cy="52.8"
     r="3.5"
     id="circle88" />
  <path
     d="M708.2 49.8c1.7 0 3 1.3 3 3s-1.3 3-3 3-3-1.3-3-3 1.4-3 3-3m0-1c-2.2 0-4 1.8-4 4s1.8 4 4 4 4-1.8 4-4-1.8-4-4-4z"
     fill="#ccc"
     id="path90" />
  <circle
     cx="97.5"
     cy="97.3"
     r="4.5"
     fill="#333"
     id="circle92" />
  <path
     d="M97.5 93.3c2.2 0 4 1.8 4 4s-1.8 4-4 4-4-1.8-4-4 1.8-4 4-4m0-1c-2.8 0-5 2.2-5 5s2.2 5 5 5 5-2.2 5-5-2.2-5-5-5z"
     fill="#e6e6e6"
     id="path94" />
  <circle
     cx="98"
     cy="112.8"
     r="4.5"
     fill="#333"
     id="circle96" />
  <path
     d="M98 108.8c2.2 0 4 1.8 4 4s-1.8 4-4 4-4-1.8-4-4 1.8-4 4-4m0-1c-2.8 0-5 2.2-5 5s2.2 5 5 5 5-2.2 5-5-2.2-5-5-5z"
     fill="#e6e6e6"
     id="path98" />
  <circle
     cx="98"
     cy="129.8"
     r="4.5"
     fill="#333"
     id="circle100" />
  <path
     d="M98 125.8c2.2 0 4 1.8 4 4s-1.8 4-4 4-4-1.8-4-4 1.8-4 4-4m0-1c-2.8 0-5 2.2-5 5s2.2 5 5 5 5-2.2 5-5c0-2.7-2.2-5-5-5z"
     fill="#e6e6e6"
     id="path102" />
  <path
     d="M68.3 101.8h-1.7l-.7-1.8h-3.1l-.6 1.8h-1.7l3.1-7.9h1.7zm-3-3.1l-1.1-2.9-1.1 2.9zM70.6 101.8v-6.5h-2.3V94h6.3v1.3h-2.3v6.5zM77.9 101.8v-6.5h-2.3V94h6.3v1.3h-2.3v6.5zM83.4 101.8V94h1.5l3.2 5.3V94h1.5v7.9H88l-3.2-5.1v5.1h-1.4zM68.4 115.3l1.5-.2c.1.5.3.9.6 1.1.3.2.7.4 1.2.4s.9-.1 1.2-.3c.3-.2.4-.5.4-.8 0-.2-.1-.3-.2-.5-.1-.1-.3-.2-.6-.3-.2-.1-.6-.2-1.3-.3-.9-.2-1.5-.5-1.8-.8-.5-.4-.7-1-.7-1.6 0-.4.1-.8.3-1.1.2-.3.6-.6 1-.8.4-.2.9-.3 1.5-.3 1 0 1.7.2 2.2.6.5.4.8 1 .8 1.7l-1.6.1c-.1-.4-.2-.7-.4-.9-.2-.2-.6-.3-1-.3-.5 0-.8.1-1.1.3-.2.1-.3.3-.3.5s.1.3.2.5c.2.2.7.3 1.5.5s1.3.4 1.7.6c.4.2.7.5.9.8.2.3.3.8.3 1.3s-.1.9-.4 1.3c-.3.4-.6.7-1.1.9-.5.2-1 .3-1.7.3-1 0-1.8-.2-2.3-.7-.5-.5-.7-1.1-.8-2zM78.5 117.8v-6.5h-2.3V110h6.3v1.3h-2.3v6.5zM83.6 115.3l1.5-.2c.1.5.3.9.6 1.1.3.2.7.4 1.2.4s.9-.1 1.2-.3c.3-.2.4-.5.4-.8 0-.2-.1-.3-.2-.5-.1-.1-.3-.2-.6-.3-.2-.1-.6-.2-1.3-.3-.9-.2-1.5-.5-1.8-.8-.5-.4-.7-1-.7-1.6 0-.4.1-.8.3-1.1.2-.3.6-.6 1-.8.4-.2.9-.3 1.5-.3 1 0 1.7.2 2.2.6.5.4.8 1 .8 1.7l-1.6.1c-.1-.4-.2-.7-.4-.9-.2-.2-.6-.3-1-.3-.5 0-.8.1-1.1.3-.2.1-.3.3-.3.5s.1.3.2.5c.2.2.7.3 1.5.5s1.3.4 1.7.6c.4.2.7.5.9.8.2.3.3.8.3 1.3s-.1.9-.4 1.3c-.3.4-.6.7-1.1.9-.5.2-1 .3-1.7.3-1 0-1.8-.2-2.3-.7-.5-.5-.7-1.1-.8-2zM74.7 134.8H73l-.7-1.8h-3.1l-.6 1.8h-1.7l3.1-7.9h1.7zm-2.9-3.1l-1.1-2.9-1.1 2.9zM81.1 132l1.5.5c-.2.9-.6 1.5-1.2 1.9-.5.4-1.2.6-2.1.6-1 0-1.9-.4-2.6-1.1-.7-.7-1-1.7-1-2.9 0-1.3.3-2.3 1-3.1.7-.7 1.6-1.1 2.7-1.1 1 0 1.7.3 2.3.9.4.3.6.8.8 1.5l-1.6.4c-.1-.4-.3-.7-.6-1-.3-.2-.7-.4-1.1-.4-.6 0-1.1.2-1.4.6-.4.4-.5 1.1-.5 2 0 1 .2 1.7.5 2.1.3.4.8.6 1.4.6.4 0 .8-.1 1.1-.4.5-.1.7-.6.8-1.1zM86.4 134.8v-6.5H84V127h6.3v1.3H88v6.5z"
     id="path104" />
  <g
     id="g108">
    <path
       d="M61.4 170.6v-9.3h1.3l4.9 7.3v-7.3h1.2v9.3h-1.3l-4.9-7.3v7.3zM77.4 167.4l1.2.3c-.3 1-.7 1.8-1.4 2.3-.7.5-1.5.8-2.5.8s-1.8-.2-2.4-.6c-.6-.4-1.1-1-1.4-1.8-.3-.8-.5-1.6-.5-2.5 0-1 .2-1.8.6-2.5.4-.7.9-1.3 1.6-1.6.7-.4 1.4-.6 2.3-.6.9 0 1.7.2 2.3.7.6.5 1.1 1.1 1.3 2l-1.2.3c-.2-.7-.5-1.2-.9-1.5-.4-.3-.9-.5-1.5-.5-.7 0-1.3.2-1.8.5s-.8.8-1 1.4c-.2.6-.3 1.2-.3 1.8 0 .8.1 1.5.3 2.1.2.6.6 1 1.1 1.3.5.3 1 .4 1.6.4.7 0 1.3-.2 1.8-.6.3-.4.6-1 .8-1.7zM79.7 168.2l1.2-.1c.1.6.3 1 .6 1.3.3.3.7.4 1.2.4.6 0 1-.2 1.4-.6.4-.4.6-1 .6-1.7s-.2-1.2-.5-1.5c-.4-.4-.8-.6-1.4-.6-.4 0-.7.1-1 .2-.3.1-.5.4-.7.7l-1.1-.1.9-4.8h4.6v1.1h-3.7l-.5 2.5c.6-.4 1.1-.6 1.8-.6.8 0 1.5.3 2.1.8.6.6.8 1.3.8 2.2 0 .8-.2 1.6-.7 2.2-.6.8-1.4 1.1-2.4 1.1-.8 0-1.5-.2-2.1-.7-.7-.4-1-1-1.1-1.8zM86.9 168.2l1.2-.1c.1.6.3 1 .6 1.3.3.3.7.4 1.2.4.6 0 1-.2 1.4-.6.4-.4.6-1 .6-1.7s-.2-1.2-.5-1.5c-.4-.4-.8-.6-1.4-.6-.4 0-.7.1-1 .2-.3.1-.5.4-.7.7l-1.1-.1.9-4.8h4.6v1.1H89l-.5 2.5c.6-.4 1.1-.6 1.8-.6.8 0 1.5.3 2.1.8.6.6.8 1.3.8 2.2 0 .8-.2 1.6-.7 2.2-.6.8-1.4 1.1-2.4 1.1-.8 0-1.5-.2-2.1-.7-.7-.4-1-1-1.1-1.8zM94 167.8v-1.1h3.5v1.1zM99 170.6v-9.3h4.1c.8 0 1.5.1 1.9.3.4.2.8.5 1 .9.3.4.4.9.4 1.4 0 .7-.2 1.2-.6 1.7-.4.5-1.1.7-2 .9.3.2.6.3.7.5.4.3.7.7 1 1.2l1.6 2.5h-1.5l-1.2-1.9c-.4-.6-.7-1-.9-1.3-.2-.3-.4-.5-.6-.6-.2-.1-.4-.2-.6-.2H100.2v4.1H99zm1.2-5.2h2.6c.6 0 1-.1 1.3-.2.3-.1.6-.3.7-.6.1-.3.2-.5.2-.8 0-.4-.2-.8-.5-1.1-.3-.3-.8-.4-1.5-.4h-2.9v3.1zM108.3 170.6v-9.3h3.5c.6 0 1.1 0 1.4.1.5.1.8.2 1.1.4.3.2.6.5.7.9.2.4.3.8.3 1.3 0 .8-.3 1.5-.8 2s-1.4.8-2.7.8h-2.4v3.8zm1.3-4.9h2.4c.8 0 1.4-.1 1.7-.4.3-.3.5-.7.5-1.2 0-.4-.1-.7-.3-1-.2-.3-.5-.5-.8-.5-.2-.1-.6-.1-1.1-.1h-2.4zM116.4 167.8v-1.1h3.5v1.1zM121.4 170.6v-9.3h6.7v1.1h-5.5v2.8h5.1v1.1h-5.1v3.2h5.7v1.1z"
       id="path106" />
  </g>
  <g
     id="g112">
    <path
       d="M215 163v-7.2h2.2l1.3 4.9 1.3-4.9h2.2v7.2h-1.3v-5.6l-1.4 5.6h-1.4l-1.4-5.6v5.6zM226.7 160.3v-1.2h3.1v2.9c-.3.3-.7.6-1.3.8-.6.2-1.2.3-1.7.3-.7 0-1.4-.2-2-.5-.6-.3-1-.8-1.3-1.3-.3-.6-.4-1.2-.4-1.9s.2-1.4.5-2c.3-.6.8-1 1.4-1.3.5-.2 1-.4 1.7-.4.9 0 1.6.2 2.1.6.5.4.8.9 1 1.5l-1.4.3c-.1-.4-.3-.6-.6-.8-.3-.2-.6-.3-1-.3-.6 0-1.1.2-1.5.6-.4.4-.6 1-.6 1.8s.2 1.5.6 1.9c.4.4.9.6 1.5.6.3 0 .6-.1.9-.2.3-.1.6-.3.8-.4v-.9h-1.8zM231.1 163v-7.2h2.2l1.3 4.9 1.3-4.9h2.2v7.2h-1.3v-5.6l-1.4 5.6H234l-1.4-5.6v5.6zM241.1 163v-6H239v-1.2h5.7v1.2h-2.1v5.9h-1.5z"
       id="path110" />
  </g>
  <g
     clip-rule="evenodd"
     fill-rule="evenodd"
     id="g130">
    <path
       fill="#ccc"
       d="M334.786 149.53h-68v-57.2h68z"
       id="path114" />
    <path
       fill="#1a1a1a"
       d="M333.386 148.03h-65.1v-54.3h65.1z"
       id="path116" />
    <path
       d="M270.9 104.7c.5 0 1 .4 1 1 0 .5-1.4 1-1.9 1v9.8c.5 0 1.9.4 1.9 1 0 .5-.4 1-1 1v5.9c.5 0 1 .4 1 1 0 .5-1.4 1-1.9 1v10c.5 0 1.9.4 1.9 1 0 .5-.4 1-1 1v7.9c0 .5.4 1 1 1h10.4v-.1c0-.5.4-1 1-1 .5 0 1 .4 1 1v.1h10v-.1c0-.5.4-1 1-1 .5 0 1 .4 1 1v.1h9.6v-.1c0-.5.4-1 1-1 .5 0 1 .4 1 1v.1h10v-.1c0-.5.4-1 1-1 .5 0 1 .4 1 1v.1h10.3c.5 0 1-.4 1-1v-8c-.5-.1-.8-.4-.8-.9s1.3-.9 1.8-.9v-10.1c-.5-.1-1.8-.4-1.8-.9s.4-.9.8-.9v-5.9c-.5-.1-.8-.4-.8-.9s1.3-.9 1.8-.9v-9.8c-.5-.1-1.8-.4-1.8-.9s.4-.9.8-.9v-8c0-1.1-.9-1.9-1.9-1.9H322c-.1.4-.5.6-.9.6s-.8-.3-.9-.6H282c-.1.4-.5.6-.9.6s-.8-.3-.9-.6h-7.4c-1.1 0-1.9.9-1.9 1.9v7.4z"
       fill="#ccc"
       id="path118" />
    <path
       data-cv-id="PORT-1586"
       fill="#1a1a1a"
       d="M277.2 136.9h47.2v-28h2.7v-9.8h-15.6v-3.2h-21.4v3.2h-15.6v9.8h2.7z"
       id="path120" />
    <g
       fill="#ccc"
       id="g124">
      <path
         d="M315.3 99.9h11.2v3.7c0 1.1-.9 1.9-1.9 1.9h-7.4c-1.1 0-1.9-.9-1.9-1.9zM275.1 99.9h11.2v3.7c0 1.1-.9 1.9-1.9 1.9H277c-1.1 0-1.9-.9-1.9-1.9z"
         id="path122" />
    </g>
    <g
       fill="#856427"
       id="g128">
      <path
         d="M285.1 130.3h1.6v4.9h-1.6zM289.3 130.3h1.6v4.9h-1.6zM297.5 130.3h1.6v4.9h-1.6zM293.4 130.3h1.6v4.9h-1.6zM301.6 130.3h2.5v4.9h-2.5zM305.7 130.3h2.5v4.9h-2.5zM309 130.3h3.3v4.9H309zM313.2 130.3h3.3v4.9h-3.3z"
         id="path126" />
    </g>
  </g>
  <g
     id="g134">
    <path
       d="M293.6 163h-1.4v-5.2c-.5.5-1.1.8-1.8 1v-1.2c.4-.1.7-.3 1.2-.7.4-.3.7-.7.9-1.1h1.1zM295.7 161.1l1.4-.1c0 .3.2.6.3.7.2.2.4.3.7.3.3 0 .5-.1.7-.3.2-.2.3-.6.3-1.1 0-.4-.1-.8-.3-1-.2-.2-.5-.3-.8-.3-.4 0-.7.2-1.1.5l-1.1-.2.7-3.7h3.6v1.3h-2.6l-.2 1.2c.3-.2.6-.2.9-.2.6 0 1.1.2 1.5.7.4.5.6 1 .6 1.7 0 .6-.2 1.1-.5 1.6-.5.6-1.1.9-1.9.9-.7 0-1.2-.2-1.6-.5-.4-.3-.5-.9-.6-1.5zM302.4 159.1c-.4-.1-.6-.4-.8-.6-.2-.3-.2-.5-.2-.9 0-.5.2-1 .6-1.3.4-.3.9-.5 1.6-.5.7 0 1.2.2 1.6.5.4.3.6.8.6 1.3 0 .3-.1.6-.3.9-.2.3-.4.5-.7.6.4.2.7.4.9.7.2.3.3.7.3 1.1 0 .7-.2 1.2-.6 1.6-.4.4-1 .6-1.7.6s-1.2-.2-1.6-.5c-.5-.4-.8-1-.8-1.7 0-.4.1-.7.3-1.1.1-.3.4-.5.8-.7zm.2 1.7c0 .4.1.7.3.9.2.2.4.3.7.3.3 0 .5-.1.7-.3.2-.2.3-.5.3-.9 0-.3-.1-.6-.3-.8-.2-.2-.4-.3-.7-.3-.3 0-.6.1-.7.3-.1.2-.3.5-.3.8zm.1-3.1c0 .3.1.5.2.6.1.1.4.2.6.2.3 0 .5-.1.6-.2.2-.2.2-.4.2-.6 0-.3-.1-.5-.2-.6-.2-.2-.4-.2-.6-.2-.3 0-.5.1-.6.2-.1.1-.2.3-.2.6zM308 159.1c-.4-.1-.6-.4-.8-.6-.2-.3-.2-.5-.2-.9 0-.5.2-1 .6-1.3.4-.3.9-.5 1.6-.5.7 0 1.2.2 1.6.5.4.3.6.8.6 1.3 0 .3-.1.6-.3.9-.2.3-.4.5-.7.6.4.2.7.4.9.7.2.3.3.7.3 1.1 0 .7-.2 1.2-.6 1.6-.4.4-1 .6-1.7.6s-1.2-.2-1.6-.5c-.5-.4-.8-1-.8-1.7 0-.4.1-.7.3-1.1 0-.3.3-.5.8-.7zm.1 1.7c0 .4.1.7.3.9.2.2.4.3.7.3.3 0 .5-.1.7-.3.2-.2.3-.5.3-.9 0-.3-.1-.6-.3-.8-.2-.2-.4-.3-.7-.3-.3 0-.6.1-.7.3-.1.2-.3.5-.3.8zm.1-3.1c0 .3.1.5.2.6.1.1.4.2.6.2.3 0 .5-.1.6-.2.2-.2.2-.4.2-.6 0-.3-.1-.5-.2-.6-.2-.2-.4-.2-.6-.2-.3 0-.5.1-.6.2-.1.1-.2.3-.2.6z"
       id="path132" />
  </g>
  <g
     id="g138">
    <path
       d="M369.7 160v-6h-2.1v-1.2h5.7v1.2h-2.1v5.9h-1.5zM373.8 156.4c0-.7.1-1.3.3-1.8.2-.4.4-.7.7-1 .3-.3.6-.5.9-.6.4-.2 1-.3 1.5-.3 1.1 0 1.9.3 2.5 1 .6.7.9 1.6.9 2.7 0 1.2-.3 2.1-.9 2.7-.6.7-1.5 1-2.5 1-1.1 0-1.9-.3-2.5-1-.6-.7-.9-1.5-.9-2.7zm1.4 0c0 .8.2 1.4.6 1.8.4.4.8.6 1.4.6.6 0 1-.2 1.4-.6.4-.4.6-1 .6-1.9 0-.8-.2-1.4-.5-1.8-.3-.4-.8-.6-1.4-.6-.6 0-1.1.2-1.4.6-.5.4-.7 1-.7 1.9zM381.8 152.8h2.6c.6 0 1 0 1.4.1.4.1.8.3 1.1.7.3.4.5.7.7 1.2.2.5.2 1 .2 1.7 0 .6-.1 1.1-.2 1.5-.2.5-.4.9-.8 1.3-.3.2-.6.4-1 .6-.3.1-.7.2-1.3.2h-2.7zm1.5 1.2v4.7h1.1c.4 0 .7 0 .9-.1l.6-.3c.2-.1.3-.4.4-.7.1-.3.1-.8.1-1.3s0-1-.1-1.3c-.1-.3-.2-.5-.4-.7-.2-.2-.4-.3-.7-.3-.2 0-.6-.1-1.2-.1h-.7z"
       id="path136" />
  </g>
  <g
     id="g142">
    <path
       d="M136.2 18.8l1.1.4c-.2.6-.5 1.1-.9 1.4-.4.3-.8.4-1.4.4-.8 0-1.4-.3-1.9-.8s-.7-1.2-.7-2.1c0-1 .2-1.7.7-2.2.5-.5 1.1-.8 1.9-.8.7 0 1.3.2 1.7.6.3.2.5.6.6 1.1l-1.1.3c-.1-.3-.2-.5-.4-.7-.2-.2-.5-.3-.8-.3-.4 0-.8.2-1 .5-.2.3-.4.8-.4 1.5s.1 1.2.4 1.5c.3.3.6.5 1 .5.3 0 .6-.1.8-.3.2-.2.3-.6.4-1zM138.1 18.1c0-.6.1-1.1.3-1.5.1-.3.3-.6.5-.8.2-.2.5-.4.7-.5.4-.2.8-.2 1.2-.2.8 0 1.5.3 2 .8s.8 1.3.8 2.2c0 .9-.3 1.6-.8 2.2-.5.6-1.2.8-2 .8-.9 0-1.5-.3-2-.8s-.7-1.3-.7-2.2zm1.2-.1c0 .6.1 1.1.4 1.5.3.4.7.5 1.1.5.4 0 .8-.2 1.1-.5.3-.3.4-.8.4-1.5s-.1-1.1-.4-1.5c-.3-.4-.7-.5-1.1-.5-.4 0-.9.2-1.2.5-.3.3-.3.9-.3 1.5zM144.6 20.9v-5.7h1.1L148 19v-3.8h1.1v5.7H148l-2.3-3.7v3.7zM150.1 19l1.1-.1c.1.4.2.7.4.8.2.1.5.3.8.3.4 0 .7-.1.8-.2.1-.1.3-.3.3-.6 0-.1 0-.3-.1-.3s-.2-.2-.4-.2c-.1 0-.4-.1-.9-.2-.6-.2-1.1-.3-1.3-.6-.4-.3-.5-.7-.5-1.2 0-.3.1-.6.2-.8.1-.2.4-.4.7-.6.3-.2.7-.2 1.1-.2.7 0 1.3.2 1.6.5.3.3.6.7.6 1.3l-1.2.1c0-.3-.2-.5-.3-.6-.1-.1-.4-.2-.7-.2-.3 0-.6.1-.8.2-.1.1-.2.2-.2.4 0 .1.1.3.2.3.1.1.5.2 1.1.4.6.2 1 .3 1.2.4.2.1.5.3.6.6.1.3.2.5.2.9 0 .3-.1.6-.3.9-.2.3-.4.5-.8.6-.4.1-.7.2-1.2.2-.7 0-1.3-.2-1.7-.5-.4-.3-.5-.9-.5-1.6zM155.5 18.1c0-.6.1-1.1.3-1.5.1-.3.3-.6.5-.8.2-.2.5-.4.7-.5.4-.2.8-.2 1.2-.2.8 0 1.5.3 2 .8s.8 1.3.8 2.2c0 .9-.3 1.6-.8 2.2-.5.6-1.2.8-2 .8-.9 0-1.5-.3-2-.8s-.7-1.3-.7-2.2zm1.1-.1c0 .6.1 1.1.4 1.5.3.4.7.5 1.1.5.4 0 .8-.2 1.1-.5.3-.3.4-.8.4-1.5s-.1-1.1-.4-1.5c-.3-.4-.7-.5-1.1-.5-.4 0-.9.2-1.2.5-.3.3-.3.9-.3 1.5zM161.9 20.9v-5.7h1.2v4.7h2.9v1zM166.8 20.9v-5.7h4.2v1h-3v1.3h2.9v1H168v1.6h3.2v1h-4.4z"
       id="path140" />
  </g>
  <g
     id="g146">
    <path
       d="M659.7 127.2v-5.7h2.5c.5 0 .9.1 1.2.2.3.1.5.3.6.5.1.2.2.5.2.9s-.1.7-.4 1c-.3.3-.7.5-1.2.5.2.1.4.2.5.3.2.2.4.5.6.8l1 1.6h-1l-.8-1.2c-.2-.3-.4-.6-.5-.8-.1-.2-.3-.3-.4-.4-.1-.1-.2-.1-.3-.2h-1.3v2.5zm.8-3.2h1.6c.3 0 .6 0 .8-.1.2-.1.3-.2.4-.3.1-.1.2-.3.2-.5 0-.3-.1-.5-.3-.7-.2-.2-.5-.3-.9-.3h-1.8zM665.5 127.2v-5.7h4.1v.7h-3.4v1.8h3.2v.7h-3.2v1.9h3.5v.7h-4.2zM670.6 125.3l.7-.1c0 .3.1.5.2.7.1.2.3.3.6.4.3.1.6.2.9.2.3 0 .5 0 .8-.1.3-.1.4-.2.5-.4.1-.2.2-.3.2-.5s-.1-.3-.2-.5-.3-.2-.5-.3c-.2-.1-.5-.2-1-.3-.5-.1-.9-.2-1.1-.4-.3-.1-.5-.3-.6-.5-.1-.2-.2-.5-.2-.7 0-.3.1-.6.2-.8.1-.2.4-.4.7-.6.3-.2.7-.2 1.1-.2.4 0 .8.1 1.1.2.3.1.6.3.7.6.1.3.3.6.3.9l-.7.1c0-.4-.2-.6-.4-.8-.2-.2-.6-.3-1-.3-.5 0-.8.1-1 .3-.2.2-.3.4-.3.6 0 .2.1.4.2.5.1.1.5.3 1.1.4.6.1 1 .3 1.3.4.3.2.6.3.7.6.1.3.2.5.2.8 0 .3-.1.6-.3.9-.2.3-.4.5-.8.6-.4.1-.7.2-1.1.2-.5 0-1-.1-1.3-.2-.3-.1-.6-.4-.8-.7-.2-.3-.2-.6-.2-1zM676.2 127.2v-5.7h4.1v.7H677v1.8h3.2v.7H677v1.9h3.5v.7h-4.3zM683 127.2v-5.1h-1.9v-.7h4.5v.7h-1.9v5.1z"
       id="path144" />
  </g>
  <g
     id="g162">
    <path
       d="M752.5 124.9c-.2-.1-.4-.1-.6-.1-.2 0-.4 0-.6.1l-.6.3-.5-.3c-.2-.1-.5-.2-.8-.2-.1 0-.3 0-.4.1l-.6.2-.5-.4c-.3-.2-.6-.3-.9-.3H746.7l-.6.1-.4-.5c-.3-.3-.7-.5-1.1-.5h-.7l-.4-.5c-.2-.3-.6-.6-1.1-.6l-.6-.1-.3-.6c-.2-.4-.6-.6-1-.7l-.6-.1-.2-.6c-.1-.4-.5-.7-.9-.9l-.6-.2-.1-.6c-.1-.4-.4-.8-.7-1l-.6-.3-.1-.6c0-.4-.3-.8-.6-1.1l-.5-.4v-.6c0-.4-.2-.8-.5-1.1l-.5-.4.1-.6c.1-.4 0-.8-.3-1.2l-.4-.5.2-.6c.1-.4.1-.8-.2-1.2l-.3-.5.3-.6c.2-.4.2-.8 0-1.2v-.6l.3-.5c.2-.4.3-.8.2-1.2l-.2-.6.4-.5c.3-.3.4-.8.3-1.2l-.1-.6.5-.4c.3-.3.5-.7.5-1.1v-.6l.5-.4c.3-.2.6-.6.6-1.1l.1-.6.6-.3c.4-.2.6-.6.7-1l.1-.6.6-.2c.4-.1.7-.5.9-.9l.2-.6.6-.1c.4-.1.8-.4 1-.7l.3-.6.6-.1c.4 0 .8-.3 1.1-.6l.4-.5h.6c.5 0 .8-.2 1.1-.5l.4-.5.7.1h.2c.3 0 .7-.1.9-.3l.5-.4.6.2c.1 0 .3.1.4.1.3 0 .5-.1.8-.2l.5-.3.6.3c.2.1.4.1.6.1.2 0 .4 0 .6-.1l.6-.3.5.3c.2.1.5.2.8.2.1 0 .3 0 .4-.1l.6-.2.5.4c.3.2.6.3.9.3H757.3l.6-.1.4.5c.3.3.7.5 1.1.5h.7l.4.5c.2.3.6.6 1.1.6l.6.1.3.6c.2.4.5.6 1 .7l.6.1.2.6c.1.4.5.7.9.9l.6.2.1.6c.1.4.4.8.7 1l.6.3.1.6c0 .4.3.8.6 1.1l.5.4v.6c0 .4.2.8.5 1.1l.5.4-.1.6c-.1.4 0 .9.3 1.2l.4.5-.2.6c-.1.4-.1.8.2 1.2l.3.5-.3.6c-.2.4-.2.8 0 1.2l.3.6-.3.5c-.2.4-.3.8-.2 1.2l.2.6-.4.5c-.3.3-.4.8-.3 1.2l.1.6-.5.4c-.3.3-.5.7-.5 1.1v.6l-.5.4c-.3.2-.6.6-.6 1.1l-.1.6-.6.3c-.4.2-.6.6-.7 1l-.1.6-.6.2c-.4.1-.7.5-.9.9l-.2.6-.6.1c-.4.1-.8.4-1 .7l-.3.6-.6.1c-.4 0-.8.3-1.1.6l-.4.5h-.6c-.5 0-.8.2-1.1.5l-.4.5-.7-.1h-.2c-.3 0-.7.1-.9.3l-.5.4-.6-.2c-.1 0-.3-.1-.4-.1-.3 0-.5.1-.8.2l-.5.3z"
       fill="#d9d9d9"
       id="path148" />
    <path
       d="M750.8 90.4c.4.2.7.3 1.1.3.4 0 .7-.1 1-.2h.2c.4.2.8.4 1.3.4.2 0 .5 0 .7-.1h.1l.1.1c.4.4 1 .6 1.6.6h.5l.1.1c.5.5 1.1.8 1.8.8h.2v.1c.4.6 1.1 1 1.8 1h.1v.1c.3.6.9 1.1 1.6 1.3h.1v.1c.2.7.8 1.2 1.5 1.5h.1v.1c.2.7.6 1.3 1.2 1.6h.1v.1c.1.7.4 1.4 1 1.8h.1v.1c0 .7.3 1.4.8 1.9l.1.1v.1c-.1.7.1 1.4.5 2l.1.1v.1c-.2.7-.1 1.4.3 2v.2c-.3.7-.3 1.4 0 2.1v.2c-.4.6-.5 1.3-.3 2v.1l-.1.1c-.5.6-.7 1.3-.5 2v.1l-.1.1c-.5.5-.8 1.2-.8 1.9v.1h-.1c-.6.4-1 1.1-1 1.8v.1h-.1c-.6.3-1.1.9-1.2 1.6v.1h-.1c-.7.2-1.2.8-1.5 1.5v.1h-.1c-.7.2-1.3.6-1.6 1.2v.1h-.1c-.7.1-1.4.4-1.8 1v.1h-.2c-.7 0-1.3.3-1.8.8l-.1.1h-.5c-.6 0-1.1.2-1.6.6l-.1.1h-.1c-.2-.1-.5-.1-.7-.1-.5 0-.9.1-1.3.4h-.2c-.3-.1-.7-.2-1-.2-.4 0-.7.1-1 .2h-.2c-.4-.2-.8-.4-1.3-.4-.2 0-.5 0-.7.1h-.1l-.1-.1c-.4-.4-1-.6-1.6-.6h-.5l-.1-.1c-.5-.5-1.1-.8-1.8-.8h-.2v-.1c-.4-.6-1.1-1-1.8-1h-.1v-.1c-.3-.6-.9-1.1-1.6-1.3h-.1v-.1c-.2-.7-.8-1.2-1.5-1.5h-.1v-.1c-.2-.7-.6-1.3-1.2-1.6h-.1v-.1c-.1-.7-.4-1.4-1-1.8h-.1v-.1c0-.7-.3-1.4-.8-1.9l-.1-.1v-.1c.1-.7-.1-1.4-.5-2l-.1-.1v-.1c.2-.7.1-1.4-.3-2v-.2c.3-.7.3-1.4 0-2.1v-.2c.4-.6.5-1.3.3-2v-.1l.1-.1c.5-.6.7-1.3.5-2v-.1l.1-.1c.5-.5.8-1.2.8-1.9v-.1h.1c.6-.4 1-1.1 1-1.8v-.1h.1c.6-.3 1.1-.9 1.2-1.6v-.1h.1c.7-.2 1.2-.8 1.5-1.5v-.1h.1c.7-.2 1.3-.6 1.6-1.2v-.1h.1c.7-.1 1.4-.4 1.8-1v-.1h.2c.7 0 1.3-.3 1.8-.8l.1-.1h.5c.6 0 1.1-.2 1.6-.6l.1-.1h.1c.2.1.5.1.7.1.5-.1.9-.2 1.4-.5m2.3-2.2h-.2l-.8.4h-.4l-.8-.4h-.2c-.1 0-.2 0-.2.1l-.8.5c-.1 0-.2.1-.2.1h-.1l-.9-.3h-.1c-.1 0-.2 0-.3.1l-.7.6c-.1.1-.2.1-.3.1h-.1l-.9-.2h-.1c-.1 0-.2.1-.3.1l-.7.7c-.1.1-.2.1-.3.1h-.9c-.1 0-.3.1-.4.2l-.5.8c-.1.1-.2.2-.3.2l-.9.1c-.2 0-.3.1-.4.2l-.4.8c-.1.1-.2.2-.3.2l-.9.2c-.1 0-.3.1-.3.3l-.3.9c0 .1-.1.2-.3.3l-.9.3c-.1.1-.3.2-.3.3l-.2.9c0 .1-.1.2-.2.3l-.8.4c-.1.1-.2.2-.2.4l-.1.9c0 .1-.1.3-.2.3l-.8.5c-.1.1-.2.2-.2.4v.9c0 .1 0 .3-.1.4l-.7.6c-.1.1-.2.3-.1.4l.2.9c0 .1 0 .3-.1.4l-.6.7c-.1.1-.1.3-.1.4l.3.9v.4l-.5.8c-.1.1-.1.3 0 .4l.4.8c.1.1.1.3 0 .4l-.4.8c-.1.1-.1.3 0 .4l.5.8c.1.1.1.2 0 .4l-.3.9c0 .1 0 .3.1.4l.6.7c.1.1.1.2.1.4l-.2.9c0 .2 0 .3.1.4l.7.6c.1.1.2.2.1.4v.9c0 .2.1.3.2.4l.8.5c.1.1.2.2.2.3l.1.9c0 .2.1.3.2.4l.8.4c.1.1.2.2.2.3l.2.9c0 .1.1.3.3.3l.9.3c.1 0 .2.1.3.3l.3.9c.1.1.2.3.3.3l.9.2c.1 0 .2.1.3.2l.4.8c.1.1.2.2.4.2l.9.1c.1 0 .3.1.3.2l.5.8c.1.1.2.2.4.2h.9c.1 0 .2.1.3.1l.6.7c.1.1.2.1.3.1h.1l.9-.2h.1c.1 0 .2 0 .3.1l.7.6c.1.1.2.1.3.1h.1l.9-.3h.1c.1 0 .2 0 .2.1l.8.5c.1 0 .2.1.2.1h.2l.8-.4h.4l.8.4h.2c.1 0 .2 0 .2-.1l.8-.5c.1 0 .2-.1.2-.1h.1l.9.3h.1c.1 0 .2 0 .3-.1l.7-.6c.1-.1.2-.1.3-.1h.1l.9.2h.1c.1 0 .2-.1.3-.1l.6-.7c.1-.1.2-.1.3-.1h.9c.1 0 .3-.1.4-.2l.5-.8c.1-.1.2-.2.3-.2l.9-.1c.2 0 .3-.1.4-.2l.4-.8c.1-.1.2-.2.3-.2l.9-.2c.1 0 .3-.1.3-.3l.3-.9c0-.1.1-.2.3-.3l.9-.3c.1-.1.3-.2.3-.3l.2-.9c0-.1.1-.2.2-.3l.8-.4c.1-.1.2-.2.2-.4l.1-.9c0-.1.1-.3.2-.3l.8-.5c.1-.1.2-.2.2-.4v-.9c0-.1 0-.3.1-.4l.7-.6c.1-.1.2-.3.1-.4l-.2-.9c0-.1 0-.3.1-.4l.6-.7c.1-.1.1-.3.1-.4l-.3-.9v-.4l.5-.8c.1-.1.1-.3 0-.4l-.4-.8c-.1-.1-.1-.3 0-.4l.4-.8c.1-.1.1-.3 0-.4l-.5-.8c-.1-.1-.1-.2 0-.4l.3-.9c0-.1 0-.3-.1-.4l-.6-.7c-.1-.1-.1-.2-.1-.4l.2-.9c0-.2 0-.3-.1-.4l-.7-.6c-.1-.1-.2-.2-.1-.4V99c0-.2-.1-.3-.2-.4l-.8-.5c-.1-.1-.2-.2-.2-.3l-.1-.9c0-.2-.1-.3-.2-.4l-.8-.4c-.1-.1-.2-.2-.2-.3l-.2-.9c0-.1-.1-.3-.3-.3l-.9-.3c-.1 0-.2-.1-.3-.3l-.3-.9c-.1-.1-.2-.3-.3-.3l-.9-.2c-.1 0-.2-.1-.3-.2l-.4-.8c-.1-.1-.2-.2-.4-.2l-.9-.1c-.1 0-.3-.1-.3-.2l-.5-.8c-.1-.1-.2-.2-.4-.2h-.9c-.1 0-.2-.1-.3-.1l-.6-.7c-.1-.1-.2-.1-.3-.1h-.1l-.9.2h-.1c-.1 0-.2 0-.3-.1l-.7-.6c-.1-.1-.2-.1-.3-.1h-.1l-.9.3h-.1c-.1 0-.2 0-.2-.1l-.8-.5c.1-.1 0-.1-.1-.1z"
       fill="#323232"
       id="path150" />
    <circle
       cx="751.9"
       cy="107.2"
       r="17"
       fill="#d9d9d9"
       id="circle152" />
    <g
       id="g160">
      <path
         fill="#d9d9d9"
         stroke="#4d4d4d"
         stroke-width="1.815"
         stroke-miterlimit="10"
         d="M766 96.9l-3.8-3.8-10.3 10.3-6.4-6.5-3.9 3.9 6.4 6.4-10.2 10.3 3.8 3.8 10.3-10.2 6.4 6.4 3.9-3.9-6.5-6.4z"
         id="path154" />
      <path
         fill="#666"
         d="M741.564 112.342l16.688-16.688 5.161 5.162-16.687 16.688z"
         id="path156" />
      <path
         fill="#666"
         d="M740.356 100.762l5.162-5.162 17.96 17.96-5.161 5.163z"
         id="path158" />
    </g>
  </g>
  <g
     id="g178">
    <path
       d="M21.5 57.3c-.2-.1-.4-.1-.6-.1-.2 0-.4 0-.6.1l-.6.3-.5-.3c-.3-.3-.5-.3-.8-.3-.1 0-.3 0-.4.1l-.6.2-.5-.4c-.3-.2-.6-.3-.9-.3H15.7l-.6.1-.4-.5c-.3-.3-.7-.5-1.1-.5h-.7l-.4-.5c-.2-.3-.6-.6-1.1-.6l-.6-.1-.2-.5c-.2-.4-.5-.6-1-.7l-.6-.2-.2-.6c-.1-.4-.5-.7-.9-.9l-.6-.2-.1-.6c-.1-.4-.4-.8-.7-1l-.6-.3-.1-.6c0-.4-.3-.8-.6-1.1l-.5-.4v-.6c0-.4-.2-.8-.5-1.1l-.5-.4.3-.6c.1-.4 0-.8-.3-1.2l-.4-.5.2-.6c.1-.4.1-.8-.2-1.2l-.3-.5.3-.6c.2-.4.2-.8 0-1.2l-.3-.6.3-.5c.2-.4.3-.8.2-1.2l-.2-.6.4-.5c.2-.2.3-.7.3-1.1l-.1-.6.5-.4c.3-.3.5-.7.5-1.1v-.6l.5-.4c.3-.2.6-.6.6-1.1l.1-.6.6-.3c.4-.2.6-.6.7-1l.1-.6.5-.2c.4-.1.7-.5.9-.9l.1-.5.6-.1c.4-.1.8-.4 1-.7l.3-.6.6-.1c.4 0 .8-.3 1.1-.6l.4-.5h.6c.5 0 .8-.2 1.1-.5l.4-.5.7.1h.2c.3 0 .7-.1.9-.3l.5-.4.6.2c.1 0 .3.1.4.1.3 0 .5-.1.8-.2l.5-.3.6.3c.2.1.4.1.6.1.2 0 .4 0 .6-.1l.6-.3.5.3c.2.1.5.2.8.2.1 0 .3 0 .4-.1l.6-.2.5.4c.3.2.6.3.9.3H26.1l.6-.1.4.5c.3.3.7.5 1.1.5h.7l.4.5c.2.3.6.6 1.1.6l.6.1.3.6c.2.4.6.6 1 .7l.6.1.2.6c.1.4.5.7.9.9l.6.2.1.6c.1.4.4.8.7 1l.6.3.1.6c0 .4.3.8.6 1.1l.5.4v.6c0 .4.2.8.5 1.1l.5.4-.1.6c-.1.4 0 .8.3 1.2l.4.5-.2.6c-.1.4-.1.8.2 1.2l.3.5-.6.5c-.2.4-.2.8 0 1.2l.3.6-.3.5c-.2.4-.3.8-.2 1.2l.2.6-.4.5c-.3.3-.4.8-.3 1.2l.1.6-.5.4c-.3.3-.5.7-.5 1.1v.6l-.5.4c-.3.2-.6.6-.6 1.1l-.1.6-.6.3c-.4.2-.6.6-.7 1l-.1.6-.6.2c-.4.1-.7.5-.9.9l-.2.6-.6.1c-.4.1-.8.4-1 .7l-.3.6-.6.1c-.4 0-.8.3-1.1.6l-.4.5H28c-.5 0-.8.2-1.1.5l-.4.5-.5-.3h-.2c-.3 0-.7.1-.9.3l-.5.4-.6-.2c-.1 0-.3-.1-.4-.1-.3 0-.5.1-.8.2l-.6.4z"
       fill="#d9d9d9"
       id="path164" />
    <path
       d="M19.8 22.8c.4.2.7.3 1.1.3.4 0 .7-.1 1-.2h.2c.4.2.8.4 1.3.4.2 0 .5 0 .7-.1h.1l.1.1c.4.4 1 .6 1.6.6h.5l.1.1c.5.5 1.1.8 1.8.8h.2v.1c.4.6 1.1 1 1.8 1h.1v.1c.3.6.9 1.1 1.6 1.2h.1v.1c.2.7.8 1.2 1.5 1.5h.1v.1c.2.7.6 1.3 1.2 1.6h.1v.1c.1.7.4 1.4 1 1.8h.1v.1c0 .7.3 1.4.8 1.9l.1.1v.1c-.1.7.1 1.4.5 2l.1.1v.1c-.2.7-.1 1.4.3 2v.2c-.3.7-.3 1.4 0 2.1v.2c-.4.6-.5 1.3-.3 2v.1l-.1.1c-.5.6-.7 1.3-.5 2v.1l-.1.1c-.5.5-.8 1.2-.8 1.9v.1H36c-.6.4-1 1.1-1 1.8v.1h-.1c-.6.3-1.1.9-1.2 1.6v.1h-.1c-.7.2-1.2.8-1.5 1.5v.1H32c-.7.2-1.3.6-1.6 1.2v.1h-.1c-.7.1-1.4.4-1.8 1v.1h-.2c-.7 0-1.3.3-1.8.8l-.1.1h-.5c-.6 0-1.1.2-1.6.6l-.1.1h-.1c-.3-.9-.5-.9-.7-.9-.5 0-.9.1-1.3.4h-.2c-.3-.1-.7-.2-1-.2-.4 0-.7.1-1 .2h-.2c-.4-.2-.8-.4-1.3-.4-.2 0-.5 0-.7.1h-.1l-.1-.1c-.4-.4-1-.6-1.6-.6h-.5l-.1-.1c-.5-.5-1.1-.8-1.8-.8h-.2v-.1c-.4-.6-1.1-1-1.8-1h-.1v-.1c-.3-.6-.9-1.1-1.6-1.2h-.1V52c-.2-.5-.7-1-1.4-1.3h-.1v-.1C8 49.9 7.6 49.3 7 49h-.1v-.1c-.1-.7-.4-1.4-1-1.8h-.1V47c0-.7-.3-1.4-.8-1.9l-.1-.1v-.1c.1-.7-.1-1.4-.5-2l-.1-.1v-.1c.2-.7.1-1.4-.3-2v-.2c.3-.7.3-1.4 0-2.1v-.2c.4-.6.5-1.3.3-2v-.1l.1-.1c.5-.6.7-1.3.5-2v-.1l.1.2c.5-.5.8-1.2.8-1.9v-.1h.1c.6-.4 1-1.1 1-1.8v-.1H7c.6-.3 1.1-.9 1.2-1.6v-.1h.1c.7-.3 1.2-.8 1.5-1.5v-.1h.1c.7-.2 1.3-.6 1.6-1.2v-.1h.1c.7-.1 1.4-.4 1.8-1v-.1h.2c.7 0 1.3-.3 1.8-.8l.1-.1h.5c.6 0 1.1-.2 1.6-.6l.1-.1h.1c.2.1.5.1.7.1.4.2.8.1 1.3-.2m2.3-2.2h-.2l-.8.4h-.4l-.8-.4h-.2c-.1 0-.2 0-.2.1l-.8.5c-.1 0-.2.1-.2.1h-.1l-.9-.3h-.1c-.1 0-.2 0-.3.1l-.7.6c-.1.1-.2.1-.3.1H16l-1-.3h-.1c-.1 0-.2.1-.3.1l-.6.7c-.1.1-.2.1-.3.1h-.9c-.1 0-.3.1-.4.2l-.5.8c-.1.1-.2.2-.3.2l-.9.1c-.2 0-.3.1-.4.2l-.4.8c-.1.1-.2.2-.3.2l-.9.2c-.1 0-.3.1-.3.3l-.3.9c0 .1-.1.2-.3.3l-.9.3c-.1.1-.3.2-.3.3l-.2.9c0 .1-.1.2-.2.3l-.8.4c-.3.1-.4.3-.4.4l-.1.9c0 .1-.1.3-.2.3l-.8.6c-.1.1-.2.2-.2.4v.9c0 .1 0 .3-.1.4l-.6.6c-.1.1-.2.3-.1.4l.1.9c0 .1 0 .3-.1.4l-.6.7c-.1.1-.1.3-.1.4l.3.9v.4l-.5.8c-.1.1-.1.3 0 .4l.4.8c.1.1.1.3 0 .4l-.4.8c-.1.1-.1.3 0 .4l.5.8c.1.1.1.2 0 .4l-.3.9c0 .1 0 .3.1.4l.6.7c.1.1.1.2.1.4l-.2.9c0 .2 0 .3.1.4l.7.6c.1.1.2.2.1.4v.9c0 .2.1.3.2.4l.8.5c.1.1.2.2.2.3l.1 1c0 .2.1.3.2.4l.8.3c.1.1.2.2.2.3l.2.9c0 .1.1.3.3.3l.9.3c.1 0 .2.1.3.3l.3.9c0 .2.2.3.3.3l.9.2c.1 0 .2.1.3.2l.4.8c.1.1.2.2.4.2l.9.1c.1 0 .3.1.3.2l.5.8c.1.1.2.2.4.2h.9c.1 0 .2.1.3.1l.6.7c.1.1.2.1.3.1h.1l.9-.2h.1c.1 0 .2 0 .3.1l.7.6c.1.1.2.1.3.1h.1l.9-.3h.1c.1 0 .2 0 .2.1l.8.5c.1 0 .2.1.2.1h.2l.8-.4h.4l.8.4h.2c.1 0 .2 0 .2-.1l.8-.5c.1 0 .2-.1.2-.1h.1l.9.3h.1c.1 0 .2 0 .3-.1l.7-.6c.1-.1.2-.1.3-.1h.1l.9.2h.1c.1 0 .2-.1.3-.1l.6-.7c.1-.1.2-.1.3-.1h.9c.1 0 .3-.1.4-.2l.5-.8c.1-.1.2-.2.3-.2l.9-.1c.2 0 .3-.1.4-.2l.4-.8c.1-.1.2-.2.3-.2l.9-.2c.1 0 .3-.1.3-.3l.3-.9c0-.1.1-.2.3-.3l.9-.3c.1-.1.3-.2.3-.3l.2-.9c0-.1.1-.2.2-.3l.8-.4c.1-.1.2-.2.2-.4l.1-.9c0-.1.1-.3.2-.3l.8-.5c.1-.1.2-.2.2-.4v-.9c0-.1 0-.3.1-.4l.7-.6c.1-.1.2-.3.1-.4l-.2-.9c0-.1 0-.3.1-.4l.6-.7c.1-.1.1-.3.1-.4l-.3-.9v-.4l.5-.8c.1-.1.1-.3 0-.4l-.4-.8c-.1-.1-.1-.3 0-.4l.4-.8c.1-.1.1-.3 0-.4l-.5-.8c-.1-.1-.1-.2 0-.4l.3-.9c0-.1 0-.3-.1-.4V35c-.1-.1-.1-.2-.1-.4l.2-.9c0-.2 0-.3-.1-.4l-.7-.6c-.2-.1-.2-.3-.2-.4v-.9c0-.2-.1-.3-.2-.4l-.8-.5c-.1-.1-.2-.2-.2-.3l-.1-.9c0-.2-.1-.3-.2-.4l-.8-.4c-.1-.1-.2-.2-.2-.3l-.2-.9c0-.1-.1-.3-.3-.3l-.9-.3c-.1 0-.2-.1-.3-.3l-.3-.9c-.1-.1-.2-.3-.3-.3l-.9-.2c-.1 0-.2-.1-.3-.2l-.4-.8c-.1-.1-.2-.2-.4-.2l-.9-.1c-.1 0-.3-.1-.3-.2l-.5-.8c-.1-.1-.2-.2-.4-.2h-.9c-.1 0-.2-.1-.3-.1l-.6-.7c-.1-.1-.2-.1-.3-.1h-.1l-.9.2h-.1c-.1 0-.2 0-.3-.1l-.8-.7c-.1-.1-.2-.1-.3-.1h-.1l-.9.3h-.1c-.1 0-.2 0-.2-.1l-.8-.5h-.3z"
       fill="#323232"
       id="path166" />
    <circle
       cx="20.9"
       cy="39.6"
       r="17"
       fill="#d9d9d9"
       id="circle168" />
    <g
       id="g176">
      <path
         fill="#d9d9d9"
         stroke="#4d4d4d"
         stroke-width="1.815"
         stroke-miterlimit="10"
         d="M35 29.3l-3.9-3.8-10.2 10.2-6.4-6.4-3.9 3.9 6.4 6.4L6.8 49.9l3.8 3.8 10.3-10.3 6.4 6.5 3.8-3.9-6.4-6.4z"
         id="path170" />
      <path
         fill="#666"
         d="M10.582 44.723l16.687-16.687 5.162 5.162-16.687 16.687z"
         id="path172" />
      <path
         fill="#666"
         d="M9.304 33.215l5.162-5.162 17.96 17.96-5.162 5.162z"
         id="path174" />
    </g>
  </g>
  <g
     clip-rule="evenodd"
     fill-rule="evenodd"
     id="g184">
    <path
       fill="#c41230"
       d="M657.3 40.2h1.5v6h-1.5zM670.9 41.9s-.6-.2-1.3-.2c-.9 0-1.7.6-1.7 1.5s.7 1.7 1.7 1.7c.7 0 1.3-.4 1.3-.4v1.7c-.2 0-.7.2-1.3.2-1.7 0-3.2-1.3-3.2-3.2 0-1.7 1.3-3 3.2-3 .6 0 1.1.2 1.3.2zM655.2 41.9s-.4-.2-1.1-.2c-.9 0-1.7.6-1.7 1.5s.6 1.7 1.7 1.7c.6 0 1.1-.4 1.1-.4v1.7c-.2 0-.6.2-1.3.2-1.7 0-3.2-1.3-3.2-3.2 0-1.7 1.3-3 3.2-3 .7 0 1.3.2 1.3.2zM678.8 43.2c0 1.7-1.3 3.2-3.2 3.2-1.9 0-3.2-1.5-3.2-3.2 0-1.7 1.3-3 3.2-3 1.8 0 3.2 1.3 3.2 3zm-3.2-1.5c-.9 0-1.5.7-1.5 1.5 0 .9.6 1.7 1.5 1.7s1.5-.7 1.5-1.7c0-.7-.6-1.5-1.5-1.5zM664.6 41.7s-.7-.2-1.1-.2c-.7 0-.9.2-.9.4 0 .4.4.6.6.6l.4.2c1.1.4 1.5.9 1.5 1.7 0 1.5-1.3 2.1-2.4 2.1-.7 0-1.5-.2-1.7-.2v-1.5c.2.2.7.4 1.5.4s1.1-.4 1.1-.6c0-.4-.4-.6-.7-.6 0-.2-.2-.2-.4-.2-.7-.2-1.5-.7-1.5-1.7 0-1.1.9-1.9 2.2-1.9.7 0 1.5.2 1.5.2v1.3z"
       id="path180" />
    <path
       d="M649.2 33.9c0-.4-.4-.7-.7-.7-.4 0-.7.4-.7.7v1.7c0 .4.4.7.7.7.4 0 .7-.4.7-.7v-1.7zM653.3 31.8c0-.4-.4-.7-.7-.7-.6 0-.7.4-.7.7v3.7c0 .4.2.7.7.7.4 0 .7-.4.7-.7zM657.3 29c0-.4-.2-.7-.7-.7-.4 0-.7.4-.7.7v8c0 .4.4.6.7.6.6 0 .7-.2.7-.6zM661.4 31.8c0-.4-.4-.7-.7-.7-.4 0-.7.4-.7.7v3.7c0 .4.4.7.7.7.4 0 .7-.4.7-.7zM665.5 33.9c0-.4-.4-.7-.7-.7-.4 0-.7.4-.7.7v1.7c0 .4.4.7.7.7.4 0 .7-.4.7-.7zM669.6 31.8c0-.4-.4-.7-.7-.7-.3 0-.7.4-.7.7v3.7c0 .4.4.7.7.7.3 0 .7-.4.7-.7zM673.7 29c0-.4-.4-.7-.7-.7-.4 0-.7.4-.7.7v8c0 .4.4.6.7.6.4 0 .7-.2.7-.6v-8zM677.8 31.8c0-.4-.4-.7-.7-.7-.6 0-.7.4-.7.7v3.7c0 .4.2.7.7.7.4 0 .7-.4.7-.7zM681.7 33.9c0-.4-.2-.7-.7-.7-.4 0-.7.4-.7.7v1.7c0 .4.4.7.7.7.6 0 .7-.4.7-.7z"
       fill="#005568"
       id="path182" />
  </g>
  <path
     d="M159.7 154.6l-1.3-.6v.8h-11.3c.3-.2.5-.5.8-.8.3-.4.6-.7.9-1 .3-.3.5-.5.7-.6.1 0 .2-.1.2-.1h1.9c.2.5.6.9 1.2.9.7 0 1.2-.6 1.2-1.2 0-.7-.6-1.2-1.2-1.2s-1.1.4-1.2.9h-1.9c-1 .2-1.6 1.3-2.3 2-.3.3-.8.6-1.2.9-.1.1-.3.2-.5.3h-1c-.2-.9-.9-1.5-1.8-1.5-1 0-1.9.8-1.9 1.9 0 1 .8 1.9 1.9 1.9.9 0 1.7-.6 1.8-1.5h3.6c.4 0 .9.3 1.2.5.6.4 1 1 1.4 1.5.4.6 1 1.2 1.8 1.3h1.7v.9h2.5v-2.5h-2.5v1h-1.8c-.2-.2-.8-.6-1.1-1-.2-.3-.6-.8-1-1.3-.1-.1-.3-.2-.4-.4h8.4v.8l1.3-.6 1.3-.6z"
     id="path186" />
  <g
     id="g192">
    <circle
       cx="672.2"
       cy="135.6"
       r="4.5"
       fill="#333"
       id="circle188" />
    <path
       d="M672.2 131.6c2.2 0 4 1.8 4 4s-1.8 4-4 4-4-1.8-4-4 1.8-4 4-4m0-1c-2.8 0-5 2.2-5 5s2.2 5 5 5 5-2.2 5-5c0-2.7-2.2-5-5-5z"
       fill="#e6e6e6"
       id="path190" />
  </g>
  <g
     id="g236">
    <path
       d="M424.1 123.1l-1.2 1.2-4.4-4.4c0 .8-.2 1.6-.6 2.4l-1.1-1.1c.2-.4.3-.9.4-1.6.1-.6 0-1.2-.2-1.7l.9-.9zM421.6 113.4c.6-.6 1.3-.8 2-.8.9.1 1.9.7 3.1 1.9 1.1 1.1 1.8 2.2 1.9 3.1.1.7-.2 1.4-.8 2-.6.6-1.3.8-2.1.7-.8-.1-1.8-.7-3-1.9-1.1-1.1-1.8-2.2-1.9-3.1-.1-.7.2-1.3.8-1.9zm.9.9c-.1.1-.2.3-.2.5s.1.4.2.7c.2.4.7.9 1.4 1.6.7.7 1.2 1.2 1.6 1.4.3.2.6.3.8.3.2 0 .4-.1.5-.2.1-.1.2-.3.2-.5s-.1-.4-.2-.7c-.2-.4-.7-.9-1.4-1.6-.7-.7-1.2-1.2-1.6-1.4-.4-.2-.6-.3-.8-.3-.1 0-.3.1-.5.2zM430.6 116.6l-6.1-6.1 1.8-1.8 5.2 3-3.1-5.2 1.8-1.8 6.1 6.1-1.1 1.1-4.8-4.8 3.6 6-1.2 1.2-6-3.6 4.8 4.8zM437.6 109.6l-6.1-6.1 1.2-1.2 2.4 2.4 2.4-2.4-2.4-2.4 1.2-1.2 6.1 6.1-1.2 1.2-2.7-2.7-2.4 2.4 2.7 2.7zM443.1 104l-.9-.9-.2-3.5c0-.6-.1-1-.1-1.3-.1.1-.3.3-.5.6l-1.5 1.6-1-1 3.6-3.6.8.8.3 3.6.1 1.2c.3-.3.5-.6.6-.6l1.8-1.8 1 1z"
       id="path194" />
    <g
       id="g198">
      <path
         d="M462.4 120.5l-1.2 1.2-4.4-4.4c0 .8-.2 1.6-.6 2.4l-1.1-1.1c.2-.4.3-.9.4-1.6.1-.6 0-1.2-.2-1.7l.9-.9zM464.3 118.6l-6.1-6.1 2-2c.7-.7 1.3-1.2 1.5-1.4.4-.3.9-.4 1.5-.3.5.1 1.1.3 1.5.8.4.4.6.8.7 1.1.1.4.1.8.1 1.1-.1.4-.2.7-.3.9-.2.4-.6.8-1.2 1.4l-.8.8 2.3 2.3zm-3.9-6.2l1.7 1.7.7-.7c.5-.5.8-.8.9-1.1.1-.2.1-.5.1-.7 0-.2-.2-.4-.3-.6-.2-.2-.5-.3-.7-.4-.3 0-.5.1-.8.2-.2.1-.5.4-.9.8zM469.8 113.1l-6.1-6.1 2-2c.7-.7 1.3-1.2 1.5-1.4.4-.3.9-.4 1.5-.3.5.1 1.1.3 1.5.8.4.4.6.8.7 1.1.1.4.1.8.1 1.1-.1.4-.2.7-.3.9-.2.4-.6.8-1.2 1.4l-.8.8 2.3 2.3zm-3.8-6.3l1.7 1.7.7-.7c.5-.5.8-.8.9-1.1.1-.2.1-.5.1-.7 0-.2-.2-.4-.3-.6-.2-.2-.5-.3-.7-.4-.3 0-.5.1-.8.2-.2.1-.5.4-.9.8zM473.1 105.8l1.1-1.3c.5.3.9.5 1.3.4.4 0 .8-.2 1.2-.6.4-.4.6-.8.6-1.1 0-.3-.1-.7-.3-.9-.1-.1-.3-.2-.5-.2s-.4 0-.7.2c-.2.1-.6.3-1.2.7-.8.5-1.5.8-2 .8-.7 0-1.3-.2-1.8-.7-.3-.3-.5-.7-.6-1.1-.1-.4 0-.9.1-1.4.2-.5.5-.9 1-1.4.8-.8 1.5-1.2 2.2-1.2.7-.1 1.4.2 1.9.7l-1.2 1.3c-.4-.3-.7-.4-1-.3-.3.1-.6.2-1 .6-.4.4-.6.7-.6 1.1 0 .2 0 .4.2.6.1.1.3.2.6.2s.8-.3 1.5-.7c.7-.5 1.3-.8 1.8-.9.4-.1.9-.2 1.3-.1s.8.3 1.2.7c.3.3.6.8.7 1.3.1.5.1 1-.1 1.5s-.6 1-1.1 1.5c-.8.8-1.5 1.2-2.3 1.2-.8 0-1.5-.3-2.3-.9z"
         id="path196" />
    </g>
    <g
       id="g216">
      <circle
         cx="433.2"
         cy="136.5"
         r="15"
         fill="#ccc"
         id="circle200" />
      <circle
         cx="433.2"
         cy="136.5"
         r="12"
         fill="#d1a05e"
         id="circle202" />
      <path
         d="M433.2 125c6.3 0 11.5 5.2 11.5 11.5s-5.2 11.5-11.5 11.5-11.5-5.2-11.5-11.5 5.1-11.5 11.5-11.5m0-1c-6.9 0-12.5 5.6-12.5 12.5s5.6 12.5 12.5 12.5 12.5-5.6 12.5-12.5-5.6-12.5-12.5-12.5z"
         fill="#4c1800"
         id="path204" />
      <circle
         cx="433.2"
         cy="136.5"
         r="10.5"
         fill="#9c5c1e"
         id="circle206" />
      <circle
         cx="433.2"
         cy="136.5"
         r="6.5"
         fill="#d1a05e"
         id="circle208" />
      <circle
         cx="433.2"
         cy="136.5"
         r="5"
         fill="#885f38"
         id="circle210" />
      <path
         d="M433.2 132c2.5 0 4.5 2 4.5 4.5s-2 4.5-4.5 4.5-4.5-2-4.5-4.5 2-4.5 4.5-4.5m0-1c-3 0-5.5 2.5-5.5 5.5s2.5 5.5 5.5 5.5 5.5-2.5 5.5-5.5-2.5-5.5-5.5-5.5z"
         fill="#4c1800"
         id="path212" />
      <circle
         cx="433.2"
         cy="136.5"
         r="1.5"
         fill="#4c1800"
         id="circle214" />
    </g>
    <g
       id="g234">
      <circle
         cx="468.8"
         cy="136.5"
         r="15"
         fill="#ccc"
         id="circle218" />
      <circle
         cx="468.8"
         cy="136.5"
         r="12"
         fill="#d1a05e"
         id="circle220" />
      <path
         d="M468.8 125c6.3 0 11.5 5.2 11.5 11.5s-5.2 11.5-11.5 11.5-11.5-5.2-11.5-11.5 5.2-11.5 11.5-11.5m0-1c-6.9 0-12.5 5.6-12.5 12.5S462 149 468.8 149s12.5-5.6 12.5-12.5-5.6-12.5-12.5-12.5z"
         fill="#4c1800"
         id="path222" />
      <circle
         cx="468.8"
         cy="136.5"
         r="10.5"
         fill="#9c5c1e"
         id="circle224" />
      <circle
         cx="468.8"
         cy="136.5"
         r="6.5"
         fill="#d1a05e"
         id="circle226" />
      <circle
         cx="468.8"
         cy="136.5"
         r="5"
         fill="#885f38"
         id="circle228" />
      <path
         d="M468.8 132c2.5 0 4.5 2 4.5 4.5s-2 4.5-4.5 4.5-4.5-2-4.5-4.5 2.1-4.5 4.5-4.5m0-1c-3 0-5.5 2.5-5.5 5.5s2.5 5.5 5.5 5.5 5.5-2.5 5.5-5.5-2.4-5.5-5.5-5.5z"
         fill="#4c1800"
         id="path230" />
      <circle
         cx="468.8"
         cy="136.5"
         r="1.5"
         fill="#4c1800"
         id="circle232" />
    </g>
  </g>
  <g
     id="g252">
    <path
       fill="#333"
       d="M341.8 94h72.1v54h-72.1z"
       id="path238" />
    <g
       stroke-miterlimit="10"
       id="g250">
      <path
         d="M412.4 144.1c0 1.1-.9 2-2 2h-65c-1.1 0-2-.9-2-2v-47c0-1.1.9-2 2-2h65c1.1 0 2 .9 2 2z"
         data-cv-id="PORT-TOD"
         clip-rule="evenodd"
         fill="#c2c2c2"
         fill-rule="evenodd"
         stroke="#000"
         id="path240" />
      <g
         stroke-linecap="square"
         id="g248">
        <path
           clip-rule="evenodd"
           fill="#505050"
           fill-rule="evenodd"
           stroke="#000"
           d="M385.1 138.3v4h-17v-4h-5v-6h-11v-28h49v28h-12v6z"
           id="path242" />
        <g
           fill="none"
           stroke="#fff"
           id="g246">
          <path
             d="M363.1 105.8v11M367.1 105.8v11M371.1 105.8v11M375.1 105.8v11M379.1 105.8v11M383.1 105.8v11M387.1 105.8v11M391.1 105.8v11"
             id="path244" />
        </g>
      </g>
    </g>
  </g>
  <g
     id="g290">
    <path
       d="M491.2 156.7v-7.9h3c.6 0 1.1.1 1.4.2.4.2.6.4.9.7.2.3.3.7.3 1 0 .3-.1.7-.3 1-.2.3-.5.5-.8.7.5.1.8.4 1.1.7.3.3.4.7.4 1.2 0 .4-.1.7-.2 1-.2.3-.3.6-.6.7-.3.1-.5.3-.9.4-.3.1-.8.1-1.3.1h-3zm1.1-4.6h1.7c.5 0 .8 0 1-.1.3-.1.5-.2.6-.4.1-.2.2-.4.2-.7 0-.3-.1-.5-.2-.7-.1-.2-.3-.3-.5-.4-.2-.1-.6-.1-1.2-.1h-1.6zm0 3.6h2.7c.2 0 .4-.1.6-.2.2-.1.3-.2.4-.4.1-.2.2-.4.2-.7 0-.3-.1-.5-.2-.8-.2-.2-.4-.4-.6-.5-.3-.1-.7-.1-1.2-.1h-1.8v2.7zM498.7 156.7v-7.9h1v7.9zM503.5 156.7v-6.9h-2.6v-.9h6.2v.9h-2.6v6.9zM507.7 154.1l1-.1c0 .4.2.7.3 1 .2.3.4.5.8.6.4.2.8.2 1.2.2.4 0 .7-.1 1.1-.2.4-.1.5-.3.7-.5.1-.2.2-.4.2-.7 0-.2-.1-.5-.2-.6-.1-.2-.4-.3-.7-.5-.2-.1-.7-.2-1.4-.4s-1.2-.3-1.5-.5c-.4-.2-.7-.4-.8-.7-.2-.3-.3-.6-.3-1s.1-.8.3-1.1c.2-.3.6-.6 1-.8.4-.2.9-.3 1.4-.3.6 0 1.1.1 1.5.3.4.2.8.5 1 .8.2.3.4.8.4 1.2l-1 .1c-.1-.5-.2-.9-.5-1.1-.3-.3-.8-.4-1.4-.4-.6 0-1.1.1-1.4.3-.3.2-.4.5-.4.8 0 .3.1.5.3.7.2.2.7.4 1.6.6.8.2 1.4.4 1.7.5.5.2.8.5 1 .8.2.3.3.7.3 1.1 0 .4-.1.8-.4 1.2-.2.4-.6.7-1 .9-.4.2-1 .3-1.5.3-.7 0-1.3-.1-1.8-.3-.5-.2-.9-.5-1.1-.9-.2-.3-.4-.7-.4-1.3zM533.8 156.7v-7.9h3.5c.7 0 1.2.1 1.6.2.4.1.7.4.9.7.2.3.3.8.3 1.2 0 .6-.2 1-.5 1.4-.3.4-.9.6-1.7.7.3.1.5.3.6.4.3.3.6.6.9 1l1.4 2.1h-1.3l-1-1.6c-.3-.5-.6-.8-.8-1.1-.2-.3-.4-.4-.5-.5-.2-.1-.3-.2-.5-.2H534.9v3.5h-1.1zm1-4.4h2.2c.5 0 .8 0 1.1-.1.3-.1.5-.3.6-.5.1-.2.2-.5.2-.7 0-.4-.1-.7-.4-.9-.3-.2-.7-.4-1.3-.4h-2.5v2.6zM541.1 154.4l.9-.1c0 .6.1 1 .3 1.2.2.2.5.3.8.3.3 0 .5-.1.7-.2.2-.1.3-.3.4-.5.1-.2.1-.5.1-1v-5.4h1v5.4c0 .7-.1 1.2-.2 1.5-.2.4-.4.6-.8.8-.3.2-.8.3-1.2.3-.7 0-1.2-.2-1.6-.6-.2-.3-.4-.9-.4-1.7zM546.5 154.3v-1h3v1zM553.3 156.7v-1.9h-3.4v-.9l3.6-5.1h.8v5.1h1.1v.9h-1.1v1.9zm0-2.8v-3.6l-2.5 3.6zM557.7 152.4c-.4-.1-.7-.4-.9-.6-.2-.2-.3-.6-.3-1 0-.6.2-1.1.6-1.4.4-.3 1-.6 1.6-.6.7 0 1.2.2 1.7.6.4.4.6.9.6 1.5 0 .4-.1.7-.3 1-.2.3-.5.5-.9.6.5.2.9.4 1.1.8.3.4.4.8.4 1.3 0 .7-.2 1.2-.7 1.7-.5.5-1.1.7-1.9.7-.8 0-1.4-.2-1.9-.7-.5-.5-.7-1-.7-1.7 0-.5.1-.9.4-1.3.3-.5.7-.8 1.2-.9zm-.5 2c0 .3.1.5.2.8.1.3.3.5.6.6.3.1.5.2.8.2.5 0 .8-.1 1.1-.4.3-.3.5-.7.5-1.1 0-.5-.2-.9-.5-1.2-.3-.3-.7-.5-1.2-.5s-.8.2-1.1.5c-.3.3-.4.6-.4 1.1zm.3-3.6c0 .4.1.7.4.9.3.2.6.4.9.4.4 0 .7-.1.9-.4.2-.2.4-.5.4-.9s-.1-.7-.4-.9c-.2-.2-.6-.4-.9-.4-.4 0-.7.1-.9.4-.2.3-.4.5-.4.9z"
       id="path254" />
    <g
       id="g258">
      <path
         d="M567.7 137.6l-.1-1c.4 0 .7-.2 1-.3.3-.2.5-.4.6-.8.2-.4.2-.8.2-1.2 0-.4-.1-.7-.2-1.1-.1-.4-.3-.5-.5-.7-.2-.1-.4-.2-.7-.2-.2 0-.5.1-.6.2-.2.1-.3.4-.5.7-.1.2-.2.7-.4 1.4s-.3 1.2-.5 1.5c-.2.4-.4.7-.7.8-.3.2-.6.3-1 .3s-.8-.1-1.1-.3c-.3-.2-.6-.6-.8-1-.2-.4-.3-.9-.3-1.4 0-.6.1-1.1.3-1.5.2-.4.5-.8.8-1 .3-.2.8-.4 1.2-.4l.1 1c-.5.1-.9.2-1.1.5-.3.3-.4.8-.4 1.4 0 .6.1 1.1.3 1.4.2.3.5.4.8.4.3 0 .5-.1.7-.3.2-.2.4-.7.6-1.6.2-.8.4-1.4.5-1.7.2-.5.5-.8.8-1 .3-.2.7-.3 1.1-.3.4 0 .8.1 1.2.4.4.2.7.6.9 1 .2.4.3 1 .3 1.5 0 .7-.1 1.3-.3 1.8-.2.5-.5.9-.9 1.1-.3.3-.7.4-1.3.4zM570.3 127.8H567l-4.5 3v-1.3l2.4-1.6c.4-.3.9-.6 1.3-.8-.4-.2-.9-.5-1.4-.9l-2.3-1.5v-1.2l4.5 3.1h3.3zM570.3 122.8h-7.9v-1.1l6.2-4.1h-6.2v-1h7.9v1.1l-6.2 4.1h6.2zM567.5 109.4l.3-1c.9.2 1.5.6 2 1.2s.7 1.3.7 2.1-.2 1.5-.5 2.1c-.3.5-.8.9-1.5 1.2-.7.3-1.4.4-2.1.4-.8 0-1.5-.2-2.1-.5-.6-.3-1.1-.8-1.4-1.3-.3-.6-.5-1.2-.5-1.9 0-.8.2-1.5.6-2 .4-.5 1-.9 1.7-1.1l.2 1c-.6.2-1 .4-1.3.8-.3.3-.4.8-.4 1.3 0 .6.1 1.1.4 1.5.3.4.7.7 1.2.9.5.2 1 .2 1.5.2.7 0 1.3-.1 1.8-.3.5-.2.9-.5 1.1-.9.2-.4.4-.9.4-1.3 0-.6-.2-1.1-.5-1.5-.4-.5-.9-.8-1.6-.9zM570.3 103.9v1h-6.2c.2.2.4.5.7.9.2.4.4.7.5 1h-.9c-.3-.5-.6-1-.9-1.4-.4-.4-.7-.7-1.1-.9v-.6z"
         id="path256" />
    </g>
    <g
       id="g262">
      <path
         d="M567.7 77.6l-.1-1c.4 0 .7-.2 1-.3.3-.2.5-.4.6-.8.2-.4.2-.8.2-1.2 0-.4-.1-.7-.2-1.1-.1-.4-.3-.5-.5-.7-.2-.1-.4-.2-.7-.2-.2 0-.5.1-.6.2-.2.1-.3.4-.5.7-.1.2-.2.7-.4 1.4s-.3 1.2-.5 1.5c-.2.4-.4.7-.7.8-.3.2-.6.3-1 .3s-.8-.1-1.1-.3c-.3-.2-.6-.6-.8-1-.2-.4-.3-.9-.3-1.4 0-.6.1-1.1.3-1.5.2-.4.5-.8.8-1 .3-.2.8-.4 1.2-.4l.1 1c-.5.1-.9.2-1.1.5-.3.3-.4.8-.4 1.4 0 .6.1 1.1.3 1.4.2.3.5.4.8.4.3 0 .5-.1.7-.3.2-.2.4-.7.6-1.6.2-.8.4-1.4.5-1.7.2-.5.5-.8.8-1 .3-.2.7-.3 1.1-.3.4 0 .8.1 1.2.4.4.2.7.6.9 1 .2.4.3 1 .3 1.5 0 .7-.1 1.3-.3 1.8-.2.5-.5.9-.9 1.1-.3.3-.7.4-1.3.4zM570.3 67.8H567l-4.5 3v-1.3l2.4-1.6c.4-.3.9-.6 1.3-.8-.4-.2-.9-.5-1.4-.9l-2.3-1.5v-1.2l4.5 3.1h3.3zM570.3 62.8h-7.9v-1.1l6.2-4.1h-6.2v-1h7.9v1.1l-6.2 4.1h6.2zM567.5 49.4l.3-1c.9.2 1.5.6 2 1.2s.7 1.3.7 2.1-.2 1.5-.5 2.1c-.3.5-.8.9-1.5 1.2-.7.3-1.4.4-2.1.4-.8 0-1.5-.2-2.1-.5-.6-.3-1.1-.8-1.4-1.3-.3-.6-.5-1.2-.5-1.9 0-.8.2-1.5.6-2 .4-.5 1-.9 1.7-1.1l.2 1c-.6.2-1 .4-1.3.8-.3.3-.4.8-.4 1.3 0 .6.1 1.1.4 1.5.3.4.7.7 1.2.9.5.2 1 .2 1.5.2.7 0 1.3-.1 1.8-.3.5-.2.9-.5 1.1-.9.2-.4.4-.9.4-1.3 0-.6-.2-1.1-.5-1.5-.4-.5-.9-.8-1.6-.9zM566.4 47.6c-.9 0-1.7-.1-2.2-.3-.6-.2-1-.5-1.3-.9-.3-.4-.5-.9-.5-1.4 0-.4.1-.8.3-1.1.2-.3.4-.6.7-.8.3-.2.7-.4 1.2-.5.5-.1 1.1-.2 1.9-.2.9 0 1.7.1 2.2.3.6.2 1 .5 1.3.9.3.4.5.9.5 1.4 0 .8-.3 1.4-.8 1.8-.8.5-1.8.8-3.3.8zm0-1c1.3 0 2.2-.2 2.6-.5.4-.3.6-.7.6-1.1 0-.4-.2-.8-.6-1.1-.4-.3-1.3-.5-2.6-.5s-2.2.2-2.6.5c-.4.3-.6.7-.6 1.1 0 .4.2.8.6 1.1.4.3 1.3.5 2.6.5z"
         id="path260" />
    </g>
    <g
       id="g288">
      <path
         fill="#333"
         d="M487 37h72.1v105.8H487z"
         id="path264" />
      <g
         stroke-miterlimit="10"
         id="g286">
        <path
           d="M557.6 138.9c0 1.1-.9 2-2 2h-65c-1.1 0-2-.9-2-2v-98c0-1.1.9-2 2-2h65c1.1 0 2 .9 2 2z"
           clip-rule="evenodd"
           fill="#c2c2c2"
           fill-rule="evenodd"
           stroke="#000"
           id="path266" />
        <g
           stroke-linecap="square"
           id="g274">
          <path
             data-cv-id="PORT-SYNC0"
             clip-rule="evenodd"
             fill="#505050"
             fill-rule="evenodd"
             stroke="#000"
             d="M530.3 47v-4h-17v4h-5v6h-11v28h49V53h-12v-6z"
             id="path268" />
          <g
             fill="none"
             stroke="#fff"
             id="g272">
            <path
               d="M508.3 79.5v-11M512.3 79.5v-11M516.3 79.5v-11M520.3 79.5v-11M524.3 79.5v-11M528.3 79.5v-11M532.3 79.5v-11M536.3 79.5v-11"
               id="path270" />
          </g>
        </g>
        <g
           stroke-linecap="square"
           id="g282">
          <path
             data-cv-id="PORT-SYNC1"
             clip-rule="evenodd"
             fill="#505050"
             fill-rule="evenodd"
             stroke="#000"
             d="M530.3 133v4h-17v-4h-5v-6h-11V99h49v28h-12v6z"
             id="path276" />
          <g
             fill="none"
             stroke="#fff"
             id="g280">
            <path
               d="M508.3 100.5v11M512.3 100.5v11M516.3 100.5v11M520.3 100.5v11M524.3 100.5v11M528.3 100.5v11M532.3 100.5v11M536.3 100.5v11"
               id="path278" />
          </g>
        </g>
        <path
           clip-rule="evenodd"
           fill="#c2c2c2"
           fill-rule="evenodd"
           stroke="#000"
           stroke-linecap="square"
           d="M548.3 43h-10v8h10zM505.3 43h-10v8h10zM548.3 129h-10v8h10zM505.3 129h-10v8h10z"
           id="path284" />
      </g>
    </g>
  </g>
  <g
     id="g298">
    <path
       d="M598.8 117.6v-1.1h2.8v2.6c-.3.3-.7.5-1.2.7-.5.2-1 .3-1.6.3-.7 0-1.3-.1-1.8-.4-.5-.3-.9-.7-1.1-1.2-.3-.5-.4-1.1-.4-1.7 0-.7.1-1.3.4-1.8.3-.5.7-.9 1.2-1.2.4-.2.9-.3 1.5-.3.8 0 1.4.2 1.9.5s.7.8.9 1.4l-1.3.2c-.1-.3-.3-.6-.5-.7-.3-.2-.6-.3-.9-.3-.6 0-1 .2-1.4.5-.3.4-.5.9-.5 1.6 0 .8.2 1.3.5 1.7.3.4.8.6 1.3.6.3 0 .5-.1.8-.2.3-.1.5-.2.7-.4v-.8zM602.7 120v-6.4h2.1c.8 0 1.3 0 1.5.1.4.1.7.3.9.6.2.3.4.7.4 1.3 0 .4-.1.7-.2 1-.1.3-.3.5-.5.6-.2.2-.4.3-.7.3-.3.1-.8.1-1.3.1h-.9v2.4zm1.3-5.4v1.8h.7c.5 0 .9 0 1-.1.1-.1.3-.2.4-.3.1-.1.1-.3.1-.5s-.1-.4-.2-.6c-.1-.2-.3-.2-.5-.3h-.9zM608.2 117.9l1.3-.1c.1.4.2.7.5.9.2.2.5.3.9.3s.7-.1.9-.3c.2-.2.3-.4.3-.6 0-.2 0-.3-.1-.4-.1-.1-.2-.2-.5-.3-.2-.1-.5-.1-1-.3-.7-.2-1.2-.4-1.5-.6-.4-.4-.6-.8-.6-1.3 0-.3.1-.6.3-.9.2-.3.5-.5.8-.7.3-.1.8-.2 1.3-.2.8 0 1.4.2 1.8.5.4.4.6.8.6 1.4l-1.3.1c-.1-.3-.2-.6-.4-.7-.2-.1-.5-.2-.8-.2-.4 0-.7.1-.9.2-.1.1-.2.2-.2.4s.1.3.2.4c.2.1.6.3 1.2.4.6.1 1.1.3 1.4.5.3.2.5.4.7.7.2.3.3.6.3 1s-.1.7-.3 1c-.2.3-.5.6-.9.7-.4.2-.8.2-1.4.2-.8 0-1.4-.2-1.9-.6-.5-.4-.6-.8-.7-1.5zM595.4 133.9l1.3-.1c.1.4.2.7.5.9.2.2.5.3.9.3s.7-.1.9-.3c.2-.2.3-.4.3-.6 0-.2 0-.3-.1-.4-.1-.1-.2-.2-.5-.3-.2-.1-.5-.1-1-.3-.7-.2-1.2-.4-1.5-.6-.4-.4-.6-.8-.6-1.3 0-.3.1-.6.3-.9.2-.3.5-.5.8-.7.3-.1.8-.2 1.3-.2.8 0 1.4.2 1.8.5.4.4.6.8.6 1.4l-1.3.1c-.1-.3-.2-.6-.4-.7-.2-.1-.5-.2-.8-.2-.4 0-.7.1-.9.2-.1.1-.2.2-.2.4s.1.3.2.4c.2.1.6.3 1.2.4.6.1 1.1.3 1.4.5.3.2.5.4.7.7.2.3.3.6.3 1s-.1.7-.3 1c-.2.3-.5.6-.9.7-.4.2-.8.2-1.4.2-.8 0-1.4-.2-1.9-.6-.5-.4-.6-.8-.7-1.5zM603.4 136v-2.7l-2.4-3.7h1.5l1.5 2.5 1.5-2.5h1.5l-2.4 3.7v2.7zM607.6 136v-6.4h1.3l2.6 4.3v-4.3h1.2v6.4h-1.3l-2.6-4.2v4.2zM618.1 133.6l1.3.4c-.2.7-.5 1.2-1 1.6-.5.3-1 .5-1.7.5-.9 0-1.6-.3-2.1-.9-.6-.6-.8-1.4-.8-2.4 0-1.1.3-1.9.8-2.5.6-.6 1.3-.9 2.2-.9.8 0 1.4.2 1.9.7.3.3.5.7.7 1.2l-1.3.3c-.1-.3-.2-.6-.5-.8-.2-.2-.5-.3-.9-.3-.5 0-.9.2-1.2.5-.3.3-.4.9-.4 1.7 0 .8.1 1.4.4 1.7.3.3.7.5 1.1.5.3 0 .6-.1.9-.3.3-.2.5-.5.6-1z"
       id="path292" />
    <circle
       cx="589.3"
       cy="116.8"
       r="4"
       fill="#4d4d4d"
       id="circle294" />
    <circle
       cx="589.4"
       cy="132.8"
       r="4"
       fill="#4d4d4d"
       id="circle296" />
  </g>
  <g
     id="g346">
    <path
       d="M750.5 179.3c-.6 0-2.8-2.3-4.6-4.4v-24.6h26v23.2h-.6V171c0-.3-.2-.5-.5-.5H764c-.1 0-.3.1-.4.2-.1.1-.1.3-.1.4 0 0 .8 4.4-1.1 6.7-.8 1-2 1.4-3.5 1.4h-8.4z"
       fill="#b3b3b3"
       id="path300" />
    <path
       d="M771.5 150.8v19.5c-.2-.1-.4-.2-.6-.2H764c-.3 0-.6.1-.8.4-.2.2-.3.5-.2.8 0 0 .8 4.2-1 6.3-.7.8-1.7 1.3-3.1 1.3h-8.4c-.6-.2-2.5-2-4.1-4.1v-23.9h25.1m1-1.1h-27v25.3s3.8 4.7 5.1 4.7h8.4c6.7 0 5-8.7 5-8.7h6.8v3h1.6v-24.3z"
       fill="#666"
       id="path302" />
    <g
       id="g344">
      <path
         clip-rule="evenodd"
         fill="#bfbfbf"
         fill-rule="evenodd"
         d="M703.4 165h29v3h-29z"
         id="path304" />
      <path
         d="M731.9 165.5v2h-28v-2h28m1-1h-30v4h30z"
         fill="#666"
         id="path306" />
      <path
         clip-rule="evenodd"
         fill="#bfbfbf"
         fill-rule="evenodd"
         d="M706.4 147.7h14v17h-14z"
         id="path308" />
      <path
         d="M719.9 148.2v16h-13v-16h13m1-1h-15v18h15z"
         fill="#666"
         id="path310" />
      <path
         clip-rule="evenodd"
         fill="#4d4d4d"
         fill-rule="evenodd"
         d="M719.2 147.5h5.4v17.4h-5.4z"
         id="path312" />
      <path
         d="M724.3 147.8v16.7h-4.7v-16.7h4.7m.6-.6h-6v18h6z"
         fill="#666"
         id="path314" />
      <g
         id="g320">
        <path
           clip-rule="evenodd"
           fill="#333"
           fill-rule="evenodd"
           d="M703.1 147.5h3.5V165h-3.5z"
           id="path316" />
        <path
           d="M706.4 147.7v17h-3v-17h3m.5-.5h-4v18h4z"
           fill="#666"
           id="path318" />
      </g>
      <g
         id="g342">
        <path
           fill="#b3b3b3"
           d="M685.5 152.5H765v6.8h-79.5z"
           id="path322" />
        <path
           d="M764.5 153v5.8H686V153h78.5m1-1H685v7.8h80.5z"
           fill="#666"
           id="path324" />
        <g
           id="g340">
          <path
             fill="none"
             stroke="#a6a6a6"
             stroke-width=".782"
             stroke-linecap="round"
             stroke-linejoin="round"
             stroke-miterlimit="10"
             d="M546.5 151.5v10.9"
             id="path326" />
          <path
             clip-rule="evenodd"
             fill="#262626"
             fill-rule="evenodd"
             d="M534 160.9l2.4 1.5h70.4v-10.9h-70.4L534 153z"
             id="path328" />
          <path
             fill="none"
             stroke="#a6a6a6"
             stroke-width=".782"
             stroke-linecap="round"
             stroke-linejoin="round"
             stroke-miterlimit="10"
             d="M534 160.9l2.4 1.5h70.4v-10.9h-70.4L534 153z"
             id="path330" />
          <path
             clip-rule="evenodd"
             fill="#262626"
             fill-rule="evenodd"
             d="M613.8 151.5h72v11h-72z"
             id="path332" />
          <path
             fill="none"
             stroke="#a6a6a6"
             stroke-width=".782"
             stroke-linecap="round"
             stroke-linejoin="round"
             stroke-miterlimit="10"
             d="M685.8 151.5h-72v10.9h72z"
             id="path334" />
          <path
             clip-rule="evenodd"
             fill="#262626"
             fill-rule="evenodd"
             d="M606.8 153.4h7v7h-7z"
             id="path336" />
          <path
             fill="none"
             stroke="#a6a6a6"
             stroke-width=".782"
             stroke-linecap="round"
             stroke-linejoin="round"
             stroke-miterlimit="10"
             d="M613.8 153.4h-7v7h7z"
             id="path338" />
        </g>
      </g>
    </g>
  </g>
  <g
     fill="#333"
     id="g350">
    <path
       d="M363.4 164.3h-18c-4.1 0-7.5-3.4-7.5-7.5v-58c0-4.1 3.4-7.5 7.5-7.5h18v-1h-18c-4.7 0-8.5 3.8-8.5 8.5v58c0 4.7 3.8 8.5 8.5 8.5h18zM475.4 90.3h-18v1h18c4.1 0 7.5 3.4 7.5 7.5v58c0 4.1-3.4 7.5-7.5 7.5h-18v1h18c4.7 0 8.5-3.8 8.5-8.5v-58c0-4.7-3.8-8.5-8.5-8.5z"
       id="path348" />
  </g>
  <g
     id="g356">
    <path
       d="M632 95.5c-4.1 0-7.5-3.4-7.5-7.5V74c0-4.1 3.4-7.5 7.5-7.5h84c4.1 0 7.5 3.4 7.5 7.5v14c0 4.1-3.4 7.5-7.5 7.5z"
       fill="#e6e6e6"
       id="path352" />
    <path
       d="M716 67c3.9 0 7 3.1 7 7v14c0 3.9-3.1 7-7 7h-84c-3.9 0-7-3.1-7-7V74c0-3.9 3.1-7 7-7h84m0-1h-84c-4.4 0-8 3.6-8 8v14c0 4.4 3.6 8 8 8h84c4.4 0 8-3.6 8-8V74c0-4.4-3.6-8-8-8z"
       fill="#999"
       id="path354" />
  </g>
  <text
     xml:space="preserve"
     style="font-style:normal;font-weight:normal;font-size:40px;line-height:1.25;font-family:sans-serif;fill:#000000;fill-opacity:1;stroke:none"
     x="417.65738"
     y="158.75432"
     id="text368"><tspan
       sodipodi:role="line"
       id="tspan366"
       x="417.65738"
       y="158.75432" /></text>
</svg>
