<?xml version="1.0" encoding="UTF-8" standalone="no"?>
<svg
   xmlns:dc="http://purl.org/dc/elements/1.1/"
   xmlns:cc="http://creativecommons.org/ns#"
   xmlns:rdf="http://www.w3.org/1999/02/22-rdf-syntax-ns#"
   xmlns:svg="http://www.w3.org/2000/svg"
   xmlns="http://www.w3.org/2000/svg"
   xmlns:sodipodi="http://sodipodi.sourceforge.net/DTD/sodipodi-0.dtd"
   xmlns:inkscape="http://www.inkscape.org/namespaces/inkscape"
   version="1.1"
   id="NC55-1200W-ACFWLayer_1"
   x="0"
   y="0"
   viewBox="0 0 364 154"
   xml:space="preserve"
   width="364"
   height="154"
   sodipodi:docname="NC55-1200W-ACFW.svg"
   inkscape:version="1.0.1 (3bc2e813f5, 2020-09-07)"><metadata
     id="metadata124"><rdf:RDF><cc:Work
         rdf:about=""><dc:format>image/svg+xml</dc:format><dc:type
           rdf:resource="http://purl.org/dc/dcmitype/StillImage" /></cc:Work></rdf:RDF></metadata><defs
     id="defs122" /><sodipodi:namedview
     pagecolor="#ffffff"
     bordercolor="#666666"
     borderopacity="1"
     objecttolerance="10"
     gridtolerance="10"
     guidetolerance="10"
     inkscape:pageopacity="0"
     inkscape:pageshadow="2"
     inkscape:window-width="1280"
     inkscape:window-height="658"
     id="namedview120"
     showgrid="false"
     inkscape:zoom="2.8626374"
     inkscape:cx="182"
     inkscape:cy="77"
     inkscape:window-x="-6"
     inkscape:window-y="-6"
     inkscape:window-maximized="1"
     inkscape:current-layer="NC55-1200W-ACFWLayer_1" /><style
     type="text/css"
     id="NC55-1200W-ACFWstyle2">.NC55-1200W-ACFWst0{fill:#010101}.NC55-1200W-ACFWst1{fill:#818181}.NC55-1200W-ACFWst2{fill:#333}.NC55-1200W-ACFWst3{fill:#989898}.NC55-1200W-ACFWst6,.NC55-1200W-ACFWst7{fill-rule:evenodd;clip-rule:evenodd;fill:#f3f3f3}.NC55-1200W-ACFWst7{fill:#d9d9d8;stroke:#4e4e4e;stroke-width:.4;stroke-miterlimit:10}.NC55-1200W-ACFWst8{fill:#4e4e4e}.NC55-1200W-ACFWst9{fill-rule:evenodd;clip-rule:evenodd;fill:#333}.NC55-1200W-ACFWst10,.NC55-1200W-ACFWst13{fill-rule:evenodd;clip-rule:evenodd;fill:#ccc}.NC55-1200W-ACFWst13{fill:#818181}.NC55-1200W-ACFWst15{fill:none;stroke:#8c8c8c;stroke-width:6.000000e-02;stroke-linecap:round;stroke-linejoin:round;stroke-miterlimit:2}.NC55-1200W-ACFWst16{fill:#b4b4b4}</style><g
     id="NC55-1200W-ACFWg234"><path
       class="NC55-1200W-ACFWst0"
       id="NC55-1200W-ACFWpolygon4"
       fill="#010101"
       d="M67 149h85.5l42.4-42.4V35.5L162.7 3.3h-115L29.5 34.1v77.4z" /><g
       id="NC55-1200W-ACFWg10"><path
         class="NC55-1200W-ACFWst1"
         d="M.5 149.8V7.2C.5 4.2 3 1.7 6 1.7h30.5v3H6c-1.4 0-2.5 1.1-2.5 2.5v142.5h-3z"
         id="NC55-1200W-ACFWpath6"
         fill="#818181" /><path
         class="NC55-1200W-ACFWst2"
         d="M36 2.2v2H6c-1.7 0-3 1.3-3 3v142H1V7.2c0-2.8 2.2-5 5-5h30m1-1H6c-3.3 0-6 2.7-6 6v143h4V7.2c0-1.1.9-2 2-2h31z"
         id="NC55-1200W-ACFWpath8"
         fill="#333" /></g><g
       id="NC55-1200W-ACFWg16"><path
         class="NC55-1200W-ACFWst1"
         d="M327.5 149.8v-3H358c1.4 0 2.5-1.1 2.5-2.5V7.8h3v136.5c0 3-2.5 5.5-5.5 5.5z"
         id="NC55-1200W-ACFWpath12"
         fill="#818181" /><path
         class="NC55-1200W-ACFWst2"
         d="M363 8.2v136c0 2.8-2.2 5-5 5h-30v-2h30c1.7 0 3-1.3 3-3V8.2h2m1-1h-4v137c0 1.1-.9 2-2 2h-31v4h31c3.3 0 6-2.7 6-6z"
         id="NC55-1200W-ACFWpath14"
         fill="#333" /></g><g
       id="NC55-1200W-ACFWg22"><path
         class="NC55-1200W-ACFWst1"
         d="M345.5 10.5c-1.4 0-2.4-1.4-4-3.5-1.1-1.5-2.3-3-3-3.4l-.1-.1H191v-3h147.5c2 0 3.7 2.3 5.5 4.7.5.7 1.2 1.7 1.7 2.1l.1.2H357v3z"
         id="NC55-1200W-ACFWpath18"
         fill="#818181" /><path
         class="NC55-1200W-ACFWst2"
         d="M338.5 1c1.8 0 3.4 2.2 5.1 4.5.5.7 1.2 1.7 1.7 2.2l.3.3h10.9v2h-11c-1.1 0-2-1.1-3.6-3.3-1.4-1.9-2.4-3.2-3.1-3.6l-.2-.1H191.5V1h147m0-1h-148v4h147.8c.7.4 2 2.3 2.8 3.3 1.6 2.2 2.7 3.7 4.4 3.7h12V7H346c-.4-.4-1.1-1.4-1.6-2.1-1.9-2.5-3.6-4.9-5.9-4.9zm-1.2 4z"
         id="NC55-1200W-ACFWpath20"
         fill="#333" /></g><g
       id="NC55-1200W-ACFWg28"><path
         class="NC55-1200W-ACFWst3"
         d="M240.5 153.5v-3.2c0-1.4-1.1-2.5-2.5-2.5h-.4c-1.2.2-2.1 1.3-2.1 2.6v3.1h-22v-3.2c0-1.4-1.1-2.5-2.5-2.5h-.4c-1.2.2-2.1 1.3-2.1 2.6v3.1h-19v-3.2c0-1.4-1.1-2.5-2.5-2.5h-.4c-1.2.2-2.1 1.3-2.1 2.6v3.1h-145v-3.2c0-1.4-1.1-2.5-2.5-2.5h-.4c-1.2.2-2.1 1.3-2.1 2.6v3.1H7.4c-.3-2.4-1.8-5.8-3.9-6.5V8.8h35V.5h147v5.8c0 .7.3 1.3.7 1.8.5.5 1.1.7 1.8.7h.4c1.2-.2 2.1-1.3 2.1-2.6V4.8h37v1.5c0 .7.3 1.3.7 1.8.5.5 1.1.7 1.8.7h.4c1.2-.2 2.1-1.3 2.1-2.6V4.8H247c4.1 0 7.5 3.4 7.5 7.5v34.5h77V18.2c0-4.1 3.4-7.5 7.5-7.5h23.5v132H359c-1.4 0-2.5 1.1-2.5 2.5v8.2h-116zM61.6 126.1l20.5 19.4h61.7l20.5-19.4L113 79.3zm55.8-50.9l51.3 46.7 18.8-17.7V45.8L169 28.3zM38.5 45.8v58.4l18.7 17.7 51.3-46.7L57 28.3zm22.9-21.7l51.6 47 51.6-47-20.7-19.6H82.1z"
         id="NC55-1200W-ACFWpath24"
         fill="#989898" /><path
         d="M185 1v5.2c0 1.7 1.3 3 3 3h.5c1.4-.2 2.5-1.6 2.5-3.1v-.9h36v1c0 1.7 1.3 3 3 3h.5c1.4-.2 2.5-1.6 2.5-3.1v-.9h14c3.9 0 7 3.1 7 7v35h78v-29c0-3.9 3.1-7 7-7h23v131h-3c-1.7 0-3 1.3-3 3v7.8H241v-2.8c0-1.7-1.3-3-3-3h-.5c-1.4.2-2.5 1.6-2.5 3.1v2.6h-21v-2.8c0-1.7-1.3-3-3-3h-.5c-1.4.2-2.5 1.6-2.5 3.1v2.6h-18V150c0-1.7-1.3-3-3-3h-.5c-1.4.2-2.5 1.6-2.5 3.1v2.6H40v-2.8c0-1.7-1.3-3-3-3h-.5c-1.4.2-2.5 1.6-2.5 3.1v2.6H7.9c-.4-2.2-1.7-5.3-3.9-6.4V9.2h35V1h146m-72 70.8l.7-.6 50.9-46.3.8-.7-.8-.7-20.3-19.2-.3-.3H82l-.3.3-20.3 19.1-.8.7.8.7 50.9 46.3.7.7m55.7 50.8l.7-.6 18.3-17.3.3-.3V45.6l-.3-.3-18-17-.7-.6-.7.6-50.8 46.3-.8.7.8.7 50.5 46.1.7.5m-111.5 0l.7-.6 50.5-46 .8-.7-.8-.7-50.7-46.4-.7-.6-.7.6-18 17-.3.4v58.8l.3.3L56.6 122l.6.6M82 146H144.1l.3-.3 20-18.9.8-.7-.8-.7-50.6-46.1-.7-.6-.7.6-50.6 46.1-.8.7.8.7 20 18.9.2.3M186 0H38v8.2H3v139.1c2.2.4 3.9 4.3 4 6.6h28v-3.6c0-1 .7-1.9 1.7-2.1h.3c1.1 0 2 .9 2 2v3.8h146v-3.6c0-1 .7-1.9 1.7-2.1h.3c1.1 0 2 .9 2 2v3.8h20v-3.6c0-1 .7-1.9 1.7-2.1h.3c1.1 0 2 .9 2 2v3.8h23v-3.6c0-1 .7-1.9 1.7-2.1h.3c1.1 0 2 .9 2 2v3.8h117v-8.8c0-1.1.9-2 2-2h4v-133h-24c-4.4 0-8 3.6-8 8v28h-76v-34c0-4.4-3.6-8-8-8h-15v1.9c0 1-.7 1.9-1.7 2.1h-.3c-1.1 0-2-.9-2-2v-2h-38v1.9c0 1-.7 1.9-1.7 2.1h-.3c-1.1 0-2-.9-2-2v-4zm-73 70.5L62.1 24.1 82.3 5h61.3l20.2 19.1zm55.7 50.8l-50.5-46.1L169 29l18 17v58zm-111.5 0L39 104V46l18-17 50.8 46.3zM82.3 145l-20-18.9L113 80l50.6 46.1-20 18.9z"
         id="NC55-1200W-ACFWpath26"
         fill="#ccc" /></g><g
       id="NC55-1200W-ACFWg34"
       opacity=".3"><circle
         class="NC55-1200W-ACFWst6"
         cx="113"
         cy="75"
         r="41.5"
         id="NC55-1200W-ACFWcircle30"
         clip-rule="evenodd"
         fill="#f3f3f3"
         fill-rule="evenodd" /><path
         class="NC55-1200W-ACFWst3"
         d="M113 34c22.6 0 41 18.4 41 41s-18.4 41-41 41-41-18.4-41-41 18.4-41 41-41m0-1c-23.2 0-42 18.8-42 42s18.8 42 42 42 42-18.8 42-42-18.8-42-42-42z"
         id="NC55-1200W-ACFWpath32"
         fill="#989898" /></g><g
       id="NC55-1200W-ACFWg104"><g
         id="NC55-1200W-ACFWg68"><g
           id="NC55-1200W-ACFWg50"><circle
             class="NC55-1200W-ACFWst7"
             cx="174"
             cy="14"
             r="12"
             id="NC55-1200W-ACFWcircle36"
             clip-rule="evenodd"
             fill="#d9d9d8"
             fill-rule="evenodd"
             stroke="#4e4e4e"
             stroke-width=".4"
             stroke-miterlimit="10" /><circle
             class="NC55-1200W-ACFWst7"
             cx="174"
             cy="14"
             r="10.9"
             id="NC55-1200W-ACFWcircle38"
             clip-rule="evenodd"
             fill="#d9d9d8"
             fill-rule="evenodd"
             stroke="#4e4e4e"
             stroke-width=".4"
             stroke-miterlimit="10" /><g
             id="NC55-1200W-ACFWg48"><g
               id="NC55-1200W-ACFWg42"><path
                 class="NC55-1200W-ACFWst8"
                 id="NC55-1200W-ACFWrect40"
                 fill="#4e4e4e"
                 d="M172.3 6.9h3.3v14.2h-3.3z" /></g><g
               id="NC55-1200W-ACFWg46"><path
                 class="NC55-1200W-ACFWst8"
                 id="NC55-1200W-ACFWrect44"
                 fill="#4e4e4e"
                 d="M166.9 12.3h14.2v3.3h-14.2z" /></g></g></g><g
           id="NC55-1200W-ACFWg66"><circle
             class="NC55-1200W-ACFWst7"
             cx="174"
             cy="135"
             r="12"
             id="NC55-1200W-ACFWcircle52"
             clip-rule="evenodd"
             fill="#d9d9d8"
             fill-rule="evenodd"
             stroke="#4e4e4e"
             stroke-width=".4"
             stroke-miterlimit="10" /><circle
             class="NC55-1200W-ACFWst7"
             cx="174"
             cy="135"
             r="10.9"
             id="NC55-1200W-ACFWcircle54"
             clip-rule="evenodd"
             fill="#d9d9d8"
             fill-rule="evenodd"
             stroke="#4e4e4e"
             stroke-width=".4"
             stroke-miterlimit="10" /><g
             id="NC55-1200W-ACFWg64"><g
               id="NC55-1200W-ACFWg58"><path
                 class="NC55-1200W-ACFWst8"
                 id="NC55-1200W-ACFWrect56"
                 fill="#4e4e4e"
                 d="M172.3 127.9h3.3v14.2h-3.3z" /></g><g
               id="NC55-1200W-ACFWg62"><path
                 class="NC55-1200W-ACFWst8"
                 id="NC55-1200W-ACFWrect60"
                 fill="#4e4e4e"
                 d="M166.9 133.3h14.2v3.3h-14.2z" /></g></g></g></g><g
         id="NC55-1200W-ACFWg102"><g
           id="NC55-1200W-ACFWg84"><circle
             class="NC55-1200W-ACFWst7"
             cx="52"
             cy="14"
             r="12"
             id="NC55-1200W-ACFWcircle70"
             clip-rule="evenodd"
             fill="#d9d9d8"
             fill-rule="evenodd"
             stroke="#4e4e4e"
             stroke-width=".4"
             stroke-miterlimit="10" /><circle
             class="NC55-1200W-ACFWst7"
             cx="52"
             cy="14"
             r="10.9"
             id="NC55-1200W-ACFWcircle72"
             clip-rule="evenodd"
             fill="#d9d9d8"
             fill-rule="evenodd"
             stroke="#4e4e4e"
             stroke-width=".4"
             stroke-miterlimit="10" /><g
             id="NC55-1200W-ACFWg82"><g
               id="NC55-1200W-ACFWg76"><path
                 class="NC55-1200W-ACFWst8"
                 id="NC55-1200W-ACFWrect74"
                 fill="#4e4e4e"
                 d="M50.3 6.9h3.3v14.2h-3.3z" /></g><g
               id="NC55-1200W-ACFWg80"><path
                 class="NC55-1200W-ACFWst8"
                 id="NC55-1200W-ACFWrect78"
                 fill="#4e4e4e"
                 d="M44.9 12.3h14.2v3.3H44.9z" /></g></g></g><g
           id="NC55-1200W-ACFWg100"><ellipse
             class="NC55-1200W-ACFWst7"
             cx="52"
             cy="134.4"
             rx="4.7"
             ry="12.4"
             id="NC55-1200W-ACFWellipse86"
             clip-rule="evenodd"
             fill="#d9d9d8"
             fill-rule="evenodd"
             stroke="#4e4e4e"
             stroke-width=".4"
             stroke-miterlimit="10" /><circle
             class="NC55-1200W-ACFWst7"
             cx="52"
             cy="134.4"
             r="10.9"
             id="NC55-1200W-ACFWcircle88"
             clip-rule="evenodd"
             fill="#d9d9d8"
             fill-rule="evenodd"
             stroke="#4e4e4e"
             stroke-width=".4"
             stroke-miterlimit="10" /><g
             id="NC55-1200W-ACFWg98"><g
               id="NC55-1200W-ACFWg92"><path
                 class="NC55-1200W-ACFWst8"
                 d="M50.3 139.8v-10.9c0-.9.7-1.6 1.6-1.6.9 0 1.6.7 1.6 1.6v10.9c0 .9-.7 1.6-1.6 1.6-.8.1-1.6-.7-1.6-1.6z"
                 id="NC55-1200W-ACFWpath90"
                 fill="#4e4e4e" /></g><g
               id="NC55-1200W-ACFWg96"><path
                 class="NC55-1200W-ACFWst8"
                 d="M44.9 134.4c0-.9.7-1.6 1.6-1.6h10.9c.9 0 1.6.7 1.6 1.6 0 .9-.7 1.6-1.6 1.6H46.5c-.9 0-1.6-.7-1.6-1.6z"
                 id="NC55-1200W-ACFWpath94"
                 fill="#4e4e4e" /></g></g></g></g></g><g
       id="NC55-1200W-ACFWg122"><g
         id="NC55-1200W-ACFWg110"><circle
           class="NC55-1200W-ACFWst9"
           cx="14.5"
           cy="51.5"
           r="10"
           id="NC55-1200W-ACFWcircle106"
           clip-rule="evenodd"
           fill="#333"
           fill-rule="evenodd" /><path
           class="NC55-1200W-ACFWst1"
           d="M14.5 42c5.2 0 9.5 4.3 9.5 9.5S19.7 61 14.5 61 5 56.7 5 51.5 9.3 42 14.5 42m0-1C8.7 41 4 45.7 4 51.5S8.7 62 14.5 62 25 57.3 25 51.5 20.3 41 14.5 41z"
           id="NC55-1200W-ACFWpath108"
           fill="#818181" /></g><g
         id="NC55-1200W-ACFWg116"><circle
           class="NC55-1200W-ACFWst10"
           cx="14.5"
           cy="51.5"
           r="5"
           id="NC55-1200W-ACFWcircle112"
           clip-rule="evenodd"
           fill="#ccc"
           fill-rule="evenodd" /><path
           class="NC55-1200W-ACFWst1"
           d="M14.5 47c2.5 0 4.5 2 4.5 4.5S17 56 14.5 56 10 54 10 51.5s2-4.5 4.5-4.5m0-1c-3 0-5.5 2.5-5.5 5.5s2.5 5.5 5.5 5.5 5.5-2.5 5.5-5.5-2.5-5.5-5.5-5.5z"
           id="NC55-1200W-ACFWpath114"
           fill="#818181" /></g><g
         id="NC55-1200W-ACFWg120"><ellipse
           class="NC55-1200W-ACFWst6"
           cx="14.5"
           cy="49.5"
           rx="2"
           ry="1"
           id="NC55-1200W-ACFWellipse118"
           clip-rule="evenodd"
           fill="#f3f3f3"
           fill-rule="evenodd" /></g></g><g
       id="NC55-1200W-ACFWg140"><g
         id="NC55-1200W-ACFWg128"><circle
           class="NC55-1200W-ACFWst9"
           cx="14.5"
           cy="114.5"
           r="10"
           id="NC55-1200W-ACFWcircle124"
           clip-rule="evenodd"
           fill="#333"
           fill-rule="evenodd" /><path
           class="NC55-1200W-ACFWst1"
           d="M14.5 105c5.2 0 9.5 4.3 9.5 9.5s-4.3 9.5-9.5 9.5-9.5-4.3-9.5-9.5 4.3-9.5 9.5-9.5m0-1C8.7 104 4 108.7 4 114.5S8.7 125 14.5 125 25 120.3 25 114.5 20.3 104 14.5 104z"
           id="NC55-1200W-ACFWpath126"
           fill="#818181" /></g><g
         id="NC55-1200W-ACFWg134"><circle
           class="NC55-1200W-ACFWst10"
           cx="14.5"
           cy="114.5"
           r="5"
           id="NC55-1200W-ACFWcircle130"
           clip-rule="evenodd"
           fill="#ccc"
           fill-rule="evenodd" /><path
           class="NC55-1200W-ACFWst1"
           d="M14.5 110c2.5 0 4.5 2 4.5 4.5s-2 4.5-4.5 4.5-4.5-2-4.5-4.5 2-4.5 4.5-4.5m0-1c-3 0-5.5 2.5-5.5 5.5s2.5 5.5 5.5 5.5 5.5-2.5 5.5-5.5-2.5-5.5-5.5-5.5z"
           id="NC55-1200W-ACFWpath132"
           fill="#818181" /></g><g
         id="NC55-1200W-ACFWg138"><ellipse
           class="NC55-1200W-ACFWst6"
           cx="14.5"
           cy="112.5"
           rx="2"
           ry="1"
           id="NC55-1200W-ACFWellipse136"
           clip-rule="evenodd"
           fill="#f3f3f3"
           fill-rule="evenodd" /></g></g><g
       id="NC55-1200W-ACFWg166"><g
         id="NC55-1200W-ACFWg146"><path
           class="NC55-1200W-ACFWst9"
           d="M248 131.5c-.8 0-1.5-.7-1.5-1.5V18c0-.8.7-1.5 1.5-1.5h88c.8 0 1.5.7 1.5 1.5v112c0 .8-.7 1.5-1.5 1.5z"
           id="NC55-1200W-ACFWpath142"
           clip-rule="evenodd"
           fill="#333"
           fill-rule="evenodd" /><path
           class="NC55-1200W-ACFWst3"
           d="M336 17c.6 0 1 .5 1 1v112c0 .6-.5 1-1 1h-88c-.6 0-1-.5-1-1V18c0-.6.5-1 1-1h88m0-1h-88c-1.1 0-2 .9-2 2v112c0 1.1.9 2 2 2h88c1.1 0 2-.9 2-2V18c0-1.1-.9-2-2-2z"
           id="NC55-1200W-ACFWpath144"
           fill="#989898" /></g><g
         id="NC55-1200W-ACFWg164"><path
           d="M322.1 40.8v66.4c0 8-6.4 14.4-14.4 14.4h-17.6c-4 0-7.2-1.6-9.6-4l-16.8-14.4c-2.4-3.2-4-6.4-4-10.4V55.2c0-4 1.6-8 4-10.4l16.8-14.4c2.4-2.4 5.6-4 9.6-4h17.6c8 0 14.4 6.4 14.4 14.4z"
           id="NC55-1200W-ACFWpath148"
           fill="none"
           stroke="#000"
           stroke-width=".06"
           stroke-linecap="round"
           stroke-linejoin="round"
           stroke-miterlimit="2" /><path
           d="M322.1 40.8v66.4c0 8-6.4 14.4-14.4 14.4h-17.6c-4 0-7.2-1.6-9.6-4l-16.8-14.4c-2.4-3.2-4-6.4-4-10.4V55.2c0-4 1.6-8 4-10.4l16.8-14.4c2.4-2.4 5.6-4 9.6-4h17.6c8 0 14.4 6.4 14.4 14.4z"
           id="NC55-1200W-ACFWpath150"
           clip-rule="evenodd"
           fill="#262626"
           fill-rule="evenodd" /><path
           class="NC55-1200W-ACFWst13"
           d="M277.3 70.4v6.4c0 .8 0 1.6.8 1.6h12.8c.8 0 .8-.8.8-1.6v-6.4s0-.8-.8-.8h-12.8c-.8 0-.8.8-.8.8z"
           id="NC55-1200W-ACFWpath152"
           clip-rule="evenodd"
           fill="#818181"
           fill-rule="evenodd" /><path
           class="NC55-1200W-ACFWst13"
           d="M294.1 93.6v5.6c0 .8.8 1.6 1.6 1.6h12.8s.8-.8.8-1.6v-5.6c0-.8-.8-1.6-.8-1.6h-12.8c-.8 0-1.6.8-1.6 1.6z"
           id="NC55-1200W-ACFWpath154"
           clip-rule="evenodd"
           fill="#818181"
           fill-rule="evenodd" /><path
           d="M294.1 48v6.4c0 .8.8.8 1.6.8h12.8s.8 0 .8-.8V48l-.8-.8h-12.8c-.8 0-1.6.8-1.6.8z"
           id="NC55-1200W-ACFWpath156"
           clip-rule="evenodd"
           fill="#989898"
           fill-rule="evenodd" /><path
           class="NC55-1200W-ACFWst15"
           d="M277.3 70.4v6.4c0 .8 0 1.6.8 1.6h12.8c.8 0 .8-.8.8-1.6v-6.4s0-.8-.8-.8h-12.8c-.8 0-.8.8-.8.8z"
           id="NC55-1200W-ACFWpath158" /><path
           class="NC55-1200W-ACFWst15"
           d="M294.1 93.6v5.6c0 .8.8 1.6 1.6 1.6h12.8s.8-.8.8-1.6v-5.6c0-.8-.8-1.6-.8-1.6h-12.8c-.8 0-1.6.8-1.6 1.6z"
           id="NC55-1200W-ACFWpath160" /><path
           class="NC55-1200W-ACFWst15"
           d="M294.1 48v6.4c0 .8.8.8 1.6.8h12.8s.8 0 .8-.8V48l-.8-.8h-12.8c-.8 0-1.6.8-1.6.8z"
           id="NC55-1200W-ACFWpath162" /></g></g><g
       id="NC55-1200W-ACFWg174"><g
         id="NC55-1200W-ACFWg170"><path
           class="NC55-1200W-ACFWst2"
           d="M14 83c4.4 0 8 3.6 8 8s-3.6 8-8 8-8-3.6-8-8 3.6-8 8-8m0-1c-5 0-9 4-9 9s4 9 9 9 9-4 9-9-4-9-9-9z"
           id="NC55-1200W-ACFWpath168"
           fill="#333" /></g><path
         class="NC55-1200W-ACFWst2"
         id="NC55-1200W-ACFWpolygon172"
         fill="#333"
         d="M7.7 90.9l-.5-.9 7.8-4.4v8.9l5.2-3.5.6.9-6.8 4.5v-9.1z" /></g><g
       id="NC55-1200W-ACFWg186"><path
         class="NC55-1200W-ACFWst2"
         id="NC55-1200W-ACFWpolygon176"
         fill="#333"
         d="M23.2 38.2l-9-14-9 14z" /><g
         id="NC55-1200W-ACFWg184"><g
           id="NC55-1200W-ACFWg180"><path
             class="NC55-1200W-ACFWst16"
             d="M14.2 34.6c-.7 0-1.2-.8-1.2-1.3l-.3-5.4c0-.7.6-1.3 1.3-1.3h.4c.7 0 1.3.6 1.3 1.3l-.3 5.4c-.1.5-.6 1.3-1.2 1.3z"
             id="NC55-1200W-ACFWpath178"
             fill="#b4b4b4" /></g><circle
           class="NC55-1200W-ACFWst16"
           cx="14.2"
           cy="36.3"
           r="1.3"
           id="NC55-1200W-ACFWcircle182"
           fill="#b4b4b4" /></g></g><circle
       cx="17.8"
       cy="17.9"
       r="4.5"
       id="NC55-1200W-ACFWcircle188"
       fill="#333"
       stroke="#989898"
       stroke-miterlimit="10" /><g
       id="NC55-1200W-ACFWg194"><circle
         class="NC55-1200W-ACFWst6"
         cx="113"
         cy="75"
         r="41.6"
         id="NC55-1200W-ACFWcircle190"
         clip-rule="evenodd"
         fill="#f3f3f3"
         fill-rule="evenodd" /><path
         class="NC55-1200W-ACFWst3"
         d="M113 33.8c22.7 0 41.2 18.5 41.2 41.2 0 22.7-18.5 41.2-41.2 41.2-22.7 0-41.2-18.5-41.2-41.2 0-22.7 18.5-41.2 41.2-41.2m0-.8c-23.2 0-42 18.8-42 42s18.8 42 42 42 42-18.8 42-42-18.8-42-42-42z"
         id="NC55-1200W-ACFWpath192"
         fill="#989898" /></g><path
       class="NC55-1200W-ACFWst3"
       d="M113 114.5c-21.8 0-39.5-17.7-39.5-39.5S91.2 35.5 113 35.5s39.5 17.7 39.5 39.5-17.7 39.5-39.5 39.5zm0-72c-17.9 0-32.5 14.6-32.5 32.5s14.6 32.5 32.5 32.5 32.5-14.6 32.5-32.5-14.6-32.5-32.5-32.5z"
       id="NC55-1200W-ACFWpath196"
       fill="#989898" /><g
       id="NC55-1200W-ACFWg212"><g
         id="NC55-1200W-ACFWg210"><path
           class="NC55-1200W-ACFWst0"
           d="M111.6 50.9l.2 1.5c-.7.1-1.1.4-1.1.9 0 .4.2.6.6.9.4.3 1.1.4 2.3.4-.3-.2-.5-.4-.6-.7-.1-.3-.2-.5-.2-.8 0-.6.3-1.2.9-1.7.6-.5 1.4-.7 2.4-.7 1.1 0 1.9.3 2.5.8.6.5.9 1.1.9 1.9 0 .8-.4 1.5-1.2 2.1-.8.6-2.1.8-3.9.8-1.8 0-3.2-.3-4-.8-.8-.5-1.2-1.3-1.2-2.2 0-.6.2-1.1.6-1.5.4-.4 1-.8 1.8-.9zm4.2 3.6c.6 0 1.1-.1 1.4-.4.3-.2.5-.5.5-.8 0-.3-.1-.5-.4-.7-.3-.2-.7-.3-1.4-.3s-1.1.1-1.4.3c-.3.2-.5.5-.5.8 0 .3.1.6.4.8.3.2.9.3 1.4.3z"
           id="NC55-1200W-ACFWpath198"
           fill="#010101" /><path
           class="NC55-1200W-ACFWst0"
           d="M119.4 60.3c0 .8-.4 1.4-1.1 1.9-.8.5-2.1.7-4 .7s-3.2-.2-4-.7c-.8-.5-1.1-1.1-1.1-1.9 0-.8.4-1.4 1.1-1.9.7-.5 2.1-.7 4-.7s3.2.2 4 .7c.7.4 1.1 1.1 1.1 1.9zm-1.6 0c0-.3-.2-.6-.6-.7-.4-.2-1.4-.3-2.9-.3s-2.5.1-2.9.3c-.4.2-.6.4-.6.7 0 .3.2.6.6.7.4.2 1.4.3 2.9.3s2.5-.1 2.9-.3c.4-.1.6-.4.6-.7z"
           id="NC55-1200W-ACFWpath200"
           fill="#010101" /><path
           class="NC55-1200W-ACFWst0"
           d="M119.4 67c0 .8-.4 1.4-1.1 1.9-.8.5-2.1.7-4 .7s-3.2-.2-4-.7c-.8-.5-1.1-1.1-1.1-1.9 0-.8.4-1.4 1.1-1.9.7-.5 2.1-.7 4-.7s3.2.2 4 .7c.7.5 1.1 1.1 1.1 1.9zm-1.6 0c0-.3-.2-.6-.6-.7-.4-.2-1.4-.3-2.9-.3s-2.5.1-2.9.3c-.4.2-.6.4-.6.7 0 .3.2.6.6.7.4.2 1.4.3 2.9.3s2.5-.1 2.9-.3c.4-.1.6-.4.6-.7z"
           id="NC55-1200W-ACFWpath202"
           fill="#010101" /><path
           class="NC55-1200W-ACFWst0"
           d="M109.3 72.6l10-2v1.7l-6.9 1.2 6.9 1.5v2l-7 1.4 7 1.3v1.7l-10-2v-1.8l7.5-1.6-7.5-1.6z"
           id="NC55-1200W-ACFWpath204"
           fill="#010101" /><path
           class="NC55-1200W-ACFWst0"
           d="M109.3 93.2v-1.8l2.3-.7v-3.3l-2.3-.7v-1.8l10 3.2v1.8zm4-3.1L117 89l-3.7-1.1z"
           id="NC55-1200W-ACFWpath206"
           fill="#010101" /><path
           class="NC55-1200W-ACFWst0"
           d="M113 99.6l-.6 1.6c-1.1-.3-1.9-.7-2.5-1.3-.6-.6-.8-1.3-.8-2.2 0-1.1.4-1.9 1.2-2.6 1-.8 2.2-1.1 3.9-1.1 1.7 0 3 .4 4 1.2.8.7 1.3 1.6 1.3 2.7 0 .9-.3 1.7-.9 2.3-.4.4-1.1.8-2 1l-.5-1.6c.5-.1 1-.3 1.2-.6.3-.3.4-.7.4-1.1 0-.6-.3-1.1-.8-1.5-.5-.4-1.4-.6-2.6-.6-1.3 0-2.2.2-2.7.6-.5.4-.8.9-.8 1.5 0 .4.2.8.5 1.1.3.3 1 .5 1.7.6z"
           id="NC55-1200W-ACFWpath208"
           fill="#010101" /></g></g><g
       id="NC55-1200W-ACFWg218"><path
         class="NC55-1200W-ACFWst13"
         d="M335.2 112.9c-3 0-5.5-2.5-5.5-5.5V40.1c0-3 2.5-5.5 5.5-5.5h.3l20 1.2c2.9.2 5.2 2.6 5.2 5.5V106c0 2.9-2.3 5.3-5.2 5.5l-20 1.2c0 .2-.1.2-.3.2zm-.7-31.4h9v-31h-9z"
         id="NC55-1200W-ACFWpath214"
         clip-rule="evenodd"
         fill="#818181"
         fill-rule="evenodd" /><path
         class="NC55-1200W-ACFWst3"
         d="M335.2 35.1h.3l20 1.2c2.6.2 4.7 2.4 4.7 5V106c0 2.6-2.1 4.8-4.7 5l-20 1.2h-.3c-2.8 0-5-2.2-5-5V40.1c0-2.7 2.3-5 5-5M334 82h10V50h-10v32m1.2-47.9c-3.3 0-6 2.7-6 6v67.2c0 3.3 2.7 6 6 6h.4l20-1.2c3.2-.2 5.6-2.8 5.6-6V41.4c0-3.2-2.5-5.8-5.6-6l-20-1.2c-.1-.1-.2-.1-.4-.1zM335 81V51h8v30z"
         id="NC55-1200W-ACFWpath216"
         fill="#989898" /></g><g
       id="NC55-1200W-ACFWg224"><path
         class="NC55-1200W-ACFWst16"
         d="M225 142.2c-5.5 0-10-4.5-10-10v-110c0-5.5 4.5-10 10-10s10 4.5 10 10v110c0 5.6-4.5 10-10 10z"
         id="NC55-1200W-ACFWpath220"
         fill="#b4b4b4" /><path
         class="NC55-1200W-ACFWst8"
         d="M225 13.2c5 0 9 4 9 9v110c0 5-4 9-9 9s-9-4-9-9v-110c0-4.9 4-9 9-9m0-2c-6.1 0-11 4.9-11 11v110c0 6.1 4.9 11 11 11s11-4.9 11-11v-110c0-6-4.9-11-11-11z"
         id="NC55-1200W-ACFWpath222"
         fill="#4e4e4e" /></g><g
       id="NC55-1200W-ACFWg230"><path
         class="NC55-1200W-ACFWst3"
         id="NC55-1200W-ACFWpolygon226"
         fill="#989898"
         d="M327.5.8v15h-53.3L258.3.8z" /><path
         class="NC55-1200W-ACFWst16"
         d="M327 1.2v14h-52.6l-14.9-14H327m1-1h-71l17 16h54z"
         id="NC55-1200W-ACFWpath228"
         fill="#b4b4b4" /></g><path
       class="NC55-1200W-ACFWst3"
       d="M136.1 132.2H88.9c-.9 0-1.8-.3-2.4-1L53.1 99.7c-.7-.7-1.1-1.6-1.1-2.6V52.4c0-1 .4-1.9 1.1-2.5l33.4-31.6c.7-.6 1.5-1 2.4-1h47.2c.9 0 1.8.3 2.4 1l33.4 31.6c.7.7 1.1 1.6 1.1 2.5v44.7c0 1-.4 1.9-1.1 2.5l-33.4 31.6c-.6.7-1.5 1-2.4 1zm-45.8-7h44.4L166 95.6V53.9l-31.3-29.6H90.3L59 53.9v41.7z"
       id="NC55-1200W-ACFWpath232"
       fill="#989898" /></g><text
     xml:space="preserve"
     style="font-style:normal;font-weight:normal;font-size:40px;line-height:1.25;font-family:sans-serif;fill:#000000;fill-opacity:1;stroke:none"
     x="203.65836"
     y="120.51823"
     id="text128"><tspan
       sodipodi:role="line"
       id="tspan126"
       x="203.65836"
       y="120.51823" /></text></svg>
