<?xml version="1.0" encoding="UTF-8" standalone="no"?>
<svg
   xmlns:dc="http://purl.org/dc/elements/1.1/"
   xmlns:cc="http://creativecommons.org/ns#"
   xmlns:rdf="http://www.w3.org/1999/02/22-rdf-syntax-ns#"
   xmlns:svg="http://www.w3.org/2000/svg"
   xmlns="http://www.w3.org/2000/svg"
   xmlns:sodipodi="http://sodipodi.sourceforge.net/DTD/sodipodi-0.dtd"
   xmlns:inkscape="http://www.inkscape.org/namespaces/inkscape"
   version="1.1"
   id="NC55-SC-FILLERFiller"
   x="0"
   y="0"
   viewBox="0 0 660 138"
   xml:space="preserve"
   width="660"
   height="138"
   sodipodi:docname="NC55-SC-FILLER.svg"
   inkscape:version="1.0.1 (3bc2e813f5, 2020-09-07)"><metadata
     id="metadata16"><rdf:RDF><cc:Work
         rdf:about=""><dc:format>image/svg+xml</dc:format><dc:type
           rdf:resource="http://purl.org/dc/dcmitype/StillImage" /></cc:Work></rdf:RDF></metadata><defs
     id="defs14" /><sodipodi:namedview
     pagecolor="#ffffff"
     bordercolor="#666666"
     borderopacity="1"
     objecttolerance="10"
     gridtolerance="10"
     guidetolerance="10"
     inkscape:pageopacity="0"
     inkscape:pageshadow="2"
     inkscape:window-width="1280"
     inkscape:window-height="658"
     id="namedview12"
     showgrid="false"
     inkscape:zoom="1.5787879"
     inkscape:cx="330"
     inkscape:cy="69"
     inkscape:window-x="-6"
     inkscape:window-y="-6"
     inkscape:window-maximized="1"
     inkscape:current-layer="NC55-SC-FILLERFiller" /><style
     type="text/css"
     id="NC55-SC-FILLERstyle3">.NC55-SC-FILLERst1{fill:gray}</style><g
     id="NC55-SC-FILLERg5"><path
       d="M69.3 137.5v-11h-63c-2.7 0-5.8-2-5.8-5V76.9c0-2.9 2.9-5.8 5.8-5.8h3.9c4 0 6.8-2.4 6.8-6V14.3c0-2.8 2.2-5.8 5.8-5.8h44.8v-8H586v8h67.8c2.9 0 5.8 2.9 5.8 5.8v47c0 2.9-2.9 5.8-5.8 5.8h-5.5c-3.3 0-6.8 2.4-6.8 6v39.2c0 2.8-2.1 5-5 5h-67v20.3H69.3z"
       id="NC55-SC-FILLERpath7"
       fill="#eee" /><g
       id="NC55-SC-FILLERg9"><path
         class="NC55-SC-FILLERst1"
         d="M585.5 1v8h68.3c2.6 0 5.3 2.7 5.3 5.3v47c0 2.6-2.7 5.3-5.3 5.3h-5.5c-3.5 0-7.3 2.6-7.3 6.5v39.2c0 2.6-1.9 4.5-4.5 4.5H569V137H69.8v-11H6.3c-2.5 0-5.3-1.8-5.3-4.5V76.9c0-2.6 2.7-5.3 5.3-5.3h3.9c4.3 0 7.3-2.7 7.3-6.5V14.3c0-2.6 1.8-5.3 5.3-5.3H68V1h517.5m1-1H67v8H22.7c-3.9 0-6.3 3.1-6.3 6.3v50.8c0 3.1-2.3 5.5-6.3 5.5H6.3c-3.1 0-6.3 3.1-6.3 6.3v44.7c0 3.1 3.1 5.5 6.3 5.5h62.6v11H570v-20.3h66.5c3.1 0 5.5-2.4 5.5-5.5V73c0-3.1 3.1-5.5 6.3-5.5h5.5c3.1 0 6.3-3.1 6.3-6.3v-47c0-3.1-3.1-6.3-6.3-6.3h-67.3V0z"
         id="NC55-SC-FILLERpath11"
         fill="gray" /></g></g><g
     id="NC55-SC-FILLERg13"><path
       d="M25.9 113.9c-2.5 0-5.4-1.6-5.4-3.8v-25c0-2.2 2.7-4.4 5.4-4.4h3.7c3.8 0 6.4-1.9 6.4-4.8V26.2c0-2.2 2-4.4 5.4-4.4h592.8c2.7 0 5.4 2.2 5.4 4.4V53c0 2.2-2.7 4.4-5.4 4.4H629c-3.1 0-6.4 1.9-6.4 4.8v40.7c0 2.2-2 3.8-4.6 3.8h-63v7.3H25.9z"
       id="NC55-SC-FILLERpath15"
       fill="#bfbfbf" /><g
       id="NC55-SC-FILLERg17"><path
         class="NC55-SC-FILLERst1"
         d="M634.1 22.3c2.4 0 4.9 2 4.9 3.9V53c0 1.9-2.5 3.9-4.9 3.9H629c-3.3 0-6.9 2.1-6.9 5.3v40.7c0 1.9-1.8 3.3-4.1 3.3h-63.5v7.3H25.9c-2.6 0-4.9-1.6-4.9-3.3v-25c0-1.9 2.5-3.9 4.9-3.9h3.7c4.1 0 6.9-2.1 6.9-5.3V26.2c0-1.9 1.8-3.9 4.9-3.9h592.7m0-1H41.3c-3.7 0-5.9 2.5-5.9 4.9V76c0 2.5-2.2 4.3-5.9 4.3h-3.7c-2.9 0-5.9 2.5-5.9 4.9v25c0 2.5 2.9 4.3 5.9 4.3h529.6v-7.3H618c2.9 0 5.1-1.8 5.1-4.3V62.2c0-2.5 2.9-4.3 5.9-4.3h5.1c2.9 0 5.9-2.5 5.9-4.9V26.2c0-2.5-2.9-4.9-5.9-4.9z"
         id="NC55-SC-FILLERpath19"
         fill="gray" /></g></g><text
     xml:space="preserve"
     style="font-style:normal;font-weight:normal;font-size:40px;line-height:1.25;font-family:sans-serif;fill:#000000;fill-opacity:1;stroke:none"
     x="191.91939"
     y="89.309021"
     id="text20"><tspan
       sodipodi:role="line"
       id="tspan18"
       x="191.91939"
       y="89.309021" /></text></svg>
