<?xml version="1.0" encoding="UTF-8" standalone="no"?>
<svg
   xmlns:dc="http://purl.org/dc/elements/1.1/"
   xmlns:cc="http://creativecommons.org/ns#"
   xmlns:rdf="http://www.w3.org/1999/02/22-rdf-syntax-ns#"
   xmlns:svg="http://www.w3.org/2000/svg"
   xmlns="http://www.w3.org/2000/svg"
   xmlns:sodipodi="http://sodipodi.sourceforge.net/DTD/sodipodi-0.dtd"
   xmlns:inkscape="http://www.inkscape.org/namespaces/inkscape"
   width="1621"
   height="161"
   viewBox="0 0 1621 161"
   version="1.1"
   id="svg980"
   sodipodi:docname="NC55-MOD-A-SE-S.svg"
   inkscape:version="1.0.1 (3bc2e813f5, 2020-09-07)">
  <metadata
     id="metadata986">
    <rdf:RDF>
      <cc:Work
         rdf:about="">
        <dc:format>image/svg+xml</dc:format>
        <dc:type
           rdf:resource="http://purl.org/dc/dcmitype/StillImage" />
      </cc:Work>
    </rdf:RDF>
  </metadata>
  <defs
     id="defs984" />
  <sodipodi:namedview
     pagecolor="#ffffff"
     bordercolor="#666666"
     borderopacity="1"
     objecttolerance="10"
     gridtolerance="10"
     guidetolerance="10"
     inkscape:pageopacity="0"
     inkscape:pageshadow="2"
     inkscape:window-width="1280"
     inkscape:window-height="658"
     id="namedview982"
     showgrid="false"
     inkscape:zoom="0.64281308"
     inkscape:cx="810.5"
     inkscape:cy="80.5"
     inkscape:window-x="-6"
     inkscape:window-y="-6"
     inkscape:window-maximized="1"
     inkscape:current-layer="svg980" />
  <path
     fill="#bfbebe"
     d="M1237.5 13.5h295v147h-295z"
     id="path2" />
  <path
     d="M1532 14v146h-294V14h294m1-1h-296v148h296z"
     fill="#676767"
     id="path4" />
  <path
     fill="#bfbebe"
     d="M1531.5 13.5h67v147h-67z"
     id="path6" />
  <path
     d="M1598 14v146h-66V14h66m1-1h-68v148h68z"
     fill="#676767"
     id="path8" />
  <path
     fill="#bfbebe"
     d="M20.1 13.5h67v147h-67z"
     id="path10" />
  <path
     d="M86.6 14v146h-66V14h66m1-1h-68v148h68z"
     fill="#676767"
     id="path12" />
  <path
     fill="#404041"
     d="M388.3.5h844.2v160H388.3z"
     id="path14" />
  <path
     d="M1232 1v159H388.8V1H1232m1-1H387.8v161H1233z"
     fill="#676767"
     id="path16" />
  <path
     fill="#bfbebe"
     d="M1233.5 13.5h3v147h-3z"
     id="path18" />
  <path
     d="M1236 14v146h-2V14h2m1-1h-4v148h4z"
     fill="#676767"
     id="path20" />
  <path
     fill="#bfbebe"
     d="M384.3 13.5h3v147h-3z"
     id="path22" />
  <path
     d="M386.8 14v146h-2V14h2m1-1h-4v148h4z"
     fill="#676767"
     id="path24" />
  <path
     fill="#bfbebe"
     d="M809.5 7.5h2v147h-2z"
     id="path26" />
  <path
     d="M811 8v146h-1V8h1m1-1h-3v148h3z"
     fill="#676767"
     id="path28" />
  <path
     d="M1245.2 38.5h7.5l3.7 6.5-3.7 6.5h-7.5l-3.7-6.5z"
     id="path30" />
  <path
     d="M1252.4 39l3.4 6-3.4 6h-6.8l-3.4-6 3.4-6h6.8m.6-1h-8l-4 7 4 7h8l4-7z"
     fill="#cbcbca"
     id="path32" />
  <path
     d="M1245.2 24.5h7.5l3.7 6.5-3.7 6.5h-7.5l-3.7-6.5z"
     id="path34" />
  <path
     d="M1252.4 25l3.4 6-3.4 6h-6.8l-3.4-6 3.4-6h6.8m.6-1h-8l-4 7 4 7h8l4-7z"
     fill="#cbcbca"
     id="path36" />
  <path
     d="M1245.2 52.5h7.5l3.7 6.5-3.7 6.5h-7.5l-3.7-6.5z"
     id="path38" />
  <path
     d="M1252.4 53l3.4 6-3.4 6h-6.8l-3.4-6 3.4-6h6.8m.6-1h-8l-4 7 4 7h8l4-7z"
     fill="#cbcbca"
     id="path40" />
  <path
     d="M1245.2 66.5h7.5l3.7 6.5-3.7 6.5h-7.5l-3.7-6.5z"
     id="path42" />
  <path
     d="M1252.4 67l3.4 6-3.4 6h-6.8l-3.4-6 3.4-6h6.8m.6-1h-8l-4 7 4 7h8l4-7z"
     fill="#cbcbca"
     id="path44" />
  <path
     d="M1257.2 31.5h7.5l3.7 6.5-3.7 6.5h-7.5l-3.7-6.5z"
     id="path46" />
  <path
     d="M1264.4 32l3.4 6-3.4 6h-6.8l-3.4-6 3.4-6h6.8m.6-1h-8l-4 7 4 7h8l4-7z"
     fill="#cbcbca"
     id="path48" />
  <path
     d="M1257.2 45.5h7.5l3.7 6.5-3.7 6.5h-7.5l-3.7-6.5z"
     id="path50" />
  <path
     d="M1264.4 46l3.4 6-3.4 6h-6.8l-3.4-6 3.4-6h6.8m.6-1h-8l-4 7 4 7h8l4-7z"
     fill="#cbcbca"
     id="path52" />
  <path
     d="M1257.2 59.5h7.5l3.7 6.5-3.7 6.5h-7.5l-3.7-6.5z"
     id="path54" />
  <path
     d="M1264.4 60l3.4 6-3.4 6h-6.8l-3.4-6 3.4-6h6.8m.6-1h-8l-4 7 4 7h8l4-7z"
     fill="#cbcbca"
     id="path56" />
  <path
     d="M1257.2 73.4h7.5l3.7 6.5-3.7 6.5h-7.5l-3.7-6.5z"
     id="path58" />
  <path
     d="M1264.4 73.9l3.4 6-3.4 6h-6.8l-3.4-6 3.4-6h6.8m.6-1h-8l-4 7 4 7h8l4-7z"
     fill="#cbcbca"
     id="path60" />
  <path
     d="M1245.2 94.5h7.5l3.7 6.5-3.7 6.5h-7.5l-3.7-6.5z"
     id="path62" />
  <path
     d="M1252.4 95l3.4 6-3.4 6h-6.8l-3.4-6 3.4-6h6.8m.6-1h-8l-4 7 4 7h8l4-7z"
     fill="#cbcbca"
     id="path64" />
  <path
     d="M1245.2 80.5h7.5l3.7 6.5-3.7 6.5h-7.5l-3.7-6.5z"
     id="path66" />
  <path
     d="M1252.4 81l3.4 6-3.4 6h-6.8l-3.4-6 3.4-6h6.8m.6-1h-8l-4 7 4 7h8l4-7z"
     fill="#cbcbca"
     id="path68" />
  <g
     id="g74">
    <path
       d="M1245.2 108.5h7.5l3.7 6.5-3.7 6.5h-7.5l-3.7-6.5z"
       id="path70" />
    <path
       d="M1252.4 109l3.4 6-3.4 6h-6.8l-3.4-6 3.4-6h6.8m.6-1h-8l-4 7 4 7h8l4-7z"
       fill="#cbcbca"
       id="path72" />
  </g>
  <g
     id="g80">
    <path
       d="M1245.2 122.5h7.5l3.7 6.5-3.7 6.5h-7.5l-3.7-6.5z"
       id="path76" />
    <path
       d="M1252.4 123l3.4 6-3.4 6h-6.8l-3.4-6 3.4-6h6.8m.6-1h-8l-4 7 4 7h8l4-7z"
       fill="#cbcbca"
       id="path78" />
  </g>
  <g
     id="g86">
    <path
       d="M1257.2 87.5h7.5l3.7 6.5-3.7 6.5h-7.5l-3.7-6.5z"
       id="path82" />
    <path
       d="M1264.4 88l3.4 6-3.4 6h-6.8l-3.4-6 3.4-6h6.8m.6-1h-8l-4 7 4 7h8l4-7z"
       fill="#cbcbca"
       id="path84" />
  </g>
  <g
     id="g92">
    <path
       d="M1257.2 101.5h7.5l3.7 6.5-3.7 6.5h-7.5l-3.7-6.5z"
       id="path88" />
    <path
       d="M1264.4 102l3.4 6-3.4 6h-6.8l-3.4-6 3.4-6h6.8m.6-1h-8l-4 7 4 7h8l4-7z"
       fill="#cbcbca"
       id="path90" />
  </g>
  <g
     id="g98">
    <path
       d="M1257.2 115.5h7.5l3.7 6.5-3.7 6.5h-7.5l-3.7-6.5z"
       id="path94" />
    <path
       d="M1264.4 116l3.4 6-3.4 6h-6.8l-3.4-6 3.4-6h6.8m.6-1h-8l-4 7 4 7h8l4-7z"
       fill="#cbcbca"
       id="path96" />
  </g>
  <g
     id="g104">
    <path
       d="M1245.2 136.5h7.5l3.7 6.5-3.7 6.5h-7.5l-3.7-6.5z"
       id="path100" />
    <path
       d="M1252.4 137l3.4 6-3.4 6h-6.8l-3.4-6 3.4-6h6.8m.6-1h-8l-4 7 4 7h8l4-7z"
       fill="#cbcbca"
       id="path102" />
  </g>
  <g
     id="g126">
    <path
       d="M1269.3 38.5h7.4l3.7 6.5-3.7 6.5h-7.4l-3.7-6.5z"
       id="path106" />
    <path
       d="M1276.4 39l3.4 6-3.4 6h-6.8l-3.4-6 3.4-6h6.8m.6-1h-8l-4 7 4 7h8l4-7z"
       fill="#cbcbca"
       id="path108" />
    <path
       d="M1269.3 24.5h7.4l3.7 6.5-3.7 6.5h-7.4l-3.7-6.5z"
       id="path110" />
    <path
       d="M1276.4 25l3.4 6-3.4 6h-6.8l-3.4-6 3.4-6h6.8m.6-1h-8l-4 7 4 7h8l4-7z"
       fill="#cbcbca"
       id="path112" />
    <g
       id="g118">
      <path
         d="M1269.3 52.5h7.4l3.7 6.5-3.7 6.5h-7.4l-3.7-6.5z"
         id="path114" />
      <path
         d="M1276.4 53l3.4 6-3.4 6h-6.8l-3.4-6 3.4-6h6.8m.6-1h-8l-4 7 4 7h8l4-7z"
         fill="#cbcbca"
         id="path116" />
    </g>
    <g
       id="g124">
      <path
         d="M1269.3 66.5h7.4l3.7 6.5-3.7 6.5h-7.4l-3.7-6.5z"
         id="path120" />
      <path
         d="M1276.4 67l3.4 6-3.4 6h-6.8l-3.4-6 3.4-6h6.8m.6-1h-8l-4 7 4 7h8l4-7z"
         fill="#cbcbca"
         id="path122" />
    </g>
  </g>
  <g
     id="g132">
    <path
       d="M1269.3 94.5h7.4l3.7 6.5-3.7 6.5h-7.4l-3.7-6.5z"
       id="path128" />
    <path
       d="M1276.4 95l3.4 6-3.4 6h-6.8l-3.4-6 3.4-6h6.8m.6-1h-8l-4 7 4 7h8l4-7z"
       fill="#cbcbca"
       id="path130" />
  </g>
  <g
     id="g138">
    <path
       d="M1269.3 80.5h7.4l3.7 6.5-3.7 6.5h-7.4l-3.7-6.5z"
       id="path134" />
    <path
       d="M1276.4 81l3.4 6-3.4 6h-6.8l-3.4-6 3.4-6h6.8m.6-1h-8l-4 7 4 7h8l4-7z"
       fill="#cbcbca"
       id="path136" />
  </g>
  <g
     id="g144">
    <path
       d="M1269.3 108.5h7.4l3.7 6.5-3.7 6.5h-7.4l-3.7-6.5z"
       id="path140" />
    <path
       d="M1276.4 109l3.4 6-3.4 6h-6.8l-3.4-6 3.4-6h6.8m.6-1h-8l-4 7 4 7h8l4-7z"
       fill="#cbcbca"
       id="path142" />
  </g>
  <g
     id="g150">
    <path
       d="M1269.3 122.5h7.4l3.7 6.5-3.7 6.5h-7.4l-3.7-6.5z"
       id="path146" />
    <path
       d="M1276.4 123l3.4 6-3.4 6h-6.8l-3.4-6 3.4-6h6.8m.6-1h-8l-4 7 4 7h8l4-7z"
       fill="#cbcbca"
       id="path148" />
  </g>
  <g
     id="g156">
    <path
       d="M1269.3 136.5h7.4l3.7 6.5-3.7 6.5h-7.4l-3.7-6.5z"
       id="path152" />
    <path
       d="M1276.4 137l3.4 6-3.4 6h-6.8l-3.4-6 3.4-6h6.8m.6-1h-8l-4 7 4 7h8l4-7z"
       fill="#cbcbca"
       id="path154" />
  </g>
  <g
     id="g162">
    <path
       d="M1257.2 129.5h7.5l3.7 6.5-3.7 6.5h-7.5l-3.7-6.5z"
       id="path158" />
    <path
       d="M1264.4 130l3.4 6-3.4 6h-6.8l-3.4-6 3.4-6h6.8m.6-1h-8l-4 7 4 7h8l4-7z"
       fill="#cbcbca"
       id="path160" />
  </g>
  <g
     id="g298">
    <path
       d="M1404.2 38.5h7.5l3.7 6.5-3.7 6.5h-7.5l-3.7-6.5z"
       id="path164" />
    <path
       d="M1411.4 39l3.4 6-3.4 6h-6.8l-3.4-6 3.4-6h6.8m.6-1h-8l-4 7 4 7h8l4-7z"
       fill="#cbcbca"
       id="path166" />
    <path
       d="M1404.2 24.5h7.5l3.7 6.5-3.7 6.5h-7.5l-3.7-6.5z"
       id="path168" />
    <path
       d="M1411.4 25l3.4 6-3.4 6h-6.8l-3.4-6 3.4-6h6.8m.6-1h-8l-4 7 4 7h8l4-7z"
       fill="#cbcbca"
       id="path170" />
    <path
       d="M1404.2 52.5h7.5l3.7 6.5-3.7 6.5h-7.5l-3.7-6.5z"
       id="path172" />
    <path
       d="M1411.4 53l3.4 6-3.4 6h-6.8l-3.4-6 3.4-6h6.8m.6-1h-8l-4 7 4 7h8l4-7z"
       fill="#cbcbca"
       id="path174" />
    <path
       d="M1404.2 66.5h7.5l3.7 6.5-3.7 6.5h-7.5l-3.7-6.5z"
       id="path176" />
    <path
       d="M1411.4 67l3.4 6-3.4 6h-6.8l-3.4-6 3.4-6h6.8m.6-1h-8l-4 7 4 7h8l4-7z"
       fill="#cbcbca"
       id="path178" />
    <path
       d="M1416.2 31.5h7.5l3.7 6.5-3.7 6.5h-7.5l-3.7-6.5z"
       id="path180" />
    <path
       d="M1423.4 32l3.4 6-3.4 6h-6.8l-3.4-6 3.4-6h6.8m.6-1h-8l-4 7 4 7h8l4-7z"
       fill="#cbcbca"
       id="path182" />
    <path
       d="M1416.2 45.5h7.5l3.7 6.5-3.7 6.5h-7.5l-3.7-6.5z"
       id="path184" />
    <path
       d="M1423.4 46l3.4 6-3.4 6h-6.8l-3.4-6 3.4-6h6.8m.6-1h-8l-4 7 4 7h8l4-7z"
       fill="#cbcbca"
       id="path186" />
    <path
       d="M1416.2 59.5h7.5l3.7 6.5-3.7 6.5h-7.5l-3.7-6.5z"
       id="path188" />
    <path
       d="M1423.4 60l3.4 6-3.4 6h-6.8l-3.4-6 3.4-6h6.8m.6-1h-8l-4 7 4 7h8l4-7z"
       fill="#cbcbca"
       id="path190" />
    <path
       d="M1416.2 73.4h7.5l3.7 6.5-3.7 6.5h-7.5l-3.7-6.5z"
       id="path192" />
    <path
       d="M1423.4 73.9l3.4 6-3.4 6h-6.8l-3.4-6 3.4-6h6.8m.6-1h-8l-4 7 4 7h8l4-7z"
       fill="#cbcbca"
       id="path194" />
    <path
       d="M1404.2 94.5h7.5l3.7 6.5-3.7 6.5h-7.5l-3.7-6.5z"
       id="path196" />
    <path
       d="M1411.4 95l3.4 6-3.4 6h-6.8l-3.4-6 3.4-6h6.8m.6-1h-8l-4 7 4 7h8l4-7z"
       fill="#cbcbca"
       id="path198" />
    <path
       d="M1404.2 80.5h7.5l3.7 6.5-3.7 6.5h-7.5l-3.7-6.5z"
       id="path200" />
    <path
       d="M1411.4 81l3.4 6-3.4 6h-6.8l-3.4-6 3.4-6h6.8m.6-1h-8l-4 7 4 7h8l4-7z"
       fill="#cbcbca"
       id="path202" />
    <g
       id="g208">
      <path
         d="M1404.2 108.5h7.5l3.7 6.5-3.7 6.5h-7.5l-3.7-6.5z"
         id="path204" />
      <path
         d="M1411.4 109l3.4 6-3.4 6h-6.8l-3.4-6 3.4-6h6.8m.6-1h-8l-4 7 4 7h8l4-7z"
         fill="#cbcbca"
         id="path206" />
    </g>
    <g
       id="g214">
      <path
         d="M1404.2 122.5h7.5l3.7 6.5-3.7 6.5h-7.5l-3.7-6.5z"
         id="path210" />
      <path
         d="M1411.4 123l3.4 6-3.4 6h-6.8l-3.4-6 3.4-6h6.8m.6-1h-8l-4 7 4 7h8l4-7z"
         fill="#cbcbca"
         id="path212" />
    </g>
    <g
       id="g220">
      <path
         d="M1416.2 87.5h7.5l3.7 6.5-3.7 6.5h-7.5l-3.7-6.5z"
         id="path216" />
      <path
         d="M1423.4 88l3.4 6-3.4 6h-6.8l-3.4-6 3.4-6h6.8m.6-1h-8l-4 7 4 7h8l4-7z"
         fill="#cbcbca"
         id="path218" />
    </g>
    <g
       id="g226">
      <path
         d="M1416.2 101.5h7.5l3.7 6.5-3.7 6.5h-7.5l-3.7-6.5z"
         id="path222" />
      <path
         d="M1423.4 102l3.4 6-3.4 6h-6.8l-3.4-6 3.4-6h6.8m.6-1h-8l-4 7 4 7h8l4-7z"
         fill="#cbcbca"
         id="path224" />
    </g>
    <g
       id="g232">
      <path
         d="M1416.2 115.5h7.5l3.7 6.5-3.7 6.5h-7.5l-3.7-6.5z"
         id="path228" />
      <path
         d="M1423.4 116l3.4 6-3.4 6h-6.8l-3.4-6 3.4-6h6.8m.6-1h-8l-4 7 4 7h8l4-7z"
         fill="#cbcbca"
         id="path230" />
    </g>
    <g
       id="g238">
      <path
         d="M1404.2 136.5h7.5l3.7 6.5-3.7 6.5h-7.5l-3.7-6.5z"
         id="path234" />
      <path
         d="M1411.4 137l3.4 6-3.4 6h-6.8l-3.4-6 3.4-6h6.8m.6-1h-8l-4 7 4 7h8l4-7z"
         fill="#cbcbca"
         id="path236" />
    </g>
    <g
       id="g260">
      <path
         d="M1428.3 38.5h7.4l3.7 6.5-3.7 6.5h-7.4l-3.7-6.5z"
         id="path240" />
      <path
         d="M1435.4 39l3.4 6-3.4 6h-6.8l-3.4-6 3.4-6h6.8m.6-1h-8l-4 7 4 7h8l4-7z"
         fill="#cbcbca"
         id="path242" />
      <path
         d="M1428.3 24.5h7.4l3.7 6.5-3.7 6.5h-7.4l-3.7-6.5z"
         id="path244" />
      <path
         d="M1435.4 25l3.4 6-3.4 6h-6.8l-3.4-6 3.4-6h6.8m.6-1h-8l-4 7 4 7h8l4-7z"
         fill="#cbcbca"
         id="path246" />
      <g
         id="g252">
        <path
           d="M1428.3 52.5h7.4l3.7 6.5-3.7 6.5h-7.4l-3.7-6.5z"
           id="path248" />
        <path
           d="M1435.4 53l3.4 6-3.4 6h-6.8l-3.4-6 3.4-6h6.8m.6-1h-8l-4 7 4 7h8l4-7z"
           fill="#cbcbca"
           id="path250" />
      </g>
      <g
         id="g258">
        <path
           d="M1428.3 66.5h7.4l3.7 6.5-3.7 6.5h-7.4l-3.7-6.5z"
           id="path254" />
        <path
           d="M1435.4 67l3.4 6-3.4 6h-6.8l-3.4-6 3.4-6h6.8m.6-1h-8l-4 7 4 7h8l4-7z"
           fill="#cbcbca"
           id="path256" />
      </g>
    </g>
    <g
       id="g266">
      <path
         d="M1428.3 94.5h7.4l3.7 6.5-3.7 6.5h-7.4l-3.7-6.5z"
         id="path262" />
      <path
         d="M1435.4 95l3.4 6-3.4 6h-6.8l-3.4-6 3.4-6h6.8m.6-1h-8l-4 7 4 7h8l4-7z"
         fill="#cbcbca"
         id="path264" />
    </g>
    <g
       id="g272">
      <path
         d="M1428.3 80.5h7.4l3.7 6.5-3.7 6.5h-7.4l-3.7-6.5z"
         id="path268" />
      <path
         d="M1435.4 81l3.4 6-3.4 6h-6.8l-3.4-6 3.4-6h6.8m.6-1h-8l-4 7 4 7h8l4-7z"
         fill="#cbcbca"
         id="path270" />
    </g>
    <g
       id="g278">
      <path
         d="M1428.3 108.5h7.4l3.7 6.5-3.7 6.5h-7.4l-3.7-6.5z"
         id="path274" />
      <path
         d="M1435.4 109l3.4 6-3.4 6h-6.8l-3.4-6 3.4-6h6.8m.6-1h-8l-4 7 4 7h8l4-7z"
         fill="#cbcbca"
         id="path276" />
    </g>
    <g
       id="g284">
      <path
         d="M1428.3 122.5h7.4l3.7 6.5-3.7 6.5h-7.4l-3.7-6.5z"
         id="path280" />
      <path
         d="M1435.4 123l3.4 6-3.4 6h-6.8l-3.4-6 3.4-6h6.8m.6-1h-8l-4 7 4 7h8l4-7z"
         fill="#cbcbca"
         id="path282" />
    </g>
    <g
       id="g290">
      <path
         d="M1428.3 136.5h7.4l3.7 6.5-3.7 6.5h-7.4l-3.7-6.5z"
         id="path286" />
      <path
         d="M1435.4 137l3.4 6-3.4 6h-6.8l-3.4-6 3.4-6h6.8m.6-1h-8l-4 7 4 7h8l4-7z"
         fill="#cbcbca"
         id="path288" />
    </g>
    <g
       id="g296">
      <path
         d="M1416.2 129.5h7.5l3.7 6.5-3.7 6.5h-7.5l-3.7-6.5z"
         id="path292" />
      <path
         d="M1423.4 130l3.4 6-3.4 6h-6.8l-3.4-6 3.4-6h6.8m.6-1h-8l-4 7 4 7h8l4-7z"
         fill="#cbcbca"
         id="path294" />
    </g>
  </g>
  <g
     id="g304">
    <path
       fill="#bfbebe"
       d="M88.1 13.5h295v147h-295z"
       id="path300" />
    <path
       d="M382.6 14v146h-294V14h294m1-1h-296v148h296z"
       fill="#676767"
       id="path302" />
  </g>
  <g
     id="g488">
    <path
       d="M350.8 38.5h7.5L362 45l-3.7 6.5h-7.5l-3.7-6.5z"
       id="path306" />
    <path
       d="M358 39l3.4 6-3.4 6h-6.8l-3.4-6 3.4-6h6.8m.5-1h-8l-4 7 4 7h8l4-7z"
       fill="#cbcbca"
       id="path308" />
    <path
       d="M350.8 24.5h7.5L362 31l-3.7 6.5h-7.5l-3.7-6.5z"
       id="path310" />
    <path
       d="M358 25l3.4 6-3.4 6h-6.8l-3.4-6 3.4-6h6.8m.5-1h-8l-4 7 4 7h8l4-7z"
       fill="#cbcbca"
       id="path312" />
    <path
       d="M350.8 52.5h7.5L362 59l-3.7 6.5h-7.5l-3.7-6.5z"
       id="path314" />
    <path
       d="M358 53l3.4 6-3.4 6h-6.8l-3.4-6 3.4-6h6.8m.5-1h-8l-4 7 4 7h8l4-7z"
       fill="#cbcbca"
       id="path316" />
    <g
       id="g322">
      <path
         d="M350.8 66.5h7.5L362 73l-3.7 6.5h-7.5l-3.7-6.5z"
         id="path318" />
      <path
         d="M358 67l3.4 6-3.4 6h-6.8l-3.4-6 3.4-6h6.8m.5-1h-8l-4 7 4 7h8l4-7z"
         fill="#cbcbca"
         id="path320" />
    </g>
    <g
       id="g328">
      <path
         d="M350.8 94.5h7.5l3.7 6.5-3.7 6.5h-7.5l-3.7-6.5z"
         id="path324" />
      <path
         d="M358 95l3.4 6-3.4 6h-6.8l-3.4-6 3.4-6h6.8m.5-1h-8l-4 7 4 7h8l4-7z"
         fill="#cbcbca"
         id="path326" />
    </g>
    <g
       id="g334">
      <path
         d="M350.8 80.5h7.5L362 87l-3.7 6.5h-7.5l-3.7-6.5z"
         id="path330" />
      <path
         d="M358 81l3.4 6-3.4 6h-6.8l-3.4-6 3.4-6h6.8m.5-1h-8l-4 7 4 7h8l4-7z"
         fill="#cbcbca"
         id="path332" />
    </g>
    <g
       id="g340">
      <path
         d="M350.8 108.5h7.5l3.7 6.5-3.7 6.5h-7.5l-3.7-6.5z"
         id="path336" />
      <path
         d="M358 109l3.4 6-3.4 6h-6.8l-3.4-6 3.4-6h6.8m.5-1h-8l-4 7 4 7h8l4-7z"
         fill="#cbcbca"
         id="path338" />
    </g>
    <g
       id="g346">
      <path
         d="M350.8 122.5h7.5l3.7 6.5-3.7 6.5h-7.5l-3.7-6.5z"
         id="path342" />
      <path
         d="M358 123l3.4 6-3.4 6h-6.8l-3.4-6 3.4-6h6.8m.5-1h-8l-4 7 4 7h8l4-7z"
         fill="#cbcbca"
         id="path344" />
    </g>
    <g
       id="g352">
      <path
         d="M350.8 136.5h7.5l3.7 6.5-3.7 6.5h-7.5l-3.7-6.5z"
         id="path348" />
      <path
         d="M358 137l3.4 6-3.4 6h-6.8l-3.4-6 3.4-6h6.8m.5-1h-8l-4 7 4 7h8l4-7z"
         fill="#cbcbca"
         id="path350" />
    </g>
    <g
       id="g402">
      <path
         d="M326.8 38.5h7.5L338 45l-3.7 6.5h-7.5l-3.7-6.5z"
         id="path354" />
      <path
         d="M334 39l3.4 6-3.4 6h-6.8l-3.4-6 3.4-6h6.8m.5-1h-8l-4 7 4 7h8l4-7z"
         fill="#cbcbca"
         id="path356" />
      <path
         d="M326.8 24.5h7.5L338 31l-3.7 6.5h-7.5l-3.7-6.5z"
         id="path358" />
      <path
         d="M334 25l3.4 6-3.4 6h-6.8l-3.4-6 3.4-6h6.8m.5-1h-8l-4 7 4 7h8l4-7z"
         fill="#cbcbca"
         id="path360" />
      <path
         d="M326.8 52.5h7.5L338 59l-3.7 6.5h-7.5l-3.7-6.5z"
         id="path362" />
      <path
         d="M334 53l3.4 6-3.4 6h-6.8l-3.4-6 3.4-6h6.8m.5-1h-8l-4 7 4 7h8l4-7z"
         fill="#cbcbca"
         id="path364" />
      <g
         id="g370">
        <path
           d="M326.8 66.5h7.5L338 73l-3.7 6.5h-7.5l-3.7-6.5z"
           id="path366" />
        <path
           d="M334 67l3.4 6-3.4 6h-6.8l-3.4-6 3.4-6h6.8m.5-1h-8l-4 7 4 7h8l4-7z"
           fill="#cbcbca"
           id="path368" />
      </g>
      <g
         id="g376">
        <path
           d="M326.8 94.5h7.5l3.7 6.5-3.7 6.5h-7.5l-3.7-6.5z"
           id="path372" />
        <path
           d="M334 95l3.4 6-3.4 6h-6.8l-3.4-6 3.4-6h6.8m.5-1h-8l-4 7 4 7h8l4-7z"
           fill="#cbcbca"
           id="path374" />
      </g>
      <g
         id="g382">
        <path
           d="M326.8 80.5h7.5L338 87l-3.7 6.5h-7.5l-3.7-6.5z"
           id="path378" />
        <path
           d="M334 81l3.4 6-3.4 6h-6.8l-3.4-6 3.4-6h6.8m.5-1h-8l-4 7 4 7h8l4-7z"
           fill="#cbcbca"
           id="path380" />
      </g>
      <g
         id="g388">
        <path
           d="M326.8 108.5h7.5l3.7 6.5-3.7 6.5h-7.5l-3.7-6.5z"
           id="path384" />
        <path
           d="M334 109l3.4 6-3.4 6h-6.8l-3.4-6 3.4-6h6.8m.5-1h-8l-4 7 4 7h8l4-7z"
           fill="#cbcbca"
           id="path386" />
      </g>
      <g
         id="g394">
        <path
           d="M326.8 122.5h7.5l3.7 6.5-3.7 6.5h-7.5l-3.7-6.5z"
           id="path390" />
        <path
           d="M334 123l3.4 6-3.4 6h-6.8l-3.4-6 3.4-6h6.8m.5-1h-8l-4 7 4 7h8l4-7z"
           fill="#cbcbca"
           id="path392" />
      </g>
      <g
         id="g400">
        <path
           d="M326.8 136.5h7.5l3.7 6.5-3.7 6.5h-7.5l-3.7-6.5z"
           id="path396" />
        <path
           d="M334 137l3.4 6-3.4 6h-6.8l-3.4-6 3.4-6h6.8m.5-1h-8l-4 7 4 7h8l4-7z"
           fill="#cbcbca"
           id="path398" />
      </g>
    </g>
    <g
       id="g444">
      <path
         d="M338.8 31.5h7.5L350 38l-3.7 6.5h-7.5l-3.7-6.5z"
         id="path404" />
      <path
         d="M346 32l3.4 6-3.4 6h-6.8l-3.4-6 3.4-6h6.8m.5-1h-8l-4 7 4 7h8l4-7z"
         fill="#cbcbca"
         id="path406" />
      <path
         d="M338.8 45.5h7.5L350 52l-3.7 6.5h-7.5l-3.7-6.5z"
         id="path408" />
      <path
         d="M346 46l3.4 6-3.4 6h-6.8l-3.4-6 3.4-6h6.8m.5-1h-8l-4 7 4 7h8l4-7z"
         fill="#cbcbca"
         id="path410" />
      <path
         d="M338.8 59.5h7.5L350 66l-3.7 6.5h-7.5l-3.7-6.5z"
         id="path412" />
      <path
         d="M346 60l3.4 6-3.4 6h-6.8l-3.4-6 3.4-6h6.8m.5-1h-8l-4 7 4 7h8l4-7z"
         fill="#cbcbca"
         id="path414" />
      <path
         d="M338.8 73.4h7.5l3.7 6.5-3.7 6.5h-7.5l-3.7-6.5z"
         id="path416" />
      <path
         d="M346 73.9l3.4 6-3.4 6h-6.8l-3.4-6 3.4-6h6.8m.5-1h-8l-4 7 4 7h8l4-7z"
         fill="#cbcbca"
         id="path418" />
      <g
         id="g424">
        <path
           d="M338.8 87.5h7.5L350 94l-3.7 6.5h-7.5l-3.7-6.5z"
           id="path420" />
        <path
           d="M346 88l3.4 6-3.4 6h-6.8l-3.4-6 3.4-6h6.8m.5-1h-8l-4 7 4 7h8l4-7z"
           fill="#cbcbca"
           id="path422" />
      </g>
      <g
         id="g430">
        <path
           d="M338.8 101.5h7.5l3.7 6.5-3.7 6.5h-7.5l-3.7-6.5z"
           id="path426" />
        <path
           d="M346 102l3.4 6-3.4 6h-6.8l-3.4-6 3.4-6h6.8m.5-1h-8l-4 7 4 7h8l4-7z"
           fill="#cbcbca"
           id="path428" />
      </g>
      <g
         id="g436">
        <path
           d="M338.8 115.5h7.5l3.7 6.5-3.7 6.5h-7.5l-3.7-6.5z"
           id="path432" />
        <path
           d="M346 116l3.4 6-3.4 6h-6.8l-3.4-6 3.4-6h6.8m.5-1h-8l-4 7 4 7h8l4-7z"
           fill="#cbcbca"
           id="path434" />
      </g>
      <g
         id="g442">
        <path
           d="M338.8 129.5h7.5l3.7 6.5-3.7 6.5h-7.5l-3.7-6.5z"
           id="path438" />
        <path
           d="M346 130l3.4 6-3.4 6h-6.8l-3.4-6 3.4-6h6.8m.5-1h-8l-4 7 4 7h8l4-7z"
           fill="#cbcbca"
           id="path440" />
      </g>
    </g>
    <g
       id="g486">
      <path
         d="M363.3 31.5h7.4l3.7 6.5-3.7 6.5h-7.4l-3.7-6.5z"
         id="path446" />
      <path
         d="M370.4 32l3.4 6-3.4 6h-6.8l-3.4-6 3.4-6h6.8m.6-1h-8l-4 7 4 7h8l4-7z"
         fill="#cbcbca"
         id="path448" />
      <path
         d="M363.3 45.5h7.4l3.7 6.5-3.7 6.5h-7.4l-3.7-6.5z"
         id="path450" />
      <path
         d="M370.4 46l3.4 6-3.4 6h-6.8l-3.4-6 3.4-6h6.8m.6-1h-8l-4 7 4 7h8l4-7z"
         fill="#cbcbca"
         id="path452" />
      <path
         d="M363.3 59.5h7.4l3.7 6.5-3.7 6.5h-7.4l-3.7-6.5z"
         id="path454" />
      <path
         d="M370.4 60l3.4 6-3.4 6h-6.8l-3.4-6 3.4-6h6.8m.6-1h-8l-4 7 4 7h8l4-7z"
         fill="#cbcbca"
         id="path456" />
      <path
         d="M363.3 73.4h7.4l3.7 6.5-3.7 6.5h-7.4l-3.7-6.5z"
         id="path458" />
      <path
         d="M370.4 73.9l3.4 6-3.4 6h-6.8l-3.4-6 3.4-6h6.8m.6-1h-8l-4 7 4 7h8l4-7z"
         fill="#cbcbca"
         id="path460" />
      <g
         id="g466">
        <path
           d="M363.3 87.5h7.4l3.7 6.5-3.7 6.5h-7.4l-3.7-6.5z"
           id="path462" />
        <path
           d="M370.4 88l3.4 6-3.4 6h-6.8l-3.4-6 3.4-6h6.8m.6-1h-8l-4 7 4 7h8l4-7z"
           fill="#cbcbca"
           id="path464" />
      </g>
      <g
         id="g472">
        <path
           d="M363.3 101.5h7.4l3.7 6.5-3.7 6.5h-7.4l-3.7-6.5z"
           id="path468" />
        <path
           d="M370.4 102l3.4 6-3.4 6h-6.8l-3.4-6 3.4-6h6.8m.6-1h-8l-4 7 4 7h8l4-7z"
           fill="#cbcbca"
           id="path470" />
      </g>
      <g
         id="g478">
        <path
           d="M363.3 115.5h7.4l3.7 6.5-3.7 6.5h-7.4l-3.7-6.5z"
           id="path474" />
        <path
           d="M370.4 116l3.4 6-3.4 6h-6.8l-3.4-6 3.4-6h6.8m.6-1h-8l-4 7 4 7h8l4-7z"
           fill="#cbcbca"
           id="path476" />
      </g>
      <g
         id="g484">
        <path
           d="M363.3 129.5h7.4l3.7 6.5-3.7 6.5h-7.4l-3.7-6.5z"
           id="path480" />
        <path
           d="M370.4 130l3.4 6-3.4 6h-6.8l-3.4-6 3.4-6h6.8m.6-1h-8l-4 7 4 7h8l4-7z"
           fill="#cbcbca"
           id="path482" />
      </g>
    </g>
  </g>
  <g
     id="g494">
    <path
       clip-rule="evenodd"
       fill="#b3b2b3"
       fill-rule="evenodd"
       d="M389.5 1.5h840v5h-840z"
       id="path490" />
    <path
       d="M1229 2v4H390V2h839m1-1H389v6h841z"
       fill="#979797"
       id="path492" />
  </g>
  <g
     id="g500">
    <path
       clip-rule="evenodd"
       fill="#b3b2b3"
       fill-rule="evenodd"
       d="M389.5 141.5h417v17h-417z"
       id="path496" />
    <path
       d="M806 142v16H390v-16h416m1-1H389v18h418z"
       fill="#979797"
       id="path498" />
  </g>
  <g
     id="g506">
    <path
       clip-rule="evenodd"
       fill="#b3b2b3"
       fill-rule="evenodd"
       d="M814.5 141.5h417v17h-417z"
       id="path502" />
    <path
       d="M1231 142v16H815v-16h416m1-1H814v18h418z"
       fill="#979797"
       id="path504" />
  </g>
  <g
     fill="#333"
     id="g510">
    <path
       d="M1555.3 64.5h1.9v7.7h-1.9zM1573 66.7s-.7-.3-1.7-.3c-1.2 0-2.2.7-2.2 1.9s1 2.2 2.2 2.2c1 0 1.7-.4 1.7-.4v2.2c-.3 0-1 .3-1.7.3-2.2 0-4.1-1.7-4.1-4.1 0-2.2 1.7-3.9 4.1-3.9.7 0 1.4.3 1.7.3zM1552.7 66.7s-.4-.3-1.4-.3c-1.2 0-2.2.7-2.2 1.9s.7 2.2 2.2 2.2c.7 0 1.4-.4 1.4-.4v2.2c-.3 0-.7.3-1.7.3-2.2 0-4.1-1.7-4.1-4.1 0-2.2 1.7-3.9 4.1-3.9 1 0 1.7.3 1.7.3zM1583.1 68.4c0 2.2-1.7 4.1-4.1 4.1-2.5 0-4.1-1.9-4.1-4.1 0-2.2 1.7-3.9 4.1-3.9 2.5 0 4.1 1.7 4.1 3.9zm-4.1-2c-1.2 0-1.9 1-1.9 1.9 0 1.2.7 2.2 1.9 2.2s1.9-1 1.9-2.2c0-.9-.7-1.9-1.9-1.9zM1564.7 66.4s-1-.3-1.4-.3c-1 0-1.2.3-1.2.4 0 .4.4.7.7.7l.4.3c1.4.4 1.9 1.2 1.9 2.2 0 1.9-1.7 2.6-3.2 2.6-1 0-1.9-.3-2.2-.3v-1.9c.3.3 1 .4 1.9.4.9 0 1.4-.4 1.4-.7 0-.4-.4-.7-1-.7 0-.3-.3-.3-.4-.3-1-.3-1.9-1-1.9-2.2 0-1.4 1.2-2.4 2.9-2.4 1 0 1.9.3 1.9.3l.2 1.9zM1544.9 56.2c0-.4-.4-1-1-1-.5 0-1 .5-1 1v2.2c0 .4.4 1 1 1 .5 0 1-.4 1-1v-2.2zM1550.2 53.6c0-.4-.4-1-1-1-.7 0-1 .4-1 1v4.8c0 .4.3 1 1 1 .4 0 1-.4 1-1zM1555.3 50c0-.4-.3-1-1-1-.4 0-1 .4-1 1v10.4c0 .4.4.7 1 .7.7 0 1-.3 1-.7zM1560.7 53.6c0-.4-.4-1-1-1-.4 0-1 .4-1 1v4.8c0 .4.4 1 1 1 .4 0 1-.4 1-1zM1566 56.2c0-.4-.4-1-1-1-.4 0-1 .4-1 1v2.2c0 .4.4 1 1 1 .4 0 1-.4 1-1zM1571.2 53.6c0-.4-.4-1-1-1-.4 0-1 .4-1 1v4.8c0 .4.4 1 1 1 .4 0 1-.4 1-1zM1576.6 50c0-.4-.4-1-1-1-.5 0-1 .4-1 1v10.4c0 .4.4.7 1 .7.5 0 1-.3 1-.7V50zM1581.9 53.6c0-.4-.4-1-1-1-.7 0-1 .4-1 1v4.8c0 .4.3 1 1 1 .4 0 1-.4 1-1zM1587 56.2c0-.4-.3-1-1-1-.4 0-1 .4-1 1v2.2c0 .4.4 1 1 1 .7 0 1-.4 1-1z"
       id="path508" />
  </g>
  <g
     id="g514">
    <path
       d="M33.4 65l1.7-.2c.1.6.3 1 .6 1.2.3.2.7.4 1.3.4.6 0 1-.1 1.3-.4.3-.3.4-.5.4-.8 0-.2-.1-.4-.2-.5-.1-.1-.3-.3-.6-.4-.2-.1-.7-.2-1.4-.4-.9-.2-1.6-.5-2-.8-.5-.5-.8-1-.8-1.7 0-.4.1-.8.4-1.2.3-.4.6-.7 1.1-.9.5-.2 1-.3 1.7-.3 1.1 0 1.9.2 2.4.7.5.5.8 1.1.9 1.9l-1.7.1c-.1-.4-.2-.8-.5-1-.3-.2-.6-.3-1.1-.3-.5 0-.9.1-1.2.3-.2.1-.3.3-.3.5s.1.4.3.5c.2.2.8.4 1.6.6.8.2 1.5.4 1.9.6.4.2.7.5.9.9.2.4.3.8.3 1.4 0 .5-.1 1-.4 1.4-.3.4-.7.7-1.2 1-.5.3-1.1.3-1.9.3-1.1 0-1.9-.3-2.5-.8-.6-.5-.9-1.1-1-2.1zM44.1 67.8v-7.1h-2.5v-1.5h6.8v1.5h-2.5v7.1zM49.3 65l1.7-.2c.1.6.3 1 .6 1.2.3.2.7.4 1.3.4.6 0 1-.1 1.3-.4.3-.3.4-.5.4-.8 0-.2-.1-.4-.2-.5-.1-.1-.3-.3-.6-.4-.2-.1-.7-.2-1.4-.4-.9-.2-1.6-.5-2-.8-.5-.5-.8-1-.8-1.7 0-.4.1-.8.4-1.2.3-.4.6-.7 1.1-.9.5-.2 1-.3 1.7-.3 1.1 0 1.9.2 2.4.7.5.5.8 1.1.9 1.9l-1.7.1c-.1-.4-.2-.8-.5-1-.3-.2-.6-.3-1.1-.3-.5 0-.9.1-1.2.3-.2.1-.3.3-.3.5s.1.4.3.5c.2.2.8.4 1.6.6.8.2 1.5.4 1.9.6.4.2.7.5.9.9.2.4.3.8.3 1.4 0 .5-.1 1-.4 1.4-.3.4-.7.7-1.2 1-.5.3-1.1.3-1.9.3-1.1 0-1.9-.3-2.5-.8-.6-.5-.8-1.1-1-2.1z"
       id="path512" />
  </g>
  <g
     id="g518">
    <path
       d="M34.4 47.9h-1.9l-.8-2h-3.4l-.7 2h-1.8l3.3-8.6H31zm-3.2-3.4L30 41.3l-1.2 3.2zM36.4 47.9v-7.1h-2.5v-1.5h6.8v1.5h-2.5v7.1zM43.7 47.9v-7.1h-2.5v-1.5H48v1.5h-2.5v7.1zM49.1 47.9v-8.6h1.7l3.5 5.7v-5.7h1.6v8.6h-1.7l-3.5-5.6v5.6z"
       id="path516" />
  </g>
  <g
     id="g530">
    <path
       d="M67.4 51.4c-4.1 0-7.5-3.4-7.5-7.5s3.4-7.5 7.5-7.5 7.5 3.4 7.5 7.5-3.4 7.5-7.5 7.5z"
       clip-rule="evenodd"
       fill="#e5e5e4"
       fill-rule="evenodd"
       id="path520" />
    <path
       d="M67.4 37c3.8 0 7 3.1 7 7s-3.1 7-7 7c-3.8 0-7-3.1-7-7s3.1-7 7-7m0-1c-4.4 0-8 3.6-8 8s3.6 8 8 8 8-3.6 8-8-3.6-8-8-8z"
       fill="#333"
       id="path522" />
    <g
       id="g528">
      <path
         d="M67.4 49.4c-3 0-5.5-2.5-5.5-5.5s2.5-5.5 5.5-5.5 5.5 2.5 5.5 5.5-2.5 5.5-5.5 5.5z"
         clip-rule="evenodd"
         fill="#b3b2b3"
         fill-rule="evenodd"
         id="path524" />
      <path
         d="M67.4 39c2.7 0 5 2.2 5 5s-2.2 5-5 5-5-2.2-5-5 2.2-5 5-5m0-1c-3.3 0-6 2.7-6 6s2.7 6 6 6 6-2.7 6-6-2.7-6-6-6z"
         fill="#333"
         id="path526" />
    </g>
  </g>
  <g
     id="g542">
    <path
       d="M67.4 70.4c-4.1 0-7.5-3.4-7.5-7.5s3.4-7.5 7.5-7.5 7.5 3.4 7.5 7.5-3.4 7.5-7.5 7.5z"
       clip-rule="evenodd"
       fill="#e5e5e4"
       fill-rule="evenodd"
       id="path532" />
    <path
       d="M67.4 55.9c3.8 0 7 3.1 7 7s-3.1 7-7 7c-3.8 0-7-3.1-7-7s3.1-7 7-7m0-1c-4.4 0-8 3.6-8 8s3.6 8 8 8 8-3.6 8-8-3.6-8-8-8z"
       fill="#333"
       id="path534" />
    <g
       id="g540">
      <path
         d="M67.4 68.4c-3 0-5.5-2.5-5.5-5.5s2.5-5.5 5.5-5.5 5.5 2.5 5.5 5.5-2.5 5.5-5.5 5.5z"
         clip-rule="evenodd"
         fill="#b3b2b3"
         fill-rule="evenodd"
         id="path536" />
      <path
         d="M67.4 57.9c2.7 0 5 2.2 5 5s-2.2 5-5 5-5-2.2-5-5 2.2-5 5-5m0-1c-3.3 0-6 2.7-6 6s2.7 6 6 6 6-2.7 6-6-2.7-6-6-6z"
         fill="#333"
         id="path538" />
    </g>
  </g>
  <g
     id="g546">
    <path
       clip-rule="evenodd"
       fill="#b3b2b3"
       fill-rule="evenodd"
       d="M808 156h5v3h-5z"
       id="path544" />
  </g>
  <g
     id="g552">
    <path
       fill="#333"
       d="M97.5 34.5h219v93h-219z"
       id="path548" />
    <path
       d="M316 35v92H98V35h218m1-1H97v94h220z"
       fill="#191919"
       id="path550" />
  </g>
  <g
     id="g600">
    <path
       fill="#4d4e4e"
       d="M100.5 36.7h51v89h-51z"
       id="path554" />
    <path
       d="M151 37.2v88h-50v-88h50m1-1h-52v90h52z"
       fill="#a6a4a4"
       id="path556" />
    <path
       fill="#e3dfdb"
       d="M101 69.7h50v20h-50z"
       id="path558" />
    <path
       d="M150.5 70.2v19h-49v-19h49m1-1h-51v21h51z"
       fill="#a6a5a5"
       id="path560" />
    <path
       fill="#f1f1f2"
       d="M105 50.2h42v14h-42z"
       id="path562" />
    <path
       d="M147 63.3V50.2h-42v14h42v-.8zm-36.6-8v3.8l-4.4 3.6V51.9zm31 3.4h-30v-3h30zm-30.2 1h30.1l4.1 3.5h-38.5zm31.2-.4v-3.7l3.6-3v9.8zm3.6-8l-4.1 3.4h-30.6l-4.5-3.5z"
       fill="#414141"
       id="path564" />
    <g
       fill="#856628"
       id="g568">
      <path
         d="M108.8 48.2h1v4h-1zM112.1 48.2h1v4h-1zM118.8 48.2h1v4h-1zM115.5 48.2h1v4h-1zM122.1 48.2h1v4h-1zM125.5 48.2h1v4h-1zM128.8 48.2h1v4h-1zM132.1 48.2h1v4h-1zM135.4 48.2h1v4h-1zM138.8 48.2h1v4h-1zM142.1 48.2h1v4h-1z"
         id="path566" />
    </g>
    <g
       fill="#856628"
       id="g572">
      <path
         d="M108.8 62.4h1v4h-1zM112.1 62.4h1v4h-1zM118.8 62.4h1v4h-1zM115.5 62.4h1v4h-1zM122.1 62.4h1v4h-1zM125.5 62.4h1v4h-1zM128.8 62.4h1v4h-1zM132.1 62.4h1v4h-1zM135.4 62.4h1v4h-1zM138.8 62.4h1v4h-1zM142.1 62.4h1v4h-1z"
         id="path570" />
    </g>
    <path
       fill="#f1f1f2"
       d="M105 95h42v14h-42z"
       id="path574" />
    <path
       d="M147 108.1V95h-42v14h42v-.8zm-36.6-8v3.8l-4.4 3.6V96.7zm31 3.4h-30v-3h30zm-30.2 1h30.1l4.1 3.5h-38.5zm31.2-.4v-3.7l3.6-3v9.8zm3.6-8l-4.1 3.4h-30.6l-4.5-3.5z"
       fill="#414141"
       id="path576" />
    <g
       fill="#856628"
       id="g580">
      <path
         d="M108.8 93h1v4h-1zM112.1 93h1v4h-1zM118.8 93h1v4h-1zM115.5 93h1v4h-1zM122.1 93h1v4h-1zM125.5 93h1v4h-1zM128.8 93h1v4h-1zM132.1 93h1v4h-1zM135.4 93h1v4h-1zM138.8 93h1v4h-1zM142.1 93h1v4h-1z"
         id="path578" />
    </g>
    <g
       fill="#856628"
       id="g584">
      <path
         d="M108.8 107.2h1v4h-1zM112.1 107.2h1v4h-1zM118.8 107.2h1v4h-1zM115.5 107.2h1v4h-1zM122.1 107.2h1v4h-1zM125.5 107.2h1v4h-1zM128.8 107.2h1v4h-1zM132.1 107.2h1v4h-1zM135.4 107.2h1v4h-1zM138.8 107.2h1v4h-1zM142.1 107.2h1v4h-1z"
         id="path582" />
    </g>
    <g
       id="g590">
      <path
         d="M122.5 71.7c-.9 0-1.7-.3-2.4-.9l-2.9-2.7h17.5l-2.9 2.7c-.7.6-1.5.9-2.4.9z"
         fill="#e3dfdb"
         id="path586" />
      <path
         d="M133.4 68.6l-2 1.9c-.6.5-1.3.8-2 .8h-6.8c-.8 0-1.5-.3-2-.8l-2-1.9h14.8m2.6-1h-20l3.8 3.6c.7.7 1.7 1.1 2.7 1.1h6.8c1 0 2-.4 2.7-1.1z"
         fill="#a6a5a5"
         id="path588" />
    </g>
    <g
       id="g596">
      <path
         d="M117.2 92.1l2.9-2.7c.7-.6 1.5-.9 2.4-.9h6.8c.9 0 1.7.3 2.4.9l2.9 2.7z"
         fill="#e3dfdb"
         id="path592" />
      <path
         d="M129.4 88.9c.8 0 1.5.3 2 .8l2 1.9h-14.9l2-1.9c.6-.5 1.3-.8 2-.8h6.9m0-1h-6.8c-1 0-2 .4-2.7 1.1l-3.8 3.6h20l-3.8-3.6c-.9-.7-1.9-1.1-2.9-1.1z"
         fill="#a6a5a5"
         id="path594" />
    </g>
    <path
       fill="#4d4e4e"
       d="M104 74h8v12h-8zM138 74h8v12h-8zM117.6 80l2.9-5 2.9 5 2.9 5h-11.6zM133.4 80l-2.9 5-2.9-5-2.9-5h11.6z"
       id="path598" />
  </g>
  <g
     id="g648">
    <path
       fill="#4d4e4e"
       d="M154.5 36.7h51v89h-51z"
       id="path602" />
    <path
       d="M205 37.2v88h-50v-88h50m1-1h-52v90h52z"
       fill="#a6a4a4"
       id="path604" />
    <path
       fill="#e3dfdb"
       d="M155 69.7h50v20h-50z"
       id="path606" />
    <path
       d="M204.5 70.2v19h-49v-19h49m1-1h-51v21h51z"
       fill="#a6a5a5"
       id="path608" />
    <path
       fill="#f1f1f2"
       d="M159 50.2h42v14h-42z"
       id="path610" />
    <path
       d="M201 63.3V50.2h-42v14h42v-.8zm-36.6-8v3.8l-4.4 3.6V51.9zm31 3.4h-30v-3h30zm-30.2 1h30.1l4.1 3.5h-38.5zm31.2-.4v-3.7l3.6-3v9.8zm3.6-8l-4.1 3.4h-30.6l-4.5-3.5z"
       fill="#414141"
       id="path612" />
    <g
       fill="#856628"
       id="g616">
      <path
         d="M162.8 48.2h1v4h-1zM166.1 48.2h1v4h-1zM172.8 48.2h1v4h-1zM169.5 48.2h1v4h-1zM176.1 48.2h1v4h-1zM179.5 48.2h1v4h-1zM182.8 48.2h1v4h-1zM186.1 48.2h1v4h-1zM189.4 48.2h1v4h-1zM192.8 48.2h1v4h-1zM196.1 48.2h1v4h-1z"
         id="path614" />
    </g>
    <g
       fill="#856628"
       id="g620">
      <path
         d="M162.8 62.4h1v4h-1zM166.1 62.4h1v4h-1zM172.8 62.4h1v4h-1zM169.5 62.4h1v4h-1zM176.1 62.4h1v4h-1zM179.5 62.4h1v4h-1zM182.8 62.4h1v4h-1zM186.1 62.4h1v4h-1zM189.4 62.4h1v4h-1zM192.8 62.4h1v4h-1zM196.1 62.4h1v4h-1z"
         id="path618" />
    </g>
    <path
       fill="#f1f1f2"
       d="M159 95h42v14h-42z"
       id="path622" />
    <path
       d="M201 108.1V95h-42v14h42v-.8zm-36.6-8v3.8l-4.4 3.6V96.7zm31 3.4h-30v-3h30zm-30.2 1h30.1l4.1 3.5h-38.5zm31.2-.4v-3.7l3.6-3v9.8zm3.6-8l-4.1 3.4h-30.6l-4.5-3.5z"
       fill="#414141"
       id="path624" />
    <g
       fill="#856628"
       id="g628">
      <path
         d="M162.8 93h1v4h-1zM166.1 93h1v4h-1zM172.8 93h1v4h-1zM169.5 93h1v4h-1zM176.1 93h1v4h-1zM179.5 93h1v4h-1zM182.8 93h1v4h-1zM186.1 93h1v4h-1zM189.4 93h1v4h-1zM192.8 93h1v4h-1zM196.1 93h1v4h-1z"
         id="path626" />
    </g>
    <g
       fill="#856628"
       id="g632">
      <path
         d="M162.8 107.2h1v4h-1zM166.1 107.2h1v4h-1zM172.8 107.2h1v4h-1zM169.5 107.2h1v4h-1zM176.1 107.2h1v4h-1zM179.5 107.2h1v4h-1zM182.8 107.2h1v4h-1zM186.1 107.2h1v4h-1zM189.4 107.2h1v4h-1zM192.8 107.2h1v4h-1zM196.1 107.2h1v4h-1z"
         id="path630" />
    </g>
    <g
       id="g638">
      <path
         d="M176.5 71.7c-.9 0-1.7-.3-2.4-.9l-2.9-2.7h17.5l-2.9 2.7c-.7.6-1.5.9-2.4.9z"
         fill="#e3dfdb"
         id="path634" />
      <path
         d="M187.4 68.6l-2 1.9c-.6.5-1.3.8-2 .8h-6.8c-.8 0-1.5-.3-2-.8l-2-1.9h14.8m2.6-1h-20l3.8 3.6c.7.7 1.7 1.1 2.7 1.1h6.8c1 0 2-.4 2.7-1.1z"
         fill="#a6a5a5"
         id="path636" />
    </g>
    <g
       id="g644">
      <path
         d="M171.2 92.1l2.9-2.7c.7-.6 1.5-.9 2.4-.9h6.8c.9 0 1.7.3 2.4.9l2.9 2.7z"
         fill="#e3dfdb"
         id="path640" />
      <path
         d="M183.4 88.9c.8 0 1.5.3 2 .8l2 1.9h-14.9l2-1.9c.6-.5 1.3-.8 2-.8h6.9m0-1h-6.8c-1 0-2 .4-2.7 1.1l-3.8 3.6h20l-3.8-3.6c-.9-.7-1.9-1.1-2.9-1.1z"
         fill="#a6a5a5"
         id="path642" />
    </g>
    <path
       fill="#4d4e4e"
       d="M158 74h8v12h-8zM192 74h8v12h-8zM171.6 80l2.9-5 2.9 5 2.9 5h-11.6zM187.4 80l-2.9 5-2.9-5-2.9-5h11.6z"
       id="path646" />
  </g>
  <g
     id="g696">
    <path
       fill="#4d4e4e"
       d="M208.5 36.7h51v89h-51z"
       id="path650" />
    <path
       d="M259 37.2v88h-50v-88h50m1-1h-52v90h52z"
       fill="#a6a4a4"
       id="path652" />
    <path
       fill="#e3dfdb"
       d="M209 69.7h50v20h-50z"
       id="path654" />
    <path
       d="M258.5 70.2v19h-49v-19h49m1-1h-51v21h51z"
       fill="#a6a5a5"
       id="path656" />
    <path
       fill="#f1f1f2"
       d="M213 50.2h42v14h-42z"
       id="path658" />
    <path
       d="M255 63.3V50.2h-42v14h42v-.8zm-36.6-8v3.8l-4.4 3.6V51.9zm31 3.4h-30v-3h30zm-30.2 1h30.1l4.1 3.5h-38.5zm31.2-.4v-3.7l3.6-3v9.8zm3.6-8l-4.1 3.4h-30.6l-4.5-3.5z"
       fill="#414141"
       id="path660" />
    <g
       fill="#856628"
       id="g664">
      <path
         d="M216.8 48.2h1v4h-1zM220.1 48.2h1v4h-1zM226.8 48.2h1v4h-1zM223.5 48.2h1v4h-1zM230.1 48.2h1v4h-1zM233.5 48.2h1v4h-1zM236.8 48.2h1v4h-1zM240.1 48.2h1v4h-1zM243.4 48.2h1v4h-1zM246.8 48.2h1v4h-1zM250.1 48.2h1v4h-1z"
         id="path662" />
    </g>
    <g
       fill="#856628"
       id="g668">
      <path
         d="M216.8 62.4h1v4h-1zM220.1 62.4h1v4h-1zM226.8 62.4h1v4h-1zM223.5 62.4h1v4h-1zM230.1 62.4h1v4h-1zM233.5 62.4h1v4h-1zM236.8 62.4h1v4h-1zM240.1 62.4h1v4h-1zM243.4 62.4h1v4h-1zM246.8 62.4h1v4h-1zM250.1 62.4h1v4h-1z"
         id="path666" />
    </g>
    <path
       fill="#f1f1f2"
       d="M213 95h42v14h-42z"
       id="path670" />
    <path
       d="M255 108.1V95h-42v14h42v-.8zm-36.6-8v3.8l-4.4 3.6V96.7zm31 3.4h-30v-3h30zm-30.2 1h30.1l4.1 3.5h-38.5zm31.2-.4v-3.7l3.6-3v9.8zm3.6-8l-4.1 3.4h-30.6l-4.5-3.5z"
       fill="#414141"
       id="path672" />
    <g
       fill="#856628"
       id="g676">
      <path
         d="M216.8 93h1v4h-1zM220.1 93h1v4h-1zM226.8 93h1v4h-1zM223.5 93h1v4h-1zM230.1 93h1v4h-1zM233.5 93h1v4h-1zM236.8 93h1v4h-1zM240.1 93h1v4h-1zM243.4 93h1v4h-1zM246.8 93h1v4h-1zM250.1 93h1v4h-1z"
         id="path674" />
    </g>
    <g
       fill="#856628"
       id="g680">
      <path
         d="M216.8 107.2h1v4h-1zM220.1 107.2h1v4h-1zM226.8 107.2h1v4h-1zM223.5 107.2h1v4h-1zM230.1 107.2h1v4h-1zM233.5 107.2h1v4h-1zM236.8 107.2h1v4h-1zM240.1 107.2h1v4h-1zM243.4 107.2h1v4h-1zM246.8 107.2h1v4h-1zM250.1 107.2h1v4h-1z"
         id="path678" />
    </g>
    <g
       id="g686">
      <path
         d="M230.5 71.7c-.9 0-1.7-.3-2.4-.9l-2.9-2.7h17.5l-2.9 2.7c-.7.6-1.5.9-2.4.9z"
         fill="#e3dfdb"
         id="path682" />
      <path
         d="M241.4 68.6l-2 1.9c-.6.5-1.3.8-2 .8h-6.8c-.8 0-1.5-.3-2-.8l-2-1.9h14.8m2.6-1h-20l3.8 3.6c.7.7 1.7 1.1 2.7 1.1h6.8c1 0 2-.4 2.7-1.1z"
         fill="#a6a5a5"
         id="path684" />
    </g>
    <g
       id="g692">
      <path
         d="M225.2 92.1l2.9-2.7c.7-.6 1.5-.9 2.4-.9h6.8c.9 0 1.7.3 2.4.9l2.9 2.7z"
         fill="#e3dfdb"
         id="path688" />
      <path
         d="M237.4 88.9c.8 0 1.5.3 2 .8l2 1.9h-14.9l2-1.9c.6-.5 1.3-.8 2-.8h6.9m0-1h-6.8c-1 0-2 .4-2.7 1.1l-3.8 3.6h20l-3.8-3.6c-.9-.7-1.9-1.1-2.9-1.1z"
         fill="#a6a5a5"
         id="path690" />
    </g>
    <path
       fill="#4d4e4e"
       d="M212 74h8v12h-8zM246 74h8v12h-8zM225.6 80l2.9-5 2.9 5 2.9 5h-11.6zM241.4 80l-2.9 5-2.9-5-2.9-5h11.6z"
       id="path694" />
  </g>
  <g
     id="g744">
    <path
       fill="#4d4e4e"
       d="M262.5 36.7h51v89h-51z"
       id="path698" />
    <path
       d="M313 37.2v88h-50v-88h50m1-1h-52v90h52z"
       fill="#a6a4a4"
       id="path700" />
    <path
       fill="#e3dfdb"
       d="M263 69.7h50v20h-50z"
       id="path702" />
    <path
       d="M312.5 70.2v19h-49v-19h49m1-1h-51v21h51z"
       fill="#a6a5a5"
       id="path704" />
    <path
       fill="#f1f1f2"
       d="M267 50.2h42v14h-42z"
       id="path706" />
    <path
       d="M309 63.3V50.2h-42v14h42v-.8zm-36.6-8v3.8l-4.4 3.6V51.9zm31 3.4h-30v-3h30zm-30.2 1h30.1l4.1 3.5h-38.5zm31.2-.4v-3.7l3.6-3v9.8zm3.6-8l-4.1 3.4h-30.6l-4.5-3.5z"
       fill="#414141"
       id="path708" />
    <g
       fill="#856628"
       id="g712">
      <path
         d="M270.8 48.2h1v4h-1zM274.1 48.2h1v4h-1zM280.8 48.2h1v4h-1zM277.5 48.2h1v4h-1zM284.1 48.2h1v4h-1zM287.5 48.2h1v4h-1zM290.8 48.2h1v4h-1zM294.1 48.2h1v4h-1zM297.4 48.2h1v4h-1zM300.8 48.2h1v4h-1zM304.1 48.2h1v4h-1z"
         id="path710" />
    </g>
    <g
       fill="#856628"
       id="g716">
      <path
         d="M270.8 62.4h1v4h-1zM274.1 62.4h1v4h-1zM280.8 62.4h1v4h-1zM277.5 62.4h1v4h-1zM284.1 62.4h1v4h-1zM287.5 62.4h1v4h-1zM290.8 62.4h1v4h-1zM294.1 62.4h1v4h-1zM297.4 62.4h1v4h-1zM300.8 62.4h1v4h-1zM304.1 62.4h1v4h-1z"
         id="path714" />
    </g>
    <path
       fill="#f1f1f2"
       d="M267 95h42v14h-42z"
       id="path718" />
    <path
       d="M309 108.1V95h-42v14h42v-.8zm-36.6-8v3.8l-4.4 3.6V96.7zm31 3.4h-30v-3h30zm-30.2 1h30.1l4.1 3.5h-38.5zm31.2-.4v-3.7l3.6-3v9.8zm3.6-8l-4.1 3.4h-30.6l-4.5-3.5z"
       fill="#414141"
       id="path720" />
    <g
       fill="#856628"
       id="g724">
      <path
         d="M270.8 93h1v4h-1zM274.1 93h1v4h-1zM280.8 93h1v4h-1zM277.5 93h1v4h-1zM284.1 93h1v4h-1zM287.5 93h1v4h-1zM290.8 93h1v4h-1zM294.1 93h1v4h-1zM297.4 93h1v4h-1zM300.8 93h1v4h-1zM304.1 93h1v4h-1z"
         id="path722" />
    </g>
    <g
       fill="#856628"
       id="g728">
      <path
         d="M270.8 107.2h1v4h-1zM274.1 107.2h1v4h-1zM280.8 107.2h1v4h-1zM277.5 107.2h1v4h-1zM284.1 107.2h1v4h-1zM287.5 107.2h1v4h-1zM290.8 107.2h1v4h-1zM294.1 107.2h1v4h-1zM297.4 107.2h1v4h-1zM300.8 107.2h1v4h-1zM304.1 107.2h1v4h-1z"
         id="path726" />
    </g>
    <g
       id="g734">
      <path
         d="M284.5 71.7c-.9 0-1.7-.3-2.4-.9l-2.9-2.7h17.5l-2.9 2.7c-.7.6-1.5.9-2.4.9z"
         fill="#e3dfdb"
         id="path730" />
      <path
         d="M295.4 68.6l-2 1.9c-.6.5-1.3.8-2 .8h-6.8c-.8 0-1.5-.3-2-.8l-2-1.9h14.8m2.6-1h-20l3.8 3.6c.7.7 1.7 1.1 2.7 1.1h6.8c1 0 2-.4 2.7-1.1z"
         fill="#a6a5a5"
         id="path732" />
    </g>
    <g
       id="g740">
      <path
         d="M279.2 92.1l2.9-2.7c.7-.6 1.5-.9 2.4-.9h6.8c.9 0 1.7.3 2.4.9l2.9 2.7z"
         fill="#e3dfdb"
         id="path736" />
      <path
         d="M291.4 88.9c.8 0 1.5.3 2 .8l2 1.9h-14.9l2-1.9c.6-.5 1.3-.8 2-.8h6.9m0-1h-6.8c-1 0-2 .4-2.7 1.1l-3.8 3.6h20l-3.8-3.6c-.9-.7-1.9-1.1-2.9-1.1z"
         fill="#a6a5a5"
         id="path738" />
    </g>
    <path
       fill="#4d4e4e"
       d="M266 74h8v12h-8zM300 74h8v12h-8zM279.6 80l2.9-5 2.9 5 2.9 5h-11.6zM295.4 80l-2.9 5-2.9-5-2.9-5h11.6z"
       id="path742" />
  </g>
  <g
     id="g792">
    <path
       fill="#4d4e4e"
       d="M1286.5 28.7h51v89h-51z"
       id="path746" />
    <path
       d="M1337 29.2v88h-50v-88h50m1-1h-52v90h52z"
       fill="#a6a4a4"
       id="path748" />
    <path
       fill="#e3dfdb"
       d="M1287 61.7h50v20h-50z"
       id="path750" />
    <path
       d="M1336.5 62.2v19h-49v-19h49m1-1h-51v21h51z"
       fill="#a6a5a5"
       id="path752" />
    <path
       fill="#f1f1f2"
       d="M1291 42.2h42v14h-42z"
       id="path754" />
    <path
       d="M1333 55.3l-.1-13.1h-42v14h42v-.8zm-36.6-8v3.8l-4.4 3.6V43.9zm31 3.4h-30v-3h30zm-30.2 1h30.1l4.1 3.5h-38.5zm31.2-.4v-3.7l3.6-3v9.8zm3.6-8l-4.1 3.4h-30.6l-4.5-3.5z"
       fill="#414141"
       id="path756" />
    <g
       fill="#856628"
       id="g760">
      <path
         d="M1294.8 40.2h1v4h-1zM1298.1 40.2h1v4h-1zM1304.8 40.2h1v4h-1zM1301.5 40.2h1v4h-1zM1308.1 40.2h1v4h-1zM1311.5 40.2h1v4h-1zM1314.8 40.2h1v4h-1zM1318.1 40.2h1v4h-1zM1321.4 40.2h1v4h-1zM1324.8 40.2h1v4h-1zM1328.1 40.2h1v4h-1z"
         id="path758" />
    </g>
    <g
       fill="#856628"
       id="g764">
      <path
         d="M1294.8 54.4h1v4h-1zM1298.1 54.4h1v4h-1zM1304.8 54.4h1v4h-1zM1301.5 54.4h1v4h-1zM1308.1 54.4h1v4h-1zM1311.5 54.4h1v4h-1zM1314.8 54.4h1v4h-1zM1318.1 54.4h1v4h-1zM1321.4 54.4h1v4h-1zM1324.8 54.4h1v4h-1zM1328.1 54.4h1v4h-1z"
         id="path762" />
    </g>
    <path
       fill="#f1f1f2"
       d="M1291 87h42v14h-42z"
       id="path766" />
    <path
       d="M1333 100.1V87h-42v14h42v-.8zm-36.6-8v3.8l-4.4 3.6V88.7zm31 3.4h-30v-3h30zm-30.2 1h30.1l4.1 3.5h-38.5zm31.2-.4v-3.7l3.6-3v9.8zm3.6-8l-4.1 3.4h-30.6l-4.5-3.5z"
       fill="#414141"
       id="path768" />
    <g
       fill="#856628"
       id="g772">
      <path
         d="M1294.8 85h1v4h-1zM1298.1 85h1v4h-1zM1304.8 85h1v4h-1zM1301.5 85h1v4h-1zM1308.1 85h1v4h-1zM1311.5 85h1v4h-1zM1314.8 85h1v4h-1zM1318.1 85h1v4h-1zM1321.4 85h1v4h-1zM1324.8 85h1v4h-1zM1328.1 85h1v4h-1z"
         id="path770" />
    </g>
    <g
       fill="#856628"
       id="g776">
      <path
         d="M1294.8 99.2h1v4h-1zM1298.1 99.2h1v4h-1zM1304.8 99.2h1v4h-1zM1301.5 99.2h1v4h-1zM1308.1 99.2h1v4h-1zM1311.5 99.2h1v4h-1zM1314.8 99.2h1v4h-1zM1318.1 99.2h1v4h-1zM1321.4 99.2h1v4h-1zM1324.8 99.2h1v4h-1zM1328.1 99.2h1v4h-1z"
         id="path774" />
    </g>
    <g
       id="g782">
      <path
         d="M1308.5 63.7c-.9 0-1.7-.3-2.4-.9l-2.9-2.7h17.5l-2.9 2.7c-.7.6-1.5.9-2.4.9z"
         fill="#e3dfdb"
         id="path778" />
      <path
         d="M1319.4 60.6l-2 1.9c-.6.5-1.3.8-2 .8h-6.8c-.8 0-1.5-.3-2-.8l-2-1.9h14.8m2.6-1h-20l3.8 3.6c.7.7 1.7 1.1 2.7 1.1h6.8c1 0 2-.4 2.7-1.1z"
         fill="#a6a5a5"
         id="path780" />
    </g>
    <g
       id="g788">
      <path
         d="M1303.2 84.1l2.9-2.7c.7-.6 1.5-.9 2.4-.9h6.8c.9 0 1.7.3 2.4.9l2.9 2.7z"
         fill="#e3dfdb"
         id="path784" />
      <path
         d="M1315.4 80.9c.8 0 1.5.3 2 .8l2 1.9h-14.9l2-1.9c.6-.5 1.3-.8 2-.8h6.9m0-1h-6.8c-1 0-2 .4-2.7 1.1l-3.8 3.6h20l-3.8-3.6c-.9-.7-1.9-1.1-2.9-1.1z"
         fill="#a6a5a5"
         id="path786" />
    </g>
    <path
       fill="#4d4e4e"
       d="M1290 66h8v12h-8zM1324 66h8v12h-8zM1303.6 72l2.9-5 2.9 5 2.9 5h-11.6zM1319.4 72l-2.9 5-2.9-5-2.9-5h11.6z"
       id="path790" />
  </g>
  <g
     id="g840">
    <path
       fill="#4d4e4e"
       d="M1340.5 28.7h51v89h-51z"
       id="path794" />
    <path
       d="M1391 29.2v88h-50v-88h50m1-1h-52v90h52z"
       fill="#a6a4a4"
       id="path796" />
    <path
       fill="#e3dfdb"
       d="M1341 61.7h50v20h-50z"
       id="path798" />
    <path
       d="M1390.5 62.2v19h-49v-19h49m1-1h-51v21h51z"
       fill="#a6a5a5"
       id="path800" />
    <path
       fill="#f1f1f2"
       d="M1345 42.2h42v14h-42z"
       id="path802" />
    <path
       d="M1387 55.3l-.1-13.1h-42v14h42v-.8zm-36.6-8v3.8l-4.4 3.6V43.9zm31 3.4h-30v-3h30zm-30.2 1h30.1l4.1 3.5h-38.5zm31.2-.4v-3.7l3.6-3v9.8zm3.6-8l-4.1 3.4h-30.6l-4.5-3.5z"
       fill="#414141"
       id="path804" />
    <g
       fill="#856628"
       id="g808">
      <path
         d="M1348.8 40.2h1v4h-1zM1352.1 40.2h1v4h-1zM1358.8 40.2h1v4h-1zM1355.5 40.2h1v4h-1zM1362.1 40.2h1v4h-1zM1365.5 40.2h1v4h-1zM1368.8 40.2h1v4h-1zM1372.1 40.2h1v4h-1zM1375.4 40.2h1v4h-1zM1378.8 40.2h1v4h-1zM1382.1 40.2h1v4h-1z"
         id="path806" />
    </g>
    <g
       fill="#856628"
       id="g812">
      <path
         d="M1348.8 54.4h1v4h-1zM1352.1 54.4h1v4h-1zM1358.8 54.4h1v4h-1zM1355.5 54.4h1v4h-1zM1362.1 54.4h1v4h-1zM1365.5 54.4h1v4h-1zM1368.8 54.4h1v4h-1zM1372.1 54.4h1v4h-1zM1375.4 54.4h1v4h-1zM1378.8 54.4h1v4h-1zM1382.1 54.4h1v4h-1z"
         id="path810" />
    </g>
    <path
       fill="#f1f1f2"
       d="M1345 87h42v14h-42z"
       id="path814" />
    <path
       d="M1387 100.1V87h-42v14h42v-.8zm-36.6-8v3.8l-4.4 3.6V88.7zm31 3.4h-30v-3h30zm-30.2 1h30.1l4.1 3.5h-38.5zm31.2-.4v-3.7l3.6-3v9.8zm3.6-8l-4.1 3.4h-30.6l-4.5-3.5z"
       fill="#414141"
       id="path816" />
    <g
       fill="#856628"
       id="g820">
      <path
         d="M1348.8 85h1v4h-1zM1352.1 85h1v4h-1zM1358.8 85h1v4h-1zM1355.5 85h1v4h-1zM1362.1 85h1v4h-1zM1365.5 85h1v4h-1zM1368.8 85h1v4h-1zM1372.1 85h1v4h-1zM1375.4 85h1v4h-1zM1378.8 85h1v4h-1zM1382.1 85h1v4h-1z"
         id="path818" />
    </g>
    <g
       fill="#856628"
       id="g824">
      <path
         d="M1348.8 99.2h1v4h-1zM1352.1 99.2h1v4h-1zM1358.8 99.2h1v4h-1zM1355.5 99.2h1v4h-1zM1362.1 99.2h1v4h-1zM1365.5 99.2h1v4h-1zM1368.8 99.2h1v4h-1zM1372.1 99.2h1v4h-1zM1375.4 99.2h1v4h-1zM1378.8 99.2h1v4h-1zM1382.1 99.2h1v4h-1z"
         id="path822" />
    </g>
    <g
       id="g830">
      <path
         d="M1362.5 63.7c-.9 0-1.7-.3-2.4-.9l-2.9-2.7h17.5l-2.9 2.7c-.7.6-1.5.9-2.4.9z"
         fill="#e3dfdb"
         id="path826" />
      <path
         d="M1373.4 60.6l-2 1.9c-.6.5-1.3.8-2 .8h-6.8c-.8 0-1.5-.3-2-.8l-2-1.9h14.8m2.6-1h-20l3.8 3.6c.7.7 1.7 1.1 2.7 1.1h6.8c1 0 2-.4 2.7-1.1z"
         fill="#a6a5a5"
         id="path828" />
    </g>
    <g
       id="g836">
      <path
         d="M1357.2 84.1l2.9-2.7c.7-.6 1.5-.9 2.4-.9h6.8c.9 0 1.7.3 2.4.9l2.9 2.7z"
         fill="#e3dfdb"
         id="path832" />
      <path
         d="M1369.4 80.9c.8 0 1.5.3 2 .8l2 1.9h-14.9l2-1.9c.6-.5 1.3-.8 2-.8h6.9m0-1h-6.8c-1 0-2 .4-2.7 1.1l-3.8 3.6h20l-3.8-3.6c-.9-.7-1.9-1.1-2.9-1.1z"
         fill="#a6a5a5"
         id="path834" />
    </g>
    <path
       fill="#4d4e4e"
       d="M1344 66h8v12h-8zM1378 66h8v12h-8zM1357.6 72l2.9-5 2.9 5 2.9 5h-11.6zM1373.4 72l-2.9 5-2.9-5-2.9-5h11.6z"
       id="path838" />
  </g>
  <g
     id="g882">
    <path
       clip-rule="evenodd"
       fill="#595a5a"
       fill-rule="evenodd"
       d="M1450 26.4h65.8v108H1450z"
       id="path842" />
    <path
       fill="none"
       stroke="#a6a4a4"
       stroke-width="1.5"
       stroke-linecap="round"
       stroke-linejoin="round"
       stroke-miterlimit="2"
       d="M1513.3 29.2h-60.9v51.7h60.9zM1513.3 132.6h-60.9V80.9h60.9z"
       id="path844" />
    <path
       d="M1493.3 69.1h20v23.6h-20c-.9-.9-1.8-1.8-2.7-1.8h-15.5c-.9 0-1.8.9-2.7 1.8h-20V69.1h20c.9.9 1.8.9 2.7 1.8h15.5c.9-.9 1.8-.9 2.7-1.8z"
       clip-rule="evenodd"
       fill="#e3dfdb"
       fill-rule="evenodd"
       id="path846" />
    <path
       d="M1493.3 69.1h20v23.6h-20c-.9-.9-1.8-1.8-2.7-1.8h-15.5c-.9 0-1.8.9-2.7 1.8h-20V69.1h20c.9.9 1.8.9 2.7 1.8v0h15.5c.9-.9 1.8-.9 2.7-1.8z"
       fill="none"
       stroke="#a6a4a4"
       stroke-width="1.5"
       stroke-linecap="square"
       stroke-miterlimit="2"
       id="path848" />
    <path
       clip-rule="evenodd"
       fill="#414141"
       fill-rule="evenodd"
       d="M1461.5 75.5l-5.5 9.9h10.9zM1504.2 85.4l-5.4-9.9h10.9z"
       id="path850" />
    <g
       clip-rule="evenodd"
       fill="#333"
       fill-rule="evenodd"
       id="g854">
      <path
         d="M1469.9 76.1h6v3h-6zM1476.9 76.1h6v3h-6zM1483.9 76.1h6v3h-6zM1490.9 76.1h6v3h-6z"
         id="path852" />
    </g>
    <g
       clip-rule="evenodd"
       fill="#333"
       fill-rule="evenodd"
       id="g858">
      <path
         d="M1469.9 81.1h6v3h-6zM1476.9 81.1h6v3h-6zM1483.9 81.1h6v3h-6zM1490.9 81.1h6v3h-6z"
         id="path856" />
    </g>
    <path
       fill="#b3b2b3"
       d="M1453.4 30.6h59v37h-59z"
       id="path860" />
    <path
       d="M1511.9 31.1v36h-58v-36h58m1-1h-60v38h60z"
       fill="#979797"
       id="path862" />
    <g
       id="g868">
      <path
         fill="#cbcbca"
         d="M1456.9 41.6h52v15h-52z"
         id="path864" />
      <path
         d="M1508.4 42.1v14h-51v-14h51m1-1h-53v16h53z"
         fill="#979797"
         id="path866" />
    </g>
    <g
       id="g880">
      <path
         fill="#b3b2b3"
         d="M1453.4 94.6h59v37h-59z"
         id="path870" />
      <path
         d="M1511.9 95.1v36h-58v-36h58m1-1h-60v38h60z"
         fill="#979797"
         id="path872" />
      <g
         id="g878">
        <path
           fill="#cbcbca"
           d="M1456.9 105.6h52v15h-52z"
           id="path874" />
        <path
           d="M1508.4 106.1v14h-51v-14h51m1-1h-53v16h53z"
           fill="#979797"
           id="path876" />
      </g>
    </g>
  </g>
  <g
     id="g916">
    <path
       d="M27 115.4v-7.8c0-1.2.5-2.5 1.8-2.5h45.1c1.2 0 2.5 1.3 2.5 2.5v7.8h-.3H27z"
       fill="#e5e5e4"
       id="path884" />
    <path
       d="M73.9 105.7c1 0 2 1 2 2v7.3H27.5v-7.3c0-.7.3-2 1.3-2h45.1m0-1H28.8c-1.5 0-2.3 1.5-2.3 3v7.5c0 .8 0 .8.8.8h48.8c.8 0 .8 0 .8-.8v-7.5c0-1.5-1.5-3-3-3z"
       fill="#979797"
       id="path886" />
    <path
       clip-rule="evenodd"
       fill="#595a5a"
       fill-rule="evenodd"
       d="M31.8 115.9h38.3v9.8H31.8z"
       id="path888" />
    <path
       fill="none"
       stroke="gray"
       stroke-linecap="round"
       stroke-linejoin="round"
       stroke-miterlimit="10"
       d="M70.1 115.9v9.8H31.8v-9.8z"
       id="path890" />
    <path
       clip-rule="evenodd"
       fill="#7f7f7f"
       fill-rule="evenodd"
       d="M0 115.9h11.5v33.8H0z"
       id="path892" />
    <path
       d="M10.8 149H3.3c-1.5 0-2.3-.8-2.3-1.5v0-29.3c0-.8.8-1.5 2.3-1.5v0h7.5"
       fill="none"
       stroke="gray"
       stroke-linecap="round"
       stroke-linejoin="round"
       stroke-miterlimit="10"
       id="path894" />
    <path
       clip-rule="evenodd"
       fill="#7f7f7f"
       fill-rule="evenodd"
       d="M9.3 115.9h12v33.8h-12z"
       id="path896" />
    <path
       d="M20.5 149h-9.8m.1-32.3h9.8"
       fill="none"
       stroke="gray"
       stroke-linecap="round"
       stroke-linejoin="round"
       stroke-miterlimit="10"
       id="path898" />
    <path
       clip-rule="evenodd"
       fill="#676767"
       fill-rule="evenodd"
       d="M19 115.9h13.5v33.8H19z"
       id="path900" />
    <path
       d="M19.8 149h9c1.5 0 3-.8 3-1.5v0-29.3c0-.8-1.5-1.5-3-1.5v0h-9"
       fill="none"
       stroke="gray"
       stroke-linecap="round"
       stroke-linejoin="round"
       stroke-miterlimit="10"
       id="path902" />
    <path
       clip-rule="evenodd"
       fill="#d8d8d7"
       fill-rule="evenodd"
       d="M20.5 124.9h51.1v24.8H20.5z"
       id="path904" />
    <path
       d="M69.1 126.7V148H23.3c4.9-6.7 8-13.7 9.4-21.3h36.4m1-1H31.8c-1.5 9-5.3 16.5-10.5 23.3h48.8z"
       fill="gray"
       id="path906" />
    <path
       d="M87.6 137.7v-10.5c2.3.8 4.5 3.8 3.8 6.8-.8 2.2-2.3 3.7-3.8 3.7z"
       fill="#878787"
       stroke="#414141"
       stroke-width=".25"
       stroke-linecap="round"
       stroke-linejoin="round"
       stroke-miterlimit="10"
       id="path908" />
    <path
       clip-rule="evenodd"
       fill="#8b8b8b"
       fill-rule="evenodd"
       d="M88.1 116.7V143h-6l-1.5 6h-4.5v-32.3z"
       id="path910" />
    <path
       d="M19 158v-6l6.8-3h241.1c1.5 0 2.3 1.5 2.3 3v6c0 1.5-.8 3-2.3 3H25.8z"
       clip-rule="evenodd"
       fill="#595a5a"
       fill-rule="evenodd"
       id="path912" />
    <path
       d="M19 158v-6l6.8-3h241.1c1.5 0 2.3 1.5 2.3 3v6c0 1.5-.8 3-2.3 3v0H25.8z"
       fill="none"
       stroke="gray"
       stroke-linecap="round"
       stroke-linejoin="round"
       stroke-miterlimit="10"
       id="path914" />
  </g>
  <g
     id="g950">
    <path
       d="M1544.6 115.4v-7.8c0-1.2 1.3-2.5 2.5-2.5h45.1c1.2 0 1.8 1.3 1.8 2.5v7.8H1544.6z"
       fill="#e5e5e4"
       id="path918" />
    <path
       d="M1592.2 105.7c1 0 1.3 1.3 1.3 2v7.3h-48.3v-7.3c0-1 1-2 2-2h45m0-1h-45.1c-1.5 0-3 1.5-3 3v7.5c0 .8 0 .8.8.8h48.8c.8 0 .8 0 .8-.8v-7.5c0-1.5-.8-3-2.3-3z"
       fill="#979797"
       id="path920" />
    <path
       clip-rule="evenodd"
       fill="#595a5a"
       fill-rule="evenodd"
       d="M1550.9 115.9h38.3v9.8h-38.3z"
       id="path922" />
    <path
       fill="none"
       stroke="gray"
       stroke-linecap="round"
       stroke-linejoin="round"
       stroke-miterlimit="10"
       d="M1550.9 115.9v9.8h38.3v-9.8z"
       id="path924" />
    <path
       clip-rule="evenodd"
       fill="#7f7f7f"
       fill-rule="evenodd"
       d="M1609.5 115.9h11.5v33.8h-11.5z"
       id="path926" />
    <path
       d="M1610.2 149h7.5c1.5 0 2.3-.8 2.3-1.5v0-29.3c0-.8-.8-1.5-2.3-1.5v0h-7.5"
       fill="none"
       stroke="gray"
       stroke-linecap="round"
       stroke-linejoin="round"
       stroke-miterlimit="10"
       id="path928" />
    <path
       clip-rule="evenodd"
       fill="#7f7f7f"
       fill-rule="evenodd"
       d="M1599.7 115.9h12v33.8h-12z"
       id="path930" />
    <path
       d="M1610.2 149h-9.8m.1-32.3h9.8"
       fill="none"
       stroke="gray"
       stroke-linecap="round"
       stroke-linejoin="round"
       stroke-miterlimit="10"
       id="path932" />
    <path
       clip-rule="evenodd"
       fill="#676767"
       fill-rule="evenodd"
       d="M1588.5 115.9h13.5v33.8h-13.5z"
       id="path934" />
    <path
       d="M1601.2 149h-9c-1.5 0-3-.8-3-1.5v0-29.3c0-.8 1.5-1.5 3-1.5v0h9"
       fill="none"
       stroke="gray"
       stroke-linecap="round"
       stroke-linejoin="round"
       stroke-miterlimit="10"
       id="path936" />
    <path
       clip-rule="evenodd"
       fill="#d8d8d7"
       fill-rule="evenodd"
       d="M1549.4 124.9h51.1v24.8h-51.1z"
       id="path938" />
    <path
       d="M1588.4 126.7c1.4 7.6 4.5 14.6 9.4 21.3H1552v-21.3h36.4m.8-1h-38.3V149h48.8c-5.2-6.8-9-14.3-10.5-23.3z"
       fill="gray"
       id="path940" />
    <path
       d="M1533.4 137.7v-10.5c-2.3.8-4.5 3.8-3.8 6.8.8 2.2 2.3 3.7 3.8 3.7z"
       fill="#878787"
       stroke="#414141"
       stroke-width=".25"
       stroke-linecap="round"
       stroke-linejoin="round"
       stroke-miterlimit="10"
       id="path942" />
    <path
       clip-rule="evenodd"
       fill="#8b8b8b"
       fill-rule="evenodd"
       d="M1532.9 116.7V143h6l1.5 6h4.5v-32.3z"
       id="path944" />
    <path
       d="M1602 158v-6l-6.8-3h-241.1c-1.5 0-2.3 1.5-2.3 3v6c0 1.5.8 3 2.3 3h241.1z"
       clip-rule="evenodd"
       fill="#595a5a"
       fill-rule="evenodd"
       id="path946" />
    <path
       d="M1602 158v-6l-6.8-3h-241.1c-1.5 0-2.3 1.5-2.3 3v6c0 1.5.8 3 2.3 3v0h241.1z"
       fill="none"
       stroke="gray"
       stroke-linecap="round"
       stroke-linejoin="round"
       stroke-miterlimit="10"
       id="path948" />
  </g>
  <rect
     data-cv-id="PORT-1"
     width="54"
     height="34.7"
     x="97.5"
     y="34.5"
     ry="2"
     fill="none"
     id="rect952" />
  <rect
     data-cv-id="PORT-3"
     width="54"
     height="34.7"
     x="151.94"
     y="34.911"
     ry="2"
     fill="none"
     id="rect954" />
  <rect
     data-cv-id="PORT-5"
     width="54"
     height="34.7"
     x="206.164"
     y="32.911"
     ry="2"
     fill="none"
     id="rect956" />
  <rect
     data-cv-id="PORT-7"
     width="54"
     height="34.7"
     x="260.668"
     y="33.776"
     ry="2"
     fill="none"
     id="rect958" />
  <rect
     data-cv-id="PORT-6"
     width="54"
     height="34.7"
     x="259.814"
     y="91.426"
     ry="2"
     fill="none"
     id="rect960" />
  <rect
     data-cv-id="PORT-4"
     width="54"
     height="34.7"
     x="206.164"
     y="90.573"
     ry="2"
     fill="none"
     id="rect962" />
  <rect
     data-cv-id="PORT-2"
     width="54"
     height="34.7"
     x="152.794"
     y="91.426"
     ry="2"
     fill="none"
     id="rect964" />
  <rect
     data-cv-id="PORT-0"
     width="54"
     height="34.7"
     x="96.57"
     y="93.707"
     ry="2"
     fill="none"
     id="rect966" />
  <rect
     data-cv-id="PORT-9"
     width="50.5"
     height="32"
     x="1287"
     y="29.2"
     ry="2"
     fill="none"
     id="rect968" />
  <rect
     data-cv-id="PORT-11"
     width="50.5"
     height="32"
     x="1340.901"
     y="29.699"
     ry="2"
     fill="none"
     id="rect970" />
  <rect
     data-cv-id="PORT-10"
     width="50.5"
     height="32"
     x="1338.901"
     y="82.788"
     ry="2"
     fill="none"
     id="rect972" />
  <rect
     data-cv-id="PORT-8"
     width="50.5"
     height="32"
     x="1286.105"
     y="83.069"
     ry="2"
     fill="none"
     id="rect974" />
  <rect
     data-cv-id="PORT-13"
     width="62.9"
     height="41.7"
     x="1450"
     y="26.4"
     ry="2"
     fill="none"
     id="rect976" />
  <rect
     data-cv-id="PORT-12"
     width="62.9"
     height="41.7"
     x="1450.576"
     y="94.488"
     ry="2"
     fill="none"
     id="rect978" />
  <text
     xml:space="preserve"
     style="font-style:normal;font-weight:normal;font-size:40px;line-height:1.25;font-family:sans-serif;fill:#000000;fill-opacity:1;stroke:none"
     x="539.81476"
     y="101.11804"
     id="text990"><tspan
       sodipodi:role="line"
       id="tspan988"
       x="539.81476"
       y="101.11804" /></text>
</svg>
