<?xml version="1.0" encoding="UTF-8" standalone="no"?>
<!-- Generator: Adobe Illustrator 21.0.0, SVG Export Plug-In . SVG Version: 6.00 Build 0)  -->

<svg
   xmlns:dc="http://purl.org/dc/elements/1.1/"
   xmlns:cc="http://creativecommons.org/ns#"
   xmlns:rdf="http://www.w3.org/1999/02/22-rdf-syntax-ns#"
   xmlns:svg="http://www.w3.org/2000/svg"
   xmlns="http://www.w3.org/2000/svg"
   xmlns:sodipodi="http://sodipodi.sourceforge.net/DTD/sodipodi-0.dtd"
   xmlns:inkscape="http://www.inkscape.org/namespaces/inkscape"
   version="1.1"
   id="NC55-5508-FC-FILLERLayer_1"
   x="0px"
   y="0px"
   viewBox="0 0 1634 240"
   xml:space="preserve"
   inkscape:version="0.91 r13725"
   sodipodi:docname="NC55-5508-FC_Filler.svg"
   width="1634"
   height="240"><metadata
     id="NC55-5508-FC-FILLERmetadata25"><rdf:RDF><cc:Work
         rdf:about=""><dc:format>image/svg+xml</dc:format><dc:type
           rdf:resource="http://purl.org/dc/dcmitype/StillImage" /><dc:title></dc:title></cc:Work></rdf:RDF></metadata><defs
     id="NC55-5508-FC-FILLERdefs23" /><sodipodi:namedview
     pagecolor="#ffffff"
     bordercolor="#666666"
     borderopacity="1"
     objecttolerance="10"
     gridtolerance="10"
     guidetolerance="10"
     inkscape:pageopacity="0"
     inkscape:pageshadow="2"
     inkscape:window-width="1920"
     inkscape:window-height="1017"
     id="NC55-5508-FC-FILLERnamedview21"
     showgrid="false"
     inkscape:zoom="0.40851212"
     inkscape:cx="610.24211"
     inkscape:cy="392.27669"
     inkscape:window-x="-8"
     inkscape:window-y="-8"
     inkscape:window-maximized="1"
     inkscape:current-layer="Layer_1" /><style
     type="text/css"
     id="NC55-5508-FC-FILLERstyle3">
	.NC55-5508-FC-FILLERst0{fill:#EEEEEE;}
	.NC55-5508-FC-FILLERst1{fill:#808080;}
	.NC55-5508-FC-FILLERst2{fill:#BFBFBF;}
</style><g
     id="NC55-5508-FC-FILLERg5"
     transform="matrix(0,1,-1,0,1635.5495,1.1016307)"><g
       id="NC55-5508-FC-FILLERg7"><path
         class="NC55-5508-FC-FILLERst0"
         d="m 6,1633.5 c -3,0 -5.5,-2.5 -5.5,-5.5 L 0.5,6 C 0.5,3 3,0.5 6,0.5 l 228,0 c 3,0 5.5,2.5 5.5,5.5 l 0,1622 c 0,3 -2.5,5.5 -5.5,5.5 l -228,0 z"
         id="NC55-5508-FC-FILLERpath9"
         inkscape:connector-curvature="0"
         style="fill:#eeeeee" /><path
         class="NC55-5508-FC-FILLERst1"
         d="m 234,1 c 2.8,0 5,2.2 5,5 l 0,1622 c 0,2.8 -2.2,5 -5,5 l -228,0 c -2.8,0 -5,-2.2 -5,-5 L 1,6 C 1,3.2 3.2,1 6,1 L 234,1 M 234,0 6,0 C 2.7,0 0,2.7 0,6 l 0,1622 c 0,3.3 2.7,6 6,6 l 228,0 c 3.3,0 6,-2.7 6,-6 L 240,6 c 0,-3.3 -2.7,-6 -6,-6 l 0,0 z"
         id="NC55-5508-FC-FILLERpath11"
         inkscape:connector-curvature="0"
         style="fill:#808080" /></g><g
       id="NC55-5508-FC-FILLERg13"><path
         class="NC55-5508-FC-FILLERst2"
         d="m 26,1613.5 c -3,0 -5.5,-2.5 -5.5,-5.5 l 0,-1582 c 0,-3 2.5,-5.5 5.5,-5.5 l 188,0 c 3,0 5.5,2.5 5.5,5.5 l 0,1582 c 0,3 -2.5,5.5 -5.5,5.5 l -188,0 z"
         id="NC55-5508-FC-FILLERpath15"
         inkscape:connector-curvature="0"
         style="fill:#bfbfbf" /><g
         id="NC55-5508-FC-FILLERg17"><path
           class="NC55-5508-FC-FILLERst1"
           d="m 214,21 c 2.8,0 5,2.2 5,5 l 0,1582 c 0,2.8 -2.2,5 -5,5 l -188,0 c -2.8,0 -5,-2.2 -5,-5 L 21,26 c 0,-2.8 2.2,-5 5,-5 l 188,0 m 0,-1 -188,0 c -3.3,0 -6,2.7 -6,6 l 0,1582 c 0,3.3 2.7,6 6,6 l 188,0 c 3.3,0 6,-2.7 6,-6 L 220,26 c 0,-3.3 -2.7,-6 -6,-6 l 0,0 z"
           id="NC55-5508-FC-FILLERpath19"
           inkscape:connector-curvature="0"
           style="fill:#808080" /></g></g></g></svg>