<?xml version="1.0" encoding="UTF-8" standalone="no"?>
<svg
   xmlns:dc="http://purl.org/dc/elements/1.1/"
   xmlns:cc="http://creativecommons.org/ns#"
   xmlns:rdf="http://www.w3.org/1999/02/22-rdf-syntax-ns#"
   xmlns:svg="http://www.w3.org/2000/svg"
   xmlns="http://www.w3.org/2000/svg"
   xmlns:sodipodi="http://sodipodi.sourceforge.net/DTD/sodipodi-0.dtd"
   xmlns:inkscape="http://www.inkscape.org/namespaces/inkscape"
   version="1.1"
   id="NS55-5508-FAN-FILLERLayer_1"
   x="0"
   y="0"
   viewBox="0 0 1736 476"
   xml:space="preserve"
   width="1736"
   height="476"
   sodipodi:docname="NS55-5508-FAN-FILLER.svg"
   inkscape:version="1.0.1 (3bc2e813f5, 2020-09-07)"><metadata
     id="metadata125"><rdf:RDF><cc:Work
         rdf:about=""><dc:format>image/svg+xml</dc:format><dc:type
           rdf:resource="http://purl.org/dc/dcmitype/StillImage" /></cc:Work></rdf:RDF></metadata><defs
     id="defs123" /><sodipodi:namedview
     pagecolor="#ffffff"
     bordercolor="#666666"
     borderopacity="1"
     objecttolerance="10"
     gridtolerance="10"
     guidetolerance="10"
     inkscape:pageopacity="0"
     inkscape:pageshadow="2"
     inkscape:window-width="1280"
     inkscape:window-height="658"
     id="namedview121"
     showgrid="false"
     inkscape:zoom="0.60023041"
     inkscape:cx="868"
     inkscape:cy="238"
     inkscape:window-x="-6"
     inkscape:window-y="-6"
     inkscape:window-maximized="1"
     inkscape:current-layer="NS55-5508-FAN-FILLERLayer_1" /><style
     type="text/css"
     id="NS55-5508-FAN-FILLERstyle3">.NS55-5508-FAN-FILLERst0,.NS55-5508-FAN-FILLERst1{fill-rule:evenodd;clip-rule:evenodd;fill:#bfbfbf}.NS55-5508-FAN-FILLERst1{fill:#9f9f9f}.NS55-5508-FAN-FILLERst2{fill:none;stroke:gray;stroke-width:.792;stroke-linecap:round;stroke-linejoin:round;stroke-miterlimit:2}.NS55-5508-FAN-FILLERst4{fill:#ccc}.NS55-5508-FAN-FILLERst5{fill:gray}.NS55-5508-FAN-FILLERst6{fill:#d9d9d9}.NS55-5508-FAN-FILLERst7{fill:#323232}.NS55-5508-FAN-FILLERst8{fill:#4d4d4d}.NS55-5508-FAN-FILLERst9{fill:#666}</style><g
     id="NS55-5508-FAN-FILLERg5"
     transform="rotate(90 868.644 871.966)"><path
       class="NS55-5508-FAN-FILLERst0"
       id="NS55-5508-FAN-FILLERpolygon7"
       clip-rule="evenodd"
       fill="#bfbfbf"
       fill-rule="evenodd"
       d="M15 87.9v4H0v1554.7h15v6.3h443.6v-6.3H476V91.9h-17.4v-4z" /><path
       class="NS55-5508-FAN-FILLERst1"
       id="NS55-5508-FAN-FILLERpolygon9"
       clip-rule="evenodd"
       fill="#9f9f9f"
       fill-rule="evenodd"
       d="M475 1646.6V91.9h-4v1554.7z" /><path
       class="NS55-5508-FAN-FILLERst2"
       d="M475 1646.6V91.9h-8.7m0 1554.7h8.7"
       id="NS55-5508-FAN-FILLERpath11"
       fill="none"
       stroke="gray"
       stroke-width=".792"
       stroke-linecap="round"
       stroke-linejoin="round"
       stroke-miterlimit="2" /><path
       class="NS55-5508-FAN-FILLERst1"
       id="NS55-5508-FAN-FILLERpolygon13"
       clip-rule="evenodd"
       fill="#9f9f9f"
       fill-rule="evenodd"
       d="M0 1646.6V91.9h4v1554.7z" /><path
       class="NS55-5508-FAN-FILLERst1"
       id="NS55-5508-FAN-FILLERrect15"
       clip-rule="evenodd"
       fill="#9f9f9f"
       fill-rule="evenodd"
       d="M14.1 1647.4h443.5v5.5H14.1z" /><path
       class="NS55-5508-FAN-FILLERst2"
       d="M457.6 1652.9H14.1v-5.5m443.5 0v5.5"
       id="NS55-5508-FAN-FILLERpath17"
       fill="none"
       stroke="gray"
       stroke-width=".792"
       stroke-linecap="round"
       stroke-linejoin="round"
       stroke-miterlimit="2" /><path
       class="NS55-5508-FAN-FILLERst0"
       d="M464.7 886.3l-2.4-4.8H460c-1.6 3.2-3.2 6.3-4 9.5h6.3l2.4-4.7z"
       id="NS55-5508-FAN-FILLERpath19"
       clip-rule="evenodd"
       fill="#bfbfbf"
       fill-rule="evenodd" /><path
       class="NS55-5508-FAN-FILLERst0"
       d="M464.7 679.5l-2.4 4.8H460c-1.6-3.2-3.2-6.3-4-8.7v-.8h6.3l2.4 4.7z"
       id="NS55-5508-FAN-FILLERpath21"
       clip-rule="evenodd"
       fill="#bfbfbf"
       fill-rule="evenodd" /><path
       class="NS55-5508-FAN-FILLERst0"
       d="M464.7 1127.8l-2.4 4.8H460c-1.6-3.2-3.2-6.3-4-9.5h6.3l2.4 4.7z"
       id="NS55-5508-FAN-FILLERpath23"
       clip-rule="evenodd"
       fill="#bfbfbf"
       fill-rule="evenodd" /><path
       class="NS55-5508-FAN-FILLERst0"
       d="M464.7 438l-2.4-4.8H460c-1.6 3.2-3.2 6.3-4 9.5v.8h6.3l2.4-5.5z"
       id="NS55-5508-FAN-FILLERpath25"
       clip-rule="evenodd"
       fill="#bfbfbf"
       fill-rule="evenodd" /><path
       class="NS55-5508-FAN-FILLERst0"
       d="M464.7 231.3l-2.4 4.8H460c-1.6-3.2-3.2-6.3-4-8.7v-.8h6.3l2.4 4.7z"
       id="NS55-5508-FAN-FILLERpath27"
       clip-rule="evenodd"
       fill="#bfbfbf"
       fill-rule="evenodd" /><path
       id="NS55-5508-FAN-FILLERrect29"
       clip-rule="evenodd"
       fill="#e6e6e6"
       fill-rule="evenodd"
       d="M15.6 85.9h442v7h-442z" /><g
       id="NS55-5508-FAN-FILLERg31"><g
         id="NS55-5508-FAN-FILLERg33"><path
           class="NS55-5508-FAN-FILLERst4"
           id="NS55-5508-FAN-FILLERrect35"
           fill="#ccc"
           d="M470.5 66.3h5v25h-5z" /><path
           class="NS55-5508-FAN-FILLERst5"
           d="M475 66.8v24h-4v-24h4m1-1h-6v26h6v-26z"
           id="NS55-5508-FAN-FILLERpath37"
           fill="gray" /></g><g
         id="NS55-5508-FAN-FILLERg39"><path
           class="NS55-5508-FAN-FILLERst4"
           id="NS55-5508-FAN-FILLERrect41"
           fill="#ccc"
           d="M.5 66.3h5v25h-5z" /><path
           class="NS55-5508-FAN-FILLERst5"
           d="M5 66.8v24H1v-24h4m1-1H0v26h6v-26z"
           id="NS55-5508-FAN-FILLERpath43"
           fill="gray" /></g><g
         id="NS55-5508-FAN-FILLERg45"><path
           class="NS55-5508-FAN-FILLERst4"
           d="M13.8 84.3c-4.7 0-8.6-4.2-8.6-9.1v-5.8H9V76c0 3.1 2.1 5.1 5.5 5.2v3c-.2.1-.4.1-.7.1z"
           id="NS55-5508-FAN-FILLERpath47"
           fill="#ccc" /><path
           class="NS55-5508-FAN-FILLERst5"
           d="M8.5 69.9V76c0 3.2 2.1 5.4 5.5 5.7v2.1h-.2c-4.4 0-8.1-3.9-8.1-8.6v-5.3h2.8m1-1H4.8v6.3c0 5.1 4.1 9.6 9.1 9.6.4 0 .8 0 1.2-.1v-4c-3.2 0-5.5-1.6-5.5-4.8v-7h-.1z"
           id="NS55-5508-FAN-FILLERpath49"
           fill="gray" /></g><g
         id="NS55-5508-FAN-FILLERg51"><path
           class="NS55-5508-FAN-FILLERst4"
           d="M455.6 84.3h-.7v-3c3.4-.2 5.5-2.1 5.5-5.2v-6.6h3.8v5.8c0 4.9-3.9 9-8.6 9z"
           id="NS55-5508-FAN-FILLERpath53"
           fill="#ccc" /><path
           class="NS55-5508-FAN-FILLERst5"
           d="M463.7 69.9v5.3c0 4.7-3.7 8.6-8.1 8.6h-.2v-2.1c3.4-.4 5.5-2.5 5.5-5.7v-6.1h2.8m1-1H460V76c0 3.2-2.4 4.8-5.5 4.8v4c.4.1.8.1 1.2.1 5 0 9.1-4.5 9.1-9.6v-6.4h-.1z"
           id="NS55-5508-FAN-FILLERpath55"
           fill="gray" /></g><path
         class="NS55-5508-FAN-FILLERst0"
         d="M6.3 0h464.1c3.2 0 5.5 2.4 5.5 6.3V72c0 4-2.4 6.3-5.5 6.3h-11.9c-1.6 0-3.2 1.6-3.2 3.2v5.2H15V84c0-3.2-2.4-5.5-5.5-5.5H6.3C3.2 78.4 0 76 0 72.1V6.3C0 2.4 3.2 0 6.3 0z"
         id="NS55-5508-FAN-FILLERpath57"
         clip-rule="evenodd"
         fill="#bfbfbf"
         fill-rule="evenodd" /><g
         id="NS55-5508-FAN-FILLERg59"><path
           class="NS55-5508-FAN-FILLERst5"
           d="M470.5 1c2.8 0 4.5 2.1 4.5 5.3V72c0 3.2-1.8 5.3-4.5 5.3h-11.9c-2.1 0-4.2 2-4.2 4.2v4.2H16c-.4-3.7-3-8.3-6.5-8.3H6.3c-2.6 0-5.3-1.9-5.3-5.3V6.3C1 2.9 3.7 1 6.3 1h464.2m0-1H6.3C3.2 0 0 2.4 0 6.3V72c0 4 3.2 6.3 6.3 6.3h3.2c3.2 0 5.5 5.2 5.5 8.3h440.4v-5.2c0-1.6 1.6-3.2 3.2-3.2h11.9c3.2 0 5.5-2.4 5.5-6.3V6.3c0-3.9-2.4-6.3-5.5-6.3z"
           id="NS55-5508-FAN-FILLERpath61"
           fill="gray" /></g><g
         id="NS55-5508-FAN-FILLERg63"><g
           id="NS55-5508-FAN-FILLERg65"><path
             class="NS55-5508-FAN-FILLERst6"
             d="M82.4 42.2c-.3-.2-.5-.2-.8-.2-.1 0-.3 0-.4.1l-.6.2-.5-.4c-.2-.2-.6-.3-.9-.3H78.9l-.7.1-.5-.5c-.3-.3-.6-.4-1-.4H76l-.4-.6c-.2-.3-.6-.5-1-.6l-.7-.1-.3-.6c-.2-.4-.5-.6-.9-.7l-.7-.1v-.6c-.1-.4-.4-.7-.8-.8l-.6-.2-.1-.7c-.1-.4-.3-.7-.7-.9l-.6-.3-.2-.7c0-.4-.2-.8-.6-1l-.6-.4v-.7c0-.4-.1-.8-.4-1.1l-.4-.4.1-.7c.1-.4 0-.8-.3-1.1l-.4-.5.2-.6c.1-.4.1-.8-.1-1.1l-.4-.6.3-.6c.2-.4.2-.8 0-1.1l-.3-.6.4-.6c.2-.3.3-.8.1-1.1l-.2-.7.4-.5c.3-.3.4-.7.3-1.1l-.1-.7.5-.5c.3-.3.5-.7.4-1.1v-.7l.6-.4c.3-.2.5-.6.6-1l.1-.7.6-.3c.4-.2.6-.5.7-.9l.1-.7.6-.2c.4-.1.7-.4.8-.8l.2-.6.7-.1c.4-.1.7-.3.9-.7l.3-.6.7-.1c.4 0 .8-.2 1-.6l.4-.6h.7c.4 0 .8-.2 1-.4l.5-.5.6.3h.2c.3 0 .6-.1.9-.3l.5-.4.6.2h.4c.3 0 .5-.1.7-.2l.6-.4.6.3c.2.1.4.1.6.1.2 0 .4 0 .6-.1l.6-.3.6.4c.2.2.4.2.7.2h.4l.6-.2.5.4c.2.2.6.3.9.3H89.3l.7-.1.5.5c.3.3.6.4 1 .4h.7l.4.6c.2.3.6.5 1 .6l.7.1.3.6c.2.4.5.6.9.7l.7.1.2.6c.1.4.4.7.8.8l.6.2.1.7c.1.4.3.7.7.9l.6.3.1.7c0 .4.2.8.6 1l.6.4v.7c0 .4.1.8.4 1.1l.5.5-.1.7c-.1.4 0 .8.3 1.1l.4.5-.2.6c-.1.4-.1.8.1 1.1l.4.6-.3.6c-.2.4-.2.8 0 1.1l.3.6-.4.6c-.2.3-.3.7-.1 1.1l.2.6-.4.5c-.3.3-.4.7-.3 1.1l.1.7-.5.5c-.3.3-.5.7-.4 1.1v.7l-.6.4c-.3.2-.5.6-.6 1l-.1.7-.6.3c-.4.2-.6.5-.7.9l-.1.7-.6.2c-.4.1-.7.4-.8.8l-.4.4-.7.1c-.4.1-.7.3-.9.7l-.3.6-.7.1c-.4 0-.8.2-1 .6l-.4.6h-.7c-.4 0-.8.2-1 .4l-.5.5-.7-.1h-.2c-.3 0-.6.1-.9.3l-.5.4-.5-.3c-.1 0-.3-.1-.4-.1-.3 0-.5.1-.7.2l-.6.4-.6-.3c-.2-.1-.4-.1-.6-.1-.2 0-.4 0-.6.1l-.6.3-.5-.3z"
             id="NS55-5508-FAN-FILLERpath67"
             fill="#d9d9d9" /><path
             class="NS55-5508-FAN-FILLERst7"
             d="M85.2 7.5l.2.1c.4.2.8.3 1.2.3.2 0 .5 0 .7-.1l.2-.1.1.1c.4.4.9.6 1.4.6H89.6l.1.1c.4.5 1 .7 1.7.7H91.7l.1.1c.4.5 1 .9 1.6.9h.2l.1.2c.3.6.9 1 1.5 1.2h.2l.1.2c.2.6.7 1.1 1.3 1.3l.2.1v.2c.1.6.6 1.2 1.2 1.5l.2.1v.2c.1.7.4 1.3.9 1.6l.1.1v.2c0 .7.2 1.3.7 1.8l.1.1v.2c-.1.7.1 1.3.5 1.8l.1.1-.1.2c-.2.6-.1 1.3.2 1.9l.1.2-.1.2c-.3.6-.3 1.3 0 1.9l.1.2-.1.2c-.4.6-.4 1.2-.2 1.9l.1.2-.1.1c-.4.5-.6 1.2-.5 1.8v.2l-.1.1c-.5.5-.8 1.1-.7 1.8v.2l-.1.1c-.5.4-.9 1-.9 1.6v.2l-.3-.1c-.6.3-1 .9-1.2 1.5v.2l-.2.1c-.6.2-1.1.7-1.3 1.3l-.1.2h-.2c-.6.1-1.2.6-1.5 1.2l-.1.2h-.2c-.7.1-1.3.4-1.6.9l-.1.1H91.3c-.6 0-1.2.3-1.7.7l-.1.1H88.9c-.5 0-1 .2-1.5.5l-.1.1-.2-.1c-.2-.1-.4-.1-.7-.1-.4 0-.8.1-1.2.3l-.2.1-.2-.1c-.3-.1-.6-.2-.9-.2-.3 0-.6.1-.9.2v.3l-.2-.1c-.4-.2-.8-.3-1.2-.3-.2 0-.5 0-.7.1l-.2.1-.1-.1c-.4-.3-.9-.5-1.5-.5H78.5l-.1-.1c-.4-.5-1-.7-1.7-.7H76.4l-.1-.1c-.4-.5-1-.9-1.6-.9h-.2l-.1-.2c-.3-.6-.9-1-1.5-1.2h-.2l-.1-.2c-.2-.6-.7-1.1-1.3-1.3l-.2-.1v-.2c-.1-.6-.6-1.2-1.2-1.5v-.4c-.1-.7-.4-1.3-.9-1.6l-.2-.2v-.2c0-.7-.2-1.3-.7-1.8H68v-.2c.1-.7-.1-1.3-.5-1.8l-.1-.1.1-.2c.2-.6.1-1.3-.2-1.9l-.1-.2.1-.2c.3-.6.3-1.3 0-1.9l-.1-.2.1-.2c.4-.6.4-1.2.2-1.9l-.1-.2.1-.1c.4-.5.6-1.2.5-1.8v-.2l.1-.1c.5-.5.8-1.1.7-1.8v-.2l.1-.1c.5-.4.9-1 .9-1.6v-.2l.2-.1c.6-.3 1-.9 1.2-1.5v-.2l.2-.1c.6-.2 1.1-.7 1.3-1.3l.1-.2h.2c.6-.1 1.2-.6 1.5-1.2l.1-.2h.2c.7-.1 1.3-.4 1.6-.9l.1-.1H76.8c.6 0 1.2-.3 1.7-.7l.1-.1H79.2c.5 0 1-.2 1.5-.5l.1-.1.2.1c.2.1.4.1.7.1.4 0 .8-.1 1.2-.3l.1-.1.2.1c.3.1.6.2.9.2.3 0 .6-.1.9-.2l.2-.1m.1-2h-.2l-.8.4h-.4l-.8-.4h-.2c-.1 0-.2 0-.2.1l-.8.5c-.1 0-.2.1-.2.1h-.1l-.9-.3h-.1c-.1 0-.2 0-.3.1l-.7.6c-.1.1-.2.1-.3.1h-.1l-.9-.2h-.1c-.1 0-.2.1-.3.1l-.6.7c-.1.1-.2.1-.3.1h-.9c-.1 0-.3.1-.4.2l-.7.7c-.1.1-.2.2-.3.2l-.9.1c-.2 0-.3.1-.4.2l-.4.8c-.1.1-.2.2-.3.2l-.9.2c-.1 0-.3.1-.3.3l-.3.9c0 .1-.1.2-.3.3l-.9.3c-.1.1-.3.2-.3.3l-.2.9c0 .1-.1.2-.2.3l-.8.4c-.1.1-.2.2-.2.4l-.2.9c0 .1-.1.3-.2.3l-.8.5c-.1.2-.1.3-.1.5v.9c0 .1 0 .3-.1.4l-.7.6c-.1.1-.2.3-.1.4l.2.9c0 .1 0 .3-.1.4l-.6.7c-.1.1-.1.3-.1.4l.3.9v.4l-.6.7c-.1.1-.1.3 0 .4l.4.8c.1.1.1.3 0 .4l-.4.8c-.1.1-.1.3 0 .4l.5.8c.1.1.1.2 0 .4l-.3 1c0 .1 0 .3.1.4l.6.7c.1.1.1.2.1.4l-.2.9c0 .2 0 .3.1.4l.7.6c.1.1.2.2.1.4v.9c0 .2.1.3.2.4l.8.5c.1.1.2.2.2.3l.1.9c0 .2.1.3.2.4l.8.4c.1.1.2.2.2.3l.2.9c0 .1.1.3.3.3l.9.3c.1 0 .2.1.3.3l.3.9c.1.1.2.3.3.3l.9.2c.1 0 .2.1.3.2l.4.8c.1.1.2.2.4.2l.9.1c.1 0 .3.1.3.2l.5.8c.1.1.2.2.4.2h.9c.1 0 .2.1.3.1l.6.7c.1.1.2.1.3.1h.1l.9-.2h.1c.1 0 .2 0 .3.1l.7.6c.1.1.2.1.3.1h.1l.9-.3h.1c.1 0 .2 0 .2.1l.8.5c.1 0 .2.1.2.1h.2l.8-.4h.4l.8.4h.2c.1 0 .2 0 .2-.1l.8-.5c.1 0 .2-.1.2-.1h.1l.9.3h.1c.1 0 .2 0 .3-.1l.7-.6c.1-.1.2-.1.3-.1h.1l.9.2h.1c.1 0 .2-.1.3-.1l.6-.7c.1-.1.2-.1.3-.1h.9c.1 0 .3-.1.4-.2l.5-.8c.1-.1.2-.2.3-.2l.9-.1c.2 0 .3-.1.4-.2l.4-.8c.1-.1.2-.2.3-.2l.9-.2c.1 0 .3-.1.3-.3l.3-.9c0-.1.1-.2.3-.3l.9-.3c.1-.1.3-.2.3-.3l.2-.9c0-.1.1-.2.2-.3l.8-.4c.1-.1.2-.2.2-.4l.1-.9c0-.1.1-.3.2-.3l.8-.5c.1-.1.2-.2.2-.4v-.9c0-.1 0-.3.1-.4l.7-.6c.1-.1.2-.3.1-.4l-.2-.9c0-.1 0-.3.1-.4l.6-.7c.1-.1.1-.3.1-.4l-.3-.9v-.4l1.1-.7c.1-.1.1-.3 0-.4l-.4-.8c-.1-.1-.1-.3 0-.4l.4-.8c.1-.1.1-.3 0-.4l-.5-.8c-.1-.1-.1-.2 0-.4l.3-.9c0-.1 0-.3-.1-.4l-.6-.7c-.1-.1-.1-.2-.1-.4l.2-.9c0-.2 0-.3-.1-.4l-.7-.6c-.1-.1-.2-.2-.1-.4v-.9c0-.2-.1-.3-.2-.4l-.8-.5c-.1-.1-.2-.2-.2-.3l-.1-.9c0-.2-.1-.3-.2-.4l-.8-.6c-.1-.1-.2-.2-.2-.3l-.2-.9c0-.1-.1-.3-.3-.3l-.9-.3c-.1 0-.2-.1-.3-.3l-.3-.9c-.1-.1-.2-.3-.3-.3l-.9-.2c-.1 0-.2-.1-.3-.2l-.4-.8c-.1-.1-.2-.2-.4-.2l-.9-.1c-.1 0-.3-.1-.3-.2l-.5-.8c-.1-.1-.2-.2-.4-.2h-.9c-.1 0-.2-.1-.3-.1l-.6-.7c-.1-.1-.2-.1-.3-.1h-.1l-.9.2h-.1c-.1 0-.2 0-.3-.1l-.9-.6c-.1-.1-.2-.1-.3-.1h-.1l-.9.3h-.1c-.1 0-.2 0-.2-.1l-.8-.5h-.3z"
             id="NS55-5508-FAN-FILLERpath69"
             fill="#323232" /></g><g
           id="NS55-5508-FAN-FILLERg71"><circle
             class="NS55-5508-FAN-FILLERst6"
             cx="84.1"
             cy="24.5"
             r="17.7"
             id="NS55-5508-FAN-FILLERcircle73"
             fill="#d9d9d9" /></g><g
           id="NS55-5508-FAN-FILLERg75"><g
             id="NS55-5508-FAN-FILLERg77"><path
               class="NS55-5508-FAN-FILLERst6"
               d="M84.1 35.6c-6.1 0-11.1-5-11.1-11.1s5-11.1 11.1-11.1 11.1 5 11.1 11.1-5 11.1-11.1 11.1z"
               id="NS55-5508-FAN-FILLERpath79"
               fill="#d9d9d9" /><path
               class="NS55-5508-FAN-FILLERst8"
               d="M84.1 13.8c5.9 0 10.7 4.8 10.7 10.7 0 5.9-4.8 10.7-10.7 10.7-5.9 0-10.7-4.8-10.7-10.7 0-5.9 4.8-10.7 10.7-10.7m0-.8c-6.4 0-11.5 5.1-11.5 11.5S77.7 36 84.1 36s11.5-5.1 11.5-11.5S90.5 13 84.1 13z"
               id="NS55-5508-FAN-FILLERpath81"
               fill="#4d4d4d" /></g><g
             id="NS55-5508-FAN-FILLERg83"><g
               id="NS55-5508-FAN-FILLERg85"><path
                 class="NS55-5508-FAN-FILLERst6"
                 id="NS55-5508-FAN-FILLERpolygon87"
                 fill="#d9d9d9"
                 d="M85.5 23.1h5.9v2.8h-5.9v9.4h-2.8v-9.4h-5.9v-2.8h5.9v-9.4h2.8z" /><path
                 class="NS55-5508-FAN-FILLERst8"
                 d="M85.1 14.1v9.5H91v2H85.1v9.5h-2v-9.5H77.2v-2H83.1v-9.5h2m.8-.8h-3.5v9.4h-5.9v3.5h5.9v9.4h3.5v-9.4h5.9v-3.5h-5.9v-9.4z"
                 id="NS55-5508-FAN-FILLERpath89"
                 fill="#4d4d4d" /></g><g
               id="NS55-5508-FAN-FILLERg91"><g
                 id="NS55-5508-FAN-FILLERg93"><path
                   class="NS55-5508-FAN-FILLERst9"
                   id="NS55-5508-FAN-FILLERrect95"
                   fill="#666"
                   d="M82.6 16.2h3.1v15.3h-3.1z" /></g><g
                 id="NS55-5508-FAN-FILLERg97"><path
                   class="NS55-5508-FAN-FILLERst9"
                   id="NS55-5508-FAN-FILLERrect99"
                   fill="#666"
                   d="M75.8 22.9h16.5V26H75.8z" /></g></g></g></g></g><g
         id="NS55-5508-FAN-FILLERg101"><g
           id="NS55-5508-FAN-FILLERg103"><path
             class="NS55-5508-FAN-FILLERst6"
             d="M384.6 42.2c-.2-.1-.5-.2-.7-.2-.1 0-.3 0-.4.1l-.6.2-.5-.4c-.2-.2-.6-.3-.9-.3H381.2l-.7.1-.5-.5c-.3-.3-.6-.4-1-.4h-.7l-.4-.6c-.2-.3-.6-.5-1-.6l-.7-.1-.3-.6c-.2-.4-.5-.6-.9-.7l-.7-.1-.2-.6c-.1-.4-.4-.7-.8-.8l-.6-.2-.1-.7c-.1-.4-.3-.7-.7-.9l-.6-.3-.1-.7c0-.4-.2-.8-.6-1l-.6-.4v-.7c0-.4-.1-.8-.4-1.1l-.5-.5.1-.7c.1-.4 0-.8-.3-1.1l-.4-.5.2-.6c.1-.4.1-.8-.1-1.1l-.4-.6.3-.6c.2-.4.2-.8 0-1.1l-.3-.6.4-.6c.2-.3.3-.7.1-1.1l-.2-.6.4-.5c.3-.3.4-.7.3-1.1l-.1-.7.5-.5c.3-.3.5-.7.4-1.1v-.7l.6-.4c.3-.2.5-.6.6-1l.1-.7.6-.3c.4-.2.6-.5.7-.9l.1-.7.6-.2c.4-.1.7-.4.8-.8l.2-.6.7-.1c.4-.1.7-.3.9-.7l.3-.6.7-.1c.4 0 .8-.2 1-.6l.4-.5h.7c.4 0 .8-.2 1-.4l.5-.5.7.1h.2c.3 0 .6-.1.9-.3l.5-.4.6.2c.1 0 .3.1.4.1.3 0 .5-.1.7-.2l.6-.4.6.3c.2.1.4.1.6.1.2 0 .4 0 .6-.1l.6-.3.6.4c.2.1.5.2.7.2.1 0 .3 0 .4-.1l.6-.2.5.4c.2.2.6.3.9.3H391.5l.7-.1.5.5c.3.3.6.4 1 .4h.7l.4.6c.2.3.6.5 1 .6l.7.1.3.6c.2.4.5.6.9.7l.7.1.2.6c.1.4.4.7.8.8l.6.2.1.7c.1.4.3.7.7.9l.6.3.1.7c0 .4.2.8.6 1l.5.4v.7c0 .4.1.8.4 1l.5.5-.1.7c-.1.4 0 .8.3 1.1l.4.5-.2.6c-.1.4-.1.8.1 1.1l.4.6-.3.6c-.2.4-.2.8 0 1.1l.3.6-.4.6c-.2.3-.3.8-.1 1.1l.2.6-.4.5c-.3.3-.4.7-.3 1.1l.1.7-.5.5c-.3.3-.5.7-.4 1.1v.7l-.5.4c-.3.2-.5.6-.6 1l-.1.7-.6.3c-.4.2-.6.5-.7.9l-.1.7-.6.2c-.4.1-.7.4-.8.8l-.2.6-.7.1c-.4.1-.7.3-.9.7l-.3.6-.7.1c-.4 0-.8.2-1 .6l-.4.5h-.7c-.4 0-.8.2-1 .4l-.5.5-.7-.1h-.2c-.3 0-.6.1-.9.3l-.5.4-.6-.2c-.1 0-.3-.1-.4-.1-.3 0-.5.1-.7.2l-.6.4-.6-.3c-.2-.1-.4-.1-.6-.1-.2 0-.4 0-.6.1l-.6.3-.6-.3z"
             id="NS55-5508-FAN-FILLERpath105"
             fill="#d9d9d9" /><path
             class="NS55-5508-FAN-FILLERst7"
             d="M387.5 7.5l.2.1c.4.2.8.3 1.2.3.2 0 .5 0 .7-.1l.2-.1.1.1c.4.3.9.5 1.5.5H392l.1.1c.4.5 1 .7 1.7.7H394.1l.1.1c.4.5 1 .9 1.6.9h.2l.1.2c.3.6.9 1 1.5 1.2h.2l.1.2c.2.6.7 1.1 1.3 1.3l.2.1v.2c.1.6.6 1.2 1.2 1.5l.2.1v.2c.1.7.4 1.3.9 1.6l.1.1v.2c0 .7.2 1.3.7 1.8l.1.1v.2c-.1.7.1 1.3.5 1.8l.1.1-.1.2c-.2.6-.1 1.3.2 1.9l.1.2-.1.2c-.3.6-.3 1.3 0 1.9l.1.2-.1.2c-.4.6-.4 1.2-.2 1.9l.1.2-.2.1c-.4.5-.6 1.2-.5 1.8v.2l-.1.1c-.5.5-.8 1.1-.7 1.8v.2l-.1.1c-.5.4-.9 1-.9 1.6v.2l-.2.1c-.6.3-1 .9-1.2 1.5v.2l-.2.1c-.6.2-1.1.7-1.3 1.3l-.1.2h-.2c-.6.1-1.2.6-1.5 1.2l-.1.2h-.2c-.7.1-1.3.4-1.6.9l-.1.1H393.7c-.6 0-1.2.3-1.7.7l-.1.1H391.3c-.5 0-1 .2-1.5.5l-.1.1-.2-.1c-.2-.1-.4-.1-.7-.1-.4 0-.8.1-1.2.3l-.2.1-.2-.1c-.3-.1-.6-.2-.9-.2-.3 0-.7.1-.9.2l-.2.1-.2-.1c-.4-.2-.8-.3-1.2-.3-.2 0-.5 0-.7.1l-.2.1-.1-.1c-.4-.3-.9-.5-1.4-.5H380.8l-.1-.1c-.4-.5-1-.7-1.7-.7H378.7l-.1-.1c-.4-.5-1-.9-1.6-.9h-.2l-.1-.2c-.3-.6-.9-1-1.5-1.2h-.2l-.1-.2c-.2-.6-.7-1.1-1.3-1.3l-.2-.1v-.2c-.1-.6-.6-1.2-1.2-1.5l-.2-.1v-.2c-.1-.7-.4-1.3-.9-1.6l-.1-.1v-.2c0-.7-.2-1.3-.7-1.8l-.1-.1v-.2c.1-.7-.1-1.3-.5-1.8l-.1-.1.1-.2c.2-.6.1-1.3-.2-1.9l-.1-.2.1-.2c.3-.6.3-1.3 0-1.9l-.1-.2.1-.2c.4-.6.4-1.2.2-1.9l-.1-.2.1-.1c.4-.5.6-1.2.5-1.8v-.2l.1-.1c.5-.5.8-1.1.7-1.8v-.2l.1-.1c.5-.4.9-1 .9-1.6v-.2l.2-.1c.6-.3 1-.9 1.2-1.5v-.2l.2-.1c.6-.2 1.1-.7 1.3-1.3l.1-.2h.2c.6-.1 1.2-.6 1.5-1.2l.1-.2h.2c.7-.1 1.3-.4 1.6-.9l.1-.1H379c.6 0 1.2-.3 1.7-.7l.1-.1H381.4c.5 0 1-.2 1.5-.5l.1-.1.2.1c.2.1.4.1.7.1.4 0 .8-.1 1.2-.3l.2-.1.2.1c.3.1.6.2.9.2.3 0 .7-.1.9-.2l.2-.1m.1-2h-.2l-.8.4h-.4l-.8-.4h-.2c-.1 0-.2 0-.2.1l-.8.5c-.1 0-.2.1-.2.1h-.1l-.9-.3h-.1c-.1 0-.2 0-.3.1l-.7.6c-.1.1-.2.1-.3.1h-.1l-.9-.2h-.1c-.1 0-.2.1-.3.1l-.6.7c-.1.1-.2.1-.3.1h-.9c-.1 0-.3.1-.4.2l-.5.8c-.1.1-.2.2-.3.2H376c-.2 0-.3.1-.4.2l-.4.8c-.1.1-.2.2-.3.2l-.9.2c-.1 0-.3.1-.3.3l-.3.9c0 .1-.1.2-.3.3l-.9.3c-.1.1-.3.2-.3.3l-.2.9c0 .1-.1.2-.2.3l-.8.4c-.1.1-.2.2-.2.4l-.1.9c0 .1-.1.3-.2.3l-.8.5c-.1.1-.2.2-.2.4v.9c0 .1 0 .3-.1.4l-.7.6c-.1.1-.2.3-.1.4l.2.9c0 .1 0 .3-.1.4l-.6.7c-.1.1-.1.3-.1.4l.3.9v.4l-.5.8c-.1.1-.1.3 0 .4l.4.8c.1.1.1.3 0 .4l-.4.8c-.1.1-.1.3 0 .4l.5.8c.1.1.1.2 0 .4l-.3.9c0 .1 0 .3.1.4l.6.7c.1.1.1.2.1.4l-.2.9c0 .2 0 .3.1.4l.7.6c.1.1.2.2.1.4v.9c0 .2.1.3.2.4l.8.5c.1.1.2.2.2.3l.1.9c0 .2.1.3.2.4l.8.4c.1.1.2.2.2.3l.2.9c0 .1.1.3.3.3l.9.3c.1 0 .2.1.3.3l.3.9c.1.1.2.3.3.3l.9.2c.1 0 .2.1.3.2l.4.8c.1.1.2.2.4.2l.9.1c.1 0 .3.1.3.2l.5.8c.1.1.2.2.4.2h.9c.1 0 .2.1.3.1l.6.7c.1.1.2.1.3.1h.1l.9-.2h.1c.1 0 .2 0 .3.1l.7.6c.1.1.2.1.3.1h.1l.9-.3h.1c.1 0 .2 0 .2.1l.8.5c.1 0 .2.1.2.1h.2l.8-.4h.4l.8.4h.2c.1 0 .2 0 .2-.1l.8-.5c.1 0 .2-.1.2-.1h.1l.9.3h.1c.1 0 .2 0 .3-.1l.7-.6c.1-.1.2-.1.3-.1h.1l.9.2h.1c.1 0 .2-.1.3-.1l.6-.7c.1-.1.2-.1.3-.1h.9c.1 0 .3-.1.4-.2l.5-.8c.1-.1.2-.2.3-.2l.9-.1c.2 0 .3-.1.4-.2l.4-.8c.1-.1.2-.2.3-.2l.9-.2c.1 0 .3-.1.3-.3l.3-.9c0-.1.1-.2.3-.3l.9-.3c.1-.1.3-.2.3-.3l.7-.7c0-.1.1-.2.2-.3l.8-.4c.1-.1.2-.2.2-.4l.1-.9c0-.1.1-.3.2-.3l.8-.5c.1-.1.2-.2.2-.4v-.9c0-.1 0-.3.1-.4l.7-.6c.1-.1.2-.3.1-.4l-.2-.9c0-.1 0-.3.1-.4l.6-.7c.1-.1.1-.3.1-.4l-.3-.9v-.4l.5-.8c.1-.1.1-.3 0-.4l-.4-.8c-.1-.1-.1-.3 0-.4l.4-.8c.1-.1.1-.3 0-.4l-.5-.8c-.1-.1-.1-.2 0-.4l.3-1c0-.1 0-.3-.1-.4l-.6-.7c-.1-.1-.1-.2-.1-.4l.2-.9c0-.2 0-.3-.1-.4l-.7-.6c-.1-.1-.2-.2-.1-.4v-.9c0-.2-.1-.3-.2-.4l-.8-.5c-.1-.1-.2-.2-.2-.3l-.1-.9c0-.2-.1-.3-.2-.4l-.8-.4c-.1-.1-.2-.2-.2-.3l-.2-.9c0-.1-.1-.3-.3-.3l-.9-.3c-.1 0-.2-.1-.3-.3l-.3-.9c-.1-.1-.2-.3-.3-.3l-.9-.2c-.1 0-.2-.1-.3-.2l-.4-.8c-.1-.1-.2-.2-.4-.2l-.9-.1c-.1 0-.3-.1-.3-.2l-.5-.8c-.1-.1-.2-.2-.4-.2h-.9c-.1 0-.2-.1-.3-.1l-.6-.7c-.1-.1-.2-.1-.3-.1h-.1l-.9.2h-.1c-.1 0-.2 0-.3-.1l-.7-.6c-.1-.1-.2-.1-.3-.1h-.1l-1 .2h-.1c-.1 0-.2 0-.2-.1l-.8-.5h-.3z"
             id="NS55-5508-FAN-FILLERpath107"
             fill="#323232" /></g><g
           id="NS55-5508-FAN-FILLERg109"><circle
             class="NS55-5508-FAN-FILLERst6"
             cx="386.4"
             cy="24.5"
             r="17.7"
             id="NS55-5508-FAN-FILLERcircle111"
             fill="#d9d9d9" /></g><g
           id="NS55-5508-FAN-FILLERg113"><g
             id="NS55-5508-FAN-FILLERg115"><path
               class="NS55-5508-FAN-FILLERst6"
               d="M386.4 35.6c-6.1 0-11.1-5-11.1-11.1s5-11.1 11.1-11.1 11.1 5 11.1 11.1-5 11.1-11.1 11.1z"
               id="NS55-5508-FAN-FILLERpath117"
               fill="#d9d9d9" /><path
               class="NS55-5508-FAN-FILLERst8"
               d="M386.4 13.8c5.9 0 10.7 4.8 10.7 10.7 0 5.9-4.8 10.7-10.7 10.7-5.9 0-10.7-4.8-10.7-10.7 0-5.9 4.7-10.7 10.7-10.7m0-.8c-6.4 0-11.5 5.1-11.5 11.5S380 36 386.4 36s11.5-5.1 11.5-11.5S392.7 13 386.4 13z"
               id="NS55-5508-FAN-FILLERpath119"
               fill="#4d4d4d" /></g><g
             id="NS55-5508-FAN-FILLERg121"><g
               id="NS55-5508-FAN-FILLERg123"><path
                 class="NS55-5508-FAN-FILLERst6"
                 id="NS55-5508-FAN-FILLERpolygon125"
                 fill="#d9d9d9"
                 d="M387.8 23.1h5.8v2.8h-5.8v9.4H385v-9.4h-5.9v-2.8h5.9v-9.4h2.8z" /><path
                 class="NS55-5508-FAN-FILLERst8"
                 d="M387.4 14.1v9.5H393.3v2H387.4v9.5h-2v-9.5H379.5v-2H385.4v-9.5h2m.7-.8h-3.5v9.4h-5.9v3.5h5.9v9.4h3.5v-9.4h5.9v-3.5h-5.9v-9.4z"
                 id="NS55-5508-FAN-FILLERpath127"
                 fill="#4d4d4d" /></g><g
               id="NS55-5508-FAN-FILLERg129"><g
                 id="NS55-5508-FAN-FILLERg131"><path
                   class="NS55-5508-FAN-FILLERst9"
                   id="NS55-5508-FAN-FILLERrect133"
                   fill="#666"
                   d="M384.9 16.2h3.1v15.3h-3.1z" /></g><g
                 id="NS55-5508-FAN-FILLERg135"><path
                   class="NS55-5508-FAN-FILLERst9"
                   id="NS55-5508-FAN-FILLERrect137"
                   fill="#666"
                   d="M378.1 22.9h16.5V26h-16.5z" /></g></g></g></g></g></g><g
       id="NS55-5508-FAN-FILLERg139"><g
         id="NS55-5508-FAN-FILLERg141"><path
           class="NS55-5508-FAN-FILLERst4"
           id="NS55-5508-FAN-FILLERrect143"
           fill="#ccc"
           d="M470.5 1644.7h5v25h-5z" /><path
           class="NS55-5508-FAN-FILLERst5"
           d="M475 1645.2v24h-4v-24h4m1-1h-6v26h6v-26z"
           id="NS55-5508-FAN-FILLERpath145"
           fill="gray" /></g><g
         id="NS55-5508-FAN-FILLERg147"><path
           class="NS55-5508-FAN-FILLERst4"
           id="NS55-5508-FAN-FILLERrect149"
           fill="#ccc"
           d="M.5 1644.7h5v25h-5z" /><path
           class="NS55-5508-FAN-FILLERst5"
           d="M5 1645.2v24H1v-24h4m1-1H0v26h6v-26z"
           id="NS55-5508-FAN-FILLERpath151"
           fill="gray" /></g><path
         class="NS55-5508-FAN-FILLERst0"
         d="M6.3 1736h464.1c3.2 0 5.5-2.4 5.5-6.3V1664c0-4-2.4-6.3-5.5-6.3h-11.9c-1.6 0-3.2-1.6-3.2-3.2v-3.2H15v.8c0 3.2-2.4 5.5-5.5 5.5H6.3c-3.2 0-6.3 2.4-6.3 6.3v65.7c0 4 3.2 6.4 6.3 6.4z"
         id="NS55-5508-FAN-FILLERpath153"
         clip-rule="evenodd"
         fill="#bfbfbf"
         fill-rule="evenodd" /><g
         id="NS55-5508-FAN-FILLERg155"><path
           class="NS55-5508-FAN-FILLERst5"
           d="M454.4 1652.3v2.2c0 2.1 2 4.2 4.2 4.2h11.9c2.8 0 4.5 2.1 4.5 5.3v65.7c0 3.2-1.8 5.3-4.5 5.3H6.3c-2.6 0-5.3-1.9-5.3-5.3V1664c0-3.5 2.7-5.3 5.3-5.3h3.2c3.5 0 6-3.1 6.5-6.3h438.4m1-1.1H15c0 3.2-2.4 6.3-5.5 6.3H6.3c-3.2 0-6.3 2.4-6.3 6.3v65.7c0 4 3.2 6.3 6.3 6.3h464.1c3.2 0 5.5-2.4 5.5-6.3v-65.7c0-4-2.4-6.3-5.5-6.3h-11.9c-1.6 0-3.2-1.6-3.2-3.2v-3.1h.1z"
           id="NS55-5508-FAN-FILLERpath157"
           fill="gray" /></g><g
         id="NS55-5508-FAN-FILLERg159"><g
           id="NS55-5508-FAN-FILLERg161"><path
             class="NS55-5508-FAN-FILLERst6"
             d="M84.7 1729.3c-.2-.1-.4-.1-.6-.1-.2 0-.4 0-.6.1l-.6.3-.6-.4c-.2-.1-.5-.2-.7-.2-.1 0-.3 0-.4.1l-.6.2-.5-.4c-.2-.2-.6-.3-.9-.3H78.9l-.7.1-.5-.5c-.3-.3-.6-.4-1-.4H76l-.4-.6c-.2-.3-.6-.5-1-.6l-.7-.1-.3-.6c-.2-.4-.5-.6-.9-.7l-.7-.1-.2-.6c-.1-.4-.4-.7-.8-.8l-.6-.2-.1-.7c-.1-.4-.3-.7-.7-.9l-.6-.3-.1-.7c0-.4-.2-.8-.6-1l-.6-.4v-.7c0-.4-.1-.8-.4-1.1l-.5-.5.1-.7c.1-.4 0-.8-.3-1.1l-.4-.5.2-.6c.1-.4.1-.8-.1-1.1l-.4-.6.3-.6c.2-.4.2-.8 0-1.1l-.3-.6.4-.6c.2-.3.3-.7.1-1.1l-.2-.6.4-.5c.3-.3.4-.7.3-1.1l-.1-.7.5-.5c.3-.3.5-.7.4-1.1v-.7l.6-.4c.3-.2.5-.6.6-1l.1-.7.6-.3c.4-.2.6-.5.7-.9l.1-.7.6-.2c.4-.1.7-.4.8-.8l.2-.6.7-.1c.4-.1.7-.3.9-.7l.3-.6.7-.1c.4 0 .8-.2 1-.6l.4-.6h.7c.4 0 .8-.2 1-.4l.5-.5.7.1h.2c.3 0 .6-.1.9-.3l.5-.4.6.2c.1 0 .3.1.4.1.3 0 .5-.1.7-.2l.6-.4.6.3c.2.1.4.1.6.1.2 0 .4 0 .6-.1l.6-.3.6.4c.2.1.5.2.7.2.1 0 .3 0 .4-.1l.6-.2.5.4c.2.2.6.3.9.3H89.2l.7-.1.5.5c.3.3.6.4 1 .4h.7l.4.6c.2.3.6.5 1 .6l.7.1.3.6c.2.4.5.6.9.7l.7.1.2.6c.1.4.4.7.8.8l.6.2.1.7c.1.4.3.7.7.9l.6.3.1.7c0 .4.2.8.6 1l.6.4v.7c0 .4.1.8.4 1.1l.5.5-.1.7c-.1.4 0 .8.3 1.1l.4.5-.2.6c-.1.4-.1.8.2 1.1l.4.6-.3.6c-.2.4-.2.8 0 1.1l.3.6-.4.6c-.2.3-.3.8-.1 1.1l.2.6-.4.5c-.3.3-.4.7-.3 1.1l.1.7-.5.5c-.3.3-.5.7-.4 1.1v.7l-.6.4c-.3.2-.5.6-.6 1l-.1.7-.6.3c-.4.2-.6.5-.7.9l-.1.7-.6.2c-.4.1-.7.4-.8.8l-.2.6-.7.2c-.4.1-.7.3-.9.7l-.3.6-.7.1c-.4 0-.8.2-1 .6l-.4.6h-.7c-.4 0-.8.2-1.1.4l-.5.5-.7-.1H89c-.3 0-.6.1-.9.3l-.5.4-.6-.4c-.1 0-.3-.1-.4-.1-.3 0-.5.1-.7.2l-.6.4-.6-.2z"
             id="NS55-5508-FAN-FILLERpath163"
             fill="#d9d9d9" /><path
             class="NS55-5508-FAN-FILLERst7"
             d="M83 1694.5l.2.1c.3.1.6.2.9.2.3 0 .6-.1.9-.2l.2-.1.2.1c.4.2.8.3 1.2.3.2 0 .5 0 .7-.1l.2-.1.1.1c.4.3.9.5 1.4.5H89.6l.1.1c.4.5 1 .7 1.7.7H91.7l.1.1c.4.5 1 .9 1.6.9h.2l.1.2c.3.6.9 1 1.5 1.2h.2l.1.2c.2.6.7 1.1 1.3 1.3l.2.1v.2c.1.6.6 1.2 1.2 1.5l.2.1v.2c.1.7.4 1.3.9 1.6l.1.1v.2c0 .7.2 1.3.7 1.8l.1.1v.2c-.1.7.1 1.3.5 1.8l.1.1-.1.2c-.2.6-.1 1.3.2 1.9l.1.2-.1.2c-.3.6-.3 1.3 0 1.9l.1.2-.1.2c-.4.6-.4 1.2-.2 1.9l.1.2-.1.1c-.4.5-.6 1.2-.5 1.8v.2l-.1.1c-.5.5-.8 1.1-.7 1.8v.2l-.1.1c-.5.4-.9 1-.9 1.6v.2l-.2.1c-.6.3-1 .9-1.2 1.5v.2l-.2.1c-.6.2-1.1.7-1.3 1.3l-.1.2h-.2c-.6.1-1.2.6-1.5 1.2l-.1.2h-.2c-.7.1-1.3.4-1.6.9l-.1.1H91.4c-.6 0-1.2.3-1.7.7l-.1.1H89c-.5 0-1 .2-1.5.5l-.1.1-.2-.1c-.2-.1-.4-.1-.7-.1-.4 0-.8.1-1.2.3l-.2.1-.2-.1c-.3-.1-.6-.2-.9-.2-.3 0-.6.1-.9.2l-.2.1-.2-.1c-.4-.2-.8-.3-1.2-.3-.2 0-.5 0-.7.1l-.2.1-.1-.1c-.4-.3-.9-.5-1.5-.5H78.4l-.1-.1c-.4-.5-1-.7-1.7-.7H76.3l-.1-.1c-.4-.5-1-.9-1.6-.9h-.2l-.1-.2c-.3-.6-.9-1-1.5-1.2h-.2l-.1-.2c-.2-.6-.7-1.1-1.3-1.3l-.2-.1v-.2c-.1-.6-.6-1.2-1.2-1.5l-.2-.1v-.2c-.1-.7-.4-1.3-.9-1.6l-.1-.1v-.2c0-.7-.2-1.3-.7-1.8l.1-.1v-.2c.1-.7-.1-1.3-.5-1.8l-.1-.1.1-.2c.2-.6.1-1.3-.2-1.9l-.1-.2.1-.2c.3-.6.3-1.3 0-1.9l-.1-.2.1-.2c.4-.6.4-1.2.2-1.9l-.1-.2.1-.1c.4-.5.6-1.2.5-1.8v-.2l.1-.1c.5-.5.8-1.1.7-1.8v-.2l.1-.1c.5-.4.9-1 .9-1.6v-.2l.2-.1c.6-.3 1-.9 1.2-1.5v-.2l.2-.1c.6-.2 1.1-.7 1.3-1.3l.1-.2h.2c.6-.1 1.2-.6 1.5-1.2l.1-.2h.2c.7-.1 1.3-.4 1.6-.9l.1-.1H76.8c.6 0 1.2-.3 1.7-.7l.1-.1H79.2c.5 0 1-.2 1.5-.5l.1-.1.2.1c.2.1.4.1.7.1.4 0 .8-.1 1.2-.3l.1-.1m2.3-2h-.2l-.8.4h-.4l-.8-.4h-.2c-.1 0-.2 0-.2.1l-.8.5c-.1 0-.2.1-.2.1h-.1l-.9-.3h-.1c-.1 0-.2 0-.3.1l-.7.6c-.1.1-.2.1-.3.1h-.1l-.9-.2h-.1c-.1 0-.2.1-.3.1l-.6.7c-.1.1-.2.1-.3.1h-.9c-.1 0-.3.1-.4.2l-.5.8c-.1.1-.2.2-.3.2l-.9.1c-.2 0-.3.1-.4.2l-.4.8c-.1.1-.2.2-.3.2l-.9.2c-.1 0-.3.1-.3.3l-.3.9c0 .1-.1.2-.3.3l-.9.3c-.1.1-.3.2-.3.3l-.2.9c0 .1-.1.2-.2.3l-.8.4c-.1.1-.2.2-.2.4l-.1.9c0 .1-.1.3-.2.3l-.8.5c-.1.1-.2.2-.2.4v.9c0 .1 0 .3-.1.4l-.7.6c-.1.1-.2.3-.1.4l.2.9c0 .1 0 .3-.1.4l-.6.7c-.1.1-.1.3-.1.4l.3.9v.4l-.5.8c-.1.1-.1.3 0 .4l.4.8c.1.1.1.3 0 .4l-.4.8c-.1.1-.1.3 0 .4l.5.8c.1.1.1.2 0 .4l-.3.9c0 .1 0 .3.1.4l.6.7c.1.1.1.2.1.4l-.2.9c0 .2 0 .3.1.4l.7.6c.1.1.2.2.1.4v.9c0 .2.1.3.2.4l.8.5c.1.1.2.2.2.3l.1.9c0 .2.1.3.2.4l.8.4c.1.1.2.2.2.3l.2.9c0 .1.1.3.3.3l.9.3c.1 0 .2.1.3.3l.3.9c.1.1.2.3.3.3l.9.2c.1 0 .2.1.3.2l.4.8c.1.1.2.2.4.2l.9.1c.1 0 .3.1.3.2l.5.8c.1.1.2.2.4.2h.9c.1 0 .2.1.3.1l.6.7c.1.1.2.1.3.1h.1l.9-.2h.1c.1 0 .2 0 .3.1l.7.6c.1.1.2.1.3.1h.1l.9-.3h.1c.1 0 .2 0 .2.1l.8.5c.1 0 .2.1.2.1h.2l.8-.4h.4l.8.4h.2c.1 0 .2 0 .2-.1l.8-.5c.1 0 .2-.1.2-.1h.1l.9.3h.1c.1 0 .2 0 .3-.1l.7-.6c.1-.1.2-.1.3-.1h.1l.9.2h.1c.1 0 .2-.1.3-.1l.6-.7c.1-.1.2-.1.3-.1h.9c.1 0 .3-.1.4-.2l.5-.8c.1-.1.2-.2.3-.2l.9-.1c.2 0 .3-.1.4-.2l.4-.8c.1-.1.2-.2.3-.2l.9-.2c.1 0 .3-.1.3-.3l.3-.9c0-.1.1-.2.3-.3l.9-.3c.1-.1.3-.2.3-.3l.2-.9c0-.1.1-.2.2-.3l.8-.4c.1-.1.2-.2.2-.4l.1-.9c0-.1.1-.3.2-.3l.8-.5c.1-.1.2-.2.2-.4v-.9c0-.1 0-.3.1-.4l.7-.6c.1-.1.2-.3.1-.4l-.2-.9c0-.1 0-.3.1-.4l.6-.7c.1-.1.1-.3.1-.4l-.3-.9v-.4l.5-.8c.1-.1.1-.3 0-.4l-.4-.8c-.1-.1-.1-.3 0-.4l.4-.8c.1-.1.1-.3 0-.4l-.5-.8c-.1-.1-.1-.2 0-.4l.3-.9c0-.1 0-.3-.1-.4l-.6-.7c-.1-.1-.1-.2-.1-.4l.2-.9c0-.2 0-.3-.1-.4l-.7-.6c-.1-.1-.2-.2-.1-.4v-.9c0-.2-.1-.3-.2-.4l-.8-.5c-.1-.1-.2-.2-.2-.3l-.1-.9c0-.2-.1-.3-.2-.4l-.8-.4c-.1-.1-.2-.2-.2-.3l-.2-.9c0-.1-.1-.3-.3-.3l-.9-.3c-.1 0-.2-.1-.3-.3l-.3-.9c-.1-.1-.2-.3-.3-.3l-.9-.2c-.1 0-.2-.1-.3-.2l-.4-.8c-.1-.1-.2-.2-.4-.2l-.9-.1c-.1 0-.3-.1-.3-.2l-.5-.8c-.1-.1-.2-.2-.4-.2h-.9c-.1 0-.2-.1-.3-.1l-.6-.7c-.1-.1-.2-.1-.3-.1h-.1l-.9.2h-.1c-.1 0-.2 0-.3-.1l-.7-.6c-.1-.1-.2-.1-.3-.1h-.1l-.9.3h-.1c-.1 0-.2 0-.2-.1l-.8-.5c0-.1-.1-.1-.2-.1z"
             id="NS55-5508-FAN-FILLERpath165"
             fill="#323232" /></g><g
           id="NS55-5508-FAN-FILLERg167"><circle
             class="NS55-5508-FAN-FILLERst6"
             cx="84.1"
             cy="1711.5"
             r="17.7"
             id="NS55-5508-FAN-FILLERcircle169"
             fill="#d9d9d9" /></g><g
           id="NS55-5508-FAN-FILLERg171"><g
             id="NS55-5508-FAN-FILLERg173"><path
               class="NS55-5508-FAN-FILLERst6"
               d="M84.1 1722.6c-6.1 0-11.1-5-11.1-11.1s5-11.1 11.1-11.1 11.1 5 11.1 11.1-5 11.1-11.1 11.1z"
               id="NS55-5508-FAN-FILLERpath175"
               fill="#d9d9d9" /><path
               class="NS55-5508-FAN-FILLERst8"
               d="M84.1 1700.8c5.9 0 10.7 4.8 10.7 10.7 0 5.9-4.8 10.7-10.7 10.7-5.9 0-10.7-4.8-10.7-10.7 0-5.9 4.8-10.7 10.7-10.7m0-.8c-6.4 0-11.5 5.1-11.5 11.5s5.1 11.5 11.5 11.5 11.5-5.1 11.5-11.5c0-6.3-5.1-11.5-11.5-11.5z"
               id="NS55-5508-FAN-FILLERpath177"
               fill="#4d4d4d" /></g><g
             id="NS55-5508-FAN-FILLERg179"><g
               id="NS55-5508-FAN-FILLERg181"><path
                 class="NS55-5508-FAN-FILLERst6"
                 id="NS55-5508-FAN-FILLERpolygon183"
                 fill="#d9d9d9"
                 d="M85.5 1710.1h5.9v2.8h-5.9v9.4h-2.8v-9.4h-5.9v-2.8h5.9v-9.4h2.8z" /><path
                 class="NS55-5508-FAN-FILLERst8"
                 d="M85.1 1701.1v9.5H91v2H85.1v9.5h-2v-9.5H77.2v-2H83.1v-9.5h2m.8-.8h-3.5v9.4h-5.9v3.5h5.9v9.4h3.5v-9.4h5.9v-3.5h-5.9v-9.4z"
                 id="NS55-5508-FAN-FILLERpath185"
                 fill="#4d4d4d" /></g><g
               id="NS55-5508-FAN-FILLERg187"><g
                 id="NS55-5508-FAN-FILLERg189"><path
                   class="NS55-5508-FAN-FILLERst9"
                   id="NS55-5508-FAN-FILLERrect191"
                   fill="#666"
                   d="M82.6 1704.4h3.1v15.3h-3.1z" /></g><g
                 id="NS55-5508-FAN-FILLERg193"><path
                   class="NS55-5508-FAN-FILLERst9"
                   id="NS55-5508-FAN-FILLERrect195"
                   fill="#666"
                   d="M75.8 1710h16.5v3.1H75.8z" /></g></g></g></g></g><g
         id="NS55-5508-FAN-FILLERg197"><g
           id="NS55-5508-FAN-FILLERg199"><path
             class="NS55-5508-FAN-FILLERst6"
             d="M386.9 1729.3c-.2-.1-.4-.1-.6-.1-.2 0-.4 0-.6.1l-.6.3-.6-.4c-.2-.1-.5-.2-.7-.2-.1 0-.3 0-.4.1l-.6.2-.5-.4c-.2-.2-.6-.3-.9-.3H381.1l-.7.1-.5-.5c-.3-.3-.6-.4-1-.4h-.7l-.4-.6c-.2-.3-.6-.5-1-.6l-.7-.1-.3-.6c-.2-.3-.5-.6-.9-.7l-.7-.2-.2-.6c-.1-.4-.4-.7-.8-.8l-.6-.2-.1-.7c-.1-.4-.3-.7-.7-.9l-.6-.3-.1-.7c0-.4-.2-.8-.6-1l-.6-.4v-.7c0-.4-.1-.8-.4-1l-.5-.5.1-.7c.1-.4 0-.8-.3-1.1l-.4-.5.2-.6c.1-.4.1-.8-.1-1.1l-.4-.6.3-.6c.2-.4.2-.8 0-1.1l-.3-.6.4-.6c.2-.3.3-.7.1-1.1l-.2-.6.4-.5c.3-.3.4-.7.3-1.1l-.1-.7.5-.5c.3-.3.5-.7.4-1.1v-.7l.6-.4c.3-.2.5-.6.6-1l.1-.7.6-.3c.4-.2.6-.5.7-.9l.1-.7.6-.2c.4-.1.7-.4.8-.8l.2-.6.7-.1c.4-.1.7-.3.9-.7l.3-.6.7-.1c.4 0 .8-.2 1-.6l.4-.5h.7c.4 0 .8-.2 1-.4l.5-.5.7.1h.2c.3 0 .6-.1.9-.3l.5-.4.6.2c.1 0 .3.1.4.1.3 0 .5-.1.7-.2l.6-.4.6.3c.2.1.4.1.6.1.2 0 .4 0 .6-.1l.6-.3.6.4c.2.1.5.2.7.2.1 0 .3 0 .4-.1l.6-.2.5.4c.2.2.6.3.9.3H391.4l.7-.1.5.5c.3.3.6.4 1 .4h.7l.4.6c.2.3.6.5 1 .6l.7.1.3.6c.2.4.5.6.9.7l.7.1.2.6c.1.4.4.7.8.8l.6.2.1.7c.1.4.3.7.7.9l.6.3.1.7c0 .4.2.8.6 1l.6.4v.7c0 .4.1.8.4 1.1l.5.5-.1.7c-.1.4 0 .8.3 1.1l.4.5-.2.6c-.1.4-.1.8.1 1.1l.4.6-.3.6c-.2.4-.2.8 0 1.1l.3.6-.4.6c-.2.3-.3.8-.1 1.1l.2.6-.4.5c-.3.3-.4.7-.3 1.1l.1.7-.5.5c-.3.3-.5.7-.4 1v.7l-.5.4c-.3.2-.5.6-.6 1l-.1.7-.6.3c-.4.2-.6.5-.7.9l-.1.7-.6.2c-.4.1-.7.4-.8.8l-.2.6-.7.2c-.4.1-.7.3-.9.7l-.3.6-.7.1c-.4 0-.8.2-1 .6l-.4.5h-.7c-.4 0-.8.2-1 .4l-.5.5-.7-.1h-.2c-.3 0-.6.1-.9.3l-.5.4-.6-.2c-.1 0-.3-.1-.4-.1-.3 0-.5.1-.7.2l-.6.4-.7-.3z"
             id="NS55-5508-FAN-FILLERpath201"
             fill="#d9d9d9" /><path
             class="NS55-5508-FAN-FILLERst7"
             d="M387.5 1694.5l.2.1c.4.2.8.3 1.2.3.2 0 .5 0 .7-.1l.2-.1.1.1c.4.3.9.5 1.5.5H392l.1.1c.4.5 1 .7 1.7.7H394.1l.1.1c.4.5 1 .9 1.6.9h.2l.1.2c.3.6.9 1 1.5 1.2h.2l.1.2c.2.6.7 1.1 1.3 1.3l.2.1v.2c.1.6.6 1.2 1.2 1.5l.2.1v.2c.1.7.4 1.3.9 1.6l.1.1v.2c0 .7.2 1.3.7 1.8l.1.1v.2c-.1.7.1 1.3.5 1.8l.1.1-.1.2c-.2.6-.1 1.3.2 1.9l.1.2-.1.2c-.3.6-.3 1.3 0 1.9l.1.2-.1.2c-.4.6-.4 1.2-.2 1.9l.1.2-.1.1c-.4.5-.6 1.2-.5 1.8v.2l-.1.1c-.5.5-.8 1.1-.7 1.8v.2l-.1.1c-.5.4-.9 1-.9 1.6v.2l-.2.1c-.6.3-1 .9-1.2 1.5v.2l-.2.1c-.6.2-1.1.7-1.3 1.3l-.1.2h-.2c-.6.1-1.2.6-1.5 1.2l-.1.2h-.2c-.7.1-1.3.4-1.6.9l-.1.1H393.8c-.6 0-1.2.3-1.7.7l-.1.1H391.4c-.5 0-1 .2-1.5.5l-.1.1-.2-.1c-.2-.1-.4-.1-.7-.1-.4 0-.8.1-1.2.3l-.2.1-.2-.1c-.3-.1-.6-.2-.9-.2-.3 0-.6.1-.9.2l-.2.1-.2-.1c-.4-.2-.8-.3-1.2-.3-.2 0-.5 0-.7.1l-.2.1-.1-.1c-.4-.3-.9-.5-1.4-.5H380.9l-.1-.1c-.4-.5-1-.7-1.7-.7H378.8l-.1-.1c-.4-.5-1-.9-1.6-.9h-.2l-.1-.2c-.3-.6-.9-1-1.5-1.2h-.2l-.1-.2c-.2-.6-.7-1.1-1.3-1.3l-.2-.1v-.2c-.1-.6-.6-1.2-1.2-1.5l-.2-.1v-.2c-.1-.7-.4-1.3-.9-1.6l-.1-.1v-.2c0-.7-.2-1.3-.7-1.8l-.1-.1v-.2c.1-.7-.1-1.3-.5-1.8l-.1-.1.1-.2c.2-.6.1-1.3-.2-1.9l-.1-.2.1-.2c.3-.6.3-1.3 0-1.9l-.1-.2.1-.2c.4-.6.4-1.2.2-1.9l-.1-.2.1-.1c.4-.5.6-1.2.5-1.8v-.2l.1-.1c.5-.5.8-1.1.7-1.8v-.2l.1-.1c.5-.4.9-1 .9-1.6v-.2l.2-.1c.6-.3 1-.9 1.2-1.5v-.2l.2-.1c.6-.2 1.1-.7 1.3-1.3l.1-.2h.2c.6-.1 1.2-.6 1.5-1.2l.1-.2h.2c.7-.1 1.3-.4 1.6-.9l.1-.1H379.1c.6 0 1.2-.3 1.7-.7l.1-.1H381.5c.5 0 1-.2 1.5-.5l.1-.1.2.1c.2.1.4.1.7.1.4 0 .8-.1 1.2-.3l.2-.1.2.1c.3.1.6.2.9.2.3 0 .6-.1.9-.2l.1-.1m.1-2h-.2l-.8.4h-.4l-.8-.4h-.2c-.1 0-.2 0-.2.1l-.8.5c-.1 0-.2.1-.2.1h-.1l-.9-.3h-.1c-.1 0-.2 0-.3.1l-.7.6c-.1.1-.2.1-.3.1h-.1l-.9-.2h-.1c-.1 0-.2.1-.3.1l-.6.7c-.1.1-.2.1-.3.1h-.9c-.1 0-.3.1-.4.2l-.5.8c-.1.1-.2.2-.3.2l-.9.1c-.2 0-.3.1-.4.2l-.4.8c-.1.1-.2.2-.3.2l-.9.2c-.1 0-.3.1-.3.3l-.3.9c0 .1-.1.2-.3.3l-.9.3c-.1.1-.3.2-.3.3l-.2.9c0 .1-.1.2-.2.3l-.8.4c-.1.1-.2.2-.2.4l-.1.9c0 .1-.1.3-.2.3l-.8.5c-.1.1-.2.2-.2.4v.9c0 .1 0 .3-.1.4l-.7.6c-.1.1-.2.3-.1.4l.2.9c0 .1 0 .3-.1.4l-.6.7c-.1.1-.1.3-.1.4l.3.9v.4l-.5.8c-.1.1-.1.3 0 .4l.4.8c.1.1.1.3 0 .4l-.4.8c-.1.1-.1.3 0 .4l.5.8c.1.1.1.2 0 .4l-.3.9c0 .1 0 .3.1.4l.6.7c.1.1.1.2.1.4l-.2.9c0 .2 0 .3.1.4l.7.6c.1.1.2.2.1.4v.9c0 .2.1.3.2.4l.8.5c.1.1.2.2.2.3l.1.9c0 .2.1.3.2.4l.8.4c.1.1.2.2.2.3l.2.9c0 .1.1.3.3.3l.9.3c.1 0 .2.1.3.3l.3.9c.1.1.2.3.3.3l.9.2c.1 0 .2.1.3.2l.4.8c.1.1.2.2.4.2l.9.1c.1 0 .3.1.3.2l.5.8c.1.1.2.2.4.2h.9c.1 0 .2.1.3.1l.6.7c.1.1.2.1.3.1h.1l.9-.2h.1c.1 0 .2 0 .3.1l.7.6c.1.1.2.1.3.1h.1l.9-.3h.1c.1 0 .2 0 .2.1l.8.5c.1 0 .2.1.2.1h.2l.8-.4h.4l.8.4h.2c.1 0 .2 0 .2-.1l.8-.5c.1 0 .2-.1.2-.1h.1l.9.3h.1c.1 0 .2 0 .3-.1l.7-.6c.1-.1.2-.1.3-.1h.1l.9.2h.1c.1 0 .2-.1.3-.1l.6-.7c.1-.1.2-.1.3-.1h.9c.1 0 .3-.1.4-.2l.5-.8c.1-.1.2-.2.3-.2l.9-.1c.2 0 .3-.1.4-.2l.4-.8c.1-.1.2-.2.3-.2l.9-.2c.1 0 .3-.1.3-.3l.3-.9c0-.1.1-.2.3-.3l.9-.3c.1-.1.3-.2.3-.3l.2-.9c0-.1.1-.2.2-.3l.8-.4c.1-.1.2-.2.2-.4l.1-.9c0-.1.1-.3.2-.3l.8-.5c.1-.1.2-.2.2-.4v-.9c0-.1 0-.3.1-.4l.7-.6c.1-.1.2-.3.1-.4l-.2-.9c0-.1 0-.3.1-.4l.6-.7c.1-.1.1-.3.1-.4l-.3-.9v-.4l.5-.8c.1-.1.1-.3 0-.4l-.4-.8c-.1-.1-.1-.3 0-.4l.4-.8c.1-.1.1-.3 0-.4l-.5-.8c-.1-.1-.1-.2 0-.4l.3-.9c0-.1 0-.3-.1-.4l-.6-.7c-.1-.1-.1-.2-.1-.4l.2-.9c0-.2 0-.3-.1-.4l-.7-.6c-.1-.1-.2-.2-.1-.4v-.9c0-.2-.1-.3-.2-.4l-.8-.5c-.1-.1-.2-.2-.2-.3l-.1-.9c0-.2-.1-.3-.2-.4l-.8-.4c-.1-.1-.2-.2-.2-.3l-.2-.9c0-.1-.1-.3-.3-.3l-.9-.3c-.1 0-.2-.1-.3-.3l-.3-.9c-.1-.1-.2-.3-.3-.3l-.9-.2c-.1 0-.2-.1-.3-.2l-.4-.8c-.1-.1-.2-.2-.4-.2l-.9-.1c-.1 0-.3-.1-.3-.2l-.5-.8c-.1-.1-.2-.2-.4-.2h-.9c-.1 0-.2-.1-.3-.1l-.6-.7c-.1-.1-.2-.1-.3-.1h-.1l-.9.2h-.1c-.1 0-.2 0-.3-.1l-.7-.6c-.1-.1-.2-.1-.3-.1h-.1l-.9.3h-.1c-.1 0-.2 0-.2-.1l-.8-.5c0-.1-.1-.1-.2-.1z"
             id="NS55-5508-FAN-FILLERpath203"
             fill="#323232" /></g><g
           id="NS55-5508-FAN-FILLERg205"><circle
             class="NS55-5508-FAN-FILLERst6"
             cx="386.4"
             cy="1711.5"
             r="17.7"
             id="NS55-5508-FAN-FILLERcircle207"
             fill="#d9d9d9" /></g><g
           id="NS55-5508-FAN-FILLERg209"><g
             id="NS55-5508-FAN-FILLERg211"><path
               class="NS55-5508-FAN-FILLERst6"
               d="M386.4 1722.6c-6.1 0-11.1-5-11.1-11.1s5-11.1 11.1-11.1 11.1 5 11.1 11.1-5 11.1-11.1 11.1z"
               id="NS55-5508-FAN-FILLERpath213"
               fill="#d9d9d9" /><path
               class="NS55-5508-FAN-FILLERst8"
               d="M386.4 1700.8c5.9 0 10.7 4.8 10.7 10.7 0 5.9-4.8 10.7-10.7 10.7-5.9 0-10.7-4.8-10.7-10.7 0-5.9 4.7-10.7 10.7-10.7m0-.8c-6.4 0-11.5 5.1-11.5 11.5s5.1 11.5 11.5 11.5 11.5-5.1 11.5-11.5c0-6.3-5.2-11.5-11.5-11.5z"
               id="NS55-5508-FAN-FILLERpath215"
               fill="#4d4d4d" /></g><g
             id="NS55-5508-FAN-FILLERg217"><g
               id="NS55-5508-FAN-FILLERg219"><path
                 class="NS55-5508-FAN-FILLERst6"
                 id="NS55-5508-FAN-FILLERpolygon221"
                 fill="#d9d9d9"
                 d="M387.8 1710.1h5.8v2.8h-5.8v9.4H385v-9.4h-5.9v-2.8h5.9v-9.4h2.8z" /><path
                 class="NS55-5508-FAN-FILLERst8"
                 d="M387.4 1701.1v9.5H393.3v2H387.4v9.5h-2v-9.5H379.5v-2H385.4v-9.5h2m.7-.8h-3.5v9.4h-5.9v3.5h5.9v9.4h3.5v-9.4h5.9v-3.5h-5.9v-9.4z"
                 id="NS55-5508-FAN-FILLERpath223"
                 fill="#4d4d4d" /></g><g
               id="NS55-5508-FAN-FILLERg225"><g
                 id="NS55-5508-FAN-FILLERg227"><path
                   class="NS55-5508-FAN-FILLERst9"
                   id="NS55-5508-FAN-FILLERrect229"
                   fill="#666"
                   d="M384.9 1704.4h3.1v15.3h-3.1z" /></g><g
                 id="NS55-5508-FAN-FILLERg231"><path
                   class="NS55-5508-FAN-FILLERst9"
                   id="NS55-5508-FAN-FILLERrect233"
                   fill="#666"
                   d="M378.1 1710h16.5v3.1h-16.5z" /></g></g></g></g></g></g><g
       id="NS55-5508-FAN-FILLERg235"><path
         class="NS55-5508-FAN-FILLERst5"
         d="M457.6 86.9v5c0 .6.4 1 1 1H475v1552.7h-16.4c-.6 0-1 .4-1 1v5.3H16v-5.3c0-.6-.4-1-1-1H1V92.9h14c.6 0 1-.4 1-1v-5h441.6m1-1H15v6H0v1554.7h15v6.3h443.5v-6.3H476V91.9h-17.4v-6z"
         id="NS55-5508-FAN-FILLERpath237"
         fill="gray" /></g></g><text
     xml:space="preserve"
     style="font-style:normal;font-weight:normal;font-size:40px;line-height:1.25;font-family:sans-serif;fill:#000000;fill-opacity:1;stroke:none"
     x="519.80035"
     y="311.54703"
     id="text129"><tspan
       sodipodi:role="line"
       id="tspan127"
       x="519.80035"
       y="311.54703" /></text></svg>
