<?xml version="1.0" encoding="UTF-8" standalone="no"?>
<svg
   xmlns:dc="http://purl.org/dc/elements/1.1/"
   xmlns:cc="http://creativecommons.org/ns#"
   xmlns:rdf="http://www.w3.org/1999/02/22-rdf-syntax-ns#"
   xmlns:svg="http://www.w3.org/2000/svg"
   xmlns="http://www.w3.org/2000/svg"
   xmlns:sodipodi="http://sodipodi.sourceforge.net/DTD/sodipodi-0.dtd"
   xmlns:inkscape="http://www.inkscape.org/namespaces/inkscape"
   version="1.1"
   id="NC55-RP-FILLERLayer_1"
   x="0"
   y="0"
   viewBox="0 0 180 773"
   xml:space="preserve"
   width="180"
   height="773"
   sodipodi:docname="NC55-RP-FILLER.svg"
   inkscape:version="1.0.1 (3bc2e813f5, 2020-09-07)"><metadata
     id="metadata17"><rdf:RDF><cc:Work
         rdf:about=""><dc:format>image/svg+xml</dc:format><dc:type
           rdf:resource="http://purl.org/dc/dcmitype/StillImage" /></cc:Work></rdf:RDF></metadata><defs
     id="defs15" /><sodipodi:namedview
     pagecolor="#ffffff"
     bordercolor="#666666"
     borderopacity="1"
     objecttolerance="10"
     gridtolerance="10"
     guidetolerance="10"
     inkscape:pageopacity="0"
     inkscape:pageshadow="2"
     inkscape:window-width="1280"
     inkscape:window-height="658"
     id="namedview13"
     showgrid="false"
     inkscape:zoom="0.60543338"
     inkscape:cx="89.257"
     inkscape:cy="385.073"
     inkscape:window-x="-6"
     inkscape:window-y="-6"
     inkscape:window-maximized="1"
     inkscape:current-layer="NC55-RP-FILLERLayer_1" /><style
     type="text/css"
     id="NC55-RP-FILLERstyle3">.NC55-RP-FILLERst1{fill:gray}</style><g
     id="NC55-RP-FILLERg5"
     transform="rotate(90 90.342 88.915)"><g
       id="NC55-RP-FILLERg7"><path
         d="M52.2 179.5c-3 0-5.5-2.5-5.5-5.5V70.3H6c-3 0-5.5-2.5-5.5-5.5V15.9c0-3 2.5-5.5 5.5-5.5h40.7V4.1h10V.5H713v5h7.7c3 0 5.5 2.5 5.5 5.5v67.5H767c3 0 5.5 2.5 5.5 5.5v45.5c0 3-2.5 5.5-5.5 5.5h-12.9l-8.2 13.2h-43.6v31.3H52.2z"
         id="NC55-RP-FILLERpath9"
         fill="#eee" /><g
         id="NC55-RP-FILLERg11"><path
           class="NC55-RP-FILLERst1"
           d="M712.5 1v5h8.2c2.8 0 5 2.2 5 5v68H767c2.8 0 5 2.2 5 5v45.5c0 2.8-2.2 5-5 5h-13.2l-.3.5-7.9 12.7h-43.9V179H52.2c-2.8 0-5-2.2-5-5V69.8H6c-2.8 0-5-2.2-5-5V15.9c0-2.8 2.2-5 5-5h41.2V4.6h10V1h655.3m1-1H56.2v3.6h-10v6.3H6c-3.3 0-6 2.7-6 6v48.9c0 3.3 2.7 6 6 6h40.2V174c0 3.3 2.7 6 6 6h650.5v-31.3h43.4l8.2-13.2H767c3.3 0 6-2.7 6-6V84c0-3.3-2.7-6-6-6h-40.2V11c0-3.3-2.7-6-6-6h-7.2V0h-.1z"
           id="NC55-RP-FILLERpath13"
           fill="gray" /></g></g><g
       id="NC55-RP-FILLERg15"><path
         d="M72.7 159.5c-3 0-5.5-2.5-5.5-5.5V27.1c0-3 2.5-5.5 5.5-5.5h627.6c3 0 5.5 2.5 5.5 5.5v96.7c0 1.9-1.6 3.5-3.5 3.5h-16.5V154c0 3-2.5 5.5-5.5 5.5H72.7z"
         id="NC55-RP-FILLERpath17"
         fill="#bfbfbf" /><g
         id="NC55-RP-FILLERg19"><path
           class="NC55-RP-FILLERst1"
           d="M700.3 22.1c2.8 0 5 2.2 5 5v96.7c0 1.7-1.3 3-3 3h-17V154c0 2.8-2.2 5-5 5H72.7c-2.8 0-5-2.2-5-5V27.1c0-2.8 2.2-5 5-5h627.6m0-1H72.7c-3.3 0-6 2.7-6 6V154c0 3.3 2.7 6 6 6h607.6c3.3 0 6-2.7 6-6v-26.2h16c2.2 0 4-1.8 4-4V27.1c0-3.4-2.7-6-6-6z"
           id="NC55-RP-FILLERpath21"
           fill="gray" /></g></g></g><text
     xml:space="preserve"
     style="font-style:normal;font-weight:normal;font-size:40px;line-height:1.25;font-family:sans-serif;fill:#000000;fill-opacity:1;stroke:none"
     x="57.80983"
     y="551.67096"
     id="text21"><tspan
       sodipodi:role="line"
       id="tspan19"
       x="57.80983"
       y="551.67096" /></text></svg>
