<?xml version="1.0" encoding="UTF-8" standalone="no"?>
<!-- Generator: Adobe Illustrator 21.0.0, SVG Export Plug-In . SVG Version: 6.00 Build 0)  -->

<svg
   xmlns:dc="http://purl.org/dc/elements/1.1/"
   xmlns:cc="http://creativecommons.org/ns#"
   xmlns:rdf="http://www.w3.org/1999/02/22-rdf-syntax-ns#"
   xmlns:svg="http://www.w3.org/2000/svg"
   xmlns="http://www.w3.org/2000/svg"
   xmlns:sodipodi="http://sodipodi.sourceforge.net/DTD/sodipodi-0.dtd"
   xmlns:inkscape="http://www.inkscape.org/namespaces/inkscape"
   version="1.1"
   id="NC55-PWR-3KW-AC-FILLERLayer_1"
   x="0px"
   y="0px"
   viewBox="0 0 152.00002 490"
   xml:space="preserve"
   inkscape:version="0.91 r13725"
   sodipodi:docname="NC55-PWR-3KW-AC_filler.svg"
   width="152.00002"
   height="490"><metadata
     id="NC55-PWR-3KW-AC-FILLERmetadata25"><rdf:RDF><cc:Work
         rdf:about=""><dc:format>image/svg+xml</dc:format><dc:type
           rdf:resource="http://purl.org/dc/dcmitype/StillImage" /><dc:title></dc:title></cc:Work></rdf:RDF></metadata><defs
     id="NC55-PWR-3KW-AC-FILLERdefs23" /><sodipodi:namedview
     pagecolor="#ffffff"
     bordercolor="#666666"
     borderopacity="1"
     objecttolerance="10"
     gridtolerance="10"
     guidetolerance="10"
     inkscape:pageopacity="0"
     inkscape:pageshadow="2"
     inkscape:window-width="1920"
     inkscape:window-height="1017"
     id="NC55-PWR-3KW-AC-FILLERnamedview21"
     showgrid="false"
     inkscape:zoom="0.48163265"
     inkscape:cx="76"
     inkscape:cy="245"
     inkscape:window-x="-8"
     inkscape:window-y="-8"
     inkscape:window-maximized="1"
     inkscape:current-layer="Layer_1" /><style
     type="text/css"
     id="NC55-PWR-3KW-AC-FILLERstyle3">
	.NC55-PWR-3KW-AC-FILLERst0{fill:#EEEEEE;}
	.NC55-PWR-3KW-AC-FILLERst1{fill:#808080;}
	.NC55-PWR-3KW-AC-FILLERst2{fill:#BFBFBF;}
</style><g
     id="NC55-PWR-3KW-AC-FILLERg5"><g
       id="NC55-PWR-3KW-AC-FILLERg7"><path
         class="NC55-PWR-3KW-AC-FILLERst0"
         d="M 6,489.5 C 3,489.5 0.5,487 0.5,484 L 0.5,6 C 0.5,3 3,0.5 6,0.5 l 140,0 c 3,0 5.5,2.5 5.5,5.5 l 0,478 c 0,3 -2.5,5.5 -5.5,5.5 l -140,0 z"
         id="NC55-PWR-3KW-AC-FILLERpath9"
         inkscape:connector-curvature="0"
         style="fill:#eeeeee" /><path
         class="NC55-PWR-3KW-AC-FILLERst1"
         d="m 146,1 c 2.8,0 5,2.2 5,5 l 0,478 c 0,2.8 -2.2,5 -5,5 L 6,489 c -2.8,0 -5,-2.2 -5,-5 L 1,6 C 1,3.2 3.2,1 6,1 L 146,1 M 146,0 6,0 C 2.7,0 0,2.7 0,6 l 0,478 c 0,3.3 2.7,6 6,6 l 140,0 c 3.3,0 6,-2.7 6,-6 L 152,6 c 0,-3.3 -2.7,-6 -6,-6 l 0,0 z"
         id="NC55-PWR-3KW-AC-FILLERpath11"
         inkscape:connector-curvature="0"
         style="fill:#808080" /></g><g
       id="NC55-PWR-3KW-AC-FILLERg13"><path
         class="NC55-PWR-3KW-AC-FILLERst2"
         d="m 16,478.4 c -3,0 -5.5,-2.5 -5.5,-5.5 L 10.5,17 c 0,-3 2.5,-5.5 5.5,-5.5 l 120,0 c 3,0 5.5,2.5 5.5,5.5 l 0,455.9 c 0,3 -2.5,5.5 -5.5,5.5 l -120,0 z"
         id="NC55-PWR-3KW-AC-FILLERpath15"
         inkscape:connector-curvature="0"
         style="fill:#bfbfbf" /><g
         id="NC55-PWR-3KW-AC-FILLERg17"><path
           class="NC55-PWR-3KW-AC-FILLERst1"
           d="m 136,12 c 2.8,0 5,2.2 5,5 l 0,455.9 c 0,2.8 -2.2,5 -5,5 l -120,0 c -2.8,0 -5,-2.2 -5,-5 L 11,17 c 0,-2.8 2.2,-5 5,-5 l 120,0 m 0,-1 -120,0 c -3.3,0 -6,2.7 -6,6 l 0,455.9 c 0,3.3 2.7,6 6,6 l 120,0 c 3.3,0 6,-2.7 6,-6 L 142,17 c 0,-3.3 -2.7,-6 -6,-6 l 0,0 z"
           id="NC55-PWR-3KW-AC-FILLERpath19"
           inkscape:connector-curvature="0"
           style="fill:#808080" /></g></g></g></svg>