<?xml version="1.0" encoding="UTF-8" standalone="no"?>
<svg
   xmlns:dc="http://purl.org/dc/elements/1.1/"
   xmlns:cc="http://creativecommons.org/ns#"
   xmlns:rdf="http://www.w3.org/1999/02/22-rdf-syntax-ns#"
   xmlns:svg="http://www.w3.org/2000/svg"
   xmlns="http://www.w3.org/2000/svg"
   xmlns:sodipodi="http://sodipodi.sourceforge.net/DTD/sodipodi-0.dtd"
   xmlns:inkscape="http://www.inkscape.org/namespaces/inkscape"
   version="1.1"
   id="A900-FILLER-PTLayer_1"
   x="0"
   y="0"
   viewBox="0 0 345.4 96.7"
   xml:space="preserve"
   width="345.4"
   height="96.7"
   sodipodi:docname="A900-FILLER-PT.svg"
   inkscape:version="0.92.1 r15371"><metadata
     id="metadata25"><rdf:RDF><cc:Work
         rdf:about=""><dc:format>image/svg+xml</dc:format><dc:type
           rdf:resource="http://purl.org/dc/dcmitype/StillImage" /></cc:Work></rdf:RDF></metadata><defs
     id="defs23" /><sodipodi:namedview
     pagecolor="#ffffff"
     bordercolor="#666666"
     borderopacity="1"
     objecttolerance="10"
     gridtolerance="10"
     guidetolerance="10"
     inkscape:pageopacity="0"
     inkscape:pageshadow="2"
     inkscape:window-width="1920"
     inkscape:window-height="986"
     id="namedview21"
     showgrid="false"
     inkscape:zoom="5.0703762"
     inkscape:cx="172.66963"
     inkscape:cy="48.399997"
     inkscape:window-x="-11"
     inkscape:window-y="-11"
     inkscape:window-maximized="1"
     inkscape:current-layer="A900-FILLER-PTLayer_1" /><style
     type="text/css"
     id="A900-FILLER-PTstyle3">.st1{fill:gray}.st2,.st3,.st4,.st5{fill-rule:evenodd;clip-rule:evenodd;fill:#d8d8d8;stroke:#9a9a9a;stroke-width:.24;stroke-linecap:round;stroke-linejoin:round;stroke-miterlimit:3}.st3,.st4,.st5{fill:#f3f3f3;stroke:#a5a5a5;stroke-width:.72}.st4,.st5{fill:#d8d8d8;stroke-width:.24}.st5{fill:#a5a5a5}</style><g
     id="A900-FILLER-PTFiller7"><g
       id="A900-FILLER-PTg6"><path
         d="M27.9 96.2c-2.5 0-4.6-2.2-4.9-5.2 0-.3-.2-.5-.5-.5H12.1C8 86.4 4.1 82 .5 77.3v-9.9c.6-3.7 3.2-6.4 6.5-6.8h16c.3 0 .5-.2.5-.5V5c.1-2.5 1.8-4.5 4-4.5h290.7c1.9 0 3.4 1.7 3.5 3.8 0 .3.2.5.5.5l17.1.2c3.4.5 6 3.8 5.6 7.3v15.2c.4 3.9-2.4 7.4-6.2 8H322c-.3 0-.5.2-.5.5v54.8c.1 3-2 5.4-4.5 5.4h-31.1c0-.9-.2-1.7-.6-2.5-.1-.2-.3-.3-.5-.3H274c-.2 0-.3.1-.4.2-.5.8-.7 1.6-.7 2.6H76.1c0-.9-.2-1.7-.6-2.5-.1-.2-.3-.3-.4-.3h-11c-.2 0-.3.1-.4.2-.5.8-.8 1.7-.7 2.5l-35.1.1z"
         id="A900-FILLER-PTpath8"
         style="clip-rule:evenodd;fill:#eee;fill-rule:evenodd" /><path
         class="st1"
         d="M27.4 1h290.7c1.6 0 2.9 1.5 3 3.3 0 .5.5 1 1 1l17.2.2c3.2.5 5.5 3.5 5.1 6.8V27.7c.4 3.5-2.2 6.8-5.7 7.4H322c-.6 0-1 .4-1 1v54.8c.1 2.7-1.7 4.9-4 4.9h-30.6c-.1-.8-.3-1.5-.6-2.2-.2-.4-.5-.6-.9-.6H274c-.3 0-.7.2-.8.5-.5.7-.7 1.5-.8 2.4H76.6c-.1-.8-.3-1.6-.7-2.3-.2-.4-.5-.6-.9-.6H64.1c-.3 0-.6.2-.8.4-.5.7-.8 1.5-.8 2.3H27.8c-2.3 0-4.2-2-4.4-4.7 0-.5-.5-.9-1-.9H12.3c-4-4-7.8-8.3-11.3-12.8v-9.7c.5-3.4 2.9-6 6-6.4h16c.6 0 1-.4 1-1V5.1C24 2.8 25.5 1 27.4 1m0-1c-2.5 0-4.4 2.3-4.5 5v55.1h-16c-3.5.4-6.3 3.4-6.9 7.3v10.1c3.7 4.8 7.7 9.3 11.9 13.5h10.6c.3 3.2 2.6 5.6 5.4 5.6h35.7c-.2-1 0-2 .5-2.8H75c.5.8.7 1.8.5 2.8h197.9c-.1-1 .1-2 .6-2.8h10.9c.4.9.6 1.9.5 2.8H317c2.8-.1 5-2.8 5-5.9V36h16.7c4.1-.6 7-4.4 6.6-8.5V12.4c.4-3.8-2.3-7.3-6.1-7.9L322 4.3c-.1-2.4-1.8-4.3-4-4.3H27.4z"
         id="A900-FILLER-PTpath10"
         style="fill:gray" /></g><g
       id="A900-FILLER-PTg12"><path
         class="st2"
         d="M4.7 67.1c3.3-3.3 8.6-3.2 11.9 0 3.3 3.3 3.3 8.6.1 11.9-3.3 3.3-8.7 3.3-11.9 0-3.3-3.3-3.3-8.6-.1-11.9h0z"
         id="A900-FILLER-PTpath14"
         style="clip-rule:evenodd;fill:#d8d8d8;fill-rule:evenodd;stroke:#9a9a9a;stroke-width:.23999999;stroke-linecap:round;stroke-linejoin:round;stroke-miterlimit:3" /><path
         class="st3"
         d="M5.9 68.3c-2.6 2.6-2.6 6.9 0 9.5 2.6 2.6 6.9 2.6 9.5 0 2.6-2.6 2.6-6.9 0-9.5-2.6-2.6-6.8-2.6-9.5 0h0z"
         id="A900-FILLER-PTpath16"
         style="clip-rule:evenodd;fill:#f3f3f3;fill-rule:evenodd;stroke:#a5a5a5;stroke-width:.72000003;stroke-linecap:round;stroke-linejoin:round;stroke-miterlimit:3" /><path
         class="st4"
         d="M16.1 76.6 4.5 71.2c.1-.7.4-1.3.8-1.8l11.6 5.4c0 .7-.3 1.3-.8 1.8h0z"
         id="A900-FILLER-PTpath18"
         style="clip-rule:evenodd;fill:#d8d8d8;fill-rule:evenodd;stroke:#a5a5a5;stroke-width:.23999999;stroke-linecap:round;stroke-linejoin:round;stroke-miterlimit:3" /><path
         class="st5"
         d="m9 73.6-.8-.4c.3-.8.7-1.6 1.1-2.4l.9.4.3-.7c.8.3 1.7.7 2.4 1.1l-.3.7.8.4c-.3.8-.7 1.6-1.1 2.4l-.8-.4-.5.8c-.8-.3-1.6-.7-2.4-1.1l.4-.8h0z"
         id="A900-FILLER-PTpath20"
         style="clip-rule:evenodd;fill:#a5a5a5;fill-rule:evenodd;stroke:#a5a5a5;stroke-width:.23999999;stroke-linecap:round;stroke-linejoin:round;stroke-miterlimit:3" /></g><g
       id="A900-FILLER-PTg22"><path
         class="st2"
         d="M340.4 25.7c3.2-3.3 3.2-8.6-.1-11.9-3.2-3.3-8.6-3.3-11.9-.1-3.2 3.3-3.2 8.6.1 11.9 3.3 3.3 8.6 3.3 11.9.1h0z"
         id="A900-FILLER-PTpath24"
         style="clip-rule:evenodd;fill:#d8d8d8;fill-rule:evenodd;stroke:#9a9a9a;stroke-width:.23999999;stroke-linecap:round;stroke-linejoin:round;stroke-miterlimit:3" /><path
         class="st3"
         d="M339.2 24.5c-2.6 2.6-6.9 2.6-9.5 0-2.6-2.6-2.6-6.9 0-9.5 2.6-2.6 6.9-2.6 9.5 0 2.7 2.6 2.7 6.8 0 9.5h0z"
         id="A900-FILLER-PTpath26"
         style="clip-rule:evenodd;fill:#f3f3f3;fill-rule:evenodd;stroke:#a5a5a5;stroke-width:.72000003;stroke-linecap:round;stroke-linejoin:round;stroke-miterlimit:3" /><path
         class="st4"
         d="m331 14.3 5.4 11.6c.7-.1 1.3-.3 1.8-.8l-5.4-11.6c-.8.1-1.4.4-1.8.8h0z"
         id="A900-FILLER-PTpath28"
         style="clip-rule:evenodd;fill:#d8d8d8;fill-rule:evenodd;stroke:#a5a5a5;stroke-width:.23999999;stroke-linecap:round;stroke-linejoin:round;stroke-miterlimit:3" /><path
         class="st5"
         d="m334 21.4.4.8c.8-.3 1.6-.7 2.4-1.1l-.4-.9.6-.2c-.3-.8-.7-1.7-1.1-2.4l-.7.3-.4-.8c-.8.2-1.7.7-2.4 1.1l.4.8-.8.4c.3.8.7 1.7 1.1 2.4l.9-.4h0z"
         id="A900-FILLER-PTpath30"
         style="clip-rule:evenodd;fill:#a5a5a5;fill-rule:evenodd;stroke:#a5a5a5;stroke-width:.23999999;stroke-linecap:round;stroke-linejoin:round;stroke-miterlimit:3" /></g><g
       id="A900-FILLER-PTg32"><path
         d="M30 93.8c-1.9 0-3.5-1.8-3.5-4V7.2c0-2.2 1.5-4 3.5-4h285.1c2 0 3.5 1.8 3.5 4v82.7c0 2.2-1.6 4-3.5 4H30z"
         id="A900-FILLER-PTpath34"
         style="clip-rule:evenodd;fill:#bfbfbf;fill-rule:evenodd" /><path
         class="st1"
         d="M315.1 3.7c1.7 0 3 1.5 3 3.5v82.7c0 1.9-1.4 3.5-3 3.5H30c-1.6 0-3-1.6-3-3.5V7.2c0-2 1.3-3.5 3-3.5h285.1m0-1H30c-2.2 0-4 2-4 4.5v82.7c0 2.5 1.7 4.5 4 4.5h285.1c2.2 0 4-2 4-4.5V7.2c0-2.5-1.8-4.5-4-4.5z"
         id="A900-FILLER-PTpath36"
         style="fill:gray" /></g></g><text
     xml:space="preserve"
     style="font-style:normal;font-weight:normal;font-size:40px;line-height:1.25;font-family:sans-serif;letter-spacing:0px;word-spacing:0px;fill:#000000;fill-opacity:1;stroke:none"
     x="102.35927"
     y="55.085728"
     id="text29"><tspan
       sodipodi:role="line"
       id="tspan27"
       x="102.35927"
       y="91.578941" /></text>
</svg>