<?xml version="1.0" encoding="UTF-8" standalone="no"?>
<svg
   xmlns:dc="http://purl.org/dc/elements/1.1/"
   xmlns:cc="http://creativecommons.org/ns#"
   xmlns:rdf="http://www.w3.org/1999/02/22-rdf-syntax-ns#"
   xmlns:svg="http://www.w3.org/2000/svg"
   xmlns="http://www.w3.org/2000/svg"
   xmlns:sodipodi="http://sodipodi.sourceforge.net/DTD/sodipodi-0.dtd"
   xmlns:inkscape="http://www.inkscape.org/namespaces/inkscape"
   version="1.1"
   x="0"
   y="0"
   viewBox="0 0 2886 377.70001"
   xml:space="preserve"
   id="A900-IMA16Dsvg2"
   width="2886"
   height="377.7"
   sodipodi:docname="A900-IMA16D.svg"
   inkscape:version="0.92.1 r15371"><metadata
     id="metadata146"><rdf:RDF><cc:Work
         rdf:about=""><dc:format>image/svg+xml</dc:format><dc:type
           rdf:resource="http://purl.org/dc/dcmitype/StillImage" /></cc:Work></rdf:RDF></metadata><defs
     id="defs144" /><sodipodi:namedview
     pagecolor="#ffffff"
     bordercolor="#666666"
     borderopacity="1"
     objecttolerance="10"
     gridtolerance="10"
     guidetolerance="10"
     inkscape:pageopacity="0"
     inkscape:pageshadow="2"
     inkscape:window-width="1920"
     inkscape:window-height="986"
     id="namedview142"
     showgrid="false"
     inkscape:zoom="0.60672211"
     inkscape:cx="1443"
     inkscape:cy="188.85001"
     inkscape:window-x="-11"
     inkscape:window-y="-11"
     inkscape:window-maximized="1"
     inkscape:current-layer="A900-IMA16Dsvg2" /><style
     type="text/css"
     id="A900-IMA16Dstyle4">.A900-IMA16Dst1,.A900-IMA16Dst2,.A900-IMA16Dst3{fill-rule:evenodd;clip-rule:evenodd;fill:#dcdcdc;stroke:gray;stroke-linecap:round;stroke-linejoin:round;stroke-miterlimit:10}.A900-IMA16Dst2,.A900-IMA16Dst3{fill:#dadada}.A900-IMA16Dst3{fill:#c3c3c3;stroke-width:.24}.A900-IMA16Dst4{fill:#3e3f3b}.A900-IMA16Dst5{fill:#737373;stroke:gray;stroke-width:.24;stroke-linecap:round;stroke-linejoin:round;stroke-miterlimit:10}.A900-IMA16Dst5,.A900-IMA16Dst8,.A900-IMA16Dst9{fill-rule:evenodd;clip-rule:evenodd}.A900-IMA16Dst8{fill:#ccc;stroke:#9a9a9a;stroke-width:.24;stroke-linecap:round;stroke-linejoin:round;stroke-miterlimit:10}.A900-IMA16Dst9{fill:#e6e6e6}.A900-IMA16Dst10{stroke:#e6e6e6;stroke-width:.24;stroke-linecap:round;stroke-linejoin:round;stroke-miterlimit:10}.A900-IMA16Dst10,.A900-IMA16Dst11,.A900-IMA16Dst12{fill-rule:evenodd;clip-rule:evenodd;fill:silver}.A900-IMA16Dst12{fill:#333}.A900-IMA16Dst14{fill:none;stroke:silver;stroke-width:1.2;stroke-miterlimit:3;stroke-dasharray:.48,.24}.A900-IMA16Dst15,.A900-IMA16Dst16{fill-rule:evenodd;clip-rule:evenodd;fill:#d8d8d8;stroke:gray;stroke-width:.24;stroke-linecap:round;stroke-linejoin:round;stroke-miterlimit:3}.A900-IMA16Dst16{stroke:#9a9a9a}.A900-IMA16Dst17{fill:#fff}.A900-IMA16Dst18,.A900-IMA16Dst19{fill-rule:evenodd;clip-rule:evenodd;fill:#d2d2d2;stroke:#5f5f5f;stroke-width:.72;stroke-linecap:round;stroke-linejoin:round;stroke-miterlimit:3}.A900-IMA16Dst19{fill:#5f5f5f;stroke-width:.24}</style><g
     id="A900-IMA16DLayer_1"><g
       id="A900-IMA16Dg7"><path
         d="m28.6 14.7 2828.8.4c15.7 0 28.1 12.7 28.1 28.1V349c0 15.7-12.4 28.1-28.1 28.1l-2828.8-.7C12.9 376.4.5 364 .5 348.3V42.8c0-15.7 12.7-28.1 28.1-28.1h0z"
         id="A900-IMA16Dpath9"
         style="clip-rule:evenodd;fill:#bfbfbf;fill-rule:evenodd;stroke:gray;stroke-linecap:round;stroke-linejoin:round;stroke-miterlimit:10" /><path
         class="A900-IMA16Dst1"
         d="M2742 8v-.8c-.4-3.4-3-6-6.4-6L183.8.5c-3.4 0-6 2.6-6.4 6V14.3h6.4l2551.8.7h6.4V8h0z"
         id="A900-IMA16Dpath11"
         style="clip-rule:evenodd;fill:#dcdcdc;fill-rule:evenodd;stroke:gray;stroke-linecap:round;stroke-linejoin:round;stroke-miterlimit:10" /><path
         class="A900-IMA16Dst2"
         id="A900-IMA16Dpolygon13"
         style="clip-rule:evenodd;fill:#dadada;fill-rule:evenodd;stroke:gray;stroke-linecap:round;stroke-linejoin:round;stroke-miterlimit:10"
         d="M.5 376.4v-55.1h374.4l-.4 55.5z" /><path
         class="A900-IMA16Dst3"
         id="A900-IMA16Drect15"
         style="clip-rule:evenodd;fill:#c3c3c3;fill-rule:evenodd;stroke:gray;stroke-width:.23999999;stroke-linecap:round;stroke-linejoin:round;stroke-miterlimit:10"
         d="M139.9 300.3h63.7v21h-63.7z" /><path
         class="A900-IMA16Dst2"
         id="A900-IMA16Drect17"
         style="clip-rule:evenodd;fill:#dadada;fill-rule:evenodd;stroke:gray;stroke-linecap:round;stroke-linejoin:round;stroke-miterlimit:10"
         d="M2511.5 321.7h374v55.5h-374z" /><path
         class="A900-IMA16Dst3"
         id="A900-IMA16Drect19"
         style="clip-rule:evenodd;fill:#c3c3c3;fill-rule:evenodd;stroke:gray;stroke-width:.23999999;stroke-linecap:round;stroke-linejoin:round;stroke-miterlimit:10"
         d="M2682.4 300.7h63.7v21h-63.7z" /><path
         transform="rotate(-180 1442.813 369.839)"
         class="A900-IMA16Dst1"
         id="A900-IMA16Drect21"
         style="clip-rule:evenodd;fill:#dcdcdc;fill-rule:evenodd;stroke:gray;stroke-linecap:round;stroke-linejoin:round;stroke-miterlimit:10"
         d="M374.5 362.7h2136.6v14.2H374.5z" /><g
         id="A900-IMA16Dg23"><path
           class="A900-IMA16Dst4"
           d="m2616.8 56.1-3.3 9.9h-4.2l10.7-31.6h4.9l10.8 31.6h-4.4l-3.4-9.9h-11.1zm10.4-3.1-3.1-9.1c-.7-2.1-1.2-3.9-1.6-5.8h-.1c-.5 1.9-1 3.8-1.6 5.7l-3.1 9.1h9.5z"
           id="A900-IMA16Dpath25"
           style="fill:#3e3f3b" /><path
           class="A900-IMA16Dst4"
           d="M2640.4 63.2c.9.1 1.9 0 3.3-.1 2.4-.3 4.6-1.3 6.4-3 2-1.8 3.5-4.5 4-8.1h-.1c-1.7 2.1-4.1 3.3-7.2 3.3-5.5 0-9-4.1-9-9.3 0-5.8 4.2-10.8 10.4-10.8s10.1 5.1 10.1 12.8c0 6.7-2.2 11.4-5.2 14.3-2.3 2.3-5.6 3.7-8.9 4.1-1.5.2-2.8.3-3.8.2v-3.4zm1.5-17.6c0 3.8 2.3 6.5 5.9 6.5 2.8 0 4.9-1.4 6-3.2.2-.4.4-.8.4-1.5 0-5.2-1.9-9.2-6.2-9.2-3.6 0-6.1 3.1-6.1 7.4z"
           id="A900-IMA16Dpath27"
           style="fill:#3e3f3b" /><path
           class="A900-IMA16Dst4"
           d="M2679.7 50.5c0 10.4-3.8 16.1-10.6 16.1-5.9 0-10-5.6-10.1-15.6 0-10.2 4.4-15.8 10.6-15.8 6.4-.1 10.1 5.6 10.1 15.3zm-16.6.5c0 7.9 2.4 12.4 6.2 12.4 4.2 0 6.2-4.9 6.2-12.7 0-7.5-1.9-12.4-6.2-12.4-3.5 0-6.2 4.4-6.2 12.7z"
           id="A900-IMA16Dpath29"
           style="fill:#3e3f3b" /><path
           class="A900-IMA16Dst4"
           d="M2701.1 50.5c0 10.4-3.8 16.1-10.6 16.1-5.9 0-10-5.6-10.1-15.6 0-10.2 4.4-15.8 10.6-15.8 6.4-.1 10.1 5.6 10.1 15.3zm-16.6.5c0 7.9 2.4 12.4 6.2 12.4 4.2 0 6.2-4.9 6.2-12.7 0-7.5-1.9-12.4-6.2-12.4-3.5 0-6.2 4.4-6.2 12.7z"
           id="A900-IMA16Dpath31"
           style="fill:#3e3f3b" /><path
           class="A900-IMA16Dst4"
           d="M2713.1 51.9v3h-11.6v-3h11.6z"
           id="A900-IMA16Dpath33"
           style="fill:#3e3f3b" /><path
           class="A900-IMA16Dst4"
           d="M2720.6 34.5v31.6h-4.1V34.5h4.1z"
           id="A900-IMA16Dpath35"
           style="fill:#3e3f3b" /><path
           class="A900-IMA16Dst4"
           d="M2754 52.2c-.2-4.4-.5-9.7-.5-13.6h-.1c-1.1 3.7-2.4 7.6-4 12l-5.6 15.3h-3.1l-5.1-15c-1.5-4.5-2.8-8.5-3.7-12.3h-.1c-.1 3.9-.3 9.2-.6 14l-.8 13.5h-3.9l2.2-31.6h5.2l5.4 15.3c1.3 3.9 2.4 7.4 3.2 10.6h.1c.8-3.2 1.9-6.7 3.3-10.6l5.6-15.3h5.2l2 31.6h-4l-.7-13.9z"
           id="A900-IMA16Dpath37"
           style="fill:#3e3f3b" /><path
           class="A900-IMA16Dst4"
           d="m2764.4 56.1-3.3 9.9h-4.2l10.7-31.6h4.9l10.8 31.6h-4.4l-3.4-9.9h-11.1zm10.4-3.1-3.1-9.1c-.7-2.1-1.2-3.9-1.6-5.8h-.1c-.5 1.9-1 3.8-1.6 5.7l-3.1 9.1h9.5z"
           id="A900-IMA16Dpath39"
           style="fill:#3e3f3b" /><path
           class="A900-IMA16Dst4"
           d="m2794.6 39.5-5.4 2.9-.8-3.1 6.7-3.6h3.5v30.4h-4V39.5z"
           id="A900-IMA16Dpath41"
           style="fill:#3e3f3b" /><path
           class="A900-IMA16Dst4"
           d="M2824.4 38.5c-.8 0-1.9 0-3.1.2-6.5 1.1-9.9 5.8-10.6 10.8h.1c1.5-1.9 4-3.5 7.4-3.5 5.4 0 9.2 3.9 9.2 9.8 0 5.6-3.8 10.7-10.1 10.7-6.5 0-10.8-5.1-10.8-13 0-6 2.2-10.7 5.2-13.7 2.5-2.5 5.9-4 9.7-4.5 1.2-.2 2.2-.2 3-.2v3.4zm-1.2 17.6c0-4.4-2.5-7-6.3-7-2.5 0-4.8 1.5-5.9 3.7-.3.5-.5 1.1-.5 1.8.1 5 2.4 8.7 6.7 8.7 3.7.1 6-2.8 6-7.2z"
           id="A900-IMA16Dpath43"
           style="fill:#3e3f3b" /><path
           class="A900-IMA16Dst4"
           d="M2829.9 34.9c2.5-.4 5.4-.7 8.7-.7 5.9 0 10 1.4 12.8 3.9 2.8 2.6 4.5 6.2 4.5 11.3 0 5.2-1.6 9.4-4.5 12.3-3 3-7.8 4.5-14 4.5-2.9 0-5.3-.1-7.4-.4V34.9zm4.1 27.9c1 .2 2.5.2 4.1.2 8.7 0 13.4-4.9 13.4-13.4 0-7.4-4.2-12.2-12.8-12.2-2.1 0-3.7.2-4.8.4v25z"
           id="A900-IMA16Dpath45"
           style="fill:#3e3f3b" /></g><g
         id="A900-IMA16Dg47"><path
           class="A900-IMA16Dst4"
           d="M2635.1 134.4c1.8-.3 4.3-.6 7.3-.6 3.8 0 6.5.9 8.3 2.5 1.6 1.4 2.6 3.6 2.6 6.2 0 2.7-.8 4.8-2.3 6.3-2 2.1-5.3 3.2-9 3.2-1.1 0-2.2 0-3.1-.3v11.8h-3.8v-29.1zm3.8 14.2c.8.2 1.9.3 3.2.3 4.6 0 7.4-2.2 7.4-6.3 0-3.9-2.8-5.8-7-5.8-1.7 0-2.9.1-3.6.3v11.5z"
           id="A900-IMA16Dpath49"
           style="fill:#3e3f3b" /><path
           class="A900-IMA16Dst4"
           d="m2663.9 163.6-7.5-29.6h4l3.5 15c.9 3.7 1.7 7.4 2.2 10.2h.1c.5-2.9 1.4-6.4 2.4-10.3l3.9-14.9h4l3.6 15c.8 3.5 1.6 7 2.1 10.1h.1c.6-3.2 1.4-6.5 2.4-10.2l3.9-14.9h3.9l-8.4 29.6h-4l-3.7-15.4c-.9-3.8-1.5-6.7-1.9-9.6h-.1c-.5 2.9-1.2 5.8-2.3 9.6l-4.2 15.4h-4z"
           id="A900-IMA16Dpath51"
           style="fill:#3e3f3b" /><path
           class="A900-IMA16Dst4"
           d="M2692.9 134.4c1.9-.4 4.7-.6 7.3-.6 4.1 0 6.7.7 8.6 2.4 1.5 1.3 2.3 3.3 2.3 5.6 0 3.9-2.5 6.5-5.6 7.5v.1c2.3.8 3.6 2.9 4.3 6 1 4.1 1.7 7 2.3 8.1h-3.9c-.5-.8-1.1-3.4-2-7.1-.9-4.1-2.5-5.6-5.9-5.7h-3.6v12.8h-3.8v-29.1zm3.8 13.5h3.9c4.1 0 6.7-2.2 6.7-5.6 0-3.8-2.8-5.5-6.8-5.5-1.8 0-3.2.2-3.8.4v10.7z"
           id="A900-IMA16Dpath53"
           style="fill:#3e3f3b" /></g><path
         class="A900-IMA16Dst5"
         d="M2611.9 150.4c0 11.6-9.4 21.4-21 21.4s-21.4-9.7-21.4-21.4c0-11.6 9.7-21 21.4-21 11.6 0 21 9.4 21 21h0z"
         id="A900-IMA16Dpath55"
         style="clip-rule:evenodd;fill:#737373;fill-rule:evenodd;stroke:gray;stroke-width:.23999999;stroke-linecap:round;stroke-linejoin:round;stroke-miterlimit:10" /><g
         id="A900-IMA16Dg57"><path
           class="A900-IMA16Dst4"
           d="M2634.6 237.6c1.7 1.1 4.2 1.9 6.8 1.9 3.9 0 6.2-2.1 6.2-5 0-2.8-1.6-4.3-5.6-5.9-4.8-1.7-7.8-4.2-7.8-8.4 0-4.6 3.8-8 9.6-8 3 0 5.2.7 6.5 1.4l-1.1 3.1c-1-.5-2.9-1.4-5.6-1.4-4 0-5.6 2.4-5.6 4.4 0 2.8 1.8 4.1 5.9 5.7 5 1.9 7.5 4.3 7.5 8.7 0 4.6-3.4 8.5-10.3 8.5-2.9 0-6-.8-7.5-1.9l1-3.1z"
           id="A900-IMA16Dpath59"
           style="fill:#3e3f3b" /><path
           class="A900-IMA16Dst4"
           d="M2664.7 215.9h-9v-3.2h21.9v3.2h-9v26.3h-3.9v-26.3z"
           id="A900-IMA16Dpath61"
           style="fill:#3e3f3b" /><path
           class="A900-IMA16Dst4"
           d="m2684.5 232.9-3.1 9.3h-3.9l10-29.6h4.6l10.1 29.6h-4.1l-3.2-9.3h-10.4zm9.7-2.9-2.9-8.5c-.7-1.9-1.1-3.7-1.5-5.4h-.1c-.4 1.8-.9 3.6-1.5 5.4l-2.9 8.6h8.9z"
           id="A900-IMA16Dpath63"
           style="fill:#3e3f3b" /><path
           class="A900-IMA16Dst4"
           d="M2708.6 215.9h-9v-3.2h21.9v3.2h-9v26.3h-3.9v-26.3z"
           id="A900-IMA16Dpath65"
           style="fill:#3e3f3b" /></g><path
         class="A900-IMA16Dst5"
         d="M2611.9 229.1c0 11.6-9.4 21-21 21s-21.4-9.4-21.4-21 9.7-21 21.4-21c11.6 0 21 9.4 21 21h0z"
         id="A900-IMA16Dpath67"
         style="clip-rule:evenodd;fill:#737373;fill-rule:evenodd;stroke:gray;stroke-width:.23999999;stroke-linecap:round;stroke-linejoin:round;stroke-miterlimit:10" /><g
         id="A900-IMA16Dg69"><path
           class="A900-IMA16Dst4"
           d="m2419.5 154.3-3.1 9.3h-3.9l10-29.6h4.6l10.1 29.6h-4.1l-3.2-9.3h-10.4zm9.7-3-2.9-8.5c-.7-1.9-1.1-3.7-1.5-5.4h-.1c-.4 1.8-.9 3.6-1.5 5.4l-2.9 8.6h8.9z"
           id="A900-IMA16Dpath71"
           style="fill:#3e3f3b" /><path
           class="A900-IMA16Dst4"
           d="M2461.3 162.6c-1.4.7-4.2 1.4-7.8 1.4-8.3 0-14.6-5.3-14.6-15 0-9.3 6.3-15.5 15.4-15.5 3.7 0 6 .8 7 1.3l-.9 3.1c-1.4-.7-3.5-1.2-6-1.2-6.9 0-11.5 4.4-11.5 12.2 0 7.2 4.2 11.9 11.4 11.9 2.3 0 4.7-.5 6.2-1.2l.8 3z"
           id="A900-IMA16Dpath73"
           style="fill:#3e3f3b" /><path
           class="A900-IMA16Dst4"
           d="M2472.1 137.3h-9V134h21.9v3.2h-9v26.3h-3.9v-26.2z"
           id="A900-IMA16Dpath75"
           style="fill:#3e3f3b" /></g><path
         class="A900-IMA16Dst5"
         d="M2391.5 150.4c0 11.6-9.4 21.4-21 21.4s-21.4-9.7-21.4-21.4c0-11.6 9.7-21 21.4-21s21 9.4 21 21h0z"
         id="A900-IMA16Dpath77"
         style="clip-rule:evenodd;fill:#737373;fill-rule:evenodd;stroke:gray;stroke-width:.23999999;stroke-linecap:round;stroke-linejoin:round;stroke-miterlimit:10" /><g
         id="A900-IMA16Dg79"><path
           class="A900-IMA16Dst4"
           d="M2414.8 213c1.8-.3 4.3-.6 7.3-.6 3.8 0 6.5.9 8.3 2.5 1.6 1.4 2.6 3.6 2.6 6.2 0 2.7-.8 4.8-2.3 6.3-2 2.1-5.3 3.2-9 3.2-1.1 0-2.2 0-3.1-.3v11.8h-3.8V213zm3.8 14.3c.8.2 1.9.3 3.2.3 4.6 0 7.4-2.2 7.4-6.3 0-3.9-2.8-5.8-7-5.8-1.7 0-2.9.1-3.6.3v11.5z"
           id="A900-IMA16Dpath81"
           style="fill:#3e3f3b" /><path
           class="A900-IMA16Dst4"
           d="M2464 227.2c0 10.2-6.2 15.6-13.7 15.6-7.8 0-13.3-6.1-13.3-15 0-9.4 5.8-15.5 13.7-15.5 8.1-.1 13.3 6.1 13.3 14.9zm-22.9.4c0 6.3 3.4 12 9.4 12 6.1 0 9.5-5.6 9.5-12.3 0-5.9-3.1-12-9.4-12-6.4 0-9.5 5.8-9.5 12.3z"
           id="A900-IMA16Dpath83"
           style="fill:#3e3f3b" /><path
           class="A900-IMA16Dst4"
           d="M2466.9 213.1c1.9-.4 4.7-.6 7.3-.6 4.1 0 6.7.7 8.6 2.4 1.5 1.3 2.3 3.3 2.3 5.6 0 3.9-2.5 6.5-5.6 7.5v.1c2.3.8 3.6 2.9 4.3 6 1 4.1 1.7 7 2.3 8.1h-3.9c-.5-.8-1.1-3.4-2-7.1-.9-4.1-2.5-5.6-5.9-5.7h-3.6v12.8h-3.8v-29.1zm3.8 13.4h3.9c4.1 0 6.7-2.2 6.7-5.6 0-3.8-2.8-5.5-6.8-5.5-1.8 0-3.2.2-3.8.4v10.7z"
           id="A900-IMA16Dpath85"
           style="fill:#3e3f3b" /><path
           class="A900-IMA16Dst4"
           d="M2498.3 215.9h-9v-3.2h21.9v3.2h-9v26.3h-3.9v-26.3z"
           id="A900-IMA16Dpath87"
           style="fill:#3e3f3b" /></g><path
         class="A900-IMA16Dst5"
         d="M2391.5 229.1c0 11.6-9.4 21-21 21s-21.4-9.4-21.4-21 9.7-21 21.4-21 21 9.4 21 21h0z"
         id="A900-IMA16Dpath89"
         style="clip-rule:evenodd;fill:#737373;fill-rule:evenodd;stroke:gray;stroke-width:.23999999;stroke-linecap:round;stroke-linejoin:round;stroke-miterlimit:10" /><g
         id="A900-IMA16Dg91"><path
           class="A900-IMA16Dst4"
           d="M1337.7 299.7c2.1-.3 4.8-.6 8.3-.6 4.3 0 7.4 1 9.4 2.8 1.8 1.6 2.9 4 2.9 7s-.9 5.4-2.6 7.2c-2.3 2.4-6 3.7-10.3 3.7-1.3 0-2.5 0-3.5-.3V333h-4.3v-33.3zm4.3 16.2c.9.2 2.1.3 3.6.3 5.2 0 8.4-2.5 8.4-7.2 0-4.4-3.1-6.6-7.9-6.6-1.9 0-3.3.2-4.1.3v13.2z"
           id="A900-IMA16Dpath93"
           style="fill:#3e3f3b" /><path
           class="A900-IMA16Dst4"
           d="M1393.7 315.8c0 11.6-7 17.7-15.6 17.7-8.9 0-15.1-6.9-15.1-17 0-10.7 6.6-17.6 15.6-17.6 9.2-.1 15.1 6.9 15.1 16.9zm-26 .5c0 7.2 3.9 13.6 10.7 13.6 6.9 0 10.8-6.3 10.8-14 0-6.7-3.5-13.7-10.7-13.7-7.3.1-10.8 6.7-10.8 14.1z"
           id="A900-IMA16Dpath95"
           style="fill:#3e3f3b" /><path
           class="A900-IMA16Dst4"
           d="M1396.9 299.8c2.2-.4 5.3-.7 8.3-.7 4.6 0 7.6.8 9.7 2.7 1.7 1.5 2.6 3.8 2.6 6.4 0 4.4-2.8 7.4-6.3 8.6v.1c2.6.9 4.1 3.3 4.9 6.8 1.1 4.7 1.9 7.9 2.6 9.2h-4.5c-.5-.9-1.3-3.8-2.2-8-1-4.6-2.8-6.4-6.7-6.5h-4.1V333h-4.3v-33.2zm4.3 15.3h4.4c4.6 0 7.6-2.5 7.6-6.4 0-4.3-3.1-6.2-7.7-6.3-2.1 0-3.6.2-4.3.4v12.3z"
           id="A900-IMA16Dpath97"
           style="fill:#3e3f3b" /><path
           class="A900-IMA16Dst4"
           d="M1432.8 303h-10.2v-3.7h24.9v3.7h-10.3v29.9h-4.4V303z"
           id="A900-IMA16Dpath99"
           style="fill:#3e3f3b" /><path
           class="A900-IMA16Dst4"
           d="M1450.9 327.6c1.9 1.2 4.8 2.2 7.8 2.2 4.4 0 7-2.3 7-5.7 0-3.1-1.8-4.9-6.3-6.7-5.5-1.9-8.9-4.8-8.9-9.5 0-5.2 4.3-9.1 10.9-9.1 3.4 0 5.9.8 7.4 1.6l-1.2 3.5c-1.1-.6-3.3-1.6-6.4-1.6-4.6 0-6.3 2.7-6.3 5 0 3.1 2 4.7 6.7 6.5 5.7 2.2 8.6 4.9 8.6 9.9 0 5.2-3.8 9.7-11.8 9.7-3.2 0-6.8-.9-8.6-2.1l1.1-3.7z"
           id="A900-IMA16Dpath101"
           style="fill:#3e3f3b" /><path
           class="A900-IMA16Dst4"
           d="m1498 304.6-5.7 3-.8-3.3 7.1-3.8h3.7v32.4h-4.2v-28.3z"
           id="A900-IMA16Dpath103"
           style="fill:#3e3f3b" /><path
           class="A900-IMA16Dst4"
           d="M1523 317.8v3.2h-12.3v-3.2h12.3z"
           id="A900-IMA16Dpath105"
           style="fill:#3e3f3b" /><path
           class="A900-IMA16Dst4"
           d="m1534.4 304.6-5.7 3-.8-3.3 7.1-3.8h3.7v32.4h-4.2v-28.3z"
           id="A900-IMA16Dpath107"
           style="fill:#3e3f3b" /><path
           class="A900-IMA16Dst4"
           d="M1566.3 303.6c-.9 0-2 0-3.3.2-6.9 1.1-10.5 6.2-11.3 11.5h.2c1.5-2 4.2-3.7 7.8-3.7 5.7 0 9.8 4.1 9.8 10.5 0 5.9-4 11.4-10.8 11.4-6.9 0-11.5-5.4-11.5-13.8 0-6.4 2.3-11.4 5.5-14.6 2.7-2.6 6.3-4.3 10.4-4.8 1.3-.2 2.4-.2 3.2-.2v3.5zm-1.3 18.7c0-4.6-2.6-7.4-6.7-7.4-2.6 0-5.1 1.6-6.3 4-.3.5-.5 1.1-.5 1.9.1 5.3 2.5 9.3 7.1 9.3 3.9 0 6.4-3.2 6.4-7.8z"
           id="A900-IMA16Dpath109"
           style="fill:#3e3f3b" /></g><path
         d="M771.4 258.7h21.4l52.1-.4c4.1 11.6 14.6 19.5 26.2 19.5H2031c10.9 0 21-6.7 25.5-16.9 1.9-.7 3.7-1.5 5.2-2.2H2129.5c37.1 0 67.5-25.1 67.5-56.2 0-31.5-30.4-56.6-67.5-56.6h-58.7c-4.5-10.5-14.6-17.6-25.5-17.6h-1188c-10.9 0-21 6.7-25.5 17.2h-39l-21.4.4-3.4-.4c-37.5 0-67.8 25.5-67.8 56.6s30.4 56.2 67.8 56.2h3.4v.4z"
         id="A900-IMA16Dpath111"
         style="clip-rule:evenodd;fill:#fff;fill-rule:evenodd" /><path
         d="M771.4 258.7h21.4l52.1-.4c4.1 11.6 14.6 19.5 26.2 19.5H2031c10.9 0 21-6.7 25.5-16.9 1.9-.7 3.7-1.5 5.2-2.2H2129.5c37.1 0 67.5-25.1 67.5-56.2 0-31.5-30.4-56.6-67.5-56.6h-58.7c-4.5-10.5-14.6-17.6-25.5-17.6h-1188c-10.9 0-21 6.7-25.5 17.2h-39l-21.4.4-3.4-.4c-37.5 0-67.8 25.5-67.8 56.6s30.4 56.2 67.8 56.2h3.4"
         id="A900-IMA16Dpath113"
         style="fill:none;stroke:#8c8c8c;stroke-width:.23999999;stroke-linecap:round;stroke-linejoin:round;stroke-miterlimit:10" /><path
         class="A900-IMA16Dst8"
         d="M798 203.3c0-25.9-19.9-46.5-45-46.5-24.7 0-45 20.6-45 46.5.4 25.1 20.2 45.7 45 45.7s45-20.6 45-45.7h0z"
         id="A900-IMA16Dpath115"
         style="clip-rule:evenodd;fill:#ccc;fill-rule:evenodd;stroke:#9a9a9a;stroke-width:.23999999;stroke-linecap:round;stroke-linejoin:round;stroke-miterlimit:10" /><path
         class="A900-IMA16Dst9"
         d="M796.1 203.3c0-24.4-19.5-44.2-43.1-44.2s-42.7 19.9-42.7 44.2c0 24.4 19.1 43.8 42.7 43.8s43.1-19.5 43.1-43.8z"
         id="A900-IMA16Dpath117"
         style="clip-rule:evenodd;fill:#e6e6e6;fill-rule:evenodd" /><path
         class="A900-IMA16Dst8"
         d="M736.9 165h32.2c3.4 0 6.4 1.5 7.9 4.5l16.5 29.2c1.5 2.6 1.5 6 0 8.6L777 237c-1.5 2.6-4.5 4.5-7.9 4.5h-32.2c-3.4 0-6.4-1.9-7.9-4.5l-16.5-29.6c-1.5-2.6-1.5-6 0-8.6l16.5-29.2c1.6-3.1 4.6-4.6 7.9-4.6h0z"
         id="A900-IMA16Dpath119"
         style="clip-rule:evenodd;fill:#ccc;fill-rule:evenodd;stroke:#9a9a9a;stroke-width:.23999999;stroke-linecap:round;stroke-linejoin:round;stroke-miterlimit:10" /><path
         class="A900-IMA16Dst10"
         d="M789 203.3c0-20.6-16.1-37.1-36-37.1s-35.6 16.5-35.6 37.1c0 20.2 15.7 36.7 35.6 36.7 19.9 0 36-16.5 36-36.7h0z"
         id="A900-IMA16Dpath121"
         style="clip-rule:evenodd;fill:silver;fill-rule:evenodd;stroke:#e6e6e6;stroke-width:.23999999;stroke-linecap:round;stroke-linejoin:round;stroke-miterlimit:10" /><path
         class="A900-IMA16Dst11"
         d="M783.8 203.3c.4-17.6-13.5-32.2-30.7-32.2s-30.7 14.6-30.7 32.2c.4 16.9 14.2 30.7 30.7 30.7 16.8 0 30.3-13.9 30.7-30.7z"
         id="A900-IMA16Dpath123"
         style="clip-rule:evenodd;fill:silver;fill-rule:evenodd" /><path
         class="A900-IMA16Dst12"
         d="M769.9 203.3c0-23.2-33.7-23.2-33.4 0 .1 22.4 33 22.4 33.4 0z"
         id="A900-IMA16Dpath125"
         style="clip-rule:evenodd;fill:#333;fill-rule:evenodd" /><path
         class="A900-IMA16Dst8"
         d="M2191.4 203.3c0-25.9-20.2-46.5-45-46.5-25.1 0-45 20.6-45 46.5 0 25.1 20.2 45.7 45 45.7s44.6-20.6 45-45.7h0z"
         id="A900-IMA16Dpath127"
         style="clip-rule:evenodd;fill:#ccc;fill-rule:evenodd;stroke:#9a9a9a;stroke-width:.23999999;stroke-linecap:round;stroke-linejoin:round;stroke-miterlimit:10" /><path
         class="A900-IMA16Dst9"
         d="M2189.2 203.3c0-24.4-19.1-44.2-42.7-44.2s-43.1 19.9-43.1 44.2c0 24.4 19.5 43.8 43.1 43.8s42.7-19.5 42.7-43.8z"
         id="A900-IMA16Dpath129"
         style="clip-rule:evenodd;fill:#e6e6e6;fill-rule:evenodd" /><path
         class="A900-IMA16Dst8"
         d="M2130 165h32.6c3.4 0 6.4 1.5 7.9 4.5l16.5 29.2c1.5 2.6 1.5 6 0 8.6l-16.5 29.6c-1.5 2.6-4.5 4.5-7.9 4.5H2130c-3 0-6-1.9-7.5-4.5l-16.5-29.6c-1.5-2.6-1.5-6 0-8.6l16.5-29.2c1.5-3 4.5-4.5 7.5-4.5h0z"
         id="A900-IMA16Dpath131"
         style="clip-rule:evenodd;fill:#ccc;fill-rule:evenodd;stroke:#9a9a9a;stroke-width:.23999999;stroke-linecap:round;stroke-linejoin:round;stroke-miterlimit:10" /><path
         class="A900-IMA16Dst10"
         d="M2182.1 203.3c0-20.6-15.7-37.1-35.6-37.1-19.9 0-36 16.5-36 37.1 0 20.2 16.1 36.7 36 36.7 19.8 0 35.6-16.5 35.6-36.7h0z"
         id="A900-IMA16Dpath133"
         style="clip-rule:evenodd;fill:silver;fill-rule:evenodd;stroke:#e6e6e6;stroke-width:.23999999;stroke-linecap:round;stroke-linejoin:round;stroke-miterlimit:10" /><path
         class="A900-IMA16Dst11"
         d="M2177.2 203.3c0-17.6-13.5-32.2-30.7-32.2s-31.1 14.6-30.7 32.2c.4 16.9 13.9 30.7 30.7 30.7 16.4 0 30.3-13.9 30.7-30.7z"
         id="A900-IMA16Dpath135"
         style="clip-rule:evenodd;fill:silver;fill-rule:evenodd" /><path
         class="A900-IMA16Dst12"
         d="M2162.9 203.3c0-22.9-33-22.9-33 0 .1 22.4 33 22.4 33 0z"
         id="A900-IMA16Dpath137"
         style="clip-rule:evenodd;fill:#333;fill-rule:evenodd" /><path
         d="M877.5 253.5h1152.4c13.5 0 24.7-9 27.7-22.1l10.1-48.3c4.1-17.6-9.4-34.1-27.4-34.1h-1173c-18 0-31.5 16.5-27.7 34.1l10.5 48.3c3 13.1 14.3 22.1 27.4 22.1h0z"
         id="A900-IMA16Dpath139"
         style="clip-rule:evenodd;fill:#333;fill-rule:evenodd;stroke:silver;stroke-width:1.20000005;stroke-linecap:round;stroke-linejoin:round;stroke-miterlimit:10" /><path
         class="A900-IMA16Dst14"
         id="A900-IMA16Dline141"
         style="fill:none;stroke:silver;stroke-width:1.20000005;stroke-miterlimit:3;stroke-dasharray:.48,.24"
         d="M2037.8 183.8H865.5" /><path
         class="A900-IMA16Dst14"
         id="A900-IMA16Dline143"
         style="fill:none;stroke:silver;stroke-width:1.20000005;stroke-miterlimit:3;stroke-dasharray:.48,.24"
         d="M2037.8 214.9H865.5" /><path
         class="A900-IMA16Dst15"
         d="M.5 118.6h60c39-.4 70.5 31.9 70.5 71.2 0 39.7-31.5 71.6-70.5 71.2H.5V118.6h0z"
         id="A900-IMA16Dpath145"
         style="clip-rule:evenodd;fill:#d8d8d8;fill-rule:evenodd;stroke:gray;stroke-width:.23999999;stroke-linecap:round;stroke-linejoin:round;stroke-miterlimit:3" /><path
         class="A900-IMA16Dst16"
         d="M26.7 152.7c20.2-21 54.3-21.4 75-.4 21 20.6 20.6 54.3-.7 74.6-20.2 19.9-52.8 19.5-73.1-.7-20.3-20.2-20.7-52.9-1.2-73.5h0z"
         id="A900-IMA16Dpath147"
         style="clip-rule:evenodd;fill:#d8d8d8;fill-rule:evenodd;stroke:#9a9a9a;stroke-width:.23999999;stroke-linecap:round;stroke-linejoin:round;stroke-miterlimit:3" /><path
         class="A900-IMA16Dst15"
         d="M2885.5 118.6h-60c-38.6-.4-70.5 31.9-70.5 71.2 0 39.7 31.9 71.6 70.5 71.2h60V118.6h0z"
         id="A900-IMA16Dpath149"
         style="clip-rule:evenodd;fill:#d8d8d8;fill-rule:evenodd;stroke:gray;stroke-width:.23999999;stroke-linecap:round;stroke-linejoin:round;stroke-miterlimit:3" /><path
         class="A900-IMA16Dst16"
         d="M2859.3 226.9c21.4-20.2 21.4-54 .7-75-21-20.6-54.7-20.2-75 .7-19.9 20.6-19.5 53.2.7 73.5 20.3 20.3 53 20.6 73.6.8h0z"
         id="A900-IMA16Dpath151"
         style="clip-rule:evenodd;fill:#d8d8d8;fill-rule:evenodd;stroke:#9a9a9a;stroke-width:.23999999;stroke-linecap:round;stroke-linejoin:round;stroke-miterlimit:3" /></g><circle
       class="A900-IMA16Dst17"
       cx="901.4"
       cy="199.6"
       r="6.8"
       id="A900-IMA16Dcircle153"
       data-cv-id="PORT-0"
       style="fill:#fff" /><circle
       class="A900-IMA16Dst17"
       cx="974.7"
       cy="199.6"
       r="6.8"
       id="A900-IMA16Dcircle155"
       data-cv-id="PORT-1"
       style="fill:#fff" /><circle
       class="A900-IMA16Dst17"
       cx="1048"
       cy="199.6"
       r="6.8"
       id="A900-IMA16Dcircle157"
       data-cv-id="PORT-2"
       style="fill:#fff" /><circle
       class="A900-IMA16Dst17"
       cx="1121.4"
       cy="199.6"
       r="6.8"
       id="A900-IMA16Dcircle159"
       data-cv-id="PORT-3"
       style="fill:#fff" /><circle
       class="A900-IMA16Dst17"
       cx="1194.7"
       cy="199.6"
       r="6.8"
       id="A900-IMA16Dcircle161"
       data-cv-id="PORT-4"
       style="fill:#fff" /><circle
       class="A900-IMA16Dst17"
       cx="1268"
       cy="199.6"
       r="6.8"
       id="A900-IMA16Dcircle163"
       data-cv-id="PORT-5"
       style="fill:#fff" /><circle
       class="A900-IMA16Dst17"
       cx="1341.4"
       cy="199.6"
       r="6.8"
       id="A900-IMA16Dcircle165"
       data-cv-id="PORT-6"
       style="fill:#fff" /><circle
       class="A900-IMA16Dst17"
       cx="1414.7"
       cy="199.6"
       r="6.8"
       id="A900-IMA16Dcircle167"
       data-cv-id="PORT-7"
       style="fill:#fff" /><circle
       class="A900-IMA16Dst17"
       cx="1488"
       cy="199.6"
       r="6.8"
       id="A900-IMA16Dcircle169"
       data-cv-id="PORT-8"
       style="fill:#fff" /><circle
       class="A900-IMA16Dst17"
       cx="1561.4"
       cy="199.6"
       r="6.8"
       id="A900-IMA16Dcircle171"
       data-cv-id="PORT-9"
       style="fill:#fff" /><circle
       class="A900-IMA16Dst17"
       cx="1634.7"
       cy="199.6"
       r="6.8"
       id="A900-IMA16Dcircle173"
       data-cv-id="PORT-10"
       style="fill:#fff" /><circle
       class="A900-IMA16Dst17"
       cx="1708"
       cy="199.6"
       r="6.8"
       id="A900-IMA16Dcircle175"
       data-cv-id="PORT-11"
       style="fill:#fff" /><circle
       class="A900-IMA16Dst17"
       cx="1781.4"
       cy="199.6"
       r="6.8"
       id="A900-IMA16Dcircle177"
       data-cv-id="PORT-12"
       style="fill:#fff" /><circle
       class="A900-IMA16Dst17"
       cx="1854.7"
       cy="199.6"
       r="6.8"
       id="A900-IMA16Dcircle179"
       data-cv-id="PORT-13"
       style="fill:#fff" /><circle
       class="A900-IMA16Dst17"
       cx="1928"
       cy="199.6"
       r="6.8"
       id="A900-IMA16Dcircle181"
       data-cv-id="PORT-14"
       style="fill:#fff" /><circle
       class="A900-IMA16Dst17"
       cx="2001.4"
       cy="199.6"
       r="6.8"
       id="A900-IMA16Dcircle183"
       style="fill:#fff"
       data-cv-id="PORT-15" /><g
       id="A900-IMA16Dg185"><path
         class="A900-IMA16Dst18"
         d="M2805.9 237.6c-27-9.4-40.5-39-30.8-65.6 9.4-26.6 39-40.1 65.6-30.4 26.6 9.4 40.5 39 30.8 65.6-9.7 26.7-39 40.2-65.6 30.4h0z"
         id="A900-IMA16Dpath187"
         style="clip-rule:evenodd;fill:#d2d2d2;fill-rule:evenodd;stroke:#5f5f5f;stroke-width:.72000003;stroke-linecap:round;stroke-linejoin:round;stroke-miterlimit:3" /><path
         class="A900-IMA16Dst19"
         d="m2847.5 147.2-62.3 74.3c3.4 5.3 8.3 9.4 14.3 12l62.3-74.3c-3.8-5.2-8.6-9.3-14.3-12h0z"
         id="A900-IMA16Dpath189"
         style="clip-rule:evenodd;fill:#5f5f5f;fill-rule:evenodd;stroke:#5f5f5f;stroke-width:.23999999;stroke-linecap:round;stroke-linejoin:round;stroke-miterlimit:3" /><path
         class="A900-IMA16Dst19"
         d="m2807 191.9-6 6.8c5.6 6 12.4 11.6 19.1 16.1l5.6-7.1 5.3 4.5c6-5.6 11.3-12 16.1-18.8l-5.3-4.5 5.3-6.4c-5.6-6-12.4-11.3-19.1-16.1l-5.3 6.4-6.4-5.3c-6 5.6-11.6 12-16.1 18.8l6.8 5.6h0z"
         id="A900-IMA16Dpath191"
         style="clip-rule:evenodd;fill:#5f5f5f;fill-rule:evenodd;stroke:#5f5f5f;stroke-width:.23999999;stroke-linecap:round;stroke-linejoin:round;stroke-miterlimit:3" /></g><g
       id="A900-IMA16Dg193"><path
         class="A900-IMA16Dst18"
         d="M46.6 237c-27-9.4-40.5-39-30.8-65.6 9.4-26.6 39-40.1 65.6-30.4 26.6 9.4 40.5 39 30.8 65.6-9.7 26.6-38.9 40.1-65.6 30.4h0z"
         id="A900-IMA16Dpath195"
         style="clip-rule:evenodd;fill:#d2d2d2;fill-rule:evenodd;stroke:#5f5f5f;stroke-width:.72000003;stroke-linecap:round;stroke-linejoin:round;stroke-miterlimit:3" /><path
         class="A900-IMA16Dst19"
         d="M88.3 146.6 26 220.8c3.4 5.3 8.3 9.4 14.3 12l62.3-74.3c-3.8-5.2-8.7-9.3-14.3-11.9h0z"
         id="A900-IMA16Dpath197"
         style="clip-rule:evenodd;fill:#5f5f5f;fill-rule:evenodd;stroke:#5f5f5f;stroke-width:.23999999;stroke-linecap:round;stroke-linejoin:round;stroke-miterlimit:3" /><path
         class="A900-IMA16Dst19"
         d="m47.7 191.2-6 6.8c5.6 6 12.4 11.6 19.1 16.1l5.6-7.1 5.3 4.5c6-5.6 11.3-12 16.1-18.8l-5.3-4.5 5.3-6.4c-5.6-6-12.4-11.3-19.1-16.1l-5.3 6.4-6.4-5.3c-6 5.6-11.6 12-16.1 18.8l6.8 5.6h0z"
         id="A900-IMA16Dpath199"
         style="clip-rule:evenodd;fill:#5f5f5f;fill-rule:evenodd;stroke:#5f5f5f;stroke-width:.23999999;stroke-linecap:round;stroke-linejoin:round;stroke-miterlimit:3" /></g></g><g
     id="A900-IMA16DLayer_2"><g
       id="A900-IMA16Dg202"><path
         class="A900-IMA16Dst17"
         d="M898.1 167.1v-1.2c1.1-.1 1.9-.3 2.4-.6s.8-.9 1-1.9h1.2V176H901v-8.9h-2.9z"
         id="A900-IMA16Dpath204"
         style="fill:#fff" /></g><g
       id="A900-IMA16Dg206"><path
         class="A900-IMA16Dst17"
         d="M970.9 173.2c.4-.8 1.1-1.5 2.3-2.2l1.7-1c.8-.4 1.3-.8 1.6-1.1.5-.5.7-1 .7-1.7s-.2-1.3-.7-1.7c-.4-.4-1-.6-1.8-.6-1.1 0-1.8.4-2.2 1.2-.2.4-.3 1.1-.4 1.8h-1.6c0-1.1.2-2 .6-2.7.7-1.2 1.9-1.8 3.6-1.8 1.4 0 2.5.4 3.2 1.2.7.8 1 1.6 1 2.6s-.4 1.9-1.1 2.6c-.4.4-1.1.9-2.2 1.5l-1.2.7c-.6.3-1 .6-1.4.9-.6.5-1 1.1-1.1 1.7h6.9v1.5h-8.6c.1-1.1.3-2.1.7-2.9z"
         id="A900-IMA16Dpath208"
         style="fill:#fff" /></g><g
       id="A900-IMA16Dg210"><path
         class="A900-IMA16Dst17"
         d="M1044.3 175.2c-.7-.8-1-1.8-1-3h1.7c.1.8.2 1.4.5 1.8.4.7 1.2 1 2.2 1 .8 0 1.5-.2 2-.7.5-.5.8-1 .8-1.7 0-.9-.3-1.5-.8-1.8-.5-.3-1.3-.5-2.2-.5h-.6v-1.4h.8c.6 0 1.1-.1 1.5-.3.7-.3 1-.9 1-1.8 0-.6-.2-1.1-.7-1.5-.5-.4-1-.5-1.6-.5-1.1 0-1.8.4-2.2 1.1-.2.4-.3.9-.4 1.7h-1.6c0-.9.2-1.7.6-2.4.6-1.2 1.8-1.8 3.4-1.8 1.3 0 2.3.3 3 .9.7.6 1.1 1.4 1.1 2.5 0 .8-.2 1.4-.6 1.9-.3.3-.6.5-1 .7.7.2 1.2.5 1.6 1.1.4.6.6 1.2.6 1.9 0 1.2-.4 2.2-1.2 2.9-.8.7-1.9 1.1-3.4 1.1-1.7 0-2.8-.4-3.5-1.2z"
         id="A900-IMA16Dpath212"
         style="fill:#fff" /></g><g
       id="A900-IMA16Dg214"><path
         class="A900-IMA16Dst17"
         d="M1122.2 176v-3h-5.5v-1.5l5.8-8h1.3v8.2h1.9v1.4h-1.9v3.1h-1.6zm-.1-4.4v-5.7l-4 5.7h4z"
         id="A900-IMA16Dpath216"
         style="fill:#fff" /></g><g
       id="A900-IMA16Dg218"><path
         class="A900-IMA16Dst17"
         d="M1191.7 172.8c.1.9.5 1.5 1.3 1.9.4.2.8.3 1.3.3.9 0 1.6-.3 2.1-.9.5-.6.7-1.3.7-2 0-.9-.3-1.6-.8-2-.5-.4-1.2-.7-1.9-.7-.5 0-1 .1-1.4.3-.4.2-.7.5-1 .9l-1.4-.1 1-6.8h6.5v1.5h-5.4l-.5 3.5c.3-.2.6-.4.8-.5.5-.2 1-.3 1.6-.3 1.2 0 2.1.4 2.9 1.1.8.7 1.2 1.7 1.2 2.8 0 1.2-.4 2.2-1.1 3.1-.7.9-1.9 1.4-3.5 1.4-1 0-1.9-.3-2.7-.9-.8-.6-1.2-1.5-1.3-2.7h1.6z"
         id="A900-IMA16Dpath220"
         style="fill:#fff" /></g><g
       id="A900-IMA16Dg222"><path
         class="A900-IMA16Dst17"
         d="M1270.9 164.5c.6.7.8 1.5.8 2.3h-1.6c-.1-.5-.2-.9-.4-1.2-.4-.5-1-.8-1.7-.8-.9 0-1.6.4-2.1 1.2-.5.8-.8 2-.9 3.5.4-.5.8-.9 1.4-1.2.5-.2 1.1-.4 1.7-.4 1.1 0 2 .3 2.8 1 .8.7 1.2 1.7 1.2 3 0 1.1-.4 2.2-1.1 3-.7.8-1.8 1.3-3.2 1.3-1.2 0-2.2-.4-3-1.3-.8-.9-1.3-2.4-1.3-4.5 0-1.6.2-2.9.6-4 .7-2.1 2.1-3.1 4-3.1 1.3.1 2.3.5 2.8 1.2zm-1.2 9.6c.4-.6.6-1.2.6-2 0-.6-.2-1.3-.6-1.8-.4-.5-1-.9-2-.9-.7 0-1.3.2-1.8.7-.5.5-.8 1.1-.8 2 0 .8.2 1.5.7 2 .5.5 1.1.8 1.9.8 1 .1 1.6-.2 2-.8z"
         id="A900-IMA16Dpath224"
         style="fill:#fff" /></g><g
       id="A900-IMA16Dg226"><path
         class="A900-IMA16Dst17"
         d="M1345.4 163.7v1.4c-.4.4-.9 1.1-1.6 2-.7.9-1.3 2-1.8 3.1s-.9 2.1-1.2 3c-.2.6-.4 1.5-.7 2.8h-1.7c.4-2.4 1.3-4.8 2.6-7.2.8-1.4 1.6-2.6 2.5-3.6h-7v-1.6h8.9z"
         id="A900-IMA16Dpath228"
         style="fill:#fff" /></g><g
       id="A900-IMA16Dg230"><path
         class="A900-IMA16Dst17"
         d="M1411 168.7c-.5-.5-.7-1.1-.7-1.8 0-.9.3-1.7 1-2.4s1.6-1 2.9-1c1.2 0 2.2.3 2.8 1 .6.7 1 1.4 1 2.2 0 .8-.2 1.4-.6 1.9-.2.3-.6.5-1 .8.5.2.9.5 1.2.8.6.6.8 1.3.8 2.3 0 1.1-.4 2-1.1 2.8-.7.8-1.8 1.2-3.2 1.2-1.2 0-2.3-.3-3.1-1-.8-.7-1.3-1.6-1.3-2.9 0-.7.2-1.4.5-1.9s.9-1 1.6-1.2c-.3-.4-.6-.6-.8-.8zm5.1 5.7c.5-.4.7-1 .7-1.8s-.2-1.4-.7-1.9c-.5-.5-1.1-.6-1.9-.6-.8 0-1.4.2-1.9.6-.5.4-.7 1-.7 1.8 0 .7.2 1.2.7 1.7.5.5 1.1.7 2 .7.7.1 1.3-.1 1.8-.5zm-.3-6.3c.4-.4.6-.9.6-1.4 0-.5-.2-.9-.6-1.3-.4-.4-.9-.6-1.7-.6-.8 0-1.3.2-1.6.6-.3.4-.5.9-.5 1.4 0 .6.2 1.1.7 1.4.4.3 1 .5 1.6.5.5 0 1.1-.2 1.5-.6z"
         id="A900-IMA16Dpath232"
         style="fill:#fff" /></g><g
       id="A900-IMA16Dg234"><path
         class="A900-IMA16Dst17"
         d="M1484.9 173c0 .9.4 1.5 1 1.8.3.2.7.3 1.1.3.8 0 1.4-.3 1.9-.9.5-.6.9-1.9 1.1-3.8-.4.6-.8.9-1.3 1.2-.5.3-1.1.3-1.7.3-1.2 0-2.2-.4-2.9-1.1-.7-.8-1.1-1.7-1.1-2.9 0-1.1.3-2.1 1-3 .7-.9 1.7-1.3 3.1-1.3 1.8 0 3.1.8 3.8 2.5.4.9.6 2 .6 3.4 0 1.5-.2 2.9-.7 4.1-.8 2-2.1 3-3.9 3-1.2 0-2.2-.3-2.8-1-.6-.7-1-1.5-1-2.4h1.8zm4.1-3.2c.5-.4.8-1.1.8-2.2 0-.9-.2-1.6-.7-2.1-.5-.5-1.1-.7-1.8-.7-.8 0-1.4.3-1.8.8-.5.5-.7 1.2-.7 2.1 0 .8.2 1.5.6 2 .4.5 1 .7 1.9.7.6 0 1.2-.2 1.7-.6z"
         id="A900-IMA16Dpath236"
         style="fill:#fff" /></g><g
       id="A900-IMA16Dg238"><path
         class="A900-IMA16Dst17"
         d="M1552.5 167.1v-1.2c1.1-.1 1.9-.3 2.4-.6s.8-.9 1-1.9h1.2V176h-1.7v-8.9h-2.9z"
         id="A900-IMA16Dpath240"
         style="fill:#fff" /><path
         class="A900-IMA16Dst17"
         d="M1569.2 165.5c.6 1 .8 2.5.8 4.3 0 1.7-.3 3.1-.8 4.2-.7 1.6-1.9 2.4-3.6 2.4-1.5 0-2.6-.7-3.4-2-.6-1.1-.9-2.6-.9-4.4 0-1.4.2-2.7.6-3.7.7-1.9 1.9-2.9 3.8-2.9 1.6.1 2.8.7 3.5 2.1zm-1.6 8.4c.5-.7.7-2.1.7-4.1 0-1.4-.2-2.6-.5-3.5-.4-.9-1-1.4-2.1-1.4-.9 0-1.6.4-2 1.3-.4.9-.6 2.2-.6 3.9 0 1.3.1 2.3.4 3.1.4 1.2 1.1 1.8 2.2 1.8.7-.1 1.4-.4 1.9-1.1z"
         id="A900-IMA16Dpath242"
         style="fill:#fff" /></g><g
       id="A900-IMA16Dg244"><path
         class="A900-IMA16Dst17"
         d="M1626.4 167.1v-1.2c1.1-.1 1.9-.3 2.4-.6s.8-.9 1-1.9h1.2V176h-1.7v-8.9h-2.9z"
         id="A900-IMA16Dpath246"
         style="fill:#fff" /><path
         class="A900-IMA16Dst17"
         d="M1635.1 167.1v-1.2c1.1-.1 1.9-.3 2.4-.6s.8-.9 1-1.9h1.2V176h-1.7v-8.9h-2.9z"
         id="A900-IMA16Dpath248"
         style="fill:#fff" /></g><g
       id="A900-IMA16Dg250"><path
         class="A900-IMA16Dst17"
         d="M1699 167.1v-1.2c1.1-.1 1.9-.3 2.4-.6s.8-.9 1-1.9h1.2V176h-1.7v-8.9h-2.9z"
         id="A900-IMA16Dpath252"
         style="fill:#fff" /><path
         class="A900-IMA16Dst17"
         d="M1708.5 173.2c.4-.8 1.2-1.5 2.3-2.2l1.7-1c.8-.4 1.3-.8 1.6-1.1.5-.5.7-1 .7-1.7s-.2-1.3-.7-1.7c-.4-.4-1-.6-1.8-.6-1.1 0-1.8.4-2.2 1.2-.2.4-.3 1.1-.4 1.8h-1.6c0-1.1.2-2 .6-2.7.7-1.2 1.9-1.8 3.6-1.8 1.4 0 2.5.4 3.2 1.2.7.8 1 1.6 1 2.6s-.4 1.9-1.1 2.6c-.4.4-1.1.9-2.2 1.5l-1.2.7c-.6.3-1 .6-1.4.9-.6.5-1 1.1-1.1 1.7h6.9v1.5h-8.6c.1-1.1.4-2.1.7-2.9z"
         id="A900-IMA16Dpath254"
         style="fill:#fff" /></g><g
       id="A900-IMA16Dg256"><path
         class="A900-IMA16Dst17"
         d="M1772.3 167.1v-1.2c1.1-.1 1.9-.3 2.4-.6s.8-.9 1-1.9h1.2V176h-1.7v-8.9h-2.9z"
         id="A900-IMA16Dpath258"
         style="fill:#fff" /><path
         class="A900-IMA16Dst17"
         d="M1782 175.2c-.7-.8-1-1.8-1-3h1.7c.1.8.2 1.4.5 1.8.4.7 1.2 1 2.2 1 .8 0 1.5-.2 2-.7.5-.5.8-1 .8-1.7 0-.9-.3-1.5-.8-1.8-.5-.3-1.3-.5-2.2-.5h-.6v-1.4h.8c.6 0 1.1-.1 1.5-.3.7-.3 1-.9 1-1.8 0-.6-.2-1.1-.7-1.5-.5-.4-1-.5-1.6-.5-1.1 0-1.8.4-2.2 1.1-.2.4-.3.9-.4 1.7h-1.6c0-.9.2-1.7.6-2.4.6-1.2 1.8-1.8 3.4-1.8 1.3 0 2.3.3 3 .9.7.6 1.1 1.4 1.1 2.5 0 .8-.2 1.4-.6 1.9-.3.3-.6.5-1 .7.7.2 1.2.5 1.6 1.1.4.6.6 1.2.6 1.9 0 1.2-.4 2.2-1.2 2.9-.8.7-1.9 1.1-3.4 1.1-1.7 0-2.8-.4-3.5-1.2z"
         id="A900-IMA16Dpath260"
         style="fill:#fff" /></g><g
       id="A900-IMA16Dg262"><path
         class="A900-IMA16Dst17"
         d="M1845.6 167.1v-1.2c1.1-.1 1.9-.3 2.4-.6s.8-.9 1-1.9h1.2V176h-1.7v-8.9h-2.9z"
         id="A900-IMA16Dpath264"
         style="fill:#fff" /><path
         class="A900-IMA16Dst17"
         d="M1859.8 176v-3h-5.5v-1.5l5.8-8h1.3v8.2h1.9v1.4h-1.9v3.1h-1.6zm0-4.4v-5.7l-4 5.7h4z"
         id="A900-IMA16Dpath266"
         style="fill:#fff" /></g><g
       id="A900-IMA16Dg268"><path
         class="A900-IMA16Dst17"
         d="M1918.8 167.1v-1.2c1.1-.1 1.9-.3 2.4-.6s.8-.9 1-1.9h1.2V176h-1.7v-8.9h-2.9z"
         id="A900-IMA16Dpath270"
         style="fill:#fff" /><path
         class="A900-IMA16Dst17"
         d="M1929.3 172.8c.1.9.5 1.5 1.3 1.9.4.2.8.3 1.3.3.9 0 1.6-.3 2.1-.9.5-.6.7-1.3.7-2 0-.9-.3-1.6-.8-2-.5-.4-1.2-.7-1.9-.7-.5 0-1 .1-1.4.3-.4.2-.7.5-1 .9l-1.4-.1 1-6.8h6.5v1.5h-5.4l-.5 3.5c.3-.2.6-.4.8-.5.5-.2 1-.3 1.6-.3 1.2 0 2.1.4 2.9 1.1.8.7 1.2 1.7 1.2 2.8 0 1.2-.4 2.2-1.1 3.1-.7.9-1.9 1.4-3.5 1.4-1 0-1.9-.3-2.7-.9-.8-.6-1.2-1.5-1.3-2.7h1.6z"
         id="A900-IMA16Dpath272"
         style="fill:#fff" /></g><g
       id="A900-IMA16Dg274"><path
         class="A900-IMA16Dst17"
         d="M1992.1 167.1v-1.2c1.1-.1 1.9-.3 2.4-.6s.8-.9 1-1.9h1.2V176h-1.7v-8.9h-2.9z"
         id="A900-IMA16Dpath276"
         style="fill:#fff" /><path
         class="A900-IMA16Dst17"
         d="M2008.6 164.5c.6.7.8 1.5.8 2.3h-1.6c-.1-.5-.2-.9-.4-1.2-.4-.5-1-.8-1.7-.8-.9 0-1.6.4-2.1 1.2-.5.8-.8 2-.9 3.5.4-.5.8-.9 1.4-1.2.5-.2 1.1-.4 1.7-.4 1.1 0 2 .3 2.8 1 .8.7 1.2 1.7 1.2 3 0 1.1-.4 2.2-1.1 3-.7.8-1.8 1.3-3.2 1.3-1.2 0-2.2-.4-3-1.3-.8-.9-1.3-2.4-1.3-4.5 0-1.6.2-2.9.6-4 .7-2.1 2.1-3.1 4-3.1 1.3.1 2.2.5 2.8 1.2zm-1.2 9.6c.4-.6.6-1.2.6-2 0-.6-.2-1.3-.6-1.8-.4-.5-1-.9-2-.9-.7 0-1.3.2-1.8.7-.5.5-.8 1.1-.8 2 0 .8.2 1.5.7 2 .5.5 1.1.8 1.9.8 1 .1 1.6-.2 2-.8z"
         id="A900-IMA16Dpath278"
         style="fill:#fff" /></g></g><text
     xml:space="preserve"
     style="font-style:normal;font-weight:normal;font-size:40px;line-height:1.25;font-family:sans-serif;letter-spacing:0px;word-spacing:0px;fill:#000000;fill-opacity:1;stroke:none"
     x="425.23587"
     y="156.84106"
     id="text150"><tspan
       sodipodi:role="line"
       id="tspan148"
       x="425.23587"
       y="193.33427" /></text>
</svg>