<?xml version="1.0" encoding="UTF-8" standalone="no"?>
<svg
   xmlns:dc="http://purl.org/dc/elements/1.1/"
   xmlns:cc="http://creativecommons.org/ns#"
   xmlns:rdf="http://www.w3.org/1999/02/22-rdf-syntax-ns#"
   xmlns:svg="http://www.w3.org/2000/svg"
   xmlns="http://www.w3.org/2000/svg"
   xmlns:sodipodi="http://sodipodi.sourceforge.net/DTD/sodipodi-0.dtd"
   xmlns:inkscape="http://www.inkscape.org/namespaces/inkscape"
   version="1.1"
   id="A900-FILLER-LCLayer_1"
   x="0"
   y="0"
   viewBox="0 0 462.23973 58.239999"
   xml:space="preserve"
   width="462.24"
   height="58.24"
   sodipodi:docname="A900-FILLER-LC.svg"
   inkscape:version="0.92.1 r15371"><metadata
     id="metadata30"><rdf:RDF><cc:Work
         rdf:about=""><dc:format>image/svg+xml</dc:format><dc:type
           rdf:resource="http://purl.org/dc/dcmitype/StillImage" /></cc:Work></rdf:RDF></metadata><defs
     id="defs28" /><sodipodi:namedview
     pagecolor="#ffffff"
     bordercolor="#666666"
     borderopacity="1"
     objecttolerance="10"
     gridtolerance="10"
     guidetolerance="10"
     inkscape:pageopacity="0"
     inkscape:pageshadow="2"
     inkscape:window-width="1920"
     inkscape:window-height="986"
     id="namedview26"
     showgrid="false"
     inkscape:zoom="3.7880643"
     inkscape:cx="231.12085"
     inkscape:cy="29.11975"
     inkscape:window-x="-11"
     inkscape:window-y="-11"
     inkscape:window-maximized="1"
     inkscape:current-layer="A900-FILLER-LCLayer_1" /><style
     type="text/css"
     id="A900-FILLER-LCstyle3">.st1{fill:gray}.st3,.st4,.st5,.st6{fill-rule:evenodd;clip-rule:evenodd;fill:#d8d8d8;stroke:#a5a5a5;stroke-width:.24;stroke-linecap:round;stroke-linejoin:round;stroke-miterlimit:3}.st4,.st5,.st6{stroke:#9a9a9a}.st5,.st6{fill:#f3f3f3;stroke:#a5a5a5;stroke-width:.72}.st6{fill:#a5a5a5;stroke-width:.24}</style><g
     id="A900-FILLER-LCFiller4"
     transform="matrix(1.00022 0 0 1.00241 -.08 -.1)"><g
       id="A900-FILLER-LCg6"><path
         d="M4.6 57.6c-2.2 0-4-1.8-4-4.1L.7 4.6c0-2.2 1.8-4 4-4l452.9.1c2.2 0 4 1.8 4 4l-.1 49c0 2.2-1.8 4-4 4L4.6 57.6z"
         id="A900-FILLER-LCpath8"
         style="clip-rule:evenodd;fill:#eee;fill-rule:evenodd" /><path
         class="st1"
         d="m4.7 1.1 452.9.1c1.9 0 3.5 1.6 3.5 3.5l-.1 49c0 2-1.5 3.5-3.5 3.5L4.6 57.1c-1.9 0-3.5-1.6-3.5-3.6l.1-48.9c0-1.9 1.5-3.5 3.5-3.5m0-1C2.2.1.2 2.1.2 4.6L.1 53.5c0 2.5 2 4.6 4.5 4.6l452.9.1c2.5 0 4.5-2 4.5-4.5l.1-49c0-2.5-2-4.5-4.5-4.5L4.7.1z"
         id="A900-FILLER-LCpath10"
         style="fill:gray" /></g><g
       id="A900-FILLER-LCg12"><path
         d="M9.5 52.6c-2.2 0-3.9-1.5-3.9-3.3l.1-40.5c0-1.8 1.7-3.2 3.9-3.2h443.1c2.1 0 3.9 1.5 3.9 3.2l-.1 40.5c0 1.8-1.7 3.2-3.9 3.2l-443.1.1z"
         id="A900-FILLER-LCpath14"
         style="clip-rule:evenodd;fill:#bfbfbf;fill-rule:evenodd" /><path
         class="st1"
         d="M9.6 6.1h443.1c1.8 0 3.4 1.2 3.4 2.7l-.1 40.6c0 1.5-1.5 2.7-3.4 2.7H9.5c-1.8 0-3.4-1.3-3.4-2.8l.1-40.5c0-1.5 1.5-2.7 3.4-2.7m0-1c-2.5 0-4.4 1.6-4.4 3.7l-.1 40.5c0 2.1 2 3.8 4.4 3.8h443.1c2.5 0 4.4-1.6 4.4-3.7l.1-40.5c0-2-2-3.7-4.4-3.7L9.6 5.1z"
         id="A900-FILLER-LCpath16"
         style="fill:gray" /></g><g
       id="A900-FILLER-LCg18"><g
         id="A900-FILLER-LCg20"><path
           class="st3"
           d="M.2 16.7h9.6c6.2-.1 11.3 5.1 11.3 11.4 0 6.4-5.1 11.5-11.3 11.4H.2V16.7h0z"
           id="A900-FILLER-LCpath22"
           style="clip-rule:evenodd;fill:#d8d8d8;fill-rule:evenodd;stroke:#a5a5a5;stroke-width:.23968542;stroke-linecap:round;stroke-linejoin:round;stroke-miterlimit:3" /><g
           id="A900-FILLER-LCg24"><path
             class="st4"
             d="M4.4 22.2c3.2-3.4 8.6-3.4 12-.1 3.3 3.3 3.2 8.7-.1 11.9-3.3 3.3-8.6 3.2-11.8 0-3.2-3.3-3.3-8.5-.1-11.8h0z"
             id="A900-FILLER-LCpath26"
             style="clip-rule:evenodd;fill:#d8d8d8;fill-rule:evenodd;stroke:#9a9a9a;stroke-width:.23968542;stroke-linecap:round;stroke-linejoin:round;stroke-miterlimit:3" /><path
             class="st5"
             d="M5.5 23.4c-2.6 2.6-2.6 6.9.1 9.5 2.6 2.6 6.9 2.7 9.5.1 2.6-2.6 2.6-6.9 0-9.5-2.7-2.7-6.9-2.7-9.6-.1h0z"
             id="A900-FILLER-LCpath28"
             style="clip-rule:evenodd;fill:#f3f3f3;fill-rule:evenodd;stroke:#a5a5a5;stroke-width:.71905631;stroke-linecap:round;stroke-linejoin:round;stroke-miterlimit:3" /><path
             class="st3"
             d="M15.7 31.7 4.1 26.3c.1-.7.4-1.3.8-1.8l11.6 5.4c-.1.7-.3 1.3-.8 1.8h0z"
             id="A900-FILLER-LCpath30"
             style="clip-rule:evenodd;fill:#d8d8d8;fill-rule:evenodd;stroke:#a5a5a5;stroke-width:.23968542;stroke-linecap:round;stroke-linejoin:round;stroke-miterlimit:3" /><path
             class="st6"
             d="m8.6 28.7-.9-.4c.3-.8.7-1.6 1.1-2.4l.8.4.3-.7c.8.3 1.7.7 2.4 1.1l-.3.7.8.4c-.3.8-.7 1.7-1.1 2.4l-.7-.4-.4.8c-.8-.2-1.6-.7-2.4-1.1l.4-.8h0z"
             id="A900-FILLER-LCpath32"
             style="clip-rule:evenodd;fill:#a5a5a5;fill-rule:evenodd;stroke:#a5a5a5;stroke-width:.23968542;stroke-linecap:round;stroke-linejoin:round;stroke-miterlimit:3" /></g></g><g
         id="A900-FILLER-LCg34"><path
           class="st3"
           d="M462 16.7h-9.6c-6.2-.1-11.2 5.1-11.2 11.4 0 6.4 5 11.5 11.3 11.4h9.6l-.1-22.8h0z"
           id="A900-FILLER-LCpath36"
           style="clip-rule:evenodd;fill:#d8d8d8;fill-rule:evenodd;stroke:#a5a5a5;stroke-width:.23968542;stroke-linecap:round;stroke-linejoin:round;stroke-miterlimit:3" /><g
           id="A900-FILLER-LCg38"><path
             class="st4"
             d="M457.9 34.1c3.4-3.2 3.4-8.6.1-11.9-3.3-3.4-8.7-3.3-11.9.1-3.2 3.3-3.1 8.5.1 11.8 3.1 3.1 8.4 3.2 11.7 0h0z"
             id="A900-FILLER-LCpath40"
             style="clip-rule:evenodd;fill:#d8d8d8;fill-rule:evenodd;stroke:#9a9a9a;stroke-width:.23968542;stroke-linecap:round;stroke-linejoin:round;stroke-miterlimit:3" /><path
             class="st5"
             d="M456.7 32.9c-2.6 2.6-6.9 2.6-9.5-.1-2.6-2.6-2.6-6.8 0-9.5 2.6-2.6 6.9-2.6 9.5 0 2.6 2.7 2.6 7 0 9.6h0z"
             id="A900-FILLER-LCpath42"
             style="clip-rule:evenodd;fill:#f3f3f3;fill-rule:evenodd;stroke:#a5a5a5;stroke-width:.71905631;stroke-linecap:round;stroke-linejoin:round;stroke-miterlimit:3" /><path
             class="st3"
             d="m448.4 22.8 5.4 11.6c.7-.1 1.3-.4 1.8-.8L450.2 22c-.7 0-1.3.3-1.8.8h0z"
             id="A900-FILLER-LCpath44"
             style="clip-rule:evenodd;fill:#d8d8d8;fill-rule:evenodd;stroke:#a5a5a5;stroke-width:.23968542;stroke-linecap:round;stroke-linejoin:round;stroke-miterlimit:3" /><path
             class="st6"
             d="m451.4 29.9.4.8c.8-.3 1.6-.7 2.4-1.1l-.4-.8.7-.3c-.3-.8-.7-1.7-1.1-2.4l-.7.3-.4-.8c-.8.3-1.7.7-2.4 1.1l.4.8-.8.4c.2.8.7 1.6 1.1 2.4l.8-.4h0z"
             id="A900-FILLER-LCpath46"
             style="clip-rule:evenodd;fill:#a5a5a5;fill-rule:evenodd;stroke:#a5a5a5;stroke-width:.23968542;stroke-linecap:round;stroke-linejoin:round;stroke-miterlimit:3" /></g></g></g></g><text
     xml:space="preserve"
     style="font-style:normal;font-weight:normal;font-size:40px;line-height:1.25;font-family:sans-serif;letter-spacing:0px;word-spacing:0px;fill:#000000;fill-opacity:1;stroke:none"
     x="73.916382"
     y="28.67345"
     id="text34"><tspan
       sodipodi:role="line"
       id="tspan32"
       x="73.916382"
       y="65.166664" /></text>
</svg>