<?xml version="1.0" encoding="UTF-8" standalone="no"?>
<svg
   xmlns:dc="http://purl.org/dc/elements/1.1/"
   xmlns:cc="http://creativecommons.org/ns#"
   xmlns:rdf="http://www.w3.org/1999/02/22-rdf-syntax-ns#"
   xmlns:svg="http://www.w3.org/2000/svg"
   xmlns="http://www.w3.org/2000/svg"
   xmlns:sodipodi="http://sodipodi.sourceforge.net/DTD/sodipodi-0.dtd"
   xmlns:inkscape="http://www.inkscape.org/namespaces/inkscape"
   version="1.1"
   x="0"
   y="0"
   viewBox="0 0 2886 377.70001"
   xml:space="preserve"
   id="A900-IMA32Dsvg2"
   width="2886"
   height="377.7"
   sodipodi:docname="A900-IMA32D.svg"
   inkscape:version="0.92.1 r15371"><metadata
     id="metadata240"><rdf:RDF><cc:Work
         rdf:about=""><dc:format>image/svg+xml</dc:format><dc:type
           rdf:resource="http://purl.org/dc/dcmitype/StillImage" /></cc:Work></rdf:RDF></metadata><defs
     id="defs238" /><sodipodi:namedview
     pagecolor="#ffffff"
     bordercolor="#666666"
     borderopacity="1"
     objecttolerance="10"
     gridtolerance="10"
     guidetolerance="10"
     inkscape:pageopacity="0"
     inkscape:pageshadow="2"
     inkscape:window-width="1920"
     inkscape:window-height="986"
     id="namedview236"
     showgrid="false"
     inkscape:zoom="0.60672211"
     inkscape:cx="1443"
     inkscape:cy="188.85001"
     inkscape:window-x="-11"
     inkscape:window-y="-11"
     inkscape:window-maximized="1"
     inkscape:current-layer="A900-IMA32Dsvg2" /><style
     type="text/css"
     id="A900-IMA32Dstyle4">.A900-IMA32Dst1,.A900-IMA32Dst2,.A900-IMA32Dst3{fill-rule:evenodd;clip-rule:evenodd;fill:#dcdcdc;stroke:gray;stroke-linecap:round;stroke-linejoin:round;stroke-miterlimit:10}.A900-IMA32Dst2,.A900-IMA32Dst3{fill:#dadada}.A900-IMA32Dst3{fill:#c3c3c3;stroke-width:.24}.A900-IMA32Dst4{fill:#3e3f3b}.A900-IMA32Dst6,.A900-IMA32Dst7{fill-rule:evenodd;clip-rule:evenodd}.A900-IMA32Dst6{fill:#ccc;stroke:#9a9a9a;stroke-width:.24;stroke-linecap:round;stroke-linejoin:round;stroke-miterlimit:10}.A900-IMA32Dst7{fill:#e6e6e6}.A900-IMA32Dst8{stroke:#e6e6e6;stroke-width:.24;stroke-linecap:round;stroke-linejoin:round;stroke-miterlimit:10}.A900-IMA32Dst10,.A900-IMA32Dst8,.A900-IMA32Dst9{fill-rule:evenodd;clip-rule:evenodd;fill:silver}.A900-IMA32Dst10{fill:#333}.A900-IMA32Dst12{fill:none;stroke:silver;stroke-width:1.2;stroke-miterlimit:3;stroke-dasharray:.48,.24}.A900-IMA32Dst13,.A900-IMA32Dst14,.A900-IMA32Dst16,.A900-IMA32Dst17,.A900-IMA32Dst19,.A900-IMA32Dst20{fill-rule:evenodd;clip-rule:evenodd;fill:#d8d8d8;stroke:gray;stroke-width:.24;stroke-linecap:round;stroke-linejoin:round;stroke-miterlimit:3}.A900-IMA32Dst14,.A900-IMA32Dst16,.A900-IMA32Dst17,.A900-IMA32Dst19,.A900-IMA32Dst20{fill:#737373}.A900-IMA32Dst16,.A900-IMA32Dst17,.A900-IMA32Dst19,.A900-IMA32Dst20{fill:#ccc;stroke:#9a9a9a}.A900-IMA32Dst17,.A900-IMA32Dst19,.A900-IMA32Dst20{fill:silver;stroke:#e6e6e6}.A900-IMA32Dst19,.A900-IMA32Dst20{fill:#d2d2d2;stroke:#5f5f5f;stroke-width:.72}.A900-IMA32Dst20{fill:#5f5f5f;stroke-width:.24}.A900-IMA32Dst21{fill:#fff}</style><g
     id="A900-IMA32Dg3798"><g
       id="A900-IMA32DLayer_1"><g
         id="A900-IMA32Dg7"><path
           id="A900-IMA32Dpath9"
           d="m28.6 14.7 2828.8.7c15.4 0 28.1 12.4 28.1 28.1V349c0 15.7-12.7 28.1-28.1 28.1l-2828.8-.3C12.9 376.8.5 364.1.5 348.7V42.8c0-15.7 12.4-28.1 28.1-28.1h0z"
           style="clip-rule:evenodd;fill:#bfbfbf;fill-rule:evenodd;stroke:gray;stroke-linecap:round;stroke-linejoin:round;stroke-miterlimit:10" /><path
           id="A900-IMA32Dpath11"
           d="M2742 8.4V7.2c-.4-3.4-3.4-6-6.7-6L183.8.5c-3.4 0-6.4 2.6-6.7 6.4v7.8h6.7l2551.5.4h6.7V8.4h0z"
           class="A900-IMA32Dst1"
           style="clip-rule:evenodd;fill:#dcdcdc;fill-rule:evenodd;stroke:gray;stroke-linecap:round;stroke-linejoin:round;stroke-miterlimit:10" /><path
           id="A900-IMA32Drect13"
           class="A900-IMA32Dst2"
           style="clip-rule:evenodd;fill:#dadada;fill-rule:evenodd;stroke:gray;stroke-linecap:round;stroke-linejoin:round;stroke-miterlimit:10"
           d="M.5 321.3h374v55.5H.5z" /><path
           id="A900-IMA32Drect15"
           class="A900-IMA32Dst3"
           style="clip-rule:evenodd;fill:#c3c3c3;fill-rule:evenodd;stroke:gray;stroke-width:.23999999;stroke-linecap:round;stroke-linejoin:round;stroke-miterlimit:10"
           d="M139.9 300.3h63.3v21h-63.3z" /><path
           id="A900-IMA32Drect17"
           class="A900-IMA32Dst2"
           style="clip-rule:evenodd;fill:#dadada;fill-rule:evenodd;stroke:gray;stroke-linecap:round;stroke-linejoin:round;stroke-miterlimit:10"
           d="M2511.1 322.1h374.4v55.1h-374.4z" /><path
           id="A900-IMA32Drect19"
           class="A900-IMA32Dst3"
           style="clip-rule:evenodd;fill:#c3c3c3;fill-rule:evenodd;stroke:gray;stroke-width:.23999999;stroke-linecap:round;stroke-linejoin:round;stroke-miterlimit:10"
           d="M2682.4 300.7h63.7v21.4h-63.7z" /><path
           id="A900-IMA32Dpolygon21"
           class="A900-IMA32Dst1"
           style="clip-rule:evenodd;fill:#dcdcdc;fill-rule:evenodd;stroke:gray;stroke-linecap:round;stroke-linejoin:round;stroke-miterlimit:10"
           d="M374.5 376.8v-14.3l2136.6.8v13.8z" /><g
           id="A900-IMA32Dg23"><path
             id="A900-IMA32Dpath25"
             d="m2616.4 56.1-3.3 9.9h-4.2l10.7-31.6h4.9l10.8 31.6h-4.4l-3.4-9.9h-11.1zm10.4-3.2-3.1-9.1c-.7-2.1-1.2-3.9-1.6-5.8h-.1c-.5 1.9-1 3.8-1.6 5.7l-3.1 9.1h9.5z"
             class="A900-IMA32Dst4"
             style="fill:#3e3f3b" /><path
             id="A900-IMA32Dpath27"
             d="M2640 63.2c.9.1 1.9 0 3.3-.1 2.4-.3 4.6-1.3 6.4-3 2-1.8 3.5-4.5 4-8.1h-.1c-1.7 2.1-4.1 3.3-7.2 3.3-5.5 0-9-4.1-9-9.3 0-5.8 4.2-10.8 10.4-10.8s10.1 5.1 10.1 12.8c0 6.7-2.2 11.4-5.2 14.3-2.3 2.3-5.6 3.7-8.9 4.1-1.5.2-2.8.3-3.8.2v-3.4zm1.5-17.6c0 3.8 2.3 6.5 5.9 6.5 2.8 0 4.9-1.4 6-3.2.2-.4.4-.8.4-1.5 0-5.2-1.9-9.2-6.2-9.2-3.6 0-6.1 3.1-6.1 7.4z"
             class="A900-IMA32Dst4"
             style="fill:#3e3f3b" /><path
             id="A900-IMA32Dpath29"
             d="M2679.3 50.5c0 10.4-3.8 16.1-10.6 16.1-5.9 0-10-5.6-10.1-15.6 0-10.2 4.4-15.8 10.6-15.8 6.4-.1 10.1 5.6 10.1 15.3zm-16.5.5c0 7.9 2.4 12.4 6.2 12.4 4.2 0 6.2-4.9 6.2-12.7 0-7.5-1.9-12.4-6.2-12.4-3.6 0-6.2 4.4-6.2 12.7z"
             class="A900-IMA32Dst4"
             style="fill:#3e3f3b" /><path
             id="A900-IMA32Dpath31"
             d="M2700.7 50.5c0 10.4-3.8 16.1-10.6 16.1-5.9 0-10-5.6-10.1-15.6 0-10.2 4.4-15.8 10.6-15.8 6.4-.1 10.1 5.6 10.1 15.3zm-16.5.5c0 7.9 2.4 12.4 6.2 12.4 4.2 0 6.2-4.9 6.2-12.7 0-7.5-1.9-12.4-6.2-12.4-3.6 0-6.2 4.4-6.2 12.7z"
             class="A900-IMA32Dst4"
             style="fill:#3e3f3b" /><path
             id="A900-IMA32Dpath33"
             d="M2712.7 51.9v3h-11.6v-3h11.6z"
             class="A900-IMA32Dst4"
             style="fill:#3e3f3b" /><path
             id="A900-IMA32Dpath35"
             d="M2720.2 34.5v31.6h-4.1V34.5h4.1z"
             class="A900-IMA32Dst4"
             style="fill:#3e3f3b" /><path
             id="A900-IMA32Dpath37"
             d="M2753.6 52.2c-.2-4.4-.5-9.7-.5-13.6h-.1c-1.1 3.7-2.4 7.6-4 12l-5.6 15.3h-3.1l-5.1-15c-1.5-4.5-2.8-8.5-3.7-12.3h-.1c-.1 3.9-.3 9.2-.6 14l-.8 13.5h-3.9l2.2-31.6h5.2l5.4 15.3c1.3 3.9 2.4 7.4 3.2 10.6h.1c.8-3.2 1.9-6.7 3.3-10.6l5.6-15.3h5.2l2 31.6h-4l-.7-13.9z"
             class="A900-IMA32Dst4"
             style="fill:#3e3f3b" /><path
             id="A900-IMA32Dpath39"
             d="m2764 56.1-3.3 9.9h-4.2l10.7-31.6h4.9l10.8 31.6h-4.4l-3.4-9.9H2764zm10.4-3.2-3.1-9.1c-.7-2.1-1.2-3.9-1.6-5.8h-.1c-.5 1.9-1 3.8-1.6 5.7l-3.1 9.1h9.5z"
             class="A900-IMA32Dst4"
             style="fill:#3e3f3b" /></g><g
           id="A900-IMA32Dg41"><path
             id="A900-IMA32Dpath43"
             d="M2786.3 61.3c1.2.7 3.9 1.9 6.7 1.9 5.3 0 6.9-3.4 6.9-5.9 0-4.3-3.9-6.1-7.9-6.1h-2.3v-3.1h2.3c3 0 6.8-1.5 6.8-5.2 0-2.4-1.5-4.6-5.3-4.6-2.4 0-4.8 1.1-6.1 2l-1.1-3c1.6-1.2 4.7-2.3 8-2.3 6 0 8.7 3.6 8.7 7.3 0 3.1-1.9 5.8-5.6 7.2v.1c3.7.7 6.8 3.6 6.8 7.8 0 4.9-3.8 9.1-11.1 9.1-3.4 0-6.4-1.1-7.9-2.1l1.1-3.1z"
             class="A900-IMA32Dst4"
             style="fill:#3e3f3b" /><path
             id="A900-IMA32Dpath45"
             d="M2806.7 66.1v-2.5l3.2-3.1c7.8-7.4 11.3-11.3 11.3-15.9 0-3.1-1.5-5.9-6-5.9-2.8 0-5.1 1.4-6.5 2.6l-1.3-2.9c2.1-1.8 5.1-3.1 8.6-3.1 6.6 0 9.3 4.5 9.3 8.9 0 5.6-4.1 10.2-10.5 16.3l-2.4 2.2v.1h13.7v3.4h-19.4z"
             class="A900-IMA32Dst4"
             style="fill:#3e3f3b" /></g><g
           id="A900-IMA32Dg47"><path
             id="A900-IMA32Dpath49"
             d="M2829.4 34.9c2.5-.4 5.4-.7 8.7-.7 5.9 0 10 1.4 12.8 3.9 2.8 2.6 4.5 6.2 4.5 11.3 0 5.2-1.6 9.4-4.5 12.3-3 3-7.8 4.5-14 4.5-2.9 0-5.3-.1-7.4-.4V34.9zm4.1 27.9c1 .2 2.5.2 4.1.2 8.7 0 13.4-4.9 13.4-13.4 0-7.4-4.2-12.2-12.8-12.2-2.1 0-3.7.2-4.8.4v25z"
             class="A900-IMA32Dst4"
             style="fill:#3e3f3b" /></g><g
           id="A900-IMA32Dg51"><path
             id="A900-IMA32Dpath53"
             d="M738.1 300c2.1-.3 4.8-.6 8.3-.6 4.3 0 7.4 1 9.4 2.8 1.8 1.6 2.9 4 2.9 7s-.9 5.4-2.6 7.2c-2.3 2.4-6 3.7-10.3 3.7-1.3 0-2.5 0-3.5-.3v13.5H738V300zm4.3 16.2c.9.2 2.1.3 3.6.3 5.2 0 8.4-2.5 8.4-7.2 0-4.4-3.1-6.6-7.9-6.6-1.9 0-3.3.2-4.1.3v13.2z"
             class="A900-IMA32Dst4"
             style="fill:#3e3f3b" /><path
             id="A900-IMA32Dpath55"
             d="M794.1 316.1c0 11.6-7 17.7-15.6 17.7-8.9 0-15.1-6.9-15.1-17 0-10.7 6.6-17.6 15.6-17.6 9.2-.1 15.1 6.9 15.1 16.9zm-26.1.5c0 7.2 3.9 13.6 10.7 13.6 6.9 0 10.8-6.3 10.8-14 0-6.7-3.5-13.7-10.7-13.7-7.2.1-10.8 6.7-10.8 14.1z"
             class="A900-IMA32Dst4"
             style="fill:#3e3f3b" /><path
             id="A900-IMA32Dpath57"
             d="M797.3 300.1c2.2-.4 5.3-.7 8.3-.7 4.6 0 7.6.8 9.7 2.7 1.7 1.5 2.6 3.8 2.6 6.4 0 4.4-2.8 7.4-6.3 8.6v.1c2.6.9 4.1 3.3 4.9 6.8 1.1 4.7 1.9 7.9 2.6 9.2h-4.5c-.5-.9-1.3-3.8-2.2-8-1-4.6-2.8-6.4-6.7-6.5h-4.1v14.6h-4.3v-33.2zm4.3 15.3h4.4c4.6 0 7.6-2.5 7.6-6.4 0-4.3-3.1-6.2-7.7-6.3-2.1 0-3.6.2-4.3.4v12.3z"
             class="A900-IMA32Dst4"
             style="fill:#3e3f3b" /><path
             id="A900-IMA32Dpath59"
             d="M833.2 303.3H823v-3.7h24.9v3.7h-10.3v29.9h-4.4v-29.9z"
             class="A900-IMA32Dst4"
             style="fill:#3e3f3b" /><path
             id="A900-IMA32Dpath61"
             d="M851.3 327.9c1.9 1.2 4.8 2.2 7.8 2.2 4.4 0 7-2.3 7-5.7 0-3.1-1.8-4.9-6.3-6.7-5.5-1.9-8.9-4.8-8.9-9.5 0-5.2 4.3-9.1 10.9-9.1 3.4 0 5.9.8 7.4 1.6l-1.2 3.5c-1.1-.6-3.3-1.6-6.4-1.6-4.6 0-6.3 2.7-6.3 5 0 3.1 2 4.7 6.7 6.5 5.7 2.2 8.6 4.9 8.6 9.9 0 5.2-3.8 9.7-11.8 9.7-3.2 0-6.8-.9-8.6-2.1l1.1-3.7z"
             class="A900-IMA32Dst4"
             style="fill:#3e3f3b" /></g><g
           id="A900-IMA32Dg63"><path
             id="A900-IMA32Dpath65"
             d="M910.6 316.7c0 11-4.1 17.1-11.3 17.1-6.3 0-10.6-5.9-10.7-16.7 0-10.9 4.7-16.8 11.3-16.8 6.8 0 10.7 6.1 10.7 16.4zm-17.6.5c0 8.4 2.6 13.2 6.6 13.2 4.5 0 6.6-5.2 6.6-13.5 0-8-2-13.2-6.6-13.2-3.8 0-6.6 4.7-6.6 13.5z"
             class="A900-IMA32Dst4"
             style="fill:#3e3f3b" /></g><g
           id="A900-IMA32Dg67"><path
             id="A900-IMA32Dpath69"
             d="M923.5 318.1v3.2h-12.3v-3.2h12.3z"
             class="A900-IMA32Dst4"
             style="fill:#3e3f3b" /><path
             id="A900-IMA32Dpath71"
             d="m934.9 304.9-5.7 3-.8-3.3 7.1-3.8h3.7v32.4H935v-28.3z"
             class="A900-IMA32Dst4"
             style="fill:#3e3f3b" /></g><g
           id="A900-IMA32Dg73"><path
             id="A900-IMA32Dpath75"
             d="M968 304.5h-12.4l-1.2 8.3c.7-.1 1.4-.2 2.6-.2 2.5 0 5 .5 7 1.7 2.5 1.4 4.6 4.2 4.6 8.3 0 6.3-5 11.1-12.1 11.1-3.5 0-6.5-1-8.1-2l1.1-3.3c1.3.8 4 1.8 6.9 1.8 4.1 0 7.7-2.7 7.7-7 0-4.2-2.8-7.2-9.3-7.2-1.8 0-3.3.2-4.5.3l2.1-15.6H968v3.8z"
             class="A900-IMA32Dst4"
             style="fill:#3e3f3b" /></g><path
           id="A900-IMA32Dpath77"
           d="M364 258.7h73.9c3.7 11.6 14.2 19.1 26.2 19.1h780.3c10.9 0 20.6-6.4 25.5-16.9 1.9-.7 3.4-1.5 5.2-2.2h67.5c37.5 0 67.8-25.1 67.8-56.2s-30.4-56.6-67.8-56.6h-58.5c-4.5-10.5-14.6-17.2-25.9-17.2h-808c-11.2 0-21 6.7-25.5 17.2H360.6c-37.5 0-67.8 25.1-67.8 56.2s30.4 56.6 67.8 56.6h3.4z"
           style="clip-rule:evenodd;fill:#fff;fill-rule:evenodd;stroke:#8c8c8c;stroke-width:.23999999;stroke-linecap:round;stroke-linejoin:round;stroke-miterlimit:10" /><path
           id="A900-IMA32Dpath79"
           d="M390.6 203.3c.4-25.5-19.9-46.5-45-46.5-24.7 0-45 21-45 46.5.4 25.5 20.2 46.1 45 46.1s45-20.7 45-46.1h0z"
           class="A900-IMA32Dst6"
           style="clip-rule:evenodd;fill:#ccc;fill-rule:evenodd;stroke:#9a9a9a;stroke-width:.23999999;stroke-linecap:round;stroke-linejoin:round;stroke-miterlimit:10" /><path
           id="A900-IMA32Dpath81"
           d="M388.8 203.3c0-24.4-19.1-44.2-43.1-44.2-23.6 0-42.7 19.9-42.7 44.2 0 24.4 19.1 44.2 42.7 44.2 24 0 43.1-19.9 43.1-44.2z"
           class="A900-IMA32Dst7"
           style="clip-rule:evenodd;fill:#e6e6e6;fill-rule:evenodd" /><path
           id="A900-IMA32Dpath83"
           d="M329.6 165h32.6c3 0 6 1.9 7.5 4.5l16.5 29.2c1.5 3 1.5 6 0 9L369.7 237c-1.5 2.6-4.5 4.5-7.5 4.5h-32.6c-3.4 0-6.4-1.9-7.9-4.5l-16.5-29.2c-1.5-3-1.5-6 0-9l16.5-29.2c1.5-2.7 4.5-4.6 7.9-4.6h0z"
           class="A900-IMA32Dst6"
           style="clip-rule:evenodd;fill:#ccc;fill-rule:evenodd;stroke:#9a9a9a;stroke-width:.23999999;stroke-linecap:round;stroke-linejoin:round;stroke-miterlimit:10" /><path
           id="A900-IMA32Dpath85"
           d="M381.6 203.3c0-20.2-16.1-36.7-36-36.7-19.5 0-35.6 16.5-35.6 36.7 0 20.2 16.1 36.7 35.6 36.7 19.9 0 36-16.5 36-36.7h0z"
           class="A900-IMA32Dst8"
           style="clip-rule:evenodd;fill:silver;fill-rule:evenodd;stroke:#e6e6e6;stroke-width:.23999999;stroke-linecap:round;stroke-linejoin:round;stroke-miterlimit:10" /><path
           id="A900-IMA32Dpath87"
           d="M376.4 203.3c.4-17.6-13.5-32.2-30.7-32.2-16.9 0-30.7 14.6-30.4 32.2 0 17.2 13.9 30.7 30.4 30.7 16.8 0 30.3-13.5 30.7-30.7z"
           class="A900-IMA32Dst9"
           style="clip-rule:evenodd;fill:silver;fill-rule:evenodd" /><path
           id="A900-IMA32Dpath89"
           d="M362.5 203.3c0-22.9-33.4-22.9-33.4 0 .1 22.8 33.1 22.8 33.4 0z"
           class="A900-IMA32Dst10"
           style="clip-rule:evenodd;fill:#333;fill-rule:evenodd" /><path
           id="A900-IMA32Dpath91"
           d="M1405.9 203.3c0-25.5-20.2-46.5-45-46.5-25.1 0-45.3 21-45 46.5 0 25.5 20.2 46.1 45 46.1s44.6-20.7 45-46.1h0z"
           class="A900-IMA32Dst6"
           style="clip-rule:evenodd;fill:#ccc;fill-rule:evenodd;stroke:#9a9a9a;stroke-width:.23999999;stroke-linecap:round;stroke-linejoin:round;stroke-miterlimit:10" /><path
           id="A900-IMA32Dpath93"
           d="M1403.6 203.3c0-24.4-19.1-44.2-42.7-44.2s-43.1 19.9-43.1 44.2c0 24.4 19.5 44.2 43.1 44.2s42.7-19.9 42.7-44.2z"
           class="A900-IMA32Dst7"
           style="clip-rule:evenodd;fill:#e6e6e6;fill-rule:evenodd" /><path
           id="A900-IMA32Dpath95"
           d="M1344.4 165h32.6c3.4 0 6.4 1.9 7.9 4.5l16.5 29.2c1.5 3 1.5 6 0 9l-16.5 29.2c-1.5 2.6-4.5 4.5-7.9 4.5h-32.6c-3 0-6-1.9-7.5-4.5l-16.5-29.2c-1.5-3-1.5-6 0-9l16.5-29.2c1.5-2.6 4.5-4.5 7.5-4.5h0z"
           class="A900-IMA32Dst6"
           style="clip-rule:evenodd;fill:#ccc;fill-rule:evenodd;stroke:#9a9a9a;stroke-width:.23999999;stroke-linecap:round;stroke-linejoin:round;stroke-miterlimit:10" /><path
           id="A900-IMA32Dpath97"
           d="M1396.5 203.3c0-20.2-16.1-36.7-35.6-36.7-19.9 0-36 16.5-36 36.7 0 20.2 16.1 36.7 36 36.7 19.5 0 35.6-16.5 35.6-36.7h0z"
           class="A900-IMA32Dst8"
           style="clip-rule:evenodd;fill:silver;fill-rule:evenodd;stroke:#e6e6e6;stroke-width:.23999999;stroke-linecap:round;stroke-linejoin:round;stroke-miterlimit:10" /><path
           id="A900-IMA32Dpath99"
           d="M1391.3 203.3c.4-17.6-13.5-32.2-30.4-32.2-17.2 0-31.1 14.6-30.7 32.2.4 17.2 13.9 30.7 30.7 30.7 16.5 0 30.4-13.5 30.4-30.7z"
           class="A900-IMA32Dst9"
           style="clip-rule:evenodd;fill:silver;fill-rule:evenodd" /><path
           id="A900-IMA32Dpath101"
           d="M1377.4 203.3c0-22.5-33-22.5-33 0 0 22.4 33 22.4 33 0z"
           class="A900-IMA32Dst10"
           style="clip-rule:evenodd;fill:#333;fill-rule:evenodd" /><path
           id="A900-IMA32Dpath103"
           d="M470.5 253.8h772.8c13.1 0 24.7-9.4 27.4-22.5l10.5-48.3c3.7-17.2-9.4-33.7-27.4-33.7H460c-18 0-31.5 16.5-27.7 33.7l10.5 48.3c2.9 13.2 14.2 22.5 27.7 22.5h0z"
           style="clip-rule:evenodd;fill:#333;fill-rule:evenodd;stroke:silver;stroke-width:1.20000005;stroke-linecap:round;stroke-linejoin:round;stroke-miterlimit:10" /><path
           id="A900-IMA32Dline105"
           class="A900-IMA32Dst12"
           style="fill:none;stroke:silver;stroke-width:1.20000005;stroke-miterlimit:3;stroke-dasharray:.48,.24"
           d="M1250.7 184.1H458.1" /><path
           id="A900-IMA32Dline107"
           class="A900-IMA32Dst12"
           style="fill:none;stroke:silver;stroke-width:1.20000005;stroke-miterlimit:3;stroke-dasharray:.48,.24"
           d="M1250.7 214.9H458.1" /><path
           id="A900-IMA32Dpath109"
           d="M.5 118.9h60c39-.4 70.5 31.5 70.5 71.2 0 39.4-31.5 71.6-70.5 70.8H.5v-142h0z"
           class="A900-IMA32Dst13"
           style="clip-rule:evenodd;fill:#d8d8d8;fill-rule:evenodd;stroke:gray;stroke-width:.23999999;stroke-linecap:round;stroke-linejoin:round;stroke-miterlimit:3" /><path
           id="A900-IMA32Dpath111"
           d="M2885.5 118.9h-60c-39-.4-70.5 31.5-70.5 71.2 0 39.4 31.5 71.6 70.5 70.8h60v-142h0z"
           class="A900-IMA32Dst13"
           style="clip-rule:evenodd;fill:#d8d8d8;fill-rule:evenodd;stroke:gray;stroke-width:.23999999;stroke-linecap:round;stroke-linejoin:round;stroke-miterlimit:3" /><g
           id="A900-IMA32Dg113"><path
             id="A900-IMA32Dpath115"
             d="M1592 51c2-.3 4.5-.6 7.8-.6 4 0 7 .9 8.9 2.6 1.7 1.5 2.8 3.8 2.8 6.6 0 2.9-.8 5.1-2.4 6.7-2.2 2.3-5.7 3.5-9.6 3.5-1.2 0-2.3 0-3.3-.3v12.6h-4.1V51zm4 15.2c.9.2 2 .3 3.4.3 4.9 0 7.9-2.4 7.9-6.7 0-4.2-3-6.2-7.4-6.2-1.8 0-3.1.1-3.8.3v12.3z"
             class="A900-IMA32Dst4"
             style="fill:#3e3f3b" /><path
             id="A900-IMA32Dpath117"
             d="M1644.4 66c0 10.9-6.6 16.6-14.7 16.6-8.3 0-14.2-6.5-14.2-16 0-10 6.2-16.6 14.7-16.6 8.7.1 14.2 6.7 14.2 16zm-24.5.6c0 6.7 3.7 12.8 10.1 12.8 6.5 0 10.1-5.9 10.1-13.1 0-6.3-3.3-12.8-10.1-12.8-6.7-.1-10.1 6.1-10.1 13.1z"
             class="A900-IMA32Dst4"
             style="fill:#3e3f3b" /><path
             id="A900-IMA32Dpath119"
             d="M1647.5 51c2.1-.4 5-.7 7.8-.7 4.4 0 7.2.8 9.1 2.6 1.6 1.4 2.5 3.6 2.5 6 0 4.2-2.6 6.9-5.9 8.1v.1c2.4.8 3.9 3.1 4.6 6.4 1 4.4 1.8 7.4 2.4 8.7h-4.2c-.5-.9-1.2-3.6-2.1-7.5-.9-4.4-2.6-6-6.3-6.1h-3.8v13.7h-4.1V51zm4.1 14.4h4.2c4.4 0 7.1-2.4 7.1-6 0-4.1-3-5.9-7.3-5.9-2 0-3.4.2-4 .4v11.5z"
             class="A900-IMA32Dst4"
             style="fill:#3e3f3b" /><path
             id="A900-IMA32Dpath121"
             d="M1681.2 54.1h-9.6v-3.5h23.4v3.5h-9.6v28.1h-4.1V54.1z"
             class="A900-IMA32Dst4"
             style="fill:#3e3f3b" /></g><path
           id="A900-IMA32Drect123"
           class="A900-IMA32Dst14"
           style="clip-rule:evenodd;fill:#737373;fill-rule:evenodd;stroke:gray;stroke-width:.23999999;stroke-linecap:round;stroke-linejoin:round;stroke-miterlimit:3"
           d="M1512 54.1h56.2v28.1H1512z" /><g
           id="A900-IMA32Dg125"><path
             id="A900-IMA32Dpath127"
             d="M1269.3 51c2-.3 4.5-.6 7.8-.6 4 0 7 .9 8.9 2.6 1.7 1.5 2.8 3.8 2.8 6.6 0 2.9-.8 5.1-2.4 6.7-2.2 2.3-5.7 3.5-9.6 3.5-1.2 0-2.3 0-3.3-.3v12.6h-4.1V51zm4.1 15.2c.9.2 2 .3 3.4.3 4.9 0 7.9-2.4 7.9-6.7 0-4.2-3-6.2-7.4-6.2-1.8 0-3.1.1-3.8.3v12.3z"
             class="A900-IMA32Dst4"
             style="fill:#3e3f3b" /><path
             id="A900-IMA32Dpath129"
             d="m1299.9 82.2-8-31.6h4.3l3.7 16c.9 3.9 1.8 7.9 2.3 10.9h.1c.5-3.1 1.5-6.9 2.6-11l4.2-15.9h4.3l3.8 16c.9 3.7 1.7 7.5 2.2 10.8h.1c.7-3.5 1.5-7 2.5-10.9l4.2-15.9h4.2l-8.9 31.6h-4.3l-4-16.4c-1-4-1.6-7.1-2.1-10.3h-.1c-.6 3.1-1.3 6.2-2.4 10.3l-4.5 16.4h-4.2z"
             class="A900-IMA32Dst4"
             style="fill:#3e3f3b" /><path
             id="A900-IMA32Dpath131"
             d="M1331.2 51c2.1-.4 5-.7 7.8-.7 4.4 0 7.2.8 9.1 2.6 1.6 1.4 2.5 3.6 2.5 6 0 4.2-2.6 6.9-5.9 8.1v.1c2.4.8 3.9 3.1 4.6 6.4 1 4.4 1.8 7.4 2.4 8.7h-4.2c-.5-.9-1.2-3.6-2.1-7.5-.9-4.4-2.6-6-6.3-6.1h-3.8v13.7h-4.1V51zm4.1 14.4h4.2c4.4 0 7.1-2.4 7.1-6 0-4.1-3-5.9-7.3-5.9-2 0-3.4.2-4 .4v11.5z"
             class="A900-IMA32Dst4"
             style="fill:#3e3f3b" /></g><path
           id="A900-IMA32Drect133"
           class="A900-IMA32Dst14"
           style="clip-rule:evenodd;fill:#737373;fill-rule:evenodd;stroke:gray;stroke-width:.23999999;stroke-linecap:round;stroke-linejoin:round;stroke-miterlimit:3"
           d="M1196.8 54.1h56.2v28.1h-56.2z" /><g
           id="A900-IMA32Dg135"><path
             id="A900-IMA32Dpath137"
             d="M1906.6 77.2c1.8 1.1 4.5 2.1 7.3 2.1 4.2 0 6.6-2.2 6.6-5.4 0-3-1.7-4.6-5.9-6.3-5.2-1.8-8.3-4.5-8.3-8.9 0-4.9 4.1-8.6 10.2-8.6 3.2 0 5.6.7 7 1.5l-1.1 3.3c-1-.6-3.1-1.5-6-1.5-4.3 0-6 2.6-6 4.7 0 3 1.9 4.4 6.3 6.1 5.3 2.1 8.1 4.6 8.1 9.3 0 4.9-3.6 9.1-11.1 9.1-3 0-6.4-.9-8.1-2l1-3.4z"
             class="A900-IMA32Dst4"
             style="fill:#3e3f3b" /><path
             id="A900-IMA32Dpath139"
             d="M1938.6 54.1h-9.6v-3.5h23.4v3.5h-9.6v28.1h-4.1V54.1z"
             class="A900-IMA32Dst4"
             style="fill:#3e3f3b" /><path
             id="A900-IMA32Dpath141"
             d="m1959.9 72.2-3.3 9.9h-4.2l10.7-31.6h4.9l10.8 31.6h-4.4l-3.4-9.9h-11.1zm10.4-3.2-3.1-9.1c-.7-2.1-1.2-3.9-1.6-5.8h-.1c-.5 1.9-1 3.8-1.6 5.7l-3.1 9.1h9.5z"
             class="A900-IMA32Dst4"
             style="fill:#3e3f3b" /><path
             id="A900-IMA32Dpath143"
             d="M1985.6 54.1h-9.6v-3.5h23.4v3.5h-9.6v28.1h-4.1V54.1z"
             class="A900-IMA32Dst4"
             style="fill:#3e3f3b" /></g><path
           id="A900-IMA32Drect145"
           class="A900-IMA32Dst14"
           style="clip-rule:evenodd;fill:#737373;fill-rule:evenodd;stroke:gray;stroke-width:.23999999;stroke-linecap:round;stroke-linejoin:round;stroke-miterlimit:3"
           d="M1827.5 54.1h56.2v28.1h-56.2z" /><g
           id="A900-IMA32Dg147"><path
             id="A900-IMA32Dpath149"
             d="m959.2 72.2-3.3 9.9h-4.2l10.7-31.6h4.9l10.8 31.6h-4.4l-3.4-9.9h-11.1zm10.3-3.2-3.1-9.1c-.7-2.1-1.2-3.9-1.6-5.8h-.1c-.5 1.9-1 3.8-1.6 5.7L960 69h9.5z"
             class="A900-IMA32Dst4"
             style="fill:#3e3f3b" /><path
             id="A900-IMA32Dpath151"
             d="M1003.9 81.1c-1.5.7-4.5 1.5-8.3 1.5-8.9 0-15.6-5.6-15.6-16 0-9.9 6.7-16.6 16.5-16.6 3.9 0 6.4.8 7.5 1.4l-1 3.3c-1.5-.8-3.7-1.3-6.4-1.3-7.4 0-12.3 4.7-12.3 13 0 7.7 4.5 12.7 12.1 12.7 2.5 0 5-.5 6.7-1.3l.8 3.3z"
             class="A900-IMA32Dst4"
             style="fill:#3e3f3b" /><path
             id="A900-IMA32Dpath153"
             d="M1015.6 54.1h-9.6v-3.5h23.4v3.5h-9.6v28.1h-4.1V54.1z"
             class="A900-IMA32Dst4"
             style="fill:#3e3f3b" /></g><path
           id="A900-IMA32Drect155"
           class="A900-IMA32Dst14"
           style="clip-rule:evenodd;fill:#737373;fill-rule:evenodd;stroke:gray;stroke-width:.23999999;stroke-linecap:round;stroke-linejoin:round;stroke-miterlimit:3"
           d="M881.2 54.1h56.2v28.1h-56.2z" /><g
           id="A900-IMA32Dg157"><path
             id="A900-IMA32Dpath159"
             d="M1895.7 300c2.1-.3 4.8-.6 8.3-.6 4.3 0 7.4 1 9.4 2.8 1.8 1.6 2.9 4 2.9 7s-.9 5.4-2.6 7.2c-2.3 2.4-6 3.7-10.3 3.7-1.3 0-2.5 0-3.5-.3v13.5h-4.3V300zm4.4 16.2c.9.2 2.1.3 3.6.3 5.2 0 8.4-2.5 8.4-7.2 0-4.4-3.1-6.6-7.9-6.6-1.9 0-3.3.2-4.1.3v13.2z"
             class="A900-IMA32Dst4"
             style="fill:#3e3f3b" /><path
             id="A900-IMA32Dpath161"
             d="M1951.8 316.1c0 11.6-7 17.7-15.6 17.7-8.9 0-15.1-6.9-15.1-17 0-10.7 6.6-17.6 15.6-17.6 9.1-.1 15.1 6.9 15.1 16.9zm-26.1.5c0 7.2 3.9 13.6 10.7 13.6 6.9 0 10.8-6.3 10.8-14 0-6.7-3.5-13.7-10.7-13.7-7.2.1-10.8 6.7-10.8 14.1z"
             class="A900-IMA32Dst4"
             style="fill:#3e3f3b" /><path
             id="A900-IMA32Dpath163"
             d="M1954.9 300.1c2.2-.4 5.3-.7 8.3-.7 4.6 0 7.6.8 9.7 2.7 1.7 1.5 2.6 3.8 2.6 6.4 0 4.4-2.8 7.4-6.3 8.6v.1c2.6.9 4.1 3.3 4.9 6.8 1.1 4.7 1.9 7.9 2.6 9.2h-4.5c-.5-.9-1.3-3.8-2.2-8-1-4.6-2.8-6.4-6.7-6.5h-4.1v14.6h-4.3v-33.2zm4.4 15.3h4.4c4.6 0 7.6-2.5 7.6-6.4 0-4.3-3.1-6.2-7.7-6.3-2.1 0-3.6.2-4.3.4v12.3z"
             class="A900-IMA32Dst4"
             style="fill:#3e3f3b" /><path
             id="A900-IMA32Dpath165"
             d="M1990.9 303.3h-10.2v-3.7h24.9v3.7h-10.3v29.9h-4.4v-29.9z"
             class="A900-IMA32Dst4"
             style="fill:#3e3f3b" /><path
             id="A900-IMA32Dpath167"
             d="M2009 327.9c1.9 1.2 4.8 2.2 7.8 2.2 4.4 0 7-2.3 7-5.7 0-3.1-1.8-4.9-6.3-6.7-5.5-1.9-8.9-4.8-8.9-9.5 0-5.2 4.3-9.1 10.9-9.1 3.4 0 5.9.8 7.4 1.6l-1.2 3.5c-1.1-.6-3.3-1.6-6.4-1.6-4.6 0-6.3 2.7-6.3 5 0 3.1 2 4.7 6.7 6.5 5.7 2.2 8.6 4.9 8.6 9.9 0 5.2-3.8 9.7-11.8 9.7-3.2 0-6.8-.9-8.6-2.1l1.1-3.7z"
             class="A900-IMA32Dst4"
             style="fill:#3e3f3b" /><path
             id="A900-IMA32Dpath169"
             d="m2056.1 304.9-5.7 3-.8-3.3 7.1-3.8h3.7v32.4h-4.2v-28.3z"
             class="A900-IMA32Dst4"
             style="fill:#3e3f3b" /><path
             id="A900-IMA32Dpath171"
             d="M2087.9 303.9c-.9 0-2 0-3.3.2-6.9 1.1-10.5 6.2-11.3 11.5h.1c1.5-2 4.2-3.7 7.8-3.7 5.7 0 9.8 4.1 9.8 10.5 0 5.9-4 11.4-10.8 11.4-6.9 0-11.5-5.4-11.5-13.8 0-6.4 2.3-11.4 5.5-14.6 2.7-2.6 6.3-4.3 10.4-4.8 1.3-.2 2.4-.2 3.2-.2v3.5zm-1.2 18.7c0-4.6-2.6-7.4-6.7-7.4-2.6 0-5.1 1.6-6.3 4-.3.5-.5 1.1-.5 1.9.1 5.3 2.5 9.3 7.1 9.3 3.8 0 6.4-3.2 6.4-7.8z"
             class="A900-IMA32Dst4"
             style="fill:#3e3f3b" /></g><g
           id="A900-IMA32Dg173"><path
             id="A900-IMA32Dpath175"
             d="M2104 318.1v3.2h-12.3v-3.2h12.3z"
             class="A900-IMA32Dst4"
             style="fill:#3e3f3b" /></g><g
           id="A900-IMA32Dg177"><path
             id="A900-IMA32Dpath179"
             d="M2107 328.2c1.2.8 4.1 2 7.2 2 5.6 0 7.4-3.6 7.3-6.3 0-4.5-4.1-6.5-8.4-6.5h-2.4v-3.3h2.4c3.2 0 7.2-1.6 7.2-5.5 0-2.6-1.6-4.9-5.7-4.9-2.6 0-5.1 1.1-6.5 2.1l-1.1-3.2c1.7-1.2 5-2.5 8.5-2.5 6.4 0 9.3 3.8 9.3 7.7 0 3.3-2 6.2-6 7.6v.1c4 .8 7.2 3.8 7.2 8.3 0 5.2-4 9.7-11.8 9.7-3.6 0-6.8-1.1-8.4-2.2l1.2-3.1z"
             class="A900-IMA32Dst4"
             style="fill:#3e3f3b" /><path
             id="A900-IMA32Dpath181"
             d="m2138.4 304.9-5.7 3-.8-3.3 7.1-3.8h3.7v32.4h-4.2v-28.3z"
             class="A900-IMA32Dst4"
             style="fill:#3e3f3b" /></g><path
           id="A900-IMA32Dpath183"
           d="M1532.9 258.7h73.9c4.1 11.6 14.6 19.1 26.2 19.1h780.3c10.9 0 21-6.4 25.5-16.9 1.9-.7 3.7-1.5 5.2-2.2h67.8c37.1 0 67.5-25.1 67.5-56.2s-30.4-56.6-67.5-56.6H2453c-4.5-10.5-14.6-17.2-25.5-17.2h-808.4c-10.9 0-21 6.7-25.5 17.2h-64.2c-37.5 0-67.5 25.1-67.5 56.2s30 56.6 67.5 56.6h3.5z"
           style="clip-rule:evenodd;fill:#fff;fill-rule:evenodd;stroke:#8c8c8c;stroke-width:.23999999;stroke-linecap:round;stroke-linejoin:round;stroke-miterlimit:3" /><path
           id="A900-IMA32Dpath185"
           d="M1559.9 203.3c0-25.5-20.2-46.5-45-46.5-25.1 0-45.3 21-45 46.5 0 25.5 20.2 46.1 45 46.1s44.7-20.7 45-46.1h0z"
           class="A900-IMA32Dst16"
           style="clip-rule:evenodd;fill:#ccc;fill-rule:evenodd;stroke:#9a9a9a;stroke-width:.23999999;stroke-linecap:round;stroke-linejoin:round;stroke-miterlimit:3" /><path
           id="A900-IMA32Dpath187"
           d="M1557.7 203.3c0-24.4-19.1-44.2-42.7-44.2-24 0-43.1 19.9-43.1 44.2 0 24.4 19.1 44.2 43.1 44.2 23.6 0 42.7-19.9 42.7-44.2z"
           class="A900-IMA32Dst7"
           style="clip-rule:evenodd;fill:#e6e6e6;fill-rule:evenodd" /><path
           id="A900-IMA32Dpath189"
           d="M1498.5 165h32.6c3.4 0 6 1.9 7.9 4.5l16.5 29.2c1.5 3 1.5 6 0 9l-16.5 29.2c-1.9 2.6-4.5 4.5-7.9 4.5h-32.6c-3 0-6-1.9-7.5-4.5l-16.5-29.2c-1.5-3-1.5-6 0-9l16.5-29.2c1.5-2.6 4.5-4.5 7.5-4.5h0z"
           class="A900-IMA32Dst16"
           style="clip-rule:evenodd;fill:#ccc;fill-rule:evenodd;stroke:#9a9a9a;stroke-width:.23999999;stroke-linecap:round;stroke-linejoin:round;stroke-miterlimit:3" /><path
           id="A900-IMA32Dpath191"
           d="M1550.6 203.3c0-20.2-16.1-36.7-35.6-36.7-19.9 0-36 16.5-36 36.7 0 20.2 16.1 36.7 36 36.7 19.4 0 35.6-16.5 35.6-36.7h0z"
           class="A900-IMA32Dst17"
           style="clip-rule:evenodd;fill:silver;fill-rule:evenodd;stroke:#e6e6e6;stroke-width:.23999999;stroke-linecap:round;stroke-linejoin:round;stroke-miterlimit:3" /><path
           id="A900-IMA32Dpath193"
           d="M1545.3 203.3c.4-17.6-13.5-32.2-30.4-32.2-17.2 0-31.1 14.6-30.7 32.2.4 17.2 13.9 30.7 30.7 30.7 16.5 0 30.4-13.5 30.4-30.7z"
           class="A900-IMA32Dst9"
           style="clip-rule:evenodd;fill:silver;fill-rule:evenodd" /><path
           id="A900-IMA32Dpath195"
           d="M1531.4 203.3c0-22.9-33.4-22.9-33.4 0 .1 22.8 33.4 22.8 33.4 0z"
           class="A900-IMA32Dst10"
           style="clip-rule:evenodd;fill:#333;fill-rule:evenodd" /><path
           id="A900-IMA32Dpath197"
           d="M2574.8 203.3c0-25.5-19.9-46.5-45-46.5-24.7 0-45 21-45 46.5.4 25.5 20.2 46.1 45 46.1s45-20.7 45-46.1h0z"
           class="A900-IMA32Dst16"
           style="clip-rule:evenodd;fill:#ccc;fill-rule:evenodd;stroke:#9a9a9a;stroke-width:.23999999;stroke-linecap:round;stroke-linejoin:round;stroke-miterlimit:3" /><path
           id="A900-IMA32Dpath199"
           d="M2572.9 203.3c0-24.4-19.5-44.2-43.1-44.2s-42.7 19.9-42.7 44.2c0 24.4 19.1 44.2 42.7 44.2 23.7 0 43.1-19.9 43.1-44.2z"
           class="A900-IMA32Dst7"
           style="clip-rule:evenodd;fill:#e6e6e6;fill-rule:evenodd" /><path
           id="A900-IMA32Dpath201"
           d="M2513.7 165h32.2c3.4 0 6.4 1.9 7.9 4.5l16.5 29.2c1.5 3 1.5 6 0 9l-16.5 29.2c-1.5 2.6-4.5 4.5-7.9 4.5h-32.2c-3.4 0-6.4-1.9-7.9-4.5l-16.5-29.2c-1.5-3-1.5-6 0-9l16.5-29.2c1.6-2.6 4.6-4.5 7.9-4.5h0z"
           class="A900-IMA32Dst16"
           style="clip-rule:evenodd;fill:#ccc;fill-rule:evenodd;stroke:#9a9a9a;stroke-width:.23999999;stroke-linecap:round;stroke-linejoin:round;stroke-miterlimit:3" /><path
           id="A900-IMA32Dpath203"
           d="M2565.8 203.3c0-20.2-16.1-36.7-36-36.7s-35.6 16.5-35.6 36.7c0 20.2 15.7 36.7 35.6 36.7 19.9 0 36-16.5 36-36.7h0z"
           class="A900-IMA32Dst17"
           style="clip-rule:evenodd;fill:silver;fill-rule:evenodd;stroke:#e6e6e6;stroke-width:.23999999;stroke-linecap:round;stroke-linejoin:round;stroke-miterlimit:3" /><path
           id="A900-IMA32Dpath205"
           d="M2560.6 203.3c.4-17.6-13.5-32.2-30.7-32.2s-31.1 14.6-30.7 32.2c.4 17.2 13.9 30.7 30.7 30.7 16.8 0 30.3-13.5 30.7-30.7z"
           class="A900-IMA32Dst9"
           style="clip-rule:evenodd;fill:silver;fill-rule:evenodd" /><path
           id="A900-IMA32Dpath207"
           d="M2546.3 203.3c0-22.5-33-22.5-33 0 .1 22.4 33 22.4 33 0z"
           class="A900-IMA32Dst10"
           style="clip-rule:evenodd;fill:#333;fill-rule:evenodd" /><path
           id="A900-IMA32Dpath209"
           d="M1639.4 253.8h772.8c13.5 0 24.7-9.4 27.7-22.5L2450 183c4.1-17.2-9.4-33.7-27.4-33.7h-793.8c-18 0-31.1 16.5-27.4 33.7l10.5 48.3c2.7 13.2 14.4 22.5 27.5 22.5h0z"
           style="clip-rule:evenodd;fill:#333;fill-rule:evenodd;stroke:silver;stroke-width:1.20000005;stroke-linecap:round;stroke-linejoin:round;stroke-miterlimit:3" /><path
           id="A900-IMA32Dline211"
           class="A900-IMA32Dst12"
           style="fill:none;stroke:silver;stroke-width:1.20000005;stroke-miterlimit:3;stroke-dasharray:.48,.24"
           d="M2420 184.1h-792.6" /><path
           id="A900-IMA32Dline213"
           class="A900-IMA32Dst12"
           style="fill:none;stroke:silver;stroke-width:1.20000005;stroke-miterlimit:3;stroke-dasharray:.48,.24"
           d="M2420 214.9h-792.6" /><g
           id="A900-IMA32Dg215"><path
             id="A900-IMA32Dpath217"
             d="M1395 303.3h-10.2v-3.7h24.9v3.7h-10.3v29.9h-4.4v-29.9z"
             class="A900-IMA32Dst4"
             style="fill:#3e3f3b" /><path
             id="A900-IMA32Dpath219"
             d="m1421.7 304.9-5.7 3-.8-3.3 7.1-3.8h3.7v32.4h-4.2v-28.3z"
             class="A900-IMA32Dst4"
             style="fill:#3e3f3b" /><path
             id="A900-IMA32Dpath221"
             d="M1454 317.5h-13.1v12.1h14.6v3.6h-18.9v-33.6h18.1v3.6h-13.8v10.6h13.1v3.7z"
             class="A900-IMA32Dst4"
             style="fill:#3e3f3b" /><path
             id="A900-IMA32Dpath223"
             d="m1471.9 304.9-5.7 3-.8-3.3 7.1-3.8h3.7v32.4h-4.2v-28.3z"
             class="A900-IMA32Dst4"
             style="fill:#3e3f3b" /></g></g></g><g
       id="A900-IMA32DLayer_2"><g
         id="A900-IMA32Dg226"><path
           id="A900-IMA32Dpath228"
           d="M2805.5 235.6c-27-9.4-40.5-39-30.8-65.6 9.4-26.6 39-40.1 65.6-30.4 26.6 9.4 40.5 39 30.8 65.6-9.7 26.6-39 40.2-65.6 30.4h0z"
           class="A900-IMA32Dst19"
           style="clip-rule:evenodd;fill:#d2d2d2;fill-rule:evenodd;stroke:#5f5f5f;stroke-width:.72000003;stroke-linecap:round;stroke-linejoin:round;stroke-miterlimit:3" /><path
           id="A900-IMA32Dpath230"
           d="m2847.1 145.2-62.3 74.3c3.4 5.3 8.3 9.4 14.3 12l62.3-74.3c-3.8-5.2-8.6-9.3-14.3-12h0z"
           class="A900-IMA32Dst20"
           style="clip-rule:evenodd;fill:#5f5f5f;fill-rule:evenodd;stroke:#5f5f5f;stroke-width:.23999999;stroke-linecap:round;stroke-linejoin:round;stroke-miterlimit:3" /><path
           id="A900-IMA32Dpath232"
           d="m2806.6 189.9-6 6.8c5.6 6 12.4 11.6 19.1 16.1l5.6-7.1 5.3 4.5c6-5.6 11.3-12 16.1-18.8l-5.3-4.5 5.3-6.4c-5.6-6-12.4-11.3-19.1-16.1l-5.3 6.4-6.4-5.3c-6 5.6-11.6 12-16.1 18.8l6.8 5.6h0z"
           class="A900-IMA32Dst20"
           style="clip-rule:evenodd;fill:#5f5f5f;fill-rule:evenodd;stroke:#5f5f5f;stroke-width:.23999999;stroke-linecap:round;stroke-linejoin:round;stroke-miterlimit:3" /></g><g
         id="A900-IMA32Dg234"><path
           id="A900-IMA32Dpath236"
           d="M45.6 238.6c-27-9.4-40.5-39-30.8-65.6 9.4-26.6 39-40.1 65.6-30.4 26.6 9.4 40.5 39 30.8 65.6-9.7 26.7-38.9 40.2-65.6 30.4h0z"
           class="A900-IMA32Dst19"
           style="clip-rule:evenodd;fill:#d2d2d2;fill-rule:evenodd;stroke:#5f5f5f;stroke-width:.72000003;stroke-linecap:round;stroke-linejoin:round;stroke-miterlimit:3" /><path
           id="A900-IMA32Dpath238"
           d="M87.3 148.2 25 222.5c3.4 5.3 8.3 9.4 14.3 12l62.3-74.3c-3.8-5.2-8.7-9.3-14.3-12h0z"
           class="A900-IMA32Dst20"
           style="clip-rule:evenodd;fill:#5f5f5f;fill-rule:evenodd;stroke:#5f5f5f;stroke-width:.23999999;stroke-linecap:round;stroke-linejoin:round;stroke-miterlimit:3" /><path
           id="A900-IMA32Dpath240"
           d="m46.8 192.9-6 6.8c5.6 6 12.4 11.6 19.1 16.1l5.6-7.1 5.3 4.5c6-5.6 11.3-12 16.1-18.8l-5.3-4.5 5.3-6.4c-5.6-6-12.4-11.3-19.1-16.1l-5.3 6.4-6.4-5.3c-6 5.6-11.6 12-16.1 18.8l6.8 5.6h0z"
           class="A900-IMA32Dst20"
           style="clip-rule:evenodd;fill:#5f5f5f;fill-rule:evenodd;stroke:#5f5f5f;stroke-width:.23999999;stroke-linecap:round;stroke-linejoin:round;stroke-miterlimit:3" /></g><g
         id="A900-IMA32Dg242"><circle
           id="A900-IMA32Dcircle244"
           data-cv-id="PORT-16"
           r="6.8"
           cy="199.6"
           cx="1638.5"
           class="A900-IMA32Dst21"
           style="fill:#fff" /><circle
           id="A900-IMA32Dcircle246"
           data-cv-id="PORT-17"
           r="6.8"
           cy="199.6"
           cx="1689.9"
           class="A900-IMA32Dst21"
           style="fill:#fff" /><circle
           id="A900-IMA32Dcircle248"
           data-cv-id="PORT-18"
           r="6.8"
           cy="199.6"
           cx="1741.3"
           class="A900-IMA32Dst21"
           style="fill:#fff" /><circle
           id="A900-IMA32Dcircle250"
           data-cv-id="PORT-19"
           r="6.8"
           cy="199.6"
           cx="1792.8"
           class="A900-IMA32Dst21"
           style="fill:#fff" /><circle
           id="A900-IMA32Dcircle252"
           data-cv-id="PORT-20"
           r="6.8"
           cy="199.6"
           cx="1844.2"
           class="A900-IMA32Dst21"
           style="fill:#fff" /><circle
           id="A900-IMA32Dcircle254"
           data-cv-id="PORT-21"
           r="6.8"
           cy="199.6"
           cx="1895.6"
           class="A900-IMA32Dst21"
           style="fill:#fff" /><circle
           id="A900-IMA32Dcircle256"
           data-cv-id="PORT-22"
           r="6.8"
           cy="199.6"
           cx="1947"
           class="A900-IMA32Dst21"
           style="fill:#fff" /><circle
           id="A900-IMA32Dcircle258"
           data-cv-id="PORT-23"
           r="6.8"
           cy="199.6"
           cx="1998.4"
           class="A900-IMA32Dst21"
           style="fill:#fff" /><circle
           id="A900-IMA32Dcircle260"
           data-cv-id="PORT-24"
           r="6.8"
           cy="199.6"
           cx="2049.9"
           class="A900-IMA32Dst21"
           style="fill:#fff" /><circle
           id="A900-IMA32Dcircle262"
           data-cv-id="PORT-25"
           r="6.8"
           cy="199.6"
           cx="2101.3"
           class="A900-IMA32Dst21"
           style="fill:#fff" /><circle
           id="A900-IMA32Dcircle264"
           data-cv-id="PORT-26"
           r="6.8"
           cy="199.6"
           cx="2152.7"
           class="A900-IMA32Dst21"
           style="fill:#fff" /><circle
           id="A900-IMA32Dcircle266"
           data-cv-id="PORT-27"
           r="6.8"
           cy="199.6"
           cx="2255.5"
           class="A900-IMA32Dst21"
           style="fill:#fff" /><circle
           id="A900-IMA32Dcircle268"
           data-cv-id="PORT-28"
           r="6.8"
           cy="199.6"
           cx="2204.1"
           class="A900-IMA32Dst21"
           style="fill:#fff" /><circle
           id="A900-IMA32Dcircle270"
           data-cv-id="PORT-29"
           r="6.8"
           cy="199.6"
           cx="2307"
           class="A900-IMA32Dst21"
           style="fill:#fff" /><circle
           id="A900-IMA32Dcircle272"
           data-cv-id="PORT-30"
           r="6.8"
           cy="199.6"
           cx="2358.4"
           class="A900-IMA32Dst21"
           style="fill:#fff" /><circle
           id="A900-IMA32Dcircle274"
           data-cv-id="PORT-31"
           r="6.8"
           cy="199.6"
           cx="2409.8"
           class="A900-IMA32Dst21"
           style="fill:#fff" /><g
           id="A900-IMA32Dg276"><path
             id="A900-IMA32Dpath278"
             d="M1635.6 168v-1.2c1.1-.1 1.9-.3 2.4-.6s.8-.9 1-1.9h1.2v12.5h-1.7V168h-2.9z"
             class="A900-IMA32Dst21"
             style="fill:#fff" /></g><g
           id="A900-IMA32Dg280"><path
             id="A900-IMA32Dpath282"
             d="M1685.7 174c.4-.8 1.1-1.5 2.3-2.2l1.7-1c.8-.4 1.3-.8 1.6-1.1.5-.5.7-1 .7-1.7s-.2-1.3-.7-1.7c-.4-.4-1-.6-1.8-.6-1.1 0-1.8.4-2.2 1.2-.2.4-.3 1.1-.4 1.8h-1.6c0-1.1.2-2 .6-2.7.7-1.2 1.9-1.8 3.6-1.8 1.4 0 2.5.4 3.2 1.2.7.8 1 1.6 1 2.6s-.4 1.9-1.1 2.6c-.4.4-1.1.9-2.2 1.5l-1.2.7c-.6.3-1 .6-1.4.9-.6.5-1 1.1-1.1 1.7h6.9v1.5h-8.6c.1-1.1.3-2.1.7-2.9z"
             class="A900-IMA32Dst21"
             style="fill:#fff" /></g><g
           id="A900-IMA32Dg284"><path
             id="A900-IMA32Dpath286"
             d="M1737.4 176c-.7-.8-1-1.8-1-3h1.7c.1.8.2 1.4.5 1.8.4.7 1.2 1 2.2 1 .8 0 1.5-.2 2-.7.5-.5.8-1 .8-1.7 0-.9-.3-1.5-.8-1.8-.5-.3-1.3-.5-2.2-.5h-.6v-1.4h.8c.6 0 1.1-.1 1.5-.3.7-.3 1-.9 1-1.8 0-.6-.2-1.1-.7-1.5-.5-.4-1-.5-1.6-.5-1.1 0-1.8.4-2.2 1.1-.2.4-.3.9-.4 1.7h-1.6c0-.9.2-1.7.6-2.4.6-1.2 1.8-1.8 3.4-1.8 1.3 0 2.3.3 3 .9.7.6 1.1 1.4 1.1 2.5 0 .8-.2 1.4-.6 1.9-.3.3-.6.5-1 .7.7.2 1.2.5 1.6 1.1.4.6.6 1.2.6 1.9 0 1.2-.4 2.2-1.2 2.9-.8.7-1.9 1.1-3.4 1.1-1.8 0-2.8-.4-3.5-1.2z"
             class="A900-IMA32Dst21"
             style="fill:#fff" /></g><g
           id="A900-IMA32Dg288"><path
             id="A900-IMA32Dpath290"
             d="M1793.2 176.9v-3.1h-5.5v-1.5l5.8-8h1.3v8.2h1.9v1.4h-1.9v3.1h-1.6zm0-4.5v-5.7l-4 5.7h4z"
             class="A900-IMA32Dst21"
             style="fill:#fff" /></g><g
           id="A900-IMA32Dg292"><path
             id="A900-IMA32Dpath294"
             d="M1840.9 173.7c.1.9.5 1.5 1.3 1.9.4.2.8.3 1.3.3.9 0 1.6-.3 2.1-.9.5-.6.7-1.3.7-2 0-.9-.3-1.6-.8-2-.5-.4-1.2-.7-1.9-.7-.5 0-1 .1-1.4.3-.4.2-.7.5-1 .9l-1.4-.1 1-6.8h6.5v1.5h-5.4l-.5 3.5c.3-.2.6-.4.8-.5.5-.2 1-.3 1.6-.3 1.2 0 2.1.4 2.9 1.1.8.7 1.2 1.7 1.2 2.8 0 1.2-.4 2.2-1.1 3.1-.7.9-1.9 1.4-3.5 1.4-1 0-1.9-.3-2.7-.9-.8-.6-1.2-1.5-1.3-2.7h1.6z"
             class="A900-IMA32Dst21"
             style="fill:#fff" /></g><g
           id="A900-IMA32Dg296"><path
             id="A900-IMA32Dpath298"
             d="M1898.2 165.3c.6.7.8 1.5.8 2.3h-1.6c-.1-.5-.2-.9-.4-1.2-.4-.5-1-.8-1.7-.8-.9 0-1.6.4-2.1 1.2-.5.8-.8 2-.9 3.5.4-.5.8-.9 1.4-1.2.5-.2 1.1-.4 1.7-.4 1.1 0 2 .3 2.8 1 .8.7 1.2 1.7 1.2 3 0 1.1-.4 2.2-1.1 3-.7.8-1.8 1.3-3.2 1.3-1.2 0-2.2-.4-3-1.3-.8-.9-1.3-2.4-1.3-4.5 0-1.6.2-2.9.6-4 .7-2.1 2.1-3.1 4-3.1 1.3.1 2.3.5 2.8 1.2zm-1.2 9.7c.4-.6.6-1.2.6-2 0-.6-.2-1.3-.6-1.8-.4-.5-1-.9-2-.9-.7 0-1.3.2-1.8.7-.5.5-.8 1.1-.8 2 0 .8.2 1.5.7 2 .5.5 1.1.8 1.9.8 1 0 1.6-.3 2-.8z"
             class="A900-IMA32Dst21"
             style="fill:#fff" /></g><g
           id="A900-IMA32Dg300"><path
             id="A900-IMA32Dpath302"
             d="M1950.8 164.5v1.4c-.4.4-.9 1.1-1.6 2-.7.9-1.3 2-1.8 3.1s-.9 2.1-1.2 3c-.2.6-.4 1.5-.7 2.8h-1.7c.4-2.4 1.3-4.8 2.6-7.2.8-1.4 1.6-2.6 2.5-3.6h-7v-1.6h8.9z"
             class="A900-IMA32Dst21"
             style="fill:#fff" /></g><g
           id="A900-IMA32Dg304"><path
             id="A900-IMA32Dpath306"
             d="M1994.6 169.5c-.5-.5-.7-1.1-.7-1.8 0-.9.3-1.7 1-2.4s1.6-1 2.9-1c1.2 0 2.2.3 2.8 1 .6.7 1 1.4 1 2.2 0 .8-.2 1.4-.6 1.9-.2.3-.6.5-1 .8.5.2.9.5 1.2.8.6.6.8 1.3.8 2.3 0 1.1-.4 2-1.1 2.8-.7.8-1.8 1.2-3.2 1.2-1.2 0-2.3-.3-3.1-1-.8-.7-1.3-1.6-1.3-2.9 0-.7.2-1.4.5-1.9s.9-1 1.6-1.2c-.2-.3-.5-.5-.8-.8zm5.1 5.7c.5-.4.7-1 .7-1.8s-.2-1.4-.7-1.9c-.5-.5-1.1-.6-1.9-.6-.8 0-1.4.2-1.9.6-.5.4-.7 1-.7 1.8 0 .7.2 1.2.7 1.7.5.5 1.1.7 2 .7.8.1 1.4-.1 1.8-.5zm-.3-6.2c.4-.4.6-.9.6-1.4 0-.5-.2-.9-.6-1.3-.4-.4-.9-.6-1.7-.6-.8 0-1.3.2-1.6.6-.3.4-.5.9-.5 1.4 0 .6.2 1.1.7 1.4.4.3 1 .5 1.6.5.6 0 1.2-.2 1.5-.6z"
             class="A900-IMA32Dst21"
             style="fill:#fff" /></g><g
           id="A900-IMA32Dg308"><path
             id="A900-IMA32Dpath310"
             d="M2046.7 173.8c0 .9.4 1.5 1 1.8.3.2.7.3 1.1.3.8 0 1.4-.3 1.9-.9.5-.6.9-1.9 1.1-3.8-.4.6-.8.9-1.3 1.2-.5.3-1.1.3-1.7.3-1.2 0-2.2-.4-2.9-1.1-.7-.8-1.1-1.7-1.1-2.9 0-1.1.3-2.1 1-3 .7-.9 1.7-1.3 3.1-1.3 1.8 0 3.1.8 3.8 2.5.4.9.6 2 .6 3.4 0 1.5-.2 2.9-.7 4.1-.8 2-2.1 3-3.9 3-1.2 0-2.2-.3-2.8-1-.6-.7-1-1.5-1-2.4h1.8zm4.2-3.2c.5-.4.8-1.1.8-2.2 0-.9-.2-1.6-.7-2.1-.5-.5-1.1-.7-1.8-.7-.8 0-1.4.3-1.8.8-.5.5-.7 1.2-.7 2.1 0 .8.2 1.5.6 2 .4.5 1 .7 1.9.7.6 0 1.1-.2 1.7-.6z"
             class="A900-IMA32Dst21"
             style="fill:#fff" /></g><g
           id="A900-IMA32Dg312"><path
             id="A900-IMA32Dpath314"
             d="M2091.9 168v-1.2c1.1-.1 1.9-.3 2.4-.6s.8-.9 1-1.9h1.2v12.5h-1.7V168h-2.9z"
             class="A900-IMA32Dst21"
             style="fill:#fff" /><path
             id="A900-IMA32Dpath316"
             d="M2108.6 166.3c.6 1 .8 2.5.8 4.3 0 1.7-.3 3.1-.8 4.2-.7 1.6-1.9 2.4-3.6 2.4-1.5 0-2.6-.7-3.4-2-.6-1.1-.9-2.6-.9-4.4 0-1.4.2-2.7.6-3.7.7-1.9 1.9-2.9 3.8-2.9 1.6.1 2.7.8 3.5 2.1zm-1.6 8.4c.5-.7.7-2.1.7-4.1 0-1.4-.2-2.6-.5-3.5-.4-.9-1-1.4-2.1-1.4-.9 0-1.6.4-2 1.3-.4.9-.6 2.2-.6 3.9 0 1.3.1 2.3.4 3.1.4 1.2 1.1 1.8 2.2 1.8.7 0 1.4-.4 1.9-1.1z"
             class="A900-IMA32Dst21"
             style="fill:#fff" /></g><g
           id="A900-IMA32Dg318"><path
             id="A900-IMA32Dpath320"
             d="M2145.4 168v-1.2c1.1-.1 1.9-.3 2.4-.6s.8-.9 1-1.9h1.2v12.5h-1.7V168h-2.9z"
             class="A900-IMA32Dst21"
             style="fill:#fff" /><path
             id="A900-IMA32Dpath322"
             d="M2154.1 168v-1.2c1.1-.1 1.9-.3 2.4-.6s.8-.9 1-1.9h1.2v12.5h-1.7V168h-2.9z"
             class="A900-IMA32Dst21"
             style="fill:#fff" /></g><g
           id="A900-IMA32Dg324"><path
             id="A900-IMA32Dpath326"
             d="M2194.7 168v-1.2c1.1-.1 1.9-.3 2.4-.6s.8-.9 1-1.9h1.2v12.5h-1.7V168h-2.9z"
             class="A900-IMA32Dst21"
             style="fill:#fff" /><path
             id="A900-IMA32Dpath328"
             d="M2204.2 174c.4-.8 1.2-1.5 2.3-2.2l1.7-1c.8-.4 1.3-.8 1.6-1.1.5-.5.7-1 .7-1.7s-.2-1.3-.7-1.7c-.4-.4-1-.6-1.8-.6-1.1 0-1.8.4-2.2 1.2-.2.4-.3 1.1-.4 1.8h-1.6c0-1.1.2-2 .6-2.7.7-1.2 1.9-1.8 3.6-1.8 1.4 0 2.5.4 3.2 1.2.7.8 1 1.6 1 2.6s-.4 1.9-1.1 2.6c-.4.4-1.1.9-2.2 1.5l-1.2.7c-.6.3-1 .6-1.4.9-.6.5-1 1.1-1.1 1.7h6.9v1.5h-8.6c.1-1.1.3-2.1.7-2.9z"
             class="A900-IMA32Dst21"
             style="fill:#fff" /></g><g
           id="A900-IMA32Dg330"><path
             id="A900-IMA32Dpath332"
             d="M2246.1 168v-1.2c1.1-.1 1.9-.3 2.4-.6s.8-.9 1-1.9h1.2v12.5h-1.7V168h-2.9z"
             class="A900-IMA32Dst21"
             style="fill:#fff" /><path
             id="A900-IMA32Dpath334"
             d="M2255.8 176c-.7-.8-1-1.8-1-3h1.7c.1.8.2 1.4.5 1.8.4.7 1.2 1 2.2 1 .8 0 1.5-.2 2-.7.5-.5.8-1 .8-1.7 0-.9-.3-1.5-.8-1.8-.5-.3-1.3-.5-2.2-.5h-.6v-1.4h.8c.6 0 1.1-.1 1.5-.3.7-.3 1-.9 1-1.8 0-.6-.2-1.1-.7-1.5-.5-.4-1-.5-1.6-.5-1.1 0-1.8.4-2.2 1.1-.2.4-.3.9-.4 1.7h-1.6c0-.9.2-1.7.6-2.4.6-1.2 1.8-1.8 3.4-1.8 1.3 0 2.3.3 3 .9.7.6 1.1 1.4 1.1 2.5 0 .8-.2 1.4-.6 1.9-.3.3-.6.5-1 .7.7.2 1.2.5 1.6 1.1.4.6.6 1.2.6 1.9 0 1.2-.4 2.2-1.2 2.9-.8.7-1.9 1.1-3.4 1.1-1.7 0-2.8-.4-3.5-1.2z"
             class="A900-IMA32Dst21"
             style="fill:#fff" /></g><g
           id="A900-IMA32Dg336"><path
             id="A900-IMA32Dpath338"
             d="M2297.4 168v-1.2c1.1-.1 1.9-.3 2.4-.6s.8-.9 1-1.9h1.2v12.5h-1.7V168h-2.9z"
             class="A900-IMA32Dst21"
             style="fill:#fff" /><path
             id="A900-IMA32Dpath340"
             d="M2311.7 176.9v-3.1h-5.5v-1.5l5.8-8h1.3v8.2h1.9v1.4h-1.9v3.1h-1.6zm0-4.5v-5.7l-4 5.7h4z"
             class="A900-IMA32Dst21"
             style="fill:#fff" /></g><g
           id="A900-IMA32Dg342"><path
             id="A900-IMA32Dpath344"
             d="M2348.9 168v-1.2c1.1-.1 1.9-.3 2.4-.6s.8-.9 1-1.9h1.2v12.5h-1.7V168h-2.9z"
             class="A900-IMA32Dst21"
             style="fill:#fff" /><path
             id="A900-IMA32Dpath346"
             d="M2359.4 173.7c.1.9.5 1.5 1.3 1.9.4.2.8.3 1.3.3.9 0 1.6-.3 2.1-.9.5-.6.7-1.3.7-2 0-.9-.3-1.6-.8-2-.5-.4-1.2-.7-1.9-.7-.5 0-1 .1-1.4.3-.4.2-.7.5-1 .9l-1.4-.1 1-6.8h6.5v1.5h-5.4l-.5 3.5c.3-.2.6-.4.8-.5.5-.2 1-.3 1.6-.3 1.2 0 2.1.4 2.9 1.1.8.7 1.2 1.7 1.2 2.8 0 1.2-.4 2.2-1.1 3.1-.7.9-1.9 1.4-3.5 1.4-1 0-1.9-.3-2.7-.9-.8-.6-1.2-1.5-1.3-2.7h1.6z"
             class="A900-IMA32Dst21"
             style="fill:#fff" /></g><g
           id="A900-IMA32Dg348"><path
             id="A900-IMA32Dpath350"
             d="M2400.3 168v-1.2c1.1-.1 1.9-.3 2.4-.6s.8-.9 1-1.9h1.2v12.5h-1.7V168h-2.9z"
             class="A900-IMA32Dst21"
             style="fill:#fff" /><path
             id="A900-IMA32Dpath352"
             d="M2416.8 165.3c.6.7.8 1.5.8 2.3h-1.6c-.1-.5-.2-.9-.4-1.2-.4-.5-1-.8-1.7-.8-.9 0-1.6.4-2.1 1.2-.5.8-.8 2-.9 3.5.4-.5.8-.9 1.4-1.2.5-.2 1.1-.4 1.7-.4 1.1 0 2 .3 2.8 1 .8.7 1.2 1.7 1.2 3 0 1.1-.4 2.2-1.1 3-.7.8-1.8 1.3-3.2 1.3-1.2 0-2.2-.4-3-1.3-.8-.9-1.3-2.4-1.3-4.5 0-1.6.2-2.9.6-4 .7-2.1 2.1-3.1 4-3.1 1.3.1 2.2.5 2.8 1.2zm-1.2 9.7c.4-.6.6-1.2.6-2 0-.6-.2-1.3-.6-1.8-.4-.5-1-.9-2-.9-.7 0-1.3.2-1.8.7-.5.5-.8 1.1-.8 2 0 .8.2 1.5.7 2 .5.5 1.1.8 1.9.8 1 0 1.6-.3 2-.8z"
             class="A900-IMA32Dst21"
             style="fill:#fff" /></g></g><g
         id="A900-IMA32Dg354"><circle
           id="A900-IMA32Dcircle356"
           data-cv-id="PORT-0"
           r="6.8"
           cy="199.6"
           cx="468.9"
           class="A900-IMA32Dst21"
           style="fill:#fff" /><circle
           id="A900-IMA32Dcircle358"
           data-cv-id="PORT-1"
           r="6.8"
           cy="199.6"
           cx="520.3"
           class="A900-IMA32Dst21"
           style="fill:#fff" /><circle
           id="A900-IMA32Dcircle360"
           data-cv-id="PORT-2"
           r="6.8"
           cy="199.6"
           cx="571.8"
           class="A900-IMA32Dst21"
           style="fill:#fff" /><circle
           id="A900-IMA32Dcircle362"
           data-cv-id="PORT-3"
           r="6.8"
           cy="199.6"
           cx="623.2"
           class="A900-IMA32Dst21"
           style="fill:#fff" /><circle
           id="A900-IMA32Dcircle364"
           data-cv-id="PORT-4"
           r="6.8"
           cy="199.6"
           cx="674.6"
           class="A900-IMA32Dst21"
           style="fill:#fff" /><circle
           id="A900-IMA32Dcircle366"
           data-cv-id="PORT-5"
           r="6.8"
           cy="199.6"
           cx="726"
           class="A900-IMA32Dst21"
           style="fill:#fff" /><circle
           id="A900-IMA32Dcircle368"
           data-cv-id="PORT-6"
           r="6.8"
           cy="199.6"
           cx="777.4"
           class="A900-IMA32Dst21"
           style="fill:#fff" /><circle
           id="A900-IMA32Dcircle370"
           data-cv-id="PORT-7"
           r="6.8"
           cy="199.6"
           cx="828.9"
           class="A900-IMA32Dst21"
           style="fill:#fff" /><circle
           id="A900-IMA32Dcircle372"
           data-cv-id="PORT-8"
           r="6.8"
           cy="199.6"
           cx="880.3"
           class="A900-IMA32Dst21"
           style="fill:#fff" /><circle
           id="A900-IMA32Dcircle374"
           data-cv-id="PORT-9"
           r="6.8"
           cy="199.6"
           cx="931.7"
           class="A900-IMA32Dst21"
           style="fill:#fff" /><circle
           id="A900-IMA32Dcircle376"
           data-cv-id="PORT-10"
           r="6.8"
           cy="199.6"
           cx="983.1"
           class="A900-IMA32Dst21"
           style="fill:#fff" /><circle
           id="A900-IMA32Dcircle378"
           data-cv-id="PORT-11"
           r="6.8"
           cy="199.6"
           cx="1086"
           class="A900-IMA32Dst21"
           style="fill:#fff" /><circle
           id="A900-IMA32Dcircle380"
           data-cv-id="PORT-12"
           r="6.8"
           cy="199.6"
           cx="1034.5"
           class="A900-IMA32Dst21"
           style="fill:#fff" /><circle
           id="A900-IMA32Dcircle382"
           data-cv-id="PORT-13"
           r="6.8"
           cy="199.6"
           cx="1137.4"
           class="A900-IMA32Dst21"
           style="fill:#fff" /><circle
           id="A900-IMA32Dcircle384"
           data-cv-id="PORT-14"
           r="6.8"
           cy="199.6"
           cx="1188.8"
           class="A900-IMA32Dst21"
           style="fill:#fff" /><circle
           id="A900-IMA32Dcircle386"
           data-cv-id="PORT-15"
           r="6.8"
           cy="199.6"
           cx="1240.2"
           class="A900-IMA32Dst21"
           style="fill:#fff" /><g
           id="A900-IMA32Dg388"><path
             id="A900-IMA32Dpath390"
             d="M466.1 168v-1.2c1.1-.1 1.9-.3 2.4-.6s.8-.9 1-1.9h1.2v12.5H469V168h-2.9z"
             class="A900-IMA32Dst21"
             style="fill:#fff" /></g><g
           id="A900-IMA32Dg392"><path
             id="A900-IMA32Dpath394"
             d="M516.1 174c.4-.8 1.1-1.5 2.3-2.2l1.7-1c.8-.4 1.3-.8 1.6-1.1.5-.5.7-1 .7-1.7s-.2-1.3-.7-1.7c-.4-.4-1-.6-1.8-.6-1.1 0-1.8.4-2.2 1.2-.2.4-.3 1.1-.4 1.8h-1.6c0-1.1.2-2 .6-2.7.7-1.2 1.9-1.8 3.6-1.8 1.4 0 2.5.4 3.2 1.2.7.8 1 1.6 1 2.6s-.4 1.9-1.1 2.6c-.4.4-1.1.9-2.2 1.5l-1.2.7c-.6.3-1 .6-1.4.9-.6.5-1 1.1-1.1 1.7h6.9v1.5h-8.6c.1-1.1.3-2.1.7-2.9z"
             class="A900-IMA32Dst21"
             style="fill:#fff" /></g><g
           id="A900-IMA32Dg396"><path
             id="A900-IMA32Dpath398"
             d="M567.8 176c-.7-.8-1-1.8-1-3h1.7c.1.8.2 1.4.5 1.8.4.7 1.2 1 2.2 1 .8 0 1.5-.2 2-.7.5-.5.8-1 .8-1.7 0-.9-.3-1.5-.8-1.8-.5-.3-1.3-.5-2.2-.5h-.6v-1.4h.8c.6 0 1.1-.1 1.5-.3.7-.3 1-.9 1-1.8 0-.6-.2-1.1-.7-1.5-.5-.4-1-.5-1.6-.5-1.1 0-1.8.4-2.2 1.1-.2.4-.3.9-.4 1.7h-1.6c0-.9.2-1.7.6-2.4.6-1.2 1.8-1.8 3.4-1.8 1.3 0 2.3.3 3 .9.7.6 1.1 1.4 1.1 2.5 0 .8-.2 1.4-.6 1.9-.3.3-.6.5-1 .7.7.2 1.2.5 1.6 1.1.4.6.6 1.2.6 1.9 0 1.2-.4 2.2-1.2 2.9-.8.7-1.9 1.1-3.4 1.1-1.7 0-2.8-.4-3.5-1.2z"
             class="A900-IMA32Dst21"
             style="fill:#fff" /></g><g
           id="A900-IMA32Dg400"><path
             id="A900-IMA32Dpath402"
             d="M623.7 176.9v-3.1h-5.5v-1.5l5.8-8h1.3v8.2h1.9v1.4h-1.9v3.1h-1.6zm-.1-4.5v-5.7l-4 5.7h4z"
             class="A900-IMA32Dst21"
             style="fill:#fff" /></g><g
           id="A900-IMA32Dg404"><path
             id="A900-IMA32Dpath406"
             d="M671.3 173.7c.1.9.5 1.5 1.3 1.9.4.2.8.3 1.3.3.9 0 1.6-.3 2.1-.9.5-.6.7-1.3.7-2 0-.9-.3-1.6-.8-2-.5-.4-1.2-.7-1.9-.7-.5 0-1 .1-1.4.3-.4.2-.7.5-1 .9l-1.4-.1 1-6.8h6.5v1.5h-5.4l-.5 3.5c.3-.2.6-.4.8-.5.5-.2 1-.3 1.6-.3 1.2 0 2.1.4 2.9 1.1.8.7 1.2 1.7 1.2 2.8 0 1.2-.4 2.2-1.1 3.1-.7.9-1.9 1.4-3.5 1.4-1 0-1.9-.3-2.7-.9-.8-.6-1.2-1.5-1.3-2.7h1.6z"
             class="A900-IMA32Dst21"
             style="fill:#fff" /></g><g
           id="A900-IMA32Dg408"><path
             id="A900-IMA32Dpath410"
             d="M728.6 165.3c.6.7.8 1.5.8 2.3h-1.6c-.1-.5-.2-.9-.4-1.2-.4-.5-1-.8-1.7-.8-.9 0-1.6.4-2.1 1.2-.5.8-.8 2-.9 3.5.4-.5.8-.9 1.4-1.2.5-.2 1.1-.4 1.7-.4 1.1 0 2 .3 2.8 1 .8.7 1.2 1.7 1.2 3 0 1.1-.4 2.2-1.1 3-.7.8-1.8 1.3-3.2 1.3-1.2 0-2.2-.4-3-1.3-.8-.9-1.3-2.4-1.3-4.5 0-1.6.2-2.9.6-4 .7-2.1 2.1-3.1 4-3.1 1.3.1 2.3.5 2.8 1.2zm-1.1 9.7c.4-.6.6-1.2.6-2 0-.6-.2-1.3-.6-1.8-.4-.5-1-.9-2-.9-.7 0-1.3.2-1.8.7-.5.5-.8 1.1-.8 2 0 .8.2 1.5.7 2 .5.5 1.1.8 1.9.8.9 0 1.5-.3 2-.8z"
             class="A900-IMA32Dst21"
             style="fill:#fff" /></g><g
           id="A900-IMA32Dg412"><path
             id="A900-IMA32Dpath414"
             d="M781.2 164.5v1.4c-.4.4-.9 1.1-1.6 2-.7.9-1.3 2-1.8 3.1s-.9 2.1-1.2 3c-.2.6-.4 1.5-.7 2.8h-1.7c.4-2.4 1.3-4.8 2.6-7.2.8-1.4 1.6-2.6 2.5-3.6h-7v-1.6h8.9z"
             class="A900-IMA32Dst21"
             style="fill:#fff" /></g><g
           id="A900-IMA32Dg416"><path
             id="A900-IMA32Dpath418"
             d="M825.1 169.5c-.5-.5-.7-1.1-.7-1.8 0-.9.3-1.7 1-2.4s1.6-1 2.9-1c1.2 0 2.2.3 2.8 1 .6.7 1 1.4 1 2.2 0 .8-.2 1.4-.6 1.9-.2.3-.6.5-1 .8.5.2.9.5 1.2.8.6.6.8 1.3.8 2.3 0 1.1-.4 2-1.1 2.8-.7.8-1.8 1.2-3.2 1.2-1.2 0-2.3-.3-3.1-1-.8-.7-1.3-1.6-1.3-2.9 0-.7.2-1.4.5-1.9s.9-1 1.6-1.2c-.3-.3-.6-.5-.8-.8zm5.1 5.7c.5-.4.7-1 .7-1.8s-.2-1.4-.7-1.9c-.5-.5-1.1-.6-1.9-.6-.8 0-1.4.2-1.9.6-.5.4-.7 1-.7 1.8 0 .7.2 1.2.7 1.7.5.5 1.1.7 2 .7.7.1 1.3-.1 1.8-.5zm-.3-6.2c.4-.4.6-.9.6-1.4 0-.5-.2-.9-.6-1.3-.4-.4-.9-.6-1.7-.6-.8 0-1.3.2-1.6.6-.3.4-.5.9-.5 1.4 0 .6.2 1.1.7 1.4.4.3 1 .5 1.6.5.5 0 1.1-.2 1.5-.6z"
             class="A900-IMA32Dst21"
             style="fill:#fff" /></g><g
           id="A900-IMA32Dg420"><path
             id="A900-IMA32Dpath422"
             d="M877.2 173.8c0 .9.4 1.5 1 1.8.3.2.7.3 1.1.3.8 0 1.4-.3 1.9-.9.5-.6.9-1.9 1.1-3.8-.4.6-.8.9-1.3 1.2-.5.3-1.1.3-1.7.3-1.2 0-2.2-.4-2.9-1.1-.7-.8-1.1-1.7-1.1-2.9 0-1.1.3-2.1 1-3 .7-.9 1.7-1.3 3.1-1.3 1.8 0 3.1.8 3.8 2.5.4.9.6 2 .6 3.4 0 1.5-.2 2.9-.7 4.1-.8 2-2.1 3-3.9 3-1.2 0-2.2-.3-2.8-1-.6-.7-1-1.5-1-2.4h1.8zm4.1-3.2c.5-.4.8-1.1.8-2.2 0-.9-.2-1.6-.7-2.1-.5-.5-1.1-.7-1.8-.7-.8 0-1.4.3-1.8.8-.5.5-.7 1.2-.7 2.1 0 .8.2 1.5.6 2 .4.5 1 .7 1.9.7.6 0 1.2-.2 1.7-.6z"
             class="A900-IMA32Dst21"
             style="fill:#fff" /></g><g
           id="A900-IMA32Dg424"><path
             id="A900-IMA32Dpath426"
             d="M922.3 168v-1.2c1.1-.1 1.9-.3 2.4-.6s.8-.9 1-1.9h1.2v12.5h-1.7V168h-2.9z"
             class="A900-IMA32Dst21"
             style="fill:#fff" /><path
             id="A900-IMA32Dpath428"
             d="M939 166.3c.6 1 .8 2.5.8 4.3 0 1.7-.3 3.1-.8 4.2-.7 1.6-1.9 2.4-3.6 2.4-1.5 0-2.6-.7-3.4-2-.6-1.1-.9-2.6-.9-4.4 0-1.4.2-2.7.6-3.7.7-1.9 1.9-2.9 3.8-2.9 1.6.1 2.8.8 3.5 2.1zm-1.6 8.4c.5-.7.7-2.1.7-4.1 0-1.4-.2-2.6-.5-3.5-.4-.9-1-1.4-2.1-1.4-.9 0-1.6.4-2 1.3-.4.9-.6 2.2-.6 3.9 0 1.3.1 2.3.4 3.1.4 1.2 1.1 1.8 2.2 1.8.8 0 1.4-.4 1.9-1.1z"
             class="A900-IMA32Dst21"
             style="fill:#fff" /></g><g
           id="A900-IMA32Dg430"><path
             id="A900-IMA32Dpath432"
             d="M975.8 168v-1.2c1.1-.1 1.9-.3 2.4-.6s.8-.9 1-1.9h1.2v12.5h-1.7V168h-2.9z"
             class="A900-IMA32Dst21"
             style="fill:#fff" /><path
             id="A900-IMA32Dpath434"
             d="M984.5 168v-1.2c1.1-.1 1.9-.3 2.4-.6s.8-.9 1-1.9h1.2v12.5h-1.7V168h-2.9z"
             class="A900-IMA32Dst21"
             style="fill:#fff" /></g><g
           id="A900-IMA32Dg436"><path
             id="A900-IMA32Dpath438"
             d="M1025.1 168v-1.2c1.1-.1 1.9-.3 2.4-.6s.8-.9 1-1.9h1.2v12.5h-1.7V168h-2.9z"
             class="A900-IMA32Dst21"
             style="fill:#fff" /><path
             id="A900-IMA32Dpath440"
             d="M1034.6 174c.4-.8 1.2-1.5 2.3-2.2l1.7-1c.8-.4 1.3-.8 1.6-1.1.5-.5.7-1 .7-1.7s-.2-1.3-.7-1.7c-.4-.4-1-.6-1.8-.6-1.1 0-1.8.4-2.2 1.2-.2.4-.3 1.1-.4 1.8h-1.6c0-1.1.2-2 .6-2.7.7-1.2 1.9-1.8 3.6-1.8 1.4 0 2.5.4 3.2 1.2.7.8 1 1.6 1 2.6s-.4 1.9-1.1 2.6c-.4.4-1.1.9-2.2 1.5l-1.2.7c-.6.3-1 .6-1.4.9-.6.5-1 1.1-1.1 1.7h6.9v1.5h-8.6c.1-1.1.3-2.1.7-2.9z"
             class="A900-IMA32Dst21"
             style="fill:#fff" /></g><g
           id="A900-IMA32Dg442"><path
             id="A900-IMA32Dpath444"
             d="M1076.5 168v-1.2c1.1-.1 1.9-.3 2.4-.6s.8-.9 1-1.9h1.2v12.5h-1.7V168h-2.9z"
             class="A900-IMA32Dst21"
             style="fill:#fff" /><path
             id="A900-IMA32Dpath446"
             d="M1086.3 176c-.7-.8-1-1.8-1-3h1.7c.1.8.2 1.4.5 1.8.4.7 1.2 1 2.2 1 .8 0 1.5-.2 2-.7.5-.5.8-1 .8-1.7 0-.9-.3-1.5-.8-1.8-.5-.3-1.3-.5-2.2-.5h-.6v-1.4h.8c.6 0 1.1-.1 1.5-.3.7-.3 1-.9 1-1.8 0-.6-.2-1.1-.7-1.5-.5-.4-1-.5-1.6-.5-1.1 0-1.8.4-2.2 1.1-.2.4-.3.9-.4 1.7h-1.6c0-.9.2-1.7.6-2.4.6-1.2 1.8-1.8 3.4-1.8 1.3 0 2.3.3 3 .9.7.6 1.1 1.4 1.1 2.5 0 .8-.2 1.4-.6 1.9-.3.3-.6.5-1 .7.7.2 1.2.5 1.6 1.1.4.6.6 1.2.6 1.9 0 1.2-.4 2.2-1.2 2.9-.8.7-1.9 1.1-3.4 1.1-1.8 0-2.9-.4-3.5-1.2z"
             class="A900-IMA32Dst21"
             style="fill:#fff" /></g><g
           id="A900-IMA32Dg448"><path
             id="A900-IMA32Dpath450"
             d="M1127.9 168v-1.2c1.1-.1 1.9-.3 2.4-.6s.8-.9 1-1.9h1.2v12.5h-1.7V168h-2.9z"
             class="A900-IMA32Dst21"
             style="fill:#fff" /><path
             id="A900-IMA32Dpath452"
             d="M1142.1 176.9v-3.1h-5.5v-1.5l5.8-8h1.3v8.2h1.9v1.4h-1.9v3.1h-1.6zm0-4.5v-5.7l-4 5.7h4z"
             class="A900-IMA32Dst21"
             style="fill:#fff" /></g><g
           id="A900-IMA32Dg454"><path
             id="A900-IMA32Dpath456"
             d="M1179.3 168v-1.2c1.1-.1 1.9-.3 2.4-.6s.8-.9 1-1.9h1.2v12.5h-1.7V168h-2.9z"
             class="A900-IMA32Dst21"
             style="fill:#fff" /><path
             id="A900-IMA32Dpath458"
             d="M1189.9 173.7c.1.9.5 1.5 1.3 1.9.4.2.8.3 1.3.3.9 0 1.6-.3 2.1-.9.5-.6.7-1.3.7-2 0-.9-.3-1.6-.8-2-.5-.4-1.2-.7-1.9-.7-.5 0-1 .1-1.4.3-.4.2-.7.5-1 .9l-1.4-.1 1-6.8h6.5v1.5h-5.4l-.5 3.5c.3-.2.6-.4.8-.5.5-.2 1-.3 1.6-.3 1.2 0 2.1.4 2.9 1.1.8.7 1.2 1.7 1.2 2.8 0 1.2-.4 2.2-1.1 3.1-.7.9-1.9 1.4-3.5 1.4-1 0-1.9-.3-2.7-.9-.8-.6-1.2-1.5-1.3-2.7h1.6z"
             class="A900-IMA32Dst21"
             style="fill:#fff" /></g><g
           id="A900-IMA32Dg460"><path
             id="A900-IMA32Dpath462"
             d="M1230.7 168v-1.2c1.1-.1 1.9-.3 2.4-.6s.8-.9 1-1.9h1.2v12.5h-1.7V168h-2.9z"
             class="A900-IMA32Dst21"
             style="fill:#fff" /><path
             id="A900-IMA32Dpath464"
             d="M1247.2 165.3c.6.7.8 1.5.8 2.3h-1.6c-.1-.5-.2-.9-.4-1.2-.4-.5-1-.8-1.7-.8-.9 0-1.6.4-2.1 1.2-.5.8-.8 2-.9 3.5.4-.5.8-.9 1.4-1.2.5-.2 1.1-.4 1.7-.4 1.1 0 2 .3 2.8 1 .8.7 1.2 1.7 1.2 3 0 1.1-.4 2.2-1.1 3-.7.8-1.8 1.3-3.2 1.3-1.2 0-2.2-.4-3-1.3-.8-.9-1.3-2.4-1.3-4.5 0-1.6.2-2.9.6-4 .7-2.1 2.1-3.1 4-3.1 1.3.1 2.3.5 2.8 1.2zm-1.2 9.7c.4-.6.6-1.2.6-2 0-.6-.2-1.3-.6-1.8-.4-.5-1-.9-2-.9-.7 0-1.3.2-1.8.7-.5.5-.8 1.1-.8 2 0 .8.2 1.5.7 2 .5.5 1.1.8 1.9.8 1 0 1.6-.3 2-.8z"
             class="A900-IMA32Dst21"
             style="fill:#fff" /></g></g></g></g><text
     xml:space="preserve"
     style="font-style:normal;font-weight:normal;font-size:40px;line-height:1.25;font-family:sans-serif;letter-spacing:0px;word-spacing:0px;fill:#000000;fill-opacity:1;stroke:none"
     x="161.5237"
     y="107.39504"
     id="text244"><tspan
       sodipodi:role="line"
       id="tspan242"
       x="161.5237"
       y="143.88826" /></text>
</svg>