<?xml version="1.0" encoding="UTF-8" standalone="no"?>
<svg
   xmlns:dc="http://purl.org/dc/elements/1.1/"
   xmlns:cc="http://creativecommons.org/ns#"
   xmlns:rdf="http://www.w3.org/1999/02/22-rdf-syntax-ns#"
   xmlns:svg="http://www.w3.org/2000/svg"
   xmlns="http://www.w3.org/2000/svg"
   xmlns:sodipodi="http://sodipodi.sourceforge.net/DTD/sodipodi-0.dtd"
   xmlns:inkscape="http://www.inkscape.org/namespaces/inkscape"
   version="1.1"
   id="A900-FILLER-RSPLayer_1"
   x="0"
   y="0"
   viewBox="0 0 679.00002 121.44"
   xml:space="preserve"
   width="679"
   height="121.44"
   sodipodi:docname="A900-FILLER-RSP.svg"
   inkscape:version="0.92.1 r15371"><metadata
     id="metadata34"><rdf:RDF><cc:Work
         rdf:about=""><dc:format>image/svg+xml</dc:format><dc:type
           rdf:resource="http://purl.org/dc/dcmitype/StillImage" /></cc:Work></rdf:RDF></metadata><defs
     id="defs32" /><sodipodi:namedview
     pagecolor="#ffffff"
     bordercolor="#666666"
     borderopacity="1"
     objecttolerance="10"
     gridtolerance="10"
     guidetolerance="10"
     inkscape:pageopacity="0"
     inkscape:pageshadow="2"
     inkscape:window-width="1920"
     inkscape:window-height="986"
     id="namedview30"
     showgrid="false"
     inkscape:zoom="2.5787854"
     inkscape:cx="339.50093"
     inkscape:cy="60.719816"
     inkscape:window-x="-11"
     inkscape:window-y="-11"
     inkscape:window-maximized="1"
     inkscape:current-layer="A900-FILLER-RSPLayer_1" /><style
     type="text/css"
     id="A900-FILLER-RSPstyle3">.st0{fill-rule:evenodd;clip-rule:evenodd;fill:#eee}.st1{fill:gray}.st2,.st3,.st4,.st5{fill-rule:evenodd;clip-rule:evenodd;fill:#d8d8d8;stroke:#9a9a9a;stroke-width:.24;stroke-linecap:round;stroke-linejoin:round;stroke-miterlimit:3}.st3,.st4,.st5{fill:#f3f3f3;stroke:#a5a5a5;stroke-width:.72}.st4,.st5{fill:#d8d8d8;stroke-width:.24}.st5{fill:#a5a5a5}</style><g
     id="A900-FILLER-RSPFiller5"
     transform="matrix(1.00015 0 0 1.00198 -.1 -.1)"><g
       id="A900-FILLER-RSPg6"><g
         id="A900-FILLER-RSPg8"><g
           id="A900-FILLER-RSPg10"><path
             class="st0"
             d="M23.3 116.1c-.2 0-.4-.1-.6-.2L.9 97.8c-.2-.2-.3-.4-.3-.8V70.7C.8 65.3 5.4 61 11.1 61h19.6c.5 0 .9.4.9.9l.1 53.3c0 .5-.4.9-.9.9h-7.5z"
             id="A900-FILLER-RSPpath12"
             style="clip-rule:evenodd;fill:#eee;fill-rule:evenodd" /><path
             class="st1"
             d="M11.1 61.6h19.8c.2 0 .4.2.4.4l.1 53.3c0 .3-.2.4-.4.4h-.1l-7.5-.2c-.1 0-.2 0-.2-.1l-.1-.1-21.7-18c-.1-.1-.2-.2-.2-.4V70.7c.1-5.1 4.5-9.1 9.9-9.1m0-1C5.3 60.6.4 65 .1 70.7V97c0 .5.2.8.5 1.1l21.8 18.1c.2.2.6.4.9.4l7.5.2h.1c.8 0 1.4-.6 1.4-1.4L32.2 62c0-.8-.7-1.4-1.4-1.4H11.1z"
             id="A900-FILLER-RSPpath14"
             style="fill:gray" /></g><g
           id="A900-FILLER-RSPg16"><path
             class="st2"
             d="M7.5 71.4c3.3-3.4 8.8-3.4 12.1-.1 3.3 3.4 3.3 8.8-.1 12.1-3.3 3.2-8.6 3.2-11.9-.1-3.2-3.3-3.3-8.6-.1-11.9h0z"
             id="A900-FILLER-RSPpath18"
             style="clip-rule:evenodd;fill:#d8d8d8;fill-rule:evenodd;stroke:#9a9a9a;stroke-width:.23974507;stroke-linecap:round;stroke-linejoin:round;stroke-miterlimit:3" /><path
             class="st3"
             d="M8.7 72.6c-2.6 2.6-2.6 7 0 9.6 2.7 2.6 7 2.6 9.6 0 2.7-2.6 2.6-6.9 0-9.6-2.6-2.6-7-2.6-9.6 0h0z"
             id="A900-FILLER-RSPpath20"
             style="clip-rule:evenodd;fill:#f3f3f3;fill-rule:evenodd;stroke:#a5a5a5;stroke-width:.71923524;stroke-linecap:round;stroke-linejoin:round;stroke-miterlimit:3" /><path
             class="st4"
             d="M19 80.9 7.3 75.5c.1-.7.4-1.3.8-1.8l11.7 5.5c-.1.7-.4 1.3-.8 1.7h0z"
             id="A900-FILLER-RSPpath22"
             style="clip-rule:evenodd;fill:#d8d8d8;fill-rule:evenodd;stroke:#a5a5a5;stroke-width:.23974507;stroke-linecap:round;stroke-linejoin:round;stroke-miterlimit:3" /><path
             class="st5"
             d="m11.8 77.9-.9-.4c.3-.8.7-1.7 1.1-2.4l.9.4.3-.7c.8.3 1.7.7 2.4 1.1l-.3.7.8.4c-.3.8-.7 1.7-1.1 2.4l-.8-.4-.4.8c-.8-.3-1.7-.7-2.5-1.1l.5-.8h0z"
             id="A900-FILLER-RSPpath24"
             style="clip-rule:evenodd;fill:#a5a5a5;fill-rule:evenodd;stroke:#a5a5a5;stroke-width:.23974507;stroke-linecap:round;stroke-linejoin:round;stroke-miterlimit:3" /></g></g><g
         id="A900-FILLER-RSPg26"><g
           id="A900-FILLER-RSPg28"><path
             class="st0"
             d="M652.9 116.1c-.5 0-.9-.4-.9-.9V62c0-.5.4-.9.9-.9l15.5.1h.6c5 0 9.2 4 9.5 9.1v30.9c0 .3-.1.5-.3.7L663 116.1c-.2.1-.4.2-.7.2l-9.4-.2z"
             id="A900-FILLER-RSPpath30"
             style="clip-rule:evenodd;fill:#eee;fill-rule:evenodd" /><path
             class="st1"
             d="m652.9 61.6 15.4.1h.8c4.8 0 8.7 3.8 9 8.6v30.8c0 .1 0 .2-.2.3l-15.2 14.2c-.1.1-.2.1-.3.1l-9.4-.2c-.2 0-.4-.2-.4-.4V62c-.1-.2.1-.4.3-.4m0-1c-.8 0-1.4.7-1.4 1.4v53.1c0 .8.6 1.4 1.4 1.4l9.4.2c.4 0 .7-.1 1-.4l15.2-14.2c.3-.3.5-.7.5-1.1V70.2c-.3-5.4-4.7-9.6-10-9.6h-16.1z"
             id="A900-FILLER-RSPpath32"
             style="fill:gray" /></g><g
           id="A900-FILLER-RSPg34"><path
             class="st2"
             d="M673.2 83.4c3.4-3.2 3.4-8.7.1-12.1-3.3-3.4-8.8-3.3-12.1.1-3.3 3.4-3.2 8.6.1 11.9 3.3 3.3 8.5 3.3 11.9.1h0z"
             id="A900-FILLER-RSPpath36"
             style="clip-rule:evenodd;fill:#d8d8d8;fill-rule:evenodd;stroke:#9a9a9a;stroke-width:.23974507;stroke-linecap:round;stroke-linejoin:round;stroke-miterlimit:3" /><path
             class="st3"
             d="M672 82.3c-2.6 2.6-7 2.6-9.6-.1-2.6-2.6-2.7-7 0-9.6 2.6-2.6 6.9-2.6 9.6.1 2.6 2.6 2.6 6.9 0 9.6h0z"
             id="A900-FILLER-RSPpath38"
             style="clip-rule:evenodd;fill:#f3f3f3;fill-rule:evenodd;stroke:#a5a5a5;stroke-width:.71923524;stroke-linecap:round;stroke-linejoin:round;stroke-miterlimit:3" /><path
             class="st4"
             d="m663.7 72 5.4 11.7c.7-.1 1.4-.4 1.9-.8l-5.5-11.7c-.8 0-1.4.3-1.8.8h0z"
             id="A900-FILLER-RSPpath40"
             style="clip-rule:evenodd;fill:#d8d8d8;fill-rule:evenodd;stroke:#a5a5a5;stroke-width:.23974507;stroke-linecap:round;stroke-linejoin:round;stroke-miterlimit:3" /><path
             class="st5"
             d="m666.7 79.1.4.8c.8-.2 1.7-.7 2.4-1.1l-.4-.9.7-.3c-.3-.8-.7-1.7-1.1-2.5l-.7.4-.4-.8c-.8.3-1.7.7-2.4 1.1l.4.8-.8.4c.3.8.7 1.7 1.1 2.4l.8-.3h0z"
             id="A900-FILLER-RSPpath42"
             style="clip-rule:evenodd;fill:#a5a5a5;fill-rule:evenodd;stroke:#a5a5a5;stroke-width:.23974507;stroke-linecap:round;stroke-linejoin:round;stroke-miterlimit:3" /></g></g></g><g
       id="A900-FILLER-RSPg44"><path
         class="st0"
         d="M30.7 120.8c-2.2 0-4-1.8-4-4V4.6c0-2.2 1.8-4 4-4H648c2.2 0 4 1.8 4 4v112.2c0 2.2-1.8 4-4 4H30.7z"
         id="A900-FILLER-RSPpath46"
         style="clip-rule:evenodd;fill:#eee;fill-rule:evenodd" /><path
         class="st1"
         d="M648.1 1.1c1.9 0 3.5 1.6 3.5 3.5v112.2c0 2-1.5 3.5-3.5 3.5H30.7c-2 0-3.5-1.5-3.5-3.5V4.6c0-1.9 1.6-3.5 3.5-3.5h617.4m0-1H30.7c-2.5 0-4.5 2-4.5 4.5v112.2c0 2.5 2 4.5 4.5 4.5H648c2.5 0 4.5-2 4.5-4.5V4.6c.1-2.4-1.9-4.5-4.4-4.5z"
         id="A900-FILLER-RSPpath48"
         style="fill:gray" /></g><g
       id="A900-FILLER-RSPg50"><path
         d="M40.6 110.8c-2.2 0-3.9-1.4-3.9-3.3V13.9c0-1.8 1.7-3.3 3.9-3.3h597.6c2.1 0 3.9 1.5 3.9 3.3v93.7c0 1.8-1.7 3.3-3.9 3.3H40.6z"
         id="A900-FILLER-RSPpath52"
         style="clip-rule:evenodd;fill:#bfbfbf;fill-rule:evenodd" /><path
         class="st1"
         d="M638.2 11.1c1.9 0 3.4 1.2 3.4 2.8v93.7c0 1.5-1.5 2.8-3.4 2.8H40.6c-1.9 0-3.4-1.2-3.4-2.8V13.9c0-1.5 1.5-2.8 3.4-2.8h597.6m0-1H40.6c-2.4 0-4.4 1.7-4.4 3.8v93.7c0 2.1 1.9 3.8 4.4 3.8h597.6c2.4 0 4.4-1.7 4.4-3.8V13.9c0-2.1-2-3.8-4.4-3.8z"
         id="A900-FILLER-RSPpath54"
         style="fill:gray" /></g></g><text
     xml:space="preserve"
     style="font-style:normal;font-weight:normal;font-size:40px;line-height:1.25;font-family:sans-serif;letter-spacing:0px;word-spacing:0px;fill:#000000;fill-opacity:1;stroke:none"
     x="132.62057"
     y="71.80423"
     id="text38"><tspan
       sodipodi:role="line"
       id="tspan36"
       x="132.62057"
       y="108.29744" /></text>
</svg>