<?xml version="1.0" encoding="UTF-8" standalone="no"?>
<svg
   xmlns:dc="http://purl.org/dc/elements/1.1/"
   xmlns:cc="http://creativecommons.org/ns#"
   xmlns:rdf="http://www.w3.org/1999/02/22-rdf-syntax-ns#"
   xmlns:svg="http://www.w3.org/2000/svg"
   xmlns="http://www.w3.org/2000/svg"
   xmlns:xlink="http://www.w3.org/1999/xlink"
   xmlns:sodipodi="http://sodipodi.sourceforge.net/DTD/sodipodi-0.dtd"
   xmlns:inkscape="http://www.inkscape.org/namespaces/inkscape"
   width="19in"
   height="508.8"
   viewBox="0 0 1367.999 381.6"
   xml:space="preserve"
   id="svg2"
   version="1.1"
   style="font-size:12px;overflow:visible;color-interpolation-filters:sRGB;fill:none;fill-rule:evenodd;stroke-linecap:square;stroke-miterlimit:3"
   sodipodi:docname="ASR-903-Front.svg"
   inkscape:version="0.92.1 r15371"><metadata
     id="metadata265"><rdf:RDF><cc:Work
         rdf:about=""><dc:format>image/svg+xml</dc:format><dc:type
           rdf:resource="http://purl.org/dc/dcmitype/StillImage" /></cc:Work></rdf:RDF></metadata><sodipodi:namedview
     pagecolor="#ffffff"
     bordercolor="#666666"
     borderopacity="1"
     objecttolerance="10"
     gridtolerance="10"
     guidetolerance="10"
     inkscape:pageopacity="0"
     inkscape:pageshadow="2"
     inkscape:window-width="1920"
     inkscape:window-height="986"
     id="namedview263"
     showgrid="false"
     inkscape:zoom="0.95980934"
     inkscape:cx="914.38966"
     inkscape:cy="254.2439"
     inkscape:window-x="-11"
     inkscape:window-y="-11"
     inkscape:window-maximized="1"
     inkscape:current-layer="svg2" /><style
     type="text/css"
     id="style4">.asr-903-chassis-st2,.asr-903-chassis-st4,.asr-903-chassis-st6{stroke:#000;stroke-linecap:round;stroke-linejoin:round;stroke-width:.24}.asr-903-chassis-st4,.asr-903-chassis-st6{fill:url(#grad0-17);stroke:gray}.asr-903-chassis-st6{fill:url(#grad1-26)}</style><defs
     id="Patterns_And_Gradients"><linearGradient
       id="grad0-12"
       x1="-.066"
       y1="4.805"
       x2="686.91"
       y2="4.805"
       gradientTransform="scale(1.82711 .54731)"
       gradientUnits="userSpaceOnUse"><stop
         offset="0"
         stop-color="#212121"
         stop-opacity="1"
         id="stop8" /><stop
         offset="1"
         stop-color="#595959"
         stop-opacity="1"
         id="stop10" /></linearGradient><linearGradient
       id="grad0-17"
       x1="0"
       y1="0"
       x2="1"
       y2="0"><stop
         offset="0"
         stop-color="#f2f2f2"
         stop-opacity="1"
         id="stop13" /><stop
         offset="1"
         stop-color="#8c8c8c"
         stop-opacity="1"
         id="stop15" /></linearGradient><linearGradient
       id="grad0-33"
       x1="-.112"
       y1="403.13"
       x2="3.774"
       y2="403.13"
       gradientTransform="scale(1.075 .93024)"
       gradientUnits="userSpaceOnUse"><stop
         offset="0"
         stop-color="#bfbfbf"
         stop-opacity="1"
         id="stop23" /><stop
         offset="1"
         stop-color="#f2f2f2"
         stop-opacity="1"
         id="stop25" /></linearGradient><linearGradient
       id="grad0-37"
       x1="-.102"
       y1="441.97"
       x2="4.159"
       y2="441.97"
       gradientTransform="scale(1.17857 .84849)"
       gradientUnits="userSpaceOnUse"><stop
         offset="0"
         stop-color="#f2f2f2"
         stop-opacity="1"
         id="stop28" /><stop
         offset="1"
         stop-color="#c3c3c3"
         stop-opacity="1"
         id="stop30" /></linearGradient><linearGradient
       id="grad0-43"
       x1="-.668"
       y1="5.427"
       x2="61.947"
       y2="5.427"
       gradientTransform="scale(.1797 5.56454)"
       gradientUnits="userSpaceOnUse"><stop
         offset="0"
         stop-color="#a6a6a6"
         stop-opacity="1"
         id="stop33" /><stop
         offset=".5"
         stop-color="#d9d9d9"
         stop-opacity="1"
         id="stop35" /><stop
         offset="1"
         stop-color="#a6a6a6"
         stop-opacity="1"
         id="stop37" /></linearGradient><linearGradient
       id="grad0-51"
       x1="0"
       y1="0"
       x2="1"
       y2="0"><stop
         offset="0"
         stop-color="#dadada"
         stop-opacity="1"
         id="stop40" /><stop
         offset=".5"
         stop-color="#f2f2f2"
         stop-opacity="1"
         id="stop42" /><stop
         offset="1"
         stop-color="#dadada"
         stop-opacity="1"
         id="stop44" /></linearGradient><linearGradient
       id="grad0-62"
       x1="0"
       y1="0"
       x2="1"
       y2="0"
       gradientTransform="rotate(90 .5 .5)"><stop
         offset="0"
         stop-color="#595959"
         stop-opacity="1"
         id="stop47" /><stop
         offset=".5"
         stop-color="#d9d9d9"
         stop-opacity="1"
         id="stop49" /><stop
         offset="1"
         stop-color="#595959"
         stop-opacity="1"
         id="stop51" /></linearGradient><linearGradient
       xlink:href="#grad0-51"
       id="linearGradient3935"
       gradientTransform="scale(.10094 9.90688)"
       x1="-1.189"
       y1="-25.483"
       x2="62.512"
       y2="-25.483"
       gradientUnits="userSpaceOnUse" /><linearGradient
       xlink:href="#grad0-51"
       id="linearGradient3937"
       gradientTransform="scale(.49724 2.0111)"
       x1="-.001"
       y1="137.303"
       x2="50.901"
       y2="137.303"
       gradientUnits="userSpaceOnUse" /><linearGradient
       xlink:href="#grad0-62"
       id="linearGradient3939"
       x1="0"
       y1="363.018"
       x2="15.483"
       y2="363.018"
       gradientUnits="userSpaceOnUse" /><linearGradient
       xlink:href="#grad0-62"
       id="linearGradient3941"
       x1="0"
       y1="363.018"
       x2="15.483"
       y2="363.018"
       gradientUnits="userSpaceOnUse" /><linearGradient
       xlink:href="#grad0-62"
       id="linearGradient3943"
       x1="0"
       y1="363.018"
       x2="15.483"
       y2="363.018"
       gradientUnits="userSpaceOnUse" /><linearGradient
       xlink:href="#grad0-51"
       id="linearGradient3945"
       gradientTransform="scale(.25775 3.8797)"
       x1="-.466"
       y1="2.998"
       x2="94.127"
       y2="2.998"
       gradientUnits="userSpaceOnUse" /><linearGradient
       xlink:href="#grad0-62"
       id="linearGradient3947"
       x1="0"
       y1="363.018"
       x2="15.483"
       y2="363.018"
       gradientUnits="userSpaceOnUse" /><linearGradient
       xlink:href="#grad0-62"
       id="linearGradient3949"
       x1="0"
       y1="363.018"
       x2="15.483"
       y2="363.018"
       gradientUnits="userSpaceOnUse" /><linearGradient
       xlink:href="#grad0-62"
       id="linearGradient3951"
       x1="0"
       y1="363.018"
       x2="15.483"
       y2="363.018"
       gradientUnits="userSpaceOnUse" /><linearGradient
       xlink:href="#grad0-62"
       id="linearGradient3953"
       x1="0"
       y1="363.018"
       x2="15.483"
       y2="363.018"
       gradientUnits="userSpaceOnUse" /><linearGradient
       xlink:href="#grad0-62"
       id="linearGradient3955"
       x1="0"
       y1="363.018"
       x2="15.483"
       y2="363.018"
       gradientUnits="userSpaceOnUse" /><linearGradient
       xlink:href="#grad0-62"
       id="linearGradient3957"
       x1="0"
       y1="363.018"
       x2="15.483"
       y2="363.018"
       gradientUnits="userSpaceOnUse" /><linearGradient
       xlink:href="#grad0-51"
       id="linearGradient3959"
       gradientTransform="scale(.35544 2.81343)"
       x1="-.338"
       y1="4.933"
       x2="129.305"
       y2="4.933"
       gradientUnits="userSpaceOnUse" /><linearGradient
       xlink:href="#grad0-62"
       id="linearGradient3961"
       x1="0"
       y1="363.018"
       x2="15.483"
       y2="363.018"
       gradientUnits="userSpaceOnUse" /><linearGradient
       xlink:href="#grad0-62"
       id="linearGradient3963"
       x1="0"
       y1="363.018"
       x2="15.483"
       y2="363.018"
       gradientUnits="userSpaceOnUse" /><linearGradient
       xlink:href="#grad0-62"
       id="linearGradient3965"
       x1="0"
       y1="363.018"
       x2="15.483"
       y2="363.018"
       gradientUnits="userSpaceOnUse" /><linearGradient
       xlink:href="#grad0-62"
       id="linearGradient3967"
       x1="0"
       y1="363.018"
       x2="15.483"
       y2="363.018"
       gradientUnits="userSpaceOnUse" /><linearGradient
       xlink:href="#grad0-62"
       id="linearGradient3969"
       x1="0"
       y1="363.018"
       x2="15.483"
       y2="363.018"
       gradientUnits="userSpaceOnUse" /><linearGradient
       xlink:href="#grad0-62"
       id="linearGradient3971"
       x1="0"
       y1="363.018"
       x2="15.483"
       y2="363.018"
       gradientUnits="userSpaceOnUse" /><linearGradient
       xlink:href="#grad0-62"
       id="linearGradient3973"
       x1="0"
       y1="363.018"
       x2="15.483"
       y2="363.018"
       gradientUnits="userSpaceOnUse" /><linearGradient
       xlink:href="#grad0-62"
       id="linearGradient3975"
       x1="0"
       y1="363.018"
       x2="15.483"
       y2="363.018"
       gradientUnits="userSpaceOnUse" /><linearGradient
       xlink:href="#grad0-62"
       id="linearGradient3977"
       x1="0"
       y1="363.018"
       x2="15.483"
       y2="363.018"
       gradientUnits="userSpaceOnUse" /><linearGradient
       xlink:href="#grad0-51"
       id="linearGradient3979"
       gradientTransform="scale(.26921 3.71456)"
       x1="-.446"
       y1="2.824"
       x2="98.659"
       y2="2.824"
       gradientUnits="userSpaceOnUse" /><linearGradient
       xlink:href="#grad0-62"
       id="linearGradient3981"
       x1="0"
       y1="363.018"
       x2="15.483"
       y2="363.018"
       gradientUnits="userSpaceOnUse" /><linearGradient
       xlink:href="#grad0-62"
       id="linearGradient3983"
       x1="0"
       y1="363.018"
       x2="15.483"
       y2="363.018"
       gradientUnits="userSpaceOnUse" /><linearGradient
       xlink:href="#grad0-62"
       id="linearGradient3985"
       x1="0"
       y1="363.018"
       x2="15.483"
       y2="363.018"
       gradientUnits="userSpaceOnUse" /><linearGradient
       xlink:href="#grad0-62"
       id="linearGradient3987"
       x1="0"
       y1="363.018"
       x2="15.483"
       y2="363.018"
       gradientUnits="userSpaceOnUse" /><linearGradient
       xlink:href="#grad0-62"
       id="linearGradient3989"
       x1="0"
       y1="363.018"
       x2="15.483"
       y2="363.018"
       gradientUnits="userSpaceOnUse" /><radialGradient
       id="grad1-26"
       cx="1"
       cy="1"
       r="1.4"><stop
         offset="0"
         stop-color="#f2f2f2"
         stop-opacity="1"
         id="stop18" /><stop
         offset="1"
         stop-color="#8c8c8c"
         stop-opacity="1"
         id="stop20" /></radialGradient></defs><g
     id="g53"
     transform="translate(57.9 1.666)"><g
       id="group1-1"
       transform="translate(-56.108 -.24)"><g
         id="shape115-2"
         transform="matrix(-1 0 0 1 1368 -2.17)"><path
           d="M27.1 99.89h1.81a10.125 10.125 0 1 1 0 20.25h-7.6a10.125 10.125 0 1 1 0-20.25h5.83-.04zm0-45h1.81a10.125 10.125 0 1 1 0 20.25h-7.6a10.125 10.125 0 1 1 0-20.25h5.83-.04zm0-44.99h1.81a10.125 10.125 0 1 1 0 20.25h-7.6a10.125 10.125 0 1 1 0-20.25h5.83-.04zm0 343.28h1.81a10.125 10.125 0 1 1 0 20.25h-7.6a10.125 10.125 0 1 1 0-20.25h5.83-.04zm0-45h1.81a10.125 10.125 0 1 1 0 20.25h-7.6a10.125 10.125 0 1 1 0-20.25h5.83-.04zm0-45h1.81a10.125 10.125 0 1 1 0 20.25h-7.6a10.125 10.125 0 1 1 0-20.25h5.83-.04zM9.54 378.5h54.22l-.22-10.5h7.4V4.82H6.87L0 11.91v359.24l7.35 7.35h2.19z"
           class="asr-903-chassis-st1"
           id="path63"
           style="fill:#737373" /><path
           d="M27.1 99.89h1.81a10.125 10.125 0 1 1 0 20.25h-7.6a10.125 10.125 0 1 1 0-20.25h5.83m-.04-45h1.81a10.125 10.125 0 1 1 0 20.25h-7.6a10.125 10.125 0 1 1 0-20.25h5.83M27.1 9.9h1.81a10.125 10.125 0 1 1 0 20.25h-7.6a10.125 10.125 0 1 1 0-20.25h5.83m-.04 343.28h1.81a10.125 10.125 0 1 1 0 20.25h-7.6a10.125 10.125 0 1 1 0-20.25h5.83m-.04-45h1.81a10.125 10.125 0 1 1 0 20.25h-7.6a10.125 10.125 0 1 1 0-20.25h5.83m-.04-45h1.81a10.125 10.125 0 1 1 0 20.25h-7.6a10.125 10.125 0 1 1 0-20.25h5.83M9.54 378.5h54.22l-.22-10.5h7.4V4.82H6.87L0 11.91v359.24l7.35 7.35h2.19"
           class="asr-903-chassis-st2"
           id="path65"
           style="stroke:#000;stroke-width:.23999999;stroke-linecap:round;stroke-linejoin:round" /></g><g
         id="shape116-5"
         transform="translate(0 -2.17)"><path
           d="M27.1 99.89h1.81a10.125 10.125 0 1 1 0 20.25h-7.6a10.125 10.125 0 1 1 0-20.25h5.83-.04zm0-45h1.81a10.125 10.125 0 1 1 0 20.25h-7.6a10.125 10.125 0 1 1 0-20.25h5.83-.04zm0-44.99h1.81a10.125 10.125 0 1 1 0 20.25h-7.6a10.125 10.125 0 1 1 0-20.25h5.83-.04zm0 343.28h1.81a10.125 10.125 0 1 1 0 20.25h-7.6a10.125 10.125 0 1 1 0-20.25h5.83-.04zm0-45h1.81a10.125 10.125 0 1 1 0 20.25h-7.6a10.125 10.125 0 1 1 0-20.25h5.83-.04zm0-45h1.81a10.125 10.125 0 1 1 0 20.25h-7.6a10.125 10.125 0 1 1 0-20.25h5.83-.04zM9.54 378.5h54.22l-.22-10.5h7.4V4.82H6.87L0 11.91v359.24l7.35 7.35h2.19z"
           class="asr-903-chassis-st1"
           id="path70"
           style="fill:#737373" /><path
           d="M27.1 99.89h1.81a10.125 10.125 0 1 1 0 20.25h-7.6a10.125 10.125 0 1 1 0-20.25h5.83m-.04-45h1.81a10.125 10.125 0 1 1 0 20.25h-7.6a10.125 10.125 0 1 1 0-20.25h5.83M27.1 9.9h1.81a10.125 10.125 0 1 1 0 20.25h-7.6a10.125 10.125 0 1 1 0-20.25h5.83m-.04 343.28h1.81a10.125 10.125 0 1 1 0 20.25h-7.6a10.125 10.125 0 1 1 0-20.25h5.83m-.04-45h1.81a10.125 10.125 0 1 1 0 20.25h-7.6a10.125 10.125 0 1 1 0-20.25h5.83m-.04-45h1.81a10.125 10.125 0 1 1 0 20.25h-7.6a10.125 10.125 0 1 1 0-20.25h5.83M9.54 378.5h54.22l-.22-10.5h7.4V4.82H6.87L0 11.91v359.24l7.35 7.35h2.19"
           class="asr-903-chassis-st2"
           id="path72"
           style="stroke:#000;stroke-width:.23999999;stroke-linecap:round;stroke-linejoin:round" /></g><g
         id="group2-8"
         transform="translate(56.348)"
         style="fill:#262626;fill-opacity:1"><g
           id="shape3-9"
           transform="translate(.323 -2.01)"
           style="fill:#262626;fill-opacity:1"><path
             d="M0 17.03V374a4.5 4.5-180 0 0 4.5 4.5H1250.18a4.5 4.5-180 0 0 4.5-4.5v-6.58a4.5 4.5 0 0 1 .06-.72 13.219 14.278-180 0 0 .2-2.48V7.25a4.5 4.5-180 0 0-4.5-4.5H4.5A4.5 4.5-180 0 0 0 7.25v9.78z"
             id="path80"
             style="fill:#262626;stroke:#8c8c8c;stroke-width:.23999999;stroke-linecap:butt;fill-opacity:1" /></g><g
           id="group4-13"
           style="fill:#262626;fill-opacity:1"><g
             id="shape5-14"
             transform="rotate(90 207.907 208.648)"
             style="fill:silver;fill-opacity:1"><path
               class="asr-903-chassis-st4"
               id="rect88"
               style="fill:silver;stroke:gray;stroke-width:.23999999;stroke-linecap:round;stroke-linejoin:round;fill-opacity:1"
               d="M0-697.236h6.75v1075.74H0z" /></g><g
             id="shape6-18"
             transform="rotate(90 22.414 394.141)"
             style="fill:silver;fill-opacity:1"><path
               class="asr-903-chassis-st4"
               id="rect93"
               style="fill:silver;stroke:gray;stroke-width:.23999999;stroke-linecap:round;stroke-linejoin:round;fill-opacity:1"
               d="M0-737.455h6.75v1115.96H0z" /></g><g
             id="shape7-21"
             transform="translate(0 -.014)"
             style="fill:silver;fill-opacity:1"><path
               d="M.04 6.4v364.22a7.268 7.262-180 0 0 7.64 7.87h30.37v-3.37H7.68a3.015 3.013 0 0 1-2.25-3.37V6.96a1.383 1.382 0 0 1 1.69-1.69h30.93V.78H5.43A4.986 4.982-180 0 0 .04 6.4z"
               id="path98"
               style="fill:silver;stroke:gray;stroke-width:.23999999;stroke-linecap:round;stroke-linejoin:round;fill-opacity:1" /></g><g
             id="shape8-23"
             transform="matrix(1 0 0 -1 1122.51 378.982)"
             style="fill:silver;fill-opacity:1"><path
               d="M132.79 373.98v-11.23h-3.09l.02 10.18a2.185 2.185-180 0 1-2.27 2.17L0 375.14v3.1l127.45.24a4.864 4.864-180 0 0 5.34-4.5z"
               class="asr-903-chassis-st6"
               id="path103"
               style="fill:silver;stroke:gray;stroke-width:.23999999;stroke-linecap:round;stroke-linejoin:round;fill-opacity:1" /></g><g
             id="shape9-27"
             transform="translate(1154.01)"
             style="fill:silver;fill-opacity:1"><path
               d="M101.25 373.98v-9.57h-3.09l.01 8.52a2.185 2.185-180 0 1-2.26 2.17L0 374.8v3.68h95.91a4.864 4.864-180 0 0 5.34-4.5z"
               class="asr-903-chassis-st6"
               id="path108"
               style="fill:silver;stroke:gray;stroke-width:.23999999;stroke-linecap:round;stroke-linejoin:round;fill-opacity:1" /></g><g
             id="shape10-30"
             transform="translate(1113.79 -374.382)"
             style="fill:silver;fill-opacity:1"><path
               id="rect113"
               style="fill:silver;stroke:gray;stroke-width:.23999999;stroke-linecap:round;stroke-linejoin:round;fill-opacity:1"
               d="M0 375.127h3.938v3.375H0z" /></g><g
             id="shape11-34"
             transform="translate(1117.73 -374.382)"
             style="fill:silver;fill-opacity:1"><path
               id="rect118"
               style="fill:silver;stroke:gray;stroke-width:.23999999;stroke-linecap:round;stroke-linejoin:round;fill-opacity:1"
               d="M0 375.127h4.781v3.375H0z" /></g><g
             id="shape12-38"
             transform="translate(6.554 -3.4)"
             style="fill:silver;fill-opacity:1"><path
               d="M31.5 378.5v-3.37H0v2.46a1.133 1.133-180 0 0 1.12.91H31.5z"
               id="path123"
               style="fill:silver;stroke:gray;stroke-width:.23999999;stroke-linecap:round;stroke-linejoin:round;fill-opacity:1" /></g><g
             id="shape13-40"
             transform="translate(1244.25 -14.087)"
             style="fill:silver;fill-opacity:1"><path
               class="asr-903-chassis-st10"
               id="rect128"
               style="fill:silver;stroke:gray;stroke-width:.23999999;stroke-linecap:round;stroke-linejoin:round;fill-opacity:1"
               d="M0 30.317h11.012v348.184H0z" /></g></g></g><g
         id="group14-44"
         transform="translate(557.014 -12.437)" /><g
         id="group15-45"
         transform="translate(920.35 -71.76)" /><g
         id="group16-46"
         transform="translate(557.014 -16.635)" /><g
         id="group17-47"
         transform="translate(62.902 -6.775)"><g
           id="shape18-48"
           transform="rotate(90 299.369 569.308)"><path
             d="M0-246.59V378.5h6.19v-630.84H.94a6.757.937-90 0 0-.031 0H0v5.75z"
             class="asr-903-chassis-st11"
             id="path145"
             style="fill:url(#linearGradient3935);stroke:gray;stroke-width:.23999999;stroke-linecap:round;stroke-linejoin:round" /></g><g
           id="group19-52"
           transform="translate(793.081)"><g
             id="shape20-53"><path
               d="M25.31 314.64v-38.51l-21.51.09a3.778 1.096-180 0 0-.13 0H0v59.15a2.96 3.274-180 0 0 1.04 1.72 2.081 2.302 0 1 1 0 4.6H0v36.81h25.31v-59.36a2.261 2.045 90 1 1 0-4.5zM0 377.4a3.778 1.096-180 0 0 0 .04v-.04z"
               class="asr-903-chassis-st12"
               id="path153"
               style="fill:url(#linearGradient3937)" /><path
               d="M25.31 314.64v-38.51l-21.51.09a3.778 1.096-180 0 0-.13 0H0v59.15a2.96 3.274-180 0 0 1.04 1.72 2.081 2.302 0 1 1 0 4.6H0v36.81h25.31v-59.36a2.261 2.045 90 1 1 0-4.5M0 377.4a3.778 1.096-180 0 0 0 .04"
               class="asr-903-chassis-st13"
               id="path155"
               style="stroke:gray;stroke-width:.23999999;stroke-linecap:round;stroke-linejoin:round" /></g><g
             id="group21-57"
             transform="translate(3.08 -19.127)"><g
               id="group22-58"
               transform="translate(1.835 -24.617)"><g
                 id="shape23-59"
                 transform="rotate(60 7.741 370.76)"><circle
                   cx="7.742"
                   cy="370.76"
                   class="asr-903-chassis-st14"
                   id="ellipse166"
                   style="fill:url(#linearGradient3939);stroke:none;stroke-width:.23999999;stroke-linecap:round;stroke-linejoin:round"
                   r="7.742" /></g><g
                 id="shape24-63"
                 transform="translate(1.835 -1.835)"><circle
                   cx="5.906"
                   cy="372.595"
                   class="asr-903-chassis-st15"
                   id="ellipse171"
                   r="5.906"
                   style="fill:#000;stroke:#000;stroke-width:.23999999;stroke-linecap:round;stroke-linejoin:round" /></g></g><g
               id="group25-65"
               transform="translate(0 -53.304)"><g
                 id="shape26-66"
                 transform="rotate(60 7.741 370.76)"><circle
                   cx="7.742"
                   cy="370.76"
                   class="asr-903-chassis-st14"
                   id="ellipse179"
                   style="fill:url(#linearGradient3941);stroke:none;stroke-width:.23999999;stroke-linecap:round;stroke-linejoin:round"
                   r="7.742" /></g><g
                 id="shape27-69"
                 transform="translate(1.835 -1.835)"><circle
                   cx="5.906"
                   cy="372.595"
                   class="asr-903-chassis-st15"
                   id="ellipse184"
                   r="5.906"
                   style="fill:#000;stroke:#000;stroke-width:.23999999;stroke-linecap:round;stroke-linejoin:round" /></g></g><g
               id="group28-71"
               transform="translate(3.804)"><g
                 id="shape29-72"
                 transform="rotate(60 7.741 370.76)"><circle
                   cx="7.742"
                   cy="370.76"
                   class="asr-903-chassis-st14"
                   id="ellipse192"
                   style="fill:url(#linearGradient3943);stroke:none;stroke-width:.23999999;stroke-linecap:round;stroke-linejoin:round"
                   r="7.742" /></g><g
                 id="shape30-75"
                 transform="translate(1.835 -1.835)"><circle
                   cx="5.906"
                   cy="372.595"
                   class="asr-903-chassis-st15"
                   id="ellipse197"
                   r="5.906"
                   style="fill:#000;stroke:#000;stroke-width:.23999999;stroke-linecap:round;stroke-linejoin:round" /></g></g></g></g><g
           id="group31-77"><g
             id="shape32-78"><path
               d="M20.56 11.75a3.928 3.648-90 0 0-.12 0H0V378.5h21a3.648 3.928-180 0 0 3.1-3.82 3.648 3.928-180 0 0 0-.13V16.27a3.928 3.648-90 0 0 0-1.18 3.928 3.648-90 0 0-3.54-3.34z"
               class="asr-903-chassis-st11"
               id="path205"
               style="fill:url(#linearGradient3945);stroke:gray;stroke-width:.23999999;stroke-linecap:round;stroke-linejoin:round" /></g><g
             id="group33-81"
             transform="translate(4.456 -21.525)"><g
               id="group34-82"
               transform="translate(0 -304.313)"><g
                 id="shape35-83"
                 transform="rotate(60 7.741 370.76)"><circle
                   cx="7.742"
                   cy="370.76"
                   class="asr-903-chassis-st14"
                   id="ellipse216"
                   style="fill:url(#linearGradient3947);stroke:none;stroke-width:.23999999;stroke-linecap:round;stroke-linejoin:round"
                   r="7.742" /></g><g
                 id="shape36-86"
                 transform="translate(1.835 -1.835)"><circle
                   cx="5.906"
                   cy="372.595"
                   class="asr-903-chassis-st15"
                   id="ellipse221"
                   r="5.906"
                   style="fill:#000;stroke:#000;stroke-width:.23999999;stroke-linecap:round;stroke-linejoin:round" /></g></g><g
               id="group37-88"
               transform="translate(0 -243.563)"><g
                 id="shape38-89"
                 transform="rotate(60 7.741 370.76)"><circle
                   cx="7.742"
                   cy="370.76"
                   class="asr-903-chassis-st14"
                   id="ellipse229"
                   style="fill:url(#linearGradient3949);stroke:none;stroke-width:.23999999;stroke-linecap:round;stroke-linejoin:round"
                   r="7.742" /></g><g
                 id="shape39-92"
                 transform="translate(1.835 -1.835)"><circle
                   cx="5.906"
                   cy="372.595"
                   class="asr-903-chassis-st15"
                   id="ellipse234"
                   r="5.906"
                   style="fill:#000;stroke:#000;stroke-width:.23999999;stroke-linecap:round;stroke-linejoin:round" /></g></g><g
               id="group40-94"
               transform="translate(0 -182.813)"><g
                 id="shape41-95"
                 transform="rotate(60 7.741 370.76)"><circle
                   cx="7.742"
                   cy="370.76"
                   class="asr-903-chassis-st14"
                   id="ellipse242"
                   style="fill:url(#linearGradient3951);stroke:none;stroke-width:.23999999;stroke-linecap:round;stroke-linejoin:round"
                   r="7.742" /></g><g
                 id="shape42-98"
                 transform="translate(1.835 -1.835)"><circle
                   cx="5.906"
                   cy="372.595"
                   class="asr-903-chassis-st15"
                   id="ellipse247"
                   r="5.906"
                   style="fill:#000;stroke:#000;stroke-width:.23999999;stroke-linecap:round;stroke-linejoin:round" /></g></g><g
               id="group43-100"
               transform="translate(0 -121.781)"><g
                 id="shape44-101"
                 transform="rotate(60 7.741 370.76)"><circle
                   cx="7.742"
                   cy="370.76"
                   class="asr-903-chassis-st14"
                   id="ellipse255"
                   style="fill:url(#linearGradient3953);stroke:none;stroke-width:.23999999;stroke-linecap:round;stroke-linejoin:round"
                   r="7.742" /></g><g
                 id="shape45-104"
                 transform="translate(1.835 -1.835)"><circle
                   cx="5.906"
                   cy="372.595"
                   class="asr-903-chassis-st15"
                   id="ellipse260"
                   r="5.906"
                   style="fill:#000;stroke:#000;stroke-width:.23999999;stroke-linecap:round;stroke-linejoin:round" /></g></g><g
               id="group46-106"
               transform="translate(0 -60.75)"><g
                 id="shape47-107"
                 transform="rotate(60 7.741 370.76)"><circle
                   cx="7.742"
                   cy="370.76"
                   class="asr-903-chassis-st14"
                   id="ellipse268"
                   style="fill:url(#linearGradient3955);stroke:none;stroke-width:.23999999;stroke-linecap:round;stroke-linejoin:round"
                   r="7.742" /></g><g
                 id="shape48-110"
                 transform="translate(1.835 -1.835)"><circle
                   cx="5.906"
                   cy="372.595"
                   class="asr-903-chassis-st15"
                   id="ellipse273"
                   r="5.906"
                   style="fill:#000;stroke:#000;stroke-width:.23999999;stroke-linecap:round;stroke-linejoin:round" /></g></g><g
               id="group49-112"><g
                 id="shape50-113"
                 transform="rotate(60 7.741 370.76)"><circle
                   cx="7.742"
                   cy="370.76"
                   class="asr-903-chassis-st14"
                   id="ellipse281"
                   style="fill:url(#linearGradient3957);stroke:none;stroke-width:.23999999;stroke-linecap:round;stroke-linejoin:round"
                   r="7.742" /></g><g
                 id="shape51-116"
                 transform="translate(1.835 -1.835)"><circle
                   cx="5.906"
                   cy="372.595"
                   class="asr-903-chassis-st15"
                   id="ellipse286"
                   r="5.906"
                   style="fill:#000;stroke:#000;stroke-width:.23999999;stroke-linecap:round;stroke-linejoin:round" /></g></g></g></g><g
           id="group52-118"
           transform="translate(444.331)"><g
             id="shape53-119"><path
               d="M0 14.27V378.5h45.84V14h-28.8a8.622 3.904-180 0 0-.28 0L0 14.27z"
               class="asr-903-chassis-st11"
               id="path294"
               style="fill:url(#linearGradient3959);stroke:gray;stroke-width:.23999999;stroke-linecap:round;stroke-linejoin:round" /></g><g
             id="group54-122"
             transform="translate(21.95 -48.67)"><g
               id="shape55-123"
               transform="rotate(.011 1344046.354 257.202)"><path
                 class="asr-903-chassis-st16"
                 id="rect304"
                 style="fill:none;stroke:none;stroke-width:.72000003;stroke-linecap:round;stroke-linejoin:round"
                 d="M0 371.752h25.849v6.75H0z" /><text
                 x="4"
                 y="377.68"
                 class="asr-903-chassis-st17"
                 id="text306"
                 style="font-weight:700;font-size:8.50012779px;font-family:'Arial Narrow';fill:#3e3f3b">IM5</text>
</g><g
               id="shape56-126"
               transform="rotate(.011 1147346.083 274.954)"><path
                 class="asr-903-chassis-st16"
                 id="rect313"
                 style="fill:none;stroke:none;stroke-width:.72000003;stroke-linecap:round;stroke-linejoin:round"
                 d="M0 371.752h25.849v6.75H0z" /><text
                 x="4"
                 y="377.68"
                 class="asr-903-chassis-st17"
                 id="text315"
                 style="font-weight:700;font-size:8.50012779px;font-family:'Arial Narrow';fill:#3e3f3b">IM4</text>
</g><g
               id="shape57-129"
               transform="rotate(.011 758986.013 310.003)"><path
                 class="asr-903-chassis-st16"
                 id="rect322"
                 style="fill:none;stroke:none;stroke-width:.72000003;stroke-linecap:round;stroke-linejoin:round"
                 d="M0 371.752h25.849v6.75H0z" /><text
                 x="4"
                 y="377.68"
                 class="asr-903-chassis-st17"
                 id="text324"
                 style="font-weight:700;font-size:8.50012779px;font-family:'Arial Narrow';fill:#3e3f3b">IM3</text>
</g><g
               id="shape58-132"
               transform="rotate(.011 567249.502 327.308)"><path
                 class="asr-903-chassis-st16"
                 id="rect331"
                 style="fill:none;stroke:none;stroke-width:.72000003;stroke-linecap:round;stroke-linejoin:round"
                 d="M0 371.752h25.849v6.75H0z" /><text
                 x="4"
                 y="377.68"
                 class="asr-903-chassis-st17"
                 id="text333"
                 style="font-weight:700;font-size:8.50012779px;font-family:'Arial Narrow';fill:#3e3f3b">IM2</text>
</g><g
               id="shape59-135"
               transform="rotate(.011 205640.037 359.943)"><path
                 class="asr-903-chassis-st16"
                 id="rect340"
                 style="fill:none;stroke:none;stroke-width:.72000003;stroke-linecap:round;stroke-linejoin:round"
                 d="M0 371.752h25.849v6.75H0z" /><text
                 x="4"
                 y="377.68"
                 class="asr-903-chassis-st17"
                 id="text342"
                 style="font-weight:700;font-size:8.50012779px;font-family:'Arial Narrow';fill:#3e3f3b">IM1</text>
</g><g
               id="shape60-138"
               transform="rotate(.011 25.84 378.5)"><path
                 class="asr-903-chassis-st16"
                 id="rect349"
                 style="fill:none;stroke:none;stroke-width:.72000003;stroke-linecap:round;stroke-linejoin:round"
                 d="M0 371.752h25.849v6.75H0z" /><text
                 x="4"
                 y="377.68"
                 class="asr-903-chassis-st17"
                 id="text351"
                 style="font-weight:700;font-size:8.50012779px;font-family:'Arial Narrow';fill:#3e3f3b">IM0</text>
</g><g
               id="shape61-141"
               transform="rotate(.011 68575.281 372.313)"><path
                 class="asr-903-chassis-st16"
                 id="rect358"
                 style="fill:none;stroke:none;stroke-width:.72000003;stroke-linecap:round;stroke-linejoin:round"
                 d="M0 371.752h28.674v6.75H0z" /><text
                 x="4"
                 y="377.68"
                 class="asr-903-chassis-st17"
                 id="text360"
                 style="font-weight:700;font-size:8.50012779px;font-family:'Arial Narrow';fill:#3e3f3b">PSU0</text>
</g></g><g
             id="group62-144"
             transform="translate(1.688 -21.806)"><g
               id="group63-145"
               transform="translate(0 -304.313)"><g
                 id="shape64-146"
                 transform="rotate(60 7.741 370.76)"><circle
                   cx="7.742"
                   cy="370.76"
                   class="asr-903-chassis-st14"
                   id="ellipse371"
                   style="fill:url(#linearGradient3961);stroke:none;stroke-width:.23999999;stroke-linecap:round;stroke-linejoin:round"
                   r="7.742" /></g><g
                 id="shape65-149"
                 transform="translate(1.835 -1.835)"><circle
                   cx="5.906"
                   cy="372.595"
                   class="asr-903-chassis-st15"
                   id="ellipse376"
                   r="5.906"
                   style="fill:#000;stroke:#000;stroke-width:.23999999;stroke-linecap:round;stroke-linejoin:round" /></g></g><g
               id="group66-151"
               transform="translate(0 -243.429)"><g
                 id="shape67-152"
                 transform="rotate(60 7.741 370.76)"><circle
                   cx="7.742"
                   cy="370.76"
                   class="asr-903-chassis-st14"
                   id="ellipse384"
                   style="fill:url(#linearGradient3963);stroke:none;stroke-width:.23999999;stroke-linecap:round;stroke-linejoin:round"
                   r="7.742" /></g><g
                 id="shape68-155"
                 transform="translate(1.835 -1.835)"><circle
                   cx="5.906"
                   cy="372.595"
                   class="asr-903-chassis-st15"
                   id="ellipse389"
                   r="5.906"
                   style="fill:#000;stroke:#000;stroke-width:.23999999;stroke-linecap:round;stroke-linejoin:round" /></g></g><g
               id="group69-157"
               transform="translate(0 -182.679)"><g
                 id="shape70-158"
                 transform="rotate(60 7.741 370.76)"><circle
                   cx="7.742"
                   cy="370.76"
                   class="asr-903-chassis-st14"
                   id="ellipse397"
                   style="fill:url(#linearGradient3965);stroke:none;stroke-width:.23999999;stroke-linecap:round;stroke-linejoin:round"
                   r="7.742" /></g><g
                 id="shape71-161"
                 transform="translate(1.835 -1.835)"><circle
                   cx="5.906"
                   cy="372.595"
                   class="asr-903-chassis-st15"
                   id="ellipse402"
                   r="5.906"
                   style="fill:#000;stroke:#000;stroke-width:.23999999;stroke-linecap:round;stroke-linejoin:round" /></g></g><g
               id="group72-163"
               transform="translate(0 -121.633)"><g
                 id="shape73-164"
                 transform="rotate(60 7.741 370.76)"><circle
                   cx="7.742"
                   cy="370.76"
                   class="asr-903-chassis-st14"
                   id="ellipse410"
                   style="fill:url(#linearGradient3967);stroke:none;stroke-width:.23999999;stroke-linecap:round;stroke-linejoin:round"
                   r="7.742" /></g><g
                 id="shape74-167"
                 transform="translate(1.835 -1.835)"><circle
                   cx="5.906"
                   cy="372.595"
                   class="asr-903-chassis-st15"
                   id="ellipse415"
                   r="5.906"
                   style="fill:#000;stroke:#000;stroke-width:.23999999;stroke-linecap:round;stroke-linejoin:round" /></g></g><g
               id="group75-169"
               transform="translate(0 -60.617)"><g
                 id="shape76-170"
                 transform="rotate(60 7.741 370.76)"><circle
                   cx="7.742"
                   cy="370.76"
                   class="asr-903-chassis-st14"
                   id="ellipse423"
                   style="fill:url(#linearGradient3969);stroke:none;stroke-width:.23999999;stroke-linecap:round;stroke-linejoin:round"
                   r="7.742" /></g><g
                 id="shape77-173"
                 transform="translate(1.835 -1.835)"><circle
                   cx="5.906"
                   cy="372.595"
                   class="asr-903-chassis-st15"
                   id="ellipse428"
                   r="5.906"
                   style="fill:#000;stroke:#000;stroke-width:.23999999;stroke-linecap:round;stroke-linejoin:round" /></g></g><g
               id="group78-175"
               transform="translate(0 .133)"><g
                 id="shape79-176"
                 transform="rotate(60 7.741 370.76)"><circle
                   cx="7.742"
                   cy="370.76"
                   class="asr-903-chassis-st14"
                   id="ellipse436"
                   style="fill:url(#linearGradient3971);stroke:none;stroke-width:.23999999;stroke-linecap:round;stroke-linejoin:round"
                   r="7.742" /></g><g
                 id="shape80-179"
                 transform="translate(1.835 -1.835)"><circle
                   cx="5.906"
                   cy="372.595"
                   class="asr-903-chassis-st15"
                   id="ellipse441"
                   r="5.906"
                   style="fill:#000;stroke:#000;stroke-width:.23999999;stroke-linecap:round;stroke-linejoin:round" /></g></g></g><g
             id="group81-181"
             transform="translate(27.696 -19.69)"><g
               id="group82-182"
               transform="translate(0 -257.625)"><g
                 id="shape83-183"
                 transform="rotate(60 7.741 370.76)"><circle
                   cx="7.742"
                   cy="370.76"
                   class="asr-903-chassis-st14"
                   id="ellipse452"
                   style="fill:url(#linearGradient3973);stroke:none;stroke-width:.23999999;stroke-linecap:round;stroke-linejoin:round"
                   r="7.742" /></g><g
                 id="shape84-186"
                 transform="translate(1.835 -1.835)"><circle
                   cx="5.906"
                   cy="372.595"
                   class="asr-903-chassis-st15"
                   id="ellipse457"
                   r="5.906"
                   style="fill:#000;stroke:#000;stroke-width:.23999999;stroke-linecap:round;stroke-linejoin:round" /></g></g><g
               id="group85-188"
               transform="translate(0 -129.938)"><g
                 id="shape86-189"
                 transform="rotate(60 7.741 370.76)"><circle
                   cx="7.742"
                   cy="370.76"
                   class="asr-903-chassis-st14"
                   id="ellipse465"
                   style="fill:url(#linearGradient3975);stroke:none;stroke-width:.23999999;stroke-linecap:round;stroke-linejoin:round"
                   r="7.742" /></g><g
                 id="shape87-192"
                 transform="translate(1.835 -1.835)"><circle
                   cx="5.906"
                   cy="372.595"
                   class="asr-903-chassis-st15"
                   id="ellipse470"
                   r="5.906"
                   style="fill:#000;stroke:#000;stroke-width:.23999999;stroke-linecap:round;stroke-linejoin:round" /></g></g><g
               id="group88-194"><g
                 id="shape89-195"
                 transform="rotate(60 7.741 370.76)"><circle
                   cx="7.742"
                   cy="370.76"
                   class="asr-903-chassis-st14"
                   id="ellipse478"
                   style="fill:url(#linearGradient3977);stroke:none;stroke-width:.23999999;stroke-linecap:round;stroke-linejoin:round"
                   r="7.742" /></g><g
                 id="shape90-198"
                 transform="translate(1.835 -1.835)"><circle
                   cx="5.906"
                   cy="372.595"
                   class="asr-903-chassis-st15"
                   id="ellipse483"
                   r="5.906"
                   style="fill:#000;stroke:#000;stroke-width:.23999999;stroke-linecap:round;stroke-linejoin:round" /></g></g></g></g><g
           id="group91-200"
           transform="translate(1121.02)"><g
             id="shape92-201"><path
               d="M0 10.61V378.5H26.44V10.65l-13.73-.02h-.77a3.94 2.672-90 0 0-.09 0L0 10.61z"
               class="asr-903-chassis-st11"
               id="path491"
               style="fill:url(#linearGradient3979);stroke:gray;stroke-width:.23999999;stroke-linecap:round;stroke-linejoin:round" /></g><g
             id="group93-204"
             transform="translate(1.688 -52.048)"><g
               id="shape94-205"
               transform="rotate(.011 28.667 378.5)"><path
                 class="asr-903-chassis-st16"
                 id="rect501"
                 style="fill:none;stroke:none;stroke-width:.72000003;stroke-linecap:round;stroke-linejoin:round"
                 d="M0 371.752h28.674v6.75H0z" /><text
                 x="4"
                 y="377.68"
                 class="asr-903-chassis-st17"
                 id="text503"
                 style="font-weight:700;font-size:8.50012779px;font-family:'Arial Narrow';fill:#3e3f3b">PSU1</text>
</g><g
               id="shape95-208"
               transform="rotate(.011 236089.329 2948.321)"><path
                 class="asr-903-chassis-st16"
                 id="rect510"
                 style="fill:none;stroke:none;stroke-width:.72000003;stroke-linecap:round;stroke-linejoin:round"
                 d="M0 371.752h28.674v6.75H0z" /><text
                 x="4"
                 y="377.68"
                 class="asr-903-chassis-st17"
                 id="text512"
                 style="font-weight:700;font-size:8.50012779px;font-family:'Arial Narrow';fill:#3e3f3b">RSP0</text>
</g><g
               id="shape96-211"
               transform="rotate(.011 809711.362 2896.552)"><path
                 class="asr-903-chassis-st16"
                 id="rect519"
                 style="fill:none;stroke:none;stroke-width:.72000003;stroke-linecap:round;stroke-linejoin:round"
                 d="M0 371.752h28.674v6.75H0z" /><text
                 x="4"
                 y="377.68"
                 class="asr-903-chassis-st17"
                 id="text521"
                 style="font-weight:700;font-size:8.50012779px;font-family:'Arial Narrow';fill:#3e3f3b">RSP1</text>
</g></g><g
             id="group97-214"
             transform="translate(2.946 -23.064)"><g
               id="group98-215"
               transform="translate(5.063)"><g
                 id="group99-216"><g
                   id="shape100-217"
                   transform="rotate(60 7.741 370.76)"><circle
                     cx="7.742"
                     cy="370.76"
                     class="asr-903-chassis-st14"
                     id="ellipse535"
                     style="fill:url(#linearGradient3981);stroke:none;stroke-width:.23999999;stroke-linecap:round;stroke-linejoin:round"
                     r="7.742" /></g><g
                   id="shape101-220"
                   transform="translate(1.835 -1.835)"><circle
                     cx="5.906"
                     cy="372.595"
                     class="asr-903-chassis-st15"
                     id="ellipse540"
                     r="5.906"
                     style="fill:#000;stroke:#000;stroke-width:.23999999;stroke-linecap:round;stroke-linejoin:round" /></g></g><g
                 id="group102-222"
                 transform="translate(0 -303.75)"><g
                   id="shape103-223"
                   transform="rotate(60 7.741 370.76)"><circle
                     cx="7.742"
                     cy="370.76"
                     class="asr-903-chassis-st14"
                     id="ellipse548"
                     style="fill:url(#linearGradient3983);stroke:none;stroke-width:.23999999;stroke-linecap:round;stroke-linejoin:round"
                     r="7.742" /></g><g
                   id="shape104-226"
                   transform="translate(1.835 -1.835)"><circle
                     cx="5.906"
                     cy="372.595"
                     class="asr-903-chassis-st15"
                     id="ellipse553"
                     r="5.906"
                     style="fill:#000;stroke:#000;stroke-width:.23999999;stroke-linecap:round;stroke-linejoin:round" /></g></g></g><g
               id="group105-228"
               transform="translate(0 -49.367)"><g
                 id="group106-229"
                 transform="translate(1.688 -204.883)"><g
                   id="shape107-230"
                   transform="rotate(60 7.741 370.76)"><circle
                     cx="7.742"
                     cy="370.76"
                     class="asr-903-chassis-st14"
                     id="ellipse564"
                     style="fill:url(#linearGradient3985);stroke:none;stroke-width:.23999999;stroke-linecap:round;stroke-linejoin:round"
                     r="7.742" /></g><g
                   id="shape108-233"
                   transform="translate(1.835 -1.835)"><circle
                     cx="5.906"
                     cy="372.595"
                     class="asr-903-chassis-st15"
                     id="ellipse569"
                     r="5.906"
                     style="fill:#000;stroke:#000;stroke-width:.23999999;stroke-linecap:round;stroke-linejoin:round" /></g></g><g
                 id="group109-235"
                 transform="translate(1.688 -77.196)"><g
                   id="shape110-236"
                   transform="rotate(60 7.741 370.76)"><circle
                     cx="7.742"
                     cy="370.76"
                     class="asr-903-chassis-st14"
                     id="ellipse577"
                     style="fill:url(#linearGradient3987);stroke:none;stroke-width:.23999999;stroke-linecap:round;stroke-linejoin:round"
                     r="7.742" /></g><g
                   id="shape111-239"
                   transform="translate(1.835 -1.835)"><circle
                     cx="5.906"
                     cy="372.595"
                     class="asr-903-chassis-st15"
                     id="ellipse582"
                     r="5.906"
                     style="fill:#000;stroke:#000;stroke-width:.23999999;stroke-linecap:round;stroke-linejoin:round" /></g></g><g
                 id="group112-241"><g
                   id="shape113-242"
                   transform="rotate(60 7.741 370.76)"><circle
                     cx="7.742"
                     cy="370.76"
                     class="asr-903-chassis-st14"
                     id="ellipse590"
                     style="fill:url(#linearGradient3989);stroke:none;stroke-width:.23999999;stroke-linecap:round;stroke-linejoin:round"
                     r="7.742" /></g><g
                   id="shape114-245"
                   transform="translate(1.835 -1.835)"><circle
                     cx="5.906"
                     cy="372.595"
                     class="asr-903-chassis-st15"
                     id="ellipse595"
                     r="5.906"
                     style="fill:#000;stroke:#000;stroke-width:.23999999;stroke-linecap:round;stroke-linejoin:round" /></g></g></g></g></g></g></g></g><text
     xml:space="preserve"
     style="font-style:normal;font-weight:normal;font-size:29.99998856px;line-height:1.25;font-family:sans-serif;letter-spacing:0px;word-spacing:0px;fill:#000000;fill-opacity:1;stroke:none;stroke-width:0.7499997"
     x="534.48096"
     y="246.41679"
     id="text269"><tspan
       sodipodi:role="line"
       id="tspan267"
       x="534.48096"
       y="273.78668"
       style="stroke-width:0.7499997" /></text>
</svg>