<svg xmlns="http://www.w3.org/2000/svg" viewBox="0 0 1680 165" width="1680" height="165" role="img" aria-label="Cisco ASR-920-12SZ Router front view"><defs><linearGradient id="face920v" x1="0" x2="1"><stop offset="0" stop-color="#111827"/><stop offset=".55" stop-color="#1f2937"/><stop offset="1" stop-color="#0f172a"/></linearGradient><linearGradient id="metal920v" x1="0" x2="0" y1="0" y2="1"><stop offset="0" stop-color="#e5e7eb"/><stop offset="1" stop-color="#9ca3af"/></linearGradient></defs><rect x="12" y="8" width="1656" height="149" rx="6" fill="url(#metal920v)" stroke="#6b7280" stroke-width="2"/><rect x="18" y="14" width="1644" height="137" rx="4" fill="url(#face920v)" stroke="#030712" stroke-width="1.5"/><text x="22" y="28" font-size="14" font-family="Arial, Helvetica, sans-serif" font-weight="700" fill="#f9fafb">Cisco ASR-920-12SZ Router</text><text x="22" y="44" font-size="9" font-family="Arial, Helvetica, sans-serif" fill="#9ca3af">12x dual-rate 1G/10G SFP+ access router</text><g><rect x="200" y="36" width="46" height="38" rx="3" fill="#1e3a5f" stroke="#3b82f6" stroke-width="1.5"/><rect x="205" y="43" width="36" height="22" rx="2" fill="#07111f" opacity=".82"/><text x="223.0" y="70" text-anchor="middle" font-size="9" fill="#bfdbfe">0</text></g><g><rect x="254" y="36" width="46" height="38" rx="3" fill="#1e3a5f" stroke="#3b82f6" stroke-width="1.5"/><rect x="259" y="43" width="36" height="22" rx="2" fill="#07111f" opacity=".82"/><text x="277.0" y="70" text-anchor="middle" font-size="9" fill="#bfdbfe">1</text></g><g><rect x="308" y="36" width="46" height="38" rx="3" fill="#1e3a5f" stroke="#3b82f6" stroke-width="1.5"/><rect x="313" y="43" width="36" height="22" rx="2" fill="#07111f" opacity=".82"/><text x="331.0" y="70" text-anchor="middle" font-size="9" fill="#bfdbfe">2</text></g><g><rect x="362" y="36" width="46" height="38" rx="3" fill="#1e3a5f" stroke="#3b82f6" stroke-width="1.5"/><rect x="367" y="43" width="36" height="22" rx="2" fill="#07111f" opacity=".82"/><text x="385.0" y="70" text-anchor="middle" font-size="9" fill="#bfdbfe">3</text></g><g><rect x="416" y="36" width="46" height="38" rx="3" fill="#1e3a5f" stroke="#3b82f6" stroke-width="1.5"/><rect x="421" y="43" width="36" height="22" rx="2" fill="#07111f" opacity=".82"/><text x="439.0" y="70" text-anchor="middle" font-size="9" fill="#bfdbfe">4</text></g><g><rect x="470" y="36" width="46" height="38" rx="3" fill="#1e3a5f" stroke="#3b82f6" stroke-width="1.5"/><rect x="475" y="43" width="36" height="22" rx="2" fill="#07111f" opacity=".82"/><text x="493.0" y="70" text-anchor="middle" font-size="9" fill="#bfdbfe">5</text></g><g><rect x="200" y="86" width="46" height="38" rx="3" fill="#1e3a5f" stroke="#3b82f6" stroke-width="1.5"/><rect x="205" y="93" width="36" height="22" rx="2" fill="#07111f" opacity=".82"/><text x="223.0" y="120" text-anchor="middle" font-size="9" fill="#bfdbfe">6</text></g><g><rect x="254" y="86" width="46" height="38" rx="3" fill="#1e3a5f" stroke="#3b82f6" stroke-width="1.5"/><rect x="259" y="93" width="36" height="22" rx="2" fill="#07111f" opacity=".82"/><text x="277.0" y="120" text-anchor="middle" font-size="9" fill="#bfdbfe">7</text></g><g><rect x="308" y="86" width="46" height="38" rx="3" fill="#1e3a5f" stroke="#3b82f6" stroke-width="1.5"/><rect x="313" y="93" width="36" height="22" rx="2" fill="#07111f" opacity=".82"/><text x="331.0" y="120" text-anchor="middle" font-size="9" fill="#bfdbfe">8</text></g><g><rect x="362" y="86" width="46" height="38" rx="3" fill="#1e3a5f" stroke="#3b82f6" stroke-width="1.5"/><rect x="367" y="93" width="36" height="22" rx="2" fill="#07111f" opacity=".82"/><text x="385.0" y="120" text-anchor="middle" font-size="9" fill="#bfdbfe">9</text></g><g><rect x="416" y="86" width="46" height="38" rx="3" fill="#1e3a5f" stroke="#3b82f6" stroke-width="1.5"/><rect x="421" y="93" width="36" height="22" rx="2" fill="#07111f" opacity=".82"/><text x="439.0" y="120" text-anchor="middle" font-size="9" fill="#bfdbfe">10</text></g><g><rect x="470" y="86" width="46" height="38" rx="3" fill="#1e3a5f" stroke="#3b82f6" stroke-width="1.5"/><rect x="475" y="93" width="36" height="22" rx="2" fill="#07111f" opacity=".82"/><text x="493.0" y="120" text-anchor="middle" font-size="9" fill="#bfdbfe">11</text></g><g><rect x="1390" y="34" width="138" height="98" rx="5" fill="#475569" stroke="#94a3b8" stroke-width="1.5"/><text x="1459.0" y="88.0" text-anchor="middle" font-size="14" fill="#f8fafc">PSU 0</text></g><g><rect x="1542" y="34" width="138" height="98" rx="5" fill="#475569" stroke="#94a3b8" stroke-width="1.5"/><text x="1611.0" y="88.0" text-anchor="middle" font-size="14" fill="#f8fafc">PSU 1</text></g><g><rect x="22" y="96" width="130" height="50" rx="5" fill="#1f2937" stroke="#4b5563" stroke-width="1.5"/><text x="87.0" y="126.0" text-anchor="middle" font-size="11" fill="#f8fafc">FAN</text></g></svg>