<?xml version="1.0" encoding="UTF-8" standalone="no"?>
<svg
   xmlns:dc="http://purl.org/dc/elements/1.1/"
   xmlns:cc="http://creativecommons.org/ns#"
   xmlns:rdf="http://www.w3.org/1999/02/22-rdf-syntax-ns#"
   xmlns:svg="http://www.w3.org/2000/svg"
   xmlns="http://www.w3.org/2000/svg"
   xmlns:sodipodi="http://sodipodi.sourceforge.net/DTD/sodipodi-0.dtd"
   xmlns:inkscape="http://www.inkscape.org/namespaces/inkscape"
   version="1.1"
   id="NC55-2KW-DCFWLayer_1"
   x="0"
   y="0"
   viewBox="0 0 280.1 157"
   xml:space="preserve"
   width="280.1"
   height="157"
   sodipodi:docname="NC55-2KW-DCFW.svg"
   inkscape:version="0.92.1 r15371"><metadata
     id="metadata145"><rdf:RDF><cc:Work
         rdf:about=""><dc:format>image/svg+xml</dc:format><dc:type
           rdf:resource="http://purl.org/dc/dcmitype/StillImage" /><dc:title></dc:title></cc:Work></rdf:RDF></metadata><defs
     id="defs143" /><sodipodi:namedview
     pagecolor="#ffffff"
     bordercolor="#666666"
     borderopacity="1"
     objecttolerance="10"
     gridtolerance="10"
     guidetolerance="10"
     inkscape:pageopacity="0"
     inkscape:pageshadow="2"
     inkscape:window-width="1920"
     inkscape:window-height="986"
     id="namedview141"
     showgrid="false"
     inkscape:zoom="4.8598726"
     inkscape:cx="140.05"
     inkscape:cy="78.5"
     inkscape:window-x="-11"
     inkscape:window-y="-11"
     inkscape:window-maximized="1"
     inkscape:current-layer="NC55-2KW-DCFWLayer_1" /><style
     type="text/css"
     id="NC55-2KW-DCFWstyle2" /><g
     id="NC55-2KW-DCFWg276"><g
       id="NC55-2KW-DCFWg6"><path
         id="NC55-2KW-DCFWrect4"
         d="M4.1 3.6H276V157H4.1z" /></g><path
       class="NC55-2KW-DCFWst0"
       d="M254.6 105c-1.1 0-2-.9-2-2V54.3c0-1.1.9-2 2-2h21.8V20.8h-.5c-1.1 0-2-.9-2-2v-6.1c0-1.1.9-2 2-2h.5V4.1h-28.9c-2.8 0-5.1 2.2-5.1 5.1v121.2c0 2.2-1.8 4.1-4.1 4.1h-42.6l-18.3-19.1V9.1c0-2.8-2.2-5.1-5.1-5.1h-13c-1.9 0-3.4.7-4.1-1-.6-1.8-2.3-3-4.3-3H15.7c-1.7 0-3 1.3-3.3 3-.2 1.7-1.7 1-3.4 1H4.6v153h271.9v-52zm10.7-96.4c3.7 0 6.6 2.9 6.6 6.6 0 3.7-2.9 6.6-6.6 6.6-3.7 0-6.6-2.9-6.6-6.6 0-3.7 2.9-6.6 6.6-6.6zM154.9 34.1l.6 2.8c.4 1.7-.8 3.4-2.5 3.7l-1.1.2c-1.5.2-2.6 1.5-2.6 3l.8 32.7c0 1.7-1.4 3.1-3.1 3.1l-19.3-.6c0-.8.1-1.5.1-2.3 0-11.4-4.3-21.7-11.3-29.6l6.6-7.3c.4-.4.9-.7 1.4-.9l26.5-7.1c1.8-.5 3.5.6 3.9 2.3zm-16.4-12.2 2.8 3.6c1.3 1.6.6 4.2-1.4 4.8l-6 2c-1.2.4-2.6 0-3.3-1l-.4-.5c-.8-1-.8-2.5-.1-3.6l3.6-5c1.1-1.8 3.6-1.8 4.8-.3zm-17-13.5 8.7 5.6c1.4.9 1.8 2.8.8 4.3l-17.6 25.6c-2.8-2.6-6.1-5-9.6-6.8l13.3-27.4c.9-1.7 2.9-2.2 4.4-1.3zm-36.3.2c0-1.7 1.3-3 3-3H109c2.2 0 3.7 2.2 2.8 4.3l-11.2 25.7c-4.8-2-10-3.2-15.4-3.6zM38.1 14l8.7-5.6c1.5-1 3.6-.4 4.4 1.2l12.9 26.6c-3.7 1.7-7 4-10 6.5L37.3 18.3c-1-1.4-.6-3.4.8-4.3zm-11 11.5 2.8-3.6c1.3-1.6 3.8-1.5 4.9.2l3.6 5c.7 1.1.7 2.5-.1 3.6l-.4.5c-.8 1-2.1 1.5-3.3 1l-6-2c-2.1-.6-2.8-3-1.5-4.7zM12.9 36.8l.6-2.8c.4-1.7 2.1-2.7 3.8-2.2l26.5 7.1c.6.1 1.1.5 1.4.9l5.6 6.2c-7.5 7.9-12.2 18.8-12.2 30.6 0 .8 0 1.6.1 2.4l-17.1.5c-1.7.1-3.1-1.4-3.1-3.1l.8-32.7c0-1.5-1.1-2.8-2.6-3l-1.1-.1c-1.9-.3-3.1-2-2.7-3.8zm-1.7 50.8c0-1.6 1.2-2.9 2.7-3 5.3-.5 17.1-1.5 25-2.1.5 4.3 1.7 8.4 3.3 12.3-11.8 5.5-27.9 12.9-29.1 13.5-1.5.6-1.8-14.4-1.9-20.7zM26.3 127 15 114.3c-1.4-1.5-.8-4 1.1-4.9 6.2-2.6 18.7-7.9 27.7-11.9 1.9 3.7 4.4 7 7.2 9.9l-20.3 19.7c-1.3 1.2-3.2 1.1-4.4-.1zm20.6 15.7-13.2-8.3c-1.6-1-1.9-3.3-.5-4.8L53.6 110c3.1 2.7 6.6 5.1 10.3 6.9l-12.7 24.8c-.8 1.5-2.8 2.1-4.3 1zm36.3.9c0 1.7-1.3 3-3 3H59.4c-2.2 0-3.7-2.2-2.8-4.3L67 118.2c5 1.9 10.4 3 16.1 3v22.4zm0-111.6c-5.6 0-10.9 1-15.7 2.8l-10.9-25c-.9-2 .6-4.3 2.8-4.3h20.7c1.7 0 3 1.3 3 3V32zM109 146.6H88.3c-1.7 0-3-1.3-3-3v-22.4c5.6-.2 11-1.5 15.8-3.7l10.8 24.9c.7 2-.7 4.2-2.9 4.2zm25.7-12.2-13.2 8.3c-1.5.9-3.6.4-4.4-1.2l-13-25.5c3.6-1.9 6.9-4.3 9.8-7l21.3 20.7c1.5 1.4 1.1 3.7-.5 4.7zm18.7-20.2-11.3 12.7c-1.1 1.3-3.1 1.3-4.4.2l-21.4-20.6c2.6-2.8 4.9-6.1 6.6-9.6 9.2 4 22.8 9.7 29.4 12.6 2 .8 2.5 3.2 1.1 4.7zm1.8-6.2c-1.3-.7-19-8.8-30.8-14.3 1.5-3.7 2.5-7.5 3-11.7 7.7.6 21.2 1.8 27 2.3 1.6.1 2.7 1.4 2.7 3 0 6.6-.3 21.6-1.9 20.7z"
       id="NC55-2KW-DCFWpath8"
       style="fill:#b3b3b3" /><g
       id="NC55-2KW-DCFWg14"><path
         class="NC55-2KW-DCFWst1"
         id="NC55-2KW-DCFWrect10"
         style="fill:#e6e6e6"
         d="M276.6 3.7h2.8v152.7h-2.8z" /><path
         class="NC55-2KW-DCFWst2"
         d="M278.8 4.3v151.6h-1.7V4.3h1.7m1.3-1.3h-4.2v154h4.2z"
         id="NC55-2KW-DCFWpath12"
         style="fill:#999" /></g><g
       id="NC55-2KW-DCFWg20"><path
         class="NC55-2KW-DCFWst1"
         id="NC55-2KW-DCFWrect16"
         style="fill:#e6e6e6"
         d="M157.8 1.5h117.7v2H157.8z" /><path
         class="NC55-2KW-DCFWst2"
         d="M274.9 2v1H158.3V2h116.6m1-1H157.2v3h118.7z"
         id="NC55-2KW-DCFWpath18"
         style="fill:#999" /></g><g
       id="NC55-2KW-DCFWg26"><path
         class="NC55-2KW-DCFWst1"
         id="NC55-2KW-DCFWrect22"
         style="fill:#e6e6e6"
         d="M.6 3.7h2.8v152.7H.6z" /><path
         class="NC55-2KW-DCFWst2"
         d="M2.8 4.3v151.6H1.2V4.3h1.6M4.1 3H0v154h4.1z"
         id="NC55-2KW-DCFWpath24"
         style="fill:#999" /></g><g
       id="NC55-2KW-DCFWg32"><path
         class="NC55-2KW-DCFWst2"
         d="M272.4 102.5c-1.7 0-3-1.3-3-3V64.9c0-1.7 1.3-3 3-3s3 1.3 3 3v34.5c0 1.7-1.3 3.1-3 3.1z"
         id="NC55-2KW-DCFWpath28"
         style="fill:#999" /><path
         class="NC55-2KW-DCFWst1"
         d="M272.4 62.4c1.4 0 2.5 1.1 2.5 2.5v34.5c0 1.4-1.1 2.5-2.5 2.5s-2.5-1.1-2.5-2.5V64.9c0-1.4 1.1-2.5 2.5-2.5m0-1c-1.9 0-3.6 1.6-3.6 3.6v34.5c0 1.9 1.6 3.6 3.6 3.6 1.9 0 3.6-1.6 3.6-3.6V64.9c-.1-1.9-1.7-3.5-3.6-3.5z"
         id="NC55-2KW-DCFWpath30"
         style="fill:#e6e6e6" /></g><g
       id="NC55-2KW-DCFWg56"><g
         id="NC55-2KW-DCFWg44"><g
           id="NC55-2KW-DCFWg38"><path
             class="NC55-2KW-DCFWst3"
             d="M22.8 27.7c-3.3 0-6.6-1.3-8.9-3.8-2.4-2.4-3.8-5.6-3.8-8.9 0-3.3 1.3-6.6 3.8-8.9 2.4-2.4 5.6-3.8 8.9-3.8 3.3 0 6.6 1.3 8.9 3.8 2.4 2.4 3.8 5.6 3.8 8.9 0 3.3-1.3 6.6-3.8 8.9-2.3 2.5-5.5 3.8-8.9 3.8z"
             id="NC55-2KW-DCFWpath34"
             style="clip-rule:evenodd;fill:#e6e6e6;fill-rule:evenodd" /><path
             class="NC55-2KW-DCFWst2"
             d="M22.8 2.8c3.2 0 6.3 1.2 8.6 3.6C33.7 8.8 35 11.8 35 15c0 3.2-1.2 6.3-3.6 8.6-2.4 2.3-5.4 3.6-8.6 3.6-3.2 0-6.3-1.2-8.6-3.6-2.3-2.4-3.6-5.4-3.6-8.6 0-3.2 1.2-6.3 3.6-8.6 2.4-2.3 5.4-3.6 8.6-3.6m0-1c-3.6 0-6.8 1.4-9.3 3.9C11 8.2 9.6 11.5 9.6 15c0 3.5 1.4 6.8 3.9 9.3 2.5 2.5 5.8 3.9 9.3 3.9 3.5 0 6.8-1.4 9.3-3.9 2.5-2.5 3.9-5.8 3.9-9.3 0-3.5-1.4-6.8-3.9-9.3-2.5-2.6-5.7-3.9-9.3-3.9z"
             id="NC55-2KW-DCFWpath36"
             style="fill:#999" /></g><g
           id="NC55-2KW-DCFWg42"><circle
             class="NC55-2KW-DCFWst4"
             cx="22.8"
             cy="15"
             id="NC55-2KW-DCFWellipse40"
             r="11.2"
             style="clip-rule:evenodd;fill:#d9d9d9;fill-rule:evenodd" /></g></g><g
         id="NC55-2KW-DCFWg54"><g
           id="NC55-2KW-DCFWg48"><path
             class="NC55-2KW-DCFWst5"
             id="NC55-2KW-DCFWrect46"
             style="fill:#4d4d4d"
             d="M21 7.2h3.6v15.6H21z" /></g><g
           id="NC55-2KW-DCFWg52"><path
             class="NC55-2KW-DCFWst5"
             id="NC55-2KW-DCFWrect50"
             style="fill:#4d4d4d"
             d="M15 13.2h15.6v3.6H15z" /></g></g></g><g
       id="NC55-2KW-DCFWg80"><g
         id="NC55-2KW-DCFWg68"><g
           id="NC55-2KW-DCFWg62"><path
             class="NC55-2KW-DCFWst3"
             d="M146.6 27.7c-3.3 0-6.6-1.3-8.9-3.8-2.4-2.4-3.8-5.6-3.8-8.9 0-3.3 1.3-6.6 3.8-8.9 2.4-2.4 5.6-3.8 8.9-3.8 3.3 0 6.6 1.3 8.9 3.8 2.4 2.4 3.8 5.6 3.8 8.9 0 3.3-1.3 6.6-3.8 8.9-2.3 2.5-5.6 3.8-8.9 3.8z"
             id="NC55-2KW-DCFWpath58"
             style="clip-rule:evenodd;fill:#e6e6e6;fill-rule:evenodd" /><path
             class="NC55-2KW-DCFWst2"
             d="M146.6 2.8c3.2 0 6.3 1.2 8.6 3.6 2.3 2.3 3.6 5.4 3.6 8.6 0 3.2-1.2 6.3-3.6 8.6-2.3 2.3-5.4 3.6-8.6 3.6-3.2 0-6.3-1.2-8.6-3.6-2.3-2.3-3.6-5.4-3.6-8.6 0-3.2 1.2-6.3 3.6-8.6 2.3-2.3 5.3-3.6 8.6-3.6m0-1c-3.6 0-6.8 1.4-9.3 3.9-2.5 2.4-3.9 5.8-3.9 9.3 0 3.5 1.4 6.8 3.9 9.3 2.4 2.5 5.8 3.9 9.3 3.9 3.6 0 6.8-1.4 9.3-3.9 2.5-2.5 3.9-5.8 3.9-9.3 0-3.5-1.4-6.8-3.9-9.3-2.5-2.6-5.8-3.9-9.3-3.9z"
             id="NC55-2KW-DCFWpath60"
             style="fill:#999" /></g><g
           id="NC55-2KW-DCFWg66"><circle
             class="NC55-2KW-DCFWst4"
             cx="146.6"
             cy="15"
             id="NC55-2KW-DCFWellipse64"
             r="11.2"
             style="clip-rule:evenodd;fill:#d9d9d9;fill-rule:evenodd" /></g></g><g
         id="NC55-2KW-DCFWg78"><g
           id="NC55-2KW-DCFWg72"><path
             class="NC55-2KW-DCFWst5"
             id="NC55-2KW-DCFWrect70"
             style="fill:#4d4d4d"
             d="M144.8 7.2h3.6v15.6h-3.6z" /></g><g
           id="NC55-2KW-DCFWg76"><path
             class="NC55-2KW-DCFWst5"
             id="NC55-2KW-DCFWrect74"
             style="fill:#4d4d4d"
             d="M138.8 13.2h15.6v3.6h-15.6z" /></g></g></g><g
       id="NC55-2KW-DCFWg104"><g
         id="NC55-2KW-DCFWg92"><g
           id="NC55-2KW-DCFWg86"><path
             class="NC55-2KW-DCFWst3"
             d="M22.8 150.4c-3.3 0-6.6-1.3-8.9-3.8-2.4-2.4-3.8-5.6-3.8-8.9 0-3.3 1.3-6.6 3.8-8.9 2.4-2.4 5.6-3.8 8.9-3.8 3.3 0 6.6 1.3 8.9 3.8 2.4 2.4 3.8 5.6 3.8 8.9 0 3.3-1.3 6.6-3.8 8.9-2.3 2.5-5.5 3.8-8.9 3.8z"
             id="NC55-2KW-DCFWpath82"
             style="clip-rule:evenodd;fill:#e6e6e6;fill-rule:evenodd" /><path
             class="NC55-2KW-DCFWst2"
             d="M22.8 125.6c3.2 0 6.3 1.2 8.6 3.6 2.3 2.3 3.6 5.4 3.6 8.6 0 3.2-1.2 6.3-3.6 8.6-2.3 2.3-5.4 3.6-8.6 3.6-3.2 0-6.3-1.2-8.6-3.6-2.3-2.3-3.6-5.4-3.6-8.6 0-3.2 1.2-6.3 3.6-8.6 2.3-2.4 5.4-3.6 8.6-3.6m0-1c-3.6 0-6.8 1.4-9.3 3.9-2.5 2.4-3.9 5.8-3.9 9.3 0 3.6 1.4 6.8 3.9 9.3 2.4 2.5 5.8 3.9 9.3 3.9 3.5 0 6.8-1.4 9.3-3.9 2.5-2.5 3.9-5.8 3.9-9.3 0-3.6-1.4-6.8-3.9-9.3-2.5-2.6-5.7-3.9-9.3-3.9z"
             id="NC55-2KW-DCFWpath84"
             style="fill:#999" /></g><g
           id="NC55-2KW-DCFWg90"><circle
             class="NC55-2KW-DCFWst4"
             cx="22.8"
             cy="137.7"
             id="NC55-2KW-DCFWellipse88"
             r="11.2"
             style="clip-rule:evenodd;fill:#d9d9d9;fill-rule:evenodd" /></g></g><g
         id="NC55-2KW-DCFWg102"><g
           id="NC55-2KW-DCFWg96"><path
             class="NC55-2KW-DCFWst5"
             id="NC55-2KW-DCFWrect94"
             style="fill:#4d4d4d"
             d="M21 130h3.6v15.6H21z" /></g><g
           id="NC55-2KW-DCFWg100"><path
             class="NC55-2KW-DCFWst5"
             id="NC55-2KW-DCFWrect98"
             style="fill:#4d4d4d"
             d="M15 135.9h15.6v3.6H15z" /></g></g></g><g
       id="NC55-2KW-DCFWg128"><g
         id="NC55-2KW-DCFWg116"><g
           id="NC55-2KW-DCFWg110"><path
             class="NC55-2KW-DCFWst3"
             d="M146.6 150.4c-3.3 0-6.6-1.3-8.9-3.8-2.4-2.4-3.8-5.6-3.8-8.9 0-3.3 1.3-6.6 3.8-8.9 2.4-2.4 5.6-3.8 8.9-3.8 3.3 0 6.6 1.3 8.9 3.8 2.4 2.4 3.8 5.6 3.8 8.9 0 3.3-1.3 6.6-3.8 8.9-2.3 2.5-5.6 3.8-8.9 3.8z"
             id="NC55-2KW-DCFWpath106"
             style="clip-rule:evenodd;fill:#e6e6e6;fill-rule:evenodd" /><path
             class="NC55-2KW-DCFWst2"
             d="M146.6 125.6c3.2 0 6.3 1.2 8.6 3.6 2.3 2.3 3.6 5.4 3.6 8.6 0 3.2-1.2 6.3-3.6 8.6-2.3 2.3-5.4 3.6-8.6 3.6-3.2 0-6.3-1.2-8.6-3.6-2.3-2.3-3.6-5.4-3.6-8.6 0-3.2 1.2-6.3 3.6-8.6 2.3-2.4 5.3-3.6 8.6-3.6m0-1c-3.6 0-6.8 1.4-9.3 3.9-2.5 2.4-3.9 5.8-3.9 9.3 0 3.6 1.4 6.8 3.9 9.3 2.4 2.5 5.8 3.9 9.3 3.9 3.6 0 6.8-1.4 9.3-3.9 2.5-2.5 3.9-5.8 3.9-9.3 0-3.6-1.4-6.8-3.9-9.3-2.5-2.6-5.8-3.9-9.3-3.9z"
             id="NC55-2KW-DCFWpath108"
             style="fill:#999" /></g><g
           id="NC55-2KW-DCFWg114"><circle
             class="NC55-2KW-DCFWst4"
             cx="146.6"
             cy="137.7"
             id="NC55-2KW-DCFWellipse112"
             r="11.2"
             style="clip-rule:evenodd;fill:#d9d9d9;fill-rule:evenodd" /></g></g><g
         id="NC55-2KW-DCFWg126"><g
           id="NC55-2KW-DCFWg120"><path
             class="NC55-2KW-DCFWst5"
             id="NC55-2KW-DCFWrect118"
             style="fill:#4d4d4d"
             d="M144.8 130h3.6v15.6h-3.6z" /></g><g
           id="NC55-2KW-DCFWg124"><path
             class="NC55-2KW-DCFWst5"
             id="NC55-2KW-DCFWrect122"
             style="fill:#4d4d4d"
             d="M138.8 135.9h15.6v3.6h-15.6z" /></g></g></g><g
       id="NC55-2KW-DCFWg142"><g
         id="NC55-2KW-DCFWg134"><path
           class="NC55-2KW-DCFWst0"
           d="M17.8 61.4c-.3 0-.5-.2-.5-.5V40.6c0-.3.2-.5.5-.5h2c.3 0 .5.2.5.5v20.3c0 .3-.2.5-.5.5z"
           id="NC55-2KW-DCFWpath130"
           style="fill:#b3b3b3" /><path
           class="NC55-2KW-DCFWst6"
           d="M19.8 40.6v20.3h-2V40.6h2m0-1h-2c-.6 0-1 .4-1 1v20.3c0 .6.4 1 1 1h2c.6 0 1-.4 1-1V40.6c0-.6-.4-1-1-1z"
           id="NC55-2KW-DCFWpath132"
           style="fill:#666" /></g><g
         id="NC55-2KW-DCFWg140"><path
           class="NC55-2KW-DCFWst7"
           d="M21 48.4h6.9v-2.7s0-2-2-2-2 1-2 1l-3 1.3z"
           id="NC55-2KW-DCFWpath136"
           style="fill:gray;stroke:#666;stroke-miterlimit:10" /><path
           class="NC55-2KW-DCFWst7"
           d="M21 52h6.9v2.7s0 2-2 2-2-1-2-1l-3-1.3z"
           id="NC55-2KW-DCFWpath138"
           style="fill:gray;stroke:#666;stroke-miterlimit:10" /></g></g><g
       id="NC55-2KW-DCFWg156"><g
         id="NC55-2KW-DCFWg148"><path
           class="NC55-2KW-DCFWst0"
           d="M146.6 61.4c-.3 0-.5-.2-.5-.5V40.6c0-.3.2-.5.5-.5h2c.3 0 .5.2.5.5v20.3c0 .3-.2.5-.5.5z"
           id="NC55-2KW-DCFWpath144"
           style="fill:#b3b3b3" /><path
           class="NC55-2KW-DCFWst6"
           d="M148.6 40.6v20.3h-2V40.6h2m0-1h-2c-.6 0-1 .4-1 1v20.3c0 .6.4 1 1 1h2c.6 0 1-.4 1-1V40.6c0-.6-.4-1-1-1z"
           id="NC55-2KW-DCFWpath146"
           style="fill:#666" /></g><g
         id="NC55-2KW-DCFWg154"><path
           class="NC55-2KW-DCFWst7"
           d="M145.4 48.4h-6.9v-2.7s0-2 2-2 2 1 2 1l3 1.3z"
           id="NC55-2KW-DCFWpath150"
           style="fill:gray;stroke:#666;stroke-miterlimit:10" /><path
           class="NC55-2KW-DCFWst7"
           d="M145.4 52h-6.9v2.7s0 2 2 2 2-1 2-1l3-1.3z"
           id="NC55-2KW-DCFWpath152"
           style="fill:gray;stroke:#666;stroke-miterlimit:10" /></g></g><g
       id="NC55-2KW-DCFWg236"><path
         class="NC55-2KW-DCFWst0"
         d="M237.4 32.2V24c0-2.8-2.2-5.1-5.1-5.1h-35.7c-.5 0-1 .2-1.4.5l-16 16.1c-.4.4-.6.9-.6 1.5v25.5h5.1V89h-5.1v25.5c0 .6.2 1.1.6 1.5l16 16.1c.4.3.9.5 1.4.5h35.7c2.8 0 5.1-2.2 5.1-5.1v-8.1c0-2.2 1.8-4.1 4.1-4.1V36.2c-2.3 0-4.1-1.8-4.1-4z"
         id="NC55-2KW-DCFWpath158"
         style="fill:#b3b3b3" /><path
         class="NC55-2KW-DCFWst6"
         d="M222.2 73.8c0-2.8 2.2-5.1 5.1-5.1h1c2.8 0 5.1-2.2 5.1-5.1V32.2c0-3.3-2.7-6.1-6.1-6.1h-25.6c-.5 0-1 .2-1.4.6l-11.5 11.5c-.4.4-.6.9-.6 1.4v24.6c0 2.5 2 4.6 4.6 4.6 2.8 0 5.1 2.2 5.1 5.1v4c0 2.8-2.2 5.1-5.1 5.1-2.5 0-4.6 2-4.6 4.6V112c0 .5.2 1 .6 1.4l11.5 11.5c.4.4.9.6 1.4.6h25.6c3.3 0 6.1-2.7 6.1-6.1V88c0-2.8-2.2-5.1-5.1-5.1h-1c-2.8 0-5.1-2.2-5.1-5.1v-2z"
         id="NC55-2KW-DCFWpath160"
         style="fill:#666" /><g
         id="NC55-2KW-DCFWg234"><g
           id="NC55-2KW-DCFWg196"><g
             id="NC55-2KW-DCFWg170"><path
               class="NC55-2KW-DCFWst8"
               d="M222 55.2c-1.3 4.1-4.6 7.4-8.7 8.7l1.5 2.6c4.6-1.7 8.1-5.3 9.8-9.8z"
               id="NC55-2KW-DCFWpath162"
               style="fill:#333" /><path
               class="NC55-2KW-DCFWst8"
               d="m196 55.2-2.6 1.5c1.7 4.6 5.3 8.1 9.8 9.8l1.5-2.6c-4.1-1.4-7.4-4.7-8.7-8.7z"
               id="NC55-2KW-DCFWpath164"
               style="fill:#333" /><path
               class="NC55-2KW-DCFWst8"
               d="m214.8 35.2-1.5 2.6c4.1 1.3 7.4 4.6 8.7 8.7l2.6-1.5c-1.6-4.5-5.3-8.1-9.8-9.8z"
               id="NC55-2KW-DCFWpath166"
               style="fill:#333" /><path
               class="NC55-2KW-DCFWst8"
               d="M196 46.6c1.3-4.1 4.6-7.4 8.7-8.7l-1.5-2.6c-4.6 1.7-8.1 5.3-9.8 9.8z"
               id="NC55-2KW-DCFWpath168"
               style="fill:#333" /></g><g
             id="NC55-2KW-DCFWg190"><g
               id="NC55-2KW-DCFWg174"><circle
                 class="NC55-2KW-DCFWst2"
                 cx="209"
                 cy="50.9"
                 r="12.2"
                 id="NC55-2KW-DCFWcircle172"
                 style="fill:#999" /></g><g
               id="NC55-2KW-DCFWg188"><g
                 id="NC55-2KW-DCFWg180"><circle
                   class="NC55-2KW-DCFWst9"
                   cx="209"
                   cy="50.9"
                   r="7.9"
                   id="NC55-2KW-DCFWcircle176"
                   style="fill:#ccc" /><path
                   class="NC55-2KW-DCFWst8"
                   d="M209 43.3c4.2 0 7.6 3.4 7.6 7.6 0 4.2-3.4 7.6-7.6 7.6-4.2 0-7.6-3.4-7.6-7.6 0-4.2 3.4-7.6 7.6-7.6m0-.5c-4.5 0-8.1 3.7-8.1 8.1 0 4.4 3.7 8.1 8.1 8.1 4.4 0 8.1-3.7 8.1-8.1 0-4.4-3.7-8.1-8.1-8.1z"
                   id="NC55-2KW-DCFWpath178"
                   style="fill:#333" /></g><g
                 id="NC55-2KW-DCFWg186"><path
                   class="NC55-2KW-DCFWst8"
                   d="M209 57.7c-3.8 0-6.9-3-6.9-6.9 0-3.9 3-6.9 6.9-6.9 3.9 0 6.9 3 6.9 6.9 0 3.9-3.2 6.9-6.9 6.9zm0-10.1c-1.8 0-3.2 1.5-3.2 3.2 0 1.7 1.5 3.2 3.2 3.2 1.7 0 3.2-1.5 3.2-3.2 0-1.7-1.4-3.2-3.2-3.2z"
                   id="NC55-2KW-DCFWpath182"
                   style="fill:#333" /><path
                   class="NC55-2KW-DCFWst2"
                   d="M209 44.3c3.7 0 6.6 2.9 6.6 6.6 0 3.7-2.9 6.6-6.6 6.6-3.7 0-6.6-2.9-6.6-6.6 0-3.7 2.9-6.6 6.6-6.6m0 10.2c1.9 0 3.6-1.6 3.6-3.6 0-1.9-1.6-3.6-3.6-3.6-1.9 0-3.6 1.6-3.6 3.6s1.7 3.6 3.6 3.6m0-10.7c-4 0-7.1 3.1-7.1 7.1 0 4 3.1 7.1 7.1 7.1 4 0 7.1-3.1 7.1-7.1 0-4-3.2-7.1-7.1-7.1zm0 10.2c-1.7 0-3-1.3-3-3s1.3-3 3-3 3 1.3 3 3-1.3 3-3 3z"
                   id="NC55-2KW-DCFWpath184"
                   style="fill:#999" /></g></g></g><g
             id="NC55-2KW-DCFWg194"><path
               class="NC55-2KW-DCFWst2"
               d="M221.5 48.5v-.8h4.4c0 .2 0 .4-.1.5-.1.3-.3.6-.5.9-.2.3-.6.6-1 1-.7.6-1.2 1-1.4 1.4-.2.4-.4.7-.4 1 0 .3.1.6.3.8.2.2.5.3.9.3s.7-.1.9-.3c.2-.2.3-.5.3-.9l.8.1c-.1.6-.3 1.1-.6 1.4-.4.3-.9.5-1.5.5s-1.1-.2-1.5-.5c-.4-.3-.5-.8-.5-1.3 0-.3.1-.5.2-.8.1-.3.3-.5.5-.8.2-.3.7-.7 1.2-1.1.5-.4.8-.7.9-.8.1-.1.2-.3.3-.4h-3.1v-.2z"
               id="NC55-2KW-DCFWpath192"
               style="fill:#999" /></g></g><g
           id="NC55-2KW-DCFWg232"><g
             id="NC55-2KW-DCFWg206"><path
               class="NC55-2KW-DCFWst8"
               d="M222 104.9c-1.3 4.1-4.6 7.4-8.7 8.7l1.5 2.6c4.6-1.7 8.1-5.3 9.8-9.8z"
               id="NC55-2KW-DCFWpath198"
               style="fill:#333" /><path
               class="NC55-2KW-DCFWst8"
               d="m196 104.9-2.6 1.5c1.7 4.6 5.3 8.1 9.8 9.8l1.5-2.6c-4.1-1.4-7.4-4.6-8.7-8.7z"
               id="NC55-2KW-DCFWpath200"
               style="fill:#333" /><path
               class="NC55-2KW-DCFWst8"
               d="m214.8 84.9-1.5 2.6c4.1 1.3 7.4 4.6 8.7 8.7l2.6-1.5c-1.6-4.5-5.3-8.1-9.8-9.8z"
               id="NC55-2KW-DCFWpath202"
               style="fill:#333" /><path
               class="NC55-2KW-DCFWst8"
               d="M196 96.3c1.3-4.1 4.6-7.4 8.7-8.7l-1.5-2.6c-4.6 1.7-8.1 5.3-9.8 9.8z"
               id="NC55-2KW-DCFWpath204"
               style="fill:#333" /></g><g
             id="NC55-2KW-DCFWg226"><g
               id="NC55-2KW-DCFWg210"><circle
                 class="NC55-2KW-DCFWst2"
                 cx="209"
                 cy="100.6"
                 r="12.2"
                 id="NC55-2KW-DCFWcircle208"
                 style="fill:#999" /></g><g
               id="NC55-2KW-DCFWg224"><g
                 id="NC55-2KW-DCFWg216"><circle
                   class="NC55-2KW-DCFWst9"
                   cx="209"
                   cy="100.6"
                   r="7.9"
                   id="NC55-2KW-DCFWcircle212"
                   style="fill:#ccc" /><path
                   class="NC55-2KW-DCFWst8"
                   d="M209 93c4.2 0 7.6 3.4 7.6 7.6 0 4.2-3.4 7.6-7.6 7.6-4.2 0-7.6-3.4-7.6-7.6 0-4.1 3.4-7.6 7.6-7.6m0-.5c-4.5 0-8.1 3.7-8.1 8.1 0 4.4 3.7 8.1 8.1 8.1 4.4 0 8.1-3.7 8.1-8.1 0-4.5-3.7-8.1-8.1-8.1z"
                   id="NC55-2KW-DCFWpath214"
                   style="fill:#333" /></g><g
                 id="NC55-2KW-DCFWg222"><path
                   class="NC55-2KW-DCFWst8"
                   d="M209 107.4c-3.8 0-6.9-3-6.9-6.9 0-3.9 3-6.9 6.9-6.9 3.9 0 6.9 3 6.9 6.9 0 3.9-3.2 6.9-6.9 6.9zm0-10.1c-1.8 0-3.2 1.5-3.2 3.2 0 1.7 1.5 3.2 3.2 3.2 1.7 0 3.2-1.5 3.2-3.2 0-1.7-1.4-3.2-3.2-3.2z"
                   id="NC55-2KW-DCFWpath218"
                   style="fill:#333" /><path
                   class="NC55-2KW-DCFWst2"
                   d="M209 94c3.7 0 6.6 2.9 6.6 6.6 0 3.7-2.9 6.6-6.6 6.6-3.7 0-6.6-2.9-6.6-6.6 0-3.6 2.9-6.6 6.6-6.6m0 10.2c1.9 0 3.6-1.6 3.6-3.6S211 97 209 97c-1.9 0-3.6 1.6-3.6 3.6s1.7 3.6 3.6 3.6m0-10.7c-4 0-7.1 3.1-7.1 7.1 0 4 3.1 7.1 7.1 7.1 4 0 7.1-3.1 7.1-7.1 0-4-3.2-7.1-7.1-7.1zm0 10.2c-1.7 0-3-1.3-3-3s1.3-3 3-3 3 1.3 3 3-1.3 3-3 3z"
                   id="NC55-2KW-DCFWpath220"
                   style="fill:#999" /></g></g></g><g
             id="NC55-2KW-DCFWg230"><path
               class="NC55-2KW-DCFWst2"
               d="M222.7 97.4h.8v5.1c.2-.2.4-.4.7-.5.3-.1.6-.3.8-.4v.8c-.4.2-.8.5-1.2.8-.4.3-.6.6-.7.9h-.5v-6.7z"
               id="NC55-2KW-DCFWpath228"
               style="fill:#999" /></g></g></g></g><g
       id="NC55-2KW-DCFWg242"><path
         d="M247.5 14.6c0-1 .2-1.7.6-2.3.4-.6 1-.8 1.6-.8.4 0 .8.1 1.1.4.3.3.6.6.8 1 .2.4.3 1 .3 1.6 0 .8-.2 1.5-.6 2.1-.4.6-1 .9-1.7.9s-1.2-.3-1.7-.9c-.2-.6-.4-1.2-.4-2zm.6 0c0 .7.2 1.3.5 1.6.3.3.7.6 1.1.6.5 0 .8-.2 1.1-.6.3-.4.5-1 .5-1.7 0-.5-.1-.9-.2-1.3-.1-.3-.3-.5-.6-.7-.2-.2-.5-.3-.8-.3-.5 0-.9.2-1.2.6-.3.4-.4 1-.4 1.8z"
         id="NC55-2KW-DCFWpath238" /><path
         d="M252.8 17.4v-5.8h.6v2.8l2.3-2.8h.8l-2 2.3 2.1 3.4h-.8l-1.7-2.9-.8.9v2h-.5z"
         id="NC55-2KW-DCFWpath240" /></g><g
       id="NC55-2KW-DCFWg246"><path
         d="M251 44.3v-2.7h-2.2v-1.1h2.2v-2.7h1v2.7h2.2v1.1H252v2.7z"
         id="NC55-2KW-DCFWpath244" /></g><g
       id="NC55-2KW-DCFWg250"><path
         d="M248.4 123.7v-1.4h3.6v1.4z"
         id="NC55-2KW-DCFWpath248" /></g><g
       id="NC55-2KW-DCFWg256"><path
         d="M255.8 45.3v-13h3.7c.9 0 1.6.1 2.1.2.6.2 1.1.6 1.6 1.1.5.5.8 1.2 1.1 2.1.3.9.4 1.8.4 2.9 0 1.5-.2 2.7-.6 3.8-.4 1.1-1 1.7-1.6 2.2-.6.5-1.5.6-2.6.6h-4.1zm1.4-1.6h2.2c.9 0 1.6-.1 2.1-.4.5-.3.8-.8 1.1-1.4.3-.9.5-1.9.5-3.1 0-1.3-.2-2.3-.5-3.1-.3-.8-.8-1.2-1.4-1.5-.4-.2-1-.3-1.8-.3h-2.2z"
         id="NC55-2KW-DCFWpath252" /><path
         d="m274.2 40.7 1.4.4c-.3 1.4-.9 2.5-1.6 3.2-.7.7-1.7 1.1-2.8 1.1-1 0-1.8-.2-2.5-.7-.7-.5-1.3-1.2-1.7-2.3-.4-1.1-.7-2.3-.7-3.8s.2-2.6.7-3.7c.5-1 1-1.7 1.8-2.2.8-.5 1.6-.8 2.5-.8 1 0 1.9.3 2.6 1 .7.6 1.2 1.6 1.5 2.8l-1.4.4c-.5-1.8-1.4-2.7-2.8-2.7-.7 0-1.3.2-1.8.5-.5.4-.9.9-1.2 1.7-.3.8-.5 1.7-.5 2.9 0 1.8.3 3.1.9 4.1.6 1 1.4 1.3 2.5 1.3.8 0 1.4-.3 2-.8.6-.4.9-1.2 1.1-2.4z"
         id="NC55-2KW-DCFWpath254" /></g><g
       id="NC55-2KW-DCFWg262"><path
         d="M255.8 126.5v-13.1h3.7c.9 0 1.6.1 2.1.2.6.2 1.1.6 1.6 1.1.5.5.8 1.2 1.1 2.1.3.9.4 1.8.4 2.9 0 1.5-.2 2.7-.6 3.8-.4 1-1 1.7-1.6 2.2-.6.5-1.5.6-2.6.6h-4.1zm1.4-1.6h2.2c.9 0 1.6-.1 2.1-.4.5-.3.8-.8 1.1-1.4.3-.9.5-1.9.5-3.1 0-1.3-.2-2.3-.5-3.1-.3-.8-.8-1.2-1.4-1.5-.4-.2-1-.3-1.8-.3h-2.2z"
         id="NC55-2KW-DCFWpath258" /><path
         d="m274 121.8 1.4.4c-.3 1.4-.9 2.5-1.6 3.2-.7.7-1.7 1.1-2.8 1.1-1 0-1.8-.2-2.5-.7-.7-.5-1.3-1.2-1.7-2.3-.4-1.1-.7-2.3-.7-3.8 0-1.4.2-2.6.7-3.7.5-1 1-1.7 1.8-2.2.8-.5 1.6-.8 2.5-.8 1 0 1.9.3 2.6 1 .7.6 1.2 1.6 1.5 2.8l-1.4.4c-.5-1.8-1.4-2.7-2.8-2.7-.7 0-1.3.2-1.8.5-.5.4-.9.9-1.2 1.7-.3.8-.5 1.7-.5 2.9 0 1.8.3 3.1.9 4.1.6.9 1.4 1.3 2.5 1.3.8 0 1.4-.3 2-.8.6-.5.9-1.1 1.1-2.4z"
         id="NC55-2KW-DCFWpath260" /></g><g
       id="NC55-2KW-DCFWg268"><path
         class="NC55-2KW-DCFWst8"
         d="M41.6 151.2c-18.8 0-34-15.2-34-34V39.6h7.6v19.8c0 1.4 1.1 2.5 2.5 2.5h1v55.3c0 12.6 10.2 22.8 22.8 22.8h83.2c12.6 0 22.8-10.2 22.8-22.8V61.9h1c1.4 0 2.5-1.1 2.5-2.5V39.6h7.6v77.6c0 18.8-15.2 34-34 34z"
         id="NC55-2KW-DCFWpath264"
         style="fill:#333" /><path
         class="NC55-2KW-DCFWst6"
         d="M158.3 40.1v77.1c0 18.5-15 33.5-33.5 33.5H41.6c-18.5 0-33.5-15-33.5-33.5V40.1h6.6v19.3c0 1.7 1.3 3 3 3h.5v54.8c0 12.9 10.4 23.3 23.3 23.3h83.2c12.9 0 23.3-10.4 23.3-23.3V62.4h.5c1.7 0 3-1.3 3-3V40.1h6.8m1-1h-8.6v20.3c0 1.1-.9 2-2 2h-1.5v55.8c0 12.3-10 22.3-22.3 22.3H41.6c-12.3 0-22.3-10-22.3-22.3V61.4h-1.5c-1.1 0-2-.9-2-2V39.1H7.1v78.1c0 19 15.5 34.5 34.5 34.5h83.2c19 0 34.5-15.5 34.5-34.5z"
         id="NC55-2KW-DCFWpath266"
         style="fill:#666" /></g><g
       id="NC55-2KW-DCFWg274"><circle
         class="NC55-2KW-DCFWst5"
         cx="265.3"
         cy="15.2"
         r="4.6"
         id="NC55-2KW-DCFWcircle270"
         style="fill:#4d4d4d" /><path
         class="NC55-2KW-DCFWst10"
         d="M265.3 11.2c2.2 0 4.1 1.8 4.1 4.1s-1.8 4.1-4.1 4.1-4.1-1.8-4.1-4.1 1.9-4.1 4.1-4.1m0-1.1c-2.8 0-5.1 2.2-5.1 5.1 0 2.9 2.2 5.1 5.1 5.1 2.9 0 5.1-2.2 5.1-5.1 0-2.9-2.3-5.1-5.1-5.1z"
         id="NC55-2KW-DCFWpath272"
         style="fill:#1a1a1a" /></g></g><text
     xml:space="preserve"
     style="font-style:normal;font-weight:normal;font-size:40px;line-height:1.25;font-family:sans-serif;letter-spacing:0px;word-spacing:0px;fill:#000000;fill-opacity:1;stroke:none"
     x="71.401047"
     y="91.566185"
     id="text149"><tspan
       sodipodi:role="line"
       id="tspan147"
       x="71.401047"
       y="128.0594" /></text>
</svg>