<?xml version="1.0" encoding="UTF-8" standalone="no"?>
<!-- Generator: Adobe Illustrator 22.1.0, SVG Export Plug-In . SVG Version: 6.00 Build 0)  -->

<svg
   xmlns:dc="http://purl.org/dc/elements/1.1/"
   xmlns:cc="http://creativecommons.org/ns#"
   xmlns:rdf="http://www.w3.org/1999/02/22-rdf-syntax-ns#"
   xmlns:svg="http://www.w3.org/2000/svg"
   xmlns="http://www.w3.org/2000/svg"
   xmlns:sodipodi="http://sodipodi.sourceforge.net/DTD/sodipodi-0.dtd"
   xmlns:inkscape="http://www.inkscape.org/namespaces/inkscape"
   version="1.1"
   id="NCS-55A1-36H-S-PWR-FillerLayer_1"
   x="0px"
   y="0px"
   viewBox="0 0 298 155"
   xml:space="preserve"
   sodipodi:docname="NCS-55A1-36H-S-PWR-Filler.svg"
   width="298"
   height="155"
   inkscape:version="0.92.2 (5c3e80d, 2017-08-06)"><metadata
     id="NCS-55A1-36H-S-PWR-Fillermetadata25"><rdf:RDF><cc:Work
         rdf:about=""><dc:format>image/svg+xml</dc:format><dc:type
           rdf:resource="http://purl.org/dc/dcmitype/StillImage" /><dc:title></dc:title></cc:Work></rdf:RDF></metadata><defs
     id="NCS-55A1-36H-S-PWR-Fillerdefs23" /><sodipodi:namedview
     pagecolor="#ffffff"
     bordercolor="#666666"
     borderopacity="1"
     objecttolerance="10"
     gridtolerance="10"
     guidetolerance="10"
     inkscape:pageopacity="0"
     inkscape:pageshadow="2"
     inkscape:window-width="732"
     inkscape:window-height="480"
     id="NCS-55A1-36H-S-PWR-Fillernamedview21"
     showgrid="false"
     inkscape:zoom="0.95302013"
     inkscape:cx="149"
     inkscape:cy="77.5"
     inkscape:window-x="0"
     inkscape:window-y="0"
     inkscape:window-maximized="0"
     inkscape:current-layer="Layer_1" /><style
     type="text/css"
     id="NCS-55A1-36H-S-PWR-Fillerstyle2">
	.NCS-55A1-36H-S-PWR-Fillerst0{fill:#EEEEEE;}
	.NCS-55A1-36H-S-PWR-Fillerst1{fill:#808080;}
	.NCS-55A1-36H-S-PWR-Fillerst2{fill:#BFBFBF;}
</style><g
     id="NCS-55A1-36H-S-PWR-Fillerg18"><g
       id="NCS-55A1-36H-S-PWR-Fillerg8"><path
         class="NCS-55A1-36H-S-PWR-Fillerst0"
         d="M 0.4,6 C 0.4,3 2.5,0.5 5,0.5 h 287.9 c 2.5,0 4.6,2.5 4.6,5.5 v 143 c 0,3 -2.1,5.5 -4.6,5.5 H 5.1 C 2.6,154.5 0.5,152 0.5,149 Z"
         id="NCS-55A1-36H-S-PWR-Fillerpath4"
         inkscape:connector-curvature="0"
         style="fill:#eeeeee" /><path
         class="NCS-55A1-36H-S-PWR-Fillerst1"
         d="m 297.2,149 c 0,2.8 -1.9,5 -4.2,5 H 5.1 c -2.4,0 -4.2,-2.2 -4.2,-5 V 6 C 0.9,3.2 2.8,1 5.1,1 H 293 c 2.4,0 4.2,2.2 4.2,5 v 143 m 0.8,0 V 6 c 0,-3.3 -2.3,-6 -5.1,-6 H 5.1 C 2.3,0 0,2.7 0,6 v 143 c 0,3.3 2.3,6 5.1,6 H 293 c 2.7,0 5,-2.7 5,-6 z"
         id="NCS-55A1-36H-S-PWR-Fillerpath6"
         inkscape:connector-curvature="0"
         style="fill:#808080" /></g><g
       id="NCS-55A1-36H-S-PWR-Fillerg16"><path
         class="NCS-55A1-36H-S-PWR-Fillerst2"
         d="m 9.8,16 c 0,-3 2.1,-5.5 4.6,-5.5 h 269.2 c 2.5,0 4.6,2.5 4.6,5.5 v 123 c 0,3 -2.1,5.5 -4.6,5.5 H 14.4 c -2.5,0 -4.6,-2.5 -4.6,-5.5 0,0 0,-123 0,-123 z"
         id="NCS-55A1-36H-S-PWR-Fillerpath10"
         inkscape:connector-curvature="0"
         style="fill:#bfbfbf" /><g
         id="NCS-55A1-36H-S-PWR-Fillerg14"><path
           class="NCS-55A1-36H-S-PWR-Fillerst1"
           d="m 287.9,139 c 0,2.8 -1.9,5 -4.2,5 H 14.4 c -2.4,0 -4.2,-2.2 -4.2,-5 V 16 c 0,-2.8 1.9,-5 4.2,-5 h 269.2 c 2.4,0 4.2,2.2 4.2,5 l 0.1,123 m 0.8,0 V 16 c 0,-3.3 -2.3,-6 -5.1,-6 H 14.4 c -2.8,0 -5.1,2.7 -5.1,6 v 123 c 0,3.3 2.3,6 5.1,6 h 269.2 c 2.8,0 5.1,-2.7 5.1,-6 z"
           id="NCS-55A1-36H-S-PWR-Fillerpath12"
           inkscape:connector-curvature="0"
           style="fill:#808080" /></g></g></g></svg>