<?xml version="1.0" encoding="UTF-8" standalone="no"?>
<!-- Generator: Adobe Illustrator 25.2.0, SVG Export Plug-In . SVG Version: 6.00 Build 0)  -->

<svg
   xmlns:dc="http://purl.org/dc/elements/1.1/"
   xmlns:cc="http://creativecommons.org/ns#"
   xmlns:rdf="http://www.w3.org/1999/02/22-rdf-syntax-ns#"
   xmlns:svg="http://www.w3.org/2000/svg"
   xmlns="http://www.w3.org/2000/svg"
   xmlns:sodipodi="http://sodipodi.sourceforge.net/DTD/sodipodi-0.dtd"
   xmlns:inkscape="http://www.inkscape.org/namespaces/inkscape"
   version="1.1"
   id="N540X-12Z16G-SYS-D_Front_depowersupplyLayer_1"
   x="0px"
   y="0px"
   viewBox="0 0 219 103.5"
   xml:space="preserve"
   sodipodi:docname="N540X-12Z16G-SYS-D_Front_depowersupply.svg"
   width="219"
   height="103.5"
   inkscape:version="0.92.1 r15371"><metadata
     id="N540X-12Z16G-SYS-D_Front_depowersupplymetadata339"><rdf:RDF><cc:Work
         rdf:about=""><dc:format>image/svg+xml</dc:format><dc:type
           rdf:resource="http://purl.org/dc/dcmitype/StillImage" /><dc:title></dc:title></cc:Work></rdf:RDF></metadata><defs
     id="N540X-12Z16G-SYS-D_Front_depowersupplydefs337" /><sodipodi:namedview
     pagecolor="#ffffff"
     bordercolor="#666666"
     borderopacity="1"
     objecttolerance="10"
     gridtolerance="10"
     guidetolerance="10"
     inkscape:pageopacity="0"
     inkscape:pageshadow="2"
     inkscape:window-width="1920"
     inkscape:window-height="986"
     id="N540X-12Z16G-SYS-D_Front_depowersupplynamedview335"
     showgrid="false"
     fit-margin-top="0"
     fit-margin-left="0"
     fit-margin-right="0"
     fit-margin-bottom="0"
     inkscape:zoom="1.7899543"
     inkscape:cx="109.5"
     inkscape:cy="51.75"
     inkscape:window-x="-11"
     inkscape:window-y="-11"
     inkscape:window-maximized="1"
     inkscape:current-layer="Layer_1" /><style
     type="text/css"
     id="N540X-12Z16G-SYS-D_Front_depowersupplystyle2">
	.N540X-12Z16G-SYS-D_Front_depowersupplyst0{fill:#999999;}
	.N540X-12Z16G-SYS-D_Front_depowersupplyst1{fill:#666666;}
	.N540X-12Z16G-SYS-D_Front_depowersupplyst2{fill:#4D4D4D;stroke:#666666;stroke-miterlimit:3;}
	.N540X-12Z16G-SYS-D_Front_depowersupplyst3{fill:#333333;}
	.N540X-12Z16G-SYS-D_Front_depowersupplyst4{fill:#CCCCCC;}
	.N540X-12Z16G-SYS-D_Front_depowersupplyst5{fill:#B3B3B3;}
	.N540X-12Z16G-SYS-D_Front_depowersupplyst6{fill:#E6E6E6;}
	.N540X-12Z16G-SYS-D_Front_depowersupplyst7{fill:#4D4D4D;}
	.N540X-12Z16G-SYS-D_Front_depowersupplyst8{opacity:0.5;}
	.N540X-12Z16G-SYS-D_Front_depowersupplyst9{fill:#B3B3B3;stroke:#808080;stroke-miterlimit:10;}
	.N540X-12Z16G-SYS-D_Front_depowersupplyst10{fill:#808080;}
	.N540X-12Z16G-SYS-D_Front_depowersupplyst11{fill-rule:evenodd;clip-rule:evenodd;fill:#D9D9D9;}
</style><g
     id="N540X-12Z16G-SYS-D_Front_depowersupplyg332"><g
       id="N540X-12Z16G-SYS-D_Front_depowersupplyg302"><g
         id="N540X-12Z16G-SYS-D_Front_depowersupplyg8"><rect
           x="9.5"
           y="34"
           class="N540X-12Z16G-SYS-D_Front_depowersupplyst0"
           width="199"
           height="62"
           id="N540X-12Z16G-SYS-D_Front_depowersupplyrect4"
           style="fill:#999999" /><path
           class="N540X-12Z16G-SYS-D_Front_depowersupplyst1"
           d="m 208,34.5 v 61 H 10 v -61 h 198 m 1,-1 H 9 v 63 h 200 z"
           id="N540X-12Z16G-SYS-D_Front_depowersupplypath6"
           inkscape:connector-curvature="0"
           style="fill:#666666" /></g><rect
         x="13.5"
         y="45.700001"
         class="N540X-12Z16G-SYS-D_Front_depowersupplyst2"
         width="191"
         height="39"
         id="N540X-12Z16G-SYS-D_Front_depowersupplyrect10"
         style="fill:#4d4d4d;stroke:#666666;stroke-miterlimit:3" /><g
         id="N540X-12Z16G-SYS-D_Front_depowersupplyg16"><rect
           x="13.5"
           y="85"
           class="N540X-12Z16G-SYS-D_Front_depowersupplyst3"
           width="191"
           height="7"
           id="N540X-12Z16G-SYS-D_Front_depowersupplyrect12"
           style="fill:#333333" /><path
           class="N540X-12Z16G-SYS-D_Front_depowersupplyst1"
           d="m 204,85.5 v 6 H 14 v -6 h 190 m 1,-1 H 13 v 8 h 192 z"
           id="N540X-12Z16G-SYS-D_Front_depowersupplypath14"
           inkscape:connector-curvature="0"
           style="fill:#666666" /></g><g
         id="N540X-12Z16G-SYS-D_Front_depowersupplyg22"><rect
           x="13.5"
           y="38"
           class="N540X-12Z16G-SYS-D_Front_depowersupplyst3"
           width="191"
           height="7"
           id="N540X-12Z16G-SYS-D_Front_depowersupplyrect18"
           style="fill:#333333" /><path
           class="N540X-12Z16G-SYS-D_Front_depowersupplyst1"
           d="m 204,38.5 v 6 H 14 v -6 h 190 m 1,-1 H 13 v 8 h 192 z"
           id="N540X-12Z16G-SYS-D_Front_depowersupplypath20"
           inkscape:connector-curvature="0"
           style="fill:#666666" /></g><g
         id="N540X-12Z16G-SYS-D_Front_depowersupplyg66"><g
           id="N540X-12Z16G-SYS-D_Front_depowersupplyg28"><rect
             x="22.5"
             y="57.900002"
             class="N540X-12Z16G-SYS-D_Front_depowersupplyst4"
             width="33"
             height="15"
             id="N540X-12Z16G-SYS-D_Front_depowersupplyrect24"
             style="fill:#cccccc" /><path
             class="N540X-12Z16G-SYS-D_Front_depowersupplyst0"
             d="m 55,58.4 v 14 H 23 v -14 h 32 m 1,-1 H 22 v 16 h 34 z"
             id="N540X-12Z16G-SYS-D_Front_depowersupplypath26"
             inkscape:connector-curvature="0"
             style="fill:#999999" /></g><g
           id="N540X-12Z16G-SYS-D_Front_depowersupplyg64"><g
             id="N540X-12Z16G-SYS-D_Front_depowersupplyg34"><path
               class="N540X-12Z16G-SYS-D_Front_depowersupplyst4"
               d="m 28,77.4 c -0.8,0 -1.5,-0.7 -1.5,-1.5 V 55.6 c 0,-0.8 0.7,-1.5 1.5,-1.5 h 22.2 c 0.8,0 1.5,0.7 1.5,1.5 v 20.2 c 0,0.8 -0.7,1.5 -1.5,1.5 H 28 Z"
               id="N540X-12Z16G-SYS-D_Front_depowersupplypath30"
               inkscape:connector-curvature="0"
               style="fill:#cccccc" /><path
               class="N540X-12Z16G-SYS-D_Front_depowersupplyst1"
               d="m 50.3,54.6 c 0.6,0 1,0.4 1,1 v 20.2 c 0,0.6 -0.4,1 -1,1 H 28 c -0.6,0 -1,-0.4 -1,-1 V 55.6 c 0,-0.6 0.4,-1 1,-1 h 22.3 m 0,-1 H 28 c -1.1,0 -2,0.9 -2,2 v 20.2 c 0,1.1 0.9,2 2,2 h 22.2 c 1.1,0 2,-0.9 2,-2 V 55.6 c 0.1,-1.1 -0.8,-2 -1.9,-2 z"
               id="N540X-12Z16G-SYS-D_Front_depowersupplypath32"
               inkscape:connector-curvature="0"
               style="fill:#666666" /></g><g
             id="N540X-12Z16G-SYS-D_Front_depowersupplyg62"><g
               id="N540X-12Z16G-SYS-D_Front_depowersupplyg40"><path
                 class="N540X-12Z16G-SYS-D_Front_depowersupplyst4"
                 d="m 51.1,76 c -0.5,0 -0.9,-0.3 -1.2,-0.8 -0.6,-1.2 -1.9,-2 -3.2,-2 -1.4,0 -2.6,0.8 -3.2,2 -0.3,0.5 -0.7,0.8 -1.2,0.8 h -6.2 c -0.5,0 -0.9,-0.3 -1.2,-0.8 -0.6,-1.2 -1.9,-2 -3.2,-2 -1.4,0 -2.6,0.8 -3.2,2 -0.3,0.5 -0.7,0.8 -1.2,0.8 h -0.2 c -0.7,0 -1.3,-0.6 -1.3,-1.3 v -4.3 c 0,-0.5 0.2,-0.9 0.6,-1.1 l 1.2,-0.7 c 0.7,-0.4 1.1,-1.2 1.1,-2 v -1.7 c 0,-0.8 -0.4,-1.6 -1.1,-2 L 26.4,62.2 C 26,62 25.8,61.5 25.8,61.1 v -4.3 c 0,-0.7 0.6,-1.3 1.3,-1.3 h 0.2 c 0.5,0 0.9,0.3 1.2,0.8 0.6,1.2 1.9,2 3.2,2 1.4,0 2.6,-0.8 3.2,-2 0.3,-0.5 0.7,-0.8 1.2,-0.8 h 6.2 c 0.5,0 0.9,0.3 1.2,0.8 0.6,1.2 1.9,2 3.2,2 1.4,0 2.6,-0.8 3.2,-2 0.3,-0.5 0.7,-0.8 1.2,-0.8 0.7,0 1.3,0.6 1.3,1.3 v 4.3 c 0,0.5 -0.2,0.9 -0.6,1.1 l -1.2,0.7 c -0.7,0.4 -1.1,1.2 -1.1,2 v 1.7 c 0,0.8 0.4,1.6 1.1,2 l 1.2,0.7 c 0.4,0.2 0.6,0.7 0.6,1.1 v 4.3 c 0,0.7 -0.6,1.3 -1.3,1.3 z"
                 id="N540X-12Z16G-SYS-D_Front_depowersupplypath36"
                 inkscape:connector-curvature="0"
                 style="fill:#cccccc" /><path
                 class="N540X-12Z16G-SYS-D_Front_depowersupplyst0"
                 d="m 51.1,56 c 0.4,0 0.8,0.4 0.8,0.8 v 4.3 c 0,0.3 -0.2,0.5 -0.4,0.7 l -1.2,0.7 c -0.9,0.5 -1.4,1.4 -1.4,2.4 v 1.7 c 0,1 0.5,1.9 1.4,2.4 l 1.2,0.7 c 0.2,0.1 0.4,0.4 0.4,0.7 v 4.3 c 0,0.4 -0.4,0.8 -0.8,0.8 -0.3,0 -0.6,-0.2 -0.7,-0.5 -0.7,-1.4 -2.1,-2.2 -3.7,-2.2 -1.5,0 -2.9,0.9 -3.7,2.2 -0.2,0.3 -0.4,0.5 -0.7,0.5 h -6.2 c -0.3,0 -0.6,-0.2 -0.7,-0.5 -0.7,-1.4 -2.1,-2.2 -3.7,-2.2 -1.5,0 -2.9,0.9 -3.7,2.2 -0.2,0.3 -0.4,0.5 -0.7,0.5 h -0.2 c -0.4,0 -0.8,-0.4 -0.8,-0.8 v -4.3 c 0,-0.3 0.2,-0.5 0.4,-0.7 L 28,69 c 0.9,-0.5 1.4,-1.4 1.4,-2.4 v -1.7 c 0,-1 -0.5,-1.9 -1.4,-2.4 l -1.2,-0.7 c -0.2,-0.1 -0.4,-0.4 -0.4,-0.7 v -4.3 c 0,-0.4 0.4,-0.8 0.8,-0.8 h 0.2 c 0.3,0 0.6,0.2 0.7,0.5 0.7,1.4 2.1,2.2 3.7,2.2 1.5,0 2.9,-0.9 3.7,-2.2 0.2,-0.3 0.4,-0.5 0.7,-0.5 h 6.2 c 0.3,0 0.6,0.2 0.7,0.5 0.7,1.4 2.1,2.2 3.7,2.2 1.5,0 2.9,-0.9 3.7,-2.2 0,-0.3 0.3,-0.5 0.6,-0.5 m 0,-1 c -0.7,0 -1.3,0.4 -1.6,1.1 -0.5,1 -1.6,1.7 -2.8,1.7 -1.2,0 -2.2,-0.7 -2.8,-1.7 C 43.6,55.4 43,55 42.3,55 h -6.2 c -0.7,0 -1.3,0.4 -1.6,1.1 -0.5,1 -1.6,1.7 -2.8,1.7 -1.2,0 -2.2,-0.7 -2.8,-1.7 C 28.6,55.4 28,55 27.3,55 h -0.2 c -1,0 -1.8,0.8 -1.8,1.8 v 4.3 c 0,0.6 0.3,1.2 0.9,1.6 l 1.2,0.7 c 0.6,0.3 0.9,0.9 0.9,1.6 v 1.7 c 0,0.6 -0.3,1.2 -0.9,1.6 L 26.2,69 c -0.6,0.3 -0.9,0.9 -0.9,1.6 v 4.3 c 0,1 0.8,1.8 1.8,1.8 h 0.2 c 0.7,0 1.3,-0.4 1.6,-1.1 0.5,-1 1.6,-1.7 2.8,-1.7 1.2,0 2.2,0.7 2.8,1.7 0.3,0.6 0.9,1.1 1.6,1.1 h 6.2 c 0.7,0 1.3,-0.4 1.6,-1.1 0.5,-1 1.6,-1.7 2.8,-1.7 1.2,0 2.2,0.7 2.8,1.7 0.3,0.6 0.9,1.1 1.6,1.1 1,0 1.8,-0.8 1.8,-1.8 V 70.6 C 52.9,70 52.6,69.4 52,69 L 50.8,68.3 C 50.2,68 49.9,67.4 49.9,66.7 V 65 c 0,-0.6 0.3,-1.2 0.9,-1.6 L 52,62.7 c 0.6,-0.3 0.9,-0.9 0.9,-1.6 v -4.3 c 0,-1 -0.8,-1.8 -1.8,-1.8 z"
                 id="N540X-12Z16G-SYS-D_Front_depowersupplypath38"
                 inkscape:connector-curvature="0"
                 style="fill:#999999" /></g><g
               id="N540X-12Z16G-SYS-D_Front_depowersupplyg60"><g
                 id="N540X-12Z16G-SYS-D_Front_depowersupplyg46"><circle
                   class="N540X-12Z16G-SYS-D_Front_depowersupplyst5"
                   cx="39.099998"
                   cy="65.699997"
                   r="8"
                   id="N540X-12Z16G-SYS-D_Front_depowersupplycircle42"
                   style="fill:#b3b3b3" /><path
                   class="N540X-12Z16G-SYS-D_Front_depowersupplyst1"
                   d="m 39.1,58.2 c 4.1,0 7.5,3.4 7.5,7.5 0,4.1 -3.4,7.5 -7.5,7.5 -4.1,0 -7.5,-3.4 -7.5,-7.5 0,-4.1 3.4,-7.5 7.5,-7.5 m 0,-1 c -4.7,0 -8.5,3.8 -8.5,8.5 0,4.7 3.8,8.5 8.5,8.5 4.7,0 8.5,-3.8 8.5,-8.5 0,-4.7 -3.8,-8.5 -8.5,-8.5 z"
                   id="N540X-12Z16G-SYS-D_Front_depowersupplypath44"
                   inkscape:connector-curvature="0"
                   style="fill:#666666" /></g><g
                 id="N540X-12Z16G-SYS-D_Front_depowersupplyg52"><circle
                   class="N540X-12Z16G-SYS-D_Front_depowersupplyst4"
                   cx="39.099998"
                   cy="65.699997"
                   r="5"
                   id="N540X-12Z16G-SYS-D_Front_depowersupplycircle48"
                   style="fill:#cccccc" /><path
                   class="N540X-12Z16G-SYS-D_Front_depowersupplyst1"
                   d="m 39.1,61.2 c 2.5,0 4.5,2 4.5,4.5 0,2.5 -2,4.5 -4.5,4.5 -2.5,0 -4.5,-2 -4.5,-4.5 0,-2.4 2,-4.5 4.5,-4.5 m 0,-1 c -3.1,0 -5.5,2.5 -5.5,5.5 0,3.1 2.5,5.5 5.5,5.5 3,0 5.5,-2.5 5.5,-5.5 0.1,-3 -2.4,-5.5 -5.5,-5.5 z"
                   id="N540X-12Z16G-SYS-D_Front_depowersupplypath50"
                   inkscape:connector-curvature="0"
                   style="fill:#666666" /></g><g
                 id="N540X-12Z16G-SYS-D_Front_depowersupplyg58"><path
                   class="N540X-12Z16G-SYS-D_Front_depowersupplyst6"
                   d="m 39,70.8 v -4 c 0,-0.3 -0.2,-0.5 -0.5,-0.5 h -1.8 v -1.1 h 1.8 c 0.3,0 0.5,-0.2 0.5,-0.5 v -4 h 0.3 v 4 c 0,0.3 0.2,0.5 0.5,0.5 h 1.8 v 1.1 h -1.8 c -0.3,0 -0.5,0.2 -0.5,0.5 v 4 z"
                   id="N540X-12Z16G-SYS-D_Front_depowersupplypath54"
                   inkscape:connector-curvature="0"
                   style="fill:#e6e6e6" /><path
                   class="N540X-12Z16G-SYS-D_Front_depowersupplyst1"
                   d="m 39.1,65.5 c 0.2,0.1 0.4,0.2 0.6,0.2 H 41 v 0.1 h -1.3 c -0.2,0 -0.5,0.1 -0.6,0.2 -0.2,-0.1 -0.4,-0.2 -0.6,-0.2 h -1.3 v -0.1 h 1.3 c 0.2,0 0.5,-0.1 0.6,-0.2 m 0.7,-5.3 h -1.3 v 4.5 h -2.3 v 2.1 h 2.3 v 4.5 h 1.3 v -4.5 h 2.3 v -2.1 h -2.3 z"
                   id="N540X-12Z16G-SYS-D_Front_depowersupplypath56"
                   inkscape:connector-curvature="0"
                   style="fill:#666666" /></g></g></g></g></g><g
         id="N540X-12Z16G-SYS-D_Front_depowersupplyg110"><g
           id="N540X-12Z16G-SYS-D_Front_depowersupplyg72"><rect
             x="68.900002"
             y="57.900002"
             class="N540X-12Z16G-SYS-D_Front_depowersupplyst4"
             width="33"
             height="15"
             id="N540X-12Z16G-SYS-D_Front_depowersupplyrect68"
             style="fill:#cccccc" /><path
             class="N540X-12Z16G-SYS-D_Front_depowersupplyst0"
             d="m 101.4,58.4 v 14 h -32 v -14 h 32 m 1,-1 h -34 v 16 h 34 z"
             id="N540X-12Z16G-SYS-D_Front_depowersupplypath70"
             inkscape:connector-curvature="0"
             style="fill:#999999" /></g><g
           id="N540X-12Z16G-SYS-D_Front_depowersupplyg108"><g
             id="N540X-12Z16G-SYS-D_Front_depowersupplyg78"><path
               class="N540X-12Z16G-SYS-D_Front_depowersupplyst4"
               d="m 74.3,77.4 c -0.8,0 -1.5,-0.7 -1.5,-1.5 V 55.6 c 0,-0.8 0.7,-1.5 1.5,-1.5 h 22.2 c 0.8,0 1.5,0.7 1.5,1.5 v 20.2 c 0,0.8 -0.7,1.5 -1.5,1.5 H 74.3 Z"
               id="N540X-12Z16G-SYS-D_Front_depowersupplypath74"
               inkscape:connector-curvature="0"
               style="fill:#cccccc" /><path
               class="N540X-12Z16G-SYS-D_Front_depowersupplyst1"
               d="m 96.6,54.6 c 0.6,0 1,0.4 1,1 v 20.2 c 0,0.6 -0.4,1 -1,1 H 74.3 c -0.6,0 -1,-0.4 -1,-1 V 55.6 c 0,-0.6 0.4,-1 1,-1 h 22.3 m 0,-1 H 74.3 c -1.1,0 -2,0.9 -2,2 v 20.2 c 0,1.1 0.9,2 2,2 h 22.2 c 1.1,0 2,-0.9 2,-2 V 55.6 c 0.1,-1.1 -0.8,-2 -1.9,-2 z"
               id="N540X-12Z16G-SYS-D_Front_depowersupplypath76"
               inkscape:connector-curvature="0"
               style="fill:#666666" /></g><g
             id="N540X-12Z16G-SYS-D_Front_depowersupplyg106"><g
               id="N540X-12Z16G-SYS-D_Front_depowersupplyg84"><path
                 class="N540X-12Z16G-SYS-D_Front_depowersupplyst4"
                 d="m 97.5,76 c -0.5,0 -0.9,-0.3 -1.2,-0.8 -0.6,-1.2 -1.9,-2 -3.2,-2 -1.3,0 -2.6,0.8 -3.2,2 -0.3,0.5 -0.7,0.8 -1.2,0.8 h -6.2 c -0.5,0 -0.9,-0.3 -1.2,-0.8 -0.6,-1.2 -1.9,-2 -3.2,-2 -1.3,0 -2.6,0.8 -3.2,2 -0.3,0.5 -0.7,0.8 -1.2,0.8 h -0.2 c -0.7,0 -1.3,-0.6 -1.3,-1.3 v -4.3 c 0,-0.5 0.2,-0.9 0.6,-1.1 L 74,68.6 c 0.7,-0.4 1.1,-1.2 1.1,-2 v -1.7 c 0,-0.8 -0.4,-1.6 -1.1,-2 L 72.8,62.2 C 72.4,62 72.2,61.5 72.2,61.1 v -4.3 c 0,-0.7 0.6,-1.3 1.3,-1.3 h 0.2 c 0.5,0 0.9,0.3 1.2,0.8 0.6,1.2 1.9,2 3.2,2 1.3,0 2.6,-0.8 3.2,-2 0.3,-0.5 0.7,-0.8 1.2,-0.8 h 6.2 c 0.5,0 0.9,0.3 1.2,0.8 0.6,1.2 1.9,2 3.2,2 1.3,0 2.6,-0.8 3.2,-2 0.3,-0.5 0.7,-0.8 1.2,-0.8 0.7,0 1.3,0.6 1.3,1.3 v 4.3 c 0,0.5 -0.2,0.9 -0.6,1.1 L 97,62.9 c -0.7,0.4 -1.1,1.2 -1.1,2 v 1.7 c 0,0.8 0.4,1.6 1.1,2 l 1.2,0.7 c 0.4,0.2 0.6,0.7 0.6,1.1 v 4.3 c 0,0.7 -0.6,1.3 -1.3,1.3 z"
                 id="N540X-12Z16G-SYS-D_Front_depowersupplypath80"
                 inkscape:connector-curvature="0"
                 style="fill:#cccccc" /><path
                 class="N540X-12Z16G-SYS-D_Front_depowersupplyst0"
                 d="m 97.5,56 c 0.4,0 0.8,0.4 0.8,0.8 v 4.3 c 0,0.3 -0.2,0.5 -0.4,0.7 l -1.2,0.7 c -0.9,0.5 -1.4,1.4 -1.4,2.4 v 1.7 c 0,1 0.5,1.9 1.4,2.4 l 1.2,0.7 c 0.2,0.1 0.4,0.4 0.4,0.7 v 4.3 c 0,0.4 -0.4,0.8 -0.8,0.8 -0.3,0 -0.6,-0.2 -0.7,-0.5 -0.7,-1.4 -2.1,-2.2 -3.7,-2.2 -1.5,0 -2.9,0.9 -3.7,2.2 -0.2,0.3 -0.4,0.5 -0.7,0.5 h -6.2 c -0.3,0 -0.6,-0.2 -0.7,-0.5 -0.7,-1.4 -2.1,-2.2 -3.7,-2.2 -1.5,0 -2.9,0.9 -3.7,2.2 -0.2,0.3 -0.4,0.5 -0.7,0.5 h -0.2 c -0.4,0 -0.8,-0.4 -0.8,-0.8 v -4.3 c 0,-0.3 0.2,-0.5 0.4,-0.7 L 74.3,69 c 0.9,-0.5 1.4,-1.4 1.4,-2.4 v -1.7 c 0,-1 -0.5,-1.9 -1.4,-2.4 l -1.2,-0.7 c -0.2,-0.1 -0.4,-0.4 -0.4,-0.7 v -4.3 c 0,-0.4 0.4,-0.8 0.8,-0.8 h 0.2 c 0.3,0 0.6,0.2 0.7,0.5 0.7,1.4 2.1,2.2 3.7,2.2 1.5,0 2.9,-0.9 3.7,-2.2 C 82,56.2 82.2,56 82.5,56 h 6.2 c 0.3,0 0.6,0.2 0.7,0.5 0.7,1.4 2.1,2.2 3.7,2.2 1.5,0 2.9,-0.9 3.7,-2.2 0.1,-0.3 0.4,-0.5 0.7,-0.5 m 0,-1 c -0.7,0 -1.3,0.4 -1.6,1.1 -0.5,1 -1.6,1.7 -2.8,1.7 -1.2,0 -2.2,-0.7 -2.8,-1.7 C 90,55.4 89.4,55 88.7,55 h -6.2 c -0.7,0 -1.3,0.4 -1.6,1.1 -0.5,1 -1.6,1.7 -2.8,1.7 -1.2,0 -2.2,-0.7 -2.8,-1.7 C 75,55.4 74.4,55 73.7,55 h -0.2 c -1,0 -1.8,0.8 -1.8,1.8 v 4.3 c 0,0.6 0.3,1.2 0.9,1.6 l 1.2,0.7 c 0.6,0.3 0.9,0.9 0.9,1.6 v 1.7 c 0,0.6 -0.3,1.2 -0.9,1.6 L 72.6,69 c -0.6,0.3 -0.9,0.9 -0.9,1.6 v 4.3 c 0,1 0.8,1.8 1.8,1.8 h 0.2 c 0.7,0 1.3,-0.4 1.6,-1.1 0.5,-1 1.6,-1.7 2.8,-1.7 1.2,0 2.2,0.7 2.8,1.7 0.3,0.6 0.9,1.1 1.6,1.1 h 6.2 c 0.7,0 1.3,-0.4 1.6,-1.1 0.5,-1 1.6,-1.7 2.8,-1.7 1.2,0 2.2,0.7 2.8,1.7 0.3,0.6 0.9,1.1 1.6,1.1 1,0 1.8,-0.8 1.8,-1.8 V 70.6 C 99.3,70 99,69.4 98.4,69 L 97.2,68.3 C 96.6,68 96.3,67.4 96.3,66.7 V 65 c 0,-0.6 0.3,-1.2 0.9,-1.6 l 1.2,-0.7 c 0.6,-0.3 0.9,-0.9 0.9,-1.6 v -4.3 c 0,-1 -0.9,-1.8 -1.8,-1.8 z"
                 id="N540X-12Z16G-SYS-D_Front_depowersupplypath82"
                 inkscape:connector-curvature="0"
                 style="fill:#999999" /></g><g
               id="N540X-12Z16G-SYS-D_Front_depowersupplyg104"><g
                 id="N540X-12Z16G-SYS-D_Front_depowersupplyg90"><circle
                   class="N540X-12Z16G-SYS-D_Front_depowersupplyst5"
                   cx="85.5"
                   cy="65.699997"
                   r="8"
                   id="N540X-12Z16G-SYS-D_Front_depowersupplycircle86"
                   style="fill:#b3b3b3" /><path
                   class="N540X-12Z16G-SYS-D_Front_depowersupplyst1"
                   d="m 85.5,58.2 c 4.1,0 7.5,3.4 7.5,7.5 0,4.1 -3.4,7.5 -7.5,7.5 -4.1,0 -7.5,-3.3 -7.5,-7.5 0,-4.2 3.3,-7.5 7.5,-7.5 m 0,-1 c -4.7,0 -8.5,3.8 -8.5,8.5 0,4.7 3.8,8.5 8.5,8.5 4.7,0 8.5,-3.8 8.5,-8.5 0,-4.7 -3.8,-8.5 -8.5,-8.5 z"
                   id="N540X-12Z16G-SYS-D_Front_depowersupplypath88"
                   inkscape:connector-curvature="0"
                   style="fill:#666666" /></g><g
                 id="N540X-12Z16G-SYS-D_Front_depowersupplyg96"><circle
                   class="N540X-12Z16G-SYS-D_Front_depowersupplyst4"
                   cx="85.5"
                   cy="65.699997"
                   r="5"
                   id="N540X-12Z16G-SYS-D_Front_depowersupplycircle92"
                   style="fill:#cccccc" /><path
                   class="N540X-12Z16G-SYS-D_Front_depowersupplyst1"
                   d="m 85.5,61.2 c 2.5,0 4.5,2 4.5,4.5 0,2.5 -2,4.5 -4.5,4.5 -2.5,0 -4.5,-2 -4.5,-4.5 -0.1,-2.4 2,-4.5 4.5,-4.5 m 0,-1 c -3.1,0 -5.5,2.5 -5.5,5.5 0,3.1 2.5,5.5 5.5,5.5 3.1,0 5.5,-2.5 5.5,-5.5 0,-3 -2.5,-5.5 -5.5,-5.5 z"
                   id="N540X-12Z16G-SYS-D_Front_depowersupplypath94"
                   inkscape:connector-curvature="0"
                   style="fill:#666666" /></g><g
                 id="N540X-12Z16G-SYS-D_Front_depowersupplyg102"><path
                   class="N540X-12Z16G-SYS-D_Front_depowersupplyst6"
                   d="m 85.3,70.8 v -4 c 0,-0.3 -0.2,-0.5 -0.5,-0.5 H 83 v -1.1 h 1.8 c 0.3,0 0.5,-0.2 0.5,-0.5 v -4 h 0.3 v 4 c 0,0.3 0.2,0.5 0.5,0.5 h 1.8 v 1.1 h -1.8 c -0.3,0 -0.5,0.2 -0.5,0.5 v 4 z"
                   id="N540X-12Z16G-SYS-D_Front_depowersupplypath98"
                   inkscape:connector-curvature="0"
                   style="fill:#e6e6e6" /><path
                   class="N540X-12Z16G-SYS-D_Front_depowersupplyst1"
                   d="m 85.5,65.5 c 0.2,0.1 0.4,0.2 0.6,0.2 h 1.3 v 0.1 h -1.3 c -0.2,0 -0.5,0.1 -0.6,0.2 -0.2,-0.1 -0.4,-0.2 -0.6,-0.2 h -1.3 v -0.1 h 1.3 c 0.2,0 0.4,-0.1 0.6,-0.2 m 0.6,-5.3 h -1.3 v 4.5 h -2.3 v 2.1 h 2.3 v 4.5 h 1.3 v -4.5 h 2.3 v -2.1 h -2.3 z"
                   id="N540X-12Z16G-SYS-D_Front_depowersupplypath100"
                   inkscape:connector-curvature="0"
                   style="fill:#666666" /></g></g></g></g></g><g
         id="N540X-12Z16G-SYS-D_Front_depowersupplyg154"><g
           id="N540X-12Z16G-SYS-D_Front_depowersupplyg116"><rect
             x="115.2"
             y="57.900002"
             class="N540X-12Z16G-SYS-D_Front_depowersupplyst4"
             width="33"
             height="15"
             id="N540X-12Z16G-SYS-D_Front_depowersupplyrect112"
             style="fill:#cccccc" /><path
             class="N540X-12Z16G-SYS-D_Front_depowersupplyst0"
             d="m 147.7,58.4 v 14 h -32 v -14 h 32 m 1,-1 h -34 v 16 h 34 z"
             id="N540X-12Z16G-SYS-D_Front_depowersupplypath114"
             inkscape:connector-curvature="0"
             style="fill:#999999" /></g><g
           id="N540X-12Z16G-SYS-D_Front_depowersupplyg152"><g
             id="N540X-12Z16G-SYS-D_Front_depowersupplyg122"><path
               class="N540X-12Z16G-SYS-D_Front_depowersupplyst4"
               d="m 120.7,77.4 c -0.8,0 -1.5,-0.7 -1.5,-1.5 V 55.6 c 0,-0.8 0.7,-1.5 1.5,-1.5 h 22.2 c 0.8,0 1.5,0.7 1.5,1.5 v 20.2 c 0,0.8 -0.7,1.5 -1.5,1.5 h -22.2 z"
               id="N540X-12Z16G-SYS-D_Front_depowersupplypath118"
               inkscape:connector-curvature="0"
               style="fill:#cccccc" /><path
               class="N540X-12Z16G-SYS-D_Front_depowersupplyst1"
               d="m 142.9,54.6 c 0.6,0 1,0.4 1,1 v 20.2 c 0,0.6 -0.4,1 -1,1 h -22.3 c -0.6,0 -1,-0.4 -1,-1 V 55.6 c 0,-0.6 0.4,-1 1,-1 h 22.3 m 0,-1 h -22.3 c -1.1,0 -2,0.9 -2,2 v 20.2 c 0,1.1 0.9,2 2,2 h 22.3 c 1.1,0 2,-0.9 2,-2 V 55.6 c 0,-1.1 -0.9,-2 -2,-2 z"
               id="N540X-12Z16G-SYS-D_Front_depowersupplypath120"
               inkscape:connector-curvature="0"
               style="fill:#666666" /></g><g
             id="N540X-12Z16G-SYS-D_Front_depowersupplyg150"><g
               id="N540X-12Z16G-SYS-D_Front_depowersupplyg128"><path
                 class="N540X-12Z16G-SYS-D_Front_depowersupplyst4"
                 d="m 143.8,76 c -0.5,0 -0.9,-0.3 -1.2,-0.8 -0.6,-1.2 -1.9,-2 -3.2,-2 -1.3,0 -2.6,0.8 -3.2,2 -0.3,0.5 -0.7,0.8 -1.2,0.8 h -6.2 c -0.5,0 -0.9,-0.3 -1.2,-0.8 -0.6,-1.2 -1.9,-2 -3.2,-2 -1.3,0 -2.6,0.8 -3.2,2 -0.3,0.5 -0.7,0.8 -1.2,0.8 h -0.2 c -0.7,0 -1.3,-0.6 -1.3,-1.3 v -4.3 c 0,-0.5 0.2,-0.9 0.6,-1.1 l 1.2,-0.7 c 0.7,-0.4 1.1,-1.2 1.1,-2 v -1.7 c 0,-0.8 -0.4,-1.6 -1.1,-2 l -1.2,-0.7 c -0.4,-0.2 -0.6,-0.7 -0.6,-1.1 v -4.3 c 0,-0.7 0.6,-1.3 1.3,-1.3 h 0.2 c 0.5,0 0.9,0.3 1.2,0.8 0.6,1.2 1.9,2 3.2,2 1.4,0 2.6,-0.8 3.2,-2 0.3,-0.5 0.7,-0.8 1.2,-0.8 h 6.2 c 0.5,0 0.9,0.3 1.2,0.8 0.6,1.2 1.9,2 3.2,2 1.4,0 2.6,-0.8 3.2,-2 0.3,-0.5 0.7,-0.8 1.2,-0.8 0.7,0 1.3,0.6 1.3,1.3 v 4.3 c 0,0.5 -0.2,0.9 -0.6,1.1 l -1.2,0.7 c -0.7,0.4 -1.1,1.2 -1.1,2 v 1.7 c 0,0.8 0.4,1.6 1.1,2 l 1.2,0.7 c 0.4,0.2 0.6,0.7 0.6,1.1 v 4.3 c 0,0.7 -0.6,1.3 -1.3,1.3 z"
                 id="N540X-12Z16G-SYS-D_Front_depowersupplypath124"
                 inkscape:connector-curvature="0"
                 style="fill:#cccccc" /><path
                 class="N540X-12Z16G-SYS-D_Front_depowersupplyst0"
                 d="m 143.8,56 c 0.4,0 0.8,0.4 0.8,0.8 v 4.3 c 0,0.3 -0.2,0.5 -0.4,0.7 l -1.2,0.7 c -0.9,0.5 -1.4,1.4 -1.4,2.4 v 1.7 c 0,1 0.5,1.9 1.4,2.4 l 1.2,0.7 c 0.2,0.1 0.4,0.4 0.4,0.7 v 4.3 c 0,0.4 -0.4,0.8 -0.8,0.8 -0.3,0 -0.6,-0.2 -0.7,-0.5 -0.7,-1.4 -2.1,-2.2 -3.7,-2.2 -1.5,0 -2.9,0.9 -3.7,2.2 -0.2,0.3 -0.4,0.5 -0.7,0.5 h -6.2 c -0.3,0 -0.6,-0.2 -0.7,-0.5 -0.7,-1.4 -2.1,-2.2 -3.7,-2.2 -1.5,0 -2.9,0.9 -3.7,2.2 -0.2,0.3 -0.4,0.5 -0.7,0.5 h -0.2 c -0.4,0 -0.8,-0.4 -0.8,-0.8 v -4.3 c 0,-0.3 0.2,-0.5 0.4,-0.7 l 1.2,-0.7 c 0.9,-0.5 1.4,-1.4 1.4,-2.4 v -1.7 c 0,-1 -0.5,-1.9 -1.4,-2.4 l -1.2,-0.7 C 119.2,61.7 119,61.4 119,61.1 v -4.3 c 0,-0.4 0.4,-0.8 0.8,-0.8 h 0.2 c 0.3,0 0.6,0.2 0.7,0.5 0.7,1.4 2.1,2.2 3.7,2.2 1.5,0 2.9,-0.9 3.7,-2.2 0.2,-0.3 0.4,-0.5 0.7,-0.5 h 6.2 c 0.3,0 0.6,0.2 0.7,0.5 0.7,1.4 2.1,2.2 3.7,2.2 1.5,0 2.9,-0.9 3.7,-2.2 0.1,-0.3 0.4,-0.5 0.7,-0.5 m 0,-1 c -0.7,0 -1.3,0.4 -1.6,1.1 -0.5,1 -1.6,1.7 -2.8,1.7 -1.2,0 -2.2,-0.7 -2.8,-1.7 C 136.3,55.5 135.7,55 135,55 h -6.2 c -0.7,0 -1.3,0.4 -1.6,1.1 -0.5,1 -1.6,1.7 -2.8,1.7 -1.2,0 -2.2,-0.7 -2.8,-1.7 C 121.3,55.5 120.7,55 120,55 h -0.2 c -1,0 -1.8,0.8 -1.8,1.8 v 4.3 c 0,0.6 0.3,1.2 0.9,1.6 l 1.2,0.7 c 0.6,0.3 0.9,0.9 0.9,1.6 v 1.7 c 0,0.6 -0.3,1.2 -0.9,1.6 l -1.2,0.7 c -0.6,0.3 -0.9,0.9 -0.9,1.6 v 4.3 c 0,1 0.8,1.8 1.8,1.8 h 0.2 c 0.7,0 1.3,-0.4 1.6,-1.1 0.5,-1 1.6,-1.7 2.8,-1.7 1.2,0 2.2,0.7 2.8,1.7 0.3,0.6 0.9,1.1 1.6,1.1 h 6.2 c 0.7,0 1.3,-0.4 1.6,-1.1 0.5,-1 1.6,-1.7 2.8,-1.7 1.2,0 2.2,0.7 2.8,1.7 0.3,0.6 0.9,1.1 1.6,1.1 1,0 1.8,-0.8 1.8,-1.8 v -4.3 c 0,-0.6 -0.3,-1.2 -0.9,-1.6 l -1.2,-0.7 c -0.6,-0.3 -0.9,-0.9 -0.9,-1.6 V 65 c 0,-0.6 0.3,-1.2 0.9,-1.6 l 1.2,-0.7 c 0.6,-0.3 0.9,-0.9 0.9,-1.6 v -4.3 c 0,-1 -0.8,-1.8 -1.8,-1.8 z"
                 id="N540X-12Z16G-SYS-D_Front_depowersupplypath126"
                 inkscape:connector-curvature="0"
                 style="fill:#999999" /></g><g
               id="N540X-12Z16G-SYS-D_Front_depowersupplyg148"><g
                 id="N540X-12Z16G-SYS-D_Front_depowersupplyg134"><circle
                   class="N540X-12Z16G-SYS-D_Front_depowersupplyst5"
                   cx="131.8"
                   cy="65.699997"
                   r="8"
                   id="N540X-12Z16G-SYS-D_Front_depowersupplycircle130"
                   style="fill:#b3b3b3" /><path
                   class="N540X-12Z16G-SYS-D_Front_depowersupplyst1"
                   d="m 131.8,58.2 c 4.1,0 7.5,3.4 7.5,7.5 0,4.1 -3.4,7.5 -7.5,7.5 -4.1,0 -7.5,-3.4 -7.5,-7.5 0,-4.1 3.4,-7.5 7.5,-7.5 m 0,-1 c -4.7,0 -8.5,3.8 -8.5,8.5 0,4.7 3.8,8.5 8.5,8.5 4.7,0 8.5,-3.8 8.5,-8.5 0,-4.7 -3.8,-8.5 -8.5,-8.5 z"
                   id="N540X-12Z16G-SYS-D_Front_depowersupplypath132"
                   inkscape:connector-curvature="0"
                   style="fill:#666666" /></g><g
                 id="N540X-12Z16G-SYS-D_Front_depowersupplyg140"><path
                   class="N540X-12Z16G-SYS-D_Front_depowersupplyst4"
                   d="m 131.8,70.8 c -2.8,0 -5,-2.3 -5,-5 0,-2.7 2.3,-5 5,-5 2.8,0 5,2.3 5,5 0,2.7 -2.2,5 -5,5 z"
                   id="N540X-12Z16G-SYS-D_Front_depowersupplypath136"
                   inkscape:connector-curvature="0"
                   style="fill:#cccccc" /><path
                   class="N540X-12Z16G-SYS-D_Front_depowersupplyst1"
                   d="m 131.8,61.2 c 2.5,0 4.5,2 4.5,4.5 0,2.5 -2,4.5 -4.5,4.5 -2.5,0 -4.5,-2 -4.5,-4.5 0,-2.4 2,-4.5 4.5,-4.5 m 0,-1 c -3.1,0 -5.5,2.5 -5.5,5.5 0,3.1 2.5,5.5 5.5,5.5 3.1,0 5.5,-2.5 5.5,-5.5 0,-3 -2.4,-5.5 -5.5,-5.5 z"
                   id="N540X-12Z16G-SYS-D_Front_depowersupplypath138"
                   inkscape:connector-curvature="0"
                   style="fill:#666666" /></g><g
                 id="N540X-12Z16G-SYS-D_Front_depowersupplyg146"><path
                   class="N540X-12Z16G-SYS-D_Front_depowersupplyst6"
                   d="m 131.7,70.8 v -4 c 0,-0.3 -0.2,-0.5 -0.5,-0.5 h -1.8 v -1.1 h 1.8 c 0.3,0 0.5,-0.2 0.5,-0.5 v -4 h 0.3 v 4 c 0,0.3 0.2,0.5 0.5,0.5 h 1.8 v 1.1 h -1.8 c -0.3,0 -0.5,0.2 -0.5,0.5 v 4 z"
                   id="N540X-12Z16G-SYS-D_Front_depowersupplypath142"
                   inkscape:connector-curvature="0"
                   style="fill:#e6e6e6" /><path
                   class="N540X-12Z16G-SYS-D_Front_depowersupplyst1"
                   d="m 131.8,65.5 c 0.2,0.1 0.4,0.2 0.6,0.2 h 1.3 v 0.1 h -1.3 c -0.2,0 -0.5,0.1 -0.6,0.2 -0.2,-0.1 -0.4,-0.2 -0.6,-0.2 h -1.3 v -0.1 h 1.3 c 0.2,0 0.4,-0.1 0.6,-0.2 m 0.6,-5.3 h -1.3 v 4.5 h -2.3 v 2.1 h 2.3 v 4.5 h 1.3 v -4.5 h 2.3 v -2.1 h -2.3 z"
                   id="N540X-12Z16G-SYS-D_Front_depowersupplypath144"
                   inkscape:connector-curvature="0"
                   style="fill:#666666" /></g></g></g></g></g><g
         id="N540X-12Z16G-SYS-D_Front_depowersupplyg198"><g
           id="N540X-12Z16G-SYS-D_Front_depowersupplyg160"><rect
             x="161.5"
             y="57.900002"
             class="N540X-12Z16G-SYS-D_Front_depowersupplyst4"
             width="33"
             height="15"
             id="N540X-12Z16G-SYS-D_Front_depowersupplyrect156"
             style="fill:#cccccc" /><path
             class="N540X-12Z16G-SYS-D_Front_depowersupplyst0"
             d="m 194,58.4 v 14 h -32 v -14 h 32 m 1,-1 h -34 v 16 h 34 z"
             id="N540X-12Z16G-SYS-D_Front_depowersupplypath158"
             inkscape:connector-curvature="0"
             style="fill:#999999" /></g><g
           id="N540X-12Z16G-SYS-D_Front_depowersupplyg196"><g
             id="N540X-12Z16G-SYS-D_Front_depowersupplyg166"><path
               class="N540X-12Z16G-SYS-D_Front_depowersupplyst4"
               d="m 167,77.4 c -0.8,0 -1.5,-0.7 -1.5,-1.5 V 55.6 c 0,-0.8 0.7,-1.5 1.5,-1.5 h 22.2 c 0.8,0 1.5,0.7 1.5,1.5 v 20.2 c 0,0.8 -0.7,1.5 -1.5,1.5 H 167 Z"
               id="N540X-12Z16G-SYS-D_Front_depowersupplypath162"
               inkscape:connector-curvature="0"
               style="fill:#cccccc" /><path
               class="N540X-12Z16G-SYS-D_Front_depowersupplyst1"
               d="m 189.3,54.6 c 0.6,0 1,0.4 1,1 v 20.2 c 0,0.6 -0.4,1 -1,1 H 167 c -0.6,0 -1,-0.4 -1,-1 V 55.6 c 0,-0.6 0.4,-1 1,-1 h 22.3 m 0,-1 H 167 c -1.1,0 -2,0.9 -2,2 v 20.2 c 0,1.1 0.9,2 2,2 h 22.2 c 1.1,0 2,-0.9 2,-2 V 55.6 c 0.1,-1.1 -0.8,-2 -1.9,-2 z"
               id="N540X-12Z16G-SYS-D_Front_depowersupplypath164"
               inkscape:connector-curvature="0"
               style="fill:#666666" /></g><g
             id="N540X-12Z16G-SYS-D_Front_depowersupplyg194"><g
               id="N540X-12Z16G-SYS-D_Front_depowersupplyg172"><path
                 class="N540X-12Z16G-SYS-D_Front_depowersupplyst4"
                 d="m 190.1,76 c -0.5,0 -0.9,-0.3 -1.2,-0.8 -0.6,-1.2 -1.9,-2 -3.2,-2 -1.4,0 -2.6,0.8 -3.2,2 -0.3,0.5 -0.7,0.8 -1.2,0.8 h -6.2 c -0.5,0 -0.9,-0.3 -1.2,-0.8 -0.6,-1.2 -1.9,-2 -3.2,-2 -1.4,0 -2.6,0.8 -3.2,2 -0.3,0.5 -0.7,0.8 -1.2,0.8 h -0.2 c -0.7,0 -1.3,-0.6 -1.3,-1.3 v -4.3 c 0,-0.5 0.2,-0.9 0.6,-1.1 l 1.2,-0.7 c 0.7,-0.4 1.1,-1.2 1.1,-2 v -1.7 c 0,-0.8 -0.4,-1.6 -1.1,-2 l -1.2,-0.7 C 165,62 164.8,61.5 164.8,61.1 v -4.3 c 0,-0.7 0.6,-1.3 1.3,-1.3 h 0.2 c 0.5,0 0.9,0.3 1.2,0.8 0.6,1.2 1.9,2 3.2,2 1.4,0 2.6,-0.8 3.2,-2 0.3,-0.5 0.7,-0.8 1.2,-0.8 h 6.2 c 0.5,0 0.9,0.3 1.2,0.8 0.6,1.2 1.9,2 3.2,2 1.4,0 2.6,-0.8 3.2,-2 0.3,-0.5 0.7,-0.8 1.2,-0.8 0.7,0 1.3,0.6 1.3,1.3 v 4.3 c 0,0.5 -0.2,0.9 -0.6,1.1 l -1.2,0.7 c -0.7,0.4 -1.1,1.2 -1.1,2 v 1.7 c 0,0.8 0.4,1.6 1.1,2 l 1.2,0.7 c 0.4,0.2 0.6,0.7 0.6,1.1 v 4.3 c 0,0.7 -0.6,1.3 -1.3,1.3 z"
                 id="N540X-12Z16G-SYS-D_Front_depowersupplypath168"
                 inkscape:connector-curvature="0"
                 style="fill:#cccccc" /><path
                 class="N540X-12Z16G-SYS-D_Front_depowersupplyst0"
                 d="m 190.1,56 c 0.4,0 0.8,0.4 0.8,0.8 v 4.3 c 0,0.3 -0.2,0.5 -0.4,0.7 l -1.2,0.7 c -0.9,0.5 -1.4,1.4 -1.4,2.4 v 1.7 c 0,1 0.5,1.9 1.4,2.4 l 1.2,0.7 c 0.2,0.1 0.4,0.4 0.4,0.7 v 4.3 c 0,0.4 -0.4,0.8 -0.8,0.8 -0.3,0 -0.6,-0.2 -0.7,-0.5 -0.7,-1.4 -2.1,-2.2 -3.7,-2.2 -1.5,0 -2.9,0.9 -3.7,2.2 -0.2,0.3 -0.4,0.5 -0.7,0.5 h -6.2 c -0.3,0 -0.6,-0.2 -0.7,-0.5 -0.7,-1.4 -2.1,-2.2 -3.7,-2.2 -1.5,0 -2.9,0.9 -3.7,2.2 -0.2,0.3 -0.4,0.5 -0.7,0.5 h -0.2 c -0.4,0 -0.8,-0.4 -0.8,-0.8 v -4.3 c 0,-0.3 0.2,-0.5 0.4,-0.7 L 167,69 c 0.9,-0.5 1.4,-1.4 1.4,-2.4 v -1.7 c 0,-1 -0.5,-1.9 -1.4,-2.4 l -1.2,-0.7 c -0.2,-0.1 -0.4,-0.4 -0.4,-0.7 v -4.3 c 0,-0.4 0.4,-0.8 0.8,-0.8 h 0.2 c 0.3,0 0.6,0.2 0.7,0.5 0.7,1.4 2.1,2.2 3.7,2.2 1.5,0 2.9,-0.9 3.7,-2.2 0.2,-0.3 0.4,-0.5 0.7,-0.5 h 6.2 c 0.3,0 0.6,0.2 0.7,0.5 0.7,1.4 2.1,2.2 3.7,2.2 1.5,0 2.9,-0.9 3.7,-2.2 0,-0.3 0.3,-0.5 0.6,-0.5 m 0,-1 c -0.7,0 -1.3,0.4 -1.6,1.1 -0.5,1 -1.6,1.7 -2.8,1.7 -1.2,0 -2.2,-0.7 -2.8,-1.7 C 182.6,55.5 182,55 181.3,55 h -6.2 c -0.7,0 -1.3,0.4 -1.6,1.1 -0.5,1 -1.6,1.7 -2.8,1.7 -1.2,0 -2.2,-0.7 -2.8,-1.7 C 167.6,55.5 167,55 166.3,55 h -0.2 c -1,0 -1.8,0.8 -1.8,1.8 v 4.3 c 0,0.6 0.3,1.2 0.9,1.6 l 1.2,0.7 c 0.6,0.3 0.9,0.9 0.9,1.6 v 1.7 c 0,0.6 -0.3,1.2 -0.9,1.6 l -1.2,0.7 c -0.6,0.3 -0.9,0.9 -0.9,1.6 v 4.3 c 0,1 0.8,1.8 1.8,1.8 h 0.2 c 0.7,0 1.3,-0.4 1.6,-1.1 0.5,-1 1.6,-1.7 2.8,-1.7 1.2,0 2.2,0.7 2.8,1.7 0.3,0.6 0.9,1.1 1.6,1.1 h 6.2 c 0.7,0 1.3,-0.4 1.6,-1.1 0.5,-1 1.6,-1.7 2.8,-1.7 1.2,0 2.2,0.7 2.8,1.7 0.3,0.6 0.9,1.1 1.6,1.1 1,0 1.8,-0.8 1.8,-1.8 v -4.3 c 0,-0.6 -0.3,-1.2 -0.9,-1.6 l -1.2,-0.7 c -0.6,-0.3 -0.9,-0.9 -0.9,-1.6 V 65 c 0,-0.6 0.3,-1.2 0.9,-1.6 l 1.2,-0.7 c 0.6,-0.3 0.9,-0.9 0.9,-1.6 v -4.3 c 0,-1 -0.8,-1.8 -1.8,-1.8 z"
                 id="N540X-12Z16G-SYS-D_Front_depowersupplypath170"
                 inkscape:connector-curvature="0"
                 style="fill:#999999" /></g><g
               id="N540X-12Z16G-SYS-D_Front_depowersupplyg192"><g
                 id="N540X-12Z16G-SYS-D_Front_depowersupplyg178"><circle
                   class="N540X-12Z16G-SYS-D_Front_depowersupplyst5"
                   cx="178.10001"
                   cy="65.699997"
                   r="8"
                   id="N540X-12Z16G-SYS-D_Front_depowersupplycircle174"
                   style="fill:#b3b3b3" /><path
                   class="N540X-12Z16G-SYS-D_Front_depowersupplyst1"
                   d="m 178.1,58.2 c 4.1,0 7.5,3.4 7.5,7.5 0,4.1 -3.4,7.5 -7.5,7.5 -4.1,0 -7.5,-3.4 -7.5,-7.5 0,-4.1 3.4,-7.5 7.5,-7.5 m 0,-1 c -4.7,0 -8.5,3.8 -8.5,8.5 0,4.7 3.8,8.5 8.5,8.5 4.7,0 8.5,-3.8 8.5,-8.5 0,-4.7 -3.8,-8.5 -8.5,-8.5 z"
                   id="N540X-12Z16G-SYS-D_Front_depowersupplypath176"
                   inkscape:connector-curvature="0"
                   style="fill:#666666" /></g><g
                 id="N540X-12Z16G-SYS-D_Front_depowersupplyg184"><circle
                   class="N540X-12Z16G-SYS-D_Front_depowersupplyst4"
                   cx="178.10001"
                   cy="65.699997"
                   r="5"
                   id="N540X-12Z16G-SYS-D_Front_depowersupplycircle180"
                   style="fill:#cccccc" /><path
                   class="N540X-12Z16G-SYS-D_Front_depowersupplyst1"
                   d="m 178.1,61.2 c 2.5,0 4.5,2 4.5,4.5 0,2.5 -2,4.5 -4.5,4.5 -2.5,0 -4.5,-2 -4.5,-4.5 0,-2.4 2,-4.5 4.5,-4.5 m 0,-1 c -3.1,0 -5.5,2.5 -5.5,5.5 0,3.1 2.5,5.5 5.5,5.5 3,0 5.5,-2.5 5.5,-5.5 0.1,-3 -2.4,-5.5 -5.5,-5.5 z"
                   id="N540X-12Z16G-SYS-D_Front_depowersupplypath182"
                   inkscape:connector-curvature="0"
                   style="fill:#666666" /></g><g
                 id="N540X-12Z16G-SYS-D_Front_depowersupplyg190"><path
                   class="N540X-12Z16G-SYS-D_Front_depowersupplyst6"
                   d="m 178,70.8 v -4 c 0,-0.3 -0.2,-0.5 -0.5,-0.5 h -1.8 v -1.1 h 1.8 c 0.3,0 0.5,-0.2 0.5,-0.5 v -4 h 0.3 v 4 c 0,0.3 0.2,0.5 0.5,0.5 h 1.8 v 1.1 h -1.8 c -0.3,0 -0.5,0.2 -0.5,0.5 v 4 z"
                   id="N540X-12Z16G-SYS-D_Front_depowersupplypath186"
                   inkscape:connector-curvature="0"
                   style="fill:#e6e6e6" /><path
                   class="N540X-12Z16G-SYS-D_Front_depowersupplyst1"
                   d="m 178.1,65.5 c 0.2,0.1 0.4,0.2 0.6,0.2 h 1.3 v 0.1 h -1.3 c -0.2,0 -0.5,0.1 -0.6,0.2 -0.2,-0.1 -0.4,-0.2 -0.6,-0.2 h -1.3 v -0.1 h 1.3 c 0.2,0 0.5,-0.1 0.6,-0.2 m 0.7,-5.3 h -1.3 v 4.5 h -2.3 v 2.1 h 2.3 v 4.5 h 1.3 v -4.5 h 2.3 v -2.1 h -2.3 z"
                   id="N540X-12Z16G-SYS-D_Front_depowersupplypath188"
                   inkscape:connector-curvature="0"
                   style="fill:#666666" /></g></g></g></g></g><g
         id="N540X-12Z16G-SYS-D_Front_depowersupplyg300"><g
           id="N540X-12Z16G-SYS-D_Front_depowersupplyg218"><g
             id="N540X-12Z16G-SYS-D_Front_depowersupplyg204"><rect
               x="153.10001"
               y="41.200001"
               class="N540X-12Z16G-SYS-D_Front_depowersupplyst7"
               width="4"
               height="46"
               id="N540X-12Z16G-SYS-D_Front_depowersupplyrect200"
               style="fill:#4d4d4d" /><path
               class="N540X-12Z16G-SYS-D_Front_depowersupplyst1"
               d="m 156.6,41.7 v 45 h -3 v -45 h 3 m 1,-1 h -5 v 47 h 5 z"
               id="N540X-12Z16G-SYS-D_Front_depowersupplypath202"
               inkscape:connector-curvature="0"
               style="fill:#666666" /></g><g
             id="N540X-12Z16G-SYS-D_Front_depowersupplyg210"><rect
               x="153.10001"
               y="87.800003"
               class="N540X-12Z16G-SYS-D_Front_depowersupplyst7"
               width="4"
               height="3"
               id="N540X-12Z16G-SYS-D_Front_depowersupplyrect206"
               style="fill:#4d4d4d" /><path
               class="N540X-12Z16G-SYS-D_Front_depowersupplyst1"
               d="m 156.6,88.3 v 2 h -3 v -2 h 3 m 1,-1 h -5 v 4 h 5 z"
               id="N540X-12Z16G-SYS-D_Front_depowersupplypath208"
               inkscape:connector-curvature="0"
               style="fill:#666666" /></g><g
             id="N540X-12Z16G-SYS-D_Front_depowersupplyg216"><rect
               x="153.10001"
               y="38.700001"
               class="N540X-12Z16G-SYS-D_Front_depowersupplyst7"
               width="4"
               height="3"
               id="N540X-12Z16G-SYS-D_Front_depowersupplyrect212"
               style="fill:#4d4d4d" /><path
               class="N540X-12Z16G-SYS-D_Front_depowersupplyst1"
               d="m 156.6,39.2 v 2 h -3 v -2 h 3 m 1,-1 h -5 v 4 h 5 z"
               id="N540X-12Z16G-SYS-D_Front_depowersupplypath214"
               inkscape:connector-curvature="0"
               style="fill:#666666" /></g></g><g
           id="N540X-12Z16G-SYS-D_Front_depowersupplyg238"><g
             id="N540X-12Z16G-SYS-D_Front_depowersupplyg224"><rect
               x="106.6"
               y="41.200001"
               class="N540X-12Z16G-SYS-D_Front_depowersupplyst7"
               width="4"
               height="46"
               id="N540X-12Z16G-SYS-D_Front_depowersupplyrect220"
               style="fill:#4d4d4d" /><path
               class="N540X-12Z16G-SYS-D_Front_depowersupplyst1"
               d="m 110.1,41.7 v 45 h -3 v -45 h 3 m 1,-1 h -5 v 47 h 5 z"
               id="N540X-12Z16G-SYS-D_Front_depowersupplypath222"
               inkscape:connector-curvature="0"
               style="fill:#666666" /></g><g
             id="N540X-12Z16G-SYS-D_Front_depowersupplyg230"><rect
               x="106.6"
               y="87.800003"
               class="N540X-12Z16G-SYS-D_Front_depowersupplyst7"
               width="4"
               height="3"
               id="N540X-12Z16G-SYS-D_Front_depowersupplyrect226"
               style="fill:#4d4d4d" /><path
               class="N540X-12Z16G-SYS-D_Front_depowersupplyst1"
               d="m 110.1,88.3 v 2 h -3 v -2 h 3 m 1,-1 h -5 v 4 h 5 z"
               id="N540X-12Z16G-SYS-D_Front_depowersupplypath228"
               inkscape:connector-curvature="0"
               style="fill:#666666" /></g><g
             id="N540X-12Z16G-SYS-D_Front_depowersupplyg236"><rect
               x="106.6"
               y="38.700001"
               class="N540X-12Z16G-SYS-D_Front_depowersupplyst7"
               width="4"
               height="3"
               id="N540X-12Z16G-SYS-D_Front_depowersupplyrect232"
               style="fill:#4d4d4d" /><path
               class="N540X-12Z16G-SYS-D_Front_depowersupplyst1"
               d="m 110.1,39.2 v 2 h -3 v -2 h 3 m 1,-1 h -5 v 4 h 5 z"
               id="N540X-12Z16G-SYS-D_Front_depowersupplypath234"
               inkscape:connector-curvature="0"
               style="fill:#666666" /></g></g><g
           id="N540X-12Z16G-SYS-D_Front_depowersupplyg258"><g
             id="N540X-12Z16G-SYS-D_Front_depowersupplyg244"><rect
               x="60.099998"
               y="41.200001"
               class="N540X-12Z16G-SYS-D_Front_depowersupplyst7"
               width="4"
               height="46"
               id="N540X-12Z16G-SYS-D_Front_depowersupplyrect240"
               style="fill:#4d4d4d" /><path
               class="N540X-12Z16G-SYS-D_Front_depowersupplyst1"
               d="m 63.6,41.7 v 45 h -3 v -45 h 3 m 1,-1 h -5 v 47 h 5 z"
               id="N540X-12Z16G-SYS-D_Front_depowersupplypath242"
               inkscape:connector-curvature="0"
               style="fill:#666666" /></g><g
             id="N540X-12Z16G-SYS-D_Front_depowersupplyg250"><rect
               x="60.099998"
               y="87.800003"
               class="N540X-12Z16G-SYS-D_Front_depowersupplyst7"
               width="4"
               height="3"
               id="N540X-12Z16G-SYS-D_Front_depowersupplyrect246"
               style="fill:#4d4d4d" /><path
               class="N540X-12Z16G-SYS-D_Front_depowersupplyst1"
               d="m 63.6,88.3 v 2 h -3 v -2 h 3 m 1,-1 h -5 v 4 h 5 z"
               id="N540X-12Z16G-SYS-D_Front_depowersupplypath248"
               inkscape:connector-curvature="0"
               style="fill:#666666" /></g><g
             id="N540X-12Z16G-SYS-D_Front_depowersupplyg256"><rect
               x="60.099998"
               y="38.700001"
               class="N540X-12Z16G-SYS-D_Front_depowersupplyst7"
               width="4"
               height="3"
               id="N540X-12Z16G-SYS-D_Front_depowersupplyrect252"
               style="fill:#4d4d4d" /><path
               class="N540X-12Z16G-SYS-D_Front_depowersupplyst1"
               d="m 63.6,39.2 v 2 h -3 v -2 h 3 m 1,-1 h -5 v 4 h 5 z"
               id="N540X-12Z16G-SYS-D_Front_depowersupplypath254"
               inkscape:connector-curvature="0"
               style="fill:#666666" /></g></g><g
           id="N540X-12Z16G-SYS-D_Front_depowersupplyg278"><g
             id="N540X-12Z16G-SYS-D_Front_depowersupplyg264"><rect
               x="13.6"
               y="41.200001"
               class="N540X-12Z16G-SYS-D_Front_depowersupplyst7"
               width="4"
               height="46"
               id="N540X-12Z16G-SYS-D_Front_depowersupplyrect260"
               style="fill:#4d4d4d" /><path
               class="N540X-12Z16G-SYS-D_Front_depowersupplyst1"
               d="m 17.1,41.7 v 45 h -3 v -45 h 3 m 1,-1 h -5 v 47 h 5 z"
               id="N540X-12Z16G-SYS-D_Front_depowersupplypath262"
               inkscape:connector-curvature="0"
               style="fill:#666666" /></g><g
             id="N540X-12Z16G-SYS-D_Front_depowersupplyg270"><rect
               x="13.6"
               y="87.800003"
               class="N540X-12Z16G-SYS-D_Front_depowersupplyst7"
               width="4"
               height="3"
               id="N540X-12Z16G-SYS-D_Front_depowersupplyrect266"
               style="fill:#4d4d4d" /><path
               class="N540X-12Z16G-SYS-D_Front_depowersupplyst1"
               d="m 17.1,88.3 v 2 h -3 v -2 h 3 m 1,-1 h -5 v 4 h 5 z"
               id="N540X-12Z16G-SYS-D_Front_depowersupplypath268"
               inkscape:connector-curvature="0"
               style="fill:#666666" /></g><g
             id="N540X-12Z16G-SYS-D_Front_depowersupplyg276"><rect
               x="13.6"
               y="38.700001"
               class="N540X-12Z16G-SYS-D_Front_depowersupplyst7"
               width="4"
               height="3"
               id="N540X-12Z16G-SYS-D_Front_depowersupplyrect272"
               style="fill:#4d4d4d" /><path
               class="N540X-12Z16G-SYS-D_Front_depowersupplyst1"
               d="m 17.1,39.2 v 2 h -3 v -2 h 3 m 1,-1 h -5 v 4 h 5 z"
               id="N540X-12Z16G-SYS-D_Front_depowersupplypath274"
               inkscape:connector-curvature="0"
               style="fill:#666666" /></g></g><g
           id="N540X-12Z16G-SYS-D_Front_depowersupplyg298"><g
             id="N540X-12Z16G-SYS-D_Front_depowersupplyg284"><rect
               x="199.60001"
               y="41.200001"
               class="N540X-12Z16G-SYS-D_Front_depowersupplyst7"
               width="4"
               height="46"
               id="N540X-12Z16G-SYS-D_Front_depowersupplyrect280"
               style="fill:#4d4d4d" /><path
               class="N540X-12Z16G-SYS-D_Front_depowersupplyst1"
               d="m 203.1,41.7 v 45 h -3 v -45 h 3 m 1,-1 h -5 v 47 h 5 z"
               id="N540X-12Z16G-SYS-D_Front_depowersupplypath282"
               inkscape:connector-curvature="0"
               style="fill:#666666" /></g><g
             id="N540X-12Z16G-SYS-D_Front_depowersupplyg290"><rect
               x="199.60001"
               y="87.800003"
               class="N540X-12Z16G-SYS-D_Front_depowersupplyst7"
               width="4"
               height="3"
               id="N540X-12Z16G-SYS-D_Front_depowersupplyrect286"
               style="fill:#4d4d4d" /><path
               class="N540X-12Z16G-SYS-D_Front_depowersupplyst1"
               d="m 203.1,88.3 v 2 h -3 v -2 h 3 m 1,-1 h -5 v 4 h 5 z"
               id="N540X-12Z16G-SYS-D_Front_depowersupplypath288"
               inkscape:connector-curvature="0"
               style="fill:#666666" /></g><g
             id="N540X-12Z16G-SYS-D_Front_depowersupplyg296"><rect
               x="199.60001"
               y="38.700001"
               class="N540X-12Z16G-SYS-D_Front_depowersupplyst7"
               width="4"
               height="3"
               id="N540X-12Z16G-SYS-D_Front_depowersupplyrect292"
               style="fill:#4d4d4d" /><path
               class="N540X-12Z16G-SYS-D_Front_depowersupplyst1"
               d="m 203.1,39.2 v 2 h -3 v -2 h 3 m 1,-1 h -5 v 4 h 5 z"
               id="N540X-12Z16G-SYS-D_Front_depowersupplypath294"
               inkscape:connector-curvature="0"
               style="fill:#666666" /></g></g></g></g><g
       class="N540X-12Z16G-SYS-D_Front_depowersupplyst8"
       id="N540X-12Z16G-SYS-D_Front_depowersupplyg308"
       style="opacity:0.5"><path
         class="N540X-12Z16G-SYS-D_Front_depowersupplyst6"
         d="m 3.5,31 v 69 h 18 v -9 c 0,-3.3 2.7,-6 6,-6 h 15 c 3.3,0 6,2.7 6,6 v 9 h 24 v -9 c 0,-3.3 2.7,-6 6,-6 h 15 c 3.3,0 6,2.7 6,6 v 9 h 21 v -9 c 0,-3.3 2.7,-6 6,-6 h 15 c 3.3,0 6,2.7 6,6 v 9 h 23 v -9 c 0,-3.3 2.7,-6 6,-6 h 15 c 3.3,0 6,2.7 6,6 v 9 h 18 V 31 c 0,-3.3 -2.7,-6 -6,-6 H 9.5 c -3.3,0 -6,2.7 -6,6 z m 32,39.5 c -3.9,0 -7,-3.1 -7,-7 0,-3.9 3.1,-7 7,-7 3.9,0 7,3.1 7,7 0,3.9 -3.1,7 -7,7 z m 50,0 c -3.9,0 -7,-3.1 -7,-7 0,-3.9 3.1,-7 7,-7 3.9,0 7,3.1 7,7 0,3.9 -3.1,7 -7,7 z m 48,0 c -3.9,0 -7,-3.1 -7,-7 0,-3.9 3.1,-7 7,-7 3.9,0 7,3.1 7,7 0,3.9 -3.1,7 -7,7 z m 50,0 c -3.9,0 -7,-3.1 -7,-7 0,-3.9 3.1,-7 7,-7 3.9,0 7,3.1 7,7 0,3.9 -3.1,7 -7,7 z"
         id="N540X-12Z16G-SYS-D_Front_depowersupplypath304"
         inkscape:connector-curvature="0"
         style="fill:#e6e6e6" /><path
         class="N540X-12Z16G-SYS-D_Front_depowersupplyst9"
         d="m 209.5,25 c 3.3,0 6,2.7 6,6 v 69 h -18 v -9 c 0,-3.3 -2.7,-6 -6,-6 h -15 c -3.3,0 -6,2.7 -6,6 v 9 h -23 v -9 c 0,-3.3 -2.7,-6 -6,-6 h -15 c -3.3,0 -6,2.7 -6,6 v 9 h -21 v -9 c 0,-3.3 -2.7,-6 -6,-6 h -15 c -3.3,0 -6,2.7 -6,6 v 9 h -24 v -9 c 0,-3.3 -2.7,-6 -6,-6 h -15 c -3.3,0 -6,2.7 -6,6 v 9 H 3.5 V 31 c 0,-3.3 2.7,-6 6,-6 h 200 m -26,45.5 c 3.9,0 7,-3.1 7,-7 0,-3.9 -3.1,-7 -7,-7 -3.9,0 -7,3.1 -7,7 0,3.9 3.1,7 7,7 m -50,0 c 3.9,0 7,-3.1 7,-7 0,-3.9 -3.1,-7 -7,-7 -3.9,0 -7,3.1 -7,7 0,3.9 3.1,7 7,7 m -48,0 c 3.9,0 7,-3.1 7,-7 0,-3.9 -3.1,-7 -7,-7 -3.9,0 -7,3.1 -7,7 0,3.9 3.1,7 7,7 m -50,0 c 3.9,0 7,-3.1 7,-7 0,-3.9 -3.1,-7 -7,-7 -3.9,0 -7,3.1 -7,7 0,3.9 3.1,7 7,7 M 209.5,22 H 9.5 c -5,0 -9,4 -9,9 v 69 3 h 3 18 3 v -3 -9 c 0,-1.7 1.3,-3 3,-3 h 15 c 1.7,0 3,1.3 3,3 v 9 3 h 3 24 3 v -3 -9 c 0,-1.7 1.3,-3 3,-3 h 15 c 1.7,0 3,1.3 3,3 v 9 3 h 3 21 3 v -3 -9 c 0,-1.7 1.3,-3 3,-3 h 15 c 1.7,0 3,1.3 3,3 v 9 3 h 3 23 3 v -3 -9 c 0,-1.7 1.3,-3 3,-3 h 15 c 1.7,0 3,1.3 3,3 v 9 3 h 3 18 3 v -3 -69 c 0,-5 -4,-9 -9,-9 z m -26,45.5 c -2.2,0 -4,-1.8 -4,-4 0,-2.2 1.8,-4 4,-4 2.2,0 4,1.8 4,4 0,2.2 -1.8,4 -4,4 z m -50,0 c -2.2,0 -4,-1.8 -4,-4 0,-2.2 1.8,-4 4,-4 2.2,0 4,1.8 4,4 0,2.2 -1.8,4 -4,4 z m -48,0 c -2.2,0 -4,-1.8 -4,-4 0,-2.2 1.8,-4 4,-4 2.2,0 4,1.8 4,4 0,2.2 -1.8,4 -4,4 z m -50,0 c -2.2,0 -4,-1.8 -4,-4 0,-2.2 1.8,-4 4,-4 2.2,0 4,1.8 4,4 0,2.2 -1.8,4 -4,4 z"
         id="N540X-12Z16G-SYS-D_Front_depowersupplypath306"
         inkscape:connector-curvature="0"
         style="fill:#b3b3b3;stroke:#808080;stroke-miterlimit:10" /></g><g
       id="N540X-12Z16G-SYS-D_Front_depowersupplyg314"><path
         class="N540X-12Z16G-SYS-D_Front_depowersupplyst5"
         d="m 75.4,21.5 7.9,-3.4 c 6.6,-2.8 12.7,-7.5 18.2,-13.9 2,-2.3 4.9,-3.7 8,-3.7 3.1,0 6,1.3 8,3.7 5.5,6.4 11.6,11.1 18.2,13.9 l 7.9,3.4 z"
         id="N540X-12Z16G-SYS-D_Front_depowersupplypath310"
         inkscape:connector-curvature="0"
         style="fill:#b3b3b3" /><path
         class="N540X-12Z16G-SYS-D_Front_depowersupplyst10"
         d="m 109.5,1 c 2.9,0 5.7,1.3 7.6,3.5 5.5,6.5 11.7,11.2 18.3,14 l 5.7,2.5 H 77.8 l 5.7,-2.5 c 6.6,-2.9 12.8,-7.6 18.3,-14 2,-2.2 4.8,-3.5 7.7,-3.5 m 0,-1 c -3.3,0 -6.3,1.5 -8.4,3.8 -5,5.8 -10.9,10.7 -18,13.8 L 73,22 h 73 l -10.2,-4.4 c -7,-3 -13,-8 -18,-13.8 -2,-2.3 -5,-3.8 -8.3,-3.8 z"
         id="N540X-12Z16G-SYS-D_Front_depowersupplypath312"
         inkscape:connector-curvature="0"
         style="fill:#808080" /></g><g
       id="N540X-12Z16G-SYS-D_Front_depowersupplyg330"><g
         id="N540X-12Z16G-SYS-D_Front_depowersupplyg320"><path
           class="N540X-12Z16G-SYS-D_Front_depowersupplyst11"
           d="m 109.6,20.8 c -2.5,0 -4.9,-1 -6.7,-2.8 -3.7,-3.7 -3.7,-9.7 0,-13.4 1.8,-1.8 4.2,-2.8 6.7,-2.8 2.5,0 4.9,1 6.7,2.8 3.7,3.7 3.7,9.7 0,13.4 -1.7,1.8 -4.1,2.8 -6.7,2.8 z"
           id="N540X-12Z16G-SYS-D_Front_depowersupplypath316"
           inkscape:connector-curvature="0"
           style="clip-rule:evenodd;fill:#d9d9d9;fill-rule:evenodd" /><path
           class="N540X-12Z16G-SYS-D_Front_depowersupplyst7"
           d="m 109.6,2.2 c 2.4,0 4.7,0.9 6.4,2.6 3.5,3.5 3.5,9.2 0,12.7 -1.7,1.7 -4,2.6 -6.4,2.6 -2.4,0 -4.7,-0.9 -6.4,-2.6 -3.5,-3.5 -3.5,-9.2 0,-12.7 1.8,-1.6 4,-2.6 6.4,-2.6 m 0,-1 c -2.6,0 -5.1,1 -7.1,2.9 -3.9,3.9 -3.9,10.2 0,14.1 2,2 4.5,2.9 7.1,2.9 2.6,0 5.1,-1 7.1,-2.9 3.9,-3.9 3.9,-10.2 0,-14.1 -2,-1.9 -4.5,-2.9 -7.1,-2.9 z"
           id="N540X-12Z16G-SYS-D_Front_depowersupplypath318"
           inkscape:connector-curvature="0"
           style="fill:#4d4d4d" /></g><g
         id="N540X-12Z16G-SYS-D_Front_depowersupplyg326"><path
           class="N540X-12Z16G-SYS-D_Front_depowersupplyst11"
           d="m 109.6,19.1 c -2.1,0 -4.1,-0.8 -5.5,-2.3 -3.1,-3.1 -3.1,-8 0,-11.1 1.5,-1.5 3.4,-2.3 5.5,-2.3 2.1,0 4.1,0.8 5.5,2.3 3.1,3.1 3.1,8 0,11.1 -1.4,1.5 -3.4,2.3 -5.5,2.3 z"
           id="N540X-12Z16G-SYS-D_Front_depowersupplypath322"
           inkscape:connector-curvature="0"
           style="clip-rule:evenodd;fill:#d9d9d9;fill-rule:evenodd" /><path
           class="N540X-12Z16G-SYS-D_Front_depowersupplyst7"
           d="m 109.6,3.9 c 2,0 3.8,0.8 5.2,2.1 2.9,2.9 2.9,7.5 0,10.4 -1.4,1.4 -3.2,2.1 -5.2,2.1 -2,0 -3.8,-0.8 -5.2,-2.1 -2.9,-2.9 -2.9,-7.5 0,-10.4 1.4,-1.3 3.3,-2.1 5.2,-2.1 m 0,-1 c -2.1,0 -4.3,0.8 -5.9,2.4 -3.3,3.3 -3.3,8.5 0,11.8 1.6,1.6 3.8,2.4 5.9,2.4 2.1,0 4.3,-0.8 5.9,-2.4 3.3,-3.3 3.3,-8.5 0,-11.8 -1.6,-1.6 -3.7,-2.4 -5.9,-2.4 z"
           id="N540X-12Z16G-SYS-D_Front_depowersupplypath324"
           inkscape:connector-curvature="0"
           style="fill:#4d4d4d" /></g><polygon
         class="N540X-12Z16G-SYS-D_Front_depowersupplyst7"
         points="110.9,5.8 108.4,5.8 108.4,10 104.2,10 104.2,12.5 108.4,12.5 108.4,16.7 110.9,16.7 110.9,12.5 115,12.5 115,10 110.9,10 "
         id="N540X-12Z16G-SYS-D_Front_depowersupplypolygon328"
         style="fill:#4d4d4d" /></g></g></svg>