<?xml version="1.0" encoding="UTF-8" standalone="no"?>
<svg
   xmlns:dc="http://purl.org/dc/elements/1.1/"
   xmlns:cc="http://creativecommons.org/ns#"
   xmlns:rdf="http://www.w3.org/1999/02/22-rdf-syntax-ns#"
   xmlns:svg="http://www.w3.org/2000/svg"
   xmlns="http://www.w3.org/2000/svg"
   xmlns:sodipodi="http://sodipodi.sourceforge.net/DTD/sodipodi-0.dtd"
   xmlns:inkscape="http://www.inkscape.org/namespaces/inkscape"
   version="1.1"
   id="NCS-5508-Front_bLayer_1"
   x="0"
   y="0"
   viewBox="0 0 1819.6 2179.4"
   xml:space="preserve"
   sodipodi:docname="NCS-5508-Front_b.svg"
   inkscape:version="1.0.1 (3bc2e813f5, 2020-09-07)"><metadata
     id="metadata260"><rdf:RDF><cc:Work
         rdf:about=""><dc:format>image/svg+xml</dc:format><dc:type
           rdf:resource="http://purl.org/dc/dcmitype/StillImage" /></cc:Work></rdf:RDF></metadata><defs
     id="defs258" /><sodipodi:namedview
     pagecolor="#ffffff"
     bordercolor="#666666"
     borderopacity="1"
     objecttolerance="10"
     gridtolerance="10"
     guidetolerance="10"
     inkscape:pageopacity="0"
     inkscape:pageshadow="2"
     inkscape:window-width="1280"
     inkscape:window-height="658"
     id="namedview256"
     showgrid="false"
     inkscape:zoom="0.22483253"
     inkscape:cx="909.79999"
     inkscape:cy="1089.7"
     inkscape:window-x="-6"
     inkscape:window-y="-6"
     inkscape:window-maximized="1"
     inkscape:current-layer="NCS-5508-Front_bLayer_1" /><style
     id="style2">.NCS-5508-Frontst1{fill:gray}.NCS-5508-Frontst2{fill:#7f7f7f}.NCS-5508-Frontst3{fill:none;stroke:#000;stroke-width:.797;stroke-linecap:round;stroke-linejoin:round;stroke-miterlimit:10}.NCS-5508-Frontst4{fill:#d8d8d8}.NCS-5508-Frontst6{fill:#999}.NCS-5508-Frontst7{fill:#bfbfbf}.NCS-5508-Frontst8{fill:none;stroke:gray;stroke-width:.797;stroke-linecap:round;stroke-linejoin:round;stroke-miterlimit:10}.NCS-5508-Frontst9{fill:#9f9f9f}.NCS-5508-Frontst10{fill:#a5a5a5}.NCS-5508-Frontst11{fill:#1a1a1a}.NCS-5508-Frontst12{fill:#666}.NCS-5508-Frontst13{fill:#c41230}.NCS-5508-Frontst14{fill:#005568}.NCS-5508-Frontst15{fill:#d9d9d9}.NCS-5508-Frontst17{fill:#bebebe}.NCS-5508-Frontst18{fill:#ccc}</style><g
     id="NCS-5508-Front_bg5"><path
       id="NCS-5508-Front_bpath7"
       d="M75.4 2179h1668c3.2 0 5.6-2.4 5.6-5.6V6.4c0-4-2.4-6.4-5.6-6.4H75.4C72.2 0 69 2.4 69 6.4v2167c0 3.2 3.2 5.6 6.4 5.6z"
       fill="#3f3f3f" /><g
       id="NCS-5508-Front_bg9"><path
         id="NCS-5508-Front_bpath11"
         class="NCS-5508-Frontst1"
         d="M1743.4 1c2.8 0 4.6 2.1 4.6 5.4v2167c0 2.7-1.9 4.6-4.6 4.6H75.4c-2.6 0-5.4-1.9-5.4-4.6V6.4C70 2.9 72.8 1 75.4 1h1668m0-1H75.4C72.2 0 69 2.4 69 6.4v2167c0 3.2 3.2 5.6 6.4 5.6h1668c3.2 0 5.6-2.4 5.6-5.6V6.4c0-4-2.4-6.4-5.6-6.4z" /></g></g><g
     id="NCS-5508-Front_bg13"><path
       id="NCS-5508-Front_bpath15"
       class="NCS-5508-Frontst2"
       d="M1811.6 2179c4 0 7.2-2.4 7.2-6.4V45.4c0-4-2.4-7.2-5.6-7.2h-78.1V2179h76.5zm-31.1-103.6h8c7.2 0 13.5 5.6 13.5 13.5 0 7.2-6.4 13.5-13.5 13.5h-10.4c-7.2 0-13.5-6.4-13.5-13.5 0-8 6.4-13.5 13.5-13.5h2.4zm0-502.9h8c7.2 0 13.5 6.4 13.5 13.5 0 7.2-6.4 13.5-13.5 13.5h-10.4c-7.2 0-13.5-5.6-13.5-13.5 0-7.2 6.4-13.5 13.5-13.5h2.4zm0-1005.1h8c7.2 0 13.5 6.4 13.5 13.5 0 8-6.4 13.5-13.5 13.5h-10.4c-7.2 0-13.5-5.6-13.5-13.5 0-7.2 6.4-13.5 13.5-13.5h2.4zm0-502.1h8c7.2 0 13.5 6.4 13.5 13.5 0 7.2-6.4 13.5-13.5 13.5h-10.4c-7.2 0-13.5-6.4-13.5-13.5 0-7.2 6.4-13.5 13.5-13.5h2.4z" /><path
       id="NCS-5508-Front_bpath17"
       class="NCS-5508-Frontst3"
       d="M1811.6 2179c4 0 7.2-2.4 7.2-6.4V45.4c0-4-2.4-7.2-5.6-7.2h-78.1V2179h76.5zm-31.1-103.6h8c7.2 0 13.5 5.6 13.5 13.5 0 7.2-6.4 13.5-13.5 13.5h-10.4c-7.2 0-13.5-6.4-13.5-13.5 0-8 6.4-13.5 13.5-13.5h2.4zm0-502.9h8c7.2 0 13.5 6.4 13.5 13.5 0 7.2-6.4 13.5-13.5 13.5h-10.4c-7.2 0-13.5-5.6-13.5-13.5 0-7.2 6.4-13.5 13.5-13.5h2.4zm0-1005.1h8c7.2 0 13.5 6.4 13.5 13.5 0 8-6.4 13.5-13.5 13.5h-10.4c-7.2 0-13.5-5.6-13.5-13.5 0-7.2 6.4-13.5 13.5-13.5h2.4zm0-502.1h8c7.2 0 13.5 6.4 13.5 13.5 0 7.2-6.4 13.5-13.5 13.5h-10.4c-7.2 0-13.5-6.4-13.5-13.5 0-7.2 6.4-13.5 13.5-13.5h2.4z" /><path
       id="NCS-5508-Front_bpath19"
       class="NCS-5508-Frontst2"
       d="M7.2 2179c-3.2 0-7.2-2.4-7.2-6.4V45.4c0-4 2.4-7.2 6.4-7.2h77.3V2179H7.2zm31.1-103.6h-8c-7.2 0-13.5 5.6-13.5 13.5 0 7.2 6.4 13.5 13.5 13.5h10.4c7.2 0 13.5-6.4 13.5-13.5 0-8-6.4-13.5-13.5-13.5h-2.4zm0-502.9h-8c-7.2 0-13.5 6.4-13.5 13.5 0 7.2 6.4 13.5 13.5 13.5h10.4c7.2 0 13.5-5.6 13.5-13.5 0-7.2-6.4-13.5-13.5-13.5h-2.4zm0-1005.1h-8c-7.2 0-13.5 6.4-13.5 13.5 0 8 6.4 13.5 13.5 13.5h10.4c7.2 0 13.5-5.6 13.5-13.5 0-7.2-6.4-13.5-13.5-13.5h-2.4zm0-502.1h-8c-7.2 0-13.5 6.4-13.5 13.5 0 7.2 6.4 13.5 13.5 13.5h10.4c7.2 0 13.5-6.4 13.5-13.5 0-7.2-6.4-13.5-13.5-13.5h-2.4z" /><path
       id="NCS-5508-Front_bpath21"
       class="NCS-5508-Frontst3"
       d="M7.2 2179c-3.2 0-7.2-2.4-7.2-6.4V45.4c0-4 2.4-7.2 6.4-7.2h77.3V2179H7.2zm31.1-103.6h-8c-7.2 0-13.5 5.6-13.5 13.5 0 7.2 6.4 13.5 13.5 13.5h10.4c7.2 0 13.5-6.4 13.5-13.5 0-8-6.4-13.5-13.5-13.5h-2.4zm0-502.9h-8c-7.2 0-13.5 6.4-13.5 13.5 0 7.2 6.4 13.5 13.5 13.5h10.4c7.2 0 13.5-5.6 13.5-13.5 0-7.2-6.4-13.5-13.5-13.5h-2.4zm0-1005.1h-8c-7.2 0-13.5 6.4-13.5 13.5 0 8 6.4 13.5 13.5 13.5h10.4c7.2 0 13.5-5.6 13.5-13.5 0-7.2-6.4-13.5-13.5-13.5h-2.4zm0-502.1h-8c-7.2 0-13.5 6.4-13.5 13.5 0 7.2 6.4 13.5 13.5 13.5h10.4c7.2 0 13.5-6.4 13.5-13.5 0-7.2-6.4-13.5-13.5-13.5h-2.4z" /></g><path
     id="NCS-5508-Front_brect23"
     class="NCS-5508-Frontst4"
     d="M92.5 15.9h1633.1v52H92.5z" /><path
     id="NCS-5508-Front_brect25"
     fill="#e6e6e6"
     d="M92.5 15.9h1633.1v6.4H92.5z" /><path
     id="NCS-5508-Front_brect27"
     class="NCS-5508-Frontst1"
     d="M92.5 65.7h1633.1v5H92.5z" /><path
     id="NCS-5508-Front_brect29"
     class="NCS-5508-Frontst6"
     d="M1725.5 22.3h5.6v44h-5.6z" /><path
     id="NCS-5508-Front_brect31"
     class="NCS-5508-Frontst6"
     d="M86.9 22.3h6.4v44h-6.4z" /><path
     id="NCS-5508-Front_bpolygon33"
     class="NCS-5508-Frontst7"
     d="M1651.4 1550.2h22.3v39h49.4v-174.5H1657v5.5h-2.4v-5.5h-3.2z" /><path
     id="NCS-5508-Front_bpolygon35"
     class="NCS-5508-Frontst8"
     d="M1651.4 1550.2h22.3v39h49.4v-174.5H1657v5.5h-2.4v-5.5h-3.2z" /><path
     id="NCS-5508-Front_brect37"
     class="NCS-5508-Frontst9"
     d="M1651.4 1420.2h5.6v129.9h-5.6z" /><path
     id="NCS-5508-Front_bpath39"
     class="NCS-5508-Frontst8"
     d="M1651.4 1420.2h5.6m0 130h-5.6v-129.9" /><path
     id="NCS-5508-Front_bpolygon41"
     class="NCS-5508-Frontst9"
     d="M1723.1 1420.2H1657v-6.3h66.1z" /><path
     id="NCS-5508-Front_bpath43"
     class="NCS-5508-Frontst8"
     d="M1723.1 1413.9v6.4m-66.1-.1v-6.4h66.2" /><path
     id="NCS-5508-Front_bpath45"
     class="NCS-5508-Frontst7"
     d="M230.3 1423.4v-4.8c2.4 0 4 1.6 4.8 3.2v1.6h-4.8zm8.8 131.5v-131.5c0-4.8-4-8.8-8.8-9.6H95.6v192.1h143.5v-21.5h-17.5v-29.5h17.5z" /><path
     id="NCS-5508-Front_bpath47"
     class="NCS-5508-Frontst8"
     d="M230.3 1423.4v-4.8c2.4 0 4 1.6 4.8 3.2v1.6h-4.8zm8.8 131.5v-131.5c0-4.8-4-8.8-8.8-9.6H95.6v192.1h143.5v-21.5h-17.5v-29.5h17.5z" /><path
     id="NCS-5508-Front_brect49"
     class="NCS-5508-Frontst9"
     d="M230.3 1584.4h8.8v21.5h-8.8z" /><path
     id="NCS-5508-Front_bpath51"
     class="NCS-5508-Frontst8"
     d="M239.1 1584.4h-8.8m0 21.5h8.8v-21.5" /><path
     id="NCS-5508-Front_brect53"
     class="NCS-5508-Frontst9"
     d="M230.3 1423.4h8.8v131.5h-8.8z" /><path
     id="NCS-5508-Front_bpath55"
     class="NCS-5508-Frontst8"
     d="M239.1 1423.4h-8.8m0 131.5h8.8v-131.5" /><path
     id="NCS-5508-Front_bpolygon57"
     class="NCS-5508-Frontst9"
     d="M95.6 1423.4h134.7v-9.5H95.6z" /><path
     id="NCS-5508-Front_bpath59"
     class="NCS-5508-Frontst8"
     d="M95.6 1413.9v9.6m134.7-.1v-9.6H95.6" /><path
     id="NCS-5508-Front_brect61"
     class="NCS-5508-Frontst4"
     d="M95.6 1589.2h1627.5v30.3H95.6z" /><path
     id="NCS-5508-Front_bpolygon63"
     class="NCS-5508-Frontst8"
     d="M1723.1 1619.5v-30.3H95.6v30.3z" /><path
     id="NCS-5508-Front_brect65"
     d="M1533.4 1609.1h30.3v8.8h-30.3z" /><path
     id="NCS-5508-Front_bpolygon67"
     class="NCS-5508-Frontst3"
     d="M1563.7 1617.9v-8.8h-30.3v8.8z" /><path
     id="NCS-5508-Front_brect69"
     d="M1692.8 1609.1h30.3v8.8h-30.3z" /><path
     id="NCS-5508-Front_bpolygon71"
     class="NCS-5508-Frontst3"
     d="M1723.1 1617.9v-8.8h-30.3v8.8z" /><path
     id="NCS-5508-Front_brect73"
     d="M1208.3 1609.1h29.5v8.8h-29.5z" /><path
     id="NCS-5508-Front_bpolygon75"
     class="NCS-5508-Frontst3"
     d="M1237.8 1617.9v-8.8h-29.5v8.8z" /><path
     id="NCS-5508-Front_brect77"
     d="M1367.7 1609.1h29.5v8.8h-29.5z" /><path
     id="NCS-5508-Front_bpolygon79"
     class="NCS-5508-Frontst3"
     d="M1397.2 1617.9v-8.8h-29.5v8.8z" /><path
     id="NCS-5508-Front_brect81"
     d="M882.3 1609.1h30.3v8.8h-30.3z" /><path
     id="NCS-5508-Front_bpolygon83"
     class="NCS-5508-Frontst3"
     d="M912.6 1617.9v-8.8h-30.3v8.8z" /><path
     id="NCS-5508-Front_brect85"
     d="M1041.7 1609.1h30.3v8.8h-30.3z" /><path
     id="NCS-5508-Front_bpolygon87"
     class="NCS-5508-Frontst3"
     d="M1072 1617.9v-8.8h-30.3v8.8z" /><path
     id="NCS-5508-Front_brect89"
     d="M557.1 1609.1h29.5v8.8h-29.5z" /><path
     id="NCS-5508-Front_bpolygon91"
     class="NCS-5508-Frontst3"
     d="M586.6 1617.9v-8.8h-29.5v8.8z" /><path
     id="NCS-5508-Front_brect93"
     d="M715.7 1609.1H746v8.8h-30.3z" /><path
     id="NCS-5508-Front_bpolygon95"
     class="NCS-5508-Frontst3"
     d="M746 1617.9v-8.8h-30.3v8.8z" /><path
     id="NCS-5508-Front_brect97"
     d="M231.1 1609.1h29.5v8.8h-29.5z" /><path
     id="NCS-5508-Front_bpolygon99"
     class="NCS-5508-Frontst3"
     d="M260.6 1617.9v-8.8h-29.5v8.8z" /><path
     id="NCS-5508-Front_brect101"
     d="M390.5 1609.1H420v8.8h-29.5z" /><path
     id="NCS-5508-Front_bpolygon103"
     class="NCS-5508-Frontst3"
     d="M420 1617.9v-8.8h-29.5v8.8z" /><path
     id="NCS-5508-Front_bpolygon105"
     class="NCS-5508-Frontst7"
     d="M924.5 1414.7h-3.2v135.5h22.4v39h19.9v-39h5.6v-135.5H966v5.5h-2.4v-5.5h-35.9v5.5h-3.2z" /><path
     id="NCS-5508-Front_bpolygon107"
     class="NCS-5508-Frontst8"
     d="M924.5 1414.7h-3.2v135.5h22.4v39h19.9v-39h5.6v-135.5H966v5.5h-2.4v-5.5h-35.9v5.5h-3.2z" /><path
     id="NCS-5508-Front_brect109"
     class="NCS-5508-Frontst9"
     d="M921.3 1420.2h6.4v129.9h-6.4z" /><path
     id="NCS-5508-Front_bpath111"
     class="NCS-5508-Frontst8"
     d="M921.3 1420.2h6.4m0 130h-6.4v-129.9" /><path
     id="NCS-5508-Front_bpolygon113"
     class="NCS-5508-Frontst9"
     d="M963.6 1420.2h-35.9v-6.3h35.9z" /><path
     id="NCS-5508-Front_bpath115"
     class="NCS-5508-Frontst8"
     d="M963.6 1413.9v6.4m-35.9-.1v-6.4h35.9" /><path
     id="NCS-5508-Front_brect117"
     class="NCS-5508-Frontst9"
     d="M963.6 1420.2h5.6v129.9h-5.6z" /><path
     id="NCS-5508-Front_bpath119"
     class="NCS-5508-Frontst8"
     d="M969.2 1550.2h-5.6m0-130h5.6v129.9" /><path
     id="NCS-5508-Front_bpolygon121"
     class="NCS-5508-Frontst9"
     d="M943.7 1583.6h19.9v5.6h-19.9z" /><path
     id="NCS-5508-Front_bpath123"
     class="NCS-5508-Frontst8"
     d="M943.7 1589.2v-5.6m19.9 0v5.6h-19.9" /><path
     id="NCS-5508-Front_brect125"
     class="NCS-5508-Frontst9"
     d="M963.6 1562.9h5.6v20.7h-5.6z" /><path
     id="NCS-5508-Front_bpath127"
     class="NCS-5508-Frontst8"
     d="M969.2 1583.6h-5.6m0-20.7h5.6v20.7" /><g
     id="NCS-5508-Front_bg129"><path
       id="NCS-5508-Front_brect131"
       class="NCS-5508-Frontst10"
       d="M1729.9 70.1h19.1v2051.5h-19.1z" /><g
       id="NCS-5508-Front_bg133"><path
         id="NCS-5508-Front_bpath135"
         class="NCS-5508-Frontst1"
         d="M1748 71.1v2049.5h-17.1V71.1h17.1m1-1h-19.1v2051.5h19.1V70.1z" /></g></g><g
     id="NCS-5508-Front_bg137"><path
       id="NCS-5508-Front_brect139"
       class="NCS-5508-Frontst10"
       d="M69 70.1h19.1v2051.5H69z" /><g
       id="NCS-5508-Front_bg141"><path
         id="NCS-5508-Front_bpath143"
         class="NCS-5508-Frontst1"
         d="M87.1 71.1v2049.5H70V71.1h17.1m1-1H69v2051.5h19.1V70.1z" /></g></g><path
     id="NCS-5508-Front_brect145"
     class="NCS-5508-Frontst10"
     d="M95.6 6.4h1627.5v8H95.6z" /><path
     id="NCS-5508-Front_bpolygon147"
     class="NCS-5508-Frontst8"
     d="M1723.1 14.3V6.4H95.6v7.9z" /><path
     id="NCS-5508-Front_bpath149"
     d="M1736.7 61.3c0 4 2.4 7.2 5.6 8.8h4.8V10.3c-.8-2.4-2.4-4-4.8-4-2.4-.8-4.8 1.6-5.6 4v51z" /><path
     id="NCS-5508-Front_bpath151"
     class="NCS-5508-Frontst8"
     d="M1736.7 61.3c0 4 2.4 7.2 5.6 8.8h4.8V10.3c-.8-2.4-2.4-4-4.8-4-2.4-.8-4.8 1.6-5.6 4v51z" /><path
     id="NCS-5508-Front_bpath153"
     class="NCS-5508-Frontst4"
     d="M1742.3 70.1h4.8V10.3c-.8-2.4-2.4-4-4.8-4-2.4-.8-4.8 1.6-5.6 4v39.9c0 1.6 2.4 3.2 4 2.4.8 0 1.6-.8 1.6-2.4v19.9z" /><path
     id="NCS-5508-Front_bpath155"
     class="NCS-5508-Frontst8"
     d="M1742.3 70.1h4.8V10.3c-.8-2.4-2.4-4-4.8-4-2.4-.8-4.8 1.6-5.6 4v39.9c0 1.6 2.4 3.2 4 2.4.8 0 1.6-.8 1.6-2.4v19.9zm0-19.9V11.1" /><path
     id="NCS-5508-Front_bpath157"
     class="NCS-5508-Frontst8"
     d="M1740.7 53.4c0 1.6-.8 2.4-1.6 3.2-2.4 2.4-2.4 7.2 0 10.4.8 1.6 2.4 2.4 3.2 3.2" /><path
     id="NCS-5508-Front_bpath159"
     class="NCS-5508-Frontst4"
     d="M1736.7 63.7V11.1c0-2.4-2.4-4.8-4.8-4.8h-8.8v4.8h8.8v52.6h4.8z" /><path
     id="NCS-5508-Front_bpath161"
     class="NCS-5508-Frontst8"
     d="M1736.7 63.7V11.1c0-2.4-2.4-4.8-4.8-4.8h-8.8v4.8h8.8v52.6h4.8z" /><path
     id="NCS-5508-Front_bpath163"
     d="M82.1 61.3c0 4-2.4 7.2-5.6 8.8h-4.8V10.3c.8-2.4 2.4-4 4.8-4 2.4-.8 5.6 1.6 5.6 4v51z" /><path
     id="NCS-5508-Front_bpath165"
     class="NCS-5508-Frontst8"
     d="M82.1 61.3c0 4-2.4 7.2-5.6 8.8h-4.8V10.3c.8-2.4 2.4-4 4.8-4 2.4-.8 5.6 1.6 5.6 4v51z" /><path
     id="NCS-5508-Front_bpath167"
     class="NCS-5508-Frontst4"
     d="M76.5 70.1h-4.8V10.3c.8-2.4 2.4-4 4.8-4 2.4-.8 5.6 1.6 5.6 4v39.9c0 1.6-1.6 3.2-4 2.4-.8 0-1.6-.8-1.6-2.4v19.9z" /><path
     id="NCS-5508-Front_bpath169"
     class="NCS-5508-Frontst8"
     d="M76.5 70.1h-4.8V10.3c.8-2.4 2.4-4 4.8-4 2.9 0 5.6 1.6 5.6 4v39.9c0 1.6-1.6 3.2-4 2.4-.8 0-1.6-.8-1.6-2.4v19.9zm0-19.9V11.1" /><path
     id="NCS-5508-Front_bpath171"
     class="NCS-5508-Frontst8"
     d="M78.1 53.4c0 1.6.8 2.4 2.4 3.2 2.4 2.4 2.4 7.2-.8 10.4-.8 1.6-1.6 2.4-3.2 3.2" /><path
     id="NCS-5508-Front_bpath173"
     class="NCS-5508-Frontst4"
     d="M82.1 63.7V11.1c0-2.4 2.4-4.8 4.8-4.8h8.8v4.8h-8.8v52.6h-4.8z" /><path
     id="NCS-5508-Front_bpath175"
     class="NCS-5508-Frontst8"
     d="M82.1 63.7V11.1c0-2.4 2.4-4.8 4.8-4.8h8.8v4.8h-8.8v52.6h-4.8z" /><g
     id="NCS-5508-Front_bg197"><path
       id="NCS-5508-Front_bpath199"
       d="M177 44.4l2.2.7c-.3 1.2-.9 2.2-1.7 2.8s-1.8.9-3 .9c-1.5 0-2.8-.5-3.8-1.6-1-1-1.5-2.5-1.5-4.3 0-1.9.5-3.4 1.5-4.4s2.3-1.6 3.9-1.6c1.4 0 2.5.4 3.4 1.2.5.5.9 1.2 1.2 2.1l-2.3.5c-.1-.6-.4-1.1-.8-1.4-.4-.3-1-.5-1.6-.5-.8 0-1.5.3-2.1.9-.5.6-.8 1.6-.8 3s.3 2.5.8 3.1 1.2.9 2 .9c.6 0 1.1-.2 1.6-.6.5-.2.8-.9 1-1.7z" /><path
       id="NCS-5508-Front_bpath201"
       d="M181.2 39.2v-2h2.2v2h-2.2zm0 9.4v-8.3h2.2v8.3h-2.2z" /><path
       id="NCS-5508-Front_bpath203"
       d="M184.9 46.2l2.2-.3c.1.4.3.8.6 1s.7.3 1.2.3c.6 0 1-.1 1.3-.3.2-.1.3-.3.3-.6 0-.2-.1-.3-.2-.4-.1-.1-.4-.2-.7-.3-1.8-.4-2.9-.7-3.4-1.1-.7-.4-1-1.1-1-1.9 0-.7.3-1.3.9-1.8.6-.5 1.4-.7 2.6-.7 1.1 0 2 .2 2.5.6.6.4.9.9 1.1 1.6l-2.1.4c-.1-.3-.3-.6-.5-.7-.2-.2-.6-.3-1.1-.3-.6 0-1 .1-1.2.2-.2.1-.2.3-.2.4 0 .2.1.3.2.4.2.1.9.4 2.1.6 1.2.3 2 .6 2.4 1 .5.4.7.9.7 1.6 0 .8-.3 1.4-1 2-.6.5-1.6.8-2.8.8-1.1 0-2-.2-2.7-.7-.6-.3-1-1-1.2-1.8z" /><path
       id="NCS-5508-Front_bpath205"
       d="M201.8 42.8l-2.2.4c-.1-.4-.2-.8-.5-1s-.6-.3-1-.3c-.5 0-1 .2-1.3.6-.3.4-.5 1-.5 1.9 0 1 .2 1.7.5 2.1.3.4.8.6 1.3.6.4 0 .8-.1 1-.4.3-.2.5-.6.6-1.2l2.2.4c-.2 1-.7 1.7-1.3 2.2s-1.5.8-2.6.8c-1.2 0-2.2-.4-2.9-1.1-.7-.8-1.1-1.8-1.1-3.2s.4-2.4 1.1-3.2c.7-.8 1.7-1.1 2.9-1.1 1 0 1.8.2 2.4.7.7.2 1.1.9 1.4 1.8z" /><path
       id="NCS-5508-Front_bpath207"
       d="M203 44.3c0-.7.2-1.4.5-2.1.4-.7.9-1.2 1.5-1.6.7-.4 1.4-.5 2.2-.5 1.3 0 2.3.4 3.1 1.2s1.2 1.8 1.2 3.1-.4 2.3-1.2 3.1-1.8 1.2-3.1 1.2c-.8 0-1.5-.2-2.2-.5s-1.2-.8-1.6-1.5c-.4-.7-.4-1.4-.4-2.4zm2.2.2c0 .8.2 1.5.6 1.9.4.4.9.7 1.4.7.6 0 1.1-.2 1.4-.7.4-.4.6-1.1.6-1.9 0-.8-.2-1.4-.6-1.9-.4-.4-.9-.7-1.4-.7-.6 0-1.1.2-1.4.7-.3.5-.6 1-.6 1.9z" /><path
       id="NCS-5508-Front_bpath209"
       d="M217.7 48.6V37.2h2.2l4.7 7.6v-7.6h2.1v11.5h-2.3l-4.6-7.5v7.5l-2.1-.1z" /><path
       id="NCS-5508-Front_bpath211"
       d="M236.6 44.4l2.2.7c-.3 1.2-.9 2.2-1.7 2.8s-1.8.9-3 .9c-1.5 0-2.8-.5-3.8-1.6-1-1-1.5-2.5-1.5-4.3 0-1.9.5-3.4 1.5-4.4s2.3-1.6 3.9-1.6c1.4 0 2.5.4 3.4 1.2.5.5.9 1.2 1.2 2.1l-2.3.5c-.1-.6-.4-1.1-.8-1.4-.4-.3-1-.5-1.6-.5-.8 0-1.5.3-2.1.9-.5.6-.8 1.6-.8 3s.3 2.5.8 3.1 1.2.9 2 .9c.6 0 1.1-.2 1.6-.6.5-.2.8-.9 1-1.7z" /><path
       id="NCS-5508-Front_bpath213"
       d="M240.2 44.9l2.2-.2c.1.8.4 1.3.8 1.7.4.4 1 .5 1.7.5s1.3-.2 1.7-.5.6-.7.6-1.1c0-.3-.1-.5-.2-.7-.2-.2-.4-.4-.8-.5-.3-.1-.9-.3-1.9-.5-1.2-.3-2.1-.7-2.6-1.1-.7-.6-1.1-1.4-1.1-2.3 0-.6.2-1.1.5-1.6s.8-.9 1.4-1.2c.6-.3 1.4-.4 2.3-.4 1.4 0 2.5.3 3.2.9.7.6 1.1 1.5 1.1 2.5l-2.3.1c-.1-.6-.3-1-.6-1.3s-.8-.4-1.5-.4-1.2.1-1.6.4c-.2.2-.4.4-.4.7s.1.5.3.7c.3.2 1 .5 2.1.8s2 .5 2.5.8 1 .7 1.3 1.2.5 1.1.5 1.8-.2 1.3-.5 1.8c-.4.6-.9 1-1.5 1.3-.7.3-1.5.4-2.5.4-1.4 0-2.6-.3-3.3-1-.8-.6-1.2-1.5-1.4-2.8z" /><path
       id="NCS-5508-Front_bpath215"
       d="M255.5 45.7l2.2-.2c.1.5.2.9.6 1.2.3.3.7.4 1.1.4.5 0 .8-.2 1.2-.6.3-.4.5-.9.5-1.7 0-.7-.2-1.2-.5-1.6-.3-.4-.7-.5-1.2-.5-.6 0-1.2.3-1.7.8l-1.8-.3 1.1-6h5.8v2.1h-4.1l-.3 1.9c.5-.2 1-.4 1.5-.4 1 0 1.8.4 2.5 1.1.7.7 1 1.6 1 2.8 0 .9-.3 1.8-.8 2.5-.7 1-1.8 1.5-3.1 1.5-1.1 0-1.9-.3-2.6-.9-.9-.4-1.3-1.2-1.4-2.1z" /><path
       id="NCS-5508-Front_bpath217"
       d="M264.4 45.7l2.2-.2c.1.5.2.9.6 1.2.3.3.7.4 1.1.4.5 0 .8-.2 1.2-.6.3-.4.5-.9.5-1.7 0-.7-.2-1.2-.5-1.6-.3-.4-.7-.5-1.2-.5-.6 0-1.2.3-1.7.8l-1.8-.3 1.1-6h5.8v2.1h-4.1l-.3 1.9c.5-.2 1-.4 1.5-.4 1 0 1.8.4 2.5 1.1.7.7 1 1.6 1 2.8 0 .9-.3 1.8-.8 2.5-.7 1-1.8 1.5-3.1 1.5-1.1 0-1.9-.3-2.6-.9-.9-.4-1.3-1.2-1.4-2.1z" /><path
       id="NCS-5508-Front_bpath219"
       d="M276.9 37.1c1.1 0 2 .4 2.6 1.2.7.9 1.1 2.5 1.1 4.7s-.4 3.7-1.1 4.7c-.6.8-1.5 1.2-2.6 1.2s-2-.4-2.7-1.3c-.7-.9-1-2.4-1-4.6 0-2.2.4-3.7 1.1-4.7.7-.8 1.5-1.2 2.6-1.2zm0 1.8c-.3 0-.5.1-.7.3s-.4.5-.5.9c-.2.6-.2 1.5-.2 2.9s.1 2.3.2 2.8.3.8.5 1 .4.2.7.2c.3 0 .5-.1.7-.3s.4-.5.5-.9c.2-.6.2-1.5.2-2.9s-.1-2.3-.2-2.8-.3-.8-.5-1c-.2-.1-.4-.2-.7-.2z" /><path
       id="NCS-5508-Front_bpath221"
       d="M284 42.4c-.6-.2-1-.6-1.2-1-.3-.4-.4-.9-.4-1.4 0-.9.3-1.6.9-2.1.6-.6 1.4-.8 2.5-.8s1.9.3 2.5.8c.6.6.9 1.3.9 2.1 0 .5-.1 1-.4 1.4s-.7.7-1.2.9c.6.3 1.1.6 1.4 1.1s.5 1.1.5 1.7c0 1.1-.3 1.9-1 2.6-.7.7-1.6 1-2.7 1-1 0-1.9-.3-2.6-.8-.8-.6-1.2-1.5-1.2-2.7 0-.6.2-1.2.5-1.7.4-.4.9-.8 1.5-1.1zm.3 2.7c0 .6.2 1.1.5 1.4.3.3.7.5 1.2.5s.8-.2 1.1-.5c.3-.3.4-.8.4-1.4 0-.5-.2-1-.5-1.3s-.7-.5-1.1-.5c-.5 0-.9.2-1.2.6-.3.4-.4.8-.4 1.2zm.2-4.9c0 .4.1.8.4 1 .2.2.6.4 1 .4s.8-.1 1-.4c.2-.2.4-.6.4-1s-.1-.7-.4-1c-.2-.2-.6-.4-1-.4s-.8.1-1 .4c-.2.3-.4.6-.4 1z" /></g><g
     id="NCS-5508-Front_bg223"><g
       id="NCS-5508-Front_bg225"><g
         id="NCS-5508-Front_bg227"><circle
           id="NCS-5508-Front_bcircle229"
           class="NCS-5508-Frontst11"
           cx="723.2"
           cy="37"
           r="11.8"
           data-cv-id="bcn-0" /><path
           id="NCS-5508-Front_bpath231"
           class="NCS-5508-Frontst12"
           d="M723.2 46c-5 0-9-4-9-9s4-9 9-9 9 4 9 9-4 9-9 9zm0-17c-4.4 0-8 3.6-8 8s3.6 8 8 8 8-3.6 8-8-3.6-8-8-8z" /></g><path
         d="M711.2 57.4l-.9 2.8h-1.2l3-8.8h1.4l3 8.8h-1.2l-.9-2.8h-3.2zm2.9-.9l-.9-2.5c-.2-.6-.3-1.1-.5-1.6-.1.5-.3 1.1-.4 1.6l-.9 2.5h2.7zM718.4 52.3h-2.7v-1h6.5v1h-2.7v7.8h-1.1v-7.8zM725.4 52.3h-2.7v-1h6.5v1h-2.7v7.8h-1.1v-7.8zM730.2 60.1v-8.8h1.2l2.8 4.4c.7 1 1.2 2 1.6 2.8-.1-1.2-.1-2.2-.1-3.6v-3.7h1.1V60h-1.1l-2.8-4.4c-.6-1-1.2-2-1.6-2.9.1 1.1.1 2.2.1 3.6V60h-1.2z"
         id="path106" /></g><g
       id="NCS-5508-Front_bg241"><g
         id="NCS-5508-Front_bg243"><circle
           id="NCS-5508-Front_bcircle245"
           class="NCS-5508-Frontst11"
           cx="781.7"
           cy="37"
           r="11.8" /><path
           id="NCS-5508-Front_bpath247"
           class="NCS-5508-Frontst12"
           d="M781.7 46c-5 0-9-4-9-9s4-9 9-9 9 4 9 9-4.1 9-9 9zm0-17c-4.4 0-8 3.6-8 8s3.6 8 8 8 8-3.6 8-8-3.6-8-8-8z" /></g><g
         id="NCS-5508-Front_bg249"><path
           id="NCS-5508-Front_bpath251"
           d="M771.6 59c.5.3 1.2.6 2 .6 1.2 0 1.8-.6 1.8-1.5 0-.8-.5-1.3-1.7-1.7-1.4-.5-2.3-1.2-2.3-2.5 0-1.4 1.1-2.4 2.8-2.4.9 0 1.5.2 1.9.4l-.3.9c-.3-.2-.9-.4-1.7-.4-1.2 0-1.7.7-1.7 1.3 0 .8.5 1.2 1.7 1.7 1.5.6 2.2 1.3 2.2 2.6 0 1.4-1 2.5-3.1 2.5-.8 0-1.8-.2-2.2-.6l.6-.9z" /><path
           id="NCS-5508-Front_bpath253"
           d="M779.3 51.6v5.2c0 2 .9 2.8 2 2.8 1.3 0 2.1-.9 2.1-2.8v-5.2h1.1v5.1c0 2.7-1.4 3.8-3.3 3.8-1.8 0-3.1-1-3.1-3.7v-5.2h1.2z" /><path
           id="NCS-5508-Front_bpath255"
           d="M786.6 51.7c.5-.1 1.3-.2 2.2-.2 1.1 0 1.9.3 2.5.7.5.4.8 1.1.8 1.8 0 .8-.2 1.4-.7 1.9-.6.6-1.6 1-2.7 1-.3 0-.7 0-.9-.1v3.5h-1.1l-.1-8.6zm1.1 4.2c.2.1.6.1.9.1 1.4 0 2.2-.7 2.2-1.9s-.8-1.7-2.1-1.7c-.5 0-.9 0-1.1.1l.1 3.4z" /></g></g><g
       id="NCS-5508-Front_bg257"><g
         id="NCS-5508-Front_bg259"><circle
           id="NCS-5508-Front_bcircle261"
           class="NCS-5508-Frontst11"
           cx="840.1"
           cy="37"
           r="11.8" /><path
           id="NCS-5508-Front_bpath263"
           class="NCS-5508-Frontst12"
           d="M840.1 46c-5 0-9-4-9-9s4-9 9-9 9 4 9 9-4.1 9-9 9zm0-17c-4.4 0-8 3.6-8 8s3.6 8 8 8 8-3.6 8-8-3.6-8-8-8z" /></g><g
         id="NCS-5508-Front_bg265"><path
           id="NCS-5508-Front_bpath267"
           d="M830.9 51.6h4.7v.9H832v2.9h3.3v.9H832v4h-1.1v-8.7z" /><path
           id="NCS-5508-Front_bpath269"
           d="M837.6 57.6l-.9 2.8h-1.2l3-8.8h1.4l3 8.8h-1.2l-.9-2.8h-3.2zm2.9-.9l-.9-2.5c-.2-.6-.3-1.1-.5-1.6-.1.5-.3 1.1-.4 1.6l-.9 2.5h2.7z" /><path
           id="NCS-5508-Front_bpath271"
           d="M844.2 51.7c.5-.1 1.3-.2 2.1-.2 1.1 0 1.9.2 2.4.6.5.3.7.9.7 1.5 0 .8-.6 1.6-1.5 1.9.8.2 1.8.9 1.8 2.2 0 .8-.3 1.3-.7 1.8-.6.6-1.6.8-3 .8-.8 0-1.4-.1-1.8-.1v-8.5zm1.1 3.6h1c1.2 0 1.9-.6 1.9-1.5 0-1-.8-1.4-1.9-1.4-.5 0-.8 0-1 .1v2.8zm0 4.2c.2 0 .5.1.9.1 1.2 0 2.2-.4 2.2-1.7 0-1.2-1-1.7-2.3-1.7h-.9l.1 3.3z" /></g></g><g
       id="NCS-5508-Front_bg273"><g
         id="NCS-5508-Front_bg275"><circle
           id="NCS-5508-Front_bcircle277"
           class="NCS-5508-Frontst11"
           cx="898.5"
           cy="37"
           r="11.8" /><path
           id="NCS-5508-Front_bpath279"
           class="NCS-5508-Frontst12"
           d="M898.5 46c-5 0-9-4-9-9s4-9 9-9 9 4 9 9-4.1 9-9 9zm0-17c-4.4 0-8 3.6-8 8s3.6 8 8 8 8-3.6 8-8-3.6-8-8-8z" /></g><g
         id="NCS-5508-Front_bg281"><path
           id="NCS-5508-Front_bpath283"
           d="M889.3 51.6v8.8h-1.1v-8.8h1.1z" /><path
           id="NCS-5508-Front_bpath285"
           d="M898.8 55.9c0 3-1.8 4.6-4.1 4.6s-3.9-1.8-3.9-4.4c0-2.8 1.7-4.6 4.1-4.6 2.4-.1 3.9 1.8 3.9 4.4zm-6.8.1c0 1.9 1 3.5 2.8 3.5s2.8-1.7 2.8-3.6c0-1.7-.9-3.6-2.8-3.6-1.9.1-2.8 1.8-2.8 3.7z" /><path
           id="NCS-5508-Front_bpath287"
           d="M907.7 56.5c-.1-1.2-.1-2.7-.1-3.8-.3 1-.7 2.1-1.1 3.3l-1.5 4.3h-1l-1.4-4.2c-.4-1.2-.8-2.4-1-3.4 0 1.1-.1 2.6-.2 3.9l-.2 3.8H900l.6-8.8h1.4l1.5 4.2c.4 1.1.7 2 .9 3 .2-.9.5-1.8.9-3l1.6-4.2h1.4l.5 8.8h-1.1v-3.9z" /></g></g><g
       id="NCS-5508-Front_bg289"><g
         id="NCS-5508-Front_bg291"><circle
           id="NCS-5508-Front_bcircle293"
           class="NCS-5508-Frontst11"
           cx="956.9"
           cy="37"
           r="11.8" /><path
           id="NCS-5508-Front_bpath295"
           class="NCS-5508-Frontst12"
           d="M956.9 46c-5 0-9-4-9-9s4-9 9-9 9 4 9 9-4 9-9 9zm0-17c-4.4 0-8 3.6-8 8s3.6 8 8 8 8-3.6 8-8-3.6-8-8-8z" /></g><g
         id="NCS-5508-Front_bg297"><path
           id="NCS-5508-Front_bpath299"
           d="M947 51.7c.5-.1 1.3-.2 2.2-.2 1.1 0 1.9.3 2.5.7.5.4.8 1.1.8 1.8 0 .8-.2 1.4-.7 1.9-.6.6-1.6 1-2.7 1-.3 0-.7 0-.9-.1v3.5H947v-8.6zm1.2 4.2c.2.1.6.1.9.1 1.4 0 2.2-.7 2.2-1.9s-.8-1.7-2.1-1.7c-.5 0-.9 0-1.1.1l.1 3.4z" /><path
           id="NCS-5508-Front_bpath301"
           d="M953.8 59c.5.3 1.2.6 2 .6 1.2 0 1.8-.6 1.8-1.5 0-.8-.5-1.3-1.7-1.7-1.4-.5-2.3-1.2-2.3-2.5 0-1.4 1.1-2.4 2.8-2.4.9 0 1.5.2 1.9.4l-.3.9c-.3-.2-.9-.4-1.7-.4-1.2 0-1.7.7-1.7 1.3 0 .8.5 1.2 1.7 1.7 1.5.6 2.2 1.3 2.2 2.6 0 1.4-1 2.5-3.1 2.5-.8 0-1.8-.2-2.2-.6l.6-.9z" /><path
           id="NCS-5508-Front_bpath303"
           d="M961.5 51.6v5.2c0 2 .9 2.8 2 2.8 1.3 0 2.1-.9 2.1-2.8v-5.2h1.1v5.1c0 2.7-1.4 3.8-3.3 3.8-1.8 0-3.1-1-3.1-3.7v-5.2h1.2z" /></g></g><g
       id="NCS-5508-Front_bg305"><g
         id="NCS-5508-Front_bg307"><circle
           id="NCS-5508-Front_bcircle309"
           class="NCS-5508-Frontst11"
           cx="1015.3"
           cy="37"
           r="11.8" /><path
           id="NCS-5508-Front_bpath311"
           class="NCS-5508-Frontst12"
           d="M1015.3 46c-5 0-9-4-9-9s4-9 9-9 9 4 9 9-4 9-9 9zm0-17c-4.4 0-8 3.6-8 8s3.6 8 8 8 8-3.6 8-8-3.6-8-8-8z" /></g><g
         id="NCS-5508-Front_bg313"><path
           id="NCS-5508-Front_bpath315"
           d="M1005.4 51.6h4.7v.9h-3.6v2.9h3.3v.9h-3.3v4h-1.1v-8.7z" /><path
           id="NCS-5508-Front_bpath317"
           d="M1012.1 57.6l-.9 2.8h-1.2l3-8.8h1.4l3 8.8h-1.2l-.9-2.8h-3.2zm2.9-.9l-.9-2.5c-.2-.6-.3-1.1-.5-1.6-.1.5-.3 1.1-.4 1.6l-.9 2.5h2.7z" /><path
           id="NCS-5508-Front_bpath319"
           d="M1018.7 60.3v-8.8h1.2l2.8 4.4c.7 1 1.2 2 1.6 2.8-.1-1.2-.1-2.2-.1-3.6v-3.7h1.1v8.8h-1.1l-2.8-4.4c-.6-1-1.2-2-1.6-2.9.1 1.1.1 2.2.1 3.6v3.7h-1.2v.1z" /></g></g><g
       id="NCS-5508-Front_bg321"><g
         id="NCS-5508-Front_bg323"><circle
           id="NCS-5508-Front_bcircle325"
           class="NCS-5508-Frontst11"
           cx="1073.7"
           cy="37"
           r="11.8" /><path
           id="NCS-5508-Front_bpath327"
           class="NCS-5508-Frontst12"
           d="M1073.7 46c-5 0-9-4-9-9s4-9 9-9 9 4 9 9-4 9-9 9zm0-17c-4.4 0-8 3.6-8 8s3.6 8 8 8 8-3.6 8-8-3.6-8-8-8z" /></g><g
         id="NCS-5508-Front_bg329"><path
           id="NCS-5508-Front_bpath331"
           d="M1043.1 51.7c.5-.1 1.3-.2 2.2-.2 1.1 0 1.9.3 2.5.7.5.4.8 1.1.8 1.8 0 .8-.2 1.4-.7 1.9-.6.6-1.6 1-2.7 1-.3 0-.7 0-.9-.1v3.5h-1.1v-8.6h-.1zm1.1 4.2c.2.1.6.1.9.1 1.4 0 2.2-.7 2.2-1.9s-.8-1.7-2.1-1.7c-.5 0-.9 0-1.1.1l.1 3.4z" /><path
           id="NCS-5508-Front_bpath333"
           d="M1051.4 60.3l-2.2-8.8h1.2l1 4.4c.3 1.1.5 2.2.7 3 .1-.9.4-1.9.7-3l1.2-4.4h1.2l1.1 4.4c.2 1 .5 2.1.6 3 .2-1 .4-1.9.7-3l1.2-4.4h1.2l-2.5 8.8h-1.2l-1.1-4.6c-.3-1.1-.5-2-.6-2.9-.2.9-.4 1.7-.7 2.9l-1.2 4.6h-1.3z" /><path
           id="NCS-5508-Front_bpath335"
           d="M1061 51.7c.6-.1 1.4-.2 2.2-.2 1.2 0 2 .2 2.5.7.4.4.7 1 .7 1.7 0 1.2-.7 1.9-1.7 2.2.7.2 1.1.9 1.3 1.8.3 1.2.5 2.1.7 2.4h-1.2c-.1-.2-.3-1-.6-2.1-.3-1.2-.7-1.7-1.8-1.7h-1.1v3.8h-1.1l.1-8.6zm1.1 4h1.2c1.2 0 2-.7 2-1.7 0-1.1-.8-1.6-2-1.6-.5 0-.9.1-1.1.1l-.1 3.2z" /><path
           id="NCS-5508-Front_bpath337"
           d="M1078.1 56.5c-.1-1.2-.1-2.7-.1-3.8-.3 1-.7 2.1-1.1 3.3l-1.5 4.3h-.9l-1.4-4.2c-.4-1.2-.8-2.4-1-3.4 0 1.1-.1 2.6-.2 3.9l-.2 3.8h-1.1l.6-8.8h1.4l1.5 4.2c.4 1.1.7 2 .9 3 .2-.9.5-1.8.9-3l1.6-4.2h1.4l.5 8.8h-1.1l-.2-3.9z" /><path
           id="NCS-5508-Front_bpath339"
           d="M1087.9 59.9c-.5.2-1.5.5-2.7.5-1.3 0-2.4-.3-3.3-1.2-.8-.7-1.2-1.9-1.2-3.3 0-2.6 1.8-4.5 4.7-4.5 1 0 1.8.2 2.2.4l-.3.9c-.5-.2-1.1-.4-1.9-.4-2.1 0-3.5 1.3-3.5 3.5s1.3 3.5 3.4 3.5c.7 0 1.2-.1 1.5-.2v-2.6h-1.8v-.9h2.9v4.3z" /><path
           id="NCS-5508-Front_bpath341"
           d="M1097 56.5c-.1-1.2-.1-2.7-.1-3.8-.3 1-.7 2.1-1.1 3.3l-1.5 4.3h-.9l-1.4-4.2c-.4-1.2-.8-2.4-1-3.4 0 1.1-.1 2.6-.2 3.9l-.2 3.8h-1.1l.6-8.8h1.4l1.5 4.2c.4 1.1.7 2 .9 3 .2-.9.5-1.8.9-3l1.6-4.2h1.4l.5 8.8h-1.1l-.2-3.9z" /><path
           id="NCS-5508-Front_bpath343"
           d="M1101.6 52.5h-2.7v-1h6.5v1h-2.7v7.8h-1.1v-7.8z" /></g></g></g><g
     id="NCS-5508-Front_bg345"><path
       id="NCS-5508-Front_brect347"
       class="NCS-5508-Frontst13"
       d="M1657.7 47h2.4v9.5h-2.4z" /><path
       id="NCS-5508-Front_bpath349"
       class="NCS-5508-Frontst13"
       d="M1679.3 49.7s-.9-.3-2.1-.3c-1.5 0-2.7.9-2.7 2.4s1.2 2.7 2.7 2.7c1.2 0 2.1-.6 2.1-.6v2.7c-.3 0-1.2.3-2.1.3-2.7 0-5-2.1-5-5 0-2.7 2.1-4.7 5-4.7.9 0 1.8.3 2.1.3v2.2z" /><path
       id="NCS-5508-Front_bpath351"
       class="NCS-5508-Frontst13"
       d="M1654.4 49.7s-.6-.3-1.8-.3c-1.5 0-2.7.9-2.7 2.4s.9 2.7 2.7 2.7c.9 0 1.8-.6 1.8-.6v2.7c-.3 0-.9.3-2.1.3-2.7 0-5-2.1-5-5 0-2.7 2.1-4.7 5-4.7 1.2 0 2.1.3 2.1.3v2.2z" /><path
       id="NCS-5508-Front_bpath353"
       class="NCS-5508-Frontst13"
       d="M1691.8 51.8c0 2.7-2.1 5-5 5-3 0-5-2.4-5-5s2.1-4.7 5-4.7c2.9-.1 5 2 5 4.7zm-5.1-2.4c-1.5 0-2.4 1.2-2.4 2.4 0 1.5.9 2.7 2.4 2.7s2.4-1.2 2.4-2.7c0-1.2-.9-2.4-2.4-2.4z" /><path
       id="NCS-5508-Front_bpath355"
       class="NCS-5508-Frontst13"
       d="M1669.2 49.4s-1.2-.3-1.8-.3c-1.2 0-1.5.3-1.5.6 0 .6.6.9.9.9l.6.3c1.8.6 2.4 1.5 2.4 2.7 0 2.4-2.1 3.3-3.9 3.3-1.2 0-2.4-.3-2.7-.3v-2.4c.3.3 1.2.6 2.4.6s1.8-.6 1.8-.9c0-.6-.6-.9-1.2-.9 0-.3-.3-.3-.6-.3-1.2-.3-2.4-1.2-2.4-2.7 0-1.8 1.5-3 3.6-3 1.2 0 2.4.3 2.4.3v2.1z" /><path
       id="NCS-5508-Front_bpath357"
       class="NCS-5508-Frontst14"
       d="M1644.9 36.9c0-.6-.6-1.2-1.2-1.2s-1.2.6-1.2 1.2v2.7c0 .6.6 1.2 1.2 1.2s1.2-.6 1.2-1.2v-2.7z" /><path
       id="NCS-5508-Front_bpath359"
       class="NCS-5508-Frontst14"
       d="M1651.4 33.7c0-.6-.6-1.2-1.2-1.2-.9 0-1.2.6-1.2 1.2v5.9c0 .6.3 1.2 1.2 1.2.6 0 1.2-.6 1.2-1.2v-5.9z" /><path
       id="NCS-5508-Front_bpath361"
       class="NCS-5508-Frontst14"
       d="M1657.7 29.2c0-.6-.3-1.2-1.2-1.2-.6 0-1.2.6-1.2 1.2V42c0 .6.6.9 1.2.9.9 0 1.2-.3 1.2-.9V29.2z" /><path
       id="NCS-5508-Front_bpath363"
       class="NCS-5508-Frontst14"
       d="M1664.2 33.7c0-.6-.6-1.2-1.2-1.2s-1.2.6-1.2 1.2v5.9c0 .6.6 1.2 1.2 1.2s1.2-.6 1.2-1.2v-5.9z" /><path
       id="NCS-5508-Front_bpath365"
       class="NCS-5508-Frontst14"
       d="M1670.7 36.9c0-.6-.6-1.2-1.2-1.2s-1.2.6-1.2 1.2v2.7c0 .6.6 1.2 1.2 1.2s1.2-.6 1.2-1.2v-2.7z" /><path
       id="NCS-5508-Front_bpath367"
       class="NCS-5508-Frontst14"
       d="M1677.2 33.7c0-.6-.6-1.2-1.2-1.2s-1.2.6-1.2 1.2v5.9c0 .6.6 1.2 1.2 1.2s1.2-.6 1.2-1.2v-5.9z" /><path
       id="NCS-5508-Front_bpath369"
       class="NCS-5508-Frontst14"
       d="M1683.8 29.2c0-.6-.6-1.2-1.2-1.2s-1.2.6-1.2 1.2V42c0 .6.6.9 1.2.9s1.2-.3 1.2-.9V29.2z" /><path
       id="NCS-5508-Front_bpath371"
       class="NCS-5508-Frontst14"
       d="M1690.3 33.7c0-.6-.6-1.2-1.2-1.2-.9 0-1.2.6-1.2 1.2v5.9c0 .6.3 1.2 1.2 1.2.6 0 1.2-.6 1.2-1.2v-5.9z" /><path
       id="NCS-5508-Front_bpath373"
       class="NCS-5508-Frontst14"
       d="M1696.5 36.9c0-.6-.3-1.2-1.2-1.2-.6 0-1.2.6-1.2 1.2v2.7c0 .6.6 1.2 1.2 1.2.9 0 1.2-.6 1.2-1.2v-2.7z" /></g><g
     id="NCS-5508-Front_bg375"><path
       id="NCS-5508-Front_brect377"
       class="NCS-5508-Frontst4"
       d="M71.7 2121.8H1747v57.4H71.7z" /><g
       id="NCS-5508-Front_bg379"><path
         id="NCS-5508-Front_bpath381"
         class="NCS-5508-Frontst1"
         d="M1746 2122.8v55.4H72.7v-55.4H1746m1-1H71.7v57.4H1747v-57.4z" /></g><path
       id="NCS-5508-Front_brect383"
       class="NCS-5508-Frontst15"
       d="M1740.7 2121.8h6.4v57.4h-6.4z" /><g
       id="NCS-5508-Front_bg385"><path
         id="NCS-5508-Front_bpath387"
         class="NCS-5508-Frontst1"
         d="M1746 2122.8v55.4h-4.4v-55.4h4.4m1-1h-6.4v57.4h6.4v-57.4z" /></g><path
       id="NCS-5508-Front_brect389"
       class="NCS-5508-Frontst15"
       d="M1727.1 2134.6h13.5v44.6h-13.5z" /><g
       id="NCS-5508-Front_bg391"><path
         id="NCS-5508-Front_bpath393"
         class="NCS-5508-Frontst1"
         d="M1739.7 2135.6v42.6h-11.5v-42.6h11.5m1-1h-13.5v44.6h13.5v-44.6z" /></g><path
       id="NCS-5508-Front_bpath395"
       class="NCS-5508-Frontst4"
       d="M1739.9 2134.6v-8c.8-2.4-1.6-4.8-4.8-4.8H1720v4.8h15.1v8h4.8z" /><g
       id="NCS-5508-Front_bg397"><path
         id="NCS-5508-Front_bpath399"
         class="NCS-5508-Frontst1"
         d="M1735.1 2122.8c1.5 0 2.8.6 3.5 1.6.3.4.6 1.1.3 1.9 0 .1-.1.2-.1.3v7h-2.8v-7c0-.6-.4-1-1-1h-14.1v-2.8h14.2m0-1H1720v4.8h15.1v8h4.8v-8c.8-2.4-1.6-4.8-4.8-4.8z" /></g><path
       id="NCS-5508-Front_brect401"
       class="NCS-5508-Frontst4"
       d="M84.5 2121.8h1636.3v57.4H84.5z" /><path
       id="NCS-5508-Front_brect403"
       fill="#f2f2f2"
       d="M84.5 2121.8h1636.3v6.4H84.5z" /><path
       id="NCS-5508-Front_brect405"
       class="NCS-5508-Frontst17"
       d="M84.5 2172.8h1636.3v6.4H84.5z" /><path
       id="NCS-5508-Front_brect407"
       class="NCS-5508-Frontst17"
       d="M1720.7 2128.2h6.4v44.6h-6.4z" /><path
       id="NCS-5508-Front_brect409"
       class="NCS-5508-Frontst17"
       d="M78.9 2128.2h5.6v44.6h-5.6z" /><path
       id="NCS-5508-Front_bpath411"
       d="M871.9 2162.5h-6.4l-3.2 4.8 3.2 5.6h6.4l3.2-5.6-3.2-4.8zm0-15.2h-6.4l-3.2 5.6 3.2 4.8h6.4l3.2-4.8-3.2-5.6zm0-15.1h-6.4l-3.2 5.6 3.2 4.8h6.4l3.2-4.8-3.2-5.6zm-25.5 30.3H840l-3.2 4.8 3.2 5.6h6.4l2.4-5.6-2.4-4.8zm0-15.2H840l-3.2 5.6 3.2 4.8h6.4l2.4-4.8-2.4-5.6zm0-15.1H840l-3.2 5.6 3.2 4.8h6.4l2.4-4.8-2.4-5.6zm-26.3 30.3h-5.6l-3.2 4.8 3.2 5.6h5.6l3.2-5.6-3.2-4.8zm0-15.2h-5.6l-3.2 5.6 3.2 4.8h5.6l3.2-4.8-3.2-5.6zm0-15.1h-5.6l-3.2 5.6 3.2 4.8h5.6l3.2-4.8-3.2-5.6zm-25.5 30.3h-6.4l-2.4 4.8 2.4 5.6h6.4l3.2-5.6-3.2-4.8zm0-15.2h-6.4l-2.4 5.6 2.4 4.8h6.4l3.2-4.8-3.2-5.6zm0-15.1h-6.4l-2.4 5.6 2.4 4.8h6.4l3.2-4.8-3.2-5.6zm-25.5 30.3h-6.4l-3.2 4.8 3.2 5.6h6.4l3.2-5.6-3.2-4.8zm0-15.2h-6.4l-3.2 5.6 3.2 4.8h6.4l3.2-4.8-3.2-5.6zm0-15.1h-6.4l-3.2 5.6 3.2 4.8h6.4l3.2-4.8-3.2-5.6zm-26.3 30.3h-5.6l-3.2 4.8 3.2 5.6h5.6l3.2-5.6-3.2-4.8zm0-15.2h-5.6l-3.2 5.6 3.2 4.8h5.6l3.2-4.8-3.2-5.6zm0-15.1h-5.6l-3.2 5.6 3.2 4.8h5.6l3.2-4.8-3.2-5.6zm-25.5 30.3h-5.6l-3.2 4.8 3.2 5.6h5.6l3.2-5.6-3.2-4.8zm0-15.2h-5.6l-3.2 5.6 3.2 4.8h5.6l3.2-4.8-3.2-5.6zm0-15.1h-5.6l-3.2 5.6 3.2 4.8h5.6l3.2-4.8-3.2-5.6zm-25.5 30.3h-6.4l-3.2 4.8 3.2 5.6h6.4l3.2-5.6-3.2-4.8zm0-15.2h-6.4l-3.2 5.6 3.2 4.8h6.4l3.2-4.8-3.2-5.6zm0-15.1h-6.4l-3.2 5.6 3.2 4.8h6.4l3.2-4.8-3.2-5.6zm-25.5 30.3h-6.4l-3.2 4.8 3.2 5.6h6.4l2.4-5.6-2.4-4.8zm0-15.2h-6.4l-3.2 5.6 3.2 4.8h6.4l2.4-4.8-2.4-5.6zm0-15.1h-6.4l-3.2 5.6 3.2 4.8h6.4l2.4-4.8-2.4-5.6zm-26.3 30.3h-5.6l-3.2 4.8 3.2 5.6h5.6l3.2-5.6-3.2-4.8zm0-15.2h-5.6l-3.2 5.6 3.2 4.8h5.6l3.2-4.8-3.2-5.6zm0-15.1h-5.6l-3.2 5.6 3.2 4.8h5.6l3.2-4.8-3.2-5.6zm-25.5 30.3h-6.4l-3.2 4.8 3.2 5.6h6.4l3.2-5.6-3.2-4.8zm0-15.2h-6.4l-3.2 5.6 3.2 4.8h6.4l3.2-4.8-3.2-5.6zm0-15.1h-6.4l-3.2 5.6 3.2 4.8h6.4l3.2-4.8-3.2-5.6zm-25.5 30.3h-6.4l-3.2 4.8 3.2 5.6h6.4l2.4-5.6-2.4-4.8zm0-15.2h-6.4l-3.2 5.6 3.2 4.8h6.4l2.4-4.8-2.4-5.6zm0-15.1h-6.4l-3.2 5.6 3.2 4.8h6.4l2.4-4.8-2.4-5.6zm-26.3 30.3h-5.6l-3.2 4.8 3.2 5.6h5.6l3.2-5.6-3.2-4.8zm0-15.2h-5.6l-3.2 5.6 3.2 4.8h5.6l3.2-4.8-3.2-5.6zm0-15.1h-5.6l-3.2 5.6 3.2 4.8h5.6l3.2-4.8-3.2-5.6zm-25.5 30.3h-6.4l-2.4 4.8 2.4 5.6h6.4l3.2-5.6-3.2-4.8zm0-15.2h-6.4l-2.4 5.6 2.4 4.8h6.4l3.2-4.8-3.2-5.6zm0-15.1h-6.4l-2.4 5.6 2.4 4.8h6.4l3.2-4.8-3.2-5.6zm-25.5 30.3h-6.4l-3.2 4.8 3.2 5.6h6.4l3.2-5.6-3.2-4.8zm0-15.2h-6.4l-3.2 5.6 3.2 4.8h6.4l3.2-4.8-3.2-5.6zm0-15.1h-6.4l-3.2 5.6 3.2 4.8h6.4l3.2-4.8-3.2-5.6zm-26.3 30.3h-5.6l-3.2 4.8 3.2 5.6h5.6l3.2-5.6-3.2-4.8zm0-15.2h-5.6l-3.2 5.6 3.2 4.8h5.6l3.2-4.8-3.2-5.6zm0-15.1h-5.6l-3.2 5.6 3.2 4.8h5.6l3.2-4.8-3.2-5.6zm-25.5 30.3h-5.6l-3.2 4.8 3.2 5.6h5.6l3.2-5.6-3.2-4.8zm0-15.2h-5.6l-3.2 5.6 3.2 4.8h5.6l3.2-4.8-3.2-5.6zm0-15.1h-5.6l-3.2 5.6 3.2 4.8h5.6l3.2-4.8-3.2-5.6zm-25.5 30.3H428l-3.2 4.8 3.2 5.6h6.4l3.2-5.6-3.2-4.8zm0-15.2H428l-3.2 5.6 3.2 4.8h6.4l3.2-4.8-3.2-5.6zm0-15.1H428l-3.2 5.6 3.2 4.8h6.4l3.2-4.8-3.2-5.6zm-25.5 30.3h-6.4l-3.2 4.8 3.2 5.6h6.4l2.4-5.6-2.4-4.8zm0-15.2h-6.4l-3.2 5.6 3.2 4.8h6.4l2.4-4.8-2.4-5.6zm0-15.1h-6.4l-3.2 5.6 3.2 4.8h6.4l2.4-4.8-2.4-5.6zm-26.3 30.3H377l-3.2 4.8 3.2 5.6h5.6l3.2-5.6-3.2-4.8zm0-15.2H377l-3.2 5.6 3.2 4.8h5.6l3.2-4.8-3.2-5.6zm0-15.1H377l-3.2 5.6 3.2 4.8h5.6l3.2-4.8-3.2-5.6zm-25.5 30.3h-6.4l-2.4 4.8 2.4 5.6h6.4l3.2-5.6-3.2-4.8zm0-15.2h-6.4l-2.4 5.6 2.4 4.8h6.4l3.2-4.8-3.2-5.6zm0-15.1h-6.4l-2.4 5.6 2.4 4.8h6.4l3.2-4.8-3.2-5.6zm-25.5 30.3h-6.4l-3.2 4.8 3.2 5.6h6.4l3.2-5.6-3.2-4.8zm0-15.2h-6.4l-3.2 5.6 3.2 4.8h6.4l3.2-4.8-3.2-5.6zm0-15.1h-6.4l-3.2 5.6 3.2 4.8h6.4l3.2-4.8-3.2-5.6zm-26.3 30.3h-5.6l-3.2 4.8 3.2 5.6h5.6l3.2-5.6-3.2-4.8zm0-15.2h-5.6l-3.2 5.6 3.2 4.8h5.6l3.2-4.8-3.2-5.6zm0-15.1h-5.6l-3.2 5.6 3.2 4.8h5.6l3.2-4.8-3.2-5.6zm-25.6 30.3h-6.4l-2.4 4.8 2.4 5.6h6.4l3.2-5.6-3.2-4.8zm0-15.2h-6.4l-2.4 5.6 2.4 4.8h6.4l3.2-4.8-3.2-5.6zm0-15.1h-6.4l-2.4 5.6 2.4 4.8h6.4l3.2-4.8-3.2-5.6zm-25.5 30.3h-6.4l-3.2 4.8 3.2 5.6h6.4l3.2-5.6-3.2-4.8zm0-15.2h-6.4l-3.2 5.6 3.2 4.8h6.4l3.2-4.8-3.2-5.6zm0-15.1h-6.4l-3.2 5.6 3.2 4.8h6.4l3.2-4.8-3.2-5.6zm-25.5 30.3h-6.4l-3.2 4.8 3.2 5.6h6.4l2.4-5.6-2.4-4.8zm0-15.2h-6.4l-3.2 5.6 3.2 4.8h6.4l2.4-4.8-2.4-5.6zm0-15.1h-6.4l-3.2 5.6 3.2 4.8h6.4l2.4-4.8-2.4-5.6zm-26.3 30.3h-5.6l-3.2 4.8 3.2 5.6h5.6l3.2-5.6-3.2-4.8zm0-15.2h-5.6l-3.2 5.6 3.2 4.8h5.6l3.2-4.8-3.2-5.6zm0-15.1h-5.6l-3.2 5.6 3.2 4.8h5.6l3.2-4.8-3.2-5.6zm-25.5 30.3h-6.4l-3.2 4.8 3.2 5.6h6.4l3.2-5.6-3.2-4.8zm0-15.2h-6.4l-3.2 5.6 3.2 4.8h6.4l3.2-4.8-3.2-5.6zm0-15.1h-6.4l-3.2 5.6 3.2 4.8h6.4l3.2-4.8-3.2-5.6zm-25.5 30.3H145l-3.2 4.8 3.2 5.6h6.4l2.4-5.6-2.4-4.8zm0-15.2H145l-3.2 5.6 3.2 4.8h6.4l2.4-4.8-2.4-5.6zm0-15.1H145l-3.2 5.6 3.2 4.8h6.4l2.4-4.8-2.4-5.6zm733.3 22.3h-6.4l-2.4 5.6 2.4 4.8h6.4l3.2-4.8-3.2-5.6zm0-14.4h-6.4l-2.4 5.6 2.4 4.8h6.4l3.2-4.8-3.2-5.6zm-25.5 14.4h-6.4l-3.2 5.6 3.2 4.8h6.4l3.2-4.8-3.2-5.6zm0-14.4h-6.4l-3.2 5.6 3.2 4.8h6.4l3.2-4.8-3.2-5.6zm-26.3 14.4h-5.6l-3.2 5.6 3.2 4.8h5.6l3.2-4.8-3.2-5.6zm0-14.4h-5.6l-3.2 5.6 3.2 4.8h5.6l3.2-4.8-3.2-5.6zm-25.5 14.4h-5.6l-3.2 5.6 3.2 4.8h5.6l3.2-4.8-3.2-5.6zm0-14.4h-5.6l-3.2 5.6 3.2 4.8h5.6l3.2-4.8-3.2-5.6zm-25.5 14.4h-6.4l-3.2 5.6 3.2 4.8h6.4l3.2-4.8-3.2-5.6zm0-14.4h-6.4l-3.2 5.6 3.2 4.8h6.4l3.2-4.8-3.2-5.6zm-25.5 14.4H750l-3.2 5.6 3.2 4.8h6.4l2.4-4.8-2.4-5.6zm0-14.4H750l-3.2 5.6 3.2 4.8h6.4l2.4-4.8-2.4-5.6zm-26.3 14.4h-5.6l-3.2 5.6 3.2 4.8h5.6l3.2-4.8-3.2-5.6zm0-14.4h-5.6l-3.2 5.6 3.2 4.8h5.6l3.2-4.8-3.2-5.6zm-25.5 14.4h-6.4l-2.4 5.6 2.4 4.8h6.4l3.2-4.8-3.2-5.6zm0-14.4h-6.4l-2.4 5.6 2.4 4.8h6.4l3.2-4.8-3.2-5.6zm-25.5 14.4h-6.4l-3.2 5.6 3.2 4.8h6.4l3.2-4.8-3.2-5.6zm0-14.4h-6.4l-3.2 5.6 3.2 4.8h6.4l3.2-4.8-3.2-5.6zm-26.4 14.4h-5.6l-3.2 5.6 3.2 4.8h5.6l3.2-4.8-3.2-5.6zm0-14.4h-5.6l-3.2 5.6 3.2 4.8h5.6l3.2-4.8-3.2-5.6zm-25.5 14.4h-6.4l-2.4 5.6 2.4 4.8h6.4l3.2-4.8-3.2-5.6zm0-14.4h-6.4l-2.4 5.6 2.4 4.8h6.4l3.2-4.8-3.2-5.6zm-25.5 14.4h-6.4l-3.2 5.6 3.2 4.8h6.4l3.2-4.8-3.2-5.6zm0-14.4h-6.4l-3.2 5.6 3.2 4.8h6.4l3.2-4.8-3.2-5.6zm-25.5 14.4h-6.4l-3.2 5.6 3.2 4.8h6.4l2.4-4.8-2.4-5.6zm0-14.4h-6.4l-3.2 5.6 3.2 4.8h6.4l2.4-4.8-2.4-5.6zm-26.3 14.4h-5.6l-3.2 5.6 3.2 4.8h5.6l3.2-4.8-3.2-5.6zm0-14.4h-5.6l-3.2 5.6 3.2 4.8h5.6l3.2-4.8-3.2-5.6zm-25.5 14.4H518l-3.2 5.6 3.2 4.8h6.4l3.2-4.8-3.2-5.6zm0-14.4H518l-3.2 5.6 3.2 4.8h6.4l3.2-4.8-3.2-5.6zm-25.5 14.4h-6.4l-3.2 5.6 3.2 4.8h6.4l2.4-4.8-2.4-5.6zm0-14.4h-6.4l-3.2 5.6 3.2 4.8h6.4l2.4-4.8-2.4-5.6zm-26.3 14.4H467l-3.2 5.6 3.2 4.8h5.6l3.2-4.8-3.2-5.6zm0-14.4H467l-3.2 5.6 3.2 4.8h5.6l3.2-4.8-3.2-5.6zm-25.5 14.4h-6.4l-2.4 5.6 2.4 4.8h6.4l3.2-4.8-3.2-5.6zm0-14.4h-6.4l-2.4 5.6 2.4 4.8h6.4l3.2-4.8-3.2-5.6zm-25.5 14.4h-6.4l-3.2 5.6 3.2 4.8h6.4l3.2-4.8-3.2-5.6zm0-14.4h-6.4l-3.2 5.6 3.2 4.8h6.4l3.2-4.8-3.2-5.6zm-26.3 14.4h-5.6l-3.2 5.6 3.2 4.8h5.6l3.2-4.8-3.2-5.6zm0-14.4h-5.6l-3.2 5.6 3.2 4.8h5.6l3.2-4.8-3.2-5.6zm-25.5 14.4h-6.4l-2.4 5.6 2.4 4.8h6.4l3.2-4.8-3.2-5.6zm0-14.4h-6.4l-2.4 5.6 2.4 4.8h6.4l3.2-4.8-3.2-5.6zm-25.5 14.4h-6.4l-3.2 5.6 3.2 4.8h6.4l3.2-4.8-3.2-5.6zm0-14.4h-6.4l-3.2 5.6 3.2 4.8h6.4l3.2-4.8-3.2-5.6zm-25.5 14.4h-6.4l-3.2 5.6 3.2 4.8h6.4l2.4-4.8-2.4-5.6zm0-14.4h-6.4l-3.2 5.6 3.2 4.8h6.4l2.4-4.8-2.4-5.6zm-26.3 14.4h-5.6l-3.2 5.6 3.2 4.8h5.6l3.2-4.8-3.2-5.6zm0-14.4h-5.6l-3.2 5.6 3.2 4.8h5.6l3.2-4.8-3.2-5.6zm-25.5 14.4h-6.4l-3.2 5.6 3.2 4.8h6.4l3.2-4.8-3.2-5.6zm0-14.4h-6.4l-3.2 5.6 3.2 4.8h6.4l3.2-4.8-3.2-5.6zm-25.5 14.4h-6.4l-3.2 5.6 3.2 4.8h6.4l2.4-4.8-2.4-5.6zm0-14.4h-6.4l-3.2 5.6 3.2 4.8h6.4l2.4-4.8-2.4-5.6zm-26.3 14.4h-5.6l-3.2 5.6 3.2 4.8h5.6l3.2-4.8-3.2-5.6zm0-14.4h-5.6l-3.2 5.6 3.2 4.8h5.6l3.2-4.8-3.2-5.6zm-25.5 14.4h-6.4l-2.4 5.6 2.4 4.8h6.4l3.2-4.8-3.2-5.6zm0-14.4h-6.4l-2.4 5.6 2.4 4.8h6.4l3.2-4.8-3.2-5.6zm-25.5 14.4h-6.4l-3.2 5.6 3.2 4.8h6.4l3.2-4.8-3.2-5.6zm0-14.4h-6.4l-3.2 5.6 3.2 4.8h6.4l3.2-4.8-3.2-5.6zm-26.3 14.4h-5.6l-3.2 5.6 3.2 4.8h5.6l3.2-4.8-3.2-5.6zm0-14.4h-5.6l-3.2 5.6 3.2 4.8h5.6l3.2-4.8-3.2-5.6z" /><path
       id="NCS-5508-Front_bpath413"
       d="M1669.7 2162.5h-5.6l-3.2 4.8 3.2 5.6h5.6l3.2-5.6-3.2-4.8zm0-15.2h-5.6l-3.2 5.6 3.2 4.8h5.6l3.2-4.8-3.2-5.6zm0-15.1h-5.6l-3.2 5.6 3.2 4.8h5.6l3.2-4.8-3.2-5.6zm-25.5 30.3h-6.4l-3.2 4.8 3.2 5.6h6.4l3.2-5.6-3.2-4.8zm0-15.2h-6.4l-3.2 5.6 3.2 4.8h6.4l3.2-4.8-3.2-5.6zm0-15.1h-6.4l-3.2 5.6 3.2 4.8h6.4l3.2-4.8-3.2-5.6zm-25.5 30.3h-6.4l-3.2 4.8 3.2 5.6h6.4l2.4-5.6-2.4-4.8zm0-15.2h-6.4l-3.2 5.6 3.2 4.8h6.4l2.4-4.8-2.4-5.6zm0-15.1h-6.4l-3.2 5.6 3.2 4.8h6.4l2.4-4.8-2.4-5.6zm-26.3 30.3h-5.6l-3.2 4.8 3.2 5.6h5.6l3.2-5.6-3.2-4.8zm0-15.2h-5.6l-3.2 5.6 3.2 4.8h5.6l3.2-4.8-3.2-5.6zm0-15.1h-5.6l-3.2 5.6 3.2 4.8h5.6l3.2-4.8-3.2-5.6zm-25.5 30.3h-6.4l-3.2 4.8 3.2 5.6h6.4l3.2-5.6-3.2-4.8zm0-15.2h-6.4l-3.2 5.6 3.2 4.8h6.4l3.2-4.8-3.2-5.6zm0-15.1h-6.4l-3.2 5.6 3.2 4.8h6.4l3.2-4.8-3.2-5.6zm-25.5 30.3h-6.4l-3.2 4.8 3.2 5.6h6.4l2.4-5.6-2.4-4.8zm0-15.2h-6.4l-3.2 5.6 3.2 4.8h6.4l2.4-4.8-2.4-5.6zm0-15.1h-6.4l-3.2 5.6 3.2 4.8h6.4l2.4-4.8-2.4-5.6zm-26.3 30.3h-5.6l-3.2 4.8 3.2 5.6h5.6l3.2-5.6-3.2-4.8zm0-15.2h-5.6l-3.2 5.6 3.2 4.8h5.6l3.2-4.8-3.2-5.6zm0-15.1h-5.6l-3.2 5.6 3.2 4.8h5.6l3.2-4.8-3.2-5.6zm-25.5 30.3h-6.4l-2.4 4.8 2.4 5.6h6.4l3.2-5.6-3.2-4.8zm0-15.2h-6.4l-2.4 5.6 2.4 4.8h6.4l3.2-4.8-3.2-5.6zm0-15.1h-6.4l-2.4 5.6 2.4 4.8h6.4l3.2-4.8-3.2-5.6zm-25.5 30.3h-6.4l-3.2 4.8 3.2 5.6h6.4l3.2-5.6-3.2-4.8zm0-15.2h-6.4l-3.2 5.6 3.2 4.8h6.4l3.2-4.8-3.2-5.6zm0-15.1h-6.4l-3.2 5.6 3.2 4.8h6.4l3.2-4.8-3.2-5.6zm-26.3 30.3h-5.6l-3.2 4.8 3.2 5.6h5.6l3.2-5.6-3.2-4.8zm0-15.2h-5.6l-3.2 5.6 3.2 4.8h5.6l3.2-4.8-3.2-5.6zm0-15.1h-5.6l-3.2 5.6 3.2 4.8h5.6l3.2-4.8-3.2-5.6zm-25.5 30.3h-5.6l-3.2 4.8 3.2 5.6h5.6l3.2-5.6-3.2-4.8zm0-15.2h-5.6l-3.2 5.6 3.2 4.8h5.6l3.2-4.8-3.2-5.6zm0-15.1h-5.6l-3.2 5.6 3.2 4.8h5.6l3.2-4.8-3.2-5.6zm-25.5 30.3h-6.4l-3.2 4.8 3.2 5.6h6.4l3.2-5.6-3.2-4.8zm0-15.2h-6.4l-3.2 5.6 3.2 4.8h6.4l3.2-4.8-3.2-5.6zm0-15.1h-6.4l-3.2 5.6 3.2 4.8h6.4l3.2-4.8-3.2-5.6zm-25.5 30.3h-6.4l-3.2 4.8 3.2 5.6h6.4l2.4-5.6-2.4-4.8zm0-15.2h-6.4l-3.2 5.6 3.2 4.8h6.4l2.4-4.8-2.4-5.6zm0-15.1h-6.4l-3.2 5.6 3.2 4.8h6.4l2.4-4.8-2.4-5.6zm-26.3 30.3h-5.6l-3.2 4.8 3.2 5.6h5.6l3.2-5.6-3.2-4.8zm0-15.2h-5.6l-3.2 5.6 3.2 4.8h5.6l3.2-4.8-3.2-5.6zm0-15.1h-5.6l-3.2 5.6 3.2 4.8h5.6l3.2-4.8-3.2-5.6zm-25.5 30.3h-6.4l-2.4 4.8 2.4 5.6h6.4l3.2-5.6-3.2-4.8zm0-15.2h-6.4l-2.4 5.6 2.4 4.8h6.4l3.2-4.8-3.2-5.6zm0-15.1h-6.4l-2.4 5.6 2.4 4.8h6.4l3.2-4.8-3.2-5.6zm-25.5 30.3h-6.4l-3.2 4.8 3.2 5.6h6.4l3.2-5.6-3.2-4.8zm0-15.2h-6.4l-3.2 5.6 3.2 4.8h6.4l3.2-4.8-3.2-5.6zm0-15.1h-6.4l-3.2 5.6 3.2 4.8h6.4l3.2-4.8-3.2-5.6zm-26.3 30.3h-5.6l-3.2 4.8 3.2 5.6h5.6l3.2-5.6-3.2-4.8zm0-15.2h-5.6l-3.2 5.6 3.2 4.8h5.6l3.2-4.8-3.2-5.6zm0-15.1h-5.6l-3.2 5.6 3.2 4.8h5.6l3.2-4.8-3.2-5.6zm-25.5 30.3h-6.4l-2.4 4.8 2.4 5.6h6.4l3.2-5.6-3.2-4.8zm0-15.2h-6.4l-2.4 5.6 2.4 4.8h6.4l3.2-4.8-3.2-5.6zm0-15.1h-6.4l-2.4 5.6 2.4 4.8h6.4l3.2-4.8-3.2-5.6zm-25.5 30.3h-6.4l-3.2 4.8 3.2 5.6h6.4l3.2-5.6-3.2-4.8zm0-15.2h-6.4l-3.2 5.6 3.2 4.8h6.4l3.2-4.8-3.2-5.6zm0-15.1h-6.4l-3.2 5.6 3.2 4.8h6.4l3.2-4.8-3.2-5.6zm-25.5 30.3h-6.4l-3.2 4.8 3.2 5.6h6.4l2.4-5.6-2.4-4.8zm0-15.2h-6.4l-3.2 5.6 3.2 4.8h6.4l2.4-4.8-2.4-5.6zm0-15.1h-6.4l-3.2 5.6 3.2 4.8h6.4l2.4-4.8-2.4-5.6zm-26.3 30.3h-5.6l-3.2 4.8 3.2 5.6h5.6l3.2-5.6-3.2-4.8zm0-15.2h-5.6l-3.2 5.6 3.2 4.8h5.6l3.2-4.8-3.2-5.6zm0-15.1h-5.6l-3.2 5.6 3.2 4.8h5.6l3.2-4.8-3.2-5.6zm-25.5 30.3h-6.4l-3.2 4.8 3.2 5.6h6.4l3.2-5.6-3.2-4.8zm0-15.2h-6.4l-3.2 5.6 3.2 4.8h6.4l3.2-4.8-3.2-5.6zm0-15.1h-6.4l-3.2 5.6 3.2 4.8h6.4l3.2-4.8-3.2-5.6zm-25.5 30.3h-6.4l-3.2 4.8 3.2 5.6h6.4l2.4-5.6-2.4-4.8zm0-15.2h-6.4l-3.2 5.6 3.2 4.8h6.4l2.4-4.8-2.4-5.6zm0-15.1h-6.4l-3.2 5.6 3.2 4.8h6.4l2.4-4.8-2.4-5.6zm-26.3 30.3h-5.6l-3.2 4.8 3.2 5.6h5.6l3.2-5.6-3.2-4.8zm0-15.2h-5.6l-3.2 5.6 3.2 4.8h5.6l3.2-4.8-3.2-5.6zm0-15.1h-5.6l-3.2 5.6 3.2 4.8h5.6l3.2-4.8-3.2-5.6zm-25.5 30.3h-6.4l-2.4 4.8 2.4 5.6h6.4l3.2-5.6-3.2-4.8zm0-15.2h-6.4l-2.4 5.6 2.4 4.8h6.4l3.2-4.8-3.2-5.6zm0-15.1h-6.4l-2.4 5.6 2.4 4.8h6.4l3.2-4.8-3.2-5.6zm-25.6 30.3h-6.4l-3.2 4.8 3.2 5.6h6.4l3.2-5.6-3.2-4.8zm0-15.2h-6.4l-3.2 5.6 3.2 4.8h6.4l3.2-4.8-3.2-5.6zm0-15.1h-6.4l-3.2 5.6 3.2 4.8h6.4l3.2-4.8-3.2-5.6zm-26.3 30.3h-5.6l-3.2 4.8 3.2 5.6h5.6l3.2-5.6-3.2-4.8zm0-15.2h-5.6l-3.2 5.6 3.2 4.8h5.6l3.2-4.8-3.2-5.6zm0-15.1h-5.6l-3.2 5.6 3.2 4.8h5.6l3.2-4.8-3.2-5.6zm-25.5 30.3h-6.4l-2.4 4.8 2.4 5.6h6.4l3.2-5.6-3.2-4.8zm0-15.2h-6.4l-2.4 5.6 2.4 4.8h6.4l3.2-4.8-3.2-5.6zm0-15.1h-6.4l-2.4 5.6 2.4 4.8h6.4l3.2-4.8-3.2-5.6zm-25.5 30.3h-6.4l-3.2 4.8 3.2 5.6h6.4l3.2-5.6-3.2-4.8zm0-15.2h-6.4l-3.2 5.6 3.2 4.8h6.4l3.2-4.8-3.2-5.6zm0-15.1h-6.4l-3.2 5.6 3.2 4.8h6.4l3.2-4.8-3.2-5.6zm-25.5 30.3h-6.4l-3.2 4.8 3.2 5.6h6.4l2.4-5.6-2.4-4.8zm0-15.2h-6.4l-3.2 5.6 3.2 4.8h6.4l2.4-4.8-2.4-5.6zm0-15.1h-6.4l-3.2 5.6 3.2 4.8h6.4l2.4-4.8-2.4-5.6zm-26.3 30.3h-5.6l-3.2 4.8 3.2 5.6h5.6l3.2-5.6-3.2-4.8zm0-15.2h-5.6l-3.2 5.6 3.2 4.8h5.6l3.2-4.8-3.2-5.6zm0-15.1h-5.6l-3.2 5.6 3.2 4.8h5.6l3.2-4.8-3.2-5.6zm759.6 22.3h-6.4l-2.4 5.6 2.4 4.8h6.4l3.2-4.8-3.2-5.6zm0-14.4h-6.4l-2.4 5.6 2.4 4.8h6.4l3.2-4.8-3.2-5.6zm-25.5 14.4h-6.4l-3.2 5.6 3.2 4.8h6.4l3.2-4.8-3.2-5.6zm0-14.4h-6.4l-3.2 5.6 3.2 4.8h6.4l3.2-4.8-3.2-5.6zm-26.3 14.4h-5.6l-3.2 5.6 3.2 4.8h5.6l3.2-4.8-3.2-5.6zm0-14.4h-5.6l-3.2 5.6 3.2 4.8h5.6l3.2-4.8-3.2-5.6zm-25.5 14.4h-6.4l-2.4 5.6 2.4 4.8h6.4l3.2-4.8-3.2-5.6zm0-14.4h-6.4l-2.4 5.6 2.4 4.8h6.4l3.2-4.8-3.2-5.6zm-25.5 14.4h-6.4l-3.2 5.6 3.2 4.8h6.4l3.2-4.8-3.2-5.6zm0-14.4h-6.4l-3.2 5.6 3.2 4.8h6.4l3.2-4.8-3.2-5.6zm-25.5 14.4h-6.4l-3.2 5.6 3.2 4.8h6.4l2.4-4.8-2.4-5.6zm0-14.4h-6.4l-3.2 5.6 3.2 4.8h6.4l2.4-4.8-2.4-5.6zm-26.3 14.4h-5.6l-3.2 5.6 3.2 4.8h5.6l3.2-4.8-3.2-5.6zm0-14.4h-5.6l-3.2 5.6 3.2 4.8h5.6l3.2-4.8-3.2-5.6zm-25.5 14.4h-6.4l-3.2 5.6 3.2 4.8h6.4l3.2-4.8-3.2-5.6zm0-14.4h-6.4l-3.2 5.6 3.2 4.8h6.4l3.2-4.8-3.2-5.6zm-25.5 14.4h-6.4l-3.2 5.6 3.2 4.8h6.4l2.4-4.8-2.4-5.6zm0-14.4h-6.4l-3.2 5.6 3.2 4.8h6.4l2.4-4.8-2.4-5.6zm-26.3 14.4h-5.6l-3.2 5.6 3.2 4.8h5.6l3.2-4.8-3.2-5.6zm0-14.4h-5.6l-3.2 5.6 3.2 4.8h5.6l3.2-4.8-3.2-5.6zm-25.6 14.4h-6.4l-2.4 5.6 2.4 4.8h6.4l3.2-4.8-3.2-5.6zm0-14.4h-6.4l-2.4 5.6 2.4 4.8h6.4l3.2-4.8-3.2-5.6zm-25.5 14.4h-6.4l-3.2 5.6 3.2 4.8h6.4l3.2-4.8-3.2-5.6zm0-14.4h-6.4l-3.2 5.6 3.2 4.8h6.4l3.2-4.8-3.2-5.6zm-26.3 14.4h-5.6l-3.2 5.6 3.2 4.8h5.6l3.2-4.8-3.2-5.6zm0-14.4h-5.6l-3.2 5.6 3.2 4.8h5.6l3.2-4.8-3.2-5.6zm-25.5 14.4h-6.4l-2.4 5.6 2.4 4.8h6.4l3.2-4.8-3.2-5.6zm0-14.4h-6.4l-2.4 5.6 2.4 4.8h6.4l3.2-4.8-3.2-5.6zm-25.5 14.4h-6.4l-3.2 5.6 3.2 4.8h6.4l3.2-4.8-3.2-5.6zm0-14.4h-6.4l-3.2 5.6 3.2 4.8h6.4l3.2-4.8-3.2-5.6zm-25.5 14.4h-6.4l-3.2 5.6 3.2 4.8h6.4l2.4-4.8-2.4-5.6zm0-14.4h-6.4l-3.2 5.6 3.2 4.8h6.4l2.4-4.8-2.4-5.6zm-26.3 14.4h-5.6l-3.2 5.6 3.2 4.8h5.6l3.2-4.8-3.2-5.6zm0-14.4h-5.6l-3.2 5.6 3.2 4.8h5.6l3.2-4.8-3.2-5.6zm-25.5 14.4h-6.4l-3.2 5.6 3.2 4.8h6.4l3.2-4.8-3.2-5.6zm0-14.4h-6.4l-3.2 5.6 3.2 4.8h6.4l3.2-4.8-3.2-5.6zm-25.5 14.4h-6.4l-3.2 5.6 3.2 4.8h6.4l2.4-4.8-2.4-5.6zm0-14.4h-6.4l-3.2 5.6 3.2 4.8h6.4l2.4-4.8-2.4-5.6zm-26.3 14.4h-5.6l-3.2 5.6 3.2 4.8h5.6l3.2-4.8-3.2-5.6zm0-14.4h-5.6l-3.2 5.6 3.2 4.8h5.6l3.2-4.8-3.2-5.6zm-25.5 14.4h-6.4l-2.4 5.6 2.4 4.8h6.4l3.2-4.8-3.2-5.6zm0-14.4h-6.4l-2.4 5.6 2.4 4.8h6.4l3.2-4.8-3.2-5.6zm-25.5 14.4h-6.4l-3.2 5.6 3.2 4.8h6.4l3.2-4.8-3.2-5.6zm0-14.4h-6.4l-3.2 5.6 3.2 4.8h6.4l3.2-4.8-3.2-5.6zm-26.3 14.4h-5.6l-3.2 5.6 3.2 4.8h5.6l3.2-4.8-3.2-5.6zm0-14.4h-5.6l-3.2 5.6 3.2 4.8h5.6l3.2-4.8-3.2-5.6zm-25.5 14.4h-5.6l-3.2 5.6 3.2 4.8h5.6l3.2-4.8-3.2-5.6zm0-14.4h-5.6l-3.2 5.6 3.2 4.8h5.6l3.2-4.8-3.2-5.6zm-25.5 14.4h-6.4l-3.2 5.6 3.2 4.8h6.4l3.2-4.8-3.2-5.6zm0-14.4h-6.4l-3.2 5.6 3.2 4.8h6.4l3.2-4.8-3.2-5.6zm-25.5 14.4h-6.4l-3.2 5.6 3.2 4.8h6.4l2.4-4.8-2.4-5.6zm0-14.4h-6.4l-3.2 5.6 3.2 4.8h6.4l2.4-4.8-2.4-5.6zm-26.3 14.4h-5.6l-3.2 5.6 3.2 4.8h5.6l3.2-4.8-3.2-5.6zm0-14.4h-5.6l-3.2 5.6 3.2 4.8h5.6l3.2-4.8-3.2-5.6zm-25.5 14.4h-6.4l-2.4 5.6 2.4 4.8h6.4l3.2-4.8-3.2-5.6zm0-14.4h-6.4l-2.4 5.6 2.4 4.8h6.4l3.2-4.8-3.2-5.6zm-25.5 14.4h-6.4l-3.2 5.6 3.2 4.8h6.4l3.2-4.8-3.2-5.6zm0-14.4h-6.4l-3.2 5.6 3.2 4.8h6.4l3.2-4.8-3.2-5.6zm-26.3 14.4h-5.6l-3.2 5.6 3.2 4.8h5.6l3.2-4.8-3.2-5.6zm0-14.4h-5.6l-3.2 5.6 3.2 4.8h5.6l3.2-4.8-3.2-5.6z" /><path
       id="NCS-5508-Front_brect415"
       class="NCS-5508-Frontst15"
       d="M71.7 2121.8h6.4v57.4h-6.4z" /><g
       id="NCS-5508-Front_bg417"><path
         id="NCS-5508-Front_bpath419"
         class="NCS-5508-Frontst1"
         d="M77.1 2122.8v55.4h-4.4v-55.4h4.4m1-1h-6.4v57.4h6.4v-57.4z" /></g><g
       id="NCS-5508-Front_bg421"><g
         id="NCS-5508-Front_bg423"><path
           id="NCS-5508-Front_bpath425"
           class="NCS-5508-Frontst6"
           d="M115.4 2164.5c-7.2 0-13-5.8-13-13s5.8-13 13-13 13 5.8 13 13-5.8 13-13 13z" /></g><g
         id="NCS-5508-Front_bg427"><path
           id="NCS-5508-Front_bpath429"
           class="NCS-5508-Frontst18"
           d="M115.4 2161c-5.2 0-9.5-4.3-9.5-9.5s4.3-9.5 9.5-9.5 9.5 4.3 9.5 9.5-4.3 9.5-9.5 9.5z" /><path
           id="NCS-5508-Front_bpath431"
           class="NCS-5508-Frontst1"
           d="M115.4 2142.5c5 0 9 4 9 9s-4 9-9 9-9-4-9-9 4-9 9-9m0-1c-5.5 0-10 4.5-10 10s4.5 10 10 10 10-4.5 10-10-4.5-10-10-10z" /></g><circle
         id="NCS-5508-Front_bcircle433"
         class="NCS-5508-Frontst11"
         cx="115.4"
         cy="2151.5"
         r="4" /></g><g
       id="NCS-5508-Front_bg435"><g
         id="NCS-5508-Front_bg437"><path
           id="NCS-5508-Front_bpath439"
           class="NCS-5508-Frontst6"
           d="M1693.4 2164.5c-7.2 0-13-5.8-13-13s5.8-13 13-13 13 5.8 13 13-5.8 13-13 13z" /></g><g
         id="NCS-5508-Front_bg441"><path
           id="NCS-5508-Front_bpath443"
           class="NCS-5508-Frontst18"
           d="M1693.4 2161c-5.2 0-9.5-4.3-9.5-9.5s4.3-9.5 9.5-9.5 9.5 4.3 9.5 9.5-4.3 9.5-9.5 9.5z" /><path
           id="NCS-5508-Front_bpath445"
           class="NCS-5508-Frontst1"
           d="M1693.4 2142.5c5 0 9 4 9 9s-4 9-9 9-9-4-9-9 4-9 9-9m0-1c-5.5 0-10 4.5-10 10s4.5 10 10 10 10-4.5 10-10-4.5-10-10-10z" /></g><circle
         id="NCS-5508-Front_bcircle447"
         class="NCS-5508-Frontst11"
         cx="1693.4"
         cy="2151.5"
         r="4" /></g></g><g
     id="NCS-5508-Front_bg449"><g
       id="NCS-5508-Front_bg451"><path
         id="NCS-5508-Front_bpath453"
         d="M478.9 1596.2c.9-.2 2.1-.3 3.7-.3 1.9 0 3.3.4 4.2 1.2.8.7 1.3 1.8 1.3 3.1s-.4 2.4-1.1 3.2c-1 1.1-2.7 1.6-4.5 1.6-.6 0-1.1 0-1.5-.1v5.9h-1.9v-14.6h-.2zm1.9 7.1c.4.1.9.2 1.6.2 2.3 0 3.7-1.1 3.7-3.2 0-2-1.4-2.9-3.5-2.9-.8 0-1.5.1-1.8.2v5.7z" /><path
         id="NCS-5508-Front_bpath455"
         d="M490.4 1608.5c.9.5 2.1 1 3.4 1 2 0 3.1-1 3.1-2.5 0-1.4-.8-2.2-2.8-2.9-2.4-.9-3.9-2.1-3.9-4.2 0-2.3 1.9-4 4.8-4 1.5 0 2.6.4 3.3.7l-.5 1.6c-.5-.3-1.5-.7-2.8-.7-2 0-2.8 1.2-2.8 2.2 0 1.4.9 2.1 2.9 2.9 2.5 1 3.8 2.2 3.8 4.4 0 2.3-1.7 4.3-5.2 4.3-1.4 0-3-.4-3.8-.9l.5-1.9z" /><path
         id="NCS-5508-Front_bpath457"
         d="M524.3 1603.5c0 4.9-1.8 7.5-5 7.5-2.8 0-4.7-2.6-4.7-7.3 0-4.8 2.1-7.4 5-7.4 3 0 4.7 2.7 4.7 7.2zm-7.8.2c0 3.7 1.1 5.8 2.9 5.8 2 0 2.9-2.3 2.9-6 0-3.5-.9-5.8-2.9-5.8-1.7.1-2.9 2.2-2.9 6z" /></g><g
       id="NCS-5508-Front_bg459"><path
         id="NCS-5508-Front_bpath461"
         d="M130.6 1450.7c1-.2 2.4-.3 3.7-.3 2 0 3.4.4 4.3 1.2.7.7 1.2 1.7 1.2 2.8 0 2-1.2 3.3-2.8 3.8v.1c1.1.4 1.8 1.5 2.2 3 .5 2.1.8 3.5 1.1 4.1h-2c-.2-.4-.6-1.7-1-3.5-.4-2-1.2-2.8-3-2.9h-1.8v6.4h-1.9v-14.7zm1.9 6.8h2c2 0 3.3-1.1 3.3-2.8 0-1.9-1.4-2.8-3.4-2.8-.9 0-1.6.1-1.9.2v5.4z" /><path
         id="NCS-5508-Front_bpath463"
         d="M142.4 1450.7c.9-.2 2.1-.3 3.7-.3 1.9 0 3.3.4 4.2 1.2.8.7 1.3 1.8 1.3 3.1s-.4 2.4-1.1 3.2c-1 1.1-2.7 1.6-4.5 1.6-.6 0-1.1 0-1.5-.1v5.9h-1.9v-14.6h-.2zm1.9 7.1c.4.1.9.2 1.6.2 2.3 0 3.7-1.1 3.7-3.2 0-2-1.4-2.9-3.5-2.9-.8 0-1.5.1-1.8.2v5.7z" /><path
         id="NCS-5508-Front_bpath465"
         d="M167.6 1458c0 4.9-1.8 7.5-5 7.5-2.8 0-4.7-2.6-4.7-7.3 0-4.8 2.1-7.4 5-7.4 3 0 4.7 2.7 4.7 7.2zm-7.7.3c0 3.7 1.1 5.8 2.9 5.8 2 0 2.9-2.3 2.9-6 0-3.5-.9-5.8-2.9-5.8-1.7 0-2.9 2.1-2.9 6z" /></g><g
       id="NCS-5508-Front_bg467"><path
         id="NCS-5508-Front_bpath469"
         d="M1669.5 1450.7c1-.2 2.4-.3 3.7-.3 2 0 3.4.4 4.3 1.2.7.7 1.2 1.7 1.2 2.8 0 2-1.2 3.3-2.8 3.8v.1c1.1.4 1.8 1.5 2.2 3 .5 2.1.8 3.5 1.1 4.1h-2c-.2-.4-.6-1.7-1-3.5-.4-2-1.2-2.8-3-2.9h-1.8v6.4h-1.9v-14.7zm1.9 6.8h2c2 0 3.3-1.1 3.3-2.8 0-1.9-1.4-2.8-3.4-2.8-.9 0-1.6.1-1.9.2v5.4z" /><path
         id="NCS-5508-Front_bpath471"
         d="M1681.4 1450.7c.9-.2 2.1-.3 3.7-.3 1.9 0 3.3.4 4.2 1.2.8.7 1.3 1.8 1.3 3.1s-.4 2.4-1.1 3.2c-1 1.1-2.7 1.6-4.5 1.6-.6 0-1.1 0-1.5-.1v5.9h-1.9v-14.6h-.2zm1.9 7.1c.4.1.9.2 1.6.2 2.3 0 3.7-1.1 3.7-3.2 0-2-1.4-2.9-3.5-2.9-.8 0-1.5.1-1.8.2v5.7z" /><path
         id="NCS-5508-Front_bpath473"
         d="M1701.2 1452.8l-2.5 1.3-.4-1.5 3.1-1.7h1.7v14.3h-1.9v-12.4z" /></g><g
       id="NCS-5508-Front_bg475"><path
         id="NCS-5508-Front_bpath477"
         d="M640.6 1596.2c.9-.2 2.1-.3 3.7-.3 1.9 0 3.3.4 4.2 1.2.8.7 1.3 1.8 1.3 3.1s-.4 2.4-1.1 3.2c-1 1.1-2.7 1.6-4.5 1.6-.6 0-1.1 0-1.5-.1v5.9h-1.9v-14.6h-.2zm1.9 7.1c.4.1.9.2 1.6.2 2.3 0 3.7-1.1 3.7-3.2 0-2-1.4-2.9-3.5-2.9-.8 0-1.5.1-1.8.2v5.7z" /><path
         id="NCS-5508-Front_bpath479"
         d="M652 1608.5c.9.5 2.1 1 3.4 1 2 0 3.1-1 3.1-2.5 0-1.4-.8-2.2-2.8-2.9-2.4-.9-3.9-2.1-3.9-4.2 0-2.3 1.9-4 4.8-4 1.5 0 2.6.4 3.3.7l-.5 1.6c-.5-.3-1.5-.7-2.8-.7-2 0-2.8 1.2-2.8 2.2 0 1.4.9 2.1 2.9 2.9 2.5 1 3.8 2.2 3.8 4.4 0 2.3-1.7 4.3-5.2 4.3-1.4 0-3-.4-3.8-.9l.5-1.9z" /><path
         id="NCS-5508-Front_bpath481"
         d="M680.7 1598.3l-2.5 1.3-.4-1.5 3.1-1.7h1.7v14.3h-1.9v-12.4z" /></g><g
       id="NCS-5508-Front_bg483"><path
         id="NCS-5508-Front_bpath485"
         d="M802.3 1596.2c.9-.2 2.1-.3 3.7-.3 1.9 0 3.3.4 4.2 1.2.8.7 1.3 1.8 1.3 3.1s-.4 2.4-1.1 3.2c-1 1.1-2.7 1.6-4.5 1.6-.6 0-1.1 0-1.5-.1v5.9h-1.9v-14.6h-.2zm1.9 7.1c.4.1.9.2 1.6.2 2.3 0 3.7-1.1 3.7-3.2 0-2-1.4-2.9-3.5-2.9-.8 0-1.5.1-1.8.2v5.7z" /><path
         id="NCS-5508-Front_bpath487"
         d="M813.7 1608.5c.9.5 2.1 1 3.4 1 2 0 3.1-1 3.1-2.5 0-1.4-.8-2.2-2.8-2.9-2.4-.9-3.9-2.1-3.9-4.2 0-2.3 1.9-4 4.8-4 1.5 0 2.6.4 3.3.7l-.5 1.6c-.5-.3-1.5-.7-2.8-.7-2 0-2.8 1.2-2.8 2.2 0 1.4.9 2.1 2.9 2.9 2.5 1 3.8 2.2 3.8 4.4 0 2.3-1.7 4.3-5.2 4.3-1.4 0-3-.4-3.8-.9l.5-1.9z" /><path
         id="NCS-5508-Front_bpath489"
         d="M838.2 1610.8v-1.2l1.5-1.5c3.7-3.5 5.3-5.3 5.3-7.5 0-1.5-.7-2.8-2.8-2.8-1.3 0-2.4.7-3 1.2l-.6-1.4c1-.8 2.4-1.5 4-1.5 3.1 0 4.4 2.1 4.4 4.2 0 2.6-1.9 4.8-4.9 7.7l-1.1 1.1h6.4v1.6h-9.2v.1z" /></g><g
       id="NCS-5508-Front_bg491"><path
         id="NCS-5508-Front_bpath493"
         d="M964 1596.2c.9-.2 2.1-.3 3.7-.3 1.9 0 3.3.4 4.2 1.2.8.7 1.3 1.8 1.3 3.1s-.4 2.4-1.1 3.2c-1 1.1-2.7 1.6-4.5 1.6-.6 0-1.1 0-1.5-.1v5.9H964v-14.6zm1.9 7.1c.4.1.9.2 1.6.2 2.3 0 3.7-1.1 3.7-3.2 0-2-1.4-2.9-3.5-2.9-.8 0-1.5.1-1.8.2v5.7z" /><path
         id="NCS-5508-Front_bpath495"
         d="M975.4 1608.5c.9.5 2.1 1 3.4 1 2 0 3.1-1 3.1-2.5 0-1.4-.8-2.2-2.8-2.9-2.4-.9-3.9-2.1-3.9-4.2 0-2.3 1.9-4 4.8-4 1.5 0 2.6.4 3.3.7l-.5 1.6c-.5-.3-1.5-.7-2.8-.7-2 0-2.8 1.2-2.8 2.2 0 1.4.9 2.1 2.9 2.9 2.5 1 3.8 2.2 3.8 4.4 0 2.3-1.7 4.3-5.2 4.3-1.4 0-3-.4-3.8-.9l.5-1.9z" /><path
         id="NCS-5508-Front_bpath497"
         d="M1000.3 1608.6c.5.4 1.8.9 3.2.9 2.5 0 3.3-1.6 3.2-2.8 0-2-1.8-2.9-3.7-2.9h-1.1v-1.5h1.1c1.4 0 3.2-.7 3.2-2.4 0-1.1-.7-2.2-2.5-2.2-1.1 0-2.2.5-2.9.9l-.5-1.4c.7-.5 2.2-1.1 3.7-1.1 2.8 0 4.1 1.7 4.1 3.4 0 1.5-.9 2.7-2.6 3.4 1.8.4 3.2 1.7 3.2 3.7 0 2.3-1.8 4.3-5.2 4.3-1.6 0-3-.5-3.7-1l.5-1.3z" /></g><g
       id="NCS-5508-Front_bg499"><path
         id="NCS-5508-Front_bpath501"
         d="M1125.7 1596.2c.9-.2 2.1-.3 3.7-.3 1.9 0 3.3.4 4.2 1.2.8.7 1.3 1.8 1.3 3.1s-.4 2.4-1.1 3.2c-1 1.1-2.7 1.6-4.5 1.6-.6 0-1.1 0-1.5-.1v5.9h-1.9v-14.6h-.2zm1.9 7.1c.4.1.9.2 1.6.2 2.3 0 3.7-1.1 3.7-3.2 0-2-1.4-2.9-3.5-2.9-.8 0-1.5.1-1.8.2v5.7z" /><path
         id="NCS-5508-Front_bpath503"
         d="M1137.1 1608.5c.9.5 2.1 1 3.4 1 2 0 3.1-1 3.1-2.5 0-1.4-.8-2.2-2.8-2.9-2.4-.9-3.9-2.1-3.9-4.2 0-2.3 1.9-4 4.8-4 1.5 0 2.6.4 3.3.7l-.5 1.6c-.5-.3-1.5-.7-2.8-.7-2 0-2.8 1.2-2.8 2.2 0 1.4.9 2.1 2.9 2.9 2.5 1 3.8 2.2 3.8 4.4 0 2.3-1.7 4.3-5.2 4.3-1.4 0-3-.4-3.8-.9l.5-1.9z" /><path
         id="NCS-5508-Front_bpath505"
         d="M1167.5 1610.8v-3.9h-6.6v-1.3l6.4-9.1h2.1v8.9h2v1.5h-2v3.9h-1.9zm0-5.4v-4.8c0-.7 0-1.5.1-2.2h-.1c-.4.8-.8 1.5-1.2 2.1l-3.5 4.9h4.7z" /></g><g
       id="NCS-5508-Front_bg507"><path
         id="NCS-5508-Front_bpath509"
         d="M1287.4 1596.2c.9-.2 2.1-.3 3.7-.3 1.9 0 3.3.4 4.2 1.2.8.7 1.3 1.8 1.3 3.1s-.4 2.4-1.1 3.2c-1 1.1-2.7 1.6-4.5 1.6-.6 0-1.1 0-1.5-.1v5.9h-1.9v-14.6h-.2zm1.9 7.1c.4.1.9.2 1.6.2 2.3 0 3.7-1.1 3.7-3.2 0-2-1.4-2.9-3.5-2.9-.8 0-1.5.1-1.8.2v5.7z" /><path
         id="NCS-5508-Front_bpath511"
         d="M1298.8 1608.5c.9.5 2.1 1 3.4 1 2 0 3.1-1 3.1-2.5 0-1.4-.8-2.2-2.8-2.9-2.4-.9-3.9-2.1-3.9-4.2 0-2.3 1.9-4 4.8-4 1.5 0 2.6.4 3.3.7l-.5 1.6c-.5-.3-1.5-.7-2.8-.7-2 0-2.8 1.2-2.8 2.2 0 1.4.9 2.1 2.9 2.9 2.5 1 3.8 2.2 3.8 4.4 0 2.3-1.7 4.3-5.2 4.3-1.4 0-3-.4-3.8-.9l.5-1.9z" /><path
         id="NCS-5508-Front_bpath513"
         d="M1331.8 1598.2h-5.5l-.5 3.7c.3 0 .6-.1 1.2-.1 1.1 0 2.2.2 3.1.8 1.1.6 2 1.9 2 3.7 0 2.8-2.2 4.9-5.3 4.9-1.6 0-2.9-.4-3.6-.9l.5-1.5c.6.4 1.8.8 3.1.8 1.8 0 3.4-1.2 3.4-3.1 0-1.8-1.3-3.2-4.1-3.2-.8 0-1.5.1-2 .2l.9-6.9h6.8v1.6z" /></g><g
       id="NCS-5508-Front_bg515"><path
         id="NCS-5508-Front_bpath517"
         d="M1449.1 1596.2c.9-.2 2.1-.3 3.7-.3 1.9 0 3.3.4 4.2 1.2.8.7 1.3 1.8 1.3 3.1s-.4 2.4-1.1 3.2c-1 1.1-2.7 1.6-4.5 1.6-.6 0-1.1 0-1.5-.1v5.9h-1.9v-14.6h-.2zm1.9 7.1c.4.1.9.2 1.6.2 2.3 0 3.7-1.1 3.7-3.2 0-2-1.4-2.9-3.5-2.9-.8 0-1.5.1-1.8.2v5.7z" /><path
         id="NCS-5508-Front_bpath519"
         d="M1460.5 1608.5c.9.5 2.1 1 3.4 1 2 0 3.1-1 3.1-2.5 0-1.4-.8-2.2-2.8-2.9-2.4-.9-3.9-2.1-3.9-4.2 0-2.3 1.9-4 4.8-4 1.5 0 2.6.4 3.3.7l-.5 1.6c-.5-.3-1.5-.7-2.8-.7-2 0-2.8 1.2-2.8 2.2 0 1.4.9 2.1 2.9 2.9 2.5 1 3.8 2.2 3.8 4.4 0 2.3-1.7 4.3-5.2 4.3-1.4 0-3-.4-3.8-.9l.5-1.9z" /><path
         id="NCS-5508-Front_bpath521"
         d="M1493.1 1597.9c-.4 0-.9 0-1.5.1-3 .5-4.6 2.7-5 5.1h.1c.7-.9 1.9-1.7 3.5-1.7 2.5 0 4.3 1.8 4.3 4.6 0 2.6-1.8 5-4.8 5-3.1 0-5.1-2.4-5.1-6.1 0-2.8 1-5 2.4-6.4 1.2-1.2 2.8-1.9 4.6-2.1.6-.1 1.1-.1 1.4-.1l.1 1.6zm-.6 8.2c0-2-1.2-3.3-2.9-3.3-1.2 0-2.2.7-2.8 1.8-.1.2-.2.5-.2.9 0 2.4 1.1 4.1 3.1 4.1 1.7 0 2.8-1.4 2.8-3.5z" /></g><g
       id="NCS-5508-Front_bg523"><path
         id="NCS-5508-Front_bpath525"
         d="M1610.7 1596.2c.9-.2 2.1-.3 3.7-.3 1.9 0 3.3.4 4.2 1.2.8.7 1.3 1.8 1.3 3.1s-.4 2.4-1.1 3.2c-1 1.1-2.7 1.6-4.5 1.6-.6 0-1.1 0-1.5-.1v5.9h-1.9v-14.6h-.2zm2 7.1c.4.1.9.2 1.6.2 2.3 0 3.7-1.1 3.7-3.2 0-2-1.4-2.9-3.5-2.9-.8 0-1.5.1-1.8.2v5.7z" /><path
         id="NCS-5508-Front_bpath527"
         d="M1622.2 1608.5c.9.5 2.1 1 3.4 1 2 0 3.1-1 3.1-2.5 0-1.4-.8-2.2-2.8-2.9-2.4-.9-3.9-2.1-3.9-4.2 0-2.3 1.9-4 4.8-4 1.5 0 2.6.4 3.3.7l-.5 1.6c-.5-.3-1.5-.7-2.8-.7-2 0-2.8 1.2-2.8 2.2 0 1.4.9 2.1 2.9 2.9 2.5 1 3.8 2.2 3.8 4.4 0 2.3-1.7 4.3-5.2 4.3-1.4 0-3-.4-3.8-.9l.5-1.9z" /><path
         id="NCS-5508-Front_bpath529"
         d="M1655.9 1596.5v1.3l-6.2 13h-2l6.2-12.7h-7v-1.6h9z" /></g></g><text
     xml:space="preserve"
     style="font-style:normal;font-weight:normal;font-size:40px;line-height:1.25;font-family:sans-serif;fill:#000000;fill-opacity:1;stroke:none"
     x="613.79016"
     y="1320.9832"
     id="text264"><tspan
       sodipodi:role="line"
       id="tspan262"
       x="613.79016"
       y="1320.9832" /></text></svg>
