<?xml version="1.0" encoding="UTF-8" standalone="no"?>
<svg
   xmlns:dc="http://purl.org/dc/elements/1.1/"
   xmlns:cc="http://creativecommons.org/ns#"
   xmlns:rdf="http://www.w3.org/1999/02/22-rdf-syntax-ns#"
   xmlns:svg="http://www.w3.org/2000/svg"
   xmlns="http://www.w3.org/2000/svg"
   xmlns:sodipodi="http://sodipodi.sourceforge.net/DTD/sodipodi-0.dtd"
   xmlns:inkscape="http://www.inkscape.org/namespaces/inkscape"
   version="1.1"
   id="A9K-FILLER-LCLayer_2"
   x="0"
   y="0"
   viewBox="0 0 2779.5 310.5"
   xml:space="preserve"
   width="2779.5"
   height="310.5"
   sodipodi:docname="A9K-FILLER-LC.svg"
   inkscape:version="0.92.1 r15371"><metadata
     id="metadata34"><rdf:RDF><cc:Work
         rdf:about=""><dc:format>image/svg+xml</dc:format><dc:type
           rdf:resource="http://purl.org/dc/dcmitype/StillImage" /></cc:Work></rdf:RDF></metadata><defs
     id="defs32" /><sodipodi:namedview
     pagecolor="#ffffff"
     bordercolor="#666666"
     borderopacity="1"
     objecttolerance="10"
     gridtolerance="10"
     guidetolerance="10"
     inkscape:pageopacity="0"
     inkscape:pageshadow="2"
     inkscape:window-width="1920"
     inkscape:window-height="986"
     id="namedview30"
     showgrid="false"
     inkscape:zoom="0.62996951"
     inkscape:cx="1389.7569"
     inkscape:cy="155.26245"
     inkscape:window-x="-11"
     inkscape:window-y="-11"
     inkscape:window-maximized="1"
     inkscape:current-layer="A9K-FILLER-LCLayer_2" /><style
     type="text/css"
     id="A9K-FILLER-LCstyle3">.stA9K-FILLER-LC1{fill:gray}.stA9K-FILLER-LC3{fill-rule:evenodd;clip-rule:evenodd;fill:#d8d8d8}.stA9K-FILLER-LC4{fill:#a5a5a5}.stA9K-FILLER-LC5,.stA9K-FILLER-LC6{fill:none;stroke:#a5a5a5;stroke-width:1.4893;stroke-linecap:round;stroke-linejoin:round;stroke-miterlimit:2}.stA9K-FILLER-LC6{stroke-width:5.9574}</style><g
     id="A9K-FILLER-LCg5"
     transform="matrix(.99982 0 0 1.00161 .507 -.012)"><path
       d="M2779.5 290.5c0 10.8-8.7 19.5-19.5 19.5H20C9.2 310 .5 301.3.5 290.5v-270C.5 9.7 9.2 1 20 1h2740c10.8 0 19.5 8.7 19.5 19.5v270z"
       id="A9K-FILLER-LCpath7"
       style="clip-rule:evenodd;fill:#eee;fill-rule:evenodd" /><path
       class="stA9K-FILLER-LC1"
       d="M2759.5 1c10.5 0 19 8.5 19 19v270c0 10.5-8 19-18.5 19H20C9.5 309 .5 300.5.5 290V20C.5 9.5 9.5 1 20 1h2739.5m.5-1H20C9 0-.5 9-.5 20v270c0 11 9.5 20 20.5 20h2740c11 0 19.5-9 19.5-20V20c0-11-8.7-20-19.8-20h.3z"
       id="A9K-FILLER-LCpath9"
       style="fill:gray" /></g><g
     id="A9K-FILLER-LCg11"
     transform="matrix(.99982 0 0 1.00161 .507 -.012)"><path
       d="M31 299.5c-11.3 0-20.5-9.2-20.5-20.5V31c0-11.3 9.2-20.5 20.5-20.5h2718c11.3 0 20.5 9.2 20.5 20.5v248c0 11.3-9.2 20.5-20.5 20.5H31z"
       id="A9K-FILLER-LCpath13"
       style="clip-rule:evenodd;fill:#bfbfbf;fill-rule:evenodd" /><path
       class="stA9K-FILLER-LC1"
       d="M2749 11c11 0 20 9 20 20v248c0 11-9 20-20 20H31c-11 0-20-9-20-20V31c0-11 9-20 20-20h2718m0-1H31c-11.6 0-21 9.4-21 21v248c0 11.6 9.4 21 21 21h2718c11.6 0 21-9.4 21-21V31c0-11.6-9.4-21-21-21z"
       id="A9K-FILLER-LCpath15"
       style="fill:gray" /></g><g
     id="A9K-FILLER-LCg17"
     transform="matrix(.99982 0 0 1.00161 .507 -.012)"><g
       id="A9K-FILLER-LCg19"><path
         class="stA9K-FILLER-LC3"
         d="M1.5 163v-50h56.9c13.5 0 24.5 11.1 24.5 25 0 14.1-10.3 25-23.5 25H1.5z"
         id="A9K-FILLER-LCpath21"
         style="clip-rule:evenodd;fill:#d8d8d8;fill-rule:evenodd" /><path
         class="stA9K-FILLER-LC4"
         d="M58.4 113c13.2 0 24 10.9 24 24.5 0 13.8-10.1 24.5-23 24.5H1.5v-49h57m-.1-1H.5v51h58.9c13.7 0 24-11.5 24-25.5 0-14.1-11.3-25.5-25-25.5z"
         id="A9K-FILLER-LCpath23"
         style="fill:#a5a5a5" /></g><g
       id="A9K-FILLER-LCg25"><path
         class="stA9K-FILLER-LC3"
         d="M81.1 137.6c0-12.7-11.6-24.3-24.3-24.3-13.7 0-24.3 11.6-24.3 24.3 0 13.7 10.6 24.3 24.3 24.3 12.7 0 24.3-10.6 24.3-24.3z"
         id="A9K-FILLER-LCpath27"
         style="clip-rule:evenodd;fill:#d8d8d8;fill-rule:evenodd" /><g
         id="A9K-FILLER-LCg29"><path
           class="stA9K-FILLER-LC5"
           d="M79.1 137.6c0-11.9-10.4-22.3-22.3-22.3-13.4 0-22.3 10.4-22.3 22.3 0 13.4 8.9 22.3 22.3 22.3 11.9 0 22.3-8.9 22.3-22.3h0z"
           id="A9K-FILLER-LCpath31"
           style="fill:none;stroke:#a5a5a5;stroke-width:1.48930001;stroke-linecap:round;stroke-linejoin:round;stroke-miterlimit:2" /><path
           class="stA9K-FILLER-LC6"
           id="A9K-FILLER-LCline33"
           style="fill:none;stroke:#a5a5a5;stroke-width:5.95739985;stroke-linecap:round;stroke-linejoin:round;stroke-miterlimit:2"
           d="M68.7 137.6H43.4" /><path
           class="stA9K-FILLER-LC6"
           id="A9K-FILLER-LCline35"
           style="fill:none;stroke:#a5a5a5;stroke-width:5.95739985;stroke-linecap:round;stroke-linejoin:round;stroke-miterlimit:2"
           d="M56.8 151v-25.3" /></g></g></g><g
     id="A9K-FILLER-LCg37"
     transform="matrix(.99982 0 0 1.00161 .507 -.012)"><g
       id="A9K-FILLER-LCg39"><path
         class="stA9K-FILLER-LC3"
         d="M2721.6 163c-13.2 0-23.5-10.9-23.5-25 0-13.9 11-25 24.5-25h56.9v50h-57.9z"
         id="A9K-FILLER-LCpath41"
         style="clip-rule:evenodd;fill:#d8d8d8;fill-rule:evenodd" /><path
         class="stA9K-FILLER-LC4"
         d="M2778.5 113v49h-56.9c-12.9 0-23-10.7-23-24.5 0-13.6 10.8-24.5 24-24.5h55.9m1-1h-56.9c-13.7 0-25 11.4-25 25.5 0 14 10.3 25.5 24 25.5h57.9v-51z"
         id="A9K-FILLER-LCpath43"
         style="fill:#a5a5a5" /></g><g
       id="A9K-FILLER-LCg45"><path
         class="stA9K-FILLER-LC3"
         d="M2699.9 137.6c0-12.7 11.6-24.3 24.3-24.3 13.7 0 24.3 11.6 24.3 24.3 0 13.7-10.6 24.3-24.3 24.3-12.7 0-24.3-10.6-24.3-24.3z"
         id="A9K-FILLER-LCpath47"
         style="clip-rule:evenodd;fill:#d8d8d8;fill-rule:evenodd" /><g
         id="A9K-FILLER-LCg49"><path
           class="stA9K-FILLER-LC5"
           d="M2701.9 137.6c0-11.9 10.4-22.3 22.3-22.3 13.4 0 22.3 10.4 22.3 22.3 0 13.4-8.9 22.3-22.3 22.3-11.9 0-22.3-8.9-22.3-22.3h0z"
           id="A9K-FILLER-LCpath51"
           style="fill:none;stroke:#a5a5a5;stroke-width:1.48930001;stroke-linecap:round;stroke-linejoin:round;stroke-miterlimit:2" /><path
           class="stA9K-FILLER-LC6"
           id="A9K-FILLER-LCline53"
           style="fill:none;stroke:#a5a5a5;stroke-width:5.95739985;stroke-linecap:round;stroke-linejoin:round;stroke-miterlimit:2"
           d="M2712.3 137.6h25.3" /><path
           class="stA9K-FILLER-LC6"
           id="A9K-FILLER-LCline55"
           style="fill:none;stroke:#a5a5a5;stroke-width:5.95739985;stroke-linecap:round;stroke-linejoin:round;stroke-miterlimit:2"
           d="M2724.2 151v-25.3" /></g></g></g><text
     xml:space="preserve"
     style="font-style:normal;font-weight:normal;font-size:40px;line-height:1.25;font-family:sans-serif;letter-spacing:0px;word-spacing:0px;fill:#000000;fill-opacity:1;stroke:none"
     x="593.6795"
     y="261.29126"
     id="text38"><tspan
       sodipodi:role="line"
       id="tspan36"
       x="593.6795"
       y="297.78448" /></text>
</svg>