<?xml version="1.0" encoding="UTF-8" standalone="no"?>
<svg
   xmlns:dc="http://purl.org/dc/elements/1.1/"
   xmlns:cc="http://creativecommons.org/ns#"
   xmlns:rdf="http://www.w3.org/1999/02/22-rdf-syntax-ns#"
   xmlns:svg="http://www.w3.org/2000/svg"
   xmlns="http://www.w3.org/2000/svg"
   xmlns:sodipodi="http://sodipodi.sourceforge.net/DTD/sodipodi-0.dtd"
   xmlns:inkscape="http://www.inkscape.org/namespaces/inkscape"
   version="1.1"
   id="A9K-MOD80-TRLayer_1"
   x="0"
   y="0"
   viewBox="0 0 2782.5 311.5"
   xml:space="preserve"
   width="2782.5"
   height="311.5"
   sodipodi:docname="A9K-MOD80-TR.svg"
   inkscape:version="0.92.1 r15371"><metadata
     id="metadata144"><rdf:RDF><cc:Work
         rdf:about=""><dc:format>image/svg+xml</dc:format><dc:type
           rdf:resource="http://purl.org/dc/dcmitype/StillImage" /></cc:Work></rdf:RDF></metadata><defs
     id="defs142" /><sodipodi:namedview
     pagecolor="#ffffff"
     bordercolor="#666666"
     borderopacity="1"
     objecttolerance="10"
     gridtolerance="10"
     guidetolerance="10"
     inkscape:pageopacity="0"
     inkscape:pageshadow="2"
     inkscape:window-width="1920"
     inkscape:window-height="986"
     id="namedview140"
     showgrid="false"
     inkscape:zoom="0.62929021"
     inkscape:cx="1391.25"
     inkscape:cy="155.75"
     inkscape:window-x="-11"
     inkscape:window-y="-11"
     inkscape:window-maximized="1"
     inkscape:current-layer="A9K-MOD80-TRLayer_1" /><style
     type="text/css"
     id="A9K-MOD80-TRstyle3">.A9K-MOD80-TRst0{fill-rule:evenodd;clip-rule:evenodd;fill:#bfbfbf}.A9K-MOD80-TRst1,.A9K-MOD80-TRst10{fill:none;stroke:gray;stroke-width:6.000000e-02;stroke-linecap:round;stroke-linejoin:round;stroke-miterlimit:10}.A9K-MOD80-TRst10{stroke:#d8d8d8}.A9K-MOD80-TRst11{fill-rule:evenodd;clip-rule:evenodd;fill:#595959}.A9K-MOD80-TRst12{fill:none;stroke:#404040;stroke-width:6.000000e-02;stroke-linecap:round;stroke-linejoin:round;stroke-miterlimit:10}.A9K-MOD80-TRst13{fill-rule:evenodd;clip-rule:evenodd;fill:#8c8c8c}.A9K-MOD80-TRst14,.A9K-MOD80-TRst15{fill-rule:evenodd;clip-rule:evenodd;fill:#a6a6a6}.A9K-MOD80-TRst15{fill:#737373}.A9K-MOD80-TRst16{fill:none;stroke:#a6a6a6;stroke-width:6.000000e-02;stroke-linecap:round;stroke-linejoin:round;stroke-miterlimit:10}.A9K-MOD80-TRst17{fill-rule:evenodd;clip-rule:evenodd;fill:#a5a5a5}.A9K-MOD80-TRst18,.A9K-MOD80-TRst19{fill-rule:evenodd;clip-rule:evenodd;fill:#7f7f7f}.A9K-MOD80-TRst19{fill:#666}.A9K-MOD80-TRst20,.A9K-MOD80-TRst21{fill:none;stroke:#a5a5a5;stroke-width:6.000000e-02;stroke-linecap:round;stroke-linejoin:round;stroke-miterlimit:10}.A9K-MOD80-TRst21{stroke:#9a9a9a}.A9K-MOD80-TRst24{fill-rule:evenodd;clip-rule:evenodd;fill:#ddd}.A9K-MOD80-TRst25{fill:#a5a5a5}.A9K-MOD80-TRst28{fill:#d8d8d8}</style><path
     class="A9K-MOD80-TRst0"
     id="A9K-MOD80-TRrect5"
     style="clip-rule:evenodd;fill:#bfbfbf;fill-rule:evenodd"
     d="M256.302 0h2259.584v20.571H256.302z" /><path
     class="A9K-MOD80-TRst1"
     d="M2514.414 16.163V2.939h-1.473s0-1.47-1.473-1.47h0H260.72h0c-1.473 0-2.946 1.47-2.946 1.47h0v13.224h0c0 1.47 1.473 1.47 2.946 1.47V19.1h2250.747v-1.469c1.473 0 1.473 0 1.473-1.47h1.473z"
     id="A9K-MOD80-TRpath7" /><path
     id="A9K-MOD80-TRpolygon11"
     transform="scale(.982 .97956)"
     style="fill:#d9d9d9;stroke:#c2c2c2;stroke-width:6.000000e-02;stroke-linecap:round;stroke-linejoin:round;stroke-miterlimit:10"
     d="M136.5 316.5H2703v-297H136.5z" /><path
     id="A9K-MOD80-TRrect13"
     style="clip-rule:evenodd;fill:#b2b2b2;fill-rule:evenodd"
     d="M256.302 296.807H2605.74V311.5H256.302z" /><path
     class="A9K-MOD80-TRst1"
     d="M2604.267 308.561v-8.816s-1.473-1.47-2.946-1.47h0-2340.6 0c-1.473 0-2.946 1.47-2.946 1.47v8.816h0c0 1.47 1.473 1.47 2.946 1.47h2340.6c1.473 0 2.946 0 2.946-1.47h0z"
     id="A9K-MOD80-TRpath15" /><path
     id="A9K-MOD80-TRrect17"
     style="clip-rule:evenodd;fill:#9f9f9f;fill-rule:evenodd"
     d="M2632.254 210.116h82.488v70.528h-82.488z" /><path
     d="M2633.727 276.236v-64.651h79.542v66.12h-78.07l-1.472-1.47z"
     id="A9K-MOD80-TRpath19"
     style="fill:none;stroke:#737373;stroke-width:6.000000e-02;stroke-linecap:round;stroke-linejoin:round;stroke-miterlimit:10" /><path
     id="A9K-MOD80-TRpolygon21"
     transform="scale(.982 .97956)"
     style="fill:none;stroke:#f2f2f2;stroke-width:6.000000e-02;stroke-linecap:round;stroke-linejoin:round;stroke-miterlimit:10"
     d="M136.5 283.5h84v-264h-84z" /><path
     d="M2630.78 92.568c-7.364 0-13.256 5.878-13.256 11.755 0 7.347 5.892 13.224 13.257 13.224 7.365 0 13.257-5.877 13.257-13.224 0-5.877-5.892-11.755-13.257-11.755h0z"
     id="A9K-MOD80-TRpath23"
     style="fill:#8c8c8c;stroke:#000;stroke-width:.98077965;stroke-linecap:round;stroke-linejoin:round;stroke-miterlimit:10" /><g
     id="A9K-MOD80-TRg25"
     transform="scale(.982 .97956)"><path
       d="M2682.1 84.6c.3-.5.5-1.2.5-1.9 0-1.1-.6-1.7-1.4-1.7-.8 0-1.2.4-1.6 1.5-.5 1.3-1.2 2.1-2.3 2.1-1.3 0-2.2-1-2.2-2.6 0-.8.2-1.4.4-1.8l.9.3c-.1.3-.4.8-.4 1.5 0 1.1.7 1.5 1.2 1.5.8 0 1.1-.5 1.6-1.6.5-1.4 1.2-2.1 2.4-2.1s2.3.9 2.3 2.8c0 .8-.2 1.6-.5 2.1l-.9-.1z"
       id="A9K-MOD80-TRpath27" /></g><g
     id="A9K-MOD80-TRg29"
     transform="scale(.982 .97956)"><path
       d="M2676.2 75.7v2.5h-.9v-6h.9v2.5h7.2v1.1h-7.2z"
       id="A9K-MOD80-TRpath31" /></g><g
     id="A9K-MOD80-TRg33"
     transform="scale(.982 .97956)"><path
       d="m2680.9 68.3 2.5.8v1.1l-8.1-2.7v-1.3l8.1-2.8v1.1l-2.5.9v2.9zm-.8-2.6-2.3.8c-.5.2-1 .3-1.5.4.5.1 1 .3 1.5.4l2.3.8v-2.4z"
       id="A9K-MOD80-TRpath35" /></g><g
     id="A9K-MOD80-TRg37"
     transform="scale(.982 .97956)"><path
       d="M2676.2 60.7v2.5h-.9v-6h.9v2.5h7.2v1.1h-7.2z"
       id="A9K-MOD80-TRpath39" /></g><g
     id="A9K-MOD80-TRg41"
     transform="scale(.982 .97956)"><path
       d="M2675.3 53.7h4.8c1.8 0 2.6-.8 2.6-1.9 0-1.2-.8-2-2.6-2h-4.8v-1.1h4.7c2.5 0 3.5 1.3 3.5 3.1 0 1.7-.9 2.9-3.5 2.9h-4.8v-1z"
       id="A9K-MOD80-TRpath43" /></g><g
     id="A9K-MOD80-TRg45"
     transform="scale(.982 .97956)"><path
       d="M2682.1 45.9c.3-.5.5-1.2.5-1.9 0-1.1-.6-1.7-1.4-1.7-.8 0-1.2.4-1.6 1.5-.5 1.3-1.2 2.1-2.3 2.1-1.3 0-2.2-1-2.2-2.6 0-.8.2-1.4.4-1.8l.9.3c-.1.3-.4.8-.4 1.5 0 1.1.7 1.5 1.2 1.5.8 0 1.1-.5 1.6-1.6.5-1.4 1.2-2.1 2.4-2.1s2.3.9 2.3 2.8c0 .8-.2 1.6-.5 2.1l-.9-.1z"
       id="A9K-MOD80-TRpath47" /></g><path
     id="A9K-MOD80-TRpolygon49"
     transform="scale(.982 .97956)"
     style="fill:#262626;stroke:#f2f2f2;stroke-width:6.000000e-02;stroke-linecap:round;stroke-linejoin:round;stroke-miterlimit:10"
     d="M225 283.5h2386.5v-264H225z" /><path
     class="A9K-MOD80-TRst0"
     id="A9K-MOD80-TRrect51"
     style="clip-rule:evenodd;fill:#bfbfbf;fill-rule:evenodd"
     d="M225.369 261.542h2336.18v17.632H225.369z" /><path
     class="A9K-MOD80-TRst10"
     id="A9K-MOD80-TRpolygon53"
     transform="scale(.982 .97956)"
     d="M231 282h2374.5v-13.5H231z" /><path
     class="A9K-MOD80-TRst11"
     id="A9K-MOD80-TRrect55"
     style="clip-rule:evenodd;fill:#595959;fill-rule:evenodd"
     d="M2641.092 211.585h76.596v20.571h-76.596z" /><path
     class="A9K-MOD80-TRst1"
     id="A9K-MOD80-TRpolygon57"
     transform="scale(.982 .97956)"
     d="M2689.5 237h78v-21h-78z" /><path
     class="A9K-MOD80-TRst12"
     d="M2605.74 255.665v-22.04h0c-5.892 1.47-8.838 7.347-7.365 13.224 1.473 4.408 4.419 7.347 7.365 8.816h0z"
     id="A9K-MOD80-TRpath59" /><path
     class="A9K-MOD80-TRst13"
     id="A9K-MOD80-TRpolygon61"
     style="clip-rule:evenodd;fill:#8c8c8c;fill-rule:evenodd"
     transform="scale(.982 .97956)"
     d="M2679 217.5h-25.5v54h12l1.5 12h12z" /><path
     class="A9K-MOD80-TRst1"
     id="A9K-MOD80-TRpolygon63"
     transform="scale(.982 .97956)"
     d="M2679 217.5h-25.5v54h12l1.5 12h12z" /><path
     class="A9K-MOD80-TRst14"
     d="M2658.768 277.705c-8.838-11.755-14.73-26.448-17.676-41.141v-24.98h-10.311v66.121h27.987z"
     id="A9K-MOD80-TRpath65"
     style="clip-rule:evenodd;fill:#a6a6a6;fill-rule:evenodd" /><path
     class="A9K-MOD80-TRst1"
     d="M2658.768 277.705c-8.838-11.755-14.73-26.448-17.676-41.141h0v-24.98h-10.311v66.121h27.987z"
     id="A9K-MOD80-TRpath67" /><path
     class="A9K-MOD80-TRst15"
     id="A9K-MOD80-TRrect69"
     style="clip-rule:evenodd;fill:#737373;fill-rule:evenodd"
     d="M2266.95 276.236h456.63v26.448h-456.63z" /><path
     class="A9K-MOD80-TRst15"
     d="M2268.423 302.684v-26.448c-16.203 0-30.933 1.47-47.136 4.408v17.632c16.203 2.939 30.933 4.408 47.136 4.408z"
     id="A9K-MOD80-TRpath71"
     style="clip-rule:evenodd;fill:#737373;fill-rule:evenodd" /><path
     class="A9K-MOD80-TRst15"
     d="M2727.999 302.684c14.73-1.47 25.041-7.347 23.568-14.693-2.946-5.878-11.784-11.755-23.568-11.755h-4.419v26.448h4.419z"
     id="A9K-MOD80-TRpath73"
     style="clip-rule:evenodd;fill:#737373;fill-rule:evenodd" /><path
     class="A9K-MOD80-TRst16"
     d="M2727.999 302.684c14.73-1.47 25.041-7.347 23.568-14.693-2.946-5.878-11.784-11.755-23.568-11.755h0-4.419v26.448h4.419z"
     id="A9K-MOD80-TRpath75" /><path
     class="A9K-MOD80-TRst17"
     id="A9K-MOD80-TRrect77"
     style="clip-rule:evenodd;fill:#a5a5a5;fill-rule:evenodd"
     d="M2641.092 211.585h76.596v20.571h-76.596z" /><path
     class="A9K-MOD80-TRst18"
     id="A9K-MOD80-TRrect79"
     style="clip-rule:evenodd;fill:#7f7f7f;fill-rule:evenodd"
     d="M2758.932 210.116h23.568v69.059h-23.568z" /><path
     class="A9K-MOD80-TRst1"
     d="M2758.932 277.705h16.203c2.946 0 4.42-1.47 4.42-4.408h0v1.47-60.243 1.469c0-2.939-1.474-4.408-4.42-4.408h0v1.47h-16.203"
     id="A9K-MOD80-TRpath81" /><path
     class="A9K-MOD80-TRst18"
     id="A9K-MOD80-TRrect83"
     style="clip-rule:evenodd;fill:#7f7f7f;fill-rule:evenodd"
     d="M2738.31 210.116h23.568v69.059h-23.568z" /><path
     class="A9K-MOD80-TRst1"
     d="M2758.932 277.705h-17.676m0-64.65h17.676"
     id="A9K-MOD80-TRpath85" /><path
     class="A9K-MOD80-TRst19"
     id="A9K-MOD80-TRrect87"
     style="clip-rule:evenodd;fill:#666;fill-rule:evenodd"
     d="M2716.215 210.116h26.514v69.059h-26.514z" /><path
     class="A9K-MOD80-TRst1"
     d="M2741.256 277.705h-17.676 0c-2.946 0-5.892-1.47-5.892-4.408h0v1.47-60.243 1.469c0-2.939 2.946-4.408 5.892-4.408v1.47h17.676"
     id="A9K-MOD80-TRpath89" /><path
     class="A9K-MOD80-TRst18"
     id="A9K-MOD80-TRrect91"
     style="clip-rule:evenodd;fill:#7f7f7f;fill-rule:evenodd"
     d="M2639.619 229.217h101.637v49.958h-101.637z" /><path
     class="A9K-MOD80-TRst12"
     d="M2605.74 255.665v-22.04h0c-5.892 1.47-8.838 7.347-7.365 13.224 1.473 4.408 4.419 7.347 7.365 8.816h0z"
     id="A9K-MOD80-TRpath93" /><path
     class="A9K-MOD80-TRst13"
     id="A9K-MOD80-TRpolygon95"
     style="clip-rule:evenodd;fill:#8c8c8c;fill-rule:evenodd"
     transform="scale(.982 .97956)"
     d="M2679 217.5h-25.5v54h12l1.5 12h12z" /><path
     class="A9K-MOD80-TRst1"
     id="A9K-MOD80-TRpolygon97"
     transform="scale(.982 .97956)"
     d="M2679 217.5h-25.5v54h12l1.5 12h12z" /><path
     class="A9K-MOD80-TRst14"
     d="M2658.768 277.705c-8.838-11.755-14.73-26.448-17.676-41.141v-24.98h-10.311v66.121h27.987z"
     id="A9K-MOD80-TRpath99"
     style="clip-rule:evenodd;fill:#a6a6a6;fill-rule:evenodd" /><path
     class="A9K-MOD80-TRst1"
     d="M2658.768 277.705c-8.838-11.755-14.73-26.448-17.676-41.141h0v-24.98h-10.311v66.121h27.987z"
     id="A9K-MOD80-TRpath101" /><path
     class="A9K-MOD80-TRst17"
     id="A9K-MOD80-TRrect103"
     style="clip-rule:evenodd;fill:#a5a5a5;fill-rule:evenodd"
     d="M2635.2 186.606h94.272v26.448H2635.2z" /><path
     class="A9K-MOD80-TRst1"
     id="A9K-MOD80-TRpolygon105"
     transform="scale(.982 .97956)"
     d="M2686.5 216v-24h91.5v24h0-93z" /><path
     class="A9K-MOD80-TRst0"
     d="M2654.349 188.075V92.568h70.704l1.473 1.47c23.568 2.938 39.771 24.979 36.825 49.957-2.946 19.102-16.203 35.264-35.352 38.203 0 1.47-1.473 1.47-1.473 2.939h-1.473v1.47h1.473c0 1.468-1.473 2.938-2.946 2.938v-1.47h-69.231z"
     id="A9K-MOD80-TRpath107"
     style="clip-rule:evenodd;fill:#bfbfbf;fill-rule:evenodd" /><path
     class="A9K-MOD80-TRst20"
     d="M2654.349 188.075V92.568h70.704l1.473 1.47h0c23.568 2.938 39.771 24.979 36.825 49.957-2.946 19.102-16.203 35.264-35.352 38.203 0 1.47-1.473 1.47-1.473 2.939h-1.473v1.47h1.473c0 1.468-1.473 2.938-2.946 2.938v-1.47h-69.231 0z"
     id="A9K-MOD80-TRpath109" /><path
     class="A9K-MOD80-TRst21"
     d="M2723.58 177.79c22.095 0 39.771-17.632 39.771-39.672 0-22.04-17.676-38.203-39.771-38.203-20.622 0-38.298 16.163-38.298 38.203 0 22.04 17.676 39.672 38.298 39.672h0z"
     id="A9K-MOD80-TRpath111" /><path
     class="A9K-MOD80-TRst18"
     id="A9K-MOD80-TRrect113"
     style="clip-rule:evenodd;fill:#7f7f7f;fill-rule:evenodd"
     d="M2275.787 279.175h363.831v20.571h-363.831z" /><path
     class="A9K-MOD80-TRst1"
     d="M2638.146 293.868v-10.285l-10.311-2.94H2281.68h0c-2.946 0-4.42 1.47-4.42 4.409v-1.47 10.286h0c0 2.939 1.474 4.408 4.42 4.408h346.155l10.31-4.408h0z"
     id="A9K-MOD80-TRpath115" /><g
     id="A9K-MOD80-TRg117"
     transform="scale(.982 .97956)"><path
       d="M197.6 65.8c0-2.5.3-4.6.8-6.1s1.3-2.7 2.3-3.6c1-.9 2.3-1.3 3.9-1.3 1.2 0 2.2.2 3 .7.8.5 1.6 1.1 2.2 2 .6.9 1 1.9 1.3 3.2.3 1.3.5 2.9.5 5.1 0 2.5-.3 4.6-.8 6.1s-1.3 2.7-2.3 3.6c-1 .9-2.3 1.3-3.9 1.3-2.1 0-3.7-.7-4.9-2.2-1.4-1.9-2.1-4.8-2.1-8.8zm2.7 0c0 3.5.4 5.9 1.2 7 .8 1.1 1.8 1.8 3.1 1.8s2.2-.6 3.1-1.8c.9-1.2 1.2-3.5 1.2-7s-.4-5.9-1.2-7c-.8-1.1-1.9-1.7-3.1-1.7-1.2 0-2.2.5-2.9 1.5-1 1.2-1.4 3.6-1.4 7.2z"
       id="A9K-MOD80-TRpath119" /></g><g
     id="A9K-MOD80-TRg121"
     transform="scale(.982 .97956)"><path
       d="M2634.7 76.4h-2.6V59.6c-.6.6-1.5 1.2-2.5 1.8-1 .6-2 1.1-2.8 1.4v-2.5c1.5-.7 2.8-1.5 3.9-2.5s1.9-1.9 2.3-2.9h1.7v21.5z"
       id="A9K-MOD80-TRpath123" /></g><path
     d="M1393.46 117.547c-11.785 0-22.096 10.286-22.096 22.04 0 11.755 10.311 22.04 22.095 22.04 11.784 0 22.095-10.285 22.095-22.04 0-11.754-10.31-22.04-22.095-22.04h0z"
     id="A9K-MOD80-TRpath125"
     style="fill:none;stroke:#d8d8d8;stroke-width:.11769357;stroke-linecap:round;stroke-linejoin:round;stroke-miterlimit:10" /><path
     d="M1391.986 42.61c-7.365 0-13.257 5.878-13.257 13.225 0 5.877 5.892 11.755 13.257 11.755 5.892 0 11.784-5.878 11.784-11.755 0-7.347-5.891-13.224-11.783-13.224h0z"
     id="A9K-MOD80-TRpath127"
     style="fill:none;stroke:#d8d8d8;stroke-width:.17654034;stroke-linecap:round;stroke-linejoin:round;stroke-miterlimit:10" /><path
     class="A9K-MOD80-TRst0"
     d="m66.285 189.545-1.473-1.47h69.231V92.568H55.974v1.47h-1.473c-22.095 2.938-38.298 24.979-35.352 49.957 1.473 19.102 16.203 35.264 33.88 38.203 1.472 1.47 1.472 1.47 1.472 2.939h1.473v1.47h-1.473c0 1.468 1.473 2.938 2.946 2.938v-1.47h7.365l1.473 1.47z"
     id="A9K-MOD80-TRpath129"
     style="clip-rule:evenodd;fill:#bfbfbf;fill-rule:evenodd" /><path
     class="A9K-MOD80-TRst20"
     d="M66.285 189.545h0l-1.473-1.47h69.231V92.568h-7.365 0-70.704v1.47h-1.473c-22.095 2.938-38.298 24.979-35.352 49.957 1.473 19.102 16.203 35.264 33.88 38.203 1.472 1.47 1.472 1.47 1.472 2.939h1.473v1.47h-1.473c0 1.468 1.473 2.938 2.946 2.938v-1.47h7.365l1.473 1.47z"
     id="A9K-MOD80-TRpath131" /><path
     class="A9K-MOD80-TRst13"
     d="M179.706 226.278c4.42 0 7.365 8.816 7.365 17.632 0 10.286-2.946 17.632-7.365 17.632-4.419 0-7.365-7.346-7.365-17.632 0-8.816 2.946-17.632 7.365-17.632z"
     id="A9K-MOD80-TRpath133"
     style="clip-rule:evenodd;fill:#8c8c8c;fill-rule:evenodd" /><path
     class="A9K-MOD80-TRst12"
     d="M175.287 255.665v-22.04h0c5.892 1.47 8.838 7.347 7.365 13.224 0 4.408-2.946 7.347-7.365 8.816h0z"
     id="A9K-MOD80-TRpath135" /><path
     class="A9K-MOD80-TRst11"
     id="A9K-MOD80-TRrect137"
     style="clip-rule:evenodd;fill:#595959;fill-rule:evenodd"
     d="M63.339 211.585h76.596v20.571H63.339z" /><path
     class="A9K-MOD80-TRst1"
     id="A9K-MOD80-TRpolygon139"
     transform="scale(.982 .97956)"
     d="M142.5 237h-78 0v-21h78z" /><path
     class="A9K-MOD80-TRst13"
     d="M179.706 226.278c4.42 0 7.365 8.816 7.365 17.632 0 10.286-2.946 17.632-7.365 17.632-4.419 0-7.365-7.346-7.365-17.632 0-8.816 2.946-17.632 7.365-17.632z"
     id="A9K-MOD80-TRpath141"
     style="clip-rule:evenodd;fill:#8c8c8c;fill-rule:evenodd" /><path
     class="A9K-MOD80-TRst12"
     d="M175.287 255.665v-22.04h0c5.892 1.47 8.838 7.347 7.365 13.224 0 4.408-2.946 7.347-7.365 8.816h0z"
     id="A9K-MOD80-TRpath143" /><path
     class="A9K-MOD80-TRst13"
     id="A9K-MOD80-TRpolygon145"
     style="clip-rule:evenodd;fill:#8c8c8c;fill-rule:evenodd"
     transform="scale(.982 .97956)"
     d="M154.5 217.5h24v54H168l-4.5 12h-9z" /><path
     class="A9K-MOD80-TRst1"
     id="A9K-MOD80-TRpolygon147"
     transform="scale(.982 .97956)"
     d="M154.5 217.5h24v54H168l-4.5 12h-9 0z" /><path
     class="A9K-MOD80-TRst14"
     d="M122.26 277.705c10.31-11.755 16.202-26.448 19.148-41.141h-1.473v-24.98h11.784v66.121h-29.46z"
     id="A9K-MOD80-TRpath149"
     style="clip-rule:evenodd;fill:#a6a6a6;fill-rule:evenodd" /><path
     class="A9K-MOD80-TRst1"
     d="M122.26 277.705c10.31-11.755 16.202-26.448 19.148-41.141h-1.473v-24.98h11.784v66.121h-29.46 0z"
     id="A9K-MOD80-TRpath151" /><path
     class="A9K-MOD80-TRst15"
     id="A9K-MOD80-TRrect153"
     style="clip-rule:evenodd;fill:#737373;fill-rule:evenodd"
     d="M57.447 276.236H515.55v26.448H57.447z" /><path
     class="A9K-MOD80-TRst15"
     d="M514.078 302.684v-26.448h-1.473c16.203 0 32.406 1.47 47.136 4.408v17.632c-14.73 2.939-30.933 4.408-47.136 4.408h1.473z"
     id="A9K-MOD80-TRpath155"
     style="clip-rule:evenodd;fill:#737373;fill-rule:evenodd" /><path
     class="A9K-MOD80-TRst15"
     d="M54.501 302.684c-14.73-1.47-26.514-7.347-23.568-14.693 1.473-5.878 10.311-11.755 23.568-11.755h2.946v26.448h-2.946z"
     id="A9K-MOD80-TRpath157"
     style="clip-rule:evenodd;fill:#737373;fill-rule:evenodd" /><path
     class="A9K-MOD80-TRst16"
     d="M54.501 302.684c-14.73-1.47-26.514-7.347-23.568-14.693 1.473-5.878 10.311-11.755 23.568-11.755h2.946v26.448h-2.946 0z"
     id="A9K-MOD80-TRpath159" /><path
     class="A9K-MOD80-TRst17"
     id="A9K-MOD80-TRrect161"
     style="clip-rule:evenodd;fill:#a5a5a5;fill-rule:evenodd"
     d="M63.339 211.585h76.596v20.571H63.339z" /><path
     class="A9K-MOD80-TRst18"
     id="A9K-MOD80-TRrect163"
     style="clip-rule:evenodd;fill:#7f7f7f;fill-rule:evenodd"
     d="M0 210.116h23.568v69.059H0z" /><path
     class="A9K-MOD80-TRst1"
     d="M20.622 277.705H5.892c-1.473 0-4.419-1.47-4.419-4.408h0v1.47-60.243 1.469c0-2.939 2.946-4.408 4.419-4.408h0l1.473 1.47h13.257"
     id="A9K-MOD80-TRpath165" /><path
     class="A9K-MOD80-TRst18"
     id="A9K-MOD80-TRrect167"
     style="clip-rule:evenodd;fill:#7f7f7f;fill-rule:evenodd"
     d="M19.149 210.116h23.568v69.059H19.149z" /><path
     class="A9K-MOD80-TRst1"
     d="M20.622 277.705h20.622m0-64.65H20.622"
     id="A9K-MOD80-TRpath169" /><path
     class="A9K-MOD80-TRst19"
     id="A9K-MOD80-TRrect171"
     style="clip-rule:evenodd;fill:#666;fill-rule:evenodd"
     d="M38.298 210.116h26.514v69.059H38.298z" /><path
     class="A9K-MOD80-TRst1"
     d="M41.244 277.705h16.203c2.946 0 5.892-1.47 5.892-4.408h0v1.47-60.243 1.469c0-2.939-2.946-4.408-5.892-4.408v1.47H41.244"
     id="A9K-MOD80-TRpath173" /><path
     class="A9K-MOD80-TRst18"
     id="A9K-MOD80-TRrect175"
     style="clip-rule:evenodd;fill:#7f7f7f;fill-rule:evenodd"
     d="M39.771 229.217h103.11v49.958H39.771z" /><path
     class="A9K-MOD80-TRst13"
     d="M179.706 226.278c4.42 0 7.365 8.816 7.365 17.632 0 10.286-2.946 17.632-7.365 17.632-4.419 0-7.365-7.346-7.365-17.632 0-8.816 2.946-17.632 7.365-17.632z"
     id="A9K-MOD80-TRpath177"
     style="clip-rule:evenodd;fill:#8c8c8c;fill-rule:evenodd" /><path
     class="A9K-MOD80-TRst12"
     d="M175.287 255.665v-22.04h0c5.892 1.47 8.838 7.347 7.365 13.224 0 4.408-2.946 7.347-7.365 8.816h0z"
     id="A9K-MOD80-TRpath179" /><path
     class="A9K-MOD80-TRst13"
     id="A9K-MOD80-TRpolygon181"
     style="clip-rule:evenodd;fill:#8c8c8c;fill-rule:evenodd"
     transform="scale(.982 .97956)"
     d="M154.5 217.5h24v54H168l-4.5 12h-9z" /><path
     class="A9K-MOD80-TRst1"
     id="A9K-MOD80-TRpolygon183"
     transform="scale(.982 .97956)"
     d="M154.5 217.5h24v54H168l-4.5 12h-9 0z" /><path
     class="A9K-MOD80-TRst14"
     d="M122.26 277.705c10.31-11.755 16.202-26.448 19.148-41.141h-1.473v-24.98h11.784v66.121h-29.46z"
     id="A9K-MOD80-TRpath185"
     style="clip-rule:evenodd;fill:#a6a6a6;fill-rule:evenodd" /><path
     class="A9K-MOD80-TRst1"
     d="M122.26 277.705c10.31-11.755 16.202-26.448 19.148-41.141h-1.473v-24.98h11.784v66.121h-29.46 0z"
     id="A9K-MOD80-TRpath187" /><path
     class="A9K-MOD80-TRst17"
     id="A9K-MOD80-TRrect189"
     style="clip-rule:evenodd;fill:#a5a5a5;fill-rule:evenodd"
     d="M51.555 186.606h94.272v26.448H51.555z" /><path
     class="A9K-MOD80-TRst1"
     d="M54.501 188.075v23.51h89.853v-23.51H54.501h0z"
     id="A9K-MOD80-TRpath191" /><path
     class="A9K-MOD80-TRst21"
     d="M57.447 177.79c-20.622 0-38.298-17.632-38.298-39.672 0-22.04 17.676-38.203 38.298-38.203 22.095 0 39.771 16.163 39.771 38.203 0 22.04-17.676 39.672-39.77 39.672h0z"
     id="A9K-MOD80-TRpath193" /><path
     class="A9K-MOD80-TRst18"
     id="A9K-MOD80-TRrect195"
     style="clip-rule:evenodd;fill:#7f7f7f;fill-rule:evenodd"
     d="M142.881 279.175h363.831v20.571H142.881z" /><path
     class="A9K-MOD80-TRst1"
     d="M144.354 293.868v-10.285l8.838-2.94h347.629c1.473 0 2.946 1.47 2.946 4.409v-1.47 10.286h0c0 2.939-1.473 4.408-2.946 4.408h0-347.629l-8.838-4.408h0z"
     id="A9K-MOD80-TRpath197" /><g
     id="A9K-MOD80-TRg199"
     transform="scale(.982 .97956)"><path
       class="A9K-MOD80-TRst24"
       d="M36.4 141.6c0 11.9 10.2 21.9 22.4 21.9s22.4-10 22.4-21.9c0-12.9-10.2-22.9-22.4-22.9s-22.4 10-22.4 22.9z"
       id="A9K-MOD80-TRpath201"
       style="clip-rule:evenodd;fill:#ddd;fill-rule:evenodd" /><g
       id="A9K-MOD80-TRg203"><g
         id="A9K-MOD80-TRg205"><path
           class="A9K-MOD80-TRst25"
           d="M59.5 118.4c12.1 0 21.9 10.5 21.9 23.4 0 12.5-9.4 21.9-21.9 21.9-12.9 0-23.4-9.8-23.4-21.9 0-12.4 10.9-23.4 23.4-23.4zm0 44.3c11.9 0 20.9-9 20.9-20.9 0-12.4-9.4-22.4-20.9-22.4-11.9 0-22.4 10.5-22.4 22.4 0 11.6 10.1 20.9 22.4 20.9z"
           id="A9K-MOD80-TRpath207"
           style="fill:#a5a5a5" /></g><g
         id="A9K-MOD80-TRg209"><path
           class="A9K-MOD80-TRst25"
           id="A9K-MOD80-TRrect211"
           style="fill:#a5a5a5"
           d="M43.2 138.6h31.1v5.1H43.2z" /></g><g
         id="A9K-MOD80-TRg213"><path
           class="A9K-MOD80-TRst25"
           id="A9K-MOD80-TRrect215"
           style="fill:#a5a5a5"
           d="M56.2 125.6h5.1v31.1h-5.1z" /></g></g></g><g
     id="A9K-MOD80-TRg217"
     transform="scale(.982 .97956)"><path
       class="A9K-MOD80-TRst24"
       d="M2751.4 141.6c0 11.9 10.2 21.9 22.4 21.9s22.4-10 22.4-21.9c0-12.9-10.2-22.9-22.4-22.9s-22.4 10-22.4 22.9z"
       id="A9K-MOD80-TRpath219"
       style="clip-rule:evenodd;fill:#ddd;fill-rule:evenodd" /><g
       id="A9K-MOD80-TRg221"><g
         id="A9K-MOD80-TRg223"><path
           class="A9K-MOD80-TRst25"
           d="M2774.5 118.4c12.1 0 21.9 10.5 21.9 23.4 0 12.5-9.4 21.9-21.9 21.9-12.9 0-23.4-9.8-23.4-21.9 0-12.4 10.9-23.4 23.4-23.4zm0 44.3c11.9 0 20.9-9 20.9-20.9 0-12.4-9.4-22.4-20.9-22.4-11.9 0-22.4 10.5-22.4 22.4 0 11.6 10.1 20.9 22.4 20.9z"
           id="A9K-MOD80-TRpath225"
           style="fill:#a5a5a5" /></g><g
         id="A9K-MOD80-TRg227"><path
           class="A9K-MOD80-TRst25"
           id="A9K-MOD80-TRrect229"
           style="fill:#a5a5a5"
           d="M2758.2 138.6h31.1v5.1h-31.1z" /></g><g
         id="A9K-MOD80-TRg231"><path
           class="A9K-MOD80-TRst25"
           id="A9K-MOD80-TRrect233"
           style="fill:#a5a5a5"
           d="M2771.2 125.6h5.1v31.1h-5.1z" /></g></g></g><g
     id="A9K-MOD80-TRg235"
     transform="scale(.982 .97956)"><path
       d="M1446.5 262V25.3c0-3.1-3.1-6.1-6.1-6.1h-42.8c-3.1 0-6.1 3.1-6.1 6.1V262c0 3.1 3.1 4.6 6.1 4.6h42.8c3.1 0 6.1-1.5 6.1-4.6z"
       id="A9K-MOD80-TRpath237"
       style="fill:#d9d9d9" /><path
       d="M1419 121.5c-12.2 0-22.9 9.2-22.9 21.4s10.7 22.9 22.9 22.9 22.9-10.7 22.9-22.9c.1-12.2-10.6-21.4-22.9-21.4z"
       id="A9K-MOD80-TRpath239"
       style="fill:#bfbfbf;stroke:#8c8c8c;stroke-miterlimit:10" /><path
       class="A9K-MOD80-TRst18"
       d="M1419 132.2c-6.1 0-10.7 4.6-10.7 10.7s4.6 10.7 10.7 10.7 10.7-4.6 10.7-10.7-4.5-10.7-10.7-10.7z"
       id="A9K-MOD80-TRpath241"
       style="clip-rule:evenodd;fill:#7f7f7f;fill-rule:evenodd" /><path
       class="A9K-MOD80-TRst10"
       d="M1419 132.2c-6.1 0-10.7 4.6-10.7 10.7s4.6 10.7 10.7 10.7 10.7-4.6 10.7-10.7-4.5-10.7-10.7-10.7h0z"
       id="A9K-MOD80-TRpath243" /><path
       class="A9K-MOD80-TRst18"
       d="M1417.5 37.5c-12.2 0-21.4 9.2-21.4 19.9 0 12.2 9.2 21.4 21.4 21.4 10.7 0 19.9-9.2 19.9-21.4 0-10.7-9.2-19.9-19.9-19.9z"
       id="A9K-MOD80-TRpath245"
       style="clip-rule:evenodd;fill:#7f7f7f;fill-rule:evenodd" /><path
       class="A9K-MOD80-TRst28"
       d="M1417.5 45.1c-7.6 0-12.2 6.1-12.2 12.2 0 7.6 4.6 13.7 12.2 13.7 6.1 0 12.2-6.1 12.2-13.7 0-6-6.1-12.2-12.2-12.2z"
       id="A9K-MOD80-TRpath247"
       style="fill:#d8d8d8" /><path
       class="A9K-MOD80-TRst18"
       d="M1417.5 210.6c-12.2 0-21.4 9.2-21.4 19.9 0 12.2 9.2 21.4 21.4 21.4 10.7 0 19.9-9.2 19.9-21.4 0-10.8-9.2-19.9-19.9-19.9z"
       id="A9K-MOD80-TRpath249"
       style="clip-rule:evenodd;fill:#7f7f7f;fill-rule:evenodd" /><path
       class="A9K-MOD80-TRst28"
       d="M1417.5 217.8c-7.6 0-12.2 6.1-12.2 12.2 0 7.6 4.6 13.7 12.2 13.7 6.1 0 12.2-6.1 12.2-13.7 0-6.1-6.1-12.2-12.2-12.2z"
       id="A9K-MOD80-TRpath251"
       style="fill:#d8d8d8" /></g><g
     id="A9K-MOD80-TRg253"
     transform="scale(.982 .97956)"><path
       d="m2644.7 274.7-16.5-6.3v-2.3l16.5-6.7v2.5l-5 1.9v6.9l5 1.8v2.2zm-6.7-4.7v-5.6l-4.6 1.7c-1.4.5-2.5.9-3.4 1.2 1.1.2 2.1.5 3.1.9l4.9 1.8z"
       id="A9K-MOD80-TRpath255" /><path
       d="m2640.9 258.1-.2-1.9c.9-.2 1.6-.5 2-.9.4-.5.6-1.1.6-1.8 0-.6-.1-1.2-.4-1.6-.3-.5-.7-.9-1.1-1.2-.5-.3-1.1-.6-1.9-.8-.8-.2-1.6-.3-2.5-.3h-.4c.6.4 1.2 1 1.6 1.7.4.7.6 1.5.6 2.3 0 1.4-.5 2.5-1.5 3.5s-2.3 1.4-3.9 1.4c-1.7 0-3-.5-4-1.5s-1.5-2.2-1.5-3.7c0-1.1.3-2 .9-2.9.6-.9 1.4-1.6 2.5-2 1.1-.5 2.6-.7 4.6-.7 2.1 0 3.8.2 5 .7 1.2.5 2.2 1.1 2.8 2 .6.9 1 2 1 3.2 0 1.3-.4 2.3-1.1 3.2-.8.7-1.8 1.2-3.1 1.3zm-7.2-8.3c-1.2 0-2.1.3-2.8.9-.7.6-1 1.4-1 2.2 0 .9.4 1.7 1.1 2.3.7.7 1.7 1 2.9 1 1 0 1.9-.3 2.6-.9.7-.6 1-1.4 1-2.3 0-.9-.3-1.7-1-2.3-.7-.6-1.7-.9-2.8-.9z"
       id="A9K-MOD80-TRpath257" /><path
       d="M2644.7 244.9h-16.5v-2.2h8.2l-8.2-8.2v-3l6.7 6.9 9.8-7.2v2.9l-8.3 5.9 2.6 2.7h5.7v2.2z"
       id="A9K-MOD80-TRpath259" /><path
       d="M2639.8 230.5h-2v-6.2h2v6.2z"
       id="A9K-MOD80-TRpath261" /><path
       d="M2644.7 221.9h-16.5v-3.3l11.7-3.9c1.1-.4 1.9-.6 2.4-.8-.6-.2-1.5-.5-2.6-.9l-11.5-3.9v-2.9h16.5v2.1H2631l13.8 4.8v2l-14 4.8h14v2z"
       id="A9K-MOD80-TRpath263" /><path
       d="M2636.7 203.3c-2.7 0-4.9-.7-6.4-2.2-1.5-1.5-2.3-3.4-2.3-5.7 0-1.5.4-2.9 1.1-4.1.7-1.2 1.7-2.2 3-2.8 1.3-.6 2.8-1 4.4-1 1.7 0 3.2.3 4.5 1 1.3.7 2.3 1.6 3 2.9.7 1.3 1 2.6 1 4 0 1.5-.4 2.9-1.1 4.2-.7 1.2-1.8 2.1-3.1 2.8-1.3.6-2.6.9-4.1.9zm.1-2.2c2 0 3.5-.5 4.7-1.6 1.1-1.1 1.7-2.4 1.7-4s-.6-3-1.7-4c-1.2-1.1-2.8-1.6-4.9-1.6-1.3 0-2.5.2-3.5.7-1 .5-1.8 1.1-2.3 2-.6.9-.8 1.9-.8 2.9 0 1.5.5 2.9 1.6 4 .9 1 2.7 1.6 5.2 1.6z"
       id="A9K-MOD80-TRpath265" /><path
       d="M2644.7 184.8h-16.5v-5.7c0-1.3.1-2.3.2-2.9.2-.9.6-1.7 1.2-2.4.7-.9 1.7-1.5 2.8-1.9 1.1-.4 2.4-.6 3.9-.6 1.2 0 2.4.1 3.3.4 1 .3 1.8.7 2.4 1.1.6.5 1.1 1 1.5 1.5.4.5.6 1.2.8 2 .2.8.3 1.6.3 2.6v5.9zm-1.9-2.2v-3.5c0-1.1-.1-1.9-.3-2.6-.2-.6-.5-1.1-.9-1.5-.5-.5-1.2-.9-2.1-1.2-.9-.3-1.9-.4-3.2-.4-1.7 0-3 .3-4 .8s-1.5 1.3-1.9 2.1c-.2.6-.3 1.5-.3 2.8v3.5h12.7z"
       id="A9K-MOD80-TRpath267" /><path
       d="M2635.8 165.9c-.3.8-.7 1.5-1.3 1.9-.6.4-1.2.6-2 .6-1.2 0-2.2-.4-3-1.3-.8-.9-1.2-2-1.2-3.4s.4-2.6 1.3-3.5c.8-.9 1.9-1.3 3-1.3.8 0 1.4.2 2 .6.6.4 1 1 1.3 1.8.3-1 .9-1.8 1.6-2.3.7-.5 1.6-.8 2.6-.8 1.4 0 2.6.5 3.5 1.5 1 1 1.4 2.3 1.4 3.9s-.5 2.9-1.4 3.9c-.9 1-2.2 1.5-3.6 1.5-1.1 0-2-.3-2.7-.8-.7-.5-1.2-1.3-1.5-2.3zm-3.4.4c.8 0 1.4-.3 1.9-.8s.7-1.2.7-2-.2-1.4-.7-1.9c-.5-.5-1.1-.7-1.8-.7a2.732 2.732 0 0 0-2.7 2.7c0 .8.2 1.4.7 1.9.5.5 1.2.8 1.9.8zm7.6.6c.6 0 1.1-.1 1.7-.4.6-.3 1-.7 1.3-1.2.3-.5.4-1.1.4-1.7 0-1-.3-1.8-.9-2.4-.6-.6-1.4-.9-2.4-.9s-1.8.3-2.4 1c-.6.6-1 1.5-1 2.4 0 1 .3 1.7.9 2.4.6.7 1.4.8 2.4.8z"
       id="A9K-MOD80-TRpath269" /><path
       d="M2636.6 156.2c-1.9 0-3.5-.2-4.7-.6-1.2-.4-2.1-1-2.7-1.8-.6-.8-1-1.8-1-3 0-.9.2-1.7.5-2.3.4-.7.9-1.2 1.5-1.7.7-.4 1.5-.8 2.4-1 .9-.2 2.3-.4 3.9-.4 1.9 0 3.5.2 4.7.6 1.2.4 2.1 1 2.8 1.8.7.8 1 1.8 1 3 0 1.6-.6 2.8-1.7 3.7-1.4 1.1-3.6 1.7-6.7 1.7zm0-2.1c2.7 0 4.5-.3 5.4-.9.9-.6 1.3-1.4 1.3-2.3 0-.9-.4-1.7-1.3-2.3-.9-.6-2.7-.9-5.4-.9s-4.5.3-5.4.9c-.9.6-1.3 1.4-1.3 2.4 0 .9.4 1.7 1.2 2.2 1 .6 2.8.9 5.5.9z"
       id="A9K-MOD80-TRpath271" /><path
       d="M2639.8 143.6h-2v-6.2h2v6.2z"
       id="A9K-MOD80-TRpath273" /><path
       d="M2644.7 130.7h-14.5v5.4h-1.9v-13h1.9v5.4h14.5v2.2z"
       id="A9K-MOD80-TRpath275" /><path
       d="M2644.7 120.8h-16.5v-7.3c0-1.5.1-2.6.4-3.3.3-.8.8-1.4 1.6-1.8.7-.5 1.6-.7 2.5-.7 1.2 0 2.2.4 3 1.1.8.8 1.3 1.9 1.5 3.5.3-.6.5-1 .8-1.3.6-.6 1.3-1.2 2.2-1.8l4.5-2.9v2.7l-3.4 2.2c-1 .6-1.7 1.2-2.3 1.6-.5.4-.9.8-1.1 1.1-.2.3-.4.7-.4 1-.1.2-.1.7-.1 1.2v2.5h7.3v2.2zm-9.2-2.2V114c0-1-.1-1.8-.3-2.3-.2-.6-.5-1-1-1.3-.5-.3-.9-.4-1.5-.4-.8 0-1.4.3-1.9.8-.5.6-.8 1.5-.8 2.7v5.2h5.5z"
       id="A9K-MOD80-TRpath277" /></g><text
     xml:space="preserve"
     style="font-style:normal;font-weight:normal;font-size:40px;line-height:1.25;font-family:sans-serif;letter-spacing:0px;word-spacing:0px;fill:#000000;fill-opacity:1;stroke:none"
     x="184.33467"
     y="155.769"
     id="text148"><tspan
       sodipodi:role="line"
       id="tspan146"
       x="184.33467"
       y="192.26221" /></text>
</svg>