<?xml version="1.0" encoding="UTF-8" standalone="no"?>
<svg
   xmlns:dc="http://purl.org/dc/elements/1.1/"
   xmlns:cc="http://creativecommons.org/ns#"
   xmlns:rdf="http://www.w3.org/1999/02/22-rdf-syntax-ns#"
   xmlns:svg="http://www.w3.org/2000/svg"
   xmlns="http://www.w3.org/2000/svg"
   xmlns:xlink="http://www.w3.org/1999/xlink"
   xmlns:sodipodi="http://sodipodi.sourceforge.net/DTD/sodipodi-0.dtd"
   xmlns:inkscape="http://www.inkscape.org/namespaces/inkscape"
   xml:space="preserve"
   width="2782.4"
   height="311.5"
   version="1.1"
   id="svg453"
   viewBox="0 0 2782.3999 311.5"
   sodipodi:docname="A9K-RSP-4G.svg"
   inkscape:version="0.92.1 r15371"><metadata
     id="metadata459"><rdf:RDF><cc:Work
         rdf:about=""><dc:format>image/svg+xml</dc:format><dc:type
           rdf:resource="http://purl.org/dc/dcmitype/StillImage" /></cc:Work></rdf:RDF></metadata><defs
     id="defs457" /><sodipodi:namedview
     pagecolor="#ffffff"
     bordercolor="#666666"
     borderopacity="1"
     objecttolerance="10"
     gridtolerance="10"
     guidetolerance="10"
     inkscape:pageopacity="0"
     inkscape:pageshadow="2"
     inkscape:window-width="1920"
     inkscape:window-height="986"
     id="namedview455"
     showgrid="false"
     inkscape:zoom="0.62929021"
     inkscape:cx="1391.25"
     inkscape:cy="155.75002"
     inkscape:window-x="-11"
     inkscape:window-y="-11"
     inkscape:window-maximized="1"
     inkscape:current-layer="svg453" /><path
     d="M2601 14V2c0-1.5 0-1.5-1.5-1.5h0H150s-1.5 0-1.5 1.5v12c0 1.5 1.5 3 1.5 3h2449.5c1.5 0 1.5-1.5 1.5-3h0z"
     style="fill:#bfbfbf;stroke:gray;stroke-linecap:round;stroke-linejoin:round;stroke-miterlimit:10"
     id="path2" /><path
     d="M1432.5 291.5v-267c0-6-4.5-10.5-10.5-10.5H207c-6 0-12 4.5-12 10.5v231c0 6 6 10.5 12 10.5h877.5v13.5c0 7.5 4.5 12 10.5 12h337.5z"
     style="clip-rule:evenodd;fill:#f0f0f0;fill-rule:evenodd"
     id="path4" /><path
     d="M1432.5 291.5v-267c0-6-4.5-10.5-10.5-10.5h0H207c-6 0-12 4.5-12 10.5v231c0 6 6 10.5 12 10.5h877.5v13.5c0 7.5 4.5 12 10.5 12h337.5z"
     style="fill:none;stroke:#737373;stroke-width:.06;stroke-linecap:round;stroke-linejoin:round;stroke-miterlimit:10"
     id="path6" /><path
     style="clip-rule:evenodd;fill:#d9d9d9;fill-rule:evenodd"
     d="M135 17h2520v292.5H135z"
     id="path8" /><path
     style="fill:none;stroke:#c2c2c2;stroke-width:.06;stroke-linecap:round;stroke-linejoin:round;stroke-miterlimit:10"
     d="M135 309.5h2520V17H135z"
     id="path10" /><path
     style="fill:none;stroke:#737373;stroke-width:.06;stroke-linecap:round;stroke-linejoin:round;stroke-miterlimit:10"
     d="M2506.5 50v210h28.5V50z"
     id="path12" /><path
     style="fill:none;stroke:#737373;stroke-width:.06;stroke-linecap:round;stroke-linejoin:round;stroke-miterlimit:10"
     d="M2506.5 260h28.5V50h-28.5z"
     id="path14" /><path
     d="m2529 229.8-18.3-7v-2.6l18.3-7.5v2.8l-5.5 2.1v7.6l5.5 2v2.6zm-7.5-5.2v-6.2l-5.1 1.9c-1.5.6-2.8 1-3.8 1.3 1.2.2 2.3.6 3.5 1l5.4 2zM2524.7 212.2l-.2-2.2c1-.2 1.7-.5 2.2-1 .5-.5.7-1.2.7-2 0-.7-.2-1.3-.5-1.8s-.7-.9-1.3-1.3c-.6-.4-1.2-.6-2.1-.8-.9-.2-1.8-.3-2.7-.3h-.4c.7.4 1.3 1.1 1.7 1.8.4.8.7 1.6.7 2.5 0 1.5-.5 2.8-1.6 3.8s-2.5 1.6-4.3 1.6c-1.9 0-3.3-.5-4.5-1.6-1.1-1.1-1.7-2.5-1.7-4.1 0-1.2.3-2.3 1-3.3.6-1 1.5-1.7 2.7-2.2 1.2-.5 2.9-.8 5.1-.8 2.3 0 4.2.3 5.6.8 1.4.5 2.4 1.3 3.2 2.3.7 1 1.1 2.2 1.1 3.5 0 1.4-.4 2.6-1.2 3.5-.9.9-2 1.4-3.5 1.6zm-8-9.2c-1.3 0-2.3.3-3.1 1-.8.7-1.1 1.5-1.1 2.5s.4 1.9 1.2 2.6c.8.7 1.9 1.1 3.2 1.1 1.2 0 2.1-.4 2.8-1.1.7-.7 1.1-1.6 1.1-2.6s-.4-1.9-1.1-2.6c-.7-.6-1.7-.9-3-.9zM2529 196.5h-18.3v-2.4h9.1l-9.1-9.1v-3.3l7.4 7.7 10.9-8v3.2l-9.2 6.5 2.9 3h6.3v2.4zM2523.5 181.3h-2.3v-6.9h2.3v6.9zM2529 172.5h-18.3v-8.1c0-1.6.2-2.9.5-3.7.3-.8.9-1.5 1.7-2 .8-.5 1.7-.8 2.8-.8 1.3 0 2.4.4 3.3 1.3.9.8 1.5 2.1 1.7 3.9.3-.6.6-1.1.9-1.5.6-.7 1.5-1.4 2.4-2l5-3.2v3l-3.8 2.4c-1.1.7-1.9 1.3-2.5 1.7-.6.5-1 .9-1.2 1.2-.2.4-.4.7-.5 1.1-.1.3-.1.7-.1 1.3v2.8h8.1v2.6zm-10.2-2.4v-5.2c0-1.1-.1-2-.3-2.6-.2-.6-.6-1.1-1.1-1.4-.5-.3-1-.5-1.6-.5-.9 0-1.6.3-2.1.9-.6.6-.8 1.6-.8 3v5.8h5.9zM2523.1 155.2l-.2-2.3c.9-.1 1.7-.4 2.2-.8.6-.4 1.1-1 1.4-1.8.4-.8.5-1.8.5-2.8 0-.9-.1-1.7-.4-2.4-.3-.7-.6-1.2-1.1-1.6-.5-.3-1-.5-1.6-.5-.6 0-1.1.2-1.5.5-.4.3-.8.9-1.1 1.6-.2.5-.5 1.6-.9 3.2-.4 1.7-.8 2.9-1.1 3.5-.5.9-1 1.5-1.7 1.9-.7.4-1.4.6-2.3.6-.9 0-1.8-.3-2.6-.8s-1.4-1.3-1.8-2.3c-.4-1-.6-2.1-.6-3.3 0-1.4.2-2.5.7-3.6.4-1 1.1-1.8 1.9-2.4.8-.6 1.8-.9 2.9-.9l.2 2.3c-1.2.1-2 .5-2.6 1.3-.6.7-.9 1.8-.9 3.2 0 1.5.3 2.5.8 3.2.5.7 1.2 1 1.9 1s1.2-.2 1.6-.7c.4-.5.9-1.7 1.3-3.6.4-1.9.8-3.3 1.2-4 .5-1.1 1.1-1.8 1.9-2.4.8-.5 1.6-.8 2.6-.8s1.9.3 2.7.8c.9.6 1.5 1.4 2 2.4s.7 2.2.7 3.5c0 1.7-.2 3-.7 4.2-.5 1.1-1.2 2-2.2 2.6-.9.8-2 1.1-3.2 1.2zM2529 137.8h-18.3v-6.9c0-1.2.1-2.1.2-2.8.1-.9.4-1.6.9-2.3.4-.6 1-1.1 1.8-1.5.8-.4 1.6-.6 2.5-.6 1.6 0 2.9.5 3.9 1.5 1.1 1 1.6 2.8 1.6 5.4v4.7h7.4v2.5zm-9.6-2.4v-4.7c0-1.6-.3-2.7-.9-3.3-.6-.7-1.4-1-2.5-1-.8 0-1.4.2-2 .6-.6.4-.9.9-1.1 1.5-.1.4-.2 1.2-.2 2.3v4.7h6.7zM2523.5 121.1h-2.3v-6.9h2.3v6.9zM2529 106.1h-4.4v7.9h-2.1l-11.8-8.3v-1.8h11.8v-2.5h2.1v2.5h4.4v2.2zm-6.5 0h-8.2l8.2 5.7v-5.7zM2521.8 90.4h-2.1v-7.7h6.8c.9 1.2 1.7 2.4 2.1 3.7.5 1.3.7 2.6.7 3.9 0 1.8-.4 3.4-1.2 4.9-.8 1.5-1.9 2.6-3.3 3.3-1.5.7-3.1 1.1-4.9 1.1-1.8 0-3.4-.4-5-1.1-1.5-.7-2.7-1.8-3.4-3.2-.7-1.4-1.1-3-1.1-4.8 0-1.3.2-2.5.6-3.6.4-1.1 1-1.9 1.8-2.5.8-.6 1.8-1.1 3-1.4l.6 2.2c-.9.3-1.7.6-2.2 1-.5.4-1 1-1.3 1.7-.3.8-.5 1.6-.5 2.5 0 1.1.2 2.1.5 2.9.3.8.8 1.5 1.3 1.9.5.5 1.2.9 1.8 1.2 1.1.5 2.4.7 3.7.7 1.6 0 3-.3 4.1-.8 1.1-.6 1.9-1.4 2.4-2.4.5-1.1.8-2.2.8-3.4 0-1-.2-2.1-.6-3.1-.4-1-.8-1.8-1.3-2.3h-3.4v5.3z"
     id="path16" /><path
     style="clip-rule:evenodd;fill:#b2b2b2;fill-rule:evenodd;stroke:gray;stroke-miterlimit:10"
     d="M133.5 296H2658v15H133.5z"
     id="path18" /><path
     d="M2655 308v-9s0-1.5-1.5-1.5h0H138c-1.5 0-3 1.5-3 1.5v9s1.5 1.5 3 1.5h2515.5c1.5 0 1.5-1.5 1.5-1.5h0z"
     style="fill:none;stroke:gray;stroke-width:.06;stroke-linecap:round;stroke-linejoin:round;stroke-miterlimit:10"
     id="path20" /><path
     d="M2506.5 266V24.5c0-6-4.5-10.5-10.5-10.5H1444.5c-6 0-12 4.5-12 10.5v231c0 6 6 10.5 12 10.5h1062z"
     style="clip-rule:evenodd;fill:#f0f0f0;fill-rule:evenodd"
     id="path22" /><path
     d="M2506.5 266V24.5c0-6-4.5-10.5-10.5-10.5h0-1051.5c-6 0-12 4.5-12 10.5v231c0 6 6 10.5 12 10.5h1062z"
     style="fill:none;stroke:#c2c2c2;stroke-width:.06;stroke-linecap:round;stroke-linejoin:round;stroke-miterlimit:10"
     id="path24" /><path
     d="M163.5 157.4h-.8l-1-1c-2.4-2.5-3.6-3.6-5.1-3.6-1 0-1.9.5-1.9 1.9 0 .9.5 1.6.8 2.1l-.9.4c-.6-.7-1-1.6-1-2.8 0-2.1 1.4-3 2.8-3 1.8 0 3.3 1.3 5.2 3.4l.7.8v-4.4h1.1v6.2zM158.6 35.5c3.3 0 5.1 1.2 5.1 3.4 0 1.9-1.8 3.2-5 3.2-3.3 0-5.1-1.4-5.1-3.4s1.9-3.2 5-3.2zm.1 5.3c2.5 0 4-.8 4-2 0-1.4-1.6-2-4.1-2-2.4 0-4 .6-4 2 0 1.2 1.5 2 4.1 2zM2591 39.1l.9 1.7-1 .3-1.1-2.1v-1.1h9.8v1.3h-8.6z"
     id="path26" /><path
     style="clip-rule:evenodd;fill:#a6a6a6;fill-rule:evenodd"
     d="M271.5 171.5h111v93h-111z"
     id="path28" /><path
     style="fill:none;stroke:#404040;stroke-width:.12;stroke-linecap:round;stroke-linejoin:round;stroke-miterlimit:10"
     d="M381 173H273h0v90h108z"
     id="path30" /><path
     d="M343.5 263v-4.5c0-1.5 1.5-1.5 1.5-1.5h4.5l1.5-1.5V245s0-1.5 1.5-1.5h18c1.5 0 1.5 0 1.5-1.5v-52.5c0-1.5 0-1.5-1.5-1.5h-87s-1.5 0-1.5 1.5V242c0 1.5 1.5 1.5 1.5 1.5h18c1.5 0 1.5 1.5 1.5 1.5v10.5s1.5 1.5 3 1.5h3s1.5 0 1.5 1.5v4.5h33z"
     data-cv-id="PORT-0"
     style="clip-rule:evenodd;fill-rule:evenodd"
     id="path32" /><path
     style="clip-rule:evenodd;fill:#856427;fill-rule:evenodd"
     d="M351 189.5h4.5v9H351zM343.5 189.5h4.5v9h-4.5zM328.5 189.5h4.5v9h-4.5zM336 189.5h4.5v9H336zM321 189.5h4.5v9H321zM313.5 189.5h4.5v9h-4.5zM306 189.5h4.5v9H306zM298.5 189.5h4.5v9h-4.5z"
     id="path34" /><path
     d="M287.5 157.9v-10.7h2.1l2.5 7.6c.2.7.4 1.2.5 1.6.1-.4.3-1 .6-1.7l2.6-7.5h1.9v10.7h-1.4v-9l-3.1 9H292l-3.1-9.1v9.1h-1.4zM304.7 153.7v-1.3h4.5v4c-.7.6-1.4 1-2.2 1.3-.7.3-1.5.4-2.3.4-1.1 0-2-.2-2.9-.7-.9-.5-1.5-1.1-2-2-.5-.9-.7-1.8-.7-2.9 0-1 .2-2 .7-2.9.4-.9 1.1-1.6 1.9-2 .8-.4 1.8-.7 2.8-.7.8 0 1.5.1 2.1.4.6.3 1.1.6 1.5 1.1.4.5.6 1 .8 1.8l-1.3.4c-.2-.5-.4-1-.6-1.3-.2-.3-.6-.6-1-.8-.4-.2-.9-.3-1.5-.3s-1.2.1-1.7.3c-.5.2-.9.5-1.1.8-.2.3-.5.7-.7 1.1-.3.7-.4 1.4-.4 2.2 0 1 .2 1.8.5 2.4.3.6.8 1.1 1.4 1.4.6.3 1.3.5 2 .5.6 0 1.2-.1 1.8-.4.6-.2 1-.5 1.3-.8v-2h-2.9zM314.3 157.9v-9.5h-3.5v-1.3h8.5v1.3h-3.6v9.5h-1.4zM325.2 157.9v-10.7h1.4v9.5h5.3v1.3h-6.7zM332.9 157.9l4.1-10.7h1.5l4.4 10.7h-1.6l-1.3-3.3h-4.5l-1.2 3.3h-1.4zm3.1-4.4h3.6l-1.1-3c-.3-.9-.6-1.6-.8-2.2-.1.7-.3 1.4-.6 2.1l-1.1 3.1zM343 157.9v-10.7h1.5l5.6 8.4v-8.4h1.4v10.7H350l-5.6-8.4v8.4H343zM357.5 152.6c0-1.3.1-2.3.4-3.1.3-.8.6-1.4 1.2-1.8.6-.4 1.2-.6 1.9-.6.6 0 1.1.1 1.5.3.4.2.8.6 1.1 1 .3.4.5 1 .7 1.6.2.6.2 1.5.2 2.5 0 1.3-.1 2.3-.4 3-.3.8-.6 1.4-1.2 1.8-.5.4-1.2.6-2 .6-1 0-1.8-.4-2.4-1.1-.6-.7-1-2.2-1-4.2zm1.4 0c0 1.8.2 2.9.6 3.5.4.6.9.9 1.5.9s1.1-.3 1.5-.9c.4-.6.6-1.8.6-3.5 0-1.8-.2-2.9-.6-3.5-.4-.6-.9-.9-1.5-.9s-1.1.3-1.5.8c-.4.6-.6 1.8-.6 3.6z"
     id="path36" /><path
     style="clip-rule:evenodd;fill:#404040;fill-rule:evenodd"
     d="M352.5 246.5h21v12h-21z"
     id="path38" /><path
     style="fill:none;stroke:#262626;stroke-width:.06;stroke-linecap:round;stroke-linejoin:round;stroke-miterlimit:10"
     d="M373.5 258.5v-12h0-21v12z"
     id="path40" /><path
     style="clip-rule:evenodd;fill:#404040;fill-rule:evenodd"
     d="M282 246.5h19.5v12H282z"
     id="path42" /><path
     style="fill:none;stroke:#262626;stroke-width:.06;stroke-linecap:round;stroke-linejoin:round;stroke-miterlimit:10"
     d="M301.5 258.5v-12h0H282v12z"
     id="path44" /><path
     style="fill:none;stroke:#000;stroke-width:.06;stroke-linecap:round;stroke-linejoin:round;stroke-miterlimit:10"
     d="M283.5 188 273 173M370.5 188l10.5-15"
     id="path46" /><path
     style="clip-rule:evenodd;fill:#a6a6a6;fill-rule:evenodd"
     d="M417 171.5h111v93H417z"
     id="path48" /><path
     style="fill:none;stroke:#404040;stroke-width:.12;stroke-linecap:round;stroke-linejoin:round;stroke-miterlimit:10"
     d="M526.5 173h-108 0v90h108z"
     id="path50" /><path
     d="M489 263v-4.5c0-1.5 1.5-1.5 1.5-1.5h4.5l1.5-1.5V245s0-1.5 1.5-1.5h18s1.5 0 1.5-1.5v-52.5c0-1.5-1.5-1.5-1.5-1.5h-87c-1.5 0-1.5 0-1.5 1.5V242c0 1.5 0 1.5 1.5 1.5h18c1.5 0 1.5 1.5 1.5 1.5v10.5l1.5 1.5h3c1.5 0 3 0 3 1.5v4.5h33z"
     data-cv-id="PORT-1"
     style="clip-rule:evenodd;fill-rule:evenodd"
     id="path52" /><path
     style="clip-rule:evenodd;fill:#856427;fill-rule:evenodd"
     d="M495 189.5h4.5v9H495zM487.5 189.5h6v9h-6zM474 189.5h4.5v9H474zM481.5 189.5h4.5v9h-4.5zM466.5 189.5h4.5v9h-4.5zM459 189.5h4.5v9H459zM451.5 189.5h4.5v9h-4.5zM444 189.5h4.5v9H444z"
     id="path54" /><path
     d="M433 157.9v-10.7h2.1l2.5 7.6c.2.7.4 1.2.5 1.6.1-.4.3-1 .6-1.7l2.6-7.5h1.9v10.7h-1.4v-9l-3.1 9h-1.3l-3.1-9.1v9.1H433zM450.2 153.7v-1.3h4.5v4c-.7.6-1.4 1-2.2 1.3-.7.3-1.5.4-2.3.4-1.1 0-2-.2-2.9-.7-.9-.5-1.5-1.1-2-2-.5-.9-.7-1.8-.7-2.9 0-1 .2-2 .7-2.9.4-.9 1.1-1.6 1.9-2 .8-.4 1.8-.7 2.8-.7.8 0 1.5.1 2.1.4.6.3 1.1.6 1.5 1.1.4.5.6 1 .8 1.8l-1.3.4c-.2-.5-.4-1-.6-1.3-.2-.3-.6-.6-1-.8-.4-.2-.9-.3-1.5-.3s-1.2.1-1.7.3c-.5.2-.9.5-1.1.8-.2.3-.5.7-.7 1.1-.3.7-.4 1.4-.4 2.2 0 1 .2 1.8.5 2.4.3.6.8 1.1 1.4 1.4.6.3 1.3.5 2 .5.6 0 1.2-.1 1.8-.4.6-.2 1-.5 1.3-.8v-2h-2.9zM459.8 157.9v-9.5h-3.5v-1.3h8.5v1.3h-3.6v9.5h-1.4zM470.5 157.9v-10.7h1.4v9.5h5.3v1.3h-6.7z"
     id="path56" /><path
     d="m477 157.9 4.1-10.7h1.5l4.4 10.7h-1.6l-1.3-3.3h-4.5l-1.2 3.3H477zm3.1-4.4h3.6l-1.1-3c-.3-.9-.6-1.6-.8-2.2-.1.7-.3 1.4-.6 2.1l-1.1 3.1zM488.5 157.9v-10.7h1.5l5.6 8.4v-8.4h1.4v10.7h-1.5l-5.6-8.4v8.4h-1.4zM508 157.9h-1.3v-8.4c-.3.3-.7.6-1.2.9-.5.3-1 .5-1.4.7v-1.3c.7-.3 1.4-.8 1.9-1.3s.9-1 1.2-1.4h.8v10.8z"
     id="path58" /><path
     style="clip-rule:evenodd;fill:#404040;fill-rule:evenodd"
     d="M498 246.5h19.5v12H498z"
     id="path60" /><path
     style="fill:none;stroke:#262626;stroke-width:.06;stroke-linecap:round;stroke-linejoin:round;stroke-miterlimit:10"
     d="M517.5 258.5v-12h0H498v12z"
     id="path62" /><path
     style="clip-rule:evenodd;fill:#404040;fill-rule:evenodd"
     d="M426 246.5h21v12h-21z"
     id="path64" /><path
     style="fill:none;stroke:#262626;stroke-width:.06;stroke-linecap:round;stroke-linejoin:round;stroke-miterlimit:10"
     d="M447 258.5v-12h0-21v12z"
     id="path66" /><path
     style="fill:none;stroke:#000;stroke-width:.06;stroke-linecap:round;stroke-linejoin:round;stroke-miterlimit:10"
     d="m429 188-10.5-15M516 188l10.5-15"
     id="path68" /><path
     style="clip-rule:evenodd;fill:#a6a6a6;fill-rule:evenodd"
     d="M561 171.5h112.5v93H561z"
     id="path70" /><path
     style="fill:none;stroke:#404040;stroke-width:.12;stroke-linecap:round;stroke-linejoin:round;stroke-miterlimit:10"
     d="M672 173H564h0v90h108z"
     id="path72" /><path
     d="M634.5 263v-4.5c0-1.5 0-1.5 1.5-1.5h3c1.5 0 1.5-1.5 1.5-1.5V245s1.5-1.5 3-1.5H660c1.5 0 3 0 3-1.5v-52.5c0-1.5-1.5-1.5-3-1.5h-85.5c-1.5 0-1.5 0-1.5 1.5V242c0 1.5 0 1.5 1.5 1.5h18l1.5 1.5v10.5s0 1.5 1.5 1.5h3c1.5 0 1.5 0 1.5 1.5v4.5h34.5z"
     data-cv-id="PORT-2"
     style="clip-rule:evenodd;fill-rule:evenodd"
     id="path74" /><path
     style="clip-rule:evenodd;fill:#856427;fill-rule:evenodd"
     d="M640.5 189.5h4.5v9h-4.5zM633 189.5h4.5v9H633zM618 189.5h6v9h-6zM625.5 189.5h4.5v9h-4.5zM612 189.5h4.5v9H612zM604.5 189.5h4.5v9h-4.5zM597 189.5h4.5v9H597zM589.5 189.5h4.5v9h-4.5z"
     id="path76" /><path
     d="m589.2 154.1 1.4.4c-.3 1.2-.8 2.1-1.6 2.7-.8.6-1.7.9-2.8.9-1.2 0-2.1-.2-2.8-.7-.7-.5-1.3-1.2-1.7-2-.4-.8-.6-1.9-.6-2.9 0-1.1.2-2.1.6-2.9.4-.8 1-1.5 1.8-1.9.8-.4 1.7-.6 2.6-.6 1.1 0 2 .3 2.7.8.7.5 1.2 1.3 1.5 2.3l-1.4.3c-.2-.8-.6-1.4-1.1-1.7-.5-.3-1.1-.5-1.8-.5-.8 0-1.5.2-2.1.6-.6.4-.9.9-1.2 1.6-.2.7-.3 1.4-.3 2.1 0 .9.1 1.7.4 2.4.3.7.7 1.2 1.2 1.5.5.3 1.2.5 1.8.5.8 0 1.5-.2 2-.7.5-.5 1.2-1.3 1.4-2.2zM591.6 152.6c0-1.8.5-3.2 1.4-4.2 1-1 2.2-1.5 3.7-1.5 1 0 1.9.2 2.7.7.8.5 1.4 1.1 1.8 2 .4.8.6 1.8.6 2.9 0 1.1-.2 2.1-.7 2.9-.5.8-1.1 1.5-1.9 2-.8.4-1.7.7-2.6.7-1 0-1.9-.2-2.7-.7-.8-.5-1.4-1.2-1.8-2-.4-.8-.5-1.8-.5-2.8zm1.5.1c0 1.3.3 2.3 1 3.1.7.7 1.6 1.1 2.6 1.1 1.1 0 1.9-.4 2.6-1.1.7-.7 1-1.8 1-3.2 0-.9-.1-1.6-.4-2.3-.3-.7-.7-1.2-1.3-1.5-.6-.4-1.2-.5-1.9-.5-1 0-1.9.3-2.6 1-.6.6-1 1.8-1 3.4zM604.2 157.9v-10.7h1.5l5.6 8.4v-8.4h1.4v10.7h-1.5l-5.6-8.4v8.4h-1.4zM614 154.4l1.3-.1c.1.5.2 1 .4 1.3.2.3.6.6 1.1.8.5.2 1 .3 1.6.3.5 0 1-.1 1.4-.2.4-.1.7-.4.9-.7.2-.3.3-.6.3-.9 0-.3-.1-.6-.3-.9-.2-.3-.5-.5-1-.6-.3-.1-.9-.3-1.9-.5-1-.2-1.7-.5-2.1-.7-.5-.3-.9-.6-1.1-1-.3-.4-.4-.8-.4-1.3s.2-1 .5-1.5.8-.8 1.3-1.1c.5-.3 1.2-.4 2-.4s1.5.1 2.1.4c.6.3 1.1.6 1.4 1.1.3.5.5 1.1.5 1.7l-1.4.1c-.1-.7-.3-1.2-.7-1.5-.4-.3-1-.5-1.9-.5-.9 0-1.5.2-1.9.5-.4.3-.6.7-.6 1.1 0 .4.1.7.4 1 .3.2 1 .5 2.1.8 1.2.3 1.9.5 2.4.7.6.3 1.1.7 1.4 1.1.3.4.4 1 .4 1.5 0 .6-.2 1.1-.5 1.6s-.8.9-1.4 1.2c-.6.3-1.3.4-2.1.4-1 0-1.8-.1-2.4-.4-.7-.3-1.2-.7-1.5-1.3 0-.6-.2-1.3-.3-2zM623.3 152.6c0-1.8.5-3.2 1.4-4.2 1-1 2.2-1.5 3.7-1.5 1 0 1.9.2 2.7.7.8.5 1.4 1.1 1.8 2 .4.8.6 1.8.6 2.9 0 1.1-.2 2.1-.7 2.9-.5.8-1.1 1.5-1.9 2-.8.4-1.7.7-2.6.7-1 0-1.9-.2-2.7-.7-.8-.5-1.4-1.2-1.8-2-.4-.8-.5-1.8-.5-2.8zm1.4.1c0 1.3.3 2.3 1 3.1.7.7 1.6 1.1 2.6 1.1 1.1 0 1.9-.4 2.6-1.1.7-.7 1-1.8 1-3.2 0-.9-.1-1.6-.4-2.3-.3-.7-.7-1.2-1.3-1.5-.6-.4-1.2-.5-1.9-.5-1 0-1.9.3-2.6 1-.6.6-1 1.8-1 3.4zM635.6 157.9v-10.7h1.4v9.5h5.3v1.3h-6.7zM644.6 157.9v-10.7h7.8v1.3h-6.3v3.3h5.9v1.3h-5.9v3.7h6.6v1.3h-8.1z"
     id="path78" /><path
     style="fill:none;stroke:#d1ebf1;stroke-width:.30000001;stroke-linecap:square;stroke-miterlimit:2"
     d="M564 168.5h108"
     id="path80" /><path
     style="fill:none;stroke:gray;stroke-width:.06;stroke-linecap:round;stroke-linejoin:round;stroke-miterlimit:2"
     d="M574.5 188 564 173M574.5 243.5 564 263M660 243.5l12 19.5M660 188l12-15"
     id="path82" /><path
     style="clip-rule:evenodd;fill:#a6a6a6;fill-rule:evenodd"
     d="M706.5 171.5H819v93H706.5z"
     id="path84" /><path
     style="fill:none;stroke:#404040;stroke-width:.12;stroke-linecap:round;stroke-linejoin:round;stroke-miterlimit:2"
     d="M816 173H708h0v90h108z"
     id="path86" /><path
     d="M780 263v-4.5c0-1.5 0-1.5 1.5-1.5h3c1.5 0 1.5-1.5 1.5-1.5V245l1.5-1.5h18c1.5 0 1.5 0 1.5-1.5v-52.5c0-1.5 0-1.5-1.5-1.5h-87s-1.5 0-1.5 1.5V242c0 1.5 1.5 1.5 1.5 1.5H738l1.5 1.5v10.5s0 1.5 1.5 1.5h3c1.5 0 1.5 0 1.5 1.5v4.5H780z"
     data-cv-id="PORT-3"
     style="clip-rule:evenodd;fill-rule:evenodd"
     id="path88" /><path
     style="clip-rule:evenodd;fill:#856427;fill-rule:evenodd"
     d="M786 189.5h4.5v9H786zM778.5 189.5h4.5v9h-4.5zM763.5 189.5h4.5v9h-4.5zM771 189.5h4.5v9H771zM756 189.5h4.5v9H756zM748.5 189.5h4.5v9h-4.5zM741 189.5h6v9h-6zM735 189.5h4.5v9H735z"
     id="path90" /><path
     d="m745.6 157.9 4.1-10.7h1.5l4.4 10.7H754l-1.3-3.3h-4.5l-1.2 3.3h-1.4zm3.1-4.4h3.6l-1.1-3c-.3-.9-.6-1.6-.8-2.2-.1.7-.3 1.4-.6 2.1l-1.1 3.1zM764.2 147.1h1.4v6.2c0 1.1-.1 1.9-.4 2.6-.3.7-.7 1.2-1.3 1.5-.6.4-1.5.6-2.5.6s-1.8-.2-2.5-.5-1.1-.8-1.4-1.5c-.3-.7-.4-1.6-.4-2.7v-6.2h1.4v6.2c0 .9.1 1.6.3 2.1.2.4.5.8.9 1 .4.2.9.4 1.5.4 1 0 1.8-.2 2.2-.7.4-.5.7-1.4.7-2.7v-6.3zM766.6 157.9l4.2-5.6-3.7-5.1h1.7l1.9 2.8c.4.6.7 1 .9 1.3.2-.4.5-.8.8-1.2l2.2-2.8h1.5l-3.8 5.1 4.1 5.7h-1.8l-2.7-3.8c-.2-.2-.3-.5-.5-.7-.2.4-.4.7-.5.8l-2.7 3.7h-1.6z"
     id="path92" /><path
     style="fill:none;stroke:#595959;stroke-width:.30000001;stroke-linecap:square;stroke-miterlimit:2"
     d="M708 168.5h108"
     id="path94" /><path
     style="fill:none;stroke:gray;stroke-width:.06;stroke-linecap:round;stroke-linejoin:round;stroke-miterlimit:2"
     d="M718.5 188 708 173M718.5 243.5 708 263M805.5 243.5 816 263M805.5 188l10.5-15"
     id="path96" /><path
     style="clip-rule:evenodd;fill:#a6a6a6;fill-rule:evenodd"
     d="M852 171.5h111v93H852z"
     id="path98" /><path
     style="fill:none;stroke:#404040;stroke-width:.12;stroke-linecap:round;stroke-linejoin:round;stroke-miterlimit:2"
     d="M961.5 173h-108 0v90h108z"
     id="path100" /><path
     d="M924 263v-4.5c0-1.5 1.5-1.5 1.5-1.5h4.5l1.5-1.5V245s0-1.5 1.5-1.5h18c1.5 0 1.5 0 1.5-1.5v-52.5c0-1.5 0-1.5-1.5-1.5h-87s-1.5 0-1.5 1.5V242c0 1.5 1.5 1.5 1.5 1.5h18c1.5 0 1.5 1.5 1.5 1.5v10.5s1.5 1.5 3 1.5h3s1.5 0 1.5 1.5v4.5h33z"
     data-cv-id="PORT-4"
     style="clip-rule:evenodd;fill-rule:evenodd"
     id="path102" /><path
     style="clip-rule:evenodd;fill:#856427;fill-rule:evenodd"
     d="M931.5 189.5h4.5v9h-4.5zM924 189.5h4.5v9H924zM909 189.5h4.5v9H909zM916.5 189.5h4.5v9h-4.5zM901.5 189.5h4.5v9h-4.5zM894 189.5h4.5v9H894zM886.5 189.5h4.5v9h-4.5zM879 189.5h4.5v9H879z"
     id="path104" /><path
     d="m879.5 154.4 1.3-.1c.1.5.2 1 .4 1.3.2.3.6.6 1.1.8.5.2 1 .3 1.6.3.5 0 1-.1 1.4-.2.4-.1.7-.4.9-.7.2-.3.3-.6.3-.9 0-.3-.1-.6-.3-.9-.2-.3-.5-.5-1-.6-.3-.1-.9-.3-1.9-.5-1-.2-1.7-.5-2.1-.7-.5-.3-.9-.6-1.1-1-.3-.4-.4-.8-.4-1.3s.2-1 .5-1.5.8-.8 1.3-1.1c.5-.3 1.2-.4 2-.4s1.5.1 2.1.4c.6.3 1.1.6 1.4 1.1.3.5.5 1.1.5 1.7l-1.4.1c-.1-.7-.3-1.2-.7-1.5-.4-.3-1-.5-1.9-.5-.9 0-1.5.2-1.9.5-.4.3-.6.7-.6 1.1 0 .4.1.7.4 1 .3.2 1 .5 2.1.8 1.2.3 1.9.5 2.4.7.6.3 1.1.7 1.4 1.1.3.4.4 1 .4 1.5 0 .6-.2 1.1-.5 1.6s-.8.9-1.4 1.2c-.6.3-1.3.4-2.1.4-1 0-1.8-.1-2.4-.4-.7-.3-1.2-.7-1.5-1.3-.1-.6-.3-1.3-.3-2zM893.5 157.9v-4.5l-4.1-6.2h1.7l2.1 3.2c.4.6.8 1.2 1.1 1.8.3-.6.7-1.2 1.2-1.9l2.1-3.2h1.7l-4.3 6.2v4.5h-1.5zM901 157.9v-10.7h1.5l5.6 8.4v-8.4h1.4v10.7H908l-5.6-8.4v8.4H901zM919.3 154.1l1.4.4c-.3 1.2-.8 2.1-1.6 2.7-.8.6-1.7.9-2.8.9-1.2 0-2.1-.2-2.8-.7-.7-.5-1.3-1.2-1.7-2-.4-.8-.6-1.9-.6-2.9 0-1.1.2-2.1.6-2.9.4-.8 1-1.5 1.8-1.9.8-.4 1.7-.6 2.6-.6 1.1 0 2 .3 2.7.8.7.5 1.2 1.3 1.5 2.3l-1.4.3c-.2-.8-.6-1.4-1.1-1.7-.5-.3-1.1-.5-1.8-.5-.8 0-1.5.2-2.1.6-.6.4-.9.9-1.2 1.6-.2.7-.3 1.4-.3 2.1 0 .9.1 1.7.4 2.4.3.7.7 1.2 1.2 1.5.5.3 1.2.5 1.8.5.8 0 1.5-.2 2-.7.5-.5 1.2-1.3 1.4-2.2zM926.1 152.6c0-1.3.1-2.3.4-3.1.3-.8.6-1.4 1.2-1.8.6-.4 1.2-.6 1.9-.6.6 0 1.1.1 1.5.3.4.2.8.6 1.1 1 .3.4.5 1 .7 1.6.2.6.2 1.5.2 2.5 0 1.3-.1 2.3-.4 3-.3.8-.6 1.4-1.2 1.8-.5.4-1.2.6-2 .6-1 0-1.8-.4-2.4-1.1-.6-.7-1-2.2-1-4.2zm1.4 0c0 1.8.2 2.9.6 3.5.4.6.9.9 1.5.9s1.1-.3 1.5-.9c.4-.6.6-1.8.6-3.5 0-1.8-.2-2.9-.6-3.5-.4-.6-.9-.9-1.5-.9s-1.1.3-1.5.8c-.4.6-.6 1.8-.6 3.6z"
     id="path106" /><path
     style="fill:none;stroke:gray;stroke-width:.06;stroke-linecap:round;stroke-linejoin:round;stroke-miterlimit:2"
     d="m864 188-10.5-15M864 243.5 853.5 263M951 243.5l10.5 19.5M951 188l10.5-15"
     id="path108" /><path
     style="clip-rule:evenodd;fill:#a6a6a6;fill-rule:evenodd"
     d="M997.5 171.5h111v93h-111z"
     id="path110" /><path
     style="fill:none;stroke:#404040;stroke-width:.12;stroke-linecap:round;stroke-linejoin:round;stroke-miterlimit:2"
     d="M1107 173H999h0v90h108z"
     id="path112" /><path
     d="M1069.5 263v-4.5c0-1.5 1.5-1.5 1.5-1.5h4.5l1.5-1.5V245s0-1.5 1.5-1.5h18s1.5 0 1.5-1.5v-52.5c0-1.5-1.5-1.5-1.5-1.5h-87c-1.5 0-1.5 0-1.5 1.5V242c0 1.5 0 1.5 1.5 1.5h18c1.5 0 1.5 1.5 1.5 1.5v10.5l1.5 1.5h3c1.5 0 3 0 3 1.5v4.5h33z"
     data-cv-id="PORT-5"
     style="clip-rule:evenodd;fill-rule:evenodd"
     id="path114" /><path
     style="clip-rule:evenodd;fill:#856427;fill-rule:evenodd"
     d="M1075.5 189.5h4.5v9h-4.5zM1068 189.5h6v9h-6zM1054.5 189.5h4.5v9h-4.5zM1062 189.5h4.5v9h-4.5zM1047 189.5h4.5v9h-4.5zM1039.5 189.5h4.5v9h-4.5zM1032 189.5h4.5v9h-4.5zM1024.5 189.5h4.5v9h-4.5z"
     id="path116" /><path
     d="m1025.2 154.4 1.3-.1c.1.5.2 1 .4 1.3.2.3.6.6 1.1.8.5.2 1 .3 1.6.3.5 0 1-.1 1.4-.2.4-.1.7-.4.9-.7.2-.3.3-.6.3-.9 0-.3-.1-.6-.3-.9-.2-.3-.5-.5-1-.6-.3-.1-.9-.3-1.9-.5-1-.2-1.7-.5-2.1-.7-.5-.3-.9-.6-1.1-1-.3-.4-.4-.8-.4-1.3s.2-1 .5-1.5.8-.8 1.3-1.1c.5-.3 1.2-.4 2-.4s1.5.1 2.1.4c.6.3 1.1.6 1.4 1.1.3.5.5 1.1.5 1.7l-1.4.1c-.1-.7-.3-1.2-.7-1.5-.4-.3-1-.5-1.9-.5-.9 0-1.5.2-1.9.5-.4.3-.6.7-.6 1.1 0 .4.1.7.4 1 .3.2 1 .5 2.1.8 1.2.3 1.9.5 2.4.7.6.3 1.1.7 1.4 1.1.3.4.4 1 .4 1.5 0 .6-.2 1.1-.5 1.6s-.8.9-1.4 1.2c-.6.3-1.3.4-2.1.4-1 0-1.8-.1-2.4-.4-.7-.3-1.2-.7-1.5-1.3-.1-.6-.3-1.3-.3-2zM1039.2 157.9v-4.5l-4.1-6.2h1.7l2.1 3.2c.4.6.8 1.2 1.1 1.8.3-.6.7-1.2 1.2-1.9l2.1-3.2h1.7l-4.3 6.2v4.5h-1.5zM1045.2 157.9v-10.7h1.5l5.6 8.4v-8.4h1.4v10.7h-1.5l-5.6-8.4v8.4h-1.4zM1064.8 154.1l1.4.4c-.3 1.2-.8 2.1-1.6 2.7-.8.6-1.7.9-2.8.9-1.2 0-2.1-.2-2.8-.7-.7-.5-1.3-1.2-1.7-2-.4-.8-.6-1.9-.6-2.9 0-1.1.2-2.1.6-2.9.4-.8 1-1.5 1.8-1.9.8-.4 1.7-.6 2.6-.6 1.1 0 2 .3 2.7.8.7.5 1.2 1.3 1.5 2.3l-1.4.3c-.2-.8-.6-1.4-1.1-1.7-.5-.3-1.1-.5-1.8-.5-.8 0-1.5.2-2.1.6-.6.4-.9.9-1.2 1.6-.2.7-.3 1.4-.3 2.1 0 .9.1 1.7.4 2.4.3.7.7 1.2 1.2 1.5.5.3 1.2.5 1.8.5.8 0 1.5-.2 2-.7.5-.5 1.2-1.3 1.4-2.2zM1076.6 157.9h-1.3v-8.4c-.3.3-.7.6-1.2.9-.5.3-1 .5-1.4.7v-1.3c.7-.3 1.4-.8 1.9-1.3s.9-1 1.2-1.4h.8v10.8z"
     id="path118" /><path
     style="fill:none;stroke:gray;stroke-width:.06;stroke-linecap:round;stroke-linejoin:round;stroke-miterlimit:2"
     d="M1009.5 188 999 173M1009.5 243.5 999 263M1096.5 243.5 1107 263M1096.5 188l10.5-15"
     id="path120" /><path
     d="M135 98v84c0 3-1.5 6-4.5 6h-69c-1.5 0-3-1.5-3-3s-1.5-3-1.5-3c-25.5-4.5-42-28.5-37.5-52.5C22.5 110 39 95 58.5 92h72c3 0 4.5 3 4.5 6z"
     style="clip-rule:evenodd;fill:#bfbfbf;fill-rule:evenodd"
     id="path122" /><path
     d="M135 98v84c0 3-1.5 6-4.5 6h0-69c-1.5 0-3-1.5-3-3h0c0-1.5-1.5-3-1.5-3-25.5-4.5-42-28.5-37.5-52.5C22.5 110 39 95 58.5 92h72c3 0 4.5 3 4.5 6h0z"
     style="fill:none;stroke:gray;stroke-width:.06;stroke-linecap:round;stroke-linejoin:round;stroke-miterlimit:2"
     id="path124" /><path
     d="M58.5 176c-21 0-39-18-39-39s18-39 39-39 39 18 39 39-18 39-39 39h0z"
     style="fill:none;stroke:#9a9a9a;stroke-width:.06;stroke-linecap:round;stroke-linejoin:round;stroke-miterlimit:2"
     id="path126" /><path
     d="M58.5 159.5C46.5 159.5 36 149 36 137s10.5-22.5 22.5-22.5S81 125 81 137s-10.5 22.5-22.5 22.5z"
     style="clip-rule:evenodd;fill:#d9d9d9;fill-rule:evenodd"
     id="path128" /><path
     d="M58.5 159.5C46.5 159.5 36 149 36 137s10.5-22.5 22.5-22.5S81 125 81 137s-10.5 22.5-22.5 22.5h0z"
     style="fill:none;stroke:#4d4d4d;stroke-linecap:round;stroke-linejoin:round;stroke-miterlimit:2"
     id="path130" /><path
     style="fill:none;stroke:#1a1a1a;stroke-linecap:round;stroke-linejoin:round;stroke-miterlimit:2"
     d="M58.5 150.5v-27M72 137H45"
     id="path132" /><path
     style="clip-rule:evenodd;fill:#d9d9d9;fill-rule:evenodd"
     d="M51 186.5h105V212H51z"
     id="path134" /><path
     d="M54 209v-15c0-3 1.5-6 4.5-6h90c3 0 6 3 6 6h0v15s0 1.5-1.5 1.5h0-97.5c-1.5 0-1.5-1.5-1.5-1.5h0z"
     style="fill:none;stroke:gray;stroke-width:.06;stroke-linecap:round;stroke-linejoin:round;stroke-miterlimit:2"
     id="path136" /><path
     style="clip-rule:evenodd;fill:#595959;fill-rule:evenodd"
     d="M64.5 210.5H141V230H64.5z"
     id="path138" /><path
     style="fill:none;stroke:gray;stroke-width:.06;stroke-linecap:round;stroke-linejoin:round;stroke-miterlimit:2"
     d="M141 230H64.5h0v-19.5H141z"
     id="path140" /><path
     style="clip-rule:evenodd;fill:#7f7f7f;fill-rule:evenodd"
     d="M0 209h24v69H0z"
     id="path142" /><path
     d="M22.5 276.5h-15c-3 0-4.5-1.5-4.5-3h0V215c0-3 1.5-4.5 4.5-4.5h15"
     style="fill:none;stroke:gray;stroke-width:.06;stroke-linecap:round;stroke-linejoin:round;stroke-miterlimit:2"
     id="path144" /><path
     style="clip-rule:evenodd;fill:#7f7f7f;fill-rule:evenodd"
     d="M19.5 209h24v69h-24z"
     id="path146" /><path
     d="M22.5 276.5H42m0-66H22.5"
     style="fill:none;stroke:gray;stroke-width:.06;stroke-linecap:round;stroke-linejoin:round;stroke-miterlimit:2"
     id="path148" /><path
     style="clip-rule:evenodd;fill:#666;fill-rule:evenodd"
     d="M39 209h27v69H39z"
     id="path150" /><path
     d="M40.5 276.5h18c3 0 6-1.5 6-3h0V215c0-3-3-4.5-6-4.5h-18"
     style="fill:none;stroke:gray;stroke-width:.06;stroke-linecap:round;stroke-linejoin:round;stroke-miterlimit:2"
     id="path152" /><path
     style="clip-rule:evenodd;fill:#d9d9d9;fill-rule:evenodd"
     d="M42 228.5h102V278H42z"
     id="path154" /><path
     d="M43.5 276.5c10.5-13.5 18-30 21-46.5H141v46.5H43.5h0z"
     style="fill:none;stroke:gray;stroke-width:.06;stroke-linecap:round;stroke-linejoin:round;stroke-miterlimit:2"
     id="path156" /><path
     d="M180 225.5c4.5 0 9 9 9 18s-4.5 18-9 18-7.5-9-7.5-18 3-18 7.5-18z"
     style="clip-rule:evenodd;fill:#8c8c8c;fill-rule:evenodd"
     id="path158" /><path
     style="clip-rule:evenodd;fill:#8c8c8c;fill-rule:evenodd"
     d="M177 264.5h-12l-3 12h-9V212h24z"
     id="path160" /><path
     style="fill:none;stroke:gray;stroke-width:.06;stroke-linecap:round;stroke-linejoin:round;stroke-miterlimit:2"
     d="M177 264.5h-12l-3 12h-9 0V212h24z"
     id="path162" /><path
     d="M123 276.5c9-12 16.5-25.5 18-40.5v-25.5h12v66h-30z"
     style="clip-rule:evenodd;fill:#a6a6a6;fill-rule:evenodd"
     id="path164" /><path
     d="M123 276.5c9-12 16.5-25.5 18-40.5h0v-25.5h12v66h-30 0z"
     style="fill:none;stroke:gray;stroke-width:.06;stroke-linecap:round;stroke-linejoin:round;stroke-miterlimit:2"
     id="path166" /><path
     d="M39 294.5v-12l13.5-6H534c3 0 6 3 6 6v12c0 3-3 6-6 6H52.5l-13.5-6z"
     style="clip-rule:evenodd;fill:#595959;fill-rule:evenodd"
     id="path168" /><path
     d="M39 294.5v-12l13.5-6H534c3 0 6 3 6 6v12c0 3-3 6-6 6h0H52.5l-13.5-6h0z"
     style="fill:none;stroke:gray;stroke-width:.06;stroke-linecap:round;stroke-linejoin:round;stroke-miterlimit:2"
     id="path170" /><path
     style="clip-rule:evenodd;fill:#737373;fill-rule:evenodd"
     d="M477 266h550.5v45H477z"
     id="path172" /><path
     style="fill:none;stroke:#a6a6a6;stroke-width:.06;stroke-linecap:round;stroke-linejoin:round;stroke-miterlimit:2"
     d="M1027.5 266H477h0v45h550.5z"
     id="path174" /><path
     d="M1039.5 266v45c19.5 0 39-3 58.5-7.5V275c-19.5-6-39-9-58.5-9z"
     style="clip-rule:evenodd;fill:#737373;fill-rule:evenodd"
     id="path176" /><path
     d="M1039.5 266v45c19.5 0 39-3 58.5-7.5h0V275h0c-19.5-6-39-9-58.5-9h0z"
     style="fill:none;stroke:#a6a6a6;stroke-width:.06;stroke-linecap:round;stroke-linejoin:round;stroke-miterlimit:2"
     id="path178" /><path
     d="M472.5 266c-18 1.5-31.5 13.5-30 25.5 3 10.5 15 18 30 19.5h4.5v-45h-4.5z"
     style="clip-rule:evenodd;fill:#737373;fill-rule:evenodd"
     id="path180" /><path
     d="M472.5 266c-18 1.5-31.5 13.5-30 25.5 3 10.5 15 18 30 19.5h4.5v-45h-4.5 0z"
     style="fill:none;stroke:#a6a6a6;stroke-width:.06;stroke-linecap:round;stroke-linejoin:round;stroke-miterlimit:2"
     id="path182" /><path
     style="clip-rule:evenodd;fill:#595959;fill-rule:evenodd"
     d="M1027.5 266h12v45h-12z"
     id="path184" /><path
     style="fill:none;stroke:#a6a6a6;stroke-width:.06;stroke-linecap:round;stroke-linejoin:round;stroke-miterlimit:2"
     d="M1039.5 266h-12 0v45h12z"
     id="path186" /><path
     d="m1213.5 159.4 5.4-14h2l5.7 14h-2.1l-1.6-4.2h-5.8l-1.5 4.2h-2.1zm4.1-5.7h4.7l-1.5-3.9c-.4-1.2-.8-2.1-1-2.9-.2.9-.4 1.8-.8 2.7l-1.4 4.1zM1228.3 159.4v-14h1.8v12.3h6.9v1.6h-8.7zM1237.4 159.4l5.4-14h2l5.7 14h-2.1l-1.6-4.2h-5.8l-1.5 4.2h-2.1zm4-5.7h4.7l-1.5-3.9c-.4-1.2-.8-2.1-1-2.9-.2.9-.4 1.8-.8 2.7l-1.4 4.1zM1252.6 159.4v-14h6.2c1.2 0 2.2.1 2.8.4.6.2 1.2.7 1.6 1.3.4.6.6 1.3.6 2.1 0 1-.3 1.8-1 2.5-.6.7-1.6 1.1-3 1.3.5.2.9.5 1.1.7.5.5 1.1 1.1 1.5 1.9l2.4 3.8h-2.3l-1.8-2.9c-.5-.8-1-1.5-1.3-1.9-.3-.4-.7-.8-.9-.9-.3-.2-.6-.3-.8-.4-.2 0-.6-.1-1-.1h-2.1v6.2h-2zm1.8-7.8h4c.8 0 1.5-.1 2-.3.5-.2.8-.5 1.1-.8.2-.4.4-.8.4-1.3 0-.7-.2-1.2-.7-1.6-.5-.4-1.2-.6-2.3-.6h-4.4v4.6zM1267.5 159.4v-14h2.8l3.3 9.9c.3.9.5 1.6.7 2.1.2-.5.4-1.3.7-2.2l3.3-9.7h2.5v14h-1.8v-11.7l-4.1 11.7h-1.7l-4-11.9v11.9h-1.7zM1289.5 152.6c0-2.3.6-4.1 1.9-5.4 1.2-1.3 2.9-2 4.8-2 1.3 0 2.4.3 3.5.9 1 .6 1.8 1.5 2.4 2.6.5 1.1.8 2.4.8 3.7 0 1.4-.3 2.7-.9 3.8-.6 1.1-1.4 2-2.4 2.5-1 .6-2.2.9-3.4.9-1.3 0-2.5-.3-3.5-1s-1.8-1.5-2.4-2.6c-.5-1-.8-2.1-.8-3.4zm1.9.1c0 1.7.5 3 1.4 4 .9 1 2 1.5 3.4 1.5s2.5-.5 3.4-1.5c.9-1 1.3-2.4 1.3-4.2 0-1.1-.2-2.1-.6-3-.4-.8-.9-1.5-1.7-2-.7-.5-1.6-.7-2.5-.7-1.3 0-2.4.4-3.4 1.3-.8 1-1.3 2.5-1.3 4.6zM1314.2 145.5h1.8v8.1c0 1.4-.2 2.5-.5 3.3-.3.8-.9 1.5-1.7 2-.8.5-1.9.8-3.3.8-1.3 0-2.4-.2-3.2-.7-.8-.5-1.4-1.1-1.8-2-.4-.9-.5-2-.5-3.5v-8.1h1.8v8.1c0 1.2.1 2.1.3 2.7.2.6.6 1 1.2 1.3.5.3 1.2.5 2 .5 1.4 0 2.3-.3 2.9-.9.6-.6.9-1.8.9-3.6v-8zM1323.5 159.4v-12.3h-4.6v-1.6h11.1v1.6h-4.6v12.3h-1.9z"
     id="path188" /><path
     style="clip-rule:evenodd;fill:#d9d9d9;fill-rule:evenodd"
     d="M1453.5 17h453v18h-453z"
     id="path190" /><path
     style="fill:none;stroke:#a6a6a6;stroke-width:.06;stroke-linecap:round;stroke-linejoin:round;stroke-miterlimit:2"
     d="M1455 33.5h450v-15h-450z"
     id="path192" /><path
     style="clip-rule:evenodd;fill:gray;fill-rule:evenodd"
     d="M1432.5 33.5h495v264h-495z"
     id="path194" /><path
     style="fill:none;stroke:#a6a6a6;stroke-width:.06;stroke-linecap:round;stroke-linejoin:round;stroke-miterlimit:2"
     d="M1432.5 297.5h495v-264h-495z"
     id="path196" /><path
     style="clip-rule:evenodd;fill:#595959;fill-rule:evenodd"
     d="M1441.5 264.5h477V287h-477z"
     id="path198" /><path
     style="fill:none;stroke:#a6a6a6;stroke-width:.06;stroke-linecap:round;stroke-linejoin:round;stroke-miterlimit:2"
     d="M1444.5 285.5H1917V266h-472.5z"
     id="path200" /><path
     style="clip-rule:evenodd;fill:#d9d9d9;fill-rule:evenodd"
     d="M1455 159.5h450V266h-450z"
     id="path202" /><path
     style="fill:none;stroke:#a6a6a6;stroke-width:.06;stroke-linecap:round;stroke-linejoin:round;stroke-miterlimit:2"
     d="M1455 266h450V159.5h-450z"
     id="path204" /><path
     style="clip-rule:evenodd;fill:gray;fill-rule:evenodd"
     d="M1444.5 32H1917v112.5h-472.5z"
     id="path206" /><path
     style="fill:none;stroke:#a6a6a6;stroke-width:.06;stroke-linecap:round;stroke-linejoin:round;stroke-miterlimit:2"
     d="M1444.5 144.5H1917V32h-472.5z"
     id="path208" /><path
     style="clip-rule:evenodd;fill:#d9d9d9;fill-rule:evenodd"
     d="M1453.5 143h453v18h-453z"
     id="path210" /><path
     style="fill:none;stroke:#a6a6a6;stroke-width:.06;stroke-linecap:round;stroke-linejoin:round;stroke-miterlimit:2"
     d="M1455 159.5h450V146h-450z"
     id="path212" /><path
     style="clip-rule:evenodd;fill:#595959;fill-rule:evenodd"
     d="M1882.5 48.5h48V68h-48z"
     id="path214" /><path
     style="fill:none;stroke:#a6a6a6;stroke-width:.06;stroke-linecap:round;stroke-linejoin:round;stroke-miterlimit:2"
     d="M1927.5 66.5H1884h0v-15h43.5z"
     id="path216" /><path
     style="clip-rule:evenodd;fill:#d9d9d9;fill-rule:evenodd"
     d="M1908 32h12v118.5h-12z"
     id="path218" /><path
     style="fill:none;stroke:#a6a6a6;stroke-width:.06;stroke-linecap:round;stroke-linejoin:round;stroke-miterlimit:2"
     d="M1918.5 149h-9 0V33.5h9z"
     id="path220" /><path
     style="clip-rule:evenodd;fill:#d9d9d9;fill-rule:evenodd"
     d="M1896 17h12v84h-12z"
     id="path222" /><path
     style="fill:none;stroke:#a6a6a6;stroke-width:.06;stroke-linecap:round;stroke-linejoin:round;stroke-miterlimit:2"
     d="M1906.5 99.5h-7.5 0V20h7.5z"
     id="path224" /><path
     d="M1860 146v-10.5c1.5-7.5 6-13.5 13.5-16.5l21-10.5v-72H1455v54c0 7.5 4.5 15 10.5 16.5l37.5 30c1.5 0 3 1.5 3 3s3 4.5 4.5 4.5L1860 146z"
     style="clip-rule:evenodd;fill:#d9d9d9;fill-rule:evenodd"
     id="path226" /><path
     d="M1860 146v-10.5c1.5-7.5 6-13.5 13.5-16.5h0l21-10.5v-72H1455v54c0 7.5 4.5 15 10.5 16.5l37.5 30c1.5 0 3 1.5 3 3s3 4.5 4.5 4.5L1860 146h0z"
     style="fill:none;stroke:#a6a6a6;stroke-width:.06;stroke-linecap:round;stroke-linejoin:round;stroke-miterlimit:2"
     id="path228" /><path
     d="M1603.5 51.5c-10.5 0-18 9-18 19.5h0m0 39c0 10.5 7.5 19.5 18 19.5m154.5 0c10.5 0 18-9 18-19.5m0-39c0-10.5-7.5-19.5-18-19.5"
     style="fill:none;stroke:#000;stroke-width:.06;stroke-linecap:round;stroke-linejoin:round;stroke-miterlimit:2"
     id="path230" /><path
     d="M1917 164v100.5h78v-75c1.5-13.5-9-25.5-21-25.5h-57z"
     style="clip-rule:evenodd;fill:gray;fill-rule:evenodd"
     id="path232" /><path
     d="M1917 164v100.5h78v-75c1.5-13.5-9-25.5-21-25.5h-57 0z"
     style="fill:none;stroke:#a6a6a6;stroke-width:.06;stroke-linecap:round;stroke-linejoin:round;stroke-miterlimit:2"
     id="path234" /><path
     style="clip-rule:evenodd;fill:#595959;fill-rule:evenodd"
     d="M1431 48.5h48V68h-48z"
     id="path236" /><path
     style="fill:none;stroke:#a6a6a6;stroke-width:.06;stroke-linecap:round;stroke-linejoin:round;stroke-miterlimit:2"
     d="M1432.5 66.5h43.5v-15h-43.5z"
     id="path238" /><path
     style="clip-rule:evenodd;fill:#d9d9d9;fill-rule:evenodd"
     d="M1441.5 32h12v118.5h-12z"
     id="path240" /><path
     style="fill:none;stroke:#a6a6a6;stroke-width:.06;stroke-linecap:round;stroke-linejoin:round;stroke-miterlimit:2"
     d="M1443 149h7.5V33.5h-7.5z"
     id="path242" /><path
     style="clip-rule:evenodd;fill:#d9d9d9;fill-rule:evenodd"
     d="M1452 17h12v84h-12z"
     id="path244" /><path
     style="fill:none;stroke:#a6a6a6;stroke-width:.06;stroke-linecap:round;stroke-linejoin:round;stroke-miterlimit:2"
     d="M1453.5 99.5h9V20h-9z"
     id="path246" /><path
     d="M2647.5 98v84c0 3 3 6 6 6h69c1.5 0 3-1.5 3-3s0-3 1.5-3c24-4.5 40.5-28.5 37.5-52.5-4.5-19.5-19.5-34.5-39-37.5h-72c-3 0-6 3-6 6z"
     style="clip-rule:evenodd;fill:#bfbfbf;fill-rule:evenodd"
     id="path248" /><path
     d="M2647.5 98v84c0 3 3 6 6 6h69c1.5 0 3-1.5 3-3h0c0-1.5 0-3 1.5-3 24-4.5 40.5-28.5 37.5-52.5-4.5-19.5-19.5-34.5-39-37.5h-1.5 0-70.5c-3 0-6 3-6 6h0z"
     style="fill:none;stroke:gray;stroke-width:.06;stroke-linecap:round;stroke-linejoin:round;stroke-miterlimit:2"
     id="path250" /><path
     d="M2725.5 176c21 0 39-18 39-39s-18-39-39-39c-22.5 0-39 18-39 39s16.5 39 39 39h0z"
     style="fill:none;stroke:#9a9a9a;stroke-linecap:round;stroke-linejoin:round;stroke-miterlimit:2"
     id="path252" /><path
     d="M2725.5 159.5c12 0 22.5-10.5 22.5-22.5s-10.5-22.5-22.5-22.5c-13.5 0-24 10.5-24 22.5s10.5 22.5 24 22.5z"
     style="clip-rule:evenodd;fill:#d9d9d9;fill-rule:evenodd"
     id="path254" /><path
     d="M2725.5 159.5c12 0 22.5-10.5 22.5-22.5s-10.5-22.5-22.5-22.5c-13.5 0-24 10.5-24 22.5s10.5 22.5 24 22.5h0z"
     style="fill:none;stroke:#4d4d4d;stroke-width:.06;stroke-linecap:round;stroke-linejoin:round;stroke-miterlimit:2"
     id="path256" /><path
     style="fill:none;stroke:#1a1a1a;stroke-linecap:round;stroke-linejoin:round;stroke-miterlimit:2"
     d="M2725.5 150.5v-27M2712 137h25.5"
     id="path258" /><path
     style="clip-rule:evenodd;fill:#d9d9d9;fill-rule:evenodd"
     d="M2626.5 186.5h105V212h-105z"
     id="path260" /><path
     d="M2730 209v-15c0-3-3-6-6-6h0-90c-3 0-4.5 3-4.5 6h0v15s0 1.5 1.5 1.5h97.5c1.5 0 1.5-1.5 1.5-1.5h0z"
     style="fill:none;stroke:gray;stroke-width:.06;stroke-linecap:round;stroke-linejoin:round;stroke-miterlimit:2"
     id="path262" /><path
     style="clip-rule:evenodd;fill:#595959;fill-rule:evenodd"
     d="M2641.5 210.5h76.5V230h-76.5z"
     id="path264" /><path
     style="fill:none;stroke:gray;stroke-width:.06;stroke-linecap:round;stroke-linejoin:round;stroke-miterlimit:2"
     d="M2641.5 230h76.5v-19.5h-76.5z"
     id="path266" /><path
     style="clip-rule:evenodd;fill:#7f7f7f;fill-rule:evenodd"
     d="M2760 209h22.5v69H2760z"
     id="path268" /><path
     d="M2761.5 276.5h15c3 0 4.5-1.5 4.5-3h0V215c0-3-1.5-4.5-4.5-4.5h0-15"
     style="fill:none;stroke:gray;stroke-width:.06;stroke-linecap:round;stroke-linejoin:round;stroke-miterlimit:2"
     id="path270" /><path
     style="clip-rule:evenodd;fill:#7f7f7f;fill-rule:evenodd"
     d="M2740.5 209h22.5v69h-22.5z"
     id="path272" /><path
     d="M2761.5 276.5H2742m0-66h19.5"
     style="fill:none;stroke:gray;stroke-width:.06;stroke-linecap:round;stroke-linejoin:round;stroke-miterlimit:2"
     id="path274" /><path
     style="clip-rule:evenodd;fill:#666;fill-rule:evenodd"
     d="M2718 209h27v69h-27z"
     id="path276" /><path
     d="M2742 276.5h-18c-3 0-4.5-1.5-4.5-3h0V215c0-3 1.5-4.5 4.5-4.5h18"
     style="fill:none;stroke:gray;stroke-width:.06;stroke-linecap:round;stroke-linejoin:round;stroke-miterlimit:2"
     id="path278" /><path
     style="clip-rule:evenodd;fill:#d9d9d9;fill-rule:evenodd"
     d="M2640 228.5h102V278h-102z"
     id="path280" /><path
     d="M2740.5 276.5c-10.5-13.5-18-30-22.5-46.5h0-76.5v46.5h99z"
     style="fill:none;stroke:gray;stroke-width:.06;stroke-linecap:round;stroke-linejoin:round;stroke-miterlimit:2"
     id="path282" /><path
     d="M2602.5 225.5c-4.5 0-7.5 9-7.5 18s3 18 7.5 18 9-9 9-18-4.5-18-9-18z"
     style="clip-rule:evenodd;fill:#8c8c8c;fill-rule:evenodd"
     id="path284" /><path
     d="M2607 254v-21c-6 1.5-9 7.5-7.5 13.5 1.5 3 4.5 6 7.5 7.5h0z"
     style="fill:none;stroke:#404040;stroke-width:.06;stroke-linecap:round;stroke-linejoin:round;stroke-miterlimit:2"
     id="path286" /><path
     style="clip-rule:evenodd;fill:#8c8c8c;fill-rule:evenodd"
     d="M2607 264.5h10.5l3 12h9l1.5-64.5h-24z"
     id="path288" /><path
     style="fill:none;stroke:gray;stroke-width:.06;stroke-linecap:round;stroke-linejoin:round;stroke-miterlimit:2"
     d="M2607 264.5h10.5l3 12h9l1.5-64.5h-24z"
     id="path290" /><path
     d="M2659.5 276.5c-9-12-15-25.5-18-40.5v-25.5h-12v66h30z"
     style="clip-rule:evenodd;fill:#a6a6a6;fill-rule:evenodd"
     id="path292" /><path
     d="M2659.5 276.5c-9-12-15-25.5-18-40.5h0v-25.5h-12v66h30z"
     style="fill:none;stroke:gray;stroke-width:.06;stroke-linecap:round;stroke-linejoin:round;stroke-miterlimit:2"
     id="path294" /><path
     d="M2745 294.5v-12l-12-6h-418.5c-1.5 0-4.5 3-4.5 6v12c0 3 3 6 4.5 6H2733l12-6z"
     style="clip-rule:evenodd;fill:#595959;fill-rule:evenodd"
     id="path296" /><path
     d="M2745 294.5v-12l-12-6h-418.5c-1.5 0-4.5 3-4.5 6h0v12c0 3 3 6 4.5 6H2733l12-6h0z"
     style="fill:none;stroke:gray;stroke-width:.06;stroke-linecap:round;stroke-linejoin:round;stroke-miterlimit:2"
     id="path298" /><path
     style="clip-rule:evenodd;fill:#737373;fill-rule:evenodd"
     d="M1747.5 266h552v45h-552z"
     id="path300" /><path
     style="fill:none;stroke:#a6a6a6;stroke-width:.06;stroke-linecap:round;stroke-linejoin:round;stroke-miterlimit:2"
     d="M1747.5 311h552v-45h-552z"
     id="path302" /><path
     d="M1737 311v-45c-19.5 0-40.5 3-60 9v27c19.5 7.5 40.5 9 60 9z"
     style="clip-rule:evenodd;fill:#737373;fill-rule:evenodd"
     id="path304" /><path
     d="M1737 311v-45c-19.5 0-40.5 3-60 9h0v27h0c19.5 7.5 40.5 9 60 9h0z"
     style="fill:none;stroke:#a6a6a6;stroke-width:.06;stroke-linecap:round;stroke-linejoin:round;stroke-miterlimit:2"
     id="path306" /><path
     d="M2304 311c18-1.5 31.5-13.5 28.5-25.5-1.5-10.5-13.5-18-28.5-19.5h-4.5v45h4.5z"
     style="clip-rule:evenodd;fill:#737373;fill-rule:evenodd"
     id="path308" /><path
     d="M2304 311c18-1.5 31.5-13.5 28.5-25.5-1.5-10.5-13.5-18-28.5-19.5h0-4.5v45h4.5z"
     style="fill:none;stroke:#a6a6a6;stroke-width:.06;stroke-linecap:round;stroke-linejoin:round;stroke-miterlimit:2"
     id="path310" /><path
     style="clip-rule:evenodd;fill:#595959;fill-rule:evenodd"
     d="M1737 266h10.5v45H1737z"
     id="path312" /><path
     style="fill:none;stroke:#a6a6a6;stroke-width:.06;stroke-linecap:round;stroke-linejoin:round;stroke-miterlimit:2"
     d="M1737 311h10.5v-45H1737z"
     id="path314" /><path
     style="clip-rule:evenodd;fill:#9f9f9f;fill-rule:evenodd"
     d="M2634 216.5h82.5V311H2634z"
     id="path316" /><path
     d="M2637 309.5v-90h78V275c-15 6-30 13.5-43.5 22.5-9 9-22.5 12-34.5 12h0z"
     style="fill:none;stroke:#737373;stroke-width:.06;stroke-linecap:round;stroke-linejoin:round;stroke-miterlimit:2"
     id="path318" /><path
     d="M2592 213.5c-4.5 6-9 12-12 19.5-6 6-13.5 12-22.5 15h0l-51 15h147c9 1.5 16.5 4.5 24 10.5 6 3 13.5 0 16.5-6 12-16.5 22.5-36 31.5-54h0H2592h0z"
     style="fill:none;stroke:#737373;stroke-width:.06;stroke-linecap:round;stroke-linejoin:round;stroke-miterlimit:2"
     id="path320" /><path
     style="clip-rule:evenodd;fill:#9f9f9f;fill-rule:evenodd"
     d="M60 216.5h82.5V311H60z"
     id="path322" /><path
     d="M141 309.5v-90H63V275c15 6 30 13.5 43.5 22.5 9 9 22.5 12 34.5 12h0z"
     style="fill:none;stroke:#737373;stroke-width:.06;stroke-linecap:round;stroke-linejoin:round;stroke-miterlimit:2"
     id="path324" /><path
     style="clip-rule:evenodd;fill:#9f9f9f;fill-rule:evenodd"
     d="M51 210.5h222v66H51z"
     id="path326" /><path
     d="M186 213.5c4.5 6 9 12 12 19.5 6 6 13.5 12 22.5 15h0l49.5 15H124.5c-9 1.5-16.5 4.5-24 10.5-6 3-13.5 0-16.5-6-12-16.5-22.5-36-31.5-54H186z"
     style="fill:none;stroke:#737373;stroke-width:.06;stroke-linecap:round;stroke-linejoin:round;stroke-miterlimit:2"
     id="path328" /><path
     d="M2040 230c-6 0-12 6-12 12 0 7.5 6 13.5 12 13.5 7.5 0 13.5-6 13.5-13.5 0-6-6-12-13.5-12h0z"
     style="fill:#8c8c8c;stroke:#000;stroke-linecap:round;stroke-linejoin:round;stroke-miterlimit:2"
     id="path330" /><path
     d="m2041.5 218.5 2.9.9v1.2l-9.1-3.1v-1.4l9.1-3.1v1.3l-2.9 1v3.2zm-.9-3-2.6.9c-.6.2-1.1.3-1.7.5.5.1 1.1.3 1.6.5l2.6.9v-2.8zM2044.1 204.6c.2.4.4 1.3.4 2.4 0 2.6-1.6 4.5-4.6 4.5-2.8 0-4.8-1.9-4.8-4.8 0-1.1.2-1.9.4-2.2l1 .3c-.2.4-.4 1.1-.4 1.8 0 2.1 1.4 3.6 3.8 3.6 2.2 0 3.7-1.3 3.7-3.5 0-.7-.1-1.4-.4-1.9l.9-.2zM2039.8 192.9c3.1 0 4.8 1.9 4.8 4.2 0 2.4-1.9 4.1-4.6 4.1-2.9 0-4.8-1.8-4.8-4.2-.1-2.5 1.8-4.1 4.6-4.1zm.1 7c1.9 0 3.7-1.1 3.7-2.9 0-1.9-1.7-2.9-3.8-2.9-1.8 0-3.7.9-3.7 2.9 0 1.9 1.8 2.9 3.8 2.9z"
     id="path332" /><path
     d="M2107.5 230c-6 0-12 6-12 12 0 7.5 6 13.5 12 13.5 7.5 0 13.5-6 13.5-13.5 0-6-6-12-13.5-12h0z"
     style="fill:#8c8c8c;stroke:#000;stroke-linecap:round;stroke-linejoin:round;stroke-miterlimit:2"
     id="path334" /><path
     d="M2094.2 221.5v-1.2h8.1v-3.9h1v5.1h-9.1zM2100.4 211.3l2.9.9v1.2l-9.1-3.1V209l9.1-3.1v1.3l-2.9 1v3.1zm-.9-2.9-2.6.9c-.6.2-1.1.3-1.7.5.5.1 1.1.3 1.6.5l2.6.9v-2.8zM2099.3 196.8c-1.3.1-2.8.1-3.9.1 1.1.3 2.2.7 3.5 1.1l4.4 1.6v.9l-4.3 1.5c-1.3.4-2.5.8-3.5 1.1 1.1 0 2.7.1 4 .2l3.9.2v1.1l-9.1-.6v-1.5l4.4-1.6c1.1-.4 2.1-.7 3.1-.9-.9-.2-1.9-.6-3.1-1l-4.4-1.6V196l9.1-.6v1.1l-4.1.3zM2094.3 193c-.1-.6-.2-1.3-.2-2.3 0-1.2.3-2 .8-2.6.4-.5 1.1-.8 1.9-.8.8 0 1.5.2 1.9.7.7.6 1 1.6 1 2.8 0 .4 0 .7-.1.9h3.6v1.2h-8.9zm4.3-1.2c.1-.3.1-.6.1-1 0-1.4-.7-2.3-1.9-2.3s-1.8.9-1.8 2.1c0 .5 0 .9.1 1.1h3.5zM2112.9 219.8v2.8h-1v-6.7h1v2.8h8.1v1.2h-8.1zM2116.7 207.8v3.5h3.3v-3.9h1v5.1h-9.1v-4.9h1v3.7h2.9v-3.5h.9zM2119.5 203.5c.3-.5.6-1.3.6-2.1 0-1.2-.6-1.9-1.6-1.9-.9 0-1.3.5-1.8 1.7-.5 1.5-1.3 2.4-2.6 2.4-1.4 0-2.5-1.2-2.5-2.9 0-.9.2-1.6.4-2l1 .3c-.2.3-.4.9-.4 1.7 0 1.2.7 1.7 1.4 1.7.9 0 1.3-.6 1.8-1.8.6-1.5 1.3-2.3 2.7-2.3 1.4 0 2.6 1 2.6 3.2 0 .9-.3 1.8-.6 2.3l-1-.3zM2112.9 192.7v2.8h-1v-6.7h1v2.8h8.1v1.2h-8.1z"
     id="path336" /><pattern
     id="a"
     xlink:href="#A9K-RSP-4GUnnamed_Pattern"
     patternTransform="matrix(25 0 0 25 229369.06 213488.25)" /><path
     d="M2185.5 197c-4.5 0-9 4.5-9 9 0 6 4.5 9 9 9 6 0 9-3 9-9 0-4.5-3-9-9-9z"
     style="clip-rule:evenodd;fill:url(#a);fill-rule:evenodd"
     id="path339" /><path
     d="M2185.5 197c-4.5 0-9 4.5-9 9 0 6 4.5 9 9 9 6 0 9-3 9-9 0-4.5-3-9-9-9h0z"
     style="fill:none;stroke:#737373;stroke-linecap:round;stroke-linejoin:round;stroke-miterlimit:2"
     id="path341" /><path
     d="M2181.4 257.4V252h1.1v4.1h3.4v-3.8h1.1v3.8h4.6v1.3h-10.2zM2188.3 246.9l3.2 1v1.3l-10.1-3.4v-1.6l10.1-3.5v1.4l-3.2 1.1v3.7zm-1-3.3-2.9 1c-.7.2-1.3.4-1.8.5.6.2 1.2.3 1.8.5l2.9 1v-3zM2181.4 236.7h10.1v1.3h-10.1v-1.3zM2181.4 233.3V232h9v-4.3h1.1v5.6h-10.1z"
     id="path343" /><pattern
     id="b"
     xlink:href="#A9K-RSP-4GUnnamed_Pattern_2"
     patternTransform="matrix(25 0 0 25 229369.06 213488.25)" /><path
     d="M2185.5 158c-4.5 0-9 4.5-9 9s4.5 9 9 9c6 0 9-4.5 9-9s-3-9-9-9z"
     style="clip-rule:evenodd;fill:url(#b);fill-rule:evenodd"
     id="path346" /><path
     d="M2185.5 158c-4.5 0-9 4.5-9 9s4.5 9 9 9c6 0 9-4.5 9-9s-3-9-9-9h0z"
     style="fill:none;stroke:#737373;stroke-linecap:round;stroke-linejoin:round;stroke-miterlimit:2"
     id="path348" /><path
     d="M2189.9 143.5c.4-.6.7-1.4.7-2.3 0-1.3-.7-2.1-1.7-2.1-.9 0-1.5.5-2 1.9-.6 1.6-1.4 2.7-2.9 2.7-1.6 0-2.7-1.3-2.7-3.3 0-1 .2-1.8.5-2.2l1.1.4c-.2.3-.5 1-.5 1.9 0 1.4.8 1.9 1.5 1.9.9 0 1.4-.6 2-2 .7-1.7 1.5-2.6 3-2.6 1.6 0 2.9 1.2 2.9 3.5 0 1-.3 2-.6 2.6l-1.3-.4zM2191.5 132.3h-4.3l-5.8 3.2V134l2.8-1.4c.8-.4 1.4-.7 2.1-1-.7-.3-1.3-.6-2.1-1l-2.8-1.5v-1.5l5.8 3.4h4.3v1.3zM2191.5 124h-10.1v-1.4l5.1-3.2c1.2-.8 2.2-1.3 3.3-1.8-1.4.1-2.6.1-4.2.1h-4.2v-1.2h10.1v1.3l-5.1 3.2c-1.1.7-2.3 1.4-3.4 1.9 1.3-.1 2.5-.1 4.2-.1h4.3v1.2zM2191.1 106.3c.2.5.5 1.4.5 2.7 0 2.9-1.8 5-5.1 5-3.2 0-5.3-2.1-5.3-5.3 0-1.3.3-2.1.5-2.4l1.1.3c-.2.5-.4 1.2-.4 2 0 2.4 1.5 3.9 4.2 3.9 2.5 0 4.1-1.4 4.1-3.9 0-.8-.2-1.6-.4-2.1l.8-.2z"
     id="path350" /><pattern
     id="c"
     xlink:href="#A9K-RSP-4GUnnamed_Pattern_3"
     patternTransform="matrix(25 0 0 25 229369.06 213488.25)" /><path
     d="M2233.5 197c-6 0-9 4.5-9 9 0 6 3 9 9 9 4.5 0 9-3 9-9 0-4.5-4.5-9-9-9z"
     style="clip-rule:evenodd;fill:url(#c);fill-rule:evenodd"
     id="path353" /><path
     d="M2233.5 197c-6 0-9 4.5-9 9 0 6 3 9 9 9 4.5 0 9-3 9-9 0-4.5-4.5-9-9-9h0z"
     style="fill:none;stroke:#737373;stroke-linecap:round;stroke-linejoin:round;stroke-miterlimit:2"
     id="path355" /><path
     d="M2237.8 248.7c.2.5.5 1.4.5 2.7 0 2.9-1.8 5-5.1 5-3.2 0-5.3-2.1-5.3-5.3 0-1.3.3-2.1.5-2.4l1.1.3c-.2.5-.4 1.2-.4 2 0 2.4 1.5 3.9 4.2 3.9 2.5 0 4.1-1.4 4.1-3.9 0-.8-.2-1.6-.4-2.1l.8-.2zM2228.2 245.4c-.1-.7-.2-1.6-.2-2.5 0-1.4.3-2.3.8-2.9.5-.5 1.1-.8 1.9-.8 1.3 0 2.2.8 2.6 1.9.3-.8 1-1.2 2-1.5 1.4-.3 2.4-.6 2.8-.8v1.3c-.3.2-1.2.4-2.4.7-1.4.3-1.9.8-2 2v1.2h4.4v1.3h-9.9zm4.6-1.3v-1.3c0-1.4-.8-2.3-1.9-2.3-1.3 0-1.9.9-1.9 2.3 0 .6.1 1.1.1 1.3h3.7zM2228 233.6h10.1v1.3H2228v-1.3zM2229.1 228.5v3.1h-1.1v-7.5h1.1v3.1h9v1.3h-9z"
     id="path357" /><pattern
     id="d"
     xlink:href="#A9K-RSP-4GUnnamed_Pattern_4"
     patternTransform="matrix(25 0 0 25 229369.06 213488.25)" /><path
     d="M2233.5 158c-6 0-9 4.5-9 9s3 9 9 9c4.5 0 9-4.5 9-9s-4.5-9-9-9z"
     style="clip-rule:evenodd;fill:url(#d);fill-rule:evenodd"
     id="path360" /><path
     d="M2233.5 158c-6 0-9 4.5-9 9s3 9 9 9c4.5 0 9-4.5 9-9s-4.5-9-9-9h0z"
     style="fill:none;stroke:#737373;stroke-linecap:round;stroke-linejoin:round;stroke-miterlimit:2"
     id="path362" /><path
     d="M2228 142h4.2v-4.9h-4.2v-1.3h10.1v1.3h-4.7v4.9h4.7v1.3H2228V142zM2228.2 132.7c-.1-.8-.2-1.7-.2-2.8 0-1.9.4-3.2 1.3-4.1.8-.9 2-1.4 3.6-1.4 1.7 0 3 .5 3.9 1.5.9.9 1.5 2.5 1.5 4.5 0 .9 0 1.7-.1 2.4h-10zm8.9-1.3c.1-.3.1-.8.1-1.3 0-2.8-1.6-4.3-4.3-4.3-2.4 0-3.9 1.3-3.9 4.1 0 .7.1 1.2.1 1.5h8zM2228.2 122.4c-.1-.8-.2-1.7-.2-2.8 0-1.9.4-3.2 1.3-4.1.8-.9 2-1.4 3.6-1.4 1.7 0 3 .5 3.9 1.5.9.9 1.5 2.5 1.5 4.5 0 .9 0 1.7-.1 2.4h-10zm8.9-1.3c.1-.3.1-.8.1-1.3 0-2.8-1.6-4.3-4.3-4.3-2.4 0-3.9 1.3-3.9 4.1 0 .7.1 1.2.1 1.5h8z"
     id="path364" /><pattern
     id="e"
     xlink:href="#A9K-RSP-4GUnnamed_Pattern_5"
     patternTransform="matrix(25 0 0 25 229369.06 213488.25)" /><path
     d="M2280 197c-4.5 0-9 4.5-9 9 0 6 4.5 9 9 9s9-3 9-9c0-4.5-4.5-9-9-9z"
     style="clip-rule:evenodd;fill:url(#e);fill-rule:evenodd"
     id="path367" /><path
     d="M2280 197c-4.5 0-9 4.5-9 9 0 6 4.5 9 9 9s9-3 9-9c0-4.5-4.5-9-9-9h0z"
     style="fill:none;stroke:#737373;stroke-linecap:round;stroke-linejoin:round;stroke-miterlimit:2"
     id="path369" /><path
     d="M2280.2 247.2c-1.4.1-3.1.2-4.4.1 1.2.3 2.4.8 3.8 1.3l4.9 1.8v1l-4.8 1.6c-1.4.5-2.7.9-3.9 1.2 1.3 0 3 .1 4.5.2l4.3.3v1.2l-10.1-.7v-1.7l4.9-1.7c1.2-.4 2.4-.8 3.4-1-1-.3-2.1-.6-3.4-1.1l-4.9-1.8v-1.7l10.1-.6v1.3l-4.4.3zM2281.5 242.2l3.2 1v1.3l-10.1-3.4v-1.6l10.1-3.5v1.4l-3.2 1.1v3.7zm-1.1-3.3-2.9 1c-.7.2-1.3.4-1.8.5.6.2 1.2.3 1.8.5l2.9 1v-3zM2274.5 231.3V230h6.8c2.7 0 3.5 1.3 3.5 3.1 0 .5-.1 1.1-.2 1.4l-1.1-.2c.1-.3.2-.7.2-1.1 0-1.2-.5-1.9-2.5-1.9h-6.7z"
     id="path371" /><pattern
     id="f"
     xlink:href="#A9K-RSP-4GUnnamed_Pattern_6"
     patternTransform="matrix(25 0 0 25 229369.06 213488.25)" /><path
     d="M2280 158c-4.5 0-9 4.5-9 9s4.5 9 9 9 9-4.5 9-9-4.5-9-9-9z"
     style="clip-rule:evenodd;fill:url(#f);fill-rule:evenodd"
     id="path374" /><path
     d="M2280 158c-4.5 0-9 4.5-9 9s4.5 9 9 9 9-4.5 9-9-4.5-9-9-9h0z"
     style="fill:none;stroke:#737373;stroke-linecap:round;stroke-linejoin:round;stroke-miterlimit:2"
     id="path376" /><path
     d="M2284.3 136.2c.2.5.5 1.4.5 2.7 0 2.9-1.8 5-5.1 5-3.2 0-5.3-2.1-5.3-5.3 0-1.3.3-2.1.5-2.4l1.1.3c-.2.5-.4 1.2-.4 2 0 2.4 1.5 3.9 4.2 3.9 2.5 0 4.1-1.4 4.1-3.9 0-.8-.2-1.6-.4-2.1l.8-.2zM2274.5 132.7v-5.4h1.1v4.1h3.4v-3.8h1.1v3.8h4.6v1.3h-10.2z"
     id="path378" /><pattern
     id="g"
     xlink:href="#A9K-RSP-4GUnnamed_Pattern_7"
     patternTransform="matrix(25 0 0 25 229369.06 213488.25)" /><path
     d="M2326.5 197c-4.5 0-9 4.5-9 9 0 6 4.5 9 9 9 6 0 9-3 9-9 0-4.5-3-9-9-9z"
     style="clip-rule:evenodd;fill:url(#g);fill-rule:evenodd"
     id="path381" /><path
     d="M2326.5 197c-4.5 0-9 4.5-9 9 0 6 4.5 9 9 9 6 0 9-3 9-9 0-4.5-3-9-9-9h0z"
     style="fill:none;stroke:#737373;stroke-linecap:round;stroke-linejoin:round;stroke-miterlimit:2"
     id="path383" /><path
     d="M2326.5 243c-1.4.1-3.1.2-4.4.1 1.2.3 2.4.8 3.8 1.3l4.9 1.8v1l-4.8 1.6c-1.4.5-2.7.9-3.9 1.2 1.3 0 3 .1 4.5.2l4.3.3v1.2l-10.1-.7v-1.7l4.9-1.7c1.2-.4 2.4-.8 3.4-1-1-.3-2.1-.6-3.4-1.1l-4.9-1.8V242l10.1-.6v1.3l-4.4.3zM2320.8 238.3h10.1v1.3h-10.1v-1.3zM2330.9 234.9h-10.1v-1.4l5.1-3.2c1.2-.8 2.2-1.3 3.3-1.8-1.4.1-2.6.1-4.2.1h-4.2v-1.2h10.1v1.3l-5.1 3.2c-1.1.7-2.3 1.4-3.4 1.9 1.3-.1 2.5-.1 4.2-.1h4.3v1.2z"
     id="path385" /><pattern
     id="h"
     xlink:href="#A9K-RSP-4GUnnamed_Pattern_8"
     patternTransform="matrix(25 0 0 25 229369.06 213488.25)" /><path
     d="M2326.5 158c-4.5 0-9 4.5-9 9s4.5 9 9 9c6 0 9-4.5 9-9s-3-9-9-9z"
     style="clip-rule:evenodd;fill:url(#h);fill-rule:evenodd"
     id="path388" /><path
     d="M2326.5 158c-4.5 0-9 4.5-9 9s4.5 9 9 9c6 0 9-4.5 9-9s-3-9-9-9h0z"
     style="fill:none;stroke:#737373;stroke-linecap:round;stroke-linejoin:round;stroke-miterlimit:2"
     id="path390" /><path
     d="m2327.7 141.7 3.2 1v1.3l-10.1-3.4V139l10.1-3.5v1.4l-3.2 1.1v3.7zm-1-3.4-2.9 1c-.7.2-1.3.4-1.8.5.6.2 1.2.3 1.8.5l2.9 1v-3zM2330.6 125.6c.2.5.5 1.4.5 2.7 0 2.9-1.8 5-5.1 5-3.2 0-5.3-2.1-5.3-5.3 0-1.3.3-2.1.5-2.4l1.1.3c-.2.5-.4 1.2-.4 2 0 2.4 1.5 3.9 4.2 3.9 2.5 0 4.1-1.4 4.1-3.9 0-.8-.2-1.6-.4-2.1l.8-.2zM2325.8 113.8c3.5 0 5.3 2.1 5.3 4.7 0 2.7-2.1 4.5-5.1 4.5-3.2 0-5.3-2-5.3-4.7-.1-2.8 2.1-4.5 5.1-4.5zm.1 7.8c2.2 0 4.1-1.2 4.1-3.2 0-2.1-1.9-3.2-4.2-3.2-2 0-4.1 1-4.1 3.2 0 2.1 2 3.2 4.2 3.2z"
     id="path392" /><pattern
     id="i"
     xlink:href="#A9K-RSP-4GUnnamed_Pattern_9"
     patternTransform="matrix(25 0 0 25 229369.06 213488.25)" /><path
     style="clip-rule:evenodd;fill:url(#i);fill-rule:evenodd"
     d="M2448 86h54v124.5h-54z"
     id="path395" /><path
     style="fill:none;stroke:#737373;stroke-width:.06;stroke-linecap:round;stroke-linejoin:round;stroke-miterlimit:2"
     d="M2448 210.5h54V86h-54z"
     id="path397" /><path
     d="M1175.7 246.6h36c4.5 0 7.5 3 7.5 6h0c0 4.5 3 7.5 7.5 7.5h94.5c3 0 6-3 6-7.5h0c0-3 4.5-6 7.5-6h36c10.5 0 18-12 18-25.5 0-12-7.5-24-18-24h0v1.5h-25.5l1.5-1.5c-4.5 0-7.5-3-7.5-6 0-4.5-3-7.5-7.5-7.5h0-115.5 0c-4.5 0-7.5 3-7.5 7.5 0 3-3 6-7.5 6l1.5 1.5h-27v-1.5c-9 0-18 12-18 24 0 13.5 9 25.5 18 25.5h0z"
     style="fill:#ccc;stroke:#666;stroke-linecap:round;stroke-linejoin:round;stroke-miterlimit:2"
     id="path399" /><path
     d="M1228.2 191.1h90c10.5 0 19.5 7.5 19.5 18 0 3-1.5 4.5-1.5 7.5l-10.5 24c-3 7.5-9 12-16.5 12h-70.5c-7.5 0-15-4.5-16.5-12l-10.5-24c-3-10.5 1.5-21 10.5-24 1.5-1.5 4.5-1.5 6-1.5z"
     style="clip-rule:evenodd;fill:#333;fill-rule:evenodd"
     id="path401" /><path
     d="M1228.2 191.1h90c10.5 0 19.5 7.5 19.5 18 0 3-1.5 4.5-1.5 7.5h0l-10.5 24c-3 7.5-9 12-16.5 12h-70.5c-7.5 0-15-4.5-16.5-12h0l-10.5-24c-3-10.5 1.5-21 10.5-24 1.5-1.5 4.5-1.5 6-1.5h0z"
     style="fill:none;stroke:silver;stroke-width:.12;stroke-linecap:round;stroke-linejoin:round;stroke-miterlimit:2"
     id="path403" /><path
     d="M1384.2 221.1c0-10.5-7.5-18-18-18-12 0-19.5 7.5-19.5 18 0 12 7.5 19.5 19.5 19.5 10.5 0 18-7.5 18-19.5h0z"
     style="fill:none;stroke:#9a9a9a;stroke-width:.06;stroke-linecap:round;stroke-linejoin:round;stroke-miterlimit:2"
     id="path405" /><path
     d="M1384.2 221.1c0-9-9-18-18-18-10.5 0-19.5 9-19.5 18 0 10.5 9 19.5 19.5 19.5 9 0 18-9 18-19.5z"
     style="clip-rule:evenodd;fill:#e6e6e6;fill-rule:evenodd"
     id="path407" /><path
     d="M1358.7 206.1h13.5c1.5 0 3 0 3 1.5h1.5l7.5 12h-1.5c1.5 1.5 1.5 3 0 4.5h1.5l-7.5 12h-1.5c0 1.5-1.5 1.5-3 1.5v-1.5h-13.5v1.5c-1.5 0-3 0-3-1.5h0l-7.5-12h0v-4.5h0l7.5-12h0c0-1.5 1.5-1.5 3-1.5h0z"
     style="fill:none;stroke:#9a9a9a;stroke-width:.06;stroke-linecap:round;stroke-linejoin:round;stroke-miterlimit:2"
     id="path409" /><path
     d="M1381.2 221.1c0-7.5-7.5-15-15-15-9 0-16.5 7.5-16.5 15 0 9 7.5 16.5 16.5 16.5 7.5 0 15-7.5 15-16.5h0z"
     style="fill:none;stroke:#e6e6e6;stroke-width:.06;stroke-linecap:round;stroke-linejoin:round;stroke-miterlimit:2"
     id="path411" /><path
     d="M1376.7 221.1c0-6-4.5-10.5-10.5-10.5-7.5 0-12 4.5-12 10.5 0 7.5 4.5 12 12 12 6 0 10.5-4.5 10.5-12z"
     style="clip-rule:evenodd;fill:#333;fill-rule:evenodd"
     id="path413" /><path
     d="M1201.2 221.1c0-10.5-9-18-19.5-18s-19.5 7.5-19.5 18c0 12 9 19.5 19.5 19.5s19.5-7.5 19.5-19.5h0z"
     style="fill:none;stroke:#9a9a9a;stroke-width:.06;stroke-linecap:round;stroke-linejoin:round;stroke-miterlimit:2"
     id="path415" /><path
     d="M1199.7 221.1c0-9-7.5-18-18-18s-18 9-18 18c0 10.5 7.5 19.5 18 19.5s18-9 18-19.5z"
     style="clip-rule:evenodd;fill:#e6e6e6;fill-rule:evenodd"
     id="path417" /><path
     d="M1175.7 206.1h13.5c1.5 0 3 0 3 1.5h0l6 12h1.5v4.5h-1.5l-6 12h0c0 1.5-1.5 1.5-3 1.5v-1.5h-13.5l-1.5 1.5s-1.5 0-3-1.5h0l-7.5-12h1.5c-1.5-1.5-1.5-3 0-4.5h-1.5l7.5-12h0c1.5-1.5 3-1.5 3-1.5h1.5z"
     style="fill:none;stroke:#9a9a9a;stroke-width:.06;stroke-linecap:round;stroke-linejoin:round;stroke-miterlimit:2"
     id="path419" /><path
     d="M1196.7 221.1c0-7.5-6-15-15-15-7.5 0-15 7.5-15 15 0 9 7.5 16.5 15 16.5 9 0 15-7.5 15-16.5h0z"
     style="fill:none;stroke:#e6e6e6;stroke-width:.06;stroke-linecap:round;stroke-linejoin:round;stroke-miterlimit:2"
     id="path421" /><path
     d="M1193.7 221.1c0-6-6-10.5-12-10.5s-10.5 4.5-10.5 10.5c0 7.5 4.5 12 10.5 12s12-4.5 12-12z"
     style="clip-rule:evenodd;fill:#333;fill-rule:evenodd"
     id="path423" /><path
     d="M1235.7 207.6c0-1.5-1.5-3-3-3s-3 1.5-3 3c0 3 1.5 4.5 3 4.5s3-1.5 3-4.5h0zM1256.7 207.6c0-1.5-1.5-3-3-3-3 0-4.5 1.5-4.5 3 0 3 1.5 4.5 4.5 4.5 1.5 0 3-1.5 3-4.5h0zM1277.7 207.6c0-1.5-1.5-3-4.5-3-1.5 0-3 1.5-3 3 0 3 1.5 4.5 3 4.5 3 0 4.5-1.5 4.5-4.5h0zM1297.2 207.6c0-1.5-1.5-3-3-3-3 0-4.5 1.5-4.5 3 0 3 1.5 4.5 4.5 4.5 1.5 0 3-1.5 3-4.5h0zM1246.2 234.6c0-1.5-1.5-3-3-3-3 0-4.5 1.5-4.5 3 0 3 1.5 4.5 4.5 4.5 1.5 0 3-1.5 3-4.5h0zM1267.2 234.6c0-1.5-1.5-3-4.5-3-1.5 0-3 1.5-3 3 0 3 1.5 4.5 3 4.5 3 0 4.5-1.5 4.5-4.5h0zM1286.7 234.6c0-1.5-1.5-3-3-3s-3 1.5-3 3c0 3 1.5 4.5 3 4.5s3-1.5 3-4.5h0zM1319.7 207.6c0-1.5-1.5-3-4.5-3-1.5 0-3 1.5-3 3 0 3 1.5 4.5 3 4.5 3 0 4.5-1.5 4.5-4.5h0zM1309.2 234.6c0-1.5-1.5-3-3-3-3 0-4.5 1.5-4.5 3 0 3 1.5 4.5 4.5 4.5 1.5 0 3-1.5 3-4.5h0z"
     style="fill:none;stroke:#d9d9d9;stroke-width:.06;stroke-linecap:round;stroke-linejoin:round;stroke-miterlimit:2"
     id="path425" /><g
     id="g441"><path
       d="M2574.2 105.5c-13.3 0-24.6 10.2-24.6 23.5s11.3 24.6 24.6 24.6 23.5-11.3 23.5-24.6-10.2-23.5-23.5-23.5z"
       style="clip-rule:evenodd;fill:#d8d8d8;fill-rule:evenodd;stroke:#666;stroke-miterlimit:10"
       id="path427" /><path
       d="M2574.4 106.3c-13.5 0-24 10.5-24 22.5 0 13.5 10.5 24 24 24 12 0 22.5-10.5 22.5-24 0-12-10.5-22.5-22.5-22.5h0z"
       style="fill:none;stroke:#d9d9d9;stroke-width:.06;stroke-linecap:round;stroke-linejoin:round;stroke-miterlimit:2"
       id="path429" /><path
       style="fill:none;stroke:#5f5f5f;stroke-linecap:round;stroke-linejoin:round;stroke-miterlimit:2"
       d="M2574.4 119.8v19.5M2583.4 128.8h-19.5"
       id="path431" /><g
       id="g439"><path
         d="M2574.4 175.6c-9.8 0-17.7 7.9-17.7 17.7 0 9.8 7.9 17.7 17.7 17.7 9.8 0 17.7-7.9 17.7-17.7 0-9.9-7.8-17.7-17.7-17.7z"
         style="clip-rule:evenodd;fill:#d8d8d8;fill-rule:evenodd;stroke:#666;stroke-miterlimit:10"
         id="path433" /><path
         d="M2574.4 175.3c-10.5 0-18 7.5-18 18 0 9 7.5 16.5 18 16.5 9 0 16.5-7.5 16.5-16.5 0-10.5-7.5-18-16.5-18h0z"
         style="fill:none;stroke:#d9d9d9;stroke-width:.06;stroke-linecap:round;stroke-linejoin:round;stroke-miterlimit:2"
         id="path435" /><path
         style="fill:none;stroke:#5f5f5f;stroke-linecap:round;stroke-linejoin:round;stroke-miterlimit:2"
         d="M2574.4 185.8v15M2581.9 193.3h-15"
         id="path437" /></g></g><g
     id="g451"><path
       d="M1958.3 235.8c11.7 0 21.5-10 21.5-22s-9.8-22-21.5-22c-12.7 0-22.5 10-22.5 22s9.8 22 22.5 22z"
       style="clip-rule:evenodd;fill:#ddd;fill-rule:evenodd"
       id="path443" /><path
       d="M1935.6 213c0-11.9 10.3-21.5 23-21.5 12.3 0 21.5 9.2 21.5 21.5 0 12.7-9.6 23-21.5 23-12.3 0-23-10.7-23-23zm43.5 0c0-11.7-8.8-20.5-20.5-20.5-12.1 0-22 9.2-22 20.5 0 11.7 10.3 22 22 22 11.3 0 20.5-9.8 20.5-22z"
       style="fill:#a5a5a5"
       id="path445" /><path
       style="fill:#a5a5a5"
       d="M1955.3 198.5h5V229h-5z"
       id="path447" /><path
       style="fill:#a5a5a5"
       d="M1942.6 211.3h30.5v5h-30.5z"
       id="path449" /></g><text
     xml:space="preserve"
     style="font-style:normal;font-weight:normal;font-size:40px;line-height:1.25;font-family:sans-serif;letter-spacing:0px;word-spacing:0px;fill:#000000;fill-opacity:1;stroke:none"
     x="1161.6262"
     y="79.492577"
     id="text463"><tspan
       sodipodi:role="line"
       id="tspan461"
       x="1161.6262"
       y="115.98579" /></text>
</svg>