<?xml version="1.0" encoding="UTF-8" standalone="no"?>
<svg
   xmlns:dc="http://purl.org/dc/elements/1.1/"
   xmlns:cc="http://creativecommons.org/ns#"
   xmlns:rdf="http://www.w3.org/1999/02/22-rdf-syntax-ns#"
   xmlns:svg="http://www.w3.org/2000/svg"
   xmlns="http://www.w3.org/2000/svg"
   xmlns:sodipodi="http://sodipodi.sourceforge.net/DTD/sodipodi-0.dtd"
   xmlns:inkscape="http://www.inkscape.org/namespaces/inkscape"
   version="1.1"
   id="Layer_2"
   x="0"
   y="0"
   viewBox="0 0 984.60002 334.17"
   xml:space="preserve"
   width="984.6"
   height="334.17"
   sodipodi:docname="A9K-3KW-AC.svg"
   inkscape:version="0.92.1 r15371"><metadata
     id="metadata140"><rdf:RDF><cc:Work
         rdf:about=""><dc:format>image/svg+xml</dc:format><dc:type
           rdf:resource="http://purl.org/dc/dcmitype/StillImage" /></cc:Work></rdf:RDF></metadata><defs
     id="defs138" /><sodipodi:namedview
     pagecolor="#ffffff"
     bordercolor="#666666"
     borderopacity="1"
     objecttolerance="10"
     gridtolerance="10"
     guidetolerance="10"
     inkscape:pageopacity="0"
     inkscape:pageshadow="2"
     inkscape:window-width="1920"
     inkscape:window-height="986"
     id="namedview136"
     showgrid="false"
     inkscape:zoom="1.7783863"
     inkscape:cx="492.3005"
     inkscape:cy="167.08501"
     inkscape:window-x="-11"
     inkscape:window-y="-11"
     inkscape:window-maximized="1"
     inkscape:current-layer="Layer_2" /><style
     type="text/css"
     id="style3">.st3{fill-rule:evenodd;clip-rule:evenodd;fill:#333}.st4{fill:#ccc}.st5{fill-rule:evenodd;clip-rule:evenodd;fill:#d9d9d9}.st6{fill:#4d4d4d}.st7{fill:#333}.st8{fill:#d9d9d9}.st9{fill:#666}.st10{fill:gray}.st11,.st13{fill-rule:evenodd;clip-rule:evenodd;fill:#666}.st13{fill:#4d4d4d}.st17{fill:#fff}</style><path
     transform="rotate(-90)"
     id="rect5"
     style="fill:#1a1a1a;stroke:#000;stroke-width:2.17149997;stroke-miterlimit:10"
     d="M-333.084 1.086H-1.086v982.429h-331.998z" /><g
     id="g7"
     transform="matrix(1.00248 0 0 1 .083 .086)"><path
       id="rect9"
       style="fill:#1a1a1a"
       d="M26.9 17.8H869v295.5H26.9z" /><path
       d="M21.3 17.8v149.5C21.3 95.9 79.1 38 150.4 38s129.1 57.9 129.1 129.3-57.8 129.3-129.1 129.3S21.3 238.7 21.3 167.3v146.1H871V17.8H21.3zm418.5 278.8c-71.3 0-129.1-57.9-129.1-129.3S368.5 37.9 439.8 37.9s129.1 57.9 129.1 129.3-57.8 129.4-129.1 129.4zm286.4 0c-71.3 0-129.1-57.9-129.1-129.3S654.9 37.9 726.2 37.9s129.1 57.9 129.1 129.3-57.8 129.4-129.1 129.4z"
       id="path11"
       style="fill:#ccc;stroke:#4d4d4d;stroke-width:1.00815392;stroke-miterlimit:10" /><path
       class="st3"
       d="M36.4 17.8v293h826.2v-293H36.4zm816.9 198c0 48.2-38.3 87.5-86.2 88.9v-26.6c0-1.1-.9-2-2-2H759c-1.1 0-2 .9-2 2v26.7H454.5v-26.7c0-1.1-.9-2-2-2h-6.1c-1.1 0-2 .9-2 2v26.7H140.6v-26.7c0-1.1-.9-2-2-2h-6.1c-1.1 0-2 .9-2 2v26.6c-47.2-2.1-84.8-41-84.8-88.8v-97.1C45.7 71 83.3 32 130.5 30v24.5c0 1.1.9 2 2 2h6.1c1.1 0 2-.9 2-2V29.8h303.9v24.6c0 1.1.9 2 2 2h6.1c1.1 0 2-.9 2-2V29.8h302.5v24.6c0 1.1.9 2 2 2h6.1c1.1 0 2-.9 2-2V29.8c47.8 1.4 86.2 40.6 86.2 88.9v97.1z"
       id="path13"
       style="clip-rule:evenodd;fill:#333;fill-rule:evenodd" /><path
       class="st4"
       d="M523 166.7c0-28.6-14.4-53.8-36.4-68.9L517.1 46 505 38.9l-30.6 52c-10.5-4.8-22.2-7.5-34.5-7.5-12.6 0-24.5 2.8-35.2 7.8l-30.8-52.3-12.2 7.2 30.7 52.2c-21.6 15.1-35.8 40.1-35.8 68.5 0 27.4 13.3 51.7 33.7 66.9L358 288.5l12.2 7.2 32.1-54.6c11.3 5.7 24 9 37.5 9 13.2 0 25.7-3.1 36.9-8.7l31.9 54.2 12.2-7.2-32-54.4c20.7-15.1 34.2-39.7 34.2-67.3zm-83.2-71.2c10.1 0 19.7 2.1 28.3 5.9l-19 32.3c-3-.8-6.1-1.3-9.3-1.3-3.5 0-6.9.5-10 1.5l-18.9-32.2c8.8-4 18.6-6.2 28.9-6.2zm5.6 92.7c-.4.1-.8.2-1.3.3-.1 0-.2 0-.3.1-.3.1-.6.1-.9.2-.1 0-.3 0-.4.1-.3 0-.6.1-.9.1H439.9c-.5 0-1 0-1.5-.1h-.3c-.5 0-.9-.1-1.4-.1h-.1l-1.5-.3c-5.9-1.3-10.9-4.9-14-9.9 0 0 0-.1-.1-.1-.3-.5-.5-.9-.8-1.4 0-.1-.1-.1-.1-.2-.5-1-.9-1.9-1.3-3 0-.1-.1-.2-.1-.2-.2-.5-.3-1-.4-1.5v-.2l-.3-1.5v-.2c-.1-.5-.1-1-.2-1.6v-.3c0-.5-.1-1.1-.1-1.6 0-.7 0-1.4.1-2.1v-.1c.1-.7.2-1.4.3-2v-.1c.1-.7.3-1.3.5-1.9v-.1c.2-.6.4-1.3.7-1.9v-.1c.3-.6.5-1.2.8-1.8v-.1c.3-.6.6-1.2 1-1.7.4-.6.8-1.1 1.2-1.7 3.7-4.7 9.2-7.9 15.5-8.4h.2c.6 0 1.1-.1 1.7-.1h1.5c7.7.5 14.4 5 17.9 11.5.2.3.3.6.5.9.1.3.3.6.4.9v.1c.1.3.2.6.4.9v.1l.3.9c0 .1 0 .1.1.2.1.3.2.6.2.8 0 .1 0 .1.1.2.1.3.1.6.2.8 0 .1 0 .2.1.2.1.3.1.5.1.8 0 .1 0 .2.1.3 0 .3.1.5.1.8v.3c0 .3 0 .5.1.8V166.6c0 .6 0 1.2-.1 1.8v.3c-.1.6-.1 1.1-.2 1.7v.3c-.1.6-.2 1.1-.4 1.7-.2.6-.3 1.1-.5 1.7v.1c-.2.6-.4 1.1-.7 1.6v.1c-2.6 6-8 10.6-14.5 12.3zm-48.9 34.9c-16.9-13-27.8-33.5-27.8-56.4 0-23.9 11.8-45.1 29.9-58l18.8 32c-7.3 6.3-11.9 15.6-11.9 26 0 9.4 3.8 18 10 24.2l-19 32.2zm43.3 14.8c-11.2 0-21.9-2.6-31.3-7.3l18.8-32c3.9 1.5 8.1 2.4 12.5 2.4 4.2 0 8.2-.8 11.9-2.1l18.8 32c-9.3 4.5-19.7 7-30.7 7zm23.9-46.5c6.4-6.2 10.5-15 10.5-24.7 0-10.6-4.8-20.1-12.4-26.4l18.8-31.9c18.4 12.9 30.4 34.2 30.4 58.4 0 23.2-11.1 43.9-28.3 56.9l-19-32.3z"
       id="path15"
       style="fill:#ccc" /><path
       class="st4"
       d="M810.4 166.7c0-28.6-14.4-53.8-36.4-68.9L804.5 46l-12.2-7.2-30.6 52c-10.5-4.8-22.2-7.5-34.5-7.5-12.6 0-24.5 2.8-35.2 7.8l-30.8-52.3L649 46l30.7 52.2c-21.6 15.1-35.8 40.1-35.8 68.5 0 27.4 13.3 51.7 33.7 66.9l-32.3 54.8 12.2 7.2 32.1-54.6c11.3 5.7 24 9 37.5 9 13.2 0 25.7-3.1 36.9-8.7l31.9 54.2 12.2-7.2-32-54.4c20.8-15 34.3-39.6 34.3-67.2zm-83.2-71.2c10.1 0 19.7 2.1 28.3 5.9l-19 32.3c-3-.8-6.1-1.3-9.3-1.3-3.5 0-6.9.5-10 1.5l-18.9-32.2c8.8-4 18.6-6.2 28.9-6.2zm5.6 92.7c-.4.1-.8.2-1.3.3-.1 0-.2 0-.3.1-.3.1-.6.1-.9.2-.1 0-.3 0-.4.1-.3 0-.6.1-.9.1H727.3c-.5 0-1 0-1.5-.1h-.3c-.5 0-.9-.1-1.4-.1h-.1l-1.5-.3c-5.9-1.3-10.9-4.9-14-9.9 0 0 0-.1-.1-.1-.3-.5-.5-.9-.8-1.4 0-.1-.1-.1-.1-.2-.5-1-.9-1.9-1.3-3 0-.1-.1-.2-.1-.2-.2-.5-.3-1-.4-1.5v-.2l-.3-1.5v-.2c-.1-.5-.1-1-.2-1.6v-.3c0-.5-.1-1.1-.1-1.6 0-.7 0-1.4.1-2.1v-.1c.1-.7.2-1.4.3-2v-.1c.1-.7.3-1.3.5-1.9v-.1c.2-.6.4-1.3.7-1.9v-.1c.3-.6.5-1.2.8-1.8v-.1c.3-.6.6-1.2 1-1.7.4-.6.8-1.1 1.2-1.7 3.7-4.7 9.2-7.9 15.5-8.4h.2c.6 0 1.1-.1 1.7-.1h1.5c7.7.5 14.4 5 17.9 11.5.2.3.3.6.5.9.1.3.3.6.4.9v.1c.1.3.2.6.4.9v.1l.3.9c0 .1 0 .1.1.2.1.3.2.6.2.8 0 .1 0 .1.1.2.1.3.1.6.2.8 0 .1 0 .2.1.2.1.3.1.5.1.8 0 .1 0 .2.1.3 0 .3.1.5.1.8v.3c0 .3 0 .5.1.8V166.6c0 .6 0 1.2-.1 1.8v.3c-.1.6-.1 1.1-.2 1.7v.3c-.1.6-.2 1.1-.4 1.7-.2.6-.3 1.1-.5 1.7v.1c-.2.6-.4 1.1-.7 1.6v.1c-2.6 6-8 10.6-14.5 12.3zm-48.9 34.9c-16.9-13-27.8-33.5-27.8-56.4 0-23.9 11.8-45.1 29.9-58l18.8 32c-7.3 6.3-11.9 15.6-11.9 26 0 9.4 3.8 18 10 24.2l-19 32.2zm43.3 14.8c-11.2 0-21.9-2.6-31.3-7.3l18.8-32c3.9 1.5 8.1 2.4 12.5 2.4 4.2 0 8.2-.8 11.9-2.1l18.8 32c-9.2 4.5-19.7 7-30.7 7zm23.9-46.5c6.4-6.2 10.5-15 10.5-24.7 0-10.6-4.8-20.1-12.4-26.4l18.8-31.9c18.4 12.9 30.4 34.2 30.4 58.4 0 23.2-11.1 43.9-28.3 56.9l-19-32.3z"
       id="path17"
       style="fill:#ccc" /><path
       class="st4"
       d="M234.6 166.7c0-28.6-14.4-53.8-36.4-68.9L228.7 46l-12.2-7.2-30.6 52c-10.5-4.8-22.2-7.5-34.5-7.5-12.6 0-24.5 2.8-35.2 7.8L85.5 38.9l-12.2 7.2L104 98.2c-21.6 15.1-35.8 40.1-35.8 68.5 0 27.4 13.3 51.7 33.7 66.9l-32.3 54.8 12.2 7.2 32.1-54.6c11.3 5.7 24 9 37.5 9 13.2 0 25.7-3.1 36.9-8.7l31.9 54.2 12.2-7.2-32-54.4c20.7-15 34.2-39.6 34.2-67.2zm-83.2-71.2c10.1 0 19.7 2.1 28.3 5.9l-19 32.3c-3-.8-6.1-1.3-9.3-1.3-3.5 0-6.9.5-10 1.5l-18.9-32.2c8.8-4 18.6-6.2 28.9-6.2zm5.6 92.7c-.4.1-.8.2-1.3.3-.1 0-.2 0-.3.1-.3.1-.6.1-.9.2-.1 0-.3 0-.4.1-.3 0-.6.1-.9.1H151.5c-.5 0-1 0-1.5-.1h-.3c-.5 0-.9-.1-1.4-.1h-.1l-1.5-.3c-5.9-1.3-10.9-4.9-14-9.9 0 0 0-.1-.1-.1-.3-.5-.5-.9-.8-1.4 0-.1-.1-.1-.1-.2-.5-1-.9-1.9-1.3-3 0-.1-.1-.2-.1-.2-.2-.5-.3-1-.4-1.5v-.2l-.3-1.5v-.2c-.1-.5-.1-1-.2-1.6v-.3c0-.5-.1-1.1-.1-1.6 0-.7 0-1.4.1-2.1v-.1c.1-.7.2-1.4.3-2v-.1c.1-.7.3-1.3.5-1.9v-.1c.2-.6.4-1.3.7-1.9v-.1c.3-.6.5-1.2.8-1.8v-.1c.3-.6.6-1.2 1-1.7.4-.6.8-1.1 1.2-1.7 3.7-4.7 9.2-7.9 15.5-8.4h.2c.6 0 1.1-.1 1.7-.1h1.5c7.7.5 14.4 5 17.9 11.5.2.3.3.6.5.9.1.3.3.6.4.9v.1c.1.3.2.6.4.9v.1l.3.9c0 .1 0 .1.1.2.1.3.2.6.2.8 0 .1 0 .1.1.2.1.3.1.6.2.8 0 .1 0 .2.1.2.1.3.1.5.1.8 0 .1 0 .2.1.3 0 .3.1.5.1.8v.3c0 .3 0 .5.1.8V166.6c0 .6 0 1.2-.1 1.8v.3c-.1.6-.1 1.1-.2 1.7v.3c-.1.6-.2 1.1-.4 1.7-.2.6-.3 1.1-.5 1.7v.1c-.2.6-.4 1.1-.7 1.6v.1c-2.6 6-8 10.6-14.5 12.3zm-48.9 34.9c-16.9-13-27.8-33.5-27.8-56.4 0-23.9 11.8-45.1 29.9-58l18.8 32c-7.3 6.3-11.9 15.6-11.9 26 0 9.4 3.8 18 10 24.2l-19 32.2zm43.3 14.8c-11.2 0-21.9-2.6-31.3-7.3l18.8-32c3.9 1.5 8.1 2.4 12.5 2.4 4.2 0 8.2-.8 11.9-2.1l18.8 32c-9.3 4.5-19.7 7-30.7 7zm23.8-46.5c6.4-6.2 10.5-15 10.5-24.7 0-10.6-4.8-20.1-12.4-26.4l18.8-31.9c18.4 12.9 30.4 34.2 30.4 58.4 0 23.2-11.1 43.9-28.3 56.9l-19-32.3z"
       id="path19"
       style="fill:#ccc" /><g
       id="g21"><g
         id="g23"><path
           class="st5"
           d="M261.3 76.9c-5.9 0-11.5-2.3-15.7-6.5-8.6-8.7-8.6-22.8 0-31.4 4.2-4.2 9.7-6.5 15.7-6.5 5.9 0 11.5 2.3 15.7 6.5 8.6 8.7 8.6 22.8 0 31.4-4.2 4.2-9.7 6.5-15.7 6.5z"
           id="path25"
           style="clip-rule:evenodd;fill:#d9d9d9;fill-rule:evenodd" /><path
           class="st6"
           d="M261.3 33.1c5.8 0 11.2 2.3 15.3 6.3 8.4 8.5 8.4 22.2 0 30.7-4.1 4.1-9.5 6.3-15.3 6.3-5.8 0-11.2-2.3-15.3-6.3-8.4-8.5-8.4-22.2 0-30.7 4.1-4.1 9.6-6.3 15.3-6.3m0-1.1c-5.8 0-11.6 2.2-16.1 6.7-8.9 8.9-8.9 23.3 0 32.2 4.4 4.4 10.2 6.7 16.1 6.7 5.8 0 11.6-2.2 16.1-6.7 8.9-8.9 8.9-23.3 0-32.2-4.4-4.5-10.2-6.7-16.1-6.7z"
           id="path27"
           style="fill:#4d4d4d" /></g><g
         id="g29"><path
           class="st5"
           d="M261.3 74.9c-5.4 0-10.4-2.1-14.2-5.9-7.8-7.9-7.8-20.6 0-28.5 3.8-3.8 8.8-5.9 14.2-5.9 5.4 0 10.4 2.1 14.2 5.9 7.8 7.9 7.8 20.6 0 28.5-3.7 3.8-8.8 5.9-14.2 5.9z"
           id="path31"
           style="clip-rule:evenodd;fill:#d9d9d9;fill-rule:evenodd" /><path
           class="st6"
           d="M261.3 35.1c5.2 0 10.1 2 13.8 5.7 7.6 7.7 7.6 20.1 0 27.8-3.7 3.7-8.6 5.7-13.8 5.7-5.2 0-10.1-2-13.8-5.7-7.6-7.7-7.6-20.1 0-27.8 3.7-3.6 8.6-5.7 13.8-5.7m0-1c-5.3 0-10.6 2-14.6 6.1-8.1 8.1-8.1 21.2 0 29.2 4 4 9.3 6.1 14.6 6.1 5.3 0 10.6-2 14.6-6.1 8.1-8.1 8.1-21.2 0-29.2-4-4.1-9.3-6.1-14.6-6.1z"
           id="path33"
           style="fill:#4d4d4d" /></g><g
         id="g35"><g
           id="g37"><path
             class="st6"
             id="rect39"
             style="fill:#4d4d4d"
             d="M259.6 47.4h3.4v14.8h-3.4z" /></g><g
           id="g41"><path
             class="st6"
             id="rect43"
             style="fill:#4d4d4d"
             d="M254 53h14.7v3.4H254z" /></g></g></g><g
       id="g45"><g
         id="g47"><path
           class="st5"
           d="M617.3 296.5c-5.9 0-11.5-2.3-15.7-6.5-8.6-8.7-8.6-22.8 0-31.4 4.2-4.2 9.8-6.5 15.7-6.5 5.9 0 11.5 2.3 15.7 6.5 8.6 8.7 8.6 22.8 0 31.4-4.2 4.2-9.7 6.5-15.7 6.5z"
           id="path49"
           style="clip-rule:evenodd;fill:#d9d9d9;fill-rule:evenodd" /><path
           class="st6"
           d="M617.3 252.6c5.8 0 11.2 2.3 15.3 6.3 8.4 8.5 8.4 22.2 0 30.7-4.1 4.1-9.5 6.3-15.3 6.3-5.8 0-11.2-2.3-15.3-6.3-8.4-8.5-8.4-22.2 0-30.7 4.1-4 9.5-6.3 15.3-6.3m0-1c-5.8 0-11.6 2.2-16.1 6.7-8.9 8.9-8.9 23.3 0 32.2 4.4 4.4 10.2 6.7 16.1 6.7 5.9 0 11.6-2.2 16.1-6.7 8.9-8.9 8.9-23.3 0-32.2-4.5-4.5-10.3-6.7-16.1-6.7z"
           id="path51"
           style="fill:#4d4d4d" /></g><g
         id="g53"><path
           class="st5"
           d="M617.3 294.5c-5.4 0-10.4-2.1-14.2-5.9-7.8-7.9-7.8-20.6 0-28.5 3.8-3.8 8.8-5.9 14.2-5.9 5.4 0 10.4 2.1 14.2 5.9 7.8 7.9 7.8 20.6 0 28.5-3.8 3.8-8.8 5.9-14.2 5.9z"
           id="path55"
           style="clip-rule:evenodd;fill:#d9d9d9;fill-rule:evenodd" /><path
           class="st6"
           d="M617.3 254.7c5.2 0 10.1 2 13.8 5.7 7.6 7.7 7.6 20.1 0 27.8-3.7 3.7-8.6 5.7-13.8 5.7-5.2 0-10.1-2-13.8-5.7-7.6-7.7-7.6-20.1 0-27.8 3.7-3.7 8.6-5.7 13.8-5.7m0-1c-5.3 0-10.6 2-14.6 6.1-8.1 8.1-8.1 21.2 0 29.2 4 4 9.3 6.1 14.6 6.1 5.3 0 10.6-2 14.6-6.1 8.1-8.1 8.1-21.2 0-29.2-4-4.1-9.3-6.1-14.6-6.1z"
           id="path57"
           style="fill:#4d4d4d" /></g><g
         id="g59"><g
           id="g61"><path
             class="st6"
             id="rect63"
             style="fill:#4d4d4d"
             d="M615.6 267h3.4v14.8h-3.4z" /></g><g
           id="g65"><path
             class="st6"
             id="rect67"
             style="fill:#4d4d4d"
             d="M610 272.6h14.7v3.4H610z" /></g></g></g><g
       id="g69"><g
         id="g71"><path
           class="st5"
           d="M330.2 296.6c-5.9 0-11.5-2.3-15.7-6.5-8.7-8.7-8.7-22.8 0-31.5 4.2-4.2 9.8-6.5 15.7-6.5 5.9 0 11.5 2.3 15.7 6.5 8.7 8.7 8.7 22.8 0 31.5-4.2 4.1-9.8 6.5-15.7 6.5z"
           id="path73"
           style="clip-rule:evenodd;fill:#d9d9d9;fill-rule:evenodd" /><path
           class="st7"
           d="M330.2 252.6c5.8 0 11.2 2.3 15.3 6.4 8.5 8.5 8.5 22.3 0 30.7-4.1 4.1-9.5 6.4-15.3 6.4-5.8 0-11.2-2.3-15.3-6.4-8.5-8.5-8.5-22.3 0-30.7 4-4.1 9.5-6.4 15.3-6.4m0-1c-5.8 0-11.6 2.2-16.1 6.7-8.9 8.9-8.9 23.3 0 32.2 4.4 4.4 10.2 6.7 16.1 6.7 5.9 0 11.6-2.2 16.1-6.7 8.9-8.9 8.9-23.3 0-32.2-4.5-4.5-10.3-6.7-16.1-6.7z"
           id="path75"
           style="fill:#333" /></g><g
         id="g77"><path
           class="st3"
           d="M330.2 293c-5 0-9.7-1.9-13.2-5.5-7.3-7.3-7.3-19.1 0-26.4 3.5-3.5 8.2-5.5 13.2-5.5s9.7 1.9 13.2 5.5c7.3 7.3 7.3 19.1 0 26.4-3.6 3.6-8.2 5.5-13.2 5.5z"
           id="path79"
           style="clip-rule:evenodd;fill:#333;fill-rule:evenodd" /><path
           class="st8"
           d="M330.2 256.1c4.8 0 9.4 1.9 12.8 5.3 7.1 7.1 7.1 18.6 0 25.7-3.4 3.4-8 5.3-12.8 5.3-4.8 0-9.4-1.9-12.8-5.3-7.1-7.1-7.1-18.6 0-25.7 3.4-3.4 7.9-5.3 12.8-5.3m0-1c-4.9 0-9.8 1.9-13.5 5.6-7.5 7.5-7.5 19.7 0 27.1 3.7 3.7 8.6 5.6 13.5 5.6s9.8-1.9 13.5-5.6c7.5-7.5 7.5-19.7 0-27.1-3.7-3.7-8.6-5.6-13.5-5.6z"
           id="path81"
           style="fill:#d9d9d9" /></g></g><g
       id="g83"><g
         id="g85"><path
           class="st5"
           d="M548.7 77c-5.9 0-11.5-2.3-15.7-6.5-8.7-8.7-8.7-22.8 0-31.5 4.2-4.2 9.8-6.5 15.7-6.5 5.9 0 11.5 2.3 15.7 6.5 8.7 8.7 8.7 22.8 0 31.5-4.1 4.2-9.7 6.5-15.7 6.5z"
           id="path87"
           style="clip-rule:evenodd;fill:#d9d9d9;fill-rule:evenodd" /><path
           class="st7"
           d="M548.7 33c5.8 0 11.2 2.3 15.3 6.4 8.5 8.5 8.5 22.3 0 30.7-4.1 4.1-9.5 6.4-15.3 6.4-5.8 0-11.2-2.3-15.3-6.4-8.5-8.5-8.5-22.3 0-30.7 4.1-4.1 9.5-6.4 15.3-6.4m0-1c-5.8 0-11.6 2.2-16.1 6.7-8.9 8.9-8.9 23.3 0 32.2 4.4 4.4 10.2 6.7 16.1 6.7 5.8 0 11.6-2.2 16.1-6.7 8.9-8.9 8.9-23.3 0-32.2-4.4-4.5-10.2-6.7-16.1-6.7z"
           id="path89"
           style="fill:#333" /></g><g
         id="g91"><path
           class="st3"
           d="M548.7 73.4c-5 0-9.7-1.9-13.2-5.5-7.3-7.3-7.3-19.1 0-26.4 3.5-3.5 8.2-5.5 13.2-5.5s9.7 1.9 13.2 5.5c7.3 7.3 7.3 19.1 0 26.4-3.5 3.6-8.2 5.5-13.2 5.5z"
           id="path93"
           style="clip-rule:evenodd;fill:#333;fill-rule:evenodd" /><path
           class="st8"
           d="M548.7 36.5c4.8 0 9.4 1.9 12.8 5.3 7.1 7.1 7.1 18.6 0 25.7-3.4 3.4-8 5.3-12.8 5.3-4.8 0-9.4-1.9-12.8-5.3-7.1-7.1-7.1-18.6 0-25.7 3.4-3.4 8-5.3 12.8-5.3m0-1c-4.9 0-9.8 1.9-13.5 5.6-7.5 7.5-7.5 19.7 0 27.1 3.7 3.7 8.6 5.6 13.5 5.6s9.8-1.9 13.5-5.6c7.5-7.5 7.5-19.7 0-27.1-3.6-3.7-8.5-5.6-13.5-5.6z"
           id="path95"
           style="fill:#d9d9d9" /></g></g><g
       id="g97"><path
         class="st4"
         d="M167.6 246.3c-.6 0-1.2 0-1.9-.1h-.1c-.6 0-1.3.1-1.9.1-28.9 0-52.5-34.5-52.5-77s23.6-77 52.5-77c.6 0 1.2 0 1.8.1h.1c.7 0 1.3-.1 1.9-.1h22.1c14.6 0 26.5 11.9 26.5 26.5v101c0 14.6-11.9 26.5-26.5 26.5h-22z"
         id="path99"
         style="fill:#ccc" /><path
         class="st9"
         d="M189.7 92.8c14.3 0 26 11.7 26 26v101c0 14.3-11.7 26-26 26h-22.1c-.5 0-1.1 0-1.8-.1H165.5c-.6 0-1.2.1-1.8.1-28.7 0-52-34.3-52-76.5s23.3-76.5 52-76.5c.6 0 1.2 0 1.8.1H165.8c.7 0 1.3-.1 1.8-.1h22.1m0-1h-22.1c-.6 0-1.3 0-1.9.1-.7 0-1.3-.1-2-.1-29.3 0-53 34.7-53 77.5s23.7 77.5 53 77.5c.7 0 1.3 0 2-.1.6 0 1.3.1 1.9.1h22.1c14.9 0 27-12.1 27-27v-101c0-15-12.1-27-27-27z"
         id="path101"
         style="fill:#666" /></g><g
       id="g103"><g
         id="g105"><path
           class="st5"
           d="M172.4 134.1c-4.7 0-9.1-1.8-12.5-5.2-6.9-6.9-6.9-18.1 0-25 3.3-3.3 7.7-5.2 12.5-5.2s9.1 1.8 12.5 5.2c6.9 6.9 6.9 18.1 0 25-3.3 3.3-7.8 5.2-12.5 5.2z"
           id="path107"
           style="clip-rule:evenodd;fill:#d9d9d9;fill-rule:evenodd" /><path
           class="st7"
           d="M172.4 99.2c4.6 0 8.9 1.8 12.2 5 6.7 6.7 6.7 17.7 0 24.4-3.2 3.3-7.6 5-12.2 5s-8.9-1.8-12.2-5c-6.7-6.7-6.7-17.7 0-24.4 3.3-3.2 7.6-5 12.2-5m0-.8c-4.6 0-9.2 1.8-12.7 5.3-7 7-7 18.5 0 25.5 3.5 3.5 8.1 5.3 12.7 5.3s9.2-1.8 12.7-5.3c7-7 7-18.5 0-25.5-3.5-3.5-8.1-5.3-12.7-5.3z"
           id="path109"
           style="fill:#333" /></g><g
         id="g111"><path
           class="st3"
           d="M172.4 131.3c-4 0-7.7-1.5-10.5-4.3-5.8-5.8-5.8-15.2 0-21 2.8-2.8 6.5-4.3 10.5-4.3s7.7 1.5 10.5 4.3c5.8 5.8 5.8 15.2 0 21-2.8 2.7-6.5 4.3-10.5 4.3z"
           id="path113"
           style="clip-rule:evenodd;fill:#333;fill-rule:evenodd" /><path
           class="st8"
           d="M172.4 102c3.8 0 7.5 1.5 10.2 4.2 5.6 5.6 5.6 14.8 0 20.4-2.7 2.7-6.3 4.2-10.2 4.2-3.9 0-7.5-1.5-10.2-4.2-5.6-5.6-5.6-14.8 0-20.4 2.8-2.7 6.4-4.2 10.2-4.2m0-.8c-3.9 0-7.8 1.5-10.7 4.5-5.9 5.9-5.9 15.6 0 21.5 3 3 6.9 4.5 10.7 4.5 3.8 0 7.8-1.5 10.7-4.5 5.9-5.9 5.9-15.6 0-21.5-2.9-3-6.8-4.5-10.7-4.5z"
           id="path115"
           style="fill:#d9d9d9" /></g></g><g
       id="g117"><g
         id="g119"><path
           class="st5"
           d="M172.4 239.1c-4.7 0-9.1-1.8-12.5-5.2-6.9-6.9-6.9-18.1 0-25 3.3-3.3 7.7-5.2 12.5-5.2s9.1 1.8 12.5 5.2c6.9 6.9 6.9 18.1 0 25-3.3 3.3-7.8 5.2-12.5 5.2z"
           id="path121"
           style="clip-rule:evenodd;fill:#d9d9d9;fill-rule:evenodd" /><path
           class="st7"
           d="M172.4 204.2c4.6 0 8.9 1.8 12.2 5 6.7 6.7 6.7 17.7 0 24.4-3.2 3.3-7.6 5-12.2 5s-8.9-1.8-12.2-5c-6.7-6.7-6.7-17.7 0-24.4 3.3-3.2 7.6-5 12.2-5m0-.8c-4.6 0-9.2 1.8-12.7 5.3-7 7-7 18.5 0 25.5 3.5 3.5 8.1 5.3 12.7 5.3s9.2-1.8 12.7-5.3c7-7 7-18.5 0-25.5-3.5-3.5-8.1-5.3-12.7-5.3z"
           id="path123"
           style="fill:#333" /></g><g
         id="g125"><path
           class="st3"
           d="M172.4 236.3c-4 0-7.7-1.5-10.5-4.3-5.8-5.8-5.8-15.2 0-21 2.8-2.8 6.5-4.3 10.5-4.3s7.7 1.5 10.5 4.3c5.8 5.8 5.8 15.2 0 21-2.8 2.7-6.5 4.3-10.5 4.3z"
           id="path127"
           style="clip-rule:evenodd;fill:#333;fill-rule:evenodd" /><path
           class="st8"
           d="M172.4 207c3.8 0 7.5 1.5 10.2 4.2 5.6 5.6 5.6 14.8 0 20.4-2.7 2.7-6.3 4.2-10.2 4.2-3.9 0-7.5-1.5-10.2-4.2-5.6-5.6-5.6-14.8 0-20.4 2.8-2.7 6.4-4.2 10.2-4.2m0-.8c-3.9 0-7.8 1.5-10.7 4.5-5.9 5.9-5.9 15.6 0 21.5 3 3 6.9 4.5 10.7 4.5 3.8 0 7.8-1.5 10.7-4.5 5.9-5.9 5.9-15.6 0-21.5-2.9-3-6.8-4.5-10.7-4.5z"
           id="path129"
           style="fill:#d9d9d9" /></g></g><g
       id="g131"><path
         class="st10"
         d="M13.1 329.9 2.6 317.7V9.9c0-3.1 2.5-5.6 5.5-5.6H885v325.6H13.1zM750 193.5c-1.4 0-2.5 1.1-2.5 2.5v109.8c0 1.4 1.1 2.5 2.5 2.5h26.2c1.4 0 2.5-1.1 2.5-2.5V196.1c0-1.4-1.1-2.5-2.5-2.5H750zm-40.3 0c-1.4 0-2.5 1.1-2.5 2.5v109.8c0 1.4 1.1 2.5 2.5 2.5h26.2c1.4 0 2.5-1.1 2.5-2.5V196.1c0-1.4-1.1-2.5-2.5-2.5h-26.2zm-39.4 0c-1.4 0-2.5 1.1-2.5 2.5v109.8c0 1.4 1.1 2.5 2.5 2.5h26.2c1.4 0 2.5-1.1 2.5-2.5V196.1c0-1.4-1.1-2.5-2.5-2.5h-26.2zm-37.3 0c-1.4 0-2.5 1.1-2.5 2.5v109.8c0 1.4 1.1 2.5 2.5 2.5h26.2c1.4 0 2.5-1.1 2.5-2.5V196.1c0-1.4-1.1-2.5-2.5-2.5H633zm-40.3 0c-1.4 0-2.5 1.1-2.5 2.5v109.8c0 1.4 1.1 2.5 2.5 2.5h26.2c1.4 0 2.5-1.1 2.5-2.5V196.1c0-1.4-1.1-2.5-2.5-2.5h-26.2zm-39.3 0c-1.4 0-2.5 1.1-2.5 2.5v109.8c0 1.4 1.1 2.5 2.5 2.5h26.2c1.4 0 2.5-1.1 2.5-2.5V196.1c0-1.4-1.1-2.5-2.5-2.5h-26.2zm-38.7 0c-1.4 0-2.5 1.1-2.5 2.5v109.8c0 1.4 1.1 2.5 2.5 2.5h26.2c1.4 0 2.5-1.1 2.5-2.5V196.1c0-1.4-1.1-2.5-2.5-2.5h-26.2zm-40.3 0c-1.4 0-2.5 1.1-2.5 2.5v109.8c0 1.4 1.1 2.5 2.5 2.5h26.2c1.4 0 2.5-1.1 2.5-2.5V196.1c0-1.4-1.1-2.5-2.5-2.5h-26.2zm-39.4 0c-1.4 0-2.5 1.1-2.5 2.5v109.8c0 1.4 1.1 2.5 2.5 2.5h26.2c1.4 0 2.5-1.1 2.5-2.5V196.1c0-1.4-1.1-2.5-2.5-2.5H435zm-38.6 0c-1.4 0-2.5 1.1-2.5 2.5v109.8c0 1.4 1.1 2.5 2.5 2.5h26.2c1.4 0 2.5-1.1 2.5-2.5V196.1c0-1.4-1.1-2.5-2.5-2.5h-26.2zm-40.4 0c-1.4 0-2.5 1.1-2.5 2.5v109.8c0 1.4 1.1 2.5 2.5 2.5h26.2c1.4 0 2.5-1.1 2.5-2.5V196.1c0-1.4-1.1-2.5-2.5-2.5H356zm-39.3 0c-1.4 0-2.5 1.1-2.5 2.5v109.8c0 1.4 1.1 2.5 2.5 2.5h26.2c1.4 0 2.5-1.1 2.5-2.5V196.1c0-1.4-1.1-2.5-2.5-2.5h-26.2zm-38.6 0c-1.4 0-2.5 1.1-2.5 2.5v109.8c0 1.4 1.1 2.5 2.5 2.5h26.2c1.4 0 2.5-1.1 2.5-2.5V196.1c0-1.4-1.1-2.5-2.5-2.5h-26.2zm-40.4 0c-1.4 0-2.5 1.1-2.5 2.5v109.8c0 1.4 1.1 2.5 2.5 2.5h26.2c1.4 0 2.5-1.1 2.5-2.5V196.1c0-1.4-1.1-2.5-2.5-2.5h-26.2zm-39.3 0c-1.4 0-2.5 1.1-2.5 2.5v109.8c0 1.4 1.1 2.5 2.5 2.5h26.2c1.4 0 2.5-1.1 2.5-2.5V196.1c0-1.4-1.1-2.5-2.5-2.5h-26.2zm-39.3 8.1c-1.4 0-2.5 1.1-2.5 2.5v101.7c0 1.4 1.1 2.5 2.5 2.5h26.2c1.4 0 2.5-1.1 2.5-2.5V204.1c0-1.4-1.1-2.5-2.5-2.5h-26.2zm-38.7 0c-1.4 0-2.5 1.1-2.5 2.5v101.7c0 1.4 1.1 2.5 2.5 2.5h26.2c1.4 0 2.5-1.1 2.5-2.5V204.1c0-1.4-1.1-2.5-2.5-2.5h-26.2zm667.3-8.1c-1.4 0-2.5 1.1-2.5 2.5v102.7c0 .4.1.8.3 1.2.4.8 1.2 1.2 2.1 1.2.3 0 .6-.1 1-.2l25.6-9.9h.1c2.2-1.6 2.2-4.3 2.2-5.5v-89.6c0-1.4-1.1-2.5-2.5-2.5h-26.3zm40.6 0c-1.2 0-2.1 1-2.1 2.2V268c0 1.2 1 2.2 2.1 2.2 15 0 27.1-23.2 27.1-38.3v-36.1c0-1.2-1-2.2-2.1-2.2h-25zm0-125.4c-1.2 0-2.1 1-2.1 2.2v72.3c0 1.2 1 2.2 2.1 2.2h25c1.2 0 2.1-1 2.1-2.2v-36.1c0-15.2-12.1-38.4-27.1-38.4zM787.6 37c-.9 0-1.8.5-2.1 1.2-.2.4-.3.8-.3 1.2v102.7c0 1.4 1.1 2.5 2.5 2.5h26.2c1.4 0 2.5-1.1 2.5-2.5V52.6c0-1.2 0-3.9-2.2-5.5h-.1l-25.6-9.9c-.3-.1-.6-.2-.9-.2zM750 29.8c-1.4 0-2.5 1.1-2.5 2.5v109.8c0 1.4 1.1 2.5 2.5 2.5h26.2c1.4 0 2.5-1.1 2.5-2.5V32.4c0-1.4-1.1-2.5-2.5-2.5H750zm-40.3 0c-1.4 0-2.5 1.1-2.5 2.5v109.8c0 1.4 1.1 2.5 2.5 2.5h26.2c1.4 0 2.5-1.1 2.5-2.5V32.4c0-1.4-1.1-2.5-2.5-2.5h-26.2zm-39.4 0c-1.4 0-2.5 1.1-2.5 2.5v109.8c0 1.4 1.1 2.5 2.5 2.5h26.2c1.4 0 2.5-1.1 2.5-2.5V32.4c0-1.4-1.1-2.5-2.5-2.5h-26.2zm-37.3 0c-1.4 0-2.5 1.1-2.5 2.5v109.8c0 1.4 1.1 2.5 2.5 2.5h26.2c1.4 0 2.5-1.1 2.5-2.5V32.4c0-1.4-1.1-2.5-2.5-2.5H633zm-40.3 0c-1.4 0-2.5 1.1-2.5 2.5v109.8c0 1.4 1.1 2.5 2.5 2.5h26.2c1.4 0 2.5-1.1 2.5-2.5V32.4c0-1.4-1.1-2.5-2.5-2.5h-26.2zm-39.3 0c-1.4 0-2.5 1.1-2.5 2.5v109.8c0 1.4 1.1 2.5 2.5 2.5h26.2c1.4 0 2.5-1.1 2.5-2.5V32.4c0-1.4-1.1-2.5-2.5-2.5h-26.2zm-38.7 0c-1.4 0-2.5 1.1-2.5 2.5v109.8c0 1.4 1.1 2.5 2.5 2.5h26.2c1.4 0 2.5-1.1 2.5-2.5V32.4c0-1.4-1.1-2.5-2.5-2.5h-26.2zm-40.3 0c-1.4 0-2.5 1.1-2.5 2.5v109.8c0 1.4 1.1 2.5 2.5 2.5h26.2c1.4 0 2.5-1.1 2.5-2.5V32.4c0-1.4-1.1-2.5-2.5-2.5h-26.2zm-39.4 0c-1.4 0-2.5 1.1-2.5 2.5v109.8c0 1.4 1.1 2.5 2.5 2.5h26.2c1.4 0 2.5-1.1 2.5-2.5V32.4c0-1.4-1.1-2.5-2.5-2.5H435zm-38.6 0c-1.4 0-2.5 1.1-2.5 2.5v109.8c0 1.4 1.1 2.5 2.5 2.5h26.2c1.4 0 2.5-1.1 2.5-2.5V32.4c0-1.4-1.1-2.5-2.5-2.5h-26.2zm-40.4 0c-1.4 0-2.5 1.1-2.5 2.5v109.8c0 1.4 1.1 2.5 2.5 2.5h26.2c1.4 0 2.5-1.1 2.5-2.5V32.4c0-1.4-1.1-2.5-2.5-2.5H356zm-39.3 0c-1.4 0-2.5 1.1-2.5 2.5v109.8c0 1.4 1.1 2.5 2.5 2.5h26.2c1.4 0 2.5-1.1 2.5-2.5V32.4c0-1.4-1.1-2.5-2.5-2.5h-26.2zm-38.6 0c-1.4 0-2.5 1.1-2.5 2.5v109.8c0 1.4 1.1 2.5 2.5 2.5h26.2c1.4 0 2.5-1.1 2.5-2.5V32.4c0-1.4-1.1-2.5-2.5-2.5h-26.2zm-40.4 0c-1.4 0-2.5 1.1-2.5 2.5v109.8c0 1.4 1.1 2.5 2.5 2.5h26.2c1.4 0 2.5-1.1 2.5-2.5V32.4c0-1.4-1.1-2.5-2.5-2.5h-26.2zm-39.3 0c-1.4 0-2.5 1.1-2.5 2.5v109.8c0 1.4 1.1 2.5 2.5 2.5h26.2c1.4 0 2.5-1.1 2.5-2.5V32.4c0-1.4-1.1-2.5-2.5-2.5h-26.2zm-39.3 0c-1.4 0-2.5 1.1-2.5 2.5V134c0 1.4 1.1 2.5 2.5 2.5h26.2c1.4 0 2.5-1.1 2.5-2.5V32.4c0-1.4-1.1-2.5-2.5-2.5h-26.2zm-38.7 0c-1.4 0-2.5 1.1-2.5 2.5V134c0 1.4 1.1 2.5 2.5 2.5h26.2c1.4 0 2.5-1.1 2.5-2.5V32.4c0-1.4-1.1-2.5-2.5-2.5h-26.2zM106.6 37c-.3 0-.6.1-1 .2L80 47.1h-.1c-2.2 1.6-2.2 4.3-2.2 5.5v52.2c0 1.4 1.1 2.5 2.5 2.5h26.2c1.4 0 2.5-1.1 2.5-2.5V39.4c0-.4-.1-.8-.3-1.2-.3-.7-1.1-1.2-2-1.2zM66.8 68.1c-12.2 0-23.1 16.3-23.1 29.2v7.8c0 1.2 1 2.2 2.1 2.2h20.9c1.2 0 2.1-1 2.1-2.2V70.3c.1-1.2-.9-2.2-2-2.2z"
         id="path133"
         style="fill:gray" /><path
         class="st6"
         d="M884.5 4.8v324.6H13.3L3.1 317.5V9.9c0-2.8 2.3-5.1 5-5.1h876.4M750 145.2h26.2c1.7 0 3-1.4 3-3V32.4c0-1.7-1.4-3-3-3H750c-1.7 0-3 1.4-3 3v109.8c0 1.6 1.3 3 3 3m-40.3 0h26.2c1.7 0 3-1.4 3-3V32.4c0-1.7-1.4-3-3-3h-26.2c-1.7 0-3 1.4-3 3v109.8c-.1 1.6 1.3 3 3 3m-39.4 0h26.2c1.7 0 3-1.4 3-3V32.4c0-1.7-1.4-3-3-3h-26.2c-1.7 0-3 1.4-3 3v109.8c0 1.6 1.4 3 3 3m-37.3 0h26.2c1.7 0 3-1.4 3-3V32.4c0-1.7-1.4-3-3-3H633c-1.7 0-3 1.4-3 3v109.8c0 1.6 1.4 3 3 3m-40.3 0h26.2c1.7 0 3-1.4 3-3V32.4c0-1.7-1.4-3-3-3h-26.2c-1.7 0-3 1.4-3 3v109.8c0 1.6 1.3 3 3 3m-39.3 0h26.2c1.7 0 3-1.4 3-3V32.4c0-1.7-1.4-3-3-3h-26.2c-1.7 0-3 1.4-3 3v109.8c-.1 1.6 1.3 3 3 3m-38.7 0h26.2c1.7 0 3-1.4 3-3V32.4c0-1.7-1.4-3-3-3h-26.2c-1.7 0-3 1.4-3 3v109.8c0 1.6 1.3 3 3 3m-40.3 0h26.2c1.7 0 3-1.4 3-3V32.4c0-1.7-1.4-3-3-3h-26.2c-1.7 0-3 1.4-3 3v109.8c-.1 1.6 1.3 3 3 3m-39.4 0h26.2c1.7 0 3-1.4 3-3V32.4c0-1.7-1.4-3-3-3H435c-1.7 0-3 1.4-3 3v109.8c0 1.6 1.4 3 3 3m-38.6 0h26.2c1.7 0 3-1.4 3-3V32.4c0-1.7-1.4-3-3-3h-26.2c-1.7 0-3 1.4-3 3v109.8c0 1.6 1.3 3 3 3m-40.4 0h26.2c1.7 0 3-1.4 3-3V32.4c0-1.7-1.4-3-3-3H356c-1.7 0-3 1.4-3 3v109.8c0 1.6 1.4 3 3 3m-39.3 0h26.2c1.7 0 3-1.4 3-3V32.4c0-1.7-1.4-3-3-3h-26.2c-1.7 0-3 1.4-3 3v109.8c0 1.6 1.4 3 3 3m-38.6 0h26.2c1.7 0 3-1.4 3-3V32.4c0-1.7-1.4-3-3-3h-26.2c-1.7 0-3 1.4-3 3v109.8c-.1 1.6 1.3 3 3 3m-40.4 0h26.2c1.7 0 3-1.4 3-3V32.4c0-1.7-1.4-3-3-3h-26.2c-1.7 0-3 1.4-3 3v109.8c0 1.6 1.4 3 3 3m-39.3 0h26.2c1.7 0 3-1.4 3-3V32.4c0-1.7-1.4-3-3-3h-26.2c-1.7 0-3 1.4-3 3v109.8c0 1.6 1.3 3 3 3m-39.3-8.1h26.2c1.7 0 3-1.4 3-3V32.4c0-1.7-1.4-3-3-3h-26.2c-1.7 0-3 1.4-3 3v101.7c-.1 1.6 1.3 3 3 3m-38.7 0h26.2c1.7 0 3-1.4 3-3V32.4c0-1.7-1.4-3-3-3h-26.2c-1.7 0-3 1.4-3 3v101.7c0 1.6 1.3 3 3 3m667.3 8.1h26.2c1.7 0 3-1.4 3-3V52.6c0-1.2 0-4.2-2.4-5.9l-.1-.1h-.1l-25.5-9.8c-.4-.1-.7-.2-1.1-.2-1.1 0-2.1.6-2.6 1.5-.2.4-.3.9-.3 1.4v102.7c-.2 1.6 1.2 3 2.9 3M80.3 107.8h26.2c1.7 0 3-1.4 3-3V39.4c0-.5-.1-1-.3-1.4-.5-.9-1.5-1.5-2.6-1.5-.4 0-.8.1-1.1.2L80 46.5h-.1l-.1.1c-2.4 1.7-2.4 4.6-2.4 5.9v52.2c-.1 1.7 1.2 3.1 2.9 3.1m748 37.4h25c1.5 0 2.7-1.2 2.7-2.7v-36.1c0-15.3-12.4-38.8-27.6-38.8-1.5 0-2.7 1.2-2.7 2.7v72.3c-.1 1.4 1.1 2.6 2.6 2.6M45.8 107.8h20.9c1.5 0 2.7-1.2 2.7-2.7V70.3c0-1.5-1.2-2.7-2.7-2.7-5.3 0-11.3 3.4-16 9.2-4.8 5.9-7.6 13.4-7.6 20.5v7.8c.1 1.5 1.3 2.7 2.7 2.7m782.5 162.8c15.2 0 27.6-23.5 27.6-38.8v-36.1c0-1.5-1.2-2.7-2.7-2.7h-25c-1.5 0-2.7 1.2-2.7 2.7V268c.1 1.4 1.3 2.6 2.8 2.6m-40.7 31.1c.4 0 .8-.1 1.1-.2l25.5-9.8h.1l.1-.1c2.4-1.7 2.4-4.6 2.4-5.9v-89.6c0-1.7-1.4-3-3-3h-26.2c-1.7 0-3 1.4-3 3v102.7c0 .5.1 1 .3 1.4.6.9 1.6 1.5 2.7 1.5m-37.6 7.2h26.2c1.7 0 3-1.4 3-3V196.1c0-1.7-1.4-3-3-3H750c-1.7 0-3 1.4-3 3v109.8c0 1.6 1.3 3 3 3m-40.3 0h26.2c1.7 0 3-1.4 3-3V196.1c0-1.7-1.4-3-3-3h-26.2c-1.7 0-3 1.4-3 3v109.8c-.1 1.6 1.3 3 3 3m-39.4 0h26.2c1.7 0 3-1.4 3-3V196.1c0-1.7-1.4-3-3-3h-26.2c-1.7 0-3 1.4-3 3v109.8c0 1.6 1.4 3 3 3m-37.3 0h26.2c1.7 0 3-1.4 3-3V196.1c0-1.7-1.4-3-3-3H633c-1.7 0-3 1.4-3 3v109.8c0 1.6 1.4 3 3 3m-40.3 0h26.2c1.7 0 3-1.4 3-3V196.1c0-1.7-1.4-3-3-3h-26.2c-1.7 0-3 1.4-3 3v109.8c0 1.6 1.3 3 3 3m-39.3 0h26.2c1.7 0 3-1.4 3-3V196.1c0-1.7-1.4-3-3-3h-26.2c-1.7 0-3 1.4-3 3v109.8c-.1 1.6 1.3 3 3 3m-38.7 0h26.2c1.7 0 3-1.4 3-3V196.1c0-1.7-1.4-3-3-3h-26.2c-1.7 0-3 1.4-3 3v109.8c0 1.6 1.3 3 3 3m-40.3 0h26.2c1.7 0 3-1.4 3-3V196.1c0-1.7-1.4-3-3-3h-26.2c-1.7 0-3 1.4-3 3v109.8c-.1 1.6 1.3 3 3 3m-39.4 0h26.2c1.7 0 3-1.4 3-3V196.1c0-1.7-1.4-3-3-3H435c-1.7 0-3 1.4-3 3v109.8c0 1.6 1.4 3 3 3m-38.6 0h26.2c1.7 0 3-1.4 3-3V196.1c0-1.7-1.4-3-3-3h-26.2c-1.7 0-3 1.4-3 3v109.8c0 1.6 1.3 3 3 3m-40.4 0h26.2c1.7 0 3-1.4 3-3V196.1c0-1.7-1.4-3-3-3H356c-1.7 0-3 1.4-3 3v109.8c0 1.6 1.4 3 3 3m-39.3 0h26.2c1.7 0 3-1.4 3-3V196.1c0-1.7-1.4-3-3-3h-26.2c-1.7 0-3 1.4-3 3v109.8c0 1.6 1.4 3 3 3m-38.6 0h26.2c1.7 0 3-1.4 3-3V196.1c0-1.7-1.4-3-3-3h-26.2c-1.7 0-3 1.4-3 3v109.8c-.1 1.6 1.3 3 3 3m-40.4 0h26.2c1.7 0 3-1.4 3-3V196.1c0-1.7-1.4-3-3-3h-26.2c-1.7 0-3 1.4-3 3v109.8c0 1.6 1.4 3 3 3m-39.3 0h26.2c1.7 0 3-1.4 3-3V196.1c0-1.7-1.4-3-3-3h-26.2c-1.7 0-3 1.4-3 3v109.8c0 1.6 1.3 3 3 3m-39.3 0h26.2c1.7 0 3-1.4 3-3V204.1c0-1.7-1.4-3-3-3h-26.2c-1.7 0-3 1.4-3 3v101.7c-.1 1.7 1.3 3.1 3 3.1m-38.7 0h26.2c1.7 0 3-1.4 3-3V204.1c0-1.7-1.4-3-3-3h-26.2c-1.7 0-3 1.4-3 3v101.7c0 1.7 1.3 3.1 3 3.1M885.5 3.8H8.1C4.8 3.8 2 6.5 2 9.9v308l10.8 12.5h872.6V3.8h.1zM750 144.2c-1.1 0-2-.9-2-2V32.4c0-1.1.9-2 2-2h26.2c1.1 0 2 .9 2 2v109.8c0 1.1-.9 2-2 2H750zm-40.3 0c-1.1 0-2-.9-2-2V32.4c0-1.1.9-2 2-2h26.2c1.1 0 2 .9 2 2v109.8c0 1.1-.9 2-2 2h-26.2zm-39.4 0c-1.1 0-2-.9-2-2V32.4c0-1.1.9-2 2-2h26.2c1.1 0 2 .9 2 2v109.8c0 1.1-.9 2-2 2h-26.2zm-37.3 0c-1.1 0-2-.9-2-2V32.4c0-1.1.9-2 2-2h26.2c1.1 0 2 .9 2 2v109.8c0 1.1-.9 2-2 2H633zm-40.3 0c-1.1 0-2-.9-2-2V32.4c0-1.1.9-2 2-2h26.2c1.1 0 2 .9 2 2v109.8c0 1.1-.9 2-2 2h-26.2zm-39.3 0c-1.1 0-2-.9-2-2V32.4c0-1.1.9-2 2-2h26.2c1.1 0 2 .9 2 2v109.8c0 1.1-.9 2-2 2h-26.2zm-38.7 0c-1.1 0-2-.9-2-2V32.4c0-1.1.9-2 2-2h26.2c1.1 0 2 .9 2 2v109.8c0 1.1-.9 2-2 2h-26.2zm-40.3 0c-1.1 0-2-.9-2-2V32.4c0-1.1.9-2 2-2h26.2c1.1 0 2 .9 2 2v109.8c0 1.1-.9 2-2 2h-26.2zm-39.4 0c-1.1 0-2-.9-2-2V32.4c0-1.1.9-2 2-2h26.2c1.1 0 2 .9 2 2v109.8c0 1.1-.9 2-2 2H435zm-38.6 0c-1.1 0-2-.9-2-2V32.4c0-1.1.9-2 2-2h26.2c1.1 0 2 .9 2 2v109.8c0 1.1-.9 2-2 2h-26.2zm-40.4 0c-1.1 0-2-.9-2-2V32.4c0-1.1.9-2 2-2h26.2c1.1 0 2 .9 2 2v109.8c0 1.1-.9 2-2 2H356zm-39.3 0c-1.1 0-2-.9-2-2V32.4c0-1.1.9-2 2-2h26.2c1.1 0 2 .9 2 2v109.8c0 1.1-.9 2-2 2h-26.2zm-38.6 0c-1.1 0-2-.9-2-2V32.4c0-1.1.9-2 2-2h26.2c1.1 0 2 .9 2 2v109.8c0 1.1-.9 2-2 2h-26.2zm-40.4 0c-1.1 0-2-.9-2-2V32.4c0-1.1.9-2 2-2h26.2c1.1 0 2 .9 2 2v109.8c0 1.1-.9 2-2 2h-26.2zm-39.3 0c-1.1 0-2-.9-2-2V32.4c0-1.1.9-2 2-2h26.2c1.1 0 2 .9 2 2v109.8c0 1.1-.9 2-2 2h-26.2zm-39.3-8.1c-1.1 0-2-.9-2-2V32.4c0-1.1.9-2 2-2h26.2c1.1 0 2 .9 2 2v101.7c0 1.1-.9 2-2 2h-26.2zm-38.7 0c-1.1 0-2-.9-2-2V32.4c0-1.1.9-2 2-2h26.2c1.1 0 2 .9 2 2v101.7c0 1.1-.9 2-2 2h-26.2zm667.3 8.1c-1.1 0-2-.9-2-2V39.4c0-.3.1-.7.2-.9.3-.6 1-1 1.7-1 .3 0 .5 0 .8.1l25.5 9.8c2 1.4 2 3.9 2 5.1v89.6c0 1.1-.9 2-2 2h-26.2v.1zM80.3 106.8c-1.1 0-2-.9-2-2V52.6c0-1.1 0-3.6 2-5.1l25.5-9.8c.2-.1.5-.1.8-.1.7 0 1.4.3 1.7 1 .1.3.2.6.2.9v65.3c0 1.1-.9 2-2 2H80.3zm748 37.4c-.9 0-1.6-.7-1.6-1.6V70.3c0-.9.7-1.6 1.6-1.6 14.7 0 26.6 23.1 26.6 37.8v36.1c0 .9-.7 1.6-1.6 1.6h-25zM45.8 106.8c-.9 0-1.6-.7-1.6-1.6v-7.8c0-14.7 12.1-28.7 22.6-28.7.9 0 1.6.7 1.6 1.6v34.9c0 .9-.7 1.6-1.6 1.6h-21zm782.5 162.8c-.9 0-1.6-.7-1.6-1.6v-72.3c0-.9.7-1.6 1.6-1.6h25c.9 0 1.6.7 1.6 1.6v36.1c0 14.7-11.9 37.8-26.6 37.8zm-40.7 31.1c-.7 0-1.4-.3-1.7-1-.1-.3-.2-.6-.2-.9V196.1c0-1.1.9-2 2-2h26.2c1.1 0 2 .9 2 2v89.6c0 1.1 0 3.6-2 5.1l-25.5 9.8c-.3 0-.6.1-.8.1zm-37.6 7.2c-1.1 0-2-.9-2-2V196.1c0-1.1.9-2 2-2h26.2c1.1 0 2 .9 2 2v109.8c0 1.1-.9 2-2 2H750zm-40.3 0c-1.1 0-2-.9-2-2V196.1c0-1.1.9-2 2-2h26.2c1.1 0 2 .9 2 2v109.8c0 1.1-.9 2-2 2h-26.2zm-39.4 0c-1.1 0-2-.9-2-2V196.1c0-1.1.9-2 2-2h26.2c1.1 0 2 .9 2 2v109.8c0 1.1-.9 2-2 2h-26.2zm-37.3 0c-1.1 0-2-.9-2-2V196.1c0-1.1.9-2 2-2h26.2c1.1 0 2 .9 2 2v109.8c0 1.1-.9 2-2 2H633zm-40.3 0c-1.1 0-2-.9-2-2V196.1c0-1.1.9-2 2-2h26.2c1.1 0 2 .9 2 2v109.8c0 1.1-.9 2-2 2h-26.2zm-39.3 0c-1.1 0-2-.9-2-2V196.1c0-1.1.9-2 2-2h26.2c1.1 0 2 .9 2 2v109.8c0 1.1-.9 2-2 2h-26.2zm-38.7 0c-1.1 0-2-.9-2-2V196.1c0-1.1.9-2 2-2h26.2c1.1 0 2 .9 2 2v109.8c0 1.1-.9 2-2 2h-26.2zm-40.3 0c-1.1 0-2-.9-2-2V196.1c0-1.1.9-2 2-2h26.2c1.1 0 2 .9 2 2v109.8c0 1.1-.9 2-2 2h-26.2zm-39.4 0c-1.1 0-2-.9-2-2V196.1c0-1.1.9-2 2-2h26.2c1.1 0 2 .9 2 2v109.8c0 1.1-.9 2-2 2H435zm-38.6 0c-1.1 0-2-.9-2-2V196.1c0-1.1.9-2 2-2h26.2c1.1 0 2 .9 2 2v109.8c0 1.1-.9 2-2 2h-26.2zm-40.4 0c-1.1 0-2-.9-2-2V196.1c0-1.1.9-2 2-2h26.2c1.1 0 2 .9 2 2v109.8c0 1.1-.9 2-2 2H356zm-39.3 0c-1.1 0-2-.9-2-2V196.1c0-1.1.9-2 2-2h26.2c1.1 0 2 .9 2 2v109.8c0 1.1-.9 2-2 2h-26.2zm-38.6 0c-1.1 0-2-.9-2-2V196.1c0-1.1.9-2 2-2h26.2c1.1 0 2 .9 2 2v109.8c0 1.1-.9 2-2 2h-26.2zm-40.4 0c-1.1 0-2-.9-2-2V196.1c0-1.1.9-2 2-2h26.2c1.1 0 2 .9 2 2v109.8c0 1.1-.9 2-2 2h-26.2zm-39.3 0c-1.1 0-2-.9-2-2V196.1c0-1.1.9-2 2-2h26.2c1.1 0 2 .9 2 2v109.8c0 1.1-.9 2-2 2h-26.2zm-39.3 0c-1.1 0-2-.9-2-2V204.1c0-1.1.9-2 2-2h26.2c1.1 0 2 .9 2 2v101.7c0 1.1-.9 2-2 2h-26.2v.1zm-38.7 0c-1.1 0-2-.9-2-2V204.1c0-1.1.9-2 2-2h26.2c1.1 0 2 .9 2 2v101.7c0 1.1-.9 2-2 2h-26.2v.1z"
         id="path135"
         style="fill:#4d4d4d" /></g><g
       id="g137"><path
         class="st11"
         id="rect139"
         style="clip-rule:evenodd;fill:#666;fill-rule:evenodd"
         d="M19.6 118.9h71.6v101H19.6z" /><path
         class="st3"
         id="polygon141"
         style="clip-rule:evenodd;fill:#333;fill-rule:evenodd"
         d="M27.3 118.9h-8.1V220h63.2l-8.7-7.4H27.3v-86.3h46.4l8.7-7.4z" /></g><g
       id="g143"><path
         class="st10"
         id="rect145"
         style="fill:gray"
         d="M890.7 48h86.7v243h-86.7z" /><path
         class="st7"
         d="M976.9 48.5v242h-85.7v-242h85.7m1-1h-87.7v244h87.7v-244z"
         id="path147"
         style="fill:#333" /></g><g
       id="g149"><path
         class="st10"
         id="rect151"
         style="fill:gray"
         d="M890.7 4h67.9v43h-67.9z" /><path
         class="st7"
         d="M958.1 4.5v42h-66.9v-42h66.9m1-1h-68.9v44h68.9v-44z"
         id="path153"
         style="fill:#333" /></g><g
       id="g155"><path
         transform="rotate(180 959.07 161.63)"
         class="st11"
         id="rect157"
         style="clip-rule:evenodd;fill:#666;fill-rule:evenodd"
         d="M940.5 148.1h37.2v27.1h-37.2z" /><path
         class="st3"
         id="polygon159"
         style="clip-rule:evenodd;fill:#333;fill-rule:evenodd"
         d="M972.5 175.2h5.4v-27.1h-35.6l5.9 4.3h24.3v18.5h-24.3l-5.9 4.3z" /></g><g
       id="g161"><path
         transform="rotate(180 959.07 217.875)"
         class="st11"
         id="rect163"
         style="clip-rule:evenodd;fill:#666;fill-rule:evenodd"
         d="M940.5 204.3h37.2v27.1h-37.2z" /><path
         class="st3"
         id="polygon165"
         style="clip-rule:evenodd;fill:#333;fill-rule:evenodd"
         d="M972.5 231.4h5.4v-27.1h-35.6l5.9 4.3h24.3v18.5h-24.3l-5.9 4.3z" /></g><g
       id="g167"><path
         transform="rotate(180 959.07 104.036)"
         class="st11"
         id="rect169"
         style="clip-rule:evenodd;fill:#666;fill-rule:evenodd"
         d="M940.5 90.5h37.2v27.1h-37.2z" /><path
         class="st3"
         id="polygon171"
         style="clip-rule:evenodd;fill:#333;fill-rule:evenodd"
         d="M972.5 117.6h5.4V90.5h-35.6l5.9 4.3h24.3v18.5h-24.3l-5.9 4.3z" /></g><g
       id="g173"><path
         id="rect175"
         style="clip-rule:evenodd;fill:#1a1a1a;fill-rule:evenodd"
         d="M19.6 150.2h86.1V194H19.6z" /><g
         id="g177"><g
           id="g179"><g
             id="g181"><path
               class="st13"
               id="rect183"
               style="clip-rule:evenodd;fill:#4d4d4d;fill-rule:evenodd"
               d="M34.9 155.9H43v32.3h-8.1z" /></g><g
             id="g185"><path
               class="st13"
               id="rect187"
               style="clip-rule:evenodd;fill:#4d4d4d;fill-rule:evenodd"
               d="M22.8 155.9h8.1v32.3h-8.1z" /><path
               class="st3"
               id="rect189"
               style="clip-rule:evenodd;fill:#333;fill-rule:evenodd"
               d="M30.9 155.9h4v32.3h-4z" /></g></g><g
           id="g191"><path
             class="st13"
             id="rect193"
             style="clip-rule:evenodd;fill:#4d4d4d;fill-rule:evenodd"
             d="M60.2 155.9h5v32.3h-5z" /><path
             class="st3"
             id="rect195"
             style="clip-rule:evenodd;fill:#333;fill-rule:evenodd"
             d="M57.1 155.9h3v32.3h-3z" /></g><g
           id="g197"><path
             class="st13"
             id="rect199"
             style="clip-rule:evenodd;fill:#4d4d4d;fill-rule:evenodd"
             d="M52.1 155.9h5v32.3h-5z" /><path
             class="st3"
             id="rect201"
             style="clip-rule:evenodd;fill:#333;fill-rule:evenodd"
             d="M50.1 155.9h2v32.3h-2z" /></g><g
           id="g203"><path
             class="st13"
             id="rect205"
             style="clip-rule:evenodd;fill:#4d4d4d;fill-rule:evenodd"
             d="M45 155.9h5v32.3h-5z" /><path
             class="st3"
             id="rect207"
             style="clip-rule:evenodd;fill:#333;fill-rule:evenodd"
             d="M43 155.9h2v32.3h-2z" /></g><g
           id="g209"><path
             class="st13"
             id="rect211"
             style="clip-rule:evenodd;fill:#4d4d4d;fill-rule:evenodd"
             d="M67.2 155.9h6.1v32.3h-6.1z" /><path
             class="st3"
             id="rect213"
             style="clip-rule:evenodd;fill:#333;fill-rule:evenodd"
             d="M65.2 155.9h2v32.3h-2z" /></g><g
           id="g215"><path
             class="st13"
             id="rect217"
             style="clip-rule:evenodd;fill:#4d4d4d;fill-rule:evenodd"
             d="M91.4 155.9h3v32.3h-3z" /><path
             class="st3"
             id="rect219"
             style="clip-rule:evenodd;fill:#333;fill-rule:evenodd"
             d="M73.3 155.9h18.2v32.3H73.3z" /></g><path
           class="st3"
           id="rect221"
           style="clip-rule:evenodd;fill:#333;fill-rule:evenodd"
           d="M94.4 155.9h8.1v32.3h-8.1z" /></g></g><g
       id="g223"><path
         d="M25.3 312.8c-3.1 0-5.6-2.5-5.6-5.6V233c0-3.1 2.5-5.6 5.6-5.6h79.3c3.1 0 5.6 2.5 5.6 5.6v74.3c0 3.1-2.5 5.6-5.6 5.6H25.3z"
         id="path225"
         style="clip-rule:evenodd;fill:gray;fill-rule:evenodd" /><path
         class="st9"
         d="M104.6 228c2.8 0 5 2.3 5 5v74.3c0 2.8-2.3 5-5 5H25.3c-2.8 0-5-2.3-5-5V233c0-2.8 2.3-5 5-5h79.3m0-1H25.3c-3.3 0-6.1 2.7-6.1 6.1v74.3c0 3.3 2.7 6.1 6.1 6.1h79.3c3.3 0 6.1-2.7 6.1-6.1V233c0-3.3-2.7-6-6.1-6z"
         id="path227"
         style="fill:#666" /></g><path
       class="st7"
       id="rect229"
       style="fill:#333"
       d="M885.6 5.1h4.6v323.6h-4.6z" /><g
       id="g231"><path
         class="st10"
         d="M890.7 328.1v-36.7h67.9v27.7h-39.1c-5.5 0-10.3 3.7-11.8 9h-17z"
         id="path233"
         style="fill:gray" /><path
         class="st7"
         d="M958.1 291.9v26.7h-38.6c-5.6 0-10.5 3.6-12.2 9h-16.1v-35.7h66.9m1-1h-68.9v37.7H908c1.3-5.1 5.9-9 11.4-9H959v-28.7h.1z"
         id="path235"
         style="fill:#333" /></g><g
       id="g237"><path
         d="M913.5 330.7c-1.9 0-3.5-1.6-3.5-3.5 0-2 1.6-3.5 3.5-3.5H976c1.9 0 3.5 1.6 3.5 3.5 0 2-1.6 3.5-3.5 3.5h-62.5z"
         id="path239"
         style="fill:#b3b3b3" /><path
         class="st10"
         d="M976 324.1c1.7 0 3 1.4 3 3 0 1.7-1.4 3-3 3h-62.5c-1.7 0-3-1.4-3-3 0-1.7 1.4-3 3-3H976m0-1h-62.5c-2.2 0-4 1.8-4 4s1.8 4 4 4H976c2.2 0 4-1.8 4-4 .1-2.2-1.7-4-4-4z"
         id="path241"
         style="fill:gray" /></g><g
       id="g243"><path
         id="rect245"
         style="fill:#999"
         d="M9 5.1h875.3v6.1H9z" /></g></g><g
     id="g247"
     transform="matrix(1.00248 0 0 1 .083 .086)"><path
       class="st17"
       d="m651.5 179.1 9.1-23.6h3.4l9.7 23.6h-3.6l-2.8-7.2h-9.9l-2.6 7.2h-3.3zm6.8-9.7h8l-2.5-6.5c-.8-2-1.3-3.6-1.7-4.9-.3 1.5-.7 3-1.3 4.5l-2.5 6.9z"
       id="path249"
       style="fill:#fff" /><path
       class="st17"
       d="m675.4 173.6 2.8-.3c.2 1.3.7 2.3 1.4 2.9.7.6 1.5.9 2.6.9.9 0 1.7-.2 2.3-.6.7-.4 1.2-1 1.7-1.6.5-.6.8-1.6 1.1-2.8.3-1.2.4-2.3.4-3.5v-.6c-.6.9-1.4 1.7-2.4 2.2-1 .6-2.1.9-3.3.9-2 0-3.6-.7-5-2.1-1.4-1.4-2-3.3-2-5.6 0-2.4.7-4.3 2.1-5.8 1.4-1.5 3.2-2.2 5.3-2.2 1.5 0 2.9.4 4.2 1.2 1.3.8 2.2 2 2.9 3.5.7 1.5 1 3.7 1 6.6 0 3-.3 5.4-1 7.2-.7 1.8-1.6 3.2-2.9 4.1-1.3.9-2.8 1.4-4.6 1.4-1.8 0-3.4-.5-4.5-1.5-1.2-1-1.9-2.4-2.1-4.3zm11.9-10.4c0-1.7-.4-3-1.3-4s-2-1.5-3.2-1.5c-1.3 0-2.4.5-3.4 1.6s-1.4 2.4-1.4 4.1c0 1.5.5 2.7 1.4 3.7.9.9 2 1.4 3.4 1.4 1.3 0 2.4-.5 3.3-1.4.7-.9 1.2-2.2 1.2-3.9z"
       id="path251"
       style="fill:#fff" /><path
       class="st17"
       d="M694.4 179.1v-23.6h3.1v11.7l11.7-11.7h4.2l-9.9 9.6 10.3 14.1h-4.1l-8.4-12-3.9 3.8v8.2h-3z"
       id="path253"
       style="fill:#fff" /><path
       class="st17"
       d="M715 172v-2.9h8.9v2.9H715z"
       id="path255"
       style="fill:#fff" /><path
       class="st17"
       d="m726.3 172.8 2.9-.4c.3 1.6.9 2.8 1.7 3.6.8.7 1.8 1.1 2.9 1.1 1.4 0 2.5-.5 3.5-1.4 1-.9 1.4-2.1 1.4-3.5 0-1.3-.4-2.4-1.3-3.3-.9-.9-2-1.3-3.3-1.3-.5 0-1.2.1-2 .3l.3-2.5h.5c1.2 0 2.3-.3 3.3-1s1.5-1.6 1.5-3c0-1.1-.4-1.9-1.1-2.6-.7-.7-1.6-1-2.8-1-1.1 0-2.1.4-2.8 1.1-.7.7-1.2 1.8-1.5 3.2l-2.9-.5c.4-1.9 1.2-3.5 2.4-4.5 1.3-1.1 2.8-1.6 4.7-1.6 1.3 0 2.5.3 3.6.8 1.1.6 1.9 1.3 2.5 2.3.6 1 .9 2 .9 3s-.3 1.9-.8 2.8c-.5.9-1.4 1.5-2.4 2 1.4.3 2.5 1 3.3 2 .8 1 1.2 2.3 1.2 3.8 0 2.1-.8 3.8-2.3 5.2-1.5 1.4-3.4 2.2-5.7 2.2-2.1 0-3.8-.6-5.2-1.9-1.4-1.3-2.3-2.9-2.5-4.9z"
       id="path257"
       style="fill:#fff" /><path
       class="st17"
       d="M745.7 179.1v-23.6h3.1v11.7l11.7-11.7h4.2l-9.9 9.6 10.3 14.1H761l-8.4-12-3.9 3.8v8.2h-3z"
       id="path259"
       style="fill:#fff" /><path
       class="st17"
       d="m772 179.1-6.3-23.6h3.2l3.6 15.5c.4 1.6.7 3.2 1 4.8.6-2.5 1-4 1.1-4.4l4.5-16h3.8l3.4 12c.8 3 1.5 5.8 1.8 8.4.3-1.5.7-3.2 1.2-5.1l3.7-15.2h3.1l-6.5 23.6h-3l-5-18c-.4-1.5-.7-2.4-.7-2.8-.2 1.1-.5 2-.7 2.8l-5 18H772z"
       id="path261"
       style="fill:#fff" /><path
       class="st17"
       d="M796.9 172v-2.9h8.9v2.9h-8.9z"
       id="path263"
       style="fill:#fff" /><path
       class="st17"
       d="m806.8 179.1 9.1-23.6h3.4l9.7 23.6h-3.6l-2.8-7.2h-9.9l-2.6 7.2h-3.3zm6.8-9.7h8l-2.5-6.5c-.8-2-1.3-3.6-1.7-4.9-.3 1.5-.7 3-1.3 4.5l-2.5 6.9z"
       id="path265"
       style="fill:#fff" /><path
       class="st17"
       d="m848.3 170.8 3.1.8c-.7 2.6-1.8 4.5-3.5 5.9-1.7 1.4-3.8 2-6.2 2-2.5 0-4.6-.5-6.2-1.6-1.6-1-2.8-2.5-3.6-4.5-.8-2-1.2-4.1-1.2-6.3 0-2.5.5-4.6 1.4-6.4.9-1.8 2.3-3.2 4-4.2 1.7-1 3.6-1.4 5.7-1.4 2.4 0 4.4.6 6 1.8 1.6 1.2 2.7 2.9 3.4 5.1l-3.1.7c-.5-1.7-1.3-3-2.4-3.8-1.1-.8-2.4-1.2-3.9-1.2-1.8 0-3.3.4-4.6 1.3-1.2.9-2.1 2-2.6 3.5s-.7 3-.7 4.5c0 2 .3 3.8.9 5.3.6 1.5 1.5 2.6 2.7 3.4 1.2.8 2.6 1.1 4 1.1 1.8 0 3.2-.5 4.4-1.5 1.1-1 1.9-2.5 2.4-4.5z"
       id="path267"
       style="fill:#fff" /></g><text
     xml:space="preserve"
     style="font-style:normal;font-weight:normal;font-size:40px;line-height:1.25;font-family:sans-serif;letter-spacing:0px;word-spacing:0px;fill:#000000;fill-opacity:1;stroke:none"
     x="199.61919"
     y="159.85468"
     id="text144"><tspan
       sodipodi:role="line"
       id="tspan142"
       x="199.61919"
       y="196.34789" /></text>
</svg>