<?xml version="1.0" encoding="UTF-8" standalone="no"?>
<svg
   xmlns:dc="http://purl.org/dc/elements/1.1/"
   xmlns:cc="http://creativecommons.org/ns#"
   xmlns:rdf="http://www.w3.org/1999/02/22-rdf-syntax-ns#"
   xmlns:svg="http://www.w3.org/2000/svg"
   xmlns="http://www.w3.org/2000/svg"
   xmlns:sodipodi="http://sodipodi.sourceforge.net/DTD/sodipodi-0.dtd"
   xmlns:inkscape="http://www.inkscape.org/namespaces/inkscape"
   version="1.1"
   id="ASR-9006-FAN-V2Layer_1"
   x="0"
   y="0"
   viewBox="0 0 568 730"
   xml:space="preserve"
   width="568"
   height="730"
   sodipodi:docname="ASR-9006-FAN-V2.svg"
   inkscape:version="0.92.1 r15371"><metadata
     id="metadata153"><rdf:RDF><cc:Work
         rdf:about=""><dc:format>image/svg+xml</dc:format><dc:type
           rdf:resource="http://purl.org/dc/dcmitype/StillImage" /></cc:Work></rdf:RDF></metadata><defs
     id="defs151" /><sodipodi:namedview
     pagecolor="#ffffff"
     bordercolor="#666666"
     borderopacity="1"
     objecttolerance="10"
     gridtolerance="10"
     guidetolerance="10"
     inkscape:pageopacity="0"
     inkscape:pageshadow="2"
     inkscape:window-width="1920"
     inkscape:window-height="986"
     id="namedview149"
     showgrid="false"
     inkscape:zoom="1.0452055"
     inkscape:cx="284"
     inkscape:cy="365"
     inkscape:window-x="-11"
     inkscape:window-y="-11"
     inkscape:window-maximized="1"
     inkscape:current-layer="ASR-9006-FAN-V2Layer_1" /><style
     type="text/css"
     id="ASR-9006-FAN-V2style2">.ASR-9006-FAN-V2st0{fill:#b3b3b3}.ASR-9006-FAN-V2st1{fill:#666}.ASR-9006-FAN-V2st2{fill:#999}.ASR-9006-FAN-V2st3{fill:gray}.ASR-9006-FAN-V2st4{fill:#ccc}.ASR-9006-FAN-V2st6{fill:#595959}.ASR-9006-FAN-V2st7{fill:#333}.ASR-9006-FAN-V2st8{fill-rule:evenodd;clip-rule:evenodd;fill:#999}.ASR-9006-FAN-V2st10{fill:#4d4d4d}.ASR-9006-FAN-V2st12{fill-rule:evenodd;clip-rule:evenodd;fill:#ccc}.ASR-9006-FAN-V2st13,.ASR-9006-FAN-V2st14{fill-rule:evenodd;clip-rule:evenodd;fill:#666}.ASR-9006-FAN-V2st14{fill:#e6e6e6;stroke:gray;stroke-miterlimit:10}</style><g
     id="ASR-9006-FAN-V2g8"><path
       class="ASR-9006-FAN-V2st0"
       d="M41 715.5v-82c0-3.58-2.92-6.5-6.5-6.5H6a5.51 5.51 0 0 1-5.5-5.5v-607h567v287.78c-10.48 3.46-17.5 13.14-17.5 24.22 0 11.08 7.02 20.76 17.5 24.22V715.5z"
       id="ASR-9006-FAN-V2path4"
       style="fill:#b3b3b3" /><path
       class="ASR-9006-FAN-V2st1"
       d="M567 15v286.92c-10.5 3.62-17.5 13.4-17.5 24.58 0 11.18 7 20.96 17.5 24.58V715H41.5v-81.5c0-3.86-3.14-7-7-7H6c-2.76 0-5-2.24-5-5V15h566m1-1H0v607.5c0 3.31 2.69 6 6 6h28.5c3.31 0 6 2.69 6 6V716H568V350.35c-10.14-3.19-17.5-12.66-17.5-23.85 0-11.19 7.36-20.67 17.5-23.85z"
       id="ASR-9006-FAN-V2path6"
       style="fill:#666" /></g><g
     id="ASR-9006-FAN-V2g14"><path
       class="ASR-9006-FAN-V2st2"
       d="M44 729.5c-1.93 0-3.5-1.57-3.5-3.5v-9.5h527v9.5c0 1.93-1.57 3.5-3.5 3.5z"
       id="ASR-9006-FAN-V2path10"
       style="fill:#999" /><path
       class="ASR-9006-FAN-V2st3"
       d="M567 717v9c0 1.65-1.35 3-3 3H44c-1.65 0-3-1.35-3-3v-9h526m1-1H40v10c0 2.21 1.79 4 4 4h520c2.21 0 4-1.79 4-4z"
       id="ASR-9006-FAN-V2path12"
       style="fill:gray" /></g><g
     id="ASR-9006-FAN-V2g20"><path
       class="ASR-9006-FAN-V2st4"
       d="M.5 13.5V6C.5 2.97 2.97.5 6 .5h555c3.58 0 6.5 2.92 6.5 6.5v6.5z"
       id="ASR-9006-FAN-V2path16"
       style="fill:#ccc" /><path
       class="ASR-9006-FAN-V2st2"
       d="M561 1c3.31 0 6 2.69 6 6v6H1V6c0-2.76 2.24-5 5-5h555m0-1H6C2.69 0 0 2.69 0 6v8h568V7c0-3.87-3.13-7-7-7z"
       id="ASR-9006-FAN-V2path18"
       style="fill:#999" /></g><path
     id="ASR-9006-FAN-V2rect22"
     style="fill:#666;stroke:#9b9b9b;stroke-miterlimit:10"
     d="M7.28 22.36h557v4h-557z" /><path
     class="ASR-9006-FAN-V2st1"
     id="ASR-9006-FAN-V2rect24"
     style="fill:#666"
     d="M42 704h524v4H42z" /><g
     id="ASR-9006-FAN-V2g292"><g
       id="ASR-9006-FAN-V2g160"><g
         id="ASR-9006-FAN-V2g46"><g
           id="ASR-9006-FAN-V2g30"><circle
             class="ASR-9006-FAN-V2st4"
             cx="420.78"
             cy="330.86"
             r="22.49"
             id="ASR-9006-FAN-V2circle26"
             style="fill:#ccc" /><path
             class="ASR-9006-FAN-V2st3"
             d="M420.78 308.89c12.12 0 21.98 9.86 21.98 21.98 0 12.12-9.86 21.98-21.98 21.98-12.12 0-21.98-9.86-21.98-21.98 0-12.12 9.86-21.98 21.98-21.98m0-1.03c-12.7 0-23 10.3-23 23s10.3 23 23 23 23-10.3 23-23-10.3-23-23-23z"
             id="ASR-9006-FAN-V2path28"
             style="fill:gray" /></g><g
           id="ASR-9006-FAN-V2g44"><g
             id="ASR-9006-FAN-V2g36"><circle
               class="ASR-9006-FAN-V2st0"
               cx="420.78"
               cy="330.86"
               r="16.5"
               id="ASR-9006-FAN-V2circle32"
               style="fill:#b3b3b3" /><path
               class="ASR-9006-FAN-V2st6"
               d="M420.78 314.86c8.82 0 16 7.18 16 16s-7.18 16-16 16-16-7.18-16-16 7.18-16 16-16m0-1c-9.39 0-17 7.61-17 17s7.61 17 17 17 17-7.61 17-17c0-9.38-7.61-17-17-17z"
               id="ASR-9006-FAN-V2path34"
               style="fill:#595959" /></g><g
             id="ASR-9006-FAN-V2g42"><circle
               class="ASR-9006-FAN-V2st7"
               cx="420.78"
               cy="330.86"
               r="7.49"
               id="ASR-9006-FAN-V2circle38"
               style="fill:#333" /><path
               class="ASR-9006-FAN-V2st3"
               d="M420.78 323.88c3.85 0 6.98 3.13 6.98 6.98 0 3.85-3.13 6.98-6.98 6.98-3.85 0-6.98-3.13-6.98-6.98 0-3.85 3.13-6.98 6.98-6.98m0-1.02c-4.42 0-8 3.58-8 8s3.58 8 8 8 8-3.58 8-8-3.58-8-8-8z"
               id="ASR-9006-FAN-V2path40"
               style="fill:gray" /></g></g></g><g
         id="ASR-9006-FAN-V2g68"><g
           id="ASR-9006-FAN-V2g52"><circle
             class="ASR-9006-FAN-V2st4"
             cx="134.78"
             cy="330.86"
             r="22.49"
             id="ASR-9006-FAN-V2circle48"
             style="fill:#ccc" /><path
             class="ASR-9006-FAN-V2st3"
             d="M134.78 308.89c12.12 0 21.98 9.86 21.98 21.98 0 12.12-9.86 21.98-21.98 21.98-12.12 0-21.98-9.86-21.98-21.98 0-12.12 9.86-21.98 21.98-21.98m0-1.03c-12.7 0-23 10.3-23 23s10.3 23 23 23 23-10.3 23-23-10.3-23-23-23z"
             id="ASR-9006-FAN-V2path50"
             style="fill:gray" /></g><g
           id="ASR-9006-FAN-V2g66"><g
             id="ASR-9006-FAN-V2g58"><circle
               class="ASR-9006-FAN-V2st0"
               cx="134.78"
               cy="330.86"
               r="16.5"
               id="ASR-9006-FAN-V2circle54"
               style="fill:#b3b3b3" /><path
               class="ASR-9006-FAN-V2st6"
               d="M134.78 314.86c8.82 0 16 7.18 16 16s-7.18 16-16 16-16-7.18-16-16 7.18-16 16-16m0-1c-9.39 0-17 7.61-17 17s7.61 17 17 17 17-7.61 17-17c0-9.38-7.61-17-17-17z"
               id="ASR-9006-FAN-V2path56"
               style="fill:#595959" /></g><g
             id="ASR-9006-FAN-V2g64"><circle
               class="ASR-9006-FAN-V2st7"
               cx="134.78"
               cy="330.86"
               r="7.49"
               id="ASR-9006-FAN-V2circle60"
               style="fill:#333" /><path
               class="ASR-9006-FAN-V2st3"
               d="M134.78 323.88c3.85 0 6.98 3.13 6.98 6.98 0 3.85-3.13 6.98-6.98 6.98-3.85 0-6.98-3.13-6.98-6.98 0-3.85 3.13-6.98 6.98-6.98m0-1.02c-4.42 0-8 3.58-8 8s3.58 8 8 8 8-3.58 8-8-3.58-8-8-8z"
               id="ASR-9006-FAN-V2path62"
               style="fill:gray" /></g></g></g><g
         id="ASR-9006-FAN-V2g158"><g
           id="ASR-9006-FAN-V2g90"><g
             id="ASR-9006-FAN-V2g74"><circle
               class="ASR-9006-FAN-V2st4"
               cx="470"
               cy="637"
               r="22.49"
               id="ASR-9006-FAN-V2circle70"
               style="fill:#ccc" /><path
               class="ASR-9006-FAN-V2st3"
               d="M470 615.02c12.12 0 21.98 9.86 21.98 21.98 0 12.12-9.86 21.98-21.98 21.98-12.12 0-21.98-9.86-21.98-21.98 0-12.12 9.86-21.98 21.98-21.98m0-1.02c-12.7 0-23 10.3-23 23s10.3 23 23 23 23-10.3 23-23-10.3-23-23-23z"
               id="ASR-9006-FAN-V2path72"
               style="fill:gray" /></g><g
             id="ASR-9006-FAN-V2g88"><g
               id="ASR-9006-FAN-V2g80"><circle
                 class="ASR-9006-FAN-V2st0"
                 cx="470"
                 cy="637"
                 r="16.5"
                 id="ASR-9006-FAN-V2circle76"
                 style="fill:#b3b3b3" /><path
                 class="ASR-9006-FAN-V2st6"
                 d="M470 621c8.82 0 16 7.18 16 16s-7.18 16-16 16-16-7.18-16-16 7.18-16 16-16m0-1c-9.39 0-17 7.61-17 17s7.61 17 17 17 17-7.61 17-17-7.61-17-17-17z"
                 id="ASR-9006-FAN-V2path78"
                 style="fill:#595959" /></g><g
               id="ASR-9006-FAN-V2g86"><circle
                 class="ASR-9006-FAN-V2st7"
                 cx="470"
                 cy="637"
                 r="7.49"
                 id="ASR-9006-FAN-V2circle82"
                 style="fill:#333" /><path
                 class="ASR-9006-FAN-V2st3"
                 d="M470 630.02c3.85 0 6.98 3.13 6.98 6.98 0 3.85-3.13 6.98-6.98 6.98-3.85 0-6.98-3.13-6.98-6.98 0-3.85 3.13-6.98 6.98-6.98m0-1.02c-4.42 0-8 3.58-8 8s3.58 8 8 8 8-3.58 8-8-3.58-8-8-8z"
                 id="ASR-9006-FAN-V2path84"
                 style="fill:gray" /></g></g></g><g
           id="ASR-9006-FAN-V2g112"><g
             id="ASR-9006-FAN-V2g96"><circle
               class="ASR-9006-FAN-V2st4"
               cx="127.78"
               cy="636.87"
               r="22.49"
               id="ASR-9006-FAN-V2circle92"
               style="fill:#ccc" /><path
               class="ASR-9006-FAN-V2st3"
               d="M127.78 614.89c12.12 0 21.98 9.86 21.98 21.98 0 12.12-9.86 21.98-21.98 21.98-12.12 0-21.98-9.86-21.98-21.98 0-12.12 9.86-21.98 21.98-21.98m0-1.03c-12.7 0-23 10.3-23 23s10.3 23 23 23 23-10.3 23-23-10.3-23-23-23z"
               id="ASR-9006-FAN-V2path94"
               style="fill:gray" /></g><g
             id="ASR-9006-FAN-V2g110"><g
               id="ASR-9006-FAN-V2g102"><circle
                 class="ASR-9006-FAN-V2st0"
                 cx="127.78"
                 cy="636.87"
                 r="16.5"
                 id="ASR-9006-FAN-V2circle98"
                 style="fill:#b3b3b3" /><path
                 class="ASR-9006-FAN-V2st6"
                 d="M127.78 620.86c8.82 0 16 7.18 16 16s-7.18 16-16 16-16-7.18-16-16 7.18-16 16-16m0-1c-9.39 0-17 7.61-17 17s7.61 17 17 17 17-7.61 17-17-7.61-17-17-17z"
                 id="ASR-9006-FAN-V2path100"
                 style="fill:#595959" /></g><g
               id="ASR-9006-FAN-V2g108"><circle
                 class="ASR-9006-FAN-V2st7"
                 cx="127.78"
                 cy="636.87"
                 r="7.49"
                 id="ASR-9006-FAN-V2circle104"
                 style="fill:#333" /><path
                 class="ASR-9006-FAN-V2st3"
                 d="M127.78 629.88c3.85 0 6.98 3.13 6.98 6.98 0 3.85-3.13 6.98-6.98 6.98-3.85 0-6.98-3.13-6.98-6.98 0-3.85 3.13-6.98 6.98-6.98m0-1.02c-4.42 0-8 3.58-8 8s3.58 8 8 8 8-3.58 8-8-3.58-8-8-8z"
                 id="ASR-9006-FAN-V2path106"
                 style="fill:gray" /></g></g></g><g
           id="ASR-9006-FAN-V2g134"><g
             id="ASR-9006-FAN-V2g118"><circle
               class="ASR-9006-FAN-V2st4"
               cx="470"
               cy="93"
               r="22.49"
               id="ASR-9006-FAN-V2circle114"
               style="fill:#ccc" /><path
               class="ASR-9006-FAN-V2st3"
               d="M470 71.02c12.12 0 21.98 9.86 21.98 21.98 0 12.12-9.86 21.98-21.98 21.98-12.12 0-21.98-9.86-21.98-21.98 0-12.12 9.86-21.98 21.98-21.98m0-1.02c-12.7 0-23 10.3-23 23s10.3 23 23 23 23-10.3 23-23-10.3-23-23-23z"
               id="ASR-9006-FAN-V2path116"
               style="fill:gray" /></g><g
             id="ASR-9006-FAN-V2g132"><g
               id="ASR-9006-FAN-V2g124"><circle
                 class="ASR-9006-FAN-V2st0"
                 cx="470"
                 cy="93"
                 r="16.5"
                 id="ASR-9006-FAN-V2circle120"
                 style="fill:#b3b3b3" /><path
                 class="ASR-9006-FAN-V2st6"
                 d="M470 77c8.82 0 16 7.18 16 16s-7.18 16-16 16-16-7.18-16-16 7.18-16 16-16m0-1c-9.39 0-17 7.61-17 17s7.61 17 17 17 17-7.61 17-17-7.61-17-17-17z"
                 id="ASR-9006-FAN-V2path122"
                 style="fill:#595959" /></g><g
               id="ASR-9006-FAN-V2g130"><circle
                 class="ASR-9006-FAN-V2st7"
                 cx="470"
                 cy="93"
                 r="7.49"
                 id="ASR-9006-FAN-V2circle126"
                 style="fill:#333" /><path
                 class="ASR-9006-FAN-V2st3"
                 d="M470 86.02c3.85 0 6.98 3.13 6.98 6.98 0 3.85-3.13 6.98-6.98 6.98-3.85 0-6.98-3.13-6.98-6.98 0-3.85 3.13-6.98 6.98-6.98m0-1.02c-4.42 0-8 3.58-8 8s3.58 8 8 8 8-3.58 8-8-3.58-8-8-8z"
                 id="ASR-9006-FAN-V2path128"
                 style="fill:gray" /></g></g></g><g
           id="ASR-9006-FAN-V2g156"><g
             id="ASR-9006-FAN-V2g140"><circle
               class="ASR-9006-FAN-V2st4"
               cx="127.78"
               cy="92.86"
               r="22.49"
               id="ASR-9006-FAN-V2circle136"
               style="fill:#ccc" /><path
               class="ASR-9006-FAN-V2st3"
               d="M127.78 70.89c12.12 0 21.98 9.86 21.98 21.98 0 12.12-9.86 21.98-21.98 21.98-12.12 0-21.98-9.86-21.98-21.98 0-12.12 9.86-21.98 21.98-21.98m0-1.03c-12.7 0-23 10.3-23 23s10.3 23 23 23 23-10.3 23-23-10.3-23-23-23z"
               id="ASR-9006-FAN-V2path138"
               style="fill:gray" /></g><g
             id="ASR-9006-FAN-V2g154"><g
               id="ASR-9006-FAN-V2g146"><circle
                 class="ASR-9006-FAN-V2st0"
                 cx="127.78"
                 cy="92.86"
                 r="16.5"
                 id="ASR-9006-FAN-V2circle142"
                 style="fill:#b3b3b3" /><path
                 class="ASR-9006-FAN-V2st6"
                 d="M127.78 76.86c8.82 0 16 7.18 16 16s-7.18 16-16 16-16-7.18-16-16 7.18-16 16-16m0-1c-9.39 0-17 7.61-17 17s7.61 17 17 17 17-7.61 17-17-7.61-17-17-17z"
                 id="ASR-9006-FAN-V2path144"
                 style="fill:#595959" /></g><g
               id="ASR-9006-FAN-V2g152"><circle
                 class="ASR-9006-FAN-V2st7"
                 cx="127.78"
                 cy="92.86"
                 r="7.49"
                 id="ASR-9006-FAN-V2circle148"
                 style="fill:#333" /><path
                 class="ASR-9006-FAN-V2st3"
                 d="M127.78 85.88c3.85 0 6.98 3.13 6.98 6.98 0 3.85-3.13 6.98-6.98 6.98-3.85 0-6.98-3.13-6.98-6.98 0-3.85 3.13-6.98 6.98-6.98m0-1.02c-4.42 0-8 3.58-8 8s3.58 8 8 8 8-3.58 8-8c0-4.41-3.58-8-8-8z"
                 id="ASR-9006-FAN-V2path150"
                 style="fill:gray" /></g></g></g></g></g><g
       id="ASR-9006-FAN-V2g190"><g
         id="ASR-9006-FAN-V2g166"><circle
           class="ASR-9006-FAN-V2st8"
           cx="509.56"
           cy="367.56"
           r="44.5"
           id="ASR-9006-FAN-V2circle162"
           style="clip-rule:evenodd;fill:#999;fill-rule:evenodd" /><path
           class="ASR-9006-FAN-V2st1"
           d="M509.56 323.56c24.26 0 44 19.74 44 44s-19.74 44-44 44-44-19.74-44-44 19.74-44 44-44m0-1c-24.85 0-45 20.15-45 45s20.15 45 45 45 45-20.15 45-45-20.15-45-45-45z"
           id="ASR-9006-FAN-V2path164"
           style="fill:#666" /></g><g
         id="ASR-9006-FAN-V2g172"><circle
           cx="509.56"
           cy="367.56"
           r="36.5"
           id="ASR-9006-FAN-V2circle168"
           style="clip-rule:evenodd;fill:#d9d9d9;fill-rule:evenodd" /><path
           class="ASR-9006-FAN-V2st4"
           d="M509.56 331.56c19.85 0 36 16.15 36 36s-16.15 36-36 36-36-16.15-36-36 16.15-36 36-36m0-1c-20.43 0-37 16.57-37 37s16.57 37 37 37 37-16.57 37-37-16.57-37-37-37z"
           id="ASR-9006-FAN-V2path170"
           style="fill:#ccc" /></g><g
         id="ASR-9006-FAN-V2g178"><path
           class="ASR-9006-FAN-V2st8"
           d="M509.56 398.06c-8.16 0-15.82-3.17-21.58-8.92-11.9-11.9-11.9-31.26 0-43.15 5.75-5.75 13.42-8.92 21.58-8.92 8.16 0 15.82 3.17 21.58 8.92 5.76 5.75 8.92 13.42 8.92 21.58 0 8.16-3.17 15.82-8.92 21.58-5.75 5.76-13.42 8.91-21.58 8.91z"
           id="ASR-9006-FAN-V2path174"
           style="clip-rule:evenodd;fill:#999;fill-rule:evenodd" /><path
           class="ASR-9006-FAN-V2st10"
           d="M509.56 337.56c8.03 0 15.56 3.12 21.22 8.78 11.7 11.7 11.7 30.74 0 42.45-5.66 5.66-13.2 8.78-21.22 8.78-8.03 0-15.56-3.12-21.22-8.78-11.7-11.7-11.7-30.74 0-42.45 5.65-5.67 13.19-8.78 21.22-8.78m0-1c-7.94 0-15.88 3.02-21.93 9.07-12.09 12.09-12.09 31.77 0 43.86 6.05 6.05 13.99 9.07 21.93 9.07 7.94 0 15.88-3.02 21.93-9.07 12.09-12.09 12.09-31.77 0-43.86-6.05-6.05-13.99-9.07-21.93-9.07z"
           id="ASR-9006-FAN-V2path176"
           style="fill:#4d4d4d" /></g><g
         id="ASR-9006-FAN-V2g188"><g
           id="ASR-9006-FAN-V2g184"><path
             d="M509.56 395.06c-7.35 0-14.25-2.86-19.45-8.05-10.72-10.72-10.72-28.17 0-38.89 5.19-5.19 12.1-8.05 19.45-8.05s14.25 2.86 19.45 8.05c5.2 5.19 8.05 12.1 8.05 19.45s-2.86 14.25-8.05 19.45c-5.19 5.2-12.11 8.04-19.45 8.04z"
             id="ASR-9006-FAN-V2path180"
             style="clip-rule:evenodd;fill:#b3b3b3;fill-rule:evenodd" /><path
             class="ASR-9006-FAN-V2st10"
             d="M509.56 340.56c7.21 0 13.99 2.81 19.09 7.91s7.91 11.88 7.91 19.09c0 7.21-2.81 13.99-7.91 19.09s-11.88 7.91-19.09 7.91c-7.21 0-13.99-2.81-19.09-7.91s-7.91-11.88-7.91-19.09c0-7.21 2.81-13.99 7.91-19.09s11.88-7.91 19.09-7.91m0-1c-7.17 0-14.33 2.73-19.8 8.2-10.93 10.93-10.93 28.66 0 39.6 5.47 5.47 12.63 8.2 19.8 8.2s14.33-2.73 19.8-8.2c10.93-10.93 10.93-28.66 0-39.6-5.47-5.47-12.64-8.2-19.8-8.2z"
             id="ASR-9006-FAN-V2path182"
             style="fill:#4d4d4d" /></g><path
           class="ASR-9006-FAN-V2st10"
           id="ASR-9006-FAN-V2polygon186"
           style="fill:#4d4d4d"
           d="M505.36 363.36h-14v8.4h14v14h8.4v-14h14v-8.4h-14v-14h-8.4z" /></g></g><g
       id="ASR-9006-FAN-V2g222"><g
         id="ASR-9006-FAN-V2g196"><circle
           class="ASR-9006-FAN-V2st12"
           cx="504.78"
           cy="485.87"
           r="21.25"
           id="ASR-9006-FAN-V2circle192"
           style="clip-rule:evenodd;fill:#ccc;fill-rule:evenodd" /><path
           class="ASR-9006-FAN-V2st1"
           d="M504.78 464.86c11.58 0 21 9.42 21 21s-9.42 21-21 21-21-9.42-21-21c0-11.57 9.42-21 21-21m0-.5c-11.87 0-21.5 9.63-21.5 21.5s9.63 21.5 21.5 21.5 21.5-9.63 21.5-21.5-9.63-21.5-21.5-21.5z"
           id="ASR-9006-FAN-V2path194"
           style="fill:#666" /></g><g
         id="ASR-9006-FAN-V2g202"><circle
           class="ASR-9006-FAN-V2st8"
           cx="504.78"
           cy="485.87"
           r="13.75"
           id="ASR-9006-FAN-V2circle198"
           style="clip-rule:evenodd;fill:#999;fill-rule:evenodd" /><path
           class="ASR-9006-FAN-V2st1"
           d="M504.78 472.36c7.44 0 13.5 6.06 13.5 13.5s-6.06 13.5-13.5 13.5-13.5-6.06-13.5-13.5 6.06-13.5 13.5-13.5m0-.5c-7.73 0-14 6.27-14 14s6.27 14 14 14 14-6.27 14-14-6.27-14-14-14z"
           id="ASR-9006-FAN-V2path200"
           style="fill:#666" /></g><g
         id="ASR-9006-FAN-V2g208"><circle
           class="ASR-9006-FAN-V2st13"
           cx="504.78"
           cy="485.87"
           r="12.25"
           id="ASR-9006-FAN-V2circle204"
           style="clip-rule:evenodd;fill:#666;fill-rule:evenodd" /><path
           class="ASR-9006-FAN-V2st2"
           d="M504.78 473.86c6.62 0 12 5.38 12 12s-5.38 12-12 12-12-5.38-12-12 5.38-12 12-12m0-.5c-6.9 0-12.5 5.6-12.5 12.5s5.6 12.5 12.5 12.5 12.5-5.6 12.5-12.5-5.6-12.5-12.5-12.5z"
           id="ASR-9006-FAN-V2path206"
           style="fill:#999" /></g><g
         id="ASR-9006-FAN-V2g214"><circle
           class="ASR-9006-FAN-V2st13"
           cx="504.78"
           cy="485.87"
           r="3.75"
           id="ASR-9006-FAN-V2circle210"
           style="clip-rule:evenodd;fill:#666;fill-rule:evenodd" /><path
           class="ASR-9006-FAN-V2st2"
           d="M504.78 482.36c1.93 0 3.5 1.57 3.5 3.5s-1.57 3.5-3.5 3.5-3.5-1.57-3.5-3.5 1.57-3.5 3.5-3.5m0-.5c-2.21 0-4 1.79-4 4s1.79 4 4 4 4-1.79 4-4-1.79-4-4-4z"
           id="ASR-9006-FAN-V2path212"
           style="fill:#999" /></g><g
         id="ASR-9006-FAN-V2g220"><circle
           class="ASR-9006-FAN-V2st13"
           cx="504.78"
           cy="485.87"
           r="1.75"
           id="ASR-9006-FAN-V2circle216"
           style="clip-rule:evenodd;fill:#666;fill-rule:evenodd" /><path
           class="ASR-9006-FAN-V2st2"
           d="M504.78 484.36c.83 0 1.5.67 1.5 1.5s-.67 1.5-1.5 1.5-1.5-.67-1.5-1.5.67-1.5 1.5-1.5m0-.5c-1.1 0-2 .9-2 2s.9 2 2 2 2-.9 2-2-.9-2-2-2z"
           id="ASR-9006-FAN-V2path218"
           style="fill:#999" /></g></g><g
       id="ASR-9006-FAN-V2g228"><path
         class="ASR-9006-FAN-V2st14"
         d="M355.78 517c-17.17 0-31.73 11.09-36.94 26.5h40.44c6.9 0 12.5 5.6 12.5 12.5s-5.6 12.5-12.5 12.5h-40.44c5.21 15.41 19.78 26.5 36.94 26.5 21.54 0 39-17.46 39-39s-17.46-39-39-39z"
         id="ASR-9006-FAN-V2path224"
         style="clip-rule:evenodd;fill:#e6e6e6;fill-rule:evenodd;stroke:gray;stroke-miterlimit:10" /><path
         class="ASR-9006-FAN-V2st12"
         d="M355.78 519c-16.05 0-29.7 10.22-34.83 24.5h38.33c6.9 0 12.5 5.6 12.5 12.5s-5.6 12.5-12.5 12.5h-38.33c5.13 14.28 18.78 24.5 34.83 24.5 20.43 0 37-16.57 37-37s-16.57-37-37-37z"
         id="ASR-9006-FAN-V2path226"
         style="clip-rule:evenodd;fill:#ccc;fill-rule:evenodd" /></g><g
       id="ASR-9006-FAN-V2g234"><path
         class="ASR-9006-FAN-V2st14"
         d="M355.78 84c-17.17 0-31.73 11.09-36.94 26.5h40.44c6.9 0 12.5 5.6 12.5 12.5s-5.6 12.5-12.5 12.5h-40.44c5.21 15.41 19.78 26.5 36.94 26.5 21.54 0 39-17.46 39-39s-17.46-39-39-39z"
         id="ASR-9006-FAN-V2path230"
         style="clip-rule:evenodd;fill:#e6e6e6;fill-rule:evenodd;stroke:gray;stroke-miterlimit:10" /><path
         class="ASR-9006-FAN-V2st12"
         d="M355.78 86c-16.05 0-29.7 10.22-34.83 24.5h38.33c6.9 0 12.5 5.6 12.5 12.5s-5.6 12.5-12.5 12.5h-38.33c5.13 14.28 18.78 24.5 34.83 24.5 20.43 0 37-16.57 37-37s-16.57-37-37-37z"
         id="ASR-9006-FAN-V2path232"
         style="clip-rule:evenodd;fill:#ccc;fill-rule:evenodd" /></g><g
       id="ASR-9006-FAN-V2g240"><path
         d="M193.78 574.37c-41.63 0-75.5-33.87-75.5-75.5v-319.5c0-41.63 33.87-75.5 75.5-75.5h112a2.5 2.5 0 0 1 2.5 2.5v5c0 1.93 1.57 3.5 3.5 3.5h50c3.03 0 5.5 2.47 5.5 5.5v6c0 3.03-2.47 5.5-5.5 5.5h-50c-1.93 0-3.5 1.57-3.5 3.5v5a2.5 2.5 0 0 1-2.5 2.5h-112c-20.13 0-36.5 16.37-36.5 36.5v319.5c0 20.13 16.37 36.5 36.5 36.5h112a2.5 2.5 0 0 1 2.5 2.5v6c0 1.93 1.57 3.5 3.5 3.5h50c3.03 0 5.5 2.47 5.5 5.5v6c0 3.03-2.47 5.5-5.5 5.5h-50c-1.93 0-3.5 1.57-3.5 3.5v4a2.5 2.5 0 0 1-2.5 2.5z"
         id="ASR-9006-FAN-V2path236"
         style="clip-rule:evenodd;fill:#e6e6e6;fill-rule:evenodd" /><path
         class="ASR-9006-FAN-V2st3"
         d="M305.78 104.36c1.1 0 2 .9 2 2v5c0 2.21 1.79 4 4 4h50c2.76 0 5 2.24 5 5v6c0 2.76-2.24 5-5 5h-50c-2.21 0-4 1.79-4 4v5c0 1.1-.9 2-2 2h-112c-20.4 0-37 16.6-37 37v319.5c0 20.4 16.6 37 37 37h112c1.1 0 2 .9 2 2v6c0 2.21 1.79 4 4 4h50c2.76 0 5 2.24 5 5v6c0 2.76-2.24 5-5 5h-50c-2.21 0-4 1.79-4 4v4c0 1.1-.9 2-2 2h-112c-41.36 0-75-33.64-75-75v-319.5c0-41.36 33.64-75 75-75h112m0-1h-112c-41.97 0-76 34.03-76 76v319.5c0 41.97 34.03 76 76 76h112c1.66 0 3-1.34 3-3v-4c0-1.66 1.34-3 3-3h50c3.31 0 6-2.69 6-6v-6c0-3.31-2.69-6-6-6h-50c-1.66 0-3-1.34-3-3v-6c0-1.66-1.34-3-3-3h-112c-19.88 0-36-16.12-36-36v-319.5c0-19.88 16.12-36 36-36h112c1.66 0 3-1.34 3-3v-5c0-1.66 1.34-3 3-3h50c3.31 0 6-2.69 6-6v-6c0-3.31-2.69-6-6-6h-50c-1.66 0-3-1.34-3-3v-5c0-1.65-1.34-3-3-3z"
         id="ASR-9006-FAN-V2path238"
         style="fill:gray" /></g><g
       id="ASR-9006-FAN-V2g290"><g
         id="ASR-9006-FAN-V2g246"><path
           class="ASR-9006-FAN-V2st0"
           d="M210.28 266.36v-36c0-.55.45-1 1-1s1 .45 1 1v33.5c0 .28.22.5.5.5h32.5c.55 0 1 .45 1 1s-.45 1-1 1z"
           id="ASR-9006-FAN-V2path242"
           style="fill:#b3b3b3" /><path
           class="ASR-9006-FAN-V2st1"
           d="M211.28 229.86c.28 0 .5.22.5.5v33.5c0 .55.45 1 1 1h32.5c.28 0 .5.22.5.5s-.22.5-.5.5h-34.5v-35.5c0-.27.22-.5.5-.5m0-1c-.83 0-1.5.67-1.5 1.5v36.5h35.5c.83 0 1.5-.67 1.5-1.5s-.67-1.5-1.5-1.5h-32.5v-33.5c0-.82-.67-1.5-1.5-1.5z"
           id="ASR-9006-FAN-V2path244"
           style="fill:#666" /></g><g
         id="ASR-9006-FAN-V2g252"><path
           class="ASR-9006-FAN-V2st0"
           d="M348.28 266.36c-.55 0-1-.45-1-1s.45-1 1-1h32.5c.28 0 .5-.22.5-.5v-33.5c0-.55.45-1 1-1s1 .45 1 1v36z"
           id="ASR-9006-FAN-V2path248"
           style="fill:#b3b3b3" /><path
           class="ASR-9006-FAN-V2st1"
           d="M382.28 229.86c.28 0 .5.22.5.5v35.5h-34.5c-.28 0-.5-.22-.5-.5s.22-.5.5-.5h32.5c.55 0 1-.45 1-1v-33.5c0-.27.22-.5.5-.5m0-1c-.83 0-1.5.67-1.5 1.5v33.5h-32.5c-.83 0-1.5.67-1.5 1.5s.67 1.5 1.5 1.5h35.5v-36.5c0-.82-.67-1.5-1.5-1.5z"
           id="ASR-9006-FAN-V2path250"
           style="fill:#666" /></g><g
         id="ASR-9006-FAN-V2g258"><path
           class="ASR-9006-FAN-V2st0"
           d="M187.28 477.37v-36c0-.55.45-1 1-1s1 .45 1 1v33.5c0 .28.22.5.5.5h32.5c.55 0 1 .45 1 1s-.45 1-1 1z"
           id="ASR-9006-FAN-V2path254"
           style="fill:#b3b3b3" /><path
           class="ASR-9006-FAN-V2st1"
           d="M188.28 440.86c.28 0 .5.22.5.5v33.5c0 .55.45 1 1 1h32.5c.28 0 .5.22.5.5s-.22.5-.5.5h-34.5v-35.5c0-.27.22-.5.5-.5m0-1c-.83 0-1.5.67-1.5 1.5v36.5h35.5c.83 0 1.5-.67 1.5-1.5s-.67-1.5-1.5-1.5h-32.5v-33.5c0-.82-.67-1.5-1.5-1.5z"
           id="ASR-9006-FAN-V2path256"
           style="fill:#666" /></g><g
         id="ASR-9006-FAN-V2g264"><path
           class="ASR-9006-FAN-V2st0"
           d="M348.28 477.37c-.55 0-1-.45-1-1s.45-1 1-1h32.5c.28 0 .5-.22.5-.5v-33.5c0-.55.45-1 1-1s1 .45 1 1v36z"
           id="ASR-9006-FAN-V2path260"
           style="fill:#b3b3b3" /><path
           class="ASR-9006-FAN-V2st1"
           d="M382.28 440.86c.28 0 .5.22.5.5v35.5h-34.5c-.28 0-.5-.22-.5-.5s.22-.5.5-.5h32.5c.55 0 1-.45 1-1v-33.5c0-.27.22-.5.5-.5m0-1c-.83 0-1.5.67-1.5 1.5v33.5h-32.5c-.83 0-1.5.67-1.5 1.5s.67 1.5 1.5 1.5h35.5v-36.5c0-.82-.67-1.5-1.5-1.5z"
           id="ASR-9006-FAN-V2path262"
           style="fill:#666" /></g><g
         id="ASR-9006-FAN-V2g270"><path
           class="ASR-9006-FAN-V2st0"
           d="M167.28 326.36v-36c0-.55.45-1 1-1s1 .45 1 1v33.5c0 .28.22.5.5.5h32.5c.55 0 1 .45 1 1s-.45 1-1 1z"
           id="ASR-9006-FAN-V2path266"
           style="fill:#b3b3b3" /><path
           class="ASR-9006-FAN-V2st1"
           d="M168.28 289.86c.28 0 .5.22.5.5v33.5c0 .55.45 1 1 1h32.5c.28 0 .5.22.5.5s-.22.5-.5.5h-34.5v-35.5c0-.27.22-.5.5-.5m0-1c-.83 0-1.5.67-1.5 1.5v36.5h35.5c.83 0 1.5-.67 1.5-1.5s-.67-1.5-1.5-1.5h-32.5v-33.5c0-.82-.67-1.5-1.5-1.5z"
           id="ASR-9006-FAN-V2path268"
           style="fill:#666" /></g><g
         id="ASR-9006-FAN-V2g276"><path
           class="ASR-9006-FAN-V2st0"
           d="M348.28 326.36c-.55 0-1-.45-1-1s.45-1 1-1h32.5c.28 0 .5-.22.5-.5v-33.5c0-.55.45-1 1-1s1 .45 1 1v36z"
           id="ASR-9006-FAN-V2path272"
           style="fill:#b3b3b3" /><path
           class="ASR-9006-FAN-V2st1"
           d="M382.28 289.86c.28 0 .5.22.5.5v35.5h-34.5c-.28 0-.5-.22-.5-.5s.22-.5.5-.5h32.5c.55 0 1-.45 1-1v-33.5c0-.27.22-.5.5-.5m0-1c-.83 0-1.5.67-1.5 1.5v33.5h-32.5c-.83 0-1.5.67-1.5 1.5s.67 1.5 1.5 1.5h35.5v-36.5c0-.82-.67-1.5-1.5-1.5z"
           id="ASR-9006-FAN-V2path274"
           style="fill:#666" /></g><g
         id="ASR-9006-FAN-V2g282"><path
           class="ASR-9006-FAN-V2st0"
           d="M167.28 394.37v-36c0-.55.45-1 1-1s1 .45 1 1v33.5c0 .28.22.5.5.5h32.5c.55 0 1 .45 1 1s-.45 1-1 1z"
           id="ASR-9006-FAN-V2path278"
           style="fill:#b3b3b3" /><path
           class="ASR-9006-FAN-V2st1"
           d="M168.28 357.86c.28 0 .5.22.5.5v33.5c0 .55.45 1 1 1h32.5c.28 0 .5.22.5.5s-.22.5-.5.5h-34.5v-35.5c0-.27.22-.5.5-.5m0-1c-.83 0-1.5.67-1.5 1.5v36.5h35.5c.83 0 1.5-.67 1.5-1.5s-.67-1.5-1.5-1.5h-32.5v-33.5c0-.82-.67-1.5-1.5-1.5z"
           id="ASR-9006-FAN-V2path280"
           style="fill:#666" /></g><g
         id="ASR-9006-FAN-V2g288"><path
           class="ASR-9006-FAN-V2st0"
           d="M348.28 394.37c-.55 0-1-.45-1-1s.45-1 1-1h32.5c.28 0 .5-.22.5-.5v-33.5c0-.55.45-1 1-1s1 .45 1 1v36z"
           id="ASR-9006-FAN-V2path284"
           style="fill:#b3b3b3" /><path
           class="ASR-9006-FAN-V2st1"
           d="M382.28 357.86c.28 0 .5.22.5.5v35.5h-34.5c-.28 0-.5-.22-.5-.5s.22-.5.5-.5h32.5c.55 0 1-.45 1-1v-33.5c0-.27.22-.5.5-.5m0-1c-.83 0-1.5.67-1.5 1.5v33.5h-32.5c-.83 0-1.5.67-1.5 1.5s.67 1.5 1.5 1.5h35.5v-36.5c0-.82-.67-1.5-1.5-1.5z"
           id="ASR-9006-FAN-V2path286"
           style="fill:#666" /></g></g></g><text
     xml:space="preserve"
     style="font-style:normal;font-weight:normal;font-size:40px;line-height:1.25;font-family:sans-serif;letter-spacing:0px;word-spacing:0px;fill:#000000;fill-opacity:1;stroke:none"
     x="262.14941"
     y="498.46658"
     id="text157"><tspan
       sodipodi:role="line"
       id="tspan155"
       x="262.14941"
       y="534.95978" /></text>
</svg>