<?xml version="1.0" encoding="UTF-8" standalone="no"?>
<svg
   xmlns:dc="http://purl.org/dc/elements/1.1/"
   xmlns:cc="http://creativecommons.org/ns#"
   xmlns:rdf="http://www.w3.org/1999/02/22-rdf-syntax-ns#"
   xmlns:svg="http://www.w3.org/2000/svg"
   xmlns="http://www.w3.org/2000/svg"
   xmlns:sodipodi="http://sodipodi.sourceforge.net/DTD/sodipodi-0.dtd"
   xmlns:inkscape="http://www.inkscape.org/namespaces/inkscape"
   xml:space="preserve"
   width="3445.5"
   height="3150.811"
   version="1.1"
   id="svg286"
   viewBox="0 0 3445.5 3150.8112"
   sodipodi:docname="ASR-9006-AC-Front.svg"
   inkscape:version="0.92.1 r15371"><metadata
     id="metadata292"><rdf:RDF><cc:Work
         rdf:about=""><dc:format>image/svg+xml</dc:format><dc:type
           rdf:resource="http://purl.org/dc/dcmitype/StillImage" /></cc:Work></rdf:RDF></metadata><defs
     id="defs290" /><sodipodi:namedview
     pagecolor="#ffffff"
     bordercolor="#666666"
     borderopacity="1"
     objecttolerance="10"
     gridtolerance="10"
     guidetolerance="10"
     inkscape:pageopacity="0"
     inkscape:pageshadow="2"
     inkscape:window-width="1920"
     inkscape:window-height="986"
     id="namedview288"
     showgrid="false"
     inkscape:zoom="0.24215986"
     inkscape:cx="1722.75"
     inkscape:cy="1575.4046"
     inkscape:window-x="-11"
     inkscape:window-y="-11"
     inkscape:window-maximized="1"
     inkscape:current-layer="svg286" /><path
     d="M174.1 778.8V429.3c1.5-22.5 22.5-40.5 46.5-39h21c12 1.5 24-6 25.5-16.5v-3c13.5-78 87-133.5 172.5-130.5h2559c90-1.5 166.5 57 174 141 0 4.5 4.5 9 10.5 9h40.5c22.5 0 40.5 15 42 36v3l4.5 334.5v15h-3096z"
     style="fill:#bfbfbf;stroke:#737373;stroke-miterlimit:10"
     id="path2" /><path
     d="M3211.5 484.4v2643c1.5 12 10.5 21 21 22.5h39c51 3 94.5-36 97.5-87V484.4h-157.5zM79 484.4v2575.5c-3 46.5 31.5 87 78 90h67.5c10.5 0 21-9 21-21v-1.5h0l-1.5-2643H79z"
     style="fill:#9f9f9f;stroke:#a6a6a6;stroke-width:1.5;stroke-linecap:round;stroke-linejoin:round;stroke-miterlimit:10"
     id="path4" /><path
     style="clip-rule:evenodd;fill-rule:evenodd"
     d="M148.5 740.4h3150v2409.5h-3150z"
     id="path6" /><path
     style="fill:none;stroke:#000;stroke-width:1.47809994;stroke-linecap:round;stroke-linejoin:round;stroke-miterlimit:10"
     d="M148.5 736.4v2413.5h3150V736.4z"
     id="path8" /><path
     style="clip-rule:evenodd;fill-rule:evenodd"
     d="M148.5 2716.4h3150v433.5h-3150z"
     id="path10" /><path
     style="fill:none;stroke:#000;stroke-width:1.5;stroke-linecap:round;stroke-linejoin:round;stroke-miterlimit:10"
     d="M148.5 2716.4v433.5h3150v-433.5z"
     id="path12" /><path
     style="clip-rule:evenodd;fill:#d9d9d9;fill-rule:evenodd"
     d="M2214 2719.4h9v337.5h-9z"
     id="path14" /><path
     style="fill:none;stroke:#000;stroke-width:1.5;stroke-linecap:round;stroke-linejoin:round;stroke-miterlimit:10"
     d="M2223 2719.4h-9 0v337.5h9z"
     id="path16" /><path
     style="clip-rule:evenodd;fill:#d9d9d9;fill-rule:evenodd"
     d="M1224 2719.4h9v337.5h-9z"
     id="path18" /><path
     style="fill:none;stroke:#000;stroke-width:1.5;stroke-linecap:round;stroke-linejoin:round;stroke-miterlimit:10"
     d="M1233 2719.4h-9 0v337.5h9z"
     id="path20" /><path
     style="clip-rule:evenodd;fill:#737373;fill-rule:evenodd"
     d="M3213 2725.4h73.5v325.5H3213z"
     id="path22" /><path
     style="fill:none;stroke:#000;stroke-width:1.5;stroke-linecap:round;stroke-linejoin:round;stroke-miterlimit:10"
     d="M3213 2725.4v325.5h73.5v-325.5z"
     id="path24" /><path
     style="clip-rule:evenodd;fill:#bfbfbf;fill-rule:evenodd"
     d="M3288 2731.4h9v315h-9z"
     id="path26" /><path
     style="fill:none;stroke:#000;stroke-width:1.5;stroke-linecap:round;stroke-linejoin:round;stroke-miterlimit:10"
     d="M3297 2731.4h-9 0v315h9z"
     id="path28" /><path
     style="clip-rule:evenodd;fill:#737373;fill-rule:evenodd"
     d="M157.5 2725.4H231v325.5h-73.5z"
     id="path30" /><path
     style="fill:none;stroke:#000;stroke-width:1.5;stroke-linecap:round;stroke-linejoin:round;stroke-miterlimit:10"
     d="M231 2725.4v325.5h0-73.5v-325.5z"
     id="path32" /><path
     style="clip-rule:evenodd;fill:#bfbfbf;fill-rule:evenodd"
     d="M148.5 2731.4h9v315h-9z"
     id="path34" /><path
     style="fill:none;stroke:#000;stroke-width:1.5;stroke-linecap:round;stroke-linejoin:round;stroke-miterlimit:10"
     d="M148.5 2731.4h9v315h-9z"
     id="path36" /><path
     d="M3157.5 3146.9H294c-6 0-10.5-4.5-10.5-10.5v-63c0-6 4.5-10.5 10.5-10.5h2863.5c6 0 10.5 4.5 10.5 10.5v63c0 6-4.5 10.5-10.5 10.5z"
     style="clip-rule:evenodd;fill:#737373;fill-rule:evenodd"
     id="path38" /><path
     d="M3157.5 3146.9H294c-6 0-10.5-4.5-10.5-10.5h0v-63c0-6 4.5-10.5 10.5-10.5h2863.5c6 0 10.5 4.5 10.5 10.5v63c0 6-4.5 10.5-10.5 10.5h0z"
     style="fill:none;stroke:#000;stroke-width:1.5;stroke-linecap:round;stroke-linejoin:round;stroke-miterlimit:10"
     id="path40" /><path
     style="clip-rule:evenodd;fill:#bfbfbf;fill-rule:evenodd"
     d="M151.5 3068.9H438v13.5H151.5z"
     id="path42" /><path
     style="fill:none;stroke:#000;stroke-width:1.5;stroke-linecap:round;stroke-linejoin:round;stroke-miterlimit:10"
     d="M438 3068.9v13.5h0-286.5v-13.5z"
     id="path44" /><path
     d="M393 3142.4h-90c-6 0-12-4.5-12-10.5v-37.5c0-6 6-10.5 12-10.5h90c6 0 10.5 4.5 10.5 10.5v37.5c0 6-4.5 10.5-10.5 10.5z"
     style="clip-rule:evenodd;fill:#bfbfbf;fill-rule:evenodd"
     id="path46" /><path
     d="M393 3142.4h-90c-6 0-12-4.5-12-10.5h0v-37.5c0-6 6-10.5 12-10.5h90c6 0 10.5 4.5 10.5 10.5v37.5c0 6-4.5 10.5-10.5 10.5h0z"
     style="fill:none;stroke:#000;stroke-width:1.5;stroke-linecap:round;stroke-linejoin:round;stroke-miterlimit:10"
     id="path48" /><path
     d="M573 3149.9H448.5c-6 0-10.5-4.5-10.5-12v-52.5h145.5v52.5c0 7.5-4.5 12-10.5 12z"
     style="clip-rule:evenodd;fill:#bfbfbf;fill-rule:evenodd"
     id="path50" /><path
     d="M573 3149.9H448.5c-6 0-10.5-4.5-10.5-12h0v-52.5m145.5 0v52.5c0 7.5-4.5 12-10.5 12"
     style="fill:none;stroke:#000;stroke-width:1.5;stroke-linecap:round;stroke-linejoin:round;stroke-miterlimit:10"
     id="path52" /><path
     style="fill:none;stroke:#000;stroke-width:1.5;stroke-linecap:round;stroke-linejoin:round;stroke-miterlimit:10"
     d="M438 3091.4v-22.5h145.5v22.5"
     id="path54" /><path
     d="M319.5 3091.4H348l13.5 24-13.5 24h-28.5l-13.5-24 13.5-24h0zm37.5 24c0-13.5-10.5-24-24-24-12 0-22.5 10.5-22.5 24h0c0 12 10.5 22.5 22.5 22.5 13.5 0 24-10.5 24-22.5h0zm0 0c0 12-10.5 22.5-24 22.5-12 0-22.5-10.5-22.5-22.5h0c0-13.5 10.5-24 22.5-24 13.5 0 24 10.5 24 24h0z"
     style="fill:none;stroke:#000;stroke-width:1.25;stroke-linecap:round;stroke-linejoin:round;stroke-miterlimit:10"
     id="path56" /><path
     style="fill:none;stroke:#737373;stroke-width:1.5;stroke-linecap:round;stroke-linejoin:round;stroke-miterlimit:10"
     d="M337.5 3100.4v28.5h0-7.5v-28.5zM343.5 3118.4h-6m-7.5 0h-6v-6h6m7.5 0h6v6"
     id="path58" /><path
     style="clip-rule:evenodd;fill:#bfbfbf;fill-rule:evenodd"
     d="M3010.5 3068.9h288v13.5h-288z"
     id="path60" /><path
     style="fill:none;stroke:#000;stroke-width:1.5;stroke-linecap:round;stroke-linejoin:round;stroke-miterlimit:10"
     d="M3010.5 3068.9v13.5h288v-13.5z"
     id="path62" /><path
     d="M3055.5 3142.4h90c7.5 0 12-4.5 12-10.5v-37.5c0-6-4.5-10.5-12-10.5h-90c-6 0-10.5 4.5-10.5 10.5v37.5c0 6 4.5 10.5 10.5 10.5z"
     style="clip-rule:evenodd;fill:#bfbfbf;fill-rule:evenodd"
     id="path64" /><path
     d="M3055.5 3142.4h90c7.5 0 12-4.5 12-10.5h0v-37.5c0-6-4.5-10.5-12-10.5h-90c-6 0-10.5 4.5-10.5 10.5v37.5c0 6 4.5 10.5 10.5 10.5h0z"
     style="fill:none;stroke:#000;stroke-width:1.5;stroke-linecap:round;stroke-linejoin:round;stroke-miterlimit:10"
     id="path66" /><path
     d="M2875.5 3149.9H3000c6 0 10.5-4.5 10.5-12v-52.5H2865v52.5c0 7.5 4.5 12 10.5 12z"
     style="clip-rule:evenodd;fill:#bfbfbf;fill-rule:evenodd"
     id="path68" /><path
     d="M2875.5 3149.9H3000c6 0 10.5-4.5 10.5-12h0v-52.5m-145.5 0v52.5c0 7.5 4.5 12 10.5 12"
     style="fill:none;stroke:#000;stroke-width:1.5;stroke-linecap:round;stroke-linejoin:round;stroke-miterlimit:10"
     id="path70" /><path
     style="fill:none;stroke:#000;stroke-width:1.5;stroke-linecap:round;stroke-linejoin:round;stroke-miterlimit:10"
     d="M3010.5 3091.4v-22.5H2865v22.5M3129 3091.4h-28.5l-13.5 24 13.5 24h28.5l15-24-15-24h0zm-37.5 24c0-13.5 10.5-24 24-24 12 0 22.5 10.5 22.5 24h0c0 12-10.5 22.5-22.5 22.5-13.5 0-24-10.5-24-22.5h0zm0 0c0 12 10.5 22.5 24 22.5 12 0 22.5-10.5 22.5-22.5h0c0-13.5-10.5-24-22.5-24-13.5 0-24 10.5-24 24h0z"
     id="path72" /><path
     style="fill:none;stroke:#737373;stroke-width:1.5;stroke-linecap:round;stroke-linejoin:round;stroke-miterlimit:10"
     d="M3111 3100.4v28.5h9v-28.5zM3105 3118.4h6m9 0h4.5v-6h-4.5m-9 0h-6v6"
     id="path74" /><path
     style="clip-rule:evenodd;fill:#737373;fill-rule:evenodd"
     d="M220.5 1496.9H255v765h-34.5z"
     id="path76" /><path
     style="fill:none;stroke:#000;stroke-width:1.5;stroke-linecap:round;stroke-linejoin:round;stroke-miterlimit:10"
     d="M220.5 1496.9v763.5H255v-763.5z"
     id="path78" /><path
     style="clip-rule:evenodd;fill:#d9d9d9;fill-rule:evenodd"
     d="M435 742.4h118.5v1956H435z"
     id="path80" /><path
     d="M435 742.4v1956h118.5m0-1956H435"
     style="fill:none;stroke:#a6a6a6;stroke-width:1.5;stroke-linecap:round;stroke-linejoin:round;stroke-miterlimit:10"
     id="path82" /><path
     style="fill:none;stroke:#a6a6a6;stroke-width:1.5;stroke-linecap:round;stroke-linejoin:round;stroke-miterlimit:10"
     d="M547.5 2698.4H570v-1956h-22.5"
     id="path84" /><path
     style="clip-rule:evenodd;fill:#d9d9d9;fill-rule:evenodd"
     d="M216 742.4h183v1956H216z"
     id="path86" /><path
     d="M216 742.4v1956h183m0-1956H216"
     style="fill:none;stroke:#a6a6a6;stroke-width:1.5;stroke-linecap:round;stroke-linejoin:round;stroke-miterlimit:10"
     id="path88" /><path
     style="fill:none;stroke:#a6a6a6;stroke-width:1.5;stroke-linecap:round;stroke-linejoin:round;stroke-miterlimit:10"
     d="M390 2698.4h34.5v-1956H390"
     id="path90" /><path
     style="clip-rule:evenodd;fill:#969696;fill-rule:evenodd"
     d="M295.5 2398.4h36l16.5-31.5-16.5-30h-36l-16.5 30z"
     id="path92" /><path
     style="fill:none;stroke:#000;stroke-width:1.5;stroke-linecap:round;stroke-linejoin:round;stroke-miterlimit:10"
     d="M295.5 2398.4h36l16.5-31.5-16.5-30h0-36l-16.5 30z"
     id="path94" /><path
     d="M327 2366.9c0-7.5-6-13.5-13.5-13.5s-13.5 6-13.5 13.5 6 15 13.5 15 13.5-7.5 13.5-15z"
     style="clip-rule:evenodd;fill-rule:evenodd"
     id="path96" /><path
     d="M327 2366.9c0-7.5-6-13.5-13.5-13.5s-13.5 6-13.5 13.5 6 15 13.5 15 13.5-7.5 13.5-15h0z"
     style="fill:none;stroke:#000;stroke-width:1.5;stroke-linecap:round;stroke-linejoin:round;stroke-miterlimit:10"
     id="path98" /><path
     d="m306 2315.9 4.5-1.5c0 1.5 0 3 1.5 3 0 1.5 1.5 1.5 3 1.5h3c0-1.5 1.5-1.5 1.5-3 0 0-1.5 0-1.5-1.5h-1.5s-1.5-1.5-3-1.5c-3 0-4.5-1.5-4.5-1.5-1.5-1.5-3-3-3-4.5s1.5-3 1.5-3c0-1.5 1.5-1.5 3-3h4.5c1.5 0 4.5 0 6 1.5s1.5 3 1.5 4.5H318c0-1.5 0-1.5-1.5-1.5 0-1.5-1.5-1.5-1.5-1.5-1.5 0-3 0-3 1.5-1.5 0-1.5 0-1.5 1.5h1.5c0 1.5 1.5 1.5 3 1.5 3 1.5 4.5 1.5 4.5 1.5 1.5 1.5 3 1.5 3 3v6c-1.5 1.5-1.5 3-3 3s-3 1.5-4.5 1.5c-3 0-4.5-1.5-6-3s-3-3-3-4.5zM288 2306.9l-9 6 1.5 4.5 10.5-6 1.5 3-9 6 1.5 4.5 10.5-6 3 3-15 9-10.5-19.5 13.5-7.5zM339 2303.9l7.5 4.5c1.5 0 3 1.5 3 1.5 1.5 1.5 1.5 1.5 1.5 3 1.5 0 1.5 1.5 1.5 1.5 0 1.5 0 1.5-1.5 3 0 0 0 1.5-1.5 1.5s-1.5 1.5-3 1.5c1.5 0 1.5 1.5 1.5 3v3c-1.5 0-1.5 1.5-3 1.5 0 1.5-1.5 1.5-1.5 1.5h-3c-1.5-1.5-3-1.5-6-3l-6-4.5 10.5-18zm3 6-3 3 3 1.5c1.5 1.5 1.5 1.5 3 1.5 0 1.5 0 1.5 1.5 1.5 0-1.5 1.5-1.5 1.5-1.5v-1.5c0-1.5 0-1.5-1.5-1.5 0-1.5-1.5-1.5-3-3H342zm-4.5 6-3 6 3 1.5c1.5 1.5 3 1.5 3 1.5h1.5c1.5 0 1.5 0 1.5-1.5 0 0 1.5 0 0-1.5v-1.5s-1.5-1.5-3-1.5l-3-3z"
     style="clip-rule:evenodd;fill:#a6a6a6;fill-rule:evenodd"
     id="path100" /><path
     style="clip-rule:evenodd;fill:#bfbfbf;fill-rule:evenodd"
     d="M1.5 916.4H171v198H1.5z"
     id="path102" /><path
     d="M171 1114.4v-198m-169.5 0v198M1.5 1152.4H171v-45m-169.5 0v45"
     style="fill:none;stroke:#000;stroke-width:1.5;stroke-linecap:round;stroke-linejoin:round;stroke-miterlimit:10"
     id="path104" /><path
     style="clip-rule:evenodd;fill:#bfbfbf;fill-rule:evenodd"
     d="M0 920.9h172.5v9H0z"
     id="path106" /><path
     d="M171 928.4v-6m-169.5 0v6"
     style="fill:none;stroke:#000;stroke-width:1.5;stroke-linecap:round;stroke-linejoin:round;stroke-miterlimit:10"
     id="path108" /><path
     style="clip-rule:evenodd;fill:#bfbfbf;fill-rule:evenodd"
     d="M1.5 1243.4H171v196.5H1.5z"
     id="path110" /><path
     d="M171 1439.9v-196.5m-169.5 0v196.5M1.5 1478.9H171v-45m-169.5 0v45"
     style="fill:none;stroke:#000;stroke-width:1.5;stroke-linecap:round;stroke-linejoin:round;stroke-miterlimit:10"
     id="path112" /><path
     style="clip-rule:evenodd;fill:#bfbfbf;fill-rule:evenodd"
     d="M0 1246.4h172.5v10.5H0z"
     id="path114" /><path
     d="M171 1253.9v-4.5m-169.5 0v4.5"
     style="fill:none;stroke:#000;stroke-width:1.5;stroke-linecap:round;stroke-linejoin:round;stroke-miterlimit:10"
     id="path116" /><path
     d="M1.5 1194.9H171v51.5m-169.5 0v-51.5M1.5 868.3H171v51.5m-169.5 0v-51.5"
     style="fill:none;stroke:#000;stroke-width:1.69130003;stroke-linecap:round;stroke-linejoin:round;stroke-miterlimit:10"
     id="path118" /><path
     style="clip-rule:evenodd;fill:#bfbfbf;fill-rule:evenodd"
     d="M1.5 1568.9H171v198H1.5z"
     id="path120" /><path
     d="M171 1766.9v-198m-169.5 0v198M1.5 1803.9H171v-45m-169.5 0v45"
     style="fill:none;stroke:#000;stroke-width:1.5;stroke-linecap:round;stroke-linejoin:round;stroke-miterlimit:10"
     id="path122" /><path
     style="clip-rule:evenodd;fill:#bfbfbf;fill-rule:evenodd"
     d="M0 1573.4h172.5v9H0z"
     id="path124" /><path
     d="M171 1580.9v-6m-169.5 0v6"
     style="fill:none;stroke:#000;stroke-width:1.5;stroke-linecap:round;stroke-linejoin:round;stroke-miterlimit:10"
     id="path126" /><path
     d="M1.5 1519.9H171v48.6m-169.5-.1v-48.6"
     style="fill:none;stroke:#000;stroke-width:1.67359996;stroke-linecap:round;stroke-linejoin:round;stroke-miterlimit:10"
     id="path128" /><path
     style="clip-rule:evenodd;fill:#bfbfbf;fill-rule:evenodd"
     d="M1.5 1895.9H171v196.5H1.5z"
     id="path130" /><path
     d="M171 2092.4v-196.5m-169.5 0v196.5M1.5 2131.4H171v-45m-169.5 0v45"
     style="fill:none;stroke:#000;stroke-width:1.5;stroke-linecap:round;stroke-linejoin:round;stroke-miterlimit:10"
     id="path132" /><path
     style="clip-rule:evenodd;fill:#bfbfbf;fill-rule:evenodd"
     d="M0 1898.9h172.5v10.5H0z"
     id="path134" /><path
     d="M171 1906.4v-4.5m-169.5 0v4.5"
     style="fill:none;stroke:#000;stroke-width:1.5;stroke-linecap:round;stroke-linejoin:round;stroke-miterlimit:10"
     id="path136" /><path
     d="M1.5 1847.4H171v48.9m-169.5 0v-48.9"
     style="fill:none;stroke:#000;stroke-width:1.64769995;stroke-linecap:round;stroke-linejoin:round;stroke-miterlimit:10"
     id="path138" /><path
     style="clip-rule:evenodd;fill:#bfbfbf;fill-rule:evenodd"
     d="M1.5 2221.4H171v198H1.5z"
     id="path140" /><path
     d="M171 2419.4v-198m-169.5 0v198M1.5 2457.4H171v-45m-169.5 0v45"
     style="fill:none;stroke:#000;stroke-width:1.5;stroke-linecap:round;stroke-linejoin:round;stroke-miterlimit:10"
     id="path142" /><path
     style="clip-rule:evenodd;fill:#bfbfbf;fill-rule:evenodd"
     d="M0 2225.9h172.5v9H0z"
     id="path144" /><path
     d="M171 2233.4v-6m-169.5 0v6M1.5 2188.4H171v39m-169.5 0v-39"
     style="fill:none;stroke:#000;stroke-width:1.5;stroke-linecap:round;stroke-linejoin:round;stroke-miterlimit:10"
     id="path146" /><path
     style="clip-rule:evenodd;fill:#bfbfbf;fill-rule:evenodd"
     d="M1.5 2548.4H171v196.5H1.5z"
     id="path148" /><path
     d="M171 2744.9v-196.5m-169.5 0v196.5M1.5 2782.9H171v-45m-169.5 0v45"
     style="fill:none;stroke:#000;stroke-width:1.5;stroke-linecap:round;stroke-linejoin:round;stroke-miterlimit:10"
     id="path150" /><path
     style="clip-rule:evenodd;fill:#bfbfbf;fill-rule:evenodd"
     d="M0 2551.4h172.5v10.5H0z"
     id="path152" /><path
     d="M171 2558.9v-4.5m-169.5 0v4.5"
     style="fill:none;stroke:#000;stroke-width:1.5;stroke-linecap:round;stroke-linejoin:round;stroke-miterlimit:10"
     id="path154" /><path
     d="M1.5 2502.9H171v48.5m-169.5 0v-48.5"
     style="fill:none;stroke:#000;stroke-width:1.64100003;stroke-linecap:round;stroke-linejoin:round;stroke-miterlimit:10"
     id="path156" /><path
     style="clip-rule:evenodd;fill:#bfbfbf;fill-rule:evenodd"
     d="M171 742.4h45v1969.5h-45z"
     id="path158" /><path
     style="fill:none;stroke:#000;stroke-width:1.5;stroke-linecap:round;stroke-linejoin:round;stroke-miterlimit:10"
     d="M171 742.4v1969.5h45V742.4z"
     id="path160" /><path
     style="clip-rule:evenodd;fill:#d9d9d9;fill-rule:evenodd"
     d="M3202.5 740.9H3090v1957.5h118.5z"
     id="path162" /><path
     d="M3090 740.9v1957.5h118.5m-6-1957.5H3090"
     style="fill:none;stroke:#a6a6a6;stroke-width:1.5;stroke-linecap:round;stroke-linejoin:round;stroke-miterlimit:10"
     id="path164" /><path
     style="fill:none;stroke:#a6a6a6;stroke-width:1.5;stroke-linecap:round;stroke-linejoin:round;stroke-miterlimit:10"
     d="M3202.5 2698.4h22.5V740.9h-22.5"
     id="path166" /><path
     style="clip-rule:evenodd;fill:#bfbfbf;fill-rule:evenodd"
     d="M3276 916.4h168v198h-168z"
     id="path168" /><path
     d="M3276 1114.4v-198m168 0v198"
     style="fill:none;stroke:#000;stroke-width:1.5;stroke-linecap:round;stroke-linejoin:round;stroke-miterlimit:10"
     id="path170" /><path
     style="clip-rule:evenodd;fill:#9f9f9f;fill-rule:evenodd"
     d="M3273 1106.9h172.5v48H3273zM3273 872.9h172.5v48H3273zM2.2 868.9h169v48H2.2zM2.2 1113.9h169v37.7H2.2zM2.2 1439.9h169v37.7H2.2zM2.2 1765h169v37.7H2.2zM3.2 2092h169v37.7H3.2zM2.2 2419h169v37.7H2.2zM2.2 2745.1h169v37.7H2.2zM2.2 1195.9h169v48H2.2zM2.2 1520.9h169v48H2.2zM2.2 1847.9h169v48H2.2zM3.2 2174.9h169v48H3.2zM2.2 2503.3h169v48H2.2zM3273 1433.9h172.5v48H3273zM3273 1199.9h172.5v48H3273zM3273 1758h172.5v48H3273zM3273 1523.9h172.5v48H3273zM3273 2085h172.5v48H3273zM3273 1851h172.5v48H3273zM3273 2415h172.5v48H3273zM3273 2181h172.5v48H3273zM3273 2739.1h172.5v48H3273zM3273 2505h172.5v48H3273z"
     id="path172" /><path
     style="clip-rule:evenodd;fill:#bfbfbf;fill-rule:evenodd"
     d="M3273 920.9h172.5v9H3273z"
     id="path174" /><path
     d="M3276 928.4v-6m168 0v6"
     style="fill:none;stroke:#000;stroke-width:1.5;stroke-linecap:round;stroke-linejoin:round;stroke-miterlimit:10"
     id="path176" /><path
     style="clip-rule:evenodd;fill:#bfbfbf;fill-rule:evenodd"
     d="M3276 1243.4h168v196.5h-168z"
     id="path178" /><path
     d="M3276 1439.9v-196.5m168 0v196.5M3444 1478.9h-168v-45m168 0v45"
     style="fill:none;stroke:#000;stroke-width:1.5;stroke-linecap:round;stroke-linejoin:round;stroke-miterlimit:10"
     id="path180" /><path
     style="clip-rule:evenodd;fill:#bfbfbf;fill-rule:evenodd"
     d="M3273 1246.4h172.5v10.5H3273z"
     id="path182" /><path
     d="M3276 1253.9v-4.5m168 0v4.5"
     style="fill:none;stroke:#000;stroke-width:1.5;stroke-linecap:round;stroke-linejoin:round;stroke-miterlimit:10"
     id="path184" /><path
     style="clip-rule:evenodd;fill:#bfbfbf;fill-rule:evenodd"
     d="M3276 1568.9h168v198h-168z"
     id="path186" /><path
     d="M3276 1766.9v-198m168 0v198M3444 1805.9h-168v-45m168 0v45"
     style="fill:none;stroke:#000;stroke-width:1.5;stroke-linecap:round;stroke-linejoin:round;stroke-miterlimit:10"
     id="path188" /><path
     style="clip-rule:evenodd;fill:#bfbfbf;fill-rule:evenodd"
     d="M3273 1573.4h172.5v9H3273z"
     id="path190" /><path
     d="M3276 1580.9v-6m168 0v6"
     style="fill:none;stroke:#000;stroke-width:1.5;stroke-linecap:round;stroke-linejoin:round;stroke-miterlimit:10"
     id="path192" /><path
     style="clip-rule:evenodd;fill:#bfbfbf;fill-rule:evenodd"
     d="M3276 1895.9h168v196.5h-168z"
     id="path194" /><path
     d="M3276 2092.4v-196.5m168 0v196.5M3444 2131.4h-168v-45m168 0v45"
     style="fill:none;stroke:#000;stroke-width:1.5;stroke-linecap:round;stroke-linejoin:round;stroke-miterlimit:10"
     id="path196" /><path
     style="clip-rule:evenodd;fill:#bfbfbf;fill-rule:evenodd"
     d="M3273 1898.9h172.5v10.5H3273z"
     id="path198" /><path
     d="M3276 1906.4v-4.5m168 0v4.5"
     style="fill:none;stroke:#000;stroke-width:1.5;stroke-linecap:round;stroke-linejoin:round;stroke-miterlimit:10"
     id="path200" /><path
     style="clip-rule:evenodd;fill:#bfbfbf;fill-rule:evenodd"
     d="M3276 2221.4h168v198h-168z"
     id="path202" /><path
     d="M3276 2419.4v-198m168 0v198M3444 2458.4h-168v-45m168 0v45"
     style="fill:none;stroke:#000;stroke-width:1.5;stroke-linecap:round;stroke-linejoin:round;stroke-miterlimit:10"
     id="path204" /><path
     style="clip-rule:evenodd;fill:#bfbfbf;fill-rule:evenodd"
     d="M3273 2225.9h172.5v9H3273z"
     id="path206" /><path
     d="M3276 2233.4v-6m168 0v6"
     style="fill:none;stroke:#000;stroke-width:1.5;stroke-linecap:round;stroke-linejoin:round;stroke-miterlimit:10"
     id="path208" /><path
     style="clip-rule:evenodd;fill:#bfbfbf;fill-rule:evenodd"
     d="M3276 2548.4h168v196.5h-168z"
     id="path210" /><path
     d="M3276 2744.9v-196.5m168 0v196.5M3444 2783.9h-168v-45m168 0v45"
     style="fill:none;stroke:#000;stroke-width:1.5;stroke-linecap:round;stroke-linejoin:round;stroke-miterlimit:10"
     id="path212" /><path
     style="clip-rule:evenodd;fill:#bfbfbf;fill-rule:evenodd"
     d="M3273 2551.4h172.5v10.5H3273z"
     id="path214" /><path
     d="M3276 2558.9v-4.5m168 0v4.5"
     style="fill:none;stroke:#000;stroke-width:1.5;stroke-linecap:round;stroke-linejoin:round;stroke-miterlimit:10"
     id="path216" /><path
     d="M3276 1063.4h139.5c7.5 0 12-4.5 12-12v-69c0-7.5-4.5-12-12-12H3276v93z"
     style="clip-rule:evenodd;fill:#595959;fill-rule:evenodd"
     id="path218" /><path
     d="M3276 1063.4h139.5c7.5 0 12-4.5 12-12h0v-69c0-7.5-4.5-12-12-12h0H3276v93h0z"
     style="fill:none;stroke:#000;stroke-width:1.5;stroke-linecap:round;stroke-linejoin:round;stroke-miterlimit:10"
     id="path220" /><path
     d="M3276 1390.4h139.5c7.5 0 12-6 12-12v-70.5c0-6-4.5-10.5-12-10.5H3276v93z"
     style="clip-rule:evenodd;fill:#595959;fill-rule:evenodd"
     id="path222" /><path
     d="M3276 1390.4h139.5c7.5 0 12-6 12-12h0v-70.5c0-6-4.5-10.5-12-10.5h0H3276v93h0z"
     style="fill:none;stroke:#000;stroke-width:1.5;stroke-linecap:round;stroke-linejoin:round;stroke-miterlimit:10"
     id="path224" /><path
     d="M3276 1715.9h139.5c7.5 0 12-4.5 12-10.5v-70.5c0-6-4.5-12-12-12H3276v93z"
     style="clip-rule:evenodd;fill:#595959;fill-rule:evenodd"
     id="path226" /><path
     d="M3276 1715.9h139.5c7.5 0 12-4.5 12-10.5h0v-70.5c0-6-4.5-12-12-12h0H3276v93h0z"
     style="fill:none;stroke:#000;stroke-width:1.5;stroke-linecap:round;stroke-linejoin:round;stroke-miterlimit:10"
     id="path228" /><path
     d="M3276 2042.9h139.5c7.5 0 12-4.5 12-12v-69c0-7.5-4.5-12-12-12H3276v93z"
     style="clip-rule:evenodd;fill:#595959;fill-rule:evenodd"
     id="path230" /><path
     d="M3276 2042.9h139.5c7.5 0 12-4.5 12-12h0v-69c0-7.5-4.5-12-12-12h0H3276v93h0z"
     style="fill:none;stroke:#000;stroke-width:1.5;stroke-linecap:round;stroke-linejoin:round;stroke-miterlimit:10"
     id="path232" /><path
     d="M3276 2369.9h139.5c7.5 0 12-6 12-12v-70.5c0-6-4.5-10.5-12-10.5H3276v93z"
     style="clip-rule:evenodd;fill:#595959;fill-rule:evenodd"
     id="path234" /><path
     d="M3276 2369.9h139.5c7.5 0 12-6 12-12h0v-70.5c0-6-4.5-10.5-12-10.5h0H3276v93h0z"
     style="fill:none;stroke:#000;stroke-width:1.5;stroke-linecap:round;stroke-linejoin:round;stroke-miterlimit:10"
     id="path236" /><path
     d="M3276 2695.4h139.5c7.5 0 12-4.5 12-10.5v-70.5c0-6-4.5-12-12-12H3276v93z"
     style="clip-rule:evenodd;fill:#595959;fill-rule:evenodd"
     id="path238" /><path
     d="M3276 2695.4h139.5c7.5 0 12-4.5 12-10.5h0v-70.5c0-6-4.5-12-12-12h0H3276v93h0z"
     style="fill:none;stroke:#000;stroke-width:1.5;stroke-linecap:round;stroke-linejoin:round;stroke-miterlimit:10"
     id="path240" /><path
     style="clip-rule:evenodd;fill:#bfbfbf;fill-rule:evenodd"
     d="M3225 742.4h45v1969.5h-45z"
     id="path242" /><path
     style="fill:none;stroke:#000;stroke-width:1.5;stroke-linecap:round;stroke-linejoin:round;stroke-miterlimit:10"
     d="M3225 742.4v1969.5h45V742.4zM58.5 214.4v523.5h3330V214.4z"
     id="path244" /><path
     style="fill:none;stroke:#8c8c8c;stroke-linecap:round;stroke-linejoin:round;stroke-miterlimit:10"
     d="M1836 235.4v502.5M424.5 238.4v480"
     id="path246" /><path
     d="M24 776.9h132c9-1.5 16.5-9 19.5-18V427.4c1.5-22.5 22.5-40.5 46.5-39h21c12 1.5 24-6 25.5-16.5v-3c13.5-78 87-133.5 172.5-130.5h2559c90-1.5 166.5 57 174 141 0 4.5 4.5 9 10.5 9h40.5c22.5 0 40.5 15 42 36v3l4.5 334.5c1.5 7.5 7.5 13.5 16.5 15h132c7.5 0 13.5-4.5 13.5-12v-492c-9-159-156-280.5-327-271.5H327C166.5-10.6 27 98.9 13.5 245.9v519c-1.5 6 4.5 10.5 10.5 12z"
     style="fill:#bfbfbf;stroke:#737373;stroke-miterlimit:10"
     id="path248" /><path
     d="M1833 91.4h15c6 0 10.5-4.5 10.5-10.5v-33c-1.5-9-12-15-22.5-12-6 1.5-12 6-13.5 12v33c0 6 4.5 10.5 10.5 10.5z"
     style="clip-rule:evenodd;fill:#404040;fill-rule:evenodd"
     id="path250" /><path
     d="M1833 91.4h15c6 0 10.5-4.5 10.5-10.5h0v-33c-1.5-9-12-15-22.5-12-6 1.5-12 6-13.5 12v3h0v30c0 6 4.5 10.5 10.5 10.5h0z"
     style="fill:none;stroke:#737373;stroke-width:1.5;stroke-linecap:round;stroke-linejoin:round;stroke-miterlimit:10"
     id="path252" /><path
     d="M1893 235.4V1.4m0 115.5h-63c-22.5 0-42-16.5-42-37.5h0v-78"
     style="fill:none;stroke:#737373;stroke-linecap:round;stroke-linejoin:round;stroke-miterlimit:10"
     id="path254" /><path
     d="M397.5 91.4H381c-6 0-10.5-4.5-10.5-10.5v-33c3-9 13.5-15 22.5-12 7.5 1.5 12 6 13.5 12 0 1.5 1.5 1.5 1.5 3v30c0 6-6 10.5-10.5 10.5z"
     style="clip-rule:evenodd;fill:#404040;fill-rule:evenodd"
     id="path256" /><path
     d="M397.5 91.4H381c-6 0-10.5-4.5-10.5-10.5h0v-33c3-9 13.5-15 22.5-12 7.5 1.5 12 6 13.5 12 0 1.5 1.5 1.5 1.5 3h0v30c0 6-6 10.5-10.5 10.5h0z"
     style="fill:none;stroke:#737373;stroke-width:1.5;stroke-linecap:round;stroke-linejoin:round;stroke-miterlimit:10"
     id="path258" /><path
     d="M337.5 266.9V1.4m0 115.5H399c24 0 42-16.5 42-37.5h0v-78"
     style="fill:none;stroke:#737373;stroke-linecap:round;stroke-linejoin:round;stroke-miterlimit:10"
     id="path260" /><path
     style="clip-rule:evenodd;fill:#c41230;fill-rule:evenodd"
     d="M606 554.9h19.5v75H606zM777 575.9c-1.5 0-7.5-3-16.5-3-12 0-21 7.5-21 19.5 0 10.5 9 19.5 21 19.5 9 0 15-3 16.5-4.5v21c-3 0-9 1.5-18 1.5-21 0-39-13.5-39-37.5 0-22.5 16.5-39 39-39 9 0 15 3 18 3v19.5zM580.5 575.9s-6-3-15-3c-12 0-21 7.5-21 19.5 0 10.5 7.5 19.5 21 19.5 7.5 0 15-3 15-4.5v21c-1.5 0-9 1.5-16.5 1.5-21 0-40.5-13.5-40.5-37.5 0-22.5 18-39 40.5-39 9 0 15 3 16.5 3v19.5zM874.5 592.4c0 21-16.5 37.5-39 37.5s-39-16.5-39-37.5 16.5-39 39-39 39 18 39 39zm-39-19.5c-12 0-19.5 9-19.5 19.5s7.5 19.5 19.5 19.5c10.5 0 19.5-9 19.5-19.5s-9-19.5-19.5-19.5zM696 571.4s-7.5-1.5-15-1.5-10.5 1.5-10.5 6 4.5 6 7.5 7.5l6 1.5c12 3 18 12 18 21 0 18-16.5 24-31.5 24-9 0-19.5-1.5-19.5-1.5v-16.5c1.5 0 9 3 16.5 3 10.5 0 15-3 15-7.5s-4.5-6-9-7.5c-1.5 0-3-1.5-4.5-1.5-10.5-3-18-9-18-21 0-15 9-24 27-24 9 0 18 3 18 3v15z"
     id="path262" /><path
     d="M504 475.4c0-6-4.5-9-9-9-6 0-9 3-9 9v19.5c0 4.5 3 9 9 9 4.5 0 9-4.5 9-9v-19.5zM555 449.9c0-6-4.5-9-9-9s-9 3-9 9v45c0 4.5 4.5 9 9 9s9-4.5 9-9v-45zM606 413.9c0-4.5-4.5-9-9-9s-9 4.5-9 9v99c0 6 4.5 9 9 9s9-3 9-9v-99zM657 449.9c0-6-3-9-9-9-4.5 0-9 3-9 9v45c0 4.5 4.5 9 9 9 6 0 9-4.5 9-9v-45zM708 475.4c0-6-3-9-9-9-4.5 0-9 3-9 9v19.5c0 4.5 4.5 9 9 9 6 0 9-4.5 9-9v-19.5zM759 449.9c0-6-3-9-9-9-4.5 0-9 3-9 9v45c0 4.5 4.5 9 9 9 6 0 9-4.5 9-9v-45zM811.5 413.9c0-4.5-4.5-9-10.5-9-4.5 0-9 4.5-9 9v99c0 6 4.5 9 9 9 6 0 10.5-3 10.5-9v-99zM862.5 449.9c0-6-4.5-9-10.5-9-4.5 0-9 3-9 9v45c0 4.5 4.5 9 9 9 6 0 10.5-4.5 10.5-9v-45zM913.5 475.4c0-6-4.5-9-9-9-6 0-10.5 3-10.5 9v19.5c0 4.5 4.5 9 10.5 9 4.5 0 9-4.5 9-9v-19.5z"
     style="clip-rule:evenodd;fill:#005568;fill-rule:evenodd"
     id="path264" /><path
     style="clip-rule:evenodd;fill:#c41230;fill-rule:evenodd"
     d="M898.5 629.9H897v-9h-3v-1.5h9v1.5h-4.5zM907.5 626.9l3-7.5h3v10.5H912v-9l-3 9h-1.5l-3-9v9H903v-10.5h1.5l3 7.5z"
     id="path266" /><path
     style="clip-rule:evenodd;fill:#d9d9d9;fill-rule:evenodd"
     d="M3208.5 2719.4h9v337.5h-9z"
     id="path268" /><path
     style="fill:none;stroke:#000;stroke-width:1.5;stroke-linecap:round;stroke-linejoin:round;stroke-miterlimit:10"
     d="M3217.5 2719.4h-9 0v337.5h9z"
     id="path270" /><path
     style="clip-rule:evenodd;fill:#d9d9d9;fill-rule:evenodd"
     d="M228 2719.4h9v337.5h-9z"
     id="path272" /><path
     style="fill:none;stroke:#000;stroke-width:1.5;stroke-linecap:round;stroke-linejoin:round;stroke-miterlimit:10"
     d="M237 2719.4h-9 0v337.5h9z"
     id="path274" /><path
     style="clip-rule:evenodd;fill:#d9d9d9;fill-rule:evenodd"
     d="M165 2716.4h3111v9H165z"
     id="path276" /><path
     style="fill:none;stroke:#000;stroke-width:1.5;stroke-linecap:round;stroke-linejoin:round;stroke-miterlimit:10"
     d="M165 2716.4v9h3111v-9z"
     id="path278" /><path
     style="clip-rule:evenodd;fill:#d9d9d9;fill-rule:evenodd"
     d="M165 3052.4h3111v9H165z"
     id="path280" /><path
     style="fill:none;stroke:#000;stroke-width:1.5;stroke-linecap:round;stroke-linejoin:round;stroke-miterlimit:10"
     d="M165 3052.4v9h3111v-9z"
     id="path282" /><path
     d="m2244.8 595.7 10.5 3.3c-1.6 5.9-4.3 10.2-8 13.1-3.8 2.8-8.5 4.3-14.3 4.3-7.1 0-13-2.4-17.6-7.3-4.6-4.9-6.9-11.5-6.9-20 0-8.9 2.3-15.9 6.9-20.8 4.6-4.9 10.7-7.4 18.2-7.4 6.6 0 11.9 1.9 16 5.8 2.4 2.3 4.3 5.6 5.5 9.9l-10.7 2.6c-.6-2.8-2-5-4-6.6-2-1.6-4.5-2.4-7.3-2.4-4 0-7.2 1.4-9.7 4.3-2.5 2.9-3.7 7.5-3.7 13.9 0 6.8 1.2 11.6 3.7 14.5 2.5 2.9 5.6 4.3 9.5 4.3 2.9 0 5.4-.9 7.4-2.7 2-1.8 3.6-4.8 4.5-8.8zM2264.5 571.3v-9.5h10.3v9.5h-10.3zm0 44.2v-38.9h10.3v38.9h-10.3zM2281.8 604.4l10.3-1.6c.4 2 1.3 3.5 2.7 4.6 1.4 1.1 3.2 1.6 5.6 1.6 2.7 0 4.7-.5 6-1.5.9-.7 1.4-1.6 1.4-2.7 0-.8-.2-1.4-.7-1.9-.5-.5-1.7-.9-3.4-1.4-8.3-1.8-13.6-3.5-15.8-5-3.1-2.1-4.6-5-4.6-8.8 0-3.4 1.3-6.2 4-8.5s6.8-3.4 12.4-3.4c5.3 0 9.3.9 11.9 2.6 2.6 1.7 4.4 4.3 5.3 7.7l-9.7 1.8c-.4-1.5-1.2-2.7-2.4-3.5-1.2-.8-2.8-1.2-5-1.2-2.7 0-4.7.4-5.8 1.1-.8.5-1.2 1.2-1.2 2.1 0 .7.3 1.4 1 1.9.9.7 4.1 1.6 9.6 2.9 5.5 1.2 9.3 2.8 11.5 4.6 2.1 1.8 3.2 4.4 3.2 7.7 0 3.6-1.5 6.6-4.5 9.2-3 2.6-7.4 3.8-13.2 3.8-5.3 0-9.5-1.1-12.6-3.2-3.1-2.1-5.1-5.2-6-8.9zM2361 588.1l-10.1 1.8c-.3-2-1.1-3.6-2.3-4.6-1.2-1-2.8-1.5-4.7-1.5-2.6 0-4.6.9-6.1 2.6-1.5 1.8-2.3 4.7-2.3 8.9 0 4.6.8 7.9 2.3 9.8 1.5 1.9 3.6 2.9 6.2 2.9 2 0 3.6-.5 4.8-1.7 1.2-1.1 2.1-3 2.6-5.7l10.1 1.7c-1 4.6-3.1 8.1-6 10.5-2.9 2.4-7 3.6-12 3.6-5.7 0-10.2-1.8-13.6-5.4-3.4-3.6-5.1-8.6-5.1-14.9 0-6.4 1.7-11.4 5.1-15 3.4-3.6 8-5.4 13.8-5.4 4.7 0 8.5 1 11.3 3.1 2.8 2 4.8 5.1 6 9.3zM2366.4 595.5c0-3.4.8-6.7 2.5-9.9s4.1-5.6 7.2-7.3c3.1-1.7 6.5-2.5 10.3-2.5 5.9 0 10.7 1.9 14.5 5.7 3.8 3.8 5.6 8.6 5.6 14.5s-1.9 10.8-5.7 14.6c-3.8 3.9-8.6 5.8-14.3 5.8-3.6 0-7-.8-10.2-2.4-3.2-1.6-5.7-4-7.4-7.1-1.6-3.2-2.5-7-2.5-11.4zm10.6.5c0 3.9.9 6.8 2.7 8.9 1.8 2.1 4.1 3.1 6.8 3.1s4.9-1 6.8-3.1c1.8-2.1 2.7-5 2.7-8.9 0-3.8-.9-6.7-2.7-8.8-1.8-2.1-4.1-3.1-6.8-3.1s-4.9 1-6.8 3.1c-1.9 2.1-2.7 5-2.7 8.8zM2481.2 615.5h-11.8l-4.7-12.2h-21.5l-4.4 12.2h-11.5l20.9-53.7h11.5l21.5 53.7zm-20-21.3-7.4-19.9-7.3 19.9h14.7zM2484.2 598l10.5-1c.6 3.5 1.9 6.1 3.9 7.8 2 1.7 4.6 2.5 7.9 2.5 3.5 0 6.1-.7 7.9-2.2 1.8-1.5 2.7-3.2 2.7-5.2 0-1.3-.4-2.3-1.1-3.2-.7-.9-2-1.7-3.9-2.3-1.3-.4-4.2-1.2-8.7-2.3-5.8-1.4-9.9-3.2-12.2-5.3-3.3-3-4.9-6.6-4.9-10.8 0-2.7.8-5.3 2.3-7.7 1.5-2.4 3.8-4.2 6.7-5.4 2.9-1.2 6.4-1.9 10.6-1.9 6.7 0 11.8 1.5 15.2 4.4 3.4 3 5.2 6.9 5.4 11.8l-10.8.5c-.5-2.8-1.5-4.7-3-6-1.5-1.2-3.8-1.8-6.9-1.8-3.1 0-5.6.6-7.4 1.9-1.1.8-1.7 1.9-1.7 3.3 0 1.3.5 2.4 1.6 3.3 1.4 1.1 4.7 2.3 10 3.6 5.3 1.3 9.2 2.5 11.7 3.9 2.5 1.3 4.5 3.1 5.9 5.4 1.4 2.3 2.1 5.2 2.1 8.6 0 3.1-.9 6-2.6 8.6-1.7 2.6-4.1 4.7-7.3 6-3.1 1.3-7 2-11.7 2-6.8 0-12-1.6-15.6-4.7-3.8-3.2-5.9-7.8-6.6-13.8zM2537 615.5v-53.7h22.8c5.7 0 9.9.5 12.5 1.4 2.6 1 4.7 2.7 6.2 5.2s2.3 5.3 2.3 8.5c0 4-1.2 7.4-3.6 10-2.4 2.6-5.9 4.3-10.6 5 2.3 1.4 4.3 2.9 5.8 4.5s3.6 4.5 6.2 8.7l6.6 10.5h-13l-7.8-11.7c-2.8-4.2-4.7-6.8-5.7-7.9-1-1.1-2.1-1.8-3.3-2.2-1.1-.4-3-.6-5.5-.6h-2.2v22.4H2537zm10.8-31h8c5.2 0 8.4-.2 9.7-.7 1.3-.5 2.3-1.2 3-2.3.7-1.1 1.1-2.4 1.1-4 0-1.8-.5-3.3-1.4-4.4-1-1.1-2.3-1.8-4.1-2.1-.9-.1-3.5-.2-7.9-.2h-8.5v13.7zM2609.9 603.1l10-1.1c.2 2 .9 3.5 1.9 4.5 1 1 2.4 1.5 4.1 1.5 2.1 0 3.9-1 5.4-2.9 1.5-1.9 2.4-6 2.9-12.2-2.6 3-5.8 4.5-9.7 4.5-4.2 0-7.9-1.6-10.9-4.9-3.1-3.2-4.6-7.5-4.6-12.7 0-5.4 1.6-9.8 4.8-13.2 3.2-3.3 7.4-5 12.4-5 5.4 0 9.9 2.1 13.4 6.3 3.5 4.2 5.2 11.1 5.2 20.8 0 9.8-1.8 16.9-5.5 21.2-3.7 4.3-8.4 6.5-14.2 6.5-4.2 0-7.6-1.1-10.2-3.3-2.6-2.3-4.3-5.6-5-10zm23.3-22.5c0-3.3-.8-5.9-2.3-7.7-1.5-1.8-3.3-2.7-5.3-2.7-1.9 0-3.5.7-4.7 2.3-1.3 1.5-1.9 4-1.9 7.4 0 3.5.7 6 2.1 7.6 1.4 1.6 3.1 2.4 5.1 2.4 2 0 3.6-.8 5-2.3 1.3-1.7 2-4 2-7zM2668.8 561.6c5.2 0 9.3 1.9 12.2 5.6 3.5 4.4 5.2 11.7 5.2 21.9s-1.8 17.5-5.3 21.9c-2.9 3.7-7 5.5-12.2 5.5-5.2 0-9.4-2-12.6-6-3.2-4-4.8-11.2-4.8-21.5 0-10.1 1.8-17.4 5.3-21.8 2.9-3.8 7-5.6 12.2-5.6zm0 8.5c-1.2 0-2.4.4-3.3 1.2-1 .8-1.7 2.2-2.3 4.3-.7 2.7-1.1 7.1-1.1 13.4 0 6.3.3 10.6 1 13 .6 2.4 1.4 3.9 2.4 4.7 1 .8 2.1 1.2 3.3 1.2 1.2 0 2.4-.4 3.3-1.2 1-.8 1.7-2.2 2.3-4.3.7-2.6 1.1-7.1 1.1-13.4 0-6.3-.3-10.6-1-13-.7-2.4-1.4-3.9-2.4-4.7-1-.8-2.1-1.2-3.3-1.2zM2710.5 561.6c5.2 0 9.3 1.9 12.2 5.6 3.5 4.4 5.2 11.7 5.2 21.9s-1.8 17.5-5.3 21.9c-2.9 3.7-7 5.5-12.2 5.5-5.2 0-9.4-2-12.6-6-3.2-4-4.8-11.2-4.8-21.5 0-10.1 1.8-17.4 5.3-21.8 2.9-3.8 7-5.6 12.2-5.6zm0 8.5c-1.2 0-2.4.4-3.3 1.2-1 .8-1.7 2.2-2.3 4.3-.7 2.7-1.1 7.1-1.1 13.4 0 6.3.3 10.6 1 13 .6 2.4 1.4 3.9 2.4 4.7 1 .8 2.1 1.2 3.3 1.2 1.2 0 2.4-.4 3.3-1.2 1-.8 1.7-2.2 2.3-4.3.7-2.6 1.1-7.1 1.1-13.4 0-6.3-.3-10.6-1-13-.7-2.4-1.4-3.9-2.4-4.7-1-.8-2.1-1.2-3.3-1.2zM2752.2 561.6c5.2 0 9.3 1.9 12.2 5.6 3.5 4.4 5.2 11.7 5.2 21.9s-1.8 17.5-5.3 21.9c-2.9 3.7-7 5.5-12.2 5.5-5.2 0-9.4-2-12.6-6-3.2-4-4.8-11.2-4.8-21.5 0-10.1 1.8-17.4 5.3-21.8 2.9-3.8 7-5.6 12.2-5.6zm0 8.5c-1.2 0-2.4.4-3.3 1.2-1 .8-1.7 2.2-2.3 4.3-.7 2.7-1.1 7.1-1.1 13.4 0 6.3.3 10.6 1 13 .6 2.4 1.4 3.9 2.4 4.7 1 .8 2.1 1.2 3.3 1.2 1.2 0 2.4-.4 3.3-1.2 1-.8 1.7-2.2 2.3-4.3.7-2.6 1.1-7.1 1.1-13.4 0-6.3-.3-10.6-1-13-.7-2.4-1.4-3.9-2.4-4.7-1-.8-2.1-1.2-3.3-1.2zM2799.1 601.6l4.9-.4c.2 2 .8 3.6 1.6 4.8.9 1.3 2.2 2.3 4 3.1 1.8.8 3.8 1.2 6 1.2 2 0 3.7-.3 5.3-.9 1.5-.6 2.6-1.4 3.4-2.4.7-1 1.1-2.1 1.1-3.4 0-1.2-.4-2.3-1.1-3.2-.7-.9-1.9-1.7-3.5-2.3-1.1-.4-3.4-1-7-1.9-3.6-.9-6.2-1.7-7.6-2.5-1.9-1-3.3-2.2-4.2-3.7-.9-1.5-1.4-3.1-1.4-4.9 0-2 .6-3.8 1.7-5.6 1.1-1.7 2.8-3 4.9-3.9 2.2-.9 4.6-1.3 7.2-1.3 2.9 0 5.5.5 7.7 1.4 2.2.9 3.9 2.3 5.2 4.2 1.2 1.8 1.8 3.9 1.9 6.2l-5 .4c-.3-2.5-1.2-4.4-2.7-5.6-1.5-1.3-3.8-1.9-6.9-1.9-3.1 0-5.4.6-6.9 1.7-1.4 1.1-2.2 2.6-2.2 4.2 0 1.4.5 2.6 1.5 3.5 1 .9 3.6 1.8 7.9 2.8 4.2 1 7.1 1.8 8.7 2.5 2.3 1 4 2.4 5.1 4 1.1 1.6 1.6 3.5 1.6 5.6 0 2.1-.6 4.1-1.8 5.9-1.2 1.9-2.9 3.3-5.2 4.3-2.2 1-4.8 1.6-7.6 1.6-3.6 0-6.5-.5-8.9-1.6-2.4-1-4.3-2.6-5.7-4.7-1.2-2.2-1.9-4.5-2-7.2zM2856.5 605.1l5 .6c-.8 2.9-2.2 5.2-4.4 6.8-2.2 1.6-4.8 2.4-8.2 2.4-4.2 0-7.5-1.3-9.9-3.9-2.4-2.6-3.7-6.2-3.7-10.8 0-4.8 1.2-8.5 3.7-11.2 2.5-2.6 5.7-4 9.6-4 3.8 0 6.9 1.3 9.4 3.9 2.4 2.6 3.6 6.2 3.6 10.9v1.3h-21.3c.2 3.1 1.1 5.5 2.7 7.2 1.6 1.7 3.6 2.5 6 2.5 1.8 0 3.3-.5 4.5-1.4 1.3-.8 2.3-2.3 3-4.3zm-15.9-7.8h15.9c-.2-2.4-.8-4.2-1.8-5.4-1.5-1.9-3.5-2.8-6-2.8-2.2 0-4.1.7-5.6 2.2-1.5 1.5-2.3 3.5-2.5 6zM2867.5 614.3v-28.5h4.3v4.3c1.1-2 2.1-3.4 3.1-4 1-.6 2-1 3.1-1 1.6 0 3.3.5 5 1.6l-1.7 4.5c-1.2-.7-2.4-1-3.6-1-1 0-2 .3-2.8 1-.8.7-1.4 1.5-1.8 2.6-.5 1.7-.8 3.6-.8 5.6v14.9h-4.8zM2885.9 580.5v-5.6h4.8v5.6h-4.8zm0 33.8v-28.5h4.8v28.5h-4.8zM2917.6 605.1l5 .6c-.8 2.9-2.2 5.2-4.4 6.8-2.2 1.6-4.8 2.4-8.2 2.4-4.2 0-7.5-1.3-9.9-3.9-2.4-2.6-3.7-6.2-3.7-10.8 0-4.8 1.2-8.5 3.7-11.2 2.5-2.6 5.7-4 9.6-4 3.8 0 6.9 1.3 9.4 3.9 2.4 2.6 3.6 6.2 3.6 10.9v1.3h-21.3c.2 3.1 1.1 5.5 2.7 7.2 1.6 1.7 3.6 2.5 6 2.5 1.8 0 3.3-.5 4.5-1.4 1.3-.8 2.3-2.3 3-4.3zm-15.9-7.8h15.9c-.2-2.4-.8-4.2-1.8-5.4-1.5-1.9-3.5-2.8-6-2.8-2.2 0-4.1.7-5.6 2.2-1.5 1.5-2.3 3.5-2.5 6zM2926.8 605.8l4.8-.8c.3 1.9 1 3.4 2.2 4.4 1.2 1 2.9 1.5 5.1 1.5 2.2 0 3.9-.5 4.9-1.4 1-.9 1.6-2 1.6-3.2 0-1.1-.5-1.9-1.4-2.6-.7-.4-2.3-1-4.9-1.6-3.6-.9-6-1.7-7.4-2.3-1.4-.7-2.4-1.6-3.1-2.7-.7-1.2-1.1-2.4-1.1-3.8 0-1.3.3-2.5.9-3.5.6-1.1 1.4-2 2.4-2.7.7-.6 1.8-1 3.1-1.4 1.3-.4 2.7-.6 4.2-.6 2.2 0 4.2.3 5.9 1 1.7.6 2.9 1.5 3.7 2.6.8 1.1 1.4 2.6 1.7 4.4l-4.7.6c-.2-1.5-.8-2.6-1.9-3.4-1-.8-2.5-1.2-4.4-1.2-2.2 0-3.8.4-4.7 1.1-1 .7-1.4 1.6-1.4 2.6 0 .6.2 1.2.6 1.7.4.5 1 1 1.9 1.3.5.2 1.9.6 4.3 1.2 3.4.9 5.8 1.7 7.2 2.2 1.3.6 2.4 1.4 3.2 2.5.8 1.1 1.2 2.5 1.2 4.1 0 1.6-.5 3.1-1.4 4.5-1 1.4-2.3 2.5-4.1 3.3-1.8.8-3.8 1.2-6 1.2-3.7 0-6.5-.8-8.5-2.3-2.2-1.4-3.4-3.7-3.9-6.7z"
     id="path284" /><text
     xml:space="preserve"
     style="font-style:normal;font-weight:normal;font-size:40px;line-height:1.25;font-family:sans-serif;letter-spacing:0px;word-spacing:0px;fill:#000000;fill-opacity:1;stroke:none"
     x="1660.0604"
     y="503.79926"
     id="text296"><tspan
       sodipodi:role="line"
       id="tspan294"
       x="1660.0604"
       y="540.29248" /></text>
</svg>