<?xml version="1.0" encoding="UTF-8" standalone="no"?>
<svg
   xmlns:dc="http://purl.org/dc/elements/1.1/"
   xmlns:cc="http://creativecommons.org/ns#"
   xmlns:rdf="http://www.w3.org/1999/02/22-rdf-syntax-ns#"
   xmlns:svg="http://www.w3.org/2000/svg"
   xmlns="http://www.w3.org/2000/svg"
   xmlns:sodipodi="http://sodipodi.sourceforge.net/DTD/sodipodi-0.dtd"
   xmlns:inkscape="http://www.inkscape.org/namespaces/inkscape"
   version="1.1"
   id="Layer_3"
   x="0"
   y="0"
   viewBox="0 0 3422.5 312.5"
   xml:space="preserve"
   width="3422.5"
   height="312.5"
   sodipodi:docname="ASR-920-12SZ-IM-Front.svg"
   inkscape:version="0.92.1 r15371"><metadata
     id="metadata431"><rdf:RDF><cc:Work
         rdf:about=""><dc:format>image/svg+xml</dc:format><dc:type
           rdf:resource="http://purl.org/dc/dcmitype/StillImage" /></cc:Work></rdf:RDF></metadata><defs
     id="defs429" /><sodipodi:namedview
     pagecolor="#ffffff"
     bordercolor="#666666"
     borderopacity="1"
     objecttolerance="10"
     gridtolerance="10"
     guidetolerance="10"
     inkscape:pageopacity="0"
     inkscape:pageshadow="2"
     inkscape:window-width="1920"
     inkscape:window-height="986"
     id="namedview427"
     showgrid="false"
     inkscape:zoom="0.51161432"
     inkscape:cx="1711.25"
     inkscape:cy="156.25"
     inkscape:window-x="-11"
     inkscape:window-y="-11"
     inkscape:window-maximized="1"
     inkscape:current-layer="Layer_3" /><style
     type="text/css"
     id="style3">.stASR-920-12SZ-IM0{fill-rule:evenodd;clip-rule:evenodd;fill:#c1c5cb}.stASR-920-12SZ-IM2{fill:none;stroke:#262626;stroke-width:6.000000e-02;stroke-linecap:square;stroke-miterlimit:2}.stASR-920-12SZ-IM3{fill-rule:evenodd;clip-rule:evenodd}.stASR-920-12SZ-IM4,.stASR-920-12SZ-IM5{fill:none;stroke:#262626;stroke-width:6.000000e-02;stroke-linecap:round;stroke-linejoin:round;stroke-miterlimit:2}.stASR-920-12SZ-IM5{stroke:#000}.stASR-920-12SZ-IM6,.stASR-920-12SZ-IM9{fill-rule:evenodd;clip-rule:evenodd;fill:#606265}.stASR-920-12SZ-IM9{fill:#856427}.stASR-920-12SZ-IM10,.stASR-920-12SZ-IM11{fill-rule:evenodd;clip-rule:evenodd;fill:#969696}.stASR-920-12SZ-IM11{fill:silver}.stASR-920-12SZ-IM13{font-family:'MyriadPro-Regular'}.stASR-920-12SZ-IM16{fill:#303030}.stASR-920-12SZ-IM18{fill:#cdc5be;stroke:#303030;stroke-miterlimit:10}.stASR-920-12SZ-IM19{fill-rule:evenodd;clip-rule:evenodd;fill:#292929}.stASR-920-12SZ-IM21{fill:none;stroke:#999;stroke-miterlimit:10}.stASR-920-12SZ-IM22{fill:#888}.stASR-920-12SZ-IM23{fill:#7f7f7f}.stASR-920-12SZ-IM24{fill:#cdc5be}.stASR-920-12SZ-IM25{fill:#4d4d4d}.stASR-920-12SZ-IM26{fill:#bfbfbf}.stASR-920-12SZ-IM27{fill-rule:evenodd;clip-rule:evenodd;fill:#4d4d4d}.stASR-920-12SZ-IM31,.stASR-920-12SZ-IM32{fill-rule:evenodd;clip-rule:evenodd;fill:#7f7f7f}.stASR-920-12SZ-IM32{fill:#9e9a97}</style><g
     id="g5"><path
       class="stASR-920-12SZ-IM0"
       d="M3356 286.5h-15 1.5c-10.5 0-18-7.5-18-16.5 0-10.5 7.5-18 18-18h-1.5 36-1.5c10.5 0 18 7.5 18 16.5 0 10.5-7.5 18-18 18h1.5-21zm0-225h-15 1.5c-10.5 0-18-7.5-18-16.5 0-10.5 7.5-18 18-18h-1.5 36-1.5c10.5 0 18 7.5 18 18 0 9-7.5 16.5-18 16.5h1.5-21zM59 286.5H47c-10.5 0-18-7.5-18-16.5 0-10.5 7.5-18 18-18h33c10.5 0 18 7.5 18 16.5 0 10.5-7.5 18-18 18H59zm0-225H47C36.5 61.5 29 54 29 45c0-10.5 7.5-18 18-18h33c10.5 0 18 7.5 18 18 0 9-7.5 16.5-18 16.5H59zM36.5 312h3348c21 0 36-7.5 36-18l1.5 1.5V18l-1.5 1.5c0-10.5-15-18-36-18H36.5C17 1.5.5 9 .5 19.5L2 18v277.5L.5 294c0 10.5 16.5 18 36 18z"
       id="path7"
       style="clip-rule:evenodd;fill:#c1c5cb;fill-rule:evenodd" /><path
       d="M3356 286.5h-15 1.5c-10.5 0-18-7.5-18-16.5 0-10.5 7.5-18 18-18h0-1.5 36-1.5c10.5 0 18 7.5 18 16.5 0 10.5-7.5 18-18 18h1.5-21 0zm0-225h-15 1.5c-10.5 0-18-7.5-18-16.5 0-10.5 7.5-18 18-18h0-1.5 36-1.5c10.5 0 18 7.5 18 18 0 9-7.5 16.5-18 16.5h1.5-21 0zM59 286.5H47h0c-10.5 0-18-7.5-18-16.5 0-10.5 7.5-18 18-18h33c10.5 0 18 7.5 18 16.5 0 10.5-7.5 18-18 18h0-21 0zm0-225H47h0C36.5 61.5 29 54 29 45c0-10.5 7.5-18 18-18h33c10.5 0 18 7.5 18 18 0 9-7.5 16.5-18 16.5h0-21 0zM36.5 312h3348c21 0 36-7.5 36-18h0l1.5 1.5V18l-1.5 1.5c0-10.5-15-18-36-18h0-3348 0C17 1.5.5 9 .5 19.5L2 18v277.5L.5 294c0 10.5 16.5 18 36 18h0z"
       id="path9"
       style="fill:none;stroke:#8c8c8c;stroke-linecap:square;stroke-miterlimit:2" /><path
       class="stASR-920-12SZ-IM0"
       id="rect11"
       style="clip-rule:evenodd;fill:#c1c5cb;fill-rule:evenodd"
       d="M147.5 12H3275v300H147.5z" /><path
       class="stASR-920-12SZ-IM2"
       id="polygon13"
       d="M147.5 12v300H3275V12z" /><path
       class="stASR-920-12SZ-IM2"
       id="polyline15"
       d="M3258.5 18v-6H155v6" /><path
       class="stASR-920-12SZ-IM2"
       id="polyline17"
       d="M3258.5 306v6H164v-6" /><path
       class="stASR-920-12SZ-IM3"
       id="rect19"
       style="clip-rule:evenodd;fill-rule:evenodd"
       d="M3258.5 12h6v6h-6z" /><path
       class="stASR-920-12SZ-IM4"
       id="polygon21"
       d="M3258.5 18v-6h6v6z" /><path
       class="stASR-920-12SZ-IM3"
       d="M3264.5 12h6-1.5c0-3-3-6-6-6l1.5 1.5V12z"
       id="path23"
       style="clip-rule:evenodd;fill-rule:evenodd" /><path
       class="stASR-920-12SZ-IM5"
       d="M3264.5 12h6-1.5c0-3-3-6-6-6l1.5 1.5V12h0z"
       id="path25" /><path
       class="stASR-920-12SZ-IM0"
       d="M3270.5 12v300h4.5V12c0-6-4.5-10.5-10.5-12h-1.5l1.5 1.5v6L3263 6c3 0 6 3 6 6h1.5z"
       id="path27"
       style="clip-rule:evenodd;fill:#c1c5cb;fill-rule:evenodd" /><path
       class="stASR-920-12SZ-IM2"
       d="M3270.5 12v300h4.5V12h0c0-6-4.5-10.5-10.5-12h-1.5l1.5 1.5v6L3263 6c3 0 6 3 6 6h1.5z"
       id="path29" /><path
       class="stASR-920-12SZ-IM0"
       id="rect31"
       style="clip-rule:evenodd;fill:#c1c5cb;fill-rule:evenodd"
       d="M3264.5 12h6v292.5h-6z" /><path
       class="stASR-920-12SZ-IM2"
       id="polygon33"
       d="M3264.5 12v292.5h6V12z" /><path
       class="stASR-920-12SZ-IM3"
       id="rect35"
       style="clip-rule:evenodd;fill-rule:evenodd"
       d="M3258.5 304.5h12v1.5h-12z" /><path
       class="stASR-920-12SZ-IM4"
       id="polygon37"
       d="M3258.5 304.5v1.5h12v-1.5z" /><path
       class="stASR-920-12SZ-IM6"
       id="rect39"
       style="clip-rule:evenodd;fill:#606265;fill-rule:evenodd"
       d="M3261.5 297h9v9h-9z" /><path
       class="stASR-920-12SZ-IM2"
       id="polyline41"
       d="M3270.5 298.5v6h-6v-6" /><path
       class="stASR-920-12SZ-IM3"
       id="rect43"
       style="clip-rule:evenodd;fill-rule:evenodd"
       d="M159.5 12h4.5v6h-4.5z" /><path
       class="stASR-920-12SZ-IM4"
       id="polygon45"
       d="M164 18v-6h0-4.5v6z" /><path
       class="stASR-920-12SZ-IM3"
       d="M159.5 12h-6c0-3 1.5-6 4.5-6l1.5 1.5V12z"
       id="path47"
       style="clip-rule:evenodd;fill-rule:evenodd" /><path
       class="stASR-920-12SZ-IM5"
       d="M159.5 12h-6 0c0-3 1.5-6 4.5-6l1.5 1.5V12h0z"
       id="path49" /><path
       class="stASR-920-12SZ-IM0"
       d="M153.5 12v300h-6V12c0-6 3-10.5 9-12h1.5l1.5 1.5v6L158 6c-3 0-4.5 3-4.5 6z"
       id="path51"
       style="clip-rule:evenodd;fill:#c1c5cb;fill-rule:evenodd" /><path
       class="stASR-920-12SZ-IM2"
       d="M153.5 12v300h-6V12h0c0-6 3-10.5 9-12h1.5l1.5 1.5v6L158 6c-3 0-4.5 3-4.5 6h0z"
       id="path53" /><path
       class="stASR-920-12SZ-IM0"
       id="rect55"
       style="clip-rule:evenodd;fill:#c1c5cb;fill-rule:evenodd"
       d="M153.5 12h6v292.5h-6z" /><path
       class="stASR-920-12SZ-IM2"
       id="polygon57"
       d="M159.5 12v292.5h0-6V12z" /><path
       class="stASR-920-12SZ-IM3"
       id="rect59"
       style="clip-rule:evenodd;fill-rule:evenodd"
       d="M153.5 304.5H164v1.5h-10.5z" /><path
       class="stASR-920-12SZ-IM4"
       id="polygon61"
       d="M164 304.5v1.5h0-10.5v-1.5z" /><path
       class="stASR-920-12SZ-IM6"
       id="rect63"
       style="clip-rule:evenodd;fill:#606265;fill-rule:evenodd"
       d="M150.5 297H161v9h-10.5z" /><path
       class="stASR-920-12SZ-IM2"
       id="polyline65"
       d="M153.5 298.5v6h6v-6" /><path
       class="stASR-920-12SZ-IM2"
       id="polygon67"
       d="M159.5 1.5V12h3105V1.5z" /><path
       class="stASR-920-12SZ-IM2"
       id="polyline69"
       d="M164 18h-4.5v286.5h4.5" /><path
       class="stASR-920-12SZ-IM2"
       id="polyline71"
       d="M3258.5 18h6v286.5h-6" /><g
       id="g73"><g
         id="g75"><path
           d="m3099 282.9 7.3-10.7v-.1h-6.7v-1.4h8.9v1l-7.3 10.6v.1h7.4v1.4h-9.6v-.9z"
           id="path77" /></g><g
         id="g79"><path
           d="M3114.3 272.2h-4v-1.4h9.7v1.4h-4v11.7h-1.7v-11.7z"
           id="path81" /></g><g
         id="g83"><path
           d="M3123.8 270.9c.8-.1 1.9-.3 3.3-.3 1.7 0 2.9.4 3.7 1.1.7.6 1.2 1.6 1.2 2.7 0 1.2-.4 2.1-1 2.8-.9 1-2.4 1.4-4 1.4-.5 0-1 0-1.4-.1v5.3h-1.7v-12.9zm1.6 6.3c.4.1.8.1 1.4.1 2 0 3.3-1 3.3-2.8 0-1.7-1.2-2.6-3.1-2.6-.7 0-1.3.1-1.6.1v5.2z"
           id="path85" /></g></g><path
       id="rect87"
       style="clip-rule:evenodd;fill:#cdc5be;fill-rule:evenodd"
       d="M2930.3 35.2h129V258h-129z" /><path
       d="M2929.8 37.1V255c0 1.6 1.3 1.6 2.6 1.6h125.3c1.3 0 1.3 0 1.3-1.6h0V37.1c0-1.6 0-1.6-1.3-1.6h-125.3c-1.3 0-2.6 0-2.6 1.6h0z"
       id="path89"
       style="fill:none;stroke:#000;stroke-width:.99089998;stroke-linecap:round;stroke-linejoin:round;stroke-miterlimit:2" /><g
       id="g91"><path
         class="stASR-920-12SZ-IM3"
         d="M2976 48v7.5c0 1.5-1.5 1.5-1.5 1.5h-3.5c-1.5 0-1.5 1.5-1.5 1.5v10L2968 70h-17c-1.1 0-2 .9-2 2v49.5c0 1.1.9 2 2 2h89c1.1 0 2-.9 2-2v-50c0-1.5-1.5-1.5-3-1.5h1.5-19c-1.5 0-1.5-1.5-1.5-1.5v-10l-1.5-1.5h-4.5c-1.5 0-.5 0-.5-1.5V48H2976z"
         id="path93"
         data-cv-id="PORT-0"
         style="clip-rule:evenodd;fill-rule:evenodd" /><path
         class="stASR-920-12SZ-IM9"
         id="rect95"
         style="clip-rule:evenodd;fill:#856427;fill-rule:evenodd"
         d="M3018 111.5h4.5v7.5h-4.5z" /><path
         class="stASR-920-12SZ-IM9"
         id="rect97"
         style="clip-rule:evenodd;fill:#856427;fill-rule:evenodd"
         d="M3010.5 111.5h4.5v7.5h-4.5z" /><path
         class="stASR-920-12SZ-IM9"
         id="rect99"
         style="clip-rule:evenodd;fill:#856427;fill-rule:evenodd"
         d="M2995.5 111.5h4.5v7.5h-4.5z" /><path
         class="stASR-920-12SZ-IM9"
         id="rect101"
         style="clip-rule:evenodd;fill:#856427;fill-rule:evenodd"
         d="M3003 111.5h4.5v7.5h-4.5z" /><path
         class="stASR-920-12SZ-IM9"
         id="rect103"
         style="clip-rule:evenodd;fill:#856427;fill-rule:evenodd"
         d="M2988 111.5h6v7.5h-6z" /><path
         class="stASR-920-12SZ-IM9"
         id="rect105"
         style="clip-rule:evenodd;fill:#856427;fill-rule:evenodd"
         d="M2980.5 111.5h6v7.5h-6z" /><path
         class="stASR-920-12SZ-IM9"
         id="rect107"
         style="clip-rule:evenodd;fill:#856427;fill-rule:evenodd"
         d="M2973 111.5h6v7.5h-6z" /><path
         class="stASR-920-12SZ-IM9"
         id="rect109"
         style="clip-rule:evenodd;fill:#856427;fill-rule:evenodd"
         d="M2965.5 111.5h6v7.5h-6z" /></g><path
       class="stASR-920-12SZ-IM10"
       d="M2951 211.5h91.5V210c1.5 0 3 1.5 3 4.5h1.5V243h-1.5c0 3-1.5 4.5-3 4.5V246H2951v1.5c-3 0-4.5-1.5-4.5-4.5h1.5v-28.5h-1.5c0-3 1.5-4.5 4.5-4.5v1.5z"
       id="path111"
       style="clip-rule:evenodd;fill:#969696;fill-rule:evenodd" /><path
       class="stASR-920-12SZ-IM5"
       d="M2951 211.5h91.5V210c1.5 0 3 1.5 3 4.5h1.5V243h-1.5c0 3-1.5 4.5-3 4.5V246H2951v1.5c-3 0-4.5-1.5-4.5-4.5h1.5v-28.5h-1.5c0-3 1.5-4.5 4.5-4.5v1.5z"
       id="path113" /><path
       class="stASR-920-12SZ-IM3"
       d="M2952.5 213h88.5-1.5c3 0 4.5 1.5 4.5 3h-1.5v25.5h1.5c0 1.5-1.5 3-4.5 3h1.5-88.5c-1.5 0-3-1.5-3-3V216c0-1.5 1.5-3 3-3z"
       id="path115"
       data-cv-id="PORT-2"
       style="clip-rule:evenodd;fill-rule:evenodd" /><path
       class="stASR-920-12SZ-IM5"
       d="M2952.5 213h88.5-1.5c3 0 4.5 1.5 4.5 3h0-1.5v25.5h1.5c0 1.5-1.5 3-4.5 3h1.5-88.5 0c-1.5 0-3-1.5-3-3h0V216h0c0-1.5 1.5-3 3-3h0z"
       id="path117" /><path
       class="stASR-920-12SZ-IM11"
       id="rect119"
       style="clip-rule:evenodd;fill:silver;fill-rule:evenodd"
       d="M2949.5 211.5h46.5v3h-46.5z" /><path
       class="stASR-920-12SZ-IM5"
       id="polygon121"
       d="M2949.5 214.5v-3h46.5v3z" /><path
       class="stASR-920-12SZ-IM11"
       id="rect123"
       style="clip-rule:evenodd;fill:silver;fill-rule:evenodd"
       d="M2996 211.5h46.5v3H2996z" /><path
       class="stASR-920-12SZ-IM5"
       id="polygon125"
       d="M2996 214.5v-3h46.5v3z" /><path
       class="stASR-920-12SZ-IM10"
       d="M2951 150h91.5c1.5 0 3 1.5 3 3h1.5v30h-1.5c0 1.5-1.5 3-3 3v1.5H2951V186c-3 0-4.5-1.5-4.5-3h1.5v-30h-1.5c0-1.5 1.5-3 4.5-3z"
       id="path127"
       style="clip-rule:evenodd;fill:#969696;fill-rule:evenodd" /><path
       class="stASR-920-12SZ-IM5"
       d="M2951 150h91.5c1.5 0 3 1.5 3 3h1.5v30h-1.5c0 1.5-1.5 3-3 3v1.5H2951V186c-3 0-4.5-1.5-4.5-3h1.5v-30h-1.5c0-1.5 1.5-3 4.5-3h0z"
       id="path129" /><path
       class="stASR-920-12SZ-IM3"
       d="M2952.5 153h88.5-1.5c3 0 4.5 1.5 4.5 3l-1.5 1.5v24h1.5c0 1.5-1.5 3-4.5 3h1.5-88.5c-1.5 0-3-1.5-3-3V156c0-1.5 1.5-3 3-3z"
       id="path131"
       data-cv-id="PORT-1"
       style="clip-rule:evenodd;fill-rule:evenodd" /><path
       class="stASR-920-12SZ-IM5"
       d="M2952.5 153h88.5-1.5c3 0 4.5 1.5 4.5 3h0l-1.5 1.5v24h1.5c0 1.5-1.5 3-4.5 3h1.5-88.5 0c-1.5 0-3-1.5-3-3h0V156c0-1.5 1.5-3 3-3h0z"
       id="path133" /><path
       class="stASR-920-12SZ-IM11"
       id="rect135"
       style="clip-rule:evenodd;fill:silver;fill-rule:evenodd"
       d="M2949.5 151.5h46.5v3h-46.5z" /><path
       class="stASR-920-12SZ-IM5"
       id="polygon137"
       d="M2949.5 154.5v-3h46.5v3z" /><path
       class="stASR-920-12SZ-IM11"
       id="rect139"
       style="clip-rule:evenodd;fill:silver;fill-rule:evenodd"
       d="M2996 151.5h46.5v3H2996z" /><path
       class="stASR-920-12SZ-IM5"
       id="polygon141"
       d="M2996 154.5v-3h46.5v3z" /><path
       id="rect143"
       style="clip-rule:evenodd;fill:#8c8c8c;fill-rule:evenodd"
       d="M2947.7 243h100.2v9.2h-100.2z" /><path
       class="stASR-920-12SZ-IM5"
       id="polygon145"
       d="M2948 244.5v6h99v-6z" /><circle
       cx="3153.8"
       cy="277.3"
       r="14"
       id="circle151"
       style="fill:none;stroke:#303030;stroke-width:.95450002;stroke-linecap:square;stroke-miterlimit:2" /><circle
       class="stASR-920-12SZ-IM16"
       cx="3153.8"
       cy="277.3"
       r="9"
       id="circle153"
       style="fill:#303030" /><path
       class="stASR-920-12SZ-IM16"
       id="polygon155"
       style="fill:#303030"
       d="m2983.1 272.6 8.7 15h-17.3z" /><path
       class="stASR-920-12SZ-IM16"
       id="polygon157"
       style="fill:#303030"
       d="m3003.9 287.6-8.7-15h17.4z" /><g
       id="g159"><path
         d="m2936.3 276.7 3.8-10h1.4l4.1 10h-1.5l-1.2-3h-4.2l-1.1 3h-1.3zm2.9-4.1h3.4l-1-2.8c-.3-.8-.6-1.5-.7-2.1-.1.6-.3 1.3-.5 1.9l-1.2 3z"
         id="path161" /><path
         d="M2954 266.6h1.3v5.8c0 1-.1 1.8-.3 2.4-.2.6-.6 1.1-1.2 1.4-.6.4-1.4.6-2.3.6-.9 0-1.7-.2-2.3-.5-.6-.3-1-.8-1.3-1.4-.3-.6-.4-1.5-.4-2.5v-5.8h1.3v5.8c0 .9.1 1.5.2 1.9.2.4.4.7.8 1 .4.2.9.3 1.4.3 1 0 1.7-.2 2.1-.7.4-.4.6-1.3.6-2.5v-5.8z"
         id="path163" /><path
         d="m2957.2 276.7 3.9-5.2-3.4-4.8h1.6l1.8 2.6c.4.5.6.9.8 1.2.2-.4.5-.7.8-1.1l2-2.7h1.4l-3.5 4.7 3.8 5.3h-1.6l-2.5-3.6c-.1-.2-.3-.4-.4-.7-.2.4-.4.6-.5.8l-2.5 3.5h-1.7z"
         id="path165" /><path
         d="M2932.2 291.7v-10h3.8c.7 0 1.2 0 1.5.1.5.1.9.2 1.2.5.3.2.6.6.8 1 .2.4.3.9.3 1.4 0 .9-.3 1.6-.8 2.2-.5.6-1.5.9-2.9.9h-2.6v4.1h-1.3zm1.4-5.3h2.6c.9 0 1.5-.2 1.8-.5.4-.3.5-.8.5-1.3 0-.4-.1-.8-.3-1.1-.2-.3-.5-.5-.8-.6-.2-.1-.6-.1-1.2-.1h-2.6v3.6z"
         id="path167" /><path
         d="M2941.9 286.8c0-1.7.4-3 1.3-3.9.9-.9 2-1.4 3.5-1.4.9 0 1.8.2 2.5.7.7.4 1.3 1.1 1.7 1.8.4.8.6 1.7.6 2.7 0 1-.2 1.9-.6 2.7-.4.8-1 1.4-1.7 1.8-.8.4-1.6.6-2.4.6-.9 0-1.8-.2-2.5-.7-.7-.5-1.3-1.1-1.7-1.9-.5-.7-.7-1.5-.7-2.4zm1.3 0c0 1.2.3 2.2 1 2.9.7.7 1.5 1 2.4 1 1 0 1.8-.4 2.5-1.1.6-.7 1-1.7 1-3 0-.8-.1-1.5-.4-2.1-.3-.6-.7-1.1-1.2-1.4-.5-.3-1.1-.5-1.8-.5-.9 0-1.7.3-2.4 1-.7.6-1.1 1.7-1.1 3.2z"
         id="path169" /><path
         d="M2953.9 291.7v-10h4.4c.9 0 1.6.1 2 .3.5.2.8.5 1.1 1 .3.5.4 1 .4 1.5 0 .7-.2 1.3-.7 1.8-.5.5-1.2.8-2.1.9.4.2.6.3.8.5.4.4.8.8 1.1 1.3l1.7 2.7h-1.7l-1.3-2.1c-.4-.6-.7-1.1-1-1.4l-.7-.7-.6-.3h-2.2v4.5h-1.2zm1.3-5.6h2.9c.6 0 1.1-.1 1.4-.2.3-.1.6-.3.8-.6.2-.3.3-.6.3-.9 0-.5-.2-.9-.5-1.2-.3-.3-.9-.5-1.6-.5h-3.2v3.4z"
         id="path171" /><path
         d="M2967 291.7v-8.8h-3.3v-1.2h7.9v1.2h-3.3v8.8h-1.3z"
         id="path173" /></g><g
       id="g175"><path
         d="m3024.7 281.8 1.3.3c-.3 1.1-.8 1.9-1.5 2.5-.7.6-1.6.9-2.6.9-1.1 0-2-.2-2.6-.7-.7-.4-1.2-1.1-1.5-1.9-.4-.8-.5-1.7-.5-2.7 0-1 .2-2 .6-2.7.4-.8 1-1.4 1.7-1.8.7-.4 1.5-.6 2.4-.6 1 0 1.8.3 2.5.8s1.2 1.2 1.4 2.2l-1.3.3c-.2-.7-.6-1.3-1-1.6-.4-.3-1-.5-1.7-.5-.8 0-1.4.2-1.9.6-.5.4-.9.9-1.1 1.5-.2.6-.3 1.3-.3 1.9 0 .9.1 1.6.4 2.2.2.6.6 1.1 1.2 1.4.6.3 1.1.5 1.7.5.7 0 1.4-.2 1.9-.6.4-.5.7-1.1.9-2z"
         id="path177" /><path
         d="M3027.9 280.5c0-1.7.4-3 1.3-3.9.9-.9 2-1.4 3.5-1.4.9 0 1.8.2 2.5.7.7.4 1.3 1.1 1.7 1.8.4.8.6 1.7.6 2.7 0 1-.2 1.9-.6 2.7-.4.8-1 1.4-1.7 1.8-.8.4-1.6.6-2.4.6-.9 0-1.8-.2-2.5-.7-.7-.5-1.3-1.1-1.7-1.9-.5-.7-.7-1.6-.7-2.4zm1.4 0c0 1.2.3 2.2 1 2.9.7.7 1.5 1 2.4 1 1 0 1.8-.4 2.5-1.1.6-.7 1-1.7 1-3 0-.8-.1-1.5-.4-2.1-.3-.6-.7-1.1-1.2-1.4-.5-.3-1.1-.5-1.8-.5-.9 0-1.7.3-2.4 1-.8.6-1.1 1.7-1.1 3.2z"
         id="path179" /><path
         d="M3039.9 285.3v-10h1.4l5.3 7.9v-7.9h1.3v10h-1.4l-5.3-7.9v7.9h-1.3z"
         id="path181" /><path
         d="m3050.3 282.1 1.3-.1c.1.5.2.9.4 1.2.2.3.6.6 1 .8.4.2 1 .3 1.5.3s1-.1 1.3-.2c.3-.1.7-.4.9-.6.2-.3.3-.5.3-.9 0-.3-.1-.6-.3-.8-.2-.2-.5-.4-.9-.6-.3-.1-.9-.3-1.8-.5s-1.6-.4-1.9-.6c-.5-.2-.8-.6-1.1-.9-.2-.4-.4-.8-.4-1.2 0-.5.1-1 .4-1.4.3-.4.7-.8 1.3-1 .6-.2 1.2-.3 1.8-.3.7 0 1.4.1 2 .4.6.2 1 .6 1.3 1.1.3.5.5 1 .5 1.6l-1.3.1c-.1-.6-.3-1.1-.7-1.4-.4-.3-1-.5-1.7-.5-.8 0-1.4.1-1.8.4-.4.3-.5.6-.5 1.1 0 .4.1.7.4.9.3.2.9.5 2 .7 1.1.2 1.8.5 2.2.6.6.3 1 .6 1.3 1 .3.4.4.9.4 1.4 0 .5-.2 1-.5 1.5s-.7.8-1.3 1.1c-.6.3-1.2.4-1.9.4-.9 0-1.7-.1-2.3-.4-.6-.3-1.1-.7-1.4-1.2-.3-.7-.5-1.3-.5-2z"
         id="path183" /></g><g
       id="g185"><path
         d="M3127.4 34.3V22.9h2.3l2.7 8.1c.2.8.4 1.3.5 1.7.1-.4.3-1 .6-1.8l2.7-8h2v11.5h-1.5v-9.6l-3.3 9.6h-1.4l-3.3-9.8v9.8h-1.3z"
         id="path187" /><path
         d="M3147 29.8v-1.3h4.9v4.2c-.7.6-1.5 1-2.3 1.3-.8.3-1.6.4-2.4.4-1.1 0-2.1-.2-3.1-.7-.9-.5-1.6-1.2-2.1-2.1-.5-.9-.7-1.9-.7-3.1 0-1.1.2-2.2.7-3.1.5-1 1.1-1.7 2-2.2.9-.5 1.9-.7 3-.7.8 0 1.6.1 2.2.4.7.3 1.2.6 1.6 1.1.4.5.7 1.1.9 1.9l-1.4.4c-.2-.6-.4-1-.6-1.4-.3-.3-.6-.6-1.1-.8-.5-.2-1-.3-1.6-.3-.7 0-1.3.1-1.8.3-.5.2-.9.5-1.2.8-.3.3-.6.7-.7 1.1-.3.7-.4 1.5-.4 2.3 0 1 .2 1.9.5 2.6.3.7.9 1.2 1.5 1.5.7.3 1.4.5 2.1.5.7 0 1.3-.1 1.9-.4.6-.3 1.1-.5 1.4-.8v-2.1h-3.3z"
         id="path189" /><path
         d="M3154.8 34.3V22.9h2.3l2.7 8.1c.2.8.4 1.3.5 1.7.1-.4.3-1 .6-1.8l2.7-8h2v11.5h-1.5v-9.6l-3.3 9.6h-1.4l-3.3-9.8v9.8h-1.3z"
         id="path191" /><path
         d="M3171.9 34.3V24.2h-3.8v-1.4h9.1v1.4h-3.8v10.1h-1.5z"
         id="path193" /></g><g
       id="g195"><path
         d="m3237.1 234.2.4-1.5c1.2.3 2.2.9 2.8 1.7.6.8 1 1.8 1 3s-.3 2.2-.8 3c-.5.8-1.2 1.4-2.2 1.8-1 .4-2 .6-3.1.6-1.2 0-2.2-.2-3.1-.7-.9-.5-1.6-1.1-2-1.9-.4-.8-.7-1.8-.7-2.8 0-1.1.3-2.1.9-2.9.6-.8 1.4-1.3 2.5-1.6l.4 1.5c-.8.3-1.4.7-1.8 1.2-.4.5-.6 1.1-.6 1.9 0 .9.2 1.6.6 2.2.4.6 1 1 1.7 1.2.7.2 1.4.4 2.2.4 1 0 1.8-.1 2.6-.4.8-.3 1.3-.7 1.6-1.3.3-.6.5-1.2.5-1.9 0-.8-.2-1.6-.7-2.2-.5-.6-1.2-1.1-2.2-1.3z"
         id="path197" /><path
         d="M3235.6 230.5c-1.9 0-3.4-.5-4.5-1.5s-1.6-2.3-1.6-4c0-1.1.3-2 .8-2.9.5-.9 1.2-1.5 2.1-1.9.9-.4 1.9-.7 3.1-.7 1.2 0 2.2.2 3.1.7.9.5 1.6 1.1 2.1 2 .5.9.7 1.8.7 2.8 0 1.1-.3 2-.8 2.9-.5.9-1.2 1.5-2.1 1.9-.9.4-1.9.7-2.9.7zm0-1.6c1.4 0 2.5-.4 3.3-1.1.8-.7 1.2-1.7 1.2-2.8 0-1.1-.4-2.1-1.2-2.8-.8-.7-1.9-1.1-3.4-1.1-.9 0-1.7.2-2.4.5s-1.2.8-1.6 1.4c-.4.6-.6 1.3-.6 2 0 1.1.4 2 1.1 2.8.7.8 1.9 1.1 3.6 1.1z"
         id="path199" /><path
         d="M3241.1 216.8h-11.5v-1.6l9-6h-9v-1.5h11.5v1.6l-9 6h9v1.5z"
         id="path201" /><path
         d="m3237.5 204.9-.1-1.4c.6-.1 1-.2 1.4-.5.4-.3.7-.6.9-1.2.2-.6.3-1.1.3-1.8 0-.6-.1-1.1-.3-1.5-.2-.4-.4-.8-.7-1-.3-.2-.6-.3-1-.3s-.7.1-.9.3c-.2.2-.5.6-.7 1-.1.3-.3 1-.6 2s-.5 1.8-.7 2.2c-.3.5-.6 1-1.1 1.2-.5.2-.9.4-1.4.4-.6 0-1.1-.2-1.6-.5s-.9-.8-1.1-1.4c-.2-.6-.4-1.3-.4-2.1s.1-1.6.4-2.2c.3-.6.7-1.1 1.2-1.5.5-.4 1.1-.5 1.8-.6l.1 1.5c-.7.1-1.3.3-1.6.8-.3.5-.6 1.1-.6 2 0 .9.2 1.6.5 2 .3.4.7.6 1.2.6.4 0 .8-.1 1-.4.3-.3.5-1.1.8-2.3.3-1.2.5-2.1.7-2.5.3-.7.7-1.2 1.2-1.5.5-.3 1-.5 1.6-.5.6 0 1.2.2 1.7.5s1 .9 1.3 1.5c.3.7.4 1.4.4 2.2 0 1-.2 1.9-.5 2.6-.3.7-.8 1.2-1.4 1.6-.6.4-1.1.8-1.8.8z"
         id="path203" /></g><g
       id="g205"><path
         d="M3241.1 176.9h-11.5v-2.3l8.1-2.7c.8-.2 1.3-.4 1.7-.5-.4-.1-1-.3-1.8-.6l-8-2.7v-2h11.5v1.5h-9.6l9.6 3.3v1.4l-9.8 3.3h9.8v1.3z"
         id="path207" /><path
         d="M3241.1 162.7h-11.5v-8.3h1.4v6.8h3.5v-6.3h1.3v6.3h3.9v-7h1.4v8.5z"
         id="path209" /><path
         d="M3241.1 151.3h-11.5V149l8.1-2.7c.8-.2 1.3-.4 1.7-.5-.4-.1-1-.3-1.8-.6l-8-2.7v-2h11.5v1.5h-9.6l9.6 3.3v1.4l-9.8 3.3h9.8v1.3z"
         id="path211" /></g><path
       d="M3231.8 256.2h2.8v27c-.6-.7-1.2-1.3-1.9-1.9-.9-.8-1.7-1.5-2.3-2-.7-.7-1.1-1.2-1.3-1.7-.1-.2-.2-.4-.2-.5v-4.5c1.2-.4 2.1-1.5 2.1-2.8 0-1.6-1.3-2.9-2.9-2.9-1.6 0-2.9 1.3-2.9 2.9 0 1.4.9 2.5 2.2 2.8V277.3c.6 2.4 3 3.7 4.6 5.4.8.8 1.4 1.8 2.1 2.8.2.3.5.8.6 1.2v2.3c-2 .4-3.6 2.2-3.6 4.4 0 2.5 2 4.5 4.5 4.5s4.5-2 4.5-4.5c0-2.2-1.5-4-3.6-4.4v-8.6c0-.9.8-2.1 1.2-2.8.9-1.4 2.3-2.3 3.6-3.3 1.4-1.1 3-2.4 3-4.2 0-.3-.1-4 0-4h2.1V260h-6.1v6.1h2.3v4.3c-.4.5-1.4 1.9-2.4 2.6-.6.5-1.8 1.4-3 2.4-.3.3-.6.6-.8.9v-20.1h2.8l-3.7-6-3.7 6z"
       id="path213" /><g
       id="g215"><path
         id="polygon217"
         style="fill:none;stroke:#999;stroke-width:.99470001;stroke-miterlimit:2"
         d="M2468.7 70.5v185.6H2894V70.5z" /><circle
         class="stASR-920-12SZ-IM18"
         cx="2831.8"
         cy="272.3"
         r="9"
         id="circle219"
         style="fill:#cdc5be;stroke:#303030;stroke-miterlimit:10" /><circle
         class="stASR-920-12SZ-IM18"
         cx="2731.8"
         cy="272.3"
         r="9"
         id="circle221"
         style="fill:#cdc5be;stroke:#303030;stroke-miterlimit:10" /><circle
         class="stASR-920-12SZ-IM18"
         cx="2632.8"
         cy="272.3"
         r="9"
         id="circle223"
         style="fill:#cdc5be;stroke:#303030;stroke-miterlimit:10" /><path
         class="stASR-920-12SZ-IM16"
         id="polygon225"
         style="fill:#303030"
         d="m2819.1 51.6 7.6 13h-15.1z" /><path
         class="stASR-920-12SZ-IM16"
         id="polygon227"
         style="fill:#303030"
         d="m2833.9 65.6-7.5-13h15z" /><g
         id="g229"><path
           d="M2771.4 273.8v-1.3h4.9v4.2c-.7.6-1.5 1-2.3 1.3-.8.3-1.6.4-2.4.4-1.1 0-2.1-.2-3.1-.7-.9-.5-1.6-1.2-2.1-2.1-.5-.9-.7-1.9-.7-3.1 0-1.1.2-2.2.7-3.1.5-1 1.1-1.7 2-2.2.9-.5 1.9-.7 3-.7.8 0 1.6.1 2.2.4.7.3 1.2.6 1.6 1.1.4.5.7 1.1.9 1.9l-1.4.4c-.2-.6-.4-1-.6-1.4-.3-.3-.6-.6-1.1-.8-.5-.2-1-.3-1.6-.3-.7 0-1.3.1-1.8.3-.5.2-.9.5-1.2.8-.3.3-.6.7-.7 1.1-.3.7-.4 1.5-.4 2.3 0 1 .2 1.9.5 2.6.3.7.9 1.2 1.5 1.5.7.3 1.4.5 2.1.5.7 0 1.3-.1 1.9-.4.6-.3 1.1-.5 1.4-.8v-2.1h-3.3z"
           id="path231" /><path
           d="M2779.3 278.3v-11.5h1.6l6 9v-9h1.5v11.5h-1.6l-6-9v9h-1.5z"
           id="path233" /><path
           d="m2791.2 274.7 1.4-.1c.1.6.2 1 .5 1.4.3.4.6.7 1.2.9.6.2 1.1.3 1.8.3.6 0 1.1-.1 1.5-.3.4-.2.8-.4 1-.7.2-.3.3-.6.3-1s-.1-.7-.3-.9c-.2-.3-.6-.5-1-.7-.3-.1-1-.3-2-.6-1.1-.3-1.8-.5-2.2-.7-.5-.3-1-.6-1.2-1.1-.3-.4-.4-.9-.4-1.4 0-.6.2-1.1.5-1.6s.8-.9 1.4-1.1c.6-.3 1.3-.4 2.1-.4s1.6.1 2.2.4c.6.3 1.1.7 1.5 1.2.4.5.5 1.1.6 1.8l-1.5.1c-.1-.7-.3-1.3-.8-1.6-.5-.4-1.1-.6-2-.6-.9 0-1.6.2-2 .5-.4.3-.6.7-.6 1.2 0 .4.1.8.4 1 .3.3 1.1.5 2.3.8 1.2.3 2.1.5 2.5.7.7.3 1.2.7 1.5 1.2.3.5.5 1 .5 1.6 0 .6-.2 1.2-.5 1.7s-.9 1-1.5 1.3c-.7.3-1.4.4-2.2.4-1 0-1.9-.2-2.6-.5-.7-.3-1.2-.8-1.6-1.4-.6-.4-.8-1.1-.8-1.8z"
           id="path235" /><path
           d="m2802.6 274.7 1.4-.1c.1.6.2 1 .5 1.4.3.4.6.7 1.2.9.6.2 1.1.3 1.8.3.6 0 1.1-.1 1.5-.3.4-.2.8-.4 1-.7.2-.3.3-.6.3-1s-.1-.7-.3-.9c-.2-.3-.6-.5-1-.7-.3-.1-1-.3-2-.6-1.1-.3-1.8-.5-2.2-.7-.5-.3-1-.6-1.2-1.1-.3-.4-.4-.9-.4-1.4 0-.6.2-1.1.5-1.6s.8-.9 1.4-1.1c.6-.3 1.3-.4 2.1-.4s1.6.1 2.2.4c.6.3 1.1.7 1.5 1.2.4.5.5 1.1.6 1.8l-1.5.1c-.1-.7-.3-1.3-.8-1.6-.5-.4-1.1-.6-2-.6-.9 0-1.6.2-2 .5-.4.3-.6.7-.6 1.2 0 .4.1.8.4 1 .3.3 1.1.5 2.3.8 1.2.3 2.1.5 2.5.7.7.3 1.2.7 1.5 1.2.3.5.5 1 .5 1.6 0 .6-.2 1.2-.5 1.7s-.9 1-1.5 1.3c-.7.3-1.4.4-2.2.4-1 0-1.9-.2-2.6-.5-.7-.3-1.2-.8-1.6-1.4-.5-.4-.7-1.1-.8-1.8z"
           id="path237" /></g><g
         id="g239"><path
           d="M2843.9 58.9c0-1.2.1-2.1.4-2.9.2-.7.6-1.3 1.1-1.7.5-.4 1.1-.6 1.8-.6.5 0 1 .1 1.4.3.4.2.7.5 1 .9.3.4.5.9.6 1.5.1.6.2 1.4.2 2.4 0 1.2-.1 2.1-.4 2.8-.3.7-.6 1.3-1.1 1.7-.5.4-1.1.6-1.8.6-1 0-1.7-.3-2.3-1-.6-.8-.9-2.1-.9-4zm1.3 0c0 1.6.2 2.7.6 3.3.4.5.9.8 1.4.8.5 0 1-.3 1.4-.8.4-.5.6-1.6.6-3.3 0-1.6-.2-2.7-.6-3.3-.4-.5-.9-.8-1.4-.8-.6 0-1 .2-1.4.7-.4.6-.6 1.7-.6 3.4z"
           id="path241" /></g><g
         id="g243"><path
           d="M2808.1 63.8h-1.2V56c-.3.3-.7.6-1.2.8-.5.3-.9.5-1.3.6v-1.2c.7-.3 1.3-.7 1.8-1.2s.9-.9 1.1-1.3h.8v10.1z"
           id="path245" /></g><path
         class="stASR-920-12SZ-IM16"
         id="polygon247"
         style="fill:#303030"
         d="m2721.6 51.6 7.6 13h-15.1z" /><path
         class="stASR-920-12SZ-IM16"
         id="polygon249"
         style="fill:#303030"
         d="m2736.4 65.6-7.5-13h15z" /><g
         id="g251"><path
           d="M2752.9 62.7v1.2h-6.6c0-.3 0-.6.1-.9.2-.5.4-.9.8-1.3s.9-.9 1.6-1.5c1.1-.9 1.8-1.6 2.2-2.1.4-.5.6-1 .6-1.5s-.2-.9-.5-1.2c-.3-.3-.8-.5-1.4-.5-.6 0-1.1.2-1.4.5-.3.3-.5.8-.5 1.5l-1.3-.1c.1-.9.4-1.7 1-2.2.6-.5 1.3-.7 2.3-.7 1 0 1.7.3 2.3.8.6.5.8 1.2.8 2 0 .4-.1.8-.2 1.2-.1.4-.4.8-.8 1.2-.4.4-1 1-1.9 1.8-.7.6-1.2 1-1.4 1.3-.2.3-.4.4-.5.7h4.8z"
           id="path253" /></g><g
         id="g255"><path
           d="m2705.9 61.2 1.2-.2c.1.7.4 1.2.7 1.5.3.3.8.5 1.2.5.6 0 1.1-.2 1.5-.6.4-.4.6-.9.6-1.5s-.2-1-.6-1.4c-.4-.4-.8-.6-1.4-.6-.2 0-.5 0-.9.1l.1-1.1h.2c.5 0 1-.1 1.4-.4.4-.3.6-.7.6-1.3 0-.5-.2-.8-.5-1.1-.3-.3-.7-.4-1.2-.4s-.9.2-1.2.5c-.3.3-.5.8-.6 1.4l-1.2-.2c.2-.8.5-1.5 1-1.9.5-.4 1.2-.7 2-.7.5 0 1.1.1 1.5.4.4.3.8.6 1.1 1 .2.4.4.8.4 1.3 0 .4-.1.8-.3 1.2-.2.4-.6.6-1 .8.6.1 1.1.4 1.4.9.3.5.5 1 .5 1.6 0 .9-.3 1.6-1 2.2-.7.6-1.4.9-2.4.9-.9 0-1.6-.3-2.2-.8-.5-.6-.8-1.3-.9-2.1z"
           id="path257" /></g><path
         class="stASR-920-12SZ-IM16"
         id="polygon259"
         style="fill:#303030"
         d="m2621.6 51.6 7.6 13h-15.1z" /><path
         class="stASR-920-12SZ-IM16"
         id="polygon261"
         style="fill:#303030"
         d="m2636.4 65.6-7.5-13h15z" /><g
         id="g263"><path
           d="M2650.4 63.8v-2.4h-4.3v-1.1l4.6-6.5h1v6.5h1.4v1.1h-1.4v2.4h-1.3zm0-3.5v-4.5l-3.1 4.5h3.1z"
           id="path265" /></g><g
         id="g267"><path
           d="m2605.9 61.2 1.3-.1c.1.6.3 1.1.7 1.4.3.3.8.5 1.3.5.6 0 1.1-.2 1.5-.7.4-.5.6-1 .6-1.8 0-.7-.2-1.3-.6-1.7-.4-.4-.9-.6-1.5-.6-.4 0-.8.1-1.1.3-.3.2-.6.4-.8.7l-1.2-.2 1-5.1h5v1.2h-4l-.5 2.7c.6-.4 1.2-.6 1.9-.6.9 0 1.6.3 2.2.9.6.6.9 1.4.9 2.3 0 .9-.3 1.7-.8 2.4-.6.8-1.5 1.2-2.6 1.2-.9 0-1.7-.3-2.2-.8-.7-.5-1-1.1-1.1-2z"
           id="path269" /></g><g
         id="g271"><path
           d="m2532.4 34.3 4.7-12.2h1.7l5 12.2h-1.8l-1.4-3.7h-5.1l-1.3 3.7h-1.8zm3.5-5h4.1l-1.3-3.4c-.4-1-.7-1.9-.9-2.5-.2.8-.4 1.6-.7 2.3l-1.2 3.6z"
           id="path273" /><path
           d="m2545.4 30.4 1.5-.1c.1.6.2 1.1.5 1.5.3.4.7.7 1.2.9.6.2 1.2.4 1.9.4.6 0 1.2-.1 1.6-.3.4-.2.8-.4 1-.8.2-.3.3-.7.3-1 0-.4-.1-.7-.3-1-.2-.3-.6-.5-1.1-.7-.3-.1-1-.3-2.2-.6-1.1-.3-1.9-.5-2.3-.8-.6-.3-1-.7-1.3-1.1-.3-.5-.4-1-.4-1.5 0-.6.2-1.2.5-1.7s.9-.9 1.5-1.2c.7-.3 1.4-.4 2.2-.4.9 0 1.7.1 2.4.4.7.3 1.2.7 1.6 1.3.4.6.6 1.2.6 1.9l-1.5.1c-.1-.8-.4-1.4-.8-1.7-.4-.3-1.2-.6-2.1-.6-1 0-1.7.2-2.1.5-.4.4-.7.8-.7 1.3 0 .4.2.8.5 1.1.3.3 1.1.6 2.4.9 1.3.3 2.2.6 2.7.8.7.3 1.2.7 1.6 1.2.3.5.5 1.1.5 1.7 0 .6-.2 1.3-.6 1.8-.4.6-.9 1-1.6 1.3-.7.3-1.5.5-2.3.5-1.1 0-2-.2-2.8-.5-.8-.3-1.3-.8-1.8-1.4-.4-.6-.6-1.4-.6-2.2z"
           id="path275" /><path
           d="M2558.1 34.3V22.2h5.4c1.1 0 1.9.1 2.5.3.6.2 1 .6 1.4 1.2.4.6.5 1.2.5 1.8 0 .9-.3 1.6-.8 2.2-.5.6-1.4 1-2.6 1.1.4.2.8.4 1 .6.5.4.9 1 1.3 1.6l2.1 3.3h-2l-1.6-2.5c-.5-.7-.9-1.3-1.2-1.7-.3-.4-.6-.7-.8-.8-.2-.2-.5-.3-.7-.3-.2 0-.5-.1-.9-.1h-1.9v5.4h-1.7zm1.7-6.8h3.5c.7 0 1.3-.1 1.7-.2.4-.2.7-.4.9-.7.2-.3.3-.7.3-1.1 0-.6-.2-1-.6-1.4-.4-.4-1.1-.6-2-.6h-3.9v4z"
           id="path277" /><path
           d="m2570.9 31.5 1.4-.1c.1.7.4 1.2.7 1.5.3.3.8.5 1.3.5s.9-.1 1.2-.3c.3-.2.6-.5.9-.8.2-.4.4-.8.6-1.4.1-.6.2-1.2.2-1.8v-.3c-.3.5-.7.9-1.2 1.2-.5.3-1.1.4-1.7.4-1 0-1.9-.4-2.6-1.1-.7-.7-1-1.7-1-2.9s.4-2.2 1.1-3c.7-.8 1.6-1.1 2.7-1.1.8 0 1.5.2 2.2.6.7.4 1.2 1 1.5 1.8.3.8.5 1.9.5 3.4 0 1.6-.2 2.8-.5 3.7-.3.9-.8 1.6-1.5 2.1s-1.4.7-2.3.7c-1 0-1.7-.3-2.3-.8-.7-.6-1.1-1.3-1.2-2.3zm6.1-5.4c0-.9-.2-1.5-.7-2-.5-.5-1-.8-1.6-.8-.7 0-1.2.3-1.7.8s-.7 1.2-.7 2.1c0 .8.2 1.4.7 1.9.5.5 1 .7 1.7.7s1.3-.2 1.7-.7c.4-.4.6-1.1.6-2z"
           id="path279" /><path
           d="M2588.8 32.9v1.4h-8c0-.4 0-.7.2-1 .2-.5.5-1.1 1-1.6s1.1-1.1 2-1.8c1.3-1.1 2.2-1.9 2.7-2.6.5-.6.7-1.2.7-1.8 0-.6-.2-1.1-.6-1.5-.4-.4-1-.6-1.7-.6s-1.3.2-1.7.6c-.4.4-.7 1-.7 1.8l-1.5-.2c.1-1.1.5-2 1.2-2.6.7-.6 1.6-.9 2.8-.9 1.2 0 2.1.3 2.8 1 .7.7 1 1.4 1 2.4 0 .5-.1 1-.3 1.4-.2.4-.5 1-1 1.5s-1.2 1.2-2.3 2.1c-.9.8-1.5 1.3-1.7 1.5-.3.3-.5.5-.6.8h5.7z"
           id="path281" /><path
           d="M2591.3 28.3c0-1.4.1-2.6.4-3.5.3-.9.7-1.6 1.3-2 .6-.4 1.3-.7 2.2-.7.7 0 1.2.1 1.7.4.5.3.9.6 1.2 1.1.3.5.6 1.1.8 1.8.2.7.3 1.7.3 2.9 0 1.4-.1 2.6-.4 3.5-.3.9-.7 1.6-1.3 2-.6.5-1.3.7-2.2.7-1.2 0-2.1-.4-2.8-1.3-.8-.9-1.2-2.6-1.2-4.9zm1.5 0c0 2 .2 3.3.7 4 .5.7 1 1 1.7 1s1.3-.3 1.7-1c.4-.7.7-2 .7-4s-.2-3.3-.7-4c-.5-.7-1.1-1-1.7-1-.7 0-1.2.3-1.6.9-.6.8-.8 2.1-.8 4.1z"
           id="path283" /><path
           d="m2606.9 31.7 1.5-.2c.1.6.3 1 .7 1.4.4.4.9.5 1.6.5.7 0 1.2-.1 1.5-.4.3-.3.5-.6.5-1 0-.3-.1-.6-.4-.8-.2-.1-.7-.3-1.5-.5-1.1-.3-1.9-.5-2.3-.7-.4-.2-.7-.5-1-.8-.2-.4-.3-.8-.3-1.2 0-.4.1-.8.3-1.1.2-.3.4-.6.7-.8.2-.2.5-.3 1-.4.4-.1.8-.2 1.3-.2.7 0 1.3.1 1.8.3.5.2.9.5 1.2.8.2.3.4.8.5 1.4l-1.5.2c-.1-.5-.3-.8-.6-1.1-.3-.3-.8-.4-1.3-.4-.7 0-1.2.1-1.5.3-.3.2-.4.5-.4.8 0 .2.1.4.2.5.1.2.3.3.6.4.1.1.6.2 1.3.4 1.1.3 1.8.5 2.2.7.4.2.7.4 1 .8.3.4.4.8.4 1.3s-.1 1-.4 1.4c-.3.4-.7.8-1.3 1-.5.2-1.2.4-1.9.4-1.1 0-2-.2-2.6-.7-.6-.5-1.1-1.4-1.3-2.3z"
           id="path285" /><path
           d="m2622.9 31.5 1.5.2c-.2.9-.7 1.6-1.4 2.1s-1.5.7-2.5.7c-1.3 0-2.3-.4-3.1-1.2-.8-.8-1.1-1.9-1.1-3.3 0-1.5.4-2.6 1.1-3.5.7-.9 1.8-1.2 3-1.2s2.1.4 2.9 1.2c.7.8 1.1 1.9 1.1 3.4v.4h-6.6c.1 1 .3 1.7.8 2.2.5.5 1.1.8 1.8.8.5 0 1-.1 1.4-.4.6-.3.9-.8 1.1-1.4zm-4.9-2.4h4.9c-.1-.7-.3-1.3-.6-1.7-.5-.6-1.1-.9-1.9-.9-.7 0-1.3.2-1.7.7-.4.5-.6 1.1-.7 1.9z"
           id="path287" /><path
           d="M2627.2 34.3v-8.8h1.3v1.3c.3-.6.7-1 1-1.2.3-.2.6-.3 1-.3.5 0 1 .2 1.5.5l-.5 1.4c-.4-.2-.7-.3-1.1-.3-.3 0-.6.1-.9.3-.3.2-.4.5-.6.8-.2.5-.2 1.1-.2 1.7v4.6h-1.5z"
           id="path289" /><path
           d="M2633.7 23.9v-1.7h1.5v1.7h-1.5zm0 10.4v-8.8h1.5v8.8h-1.5z"
           id="path291" /><path
           d="m2644.4 31.5 1.5.2c-.2.9-.7 1.6-1.4 2.1s-1.5.7-2.5.7c-1.3 0-2.3-.4-3.1-1.2-.8-.8-1.1-1.9-1.1-3.3 0-1.5.4-2.6 1.1-3.5.7-.9 1.8-1.2 3-1.2s2.1.4 2.9 1.2c.7.8 1.1 1.9 1.1 3.4v.4h-6.6c.1 1 .3 1.7.8 2.2.5.5 1.1.8 1.8.8.5 0 1-.1 1.4-.4.5-.3.8-.8 1.1-1.4zm-4.9-2.4h4.9c-.1-.7-.3-1.3-.6-1.7-.5-.6-1.1-.9-1.9-.9-.7 0-1.3.2-1.7.7-.4.5-.7 1.1-.7 1.9z"
           id="path293" /><path
           d="m2648 31.7 1.5-.2c.1.6.3 1 .7 1.4.4.4.9.5 1.6.5.7 0 1.2-.1 1.5-.4.3-.3.5-.6.5-1 0-.3-.1-.6-.4-.8-.2-.1-.7-.3-1.5-.5-1.1-.3-1.9-.5-2.3-.7-.4-.2-.7-.5-1-.8-.2-.4-.3-.8-.3-1.2 0-.4.1-.8.3-1.1.2-.3.4-.6.7-.8.2-.2.5-.3 1-.4.4-.1.8-.2 1.3-.2.7 0 1.3.1 1.8.3.5.2.9.5 1.2.8.2.3.4.8.5 1.4l-1.5.2c-.1-.5-.3-.8-.6-1.1-.3-.3-.8-.4-1.3-.4-.7 0-1.2.1-1.5.3-.3.2-.4.5-.4.8 0 .2.1.4.2.5.1.2.3.3.6.4.1.1.6.2 1.3.4 1.1.3 1.8.5 2.2.7.4.2.7.4 1 .8.3.4.4.8.4 1.3s-.1 1-.4 1.4c-.3.4-.7.8-1.3 1-.5.2-1.2.4-1.9.4-1.1 0-2-.2-2.6-.7-.6-.5-1.1-1.4-1.3-2.3z"
           id="path295" /></g><path
         class="stASR-920-12SZ-IM16"
         id="polygon297"
         style="fill:#303030"
         d="m2524.1 51.6 7.6 13h-15.1z" /><path
         class="stASR-920-12SZ-IM16"
         id="polygon299"
         style="fill:#303030"
         d="m2538.9 65.6-7.5-13h15z" /><g
         id="g301"><path
           d="m2555.3 56.3-1.2.1c-.1-.5-.3-.8-.5-1.1-.3-.4-.7-.5-1.2-.5-.4 0-.7.1-1 .3-.4.3-.7.7-.9 1.2-.2.5-.3 1.3-.3 2.3.3-.5.7-.8 1.1-1 .4-.2.9-.3 1.3-.3.8 0 1.5.3 2.1.9.6.6.9 1.4.9 2.3 0 .6-.1 1.2-.4 1.8-.3.5-.6 1-1.1 1.2-.5.2-1 .4-1.6.4-1 0-1.9-.4-2.5-1.1-.6-.7-1-2-1-3.7 0-1.9.4-3.3 1.1-4.2.6-.8 1.5-1.1 2.5-1.1.8 0 1.4.2 1.9.7.4.4.7 1 .8 1.8zm-5 4.3c0 .4.1.8.3 1.2.2.4.4.7.8.9.4.2.7.3 1 .3.5 0 1-.2 1.3-.6.3-.4.6-1 .6-1.7s-.2-1.2-.6-1.6c-.4-.4-.8-.6-1.4-.6-.6 0-1 .2-1.4.6-.4.4-.6.8-.6 1.5z"
           id="path303" /></g><g
         id="g305"><path
           d="M2508.5 55.1v-1.2h6.5v1c-.6.7-1.3 1.6-1.9 2.7-.6 1.1-1.1 2.3-1.5 3.5-.2.8-.4 1.8-.5 2.8h-1.3c0-.8.2-1.7.5-2.9s.7-2.2 1.3-3.2c.6-1 1.1-1.9 1.8-2.6h-4.9z"
           id="path307" /></g><g
         id="g309"><path
           d="m2677.1 274.7 1.4-.1c.1.6.2 1 .5 1.4.3.4.6.7 1.2.9.6.2 1.1.3 1.8.3.6 0 1.1-.1 1.5-.3.4-.2.8-.4 1-.7.2-.3.3-.6.3-1s-.1-.7-.3-.9c-.2-.3-.6-.5-1-.7-.3-.1-1-.3-2-.6-1.1-.3-1.8-.5-2.2-.7-.5-.3-1-.6-1.2-1.1-.3-.4-.4-.9-.4-1.4 0-.6.2-1.1.5-1.6s.8-.9 1.4-1.1c.6-.3 1.3-.4 2.1-.4s1.6.1 2.2.4c.6.3 1.1.7 1.5 1.2.4.5.5 1.1.6 1.8l-1.5.1c-.1-.7-.3-1.3-.8-1.6-.5-.4-1.1-.6-2-.6-.9 0-1.6.2-2 .5-.4.3-.6.7-.6 1.2 0 .4.1.8.4 1 .3.3 1.1.5 2.3.8 1.2.3 2.1.5 2.5.7.7.3 1.2.7 1.5 1.2.3.5.5 1 .5 1.6 0 .6-.2 1.2-.5 1.7s-.9 1-1.5 1.3c-.7.3-1.4.4-2.2.4-1 0-1.9-.2-2.6-.5-.7-.3-1.2-.8-1.6-1.4-.5-.4-.7-1.1-.8-1.8z"
           id="path311" /><path
           d="M2692 278.3v-10.1h-3.8v-1.4h9.1v1.4h-3.8v10.1h-1.5z"
           id="path313" /><path
           d="m2697.2 278.3 4.4-11.5h1.6l4.7 11.5h-1.7l-1.3-3.5h-4.8l-1.3 3.5h-1.6zm3.4-4.7h3.9l-1.2-3.2c-.4-1-.6-1.8-.8-2.4-.1.7-.4 1.5-.6 2.2l-1.3 3.4z"
           id="path315" /><path
           d="M2711.7 278.3v-10.1h-3.8v-1.4h9.1v1.4h-3.8v10.1h-1.5z"
           id="path317" /></g><g
         id="g319"><path
           d="M2573.5 278.3v-11.5h4.3c.8 0 1.3 0 1.7.1.6.1 1 .3 1.4.5.4.3.7.6.9 1.1.2.5.3 1 .3 1.6 0 1-.3 1.8-.9 2.5-.6.7-1.7 1-3.4 1h-2.9v4.7h-1.4zm1.5-6h3c1 0 1.7-.2 2.1-.5.4-.4.6-.9.6-1.5 0-.5-.1-.9-.4-1.2-.2-.3-.6-.6-1-.7-.3-.1-.7-.1-1.4-.1h-2.9v4z"
           id="path321" /><path
           d="m2587 278.3-3-11.5h1.6l1.7 7.5c.2.8.3 1.6.5 2.3.3-1.2.5-1.9.5-2.1l2.2-7.7h1.8l1.6 5.8c.4 1.4.7 2.8.9 4.1.1-.7.3-1.6.6-2.5l1.8-7.4h1.5l-3.1 11.5h-1.5l-2.4-8.7c-.2-.7-.3-1.2-.4-1.3-.1.5-.2 1-.3 1.3l-2.4 8.7h-1.6z"
           id="path323" /><path
           d="M2600.9 278.3v-11.5h5.1c1 0 1.8.1 2.3.3.5.2 1 .6 1.3 1.1.3.5.5 1.1.5 1.7 0 .8-.3 1.5-.8 2.1-.5.6-1.3.9-2.4 1.1.4.2.7.4.9.6.4.4.9.9 1.3 1.5l2 3.1h-1.9l-1.5-2.4c-.4-.7-.8-1.2-1.1-1.6-.3-.4-.5-.6-.8-.8-.2-.1-.5-.2-.7-.3-.2 0-.5-.1-.8-.1h-1.8v5.1h-1.6zm1.5-6.4h3.3c.7 0 1.2-.1 1.6-.2.4-.1.7-.4.9-.7.2-.3.3-.7.3-1 0-.5-.2-1-.6-1.3-.4-.3-1-.5-1.9-.5h-3.6v3.7z"
           id="path325" /></g><g
         id="g327"><path
           d="M2466.9 273.3h-1.3v-8.4c-.3.3-.7.6-1.2.9-.5.3-1 .5-1.4.7v-1.3c.7-.3 1.4-.8 1.9-1.3s.9-1 1.2-1.4h.8v10.8z"
           id="path329" /><path
           d="M2476.6 269.1v-1.3h4.5v4c-.7.6-1.4 1-2.2 1.3-.7.3-1.5.4-2.3.4-1.1 0-2-.2-2.9-.7-.9-.5-1.5-1.1-2-2-.5-.9-.7-1.8-.7-2.9 0-1 .2-2 .7-2.9.4-.9 1.1-1.6 1.9-2 .8-.4 1.8-.7 2.8-.7.8 0 1.5.1 2.1.4.6.3 1.1.6 1.5 1.1.4.5.6 1 .8 1.8l-1.3.4c-.2-.5-.4-1-.6-1.3-.2-.3-.6-.6-1-.8-.4-.2-.9-.3-1.5-.3s-1.2.1-1.7.3c-.5.2-.9.5-1.1.8-.3.3-.5.7-.7 1.1-.3.7-.4 1.4-.4 2.2 0 1 .2 1.8.5 2.4.3.6.8 1.1 1.4 1.4.6.3 1.3.5 2 .5.6 0 1.2-.1 1.8-.4.6-.2 1-.5 1.3-.8v-2h-2.9z"
           id="path331" /><path
           d="M2456.3 288.3v-10.7h4c.7 0 1.3 0 1.6.1.5.1 1 .3 1.3.5.4.2.6.6.9 1 .2.4.3.9.3 1.5 0 .9-.3 1.7-.9 2.3-.6.6-1.6.9-3.1.9h-2.8v4.4h-1.3zm1.4-5.6h2.8c.9 0 1.6-.2 2-.5.4-.3.6-.8.6-1.4 0-.4-.1-.8-.3-1.2-.2-.3-.5-.5-.9-.6-.2-.1-.7-.1-1.3-.1h-2.7v3.8z"
           id="path333" /><path
           d="M2466.6 283.1c0-1.8.5-3.2 1.4-4.2 1-1 2.2-1.5 3.7-1.5 1 0 1.9.2 2.7.7.8.5 1.4 1.1 1.8 2 .4.8.6 1.8.6 2.9 0 1.1-.2 2.1-.7 2.9-.5.8-1.1 1.5-1.9 2-.8.4-1.7.7-2.6.7-1 0-1.9-.2-2.7-.7-.8-.5-1.4-1.2-1.8-2-.4-.8-.5-1.9-.5-2.8zm1.5 0c0 1.3.3 2.3 1 3.1.7.7 1.6 1.1 2.6 1.1 1.1 0 2-.4 2.6-1.1.7-.8 1-1.8 1-3.2 0-.9-.1-1.6-.4-2.3-.3-.7-.7-1.2-1.3-1.5-.6-.4-1.2-.5-1.9-.5-1 0-1.9.3-2.6 1-.7.7-1 1.8-1 3.4z"
           id="path335" /><path
           d="M2479.5 288.3v-10.7h7.8v1.3h-6.3v3.3h5.9v1.3h-5.9v3.7h6.6v1.3h-8.1z"
           id="path337" /></g></g><g
       id="g339"><path
         class="stASR-920-12SZ-IM19"
         id="rect341"
         style="clip-rule:evenodd;fill:#292929;fill-rule:evenodd"
         d="M2473.1 38.6h2.7v10.7h-2.7z" /><path
         class="stASR-920-12SZ-IM19"
         d="M2496.5 41.9s-.7-.7-2-.7-2.7 1.3-2.7 2.7c0 1.3.7 2.7 2.7 2.7 1.3 0 2-.7 2-.7v3.3h-2c-3.3 0-6-2-6-5.3s2.7-5.3 6-5.3h2v3.3z"
         id="path343"
         style="clip-rule:evenodd;fill:#292929;fill-rule:evenodd" /><path
         class="stASR-920-12SZ-IM19"
         d="M2469.1 41.9s-.7-.7-2-.7c-2 0-2.7 1.3-2.7 2.7 0 1.3.7 2.7 2.7 2.7 1.3 0 2-.7 2-.7v3.3h-2c-3.3 0-6-2-6-5.3s2.7-5.3 6-5.3h2v3.3z"
         id="path345"
         style="clip-rule:evenodd;fill:#292929;fill-rule:evenodd" /><path
         class="stASR-920-12SZ-IM19"
         d="M2510.5 43.9c0 2.7-2 5.3-5.3 5.3s-5.3-2.7-5.3-5.3c0-3.3 2-5.3 5.3-5.3s5.3 2 5.3 5.3zm-5.4-2.6c-2 0-2.7 1.3-2.7 2.7 0 1.3.7 2.7 2.7 2.7 1.3 0 2.7-1.3 2.7-2.7 0-1.4-1.3-2.7-2.7-2.7z"
         id="path347"
         style="clip-rule:evenodd;fill:#292929;fill-rule:evenodd" /><path
         class="stASR-920-12SZ-IM19"
         d="M2485.8 41.3c-.7 0-1.3-.7-2.7-.7-.7 0-1.3.7-1.3.7 0 .7.7 1.3 1.3 1.3h.7c1.3.7 2.7 2 2.7 3.3 0 2.7-2.7 3.3-4.7 3.3h-2.7v-2.7s1.3.7 2.7.7c1.3 0 1.3-.7 1.3-1.3 0-.6 0-.7-.7-.7s-.7-.7-.7-.7c-1.3 0-2.7-1.3-2.7-2.7 0-2 1.3-3.3 4-3.3h2.7v2.8h.1z"
         id="path349"
         style="clip-rule:evenodd;fill:#292929;fill-rule:evenodd" /><path
         class="stASR-920-12SZ-IM19"
         d="M2458.5 27.3c0-.7-.7-1.3-1.3-1.3-.7 0-1.3.7-1.3 1.3V30c0 .7.7 1.3 1.3 1.3.7 0 1.3-.7 1.3-1.3v-2.7z"
         id="path351"
         style="clip-rule:evenodd;fill:#292929;fill-rule:evenodd" /><path
         class="stASR-920-12SZ-IM19"
         d="M2465.8 23.9c0-.7-.7-1.3-1.3-1.3-.7 0-1.3.7-1.3 1.3v6c0 .7.7 1.3 1.3 1.3.7 0 1.3-.7 1.3-1.3v-6z"
         id="path353"
         style="clip-rule:evenodd;fill:#292929;fill-rule:evenodd" /><path
         class="stASR-920-12SZ-IM19"
         d="M2473.1 18.6c0-.7-.7-1.3-1.3-1.3-.6 0-1.3.7-1.3 1.3v14c0 .7.7 1.3 1.3 1.3.6 0 1.3-.7 1.3-1.3v-14z"
         id="path355"
         style="clip-rule:evenodd;fill:#292929;fill-rule:evenodd" /><path
         class="stASR-920-12SZ-IM19"
         d="M2479.8 23.9c0-.7-.7-1.3-1.3-1.3-.7 0-1.3.7-1.3 1.3v6c0 .7.7 1.3 1.3 1.3.7 0 1.3-.7 1.3-1.3v-6z"
         id="path357"
         style="clip-rule:evenodd;fill:#292929;fill-rule:evenodd" /><path
         class="stASR-920-12SZ-IM19"
         d="M2487.1 27.3c0-.7-.7-1.3-1.3-1.3-.7 0-1.3.7-1.3 1.3V30c0 .7.7 1.3 1.3 1.3.7 0 1.3-.7 1.3-1.3v-2.7z"
         id="path359"
         style="clip-rule:evenodd;fill:#292929;fill-rule:evenodd" /><path
         class="stASR-920-12SZ-IM19"
         d="M2494.5 23.9c0-.7-.7-1.3-1.3-1.3-.7 0-1.3.7-1.3 1.3v6c0 .7.7 1.3 1.3 1.3.7 0 1.3-.7 1.3-1.3v-6z"
         id="path361"
         style="clip-rule:evenodd;fill:#292929;fill-rule:evenodd" /><path
         class="stASR-920-12SZ-IM19"
         d="M2501.8 18.6c0-.7-.7-1.3-1.3-1.3-.6 0-1.3.7-1.3 1.3v14c0 .7.7 1.3 1.3 1.3.6 0 1.3-.7 1.3-1.3v-14z"
         id="path363"
         style="clip-rule:evenodd;fill:#292929;fill-rule:evenodd" /><path
         class="stASR-920-12SZ-IM19"
         d="M2508.5 23.9c0-.7 0-1.3-1.3-1.3-.7 0-1.3.7-1.3 1.3v6c0 .7.7 1.3 1.3 1.3 1.3 0 1.3-.7 1.3-1.3v-6z"
         id="path365"
         style="clip-rule:evenodd;fill:#292929;fill-rule:evenodd" /><path
         class="stASR-920-12SZ-IM19"
         d="M2515.8 27.3c0-.7-.7-1.3-1.3-1.3-.6 0-1.3.7-1.3 1.3V30c0 .7.7 1.3 1.3 1.3.6 0 1.3-.7 1.3-1.3v-2.7z"
         id="path367"
         style="clip-rule:evenodd;fill:#292929;fill-rule:evenodd" /></g><g
       id="g369"><path
         id="rect371"
         style="clip-rule:evenodd;fill:#cdc5be;fill-rule:evenodd;stroke:#000;stroke-miterlimit:10"
         d="M2312.5 182.3h113.3v86.3h-113.3z" /><g
         id="g373"><path
           class="stASR-920-12SZ-IM3"
           d="M2351 265.5V258c0-1.5-1.5-1.5-1.5-1.5h-3.5c-1.5 0-1.5-1.5-1.5-1.5v-10l-1.5-1.5h-17c-1.1 0-2-.9-2-2V192c0-1.1.9-2 2-2h89c1.1 0 2 .9 2 2v50c0 1.5-1.5 1.5-3 1.5h1.5-19c-1.5 0-1.5 1.5-1.5 1.5v10l-1.5 1.5h-4.5c-1.5 0-.5 0-.5 1.5v7.5H2351z"
           id="path375"
           data-cv-id="PORT-3"
           style="clip-rule:evenodd;fill-rule:evenodd" /><path
           class="stASR-920-12SZ-IM9"
           id="rect377"
           style="clip-rule:evenodd;fill:#856427;fill-rule:evenodd"
           d="M2393 194.5h4.5v7.5h-4.5z" /><path
           class="stASR-920-12SZ-IM9"
           id="rect379"
           style="clip-rule:evenodd;fill:#856427;fill-rule:evenodd"
           d="M2385.5 194.5h4.5v7.5h-4.5z" /><path
           class="stASR-920-12SZ-IM9"
           id="rect381"
           style="clip-rule:evenodd;fill:#856427;fill-rule:evenodd"
           d="M2370.5 194.5h4.5v7.5h-4.5z" /><path
           class="stASR-920-12SZ-IM9"
           id="rect383"
           style="clip-rule:evenodd;fill:#856427;fill-rule:evenodd"
           d="M2378 194.5h4.5v7.5h-4.5z" /><path
           class="stASR-920-12SZ-IM9"
           id="rect385"
           style="clip-rule:evenodd;fill:#856427;fill-rule:evenodd"
           d="M2363 194.5h6v7.5h-6z" /><path
           class="stASR-920-12SZ-IM9"
           id="rect387"
           style="clip-rule:evenodd;fill:#856427;fill-rule:evenodd"
           d="M2355.5 194.5h6v7.5h-6z" /><path
           class="stASR-920-12SZ-IM9"
           id="rect389"
           style="clip-rule:evenodd;fill:#856427;fill-rule:evenodd"
           d="M2348 194.5h6v7.5h-6z" /><path
           class="stASR-920-12SZ-IM9"
           id="rect391"
           style="clip-rule:evenodd;fill:#856427;fill-rule:evenodd"
           d="M2340.5 194.5h6v7.5h-6z" /></g><g
         id="g393"><path
           d="m2327.1 286.7 4.4-11.5h1.6l4.7 11.5h-1.7l-1.3-3.5h-4.8l-1.3 3.5h-1.6zm3.3-4.7h3.9l-1.2-3.2c-.4-1-.6-1.8-.8-2.4-.1.7-.4 1.5-.6 2.2l-1.3 3.4z"
           id="path395" /><path
           d="M2339.8 286.7v-11.5h1.5v10.1h5.6v1.4h-7.1z"
           id="path397" /><path
           d="m2348.3 286.7 4.4-11.5h1.6l4.7 11.5h-1.7l-1.3-3.5h-4.8l-1.3 3.5h-1.6zm3.3-4.7h3.9l-1.2-3.2c-.4-1-.6-1.8-.8-2.4-.1.7-.4 1.5-.6 2.2l-1.3 3.4z"
           id="path399" /><path
           d="M2361 286.7v-11.5h5.1c1 0 1.8.1 2.3.3.5.2 1 .6 1.3 1.1.3.5.5 1.1.5 1.7 0 .8-.3 1.5-.8 2.1-.5.6-1.3.9-2.4 1.1.4.2.7.4.9.6.4.4.9.9 1.3 1.5l2 3.1h-1.9l-1.5-2.4c-.4-.7-.8-1.2-1.1-1.6-.3-.4-.5-.6-.8-.8-.3-.2-.5-.2-.7-.3-.2 0-.5-.1-.8-.1h-1.8v5.1h-1.6zm1.6-6.4h3.3c.7 0 1.2-.1 1.6-.2.4-.1.7-.4.9-.7.2-.3.3-.7.3-1 0-.5-.2-1-.6-1.3-.4-.3-1-.5-1.9-.5h-3.6v3.7z"
           id="path401" /><path
           d="M2373.3 286.7v-11.5h2.3l2.7 8.1c.2.8.4 1.3.5 1.7.1-.4.3-1 .6-1.8l2.7-8h2v11.5h-1.5v-9.6l-3.3 9.6h-1.4l-3.3-9.8v9.8h-1.3z"
           id="path403" /><path
           d="M2393 286.7v-11.5h1.5v11.5h-1.5z"
           id="path405" /><path
           d="M2398 286.7v-11.5h1.6l6 9v-9h1.5v11.5h-1.6l-6-9v9h-1.5z"
           id="path407" /></g></g><g
       id="g409"><g
         id="g411"><path
           class="stASR-920-12SZ-IM21"
           id="rect413"
           style="fill:none;stroke:#999;stroke-miterlimit:10"
           d="M1432.8 182.3h410v71h-410z" /></g><g
         id="g415"><path
           class="stASR-920-12SZ-IM21"
           id="rect417"
           style="fill:none;stroke:#999;stroke-miterlimit:10"
           d="M1872.3 182.3h410v71h-410z" /></g><g
         id="g419"><g
           id="g421"><path
             d="M2251.1 271.3c-.6-.2-1-.5-1.3-.9-.3-.4-.4-.9-.4-1.4 0-.8.3-1.5.9-2.1.6-.6 1.4-.9 2.4-.9s1.8.3 2.4.9c.6.6.9 1.3.9 2.1 0 .5-.1 1-.4 1.4-.3.4-.7.7-1.3.9.7.2 1.2.6 1.6 1.1.4.5.6 1.1.6 1.8 0 1-.3 1.8-1 2.5s-1.6 1-2.7 1-2-.3-2.7-1c-.7-.7-1-1.5-1-2.5 0-.7.2-1.4.6-1.9.2-.5.7-.9 1.4-1zm-.7 2.9c0 .4.1.8.3 1.2.2.4.5.7.8.9.4.2.8.3 1.2.3.7 0 1.2-.2 1.7-.6.4-.4.7-1 .7-1.6 0-.7-.2-1.2-.7-1.7-.5-.4-1-.7-1.7-.7s-1.2.2-1.6.7c-.4.5-.7.8-.7 1.5zm.4-5.3c0 .5.2 1 .5 1.3.3.3.8.5 1.4.5.5 0 1-.2 1.3-.5.3-.3.5-.8.5-1.3s-.2-.9-.5-1.3-.8-.5-1.3-.5-1 .2-1.3.5c-.3.3-.6.8-.6 1.3z"
             id="path423" /></g><circle
           class="stASR-920-12SZ-IM18"
           cx="2226.8"
           cy="273.3"
           r="9"
           id="circle425"
           style="fill:#cdc5be;stroke:#303030;stroke-miterlimit:10" /><g
           id="g427"><path
             d="m2149.2 274.8 1.4-.1c.1.6.3 1.1.7 1.4.3.3.7.4 1.2.4.4 0 .8-.1 1.1-.3.3-.2.6-.5.8-.8.2-.3.4-.8.5-1.3.1-.5.2-1.1.2-1.7v-.3c-.3.4-.7.8-1.2 1.1-.5.3-1 .4-1.6.4-.9 0-1.8-.3-2.4-1-.6-.7-1-1.6-1-2.7 0-1.2.3-2.1 1-2.8.7-.7 1.5-1.1 2.6-1.1.7 0 1.4.2 2 .6.6.4 1.1 1 1.4 1.7.3.7.5 1.8.5 3.2 0 1.5-.2 2.6-.5 3.5-.3.9-.8 1.5-1.4 2-.6.5-1.4.7-2.2.7-.9 0-1.6-.2-2.2-.7-.5-.6-.8-1.3-.9-2.2zm5.7-5c0-.8-.2-1.4-.6-1.9-.4-.5-.9-.7-1.6-.7-.6 0-1.2.3-1.6.8-.5.5-.7 1.2-.7 2 0 .7.2 1.3.7 1.8.4.5 1 .7 1.6.7.7 0 1.2-.2 1.6-.7.4-.6.6-1.2.6-2z"
             id="path429" /></g><circle
           class="stASR-920-12SZ-IM18"
           cx="2126.8"
           cy="273.3"
           r="9"
           id="circle431"
           style="fill:#cdc5be;stroke:#303030;stroke-miterlimit:10" /><g
           id="g433"><path
             d="M2049.4 277.5h-1.4v-9c-.3.3-.8.6-1.3 1-.5.3-1 .6-1.5.7v-1.4c.8-.4 1.5-.8 2.1-1.3.6-.5 1-1 1.2-1.5h.9v11.5z"
             id="path435" /><path
             d="M2053.8 271.8c0-1.4.1-2.4.4-3.3.3-.8.7-1.5 1.2-1.9.5-.4 1.2-.7 2.1-.7.6 0 1.2.1 1.6.4.5.2.8.6 1.1 1.1.3.5.5 1 .7 1.7.2.7.3 1.6.3 2.7 0 1.3-.1 2.4-.4 3.3-.3.8-.7 1.5-1.2 1.9-.5.5-1.2.7-2.1.7-1.1 0-2-.4-2.6-1.2-.7-1-1.1-2.5-1.1-4.7zm1.4 0c0 1.9.2 3.1.7 3.8.4.6 1 .9 1.6.9.6 0 1.2-.3 1.6-.9.4-.6.7-1.9.7-3.8s-.2-3.1-.7-3.8c-.4-.6-1-.9-1.6-.9-.6 0-1.2.3-1.5.8-.5.8-.8 2-.8 3.9z"
             id="path437" /></g><circle
           class="stASR-920-12SZ-IM18"
           cx="2026.8"
           cy="273.3"
           r="9"
           id="circle439"
           style="fill:#cdc5be;stroke:#303030;stroke-miterlimit:10" /><g
           id="g441"><path
             d="M1949 277.5h-1.4v-9c-.3.3-.8.6-1.3 1-.5.3-1 .6-1.5.7v-1.4c.8-.4 1.5-.8 2.1-1.3.6-.5 1-1 1.2-1.5h.9v11.5z"
             id="path443" /><path
             d="M1957.5 277.5h-1.4v-9c-.3.3-.8.6-1.3 1-.5.3-1 .6-1.5.7v-1.4c.8-.4 1.5-.8 2.1-1.3.6-.5 1-1 1.2-1.5h.9v11.5z"
             id="path445" /></g><g
           id="g447"><path
             d="M1866.6 273.5h-1.4v-9c-.3.3-.8.6-1.3 1-.5.3-1 .6-1.5.7v-1.4c.8-.4 1.5-.8 2.1-1.3.6-.5 1-1 1.2-1.5h.9v11.5z"
             id="path449" /><path
             d="M1876.9 269v-1.3h4.9v4.2c-.7.6-1.5 1-2.3 1.3-.8.3-1.6.4-2.4.4-1.1 0-2.1-.2-3.1-.7-.9-.5-1.6-1.2-2.1-2.1-.5-.9-.7-1.9-.7-3.1 0-1.1.2-2.2.7-3.1.5-1 1.1-1.7 2-2.2.9-.5 1.9-.7 3-.7.8 0 1.6.1 2.2.4.7.3 1.2.6 1.6 1.1.4.5.7 1.1.9 1.9l-1.4.4c-.2-.6-.4-1-.6-1.4-.3-.3-.6-.6-1.1-.8-.5-.2-1-.3-1.6-.3-.7 0-1.3.1-1.8.3-.5.2-.9.5-1.2.8-.3.3-.6.7-.7 1.1-.3.7-.4 1.5-.4 2.3 0 1 .2 1.9.5 2.6.3.7.9 1.2 1.5 1.5.7.3 1.4.5 2.1.5.7 0 1.3-.1 1.9-.4.6-.3 1.1-.5 1.4-.8V269h-3.3z"
             id="path451" /><path
             d="m1856.2 284.8 1.4-.1c.1.6.2 1 .5 1.4.3.4.6.7 1.2.9.6.2 1.1.3 1.8.3.6 0 1.1-.1 1.5-.3.4-.2.8-.4 1-.7.2-.3.3-.6.3-1s-.1-.7-.3-.9c-.2-.3-.6-.5-1-.7-.3-.1-1-.3-2-.6-1.1-.3-1.8-.5-2.2-.7-.5-.3-1-.6-1.2-1.1-.3-.4-.4-.9-.4-1.4 0-.6.2-1.1.5-1.6s.8-.9 1.4-1.1c.6-.3 1.3-.4 2.1-.4s1.6.1 2.2.4c.6.3 1.1.7 1.5 1.2.4.5.5 1.1.6 1.8l-1.5.1c-.1-.7-.3-1.3-.8-1.6-.5-.4-1.1-.6-2-.6-.9 0-1.6.2-2 .5-.4.3-.6.7-.6 1.2 0 .4.1.8.4 1 .3.3 1.1.5 2.3.8 1.2.3 2.1.5 2.5.7.7.3 1.2.7 1.5 1.2.3.5.5 1 .5 1.6 0 .6-.2 1.2-.5 1.7s-.9 1-1.5 1.3c-.7.3-1.4.4-2.2.4-1 0-1.9-.2-2.6-.5-.7-.3-1.2-.8-1.6-1.4-.5-.4-.7-1-.8-1.8z"
             id="path453" /><path
             d="M1868.3 288.5V277h7.7v1.4h-6.2v3.5h5.4v1.4h-5.4v5.2h-1.5z"
             id="path455" /><path
             d="M1878.8 288.5V277h4.3c.8 0 1.3 0 1.7.1.6.1 1 .3 1.4.5.4.3.7.6.9 1.1.2.5.3 1 .3 1.6 0 1-.3 1.8-.9 2.5-.6.7-1.7 1-3.4 1h-2.9v4.7h-1.4zm1.5-6h3c1 0 1.7-.2 2.1-.5.4-.4.6-.9.6-1.5 0-.5-.1-.9-.4-1.2-.2-.3-.6-.6-1-.7-.3-.1-.7-.1-1.4-.1h-2.9v4z"
             id="path457" /></g><g
           id="g459"><path
             d="M1422.8 273.5h-1.4v-9c-.3.3-.8.6-1.3 1-.5.3-1 .6-1.5.7v-1.4c.8-.4 1.5-.8 2.1-1.3.6-.5 1-1 1.2-1.5h.9v11.5z"
             id="path461" /><path
             d="M1427.2 267.8c0-1.4.1-2.4.4-3.3.3-.8.7-1.5 1.2-1.9.5-.4 1.2-.7 2.1-.7.6 0 1.2.1 1.6.4.5.2.8.6 1.1 1.1.3.5.5 1 .7 1.7.2.7.3 1.6.3 2.7 0 1.3-.1 2.4-.4 3.3-.3.8-.7 1.5-1.2 1.9-.5.5-1.2.7-2.1.7-1.1 0-2-.4-2.6-1.2-.8-1-1.1-2.5-1.1-4.7zm1.4 0c0 1.9.2 3.1.7 3.8.4.6 1 .9 1.6.9.6 0 1.2-.3 1.6-.9.4-.6.7-1.9.7-3.8s-.2-3.1-.7-3.8c-.4-.6-1-.9-1.6-.9-.6 0-1.2.3-1.5.8-.5.8-.8 2-.8 3.9z"
             id="path463" /><path
             d="M1442.8 269v-1.3h4.9v4.2c-.7.6-1.5 1-2.3 1.3-.8.3-1.6.4-2.4.4-1.1 0-2.1-.2-3.1-.7-.9-.5-1.6-1.2-2.1-2.1-.5-.9-.7-1.9-.7-3.1 0-1.1.2-2.2.7-3.1.5-1 1.1-1.7 2-2.2.9-.5 1.9-.7 3-.7.8 0 1.6.1 2.2.4.7.3 1.2.6 1.6 1.1.4.5.7 1.1.9 1.9l-1.4.4c-.2-.6-.4-1-.6-1.4-.3-.3-.6-.6-1.1-.8-.5-.2-1-.3-1.6-.3-.7 0-1.3.1-1.8.3-.5.2-.9.5-1.2.8-.3.3-.6.7-.7 1.1-.3.7-.4 1.5-.4 2.3 0 1 .2 1.9.5 2.6.3.7.9 1.2 1.5 1.5.7.3 1.4.5 2.1.5.7 0 1.3-.1 1.9-.4.6-.3 1.1-.5 1.4-.8V269h-3.3z"
             id="path465" /><path
             d="m1412 284.8 1.4-.1c.1.6.2 1 .5 1.4.3.4.6.7 1.2.9.6.2 1.1.3 1.8.3.6 0 1.1-.1 1.5-.3.4-.2.8-.4 1-.7.2-.3.3-.6.3-1s-.1-.7-.3-.9c-.2-.3-.6-.5-1-.7-.3-.1-1-.3-2-.6-1.1-.3-1.8-.5-2.2-.7-.5-.3-1-.6-1.2-1.1-.3-.4-.4-.9-.4-1.4 0-.6.2-1.1.5-1.6s.8-.9 1.4-1.1c.6-.3 1.3-.4 2.1-.4s1.6.1 2.2.4c.6.3 1.1.7 1.5 1.2.4.5.5 1.1.6 1.8l-1.5.1c-.1-.7-.3-1.3-.8-1.6-.5-.4-1.1-.6-2-.6-.9 0-1.6.2-2 .5-.4.3-.6.7-.6 1.2 0 .4.1.8.4 1 .3.3 1.1.5 2.3.8 1.2.3 2.1.5 2.5.7.7.3 1.2.7 1.5 1.2.3.5.5 1 .5 1.6 0 .6-.2 1.2-.5 1.7s-.9 1-1.5 1.3c-.7.3-1.4.4-2.2.4-1 0-1.9-.2-2.6-.5-.7-.3-1.2-.8-1.6-1.4-.6-.4-.8-1-.8-1.8z"
             id="path467" /><path
             d="M1424.1 288.5V277h7.7v1.4h-6.2v3.5h5.4v1.4h-5.4v5.2h-1.5z"
             id="path469" /><path
             d="M1434.6 288.5V277h4.3c.8 0 1.3 0 1.7.1.6.1 1 .3 1.4.5.4.3.7.6.9 1.1.2.5.3 1 .3 1.6 0 1-.3 1.8-.9 2.5-.6.7-1.7 1-3.4 1h-2.9v4.7h-1.4zm1.5-6h3c1 0 1.7-.2 2.1-.5.4-.4.6-.9.6-1.5 0-.5-.1-.9-.4-1.2-.2-.3-.6-.6-1-.7-.3-.1-.7-.1-1.4-.1h-2.9v4z"
             id="path471" /><path
             d="M1448.8 286.6v-3.1h-3.1v-1.3h3.1v-3.1h1.3v3.1h3.1v1.3h-3.1v3.1h-1.3z"
             id="path473" /></g><circle
           class="stASR-920-12SZ-IM18"
           cx="1925.8"
           cy="273.3"
           r="9"
           id="circle475"
           style="fill:#cdc5be;stroke:#303030;stroke-miterlimit:10" /><g
           id="g477"><path
             d="M1805.3 277.5h-1.4v-9c-.3.3-.8.6-1.3 1-.5.3-1 .6-1.5.7v-1.4c.8-.4 1.5-.8 2.1-1.3.6-.5 1-1 1.2-1.5h.9v11.5z"
             id="path479" /><path
             d="M1817.1 276.1v1.4h-7.6c0-.3 0-.7.2-1 .2-.5.5-1 .9-1.5s1-1.1 1.8-1.7c1.2-1 2.1-1.8 2.5-2.4.4-.6.7-1.2.7-1.7 0-.6-.2-1-.6-1.4-.4-.4-.9-.6-1.6-.6-.7 0-1.2.2-1.6.6-.4.4-.6 1-.6 1.7l-1.4-.1c.1-1.1.5-1.9 1.1-2.5.6-.6 1.5-.8 2.6-.8s2 .3 2.6.9c.6.6 1 1.4 1 2.3 0 .5-.1.9-.3 1.4-.2.4-.5.9-.9 1.4-.4.5-1.2 1.2-2.2 2-.8.7-1.4 1.2-1.6 1.4-.2.3-.4.5-.6.8h5.6z"
             id="path481" /><path
             d="M1822.8 275.6v-3.1h-3.1v-1.3h3.1v-3.1h1.3v3.1h3.1v1.3h-3.1v3.1h-1.3z"
             id="path483" /></g><circle
           class="stASR-920-12SZ-IM18"
           cx="1787.8"
           cy="273.3"
           r="9"
           id="circle485"
           style="fill:#cdc5be;stroke:#303030;stroke-miterlimit:10" /><g
           id="g487"><path
             d="M1706.3 277.5h-1.4v-9c-.3.3-.8.6-1.3 1-.5.3-1 .6-1.5.7v-1.4c.8-.4 1.5-.8 2.1-1.3.6-.5 1-1 1.2-1.5h.9v11.5z"
             id="path489" /><path
             d="m1710.7 274.5 1.4-.2c.2.8.4 1.4.8 1.7.4.3.9.5 1.4.5.7 0 1.2-.2 1.7-.7.5-.5.7-1 .7-1.7 0-.6-.2-1.2-.6-1.6-.4-.4-1-.6-1.6-.6-.3 0-.6.1-1 .2l.2-1.2h.2c.6 0 1.1-.2 1.6-.5s.7-.8.7-1.4c0-.5-.2-.9-.5-1.3-.3-.3-.8-.5-1.4-.5-.5 0-1 .2-1.4.5-.4.3-.6.9-.7 1.5l-1.4-.2c.2-.9.6-1.7 1.2-2.2.6-.5 1.4-.8 2.3-.8.6 0 1.2.1 1.7.4.5.3.9.6 1.2 1.1.3.5.4 1 .4 1.5s-.1.9-.4 1.4c-.3.5-.7.7-1.2 1 .7.2 1.2.5 1.6 1 .4.5.6 1.1.6 1.8 0 1-.4 1.8-1.1 2.5-.7.7-1.7 1-2.8 1-1 0-1.8-.3-2.5-.9-.6-.6-1-1.4-1.1-2.3z"
             id="path491" /><path
             d="M1723.8 275.6v-3.1h-3.1v-1.3h3.1v-3.1h1.3v3.1h3.1v1.3h-3.1v3.1h-1.3z"
             id="path493" /></g><circle
           class="stASR-920-12SZ-IM18"
           cx="1688.8"
           cy="273.3"
           r="9"
           id="circle495"
           style="fill:#cdc5be;stroke:#303030;stroke-miterlimit:10" /><g
           id="g497"><path
             d="M1605.3 277.5h-1.4v-9c-.3.3-.8.6-1.3 1-.5.3-1 .6-1.5.7v-1.4c.8-.4 1.5-.8 2.1-1.3.6-.5 1-1 1.2-1.5h.9v11.5z"
             id="path499" /><path
             d="M1614.2 277.5v-2.7h-5v-1.3l5.2-7.4h1.1v7.4h1.5v1.3h-1.5v2.7h-1.3zm0-4.1v-5.2l-3.6 5.2h3.6z"
             id="path501" /><path
             d="M1622.8 275.6v-3.1h-3.1v-1.3h3.1v-3.1h1.3v3.1h3.1v1.3h-3.1v3.1h-1.3z"
             id="path503" /></g><circle
           class="stASR-920-12SZ-IM18"
           cx="1587.8"
           cy="273.3"
           r="9"
           id="circle505"
           style="fill:#cdc5be;stroke:#303030;stroke-miterlimit:10" /><g
           id="g507"><path
             d="M1505.3 277.5h-1.4v-9c-.3.3-.8.6-1.3 1-.5.3-1 .6-1.5.7v-1.4c.8-.4 1.5-.8 2.1-1.3.6-.5 1-1 1.2-1.5h.9v11.5z"
             id="path509" /><path
             d="m1509.7 274.5 1.5-.1c.1.7.4 1.3.8 1.6.4.4.9.5 1.4.5.7 0 1.2-.3 1.7-.8s.7-1.2.7-2-.2-1.4-.7-1.9c-.5-.5-1-.7-1.8-.7-.5 0-.9.1-1.2.3-.4.2-.7.5-.9.8l-1.3-.2 1.1-5.9h5.7v1.3h-4.6l-.6 3.1c.7-.5 1.4-.7 2.2-.7 1 0 1.8.3 2.5 1s1 1.6 1 2.7c0 1-.3 1.9-.9 2.7-.7.9-1.7 1.4-3 1.4-1 0-1.9-.3-2.6-.9-.5-.5-.9-1.3-1-2.2z"
             id="path511" /><path
             d="M1522.8 275.6v-3.1h-3.1v-1.3h3.1v-3.1h1.3v3.1h3.1v1.3h-3.1v3.1h-1.3z"
             id="path513" /></g><circle
           class="stASR-920-12SZ-IM18"
           cx="1487.8"
           cy="273.3"
           r="9"
           id="circle515"
           style="fill:#cdc5be;stroke:#303030;stroke-miterlimit:10" /></g></g><g
       id="g517"><path
         class="stASR-920-12SZ-IM22"
         d="M1291 249.7c-13.8 0-25-11.2-25-25s11.2-25 25-25 25 11.2 25 25-11.2 25-25 25z"
         id="path519"
         style="fill:#888" /><path
         class="stASR-920-12SZ-IM23"
         d="M1291 245.9c-11.7 0-21.2-9.5-21.2-21.2s9.5-21.2 21.2-21.2 21.2 9.5 21.2 21.2-9.5 21.2-21.2 21.2z"
         id="path521"
         style="fill:#7f7f7f" /><path
         class="stASR-920-12SZ-IM24"
         d="M1291 243.9c-10.6 0-19.2-8.6-19.2-19.2s8.6-19.2 19.2-19.2 19.2 8.6 19.2 19.2c-.1 10.6-8.7 19.2-19.2 19.2z"
         id="path523"
         style="fill:#cdc5be" /><path
         class="stASR-920-12SZ-IM25"
         d="M1291 237.9c-7.3 0-13.2-5.9-13.2-13.2 0-7.3 5.9-13.2 13.2-13.2 7.3 0 13.2 5.9 13.2 13.2 0 7.3-6 13.2-13.2 13.2z"
         id="path525"
         style="fill:#4d4d4d" /><path
         class="stASR-920-12SZ-IM16"
         d="M1291 235.9c-6.2 0-11.2-5-11.2-11.2 0-6.2 5-11.2 11.2-11.2 6.2 0 11.2 5 11.2 11.2-.1 6.2-5.1 11.2-11.2 11.2z"
         id="path527"
         style="fill:#303030" /><circle
         cx="1291"
         cy="224.7"
         r="3.2"
         id="circle529" /><g
         id="g531"><path
           class="stASR-920-12SZ-IM26"
           id="rect533"
           style="fill:#bfbfbf"
           d="M1285.6 200.2h10.7v5h-10.7z" /><path
           class="stASR-920-12SZ-IM26"
           id="rect535"
           style="fill:#bfbfbf"
           d="M1285.6 243.9h10.7v5h-10.7z" /></g><g
         id="g537"><path
           transform="rotate(90 1312.813 224.58)"
           class="stASR-920-12SZ-IM26"
           id="rect539"
           style="fill:#bfbfbf"
           d="M1307.5 222.1h10.7v5h-10.7z" /><path
           transform="rotate(90 1269.146 224.58)"
           class="stASR-920-12SZ-IM26"
           id="rect541"
           style="fill:#bfbfbf"
           d="M1263.8 222.1h10.7v5h-10.7z" /></g></g><g
       id="g543"><path
         class="stASR-920-12SZ-IM22"
         d="M1374 249.7c-13.8 0-25-11.2-25-25s11.2-25 25-25 25 11.2 25 25-11.2 25-25 25z"
         id="path545"
         style="fill:#888" /><path
         class="stASR-920-12SZ-IM23"
         d="M1374 245.9c-11.7 0-21.2-9.5-21.2-21.2s9.5-21.2 21.2-21.2 21.2 9.5 21.2 21.2-9.5 21.2-21.2 21.2z"
         id="path547"
         style="fill:#7f7f7f" /><path
         class="stASR-920-12SZ-IM24"
         d="M1374 243.9c-10.6 0-19.2-8.6-19.2-19.2s8.6-19.2 19.2-19.2 19.2 8.6 19.2 19.2c-.1 10.6-8.7 19.2-19.2 19.2z"
         id="path549"
         style="fill:#cdc5be" /><path
         class="stASR-920-12SZ-IM25"
         d="M1374 237.9c-7.3 0-13.2-5.9-13.2-13.2 0-7.3 5.9-13.2 13.2-13.2 7.3 0 13.2 5.9 13.2 13.2 0 7.3-6 13.2-13.2 13.2z"
         id="path551"
         style="fill:#4d4d4d" /><path
         class="stASR-920-12SZ-IM16"
         d="M1374 235.9c-6.2 0-11.2-5-11.2-11.2 0-6.2 5-11.2 11.2-11.2 6.2 0 11.2 5 11.2 11.2-.1 6.2-5.1 11.2-11.2 11.2z"
         id="path553"
         style="fill:#303030" /><circle
         cx="1374"
         cy="224.7"
         r="3.2"
         id="circle555" /><g
         id="g557"><path
           class="stASR-920-12SZ-IM26"
           id="rect559"
           style="fill:#bfbfbf"
           d="M1368.6 200.2h10.7v5h-10.7z" /><path
           class="stASR-920-12SZ-IM26"
           id="rect561"
           style="fill:#bfbfbf"
           d="M1368.6 243.9h10.7v5h-10.7z" /></g><g
         id="g563"><path
           transform="rotate(90 1395.813 224.58)"
           class="stASR-920-12SZ-IM26"
           id="rect565"
           style="fill:#bfbfbf"
           d="M1390.5 222.1h10.7v5h-10.7z" /><path
           transform="rotate(90 1352.146 224.58)"
           class="stASR-920-12SZ-IM26"
           id="rect567"
           style="fill:#bfbfbf"
           d="M1346.8 222.1h10.7v5h-10.7z" /></g></g><g
       id="g569"><path
         d="M1354.1 274.8h-1.4v-9c-.3.3-.8.6-1.3 1s-1 .6-1.5.7v-1.4c.8-.4 1.5-.8 2.1-1.3.6-.5 1-1 1.2-1.5h.9v11.5z"
         id="path571" /><path
         d="M1364.3 274.8v-11.5h4.3c.8 0 1.3 0 1.7.1.6.1 1 .3 1.4.5.4.2.7.6.9 1.1.2.5.3 1 .3 1.6 0 1-.3 1.8-.9 2.5-.6.7-1.7 1-3.4 1h-2.9v4.7h-1.4zm1.5-6h3c1 0 1.7-.2 2.1-.5.4-.3.6-.9.6-1.5 0-.5-.1-.9-.4-1.2-.3-.3-.6-.6-1-.7-.3-.1-.7-.1-1.4-.1h-2.9v4z"
         id="path573" /><path
         d="M1375.8 274.8v-11.5h4.3c.8 0 1.3 0 1.7.1.6.1 1 .3 1.4.5.4.2.7.6.9 1.1.2.5.3 1 .3 1.6 0 1-.3 1.8-.9 2.5-.6.7-1.7 1-3.4 1h-2.9v4.7h-1.4zm1.5-6h3c1 0 1.7-.2 2.1-.5.4-.3.6-.9.6-1.5 0-.5-.1-.9-.4-1.2-.3-.3-.6-.6-1-.7-.3-.1-.7-.1-1.4-.1h-2.9v4z"
         id="path575" /><path
         d="m1386.7 271.1 1.4-.1c.1.6.2 1 .5 1.4.3.4.6.7 1.2.9.6.2 1.1.3 1.8.3.6 0 1.1-.1 1.5-.3.4-.2.8-.4 1-.7.2-.3.3-.6.3-1s-.1-.7-.3-.9c-.2-.2-.6-.5-1-.7-.3-.1-1-.3-2-.6s-1.8-.5-2.2-.7c-.5-.3-1-.6-1.2-1.1-.2-.5-.4-.9-.4-1.4 0-.6.2-1.1.5-1.6s.8-.9 1.4-1.1c.6-.2 1.3-.4 2.1-.4s1.6.1 2.2.4c.6.3 1.1.7 1.5 1.2.4.5.5 1.1.6 1.8l-1.5.1c-.1-.7-.3-1.3-.8-1.6-.5-.3-1.1-.6-2-.6-.9 0-1.6.2-2 .5-.4.3-.6.7-.6 1.2 0 .4.1.8.4 1 .3.3 1.1.5 2.3.8 1.2.3 2.1.5 2.5.7.7.3 1.2.7 1.5 1.2.3.5.5 1 .5 1.6 0 .6-.2 1.2-.5 1.7s-.9 1-1.5 1.3c-.7.3-1.4.4-2.2.4-1 0-1.9-.2-2.6-.5-.7-.3-1.2-.8-1.6-1.4-.4-.6-.8-1-.8-1.8z"
         id="path577" /><path
         d="M1364.9 289.8v-8.6h1.1v8.6h-1.1z"
         id="path579" /><path
         d="m1367.7 289.9 2.5-8.9h.8l-2.5 8.9h-.8z"
         id="path581" /><path
         d="M1372.2 285.6c0-1.4.4-2.5 1.1-3.3.7-.8 1.8-1.2 3-1.2.8 0 1.5.2 2.1.6.6.4 1.1.9 1.5 1.6.4.7.5 1.4.5 2.3 0 .9-.2 1.7-.5 2.3-.3.6-.8 1.2-1.5 1.6-.7.4-1.3.5-2.1.5s-1.5-.2-2.2-.6c-.7-.4-1.1-.9-1.4-1.6-.3-.7-.5-1.5-.5-2.2zm1.2 0c0 1 .3 1.9.8 2.4s1.3.9 2.1.9c.9 0 1.6-.3 2.1-.9.5-.6.8-1.5.8-2.6 0-.7-.1-1.3-.4-1.8-.3-.5-.6-.9-1-1.2-.4-.3-1-.4-1.5-.4-.8 0-1.5.3-2.1.8-.6.5-.8 1.5-.8 2.8z"
         id="path583" /></g><g
       id="g585"><path
         d="M1270.1 274.8h-1.4v-9c-.3.3-.8.6-1.3 1s-1 .6-1.5.7v-1.4c.8-.4 1.5-.8 2.1-1.3.6-.5 1-1 1.2-1.5h.9v11.5z"
         id="path587" /><path
         d="M1274.5 269.1c0-1.4.1-2.4.4-3.3.3-.9.7-1.5 1.2-1.9.5-.4 1.2-.7 2.1-.7.6 0 1.2.1 1.6.4.4.3.8.6 1.1 1.1.3.5.5 1 .7 1.7.2.7.3 1.6.3 2.7 0 1.3-.1 2.4-.4 3.3-.3.9-.7 1.5-1.2 1.9-.5.4-1.2.7-2.1.7-1.1 0-2-.4-2.6-1.2-.7-1-1.1-2.5-1.1-4.7zm1.4 0c0 1.9.2 3.1.7 3.8.5.7 1 .9 1.6.9.6 0 1.2-.3 1.6-.9.4-.6.7-1.9.7-3.8s-.2-3.1-.7-3.8c-.5-.7-1-.9-1.6-.9-.6 0-1.2.3-1.5.8-.5.8-.8 2-.8 3.9z"
         id="path589" /><path
         d="M1284.7 274.8v-11.5h2.3l2.7 8.1c.2.8.4 1.3.5 1.7.1-.4.3-1 .6-1.8l2.7-8h2v11.5h-1.5v-9.6l-3.3 9.6h-1.4l-3.3-9.8v9.8h-1.3z"
         id="path591" /><path
         d="M1298.7 274.8v-11.5h1.4v4.1c.7-.8 1.5-1.1 2.5-1.1.6 0 1.1.1 1.6.4.5.3.8.6 1 1 .2.4.3 1 .3 1.9v5.3h-1.4v-5.3c0-.7-.2-1.2-.5-1.5-.3-.3-.7-.5-1.3-.5-.4 0-.8.1-1.2.3-.4.2-.6.5-.8.9-.2.4-.2.9-.2 1.5v4.5h-1.4z"
         id="path593" /><path
         d="M1307.7 274.8v-1.1l5.3-6.1h-5v-1.1h6.8v.9l-4.5 5.3-.9 1c.6 0 1.2-.1 1.8-.1h3.8v1.2h-7.3z"
         id="path595" /><path
         d="M1282.2 289.8v-8.6h1.1v8.6h-1.1z"
         id="path597" /><path
         d="m1285.1 289.9 2.5-8.9h.8l-2.5 8.9h-.8z"
         id="path599" /><path
         d="M1289.6 285.6c0-1.4.4-2.5 1.1-3.3.7-.8 1.8-1.2 3-1.2.8 0 1.5.2 2.1.6.6.4 1.1.9 1.5 1.6.4.7.5 1.4.5 2.3 0 .9-.2 1.7-.5 2.3-.3.6-.8 1.2-1.5 1.6-.7.4-1.3.5-2.1.5s-1.5-.2-2.2-.6c-.7-.4-1.1-.9-1.4-1.6-.3-.7-.5-1.5-.5-2.2zm1.1 0c0 1 .3 1.9.8 2.4s1.3.9 2.1.9c.9 0 1.6-.3 2.1-.9.5-.6.8-1.5.8-2.6 0-.7-.1-1.3-.4-1.8-.3-.5-.6-.9-1-1.2-.4-.3-1-.4-1.5-.4-.8 0-1.5.3-2.1.8-.6.5-.8 1.5-.8 2.8z"
         id="path601" /></g><path
       class="stASR-920-12SZ-IM27"
       id="rect603"
       style="clip-rule:evenodd;fill:#4d4d4d;fill-rule:evenodd"
       d="M2962 221.8h70v8.5h-70z" /><path
       class="stASR-920-12SZ-IM27"
       id="rect605"
       style="clip-rule:evenodd;fill:#4d4d4d;fill-rule:evenodd"
       d="M2962 161.3h70v8.5h-70z" /><g
       id="g607"><g
         id="g609"><path
           d="M3091.4 43.6v211.5s0 1.5 1.5 1.5h123l1.5-1.5h0V43.6c0-1.5-1.5-1.5-1.5-1.5h-123c-1.5 0-1.5 0-1.5 1.5h0z"
           id="path611"
           style="fill:none;stroke:#999;stroke-linecap:round;stroke-linejoin:round;stroke-miterlimit:2" /></g></g><g
       id="g613"><path
         d="M1184.4 272.6v-1.3h4.9v4.2c-.7.6-1.5 1-2.3 1.3-.8.3-1.6.4-2.4.4-1.1 0-2.1-.2-3.1-.7-1-.5-1.6-1.2-2.1-2.1-.5-.9-.7-1.9-.7-3.1 0-1.1.2-2.2.7-3.1.5-.9 1.1-1.7 2-2.2.9-.5 1.9-.7 3-.7.8 0 1.6.1 2.2.4.6.3 1.2.6 1.6 1.1.4.5.7 1.1.9 1.9l-1.4.4c-.2-.6-.4-1-.6-1.4-.2-.4-.6-.6-1.1-.8-.5-.2-1-.3-1.6-.3-.7 0-1.3.1-1.8.3-.5.2-.9.5-1.2.8-.3.3-.6.7-.7 1.1-.3.7-.4 1.5-.4 2.3 0 1 .2 1.9.5 2.6.3.7.9 1.2 1.5 1.5.6.3 1.4.5 2.1.5.7 0 1.3-.1 1.9-.4.6-.3 1.1-.5 1.4-.8v-2.1h-3.3z"
         id="path615" /><path
         d="M1192.3 277.1v-11.5h1.6l6 9v-9h1.5v11.5h-1.6l-6-9v9h-1.5z"
         id="path617" /><path
         d="m1204.1 273.5 1.4-.1c.1.6.2 1 .5 1.4.3.4.6.7 1.2.9.6.2 1.1.3 1.8.3.6 0 1.1-.1 1.5-.3.4-.2.8-.4 1-.7.2-.3.3-.6.3-1s-.1-.7-.3-.9c-.2-.2-.6-.5-1-.7-.3-.1-1-.3-2-.6s-1.8-.5-2.2-.7c-.5-.3-1-.6-1.2-1.1-.2-.5-.4-.9-.4-1.4 0-.6.2-1.1.5-1.6s.8-.9 1.4-1.1c.6-.2 1.3-.4 2.1-.4s1.6.1 2.2.4c.6.3 1.1.7 1.5 1.2.4.5.5 1.1.6 1.8l-1.5.1c-.1-.7-.3-1.3-.8-1.6-.5-.3-1.1-.6-2-.6-.9 0-1.6.2-2 .5-.4.3-.6.7-.6 1.2 0 .4.1.8.4 1 .3.3 1.1.5 2.3.8 1.2.3 2.1.5 2.5.7.7.3 1.2.7 1.5 1.2.3.5.5 1 .5 1.6 0 .6-.2 1.2-.5 1.7s-.9 1-1.5 1.3c-.7.3-1.4.4-2.2.4-1 0-1.9-.2-2.6-.5-.7-.3-1.2-.8-1.6-1.4-.4-.6-.7-1.1-.8-1.8z"
         id="path619" /><path
         d="m1215.6 273.5 1.4-.1c.1.6.2 1 .5 1.4.3.4.6.7 1.2.9.6.2 1.1.3 1.8.3.6 0 1.1-.1 1.5-.3.4-.2.8-.4 1-.7.2-.3.3-.6.3-1s-.1-.7-.3-.9c-.2-.2-.6-.5-1-.7-.3-.1-1-.3-2-.6s-1.8-.5-2.2-.7c-.5-.3-1-.6-1.2-1.1-.2-.5-.4-.9-.4-1.4 0-.6.2-1.1.5-1.6s.8-.9 1.4-1.1c.6-.2 1.3-.4 2.1-.4s1.6.1 2.2.4c.6.3 1.1.7 1.5 1.2.4.5.5 1.1.6 1.8l-1.5.1c-.1-.7-.3-1.3-.8-1.6-.5-.3-1.1-.6-2-.6-.9 0-1.6.2-2 .5-.4.3-.6.7-.6 1.2 0 .4.1.8.4 1 .3.3 1.1.5 2.3.8 1.2.3 2.1.5 2.5.7.7.3 1.2.7 1.5 1.2.3.5.5 1 .5 1.6 0 .6-.2 1.2-.5 1.7s-.9 1-1.5 1.3c-.7.3-1.4.4-2.2.4-1 0-1.9-.2-2.6-.5-.7-.3-1.2-.8-1.6-1.4-.4-.6-.8-1.1-.8-1.8z"
         id="path621" /><path
         d="M1185.8 292.1v-8.6h3.8c.8 0 1.3.1 1.7.2.4.1.7.4 1 .8.3.4.4.8.4 1.3 0 .6-.2 1.1-.6 1.5-.4.4-1 .7-1.8.8.3.1.5.3.7.4.3.3.6.7.9 1.1l1.5 2.3h-1.4l-1.1-1.8c-.3-.5-.6-.9-.8-1.2-.2-.3-.4-.5-.6-.6-.2-.1-.3-.2-.5-.2h-1.9v3.8h-1.3zm1.1-4.8h2.4c.5 0 .9-.1 1.2-.2.3-.1.5-.3.7-.5.2-.2.2-.5.2-.8 0-.4-.1-.7-.4-1-.3-.3-.8-.4-1.4-.4h-2.7v2.9z"
         id="path623" /><path
         d="M1195.1 292.1v-8.6h5.8v1h-4.7v2.7h4v1h-4v3.9h-1.1z"
         id="path625" /><path
         d="M1207.1 292.1v-8.6h1.1v8.6h-1.1z"
         id="path627" /><path
         d="M1210.8 292.1v-8.6h1.2l4.5 6.7v-6.7h1.1v8.6h-1.2l-4.5-6.8v6.8h-1.1z"
         id="path629" /></g><g
       id="g631"><path
         id="rect633"
         d="M164.5 16.9h803.7v288H164.5z" /><g
         id="g635"><path
           class="stASR-920-12SZ-IM25"
           d="M205.8 25.2h-40.3v-2.3c0-3.2 2.6-5.8 5.8-5.8h34.5v8.1z"
           id="path637"
           style="fill:#4d4d4d" /><path
           class="stASR-920-12SZ-IM25"
           id="rect639"
           style="fill:#4d4d4d"
           d="M193.7 25.7h12.1v279.2h-12.1z" /><path
           class="stASR-920-12SZ-IM25"
           id="rect641"
           style="fill:#4d4d4d"
           d="M165.5 25.7h9v279.2h-9z" /><path
           class="stASR-920-12SZ-IM22"
           d="M193.5 304.8h-18c-.6 0-1 .5-1 0V23.7c0-3.1 2.5-5.6 5.7-5.6h8.7c3.1 0 5.7 2.5 5.7 5.6v281.2c-.1.5-.6-.1-1.1-.1z"
           id="path643"
           style="fill:#888" /></g><g
         id="g645"><path
           class="stASR-920-12SZ-IM25"
           d="M607.8 25.2h-40.3v-2.3c0-3.2 2.6-5.8 5.8-5.8h34.5v8.1z"
           id="path647"
           style="fill:#4d4d4d" /><path
           class="stASR-920-12SZ-IM25"
           id="rect649"
           style="fill:#4d4d4d"
           d="M595.7 25.7h12.1v279.2h-12.1z" /><path
           class="stASR-920-12SZ-IM25"
           id="rect651"
           style="fill:#4d4d4d"
           d="M567.5 25.7h9v279.2h-9z" /><path
           class="stASR-920-12SZ-IM22"
           d="M595.5 304.8h-18c-.5 0-1 .5-1 0V23.7c0-3.1 2.5-5.6 5.7-5.6h8.7c3.1 0 5.7 2.5 5.7 5.6v281.2c-.1.5-.6-.1-1.1-.1z"
           id="path653"
           style="fill:#888" /></g></g><g
       id="g655"><g
         id="g657"><path
           id="polygon659"
           d="m998.3 58.4-12-6.9V37.6l12-6.9 12 6.9v13.9z" /><path
           id="polygon661"
           d="m1029.8 58.4-12-6.9V37.6l12-6.9 12 6.9v13.9z" /><path
           id="polygon663"
           d="m1061.3 58.4-12-6.9V37.6l12-6.9 12 6.9v13.9z" /><path
           id="polygon665"
           d="m1092.8 58.4-12-6.9V37.6l12-6.9 12 6.9v13.9z" /><path
           id="polygon667"
           d="m1124.3 58.4-12-6.9V37.6l12-6.9 12 6.9v13.9z" /><path
           id="polygon669"
           d="m1155.8 58.4-12-6.9V37.6l12-6.9 12 6.9v13.9z" /><path
           id="polygon671"
           d="m1187.3 58.4-12-6.9V37.6l12-6.9 12 6.9v13.9z" /><path
           id="polygon673"
           d="m1218.8 58.4-12-6.9V37.6l12-6.9 12 6.9v13.9z" /></g><g
         id="g675"><path
           id="polygon677"
           d="m982.6 84.7-12-7V63.8l12-6.9 12 6.9v13.9z" /><path
           id="polygon679"
           d="m1014.1 84.7-12-7V63.8l12-6.9 12 6.9v13.9z" /><path
           id="polygon681"
           d="m1045.6 84.7-12-7V63.8l12-6.9 12 6.9v13.9z" /><path
           id="polygon683"
           d="m1077.1 84.7-12-7V63.8l12-6.9 12 6.9v13.9z" /><path
           id="polygon685"
           d="m1108.6 84.7-12-7V63.8l12-6.9 12 6.9v13.9z" /><path
           id="polygon687"
           d="m1140.1 84.7-12-7V63.8l12-6.9 12 6.9v13.9z" /><path
           id="polygon689"
           d="m1171.6 84.7-12-7V63.8l12-6.9 12 6.9v13.9z" /><path
           id="polygon691"
           d="m1203.1 84.7-12-7V63.8l12-6.9 12 6.9v13.9z" /></g><g
         id="g693"><path
           d="M1057.6 12.8v9.9l-12 6.9-12-6.9v-9.9s24 .6 24 0z"
           id="path695" /><path
           id="polygon697"
           d="M1065.1 22.7v-9.9h24v9.9l-12 7z" /><path
           id="polygon699"
           d="M1096.6 22.7v-9.9h24v9.9l-12 7z" /><path
           id="polygon701"
           d="M1128.1 22.7v-9.9h24v9.9l-12 7z" /><path
           id="polygon703"
           d="M1159.6 22.7v-9.9h24v9.9l-12 7z" /><path
           id="polygon705"
           d="M1191.1 22.7v-9.9h24v9.9l-12 7z" /></g><g
         id="g707"><path
           id="polygon709"
           d="m998.3 112.2-12-7V91.3l12-6.9 12 6.9v13.9z" /><path
           id="polygon711"
           d="m1029.8 112.2-12-7V91.3l12-6.9 12 6.9v13.9z" /><path
           id="polygon713"
           d="m1061.3 112.2-12-7V91.3l12-6.9 12 6.9v13.9z" /><path
           id="polygon715"
           d="m1092.8 112.2-12-7V91.3l12-6.9 12 6.9v13.9z" /><path
           id="polygon717"
           d="m1124.3 112.2-12-7V91.3l12-6.9 12 6.9v13.9z" /><path
           id="polygon719"
           d="m1155.8 112.2-12-7V91.3l12-6.9 12 6.9v13.9z" /><path
           id="polygon721"
           d="m1187.3 112.2-12-7V91.3l12-6.9 12 6.9v13.9z" /><path
           id="polygon723"
           d="m1218.8 112.2-12-7V91.3l12-6.9 12 6.9v13.9z" /></g><g
         id="g725"><path
           id="polygon727"
           d="m982.6 138.4-12-6.9v-13.9l12-6.9 12 6.9v13.9z" /><path
           id="polygon729"
           d="m1014.1 138.4-12-6.9v-13.9l12-6.9 12 6.9v13.9z" /><path
           id="polygon731"
           d="m1045.6 138.4-12-6.9v-13.9l12-6.9 12 6.9v13.9z" /><path
           id="polygon733"
           d="m1077.1 138.4-12-6.9v-13.9l12-6.9 12 6.9v13.9z" /><path
           id="polygon735"
           d="m1108.6 138.4-12-6.9v-13.9l12-6.9 12 6.9v13.9z" /><path
           id="polygon737"
           d="m1140.1 138.4-12-6.9v-13.9l12-6.9 12 6.9v13.9z" /><path
           id="polygon739"
           d="m1171.6 138.4-12-6.9v-13.9l12-6.9 12 6.9v13.9z" /><path
           id="polygon741"
           d="m1203.1 138.4-12-6.9v-13.9l12-6.9 12 6.9v13.9z" /></g><g
         id="g743"><path
           id="polygon745"
           d="m998.3 166.2-12-7v-13.9l12-6.9 12 6.9v13.9z" /><path
           id="polygon747"
           d="m1029.8 166.2-12-7v-13.9l12-6.9 12 6.9v13.9z" /><path
           id="polygon749"
           d="m1061.3 166.2-12-7v-13.9l12-6.9 12 6.9v13.9z" /><path
           id="polygon751"
           d="m1092.8 166.2-12-7v-13.9l12-6.9 12 6.9v13.9z" /><path
           id="polygon753"
           d="m1124.3 166.2-12-7v-13.9l12-6.9 12 6.9v13.9z" /><path
           id="polygon755"
           d="m1155.8 166.2-12-7v-13.9l12-6.9 12 6.9v13.9z" /><path
           id="polygon757"
           d="m1187.3 166.2-12-7v-13.9l12-6.9 12 6.9v13.9z" /><path
           id="polygon759"
           d="m1218.8 166.2-12-7v-13.9l12-6.9 12 6.9v13.9z" /></g><g
         id="g761"><path
           id="polygon763"
           d="m982.6 192.4-12-6.9v-13.9l12-6.9 12 6.9v13.9z" /><path
           id="polygon765"
           d="m1014.1 192.4-12-6.9v-13.9l12-6.9 12 6.9v13.9z" /><path
           id="polygon767"
           d="m1045.6 192.4-12-6.9v-13.9l12-6.9 12 6.9v13.9z" /><path
           id="polygon769"
           d="m1077.1 192.4-12-6.9v-13.9l12-6.9 12 6.9v13.9z" /><path
           id="polygon771"
           d="m1108.6 192.4-12-6.9v-13.9l12-6.9 12 6.9v13.9z" /><path
           id="polygon773"
           d="m1140.1 192.4-12-6.9v-13.9l12-6.9 12 6.9v13.9z" /><path
           id="polygon775"
           d="m1171.6 192.4-12-6.9v-13.9l12-6.9 12 6.9v13.9z" /><path
           id="polygon777"
           d="m1234.8 192.4-12-6.9v-13.9l12-6.9 12 6.9v13.9z" /><path
           id="polygon779"
           d="M1233.8 140.4v-27.7l-12 6.9v13.9z" /><path
           id="polygon781"
           d="M1233.8 85.2V57.4l-12 6.9v13.9z" /></g><g
         id="g783"><path
           id="polygon785"
           d="m998.3 220.9-12-6.9v-13.9l12-6.9 12 6.9V214z" /><path
           id="polygon787"
           d="m1029.8 220.9-12-6.9v-13.9l12-6.9 12 6.9V214z" /><path
           id="polygon789"
           d="m1061.3 220.9-12-6.9v-13.9l12-6.9 12 6.9V214z" /><path
           id="polygon791"
           d="m1092.8 220.9-12-6.9v-13.9l12-6.9 12 6.9V214z" /><path
           id="polygon793"
           d="m1124.3 220.9-12-6.9v-13.9l12-6.9 12 6.9V214z" /><path
           id="polygon795"
           d="m1155.8 220.9-12-6.9v-13.9l12-6.9 12 6.9V214z" /></g><g
         id="g797"><path
           id="polygon799"
           d="m982.6 247.2-12-7v-13.9l12-6.9 12 6.9v13.9z" /><path
           id="polygon801"
           d="m1014.1 247.2-12-7v-13.9l12-6.9 12 6.9v13.9z" /><path
           id="polygon803"
           d="m1045.6 247.2-12-7v-13.9l12-6.9 12 6.9v13.9z" /><path
           id="polygon805"
           d="m1077.1 247.2-12-7v-13.9l12-6.9 12 6.9v13.9z" /><path
           id="polygon807"
           d="m1108.6 247.2-12-7v-13.9l12-6.9 12 6.9v13.9z" /><path
           id="polygon809"
           d="m1140.1 247.2-12-7v-13.9l12-6.9 12 6.9v13.9z" /></g><g
         id="g811"><path
           id="polygon813"
           d="m998.3 275.2-12-7v-13.9l12-6.9 12 6.9v13.9z" /><path
           id="polygon815"
           d="m1029.8 275.2-12-7v-13.9l12-6.9 12 6.9v13.9z" /><path
           id="polygon817"
           d="m1061.3 275.2-12-7v-13.9l12-6.9 12 6.9v13.9z" /><path
           id="polygon819"
           d="m1092.8 275.2-12-7v-13.9l12-6.9 12 6.9v13.9z" /><path
           id="polygon821"
           d="m1124.3 275.2-12-7v-13.9l12-6.9 12 6.9v13.9z" /><path
           id="polygon823"
           d="m1155.8 275.2-12-7v-13.9l12-6.9 12 6.9v13.9z" /></g></g><g
       id="g825"><circle
         cx="1202.1"
         cy="208.7"
         r="35.7"
         id="circle827"
         style="fill:#cdc5be;stroke:#888;stroke-miterlimit:10" /><path
         id="polygon829"
         style="fill:#9e9a97"
         d="m1195.4 238.7-22.6-20.8 6.6-30 29.4-9.3 22.6 20.8-6.6 30z" /><g
         id="g831"><path
           class="stASR-920-12SZ-IM22"
           d="M1202.1 233.7c-13.8 0-25-11.2-25-25s11.2-25 25-25 25 11.2 25 25c0 13.7-11.2 25-25 25z"
           id="path833"
           style="fill:#888" /><path
           class="stASR-920-12SZ-IM23"
           d="M1202.1 229.8c-11.7 0-21.2-9.5-21.2-21.2s9.5-21.2 21.2-21.2 21.2 9.5 21.2 21.2-9.5 21.2-21.2 21.2z"
           id="path835"
           style="fill:#7f7f7f" /><path
           class="stASR-920-12SZ-IM24"
           d="M1202.1 227.8c-10.6 0-19.2-8.6-19.2-19.2s8.6-19.2 19.2-19.2 19.2 8.6 19.2 19.2-8.6 19.2-19.2 19.2z"
           id="path837"
           style="fill:#cdc5be" /><path
           class="stASR-920-12SZ-IM25"
           d="M1202.1 221.8c-7.3 0-13.2-5.9-13.2-13.2 0-7.3 5.9-13.2 13.2-13.2 7.3 0 13.2 5.9 13.2 13.2 0 7.3-5.9 13.2-13.2 13.2z"
           id="path839"
           style="fill:#4d4d4d" /><path
           class="stASR-920-12SZ-IM26"
           d="M1202.1 219.8c-6.2 0-11.2-5-11.2-11.2 0-6.2 5-11.2 11.2-11.2 6.2 0 11.2 5 11.2 11.2 0 6.2-5 11.2-11.2 11.2z"
           id="path841"
           style="fill:#bfbfbf" /><circle
           cx="1202.1"
           cy="208.7"
           r="3.2"
           id="circle843" /></g></g><path
       class="stASR-920-12SZ-IM3"
       id="rect845"
       style="clip-rule:evenodd;fill-rule:evenodd"
       d="M1283.3 21.3h1144.9v150H1283.3z" /><path
       class="stASR-920-12SZ-IM31"
       id="rect847"
       style="clip-rule:evenodd;fill:#7f7f7f;fill-rule:evenodd"
       d="M1271.7 21.3h9.5v150h-9.5z" /><path
       class="stASR-920-12SZ-IM32"
       id="rect849"
       style="clip-rule:evenodd;fill:#9e9a97;fill-rule:evenodd"
       d="M1283 21.3h20v150h-20z" /><path
       class="stASR-920-12SZ-IM32"
       id="rect851"
       style="clip-rule:evenodd;fill:#9e9a97;fill-rule:evenodd"
       d="M2408 21.3h20v150h-20z" /><path
       class="stASR-920-12SZ-IM31"
       id="rect853"
       style="clip-rule:evenodd;fill:#7f7f7f;fill-rule:evenodd"
       d="M2430.7 21.3h9.5v150h-9.5z" /></g><text
     xml:space="preserve"
     style="font-style:normal;font-weight:normal;font-size:40px;line-height:1.25;font-family:sans-serif;letter-spacing:0px;word-spacing:0px;fill:#000000;fill-opacity:1;stroke:none"
     x="87.956879"
     y="171.769"
     id="text435"><tspan
       sodipodi:role="line"
       id="tspan433"
       x="87.956879"
       y="208.26221" /></text>
</svg>