<?xml version="1.0" encoding="UTF-8" standalone="no"?>
<!-- Generator: Adobe Illustrator 19.2.1, SVG Export Plug-In . SVG Version: 6.00 Build 0)  -->

<svg
   xmlns:dc="http://purl.org/dc/elements/1.1/"
   xmlns:cc="http://creativecommons.org/ns#"
   xmlns:rdf="http://www.w3.org/1999/02/22-rdf-syntax-ns#"
   xmlns:svg="http://www.w3.org/2000/svg"
   xmlns="http://www.w3.org/2000/svg"
   xmlns:sodipodi="http://sodipodi.sourceforge.net/DTD/sodipodi-0.dtd"
   xmlns:inkscape="http://www.inkscape.org/namespaces/inkscape"
   version="1.1"
   id="A9912-FILLER-LCLayer_1"
   x="0px"
   y="0px"
   viewBox="0 0 72.296997 331.25201"
   xml:space="preserve"
   inkscape:version="0.91 r13725"
   sodipodi:docname="A9912-FILLER-LC.svg"
   width="72.296997"
   height="331.25201"><metadata
     id="A9912-FILLER-LCmetadata27"><rdf:RDF><cc:Work
         rdf:about=""><dc:format>image/svg+xml</dc:format><dc:type
           rdf:resource="http://purl.org/dc/dcmitype/StillImage" /><dc:title></dc:title></cc:Work></rdf:RDF></metadata><defs
     id="A9912-FILLER-LCdefs25" /><sodipodi:namedview
     pagecolor="#ffffff"
     bordercolor="#666666"
     borderopacity="1"
     objecttolerance="10"
     gridtolerance="10"
     guidetolerance="10"
     inkscape:pageopacity="0"
     inkscape:pageshadow="2"
     inkscape:window-width="1366"
     inkscape:window-height="706"
     id="A9912-FILLER-LCnamedview23"
     showgrid="false"
     inkscape:zoom="25.797061"
     inkscape:cx="17.438336"
     inkscape:cy="4.2666781"
     inkscape:window-x="-8"
     inkscape:window-y="-8"
     inkscape:window-maximized="1"
     inkscape:current-layer="Layer_1" /><style
     type="text/css"
     id="A9912-FILLER-LCstyle3">
	.stA9912-FILLER-LC0{fill-rule:evenodd;clip-rule:evenodd;fill:#EEEEEE;}
	.stA9912-FILLER-LC1{fill:#808080;}
	.stA9912-FILLER-LC2{fill-rule:evenodd;clip-rule:evenodd;fill:#BFBFBF;}
</style><g
     id="A9912-FILLER-LCg5"
     transform="matrix(0.02529636,0,0,1.0351625,0.05717346,-0.03355943)"><g
       id="A9912-FILLER-LCg7"><g
         id="A9912-FILLER-LCg9"><path
           class="stA9912-FILLER-LC0"
           d="m 2857,300.5 c 0,10.8 -8.7,19.5 -19.5,19.5 l -2818,0 C 8.7,320 0,311.3 0,300.5 L 0,20.5 C 0,9.7 8.7,1 19.5,1 l 2818,0 c 10.8,0 19.5,8.7 19.5,19.5 l 0,280 z"
           id="A9912-FILLER-LCpath11"
           inkscape:connector-curvature="0"
           style="clip-rule:evenodd;fill:#eeeeee;fill-rule:evenodd" /><path
           class="stA9912-FILLER-LC1"
           d="m 2838,1 c 10.5,0 19,8.5 19,19 l 0,280 c 0,10.5 -8.5,19 -19,19 L 20,319 C 9.5,319 1,310.5 1,300 L 1,20 C 1,9.5 9.5,1 20,1 L 2838,1 M 2838,0 20,0 C 9,0 0,9 0,20 l 0,280 c 0,11 9,20 20,20 l 2818,0 c 11,0 20,-9 20,-20 l 0,-280 c 0,-11 -9,-20 -20,-20 l 0,0 z"
           id="A9912-FILLER-LCpath13"
           inkscape:connector-curvature="0"
           style="fill:#808080" /></g></g><g
       id="A9912-FILLER-LCg15"><g
         id="A9912-FILLER-LCg17"><path
           class="stA9912-FILLER-LC2"
           d="m 2847,290.5 c 0,10.8 -8.7,19.5 -19.5,19.5 l -2798,0 C 18.7,310 10,301.3 10,290.5 l 0,-260 C 10,19.7 18.7,11 29.5,11 l 2798,0 c 10.8,0 19.5,8.7 19.5,19.5 l 0,260 z"
           id="A9912-FILLER-LCpath19"
           inkscape:connector-curvature="0"
           style="clip-rule:evenodd;fill:#bfbfbf;fill-rule:evenodd" /><path
           class="stA9912-FILLER-LC1"
           d="m 2828,11 c 10.5,0 19,8.5 19,19 l 0,260 c 0,10.5 -8.5,19 -19,19 L 30,309 C 19.5,309 11,300.5 11,290 L 11,30 C 11,19.5 19.5,11 30,11 l 2798,0 m 0,-1 L 30,10 C 19,10 10,19 10,30 l 0,260 c 0,11 9,20 20,20 l 2798,0 c 11,0 20,-9 20,-20 l 0,-260 c 0,-11 -9,-20 -20,-20 l 0,0 z"
           id="A9912-FILLER-LCpath21"
           inkscape:connector-curvature="0"
           style="fill:#808080" /></g></g></g></svg>