<?xml version="1.0" encoding="UTF-8" standalone="no"?>
<svg
   xmlns:dc="http://purl.org/dc/elements/1.1/"
   xmlns:cc="http://creativecommons.org/ns#"
   xmlns:rdf="http://www.w3.org/1999/02/22-rdf-syntax-ns#"
   xmlns:svg="http://www.w3.org/2000/svg"
   xmlns="http://www.w3.org/2000/svg"
   xmlns:xlink="http://www.w3.org/1999/xlink"
   xmlns:sodipodi="http://sodipodi.sourceforge.net/DTD/sodipodi-0.dtd"
   xmlns:inkscape="http://www.inkscape.org/namespaces/inkscape"
   xml:space="preserve"
   width="2835"
   height="317.4"
   version="1.1"
   id="svg656"
   viewBox="0 0 2835 317.4"
   sodipodi:docname="A9K-RSP440-SE.svg"
   inkscape:version="0.92.1 r15371"><metadata
     id="metadata662"><rdf:RDF><cc:Work
         rdf:about=""><dc:format>image/svg+xml</dc:format><dc:type
           rdf:resource="http://purl.org/dc/dcmitype/StillImage" /></cc:Work></rdf:RDF></metadata><defs
     id="defs660" /><sodipodi:namedview
     pagecolor="#ffffff"
     bordercolor="#666666"
     borderopacity="1"
     objecttolerance="10"
     gridtolerance="10"
     guidetolerance="10"
     inkscape:pageopacity="0"
     inkscape:pageshadow="2"
     inkscape:window-width="1920"
     inkscape:window-height="986"
     id="namedview658"
     showgrid="false"
     inkscape:zoom="0.61763668"
     inkscape:cx="1417.5"
     inkscape:cy="158.69762"
     inkscape:window-x="-11"
     inkscape:window-y="-11"
     inkscape:window-maximized="1"
     inkscape:current-layer="svg656" /><pattern
     x="1433.8"
     y="401.6"
     width="64"
     height="64"
     patternUnits="userSpaceOnUse"
     id="a"
     viewBox="0 -64 64 64"
     overflow="visible"><path
       fill="none"
       d="M0-64h64V0H0z"
       id="path2" /></pattern><pattern
     x="1433.8"
     y="401.6"
     width="64"
     height="64"
     patternUnits="userSpaceOnUse"
     id="c"
     viewBox="0 -64 64 64"
     overflow="visible"><path
       fill="none"
       d="M0-64h64V0H0z"
       id="path5" /></pattern><pattern
     x="1433.8"
     y="401.6"
     width="64"
     height="64"
     patternUnits="userSpaceOnUse"
     id="e"
     viewBox="0 -64 64 64"
     overflow="visible"><path
       fill="none"
       d="M0-64h64V0H0z"
       id="path8" /></pattern><pattern
     x="1433.8"
     y="401.6"
     width="64"
     height="64"
     patternUnits="userSpaceOnUse"
     id="g"
     viewBox="0 -64 64 64"
     overflow="visible"><path
       fill="none"
       d="M0-64h64V0H0z"
       id="path11" /></pattern><pattern
     x="1433.8"
     y="401.6"
     width="64"
     height="64"
     patternUnits="userSpaceOnUse"
     id="i"
     viewBox="0 -64 64 64"
     overflow="visible"><path
       fill="none"
       d="M0-64h64V0H0z"
       id="path14" /></pattern><pattern
     x="1433.8"
     y="401.6"
     width="64"
     height="64"
     patternUnits="userSpaceOnUse"
     id="k"
     viewBox="0 -64 64 64"
     overflow="visible"><path
       fill="none"
       d="M0-64h64V0H0z"
       id="path17" /></pattern><pattern
     x="1433.8"
     y="401.6"
     width="64"
     height="64"
     patternUnits="userSpaceOnUse"
     id="m"
     viewBox="0 -64 64 64"
     overflow="visible"><path
       fill="none"
       d="M0-64h64V0H0z"
       id="path20" /></pattern><path
     d="M2650.5 15.5V2h0c0-1.5-1.5-1.5-3-1.5h0H153h0c-1.5 0-3 0-3 1.5h0v13.5h0s1.5 1.5 3 1.5h2494.5c1.5 0 3-1.5 3-1.5h0z"
     style="fill:#bfbfbf;stroke:gray;stroke-linecap:round;stroke-linejoin:round;stroke-miterlimit:10"
     id="path23" /><path
     style="clip-rule:evenodd;fill:#d9d9d9;fill-rule:evenodd"
     d="M138 17h2568v298.5H138z"
     id="path25" /><path
     style="fill:none;stroke:#c2c2c2;stroke-width:.06;stroke-linecap:round;stroke-linejoin:round;stroke-miterlimit:10"
     d="M138 315.5h2568V17H138z"
     id="path27" /><path
     style="fill:none;stroke:#737373;stroke-width:.12;stroke-linecap:round;stroke-linejoin:round;stroke-miterlimit:10"
     d="M2554.5 51.5V266h28.5V51.5z"
     id="path29" /><path
     style="fill:none;stroke:#737373;stroke-width:.12;stroke-linecap:round;stroke-linejoin:round;stroke-miterlimit:10"
     d="M2554.5 266h28.5V51.5h-28.5z"
     id="path31" /><path
     d="m2577.1 255.5-18.3-7v-2.6l18.3-7.5v2.8l-5.5 2.1v7.6l5.5 2v2.6zm-7.5-5.3V244l-5.1 1.9c-1.5.6-2.8 1-3.8 1.3 1.2.2 2.3.6 3.5 1l5.4 2zM2572.8 237.4l-.2-2.2c1-.2 1.7-.5 2.2-1 .5-.5.7-1.2.7-2 0-.7-.2-1.3-.5-1.8s-.7-.9-1.3-1.3c-.6-.4-1.2-.6-2.1-.8-.9-.2-1.8-.3-2.7-.3h-.4c.7.4 1.3 1.1 1.7 1.8.4.8.7 1.6.7 2.5 0 1.5-.5 2.8-1.6 3.8s-2.5 1.6-4.3 1.6c-1.9 0-3.3-.5-4.5-1.6-1.1-1.1-1.7-2.5-1.7-4.1 0-1.2.3-2.3 1-3.3.6-1 1.5-1.7 2.7-2.2 1.2-.5 2.9-.8 5.1-.8 2.3 0 4.2.3 5.6.8 1.4.5 2.4 1.3 3.2 2.3.7 1 1.1 2.2 1.1 3.5 0 1.4-.4 2.6-1.2 3.5-.9.9-2 1.4-3.5 1.6zm-8-9.1c-1.3 0-2.3.3-3.1 1-.8.7-1.1 1.5-1.1 2.5s.4 1.9 1.2 2.6c.8.7 1.9 1.1 3.2 1.1 1.2 0 2.1-.4 2.8-1.1.7-.7 1.1-1.6 1.1-2.6s-.4-1.9-1.1-2.6c-.7-.6-1.7-.9-3-.9zM2577.1 222.1h-18.3v-2.4h9.1l-9.1-9.1v-3.3l7.4 7.7 10.9-8v3.2l-9.2 6.5 2.9 3h6.3v2.4zM2571.6 206.6h-2.3v-6.9h2.3v6.9zM2577.1 196.3h-18.3v-8.1c0-1.6.2-2.9.5-3.7.3-.8.9-1.5 1.7-2 .8-.5 1.7-.8 2.8-.8 1.3 0 2.4.4 3.3 1.3.9.8 1.5 2.1 1.7 3.9.3-.6.6-1.1.9-1.5.6-.7 1.5-1.4 2.4-2l5-3.2v3l-3.8 2.4c-1.1.7-1.9 1.3-2.5 1.7-.6.5-1 .9-1.2 1.2-.2.4-.4.7-.5 1.1-.1.3-.1.7-.1 1.3v2.8h8.1v2.6zm-10.2-2.4v-5.2c0-1.1-.1-2-.3-2.6-.2-.6-.6-1.1-1.1-1.4-.5-.3-1-.5-1.6-.5-.9 0-1.6.3-2.1.9-.6.6-.8 1.6-.8 3v5.8h5.9zM2571.2 179.5l-.2-2.3c.9-.1 1.7-.4 2.2-.8.6-.4 1.1-1 1.4-1.8.4-.8.5-1.8.5-2.8 0-.9-.1-1.7-.4-2.4-.3-.7-.6-1.2-1.1-1.6-.5-.3-1-.5-1.6-.5-.6 0-1.1.2-1.5.5-.4.3-.8.9-1.1 1.6-.2.5-.5 1.6-.9 3.2-.4 1.7-.8 2.9-1.1 3.5-.5.9-1 1.5-1.7 1.9-.7.4-1.4.6-2.3.6-.9 0-1.8-.3-2.6-.8s-1.4-1.3-1.8-2.3c-.4-1-.6-2.1-.6-3.3 0-1.4.2-2.5.7-3.6.4-1 1.1-1.8 1.9-2.4.8-.6 1.8-.9 2.9-.9l.2 2.3c-1.2.1-2 .5-2.6 1.3-.6.7-.9 1.8-.9 3.2 0 1.5.3 2.5.8 3.2.5.7 1.2 1 1.9 1s1.2-.2 1.6-.7c.4-.5.9-1.7 1.3-3.6.4-1.9.8-3.3 1.2-4 .5-1.1 1.1-1.8 1.9-2.4.8-.5 1.6-.8 2.6-.8s1.9.3 2.7.8c.9.6 1.5 1.4 2 2.4s.7 2.2.7 3.5c0 1.7-.2 3-.7 4.2-.5 1.1-1.2 2-2.2 2.6-.9.8-2 1.1-3.2 1.2zM2577.1 161.8h-18.3v-6.9c0-1.2.1-2.1.2-2.8.1-.9.4-1.6.9-2.3.4-.6 1-1.1 1.8-1.5.8-.4 1.6-.6 2.5-.6 1.6 0 2.9.5 3.9 1.5 1.1 1 1.6 2.8 1.6 5.4v4.7h7.4v2.5zm-9.6-2.4v-4.7c0-1.6-.3-2.7-.9-3.3-.6-.7-1.4-1-2.5-1-.8 0-1.4.2-2 .6-.6.4-.9.9-1.1 1.5-.1.4-.2 1.2-.2 2.3v4.7h6.7zM2577.1 137.6h-4.4v7.9h-2.1l-11.8-8.3v-1.8h11.8v-2.5h2.1v2.5h4.4v2.2zm-6.5 0h-8.2l8.2 5.7v-5.7zM2577.1 124.1h-4.4v7.9h-2.1l-11.8-8.3v-1.8h11.8v-2.5h2.1v2.5h4.4v2.2zm-6.5 0h-8.2l8.2 5.7v-5.7zM2568.1 117.8c-2.2 0-3.9-.2-5.2-.7-1.3-.4-2.3-1.1-3-2-.7-.9-1.1-2-1.1-3.3 0-1 .2-1.8.6-2.6.4-.7 1-1.3 1.7-1.8s1.6-.9 2.7-1.1c1.1-.2 2.5-.4 4.3-.4 2.1 0 3.9.2 5.2.7 1.3.4 2.3 1.1 3.1 2 .8.9 1.1 2 1.1 3.3 0 1.8-.6 3.1-1.9 4.1-1.6 1.2-4.1 1.8-7.5 1.8zm0-2.3c3 0 5-.4 6-1.1 1-.7 1.5-1.6 1.5-2.6s-.5-1.9-1.5-2.6c-1-.7-3-1.1-6-1.1s-5 .4-6 1.1c-1 .7-1.5 1.6-1.5 2.6s.4 1.9 1.3 2.5c1.1.9 3.2 1.2 6.2 1.2zM2571.6 103.1h-2.3v-6.9h2.3v6.9zM2571.2 93.7l-.2-2.3c.9-.1 1.7-.4 2.2-.8.6-.4 1.1-1 1.4-1.8.4-.8.5-1.8.5-2.8 0-.9-.1-1.7-.4-2.4-.3-.7-.6-1.2-1.1-1.6-.5-.3-1-.5-1.6-.5-.6 0-1.1.2-1.5.5-.4.3-.8.9-1.1 1.6-.2.5-.5 1.6-.9 3.2-.4 1.7-.8 2.9-1.1 3.5-.5.9-1 1.5-1.7 1.9-.7.4-1.4.6-2.3.6-.9 0-1.8-.3-2.6-.8s-1.4-1.3-1.8-2.3c-.4-1-.6-2.1-.6-3.3 0-1.4.2-2.5.7-3.6.4-1 1.1-1.8 1.9-2.4.8-.6 1.8-.9 2.9-.9l.2 2.3c-1.2.1-2 .5-2.6 1.3-.6.7-.9 1.8-.9 3.2 0 1.5.3 2.5.8 3.2.5.7 1.2 1 1.9 1s1.2-.2 1.6-.7c.4-.5.9-1.7 1.3-3.6.4-1.9.8-3.3 1.2-4 .5-1.1 1.1-1.8 1.9-2.4.8-.5 1.6-.8 2.6-.8s1.9.3 2.7.8c.9.6 1.5 1.4 2 2.4s.7 2.2.7 3.5c0 1.7-.2 3-.7 4.2-.5 1.1-1.2 2-2.2 2.6-.9.9-2 1.2-3.2 1.2zM2577.1 77.8h-18.3V64.6h2.2v10.8h5.6V65.3h2.1v10.1h6.2V64.2h2.2v13.6z"
     style="fill:#595959"
     id="path33" /><path
     style="clip-rule:evenodd;fill:#b2b2b2;fill-rule:evenodd"
     d="M135 302h2572.5v15H135z"
     id="path35" /><path
     d="M2706 314v-9s-1.5-1.5-3-1.5h0H139.5h0c-1.5 0-1.5 1.5-1.5 1.5v9h0c0 1.5 0 1.5 1.5 1.5H2703c1.5 0 3 0 3-1.5h0z"
     style="fill:#bfbfbf;stroke:gray;stroke-linecap:round;stroke-linejoin:round;stroke-miterlimit:10"
     id="path37" /><path
     d="m2639.1 40.5.9 1.7-1 .3-1.1-2.1v-1.1h9.8v1.3h-8.6z"
     id="path39" /><path
     style="clip-rule:evenodd;fill:#a6a6a6;fill-rule:evenodd"
     d="M294 164h114v94.5H294z"
     id="path41" /><path
     style="fill:none;stroke:#404040;stroke-width:.12;stroke-linecap:round;stroke-linejoin:round;stroke-miterlimit:10"
     d="M406.5 165.5H297h0V257h109.5z"
     id="path43" /><path
     d="M369 258.5v-6c0-1.5 0-1.5 1.5-1.5h4.5-1.5c1.5 0 3-1.5 3-3v-9c0-1.5 0-1.5 1.5-1.5h18l1.5-1.5v-54c0-1.5-1.5-3-1.5-3v1.5h-88.5V179c-1.5 0-1.5 1.5-1.5 3v54s0 1.5 1.5 1.5H327h-1.5c1.5 0 1.5 0 1.5 1.5h1.5v9H327c0 1.5 1.5 3 3 3h-1.5 4.5s1.5 0 1.5 1.5v6H369z"
     data-cv-id="PORT-0"
     style="clip-rule:evenodd;fill-rule:evenodd"
     id="path45" /><path
     style="clip-rule:evenodd;fill:#856427;fill-rule:evenodd"
     d="M376.5 182h3v9h-3zM369 182h3v9h-3zM354 182h3v9h-3zM361.5 182h3v9h-3zM345 182h4.5v9H345zM337.5 182h4.5v9h-4.5zM330 182h6v9h-6zM322.5 182h6v9h-6z"
     id="path47" /><path
     d="M314.9 149.9c.8.5 2 .9 3.3.9 1.9 0 3-1 3-2.4 0-1.3-.8-2.1-2.7-2.8-2.3-.8-3.7-2-3.7-4 0-2.2 1.8-3.8 4.6-3.8 1.4 0 2.5.3 3.1.7l-.5 1.5c-.5-.3-1.4-.7-2.7-.7-1.9 0-2.7 1.2-2.7 2.1 0 1.3.9 2 2.8 2.7 2.4.9 3.6 2.1 3.6 4.2 0 2.2-1.6 4.1-5 4.1-1.4 0-2.9-.4-3.6-.9l.5-1.6zM331.8 152.1v-6l-4.5-8.1h2.1l2 3.9c.5 1.1 1 1.9 1.4 2.9.4-.9.9-1.8 1.4-2.9l2-3.9h2.1l-4.7 8.1v6h-1.8zM342.2 152.1v-14.2h2l4.5 7.2c1 1.7 1.9 3.2 2.5 4.6-.2-1.9-.2-3.6-.2-5.8V138h1.7v14.2H351l-4.5-7.2c-1-1.6-1.9-3.2-2.6-4.7h-.1c.1 1.8.1 3.5.1 5.8v6h-1.7zM367.1 151.6c-.7.3-2 .7-3.7.7-4 0-7-2.5-7-7.2 0-4.4 3-7.4 7.4-7.4 1.8 0 2.9.4 3.4.6l-.4 1.5c-.7-.3-1.7-.6-2.9-.6-3.3 0-5.5 2.1-5.5 5.8 0 3.5 2 5.7 5.4 5.7 1.1 0 2.2-.2 3-.6l.3 1.5zM386.5 145.1c0 4.6-1.7 7.2-4.7 7.2-2.7 0-4.5-2.5-4.5-7 0-4.6 2-7.1 4.7-7.1 2.9 0 4.5 2.6 4.5 6.9zm-7.4.2c0 3.5 1.1 5.6 2.8 5.6 1.9 0 2.8-2.2 2.8-5.7 0-3.4-.9-5.6-2.8-5.6-1.6 0-2.8 2-2.8 5.7z"
     id="path49" /><path
     style="clip-rule:evenodd;fill:#404040;fill-rule:evenodd"
     d="M378 240.5h21v12h-21z"
     id="path51" /><path
     style="fill:none;stroke:#262626;stroke-width:.06;stroke-linecap:round;stroke-linejoin:round;stroke-miterlimit:10"
     d="M399 252.5v-12h0-21v12z"
     id="path53" /><path
     style="clip-rule:evenodd;fill:#404040;fill-rule:evenodd"
     d="M306 240.5h18v12h-18z"
     id="path55" /><path
     style="fill:none;stroke:#262626;stroke-width:.06;stroke-linecap:round;stroke-linejoin:round;stroke-miterlimit:10"
     d="M324 252.5v-12h0-18v12z"
     id="path57" /><path
     style="fill:none;stroke:#000;stroke-width:.06;stroke-linecap:round;stroke-linejoin:round;stroke-miterlimit:10"
     d="m307.5 180.5-12-13.5M396 180.5l10.5-13.5"
     id="path59" /><path
     style="fill:none;stroke:#8db1e2;stroke-width:.30000001;stroke-linecap:square;stroke-miterlimit:2"
     d="M297 159.5h109.5"
     id="path61" /><path
     style="clip-rule:evenodd;fill:#a6a6a6;fill-rule:evenodd"
     d="M423 164h114v94.5H423z"
     id="path63" /><path
     style="fill:none;stroke:#404040;stroke-width:.12;stroke-linecap:round;stroke-linejoin:round;stroke-miterlimit:2"
     d="M535.5 165.5H426h0V257h109.5z"
     id="path65" /><path
     d="M498 258.5v-6c0-1.5 0-1.5 1.5-1.5H498h4.5c1.5 0 3-1.5 3-3H504v-9h1.5c0-1.5 0-1.5 1.5-1.5h-1.5H525l1.5-1.5v-54c0-1.5-1.5-3-1.5-3v1.5h-90l1.5-1.5c-1.5 0-1.5 1.5-1.5 3v54s0 1.5 1.5 1.5H435h19.5c1.5 0 1.5 0 1.5 1.5v9c0 1.5 1.5 3 1.5 3h4.5s1.5 0 1.5 1.5v6H498z"
     data-cv-id="PORT-1"
     style="clip-rule:evenodd;fill-rule:evenodd"
     id="path67" /><path
     style="clip-rule:evenodd;fill:#856427;fill-rule:evenodd"
     d="M504 182h4.5v9H504zM496.5 182h6v9h-6zM481.5 182h6v9h-6zM489 182h6v9h-6zM474 182h6v9h-6zM466.5 182h4.5v9h-4.5zM460.5 182h3v9h-3zM453 182h3v9h-3z"
     id="path69" /><path
     d="M443.9 149.9c.8.5 2 .9 3.3.9 1.9 0 3-1 3-2.4 0-1.3-.8-2.1-2.7-2.8-2.3-.8-3.7-2-3.7-4 0-2.2 1.8-3.8 4.6-3.8 1.4 0 2.5.3 3.1.7l-.5 1.5c-.5-.3-1.4-.7-2.7-.7-1.9 0-2.7 1.2-2.7 2.1 0 1.3.9 2 2.8 2.7 2.4.9 3.6 2.1 3.6 4.2 0 2.2-1.6 4.1-5 4.1-1.4 0-2.9-.4-3.6-.9l.5-1.6zM460.7 152.1v-6l-4.5-8.1h2.1l2 3.9c.5 1.1 1 1.9 1.4 2.9.4-.9.9-1.8 1.4-2.9l2-3.9h2.1l-4.7 8.1v6h-1.8zM471.3 152.1v-14.2h2l4.5 7.2c1 1.7 1.9 3.2 2.5 4.6-.2-1.9-.2-3.6-.2-5.8V138h1.7v14.2H480l-4.5-7.2c-1-1.6-1.9-3.2-2.6-4.7h-.1c.1 1.8.1 3.5.1 5.8v6h-1.6zM496 151.6c-.7.3-2 .7-3.7.7-4 0-7-2.5-7-7.2 0-4.4 3-7.4 7.4-7.4 1.8 0 2.9.4 3.4.6l-.4 1.5c-.7-.3-1.7-.6-2.9-.6-3.3 0-5.5 2.1-5.5 5.8 0 3.5 2 5.7 5.4 5.7 1.1 0 2.2-.2 3-.6l.3 1.5zM510.6 140.2l-2.4 1.3-.4-1.4 3-1.6h1.6v13.6h-1.8v-11.9z"
     id="path71" /><path
     style="clip-rule:evenodd;fill:#404040;fill-rule:evenodd"
     d="M505.5 240.5h21v12h-21z"
     id="path73" /><path
     style="fill:none;stroke:#262626;stroke-width:.06;stroke-linecap:round;stroke-linejoin:round;stroke-miterlimit:2"
     d="M526.5 252.5v-12h0-21v12z"
     id="path75" /><path
     style="clip-rule:evenodd;fill:#404040;fill-rule:evenodd"
     d="M433.5 240.5h21v12h-21z"
     id="path77" /><path
     style="fill:none;stroke:#262626;stroke-width:.06;stroke-linecap:round;stroke-linejoin:round;stroke-miterlimit:2"
     d="M454.5 252.5v-12h0-21v12z"
     id="path79" /><path
     style="fill:none;stroke:#000;stroke-width:.06;stroke-linecap:round;stroke-linejoin:round;stroke-miterlimit:2"
     d="m435 180.5-9-13.5M525 180.5l10.5-13.5"
     id="path81" /><path
     style="fill:none;stroke:#8db1e2;stroke-width:.30000001;stroke-linecap:square;stroke-miterlimit:2"
     d="M426 159.5h109.5"
     id="path83" /><path
     style="clip-rule:evenodd;fill:#595959;fill-rule:evenodd"
     d="M64.5 215h78v21h-78z"
     id="path85" /><path
     style="fill:none;stroke:gray;stroke-width:.06;stroke-linecap:round;stroke-linejoin:round;stroke-miterlimit:2"
     d="M142.5 236h-78 0v-21h78z"
     id="path87" /><path
     style="clip-rule:evenodd;fill:#7f7f7f;fill-rule:evenodd"
     d="M0 213.5h24V284H0z"
     id="path89" /><path
     d="M21 282.5H6c-1.5 0-4.5-1.5-4.5-4.5h0v1.5V218v1.5c0-3 3-4.5 4.5-4.5h0l1.5 1.5H21"
     style="fill:none;stroke:gray;stroke-width:.06;stroke-linecap:round;stroke-linejoin:round;stroke-miterlimit:2"
     id="path91" /><path
     style="clip-rule:evenodd;fill:#7f7f7f;fill-rule:evenodd"
     d="M19.5 213.5h24V284h-24z"
     id="path93" /><path
     d="M21 282.5h21m0-66H21"
     style="fill:none;stroke:gray;stroke-width:.06;stroke-linecap:round;stroke-linejoin:round;stroke-miterlimit:2"
     id="path95" /><path
     style="clip-rule:evenodd;fill:#666;fill-rule:evenodd"
     d="M39 213.5h27V284H39z"
     id="path97" /><path
     d="M42 282.5h16.5c3 0 6-1.5 6-4.5h0v1.5V218v1.5c0-3-3-4.5-6-4.5v1.5H42"
     style="fill:none;stroke:gray;stroke-width:.06;stroke-linecap:round;stroke-linejoin:round;stroke-miterlimit:2"
     id="path99" /><path
     style="clip-rule:evenodd;fill:#d9d9d9;fill-rule:evenodd"
     d="M42 233h103.5v51H42z"
     id="path101" /><path
     d="M43.5 282.5c10.5-13.5 18-30 22.5-48l-1.5 1.5h78v46.5h-99 0z"
     style="fill:none;stroke:gray;stroke-width:.06;stroke-linecap:round;stroke-linejoin:round;stroke-miterlimit:2"
     id="path103" /><path
     d="M183 230c4.5 0 7.5 9 7.5 18 0 10.5-3 18-7.5 18s-7.5-7.5-7.5-18c0-9 3-18 7.5-18z"
     style="clip-rule:evenodd;fill:#8c8c8c;fill-rule:evenodd"
     id="path105" /><path
     d="M180 260v-22.5h0c4.5 1.5 7.5 7.5 6 13.5 0 4.5-3 7.5-6 7.5v1.5z"
     style="fill:none;stroke:#404040;stroke-width:.06;stroke-linecap:round;stroke-linejoin:round;stroke-miterlimit:2"
     id="path107" /><path
     style="clip-rule:evenodd;fill:#8c8c8c;fill-rule:evenodd"
     d="M180 269h-12l-4.5 13.5h-9v-66H180z"
     id="path109" /><path
     style="fill:none;stroke:gray;stroke-width:.06;stroke-linecap:round;stroke-linejoin:round;stroke-miterlimit:2"
     d="M180 269h-12l-4.5 13.5h-9 0v-66H180z"
     id="path111" /><path
     d="M124.5 282.5c10.5-12 16.5-27 19.5-42h-1.5V215h12v67.5h-30z"
     style="clip-rule:evenodd;fill:#a6a6a6;fill-rule:evenodd"
     id="path113" /><path
     d="M124.5 282.5c10.5-12 16.5-27 19.5-42h-1.5V215h12v67.5h-30 0z"
     style="fill:none;stroke:gray;stroke-width:.06;stroke-linecap:round;stroke-linejoin:round;stroke-miterlimit:2"
     id="path115" /><path
     d="M37.5 300.5v-12l16.5-6h489c3 0 6 3 6 6h-1.5v12h1.5c0 3-3 6-6 6H54l-16.5-6z"
     style="clip-rule:evenodd;fill:#595959;fill-rule:evenodd"
     id="path117" /><path
     d="M37.5 300.5v-12l16.5-6h489c3 0 6 3 6 6h-1.5v12h1.5c0 3-3 6-6 6h0H54l-16.5-6h0z"
     style="fill:none;stroke:gray;stroke-width:.06;stroke-linecap:round;stroke-linejoin:round;stroke-miterlimit:2"
     id="path119" /><path
     style="clip-rule:evenodd;fill:#737373;fill-rule:evenodd"
     d="M484.5 272H1047v45H484.5z"
     id="path121" /><path
     style="fill:none;stroke:#a6a6a6;stroke-width:.06;stroke-linecap:round;stroke-linejoin:round;stroke-miterlimit:2"
     d="M1047 272H484.5h0v45H1047z"
     id="path123" /><path
     d="M1059 272v45h-1.5c21 0 40.5-3 61.5-7.5h-1.5V281l1.5-1.5c-19.5-6-40.5-9-61.5-7.5h1.5z"
     style="clip-rule:evenodd;fill:#737373;fill-rule:evenodd"
     id="path125" /><path
     d="M1059 272v45h-1.5c21 0 40.5-3 61.5-7.5h-1.5V281l1.5-1.5c-19.5-6-40.5-9-61.5-7.5h1.5z"
     style="fill:none;stroke:#a6a6a6;stroke-width:.06;stroke-linecap:round;stroke-linejoin:round;stroke-miterlimit:2"
     id="path127" /><path
     d="M480 272c-18 1.5-31.5 13.5-28.5 25.5C453 308 465 315.5 480 317h4.5v-45H480z"
     style="clip-rule:evenodd;fill:#737373;fill-rule:evenodd"
     id="path129" /><path
     d="M480 272c-18 1.5-31.5 13.5-28.5 25.5C453 308 465 315.5 480 317h4.5v-45H480z"
     style="fill:none;stroke:#a6a6a6;stroke-width:.06;stroke-linecap:round;stroke-linejoin:round;stroke-miterlimit:2"
     id="path131" /><path
     style="clip-rule:evenodd;fill:#595959;fill-rule:evenodd"
     d="M1047 272h12v45h-12z"
     id="path133" /><path
     style="fill:none;stroke:#a6a6a6;stroke-width:.06;stroke-linecap:round;stroke-linejoin:round;stroke-miterlimit:2"
     d="M1059 272h-12 0v45h12z"
     id="path135" /><path
     style="clip-rule:evenodd;fill:#595959;fill-rule:evenodd"
     d="M2692.5 215h78v21h-78z"
     id="path137" /><path
     style="fill:none;stroke:gray;stroke-width:.06;stroke-linecap:round;stroke-linejoin:round;stroke-miterlimit:2"
     d="M2692.5 236h78v-21h-78z"
     id="path139" /><path
     d="M2652 230c-4.5 0-7.5 9-7.5 18 0 10.5 3 18 7.5 18s7.5-7.5 7.5-18c0-9-3-18-7.5-18z"
     style="clip-rule:evenodd;fill:#8c8c8c;fill-rule:evenodd"
     id="path141" /><path
     d="M2656.5 260v-22.5h0c-6 1.5-9 7.5-7.5 13.5 0 4.5 3 7.5 7.5 7.5v1.5z"
     style="fill:none;stroke:#404040;stroke-width:.06;stroke-linecap:round;stroke-linejoin:round;stroke-miterlimit:2"
     id="path143" /><path
     style="clip-rule:evenodd;fill:#8c8c8c;fill-rule:evenodd"
     d="M2656.5 269h10.5l1.5 13.5h12v-66h-24z"
     id="path145" /><path
     style="fill:none;stroke:gray;stroke-width:.06;stroke-linecap:round;stroke-linejoin:round;stroke-miterlimit:2"
     d="M2656.5 269h10.5l1.5 13.5h12v-66h-24z"
     id="path147" /><path
     d="M2710.5 282.5c-10.5-12-16.5-27-19.5-42h1.5V215h-12v67.5h30z"
     style="clip-rule:evenodd;fill:#a6a6a6;fill-rule:evenodd"
     id="path149" /><path
     d="M2710.5 282.5c-10.5-12-16.5-27-19.5-42h1.5V215h-12v67.5h30z"
     style="fill:none;stroke:gray;stroke-width:.06;stroke-linecap:round;stroke-linejoin:round;stroke-miterlimit:2"
     id="path151" /><path
     d="M2794.5 300.5v-12l-10.5-6h-426c-1.5 0-4.5 3-4.5 6v12c0 3 3 6 4.5 6h426l10.5-6z"
     style="clip-rule:evenodd;fill:#595959;fill-rule:evenodd"
     id="path153" /><path
     d="M2794.5 300.5v-12l-10.5-6h-426c-1.5 0-4.5 3-4.5 6h0v12h0c0 3 3 6 4.5 6h426l10.5-6h0z"
     style="fill:none;stroke:gray;stroke-width:.06;stroke-linecap:round;stroke-linejoin:round;stroke-miterlimit:2"
     id="path155" /><path
     d="m1678.4 284 4.1-10.7h1.5l4.4 10.7h-1.6l-1.3-3.3h-4.5l-1.2 3.3h-1.4zm3.1-4.4h3.6l-1.1-3c-.3-.9-.6-1.6-.8-2.2-.1.7-.3 1.4-.6 2.1l-1.1 3.1zM1697.8 280.2l1.4.4c-.3 1.2-.8 2.1-1.6 2.7-.8.6-1.7.9-2.8.9-1.2 0-2.1-.2-2.8-.7-.7-.5-1.3-1.2-1.7-2-.4-.8-.6-1.9-.6-2.9 0-1.1.2-2.1.6-2.9.4-.8 1-1.5 1.8-1.9.8-.4 1.7-.6 2.6-.6 1.1 0 2 .3 2.7.8.7.5 1.2 1.3 1.5 2.3l-1.4.3c-.2-.8-.6-1.4-1.1-1.7-.5-.3-1.1-.5-1.8-.5-.8 0-1.5.2-2.1.6-.6.4-.9.9-1.2 1.6-.2.7-.3 1.4-.3 2.1 0 .9.1 1.7.4 2.4.3.7.7 1.2 1.2 1.5.5.3 1.2.5 1.8.5.8 0 1.5-.2 2-.7.5-.5 1.2-1.3 1.4-2.2zM1704.8 284v-9.5h-3.5v-1.3h8.5v1.3h-3.6v9.5h-1.4zM1711.3 284v-10.7h1.4V284h-1.4zM1718.6 284l-4.2-10.7h1.5l2.8 7.8.6 1.8.6-1.8 2.9-7.8h1.5l-4.2 10.7h-1.5zM1724.8 284v-10.7h1.4V284h-1.4zM1731.9 284v-9.5h-3.5v-1.3h8.5v1.3h-3.6v9.5h-1.4zM1742.6 284v-4.5l-4.1-6.2h1.7l2.1 3.2c.4.6.8 1.2 1.1 1.8.3-.6.7-1.2 1.2-1.9l2.1-3.2h1.7l-4.3 6.2v4.5h-1.5z"
     id="path157" /><path
     style="clip-rule:evenodd;fill:#737373;fill-rule:evenodd"
     d="M1780.5 272H2343v45h-562.5z"
     id="path159" /><path
     style="fill:none;stroke:#a6a6a6;stroke-width:.06;stroke-linecap:round;stroke-linejoin:round;stroke-miterlimit:2"
     d="M1780.5 317H2343v-45h-562.5z"
     id="path161" /><path
     d="M1768.5 317v-45c-19.5 0-40.5 3-60 7.5V308c19.5 7.5 40.5 10.5 60 9z"
     style="clip-rule:evenodd;fill:#737373;fill-rule:evenodd"
     id="path163" /><path
     d="M1768.5 317v-45h0c-19.5 0-40.5 3-60 7.5h0V308h0c19.5 7.5 40.5 10.5 60 9h0z"
     style="fill:none;stroke:#a6a6a6;stroke-width:.06;stroke-linecap:round;stroke-linejoin:round;stroke-miterlimit:2"
     id="path165" /><path
     d="M2346 317c19.5-1.5 33-13.5 30-25.5-1.5-10.5-13.5-19.5-30-19.5h-3v45h3z"
     style="clip-rule:evenodd;fill:#737373;fill-rule:evenodd"
     id="path167" /><path
     d="M2346 317c19.5-1.5 33-13.5 30-25.5-1.5-10.5-13.5-19.5-30-19.5h0-3v45h3z"
     style="fill:none;stroke:#a6a6a6;stroke-width:.06;stroke-linecap:round;stroke-linejoin:round;stroke-miterlimit:2"
     id="path169" /><path
     style="clip-rule:evenodd;fill:#595959;fill-rule:evenodd"
     d="M1768.5 272h12v45h-12z"
     id="path171" /><path
     style="fill:none;stroke:#a6a6a6;stroke-width:.06;stroke-linecap:round;stroke-linejoin:round;stroke-miterlimit:2"
     d="M1768.5 317h12v-45h-12z"
     id="path173" /><path
     d="M138 138.5V260h0c0 3 1.5 6 4.5 6h93c3 0 4.5-3 4.5-6h0V114.5v1.5c0-18-15-33-33-33h0-69v55.5h0z"
     style="fill:none;stroke:#f2f2f2;stroke-width:.06;stroke-linecap:round;stroke-linejoin:round;stroke-miterlimit:2"
     id="path175" /><path
     style="clip-rule:evenodd;fill:#9f9f9f;fill-rule:evenodd"
     d="M61.5 221h84v96h-84z"
     id="path177" /><path
     d="M142.5 315.5V224H63v57h0c15 6 30 13.5 45 22.5 9 9 22.5 12 34.5 12h0z"
     style="fill:none;stroke:#737373;stroke-width:.06;stroke-linecap:round;stroke-linejoin:round;stroke-miterlimit:2"
     id="path179" /><path
     style="clip-rule:evenodd;fill:#9f9f9f;fill-rule:evenodd"
     d="M51 215h226.5v67.5H51z"
     id="path181" /><path
     d="M189 218c4.5 6 9 12 12 19.5 6 6 13.5 12 22.5 16.5v-1.5l51 16.5H126h0c-9 0-18 4.5-24 10.5-6 1.5-13.5 0-18-6-12-18-22.5-36-31.5-55.5H189z"
     style="fill:none;stroke:#737373;stroke-width:.06;stroke-linecap:round;stroke-linejoin:round;stroke-miterlimit:2"
     id="path183" /><path
     d="M2191.5 224c-7.5 0-12 6-12 13.5s4.5 13.5 12 13.5 13.5-6 13.5-13.5-6-13.5-13.5-13.5h0z"
     style="fill:#8c8c8c;stroke:#000;stroke-linecap:round;stroke-linejoin:round;stroke-miterlimit:2"
     id="path185" /><path
     d="m2193.2 214.1 2.9.9v1.2l-9.1-3.1v-1.4l9.1-3.1v1.3l-2.9 1v3.2zm-.9-3-2.6.9c-.6.2-1.1.3-1.7.5.5.1 1.1.3 1.6.5l2.6.9v-2.8zM2195.8 198.8c.2.4.4 1.3.4 2.4 0 2.6-1.6 4.5-4.6 4.5-2.8 0-4.8-1.9-4.8-4.8 0-1.1.2-1.9.4-2.2l1 .3c-.2.4-.4 1.1-.4 1.8 0 2.1 1.4 3.6 3.8 3.6 2.2 0 3.7-1.3 3.7-3.5 0-.7-.1-1.4-.4-1.9l.9-.2zM2191.4 188.2c3.1 0 4.8 1.9 4.8 4.2 0 2.4-1.9 4.1-4.6 4.1-2.9 0-4.8-1.8-4.8-4.2 0-2.5 1.9-4.1 4.6-4.1zm.2 7.1c1.9 0 3.7-1.1 3.7-2.9 0-1.9-1.7-2.9-3.8-2.9-1.8 0-3.7.9-3.7 2.9 0 1.9 1.8 2.9 3.8 2.9z"
     id="path187" /><path
     d="M2260.5 224c-7.5 0-12 6-12 13.5s4.5 13.5 12 13.5 13.5-6 13.5-13.5-6-13.5-13.5-13.5h0z"
     style="fill:#8c8c8c;stroke:#000;stroke-linecap:round;stroke-linejoin:round;stroke-miterlimit:2"
     id="path189" /><path
     d="M2246.9 217.1v-1.2h8.1V212h1v5.1h-9.1zM2253.2 206.4l2.9.9v1.2l-9.1-3.1V204l9.1-3.1v1.3l-2.9 1v3.2zm-1-3-2.6.9c-.6.2-1.1.3-1.7.5.5.1 1.1.3 1.6.5l2.6.9v-2.8zM2252 191.3c-1.3.1-2.8.1-3.9.1 1.1.3 2.2.7 3.5 1.1l4.4 1.6v.9l-4.3 1.5c-1.3.4-2.5.8-3.5 1.1 1.1 0 2.7.1 4 .2l3.9.2v1.1l-9.1-.6V197l4.4-1.6c1.1-.4 2.1-.7 3.1-.9-.9-.2-1.9-.6-3.1-1l-4.4-1.6v-1.5l9.1-.6v1.1l-4.1.4zM2247 187c-.1-.6-.2-1.3-.2-2.3 0-1.2.3-2 .8-2.6.4-.5 1.1-.8 1.9-.8.8 0 1.5.2 1.9.7.7.6 1 1.6 1 2.8 0 .4 0 .7-.1.9h3.6v1.2h-8.9zm4.4-1.2c.1-.3.1-.6.1-1 0-1.4-.7-2.3-1.9-2.3s-1.8.9-1.8 2.1c0 .5 0 .9.1 1.1h3.5zM2265.8 215.4v2.8h-1v-6.7h1v2.8h8.1v1.2h-8.1zM2269.7 203.4v3.5h3.3V203h1v5.1h-9.1v-4.9h1v3.7h2.9v-3.5h.9zM2272.5 199.3c.3-.5.6-1.3.6-2.1 0-1.2-.6-1.9-1.6-1.9-.9 0-1.3.5-1.8 1.7-.5 1.5-1.3 2.4-2.6 2.4-1.4 0-2.5-1.2-2.5-2.9 0-.9.2-1.6.4-2l1 .3c-.2.3-.4.9-.4 1.7 0 1.2.7 1.7 1.4 1.7.9 0 1.3-.6 1.8-1.8.6-1.5 1.3-2.3 2.7-2.3 1.4 0 2.6 1 2.6 3.2 0 .9-.3 1.8-.6 2.3l-1-.3zM2265.8 188.2v2.8h-1v-6.7h1v2.8h8.1v1.2h-8.1z"
     id="path191" /><pattern
     id="b"
     xlink:href="#a"
     patternTransform="matrix(25 0 0 25 228119.95 212011.97)" /><path
     d="M2346 222.5c-3-3-7.5-3-10.5 0s-3 7.5 0 10.5c3 1.5 7.5 1.5 10.5 0 1.5-3 1.5-7.5 0-10.5z"
     style="clip-rule:evenodd;fill:url(#b);fill-rule:evenodd"
     id="path194" /><path
     d="M2346 222.5c-3-3-7.5-3-10.5 0s-3 7.5 0 10.5c3 1.5 7.5 1.5 10.5 0 1.5-3 1.5-7.5 0-10.5h0z"
     style="fill:none;stroke:#737373;stroke-linecap:round;stroke-linejoin:round;stroke-miterlimit:2"
     id="path196" /><path
     d="m2345.6 217.6 3.1-3.1.6.6-2.3 2.3 1.9 1.9 2.2-2.2.6.6-2.2 2.2 2.6 2.6-.7.7-5.8-5.6zM2356.5 214.6l1.2 2.4-.8.8-3.8-7.7.9-.9 7.7 3.8-.8.8-2.4-1.2-2 2zm1.3-2.4-2.2-1.1c-.5-.2-.9-.5-1.3-.7.3.4.5.9.7 1.3l1.1 2.2 1.7-1.7zM2358.2 204.9l5.7 5.7-.7.7-5.7-5.7.7-.7zM2360.7 202.8l.7-.7 5.1 5.1 2.4-2.4.6.6-3.2 3.2-5.6-5.8z"
     id="path198" /><pattern
     id="d"
     xlink:href="#c"
     patternTransform="matrix(25 0 0 25 228119.95 212011.97)" /><path
     d="M2401.5 222.5c-3-3-7.5-3-10.5 0s-3 7.5 0 10.5c3 1.5 7.5 1.5 10.5 0 1.5-3 1.5-7.5 0-10.5z"
     style="clip-rule:evenodd;fill:url(#d);fill-rule:evenodd"
     id="path201" /><path
     d="M2401.5 222.5c-3-3-7.5-3-10.5 0s-3 7.5 0 10.5c3 1.5 7.5 1.5 10.5 0 1.5-3 1.5-7.5 0-10.5h0z"
     style="fill:none;stroke:#737373;stroke-linecap:round;stroke-linejoin:round;stroke-miterlimit:2"
     id="path203" /><path
     d="m2407.4 217.7 1.2 2.4-.8.8-3.8-7.7.9-.9 7.7 3.8-.8.8-2.4-1.2-2 2zm1.3-2.4-2.2-1.1c-.5-.2-.9-.5-1.3-.7.3.4.5.9.7 1.3l1.1 2.2 1.7-1.7zM2419.6 210.2c-.1.4-.5 1.1-1.2 1.8-1.6 1.6-3.8 1.8-5.7-.1-1.8-1.8-1.8-4.2 0-6 .7-.7 1.3-1 1.6-1.1l.4.8c-.4.1-.9.4-1.4.9-1.3 1.3-1.4 3.1.1 4.6 1.4 1.4 3.1 1.5 4.5.1.4-.4.8-1 1-1.4l.7.4zM2423.8 200.8c2 2 1.8 4.2.4 5.7-1.5 1.5-3.7 1.4-5.5-.3-1.8-1.8-1.9-4.1-.3-5.7 1.5-1.6 3.7-1.4 5.4.3zm-4.3 4.5c1.2 1.2 3 1.7 4.1.5 1.2-1.2.8-2.9-.5-4.2-1.1-1.1-2.9-1.7-4.1-.5-1.3 1.2-.8 3 .5 4.2z"
     id="path205" /><pattern
     id="f"
     xlink:href="#e"
     patternTransform="matrix(25 0 0 25 228119.95 212011.97)" /><path
     d="M2457 222.5c-3-3-7.5-3-10.5 0s-3 7.5 0 10.5c3 1.5 7.5 1.5 10.5 0 3-3 3-7.5 0-10.5z"
     style="clip-rule:evenodd;fill:url(#f);fill-rule:evenodd"
     id="path208" /><path
     d="M2457 222.5c-3-3-7.5-3-10.5 0s-3 7.5 0 10.5c3 1.5 7.5 1.5 10.5 0 3-3 3-7.5 0-10.5h0z"
     style="fill:none;stroke:#737373;stroke-linecap:round;stroke-linejoin:round;stroke-miterlimit:2"
     id="path210" /><path
     d="M2462.8 221.1c.5-.1 1.2-.4 1.7-.9.8-.8.8-1.6.2-2.2-.5-.5-1.1-.5-2.2-.1-1.3.6-2.3.7-3.1-.1-.9-.9-.8-2.3.3-3.4.6-.6 1.1-.9 1.5-1l.4.8c-.3.1-.8.3-1.4.8-.8.8-.6 1.5-.2 1.9.5.5 1.1.4 2.2 0 1.3-.6 2.3-.6 3.1.2.9.9 1 2.3-.4 3.6-.6.6-1.3 1-1.8 1.1l-.3-.7zM2471.1 214.6l-2.4-2.4-5.1-1.5.8-.8 2.4.8c.7.2 1.2.4 1.7.6-.2-.5-.4-1.1-.6-1.8l-.8-2.4.8-.8 1.4 5.2 2.4 2.4-.6.7zM2475.8 209.9l-5.7-5.7.8-.8 4.7 1.1c1.1.2 2 .5 2.9.8-.8-.7-1.5-1.4-2.4-2.3l-2.4-2.4.7-.7 5.7 5.7-.7.7-4.7-1.1c-1-.2-2.1-.5-3-.8.8.7 1.5 1.3 2.4 2.3l2.4 2.4-.7.8zM2485.6 199.7c-.1.4-.5 1.1-1.2 1.8-1.6 1.6-3.8 1.8-5.7-.1-1.8-1.8-1.8-4.2 0-6 .7-.7 1.3-1 1.6-1.1l.4.8c-.4.1-.9.4-1.4.9-1.3 1.3-1.4 3.1.1 4.6 1.4 1.4 3.1 1.5 4.5.1.5-.5.8-1 1-1.4l.7.4z"
     id="path212" /><pattern
     id="h"
     xlink:href="#g"
     patternTransform="matrix(25 0 0 25 228119.95 212011.97)" /><path
     style="clip-rule:evenodd;fill:url(#h);fill-rule:evenodd"
     d="M2493 87.5h55.5V215H2493z"
     id="path215" /><path
     style="fill:none;stroke:#737373;stroke-width:.06;stroke-linecap:round;stroke-linejoin:round;stroke-miterlimit:2"
     d="M2493 215h55.5V87.5H2493z"
     id="path217" /><path
     style="clip-rule:evenodd;fill:#b2b2b2;fill-rule:evenodd"
     d="M52.5 92H189v124.5H52.5z"
     id="path219" /><path
     d="M55.5 93.5V215v-1.5c0 1.5 0 1.5 1.5 1.5h129s1.5 0 1.5-1.5v1.5V93.5h-132 0z"
     style="fill:none;stroke:gray;stroke-width:.06;stroke-linecap:round;stroke-linejoin:round;stroke-miterlimit:2"
     id="path221" /><path
     d="M175.5 99.5c0-3-3-4.5-4.5-4.5l-1.5-1.5H57V95h-1.5c-22.5 3-39 25.5-36 51C21 165.5 36 182 54 185c1.5 0 1.5 1.5 1.5 3H57v1.5h-1.5c0 1.5 1.5 3 3 3V191h111l1.5 1.5c1.5 0 4.5-3 4.5-6v-87z"
     style="clip-rule:evenodd;fill:#bfbfbf;fill-rule:evenodd"
     id="path223" /><path
     d="M175.5 99.5c0-3-3-4.5-4.5-4.5h0l-1.5-1.5H57V95h-1.5c-22.5 3-39 25.5-36 51C21 165.5 36 182 54 185c1.5 0 1.5 1.5 1.5 3H57v1.5h-1.5c0 1.5 1.5 3 3 3V191h111l1.5 1.5c1.5 0 4.5-3 4.5-6v-87h0z"
     style="fill:none;stroke:#a5a5a5;stroke-width:.06;stroke-linecap:round;stroke-linejoin:round;stroke-miterlimit:2"
     id="path225" /><path
     d="M58.5 179c-21 0-39-16.5-39-39s18-40.5 39-40.5C81 99.5 99 117.5 99 140s-18 39-40.5 39h0z"
     style="fill:none;stroke:#9a9a9a;stroke-width:.06;stroke-linecap:round;stroke-linejoin:round;stroke-miterlimit:2"
     id="path227" /><path
     d="M58.5 162.5C46.5 162.5 36 152 36 140c0-13.5 10.5-24 22.5-24 13.5 0 24 10.5 24 24 0 12-10.5 22.5-24 22.5z"
     style="clip-rule:evenodd;fill:#d9d9d9;fill-rule:evenodd"
     id="path229" /><path
     d="M58.5 162.5C46.5 162.5 36 152 36 140c0-13.5 10.5-24 22.5-24 13.5 0 24 10.5 24 24 0 12-10.5 22.5-24 22.5h0z"
     style="fill:none;stroke:#4d4d4d;stroke-linecap:round;stroke-linejoin:round;stroke-miterlimit:2"
     id="path231" /><path
     style="fill:none;stroke:#1a1a1a;stroke-linecap:round;stroke-linejoin:round;stroke-miterlimit:2"
     d="M58.5 153.5v-27M72 140H45"
     id="path233" /><path
     style="clip-rule:evenodd;fill:#595959;fill-rule:evenodd"
     d="M2692.5 215h78v21h-78z"
     id="path235" /><path
     style="fill:none;stroke:gray;stroke-width:.06;stroke-linecap:round;stroke-linejoin:round;stroke-miterlimit:2"
     d="M2692.5 236h78v-21h-78z"
     id="path237" /><path
     style="clip-rule:evenodd;fill:#7f7f7f;fill-rule:evenodd"
     d="M2811 213.5h24V284h-24z"
     id="path239" /><path
     d="M2812.5 282.5h16.5c3 0 4.5-1.5 4.5-4.5h0v1.5V218v1.5c0-3-1.5-4.5-4.5-4.5h0l-1.5 1.5h-15"
     style="fill:none;stroke:gray;stroke-width:.06;stroke-linecap:round;stroke-linejoin:round;stroke-miterlimit:2"
     id="path241" /><path
     style="clip-rule:evenodd;fill:#7f7f7f;fill-rule:evenodd"
     d="M2791.5 213.5h24V284h-24z"
     id="path243" /><path
     d="M2812.5 282.5H2793m0-66h19.5"
     style="fill:none;stroke:gray;stroke-width:.06;stroke-linecap:round;stroke-linejoin:round;stroke-miterlimit:2"
     id="path245" /><path
     style="clip-rule:evenodd;fill:#666;fill-rule:evenodd"
     d="M2769 213.5h27V284h-27z"
     id="path247" /><path
     d="M2793 282.5h-16.5 0c-3 0-6-1.5-6-4.5h0v1.5V218v1.5c0-3 3-4.5 6-4.5v1.5h16.5"
     style="fill:none;stroke:gray;stroke-width:.06;stroke-linecap:round;stroke-linejoin:round;stroke-miterlimit:2"
     id="path249" /><path
     style="clip-rule:evenodd;fill:#d9d9d9;fill-rule:evenodd"
     d="M2689.5 233H2793v51h-103.5z"
     id="path251" /><path
     d="M2791.5 282.5c-10.5-13.5-18-30-22.5-48l1.5 1.5h-78v46.5h99z"
     style="fill:none;stroke:gray;stroke-width:.06;stroke-linecap:round;stroke-linejoin:round;stroke-miterlimit:2"
     id="path253" /><path
     d="M2652 230c-4.5 0-7.5 9-7.5 18 0 10.5 3 18 7.5 18s7.5-7.5 7.5-18c0-9-3-18-7.5-18z"
     style="clip-rule:evenodd;fill:#8c8c8c;fill-rule:evenodd"
     id="path255" /><path
     d="M2656.5 260v-22.5h0c-6 1.5-9 7.5-7.5 13.5 0 4.5 3 7.5 7.5 7.5v1.5z"
     style="fill:none;stroke:#404040;stroke-width:.06;stroke-linecap:round;stroke-linejoin:round;stroke-miterlimit:2"
     id="path257" /><path
     style="clip-rule:evenodd;fill:#8c8c8c;fill-rule:evenodd"
     d="M2656.5 269h10.5l1.5 13.5h12v-66h-24z"
     id="path259" /><path
     style="fill:none;stroke:gray;stroke-width:.06;stroke-linecap:round;stroke-linejoin:round;stroke-miterlimit:2"
     d="M2656.5 269h10.5l1.5 13.5h12v-66h-24z"
     id="path261" /><path
     d="M2710.5 282.5c-10.5-12-16.5-27-19.5-42h1.5V215h-12v67.5h30z"
     style="clip-rule:evenodd;fill:#a6a6a6;fill-rule:evenodd"
     id="path263" /><path
     d="M2710.5 282.5c-10.5-12-16.5-27-19.5-42h1.5V215h-12v67.5h30z"
     style="fill:none;stroke:gray;stroke-width:.06;stroke-linecap:round;stroke-linejoin:round;stroke-miterlimit:2"
     id="path265" /><path
     d="M2698.5 138.5V260h-1.5c0 3-1.5 6-4.5 6h0-93c-3 0-4.5-3-4.5-6h0V114.5v1.5c0-18 15-33 34.5-33h69v55.5h0z"
     style="fill:none;stroke:#f2f2f2;stroke-width:.06;stroke-linecap:round;stroke-linejoin:round;stroke-miterlimit:2"
     id="path267" /><path
     style="clip-rule:evenodd;fill:#b2b2b2;fill-rule:evenodd"
     d="M2646 92h136.5v124.5H2646z"
     id="path269" /><path
     d="M2779.5 93.5V215v-1.5c0 1.5 0 1.5-1.5 1.5h0-127.5 0c-1.5 0-3 0-3-1.5v1.5V93.5h132z"
     style="fill:none;stroke:gray;stroke-width:.06;stroke-linecap:round;stroke-linejoin:round;stroke-miterlimit:2"
     id="path271" /><path
     d="M2659.5 99.5c0-3 3-4.5 4.5-4.5l1.5-1.5H2778V95h1.5c22.5 3 40.5 25.5 37.5 51-3 19.5-18 36-36 39-1.5 0-1.5 1.5-1.5 3h-1.5v1.5h1.5c0 1.5-1.5 3-3 3V191h-111l-1.5 1.5c-1.5 0-4.5-3-4.5-6v-87z"
     style="clip-rule:evenodd;fill:#bfbfbf;fill-rule:evenodd"
     id="path273" /><path
     d="M2659.5 99.5c0-3 3-4.5 4.5-4.5h0l1.5-1.5H2778V95h1.5c22.5 3 40.5 25.5 37.5 51-3 19.5-18 36-36 39-1.5 0-1.5 1.5-1.5 3h-1.5v1.5h1.5c0 1.5-1.5 3-3 3V191h-111l-1.5 1.5c-1.5 0-4.5-3-4.5-6v-87h0z"
     style="fill:none;stroke:#a5a5a5;stroke-width:.06;stroke-linecap:round;stroke-linejoin:round;stroke-miterlimit:2"
     id="path275" /><path
     d="M2776.5 179c21 0 39-16.5 39-39s-18-40.5-39-40.5c-22.5 0-40.5 18-40.5 40.5s18 39 40.5 39h0z"
     style="fill:none;stroke:#9a9a9a;stroke-width:.06;stroke-linecap:round;stroke-linejoin:round;stroke-miterlimit:2"
     id="path277" /><path
     d="M2776.5 162.5c12 0 22.5-10.5 22.5-22.5 0-13.5-10.5-24-22.5-24-13.5 0-24 10.5-24 24 0 12 10.5 22.5 24 22.5z"
     style="clip-rule:evenodd;fill:#d9d9d9;fill-rule:evenodd;stroke:#d9d9d9;stroke-miterlimit:10"
     id="path279" /><path
     d="M2776.5 162.5c12 0 22.5-10.5 22.5-22.5 0-13.5-10.5-24-22.5-24-13.5 0-24 10.5-24 24 0 12 10.5 22.5 24 22.5h0z"
     style="fill:none;stroke:#4d4d4d;stroke-linecap:round;stroke-linejoin:round;stroke-miterlimit:2"
     id="path281" /><path
     style="fill:none;stroke:#1a1a1a;stroke-linecap:round;stroke-linejoin:round;stroke-miterlimit:2"
     d="M2776.5 153.5v-27M2763 140h27"
     id="path283" /><path
     style="clip-rule:evenodd;fill:#9f9f9f;fill-rule:evenodd"
     d="M2683.5 221h85.5v96h-85.5z"
     id="path285" /><path
     d="M2686.5 315.5V224h79.5v57h0c-15 6-30 13.5-43.5 22.5-10.5 9-24 12-36 12h0z"
     style="fill:none;stroke:#737373;stroke-width:.06;stroke-linecap:round;stroke-linejoin:round;stroke-miterlimit:2"
     id="path287" /><path
     d="M2640 218c-4.5 6-7.5 12-10.5 19.5-7.5 6-15 12-24 16.5v-1.5l-51 16.5H2703c9 0 18 4.5 25.5 10.5 6 1.5 13.5 0 16.5-6 12-18 22.5-36 31.5-55.5h0H2640h0z"
     style="fill:none;stroke:#737373;stroke-width:.06;stroke-linecap:round;stroke-linejoin:round;stroke-miterlimit:2"
     id="path289" /><path
     data-cv-id="PORT-12"
     style="clip-rule:evenodd;fill:#404040;fill-rule:evenodd"
     d="M579 80h103.5v96H579z"
     id="path291" /><path
     style="fill:none;stroke:#000;stroke-width:.06;stroke-linecap:round;stroke-linejoin:round;stroke-miterlimit:2"
     d="M579 80v96h103.5V80z"
     id="path293" /><path
     style="clip-rule:evenodd;fill:#856427;fill-rule:evenodd"
     d="M580.5 135.5h1.5v7.5h-1.5zM586.5 135.5h1.5v7.5h-1.5zM598.5 135.5h1.5v7.5h-1.5zM592.5 135.5h1.5v7.5h-1.5zM603 135.5h3v7.5h-3zM609 135.5h1.5v7.5H609zM613.5 135.5h1.5v7.5h-1.5z"
     id="path295" /><path
     d="M672 108.5h7.5V92H672v16.5zm0 31.5h7.5v-18H672v18z"
     style="clip-rule:evenodd;fill:#bfbfbf;fill-rule:evenodd"
     id="path297" /><path
     d="M672 108.5h7.5V92H672v16.5h0zm0 31.5h7.5v-18H672v18h0z"
     style="fill:none;stroke:#000;stroke-width:.06;stroke-linecap:round;stroke-linejoin:round;stroke-miterlimit:2"
     id="path299" /><path
     d="M628.5 104v-6H621v6h7.5zm12 0v-6h-9v6h9z"
     style="clip-rule:evenodd;fill:#737373;fill-rule:evenodd"
     id="path301" /><path
     d="M628.5 104v-6H621v6h7.5zm12 0v-6h-9v6h9z"
     style="fill:none;stroke:#000;stroke-width:.06;stroke-linecap:round;stroke-linejoin:round;stroke-miterlimit:2"
     id="path303" /><path
     data-cv-id="PORT-13"
     style="clip-rule:evenodd;fill:#404040;fill-rule:evenodd"
     d="M579 161h103.5v96H579z"
     id="path305" /><path
     style="fill:none;stroke:#000;stroke-width:.06;stroke-linecap:round;stroke-linejoin:round;stroke-miterlimit:2"
     d="M682.5 257v-96h0H579v96z"
     id="path307" /><path
     style="clip-rule:evenodd;fill:#856427;fill-rule:evenodd"
     d="M678 192.5h1.5v9H678zM672 192.5h3v9h-3zM661.5 192.5h1.5v9h-1.5zM666 192.5h3v9h-3zM655.5 192.5h1.5v9h-1.5zM649.5 192.5h1.5v9h-1.5zM643.5 192.5h1.5v9h-1.5z"
     id="path309" /><path
     d="M588 227h-7.5v18h7.5v-18zm0-30h-7.5v18h7.5v-18z"
     style="clip-rule:evenodd;fill:#bfbfbf;fill-rule:evenodd"
     id="path311" /><path
     d="M588 227h-7.5v18h7.5v-18h0zm0-30h-7.5v18h7.5v-18h0z"
     style="fill:none;stroke:#000;stroke-width:.06;stroke-linecap:round;stroke-linejoin:round;stroke-miterlimit:2"
     id="path313" /><path
     d="M631.5 233v6h9v-6h-9zm-10.5 0v6h7.5v-6H621z"
     style="clip-rule:evenodd;fill:#737373;fill-rule:evenodd"
     id="path315" /><path
     d="M631.5 233v6h9v-6h-9 0zm-10.5 0v6h7.5v-6H621h0z"
     style="fill:none;stroke:#000;stroke-width:.06;stroke-linecap:round;stroke-linejoin:round;stroke-miterlimit:2"
     id="path317" /><path
     d="M654 180.5v9h28.5V149H654v7.5h-46.5V149H579v40.5h28.5v-9H654zm-37.5-30h27c3 0 6-3 6-6V143h-39l1.5 1.5c0 3 1.5 6 4.5 6zm27 34.5h-27c-3 1.5-6 4.5-4.5 7.5h-1.5 39c-1.5-3-3-6-6-7.5z"
     style="clip-rule:evenodd;fill:#c1c5cb;fill-rule:evenodd"
     id="path319" /><path
     d="M654 180.5v9h28.5V149H654v7.5h-46.5V149H579v40.5h28.5v-9H654zm-37.5-30h27c3 0 6-3 6-6h0V143h-39l1.5 1.5c0 3 1.5 6 4.5 6h0zm27 34.5h-27 0c-3 1.5-6 4.5-4.5 7.5h0-1.5 39c-1.5-3-3-6-6-7.5h0z"
     style="fill:none;stroke:#737373;stroke-width:.06;stroke-linecap:square;stroke-miterlimit:2"
     id="path321" /><path
     style="clip-rule:evenodd;fill:#595959;fill-rule:evenodd"
     d="M610.5 176H624l-7.5-15z"
     id="path323" /><path
     style="fill:none;stroke:#000;stroke-width:.06;stroke-linecap:round;stroke-linejoin:round;stroke-miterlimit:2"
     d="M610.5 176H624l-7.5-15z"
     id="path325" /><path
     style="clip-rule:evenodd;fill:#595959;fill-rule:evenodd"
     d="M636 161h13.5l-6 15z"
     id="path327" /><path
     style="fill:none;stroke:#000;stroke-width:.06;stroke-linecap:round;stroke-linejoin:round;stroke-miterlimit:2"
     d="M636 161h13.5l-6 15z"
     id="path329" /><path
     d="M602.3 68.1c.6.4 1.4.7 2.3.7 1.3 0 2.1-.7 2.1-1.7 0-.9-.5-1.5-1.9-2-1.6-.6-2.7-1.4-2.7-2.9 0-1.6 1.3-2.7 3.3-2.7 1 0 1.8.2 2.2.5l-.4 1.1c-.3-.2-1-.5-1.9-.5-1.4 0-1.9.8-1.9 1.5 0 .9.6 1.4 2 2 1.7.7 2.6 1.5 2.6 3 0 1.6-1.2 2.9-3.5 2.9-1 0-2-.3-2.6-.6l.4-1.3zM611.6 59.6h5.4v1.1h-4.1v3.4h3.8v1.1h-3.8v4.6h-1.3V59.6zM622.2 59.7c.6-.1 1.5-.2 2.5-.2 1.3 0 2.2.3 2.8.8.6.5.9 1.2.9 2.1 0 .9-.3 1.6-.8 2.2-.7.7-1.8 1.1-3.1 1.1-.4 0-.7 0-1-.1v4h-1.3v-9.9zm1.3 4.9c.3.1.6.1 1.1.1 1.6 0 2.5-.8 2.5-2.2 0-1.3-.9-2-2.4-2-.6 0-1 0-1.2.1v4zM635 61.8v3.5h3.4v.9H635v3.6h-1v-3.6h-3.4v-.9h3.4v-3.5h1zM650.6 64.8c0 3.3-1.2 5.1-3.4 5.1-1.9 0-3.2-1.8-3.2-5 0-3.3 1.4-5.1 3.4-5.1 2.1 0 3.2 1.9 3.2 5zm-5.3.1c0 2.5.8 4 2 4 1.4 0 2-1.6 2-4.1 0-2.4-.6-4-2-4-1.1 0-2 1.5-2 4.1z"
     id="path331" /><path
     style="fill:none;stroke:#8db1e2;stroke-width:.23999999;stroke-linecap:round;stroke-linejoin:round;stroke-miterlimit:2"
     d="m1197 254 1.5-1.5 1.5-1.5 1.5-3 1.5-1.5v-3l3-1.5v-3l1.5-3-1.5-3 1.5-1.5-1.5-3 1.5-3-1.5-3V221l-3-3v-3l-1.5-1.5-1.5-3h-3v-3h-1.5l-3-3h-3l-1.5-3h-3l-1.5-1.5-3 1.5-3-1.5-3 1.5-3-1.5-1.5 1.5h-3l-3 3h-3l-1.5 1.5-3 1.5v3h-3l-1.5 3-1.5 1.5v3l-3 3 1.5 3-3 1.5 1.5 3-1.5 3 1.5 1.5-1.5 3 3 3-1.5 3 3 1.5v3l1.5 1.5 1.5 3 3 1.5v3h3l1.5 1.5h3l3 3h1.5l3 1.5 3-1.5 3 1.5 1.5-1.5 3 1.5 3-1.5h3l1.5-3h3l1.5-1.5z"
     id="path333" /><path
     d="M1177.5 198.5c-18 0-33 15-33 33 0 16.5 15 31.5 33 31.5 16.5 0 31.5-15 31.5-31.5 0-18-15-33-31.5-33z"
     style="clip-rule:evenodd;fill:#7f650c;fill-rule:evenodd"
     id="path335" /><path
     d="M1177.5 210.5c-12 0-21 9-21 21 0 10.5 9 19.5 21 19.5 10.5 0 19.5-9 19.5-19.5 0-12-9-21-19.5-21h0z"
     style="fill:none;stroke:gray;stroke-width:.06;stroke-linecap:round;stroke-linejoin:round;stroke-miterlimit:2"
     id="path337" /><path
     style="fill:none;stroke:#8c8c8c;stroke-width:.06;stroke-linecap:round;stroke-linejoin:round;stroke-miterlimit:2"
     d="M1152 233h4.5v-6h-4.5zM1198.5 233h3v-6h-3z"
     id="path339" /><path
     d="M1177.5 206c-15 0-25.5 10.5-25.5 25.5 0 13.5 10.5 24 25.5 24 13.5 0 24-10.5 24-24 0-15-10.5-25.5-24-25.5z"
     style="clip-rule:evenodd;fill:#7f7f7f;fill-rule:evenodd"
     id="path341" /><path
     d="M1177.5 215c-9 0-16.5 7.5-16.5 16.5 0 7.5 7.5 15 16.5 15 7.5 0 15-7.5 15-15 0-9-7.5-16.5-15-16.5h0z"
     style="fill:none;stroke:gray;stroke-width:.06;stroke-linecap:round;stroke-linejoin:round;stroke-miterlimit:2"
     id="path343" /><path
     d="M1177.5 225.5c-4.5 0-6 1.5-6 6 0 3 1.5 4.5 6 4.5 3 0 6-1.5 6-4.5 0-4.5-3-6-6-6z"
     style="clip-rule:evenodd;fill-rule:evenodd"
     id="path345" /><path
     d="M1177.5 225.5c-4.5 0-6 1.5-6 6 0 3 1.5 4.5 6 4.5 3 0 6-1.5 6-4.5 0-4.5-3-6-6-6h0z"
     style="fill:none;stroke:#fff;stroke-width:.06;stroke-linecap:round;stroke-linejoin:round;stroke-miterlimit:2"
     id="path347" /><path
     style="fill:none;stroke:#8c8c8c;stroke-width:.06;stroke-linecap:round;stroke-linejoin:round;stroke-miterlimit:2"
     d="m1167 248 4.5 3h0v-6l-4.5-1.5zM1185 251h-4.5 0v-4.5l4.5-1.5z"
     id="path349" /><path
     style="fill:none;stroke:#8db1e2;stroke-width:.23999999;stroke-linecap:round;stroke-linejoin:round;stroke-miterlimit:2"
     d="m1264.5 254 1.5-1.5 3-1.5v-3l3-1.5v-3l1.5-1.5v-3l1.5-3v-3l1.5-1.5-1.5-3v-3l-1.5-3V221l-1.5-3v-3l-3-1.5v-3h-3l-1.5-3h-1.5l-1.5-3h-3l-1.5-3h-3l-3-1.5-3 1.5-1.5-1.5-3 1.5-3-1.5-3 1.5h-3l-1.5 3h-3l-1.5 1.5-3 1.5-1.5 3h-3v3l-3 1.5v3l-1.5 3v3l-1.5 1.5v3l-1.5 3 1.5 1.5v3l1.5 3v3l1.5 1.5v3l3 1.5v3l3 1.5 1.5 3h3l1.5 1.5h3l1.5 3h3l1.5 1.5 3-1.5 3 1.5 3-1.5 3 1.5 1.5-1.5h3l3-3h1.5l1.5-1.5z"
     id="path351" /><path
     d="M1245 198.5c-18 0-31.5 15-31.5 33 0 16.5 13.5 31.5 31.5 31.5s31.5-15 31.5-31.5c0-18-13.5-33-31.5-33z"
     style="clip-rule:evenodd;fill:#7f650c;fill-rule:evenodd"
     id="path353" /><path
     d="M1245 210.5c-12 0-21 9-21 21 0 10.5 9 19.5 21 19.5s21-9 21-19.5c0-12-9-21-21-21h0z"
     style="fill:none;stroke:gray;stroke-width:.06;stroke-linecap:round;stroke-linejoin:round;stroke-miterlimit:2"
     id="path355" /><path
     style="fill:none;stroke:#8c8c8c;stroke-width:.06;stroke-linecap:round;stroke-linejoin:round;stroke-miterlimit:2"
     d="M1221 233h3v-6h-3zM1266 233h4.5v-6h-4.5z"
     id="path357" /><path
     d="M1245 206c-13.5 0-24 10.5-24 25.5 0 13.5 10.5 24 24 24s25.5-10.5 25.5-24c0-15-12-25.5-25.5-25.5z"
     style="clip-rule:evenodd;fill:#7f7f7f;fill-rule:evenodd"
     id="path359" /><path
     d="M1245 215c-9 0-15 7.5-15 16.5 0 7.5 6 15 15 15s15-7.5 15-15c0-9-6-16.5-15-16.5h0z"
     style="fill:none;stroke:gray;stroke-width:.06;stroke-linecap:round;stroke-linejoin:round;stroke-miterlimit:2"
     id="path361" /><path
     d="M1245 225.5c-3 0-6 1.5-6 6 0 3 3 4.5 6 4.5s6-1.5 6-4.5c0-4.5-3-6-6-6z"
     style="clip-rule:evenodd;fill-rule:evenodd"
     id="path363" /><path
     d="M1245 225.5c-3 0-6 1.5-6 6 0 3 3 4.5 6 4.5s6-1.5 6-4.5c0-4.5-3-6-6-6h0z"
     style="fill:none;stroke:#fff;stroke-width:.06;stroke-linecap:round;stroke-linejoin:round;stroke-miterlimit:2"
     id="path365" /><path
     style="fill:none;stroke:#8c8c8c;stroke-width:.06;stroke-linecap:round;stroke-linejoin:round;stroke-miterlimit:2"
     d="m1236 248 4.5 3h0v-6l-4.5-1.5zM1252.5 251h-3 0v-4.5l3-1.5z"
     id="path367" /><path
     d="m1149.4 182.3-2.4 1.3-.4-1.4 3-1.6h1.6v13.6h-1.8v-11.9zM1165 187.3c0 4.6-1.7 7.2-4.7 7.2-2.7 0-4.5-2.5-4.5-7 0-4.6 2-7.1 4.7-7.1 2.9 0 4.5 2.6 4.5 6.9zm-7.4.2c0 3.5 1.1 5.6 2.8 5.6 1.9 0 2.8-2.2 2.8-5.7 0-3.4-.9-5.6-2.8-5.6-1.6 0-2.8 2-2.8 5.7zM1180.6 188.1c-.1-2-.2-4.3-.2-6.1h-.1c-.5 1.7-1.1 3.4-1.8 5.4l-2.5 6.9h-1.4l-2.3-6.7c-.7-2-1.2-3.8-1.6-5.5 0 1.8-.1 4.1-.3 6.3l-.4 6.1h-1.7l1-14.2h2.3l2.4 6.8c.6 1.7 1.1 3.3 1.4 4.8h.1c.4-1.4.9-3 1.5-4.8l2.5-6.8h2.3l.9 14.2h-1.8l-.3-6.4zM1186.9 180.1v5.9h6.8v-5.9h1.8v14.2h-1.8v-6.6h-6.8v6.6h-1.8v-14.2h1.8zM1198.9 193.2l4.6-6c.4-.5.9-1 1.3-1.6h-5.5v-1.5h7.7v1.2l-4.5 5.9c-.4.6-.8 1.1-1.3 1.6h5.9v1.5h-8.3v-1.1zM1227.5 182.3l-2.4 1.3-.4-1.4 3-1.6h1.6v13.6h-1.8v-11.9zM1234.5 180.3c.9-.1 2-.3 3.5-.3 1.8 0 3.1.4 4 1.2.8.7 1.2 1.7 1.2 3s-.4 2.3-1.1 3c-1 1-2.5 1.6-4.3 1.6-.5 0-1 0-1.5-.1v5.7h-1.8v-14.1zm1.9 6.8c.4.1.9.1 1.5.1 2.2 0 3.5-1.1 3.5-3s-1.3-2.8-3.3-2.8c-.8 0-1.4.1-1.7.1v5.6zM1248.2 180.3c.9-.1 2-.3 3.5-.3 1.8 0 3.1.4 4 1.2.8.7 1.2 1.7 1.2 3s-.4 2.3-1.1 3c-1 1-2.5 1.6-4.3 1.6-.5 0-1 0-1.5-.1v5.7h-1.8v-14.1zm1.8 6.8c.4.1.9.1 1.5.1 2.2 0 3.5-1.1 3.5-3s-1.3-2.8-3.3-2.8c-.8 0-1.4.1-1.7.1v5.6zM1261.4 192c.8.5 2 .9 3.3.9 1.9 0 3-1 3-2.4 0-1.3-.8-2.1-2.7-2.8-2.3-.8-3.7-2-3.7-4 0-2.2 1.8-3.8 4.6-3.8 1.4 0 2.5.3 3.1.7l-.5 1.5c-.5-.3-1.4-.7-2.7-.7-1.9 0-2.7 1.2-2.7 2.1 0 1.3.9 2 2.8 2.7 2.4.9 3.6 2.1 3.6 4.2 0 2.2-1.6 4.1-5 4.1-1.4 0-2.9-.4-3.6-.9l.5-1.6z"
     id="path369" /><path
     d="M1590 246.5V155c0-3-3-4.5-6-6h-40.5l1.5 1.5c-3 0-6 1.5-4.5 4.5v91.5h-1.5c0 3 3 4.5 4.5 4.5h40.5c3 0 6-1.5 6-4.5z"
     style="clip-rule:evenodd;fill:#1a1a1a;fill-rule:evenodd"
     id="path371" /><path
     d="M1590 246.5V155h0c0-3-3-4.5-6-6h-40.5l1.5 1.5c-3 0-6 1.5-4.5 4.5v91.5h-1.5c0 3 3 4.5 4.5 4.5h40.5c3 0 6-1.5 6-4.5h0"
     style="fill:none;stroke:#969696;stroke-width:.06;stroke-linecap:round;stroke-linejoin:round;stroke-miterlimit:2"
     id="path373" /><path
     d="M1549.5 156.5h-4.5s-3 1.5-3 3v81c0 3 3 4.5 3 4.5h4.5v3h30v-3h3c1.5 0 4.5-1.5 4.5-4.5v-81c0-1.5-3-3-4.5-3h-3v-3h-30v3z"
     style="clip-rule:evenodd;fill:#e6e6e6;fill-rule:evenodd"
     id="path375" /><path
     d="M1549.5 156.5h-4.5 0s-3 1.5-3 3h0v81h0c0 3 3 4.5 3 4.5h4.5v3h30v-3h3c1.5 0 4.5-1.5 4.5-4.5v-81h0c0-1.5-3-3-4.5-3h0-3v-3h-30v3"
     style="fill:none;stroke:#000;stroke-width:.06;stroke-linecap:round;stroke-linejoin:round;stroke-miterlimit:2"
     id="path377" /><path
     d="M1548 210.5V242c0 1.5 0 3 1.5 3h30s1.5-1.5 3-4.5v-81l-1.5-1.5-1.5-1.5h-30c-1.5 0-1.5 1.5-1.5 3V158v52.5z"
     data-cv-id="PORT-9"
     style="clip-rule:evenodd;fill:#333;fill-rule:evenodd"
     id="path379" /><path
     d="M1566 231.5v-6h-1.5v6h1.5zm0-19.5v-3h-1.5v3h1.5zm0-19.5V188h-1.5v4.5h1.5zm0-18V170h-1.5v4.5h1.5z"
     style="clip-rule:evenodd;fill:#e6a835;fill-rule:evenodd"
     id="path381" /><path
     style="fill:none;stroke:#dfd184;stroke-width:.06;stroke-linecap:round;stroke-linejoin:round;stroke-miterlimit:2"
     d="M1564.5 231.5h1.5v-6h-1.5zM1564.5 212h1.5v-3h-1.5zM1564.5 192.5h1.5V188h-1.5zM1564.5 174.5h1.5V170h-1.5z"
     id="path383" /><path
     style="clip-rule:evenodd;fill:#666;fill-rule:evenodd"
     d="M1552.5 162.5h10.5V239h-10.5z"
     id="path385" /><path
     style="fill:none;stroke:#4d4d4d;stroke-width:.12;stroke-linecap:round;stroke-linejoin:round;stroke-miterlimit:2"
     d="M1563 239v-76.5h0-10.5V239z"
     id="path387" /><path
     style="fill:none;stroke:#000;stroke-width:.06;stroke-linecap:round;stroke-linejoin:round;stroke-miterlimit:2"
     d="M1548 125h36"
     id="path389" /><path
     d="M1551 125c0-3-1.5-4.5-3-4.5h-1.5c-1.5 0-4.5 1.5-4.5 4.5 0 1.5 3 3 6 3h-1.5c3 0 4.5-1.5 4.5-3z"
     style="clip-rule:evenodd;fill-rule:evenodd"
     id="path391" /><path
     d="M1551 125c0-3-1.5-4.5-3-4.5h-1.5c-1.5 0-4.5 1.5-4.5 4.5h0c0 1.5 3 3 6 3h-1.5c3 0 4.5-1.5 4.5-3h0z"
     style="fill:none;stroke:#000;stroke-width:.06;stroke-linecap:round;stroke-linejoin:round;stroke-miterlimit:2"
     id="path393" /><path
     d="M1566 117.5c0-1.5 1.5-3 3-3s1.5 1.5 1.5 3 0 1.5-1.5 1.5-3 0-3-1.5z"
     style="clip-rule:evenodd;fill-rule:evenodd"
     id="path395" /><path
     d="M1566 117.5c0-1.5 1.5-3 3-3h0c1.5 0 1.5 1.5 1.5 3h0c0 1.5 0 1.5-1.5 1.5h0c-1.5 0-3 0-3-1.5h0z"
     style="fill:none;stroke:#000;stroke-width:.06;stroke-linecap:round;stroke-linejoin:round;stroke-miterlimit:2"
     id="path397" /><path
     style="clip-rule:evenodd;fill-rule:evenodd"
     d="m1585.5 125-6-4.5v7.5z"
     id="path399" /><path
     style="fill:none;stroke:#000;stroke-width:.06;stroke-linecap:round;stroke-linejoin:round;stroke-miterlimit:2"
     d="M1585.5 125h0l-6-4.5v7.5z"
     id="path401" /><path
     style="clip-rule:evenodd;fill-rule:evenodd"
     d="M1572 128h6v6h-6z"
     id="path403" /><path
     style="fill:none;stroke:#000;stroke-width:.06;stroke-linecap:round;stroke-linejoin:round;stroke-miterlimit:2"
     d="M1572 128v6h6v-6zM1561.5 125l4.5 4.5h1.5c0 1.5 1.5 1.5 1.5 1.5l1.5 1.5h1.5M1555.5 125l6-6v-1.5h4.5"
     id="path405" /><path
     style="clip-rule:evenodd;fill:#a6a6a6;fill-rule:evenodd"
     d="M724.5 164h114v94.5h-114z"
     id="path407" /><path
     style="fill:none;stroke:#404040;stroke-width:.12;stroke-linecap:round;stroke-linejoin:round;stroke-miterlimit:2"
     d="M837 165.5H726h0V257h111z"
     id="path409" /><path
     d="M798 258.5v-6c0-1.5 1.5-1.5 3-1.5h3c1.5 0 1.5-1.5 1.5-3v-9c0-1.5 1.5-1.5 1.5-1.5h18c1.5 0 3-1.5 3-1.5h-1.5v-54h1.5c0-1.5-1.5-3-3-3v1.5h-87V179c-1.5 0-3 1.5-3 3v54s1.5 1.5 3 1.5h18c1.5 0 1.5 0 1.5 1.5h1.5v9h-1.5c0 1.5 1.5 3 1.5 3h3c1.5 0 3 0 3 1.5h-1.5v6H798z"
     data-cv-id="PORT-2"
     style="clip-rule:evenodd;fill-rule:evenodd"
     id="path411" /><path
     style="clip-rule:evenodd;fill:#856427;fill-rule:evenodd"
     d="M805.5 182h4.5v9h-4.5zM798 182h4.5v9H798zM783 182h4.5v9H783zM790.5 182h4.5v9h-4.5zM775.5 182h4.5v9h-4.5zM768 182h3v9h-3zM760.5 182h6v9h-6zM753 182h6v9h-6z"
     id="path413" /><path
     d="M737.1 137.9v14.2h-1.8v-14.2h1.8zM748.5 145.4H743v5.1h6.1v1.5h-8v-14.2h7.6v1.5H743v4.5h5.5v1.6zM762.2 145.4h-5.5v5.1h6.1v1.5h-8v-14.2h7.6v1.5h-5.8v4.5h5.5v1.6zM775.5 145.4H770v5.1h6.1v1.5h-8v-14.2h7.6v1.5H770v4.5h5.5v1.6zM791 140.2l-2.4 1.3-.4-1.4 3-1.6h1.6v13.6H791v-11.9zM805.7 140h-5.2l-.5 3.5c.3 0 .6-.1 1.1-.1 1 0 2.1.2 2.9.7 1.1.6 2 1.8 2 3.5 0 2.7-2.1 4.7-5.1 4.7-1.5 0-2.8-.4-3.4-.8l.5-1.4c.6.3 1.7.8 2.9.8 1.7 0 3.2-1.1 3.2-3 0-1.8-1.2-3-3.9-3-.8 0-1.4.1-1.9.1l.9-6.6h6.5v1.6zM809.3 148.6c0-1.7 1-2.9 2.7-3.7v-.1c-1.5-.7-2.2-1.9-2.2-3.1 0-2.2 1.8-3.6 4.2-3.6 2.6 0 4 1.7 4 3.4 0 1.2-.6 2.4-2.2 3.2v.1c1.7.7 2.8 1.9 2.8 3.5 0 2.4-2 4-4.6 4-3 0-4.7-1.7-4.7-3.7zm7.4-.1c0-1.7-1.2-2.5-3-3-1.6.5-2.5 1.5-2.5 2.8-.1 1.4 1 2.6 2.7 2.6 1.7.1 2.8-1 2.8-2.4zm-5.1-6.8c0 1.4 1 2.1 2.6 2.5 1.2-.4 2.1-1.2 2.1-2.5 0-1.1-.7-2.2-2.3-2.2-1.6 0-2.4 1-2.4 2.2zM819.8 148.6c0-1.7 1-2.9 2.7-3.7v-.1c-1.5-.7-2.2-1.9-2.2-3.1 0-2.2 1.8-3.6 4.2-3.6 2.6 0 4 1.7 4 3.4 0 1.2-.6 2.4-2.2 3.2v.1c1.7.7 2.8 1.9 2.8 3.5 0 2.4-2 4-4.6 4-2.9 0-4.7-1.7-4.7-3.7zm7.4-.1c0-1.7-1.2-2.5-3-3-1.6.5-2.5 1.5-2.5 2.8-.1 1.4 1 2.6 2.7 2.6 1.7.1 2.8-1 2.8-2.4zm-5.1-6.8c0 1.4 1 2.1 2.6 2.5 1.2-.4 2.1-1.2 2.1-2.5 0-1.1-.7-2.2-2.3-2.2-1.5 0-2.4 1-2.4 2.2z"
     id="path415" /><path
     style="clip-rule:evenodd;fill:#404040;fill-rule:evenodd"
     d="M808.5 240.5h21v12h-21z"
     id="path417" /><path
     style="fill:none;stroke:#262626;stroke-width:.06;stroke-linecap:round;stroke-linejoin:round;stroke-miterlimit:2"
     d="M829.5 252.5v-12h0-21v12z"
     id="path419" /><path
     style="clip-rule:evenodd;fill:#404040;fill-rule:evenodd"
     d="M735 240.5h19.5v12H735z"
     id="path421" /><path
     style="fill:none;stroke:#262626;stroke-width:.06;stroke-linecap:round;stroke-linejoin:round;stroke-miterlimit:2"
     d="M754.5 252.5v-12h0H735v12z"
     id="path423" /><path
     style="fill:none;stroke:#000;stroke-width:.06;stroke-linecap:round;stroke-linejoin:round;stroke-miterlimit:2"
     d="M738 180.5 726 167M825 180.5l12-13.5"
     id="path425" /><path
     style="clip-rule:evenodd;fill:#a6a6a6;fill-rule:evenodd"
     d="M856.5 164h114v94.5h-114z"
     id="path427" /><path
     style="fill:none;stroke:#404040;stroke-width:.12;stroke-linecap:round;stroke-linejoin:round;stroke-miterlimit:2"
     d="M969 165.5H858h0V257h111z"
     id="path429" /><path
     d="M930 258.5v-6c0-1.5 1.5-1.5 1.5-1.5h4.5c1.5 0 1.5-1.5 1.5-3v-9c0-1.5 1.5-1.5 1.5-1.5h18c1.5 0 1.5-1.5 1.5-1.5v-54c0-1.5 0-3-1.5-3v1.5h-88.5V179s-1.5 1.5-1.5 3v54l1.5 1.5H888s1.5 0 1.5 1.5v9c0 1.5 0 3 1.5 3h-1.5 4.5c1.5 0 1.5 0 1.5 1.5v6H930z"
     data-cv-id="PORT-3"
     style="clip-rule:evenodd;fill-rule:evenodd"
     id="path431" /><path
     style="clip-rule:evenodd;fill:#856427;fill-rule:evenodd"
     d="M937.5 182h4.5v9h-4.5zM930 182h4.5v9H930zM915 182h4.5v9H915zM922.5 182h4.5v9h-4.5zM907.5 182h3v9h-3zM900 182h3v9h-3zM892.5 182h6v9h-6zM885 182h4.5v9H885z"
     id="path433" /><path
     d="M892.8 137.9v14.2H891v-14.2h1.8zM906.9 151.6c-.7.3-2 .7-3.7.7-4 0-7-2.5-7-7.2 0-4.4 3-7.4 7.4-7.4 1.8 0 2.9.4 3.4.6l-.4 1.5c-.7-.3-1.7-.6-2.9-.6-3.3 0-5.5 2.1-5.5 5.8 0 3.5 2 5.7 5.4 5.7 1.1 0 2.2-.2 3-.6l.3 1.5zM911.9 149.9c.8.5 2 .9 3.3.9 1.9 0 3-1 3-2.4 0-1.3-.8-2.1-2.7-2.8-2.3-.8-3.7-2-3.7-4 0-2.2 1.8-3.8 4.6-3.8 1.4 0 2.5.3 3.1.7l-.5 1.5c-.5-.3-1.4-.7-2.7-.7-1.9 0-2.7 1.2-2.7 2.1 0 1.3.9 2 2.8 2.7 2.4.9 3.6 2.1 3.6 4.2 0 2.2-1.6 4.1-5 4.1-1.4 0-2.9-.4-3.6-.9l.5-1.6zM934 145.1c0 4.6-1.7 7.2-4.7 7.2-2.7 0-4.5-2.5-4.5-7 0-4.6 2-7.1 4.7-7.1 2.8 0 4.5 2.6 4.5 6.9zm-7.4.2c0 3.5 1.1 5.6 2.8 5.6 1.9 0 2.8-2.2 2.8-5.7 0-3.4-.9-5.6-2.8-5.6-1.7 0-2.8 2-2.8 5.7z"
     id="path435" /><path
     style="fill:none;stroke:gray;stroke-width:.06;stroke-linecap:round;stroke-linejoin:round;stroke-miterlimit:2"
     d="M868.5 180.5 858 167M868.5 237.5 858 257M957 237.5l12 19.5M957 180.5l12-13.5"
     id="path437" /><path
     style="fill:none;stroke:#8db1e2;stroke-width:.30000001;stroke-linecap:square;stroke-miterlimit:2"
     d="M858 159.5h111"
     id="path439" /><path
     style="clip-rule:evenodd;fill:#a6a6a6;fill-rule:evenodd"
     d="M988.5 164h114v94.5h-114z"
     id="path441" /><path
     style="fill:none;stroke:#404040;stroke-width:.12;stroke-linecap:round;stroke-linejoin:round;stroke-miterlimit:2"
     d="M1099.5 165.5H990h0V257h109.5z"
     id="path443" /><path
     d="M1062 258.5v-6c0-1.5 1.5-1.5 1.5-1.5h4.5c1.5 0 1.5-1.5 1.5-3v-9c0-1.5 1.5-1.5 1.5-1.5h18c1.5 0 1.5-1.5 1.5-1.5v-54c0-1.5 0-3-1.5-3v1.5h-88.5V179s-1.5 1.5-1.5 3v54l1.5 1.5h19.5s1.5 0 1.5 1.5v9c0 1.5 0 3 1.5 3h-1.5 4.5c1.5 0 1.5 0 1.5 1.5v6h34.5z"
     data-cv-id="PORT-4"
     style="clip-rule:evenodd;fill-rule:evenodd"
     id="path445" /><path
     style="clip-rule:evenodd;fill:#856427;fill-rule:evenodd"
     d="M1069.5 182h4.5v9h-4.5zM1062 182h4.5v9h-4.5zM1047 182h3v9h-3zM1054.5 182h4.5v9h-4.5zM1039.5 182h3v9h-3zM1032 182h3v9h-3zM1024.5 182h4.5v9h-4.5zM1017 182h4.5v9h-4.5z"
     id="path447" /><path
     d="M1001 137.9v14.2h-1.8v-14.2h1.8zM1014.9 151.6c-.7.3-2 .7-3.7.7-4 0-7-2.5-7-7.2 0-4.4 3-7.4 7.4-7.4 1.8 0 2.9.4 3.4.6l-.4 1.5c-.7-.3-1.7-.6-2.9-.6-3.3 0-5.5 2.1-5.5 5.8 0 3.5 2 5.7 5.4 5.7 1.1 0 2.2-.2 3-.6l.3 1.5zM1018.5 149.9c.8.5 2 .9 3.3.9 1.9 0 3-1 3-2.4 0-1.3-.8-2.1-2.7-2.8-2.3-.8-3.7-2-3.7-4 0-2.2 1.8-3.8 4.6-3.8 1.4 0 2.5.3 3.1.7l-.5 1.5c-.5-.3-1.4-.7-2.7-.7-1.9 0-2.7 1.2-2.7 2.1 0 1.3.9 2 2.8 2.7 2.4.9 3.6 2.1 3.6 4.2 0 2.2-1.6 4.1-5 4.1-1.4 0-2.9-.4-3.6-.9l.5-1.6zM1037.1 140.2l-2.4 1.3-.4-1.4 3-1.6h1.6v13.6h-1.8v-11.9zM1042.7 152.9l5.9-15.2h1.4l-5.9 15.2h-1.4z"
     id="path449" /><path
     d="M1052.8 139.5h-4.3v-1.6h10.5v1.6h-4.3v12.6h-1.8v-12.6zM1074.2 144.9c0 4.9-3 7.5-6.6 7.5-3.7 0-6.4-2.9-6.4-7.2 0-4.5 2.8-7.4 6.6-7.4 3.9-.1 6.4 2.9 6.4 7.1zm-11 .2c0 3 1.6 5.7 4.5 5.7s4.5-2.7 4.5-5.9c0-2.8-1.5-5.8-4.5-5.8-3 .1-4.5 2.9-4.5 6zM1078.7 138.1c1.1-.2 2.4-.3 3.9-.3 2.6 0 4.5.6 5.7 1.8 1.3 1.2 2 2.8 2 5.1s-.7 4.2-2 5.5c-1.3 1.3-3.5 2-6.3 2-1.3 0-2.4-.1-3.3-.2v-13.9zm1.8 12.5c.5.1 1.1.1 1.8.1 3.9 0 6-2.2 6-6 0-3.3-1.9-5.5-5.7-5.5-.9 0-1.7.1-2.1.2v11.2z"
     id="path451" /><path
     style="fill:none;stroke:gray;stroke-width:.06;stroke-linecap:round;stroke-linejoin:round;stroke-miterlimit:2"
     d="M1000.5 180.5 990 167M1000.5 237.5 990 257M1089 237.5l12 19.5M1089 180.5l12-13.5"
     id="path453" /><path
     style="fill:none;stroke:#8db1e2;stroke-width:.30000001;stroke-linecap:square;stroke-miterlimit:2"
     d="M990 159.5h109.5"
     id="path455" /><path
     d="M1407 195.5c0-1.5-1.5-4.5-4.5-4.5-1.5 0-3 3-3 4.5s1.5 3 3 3c3 0 4.5-1.5 4.5-3h0zM1375.5 222.5c0-3-1.5-4.5-3-4.5-3 0-4.5 1.5-4.5 4.5 0 1.5 1.5 3 4.5 3 1.5 0 3-1.5 3-3h0zM1416 222.5c0-3-1.5-4.5-3-4.5s-3 1.5-3 4.5c0 1.5 1.5 3 3 3s3-1.5 3-3h0zM1449 195.5c0-1.5-1.5-4.5-3-4.5-3 0-4.5 3-4.5 4.5s1.5 3 4.5 3c1.5 0 3-1.5 3-3h0z"
     style="fill:none;stroke:#d9d9d9;stroke-width:.06;stroke-linecap:round;stroke-linejoin:round;stroke-miterlimit:2"
     id="path457" /><path
     d="m1346.6 134-1.5 4.5h-1.9l4.8-14.2h2.2l4.8 14.2h-2l-1.5-4.5h-4.9zm4.6-1.5-1.4-4.1c-.3-.9-.5-1.8-.7-2.6-.2.8-.4 1.7-.7 2.6l-1.4 4.1h4.2zM1359.1 124.3h1.8v12.6h6v1.5h-7.9v-14.1zM1373.3 134l-1.5 4.5h-1.9l4.8-14.2h2.2l4.8 14.2h-2l-1.5-4.5h-4.9zm4.7-1.5-1.4-4.1c-.3-.9-.5-1.8-.7-2.6-.2.8-.4 1.7-.7 2.6l-1.4 4.1h4.2zM1386.3 124.4c.9-.2 2.2-.3 3.5-.3 2 0 3.2.4 4.1 1.2.7.6 1.1 1.6 1.1 2.7 0 1.9-1.2 3.1-2.7 3.6v.1c1.1.4 1.7 1.4 2.1 2.9.5 2 .8 3.3 1.1 3.9h-1.9c-.2-.4-.5-1.6-.9-3.4-.4-2-1.2-2.7-2.8-2.8h-1.7v6.1h-1.8v-14zm1.8 6.5h1.9c2 0 3.2-1.1 3.2-2.7 0-1.8-1.3-2.6-3.3-2.6-.9 0-1.5.1-1.8.2v5.1zM1413.1 132.2c-.1-2-.2-4.3-.2-6.1h-.1c-.5 1.7-1.1 3.4-1.8 5.4l-2.5 6.9h-1.4l-2.3-6.7c-.7-2-1.2-3.8-1.6-5.5 0 1.8-.1 4.1-.3 6.3l-.4 6.1h-1.7l1-14.2h2.3l2.4 6.8c.6 1.7 1.1 3.3 1.4 4.8h.1c.4-1.4.9-3 1.5-4.8l2.5-6.8h2.3l.9 14.2h-1.8l-.3-6.4zM1435.7 131.2c0 4.9-3 7.5-6.6 7.5-3.7 0-6.4-2.9-6.4-7.2 0-4.5 2.8-7.4 6.6-7.4 3.9-.1 6.4 2.9 6.4 7.1zm-11 .2c0 3 1.6 5.7 4.5 5.7s4.5-2.7 4.5-5.9c0-2.8-1.5-5.8-4.5-5.8-3 .1-4.5 2.9-4.5 6zM1442 124.3v8.4c0 3.2 1.4 4.5 3.3 4.5 2.1 0 3.4-1.4 3.4-4.5v-8.4h1.8v8.2c0 4.3-2.3 6.1-5.4 6.1-2.9 0-5.1-1.7-5.1-6v-8.3h2zM1456.4 125.8h-4.3v-1.6h10.5v1.6h-4.3v12.6h-1.8v-12.6z"
     id="path459" /><path
     style="clip-rule:evenodd;fill:#a6a6a6;fill-rule:evenodd"
     d="M1611 164h114v94.5h-114z"
     id="path461" /><path
     style="fill:none;stroke:#404040;stroke-width:.12;stroke-linecap:round;stroke-linejoin:round;stroke-miterlimit:2"
     d="M1722 165.5h-109.5 0V257H1722z"
     id="path463" /><path
     d="M1684.5 258.5v-6c0-1.5 1.5-1.5 1.5-1.5h4.5c1.5 0 1.5-1.5 1.5-3v-9c0-1.5 1.5-1.5 1.5-1.5h18c1.5 0 1.5-1.5 1.5-1.5v-54c0-1.5 0-3-1.5-3v1.5h-87l-1.5-1.5s-1.5 1.5-1.5 3v54l1.5 1.5h19.5s1.5 0 1.5 1.5h-1.5v9h1.5c0 1.5 0 3 1.5 3h3c1.5 0 1.5 0 1.5 1.5v6h34.5z"
     data-cv-id="PORT-5"
     style="clip-rule:evenodd;fill-rule:evenodd"
     id="path465" /><path
     style="clip-rule:evenodd;fill:#856427;fill-rule:evenodd"
     d="M1690.5 182h6v9h-6zM1683 182h6v9h-6zM1669.5 182h4.5v9h-4.5zM1677 182h4.5v9h-4.5zM1662 182h4.5v9h-4.5zM1654.5 182h4.5v9h-4.5zM1647 182h3v9h-3zM1639.5 182h3v9h-3z"
     id="path467" /><path
     d="M1629.1 145.9c-.1-2-.2-4.3-.2-6.1h-.1c-.5 1.7-1.1 3.4-1.8 5.4l-2.5 6.9h-1.4l-2.3-6.7c-.7-2-1.2-3.8-1.6-5.5 0 1.8-.1 4.1-.3 6.3l-.4 6.1h-1.7l1-14.2h2.3l2.4 6.8c.6 1.7 1.1 3.3 1.4 4.8h.1c.4-1.4.9-3 1.5-4.8l2.5-6.8h2.3l.9 14.2h-1.8l-.3-6.4zM1644.5 151.5c-.8.3-2.4.8-4.3.8-2.1 0-3.9-.5-5.3-1.9-1.2-1.2-2-3.1-2-5.3 0-4.2 2.9-7.3 7.7-7.3 1.6 0 2.9.4 3.5.7l-.4 1.5c-.8-.3-1.7-.6-3.1-.6-3.4 0-5.7 2.1-5.7 5.7s2.2 5.7 5.5 5.7c1.2 0 2-.2 2.4-.4v-4.2h-2.9v-1.5h4.7v6.8zM1652.8 139.5h-4.3v-1.6h10.5v1.6h-4.3v12.6h-1.8v-12.6zM1668.1 137.9h1.8v12.6h6v1.5h-7.9v-14.1zM1682.5 147.6l-1.5 4.5h-1.9l4.8-14.2h2.2l4.8 14.2h-2l-1.5-4.5h-4.9zm4.7-1.4-1.4-4.1c-.3-.9-.5-1.8-.7-2.6-.2.8-.4 1.7-.7 2.6l-1.4 4.1h4.2zM1695.3 152.1v-14.2h2l4.5 7.2c1 1.7 1.9 3.2 2.5 4.6-.2-1.9-.2-3.6-.2-5.8V138h1.7v14.2h-1.8l-4.5-7.2c-1-1.6-1.9-3.2-2.6-4.7h-.1c.1 1.8.1 3.5.1 5.8v6h-1.6zM1718.5 145.1c0 4.6-1.7 7.2-4.7 7.2-2.7 0-4.5-2.5-4.5-7 0-4.6 2-7.1 4.7-7.1 2.9 0 4.5 2.6 4.5 6.9zm-7.4.2c0 3.5 1.1 5.6 2.8 5.6 1.9 0 2.8-2.2 2.8-5.7 0-3.4-.9-5.6-2.8-5.6-1.6 0-2.8 2-2.8 5.7z"
     id="path469" /><path
     style="clip-rule:evenodd;fill:#404040;fill-rule:evenodd"
     d="M1695 240.5h18v12h-18z"
     id="path471" /><path
     style="fill:none;stroke:#262626;stroke-width:.06;stroke-linecap:round;stroke-linejoin:round;stroke-miterlimit:2"
     d="M1713 252.5v-12h0-18v12z"
     id="path473" /><path
     style="clip-rule:evenodd;fill:#404040;fill-rule:evenodd"
     d="M1621.5 240.5h19.5v12h-19.5z"
     id="path475" /><path
     style="fill:none;stroke:#262626;stroke-width:.06;stroke-linecap:round;stroke-linejoin:round;stroke-miterlimit:2"
     d="M1641 252.5v-12h0-19.5v12z"
     id="path477" /><path
     style="fill:none;stroke:#000;stroke-width:.06;stroke-linecap:round;stroke-linejoin:round;stroke-miterlimit:2"
     d="m1624.5 180.5-12-13.5M1711.5 180.5l12-13.5"
     id="path479" /><path
     style="clip-rule:evenodd;fill:#a6a6a6;fill-rule:evenodd"
     d="M1749 164h112.5v94.5H1749z"
     id="path481" /><path
     style="fill:none;stroke:#404040;stroke-width:.12;stroke-linecap:round;stroke-linejoin:round;stroke-miterlimit:2"
     d="M1860 165.5h-109.5 0V257H1860z"
     id="path483" /><path
     d="M1822.5 258.5v-6c0-1.5 0-1.5 1.5-1.5h4.5s1.5-1.5 1.5-3v-9c0-1.5 0-1.5 1.5-1.5h18c1.5 0 1.5-1.5 1.5-1.5v-54c0-1.5 0-3-1.5-3v1.5H1761V179c-1.5 0-1.5 1.5-1.5 3v54s0 1.5 1.5 1.5h18c1.5 0 3 0 3 1.5h-1.5v9h1.5c0 1.5 0 3 1.5 3h-1.5 4.5c1.5 0 1.5 0 1.5 1.5v6h34.5z"
     data-cv-id="PORT-6"
     style="clip-rule:evenodd;fill-rule:evenodd"
     id="path485" /><path
     style="clip-rule:evenodd;fill:#856427;fill-rule:evenodd"
     d="M1828.5 182h6v9h-6zM1821 182h6v9h-6zM1807.5 182h3v9h-3zM1815 182h4.5v9h-4.5zM1800 182h3v9h-3zM1792.5 182h3v9h-3zM1785 182h3v9h-3zM1777.5 182h3v9h-3z"
     id="path487" /><path
     d="M1767 145.9c-.1-2-.2-4.3-.2-6.1h-.1c-.5 1.7-1.1 3.4-1.8 5.4l-2.5 6.9h-1.4l-2.3-6.7c-.7-2-1.2-3.8-1.6-5.5 0 1.8-.1 4.1-.3 6.3l-.4 6.1h-1.7l1-14.2h2.3l2.4 6.8c.6 1.7 1.1 3.3 1.4 4.8h.1c.4-1.4.9-3 1.5-4.8l2.5-6.8h2.3l.9 14.2h-1.8l-.3-6.4zM1782.4 151.5c-.8.3-2.4.8-4.3.8-2.1 0-3.9-.5-5.3-1.9-1.2-1.2-2-3.1-2-5.3 0-4.2 2.9-7.3 7.7-7.3 1.6 0 2.9.4 3.5.7l-.4 1.5c-.8-.3-1.7-.6-3.1-.6-3.4 0-5.7 2.1-5.7 5.7s2.2 5.7 5.5 5.7c1.2 0 2-.2 2.4-.4v-4.2h-2.9v-1.5h4.7v6.8zM1790.7 139.5h-4.3v-1.6h10.5v1.6h-4.3v12.6h-1.8v-12.6zM1806.2 137.9h1.8v12.6h6v1.5h-7.9v-14.1zM1820.4 147.6l-1.5 4.5h-1.9l4.8-14.2h2.2l4.8 14.2h-2l-1.5-4.5h-4.9zm4.7-1.4-1.4-4.1c-.3-.9-.5-1.8-.7-2.6-.2.8-.4 1.7-.7 2.6l-1.4 4.1h4.2zM1833.2 152.1v-14.2h2l4.5 7.2c1 1.7 1.9 3.2 2.5 4.6-.2-1.9-.2-3.6-.2-5.8V138h1.7v14.2h-1.8l-4.5-7.2c-1-1.6-1.9-3.2-2.6-4.7h-.1c.1 1.8.1 3.5.1 5.8v6h-1.6zM1851.6 140.2l-2.4 1.3-.4-1.4 3-1.6h1.6v13.6h-1.8v-11.9z"
     id="path489" /><path
     style="clip-rule:evenodd;fill:#404040;fill-rule:evenodd"
     d="M1831.5 240.5h19.5v12h-19.5z"
     id="path491" /><path
     style="fill:none;stroke:#262626;stroke-width:.06;stroke-linecap:round;stroke-linejoin:round;stroke-miterlimit:2"
     d="M1851 252.5v-12h0-19.5v12z"
     id="path493" /><path
     style="clip-rule:evenodd;fill:#404040;fill-rule:evenodd"
     d="M1759.5 240.5h19.5v12h-19.5z"
     id="path495" /><path
     style="fill:none;stroke:#262626;stroke-width:.06;stroke-linecap:round;stroke-linejoin:round;stroke-miterlimit:2"
     d="M1779 252.5v-12h0-19.5v12z"
     id="path497" /><path
     style="fill:none;stroke:#000;stroke-width:.06;stroke-linecap:round;stroke-linejoin:round;stroke-miterlimit:2"
     d="m1761 180.5-10.5-13.5M1849.5 180.5l12-13.5"
     id="path499" /><path
     style="clip-rule:evenodd;fill:#a6a6a6;fill-rule:evenodd"
     d="M1888.5 164h114v94.5h-114z"
     id="path501" /><path
     style="fill:none;stroke:#404040;stroke-width:.12;stroke-linecap:round;stroke-linejoin:round;stroke-miterlimit:2"
     d="M1999.5 165.5H1890h0V257h109.5z"
     id="path503" /><path
     d="M1962 258.5v-6c0-1.5 1.5-1.5 1.5-1.5h4.5s1.5-1.5 1.5-3v-9c0-1.5 1.5-1.5 1.5-1.5h18c1.5 0 1.5-1.5 1.5-1.5v-54c0-1.5 0-3-1.5-3v1.5h-88.5V179s-1.5 1.5-1.5 3v54l1.5 1.5h19.5s1.5 0 1.5 1.5v9c0 1.5 0 3 1.5 3h-1.5 4.5c1.5 0 1.5 0 1.5 1.5v6h34.5z"
     data-cv-id="PORT-7"
     style="clip-rule:evenodd;fill-rule:evenodd"
     id="path505" /><path
     style="clip-rule:evenodd;fill:#856427;fill-rule:evenodd"
     d="M1969.5 182h4.5v9h-4.5zM1962 182h4.5v9h-4.5zM1947 182h3v9h-3zM1954.5 182h4.5v9h-4.5zM1939.5 182h3v9h-3zM1932 182h3v9h-3zM1924.5 182h4.5v9h-4.5zM1917 182h4.5v9h-4.5z"
     id="path507" /><path
     d="M1905.9 151.6c-.7.3-2 .7-3.7.7-4 0-7-2.5-7-7.2 0-4.4 3-7.4 7.4-7.4 1.8 0 2.9.4 3.4.6l-.4 1.5c-.7-.3-1.7-.6-2.9-.6-3.3 0-5.5 2.1-5.5 5.8 0 3.5 2 5.7 5.4 5.7 1.1 0 2.2-.2 3-.6l.3 1.5zM1921.8 144.9c0 4.9-3 7.5-6.6 7.5-3.7 0-6.4-2.9-6.4-7.2 0-4.5 2.8-7.4 6.6-7.4 3.9-.1 6.4 2.9 6.4 7.1zm-11 .2c0 3 1.6 5.7 4.5 5.7s4.5-2.7 4.5-5.9c0-2.8-1.5-5.8-4.5-5.8-2.9.1-4.5 2.9-4.5 6zM1926.1 152.1v-14.2h2l4.5 7.2c1 1.7 1.9 3.2 2.5 4.6-.2-1.9-.2-3.6-.2-5.8V138h1.7v14.2h-1.8l-4.5-7.2c-1-1.6-1.9-3.2-2.6-4.7h-.1c.1 1.8.1 3.5.1 5.8v6h-1.6zM1940.9 149.9c.8.5 2 .9 3.3.9 1.9 0 3-1 3-2.4 0-1.3-.8-2.1-2.7-2.8-2.3-.8-3.7-2-3.7-4 0-2.2 1.8-3.8 4.6-3.8 1.4 0 2.5.3 3.1.7l-.5 1.5c-.5-.3-1.4-.7-2.7-.7-1.9 0-2.7 1.2-2.7 2.1 0 1.3.9 2 2.8 2.7 2.4.9 3.6 2.1 3.6 4.2 0 2.2-1.6 4.1-5 4.1-1.4 0-2.9-.4-3.6-.9l.5-1.6zM1966.7 144.9c0 4.9-3 7.5-6.6 7.5-3.7 0-6.4-2.9-6.4-7.2 0-4.5 2.8-7.4 6.6-7.4 3.9-.1 6.4 2.9 6.4 7.1zm-10.9.2c0 3 1.6 5.7 4.5 5.7s4.5-2.7 4.5-5.9c0-2.8-1.5-5.8-4.5-5.8-3 .1-4.5 2.9-4.5 6zM1969.7 137.9h1.8v12.6h6v1.5h-7.9v-14.1zM1990.7 145.4h-5.5v5.1h6.1v1.5h-8v-14.2h7.6v1.5h-5.8v4.5h5.5v1.6z"
     id="path509" /><path
     style="fill:none;stroke:gray;stroke-width:.06;stroke-linecap:round;stroke-linejoin:round;stroke-miterlimit:2"
     d="M1900.5 180.5 1890 167M1900.5 237.5 1890 257M1989 237.5l12 19.5M1989 180.5l12-13.5"
     id="path511" /><path
     style="fill:none;stroke:#c6d8f0;stroke-width:.30000001;stroke-linecap:square;stroke-miterlimit:2"
     d="M1890 159.5h109.5"
     id="path513" /><path
     style="clip-rule:evenodd;fill:#a6a6a6;fill-rule:evenodd"
     d="M2026.5 164H2139v94.5h-112.5z"
     id="path515" /><path
     style="fill:none;stroke:#404040;stroke-width:.12;stroke-linecap:round;stroke-linejoin:round;stroke-miterlimit:2"
     d="M2137.5 165.5H2028h0V257h109.5z"
     id="path517" /><path
     d="M2100 258.5v-6c0-1.5 0-1.5 1.5-1.5h4.5s1.5-1.5 1.5-3v-9c0-1.5 0-1.5 1.5-1.5h18c1.5 0 1.5-1.5 1.5-1.5v-54c0-1.5 0-3-1.5-3v1.5h-88.5V179c-1.5 0-1.5 1.5-1.5 3v54s0 1.5 1.5 1.5h19.5-1.5c1.5 0 3 0 3 1.5v9c0 1.5 0 3 1.5 3h-1.5 4.5c1.5 0 1.5 0 1.5 1.5v6h34.5z"
     data-cv-id="PORT-8"
     style="clip-rule:evenodd;fill-rule:evenodd"
     id="path519" /><path
     style="clip-rule:evenodd;fill:#856427;fill-rule:evenodd"
     d="M2107.5 182h3v9h-3zM2100 182h3v9h-3zM2085 182h3v9h-3zM2092.5 182h3v9h-3zM2077.5 182h3v9h-3zM2068.5 182h4.5v9h-4.5zM2061 182h6v9h-6zM2053.5 182h6v9h-6z"
     id="path521" /><path
     d="m2064.9 147.6-1.5 4.5h-1.9l4.8-14.2h2.2l4.8 14.2h-2l-1.5-4.5h-4.9zm4.7-1.4-1.4-4.1c-.3-.9-.5-1.8-.7-2.6-.2.8-.4 1.7-.7 2.6l-1.4 4.1h4.2zM2078.2 137.9v8.4c0 3.2 1.4 4.5 3.3 4.5 2.1 0 3.4-1.4 3.4-4.5v-8.4h1.8v8.2c0 4.3-2.3 6.1-5.4 6.1-2.9 0-5.1-1.7-5.1-6v-8.3h2zM2098.9 152.1l-1.8-3.1c-.7-1.2-1.2-2-1.6-2.8-.4.8-.8 1.6-1.5 2.8l-1.7 3.1h-2.1l4.3-7.2-4.2-7h2.1l1.9 3.3c.5.9.9 1.6 1.3 2.4h.1c.4-.8.8-1.5 1.3-2.4l1.9-3.3h2.1l-4.3 6.9 4.4 7.3h-2.2z"
     id="path523" /><path
     style="fill:none;stroke:gray;stroke-width:.06;stroke-linecap:round;stroke-linejoin:round;stroke-miterlimit:2"
     d="m2038.5 180.5-12-13.5M2038.5 237.5l-12 19.5M2127 237.5l10.5 19.5M2127 180.5l10.5-13.5"
     id="path525" /><path
     style="fill:none;stroke:#595959;stroke-width:.30000001;stroke-linecap:square;stroke-miterlimit:2"
     d="M2028 159.5h109.5"
     id="path527" /><path
     d="M2155.5 50c-9 0-18 9-18 21h0m0 39c0 10.5 9 19.5 18 19.5m159 0c10.5 0 18-9 18-19.5m0-39c0-12-7.5-21-18-21"
     style="fill:none;stroke:#000;stroke-linecap:round;stroke-linejoin:round;stroke-miterlimit:2"
     id="path529" /><path
     d="M1613.5 284v-10.7h1.4v9.5h5.3v1.3h-6.7zM1621.4 284v-10.7h1.4V284h-1.4zM1625.7 284v-10.7h1.5l5.6 8.4v-8.4h1.4V284h-1.5l-5.6-8.4v8.4h-1.4zM1636 284v-10.7h1.4v5.3l5.3-5.3h1.9l-4.5 4.4 4.7 6.4h-1.9l-3.8-5.4-1.8 1.7v3.7h-1.3z"
     id="path531" /><pattern
     id="j"
     xlink:href="#i"
     patternTransform="matrix(25 0 0 25 228119.95 212011.97)" /><path
     d="M2346 188c-3-3-7.5-3-10.5 0s-3 7.5 0 10.5c3 1.5 7.5 1.5 10.5 0 1.5-3 1.5-7.5 0-10.5z"
     style="clip-rule:evenodd;fill:url(#j);fill-rule:evenodd"
     id="path534" /><path
     d="M2346 188c-3-3-7.5-3-10.5 0s-3 7.5 0 10.5c3 1.5 7.5 1.5 10.5 0 1.5-3 1.5-7.5 0-10.5h0z"
     style="fill:none;stroke:#737373;stroke-linecap:round;stroke-linejoin:round;stroke-miterlimit:2"
     id="path536" /><path
     d="M2355 184.7c-.1.4-.5 1.1-1.2 1.8-1.6 1.6-3.8 1.8-5.7-.1-1.8-1.8-1.8-4.2 0-6 .7-.7 1.3-1 1.6-1.1l.4.8c-.4.1-.9.4-1.4.9-1.3 1.3-1.4 3.1.1 4.6 1.4 1.4 3.1 1.5 4.5.1.5-.5.8-1 1-1.4l.7.4zM2351.7 175.8c.3-.4.8-1 1.3-1.5.8-.8 1.4-1.2 2.1-1.2.5 0 1.1.2 1.5.6.8.8.8 1.7.4 2.5.6-.3 1.3-.1 2 .3 1 .6 1.7 1 2 1.1l-.8.8c-.3-.1-.9-.4-1.7-1-1-.6-1.6-.6-2.3 0l-.7.7 2.5 2.5-.7.7-5.6-5.5zm3.3 1.8.8-.8c.8-.8.9-1.7.2-2.4s-1.6-.5-2.4.2c-.4.4-.6.6-.7.8l2.1 2.2zM2359.7 168.7l5.7 5.7-.7.7-5.7-5.7.7-.7zM2362.3 166.2l-1.7 1.7-.6-.6 4.2-4.2.6.6-1.7 1.7 5.1 5.1-.7.7-5.2-5z"
     id="path538" /><pattern
     id="l"
     xlink:href="#k"
     patternTransform="matrix(25 0 0 25 228119.95 212011.97)" /><path
     d="M2401.5 188c-3-3-7.5-3-10.5 0s-3 7.5 0 10.5c3 1.5 7.5 1.5 10.5 0 1.5-3 1.5-7.5 0-10.5z"
     style="clip-rule:evenodd;fill:url(#l);fill-rule:evenodd"
     id="path541" /><path
     d="M2401.5 188c-3-3-7.5-3-10.5 0s-3 7.5 0 10.5c3 1.5 7.5 1.5 10.5 0 1.5-3 1.5-7.5 0-10.5h0z"
     style="fill:none;stroke:#737373;stroke-linecap:round;stroke-linejoin:round;stroke-miterlimit:2"
     id="path543" /><path
     d="M2410.5 178.4c-.8-.8-1.8-1.7-2.6-2.4.5.9 1 1.8 1.4 2.9l1.8 3.8-.6.6-3.6-1.8c-1.1-.5-2-1-2.9-1.6.7.7 1.6 1.7 2.4 2.6l2.3 2.6-.7.7-5.3-6.1.9-.9 3.7 1.8c.9.5 1.8.9 2.5 1.3-.4-.7-.9-1.6-1.3-2.5l-1.7-3.8.9-.9 6.1 5.4-.7.7-2.6-2.4zM2414.9 175.8l1.2 2.4-.8.8-3.8-7.7.9-.9 7.7 3.8-.8.8-2.4-1.2-2 2zm1.3-2.5-2.2-1.1c-.5-.2-.9-.5-1.3-.7.3.4.5.9.7 1.3l1.1 2.2 1.7-1.7zM2418.7 165.4l.7-.7 3.8 3.8c1.5 1.5 1.2 2.7.3 3.7-.3.3-.7.5-.9.7l-.5-.7c.2-.1.5-.3.7-.5.7-.7.8-1.3-.4-2.5l-3.7-3.8z"
     id="path545" /><pattern
     id="n"
     xlink:href="#m"
     patternTransform="matrix(25 0 0 25 228119.95 212011.97)" /><path
     d="M2457 188c-3-3-7.5-3-10.5 0s-3 7.5 0 10.5c3 1.5 7.5 1.5 10.5 0 3-3 3-7.5 0-10.5z"
     style="clip-rule:evenodd;fill:url(#n);fill-rule:evenodd"
     id="path548" /><path
     d="M2457 188c-3-3-7.5-3-10.5 0s-3 7.5 0 10.5c3 1.5 7.5 1.5 10.5 0 3-3 3-7.5 0-10.5h0z"
     style="fill:none;stroke:#737373;stroke-linecap:round;stroke-linejoin:round;stroke-miterlimit:2"
     id="path550" /><path
     d="M2466 180.1c-.8-.8-1.8-1.7-2.6-2.4.5.9 1 1.8 1.5 2.9l1.8 3.8-.6.6-3.6-1.8c-1.1-.5-2-1-2.9-1.6.7.7 1.6 1.7 2.4 2.6l2.3 2.6-.7.7-5.3-6.1.9-.9 3.7 1.8c.9.5 1.8.9 2.5 1.3-.4-.7-.9-1.6-1.3-2.5l-1.7-3.8.9-.9 6.1 5.4-.7.7-2.7-2.4zM2466.3 173.5l5.7 5.7-.7.7-5.7-5.7.7-.7zM2474.2 177l-5.7-5.7.8-.8 4.7 1.1c1.1.2 2 .5 2.9.8-.8-.7-1.5-1.4-2.4-2.3l-2.4-2.4.7-.7 5.7 5.7-.7.7-4.7-1.1c-1-.2-2.1-.5-3-.8.8.7 1.5 1.3 2.4 2.3l2.4 2.4-.7.8z"
     id="path552" /><path
     d="M1240.5 98h34.5c6 0 12 6 12 12l-1.5-1.5V176m-294-27v-40.5 1.5c0-6 4.5-12 10.5-12h43.5"
     style="fill:none;stroke:#000;stroke-linecap:round;stroke-linejoin:round;stroke-miterlimit:2"
     id="path554" /><path
     d="M1074.9 103.5c-.8.3-2.3.7-4 .7-2 0-3.6-.5-4.9-1.7-1.1-1.1-1.8-2.8-1.8-4.9 0-3.9 2.7-6.8 7.1-6.8 1.5 0 2.7.3 3.3.6l-.4 1.4c-.7-.3-1.6-.6-2.9-.6-3.2 0-5.3 2-5.3 5.3s2 5.3 5.1 5.3c1.1 0 1.9-.2 2.3-.3v-3.9h-2.7v-1.4h4.3v6.3zM1079.7 91c.8-.1 1.9-.3 3.3-.3 1.7 0 2.9.4 3.7 1.1.7.6 1.2 1.6 1.2 2.8 0 1.2-.4 2.1-1 2.8-.9 1-2.4 1.4-4 1.4-.5 0-1 0-1.4-.1v5.3h-1.7V91zm1.7 6.4c.4.1.8.1 1.4.1 2 0 3.3-1 3.3-2.8 0-1.7-1.2-2.6-3.1-2.6-.7 0-1.3.1-1.6.1v5.2zM1093.2 102c.8.5 1.9.9 3 .9 1.7 0 2.7-.9 2.7-2.2 0-1.2-.7-1.9-2.5-2.6-2.1-.8-3.5-1.9-3.5-3.7 0-2 1.7-3.6 4.3-3.6 1.3 0 2.3.3 2.9.6l-.5 1.4c-.4-.2-1.3-.6-2.5-.6-1.8 0-2.5 1.1-2.5 2 0 1.2.8 1.8 2.6 2.5 2.2.9 3.4 1.9 3.4 3.9s-1.5 3.8-4.6 3.8c-1.3 0-2.7-.4-3.4-.8l.6-1.6z"
     id="path556" /><g
     id="g560"><path
       d="M1113.1 90.9V104h-1.7V90.9h1.7z"
       id="path558" /></g><g
     id="g564"><path
       d="M1116.1 104V90.9h1.9l4.2 6.6c1 1.5 1.7 2.9 2.4 4.3-.2-1.8-.2-3.4-.2-5.4v-5.5h1.6V104h-1.7l-4.2-6.7c-.9-1.5-1.8-3-2.5-4.4h-.1c.1 1.7.1 3.2.1 5.4v5.6h-1.5z"
       id="path562" /></g><g
     id="g568"><path
       d="M1132 92.3h-4v-1.4h9.7v1.4h-4V104h-1.7V92.3z"
       id="path566" /></g><g
     id="g572"><path
       d="M1148.3 97.9h-5.1v4.7h5.7v1.4h-7.4V90.9h7.1v1.4h-5.4v4.2h5.1v1.4z"
       id="path570" /></g><g
     id="g576"><path
       d="M1154.9 91.1c.9-.2 2.1-.3 3.3-.3 1.8 0 3 .3 3.8 1.1.7.6 1 1.5 1 2.5 0 1.7-1.1 2.9-2.5 3.4v.1c1 .4 1.6 1.3 1.9 2.7.4 1.8.7 3.1 1 3.6h-1.8c-.2-.4-.5-1.5-.9-3.1-.4-1.8-1.1-2.5-2.6-2.6h-1.6v5.7h-1.7V91.1zm1.7 6h1.7c1.8 0 3-1 3-2.5 0-1.7-1.2-2.4-3-2.5-.8 0-1.4.1-1.7.2v4.8z"
       id="path574" /></g><g
     id="g580"><path
       d="M1168.4 90.9h7.1v1.4h-5.4v4.4h5v1.4h-5v5.9h-1.7V90.9z"
       id="path578" /></g><g
     id="g584"><path
       d="m1182.8 99.9-1.4 4.1h-1.8l4.5-13.1h2l4.5 13.1h-1.8l-1.4-4.1h-4.6zm4.3-1.3-1.3-3.8c-.3-.9-.5-1.6-.7-2.4-.2.8-.4 1.6-.7 2.4l-1.3 3.8h4z"
       id="path582" /></g><g
     id="g588"><path
       d="M1203.2 103.6c-.6.3-1.9.6-3.5.6-3.7 0-6.5-2.3-6.5-6.7 0-4.1 2.8-6.9 6.9-6.9 1.6 0 2.7.4 3.1.6l-.4 1.4c-.6-.3-1.6-.5-2.7-.5-3.1 0-5.1 2-5.1 5.4 0 3.2 1.9 5.3 5.1 5.3 1 0 2.1-.2 2.8-.5l.3 1.3z"
       id="path586" /></g><g
     id="g592"><path
       d="M1214.3 97.9h-5.1v4.7h5.7v1.4h-7.4V90.9h7.1v1.4h-5.4v4.2h5.1v1.4z"
       id="path590" /></g><g
     id="g622"><path
       d="M1304 232.7h36c4.5 0 7.5 3 7.5 6h0c0 4.5 3 7.5 7.5 7.5h94.5c3 0 6-3 6-7.5h0c0-3 4.5-6 7.5-6h36c10.5 0 18-12 18-25.5 0-12-7.5-24-18-24h0v1.5h-25.5l1.5-1.5c-4.5 0-7.5-3-7.5-6 0-4.5-3-7.5-7.5-7.5h0-115.5 0c-4.5 0-7.5 3-7.5 7.5 0 3-3 6-7.5 6l1.5 1.5h-27v-1.5c-9 0-18 12-18 24 0 13.5 9 25.5 18 25.5h0z"
       style="fill:#ccc;stroke:#666;stroke-linecap:round;stroke-linejoin:round;stroke-miterlimit:2"
       id="path594" /><path
       d="M1356.5 177.2h90c10.5 0 19.5 7.5 19.5 18 0 3-1.5 4.5-1.5 7.5l-10.5 24c-3 7.5-9 12-16.5 12H1367c-7.5 0-15-4.5-16.5-12l-10.5-24c-3-10.5 1.5-21 10.5-24 1.5-1.5 4.5-1.5 6-1.5z"
       style="clip-rule:evenodd;fill:#333;fill-rule:evenodd"
       id="path596" /><path
       d="M1356.5 177.2h90c10.5 0 19.5 7.5 19.5 18 0 3-1.5 4.5-1.5 7.5h0l-10.5 24c-3 7.5-9 12-16.5 12H1367c-7.5 0-15-4.5-16.5-12h0l-10.5-24c-3-10.5 1.5-21 10.5-24 1.5-1.5 4.5-1.5 6-1.5h0z"
       style="fill:none;stroke:silver;stroke-width:.12;stroke-linecap:round;stroke-linejoin:round;stroke-miterlimit:2"
       id="path598" /><path
       d="M1512.5 207.2c0-10.5-7.5-18-18-18-12 0-19.5 7.5-19.5 18 0 12 7.5 19.5 19.5 19.5 10.5 0 18-7.5 18-19.5h0z"
       style="fill:none;stroke:#9a9a9a;stroke-width:.06;stroke-linecap:round;stroke-linejoin:round;stroke-miterlimit:2"
       id="path600" /><path
       d="M1512.5 207.2c0-9-9-18-18-18-10.5 0-19.5 9-19.5 18 0 10.5 9 19.5 19.5 19.5 9 0 18-9 18-19.5z"
       style="clip-rule:evenodd;fill:#e6e6e6;fill-rule:evenodd"
       id="path602" /><path
       d="M1487 192.2h13.5c1.5 0 3 0 3 1.5h1.5l7.5 12h-1.5c1.5 1.5 1.5 3 0 4.5h1.5l-7.5 12h-1.5c0 1.5-1.5 1.5-3 1.5v-1.5H1487v1.5c-1.5 0-3 0-3-1.5h0l-7.5-12h0v-4.5h0l7.5-12h0c0-1.5 1.5-1.5 3-1.5h0z"
       style="fill:none;stroke:#9a9a9a;stroke-width:.06;stroke-linecap:round;stroke-linejoin:round;stroke-miterlimit:2"
       id="path604" /><path
       d="M1509.5 207.2c0-7.5-7.5-15-15-15-9 0-16.5 7.5-16.5 15 0 9 7.5 16.5 16.5 16.5 7.5 0 15-7.5 15-16.5h0z"
       style="fill:none;stroke:#e6e6e6;stroke-width:.06;stroke-linecap:round;stroke-linejoin:round;stroke-miterlimit:2"
       id="path606" /><path
       d="M1505 207.2c0-6-4.5-10.5-10.5-10.5-7.5 0-12 4.5-12 10.5 0 7.5 4.5 12 12 12 6 0 10.5-4.5 10.5-12z"
       style="clip-rule:evenodd;fill:#333;fill-rule:evenodd"
       id="path608" /><path
       d="M1329.5 207.2c0-10.5-9-18-19.5-18s-19.5 7.5-19.5 18c0 12 9 19.5 19.5 19.5s19.5-7.5 19.5-19.5h0z"
       style="fill:none;stroke:#9a9a9a;stroke-width:.06;stroke-linecap:round;stroke-linejoin:round;stroke-miterlimit:2"
       id="path610" /><path
       d="M1328 207.2c0-9-7.5-18-18-18s-18 9-18 18c0 10.5 7.5 19.5 18 19.5s18-9 18-19.5z"
       style="clip-rule:evenodd;fill:#e6e6e6;fill-rule:evenodd"
       id="path612" /><path
       d="M1304 192.2h13.5c1.5 0 3 0 3 1.5h0l6 12h1.5v4.5h-1.5l-6 12h0c0 1.5-1.5 1.5-3 1.5v-1.5H1304l-1.5 1.5s-1.5 0-3-1.5h0l-7.5-12h1.5c-1.5-1.5-1.5-3 0-4.5h-1.5l7.5-12h0c1.5-1.5 3-1.5 3-1.5h1.5z"
       style="fill:none;stroke:#9a9a9a;stroke-width:.06;stroke-linecap:round;stroke-linejoin:round;stroke-miterlimit:2"
       id="path614" /><path
       d="M1325 207.2c0-7.5-6-15-15-15-7.5 0-15 7.5-15 15 0 9 7.5 16.5 15 16.5 9 0 15-7.5 15-16.5h0z"
       style="fill:none;stroke:#e6e6e6;stroke-width:.06;stroke-linecap:round;stroke-linejoin:round;stroke-miterlimit:2"
       id="path616" /><path
       d="M1322 207.2c0-6-6-10.5-12-10.5s-10.5 4.5-10.5 10.5c0 7.5 4.5 12 10.5 12s12-4.5 12-12z"
       style="clip-rule:evenodd;fill:#333;fill-rule:evenodd"
       id="path618" /><path
       d="M1364 193.7c0-1.5-1.5-3-3-3s-3 1.5-3 3c0 3 1.5 4.5 3 4.5s3-1.5 3-4.5h0zM1385 193.7c0-1.5-1.5-3-3-3-3 0-4.5 1.5-4.5 3 0 3 1.5 4.5 4.5 4.5 1.5 0 3-1.5 3-4.5h0zM1406 193.7c0-1.5-1.5-3-4.5-3-1.5 0-3 1.5-3 3 0 3 1.5 4.5 3 4.5 3 0 4.5-1.5 4.5-4.5h0zM1425.5 193.7c0-1.5-1.5-3-3-3-3 0-4.5 1.5-4.5 3 0 3 1.5 4.5 4.5 4.5 1.5 0 3-1.5 3-4.5h0zM1374.5 220.7c0-1.5-1.5-3-3-3-3 0-4.5 1.5-4.5 3 0 3 1.5 4.5 4.5 4.5 1.5 0 3-1.5 3-4.5h0zM1395.5 220.7c0-1.5-1.5-3-4.5-3-1.5 0-3 1.5-3 3 0 3 1.5 4.5 3 4.5 3 0 4.5-1.5 4.5-4.5h0zM1415 220.7c0-1.5-1.5-3-3-3s-3 1.5-3 3c0 3 1.5 4.5 3 4.5s3-1.5 3-4.5h0zM1448 193.7c0-1.5-1.5-3-4.5-3-1.5 0-3 1.5-3 3 0 3 1.5 4.5 3 4.5 3 0 4.5-1.5 4.5-4.5h0zM1437.5 220.7c0-1.5-1.5-3-3-3-3 0-4.5 1.5-4.5 3 0 3 1.5 4.5 4.5 4.5 1.5 0 3-1.5 3-4.5h0z"
       style="fill:none;stroke:#d9d9d9;stroke-width:.06;stroke-linecap:round;stroke-linejoin:round;stroke-miterlimit:2"
       id="path620" /></g><g
     id="g638"><path
       d="M2619.4 88.6c-13.3 0-24.6 10.2-24.6 23.5s11.3 24.6 24.6 24.6 23.5-11.3 23.5-24.6-10.2-23.5-23.5-23.5z"
       style="clip-rule:evenodd;fill:#d8d8d8;fill-rule:evenodd;stroke:#666;stroke-miterlimit:10"
       id="path624" /><path
       d="M2619.6 89.3c-13.5 0-24 10.5-24 22.5 0 13.5 10.5 24 24 24 12 0 22.5-10.5 22.5-24 0-12-10.5-22.5-22.5-22.5h0z"
       style="fill:none;stroke:#d9d9d9;stroke-width:.06;stroke-linecap:round;stroke-linejoin:round;stroke-miterlimit:2"
       id="path626" /><path
       style="fill:none;stroke:#5f5f5f;stroke-linecap:round;stroke-linejoin:round;stroke-miterlimit:2"
       d="M2619.6 102.8v19.5M2628.6 111.8h-19.5"
       id="path628" /><g
       id="g636"><path
         d="M2619.6 146.6c-9.8 0-17.7 7.9-17.7 17.7 0 9.8 7.9 17.7 17.7 17.7 9.8 0 17.7-7.9 17.7-17.7 0-9.8-7.8-17.7-17.7-17.7z"
         style="clip-rule:evenodd;fill:#d8d8d8;fill-rule:evenodd;stroke:#666;stroke-miterlimit:10"
         id="path630" /><path
         d="M2619.6 146.3c-10.5 0-18 7.5-18 18 0 9 7.5 16.5 18 16.5 9 0 16.5-7.5 16.5-16.5 0-10.5-7.5-18-16.5-18h0z"
         style="fill:none;stroke:#d9d9d9;stroke-width:.06;stroke-linecap:round;stroke-linejoin:round;stroke-miterlimit:2"
         id="path632" /><path
         style="fill:none;stroke:#5f5f5f;stroke-linecap:round;stroke-linejoin:round;stroke-miterlimit:2"
         d="M2619.6 156.8v15M2627.1 164.3h-15"
         id="path634" /></g></g><g
     id="g654"><path
       d="M215 88.6c-13.3 0-24.6 10.2-24.6 23.5s11.3 24.6 24.6 24.6 23.5-11.3 23.5-24.6-10.2-23.5-23.5-23.5z"
       style="clip-rule:evenodd;fill:#d8d8d8;fill-rule:evenodd;stroke:#666;stroke-miterlimit:10"
       id="path640" /><path
       d="M215.2 89.3c-13.5 0-24 10.5-24 22.5 0 13.5 10.5 24 24 24 12 0 22.5-10.5 22.5-24 0-12-10.5-22.5-22.5-22.5h0z"
       style="fill:none;stroke:#d9d9d9;stroke-width:.06;stroke-linecap:round;stroke-linejoin:round;stroke-miterlimit:2"
       id="path642" /><path
       style="fill:none;stroke:#5f5f5f;stroke-linecap:round;stroke-linejoin:round;stroke-miterlimit:2"
       d="M215.2 102.8v19.5M224.2 111.8h-19.5"
       id="path644" /><g
       id="g652"><path
         d="M215.2 146.6c-9.8 0-17.7 7.9-17.7 17.7 0 9.8 7.9 17.7 17.7 17.7 9.8 0 17.7-7.9 17.7-17.7 0-9.8-7.8-17.7-17.7-17.7z"
         style="clip-rule:evenodd;fill:#d8d8d8;fill-rule:evenodd;stroke:#666;stroke-miterlimit:10"
         id="path646" /><path
         d="M215.2 146.3c-10.5 0-18 7.5-18 18 0 9 7.5 16.5 18 16.5 9 0 16.5-7.5 16.5-16.5 0-10.5-7.5-18-16.5-18h0z"
         style="fill:none;stroke:#d9d9d9;stroke-width:.06;stroke-linecap:round;stroke-linejoin:round;stroke-miterlimit:2"
         id="path648" /><path
         style="fill:none;stroke:#5f5f5f;stroke-linecap:round;stroke-linejoin:round;stroke-miterlimit:2"
         d="M215.2 156.8v15M222.7 164.3h-15"
         id="path650" /></g></g><text
     xml:space="preserve"
     style="font-style:normal;font-weight:normal;font-size:40px;line-height:1.25;font-family:sans-serif;letter-spacing:0px;word-spacing:0px;fill:#000000;fill-opacity:1;stroke:none"
     x="1398.8806"
     y="58.348022"
     id="text666"><tspan
       sodipodi:role="line"
       id="tspan664"
       x="1398.8806"
       y="94.841232" /></text>
</svg>