<?xml version="1.0" encoding="UTF-8" standalone="no"?>
<svg
   xmlns:dc="http://purl.org/dc/elements/1.1/"
   xmlns:cc="http://creativecommons.org/ns#"
   xmlns:rdf="http://www.w3.org/1999/02/22-rdf-syntax-ns#"
   xmlns:svg="http://www.w3.org/2000/svg"
   xmlns="http://www.w3.org/2000/svg"
   xmlns:sodipodi="http://sodipodi.sourceforge.net/DTD/sodipodi-0.dtd"
   xmlns:inkscape="http://www.inkscape.org/namespaces/inkscape"
   xml:space="preserve"
   width="3490.5"
   height="6619.5"
   version="1.1"
   id="svg594"
   viewBox="0 0 3490.5 6619.5"
   sodipodi:docname="ASR-9010-AC-Front.svg"
   inkscape:version="0.92.1 r15371"><metadata
     id="metadata600"><rdf:RDF><cc:Work
         rdf:about=""><dc:format>image/svg+xml</dc:format><dc:type
           rdf:resource="http://purl.org/dc/dcmitype/StillImage" /></cc:Work></rdf:RDF></metadata><defs
     id="defs598" /><sodipodi:namedview
     pagecolor="#ffffff"
     bordercolor="#666666"
     borderopacity="1"
     objecttolerance="10"
     gridtolerance="10"
     guidetolerance="10"
     inkscape:pageopacity="0"
     inkscape:pageshadow="2"
     inkscape:window-width="1920"
     inkscape:window-height="986"
     id="namedview596"
     showgrid="false"
     inkscape:zoom="0.1152655"
     inkscape:cx="1745.25"
     inkscape:cy="3309.75"
     inkscape:window-x="-11"
     inkscape:window-y="-11"
     inkscape:window-maximized="1"
     inkscape:current-layer="svg594" /><path
     d="M3099 4513.5H372C162 4536 3 4713 7.5 4921.5v1605c-3 46.5 31.5 85.5 78 88.5h69c12 0 21-9 21-21v-1.5l-3-1639.5c-4.5-130.5 91.5-244.5 222-262.5l2655-6c148.5 3 267 123 267 268.5l9 1639.5c1.5 12 10.5 21 22.5 22.5h39c51 3 96-34.5 99-85.5V4947c15-225-159-420-387-433.5z"
     style="fill:#bfbfbf"
     id="path2" /><path
     d="M3438 4606.5c0 7.5-6 13.5-13.5 13.5s-15-6-15-13.5 7.5-15 15-15 13.5 7.5 13.5 15zm-39-3726c0 9-6 15-15 15-7.5 0-13.5-6-13.5-15 0-7.5 6-13.5 13.5-13.5 9 0 15 6 15 13.5zm-79.5 3891h135v-3708c1.5-27-18-49.5-45-51H3387V918c0-13.5 10.5-22.5 22.5-22.5h10.5c12 0 22.5-10.5 22.5-22.5V37.5h-123v4734zm67.5-2637h27c13.5 0 25.5 12 25.5 27 0 13.5-12 25.5-25.5 25.5h-27v-52.5zm0-222h27c13.5 0 25.5 10.5 25.5 25.5 0 13.5-12 25.5-25.5 25.5h-27v-51zm0-90h27c13.5 0 25.5 12 25.5 25.5 0 15-12 25.5-25.5 25.5h-27v-51zm0-231h27c13.5 0 25.5 12 25.5 27 0 13.5-12 25.5-25.5 25.5h-27v-52.5zm0-79.5h27c13.5 0 25.5 12 25.5 25.5 0 15-12 27-25.5 27h-27V1512zm0-229.5h27c13.5 0 25.5 12 25.5 25.5 0 15-12 25.5-25.5 25.5h-27v-51zm0-37.5v-52.5h27c13.5 0 25.5 12 25.5 25.5 0 15-12 27-25.5 27h-27zm-1.5 1609.5h28.5c13.5 0 25.5 12 25.5 25.5 0 15-12 27-25.5 27h-28.5v-52.5zm0-90h28.5c13.5 0 25.5 12 25.5 25.5 0 15-12 27-25.5 27h-28.5v-52.5zm1.5-229.5h27c13.5 0 25.5 10.5 25.5 25.5s-12 25.5-25.5 25.5h-27v-51zm0-81h27c13.5 0 25.5 12 25.5 27 0 13.5-12 25.5-25.5 25.5h-27V2454zm0-229.5h27c13.5 0 25.5 12 25.5 25.5 0 15-12 27-25.5 27h-27v-52.5zm-1.5 1896h28.5c13.5 0 25.5 12 25.5 27 0 13.5-12 25.5-25.5 25.5h-28.5v-52.5zm0-90h28.5c13.5 0 25.5 12 25.5 27 0 13.5-12 25.5-25.5 25.5h-28.5v-52.5zm0-229.5h28.5c13.5 0 25.5 12 25.5 25.5 0 15-12 27-25.5 27h-28.5V3801zm0-79.5h28.5c13.5 0 25.5 10.5 25.5 25.5s-12 25.5-25.5 25.5h-28.5v-51zm0-231h28.5c13.5 0 25.5 12 25.5 27 0 13.5-12 25.5-25.5 25.5h-28.5v-52.5zm0-88.5h28.5c13.5 0 25.5 10.5 25.5 25.5 0 13.5-12 25.5-25.5 25.5h-28.5v-51zm0-232.5h28.5c13.5 0 25.5 12 25.5 27 0 13.5-12 25.5-25.5 25.5h-28.5v-52.5zm0-90h28.5c13.5 0 25.5 12 25.5 27 0 13.5-12 25.5-25.5 25.5h-28.5v-52.5zm0 1357.5h28.5c13.5 0 25.5 10.5 25.5 25.5 0 13.5-12 25.5-25.5 25.5h-28.5v-51zm0-90h28.5c13.5 0 25.5 10.5 25.5 25.5s-12 25.5-25.5 25.5h-28.5v-51z"
     style="clip-rule:evenodd;fill:#737373;fill-rule:evenodd"
     id="path4" /><path
     d="M3438 4606.5c0 7.5-6 13.5-13.5 13.5s-15-6-15-13.5 7.5-15 15-15 13.5 7.5 13.5 15h0zm-39-3726c0 9-6 15-15 15-7.5 0-13.5-6-13.5-15 0-7.5 6-13.5 13.5-13.5 9 0 15 6 15 13.5h0zm-79.5 3891h135v-3708c1.5-27-18-49.5-45-51H3387V918c0-13.5 10.5-22.5 22.5-22.5h10.5c12 0 22.5-10.5 22.5-22.5h0V37.5h-123v4734h0zm67.5-2637h27c13.5 0 25.5 12 25.5 27h0c0 13.5-12 25.5-25.5 25.5h-27v-52.5h0zm0-222h27c13.5 0 25.5 10.5 25.5 25.5h0c0 13.5-12 25.5-25.5 25.5h-27v-51h0zm0-90h27c13.5 0 25.5 12 25.5 25.5h0c0 15-12 25.5-25.5 25.5h0-27v-51h0zm0-231h27c13.5 0 25.5 12 25.5 27h0c0 13.5-12 25.5-25.5 25.5h0-27v-52.5h0zm0-79.5h27c13.5 0 25.5 12 25.5 25.5h0c0 15-12 27-25.5 27h0-27V1512h0zm0-229.5h27c13.5 0 25.5 12 25.5 25.5h0c0 15-12 25.5-25.5 25.5h-27v-51h0zm0-37.5v-52.5h27c13.5 0 25.5 12 25.5 25.5h0c0 15-12 27-25.5 27h-27 0zm-1.5 1609.5h28.5c13.5 0 25.5 12 25.5 25.5h0c0 15-12 27-25.5 27h-28.5v-52.5h0zm0-90h28.5c13.5 0 25.5 12 25.5 25.5h0c0 15-12 27-25.5 27h-28.5v-52.5h0zm1.5-229.5h27c13.5 0 25.5 10.5 25.5 25.5h0c0 15-12 25.5-25.5 25.5h-27v-51h0zm0-81h27c13.5 0 25.5 12 25.5 27h0c0 13.5-12 25.5-25.5 25.5h0-27V2454h0zm0-229.5h27c13.5 0 25.5 12 25.5 25.5h0c0 15-12 27-25.5 27h-27v-52.5h0zm-1.5 1896h28.5c13.5 0 25.5 12 25.5 27h0c0 13.5-12 25.5-25.5 25.5h0-28.5v-52.5h0zm0-90h28.5c13.5 0 25.5 12 25.5 27h0c0 13.5-12 25.5-25.5 25.5h0-28.5v-52.5h0zm0-229.5h28.5c13.5 0 25.5 12 25.5 25.5h0c0 15-12 27-25.5 27h0-28.5V3801h0zm0-79.5h28.5c13.5 0 25.5 10.5 25.5 25.5h0c0 15-12 25.5-25.5 25.5h-28.5v-51h0zm0-231h28.5c13.5 0 25.5 12 25.5 27h0c0 13.5-12 25.5-25.5 25.5h-28.5v-52.5h0zm0-88.5h28.5c13.5 0 25.5 10.5 25.5 25.5h0c0 13.5-12 25.5-25.5 25.5h-28.5v-51h0zm0-232.5h28.5c13.5 0 25.5 12 25.5 27h0c0 13.5-12 25.5-25.5 25.5h0-28.5v-52.5h0zm0-90h28.5c13.5 0 25.5 12 25.5 27h0c0 13.5-12 25.5-25.5 25.5h0-28.5v-52.5h0zm0 1357.5h28.5c13.5 0 25.5 10.5 25.5 25.5h0c0 13.5-12 25.5-25.5 25.5h-28.5v-51h0zm0-90h28.5c13.5 0 25.5 10.5 25.5 25.5h0c0 15-12 25.5-25.5 25.5h0-28.5v-51h0z"
     style="fill:none;stroke:#000;stroke-width:.06;stroke-linecap:round;stroke-linejoin:round;stroke-miterlimit:10"
     id="path6" /><path
     d="M52.5 4606.5c0 7.5 6 13.5 13.5 13.5s13.5-6 13.5-13.5-6-15-13.5-15-13.5 7.5-13.5 15zm39-3726c0 9 6 15 13.5 15s15-6 15-15c0-7.5-7.5-13.5-15-13.5s-13.5 6-13.5 13.5zm78 3891h-135v-3708c-1.5-27 19.5-49.5 45-51H102V918c0-13.5-9-22.5-22.5-22.5h-9C58.5 895.5 48 885 48 873V70.5h121.5v4701zm-66-2637h-27c-15 0-25.5 12-25.5 27 0 13.5 10.5 25.5 25.5 25.5h27v-52.5zm0-222h-27c-15 0-25.5 10.5-25.5 25.5 0 13.5 10.5 25.5 25.5 25.5h27v-51zm0-90h-27c-15 0-25.5 12-25.5 25.5 0 15 10.5 25.5 25.5 25.5h27v-51zm0-231h-27c-15 0-25.5 12-25.5 27 0 13.5 10.5 25.5 25.5 25.5h27v-52.5zm0-79.5h-27c-15 0-25.5 12-25.5 25.5 0 15 10.5 27 25.5 27h27V1512zm0-229.5h-27c-15 0-25.5 12-25.5 25.5 0 15 10.5 25.5 25.5 25.5h27v-51zm0-37.5v-52.5h-27c-15 0-25.5 12-25.5 25.5 0 15 10.5 27 25.5 27h27zm0 1609.5h-27c-15 0-25.5 12-25.5 25.5 0 15 10.5 27 25.5 27h27v-52.5zm0-90h-27c-15 0-25.5 12-25.5 25.5 0 15 10.5 27 25.5 27h27v-52.5zm0-229.5h-27c-15 0-25.5 10.5-25.5 25.5s10.5 25.5 25.5 25.5h27v-51zm0-81h-27c-15 0-25.5 12-25.5 27 0 13.5 10.5 25.5 25.5 25.5h27V2454zm0-229.5h-27c-15 0-25.5 12-25.5 25.5 0 15 10.5 27 25.5 27h27v-52.5zm1.5 1896H76.5c-15 0-25.5 12-25.5 27 0 13.5 10.5 25.5 25.5 25.5H105v-52.5zm0-90H76.5c-15 0-25.5 12-25.5 27 0 13.5 10.5 25.5 25.5 25.5H105v-52.5zm0-229.5H76.5c-15 0-25.5 12-25.5 25.5 0 15 10.5 27 25.5 27H105V3801zm0-79.5H76.5c-15 0-25.5 10.5-25.5 25.5s10.5 25.5 25.5 25.5H105v-51zm0-231H76.5c-15 0-25.5 12-25.5 27 0 13.5 10.5 25.5 25.5 25.5H105v-52.5zm0-88.5H76.5c-15 0-25.5 10.5-25.5 25.5 0 13.5 10.5 25.5 25.5 25.5H105v-51zm-1.5-232.5h-27c-15 0-25.5 12-25.5 27 0 13.5 10.5 25.5 25.5 25.5H105l-1.5-52.5zm0-90h-27c-15 0-25.5 12-25.5 27 0 13.5 10.5 25.5 25.5 25.5h27v-52.5zM105 4437H76.5c-15 0-25.5 10.5-25.5 25.5 0 13.5 10.5 25.5 25.5 25.5H105v-51zm0-90H76.5c-15 0-25.5 10.5-25.5 25.5s10.5 25.5 25.5 25.5H105v-51z"
     style="clip-rule:evenodd;fill:#737373;fill-rule:evenodd"
     id="path8" /><path
     d="M52.5 4606.5c0 7.5 6 13.5 13.5 13.5s13.5-6 13.5-13.5-6-15-13.5-15-13.5 7.5-13.5 15h0zm39-3726c0 9 6 15 13.5 15s15-6 15-15c0-7.5-7.5-13.5-15-13.5s-13.5 6-13.5 13.5h0zm78 3891h-135v-3708c-1.5-27 19.5-49.5 45-51H102V918c0-13.5-9-22.5-22.5-22.5h0-9C58.5 895.5 48 885 48 873h0V70.5h121.5v4701h0zm-66-2637h-27c-15 0-25.5 12-25.5 27h0c0 13.5 10.5 25.5 25.5 25.5h27v-52.5h0zm0-222h-27c-15 0-25.5 10.5-25.5 25.5h0c0 13.5 10.5 25.5 25.5 25.5h27v-51h0zm0-90h-27c-15 0-25.5 12-25.5 25.5h0c0 15 10.5 25.5 25.5 25.5h27v-51h0zm0-231h-27c-15 0-25.5 12-25.5 27h0c0 13.5 10.5 25.5 25.5 25.5h27v-52.5h0zm0-79.5h-27c-15 0-25.5 12-25.5 25.5h0c0 15 10.5 27 25.5 27h27V1512h0zm0-229.5h-27c-15 0-25.5 12-25.5 25.5h0c0 15 10.5 25.5 25.5 25.5h27v-51h0zm0-37.5v-52.5h-27c-15 0-25.5 12-25.5 25.5h0c0 15 10.5 27 25.5 27h27zm0 1609.5h-27c-15 0-25.5 12-25.5 25.5h0c0 15 10.5 27 25.5 27h27v-52.5h0zm0-90h-27c-15 0-25.5 12-25.5 25.5h0c0 15 10.5 27 25.5 27h27v-52.5h0zm0-229.5h-27c-15 0-25.5 10.5-25.5 25.5h0c0 15 10.5 25.5 25.5 25.5h27v-51h0zm0-81h-27c-15 0-25.5 12-25.5 27h0c0 13.5 10.5 25.5 25.5 25.5h27V2454h0zm0-229.5h-27c-15 0-25.5 12-25.5 25.5h0c0 15 10.5 27 25.5 27h27v-52.5h0zm1.5 1896H76.5c-15 0-25.5 12-25.5 27h0c0 13.5 10.5 25.5 25.5 25.5H105v-52.5h0zm0-90H76.5c-15 0-25.5 12-25.5 27h0c0 13.5 10.5 25.5 25.5 25.5H105v-52.5h0zm0-229.5H76.5c-15 0-25.5 12-25.5 25.5h0c0 15 10.5 27 25.5 27H105V3801h0zm0-79.5H76.5c-15 0-25.5 10.5-25.5 25.5h0c0 15 10.5 25.5 25.5 25.5H105v-51h0zm0-231H76.5c-15 0-25.5 12-25.5 27h0c0 13.5 10.5 25.5 25.5 25.5H105v-52.5h0zm0-88.5H76.5c-15 0-25.5 10.5-25.5 25.5h0c0 13.5 10.5 25.5 25.5 25.5H105v-51h0zm-1.5-232.5h-27c-15 0-25.5 12-25.5 27h0c0 13.5 10.5 25.5 25.5 25.5H105l-1.5-52.5h0zm0-90h-27c-15 0-25.5 12-25.5 27h0c0 13.5 10.5 25.5 25.5 25.5h27v-52.5h0zM105 4437H76.5c-15 0-25.5 10.5-25.5 25.5h0c0 13.5 10.5 25.5 25.5 25.5H105v-51h0zm0-90H76.5c-15 0-25.5 10.5-25.5 25.5h0c0 15 10.5 25.5 25.5 25.5H105v-51h0z"
     style="fill:none;stroke:#000;stroke-width:.06;stroke-linecap:round;stroke-linejoin:round;stroke-miterlimit:10"
     id="path10" /><path
     style="clip-rule:evenodd;fill-rule:evenodd"
     d="M175.5 868.5h3150v5748h-3150z"
     id="path12" /><path
     style="fill:none;stroke:#000;stroke-width:.06;stroke-linecap:round;stroke-linejoin:round;stroke-miterlimit:10"
     d="M175.5 868.5v5748h3150v-5748z"
     id="path14" /><path
     d="M3372 4482c-13.5 0-25.5-12-25.5-25.5 0-15 12-27 25.5-27h42c13.5 0 25.5 12 25.5 27 0 13.5-12 25.5-25.5 25.5h-42zm0-405c-13.5 0-25.5-10.5-25.5-25.5 0-13.5 12-25.5 25.5-25.5h42c13.5 0 25.5 12 25.5 25.5 0 15-12 25.5-25.5 25.5h-42zm0 90c-13.5 0-25.5-12-25.5-25.5 0-15 12-25.5 25.5-25.5h42c13.5 0 25.5 10.5 25.5 25.5 0 13.5-12 25.5-25.5 25.5h-42zm0-1263c-13.5 0-25.5-12-25.5-27 0-13.5 12-25.5 25.5-25.5h42c13.5 0 25.5 12 25.5 25.5 0 15-12 27-25.5 27h-42zm0 634.5c-13.5 0-25.5-12-25.5-25.5 0-15 12-25.5 25.5-25.5h42c13.5 0 25.5 10.5 25.5 25.5 0 13.5-12 25.5-25.5 25.5h-42zm0-1974c-13.5 0-25.5-12-25.5-27 0-13.5 12-25.5 25.5-25.5h42c13.5 0 25.5 12 25.5 25.5 0 15-12 27-25.5 27h-42zm0 79.5c-13.5 0-25.5-12-25.5-25.5 0-15 12-27 25.5-27h42c13.5 0 25.5 12 25.5 27 0 13.5-12 25.5-25.5 25.5h-42zm0 861c-13.5 0-25.5-12-25.5-27 0-13.5 12-25.5 25.5-25.5h42c13.5 0 25.5 12 25.5 25.5 0 15-12 27-25.5 27h-42zm0 79.5c-13.5 0-25.5-12-25.5-25.5 0-15 12-27 25.5-27h42c13.5 0 25.5 12 25.5 27 0 13.5-12 25.5-25.5 25.5h-42zm0 544.5c-13.5 0-25.5-12-25.5-27 0-13.5 12-25.5 25.5-25.5h42c13.5 0 25.5 12 25.5 25.5 0 15-12 27-25.5 27h-42zm0 88.5c-13.5 0-25.5-10.5-25.5-25.5 0-13.5 12-25.5 25.5-25.5h42c13.5 0 25.5 12 25.5 25.5 0 15-12 25.5-25.5 25.5h-42zm0-1972.5c-13.5 0-25.5-12-25.5-25.5 0-15 12-27 25.5-27h42c13.5 0 25.5 12 25.5 27 0 13.5-12 25.5-25.5 25.5h-42zm0 90c-13.5 0-25.5-12-25.5-27 0-13.5 12-25.5 25.5-25.5h42c13.5 0 25.5 12 25.5 25.5 0 15-12 27-25.5 27h-42zm0 538.5c-13.5 0-25.5-12-25.5-25.5 0-15 12-27 25.5-27h42c13.5 0 25.5 12 25.5 27 0 13.5-12 25.5-25.5 25.5h-42zm0 90c-13.5 0-25.5-12-25.5-27 0-13.5 12-25.5 25.5-25.5h42c13.5 0 25.5 12 25.5 25.5 0 15-12 27-25.5 27h-42zm0 222c-13.5 0-25.5-12-25.5-25.5 0-15 12-27 25.5-27h42c13.5 0 25.5 12 25.5 27 0 13.5-12 25.5-25.5 25.5h-42zm0 90c-13.5 0-25.5-12-25.5-27 0-13.5 12-25.5 25.5-25.5h42c13.5 0 25.5 12 25.5 25.5 0 15-12 27-25.5 27h-42zm0 538.5c-13.5 0-25.5-12-25.5-25.5 0-15 12-27 25.5-27h42c13.5 0 25.5 12 25.5 27 0 13.5-12 25.5-25.5 25.5h-42zm0 954c-13.5 0-25.5-12-25.5-25.5 0-15 12-25.5 25.5-25.5h42c13.5 0 25.5 10.5 25.5 25.5 0 13.5-12 25.5-25.5 25.5h-42zm0-319.5c-13.5 0-25.5-10.5-25.5-25.5 0-13.5 12-25.5 25.5-25.5h42c13.5 0 25.5 12 25.5 25.5 0 15-12 25.5-25.5 25.5h-42zm0 399c-13.5 0-25.5-10.5-25.5-25.5 0-13.5 12-25.5 25.5-25.5h42c13.5 0 25.5 12 25.5 25.5 0 15-12 25.5-25.5 25.5h-42zm0 544.5c-13.5 0-25.5-10.5-25.5-25.5s12-25.5 25.5-25.5h42c13.5 0 25.5 10.5 25.5 25.5s-12 25.5-25.5 25.5h-42zm-52.5 195h90c25.5 0 45-19.5 45-45V1059c0-25.5-19.5-45-45-45h-90v3573z"
     style="clip-rule:evenodd;fill:#d9d9d9;fill-rule:evenodd"
     id="path16" /><path
     d="M3372 4482c-13.5 0-25.5-12-25.5-25.5 0-15 12-27 25.5-27h42c13.5 0 25.5 12 25.5 27h0c0 13.5-12 25.5-25.5 25.5h-42 0zm0-405c-13.5 0-25.5-10.5-25.5-25.5 0-13.5 12-25.5 25.5-25.5h42c13.5 0 25.5 12 25.5 25.5h0c0 15-12 25.5-25.5 25.5h0-42 0zm0 90c-13.5 0-25.5-12-25.5-25.5 0-15 12-25.5 25.5-25.5h42c13.5 0 25.5 10.5 25.5 25.5h0c0 13.5-12 25.5-25.5 25.5h-42 0zm0-1263c-13.5 0-25.5-12-25.5-27 0-13.5 12-25.5 25.5-25.5h42c13.5 0 25.5 12 25.5 25.5h0c0 15-12 27-25.5 27h-42 0zm0 634.5c-13.5 0-25.5-12-25.5-25.5 0-15 12-25.5 25.5-25.5h42c13.5 0 25.5 10.5 25.5 25.5h0c0 13.5-12 25.5-25.5 25.5h0-42 0zm0-1974c-13.5 0-25.5-12-25.5-27 0-13.5 12-25.5 25.5-25.5h42c13.5 0 25.5 12 25.5 25.5h0c0 15-12 27-25.5 27h0-42 0zm0 79.5c-13.5 0-25.5-12-25.5-25.5 0-15 12-27 25.5-27h42c13.5 0 25.5 12 25.5 27h0c0 13.5-12 25.5-25.5 25.5h0-42 0zm0 861c-13.5 0-25.5-12-25.5-27 0-13.5 12-25.5 25.5-25.5h42c13.5 0 25.5 12 25.5 25.5h0c0 15-12 27-25.5 27h-42 0zm0 79.5c-13.5 0-25.5-12-25.5-25.5 0-15 12-27 25.5-27h42c13.5 0 25.5 12 25.5 27h0c0 13.5-12 25.5-25.5 25.5h-42 0zm0 544.5c-13.5 0-25.5-12-25.5-27 0-13.5 12-25.5 25.5-25.5h42c13.5 0 25.5 12 25.5 25.5h0c0 15-12 27-25.5 27h0-42 0zm0 88.5c-13.5 0-25.5-10.5-25.5-25.5 0-13.5 12-25.5 25.5-25.5h42c13.5 0 25.5 12 25.5 25.5h0c0 15-12 25.5-25.5 25.5h-42 0zm0-1972.5c-13.5 0-25.5-12-25.5-25.5 0-15 12-27 25.5-27h42c13.5 0 25.5 12 25.5 27h0c0 13.5-12 25.5-25.5 25.5h0-42 0zm0 90c-13.5 0-25.5-12-25.5-27 0-13.5 12-25.5 25.5-25.5h42c13.5 0 25.5 12 25.5 25.5h0c0 15-12 27-25.5 27h-42 0zm0 538.5c-13.5 0-25.5-12-25.5-25.5 0-15 12-27 25.5-27h42c13.5 0 25.5 12 25.5 27h0c0 13.5-12 25.5-25.5 25.5h0-42 0zm0 90c-13.5 0-25.5-12-25.5-27 0-13.5 12-25.5 25.5-25.5h42c13.5 0 25.5 12 25.5 25.5h0c0 15-12 27-25.5 27h-42 0zm0 222c-13.5 0-25.5-12-25.5-25.5 0-15 12-27 25.5-27h42c13.5 0 25.5 12 25.5 27h0c0 13.5-12 25.5-25.5 25.5h-42 0zm0 90c-13.5 0-25.5-12-25.5-27 0-13.5 12-25.5 25.5-25.5h42c13.5 0 25.5 12 25.5 25.5h0c0 15-12 27-25.5 27h-42 0zm0 538.5c-13.5 0-25.5-12-25.5-25.5 0-15 12-27 25.5-27h42c13.5 0 25.5 12 25.5 27h0c0 13.5-12 25.5-25.5 25.5h-42 0zm0 954c-13.5 0-25.5-12-25.5-25.5 0-15 12-25.5 25.5-25.5h42c13.5 0 25.5 10.5 25.5 25.5h0c0 13.5-12 25.5-25.5 25.5h0-42 0zm0-319.5c-13.5 0-25.5-10.5-25.5-25.5 0-13.5 12-25.5 25.5-25.5h42c13.5 0 25.5 12 25.5 25.5h0c0 15-12 25.5-25.5 25.5h0-42 0zm0 399c-13.5 0-25.5-10.5-25.5-25.5 0-13.5 12-25.5 25.5-25.5h42c13.5 0 25.5 12 25.5 25.5h0c0 15-12 25.5-25.5 25.5h0-42 0zm0 544.5c-13.5 0-25.5-10.5-25.5-25.5s12-25.5 25.5-25.5h42c13.5 0 25.5 10.5 25.5 25.5h0c0 15-12 25.5-25.5 25.5h-42 0zm-52.5 195h90c25.5 0 45-19.5 45-45h0V1059c0-25.5-19.5-45-45-45h0-90v3573h0z"
     style="fill:none;stroke:#a6a6a6;stroke-width:.06;stroke-linecap:round;stroke-linejoin:round;stroke-miterlimit:10"
     id="path18" /><path
     d="M117 4482c15 0 27-12 27-25.5 0-15-12-27-27-27H76.5c-15 0-25.5 12-25.5 27 0 13.5 10.5 25.5 25.5 25.5H117zm0-405c15 0 27-10.5 27-25.5 0-13.5-12-25.5-27-25.5H76.5c-15 0-25.5 12-25.5 25.5 0 15 10.5 25.5 25.5 25.5H117zm0 90c15 0 27-12 27-25.5 0-15-12-25.5-27-25.5H76.5c-15 0-25.5 10.5-25.5 25.5 0 13.5 10.5 25.5 25.5 25.5H117zm0-1263c15 0 27-12 27-27 0-13.5-12-25.5-27-25.5H76.5c-15 0-25.5 12-25.5 25.5 0 15 10.5 27 25.5 27H117zm0 634.5c15 0 27-12 27-25.5 0-15-12-25.5-27-25.5H76.5c-15 0-25.5 10.5-25.5 25.5 0 13.5 10.5 25.5 25.5 25.5H117zm0-1974c15 0 27-12 27-27 0-13.5-12-25.5-27-25.5H76.5c-15 0-25.5 12-25.5 25.5 0 15 10.5 27 25.5 27H117zm0 79.5c15 0 27-12 27-25.5 0-15-12-27-27-27H76.5c-15 0-25.5 12-25.5 27 0 13.5 10.5 25.5 25.5 25.5H117zm0 861c15 0 27-12 27-27 0-13.5-12-25.5-27-25.5H76.5c-15 0-25.5 12-25.5 25.5 0 15 10.5 27 25.5 27H117zm0 79.5c15 0 27-12 27-25.5 0-15-12-27-27-27H76.5c-15 0-25.5 12-25.5 27 0 13.5 10.5 25.5 25.5 25.5H117zm0 544.5c15 0 27-12 27-27 0-13.5-12-25.5-27-25.5H76.5c-15 0-25.5 12-25.5 25.5 0 15 10.5 27 25.5 27H117zm0 88.5c15 0 27-10.5 27-25.5 0-13.5-12-25.5-27-25.5H76.5c-15 0-25.5 12-25.5 25.5 0 15 10.5 25.5 25.5 25.5H117zm0-1972.5c15 0 27-12 27-25.5 0-15-12-27-27-27H76.5c-15 0-25.5 12-25.5 27 0 13.5 10.5 25.5 25.5 25.5H117zm0 90c15 0 27-12 27-27 0-13.5-12-25.5-27-25.5H76.5c-15 0-25.5 12-25.5 25.5 0 15 10.5 27 25.5 27H117zm0 538.5c15 0 27-12 27-25.5 0-15-12-27-27-27H76.5c-15 0-25.5 12-25.5 27 0 13.5 10.5 25.5 25.5 25.5H117zm0 90c15 0 27-12 27-27 0-13.5-12-25.5-27-25.5H76.5c-15 0-25.5 12-25.5 25.5 0 15 10.5 27 25.5 27H117zm0 222c15 0 27-12 27-25.5 0-15-12-27-27-27H76.5c-15 0-25.5 12-25.5 27 0 13.5 10.5 25.5 25.5 25.5H117zm0 90c15 0 27-12 27-27 0-13.5-12-25.5-27-25.5H76.5c-15 0-25.5 12-25.5 25.5 0 15 10.5 27 25.5 27H117zm0 538.5c15 0 27-12 27-25.5 0-15-12-27-27-27H76.5c-15 0-25.5 12-25.5 27 0 13.5 10.5 25.5 25.5 25.5H117zm0 954c15 0 27-12 27-25.5 0-15-12-25.5-27-25.5H76.5c-15 0-25.5 10.5-25.5 25.5 0 13.5 10.5 25.5 25.5 25.5H117zm0-319.5c15 0 27-10.5 27-25.5 0-13.5-12-25.5-27-25.5H76.5c-15 0-25.5 12-25.5 25.5 0 15 10.5 25.5 25.5 25.5H117zm0 399c15 0 27-10.5 27-25.5 0-13.5-12-25.5-27-25.5H76.5c-15 0-25.5 12-25.5 25.5 0 15 10.5 25.5 25.5 25.5H117zm0 544.5c15 0 27-10.5 27-25.5s-12-25.5-27-25.5H76.5c-15 0-25.5 10.5-25.5 25.5s10.5 25.5 25.5 25.5H117zm52.5 195h-90c-24 0-45-19.5-45-45V1059c0-25.5 21-45 45-45h90v3573z"
     style="clip-rule:evenodd;fill:#d9d9d9;fill-rule:evenodd"
     id="path20" /><path
     d="M117 4482c15 0 27-12 27-25.5 0-15-12-27-27-27h0-40.5c-15 0-25.5 12-25.5 27h0c0 13.5 10.5 25.5 25.5 25.5H117zm0-405c15 0 27-10.5 27-25.5 0-13.5-12-25.5-27-25.5h0-40.5c-15 0-25.5 12-25.5 25.5h0c0 15 10.5 25.5 25.5 25.5H117zm0 90c15 0 27-12 27-25.5 0-15-12-25.5-27-25.5h0-40.5c-15 0-25.5 10.5-25.5 25.5h0c0 13.5 10.5 25.5 25.5 25.5H117zm0-1263c15 0 27-12 27-27 0-13.5-12-25.5-27-25.5h0-40.5c-15 0-25.5 12-25.5 25.5h0c0 15 10.5 27 25.5 27H117zm0 634.5c15 0 27-12 27-25.5 0-15-12-25.5-27-25.5h0-40.5c-15 0-25.5 10.5-25.5 25.5h0c0 13.5 10.5 25.5 25.5 25.5H117zm0-1974c15 0 27-12 27-27 0-13.5-12-25.5-27-25.5h0-40.5c-15 0-25.5 12-25.5 25.5h0c0 15 10.5 27 25.5 27H117zm0 79.5c15 0 27-12 27-25.5 0-15-12-27-27-27h0-40.5c-15 0-25.5 12-25.5 27h0c0 13.5 10.5 25.5 25.5 25.5H117zm0 861c15 0 27-12 27-27 0-13.5-12-25.5-27-25.5h0-40.5c-15 0-25.5 12-25.5 25.5h0c0 15 10.5 27 25.5 27H117zm0 79.5c15 0 27-12 27-25.5 0-15-12-27-27-27h0-40.5c-15 0-25.5 12-25.5 27h0c0 13.5 10.5 25.5 25.5 25.5H117zm0 544.5c15 0 27-12 27-27 0-13.5-12-25.5-27-25.5h0-40.5c-15 0-25.5 12-25.5 25.5h0c0 15 10.5 27 25.5 27H117zm0 88.5c15 0 27-10.5 27-25.5 0-13.5-12-25.5-27-25.5h0-40.5c-15 0-25.5 12-25.5 25.5h0c0 15 10.5 25.5 25.5 25.5H117zm0-1972.5c15 0 27-12 27-25.5 0-15-12-27-27-27h0-40.5c-15 0-25.5 12-25.5 27h0c0 13.5 10.5 25.5 25.5 25.5H117zm0 90c15 0 27-12 27-27 0-13.5-12-25.5-27-25.5h0-40.5c-15 0-25.5 12-25.5 25.5h0c0 15 10.5 27 25.5 27H117zm0 538.5c15 0 27-12 27-25.5 0-15-12-27-27-27h0-40.5c-15 0-25.5 12-25.5 27h0c0 13.5 10.5 25.5 25.5 25.5H117zm0 90c15 0 27-12 27-27 0-13.5-12-25.5-27-25.5h0-40.5c-15 0-25.5 12-25.5 25.5h0c0 15 10.5 27 25.5 27H117zm0 222c15 0 27-12 27-25.5 0-15-12-27-27-27h0-40.5c-15 0-25.5 12-25.5 27h0c0 13.5 10.5 25.5 25.5 25.5H117zm0 90c15 0 27-12 27-27 0-13.5-12-25.5-27-25.5h0-40.5c-15 0-25.5 12-25.5 25.5h0c0 15 10.5 27 25.5 27H117zm0 538.5c15 0 27-12 27-25.5 0-15-12-27-27-27h0-40.5c-15 0-25.5 12-25.5 27h0c0 13.5 10.5 25.5 25.5 25.5H117zm0 954c15 0 27-12 27-25.5 0-15-12-25.5-27-25.5h0-40.5c-15 0-25.5 10.5-25.5 25.5h0c0 13.5 10.5 25.5 25.5 25.5H117zm0-319.5c15 0 27-10.5 27-25.5 0-13.5-12-25.5-27-25.5h0-40.5c-15 0-25.5 12-25.5 25.5h0c0 15 10.5 25.5 25.5 25.5H117zm0 399c15 0 27-10.5 27-25.5 0-13.5-12-25.5-27-25.5h0-40.5c-15 0-25.5 12-25.5 25.5h0c0 15 10.5 25.5 25.5 25.5H117zm0 544.5c15 0 27-10.5 27-25.5s-12-25.5-27-25.5h0-40.5c-15 0-25.5 10.5-25.5 25.5h0c0 15 10.5 25.5 25.5 25.5H117zm52.5 195h-90c-24 0-45-19.5-45-45h0V1059c0-25.5 21-45 45-45h90v3573h0z"
     style="fill:none;stroke:#a6a6a6;stroke-width:.06;stroke-linecap:round;stroke-linejoin:round;stroke-miterlimit:10"
     id="path22" /><path
     style="clip-rule:evenodd;fill-rule:evenodd"
     d="M177 5746.5h3150V6180H177z"
     id="path24" /><path
     style="fill:none;stroke:#000;stroke-width:.06;stroke-linecap:round;stroke-linejoin:round;stroke-miterlimit:10"
     d="M177 5746.5V6180h3150v-433.5z"
     id="path26" /><path
     style="clip-rule:evenodd;fill:#d9d9d9;fill-rule:evenodd"
     d="M2238 5751h9v337.5h-9z"
     id="path28" /><path
     style="fill:none;stroke:#000;stroke-width:.06;stroke-linecap:round;stroke-linejoin:round;stroke-miterlimit:10"
     d="M2247 5751h-9 0v337.5h9z"
     id="path30" /><path
     style="clip-rule:evenodd;fill:#d9d9d9;fill-rule:evenodd"
     d="M1251 5751h9v337.5h-9z"
     id="path32" /><path
     style="fill:none;stroke:#000;stroke-width:.06;stroke-linecap:round;stroke-linejoin:round;stroke-miterlimit:10"
     d="M1260 5751h-9 0v337.5h9z"
     id="path34" /><path
     style="clip-rule:evenodd;fill:#d9d9d9;fill-rule:evenodd"
     d="M259.5 5751h9v337.5h-9z"
     id="path36" /><path
     style="fill:none;stroke:#000;stroke-width:.06;stroke-linecap:round;stroke-linejoin:round;stroke-miterlimit:10"
     d="M268.5 5751h-9 0v337.5h9z"
     id="path38" /><path
     style="clip-rule:evenodd;fill:#d9d9d9;fill-rule:evenodd"
     d="M3229.5 5751h9v337.5h-9z"
     id="path40" /><path
     style="fill:none;stroke:#000;stroke-width:.06;stroke-linecap:round;stroke-linejoin:round;stroke-miterlimit:10"
     d="M3238.5 5751h-9 0v337.5h9z"
     id="path42" /><path
     style="clip-rule:evenodd;fill:#d9d9d9;fill-rule:evenodd"
     d="M192 5746.5h3111v9H192z"
     id="path44" /><path
     style="fill:none;stroke:#000;stroke-width:.06;stroke-linecap:round;stroke-linejoin:round;stroke-miterlimit:10"
     d="M192 5746.5v9h3111v-9z"
     id="path46" /><path
     style="clip-rule:evenodd;fill:#d9d9d9;fill-rule:evenodd"
     d="M192 6084h3111v9H192z"
     id="path48" /><path
     style="fill:none;stroke:#000;stroke-width:.06;stroke-linecap:round;stroke-linejoin:round;stroke-miterlimit:10"
     d="M192 6084v9h3111v-9z"
     id="path50" /><path
     style="clip-rule:evenodd;fill:#737373;fill-rule:evenodd"
     d="M3241.5 5755.5h73.5v327h-73.5z"
     id="path52" /><path
     style="fill:none;stroke:#000;stroke-width:.06;stroke-linecap:round;stroke-linejoin:round;stroke-miterlimit:10"
     d="M3241.5 5755.5v327h73.5v-327z"
     id="path54" /><path
     style="clip-rule:evenodd;fill:#bfbfbf;fill-rule:evenodd"
     d="M3315 5761.5h9v315h-9z"
     id="path56" /><path
     style="fill:none;stroke:#000;stroke-width:.06;stroke-linecap:round;stroke-linejoin:round;stroke-miterlimit:10"
     d="M3324 5761.5h-9 0v315h9z"
     id="path58" /><path
     style="clip-rule:evenodd;fill:#737373;fill-rule:evenodd"
     d="M186 5755.5h73.5v327H186z"
     id="path60" /><path
     style="fill:none;stroke:#000;stroke-width:.06;stroke-linecap:round;stroke-linejoin:round;stroke-miterlimit:10"
     d="M259.5 5755.5v327h0H186v-327z"
     id="path62" /><path
     style="clip-rule:evenodd;fill:#bfbfbf;fill-rule:evenodd"
     d="M175.5 5761.5h9v315h-9z"
     id="path64" /><path
     style="fill:none;stroke:#000;stroke-width:.06;stroke-linecap:round;stroke-linejoin:round;stroke-miterlimit:10"
     d="M175.5 5761.5h9v315h-9z"
     id="path66" /><path
     d="M3184.5 6178.5h-2862c-7.5 0-12-6-12-12V6105c0-6 4.5-12 12-12h2862c6 0 12 6 12 12v61.5c0 6-6 12-12 12z"
     style="clip-rule:evenodd;fill:#737373;fill-rule:evenodd"
     id="path68" /><path
     d="M3184.5 6178.5h-2862c-7.5 0-12-6-12-12h0V6105c0-6 4.5-12 12-12h2862c6 0 12 6 12 12v61.5c0 6-6 12-12 12h0z"
     style="fill:none;stroke:#000;stroke-width:.06;stroke-linecap:round;stroke-linejoin:round;stroke-miterlimit:10"
     id="path70" /><path
     style="clip-rule:evenodd;fill:#bfbfbf;fill-rule:evenodd"
     d="M178.5 6099H465v13.5H178.5z"
     id="path72" /><path
     style="fill:none;stroke:#000;stroke-width:.06;stroke-linecap:round;stroke-linejoin:round;stroke-miterlimit:10"
     d="M465 6099v13.5h0-286.5V6099z"
     id="path74" /><path
     d="M420 6174h-90c-6 0-10.5-6-10.5-12v-36c0-6 4.5-12 10.5-12h90c6 0 12 6 12 12v36c0 6-6 12-12 12z"
     style="clip-rule:evenodd;fill:#bfbfbf;fill-rule:evenodd"
     id="path76" /><path
     d="M420 6174h-90c-6 0-10.5-6-10.5-12h0v-36c0-6 4.5-12 10.5-12h90c6 0 12 6 12 12v36c0 6-6 12-12 12h0z"
     style="fill:none;stroke:#000;stroke-width:.06;stroke-linecap:round;stroke-linejoin:round;stroke-miterlimit:10"
     id="path78" /><path
     d="M600 6180H477c-6 0-12-4.5-12-10.5v-54h147v54c0 6-6 10.5-12 10.5z"
     style="clip-rule:evenodd;fill:#bfbfbf;fill-rule:evenodd"
     id="path80" /><path
     d="M600 6180H477c-6 0-12-4.5-12-10.5h0v-54m147 0v54c0 6-6 10.5-12 10.5"
     style="fill:none;stroke:#000;stroke-width:.06;stroke-linecap:round;stroke-linejoin:round;stroke-miterlimit:10"
     id="path82" /><path
     style="clip-rule:evenodd;fill:#dfdfdf;fill-rule:evenodd"
     d="M463.5 6097.5h150v25.5h-150z"
     id="path84" /><path
     style="fill:none;stroke:#000;stroke-width:.06;stroke-linecap:round;stroke-linejoin:round;stroke-miterlimit:10"
     d="M465 6121.5V6099h147v22.5"
     id="path86" /><path
     d="M319.5 6145.5c0-19.5 18-36 42-36 22.5 0 42 16.5 42 36 0 21-19.5 37.5-42 37.5-24 0-42-16.5-42-37.5z"
     style="clip-rule:evenodd;fill:#8c8c8c;fill-rule:evenodd"
     id="path88" /><path
     d="M346.5 6121.5H375l15 24-15 25.5h-28.5l-13.5-25.5 13.5-24h0zm37.5 24c0-12-10.5-22.5-22.5-22.5-13.5 0-24 10.5-24 22.5h0c0 13.5 10.5 24 24 24 12 0 22.5-10.5 22.5-24h0zm0 0c0 13.5-10.5 24-22.5 24-13.5 0-24-10.5-24-24h0c0-12 10.5-22.5 24-22.5 12 0 22.5 10.5 22.5 22.5h0z"
     style="fill:none;stroke:#000;stroke-width:.06;stroke-linecap:round;stroke-linejoin:round;stroke-miterlimit:10"
     id="path90" /><path
     style="clip-rule:evenodd;fill:#d9d9d9;fill-rule:evenodd"
     d="M355.5 6130.5h12v31.5h-12z"
     id="path92" /><path
     style="fill:none;stroke:#737373;stroke-width:.06;stroke-linecap:round;stroke-linejoin:round;stroke-miterlimit:10"
     d="M366 6132v28.5h0-9V6132z"
     id="path94" /><path
     style="clip-rule:evenodd;fill:#bfbfbf;fill-rule:evenodd"
     d="M349.5 6141h24v9h-24z"
     id="path96" /><path
     d="M370.5 6148.5H366m-9 0h-6v-6h6m9 0h4.5v6"
     style="fill:none;stroke:#737373;stroke-width:.06;stroke-linecap:round;stroke-linejoin:round;stroke-miterlimit:10"
     id="path98" /><path
     style="clip-rule:evenodd;fill:#bfbfbf;fill-rule:evenodd"
     d="M3039 6099h286.5v13.5H3039z"
     id="path100" /><path
     style="fill:none;stroke:#000;stroke-width:.06;stroke-linecap:round;stroke-linejoin:round;stroke-miterlimit:10"
     d="M3039 6099v13.5h286.5V6099z"
     id="path102" /><path
     d="M3084 6174h90c6 0 10.5-6 10.5-12v-36c0-6-4.5-12-10.5-12h-90c-6 0-12 6-12 12v36c0 6 6 12 12 12z"
     style="clip-rule:evenodd;fill:#bfbfbf;fill-rule:evenodd"
     id="path104" /><path
     d="M3084 6174h90c6 0 10.5-6 10.5-12h0v-36c0-6-4.5-12-10.5-12h-90c-6 0-12 6-12 12v36c0 6 6 12 12 12h0z"
     style="fill:none;stroke:#000;stroke-width:.06;stroke-linecap:round;stroke-linejoin:round;stroke-miterlimit:10"
     id="path106" /><path
     d="M2904 6180h123c6 0 12-4.5 12-10.5v-54h-147v54c0 6 6 10.5 12 10.5z"
     style="clip-rule:evenodd;fill:#bfbfbf;fill-rule:evenodd"
     id="path108" /><path
     d="M2904 6180h123c6 0 12-4.5 12-10.5h0v-54m-147 0v54c0 6 6 10.5 12 10.5"
     style="fill:none;stroke:#000;stroke-width:.06;stroke-linecap:round;stroke-linejoin:round;stroke-miterlimit:10"
     id="path110" /><path
     style="clip-rule:evenodd;fill:#dfdfdf;fill-rule:evenodd"
     d="M2890.5 6097.5h150v25.5h-150z"
     id="path112" /><path
     style="fill:none;stroke:#000;stroke-width:.06;stroke-linecap:round;stroke-linejoin:round;stroke-miterlimit:10"
     d="M3039 6121.5V6099h-147v22.5"
     id="path114" /><path
     d="M3184.5 6145.5c0-19.5-18-36-42-36-22.5 0-42 16.5-42 36 0 21 19.5 37.5 42 37.5 24 0 42-16.5 42-37.5z"
     style="clip-rule:evenodd;fill:#8c8c8c;fill-rule:evenodd"
     id="path116" /><path
     d="M3157.5 6121.5H3129l-15 24 15 25.5h28.5l13.5-25.5-13.5-24h0zm-37.5 24c0-12 10.5-22.5 22.5-22.5 13.5 0 24 10.5 24 22.5h0c0 13.5-10.5 24-24 24-12 0-22.5-10.5-22.5-24h0zm0 0c0 13.5 10.5 24 22.5 24 13.5 0 24-10.5 24-24h0c0-12-10.5-22.5-24-22.5-12 0-22.5 10.5-22.5 22.5h0z"
     style="fill:none;stroke:#000;stroke-width:.06;stroke-linecap:round;stroke-linejoin:round;stroke-miterlimit:10"
     id="path118" /><path
     style="clip-rule:evenodd;fill:#d9d9d9;fill-rule:evenodd"
     d="M3136.5 6130.5h12v31.5h-12z"
     id="path120" /><path
     style="fill:none;stroke:#737373;stroke-width:.06;stroke-linecap:round;stroke-linejoin:round;stroke-miterlimit:10"
     d="M3138 6132v28.5h9V6132z"
     id="path122" /><path
     style="clip-rule:evenodd;fill:#bfbfbf;fill-rule:evenodd"
     d="M3130.5 6141h24v9h-24z"
     id="path124" /><path
     d="M3133.5 6148.5h4.5m9 0h6v-6h-6m-9 0h-4.5v6"
     style="fill:none;stroke:#737373;stroke-width:.06;stroke-linecap:round;stroke-linejoin:round;stroke-miterlimit:10"
     id="path126" /><path
     style="clip-rule:evenodd;fill-rule:evenodd"
     d="M175.5 6183h3150v433.5h-3150z"
     id="path128" /><path
     style="fill:none;stroke:#000;stroke-width:.06;stroke-linecap:round;stroke-linejoin:round;stroke-miterlimit:10"
     d="M175.5 6183v433.5h3150V6183z"
     id="path130" /><path
     style="clip-rule:evenodd;fill:#d9d9d9;fill-rule:evenodd"
     d="M2238 6186h9v337.5h-9z"
     id="path132" /><path
     style="fill:none;stroke:#000;stroke-width:.06;stroke-linecap:round;stroke-linejoin:round;stroke-miterlimit:10"
     d="M2247 6186h-9 0v337.5h9z"
     id="path134" /><path
     style="clip-rule:evenodd;fill:#d9d9d9;fill-rule:evenodd"
     d="M1251 6186h9v337.5h-9z"
     id="path136" /><path
     style="fill:none;stroke:#000;stroke-width:.06;stroke-linecap:round;stroke-linejoin:round;stroke-miterlimit:10"
     d="M1260 6186h-9 0v337.5h9z"
     id="path138" /><path
     style="clip-rule:evenodd;fill:#d9d9d9;fill-rule:evenodd"
     d="M259.5 6186h9v337.5h-9z"
     id="path140" /><path
     style="fill:none;stroke:#000;stroke-width:.06;stroke-linecap:round;stroke-linejoin:round;stroke-miterlimit:10"
     d="M268.5 6186h-9 0v337.5h9z"
     id="path142" /><path
     style="clip-rule:evenodd;fill:#d9d9d9;fill-rule:evenodd"
     d="M3229.5 6186h9v337.5h-9z"
     id="path144" /><path
     style="fill:none;stroke:#000;stroke-width:.06;stroke-linecap:round;stroke-linejoin:round;stroke-miterlimit:10"
     d="M3238.5 6186h-9 0v337.5h9z"
     id="path146" /><path
     style="clip-rule:evenodd;fill:#d9d9d9;fill-rule:evenodd"
     d="M192 6183h3111v9H192z"
     id="path148" /><path
     style="fill:none;stroke:#000;stroke-width:.06;stroke-linecap:round;stroke-linejoin:round;stroke-miterlimit:10"
     d="M192 6183v9h3111v-9z"
     id="path150" /><path
     style="clip-rule:evenodd;fill:#d9d9d9;fill-rule:evenodd"
     d="M192 6519h3111v9H192z"
     id="path152" /><path
     style="fill:none;stroke:#000;stroke-width:.06;stroke-linecap:round;stroke-linejoin:round;stroke-miterlimit:10"
     d="M192 6519v9h3111v-9z"
     id="path154" /><path
     style="clip-rule:evenodd;fill:#737373;fill-rule:evenodd"
     d="M3241.5 6192h73.5v325.5h-73.5z"
     id="path156" /><path
     style="fill:none;stroke:#000;stroke-width:.06;stroke-linecap:round;stroke-linejoin:round;stroke-miterlimit:10"
     d="M3241.5 6192v325.5h73.5V6192z"
     id="path158" /><path
     style="clip-rule:evenodd;fill:#bfbfbf;fill-rule:evenodd"
     d="M3315 6198h9v315h-9z"
     id="path160" /><path
     style="fill:none;stroke:#000;stroke-width:.06;stroke-linecap:round;stroke-linejoin:round;stroke-miterlimit:10"
     d="M3324 6198h-9 0v315h9z"
     id="path162" /><path
     style="clip-rule:evenodd;fill:#737373;fill-rule:evenodd"
     d="M186 6192h73.5v325.5H186z"
     id="path164" /><path
     style="fill:none;stroke:#000;stroke-width:.06;stroke-linecap:round;stroke-linejoin:round;stroke-miterlimit:10"
     d="M259.5 6192v325.5h0H186V6192z"
     id="path166" /><path
     style="clip-rule:evenodd;fill:#bfbfbf;fill-rule:evenodd"
     d="M175.5 6198h9v315h-9z"
     id="path168" /><path
     style="fill:none;stroke:#000;stroke-width:.06;stroke-linecap:round;stroke-linejoin:round;stroke-miterlimit:10"
     d="M175.5 6198h9v315h-9z"
     id="path170" /><path
     d="M3184.5 6613.5h-2862c-7.5 0-12-4.5-12-10.5v-63c0-6 4.5-10.5 12-10.5h2862c6 0 12 4.5 12 10.5v63c0 6-6 10.5-12 10.5z"
     style="clip-rule:evenodd;fill:#737373;fill-rule:evenodd"
     id="path172" /><path
     d="M3184.5 6613.5h-2862c-7.5 0-12-4.5-12-10.5h0v-63c0-6 4.5-10.5 12-10.5h2862c6 0 12 4.5 12 10.5v63c0 6-6 10.5-12 10.5h0z"
     style="fill:none;stroke:#000;stroke-width:.06;stroke-linecap:round;stroke-linejoin:round;stroke-miterlimit:10"
     id="path174" /><path
     style="clip-rule:evenodd;fill:#bfbfbf;fill-rule:evenodd"
     d="M178.5 6535.5H465v13.5H178.5z"
     id="path176" /><path
     style="fill:none;stroke:#000;stroke-width:.06;stroke-linecap:round;stroke-linejoin:round;stroke-miterlimit:10"
     d="M465 6535.5v13.5h0-286.5v-13.5z"
     id="path178" /><path
     d="M420 6609h-90c-6 0-10.5-4.5-10.5-10.5V6561c0-6 4.5-10.5 10.5-10.5h90c6 0 12 4.5 12 10.5v37.5c0 6-6 10.5-12 10.5z"
     style="clip-rule:evenodd;fill:#bfbfbf;fill-rule:evenodd"
     id="path180" /><path
     d="M420 6609h-90c-6 0-10.5-4.5-10.5-10.5h0V6561c0-6 4.5-10.5 10.5-10.5h90c6 0 12 4.5 12 10.5v37.5c0 6-6 10.5-12 10.5h0z"
     style="fill:none;stroke:#000;stroke-width:.06;stroke-linecap:round;stroke-linejoin:round;stroke-miterlimit:10"
     id="path182" /><path
     d="M600 6616.5H477c-6 0-12-4.5-12-10.5v-54h147v54c0 6-6 10.5-12 10.5z"
     style="clip-rule:evenodd;fill:#bfbfbf;fill-rule:evenodd"
     id="path184" /><path
     d="M600 6616.5H477c-6 0-12-4.5-12-10.5h0v-54m147 0v54c0 6-6 10.5-12 10.5"
     style="fill:none;stroke:#000;stroke-width:.06;stroke-linecap:round;stroke-linejoin:round;stroke-miterlimit:10"
     id="path186" /><path
     style="clip-rule:evenodd;fill:#dfdfdf;fill-rule:evenodd"
     d="M463.5 6532.5h150v27h-150z"
     id="path188" /><path
     style="fill:none;stroke:#000;stroke-width:.06;stroke-linecap:round;stroke-linejoin:round;stroke-miterlimit:10"
     d="M465 6558v-22.5h147v22.5"
     id="path190" /><path
     d="M319.5 6582c0-21 18-37.5 42-37.5 22.5 0 42 16.5 42 37.5s-19.5 37.5-42 37.5c-24 0-42-16.5-42-37.5z"
     style="clip-rule:evenodd;fill:#8c8c8c;fill-rule:evenodd"
     id="path192" /><path
     d="M346.5 6558H375l15 24-15 24h-28.5l-13.5-24 13.5-24h0zm37.5 24c0-13.5-10.5-24-22.5-24-13.5 0-24 10.5-24 24h0c0 12 10.5 22.5 24 22.5 12 0 22.5-10.5 22.5-22.5h0zm0 0c0 12-10.5 22.5-22.5 22.5-13.5 0-24-10.5-24-22.5h0c0-13.5 10.5-24 24-24 12 0 22.5 10.5 22.5 24h0z"
     style="fill:none;stroke:#000;stroke-width:.06;stroke-linecap:round;stroke-linejoin:round;stroke-miterlimit:10"
     id="path194" /><path
     style="clip-rule:evenodd;fill:#d9d9d9;fill-rule:evenodd"
     d="M355.5 6565.5h12v33h-12z"
     id="path196" /><path
     style="fill:none;stroke:#737373;stroke-width:.06;stroke-linecap:round;stroke-linejoin:round;stroke-miterlimit:10"
     d="M366 6568.5v27h0-9v-27z"
     id="path198" /><path
     style="clip-rule:evenodd;fill:#bfbfbf;fill-rule:evenodd"
     d="M349.5 6577.5h24v9h-24z"
     id="path200" /><path
     d="M370.5 6585H366m-9 0h-6v-6h6m9 0h4.5v6"
     style="fill:none;stroke:#737373;stroke-width:.06;stroke-linecap:round;stroke-linejoin:round;stroke-miterlimit:10"
     id="path202" /><path
     style="clip-rule:evenodd;fill:#bfbfbf;fill-rule:evenodd"
     d="M3039 6535.5h286.5v13.5H3039z"
     id="path204" /><path
     style="fill:none;stroke:#000;stroke-width:.06;stroke-linecap:round;stroke-linejoin:round;stroke-miterlimit:10"
     d="M3039 6535.5v13.5h286.5v-13.5z"
     id="path206" /><path
     d="M3084 6609h90c6 0 10.5-4.5 10.5-10.5V6561c0-6-4.5-10.5-10.5-10.5h-90c-6 0-12 4.5-12 10.5v37.5c0 6 6 10.5 12 10.5z"
     style="clip-rule:evenodd;fill:#bfbfbf;fill-rule:evenodd"
     id="path208" /><path
     d="M3084 6609h90c6 0 10.5-4.5 10.5-10.5h0V6561c0-6-4.5-10.5-10.5-10.5h-90c-6 0-12 4.5-12 10.5v37.5c0 6 6 10.5 12 10.5h0z"
     style="fill:none;stroke:#000;stroke-width:.06;stroke-linecap:round;stroke-linejoin:round;stroke-miterlimit:10"
     id="path210" /><path
     d="M2904 6616.5h123c6 0 12-4.5 12-10.5v-54h-147v54c0 6 6 10.5 12 10.5z"
     style="clip-rule:evenodd;fill:#bfbfbf;fill-rule:evenodd"
     id="path212" /><path
     d="M2904 6616.5h123c6 0 12-4.5 12-10.5h0v-54m-147 0v54c0 6 6 10.5 12 10.5"
     style="fill:none;stroke:#000;stroke-width:.06;stroke-linecap:round;stroke-linejoin:round;stroke-miterlimit:10"
     id="path214" /><path
     style="clip-rule:evenodd;fill:#dfdfdf;fill-rule:evenodd"
     d="M2890.5 6532.5h150v27h-150z"
     id="path216" /><path
     style="fill:none;stroke:#000;stroke-width:.06;stroke-linecap:round;stroke-linejoin:round;stroke-miterlimit:10"
     d="M3039 6558v-22.5h-147v22.5"
     id="path218" /><path
     d="M3184.5 6582c0-21-18-37.5-42-37.5-22.5 0-42 16.5-42 37.5s19.5 37.5 42 37.5c24 0 42-16.5 42-37.5z"
     style="clip-rule:evenodd;fill:#8c8c8c;fill-rule:evenodd"
     id="path220" /><path
     d="M3157.5 6558H3129l-15 24 15 24h28.5l13.5-24-13.5-24h0zm-37.5 24c0-13.5 10.5-24 22.5-24 13.5 0 24 10.5 24 24h0c0 12-10.5 22.5-24 22.5-12 0-22.5-10.5-22.5-22.5h0zm0 0c0 12 10.5 22.5 22.5 22.5 13.5 0 24-10.5 24-22.5h0c0-13.5-10.5-24-24-24-12 0-22.5 10.5-22.5 24h0z"
     style="fill:none;stroke:#000;stroke-width:.06;stroke-linecap:round;stroke-linejoin:round;stroke-miterlimit:10"
     id="path222" /><path
     style="clip-rule:evenodd;fill:#d9d9d9;fill-rule:evenodd"
     d="M3136.5 6565.5h12v33h-12z"
     id="path224" /><path
     style="fill:none;stroke:#737373;stroke-width:.06;stroke-linecap:round;stroke-linejoin:round;stroke-miterlimit:10"
     d="M3138 6568.5v27h9v-27z"
     id="path226" /><path
     style="clip-rule:evenodd;fill:#bfbfbf;fill-rule:evenodd"
     d="M3130.5 6577.5h24v9h-24z"
     id="path228" /><path
     d="M3133.5 6585h4.5m9 0h6v-6h-6m-9 0h-4.5v6"
     style="fill:none;stroke:#737373;stroke-width:.06;stroke-linecap:round;stroke-linejoin:round;stroke-miterlimit:10"
     id="path230" /><path
     style="clip-rule:evenodd;fill:#737373;fill-rule:evenodd"
     d="M2487 5649v34.5h-742.5V5649h-84v34.5H1014V5649h-84v34.5H372V5649h-84v34.5H181.5v45H3309v-45h-102V5649h-84v34.5h-550.5V5649z"
     id="path232" /><path
     style="fill:none;stroke:#000;stroke-width:.06;stroke-linecap:round;stroke-linejoin:round;stroke-miterlimit:10"
     d="M2487 5649v34.5h-742.5V5649h-84v34.5H1014V5649h-84v34.5H372V5649h-84v34.5H181.5v45H3309v-45h-102V5649h-84v34.5h0-550.5V5649z"
     id="path234" /><path
     d="M363 5694c0-19.5-16.5-34.5-36-34.5-18 0-34.5 15-34.5 34.5s16.5 34.5 34.5 34.5c19.5 0 36-15 36-34.5z"
     style="clip-rule:evenodd;fill:#d8d8d8;fill-rule:evenodd"
     id="path236" /><path
     d="M351 5694c0-12-10.5-22.5-24-22.5-12 0-22.5 10.5-22.5 22.5s10.5 22.5 22.5 22.5c13.5 0 24-10.5 24-22.5h0z"
     style="fill:none;stroke:#5f5f5f;stroke-width:.06;stroke-linecap:round;stroke-linejoin:round;stroke-miterlimit:10"
     id="path238" /><path
     style="fill:none;stroke:#5f5f5f;stroke-width:.23999999;stroke-linecap:round;stroke-linejoin:round;stroke-miterlimit:10"
     d="M340.5 5694H315M327 5707.5v-27"
     id="path240" /><path
     d="M1003.5 5694c0-19.5-15-34.5-34.5-34.5s-34.5 15-34.5 34.5 15 34.5 34.5 34.5 34.5-15 34.5-34.5z"
     style="clip-rule:evenodd;fill:#d8d8d8;fill-rule:evenodd"
     id="path242" /><path
     d="M991.5 5694c0-12-10.5-22.5-22.5-22.5s-22.5 10.5-22.5 22.5 10.5 22.5 22.5 22.5 22.5-10.5 22.5-22.5h0z"
     style="fill:none;stroke:#5f5f5f;stroke-width:.06;stroke-linecap:round;stroke-linejoin:round;stroke-miterlimit:10"
     id="path244" /><path
     style="fill:none;stroke:#5f5f5f;stroke-width:.23999999;stroke-linecap:round;stroke-linejoin:round;stroke-miterlimit:10"
     d="M982.5 5694h-27M969 5707.5v-27"
     id="path246" /><path
     d="M1734 5694c0-19.5-15-34.5-34.5-34.5s-34.5 15-34.5 34.5 15 34.5 34.5 34.5 34.5-15 34.5-34.5z"
     style="clip-rule:evenodd;fill:#d8d8d8;fill-rule:evenodd"
     id="path248" /><path
     d="M1722 5694c0-12-9-22.5-22.5-22.5-12 0-22.5 10.5-22.5 22.5s10.5 22.5 22.5 22.5c13.5 0 22.5-10.5 22.5-22.5h0z"
     style="fill:none;stroke:#5f5f5f;stroke-width:.06;stroke-linecap:round;stroke-linejoin:round;stroke-miterlimit:10"
     id="path250" /><path
     style="fill:none;stroke:#5f5f5f;stroke-width:.23999999;stroke-linecap:round;stroke-linejoin:round;stroke-miterlimit:10"
     d="M1713 5694h-25.5M1699.5 5707.5v-27"
     id="path252" /><path
     d="M2562 5694c0-19.5-16.5-34.5-36-34.5-18 0-34.5 15-34.5 34.5s16.5 34.5 34.5 34.5c19.5 0 36-15 36-34.5z"
     style="clip-rule:evenodd;fill:#d8d8d8;fill-rule:evenodd"
     id="path254" /><path
     d="M2550 5694c0-12-10.5-22.5-24-22.5-12 0-22.5 10.5-22.5 22.5s10.5 22.5 22.5 22.5c13.5 0 24-10.5 24-22.5h0z"
     style="fill:none;stroke:#5f5f5f;stroke-width:.06;stroke-linecap:round;stroke-linejoin:round;stroke-miterlimit:10"
     id="path256" /><path
     style="fill:none;stroke:#5f5f5f;stroke-width:.23999999;stroke-linecap:round;stroke-linejoin:round;stroke-miterlimit:10"
     d="M2539.5 5694H2514M2526 5707.5v-27"
     id="path258" /><path
     d="M3202.5 5694c0-19.5-15-34.5-34.5-34.5s-34.5 15-34.5 34.5 15 34.5 34.5 34.5 34.5-15 34.5-34.5z"
     style="clip-rule:evenodd;fill:#d8d8d8;fill-rule:evenodd"
     id="path260" /><path
     d="M3190.5 5694c0-12-9-22.5-22.5-22.5-12 0-22.5 10.5-22.5 22.5s10.5 22.5 22.5 22.5c13.5 0 22.5-10.5 22.5-22.5h0z"
     style="fill:none;stroke:#5f5f5f;stroke-width:.06;stroke-linecap:round;stroke-linejoin:round;stroke-miterlimit:10"
     id="path262" /><path
     style="fill:none;stroke:#5f5f5f;stroke-width:.23999999;stroke-linecap:round;stroke-linejoin:round;stroke-miterlimit:10"
     d="M3181.5 5694H3156M3168 5707.5v-27"
     id="path264" /><path
     style="clip-rule:evenodd;fill:#737373;fill-rule:evenodd"
     d="M2853 4794h174v22.5h-174z"
     id="path266" /><path
     style="fill:none;stroke:#000;stroke-width:.06;stroke-linecap:round;stroke-linejoin:round;stroke-miterlimit:10"
     d="M2853 4794v22.5h174V4794z"
     id="path268" /><path
     style="clip-rule:evenodd;fill:#737373;fill-rule:evenodd"
     d="M468 4794h174v22.5H468z"
     id="path270" /><path
     style="fill:none;stroke:#000;stroke-width:.06;stroke-linecap:round;stroke-linejoin:round;stroke-miterlimit:10"
     d="M468 4794v22.5h174V4794z"
     id="path272" /><path
     style="clip-rule:evenodd;fill:#737373;fill-rule:evenodd"
     d="M3297 4963.5h34.5v765H3297z"
     id="path274" /><path
     style="fill:none;stroke:#000;stroke-width:.06;stroke-linecap:round;stroke-linejoin:round;stroke-miterlimit:10"
     d="M3297 4963.5v765h34.5v-765z"
     id="path276" /><path
     style="clip-rule:evenodd;fill:#737373;fill-rule:evenodd"
     d="M169.5 4963.5H204v765h-34.5z"
     id="path278" /><path
     style="fill:none;stroke:#000;stroke-width:.06;stroke-linecap:round;stroke-linejoin:round;stroke-miterlimit:10"
     d="M169.5 4963.5v765H204v-765z"
     id="path280" /><path
     d="M379.5 5694v-910.5h-9V5694h9zm-93 0v-910.5h-9V5694h9zm276 0v-910.5h-9V5694h9zm-91.5 0v-910.5h-9V5694h9zm457.5 0v-910.5h-9V5694h9zm-91.5 0v-910.5h-9V5694h9zm-91.5 0v-910.5h-9V5694h9zm-91.5 0v-910.5h-9V5694h9zm640.5 0v-910.5h-9V5694h9zm-91.5 0v-910.5h-9V5694h9zm-91.5 0v-910.5h-9V5694h9zm-91.5 0v-910.5h-9V5694h9zm733.5 0v-910.5h-9V5694h9zm-91.5 0v-910.5h-9V5694h9zm-91.5 0v-910.5h-9V5694h9zm-91.5 0v-910.5h-9V5694h9zm-93 0v-910.5h-9V5694h9zm1191 0v-910.5h-9V5694h9zm-91.5 0v-910.5h-9V5694h9zm-91.5 0v-910.5h-9V5694h9zm-91.5 0v-910.5h-9V5694h9zm916.5 0v-910.5h-9V5694h9zm-91.5 0v-910.5h-9V5694h9zm-91.5 0v-910.5h-9V5694h9zm-91.5 0v-910.5h-9V5694h9zm-91.5 0v-910.5h-9V5694h9zm-91.5 0v-910.5h-9V5694h9zm-91.5 0v-910.5h-9V5694h9zm-459 0v-910.5h-9V5694h9zm-91.5 0v-910.5h-9V5694h9zm-91.5 0v-910.5h-9V5694h9zm-91.5 0v-910.5h-9V5694h9zm-91.5 0v-910.5h-9V5694h9z"
     style="clip-rule:evenodd;fill:#737373;fill-rule:evenodd"
     id="path282" /><path
     d="M3316.5 5703v-9h-3144v9h3144zm0-91.5v-9h-3144v9h3144zm0-91.5v-9h-3144v9h3144zm0-91.5v-9h-3144v9h3144zm0-91.5v-9h-3144v9h3144zm0-93v-9h-3144v9h3144zm0-91.5v-9h-3144v9h3144zm0-91.5v-9h-3144v9h3144zm0-91.5v-9h-3144v9h3144zm0-91.5v-9h-3144v9h3144zm0-91.5v-9h-3144v9h3144z"
     style="clip-rule:evenodd;fill:#737373;fill-rule:evenodd"
     id="path284" /><path
     d="M169.5 4963.5h3v-3h12c33-108 132-181.5 244.5-183h2643c111 6 205.5 79.5 241.5 183h3v3h15V4659h-3162v304.5z"
     style="clip-rule:evenodd;fill:#737373;fill-rule:evenodd"
     id="path286" /><path
     d="M169.5 4963.5h3v-3h12c33-108 132-181.5 244.5-183h2643c111 6 205.5 79.5 241.5 183h3v3h15V4659h-3162v304.5h0z"
     style="fill:none;stroke:#000;stroke-width:.06;stroke-linecap:round;stroke-linejoin:round;stroke-miterlimit:10"
     id="path288" /><path
     style="clip-rule:evenodd;fill:#d9d9d9;fill-rule:evenodd"
     d="M169.5 3697.5h3150V3816h-3150z"
     id="path290" /><path
     d="M169.5 3816h3150v-118.5m-3150 0V3816"
     style="fill:none;stroke:#a6a6a6;stroke-width:.06;stroke-linecap:round;stroke-linejoin:round;stroke-miterlimit:10"
     id="path292" /><path
     style="clip-rule:evenodd;fill:#ececec;fill-rule:evenodd"
     d="M168 3678h3154.5v27H168z"
     id="path294" /><path
     style="fill:none;stroke:#a6a6a6;stroke-width:.06;stroke-linecap:round;stroke-linejoin:round;stroke-miterlimit:10"
     d="M3319.5 3703.5V3681h-3150v22.5M3292.5 3850.5c-1.5 0-1.5-1.5-1.5-3v-24H199.5v24c0 1.5-1.5 3-3 3M196.5 3850.5c0 1.5-1.5 1.5-3 1.5h0-24v114h24c1.5 0 3 1.5 3 1.5M3292.5 3967.5c-1.5 1.5-1.5 3-1.5 4.5v24H199.5v-24c0-1.5-1.5-3-3-4.5"
     id="path296" /><path
     style="clip-rule:evenodd;fill:#bfbfbf;fill-rule:evenodd"
     d="M3289.5 3849h33v121.5h-33z"
     id="path298" /><path
     style="clip-rule:evenodd;fill:#d9d9d9;fill-rule:evenodd"
     d="M3291 3966h6v-114h-6v-4.5H199.5v4.5h-6v114h6v6H3291z"
     id="path300" /><path
     style="clip-rule:evenodd;fill:#bfbfbf;fill-rule:evenodd"
     d="M195 3822h3099v33H195z"
     id="path302" /><path
     style="clip-rule:evenodd;fill:#bfbfbf;fill-rule:evenodd"
     d="M168 3849h33v121.5h-33z"
     id="path304" /><path
     style="clip-rule:evenodd;fill:#bfbfbf;fill-rule:evenodd"
     d="M195 3964.5h3099v33H195z"
     id="path306" /><path
     d="M3292.5 3850.5c1.5 1.5 3 1.5 4.5 1.5h22.5v114H3297c-1.5 0-3 1.5-4.5 1.5M3319.5 4063.5v-45h-3150v45"
     style="fill:none;stroke:#a6a6a6;stroke-width:.06;stroke-linecap:round;stroke-linejoin:round;stroke-miterlimit:10"
     id="path308" /><path
     style="clip-rule:evenodd;fill:#ececec;fill-rule:evenodd"
     d="M175.5 4302H3315v39H175.5z"
     id="path310" /><path
     d="M189 4338h3112.5c6 0 12-4.5 12-10.5h0V4314c0-6-6-10.5-12-10.5H189c-7.5 0-12 4.5-12 10.5v13.5c0 6 4.5 10.5 12 10.5h0z"
     style="fill:none;stroke:#a6a6a6;stroke-width:.06;stroke-linecap:round;stroke-linejoin:round;stroke-miterlimit:10"
     id="path312" /><path
     style="clip-rule:evenodd;fill:#8c8c8c;fill-rule:evenodd"
     d="M298.5 4330.5h123v15h-123z"
     id="path314" /><path
     d="M306 4344h108c3 0 4.5-3 4.5-6h0c0-3-1.5-4.5-4.5-4.5H306c-3 0-4.5 1.5-4.5 4.5h0c0 3 1.5 6 4.5 6h0z"
     style="fill:none;stroke:#737373;stroke-width:.06;stroke-linecap:round;stroke-linejoin:round;stroke-miterlimit:10"
     id="path316" /><path
     style="clip-rule:evenodd;fill:#8c8c8c;fill-rule:evenodd"
     d="M462 4330.5h121.5v15H462z"
     id="path318" /><path
     d="M469.5 4344H576c3 0 6-3 6-6h0c0-3-3-4.5-6-4.5H469.5c-3 0-6 1.5-6 4.5h0c0 3 3 6 6 6h0z"
     style="fill:none;stroke:#737373;stroke-width:.06;stroke-linecap:round;stroke-linejoin:round;stroke-miterlimit:10"
     id="path320" /><path
     style="clip-rule:evenodd;fill:#8c8c8c;fill-rule:evenodd"
     d="M625.5 4330.5H747v15H625.5z"
     id="path322" /><path
     d="M631.5 4344h108c3 0 6-3 6-6h0c0-3-3-4.5-6-4.5h-108c-3 0-4.5 1.5-4.5 4.5h0c0 3 1.5 6 4.5 6h0z"
     style="fill:none;stroke:#737373;stroke-width:.06;stroke-linecap:round;stroke-linejoin:round;stroke-miterlimit:10"
     id="path324" /><path
     style="clip-rule:evenodd;fill:#8c8c8c;fill-rule:evenodd"
     d="M787.5 4330.5H909v15H787.5z"
     id="path326" /><path
     d="M795 4344h108c3 0 4.5-3 4.5-6h0c0-3-1.5-4.5-4.5-4.5H795c-3 0-6 1.5-6 4.5h0c0 3 3 6 6 6h0z"
     style="fill:none;stroke:#737373;stroke-width:.06;stroke-linecap:round;stroke-linejoin:round;stroke-miterlimit:10"
     id="path328" /><path
     style="clip-rule:evenodd;fill:#8c8c8c;fill-rule:evenodd"
     d="M951 4330.5h121.5v15H951z"
     id="path330" /><path
     d="M958.5 4344H1065c3 0 6-3 6-6h0c0-3-3-4.5-6-4.5H958.5c-3 0-6 1.5-6 4.5h0c0 3 3 6 6 6h0z"
     style="fill:none;stroke:#737373;stroke-width:.06;stroke-linecap:round;stroke-linejoin:round;stroke-miterlimit:10"
     id="path332" /><path
     style="clip-rule:evenodd;fill:#8c8c8c;fill-rule:evenodd"
     d="M1113 4330.5h123v15h-123z"
     id="path334" /><path
     d="M1120.5 4344h108c3 0 4.5-3 4.5-6h0c0-3-1.5-4.5-4.5-4.5h-108c-3 0-4.5 1.5-4.5 4.5h0c0 3 1.5 6 4.5 6h0z"
     style="fill:none;stroke:#737373;stroke-width:.06;stroke-linecap:round;stroke-linejoin:round;stroke-miterlimit:10"
     id="path336" /><path
     style="clip-rule:evenodd;fill:#8c8c8c;fill-rule:evenodd"
     d="M1276.5 4330.5H1398v15h-121.5z"
     id="path338" /><path
     d="M1284 4344h108c1.5 0 4.5-3 4.5-6h0c0-3-3-4.5-4.5-4.5h-108c-3 0-6 1.5-6 4.5h0c0 3 3 6 6 6h0z"
     style="fill:none;stroke:#737373;stroke-width:.06;stroke-linecap:round;stroke-linejoin:round;stroke-miterlimit:10"
     id="path340" /><path
     style="clip-rule:evenodd;fill:#8c8c8c;fill-rule:evenodd"
     d="M1440 4330.5h121.5v15H1440z"
     id="path342" /><path
     d="M1447.5 4344H1554c3 0 6-3 6-6h0c0-3-3-4.5-6-4.5h-106.5c-3 0-6 1.5-6 4.5h0c0 3 3 6 6 6h0z"
     style="fill:none;stroke:#737373;stroke-width:.06;stroke-linecap:round;stroke-linejoin:round;stroke-miterlimit:10"
     id="path344" /><path
     style="clip-rule:evenodd;fill:#8c8c8c;fill-rule:evenodd"
     d="M1602 4330.5h123v15h-123z"
     id="path346" /><path
     d="M1609.5 4344h108c3 0 4.5-3 4.5-6h0c0-3-1.5-4.5-4.5-4.5h-108c-3 0-4.5 1.5-4.5 4.5h0c0 3 1.5 6 4.5 6h0z"
     style="fill:none;stroke:#737373;stroke-width:.06;stroke-linecap:round;stroke-linejoin:round;stroke-miterlimit:10"
     id="path348" /><path
     style="clip-rule:evenodd;fill:#8c8c8c;fill-rule:evenodd"
     d="M1765.5 4330.5H1887v15h-121.5z"
     id="path350" /><path
     d="M1773 4344h106.5c3 0 6-3 6-6h0c0-3-3-4.5-6-4.5H1773c-3 0-6 1.5-6 4.5h0c0 3 3 6 6 6h0z"
     style="fill:none;stroke:#737373;stroke-width:.06;stroke-linecap:round;stroke-linejoin:round;stroke-miterlimit:10"
     id="path352" /><path
     style="clip-rule:evenodd;fill:#8c8c8c;fill-rule:evenodd"
     d="M1929 4330.5h121.5v15H1929z"
     id="path354" /><path
     d="M1936.5 4344H2043c3 0 6-3 6-6h0c0-3-3-4.5-6-4.5h-106.5c-3 0-6 1.5-6 4.5h0c0 3 3 6 6 6h0z"
     style="fill:none;stroke:#737373;stroke-width:.06;stroke-linecap:round;stroke-linejoin:round;stroke-miterlimit:10"
     id="path356" /><path
     style="clip-rule:evenodd;fill:#8c8c8c;fill-rule:evenodd"
     d="M2091 4330.5h123v15h-123z"
     id="path358" /><path
     d="M2098.5 4344h108c3 0 4.5-3 4.5-6h0c0-3-1.5-4.5-4.5-4.5h-108c-3 0-4.5 1.5-4.5 4.5h0c0 3 1.5 6 4.5 6h0z"
     style="fill:none;stroke:#737373;stroke-width:.06;stroke-linecap:round;stroke-linejoin:round;stroke-miterlimit:10"
     id="path360" /><path
     style="clip-rule:evenodd;fill:#8c8c8c;fill-rule:evenodd"
     d="M2254.5 4330.5H2376v15h-121.5z"
     id="path362" /><path
     d="M2262 4344h106.5c3 0 6-3 6-6h0c0-3-3-4.5-6-4.5H2262c-3 0-6 1.5-6 4.5h0c0 3 3 6 6 6h0z"
     style="fill:none;stroke:#737373;stroke-width:.06;stroke-linecap:round;stroke-linejoin:round;stroke-miterlimit:10"
     id="path364" /><path
     style="clip-rule:evenodd;fill:#8c8c8c;fill-rule:evenodd"
     d="M2418 4330.5h121.5v15H2418z"
     id="path366" /><path
     d="M2424 4344h108c3 0 6-3 6-6h0c0-3-3-4.5-6-4.5h-108c-3 0-4.5 1.5-4.5 4.5h0c0 3 1.5 6 4.5 6h0z"
     style="fill:none;stroke:#737373;stroke-width:.06;stroke-linecap:round;stroke-linejoin:round;stroke-miterlimit:10"
     id="path368" /><path
     style="clip-rule:evenodd;fill:#8c8c8c;fill-rule:evenodd"
     d="M2580 4330.5h121.5v15H2580z"
     id="path370" /><path
     d="M2587.5 4344h108c3 0 4.5-3 4.5-6h0c0-3-1.5-4.5-4.5-4.5h-108c-3 0-6 1.5-6 4.5h0c0 3 3 6 6 6h0z"
     style="fill:none;stroke:#737373;stroke-width:.06;stroke-linecap:round;stroke-linejoin:round;stroke-miterlimit:10"
     id="path372" /><path
     style="clip-rule:evenodd;fill:#8c8c8c;fill-rule:evenodd"
     d="M2743.5 4330.5H2865v15h-121.5z"
     id="path374" /><path
     d="M2751 4344h106.5c3 0 6-3 6-6h0c0-3-3-4.5-6-4.5H2751c-3 0-6 1.5-6 4.5h0c0 3 3 6 6 6h0z"
     style="fill:none;stroke:#737373;stroke-width:.06;stroke-linecap:round;stroke-linejoin:round;stroke-miterlimit:10"
     id="path376" /><path
     style="clip-rule:evenodd;fill:#8c8c8c;fill-rule:evenodd"
     d="M2905.5 4330.5h123v15h-123z"
     id="path378" /><path
     d="M2913 4344h108c3 0 4.5-3 4.5-6h0c0-3-1.5-4.5-4.5-4.5h-108c-3 0-4.5 1.5-4.5 4.5h0c0 3 1.5 6 4.5 6h0z"
     style="fill:none;stroke:#737373;stroke-width:.06;stroke-linecap:round;stroke-linejoin:round;stroke-miterlimit:10"
     id="path380" /><path
     style="clip-rule:evenodd;fill:#8c8c8c;fill-rule:evenodd"
     d="M3069 4330.5h121.5v15H3069z"
     id="path382" /><path
     d="M3076.5 4344h108c3 0 4.5-3 4.5-6h0c0-3-1.5-4.5-4.5-4.5h-108c-3 0-6 1.5-6 4.5h0c0 3 3 6 6 6h0z"
     style="fill:none;stroke:#737373;stroke-width:.06;stroke-linecap:round;stroke-linejoin:round;stroke-miterlimit:10"
     id="path384" /><path
     style="clip-rule:evenodd;fill:#8c8c8c;fill-rule:evenodd"
     d="M3229.5 4330.5h88.5v15h-88.5z"
     id="path386" /><path
     d="M3237 4344h73.5c3 0 6-3 6-6h0c0-3-3-4.5-6-4.5H3237c-3 0-6 1.5-6 4.5h0c0 3 3 6 6 6h0z"
     style="fill:none;stroke:#737373;stroke-width:.06;stroke-linecap:round;stroke-linejoin:round;stroke-miterlimit:10"
     id="path388" /><path
     style="clip-rule:evenodd;fill:#8c8c8c;fill-rule:evenodd"
     d="M175.5 4330.5H264v15h-88.5z"
     id="path390" /><path
     d="M183 4344h73.5c3 0 4.5-3 4.5-6h0c0-3-1.5-4.5-4.5-4.5H183c-3 0-6 1.5-6 4.5h0c0 3 3 6 6 6h0z"
     style="fill:none;stroke:#737373;stroke-width:.06;stroke-linecap:round;stroke-linejoin:round;stroke-miterlimit:10"
     id="path392" /><path
     style="clip-rule:evenodd;fill:#d9d9d9;fill-rule:evenodd"
     d="M169.5 1042.5h3150V1161h-3150z"
     id="path394" /><path
     d="M169.5 1161h3150v-118.5m-3150 0V1161"
     style="fill:none;stroke:#a6a6a6;stroke-width:.06;stroke-linecap:round;stroke-linejoin:round;stroke-miterlimit:10"
     id="path396" /><path
     style="clip-rule:evenodd;fill:#ececec;fill-rule:evenodd"
     d="M168 1023h3154.5v27H168z"
     id="path398" /><path
     style="fill:none;stroke:#a6a6a6;stroke-width:.06;stroke-linecap:round;stroke-linejoin:round;stroke-miterlimit:10"
     d="M3319.5 1048.5V1026h-3150v22.5"
     id="path400" /><path
     d="M3399 13.5H91.5c-19.5 0-34.5 15-34.5 33v945c0 19.5 15 34.5 34.5 34.5H3399c18 0 33-15 33-34.5v-945c0-18-15-33-33-33z"
     style="fill:#8c8c8c"
     id="path402" /><path
     d="M121.5 13.5H1.5v234l78 81H765l90-90c52.5-45 129-45 180 0L1417.5 621H2082l382.5-382.5c46.5-45 121.5-45 168 0l90 90H3420l67.5-67.5V13.5H3369v36h-126v-36h-96v36h-147v-36h-121.5v36h-126v-36h-2013v36H612v-36H492v36H343.5v-36h-96v36h-126v-36z"
     style="clip-rule:evenodd;fill:#d9d9d9;fill-rule:evenodd"
     id="path404" /><path
     d="M1.5 13.5v234l78 81H765l90-90c52.5-45 129-45 180 0h0L1417.5 621H2082l382.5-382.5c46.5-45 121.5-45 168 0h0l90 90H3420l67.5-67.5V13.5m-118.5 0v36h-126v-36m-96 0v36h-147v-36m-121.5 0v36h-126v-36m-2013 0v36H612v-36m-120 0v36H343.5v-36m-96 0v36h-126v-36"
     style="fill:none;stroke:#000;stroke-width:.06;stroke-linecap:round;stroke-linejoin:round;stroke-miterlimit:10"
     id="path406" /><path
     d="M1699.4 561.2c0 13.9-8.5 21.3-18.8 21.3-10.7 0-18.2-8.3-18.2-20.5 0-12.8 8-21.2 18.8-21.2 11 0 18.2 8.4 18.2 20.4zm-31.4.7c0 8.6 4.7 16.4 12.9 16.4 8.3 0 13-7.6 13-16.8 0-8-4.2-16.4-12.9-16.4-8.7-.1-13 7.9-13 16.8zM1711.5 541.9c2.5-.4 5.8-.8 10-.8 5.2 0 8.9 1.2 11.3 3.4 2.2 1.9 3.5 4.9 3.5 8.5 0 3.7-1.1 6.5-3.1 8.6-2.8 2.9-7.3 4.4-12.4 4.4-1.6 0-3-.1-4.2-.4v16.2h-5.2v-39.9zm5.2 19.5c1.1.3 2.6.4 4.3.4 6.3 0 10.1-3.1 10.1-8.6 0-5.3-3.8-7.9-9.5-7.9-2.3 0-4 .2-4.9.4v15.7zM1771.3 562.9h-15.7v14.6h17.5v4.4h-22.7v-40.4h21.8v4.4h-16.6v12.8h15.7v4.2zM1791 581.9v-40.4h5.7l13 20.5c3 4.7 5.3 9 7.3 13.1l.1-.1c-.5-5.4-.6-10.3-.6-16.6v-16.9h4.9v40.4h-5.3l-12.8-20.5c-2.8-4.5-5.5-9.1-7.6-13.5l-.2.1c.3 5.1.4 10 .4 16.7V582h-4.9z"
     id="path408" /><path
     style="clip-rule:evenodd;fill:#acacac;fill-rule:evenodd"
     d="M0 0h3490.5v16.5H0z"
     id="path410" /><path
     d="M121.5 15V1.5H1.5V15m342 0V1.5h-96V15M612 15V1.5H492V15m2260.5 0V1.5h-2013V15M3000 15V1.5h-121.5V15m364.5 0V1.5h-96V15m340.5 0V1.5H3369V15"
     style="fill:none;stroke:#a6a6a6;stroke-width:.06;stroke-linecap:round;stroke-linejoin:round;stroke-miterlimit:10"
     id="path412" /><path
     style="clip-rule:evenodd;fill:#595959;fill-rule:evenodd"
     d="M1593 783h39v33h-39z"
     id="path414" /><path
     style="fill:none;stroke:#000;stroke-width:.06;stroke-linecap:round;stroke-linejoin:round;stroke-miterlimit:10"
     d="M1629 814.5v-30h-34.5v30"
     id="path416" /><path
     style="clip-rule:evenodd;fill:#8c8c8c;fill-rule:evenodd"
     d="M1593 813h39v15h-39z"
     id="path418" /><path
     d="M1629 826.5v-12m-34.5 0v12"
     style="fill:none;stroke:#000;stroke-width:.06;stroke-linecap:round;stroke-linejoin:round;stroke-miterlimit:10"
     id="path420" /><path
     style="clip-rule:evenodd;fill:#a6a6a6;fill-rule:evenodd"
     d="M1594.5 826.5h34.5V921h-34.5z"
     id="path422" /><path
     d="M1629 921v-94.5m-34.5 0V921"
     style="fill:none;stroke:#000;stroke-width:.06;stroke-linecap:round;stroke-linejoin:round;stroke-miterlimit:10"
     id="path424" /><path
     style="clip-rule:evenodd;fill:#a6a6a6;fill-rule:evenodd"
     d="M1593 919.5h39v24h-39z"
     id="path426" /><path
     d="M1629 940.5V921m-34.5 0v19.5"
     style="fill:none;stroke:#000;stroke-width:.06;stroke-linecap:round;stroke-linejoin:round;stroke-miterlimit:10"
     id="path428" /><path
     style="clip-rule:evenodd;fill:#939393;fill-rule:evenodd"
     d="M1593 939h39v28.5h-39z"
     id="path430" /><path
     style="fill:none;stroke:#000;stroke-width:.06;stroke-linecap:round;stroke-linejoin:round;stroke-miterlimit:10"
     d="M1629 940.5v24h-34.5v-24"
     id="path432" /><path
     style="clip-rule:evenodd;fill:#404040;fill-rule:evenodd"
     d="M1629 784.5h12v180h-12z"
     id="path434" /><path
     style="fill:none;stroke:#000;stroke-width:.06;stroke-linecap:round;stroke-linejoin:round;stroke-miterlimit:10"
     d="M1629 784.5v180h12v-180z"
     id="path436" /><path
     style="clip-rule:evenodd;fill:#404040;fill-rule:evenodd"
     d="M1584 784.5h10.5v180H1584z"
     id="path438" /><path
     style="fill:none;stroke:#000;stroke-width:.06;stroke-linecap:round;stroke-linejoin:round;stroke-miterlimit:10"
     d="M1584 784.5v180h10.5v-180z"
     id="path440" /><path
     style="clip-rule:evenodd;fill:#595959;fill-rule:evenodd"
     d="M1858.5 783h39v33h-39z"
     id="path442" /><path
     style="fill:none;stroke:#000;stroke-width:.06;stroke-linecap:round;stroke-linejoin:round;stroke-miterlimit:10"
     d="M1896 814.5v-30h-36v30"
     id="path444" /><path
     style="clip-rule:evenodd;fill:#8c8c8c;fill-rule:evenodd"
     d="M1858.5 813h39v15h-39z"
     id="path446" /><path
     d="M1896 826.5v-12m-36 0v12"
     style="fill:none;stroke:#000;stroke-width:.06;stroke-linecap:round;stroke-linejoin:round;stroke-miterlimit:10"
     id="path448" /><path
     style="clip-rule:evenodd;fill:#a6a6a6;fill-rule:evenodd"
     d="M1860 826.5h36V921h-36z"
     id="path450" /><path
     d="M1896 921v-94.5m-36 0V921"
     style="fill:none;stroke:#000;stroke-width:.06;stroke-linecap:round;stroke-linejoin:round;stroke-miterlimit:10"
     id="path452" /><path
     style="clip-rule:evenodd;fill:#a6a6a6;fill-rule:evenodd"
     d="M1858.5 919.5h39v24h-39z"
     id="path454" /><path
     d="M1896 940.5V921m-36 0v19.5"
     style="fill:none;stroke:#000;stroke-width:.06;stroke-linecap:round;stroke-linejoin:round;stroke-miterlimit:10"
     id="path456" /><path
     style="clip-rule:evenodd;fill:#939393;fill-rule:evenodd"
     d="M1858.5 939h39v28.5h-39z"
     id="path458" /><path
     style="fill:none;stroke:#000;stroke-width:.06;stroke-linecap:round;stroke-linejoin:round;stroke-miterlimit:10"
     d="M1896 940.5v24h-36v-24"
     id="path460" /><path
     style="clip-rule:evenodd;fill:#404040;fill-rule:evenodd"
     d="M1896 784.5h10.5v180H1896z"
     id="path462" /><path
     style="fill:none;stroke:#000;stroke-width:.06;stroke-linecap:round;stroke-linejoin:round;stroke-miterlimit:10"
     d="M1896 784.5v180h10.5v-180z"
     id="path464" /><path
     style="clip-rule:evenodd;fill:#404040;fill-rule:evenodd"
     d="M1849.5 784.5h10.5v180h-10.5z"
     id="path466" /><path
     style="fill:none;stroke:#000;stroke-width:.06;stroke-linecap:round;stroke-linejoin:round;stroke-miterlimit:10"
     d="M1849.5 784.5v180h10.5v-180z"
     id="path468" /><path
     d="M1463.7 670.7c0-15.1-12.1-28.2-28.2-28.2s-28.2 13.1-28.2 28.2c0 16.1 12.1 29.3 28.2 29.3s28.2-13.1 28.2-29.3z"
     style="clip-rule:evenodd;fill:#d8d8d8;fill-rule:evenodd"
     id="path470" /><path
     d="M1464 670.5c0-15-13.5-27-28.5-27s-28.5 12-28.5 27c0 16.5 13.5 28.5 28.5 28.5s28.5-12 28.5-28.5h0zM1452 670.5h-33M1435.5 687v-31.5"
     style="fill:none;stroke:#5f5f5f;stroke-linecap:round;stroke-linejoin:round;stroke-miterlimit:10"
     id="path472" /><path
     d="M2082.5 670.8c0-14.8-12.9-27.7-27.7-27.7-15.8 0-28.7 12.9-28.7 27.7 0 15.8 12.9 28.7 28.7 28.7 14.8 0 27.7-12.9 27.7-28.7z"
     style="clip-rule:evenodd;fill:#d8d8d8;fill-rule:evenodd"
     id="path474" /><path
     d="M2082 670.5c0-15-12-27-27-27-16.5 0-28.5 12-28.5 27 0 16.5 12 28.5 28.5 28.5 15 0 27-12 27-28.5h0zM2070 670.5h-31.5M2055 687v-31.5"
     style="fill:none;stroke:#5f5f5f;stroke-linecap:round;stroke-linejoin:round;stroke-miterlimit:10"
     id="path476" /><path
     d="M542.1 991.5c0-15.6-12.5-29.1-29.1-29.1s-29.1 13.5-29.1 29.1c0 16.6 12.5 29.1 29.1 29.1s29.1-12.5 29.1-29.1z"
     style="clip-rule:evenodd;fill:#d8d8d8;fill-rule:evenodd"
     id="path478" /><path
     d="M541.5 991.5c0-15-13.5-28.5-28.5-28.5s-28.5 13.5-28.5 28.5c0 16.5 13.5 28.5 28.5 28.5s28.5-12 28.5-28.5h0zM529.5 991.5h-33M513 1008v-33"
     style="fill:none;stroke:#5f5f5f;stroke-linecap:round;stroke-linejoin:round;stroke-miterlimit:10"
     id="path480" /><path
     d="M3005 991.5c0-14.9-12.9-27.8-27.8-27.8-15.9 0-28.8 12.9-28.8 27.8 0 15.9 12.9 27.8 28.8 27.8 14.9 0 27.8-11.9 27.8-27.8z"
     style="clip-rule:evenodd;fill:#d8d8d8;fill-rule:evenodd"
     id="path482" /><path
     d="M3004.5 991.5c0-15-12-28.5-27-28.5-16.5 0-28.5 13.5-28.5 28.5 0 16.5 12 28.5 28.5 28.5 15 0 27-12 27-28.5h0zM2992.5 991.5H2961M2977.5 1008v-33"
     style="fill:none;stroke:#5f5f5f;stroke-linecap:round;stroke-linejoin:round;stroke-miterlimit:10"
     id="path484" /><path
     style="clip-rule:evenodd;fill:#c41230;fill-rule:evenodd"
     d="M348 204h12v48h-12zM457.5 217.5S453 216 447 216c-7.5 0-13.5 4.5-13.5 12s6 13.5 13.5 13.5c6 0 10.5-3 10.5-3V252c-1.5 0-6 1.5-10.5 1.5-13.5 0-25.5-10.5-25.5-25.5 0-13.5 10.5-24 25.5-24 4.5 0 9 1.5 10.5 1.5v12zM331.5 217.5s-3-1.5-9-1.5c-7.5 0-13.5 4.5-13.5 12s4.5 13.5 13.5 13.5c4.5 0 9-3 9-3V252c-1.5 0-4.5 1.5-10.5 1.5-13.5 0-25.5-10.5-25.5-25.5 0-13.5 10.5-24 25.5-24 6 0 10.5 1.5 10.5 1.5v12zM520.5 228c0 13.5-10.5 25.5-25.5 25.5s-25.5-12-25.5-25.5 10.5-24 25.5-24 25.5 10.5 25.5 24zM495 216c-7.5 0-12 6-12 12 0 7.5 4.5 13.5 12 13.5s12-6 12-13.5c0-6-4.5-12-12-12zM406.5 216s-6-1.5-9-1.5c-6 0-7.5 1.5-7.5 3 0 3 3 4.5 4.5 4.5l3 1.5c9 3 12 7.5 12 13.5 0 12-10.5 16.5-19.5 16.5-6 0-12-1.5-13.5-1.5v-12c1.5 1.5 6 3 12 3s9-3 9-4.5c0-3-3-4.5-6-4.5 0-1.5-1.5-1.5-3-1.5-6-1.5-12-6-12-13.5 0-9 7.5-15 18-15 6 0 12 1.5 12 1.5V216z"
     id="path486" /><path
     d="M283.5 153c0-3-3-6-6-6s-6 3-6 6v13.5c0 3 3 6 6 6s6-3 6-6V153zM316.5 136.5c0-3-3-6-6-6-4.5 0-6 3-6 6v30c0 3 1.5 6 6 6 3 0 6-3 6-6v-30zM348 114c0-3-1.5-6-6-6-3 0-6 3-6 6v64.5c0 3 3 4.5 6 4.5 4.5 0 6-1.5 6-4.5V114zM381 136.5c0-3-3-6-6-6s-6 3-6 6v30c0 3 3 6 6 6s6-3 6-6v-30zM414 153c0-3-3-6-6-6s-6 3-6 6v13.5c0 3 3 6 6 6s6-3 6-6V153zM447 136.5c0-3-3-6-6-6s-6 3-6 6v30c0 3 3 6 6 6s6-3 6-6v-30zM480 114c0-3-3-6-6-6s-6 3-6 6v64.5c0 3 3 4.5 6 4.5s6-1.5 6-4.5V114zM513 136.5c0-3-3-6-6-6-4.5 0-6 3-6 6v30c0 3 1.5 6 6 6 3 0 6-3 6-6v-30zM544.5 153c0-3-1.5-6-6-6-3 0-6 3-6 6v13.5c0 3 3 6 6 6 4.5 0 6-3 6-6V153z"
     style="clip-rule:evenodd;fill:#005568;fill-rule:evenodd"
     id="path488" /><path
     style="clip-rule:evenodd;fill:#c41230;fill-rule:evenodd"
     d="M535.5 252v-6h-3 6-3zM541.5 250.5l1.5-4.5h1.5v6-4.5l-3 4.5-1.5-4.5v4.5h-1.5v-6h1.5l1.5 4.5z"
     id="path490" /><path
     d="M1269 657c42-40.5 42-108 0-150l-253.5-253.5c-42-42-109.5-42-150 0-42 40.5-42 108 0 148.5l255 255c40.5 42 108 42 148.5 0z"
     style="fill:#c5c5c5;stroke:#000;stroke-miterlimit:10"
     id="path492" /><path
     d="m885 384 253.5 253.5c31.5 31.5 81 31.5 112.5 0 30-30 30-79.5 0-111l-255-255c-31.5-30-81-30-111 0-31.5 31.5-31.5 81 0 112.5z"
     style="clip-rule:evenodd;fill-rule:evenodd"
     id="path494" /><path
     d="m885 384 253.5 253.5c31.5 31.5 81 31.5 112.5 0 30-30 30-79.5 0-111h0l-255-255c-31.5-30-81-30-111 0-31.5 31.5-31.5 81 0 112.5h0z"
     style="fill:none;stroke:#000;stroke-width:.06;stroke-linecap:round;stroke-linejoin:round;stroke-miterlimit:10"
     id="path496" /><path
     d="M951 792c42-40.5 42-108 0-150L696 388.5c-40.5-42-108-42-148.5 0-42 40.5-42 108 0 148.5L801 792c42 42 109.5 42 150 0z"
     style="fill:#c5c5c5;stroke:#000;stroke-miterlimit:10"
     id="path498" /><path
     d="m565.5 519 255 253.5c31.5 31.5 81 31.5 111 0 31.5-30 31.5-79.5 0-111L678 406.5c-31.5-30-81-30-112.5 0-30 31.5-30 81 0 112.5z"
     style="clip-rule:evenodd;fill-rule:evenodd"
     id="path500" /><path
     d="m565.5 519 255 253.5c31.5 31.5 81 31.5 111 0 31.5-30 31.5-79.5 0-111h0L678 406.5c-31.5-30-81-30-112.5 0-30 31.5-30 81 0 112.5h0z"
     style="fill:none;stroke:#000;stroke-width:.06;stroke-linecap:round;stroke-linejoin:round;stroke-miterlimit:10"
     id="path502" /><path
     d="M636 927c42-40.5 42-108 0-150L255 396c-42-42-108-42-150 0-40.5 40.5-40.5 108 0 148.5L487.5 927c40.5 42 108 42 148.5 0z"
     style="fill:#c5c5c5;stroke:#000;stroke-miterlimit:10"
     id="path504" /><path
     d="m124.5 526.5 381 381c31.5 31.5 81 31.5 112.5 0 30-30 30-79.5 0-111l-382.5-381c-30-31.5-81-31.5-111 0-31.5 30-31.5 79.5 0 111z"
     style="clip-rule:evenodd;fill-rule:evenodd"
     id="path506" /><path
     d="m124.5 526.5 381 381c31.5 31.5 81 31.5 112.5 0 30-30 30-79.5 0-111h0l-382.5-381c-30-31.5-81-31.5-111 0-31.5 30-31.5 79.5 0 111h0z"
     style="fill:none;stroke:#000;stroke-width:.06;stroke-linecap:round;stroke-linejoin:round;stroke-miterlimit:10"
     id="path508" /><path
     d="M376.5 933c0-12-4.5-24-13.5-33L99 634.5c-18-18-46.5-18-64.5 0-9 7.5-15 19.5-15 33v204c0 58.5 48 106.5 108 108h201c25.5 0 48-19.5 48-46.5z"
     style="fill:#c5c5c5;stroke:#000;stroke-miterlimit:10"
     id="path510" /><path
     d="M46.5 667.5v204c0 43.5 36 81 81 81h201c10.5 0 21-7.5 21-19.5 0-4.5-1.5-10.5-6-15l-264-264c-7.5-7.5-19.5-7.5-27-1.5-3 4.5-6 9-6 15z"
     style="clip-rule:evenodd;fill-rule:evenodd"
     id="path512" /><path
     d="M46.5 667.5v204c0 43.5 36 81 81 81h201c10.5 0 21-7.5 21-19.5 0-4.5-1.5-10.5-6-15l-264-264c-7.5-7.5-19.5-7.5-27-1.5-3 4.5-6 9-6 15h0z"
     style="fill:none;stroke:#000;stroke-width:.06;stroke-linecap:round;stroke-linejoin:round;stroke-miterlimit:10"
     id="path514" /><path
     d="m2370 657 255-255c40.5-40.5 40.5-108 0-148.5-42-42-108-42-150 0L2220 507c-40.5 42-40.5 109.5 0 150 42 42 109.5 42 150 0z"
     style="fill:#c5c5c5;stroke:#000;stroke-miterlimit:10"
     id="path516" /><path
     d="m2605.5 384-255 253.5c-30 31.5-79.5 31.5-111 0-30-30-30-79.5 0-111l255-255c30-30 81-30 111 0 31.5 31.5 31.5 81 0 112.5z"
     style="clip-rule:evenodd;fill-rule:evenodd"
     id="path518" /><path
     d="m2605.5 384-255 253.5c-30 31.5-79.5 31.5-111 0-30-30-30-79.5 0-111h0l255-255c30-30 81-30 111 0 31.5 31.5 31.5 81 0 112.5h0z"
     style="fill:none;stroke:#000;stroke-width:.06;stroke-linecap:round;stroke-linejoin:round;stroke-miterlimit:10"
     id="path520" /><path
     d="m2688 792 255-255c40.5-40.5 40.5-108 0-148.5-42-42-108-42-150 0L2539.5 642c-42 42-42 109.5 0 150 40.5 42 108 42 148.5 0z"
     style="fill:#c5c5c5;stroke:#000;stroke-miterlimit:10"
     id="path522" /><path
     d="M2923.5 519 2670 772.5c-31.5 31.5-81 31.5-112.5 0-30-30-30-79.5 0-111l255-255c30-30 81-30 111 0 31.5 31.5 31.5 81 0 112.5z"
     style="clip-rule:evenodd;fill-rule:evenodd"
     id="path524" /><path
     d="M2923.5 519 2670 772.5c-31.5 31.5-81 31.5-112.5 0-30-30-30-79.5 0-111h0l255-255c30-30 81-30 111 0 31.5 31.5 31.5 81 0 112.5h0z"
     style="fill:none;stroke:#000;stroke-width:.06;stroke-linecap:round;stroke-linejoin:round;stroke-miterlimit:10"
     id="path526" /><path
     d="m3003 927 382.5-382.5c40.5-40.5 40.5-108 0-148.5-42-42-109.5-42-150 0L2853 777c-40.5 42-40.5 109.5 0 150 42 42 109.5 42 150 0z"
     style="fill:#c5c5c5;stroke:#000;stroke-miterlimit:10"
     id="path528" /><path
     d="m3366 526.5-382.5 381c-30 31.5-79.5 31.5-111 0-30-30-30-79.5 0-111l382.5-381c30-31.5 79.5-31.5 111 0 30 30 30 79.5 0 111z"
     style="clip-rule:evenodd;fill-rule:evenodd"
     id="path530" /><path
     d="m3366 526.5-382.5 381c-30 31.5-79.5 31.5-111 0-30-30-30-79.5 0-111h0l382.5-381c30-31.5 79.5-31.5 111 0 30 30 30 79.5 0 111h0z"
     style="fill:none;stroke:#000;stroke-width:.06;stroke-linecap:round;stroke-linejoin:round;stroke-miterlimit:10"
     id="path532" /><path
     d="M3471 871.5v-204c0-13.5-6-25.5-15-33-18-18-48-18-64.5 0L3126 900c-7.5 9-13.5 21-12 33 0 27 21 46.5 48 46.5h201c60-1.5 108-49.5 108-108z"
     style="fill:#c5c5c5;stroke:#000;stroke-miterlimit:10"
     id="path534" /><path
     d="M3444 667.5v204c0 43.5-36 81-81 81h-201c-12 0-21-7.5-21-19.5-1.5-4.5 1.5-10.5 4.5-15L3411 654c6-7.5 18-7.5 25.5-1.5 4.5 4.5 7.5 9 7.5 15z"
     style="clip-rule:evenodd;fill-rule:evenodd"
     id="path536" /><path
     d="M3444 667.5v204c0 43.5-36 81-81 81h0-201c-12 0-21-7.5-21-19.5-1.5-4.5 1.5-10.5 4.5-15L3411 654c6-7.5 18-7.5 25.5-1.5 4.5 4.5 7.5 9 7.5 15h0zM3243 1.5v48h126v-48h-126 0zm-244.5 0v48H3147v-48h-148.5 0zm-247.5 0v48h127.5v-48H2751h0z"
     style="fill:none;stroke:#000;stroke-width:.06;stroke-linecap:round;stroke-linejoin:round;stroke-miterlimit:10"
     id="path538" /><g
     id="g542"><path
       d="m2868 242.8 15.3-39.7h5.7l16.3 39.7h-6l-4.6-12h-16.6l-4.4 12h-5.7zm11.5-16.3h13.5l-4.1-11c-1.3-3.3-2.2-6.1-2.8-8.2-.5 2.5-1.2 5.1-2.1 7.6l-4.5 11.6z"
       id="path540" /></g><g
     id="g546"><path
       d="m2908.1 230 5-.4c.2 2 .8 3.6 1.6 4.9.9 1.3 2.2 2.3 4 3.1 1.8.8 3.8 1.2 6.1 1.2 2 0 3.8-.3 5.3-.9 1.5-.6 2.7-1.4 3.4-2.5.8-1 1.1-2.2 1.1-3.4 0-1.2-.4-2.3-1.1-3.3-.7-.9-1.9-1.7-3.6-2.3-1.1-.4-3.4-1.1-7.1-1.9-3.6-.9-6.2-1.7-7.7-2.5-1.9-1-3.3-2.2-4.2-3.7-.9-1.5-1.4-3.1-1.4-4.9 0-2 .6-3.9 1.7-5.6 1.1-1.7 2.8-3.1 5-4 2.2-.9 4.6-1.4 7.3-1.4 2.9 0 5.5.5 7.8 1.4 2.2.9 4 2.3 5.2 4.2 1.2 1.9 1.9 3.9 2 6.3l-5 .4c-.3-2.5-1.2-4.4-2.8-5.7-1.6-1.3-3.9-1.9-6.9-1.9-3.2 0-5.5.6-7 1.7-1.5 1.2-2.2 2.6-2.2 4.2 0 1.4.5 2.6 1.5 3.5 1 .9 3.7 1.9 7.9 2.8 4.3 1 7.2 1.8 8.8 2.5 2.3 1.1 4 2.4 5.1 4.1 1.1 1.6 1.7 3.5 1.7 5.7 0 2.1-.6 4.1-1.8 6-1.2 1.9-2.9 3.3-5.2 4.4-2.3 1.1-4.8 1.6-7.7 1.6-3.6 0-6.6-.5-9-1.6-2.4-1-4.3-2.6-5.7-4.7-1.3-2.2-2.1-4.6-2.1-7.3z"
       id="path544" /></g><g
     id="g550"><path
       d="M2945.9 242.8v-39.7h17.6c3.5 0 6.2.4 8.1 1.1 1.8.7 3.3 2 4.4 3.8 1.1 1.8 1.7 3.8 1.7 6 0 2.8-.9 5.2-2.7 7.1-1.8 1.9-4.6 3.2-8.5 3.7 1.4.7 2.4 1.3 3.2 2 1.5 1.4 3 3.2 4.4 5.3l6.9 10.8h-6.6l-5.3-8.3c-1.5-2.4-2.8-4.2-3.8-5.5-1-1.3-1.9-2.1-2.7-2.7-.8-.5-1.6-.9-2.4-1.1-.6-.1-1.6-.2-2.9-.2h-6.1v17.6h-5.3zm5.2-22.2h11.3c2.4 0 4.3-.2 5.6-.7 1.4-.5 2.4-1.3 3.1-2.4.7-1.1 1.1-2.3 1.1-3.6 0-1.9-.7-3.4-2-4.6-1.4-1.2-3.5-1.8-6.5-1.8h-12.6v13.1z"
       id="path548" /></g><g
     id="g554"><path
       d="m3000 233.6 4.7-.4c.4 2.2 1.2 3.8 2.3 4.8 1.1 1 2.6 1.5 4.3 1.5 1.5 0 2.8-.3 3.9-1s2.1-1.6 2.8-2.8c.7-1.1 1.3-2.7 1.8-4.6.5-2 .7-3.9.7-6v-1c-1 1.6-2.3 2.8-4 3.8-1.7 1-3.5 1.4-5.5 1.4-3.3 0-6.1-1.2-8.3-3.6-2.2-2.4-3.4-5.5-3.4-9.4 0-4 1.2-7.3 3.6-9.7 2.4-2.5 5.4-3.7 8.9-3.7 2.6 0 4.9.7 7.1 2.1 2.2 1.4 3.8 3.4 4.9 5.9 1.1 2.6 1.7 6.3 1.7 11.2 0 5.1-.6 9.1-1.7 12.1s-2.7 5.3-4.9 6.9c-2.2 1.6-4.7 2.4-7.7 2.4-3.1 0-5.6-.9-7.6-2.6-2-1.7-3.2-4.2-3.6-7.3zm20-17.5c0-2.8-.7-5-2.2-6.7-1.5-1.6-3.3-2.5-5.4-2.5-2.2 0-4.1.9-5.7 2.7-1.6 1.8-2.4 4.1-2.4 6.9 0 2.5.8 4.6 2.3 6.2 1.5 1.6 3.4 2.4 5.7 2.4 2.3 0 4.1-.8 5.6-2.4 1.4-1.6 2.1-3.8 2.1-6.6z"
       id="path552" /></g><g
     id="g558"><path
       d="M3029.2 223.2c0-4.7.5-8.5 1.4-11.3 1-2.9 2.4-5.1 4.3-6.6 1.9-1.6 4.3-2.3 7.2-2.3 2.1 0 4 .4 5.6 1.3 1.6.9 2.9 2.1 4 3.7 1 1.6 1.9 3.6 2.5 5.9.6 2.3.9 5.5.9 9.4 0 4.7-.5 8.4-1.4 11.3-1 2.9-2.4 5.1-4.3 6.6-1.9 1.6-4.3 2.3-7.2 2.3-3.8 0-6.8-1.4-9-4.1-2.7-3.3-4-8.7-4-16.2zm5 0c0 6.5.8 10.9 2.3 13 1.5 2.2 3.4 3.2 5.7 3.2 2.3 0 4.1-1.1 5.7-3.3 1.6-2.2 2.3-6.5 2.3-13s-.8-10.9-2.3-13c-1.5-2.1-3.4-3.2-5.7-3.2-2.2 0-4 .9-5.4 2.8-1.8 2.5-2.6 7-2.6 13.5z"
       id="path556" /></g><g
     id="g562"><path
       d="M3060.8 223.2c0-4.7.5-8.5 1.4-11.3 1-2.9 2.4-5.1 4.3-6.6 1.9-1.6 4.3-2.3 7.2-2.3 2.1 0 4 .4 5.6 1.3 1.6.9 2.9 2.1 4 3.7 1 1.6 1.9 3.6 2.5 5.9.6 2.3.9 5.5.9 9.4 0 4.7-.5 8.4-1.4 11.3-1 2.9-2.4 5.1-4.3 6.6-1.9 1.6-4.3 2.3-7.2 2.3-3.8 0-6.8-1.4-9-4.1-2.7-3.3-4-8.7-4-16.2zm5 0c0 6.5.8 10.9 2.3 13 1.5 2.2 3.4 3.2 5.7 3.2 2.3 0 4.1-1.1 5.7-3.3 1.6-2.2 2.3-6.5 2.3-13s-.8-10.9-2.3-13c-1.5-2.1-3.4-3.2-5.7-3.2-2.2 0-4 .9-5.4 2.8-1.7 2.5-2.6 7-2.6 13.5z"
       id="path560" /></g><g
     id="g566"><path
       d="M3090.7 223.2c0-4.7.5-8.5 1.4-11.3 1-2.9 2.4-5.1 4.3-6.6 1.9-1.6 4.3-2.3 7.2-2.3 2.1 0 4 .4 5.6 1.3 1.6.9 2.9 2.1 4 3.7 1 1.6 1.9 3.6 2.5 5.9.6 2.3.9 5.5.9 9.4 0 4.7-.5 8.4-1.4 11.3-1 2.9-2.4 5.1-4.3 6.6-1.9 1.6-4.3 2.3-7.2 2.3-3.8 0-6.8-1.4-9-4.1-2.7-3.3-4-8.7-4-16.2zm5 0c0 6.5.8 10.9 2.3 13 1.5 2.2 3.4 3.2 5.7 3.2 2.3 0 4.1-1.1 5.7-3.3 1.6-2.2 2.3-6.5 2.3-13s-.8-10.9-2.3-13c-1.5-2.1-3.4-3.2-5.7-3.2-2.2 0-4 .9-5.4 2.8-1.7 2.5-2.6 7-2.6 13.5z"
       id="path564" /></g><g
     id="g570"><path
       d="m3137.4 230 5-.4c.2 2 .8 3.6 1.6 4.9.9 1.3 2.2 2.3 4 3.1 1.8.8 3.8 1.2 6.1 1.2 2 0 3.8-.3 5.3-.9 1.5-.6 2.7-1.4 3.4-2.5.8-1 1.1-2.2 1.1-3.4 0-1.2-.4-2.3-1.1-3.3-.7-.9-1.9-1.7-3.6-2.3-1.1-.4-3.4-1.1-7.1-1.9-3.6-.9-6.2-1.7-7.7-2.5-1.9-1-3.3-2.2-4.2-3.7-.9-1.5-1.4-3.1-1.4-4.9 0-2 .6-3.9 1.7-5.6 1.1-1.7 2.8-3.1 5-4 2.2-.9 4.6-1.4 7.3-1.4 2.9 0 5.5.5 7.8 1.4 2.2.9 4 2.3 5.2 4.2 1.2 1.9 1.9 3.9 2 6.3l-5 .4c-.3-2.5-1.2-4.4-2.8-5.7-1.6-1.3-3.9-1.9-6.9-1.9-3.2 0-5.5.6-7 1.7-1.5 1.2-2.2 2.6-2.2 4.2 0 1.4.5 2.6 1.5 3.5 1 .9 3.7 1.9 7.9 2.8 4.3 1 7.2 1.8 8.8 2.5 2.3 1.1 4 2.4 5.1 4.1 1.1 1.6 1.7 3.5 1.7 5.7 0 2.1-.6 4.1-1.8 6-1.2 1.9-2.9 3.3-5.2 4.4-2.3 1.1-4.8 1.6-7.7 1.6-3.6 0-6.6-.5-9-1.6-2.4-1-4.3-2.6-5.7-4.7-1.3-2.2-2.1-4.6-2.1-7.3z"
       id="path568" /></g><g
     id="g574"><path
       d="m3194.4 233.5 5 .6c-.8 2.9-2.3 5.2-4.4 6.9-2.2 1.6-4.9 2.4-8.2 2.4-4.2 0-7.5-1.3-10-3.9-2.5-2.6-3.7-6.2-3.7-10.9 0-4.8 1.2-8.6 3.7-11.3 2.5-2.7 5.7-4 9.7-4 3.8 0 7 1.3 9.4 3.9 2.4 2.6 3.7 6.3 3.7 11.1v1.3h-21.5c.2 3.2 1.1 5.6 2.7 7.3 1.6 1.7 3.6 2.5 6 2.5 1.8 0 3.3-.5 4.6-1.4 1.2-.9 2.2-2.4 3-4.5zm-16-7.8h16.1c-.2-2.4-.8-4.2-1.8-5.4-1.6-1.9-3.6-2.8-6-2.8-2.2 0-4.1.8-5.7 2.2-1.6 1.4-2.5 3.4-2.6 6z"
       id="path572" /></g><g
     id="g578"><path
       d="M3206.3 242.8V214h4.4v4.4c1.1-2 2.2-3.4 3.1-4 .9-.7 2-1 3.1-1 1.6 0 3.3.5 5 1.6l-1.7 4.5c-1.2-.7-2.4-1.1-3.6-1.1-1.1 0-2 .3-2.9 1-.8.6-1.5 1.5-1.8 2.7-.5 1.7-.8 3.6-.8 5.7v15.1h-4.8z"
       id="path576" /></g><g
     id="g582"><path
       d="M3224.3 208.7v-5.6h4.9v5.6h-4.9zm0 34.1V214h4.9v28.8h-4.9z"
       id="path580" /></g><g
     id="g586"><path
       d="m3255.9 233.5 5 .6c-.8 2.9-2.3 5.2-4.4 6.9-2.2 1.6-4.9 2.4-8.2 2.4-4.2 0-7.5-1.3-10-3.9-2.5-2.6-3.7-6.2-3.7-10.9 0-4.8 1.2-8.6 3.7-11.3 2.5-2.7 5.7-4 9.7-4 3.8 0 7 1.3 9.4 3.9 2.4 2.6 3.7 6.3 3.7 11.1v1.3h-21.5c.2 3.2 1.1 5.6 2.7 7.3 1.6 1.7 3.6 2.5 6 2.5 1.8 0 3.3-.5 4.6-1.4 1.3-.9 2.3-2.4 3-4.5zm-16-7.8h16.1c-.2-2.4-.8-4.2-1.8-5.4-1.6-1.9-3.6-2.8-6-2.8-2.2 0-4.1.8-5.7 2.2-1.6 1.4-2.5 3.4-2.6 6z"
       id="path584" /></g><g
     id="g590"><path
       d="m3264.3 234.2 4.8-.8c.3 1.9 1 3.4 2.3 4.4 1.2 1 3 1.5 5.2 1.5s3.9-.5 5-1.4c1.1-.9 1.6-2 1.6-3.2 0-1.1-.5-2-1.4-2.6-.7-.4-2.3-1-5-1.7-3.6-.9-6.1-1.7-7.4-2.3-1.4-.7-2.4-1.6-3.1-2.7-.7-1.2-1.1-2.5-1.1-3.9 0-1.3.3-2.5.9-3.6.6-1.1 1.4-2 2.4-2.7.8-.6 1.8-1 3.1-1.4 1.3-.4 2.7-.6 4.2-.6 2.3 0 4.2.3 5.9 1 1.7.7 3 1.5 3.8 2.6.8 1.1 1.4 2.6 1.7 4.5l-4.8.7c-.2-1.5-.8-2.6-1.9-3.5-1-.8-2.5-1.2-4.4-1.2-2.2 0-3.8.4-4.8 1.1-1 .7-1.4 1.6-1.4 2.6 0 .6.2 1.2.6 1.7.4.5 1 1 1.9 1.3.5.2 1.9.6 4.3 1.2 3.5.9 5.9 1.7 7.2 2.3 1.4.6 2.4 1.4 3.2 2.6.8 1.1 1.2 2.5 1.2 4.2 0 1.6-.5 3.2-1.4 4.6-.9 1.4-2.3 2.5-4.1 3.3-1.8.8-3.8 1.2-6.1 1.2-3.7 0-6.6-.8-8.5-2.3-2.1-1.5-3.3-3.8-3.9-6.9z"
       id="path588" /></g><path
     d="M247.5 1.5v48h-126v-48h126zm243 0v48h-147v-48h147zm247.5 0v48H612v-48h126zM2611.5 3681V1161"
     style="fill:none;stroke:#000;stroke-width:.06;stroke-linecap:round;stroke-linejoin:round;stroke-miterlimit:10"
     id="path592" /><text
     xml:space="preserve"
     style="font-style:normal;font-weight:normal;font-size:40px;line-height:1.25;font-family:sans-serif;letter-spacing:0px;word-spacing:0px;fill:#000000;fill-opacity:1;stroke:none"
     x="1535.5852"
     y="216.89056"
     id="text604"><tspan
       sodipodi:role="line"
       id="tspan602"
       x="1535.5852"
       y="253.38377" /></text>
</svg>