<?xml version="1.0" encoding="UTF-8" standalone="no"?>
<svg
   xmlns:dc="http://purl.org/dc/elements/1.1/"
   xmlns:cc="http://creativecommons.org/ns#"
   xmlns:rdf="http://www.w3.org/1999/02/22-rdf-syntax-ns#"
   xmlns:svg="http://www.w3.org/2000/svg"
   xmlns="http://www.w3.org/2000/svg"
   xmlns:sodipodi="http://sodipodi.sourceforge.net/DTD/sodipodi-0.dtd"
   xmlns:inkscape="http://www.inkscape.org/namespaces/inkscape"
   id="N540X-12Z16G-SYS-D_Front_coreLayer_1"
   data-name="Layer 1"
   viewBox="0 0 1680 168"
   version="1.1"
   sodipodi:docname="N540X-12Z16G-SYS-D_Front_core.svg"
   width="1680"
   height="168"
   inkscape:version="0.92.1 r15371">
  <metadata
     id="N540X-12Z16G-SYS-D_Front_coremetadata734">
    <rdf:RDF>
      <cc:Work
         rdf:about="">
        <dc:format>image/svg+xml</dc:format>
        <dc:type
           rdf:resource="http://purl.org/dc/dcmitype/StillImage" />
        <dc:title></dc:title>
      </cc:Work>
    </rdf:RDF>
  </metadata>
  <sodipodi:namedview
     pagecolor="#ffffff"
     bordercolor="#666666"
     borderopacity="1"
     objecttolerance="10"
     gridtolerance="10"
     guidetolerance="10"
     inkscape:pageopacity="0"
     inkscape:pageshadow="2"
     inkscape:window-width="1920"
     inkscape:window-height="986"
     id="N540X-12Z16G-SYS-D_Front_corenamedview732"
     showgrid="false"
     fit-margin-top="0"
     fit-margin-left="0"
     fit-margin-right="0"
     fit-margin-bottom="0"
     inkscape:zoom="0.85892857"
     inkscape:cx="840"
     inkscape:cy="84"
     inkscape:window-x="-11"
     inkscape:window-y="-11"
     inkscape:window-maximized="1"
     inkscape:current-layer="N540X-12Z16G-SYS-D_Front_coreLayer_1" />
  <defs
     id="N540X-12Z16G-SYS-D_Front_coredefs4">
    <style
       id="N540X-12Z16G-SYS-D_Front_corestyle2">.N540X-12Z16G-SYS-D_Front_corecls-1{fill:#1a1a1a;}.N540X-12Z16G-SYS-D_Front_corecls-2,.N540X-12Z16G-SYS-D_Front_corecls-4{fill:#b3b3b3;}.N540X-12Z16G-SYS-D_Front_corecls-17,.N540X-12Z16G-SYS-D_Front_corecls-19,.N540X-12Z16G-SYS-D_Front_corecls-2,.N540X-12Z16G-SYS-D_Front_corecls-22,.N540X-12Z16G-SYS-D_Front_corecls-8,.N540X-12Z16G-SYS-D_Front_corecls-9{fill-rule:evenodd;}.N540X-12Z16G-SYS-D_Front_corecls-3{fill:#999;}.N540X-12Z16G-SYS-D_Front_corecls-5{fill:#e028c8;opacity:0.2;}.N540X-12Z16G-SYS-D_Front_corecls-6{fill:#666;}.N540X-12Z16G-SYS-D_Front_corecls-7,.N540X-12Z16G-SYS-D_Front_corecls-8{fill:#333;}.N540X-12Z16G-SYS-D_Front_corecls-10,.N540X-12Z16G-SYS-D_Front_corecls-22{fill:#ccc;}.N540X-12Z16G-SYS-D_Front_corecls-11{fill:#d1a05e;}.N540X-12Z16G-SYS-D_Front_corecls-12{fill:#4c1800;}.N540X-12Z16G-SYS-D_Front_corecls-13{fill:#9c5c1e;}.N540X-12Z16G-SYS-D_Front_corecls-14{fill:#885f38;}.N540X-12Z16G-SYS-D_Front_corecls-15{fill:#c69c6d;stroke:#4c1800;}.N540X-12Z16G-SYS-D_Front_corecls-15,.N540X-12Z16G-SYS-D_Front_corecls-17{stroke-miterlimit:10;}.N540X-12Z16G-SYS-D_Front_corecls-16{fill:#e6e6e6;}.N540X-12Z16G-SYS-D_Front_corecls-17{fill:none;stroke:#000;}.N540X-12Z16G-SYS-D_Front_corecls-18{fill:gray;}.N540X-12Z16G-SYS-D_Front_corecls-19{fill:#d9d9d9;}.N540X-12Z16G-SYS-D_Front_corecls-20{fill:#4d4d4d;}.N540X-12Z16G-SYS-D_Front_corecls-21{fill:#f2f2f2;}</style>
  </defs>
  <rect
     x="0.5"
     y="0.5"
     width="1679"
     height="167"
     id="N540X-12Z16G-SYS-D_Front_corerect6" />
  <path
     class="N540X-12Z16G-SYS-D_Front_corecls-1"
     d="M 1679,1 V 167 H 1 V 1 h 1678 m 1,-1 H 0 v 168 h 1680 z"
     id="N540X-12Z16G-SYS-D_Front_corepath8"
     inkscape:connector-curvature="0"
     style="fill:#1a1a1a" />
  <path
     class="N540X-12Z16G-SYS-D_Front_corecls-2"
     d="m 6,3.5 a 1.5,1.5 0 0 1 0,-3 h 1668 a 1.5,1.5 0 0 1 0,3 z"
     id="N540X-12Z16G-SYS-D_Front_corepath10"
     inkscape:connector-curvature="0"
     style="fill:#b3b3b3;fill-rule:evenodd" />
  <path
     class="N540X-12Z16G-SYS-D_Front_corecls-3"
     d="m 1674,1 a 1,1 0 0 1 0,2 H 6 A 1,1 0 0 1 6,1 h 1668 m 0,-1 H 6 a 2,2 0 0 0 0,4 h 1668 a 2,2 0 0 0 0,-4 z"
     id="N540X-12Z16G-SYS-D_Front_corepath12"
     inkscape:connector-curvature="0"
     style="fill:#999999" />
  <path
     class="N540X-12Z16G-SYS-D_Front_corecls-2"
     d="M 2,167.5 A 1.5,1.5 0 0 1 0.5,166 V 2 a 1.5,1.5 0 0 1 3,0 V 166 A 1.5,1.5 0 0 1 2,167.5 Z"
     id="N540X-12Z16G-SYS-D_Front_corepath14"
     inkscape:connector-curvature="0"
     style="fill:#b3b3b3;fill-rule:evenodd" />
  <path
     class="N540X-12Z16G-SYS-D_Front_corecls-3"
     d="m 2,1 a 1,1 0 0 1 1,1 v 164 a 1,1 0 0 1 -2,0 V 2 A 1,1 0 0 1 2,1 M 2,0 A 2,2 0 0 0 0,2 v 164 a 2,2 0 0 0 4,0 V 2 A 2,2 0 0 0 2,0 Z"
     id="N540X-12Z16G-SYS-D_Front_corepath16"
     inkscape:connector-curvature="0"
     style="fill:#999999" />
  <path
     class="N540X-12Z16G-SYS-D_Front_corecls-2"
     d="m 1678,167.5 a 1.5,1.5 0 0 1 -1.5,-1.5 V 2 a 1.5,1.5 0 0 1 3,0 v 164 a 1.5,1.5 0 0 1 -1.5,1.5 z"
     id="N540X-12Z16G-SYS-D_Front_corepath18"
     inkscape:connector-curvature="0"
     style="fill:#b3b3b3;fill-rule:evenodd" />
  <path
     class="N540X-12Z16G-SYS-D_Front_corecls-3"
     d="m 1678,1 a 1,1 0 0 1 1,1 v 164 a 1,1 0 0 1 -2,0 V 2 a 1,1 0 0 1 1,-1 m 0,-1 a 2,2 0 0 0 -2,2 v 164 a 2,2 0 0 0 4,0 V 2 a 2,2 0 0 0 -2,-2 z"
     id="N540X-12Z16G-SYS-D_Front_corepath20"
     inkscape:connector-curvature="0"
     style="fill:#999999" />
  <path
     class="N540X-12Z16G-SYS-D_Front_corecls-2"
     d="m 6,167.5 a 1.5,1.5 0 0 1 0,-3 h 1668 a 1.5,1.5 0 0 1 0,3 z"
     id="N540X-12Z16G-SYS-D_Front_corepath22"
     inkscape:connector-curvature="0"
     style="fill:#b3b3b3;fill-rule:evenodd" />
  <path
     class="N540X-12Z16G-SYS-D_Front_corecls-3"
     d="m 1674,165 a 1,1 0 0 1 0,2 H 6 a 1,1 0 0 1 0,-2 h 1668 m 0,-1 H 6 a 2,2 0 0 0 0,4 h 1668 a 2,2 0 0 0 0,-4 z"
     id="N540X-12Z16G-SYS-D_Front_corepath24"
     inkscape:connector-curvature="0"
     style="fill:#999999" />
  <rect
     class="N540X-12Z16G-SYS-D_Front_corecls-4"
     x="5.5"
     y="5.5"
     width="1669"
     height="157"
     rx="3.5"
     id="N540X-12Z16G-SYS-D_Front_corerect26"
     style="fill:#b3b3b3" />
  <path
     class="N540X-12Z16G-SYS-D_Front_corecls-3"
     d="m 1671,6 a 3,3 0 0 1 3,3 v 150 a 3,3 0 0 1 -3,3 H 9 A 3,3 0 0 1 6,159 V 9 A 3,3 0 0 1 9,6 h 1662 m 0,-1 H 9 A 4,4 0 0 0 5,9 v 150 a 4,4 0 0 0 4,4 h 1662 a 4,4 0 0 0 4,-4 V 9 a 4,4 0 0 0 -4,-4 z"
     id="N540X-12Z16G-SYS-D_Front_corepath28"
     inkscape:connector-curvature="0"
     style="fill:#999999" />
  <path
     d="m 46.21,84.25 v -9.31 h 1.5 l 3.12,6.22 v -6.22 h 1.44 v 9.31 h -1.55 l -3.07,-6.07 v 6.07 z"
     id="N540X-12Z16G-SYS-D_Front_corepath30"
     inkscape:connector-curvature="0" />
  <path
     d="m 53.59,81.86 1.46,-0.19 a 1.61,1.61 0 0 0 0.37,1 0.89,0.89 0 0 0 1.48,-0.09 2.41,2.41 0 0 0 0.32,-1.37 2.16,2.16 0 0 0 -0.32,-1.3 1,1 0 0 0 -0.82,-0.42 1.43,1.43 0 0 0 -1.13,0.68 l -1.19,-0.21 0.75,-4.84 h 3.87 v 1.67 h -2.75 l -0.24,1.58 a 1.9,1.9 0 0 1 1,-0.3 2,2 0 0 1 1.53,0.71 3.53,3.53 0 0 1 0.8,2.4 4,4 0 0 1 -0.72,2.2 2.16,2.16 0 0 1 -1.93,1 2.35,2.35 0 0 1 -1.7,-0.66 3.06,3.06 0 0 1 -0.78,-1.86 z"
     id="N540X-12Z16G-SYS-D_Front_corepath32"
     inkscape:connector-curvature="0" />
  <path
     d="m 62.36,84.25 v -1.87 h -3.12 v -1.56 l 3.31,-5.91 h 1.23 v 5.9 h 0.94 v 1.57 h -0.94 v 1.87 z m 0,-3.44 v -3.18 l -1.75,3.18 z"
     id="N540X-12Z16G-SYS-D_Front_corepath34"
     inkscape:connector-curvature="0" />
  <path
     d="m 67.9,74.91 a 2,2 0 0 1 1.79,1.09 7.13,7.13 0 0 1 0.69,3.69 7.13,7.13 0 0 1 -0.69,3.69 2,2 0 0 1 -3.58,0 7.18,7.18 0 0 1 -0.69,-3.72 7.09,7.09 0 0 1 0.69,-3.66 2,2 0 0 1 1.79,-1.09 z m 0,1.48 q -0.44,0 -0.69,0.57 a 8.46,8.46 0 0 0 -0.26,2.7 8.46,8.46 0 0 0 0.26,2.7 q 0.26,0.57 0.69,0.57 0.43,0 0.69,-0.57 a 8.46,8.46 0 0 0 0.26,-2.7 8.46,8.46 0 0 0 -0.26,-2.7 Q 68.34,76.39 67.9,76.39 Z"
     id="N540X-12Z16G-SYS-D_Front_corepath36"
     inkscape:connector-curvature="0" />
  <path
     d="m 70.91,84.25 2.63,-4.84 -2.39,-4.47 H 73 l 1.51,2.79 1.49,-2.79 h 1.78 L 75.37,79.4 78,84.25 h -1.86 l -1.69,-3.15 -1.7,3.15 z"
     id="N540X-12Z16G-SYS-D_Front_corepath38"
     inkscape:connector-curvature="0" />
  <path
     d="M 78.35,81.77 V 80 h 2.87 v 1.79 z"
     id="N540X-12Z16G-SYS-D_Front_corepath40"
     inkscape:connector-curvature="0" />
  <path
     d="m 85.75,84.25 h -1.46 v -6.72 a 5,5 0 0 1 -1.89,1.35 v -1.62 a 4.06,4.06 0 0 0 1.27,-0.88 3.47,3.47 0 0 0 0.9,-1.47 h 1.18 z"
     id="N540X-12Z16G-SYS-D_Front_corepath42"
     inkscape:connector-curvature="0" />
  <path
     d="m 92.88,82.59 v 1.66 h -5.13 a 5.11,5.11 0 0 1 0.51,-1.79 11.68,11.68 0 0 1 1.64,-2.22 12.81,12.81 0 0 0 1.19,-1.48 2.26,2.26 0 0 0 0.33,-1.14 1.33,1.33 0 0 0 -0.28,-0.92 0.92,0.92 0 0 0 -0.71,-0.31 c -0.65,0 -1,0.49 -1.05,1.46 l -1.46,-0.18 a 3.39,3.39 0 0 1 0.79,-2.09 2.34,2.34 0 0 1 1.75,-0.67 2.15,2.15 0 0 1 1.81,0.78 2.81,2.81 0 0 1 0.61,1.79 4.13,4.13 0 0 1 -0.15,1.11 5.34,5.34 0 0 1 -0.48,1.08 10.34,10.34 0 0 1 -1.08,1.38 c -0.47,0.53 -0.77,0.88 -0.89,1 a 3,3 0 0 0 -0.31,0.49 z"
     id="N540X-12Z16G-SYS-D_Front_corepath44"
     inkscape:connector-curvature="0" />
  <path
     d="m 93.53,84.25 v -1.7 l 4,-6 H 94 v -1.61 h 5.59 v 1.46 l -4.18,6.28 h 4.34 v 1.57 z"
     id="N540X-12Z16G-SYS-D_Front_corepath46"
     inkscape:connector-curvature="0" />
  <path
     d="m 104.12,84.25 h -1.46 v -6.72 a 5,5 0 0 1 -1.89,1.35 v -1.62 a 4.06,4.06 0 0 0 1.27,-0.88 3.47,3.47 0 0 0 0.9,-1.47 h 1.18 z"
     id="N540X-12Z16G-SYS-D_Front_corepath48"
     inkscape:connector-curvature="0" />
  <path
     d="m 111.26,77.22 -1.41,0.19 c -0.07,-0.69 -0.35,-1 -0.83,-1 a 0.92,0.92 0 0 0 -0.8,0.52 5.24,5.24 0 0 0 -0.4,2.1 2.11,2.11 0 0 1 0.61,-0.59 1.5,1.5 0 0 1 0.75,-0.2 1.94,1.94 0 0 1 1.56,0.84 3.39,3.39 0 0 1 0.67,2.21 3.48,3.48 0 0 1 -0.7,2.31 2.21,2.21 0 0 1 -1.75,0.84 2.24,2.24 0 0 1 -1.9,-1.09 6.56,6.56 0 0 1 -0.75,-3.61 6.58,6.58 0 0 1 0.78,-3.67 2.36,2.36 0 0 1 2,-1.13 1.91,1.91 0 0 1 1.42,0.58 2.86,2.86 0 0 1 0.75,1.7 z m -3.26,3.9 a 2.31,2.31 0 0 0 0.33,1.34 0.93,0.93 0 0 0 0.75,0.47 0.81,0.81 0 0 0 0.68,-0.39 2.24,2.24 0 0 0 0.27,-1.26 2.29,2.29 0 0 0 -0.3,-1.33 0.85,0.85 0 0 0 -0.72,-0.42 0.87,0.87 0 0 0 -0.72,0.4 2,2 0 0 0 -0.29,1.19 z"
     id="N540X-12Z16G-SYS-D_Front_corepath50"
     inkscape:connector-curvature="0" />
  <path
     d="m 116.11,80.83 v -1.57 h 3.32 V 83 a 4,4 0 0 1 -1.43,1 4.26,4.26 0 0 1 -1.84,0.43 3.63,3.63 0 0 1 -2,-0.56 3.81,3.81 0 0 1 -1.37,-1.66 6.36,6.36 0 0 1 -0.5,-2.61 6.12,6.12 0 0 1 0.51,-2.62 3.78,3.78 0 0 1 1.33,-1.63 3.43,3.43 0 0 1 2,-0.54 3,3 0 0 1 3.24,2.73 l -1.52,0.35 a 1.94,1.94 0 0 0 -0.63,-1.1 1.66,1.66 0 0 0 -1.09,-0.38 1.92,1.92 0 0 0 -1.59,0.77 3.67,3.67 0 0 0 -0.61,2.33 4.23,4.23 0 0 0 0.66,2.56 1.8,1.8 0 0 0 1.53,0.75 2.31,2.31 0 0 0 0.93,-0.21 2.82,2.82 0 0 0 0.87,-0.58 v -1.2 z"
     id="N540X-12Z16G-SYS-D_Front_corepath52"
     inkscape:connector-curvature="0" />
  <path
     d="M 120.42,81.77 V 80 h 2.87 v 1.79 z"
     id="N540X-12Z16G-SYS-D_Front_corepath54"
     inkscape:connector-curvature="0" />
  <path
     d="m 124,81.22 1.5,-0.18 c 0.17,1.19 0.73,1.78 1.66,1.78 a 1.57,1.57 0 0 0 1.1,-0.36 1.18,1.18 0 0 0 0.4,-0.91 1,1 0 0 0 -0.14,-0.54 1,1 0 0 0 -0.42,-0.36 10,10 0 0 0 -1.39,-0.48 4.66,4.66 0 0 1 -1.44,-0.65 2.43,2.43 0 0 1 -0.72,-0.91 2.82,2.82 0 0 1 -0.27,-1.22 2.7,2.7 0 0 1 0.34,-1.37 2.19,2.19 0 0 1 1,-0.92 3.23,3.23 0 0 1 1.5,-0.31 2.64,2.64 0 0 1 2.88,2.81 l -1.54,0.09 a 1.66,1.66 0 0 0 -0.44,-1 1.38,1.38 0 0 0 -1,-0.3 1.53,1.53 0 0 0 -1,0.26 0.78,0.78 0 0 0 -0.34,0.65 0.8,0.8 0 0 0 0.3,0.63 4.32,4.32 0 0 0 1.41,0.58 6,6 0 0 1 1.68,0.7 2.55,2.55 0 0 1 0.79,1 3.41,3.41 0 0 1 0.27,1.43 2.91,2.91 0 0 1 -0.75,2 3,3 0 0 1 -2.33,0.83 c -1.78,-0.06 -2.82,-1.13 -3.05,-3.25 z"
     id="N540X-12Z16G-SYS-D_Front_corepath56"
     inkscape:connector-curvature="0" />
  <path
     d="m 133.52,84.25 v -3.92 l -2.79,-5.39 h 1.8 l 1.79,3.68 1.77,-3.68 h 1.77 l -2.8,5.4 v 3.91 z"
     id="N540X-12Z16G-SYS-D_Front_corepath58"
     inkscape:connector-curvature="0" />
  <path
     d="m 138.24,81.22 1.5,-0.18 c 0.17,1.19 0.72,1.78 1.66,1.78 a 1.57,1.57 0 0 0 1.1,-0.36 1.18,1.18 0 0 0 0.4,-0.91 1,1 0 0 0 -0.14,-0.54 1,1 0 0 0 -0.42,-0.36 10.58,10.58 0 0 0 -1.39,-0.48 4.66,4.66 0 0 1 -1.44,-0.65 2.34,2.34 0 0 1 -0.72,-0.91 2.82,2.82 0 0 1 -0.27,-1.22 2.7,2.7 0 0 1 0.34,-1.37 2.19,2.19 0 0 1 1,-0.92 3.21,3.21 0 0 1 1.5,-0.31 2.64,2.64 0 0 1 2.9,2.81 l -1.54,0.09 a 1.66,1.66 0 0 0 -0.44,-1 1.38,1.38 0 0 0 -1,-0.3 1.59,1.59 0 0 0 -1,0.26 0.81,0.81 0 0 0 0,1.28 4.22,4.22 0 0 0 1.41,0.58 6,6 0 0 1 1.68,0.7 2.55,2.55 0 0 1 0.79,1 3.41,3.41 0 0 1 0.27,1.43 2.91,2.91 0 0 1 -0.75,2 3,3 0 0 1 -2.33,0.83 c -1.86,-0.06 -2.9,-1.13 -3.11,-3.25 z"
     id="N540X-12Z16G-SYS-D_Front_corepath60"
     inkscape:connector-curvature="0" />
  <path
     d="M 145.29,81.77 V 80 h 2.88 v 1.79 z"
     id="N540X-12Z16G-SYS-D_Front_corepath62"
     inkscape:connector-curvature="0" />
  <path
     d="m 149.27,74.94 h 2.81 a 4.16,4.16 0 0 1 1.61,0.24 2.68,2.68 0 0 1 1,0.81 4.24,4.24 0 0 1 0.72,1.46 8.35,8.35 0 0 1 0.26,2.24 6.89,6.89 0 0 1 -0.28,2.1 4.12,4.12 0 0 1 -0.69,1.41 2.68,2.68 0 0 1 -1,0.79 3.85,3.85 0 0 1 -1.52,0.26 h -2.9 z m 1.54,1.58 v 6.16 H 152 a 3,3 0 0 0 1.07,-0.14 1.37,1.37 0 0 0 0.55,-0.43 2.3,2.3 0 0 0 0.35,-0.89 7.57,7.57 0 0 0 0.14,-1.6 7.69,7.69 0 0 0 -0.14,-1.63 2.23,2.23 0 0 0 -0.45,-0.94 1.37,1.37 0 0 0 -0.73,-0.45 6.56,6.56 0 0 0 -1.25,-0.08 z"
     id="N540X-12Z16G-SYS-D_Front_corepath64"
     inkscape:connector-curvature="0" />
  <rect
     class="N540X-12Z16G-SYS-D_Front_corecls-7"
     x="87.18"
     y="49.380001"
     width="2.73"
     height="10.9"
     id="N540X-12Z16G-SYS-D_Front_corerect78"
     style="fill:#333333" />
  <path
     class="N540X-12Z16G-SYS-D_Front_corecls-8"
     d="m 112.05,52.45 a 8.3,8.3 0 0 0 -2.38,-0.34 2.78,2.78 0 0 0 -3.07,2.72 3.06,3.06 0 0 0 3.07,3.07 4.7,4.7 0 0 0 2.38,-0.68 v 3.06 a 19.17,19.17 0 0 1 -2.38,0.34 5.74,5.74 0 0 1 -5.79,-5.79 5.47,5.47 0 0 1 5.79,-5.45 19.17,19.17 0 0 1 2.38,0.34 z"
     id="N540X-12Z16G-SYS-D_Front_corepath80"
     inkscape:connector-curvature="0"
     style="fill:#333333;fill-rule:evenodd" />
  <path
     class="N540X-12Z16G-SYS-D_Front_corecls-8"
     d="m 83.44,52.45 a 5,5 0 0 0 -2,-0.34 2.78,2.78 0 0 0 -3.06,2.72 2.86,2.86 0 0 0 3.06,3.07 4.37,4.37 0 0 0 2,-0.68 v 3.06 a 12.22,12.22 0 0 1 -2.39,0.34 5.74,5.74 0 0 1 -5.79,-5.79 5.47,5.47 0 0 1 5.79,-5.45 8.42,8.42 0 0 1 2.39,0.34 z"
     id="N540X-12Z16G-SYS-D_Front_corepath82"
     inkscape:connector-curvature="0"
     style="fill:#333333;fill-rule:evenodd" />
  <path
     class="N540X-12Z16G-SYS-D_Front_corecls-8"
     d="m 126.36,54.83 a 5.79,5.79 0 0 1 -11.58,0 5.8,5.8 0 0 1 11.58,0 z m -5.79,-2.72 a 2.69,2.69 0 0 0 -2.73,2.72 2.74,2.74 0 1 0 5.45,0 2.68,2.68 0 0 0 -2.72,-2.72 z"
     id="N540X-12Z16G-SYS-D_Front_corepath84"
     inkscape:connector-curvature="0"
     style="fill:#333333;fill-rule:evenodd" />
  <path
     class="N540X-12Z16G-SYS-D_Front_corecls-8"
     d="m 100.47,52.11 a 12,12 0 0 0 -2,-0.34 c -1.37,0 -1.71,0.34 -1.71,0.68 a 1.09,1.09 0 0 0 1,1 l 0.69,0.34 c 2,0.68 2.72,1.7 2.72,3.06 0,2.73 -2.38,3.75 -4.43,3.75 a 26.36,26.36 0 0 1 -3.06,-0.34 v -2.7 a 4.39,4.39 0 0 0 2.72,0.68 c 1.36,0 2.05,-0.68 2.05,-1 0,-0.69 -0.69,-1 -1.37,-1 0,-0.34 -0.34,-0.34 -0.68,-0.34 a 3.27,3.27 0 0 1 -2.72,-3.06 c 0,-2 1.7,-3.41 4.08,-3.41 a 12.9,12.9 0 0 1 2.73,0.34 v 2.39 z"
     id="N540X-12Z16G-SYS-D_Front_corepath86"
     inkscape:connector-curvature="0"
     style="fill:#333333;fill-rule:evenodd" />
  <path
     class="N540X-12Z16G-SYS-D_Front_corecls-8"
     d="m 72.54,37.8 a 1.37,1.37 0 1 0 -2.73,0 v 3.06 a 1.37,1.37 0 1 0 2.73,0 z"
     id="N540X-12Z16G-SYS-D_Front_corepath88"
     inkscape:connector-curvature="0"
     style="fill:#333333;fill-rule:evenodd" />
  <path
     class="N540X-12Z16G-SYS-D_Front_corecls-8"
     d="m 80,34.05 a 1.46,1.46 0 0 0 -1.36,-1.36 1.25,1.25 0 0 0 -1.37,1.36 v 6.81 a 1.26,1.26 0 0 0 1.37,1.37 1.47,1.47 0 0 0 1.36,-1.37 z"
     id="N540X-12Z16G-SYS-D_Front_corepath90"
     inkscape:connector-curvature="0"
     style="fill:#333333;fill-rule:evenodd" />
  <path
     class="N540X-12Z16G-SYS-D_Front_corecls-8"
     d="m 87.18,28.94 a 1.25,1.25 0 0 0 -1.36,-1.36 1.46,1.46 0 0 0 -1.36,1.36 v 14.65 c 0,0.68 0.68,1 1.36,1 1,0 1.36,-0.34 1.36,-1 z"
     id="N540X-12Z16G-SYS-D_Front_corepath92"
     inkscape:connector-curvature="0"
     style="fill:#333333;fill-rule:evenodd" />
  <path
     class="N540X-12Z16G-SYS-D_Front_corecls-8"
     d="m 94.68,34.05 a 1.37,1.37 0 0 0 -2.73,0 v 6.81 a 1.37,1.37 0 1 0 2.73,0 z"
     id="N540X-12Z16G-SYS-D_Front_corepath94"
     inkscape:connector-curvature="0"
     style="fill:#333333;fill-rule:evenodd" />
  <path
     class="N540X-12Z16G-SYS-D_Front_corecls-8"
     d="m 102.17,37.8 a 1.36,1.36 0 1 0 -2.72,0 v 3.06 a 1.36,1.36 0 1 0 2.72,0 z"
     id="N540X-12Z16G-SYS-D_Front_corepath96"
     inkscape:connector-curvature="0"
     style="fill:#333333;fill-rule:evenodd" />
  <path
     class="N540X-12Z16G-SYS-D_Front_corecls-8"
     d="m 109.67,34.05 a 1.37,1.37 0 0 0 -2.73,0 v 6.81 a 1.37,1.37 0 1 0 2.73,0 z"
     id="N540X-12Z16G-SYS-D_Front_corepath98"
     inkscape:connector-curvature="0"
     style="fill:#333333;fill-rule:evenodd" />
  <path
     class="N540X-12Z16G-SYS-D_Front_corecls-8"
     d="m 117.16,28.94 a 1.36,1.36 0 1 0 -2.72,0 v 14.65 c 0,0.68 0.68,1 1.36,1 0.68,0 1.36,-0.34 1.36,-1 z"
     id="N540X-12Z16G-SYS-D_Front_corepath100"
     inkscape:connector-curvature="0"
     style="fill:#333333;fill-rule:evenodd" />
  <path
     class="N540X-12Z16G-SYS-D_Front_corecls-8"
     d="m 124.66,34.05 a 1.46,1.46 0 0 0 -1.37,-1.36 1.25,1.25 0 0 0 -1.36,1.36 v 6.81 a 1.25,1.25 0 0 0 1.36,1.37 1.47,1.47 0 0 0 1.37,-1.37 z"
     id="N540X-12Z16G-SYS-D_Front_corepath102"
     inkscape:connector-curvature="0"
     style="fill:#333333;fill-rule:evenodd" />
  <path
     class="N540X-12Z16G-SYS-D_Front_corecls-8"
     d="m 131.81,37.8 a 1.25,1.25 0 0 0 -1.36,-1.37 1.48,1.48 0 0 0 -1.37,1.37 v 3.06 a 1.48,1.48 0 0 0 1.37,1.37 1.25,1.25 0 0 0 1.36,-1.37 z"
     id="N540X-12Z16G-SYS-D_Front_corepath104"
     inkscape:connector-curvature="0"
     style="fill:#333333;fill-rule:evenodd" />
  <path
     d="m 512.63,150.62 a 6.42,6.42 0 0 1 -2.17,0.38 3.63,3.63 0 0 1 -2.64,-0.89 3.34,3.34 0 0 1 -0.94,-2.48 3.42,3.42 0 0 1 3.75,-3.5 4.47,4.47 0 0 1 1.79,0.32 l -0.27,1 a 3.63,3.63 0 0 0 -1.53,-0.29 2.26,2.26 0 0 0 -2.45,2.42 2.23,2.23 0 0 0 2.34,2.44 2.36,2.36 0 0 0 0.93,-0.14 v -1.68 h -1.19 v -1 h 2.38 z"
     id="N540X-12Z16G-SYS-D_Front_corepath264"
     inkscape:connector-curvature="0" />
  <path
     d="m 513.89,150.94 v -6.74 h 1.4 l 1.74,2.89 a 18.54,18.54 0 0 1 1.15,2.26 v 0 c -0.08,-0.9 -0.11,-1.77 -0.11,-2.8 v -2.35 h 1.14 v 6.74 H 518 l -1.76,-3 a 22.28,22.28 0 0 1 -1.21,-2.32 v 0 c 0,0.87 0.06,1.76 0.06,2.87 v 2.41 z"
     id="N540X-12Z16G-SYS-D_Front_corepath266"
     inkscape:connector-curvature="0" />
  <path
     d="m 520.62,149.6 a 3.41,3.41 0 0 0 1.63,0.43 c 0.79,0 1.23,-0.37 1.23,-0.92 0,-0.55 -0.34,-0.81 -1.2,-1.12 -1.11,-0.4 -1.82,-1 -1.82,-2 0,-1 0.92,-1.94 2.38,-1.94 a 3.56,3.56 0 0 1 1.62,0.34 l -0.3,1 a 2.85,2.85 0 0 0 -1.34,-0.32 c -0.78,0 -1.12,0.42 -1.12,0.81 0,0.39 0.39,0.76 1.29,1.11 1.17,0.44 1.74,1 1.74,2 0,1 -0.82,2 -2.56,2 a 4.14,4.14 0 0 1 -1.82,-0.42 z"
     id="N540X-12Z16G-SYS-D_Front_corepath268"
     inkscape:connector-curvature="0" />
  <path
     d="m 525.81,149.6 a 3.41,3.41 0 0 0 1.63,0.43 c 0.79,0 1.23,-0.37 1.23,-0.92 0,-0.55 -0.34,-0.81 -1.2,-1.12 -1.11,-0.4 -1.82,-1 -1.82,-2 0,-1 0.92,-1.94 2.38,-1.94 a 3.56,3.56 0 0 1 1.62,0.34 l -0.3,1 a 2.85,2.85 0 0 0 -1.34,-0.32 c -0.78,0 -1.12,0.42 -1.12,0.81 0,0.39 0.39,0.76 1.29,1.11 1.17,0.44 1.74,1 1.74,2 0,1 -0.82,2 -2.56,2 a 4.14,4.14 0 0 1 -1.82,-0.42 z"
     id="N540X-12Z16G-SYS-D_Front_corepath270"
     inkscape:connector-curvature="0" />
  <path
     class="N540X-12Z16G-SYS-D_Front_corecls-1"
     d="m 480.23,77.55 v 0 l -1.19,0.6 -0.21,-0.93 1.58,-0.78 h 1 v 6.5 h -1.19 z"
     id="N540X-12Z16G-SYS-D_Front_corepath294"
     inkscape:connector-curvature="0"
     style="fill:#1a1a1a" />
  <path
     class="N540X-12Z16G-SYS-D_Front_corecls-1"
     d="m 483.94,76.29 a 10.66,10.66 0 0 1 1.88,-0.14 3,3 0 0 1 2,0.55 1.9,1.9 0 0 1 0.66,1.49 2,2 0 0 1 -0.58,1.53 3,3 0 0 1 -2.13,0.72 3.47,3.47 0 0 1 -0.6,0 v 2.54 h -1.22 z m 1.22,3.14 a 2.48,2.48 0 0 0 0.6,0 c 0.92,0 1.48,-0.45 1.48,-1.24 0,-0.79 -0.52,-1.15 -1.37,-1.15 a 3.4,3.4 0 0 0 -0.71,0.06 z"
     id="N540X-12Z16G-SYS-D_Front_corepath296"
     inkscape:connector-curvature="0"
     style="fill:#1a1a1a" />
  <path
     class="N540X-12Z16G-SYS-D_Front_corecls-1"
     d="m 489.53,76.29 a 10.66,10.66 0 0 1 1.88,-0.14 3,3 0 0 1 2,0.55 1.9,1.9 0 0 1 0.66,1.49 2,2 0 0 1 -0.58,1.53 3,3 0 0 1 -2.13,0.72 3.47,3.47 0 0 1 -0.6,0 v 2.54 h -1.22 z m 1.22,3.14 a 2.48,2.48 0 0 0 0.6,0 c 0.92,0 1.48,-0.45 1.48,-1.24 0,-0.79 -0.52,-1.15 -1.37,-1.15 a 3.4,3.4 0 0 0 -0.71,0.06 z"
     id="N540X-12Z16G-SYS-D_Front_corepath298"
     inkscape:connector-curvature="0"
     style="fill:#1a1a1a" />
  <path
     class="N540X-12Z16G-SYS-D_Front_corecls-1"
     d="m 495.09,81.6 a 3.41,3.41 0 0 0 1.63,0.43 c 0.79,0 1.23,-0.37 1.23,-0.92 0,-0.55 -0.34,-0.81 -1.2,-1.12 -1.11,-0.4 -1.82,-1 -1.82,-2 0,-1 0.92,-1.94 2.38,-1.94 a 3.56,3.56 0 0 1 1.62,0.34 l -0.3,1 a 2.85,2.85 0 0 0 -1.34,-0.32 c -0.78,0 -1.12,0.42 -1.12,0.81 0,0.39 0.39,0.76 1.29,1.11 1.17,0.44 1.74,1 1.74,2 0,1 -0.82,2 -2.56,2 a 4,4 0 0 1 -1.82,-0.43 z"
     id="N540X-12Z16G-SYS-D_Front_corepath300"
     inkscape:connector-curvature="0"
     style="fill:#1a1a1a" />
  <path
     d="m 469.6,34.07 v 0 l -1.18,0.6 -0.21,-0.93 1.57,-0.78 h 1 v 6.5 h -1.18 z"
     id="N540X-12Z16G-SYS-D_Front_corepath302"
     inkscape:connector-curvature="0" />
  <path
     d="m 477.62,36.17 c 0,2.09 -0.82,3.39 -2.37,3.39 -1.55,0 -2.25,-1.35 -2.25,-3.33 0,-1.98 0.85,-3.38 2.37,-3.38 1.52,0 2.25,1.4 2.25,3.32 z m -3.44,0.06 c 0,1.58 0.43,2.4 1.11,2.4 0.68,0 1.1,-0.88 1.1,-2.44 0,-1.56 -0.36,-2.4 -1.1,-2.4 -0.74,0 -1.12,0.81 -1.11,2.44 z"
     id="N540X-12Z16G-SYS-D_Front_corepath304"
     inkscape:connector-curvature="0" />
  <path
     d="m 486.43,36.71 c 0,-0.87 -0.09,-1.92 -0.08,-2.84 v 0 c -0.22,0.83 -0.5,1.74 -0.8,2.59 l -1,2.92 h -1 l -0.9,-2.88 c -0.26,-0.86 -0.5,-1.78 -0.68,-2.63 v 0 c 0,0.89 -0.07,2 -0.12,2.88 l -0.15,2.71 h -1.15 L 481,32.72 h 1.62 l 0.88,2.71 c 0.24,0.79 0.45,1.59 0.62,2.34 v 0 c 0.18,-0.73 0.41,-1.56 0.67,-2.35 l 0.93,-2.7 h 1.6 l 0.39,6.74 h -1.2 z"
     id="N540X-12Z16G-SYS-D_Front_corepath306"
     inkscape:connector-curvature="0" />
  <path
     d="m 490.24,32.72 v 2.7 h 2.85 v -2.7 h 1.23 v 6.74 h -1.23 v -3 h -2.85 v 3 H 489 v -6.74 z"
     id="N540X-12Z16G-SYS-D_Front_corepath308"
     inkscape:connector-curvature="0" />
  <path
     d="m 495.29,38.75 1.83,-2.34 c 0.25,-0.3 0.46,-0.54 0.72,-0.82 v 0 h -2.37 v -1 h 3.87 v 0.75 l -1.79,2.29 c -0.24,0.29 -0.47,0.57 -0.72,0.83 v 0 h 2.57 v 1 h -4.11 z"
     id="N540X-12Z16G-SYS-D_Front_corepath310"
     inkscape:connector-curvature="0" />
  <g
     id="N540X-12Z16G-SYS-D_Front_coreLayer_4"
     data-name="Layer 4">
    <circle
       class="N540X-12Z16G-SYS-D_Front_corecls-10"
       cx="518.41998"
       cy="80.010002"
       r="15"
       id="N540X-12Z16G-SYS-D_Front_corecircle316"
       style="fill:#cccccc" />
    <circle
       class="N540X-12Z16G-SYS-D_Front_corecls-11"
       cx="518.41998"
       cy="80.010002"
       r="12"
       id="N540X-12Z16G-SYS-D_Front_corecircle318"
       style="fill:#d1a05e" />
    <path
       class="N540X-12Z16G-SYS-D_Front_corecls-12"
       d="M 518.42,68.51 A 11.5,11.5 0 1 1 506.92,80 11.57,11.57 0 0 1 518.42,68.5 m 0,-1 a 12.5,12.5 0 1 0 12.5,12.5 12.5,12.5 0 0 0 -12.5,-12.5 z"
       id="N540X-12Z16G-SYS-D_Front_corepath320"
       inkscape:connector-curvature="0"
       style="fill:#4c1800" />
    <circle
       class="N540X-12Z16G-SYS-D_Front_corecls-13"
       cx="518.41998"
       cy="80.010002"
       r="10.5"
       id="N540X-12Z16G-SYS-D_Front_corecircle322"
       style="fill:#9c5c1e" />
    <circle
       class="N540X-12Z16G-SYS-D_Front_corecls-11"
       cx="518.41998"
       cy="80.010002"
       r="6.5"
       id="N540X-12Z16G-SYS-D_Front_corecircle324"
       style="fill:#d1a05e" />
    <circle
       class="N540X-12Z16G-SYS-D_Front_corecls-14"
       cx="518.41998"
       cy="80.010002"
       r="5"
       id="N540X-12Z16G-SYS-D_Front_corecircle326"
       style="fill:#885f38" />
    <path
       class="N540X-12Z16G-SYS-D_Front_corecls-12"
       d="m 518.42,75.51 a 4.5,4.5 0 1 1 -4.5,4.5 4.48,4.48 0 0 1 4.5,-4.5 m 0,-1 a 5.5,5.5 0 1 0 5.5,5.5 5.55,5.55 0 0 0 -5.5,-5.5 z"
       id="N540X-12Z16G-SYS-D_Front_corepath328"
       inkscape:connector-curvature="0"
       style="fill:#4c1800" />
    <circle
       class="N540X-12Z16G-SYS-D_Front_corecls-12"
       cx="518.41998"
       cy="80.010002"
       r="1.5"
       id="N540X-12Z16G-SYS-D_Front_corecircle330"
       style="fill:#4c1800" />
    <circle
       class="N540X-12Z16G-SYS-D_Front_corecls-10"
       cx="518.41998"
       cy="36.52"
       r="15"
       id="N540X-12Z16G-SYS-D_Front_corecircle332"
       style="fill:#cccccc" />
    <circle
       class="N540X-12Z16G-SYS-D_Front_corecls-11"
       cx="518.41998"
       cy="36.52"
       r="12"
       id="N540X-12Z16G-SYS-D_Front_corecircle334"
       style="fill:#d1a05e" />
    <path
       class="N540X-12Z16G-SYS-D_Front_corecls-12"
       d="m 518.42,24.92 a 11.5,11.5 0 1 1 -11.5,11.5 11.57,11.57 0 0 1 11.5,-11.5 m 0,-1 a 12.5,12.5 0 1 0 12.5,12.5 12.5,12.5 0 0 0 -12.5,-12.5 z"
       id="N540X-12Z16G-SYS-D_Front_corepath336"
       inkscape:connector-curvature="0"
       style="fill:#4c1800" />
    <circle
       class="N540X-12Z16G-SYS-D_Front_corecls-13"
       cx="518.41998"
       cy="36.52"
       r="10.5"
       id="N540X-12Z16G-SYS-D_Front_corecircle338"
       style="fill:#9c5c1e" />
    <circle
       class="N540X-12Z16G-SYS-D_Front_corecls-11"
       cx="518.41998"
       cy="36.52"
       r="6.5"
       id="N540X-12Z16G-SYS-D_Front_corecircle340"
       style="fill:#d1a05e" />
    <circle
       class="N540X-12Z16G-SYS-D_Front_corecls-14"
       cx="518.41998"
       cy="36.52"
       r="5"
       id="N540X-12Z16G-SYS-D_Front_corecircle342"
       style="fill:#885f38" />
    <path
       class="N540X-12Z16G-SYS-D_Front_corecls-12"
       d="m 518.42,31.92 a 4.5,4.5 0 1 1 -4.5,4.5 4.48,4.48 0 0 1 4.5,-4.5 m 0,-1 a 5.5,5.5 0 1 0 5.5,5.5 5.55,5.55 0 0 0 -5.5,-5.5 z"
       id="N540X-12Z16G-SYS-D_Front_corepath344"
       inkscape:connector-curvature="0"
       style="fill:#4c1800" />
    <circle
       class="N540X-12Z16G-SYS-D_Front_corecls-12"
       cx="518.41998"
       cy="36.52"
       r="1.5"
       id="N540X-12Z16G-SYS-D_Front_corecircle346"
       style="fill:#4c1800" />
    <circle
       class="N540X-12Z16G-SYS-D_Front_corecls-10"
       cx="518.41998"
       cy="123.49"
       r="17"
       id="N540X-12Z16G-SYS-D_Front_corecircle348"
       style="fill:#cccccc" />
    <polygon
       class="N540X-12Z16G-SYS-D_Front_corecls-15"
       points="525.92,136.48 533.42,123.49 525.92,110.5 510.92,110.5 503.42,123.49 510.92,136.48 "
       id="N540X-12Z16G-SYS-D_Front_corepolygon350"
       style="fill:#c69c6d;stroke:#4c1800;stroke-miterlimit:10" />
    <circle
       class="N540X-12Z16G-SYS-D_Front_corecls-11"
       cx="518.41998"
       cy="123.49"
       r="13.6"
       id="N540X-12Z16G-SYS-D_Front_corecircle352"
       style="fill:#d1a05e" />
    <path
       class="N540X-12Z16G-SYS-D_Front_corecls-12"
       d="m 518.42,110.46 a 13,13 0 1 1 -13,13 13.1,13.1 0 0 1 13,-13 m 0,-1.14 a 14.17,14.17 0 1 0 14.17,14.17 14.18,14.18 0 0 0 -14.17,-14.17 z"
       id="N540X-12Z16G-SYS-D_Front_corepath354"
       inkscape:connector-curvature="0"
       style="fill:#4c1800" />
    <circle
       class="N540X-12Z16G-SYS-D_Front_corecls-16"
       cx="518.41998"
       cy="123.49"
       r="11.9"
       id="N540X-12Z16G-SYS-D_Front_corecircle356"
       style="fill:#e6e6e6" />
    <circle
       class="N540X-12Z16G-SYS-D_Front_corecls-11"
       cx="518.41998"
       cy="123.49"
       r="7.3699999"
       id="N540X-12Z16G-SYS-D_Front_corecircle358"
       style="fill:#d1a05e" />
    <circle
       class="N540X-12Z16G-SYS-D_Front_corecls-14"
       cx="518.41998"
       cy="123.49"
       r="5.6700001"
       id="N540X-12Z16G-SYS-D_Front_corecircle360"
       style="fill:#885f38" />
    <path
       class="N540X-12Z16G-SYS-D_Front_corecls-12"
       d="m 518.42,118.39 a 5.1,5.1 0 1 1 -5.1,5.1 5.08,5.08 0 0 1 5.1,-5.1 m 0,-1.13 a 6.23,6.23 0 1 0 6.23,6.23 6.28,6.28 0 0 0 -6.23,-6.23 z"
       id="N540X-12Z16G-SYS-D_Front_corepath362"
       inkscape:connector-curvature="0"
       style="fill:#4c1800" />
    <circle
       class="N540X-12Z16G-SYS-D_Front_corecls-12"
       cx="518.41998"
       cy="123.49"
       r="1.7"
       id="N540X-12Z16G-SYS-D_Front_corecircle364"
       style="fill:#4c1800" />
  </g>
  <circle
     class="N540X-12Z16G-SYS-D_Front_corecls-1"
     cx="310"
     cy="43"
     r="7.5"
     id="N540X-12Z16G-SYS-D_Front_corecircle427"
     style="fill:#1a1a1a" />
  <path
     class="N540X-12Z16G-SYS-D_Front_corecls-6"
     d="m 310,36 a 7,7 0 1 1 -7,7 7,7 0 0 1 7,-7 m 0,-1 a 8,8 0 1 0 8,8 8,8 0 0 0 -8,-8 z"
     id="N540X-12Z16G-SYS-D_Front_corepath429"
     inkscape:connector-curvature="0"
     style="fill:#666666" />
  <rect
     class="N540X-12Z16G-SYS-D_Front_corecls-1"
     x="206.5"
     y="61.5"
     width="206"
     height="65"
     id="N540X-12Z16G-SYS-D_Front_corerect431"
     style="fill:#1a1a1a" />
  <path
     class="N540X-12Z16G-SYS-D_Front_corecls-6"
     d="m 412,62 v 64 H 207 V 62 h 205 m 1,-1 H 206 v 66 h 207 z"
     id="N540X-12Z16G-SYS-D_Front_corepath433"
     inkscape:connector-curvature="0"
     style="fill:#666666" />
  <path
     class="N540X-12Z16G-SYS-D_Front_corecls-4"
     d="m 449.38,157.57 a 1.5,1.5 0 0 1 -1.5,-1.5 v -27.53 l -0.4,-0.09 a 16,16 0 0 1 0,-31.26 l 0.4,-0.08 v -56 a 1.5,1.5 0 0 1 1.5,-1.5 h 3 a 1.5,1.5 0 0 1 1.5,1.5 v 56 l 0.39,0.08 a 16,16 0 0 1 0,31.26 l -0.39,0.09 v 27.53 a 1.5,1.5 0 0 1 -1.5,1.5 z"
     id="N540X-12Z16G-SYS-D_Front_corepath435"
     inkscape:connector-curvature="0"
     style="fill:#b3b3b3" />
  <path
     class="N540X-12Z16G-SYS-D_Front_corecls-18"
     d="m 452.38,40.07 a 1,1 0 0 1 1,1 v 56.44 l 0.79,0.17 a 15.5,15.5 0 0 1 0,30.29 l -0.79,0.17 v 27.93 a 1,1 0 0 1 -1,1 h -3 a 1,1 0 0 1 -1,-1 v -27.93 l -0.79,-0.17 a 15.5,15.5 0 0 1 0,-30.29 l 0.79,-0.17 V 41.07 a 1,1 0 0 1 1,-1 h 3 m 0,-1 h -3 a 2,2 0 0 0 -2,2 V 96.7 a 16.49,16.49 0 0 0 0,32.24 v 27.13 a 2,2 0 0 0 2,2 h 3 a 2,2 0 0 0 2,-2 v -27.13 a 16.49,16.49 0 0 0 0,-32.24 V 41.07 a 2,2 0 0 0 -2,-2 z"
     id="N540X-12Z16G-SYS-D_Front_corepath437"
     inkscape:connector-curvature="0"
     style="fill:#808080" />
  <circle
     class="N540X-12Z16G-SYS-D_Front_corecls-3"
     cx="450.88"
     cy="112.82"
     r="13"
     id="N540X-12Z16G-SYS-D_Front_corecircle439"
     style="fill:#999999" />
  <path
     class="N540X-12Z16G-SYS-D_Front_corecls-18"
     d="m 450.88,100.32 a 12.5,12.5 0 1 1 -12.5,12.5 12.52,12.52 0 0 1 12.5,-12.5 m 0,-1 a 13.5,13.5 0 1 0 13.5,13.5 13.5,13.5 0 0 0 -13.5,-13.5 z"
     id="N540X-12Z16G-SYS-D_Front_corepath441"
     inkscape:connector-curvature="0"
     style="fill:#808080" />
  <path
     class="N540X-12Z16G-SYS-D_Front_corecls-19"
     d="m 450.88,122.32 a 9.5,9.5 0 1 1 6.72,-16.22 9.52,9.52 0 0 1 0,13.44 9.41,9.41 0 0 1 -6.72,2.78 z"
     id="N540X-12Z16G-SYS-D_Front_corepath443"
     inkscape:connector-curvature="0"
     style="fill:#d9d9d9;fill-rule:evenodd" />
  <path
     class="N540X-12Z16G-SYS-D_Front_corecls-20"
     d="m 450.88,103.82 a 9,9 0 1 1 -6.37,2.64 8.95,8.95 0 0 1 6.37,-2.64 m 0,-1 a 10,10 0 1 0 7.07,2.93 10,10 0 0 0 -7.07,-2.93 z"
     id="N540X-12Z16G-SYS-D_Front_corepath445"
     inkscape:connector-curvature="0"
     style="fill:#4d4d4d" />
  <path
     class="N540X-12Z16G-SYS-D_Front_corecls-19"
     d="m 450.88,120.66 a 7.84,7.84 0 1 1 5.54,-2.3 7.79,7.79 0 0 1 -5.54,2.3 z"
     id="N540X-12Z16G-SYS-D_Front_corepath447"
     inkscape:connector-curvature="0"
     style="fill:#d9d9d9;fill-rule:evenodd" />
  <path
     class="N540X-12Z16G-SYS-D_Front_corecls-20"
     d="m 450.88,105.49 a 7.24,7.24 0 0 1 5.18,2.15 7.33,7.33 0 1 1 -5.18,-2.15 m 0,-1 a 8.34,8.34 0 1 0 5.89,2.44 8.28,8.28 0 0 0 -5.89,-2.44 z"
     id="N540X-12Z16G-SYS-D_Front_corepath449"
     inkscape:connector-curvature="0"
     style="fill:#4d4d4d" />
  <polygon
     class="N540X-12Z16G-SYS-D_Front_corecls-20"
     points="449.63,111.57 445.46,111.57 445.46,114.07 449.63,114.07 449.63,118.24 452.13,118.24 452.13,114.07 456.3,114.07 456.3,111.57 452.13,111.57 452.13,107.41 449.63,107.41 "
     id="N540X-12Z16G-SYS-D_Front_corepolygon451"
     style="fill:#4d4d4d" />
  <path
     d="m 255.55,47.5 v -5.73 h 1.86 a 6.37,6.37 0 0 1 1.37,0.09 1.46,1.46 0 0 1 0.83,0.56 1.79,1.79 0 0 1 0.33,1.11 1.83,1.83 0 0 1 -0.19,0.89 1.5,1.5 0 0 1 -0.49,0.56 1.64,1.64 0 0 1 -0.6,0.28 7,7 0 0 1 -1.2,0.08 h -0.75 v 2.16 z m 1.16,-4.76 v 1.63 h 0.63 a 3,3 0 0 0 0.92,-0.09 0.77,0.77 0 0 0 0.49,-0.73 0.73,0.73 0 0 0 -0.19,-0.52 0.78,0.78 0 0 0 -0.46,-0.25 5,5 0 0 0 -0.83,0 z"
     id="N540X-12Z16G-SYS-D_Front_corepath453"
     inkscape:connector-curvature="0" />
  <path
     d="m 260.72,45.64 1.13,-0.11 a 1.39,1.39 0 0 0 0.41,0.83 1.3,1.3 0 0 0 0.84,0.26 1.33,1.33 0 0 0 0.84,-0.23 0.7,0.7 0 0 0 0.28,-0.56 0.5,0.5 0 0 0 -0.12,-0.34 0.82,0.82 0 0 0 -0.41,-0.25 c -0.14,-0.05 -0.45,-0.13 -0.93,-0.25 a 3,3 0 0 1 -1.3,-0.57 1.5,1.5 0 0 1 -0.28,-2 1.59,1.59 0 0 1 0.71,-0.58 3,3 0 0 1 1.13,-0.2 2.38,2.38 0 0 1 1.62,0.48 1.64,1.64 0 0 1 0.58,1.26 l -1.16,0.05 a 1,1 0 0 0 -0.32,-0.64 1.22,1.22 0 0 0 -0.73,-0.19 1.3,1.3 0 0 0 -0.79,0.21 0.44,0.44 0 0 0 0,0.7 3,3 0 0 0 1.06,0.38 5.58,5.58 0 0 1 1.25,0.42 1.54,1.54 0 0 1 0.63,0.58 1.71,1.71 0 0 1 0.23,0.91 1.68,1.68 0 0 1 -0.27,0.92 1.65,1.65 0 0 1 -0.78,0.64 3.21,3.21 0 0 1 -1.24,0.21 2.5,2.5 0 0 1 -1.67,-0.5 2.2,2.2 0 0 1 -0.71,-1.43 z"
     id="N540X-12Z16G-SYS-D_Front_corepath455"
     inkscape:connector-curvature="0" />
  <path
     d="m 268.09,41.75 a 1.6,1.6 0 0 1 1.31,0.59 3.82,3.82 0 0 1 0.55,2.33 3.76,3.76 0 0 1 -0.56,2.34 1.57,1.57 0 0 1 -1.3,0.59 1.63,1.63 0 0 1 -1.34,-0.65 3.8,3.8 0 0 1 -0.52,-2.29 3.76,3.76 0 0 1 0.57,-2.33 1.55,1.55 0 0 1 1.29,-0.58 z m 0,0.91 a 0.51,0.51 0 0 0 -0.35,0.13 0.74,0.74 0 0 0 -0.24,0.45 5.89,5.89 0 0 0 -0.12,1.43 6.78,6.78 0 0 0 0.1,1.39 1,1 0 0 0 0.26,0.5 0.56,0.56 0 0 0 0.35,0.13 0.57,0.57 0 0 0 0.36,-0.13 0.94,0.94 0 0 0 0.24,-0.46 5.83,5.83 0 0 0 0.12,-1.43 5.9,5.9 0 0 0 -0.11,-1.38 0.92,0.92 0 0 0 -0.25,-0.5 0.52,0.52 0 0 0 -0.36,-0.13 z"
     id="N540X-12Z16G-SYS-D_Front_corepath457"
     inkscape:connector-curvature="0" />
  <path
     d="m 362.55,47.5 v -5.73 h 1.86 a 6.37,6.37 0 0 1 1.37,0.09 1.46,1.46 0 0 1 0.83,0.56 1.79,1.79 0 0 1 0.33,1.11 1.83,1.83 0 0 1 -0.19,0.89 1.5,1.5 0 0 1 -0.49,0.56 1.64,1.64 0 0 1 -0.6,0.28 7,7 0 0 1 -1.2,0.08 h -0.75 v 2.16 z m 1.16,-4.76 v 1.63 h 0.63 a 3,3 0 0 0 0.92,-0.09 0.77,0.77 0 0 0 0.49,-0.73 0.73,0.73 0 0 0 -0.19,-0.52 0.78,0.78 0 0 0 -0.46,-0.25 5,5 0 0 0 -0.83,0 z"
     id="N540X-12Z16G-SYS-D_Front_corepath459"
     inkscape:connector-curvature="0" />
  <path
     d="m 367.72,45.64 1.13,-0.11 a 1.39,1.39 0 0 0 0.41,0.83 1.3,1.3 0 0 0 0.84,0.26 1.33,1.33 0 0 0 0.84,-0.23 0.7,0.7 0 0 0 0.28,-0.56 0.5,0.5 0 0 0 -0.12,-0.34 0.82,0.82 0 0 0 -0.41,-0.25 c -0.14,-0.05 -0.45,-0.13 -0.93,-0.25 a 3,3 0 0 1 -1.3,-0.57 1.5,1.5 0 0 1 -0.28,-2 1.59,1.59 0 0 1 0.71,-0.58 3,3 0 0 1 1.13,-0.2 2.38,2.38 0 0 1 1.62,0.48 1.64,1.64 0 0 1 0.58,1.26 l -1.16,0.05 a 1,1 0 0 0 -0.32,-0.64 1.22,1.22 0 0 0 -0.73,-0.19 1.3,1.3 0 0 0 -0.79,0.21 0.44,0.44 0 0 0 0,0.7 3,3 0 0 0 1.06,0.38 5.58,5.58 0 0 1 1.25,0.42 1.54,1.54 0 0 1 0.63,0.58 1.71,1.71 0 0 1 0.23,0.91 1.68,1.68 0 0 1 -0.27,0.92 1.65,1.65 0 0 1 -0.78,0.64 3.21,3.21 0 0 1 -1.24,0.21 2.5,2.5 0 0 1 -1.67,-0.5 2.2,2.2 0 0 1 -0.71,-1.43 z"
     id="N540X-12Z16G-SYS-D_Front_corepath461"
     inkscape:connector-curvature="0" />
  <path
     d="M 376.05,47.5 H 375 v -4.14 a 3.68,3.68 0 0 1 -1.42,0.83 v -1 a 3.2,3.2 0 0 0 0.94,-0.54 2.07,2.07 0 0 0 0.69,-0.91 h 0.89 z"
     id="N540X-12Z16G-SYS-D_Front_corepath463"
     inkscape:connector-curvature="0" />
  <path
     d="m 234.11,145.56 h 2.38 a 4.73,4.73 0 0 1 1.22,0.12 2.16,2.16 0 0 1 1,0.59 2.82,2.82 0 0 1 0.62,1 4.76,4.76 0 0 1 0.21,1.52 4.26,4.26 0 0 1 -0.2,1.37 2.81,2.81 0 0 1 -0.69,1.14 2.21,2.21 0 0 1 -0.91,0.51 4,4 0 0 1 -1.15,0.14 h -2.45 z m 1.3,1.09 v 4.26 h 1 a 3.68,3.68 0 0 0 0.79,-0.06 1.13,1.13 0 0 0 0.52,-0.27 1.25,1.25 0 0 0 0.28,-0.58 4.08,4.08 0 0 0 0.14,-1.18 3.65,3.65 0 0 0 -0.14,-1.14 1.39,1.39 0 0 0 -0.37,-0.63 1.14,1.14 0 0 0 -0.6,-0.3 6.06,6.06 0 0 0 -1.07,-0.06 z"
     id="N540X-12Z16G-SYS-D_Front_corepath465"
     inkscape:connector-curvature="0" />
  <path
     d="m 245.16,149.63 1.26,0.4 a 2.83,2.83 0 0 1 -1,1.57 3,3 0 0 1 -3.82,-0.37 3.34,3.34 0 0 1 -0.82,-2.4 3.47,3.47 0 0 1 0.83,-2.49 2.81,2.81 0 0 1 2.18,-0.89 2.65,2.65 0 0 1 1.92,0.7 2.49,2.49 0 0 1 0.66,1.18 l -1.29,0.31 a 1.32,1.32 0 0 0 -1.35,-1.08 1.49,1.49 0 0 0 -1.17,0.51 2.57,2.57 0 0 0 -0.44,1.67 2.68,2.68 0 0 0 0.44,1.74 1.43,1.43 0 0 0 1.14,0.52 1.29,1.29 0 0 0 0.89,-0.33 1.94,1.94 0 0 0 0.57,-1.04 z"
     id="N540X-12Z16G-SYS-D_Front_corepath467"
     inkscape:connector-curvature="0" />
  <path
     d="m 250.84,152 v -6.44 h 1.3 V 152 Z"
     id="N540X-12Z16G-SYS-D_Front_corepath469"
     inkscape:connector-curvature="0" />
  <path
     d="m 253.82,152 v -6.44 h 1.26 l 2.64,4.3 v -4.3 h 1.21 V 152 h -1.31 L 255,147.8 v 4.2 z"
     id="N540X-12Z16G-SYS-D_Front_corepath471"
     inkscape:connector-curvature="0" />
  <path
     d="m 260.73,152 v -6.44 h 2.09 a 8,8 0 0 1 1.54,0.09 1.73,1.73 0 0 1 0.93,0.63 2,2 0 0 1 0.37,1.26 2.17,2.17 0 0 1 -0.21,1 1.79,1.79 0 0 1 -0.55,0.63 2,2 0 0 1 -0.67,0.31 7.61,7.61 0 0 1 -1.35,0.09 H 262 V 152 Z m 1.3,-5.35 v 1.82 h 0.71 a 3.3,3.3 0 0 0 1,-0.1 0.85,0.85 0 0 0 0.41,-0.31 0.94,0.94 0 0 0 0.14,-0.5 0.85,0.85 0 0 0 -0.2,-0.58 0.9,0.9 0 0 0 -0.53,-0.29 6.18,6.18 0 0 0 -0.93,0 z"
     id="N540X-12Z16G-SYS-D_Front_corepath473"
     inkscape:connector-curvature="0" />
  <path
     d="m 267.15,145.56 h 1.3 v 3.49 a 8,8 0 0 0 0,1.07 1.06,1.06 0 0 0 0.4,0.64 1.39,1.39 0 0 0 0.86,0.24 1.33,1.33 0 0 0 0.84,-0.23 0.89,0.89 0 0 0 0.33,-0.56 6.84,6.84 0 0 0 0.06,-1.09 v -3.56 h 1.3 v 3.38 a 8.89,8.89 0 0 1 -0.1,1.64 1.8,1.8 0 0 1 -0.39,0.81 1.94,1.94 0 0 1 -0.76,0.52 3.31,3.31 0 0 1 -1.24,0.2 3.61,3.61 0 0 1 -1.4,-0.21 2,2 0 0 1 -0.75,-0.56 1.74,1.74 0 0 1 -0.37,-0.71 8.37,8.37 0 0 1 -0.12,-1.64 z"
     id="N540X-12Z16G-SYS-D_Front_corepath475"
     inkscape:connector-curvature="0" />
  <path
     d="m 275.53,152 v -5.35 h -1.92 v -1.09 h 5.12 v 1.09 h -1.9 V 152 Z"
     id="N540X-12Z16G-SYS-D_Front_corepath477"
     inkscape:connector-curvature="0" />
  <path
     d="m 279.23,148.57 v -1.24 h 1.23 v 1.24 z m 0,3.43 v -1.24 h 1.23 V 152 Z"
     id="N540X-12Z16G-SYS-D_Front_corepath479"
     inkscape:connector-curvature="0" />
  <path
     d="M 289.24,150.85 V 152 h -4.33 a 3,3 0 0 1 0.42,-1.23 8.36,8.36 0 0 1 1.39,-1.55 9.68,9.68 0 0 0 1,-1.05 1.37,1.37 0 0 0 0.25,-0.76 0.83,0.83 0 0 0 -0.22,-0.63 0.82,0.82 0 0 0 -0.61,-0.23 0.81,0.81 0 0 0 -0.62,0.24 1.17,1.17 0 0 0 -0.26,0.77 l -1.23,-0.12 a 2,2 0 0 1 0.69,-1.47 2.34,2.34 0 0 1 1.45,-0.44 2.13,2.13 0 0 1 1.5,0.51 1.71,1.71 0 0 1 0.54,1.28 2.12,2.12 0 0 1 -0.16,0.83 3.2,3.2 0 0 1 -0.49,0.83 8.34,8.34 0 0 1 -0.81,0.82 c -0.39,0.35 -0.63,0.59 -0.74,0.71 a 2.25,2.25 0 0 0 -0.25,0.34 z"
     id="N540X-12Z16G-SYS-D_Front_corepath481"
     inkscape:connector-curvature="0" />
  <path
     d="m 292.92,152 v -1.3 h -2.64 v -1.08 l 2.8,-4.09 h 1 v 4.09 h 0.8 v 1.08 h -0.8 v 1.3 z m 0,-2.38 v -2.21 l -1.48,2.21 z"
     id="N540X-12Z16G-SYS-D_Front_corepath483"
     inkscape:connector-curvature="0" />
  <path
     d="m 297.84,152 -2.3,-6.44 H 297 l 1.63,4.76 1.58,-4.76 h 1.38 l -2.36,6.44 z"
     id="N540X-12Z16G-SYS-D_Front_corepath485"
     inkscape:connector-curvature="0" />
  <path
     d="m 307,152 v -5.35 h -1.91 v -1.09 h 5.12 v 1.09 H 308.3 V 152 Z"
     id="N540X-12Z16G-SYS-D_Front_corepath487"
     inkscape:connector-curvature="0" />
  <path
     d="m 311,148.82 a 4.07,4.07 0 0 1 0.3,-1.66 3.27,3.27 0 0 1 0.6,-0.88 2.55,2.55 0 0 1 0.83,-0.58 3.55,3.55 0 0 1 1.39,-0.25 3,3 0 0 1 2.28,0.88 4,4 0 0 1 0,4.9 3.39,3.39 0 0 1 -4.56,0 3.34,3.34 0 0 1 -0.84,-2.41 z m 1.35,0 a 2.39,2.39 0 0 0 0.5,1.66 1.73,1.73 0 0 0 2.56,0 2.5,2.5 0 0 0 0.5,-1.68 2.42,2.42 0 0 0 -0.49,-1.66 1.8,1.8 0 0 0 -2.58,0 2.42,2.42 0 0 0 -0.45,1.63 z"
     id="N540X-12Z16G-SYS-D_Front_corepath489"
     inkscape:connector-curvature="0" />
  <path
     d="m 325.57,147.13 -1.2,0.14 a 0.85,0.85 0 0 0 -0.23,-0.55 0.64,0.64 0 0 0 -0.48,-0.17 0.79,0.79 0 0 0 -0.66,0.35 3,3 0 0 0 -0.34,1.46 1.46,1.46 0 0 1 1.15,-0.55 1.75,1.75 0 0 1 1.32,0.59 2.14,2.14 0 0 1 0.56,1.52 2.22,2.22 0 0 1 -0.58,1.59 2.12,2.12 0 0 1 -3.1,-0.16 3.87,3.87 0 0 1 -0.63,-2.48 4,4 0 0 1 0.66,-2.56 2.1,2.1 0 0 1 1.7,-0.78 1.81,1.81 0 0 1 1.21,0.41 1.93,1.93 0 0 1 0.62,1.19 z m -2.8,2.7 a 1.43,1.43 0 0 0 0.27,0.93 0.82,0.82 0 0 0 0.64,0.32 0.7,0.7 0 0 0 0.57,-0.26 1.36,1.36 0 0 0 0.23,-0.88 1.42,1.42 0 0 0 -0.25,-0.92 0.75,0.75 0 0 0 -0.61,-0.29 0.8,0.8 0 0 0 -0.61,0.27 1.25,1.25 0 0 0 -0.24,0.83 z"
     id="N540X-12Z16G-SYS-D_Front_corepath491"
     inkscape:connector-curvature="0" />
  <path
     d="m 328.9,145.53 a 1.75,1.75 0 0 1 1.46,0.67 5.78,5.78 0 0 1 0,5.25 1.77,1.77 0 0 1 -1.46,0.66 1.86,1.86 0 0 1 -1.52,-0.72 4.35,4.35 0 0 1 -0.57,-2.58 4.27,4.27 0 0 1 0.63,-2.62 1.77,1.77 0 0 1 1.46,-0.66 z m 0,1 a 0.6,0.6 0 0 0 -0.4,0.15 0.87,0.87 0 0 0 -0.27,0.51 6.7,6.7 0 0 0 -0.13,1.61 7.48,7.48 0 0 0 0.11,1.56 1.15,1.15 0 0 0 0.29,0.56 0.64,0.64 0 0 0 0.8,0 0.87,0.87 0 0 0 0.27,-0.51 10.12,10.12 0 0 0 0,-3.17 1.07,1.07 0 0 0 -0.28,-0.56 0.6,0.6 0 0 0 -0.39,-0.13 z"
     id="N540X-12Z16G-SYS-D_Front_corepath493"
     inkscape:connector-curvature="0" />
  <path
     d="m 334.16,152 -2.31,-6.44 h 1.41 l 1.64,4.76 1.57,-4.76 h 1.38 l -2.3,6.44 z"
     id="N540X-12Z16G-SYS-D_Front_corepath495"
     inkscape:connector-curvature="0" />
  <path
     d="m 363.33,147.13 -1.19,0.14 a 0.9,0.9 0 0 0 -0.23,-0.55 0.64,0.64 0 0 0 -0.48,-0.17 0.79,0.79 0 0 0 -0.66,0.35 2.86,2.86 0 0 0 -0.34,1.46 1.46,1.46 0 0 1 1.15,-0.55 1.76,1.76 0 0 1 1.32,0.59 2.14,2.14 0 0 1 0.55,1.52 2.18,2.18 0 0 1 -0.58,1.59 2.1,2.1 0 0 1 -3.09,-0.16 3.87,3.87 0 0 1 -0.63,-2.48 4,4 0 0 1 0.65,-2.56 2.13,2.13 0 0 1 1.7,-0.78 1.84,1.84 0 0 1 1.22,0.41 1.87,1.87 0 0 1 0.61,1.19 z m -2.8,2.7 a 1.43,1.43 0 0 0 0.28,0.93 0.81,0.81 0 0 0 0.63,0.32 0.7,0.7 0 0 0 0.57,-0.26 1.31,1.31 0 0 0 0.23,-0.88 1.43,1.43 0 0 0 -0.24,-0.94 0.8,0.8 0 0 0 -1.22,0 1.25,1.25 0 0 0 -0.25,0.83 z"
     id="N540X-12Z16G-SYS-D_Front_corepath497"
     inkscape:connector-curvature="0" />
  <path
     d="m 370.66,152 h -1.42 l -0.56,-1.46 h -2.57 l -0.53,1.46 h -1.38 l 2.51,-6.44 h 1.37 z m -2.4,-2.55 -0.88,-2.39 -0.87,2.39 z"
     id="N540X-12Z16G-SYS-D_Front_corepath499"
     inkscape:connector-curvature="0" />
  <path
     d="m 374.34,152 v -6.44 h 2 l 1.17,4.39 1.16,-4.39 h 1.95 V 152 h -1.21 v -5.07 l -1.33,5.07 h -1.25 l -1.28,-5.07 V 152 Z"
     id="N540X-12Z16G-SYS-D_Front_corepath501"
     inkscape:connector-curvature="0" />
  <path
     d="m 388.09,152 h -1.41 l -0.57,-1.46 h -2.57 L 383,152 h -1.38 l 2.51,-6.44 h 1.37 z m -2.39,-2.55 -0.89,-2.39 -0.87,2.39 z"
     id="N540X-12Z16G-SYS-D_Front_corepath503"
     inkscape:connector-curvature="0" />
  <path
     d="m 388.55,152 2.2,-3.36 -2,-3.08 h 1.52 l 1.29,2.07 1.26,-2.07 h 1.51 l -2,3.13 2.2,3.31 H 393 l -1.43,-2.23 -1.46,2.23 z"
     id="N540X-12Z16G-SYS-D_Front_corepath505"
     inkscape:connector-curvature="0" />
  <rect
     x="343.06"
     y="147.42999"
     width="9.6400003"
     height="0.61000001"
     id="N540X-12Z16G-SYS-D_Front_corerect507" />
  <rect
     x="343.06"
     y="149.61"
     width="2"
     height="0.61000001"
     id="N540X-12Z16G-SYS-D_Front_corerect509" />
  <rect
     x="350.70001"
     y="149.61"
     width="2"
     height="0.61000001"
     id="N540X-12Z16G-SYS-D_Front_corerect511" />
  <rect
     x="346.88"
     y="149.61"
     width="2"
     height="0.61000001"
     id="N540X-12Z16G-SYS-D_Front_corerect513" />
  <rect
     class="N540X-12Z16G-SYS-D_Front_corecls-7"
     x="384.25"
     y="138.07001"
     width="11"
     height="2"
     id="N540X-12Z16G-SYS-D_Front_corerect515"
     style="fill:#333333" />
  <rect
     class="N540X-12Z16G-SYS-D_Front_corecls-7"
     x="285.25"
     y="138.07001"
     width="11"
     height="2"
     id="N540X-12Z16G-SYS-D_Front_corerect517"
     style="fill:#333333" />
  <polygon
     class="N540X-12Z16G-SYS-D_Front_corecls-7"
     points="339.25,138.07 335.25,138.07 335.25,139.07 339.25,139.07 339.25,143.07 340.25,143.07 340.25,139.07 344.25,139.07 344.25,138.07 340.25,138.07 340.25,134.07 339.25,134.07 "
     id="N540X-12Z16G-SYS-D_Front_corepolygon519"
     style="fill:#333333" />
  <polygon
     class="N540X-12Z16G-SYS-D_Front_corecls-7"
     points="241.25,138.07 237.25,138.07 237.25,139.07 241.25,139.07 241.25,143.07 242.25,143.07 242.25,139.07 246.25,139.07 246.25,138.07 242.25,138.07 242.25,134.07 241.25,134.07 "
     id="N540X-12Z16G-SYS-D_Front_corepolygon521"
     style="fill:#333333" />
  <g
     id="N540X-12Z16G-SYS-D_Front_coreN540X-12Z16G-SYS-A_Front_coreLayer_2">
    <path
       class="N540X-12Z16G-SYS-D_Front_coreN540X-12Z16G-SYS-A_Front_corest0"
       id="N540X-12Z16G-SYS-D_Front_coreN540X-12Z16G-SYS-A_Front_corerect372"
       d="M 540,6 H 1628 V 160 H 540 Z"
       inkscape:connector-curvature="0"
       style="clip-rule:evenodd;fill-rule:evenodd" />
  </g>
  <g
     id="N540X-12Z16G-SYS-D_Front_coreN540X-12Z16G-SYS-A_Front_coreg92">
    <circle
       class="N540X-12Z16G-SYS-D_Front_coreN540X-12Z16G-SYS-A_Front_corest1"
       cx="1642"
       cy="147"
       r="6"
       id="N540X-12Z16G-SYS-D_Front_coreN540X-12Z16G-SYS-A_Front_corecircle88"
       style="fill:#1a1a1a" />
    <circle
       cx="1642"
       cy="148"
       r="6"
       id="N540X-12Z16G-SYS-D_Front_coreN540X-12Z16G-SYS-A_Front_corecircle90"
       style="fill:#666666" />
  </g>
  <text
     xml:space="preserve"
     style="font-style:normal;font-variant:normal;font-weight:400;font-stretch:normal;font-size:9.31799984px;line-height:1.25;font-family:Verdana;-inkscape-font-specification:Verdana;letter-spacing:0;word-spacing:0;fill:#000000;fill-opacity:1;stroke:none;stroke-width:0.233"
     x="1667.807"
     y="150.4431"
     id="N540X-12Z16G-SYS-D_Front_coreN540X-12Z16G-SYS-A_Front_coretext195"
     transform="scale(0.99010941,1.0099894)"
     font-style="normal"
     font-weight="400"
     font-size="9.318"
     letter-spacing="0"
     word-spacing="0"
     font-stretch="normal"
     font-variant="normal"><tspan
       id="N540X-12Z16G-SYS-D_Front_coreN540X-12Z16G-SYS-A_Front_coretspan193"
       x="1667.807"
       y="150.4431"
       style="font-style:normal;font-variant:normal;font-weight:400;font-stretch:normal;font-family:Verdana;-inkscape-font-specification:Verdana;stroke-width:0.233"
       font-weight="400"
       font-style="normal"
       font-stretch="normal"
       font-variant="normal">SW</tspan></text>
</svg>
