<?xml version="1.0" encoding="utf-8"?>
<!-- Generator: Adobe Illustrator 23.1.1, SVG Export Plug-In . SVG Version: 6.00 Build 0)  -->
<svg version="1.1" id="Layer_1" xmlns="http://www.w3.org/2000/svg" xmlns:xlink="http://www.w3.org/1999/xlink" x="0px" y="0px"
	 viewBox="0 0 60 60" style="enable-background:new 0 0 60 60;" xml:space="preserve">
<style type="text/css">
	.st0{fill:#F1E5CE;}
	.st1{fill:#002534;}
	.st2{fill:#FFFFFF;}
	.st3{fill:#FFFFFF;stroke:#002534;stroke-width:2;stroke-miterlimit:10;}
</style>
<g>
	<path class="st0" d="M48,60H12C5.4,60,0,54.6,0,48l0-36C0,5.4,5.4,0,12,0l36,0c6.6,0,12,5.4,12,12v36C60,54.6,54.6,60,48,60z"/>
</g>
<g>
	<g>
		<path class="st1" d="M46,48.5H14V9h32V48.5z M15,47.5h30V10H15V47.5z"/>
		<g>
			<g>
				<path class="st2" d="M48,19.5H12c-1.1,0-2-0.9-2-2v-6c0-1.1,0.9-2,2-2h36c1.1,0,2,0.9,2,2v6C50,18.6,49.1,19.5,48,19.5z"/>
				<path class="st1" d="M48,20.5H12c-1.7,0-3-1.3-3-3v-6c0-1.7,1.3-3,3-3h36c1.7,0,3,1.3,3,3v6C51,19.2,49.7,20.5,48,20.5z
					 M12,10.5c-0.6,0-1,0.4-1,1v6c0,0.6,0.4,1,1,1h36c0.6,0,1-0.4,1-1v-6c0-0.6-0.4-1-1-1H12z"/>
			</g>
			<path class="st1" d="M39.8,12.2v2.5c0,0.4,0.3,0.7,0.8,0.7l0,0c0.4,0,0.8,0.3,0.8,0.7v0.5c0,0.4,0.3,0.7,0.8,0.7h0.5
				c0.4,0,0.8-0.3,0.8-0.7v-0.5c0-0.4,0.3-0.7,0.8-0.7l0,0c0.4,0,0.8-0.3,0.8-0.7v-2.5c0-0.4-0.3-0.7-0.8-0.7h-3.5
				C40.1,11.5,39.8,11.8,39.8,12.2z"/>
			<path class="st1" d="M32.8,12.2v2.5c0,0.4,0.3,0.7,0.8,0.7l0,0c0.4,0,0.8,0.3,0.8,0.7v0.5c0,0.4,0.3,0.7,0.8,0.7h0.5
				c0.4,0,0.8-0.3,0.8-0.7v-0.5c0-0.4,0.3-0.7,0.8-0.7l0,0c0.4,0,0.8-0.3,0.8-0.7v-2.5c0-0.4-0.3-0.7-0.8-0.7h-3.5
				C33.1,11.5,32.8,11.8,32.8,12.2z"/>
			<path class="st1" d="M27,16.5H15c-0.6,0-1-0.4-1-1v-2c0-0.6,0.4-1,1-1h12c0.6,0,1,0.4,1,1v2C28,16.1,27.6,16.5,27,16.5z"/>
			<g>
				<path class="st2" d="M48,33.5H12c-1.1,0-2-0.9-2-2v-6c0-1.1,0.9-2,2-2h36c1.1,0,2,0.9,2,2v6C50,32.6,49.1,33.5,48,33.5z"/>
				<path class="st1" d="M48,34.5H12c-1.7,0-3-1.3-3-3v-6c0-1.7,1.3-3,3-3h36c1.7,0,3,1.3,3,3v6C51,33.2,49.7,34.5,48,34.5z
					 M12,24.5c-0.6,0-1,0.4-1,1v6c0,0.6,0.4,1,1,1h36c0.6,0,1-0.4,1-1v-6c0-0.6-0.4-1-1-1H12z"/>
			</g>
			<path class="st1" d="M39.8,26.2v2.5c0,0.4,0.3,0.7,0.8,0.7l0,0c0.4,0,0.8,0.3,0.8,0.8v0.5c0,0.4,0.3,0.7,0.8,0.7h0.5
				c0.4,0,0.8-0.3,0.8-0.7v-0.5c0-0.4,0.3-0.8,0.8-0.8l0,0c0.4,0,0.8-0.3,0.8-0.7v-2.5c0-0.4-0.3-0.8-0.8-0.8h-3.5
				C40.1,25.5,39.8,25.8,39.8,26.2z"/>
			<path class="st1" d="M32.8,26.2v2.5c0,0.4,0.3,0.7,0.8,0.7l0,0c0.4,0,0.8,0.3,0.8,0.8v0.5c0,0.4,0.3,0.7,0.8,0.7h0.5
				c0.4,0,0.8-0.3,0.8-0.7v-0.5c0-0.4,0.3-0.8,0.8-0.8l0,0c0.4,0,0.8-0.3,0.8-0.7v-2.5c0-0.4-0.3-0.8-0.8-0.8h-3.5
				C33.1,25.5,32.8,25.8,32.8,26.2z"/>
			<path class="st1" d="M27,30.5H15c-0.6,0-1-0.4-1-1v-2c0-0.6,0.4-1,1-1h12c0.6,0,1,0.4,1,1v2C28,30.1,27.6,30.5,27,30.5z"/>
			<path class="st3" d="M48,47.5H12c-1.1,0-2-0.9-2-2v-6c0-1.1,0.9-2,2-2h36c1.1,0,2,0.9,2,2v6C50,46.6,49.1,47.5,48,47.5z"/>
			<path class="st1" d="M39.8,40.2v2.5c0,0.4,0.3,0.8,0.8,0.8l0,0c0.4,0,0.8,0.3,0.8,0.8v0.5c0,0.4,0.3,0.8,0.8,0.8h0.5
				c0.4,0,0.8-0.3,0.8-0.8v-0.5c0-0.4,0.3-0.8,0.8-0.8l0,0c0.4,0,0.8-0.3,0.8-0.8v-2.5c0-0.4-0.3-0.8-0.8-0.8h-3.5
				C40.1,39.5,39.8,39.8,39.8,40.2z"/>
			<path class="st1" d="M32.8,40.2v2.5c0,0.4,0.3,0.8,0.8,0.8l0,0c0.4,0,0.8,0.3,0.8,0.8v0.5c0,0.4,0.3,0.8,0.8,0.8h0.5
				c0.4,0,0.8-0.3,0.8-0.8v-0.5c0-0.4,0.3-0.8,0.8-0.8l0,0c0.4,0,0.8-0.3,0.8-0.8v-2.5c0-0.4-0.3-0.8-0.8-0.8h-3.5
				C33.1,39.5,32.8,39.8,32.8,40.2z"/>
			<path class="st1" d="M27,44.5H15c-0.6,0-1-0.4-1-1v-2c0-0.6,0.4-1,1-1h12c0.6,0,1,0.4,1,1v2C28,44.1,27.6,44.5,27,44.5z"/>
		</g>
	</g>
	<g>
		<path class="st1" d="M53,50.5H7c-1.1,0-2-0.9-2-2v-10c0-1.1,0.9-2,2-2h46c1.1,0,2,0.9,2,2v10C55,49.6,54.1,50.5,53,50.5z"/>
		<g>
			<path class="st2" d="M19.7,47.1L19,45.3h-3.4l-0.7,1.8h-1.1l3-7.2h1.1l2.9,7.2H19.7z M15.9,44.5h2.8l-1.4-3.5L15.9,44.5z"/>
			<path class="st2" d="M23.6,43.6c-1.7-0.5-2.2-1-2.2-2c0-1,0.9-1.8,2.6-1.8c1.5,0,2.7,0.7,2.8,1.9h-1c-0.1-0.7-0.7-1.1-1.8-1.1
				c-1.1,0-1.6,0.4-1.6,1c0,0.6,0.2,0.8,1.9,1.3c2,0.6,2.6,1.1,2.6,2.3c0,1.1-1,2.1-2.8,2.1c-1.5,0-2.7-0.8-2.9-2.2h1
				c0.1,0.8,0.8,1.3,1.8,1.3c1.2,0,1.8-0.6,1.8-1.3C25.9,44.5,25.5,44.2,23.6,43.6z"/>
			<path class="st2" d="M32.6,47.1l-1.7-2.7h-1.7v2.7h-1v-7.2h2.3c1.8,0,2.8,0.8,2.8,2.3c0,1.1-0.7,1.7-1.4,2l1.9,2.9H32.6z
				 M29.1,40.7v2.8h1.4c1.1,0,1.7-0.5,1.7-1.4c0-0.9-0.6-1.4-1.8-1.4H29.1z"/>
			<path class="st2" d="M34.6,42.3c0-1.4,1-2.4,2.3-2.4c1.6,0,2.5,1.1,2.5,3.4c0,3.1-1.2,3.9-2.6,3.9c-1.1,0-1.9-0.6-2.1-1.5h1.1
				c0.1,0.4,0.5,0.7,1.1,0.7c0.8,0,1.5-0.6,1.6-2.7c-0.4,0.7-1.1,0.9-1.7,0.9C35.5,44.7,34.6,43.8,34.6,42.3z M36.9,40.8
				c-0.8,0-1.4,0.6-1.4,1.5c0,1.1,0.6,1.6,1.4,1.6c0.9,0,1.4-0.7,1.4-1.5C38.3,41.3,37.7,40.8,36.9,40.8z"/>
			<path class="st2" d="M44.8,47.1l-3.1-3.4v3.4h-1v-7.2h1v3.2l2.9-3.2h1.3l-3.3,3.4l3.6,3.8H44.8z"/>
		</g>
	</g>
</g>
</svg>
