<?xml version="1.0" encoding="utf-8"?>
<!-- Generator: Adobe Illustrator 23.1.1, SVG Export Plug-In . SVG Version: 6.00 Build 0)  -->
<svg version="1.1" id="Layer_1" xmlns="http://www.w3.org/2000/svg" xmlns:xlink="http://www.w3.org/1999/xlink" x="0px" y="0px"
	 viewBox="0 0 60 60" style="enable-background:new 0 0 60 60;" xml:space="preserve">
<style type="text/css">
	.st0{fill:#F2F2F2;}
	.st1{fill:#002534;}
</style>
<g>
	<path class="st0" d="M48,60H12C5.4,60,0,54.6,0,48l0-36C0,5.4,5.4,0,12,0l36,0c6.6,0,12,5.4,12,12v36C60,54.6,54.6,60,48,60z"/>
</g>
<g>
	<path class="st1" d="M48,22H12c-1.7,0-3-1.3-3-3v-6c0-1.7,1.3-3,3-3h36c1.7,0,3,1.3,3,3v6C51,20.7,49.7,22,48,22z M12,12
		c-0.6,0-1,0.4-1,1v6c0,0.6,0.4,1,1,1h36c0.6,0,1-0.4,1-1v-6c0-0.6-0.4-1-1-1H12z"/>
	<path class="st1" d="M39.8,13.7v2.5c0,0.4,0.3,0.7,0.8,0.7l0,0c0.4,0,0.8,0.3,0.8,0.8v0.5c0,0.4,0.3,0.7,0.8,0.7h0.5
		c0.4,0,0.8-0.3,0.8-0.7v-0.5c0-0.4,0.3-0.8,0.8-0.8l0,0c0.4,0,0.8-0.3,0.8-0.7v-2.5c0-0.4-0.3-0.7-0.8-0.7h-3.5
		C40.1,13,39.8,13.3,39.8,13.7z"/>
	<path class="st1" d="M32.8,13.7v2.5c0,0.4,0.3,0.7,0.8,0.7l0,0c0.4,0,0.8,0.3,0.8,0.8v0.5c0,0.4,0.3,0.7,0.8,0.7h0.5
		c0.4,0,0.8-0.3,0.8-0.7v-0.5c0-0.4,0.3-0.8,0.8-0.8l0,0c0.4,0,0.8-0.3,0.8-0.7v-2.5c0-0.4-0.3-0.7-0.8-0.7h-3.5
		C33.1,13,32.8,13.3,32.8,13.7z"/>
	<path class="st1" d="M27,18H15c-0.6,0-1-0.4-1-1v-2c0-0.6,0.4-1,1-1h12c0.6,0,1,0.4,1,1v2C28,17.6,27.6,18,27,18z"/>
	<path class="st1" d="M48,36H12c-1.7,0-3-1.3-3-3v-6c0-1.7,1.3-3,3-3h36c1.7,0,3,1.3,3,3v6C51,34.7,49.7,36,48,36z M12,26
		c-0.6,0-1,0.4-1,1v6c0,0.6,0.4,1,1,1h36c0.6,0,1-0.4,1-1v-6c0-0.6-0.4-1-1-1H12z"/>
	<path class="st1" d="M39.8,27.7v2.5c0,0.4,0.3,0.7,0.8,0.7l0,0c0.4,0,0.8,0.3,0.8,0.8v0.5c0,0.4,0.3,0.8,0.8,0.8h0.5
		c0.4,0,0.8-0.3,0.8-0.8v-0.5c0-0.4,0.3-0.8,0.8-0.8l0,0c0.4,0,0.8-0.3,0.8-0.7v-2.5c0-0.4-0.3-0.8-0.8-0.8h-3.5
		C40.1,27,39.8,27.3,39.8,27.7z"/>
	<path class="st1" d="M32.8,27.7v2.5c0,0.4,0.3,0.7,0.8,0.7l0,0c0.4,0,0.8,0.3,0.8,0.8v0.5c0,0.4,0.3,0.8,0.8,0.8h0.5
		c0.4,0,0.8-0.3,0.8-0.8v-0.5c0-0.4,0.3-0.8,0.8-0.8l0,0c0.4,0,0.8-0.3,0.8-0.7v-2.5c0-0.4-0.3-0.8-0.8-0.8h-3.5
		C33.1,27,32.8,27.3,32.8,27.7z"/>
	<path class="st1" d="M27,32H15c-0.6,0-1-0.4-1-1v-2c0-0.6,0.4-1,1-1h12c0.6,0,1,0.4,1,1v2C28,31.6,27.6,32,27,32z"/>
	<path class="st1" d="M48,50H12c-1.7,0-3-1.3-3-3v-6c0-1.7,1.3-3,3-3h36c1.7,0,3,1.3,3,3v6C51,48.7,49.7,50,48,50z M12,40
		c-0.6,0-1,0.4-1,1v6c0,0.6,0.4,1,1,1h36c0.6,0,1-0.4,1-1v-6c0-0.6-0.4-1-1-1H12z"/>
	<path class="st1" d="M39.8,41.8v2.5c0,0.4,0.3,0.8,0.8,0.8l0,0c0.4,0,0.8,0.3,0.8,0.8v0.5c0,0.4,0.3,0.8,0.8,0.8h0.5
		c0.4,0,0.8-0.3,0.8-0.8v-0.5c0-0.4,0.3-0.8,0.8-0.8l0,0c0.4,0,0.8-0.3,0.8-0.8v-2.5c0-0.4-0.3-0.8-0.8-0.8h-3.5
		C40.1,41,39.8,41.3,39.8,41.8z"/>
	<path class="st1" d="M32.8,41.8v2.5c0,0.4,0.3,0.8,0.8,0.8l0,0c0.4,0,0.8,0.3,0.8,0.8v0.5c0,0.4,0.3,0.8,0.8,0.8h0.5
		c0.4,0,0.8-0.3,0.8-0.8v-0.5c0-0.4,0.3-0.8,0.8-0.8l0,0c0.4,0,0.8-0.3,0.8-0.8v-2.5c0-0.4-0.3-0.8-0.8-0.8h-3.5
		C33.1,41,32.8,41.3,32.8,41.8z"/>
	<path class="st1" d="M27,46H15c-0.6,0-1-0.4-1-1v-2c0-0.6,0.4-1,1-1h12c0.6,0,1,0.4,1,1v2C28,45.6,27.6,46,27,46z"/>
</g>
</svg>
