<svg width="16" height="16" viewBox="0 0 16 16" fill="none" xmlns="http://www.w3.org/2000/svg">
<path d="M8 15C11.866 15 15 11.866 15 8C15 4.13401 11.866 1 8 1C4.13401 1 1 4.13401 1 8C1 11.866 4.13401 15 8 15Z" fill="white"/>
<path d="M8 0C3.6 0 0 3.6 0 8C0 12.4 3.6 16 8 16C12.4 16 16 12.4 16 8C16 3.6 12.4 0 8 0ZM12.8 5.3L8 11.7C7.8 11.9 7.6 12 7.4 12C7.2 12 6.9 11.9 6.8 11.8L3.3 8.5C3.1 8.3 3 8.1 3 7.9C3 7.7 3.1 7.5 3.2 7.3C3.4 7.1 3.6 7 3.8 7C4 7 4.2 7.1 4.4 7.2L7.2 9.9L11.5 4.3C11.8 3.9 12.3 3.9 12.7 4.1C13 4.4 13.1 5 12.8 5.3V5.3Z" fill="#5A9E46"/>
</svg>
