<svg width="16" height="16" viewBox="0 0 16 16" fill="none" xmlns="http://www.w3.org/2000/svg">
<path d="M8 15C11.866 15 15 11.866 15 8C15 4.13401 11.866 1 8 1C4.13401 1 1 4.13401 1 8C1 11.866 4.13401 15 8 15Z" fill="white"/>
<path d="M11.3 0H4.7L0 4.7V11.3L4.7 16H11.3L16 11.3V4.7L11.3 0ZM12.3 10.8C12.7 11.2 12.7 11.9 12.3 12.3C11.9 12.7 11.2 12.7 10.8 12.3L8.2 9.7L5.6 12.3C5.2 12.7 4.5 12.7 4.1 12.3C3.7 11.9 3.7 11.2 4.1 10.8L6.7 8.2L4 5.5C3.6 5.1 3.6 4.4 4 4C4.4 3.6 5.1 3.6 5.5 4L8.1 6.7L10.8 4C11.2 3.6 11.9 3.6 12.3 4C12.7 4.4 12.7 5.1 12.3 5.5L9.6 8.2L12.3 10.8Z" fill="#EB2300"/>
</svg>
