<svg width="17" height="15" viewBox="0 0 17 15" fill="none" xmlns="http://www.w3.org/2000/svg">
<g clip-path="url(#clip0_1_13)">
<path d="M8 11.2C8.93888 11.2 9.7 10.5284 9.7 9.7C9.7 8.87157 8.93888 8.2 8 8.2C7.06111 8.2 6.3 8.87157 6.3 9.7C6.3 10.5284 7.06111 11.2 8 11.2Z" fill="white"/>
<path d="M9.2 5.8C9 7 8.5 8 8 8C7.5 8 7 7 6.8 5.8C6.7 4.5 6.6 3 6.6 2.4C6.6 1.8 7.2 1.3 8 1.3C8.8 1.3 9.5 1.8 9.5 2.4C9.5 3 9.3 4.5 9.2 5.8V5.8Z" fill="white"/>
<path d="M14.9 0H1.1C0.199999 0 -0.300001 1 0.199999 1.8L7.1 13.5C7.5 14.2 8.6 14.2 9 13.5L15.9 1.8C16.3 1 15.8 0 14.9 0ZM8 10.8C7.3 10.8 6.7 10.3 6.7 9.7C6.7 9 7.3 8.5 8 8.5C8.7 8.5 9.3 9 9.3 9.6C9.3 10.3 8.7 10.8 8 10.8ZM9.1 5.7C9 6.9 8.5 7.9 8 7.9C7.5 7.9 7 6.9 6.9 5.8C6.7 4.6 6.6 3.1 6.6 2.6C6.6 2 7.2 1.5 8 1.5C8.8 1.5 9.4 2 9.4 2.6C9.4 3.1 9.3 4.6 9.1 5.7Z" fill="#EF6200"/>
</g>
<defs>
<clipPath id="clip0_1_13">
<rect width="16.04" height="14.02" fill="white"/>
</clipPath>
</defs>
</svg>
