<svg width="17" height="14" viewBox="0 0 17 14" fill="none" xmlns="http://www.w3.org/2000/svg">
<g clip-path="url(#clip0_1_7)">
<path d="M8.01 12.8C8.94889 12.8 9.71 12.1284 9.71 11.3C9.71 10.4716 8.94889 9.8 8.01 9.8C7.07112 9.8 6.31 10.4716 6.31 11.3C6.31 12.1284 7.07112 12.8 8.01 12.8Z" fill="black"/>
<path d="M9.11 7.4C9.01 8.6 8.41 9.6 7.91 9.6C7.41 9.6 6.91 8.6 6.71 7.4C6.61 6.1 6.51 4.6 6.51 4C6.51 3.4 7.21 2.9 8.01 2.9C8.81 2.9 9.51 3.4 9.51 4C9.51 4.6 9.31 6.1 9.11 7.4V7.4Z" fill="black"/>
<path d="M15.71 11.6L9.31 0.9C8.61 -0.3 7.41 -0.3 6.71 0.9L0.31 11.6C-0.39 12.8 0.11 13.8 1.51 13.8H14.41C15.81 13.8 16.41 12.8 15.71 11.6V11.6ZM8.01 12.4C7.31 12.4 6.71 11.9 6.71 11.3C6.71 10.7 7.31 10.2 8.01 10.2C8.71 10.2 9.31 10.7 9.31 11.3C9.31 11.9 8.71 12.4 8.01 12.4ZM9.11 7.4C9.01 8.5 8.51 9.5 8.01 9.5C7.51 9.5 7.01 8.5 6.91 7.4C6.71 6.2 6.61 4.8 6.61 4.2C6.61 3.6 7.21 3.1 8.01 3.1C8.81 3.1 9.41 3.6 9.41 4.2C9.41 4.8 9.31 6.2 9.11 7.4Z" fill="#FFCC00"/>
</g>
<defs>
<clipPath id="clip0_1_7">
<rect width="16.01" height="13.8" fill="white"/>
</clipPath>
</defs>
</svg>
