<?xml version="1.0" encoding="utf-8"?>
<!-- Generator: Adobe Illustrator 23.0.1, SVG Export Plug-In . SVG Version: 6.00 Build 0)  -->
<svg version="1.1" xmlns="http://www.w3.org/2000/svg" xmlns:xlink="http://www.w3.org/1999/xlink" x="0px" y="0px"
	 viewBox="0 0 16 16" style="enable-background:new 0 0 16 16;" xml:space="preserve">
<g id="Layer_1">
</g>
<g id="Layer_2">
</g>
<g id="Layer_3">
</g>
<g id="Layer_4">
</g>
<g id="Layer_5">
</g>
<g id="Layer_6">
</g>
<g id="Layer_7">
	<circle style="fill:#FFFFFF;" cx="8" cy="8" r="7"/>
	<g>
		<path style="fill:#5A9E46;" d="M8,0C3.6,0,0,3.6,0,8s3.6,8,8,8s8-3.6,8-8S12.4,0,8,0z M12.8,5.3L8,11.7C7.8,11.9,7.6,12,7.4,12
			c-0.2,0-0.5-0.1-0.6-0.2L3.3,8.5C3.1,8.3,3,8.1,3,7.9c0-0.2,0.1-0.4,0.2-0.6C3.4,7.1,3.6,7,3.8,7c0.2,0,0.4,0.1,0.6,0.2l2.8,2.7
			l4.3-5.6c0.3-0.4,0.8-0.4,1.2-0.2C13,4.4,13.1,5,12.8,5.3z"/>
	</g>
</g>
<g id="Layer_8">
</g>
<g id="Layer_9">
</g>
<g id="Layer_10">
</g>
<g id="Layer_11">
</g>
<g id="Layer_12">
</g>
<g id="Layer_13">
</g>
<g id="Layer_14">
</g>
</svg>
