<svg width="16" height="16" viewBox="0 0 16 16" fill="none" xmlns="http://www.w3.org/2000/svg">
<path d="M8.01 13.1C8.94336 13.1 9.7 12.4284 9.7 11.6C9.7 10.7716 8.94336 10.1 8.01 10.1C7.07664 10.1 6.32 10.7716 6.32 11.6C6.32 12.4284 7.07664 13.1 8.01 13.1Z" fill="black"/>
<path d="M9.18 7.68C9 8.91 8.49 9.92 8 9.92C7.51 9.92 7 8.92 6.82 7.68C6.64 6.44 6.55 4.93 6.55 4.32C6.65 3.62 7.29 3.12 8 3.2C8.71 3.12 9.35 3.62 9.46 4.32C9.46 4.93 9.33 6.44 9.18 7.68V7.68Z" fill="black"/>
<path d="M15.66 7.18L14.22 5.74L9.61 1.13L8.82 0.34C8.37 -0.11 7.63 -0.11 7.18 0.34L6.39 1.13L1.78 5.74L0.34 7.18C-0.11 7.63 -0.11 8.37 0.34 8.82L7.18 15.66C7.63 16.11 8.37 16.11 8.82 15.66L15.66 8.82C16.11 8.37 16.11 7.63 15.66 7.18V7.18ZM8 12.65C7.33 12.68 6.76 12.18 6.72 11.51C6.76 10.84 7.33 10.34 8 10.37C8.67 10.33 9.25 10.84 9.29 11.51C9.25 12.18 8.67 12.69 8 12.65V12.65ZM6.62 4.41C6.72 3.74 7.33 3.28 8 3.35C8.67 3.28 9.28 3.74 9.38 4.41C9.38 4.99 9.26 6.41 9.11 7.6C8.96 8.79 8.46 9.73 8 9.73C7.54 9.73 7 8.73 6.89 7.6C6.78 6.47 6.62 5 6.62 4.41V4.41Z" fill="#00CFD2"/>
</svg>
