<?xml version="1.0" encoding="UTF-8" standalone="no"?>
<svg
   xmlns:dc="http://purl.org/dc/elements/1.1/"
   xmlns:cc="http://creativecommons.org/ns#"
   xmlns:rdf="http://www.w3.org/1999/02/22-rdf-syntax-ns#"
   xmlns:svg="http://www.w3.org/2000/svg"
   xmlns="http://www.w3.org/2000/svg"
   xmlns:sodipodi="http://sodipodi.sourceforge.net/DTD/sodipodi-0.dtd"
   xmlns:inkscape="http://www.inkscape.org/namespaces/inkscape"
   version="1.1"
   x="0"
   y="0"
   viewBox="0 0 1660 165"
   xml:space="preserve"
   id="NCS-55A1-36H-S_Rear_coresvg201"
   width="1660"
   height="165"
   sodipodi:docname="NCS-55A1-36H-S_Rear_core.svg"
   inkscape:version="1.0.1 (3bc2e813f5, 2020-09-07)"><metadata
     id="metadata106"><rdf:RDF><cc:Work
         rdf:about=""><dc:format>image/svg+xml</dc:format><dc:type
           rdf:resource="http://purl.org/dc/dcmitype/StillImage" /></cc:Work></rdf:RDF></metadata><defs
     id="defs104" /><sodipodi:namedview
     pagecolor="#ffffff"
     bordercolor="#666666"
     borderopacity="1"
     objecttolerance="10"
     gridtolerance="10"
     guidetolerance="10"
     inkscape:pageopacity="0"
     inkscape:pageshadow="2"
     inkscape:window-width="1280"
     inkscape:window-height="658"
     id="namedview102"
     showgrid="false"
     inkscape:zoom="0.62771084"
     inkscape:cx="830"
     inkscape:cy="82.5"
     inkscape:window-x="-6"
     inkscape:window-y="-6"
     inkscape:window-maximized="1"
     inkscape:current-layer="NCS-55A1-36H-S_Rear_coresvg201" /><style
     type="text/css"
     id="NCS-55A1-36H-S_Rear_corestyle2">.NCS-55A1-36H-S_Rear_corest1,.NCS-55A1-36H-S_Rear_corest5{fill-rule:evenodd;clip-rule:evenodd;fill:#ccc}.NCS-55A1-36H-S_Rear_corest5{fill:#b3b3b3}.NCS-55A1-36H-S_Rear_corest8{fill:gray}.NCS-55A1-36H-S_Rear_corest13{fill:#4d4d4d}.NCS-55A1-36H-S_Rear_corest17{fill-rule:evenodd;clip-rule:evenodd;fill:#999}.NCS-55A1-36H-S_Rear_corest19{fill:#666}</style><g
     id="NCS-55A1-36H-S_Rear_coreLayer_1"><g
       id="NCS-55A1-36H-S_Rear_coreg10"><path
         class="NCS-55A1-36H-S_Rear_corest1"
         id="NCS-55A1-36H-S_Rear_corerect6"
         clip-rule="evenodd"
         fill="#ccc"
         fill-rule="evenodd"
         d="M.5.5h1659v164H.5z" /><path
         d="M1659 1v163H1V1h1658m1-1H0v165h1660z"
         id="NCS-55A1-36H-S_Rear_corepath8"
         fill="#1a1a1a" /></g><g
       id="NCS-55A1-36H-S_Rear_coreg16"><path
         d="M6.9 160.5c-1.9 0-3.5-1.6-3.5-3.5V7c0-1.9 1.6-3.5 3.5-3.5H1653c1.9 0 3.5 1.6 3.5 3.5v150c0 1.9-1.6 3.5-3.5 3.5z"
         id="NCS-55A1-36H-S_Rear_corepath12"
         clip-rule="evenodd"
         fill="#1a1a1a"
         fill-rule="evenodd" /><path
         d="M1653.1 4c1.6 0 3 1.3 3 3v150c0 1.7-1.3 3-3 3H6.9c-1.6 0-3-1.3-3-3V7c0-1.7 1.3-3 3-3h1646.2m0-1H6.9C4.8 3 3 4.8 3 7v150c0 2.2 1.8 4 4 4h1646.1c2.2 0 4-1.8 4-4V7c-.1-2.2-1.9-4-4-4z"
         id="NCS-55A1-36H-S_Rear_corepath14"
         fill="#999" /></g><g
       id="NCS-55A1-36H-S_Rear_coreLayer_5"><g
         id="NCS-55A1-36H-S_Rear_coreg26"><path
           class="NCS-55A1-36H-S_Rear_corest5"
           d="M18.2 159H7.8c-1.6 0-2.8-1.3-2.8-2.8V7.8C5 6.3 6.3 5 7.8 5h10.3C19.7 5 21 6.3 21 7.8v148.3c0 1.6-1.3 2.9-2.8 2.9z"
           id="NCS-55A1-36H-S_Rear_corepath18"
           clip-rule="evenodd"
           fill="#b3b3b3"
           fill-rule="evenodd" /><path
           class="NCS-55A1-36H-S_Rear_corest5"
           id="NCS-55A1-36H-S_Rear_corerect20"
           clip-rule="evenodd"
           fill="#b3b3b3"
           fill-rule="evenodd"
           d="M10.2 5h5.6v154h-5.6z" /><path
           class="NCS-55A1-36H-S_Rear_corest1"
           id="NCS-55A1-36H-S_Rear_corerect22"
           clip-rule="evenodd"
           fill="#ccc"
           fill-rule="evenodd"
           d="M7.8 5h2.4v154H7.8z" /><path
           class="NCS-55A1-36H-S_Rear_corest1"
           id="NCS-55A1-36H-S_Rear_corerect24"
           clip-rule="evenodd"
           fill="#ccc"
           fill-rule="evenodd"
           d="M15.8 5h2.4v154h-2.4z" /></g></g><g
       id="NCS-55A1-36H-S_Rear_coreLayer_5_copy"><g
         id="NCS-55A1-36H-S_Rear_coreg37"><path
           class="NCS-55A1-36H-S_Rear_corest5"
           d="M1652.2 159h-10.3c-1.6 0-2.8-1.3-2.8-2.8V7.8c0-1.6 1.3-2.8 2.8-2.8h10.3c1.6 0 2.8 1.3 2.8 2.8v148.3c0 1.6-1.3 2.9-2.8 2.9z"
           id="NCS-55A1-36H-S_Rear_corepath29"
           clip-rule="evenodd"
           fill="#b3b3b3"
           fill-rule="evenodd" /><path
           class="NCS-55A1-36H-S_Rear_corest5"
           id="NCS-55A1-36H-S_Rear_corerect31"
           clip-rule="evenodd"
           fill="#b3b3b3"
           fill-rule="evenodd"
           d="M1644.2 5h5.6v154h-5.6z" /><path
           class="NCS-55A1-36H-S_Rear_corest1"
           id="NCS-55A1-36H-S_Rear_corerect33"
           clip-rule="evenodd"
           fill="#ccc"
           fill-rule="evenodd"
           d="M1641.8 5h2.4v154h-2.4z" /><path
           class="NCS-55A1-36H-S_Rear_corest1"
           id="NCS-55A1-36H-S_Rear_corerect35"
           clip-rule="evenodd"
           fill="#ccc"
           fill-rule="evenodd"
           d="M1649.8 5h2.4v154h-2.4z" /></g></g></g><g
     id="NCS-55A1-36H-S_Rear_coreLayer_6"><g
       id="NCS-55A1-36H-S_Rear_coreg82"><g
         id="NCS-55A1-36H-S_Rear_coreg56"><g
           id="NCS-55A1-36H-S_Rear_coreg48"><path
             class="NCS-55A1-36H-S_Rear_corest5"
             d="M658.5 158.5V156c0-.8-.7-1.5-1.5-1.5h-2.5V9c0-1.9 1.6-3.5 3.5-3.5h12c1.9 0 3.5 1.6 3.5 3.5v145.5H671c-.8 0-1.5.7-1.5 1.5v2.5z"
             id="NCS-55A1-36H-S_Rear_corepath44"
             clip-rule="evenodd"
             fill="#b3b3b3"
             fill-rule="evenodd" /><path
             class="NCS-55A1-36H-S_Rear_corest19"
             d="M670 6c1.7 0 3 1.3 3 3v145h-2c-1.1 0-2 .9-2 2v2h-10v-2c0-1.1-.9-2-2-2h-2V9c0-1.7 1.3-3 3-3h12m0-1h-12c-2.2 0-4 1.8-4 4v146h3c.6 0 1 .4 1 1v3h12v-3c0-.6.4-1 1-1h3V9c0-2.2-1.8-4-4-4z"
             id="NCS-55A1-36H-S_Rear_corepath46"
             fill="#666" /></g><g
           id="NCS-55A1-36H-S_Rear_coreg54"><path
             class="NCS-55A1-36H-S_Rear_corest17"
             d="M661 154.6c-2 0-3.6-1.6-3.6-3.6V9c0-2 1.6-3.6 3.6-3.6h6c2 0 3.6 1.6 3.6 3.6v142c0 2-1.6 3.6-3.6 3.6z"
             id="NCS-55A1-36H-S_Rear_corepath50"
             clip-rule="evenodd"
             fill="#999"
             fill-rule="evenodd" /><path
             class="NCS-55A1-36H-S_Rear_corest8"
             d="M667 5.8c1.8 0 3.2 1.4 3.2 3.2v142c0 1.8-1.4 3.2-3.2 3.2h-6c-1.8 0-3.2-1.4-3.2-3.2V9c0-1.8 1.4-3.2 3.2-3.2h6m0-.8h-6c-2.2 0-4 1.8-4 4v142c0 2.2 1.8 4 4 4h6c2.2 0 4-1.8 4-4V9c0-2.2-1.8-4-4-4z"
             id="NCS-55A1-36H-S_Rear_corepath52"
             fill="gray" /></g></g><g
         id="NCS-55A1-36H-S_Rear_coreg66"><path
           class="NCS-55A1-36H-S_Rear_corest13"
           d="M666.7 139.9h-6.4v-4.4h1.1v3.1h1.5v-2.7h1.1v2.7h2.7z"
           id="NCS-55A1-36H-S_Rear_corepath58"
           fill="#4d4d4d" /><path
           class="NCS-55A1-36H-S_Rear_corest13"
           d="M666.7 129.2v1.4l-1.5.6v2.6l1.5.5v1.4l-6.4-2.5v-1.4zm-2.6 2.4l-2.4.9 2.4.9z"
           id="NCS-55A1-36H-S_Rear_corepath60"
           fill="#4d4d4d" /><path
           class="NCS-55A1-36H-S_Rear_corest13"
           d="M666.7 128.6h-6.4v-1.3l4.3-2.6h-4.3v-1.2h6.4v1.3l-4.2 2.6h4.2z"
           id="NCS-55A1-36H-S_Rear_corepath62"
           fill="#4d4d4d" /><path
           class="NCS-55A1-36H-S_Rear_corest13"
           d="M665.5 113.5h1.1v4.3c-.4 0-.8-.2-1.2-.4-.4-.2-.9-.7-1.5-1.4-.5-.6-.9-.9-1.1-1-.3-.2-.5-.3-.8-.3-.3 0-.5.1-.6.2-.1.1-.2.4-.2.6 0 .3.1.5.2.6.1.1.4.2.8.3l-.1 1.2c-.7-.1-1.2-.3-1.5-.7-.3-.4-.4-.9-.4-1.5s.2-1.1.5-1.5c.3-.4.8-.5 1.3-.5.3 0 .6.1.8.2.3.1.5.3.8.5.2.1.5.4.8.8.3.4.6.6.7.7l.3.3v-2.4z"
           id="NCS-55A1-36H-S_Rear_corepath64"
           fill="#4d4d4d" /></g><g
         id="NCS-55A1-36H-S_Rear_coreg76"><path
           class="NCS-55A1-36H-S_Rear_corest13"
           d="M666.7 59.1h-6.4v-4.4h1.1v3.1h1.5v-2.7h1.1v2.7h2.7z"
           id="NCS-55A1-36H-S_Rear_corepath68"
           fill="#4d4d4d" /><path
           class="NCS-55A1-36H-S_Rear_corest13"
           d="M666.7 48.4v1.4l-1.5.6V53l1.5.5v1.4l-6.4-2.5V51zm-2.6 2.4l-2.4.9 2.4.9z"
           id="NCS-55A1-36H-S_Rear_corepath70"
           fill="#4d4d4d" /><path
           class="NCS-55A1-36H-S_Rear_corest13"
           d="M666.7 47.8h-6.4v-1.3l4.3-2.6h-4.3v-1.2h6.4V44l-4.2 2.6h4.2z"
           id="NCS-55A1-36H-S_Rear_corepath72"
           fill="#4d4d4d" /><path
           class="NCS-55A1-36H-S_Rear_corest13"
           d="M666.7 31.3v1.2H662c.4.5.7 1 .9 1.6h-1.1c-.1-.3-.3-.7-.6-1.1-.3-.4-.6-.6-1-.8v-1h6.5z"
           id="NCS-55A1-36H-S_Rear_corepath74"
           fill="#4d4d4d" /></g><path
         class="NCS-55A1-36H-S_Rear_corest13"
         id="NCS-55A1-36H-S_Rear_corepolygon78"
         fill="#4d4d4d"
         d="M667 17.7l-7 4.1 7 4z" /><path
         class="NCS-55A1-36H-S_Rear_corest13"
         id="NCS-55A1-36H-S_Rear_corepolygon80"
         fill="#4d4d4d"
         d="M661 102.8l7-4-7-4.1z" /></g><g
       id="NCS-55A1-36H-S_Rear_coreg120"><g
         id="NCS-55A1-36H-S_Rear_coreg96"><g
           id="NCS-55A1-36H-S_Rear_coreg88"><path
             class="NCS-55A1-36H-S_Rear_corest5"
             d="M326.5 158.5V156c0-.8-.7-1.5-1.5-1.5h-2.5V9c0-1.9 1.6-3.5 3.5-3.5h12c1.9 0 3.5 1.6 3.5 3.5v145.5H339c-.8 0-1.5.7-1.5 1.5v2.5z"
             id="NCS-55A1-36H-S_Rear_corepath84"
             clip-rule="evenodd"
             fill="#b3b3b3"
             fill-rule="evenodd" /><path
             class="NCS-55A1-36H-S_Rear_corest19"
             d="M338 6c1.7 0 3 1.3 3 3v145h-2c-1.1 0-2 .9-2 2v2h-10v-2c0-1.1-.9-2-2-2h-2V9c0-1.7 1.3-3 3-3h12m0-1h-12c-2.2 0-4 1.8-4 4v146h3c.6 0 1 .4 1 1v3h12v-3c0-.6.4-1 1-1h3V9c0-2.2-1.8-4-4-4z"
             id="NCS-55A1-36H-S_Rear_corepath86"
             fill="#666" /></g><g
           id="NCS-55A1-36H-S_Rear_coreg94"><path
             class="NCS-55A1-36H-S_Rear_corest17"
             d="M329 154.6c-2 0-3.6-1.6-3.6-3.6V9c0-2 1.6-3.6 3.6-3.6h6c2 0 3.6 1.6 3.6 3.6v142c0 2-1.6 3.6-3.6 3.6z"
             id="NCS-55A1-36H-S_Rear_corepath90"
             clip-rule="evenodd"
             fill="#999"
             fill-rule="evenodd" /><path
             class="NCS-55A1-36H-S_Rear_corest8"
             d="M335 5.8c1.8 0 3.2 1.4 3.2 3.2v142c0 1.8-1.4 3.2-3.2 3.2h-6c-1.8 0-3.2-1.4-3.2-3.2V9c0-1.8 1.4-3.2 3.2-3.2h6m0-.8h-6c-2.2 0-4 1.8-4 4v142c0 2.2 1.8 4 4 4h6c2.2 0 4-1.8 4-4V9c0-2.2-1.8-4-4-4z"
             id="NCS-55A1-36H-S_Rear_corepath92"
             fill="gray" /></g></g><g
         id="NCS-55A1-36H-S_Rear_coreg106"><path
           class="NCS-55A1-36H-S_Rear_corest13"
           d="M334.7 141.1h-6.4v-4.4h1.1v3.1h1.5v-2.7h1.1v2.7h2.7z"
           id="NCS-55A1-36H-S_Rear_corepath98"
           fill="#4d4d4d" /><path
           class="NCS-55A1-36H-S_Rear_corest13"
           d="M334.7 130.4v1.4l-1.5.6v2.6l1.5.5v1.4l-6.4-2.5V133zm-2.6 2.4l-2.4.9 2.4.9z"
           id="NCS-55A1-36H-S_Rear_corepath100"
           fill="#4d4d4d" /><path
           class="NCS-55A1-36H-S_Rear_corest13"
           d="M334.7 129.8h-6.4v-1.3l4.3-2.6h-4.3v-1.2h6.4v1.3l-4.2 2.6h4.2z"
           id="NCS-55A1-36H-S_Rear_corepath102"
           fill="#4d4d4d" /><path
           class="NCS-55A1-36H-S_Rear_corest13"
           d="M334.7 113.3v1.2H330c.4.5.7 1 .9 1.6h-1.1c-.1-.3-.3-.7-.6-1-.3-.4-.6-.6-1-.8v-1z"
           id="NCS-55A1-36H-S_Rear_corepath104"
           fill="#4d4d4d" /></g><g
         id="NCS-55A1-36H-S_Rear_coreg114"><path
           class="NCS-55A1-36H-S_Rear_corest13"
           d="M334.7 56.2h-6.4v-2.1c0-.8 0-1.3.1-1.5.1-.4.3-.7.6-.9.3-.2.7-.4 1.3-.4.4 0 .7.1 1 .2.3.1.5.3.6.5.2.2.3.4.3.7.1.3.1.8.1 1.3v.8h2.4zm-5.4-1.3h1.8v-.7c0-.5 0-.9-.1-1-.1-.1-.2-.3-.3-.4-.1-.1-.3-.1-.5-.1s-.4.1-.6.2c-.2.1-.2.3-.3.5v.9z"
           id="NCS-55A1-36H-S_Rear_corepath108"
           fill="#4d4d4d" /><path
           class="NCS-55A1-36H-S_Rear_corest13"
           d="M332.6 50.6l-.1-1.3c.4-.1.7-.2.9-.5.2-.2.3-.5.3-.9s-.1-.7-.3-.9c-.2-.2-.4-.3-.6-.3-.2 0-.3 0-.4.1-.1.1-.2.2-.3.5-.1.2-.1.5-.3 1-.2.7-.4 1.2-.6 1.5-.4.4-.8.6-1.3.6-.3 0-.6-.1-.9-.3-.3-.2-.5-.5-.7-.8-.1-.3-.2-.8-.2-1.3 0-.8.2-1.4.5-1.8.4-.4.8-.6 1.4-.6l.1 1.3c-.3.1-.6.2-.7.4-.1.2-.2.5-.2.8 0 .4.1.7.2.9.1.1.2.2.4.2s.3-.1.4-.2c.1-.2.3-.6.4-1.2.1-.6.3-1.1.5-1.4.2-.3.4-.5.7-.7.3-.2.6-.3 1-.3s.7.1 1 .3c.3.2.6.5.7.9.2.4.2.8.2 1.4 0 .8-.2 1.4-.6 1.9-.4.5-.8.6-1.5.7z"
           id="NCS-55A1-36H-S_Rear_corepath110"
           fill="#4d4d4d" /><path
           class="NCS-55A1-36H-S_Rear_corest13"
           d="M334.7 34.2v1.2H330c.4.5.7 1 .9 1.6h-1.1c-.1-.3-.3-.7-.6-1.1-.3-.4-.6-.6-1-.8v-1h6.5z"
           id="NCS-55A1-36H-S_Rear_corepath112"
           fill="#4d4d4d" /></g><path
         class="NCS-55A1-36H-S_Rear_corest13"
         id="NCS-55A1-36H-S_Rear_corepolygon116"
         fill="#4d4d4d"
         d="M335 17.7l-7 4.1 7 4z" /><path
         class="NCS-55A1-36H-S_Rear_corest13"
         id="NCS-55A1-36H-S_Rear_corepolygon118"
         fill="#4d4d4d"
         d="M329 102.8l7-4-7-4.1z" /></g><g
       id="NCS-55A1-36H-S_Rear_coreg160"><g
         id="NCS-55A1-36H-S_Rear_coreg134"><g
           id="NCS-55A1-36H-S_Rear_coreg126"><path
             class="NCS-55A1-36H-S_Rear_corest5"
             d="M990.5 158.5V156c0-.8-.7-1.5-1.5-1.5h-2.5V9c0-1.9 1.6-3.5 3.5-3.5h12c1.9 0 3.5 1.6 3.5 3.5v145.5h-2.5c-.8 0-1.5.7-1.5 1.5v2.5z"
             id="NCS-55A1-36H-S_Rear_corepath122"
             clip-rule="evenodd"
             fill="#b3b3b3"
             fill-rule="evenodd" /><path
             class="NCS-55A1-36H-S_Rear_corest19"
             d="M1002 6c1.7 0 3 1.3 3 3v145h-2c-1.1 0-2 .9-2 2v2h-10v-2c0-1.1-.9-2-2-2h-2V9c0-1.7 1.3-3 3-3h12m0-1h-12c-2.2 0-4 1.8-4 4v146h3c.6 0 1 .4 1 1v3h12v-3c0-.6.4-1 1-1h3V9c0-2.2-1.8-4-4-4z"
             id="NCS-55A1-36H-S_Rear_corepath124"
             fill="#666" /></g><g
           id="NCS-55A1-36H-S_Rear_coreg132"><path
             class="NCS-55A1-36H-S_Rear_corest17"
             d="M993 154.6c-2 0-3.6-1.6-3.6-3.6V9c0-2 1.6-3.6 3.6-3.6h6c2 0 3.6 1.6 3.6 3.6v142c0 2-1.6 3.6-3.6 3.6z"
             id="NCS-55A1-36H-S_Rear_corepath128"
             clip-rule="evenodd"
             fill="#999"
             fill-rule="evenodd" /><path
             class="NCS-55A1-36H-S_Rear_corest8"
             d="M999 5.8c1.8 0 3.2 1.4 3.2 3.2v142c0 1.8-1.4 3.2-3.2 3.2h-6c-1.8 0-3.2-1.4-3.2-3.2V9c0-1.8 1.4-3.2 3.2-3.2h6m0-.8h-6c-2.2 0-4 1.8-4 4v142c0 2.2 1.8 4 4 4h6c2.2 0 4-1.8 4-4V9c0-2.2-1.8-4-4-4z"
             id="NCS-55A1-36H-S_Rear_corepath130"
             fill="gray" /></g></g><g
         id="NCS-55A1-36H-S_Rear_coreg144"><path
           class="NCS-55A1-36H-S_Rear_corest13"
           d="M998.7 139.9h-6.4v-4.4h1.1v3.1h1.5v-2.7h1.1v2.7h2.7z"
           id="NCS-55A1-36H-S_Rear_corepath136"
           fill="#4d4d4d" /><path
           class="NCS-55A1-36H-S_Rear_corest13"
           d="M998.7 129.2v1.4l-1.5.6v2.6l1.5.5v1.4l-6.4-2.5v-1.4zm-2.6 2.4l-2.4.9 2.4.9z"
           id="NCS-55A1-36H-S_Rear_corepath138"
           fill="#4d4d4d" /><path
           class="NCS-55A1-36H-S_Rear_corest13"
           d="M998.7 128.6h-6.4v-1.3l4.3-2.6h-4.3v-1.2h6.4v1.3l-4.2 2.6h4.2z"
           id="NCS-55A1-36H-S_Rear_corepath140"
           fill="#4d4d4d" /><path
           class="NCS-55A1-36H-S_Rear_corest13"
           d="M997 117.7l-.1-1.2c.3 0 .5-.1.7-.3.2-.2.2-.4.2-.6 0-.3-.1-.5-.3-.6-.2-.2-.5-.3-.8-.3-.3 0-.6.1-.7.3-.1.2-.3.4-.3.6 0 .2 0 .3.1.6l-1-.1c0-.3-.1-.6-.2-.8-.2-.2-.4-.3-.6-.3-.2 0-.4.1-.5.2-.1.1-.2.3-.2.5s.1.4.2.5c.1.2.4.2.6.3l-.2 1.1c-.4-.1-.7-.2-.9-.4-.2-.2-.4-.4-.5-.7-.1-.3-.2-.6-.2-1 0-.6.2-1.1.6-1.5.3-.3.7-.5 1.1-.5.6 0 1 .3 1.4.9.1-.4.3-.7.5-.9.3-.2.6-.3 1-.3.6 0 1 .2 1.4.6.4.4.6.9.6 1.5s-.2 1.1-.5 1.5c-.5.6-.9.8-1.4.9z"
           id="NCS-55A1-36H-S_Rear_corepath142"
           fill="#4d4d4d" /></g><g
         id="NCS-55A1-36H-S_Rear_coreg154"><path
           class="NCS-55A1-36H-S_Rear_corest13"
           d="M998.7 57.9h-6.4v-4.4h1.1v3.1h1.5v-2.7h1.1v2.7h2.7z"
           id="NCS-55A1-36H-S_Rear_corepath146"
           fill="#4d4d4d" /><path
           class="NCS-55A1-36H-S_Rear_corest13"
           d="M998.7 47.2v1.4l-1.5.6v2.6l1.5.5v1.4l-6.4-2.5v-1.4zm-2.6 2.4l-2.4.9 2.4.9z"
           id="NCS-55A1-36H-S_Rear_corepath148"
           fill="#4d4d4d" /><path
           class="NCS-55A1-36H-S_Rear_corest13"
           d="M998.7 46.6h-6.4v-1.3l4.3-2.6h-4.3v-1.2h6.4v1.3l-4.2 2.6h4.2z"
           id="NCS-55A1-36H-S_Rear_corepath150"
           fill="#4d4d4d" /><path
           class="NCS-55A1-36H-S_Rear_corest13"
           d="M997.5 31.5h1.1v4.3c-.4 0-.8-.2-1.2-.4-.4-.2-.9-.7-1.5-1.4-.5-.6-.9-.9-1.1-1-.3-.2-.5-.3-.8-.3-.3 0-.5.1-.6.2-.1.1-.2.4-.2.6 0 .3.1.5.2.6.1.1.4.2.8.3l-.1 1.2c-.7-.1-1.2-.3-1.5-.7-.3-.4-.4-.9-.4-1.5s.2-1.1.5-1.5c.3-.4.8-.5 1.3-.5.3 0 .6.1.8.2.3.1.5.3.8.5.2.1.5.4.8.8.3.4.6.6.7.7l.3.3v-2.4z"
           id="NCS-55A1-36H-S_Rear_corepath152"
           fill="#4d4d4d" /></g><path
         class="NCS-55A1-36H-S_Rear_corest13"
         id="NCS-55A1-36H-S_Rear_corepolygon156"
         fill="#4d4d4d"
         d="M999 17.7l-7 4.1 7 4z" /><path
         class="NCS-55A1-36H-S_Rear_corest13"
         id="NCS-55A1-36H-S_Rear_corepolygon158"
         fill="#4d4d4d"
         d="M993 102.8l7-4-7-4.1z" /></g><g
       id="NCS-55A1-36H-S_Rear_coreg198"><g
         id="NCS-55A1-36H-S_Rear_coreg174"><g
           id="NCS-55A1-36H-S_Rear_coreg166"><path
             class="NCS-55A1-36H-S_Rear_corest5"
             d="M1322.5 158.5V156c0-.8-.7-1.5-1.5-1.5h-2.5V9c0-1.9 1.6-3.5 3.5-3.5h12c1.9 0 3.5 1.6 3.5 3.5v145.5h-2.5c-.8 0-1.5.7-1.5 1.5v2.5z"
             id="NCS-55A1-36H-S_Rear_corepath162"
             clip-rule="evenodd"
             fill="#b3b3b3"
             fill-rule="evenodd" /><path
             class="NCS-55A1-36H-S_Rear_corest19"
             d="M1334 6c1.7 0 3 1.3 3 3v145h-2c-1.1 0-2 .9-2 2v2h-10v-2c0-1.1-.9-2-2-2h-2V9c0-1.7 1.3-3 3-3h12m0-1h-12c-2.2 0-4 1.8-4 4v146h3c.6 0 1 .4 1 1v3h12v-3c0-.6.4-1 1-1h3V9c0-2.2-1.8-4-4-4z"
             id="NCS-55A1-36H-S_Rear_corepath164"
             fill="#666" /></g><g
           id="NCS-55A1-36H-S_Rear_coreg172"><path
             class="NCS-55A1-36H-S_Rear_corest17"
             d="M1325 154.6c-2 0-3.6-1.6-3.6-3.6V9c0-2 1.6-3.6 3.6-3.6h6c2 0 3.6 1.6 3.6 3.6v142c0 2-1.6 3.6-3.6 3.6z"
             id="NCS-55A1-36H-S_Rear_corepath168"
             clip-rule="evenodd"
             fill="#999"
             fill-rule="evenodd" /><path
             class="NCS-55A1-36H-S_Rear_corest8"
             d="M1331 5.8c1.8 0 3.2 1.4 3.2 3.2v142c0 1.8-1.4 3.2-3.2 3.2h-6c-1.8 0-3.2-1.4-3.2-3.2V9c0-1.8 1.4-3.2 3.2-3.2h6m0-.8h-6c-2.2 0-4 1.8-4 4v142c0 2.2 1.8 4 4 4h6c2.2 0 4-1.8 4-4V9c0-2.2-1.8-4-4-4z"
             id="NCS-55A1-36H-S_Rear_corepath170"
             fill="gray" /></g></g><g
         id="NCS-55A1-36H-S_Rear_coreg182"><path
           class="NCS-55A1-36H-S_Rear_corest13"
           d="M1330.7 138.2h-6.4v-2.1c0-.8 0-1.3.1-1.5.1-.4.3-.7.6-.9.3-.2.7-.4 1.3-.4.4 0 .7.1 1 .2.3.1.5.3.6.5.2.2.3.4.3.7.1.3.1.8.1 1.3v.8h2.4zm-5.4-1.3h1.8v-.7c0-.5 0-.9-.1-1-.1-.2-.2-.3-.3-.4-.1-.1-.3-.1-.5-.1s-.4.1-.6.2c-.2.1-.2.3-.3.5v.9z"
           id="NCS-55A1-36H-S_Rear_corepath176"
           fill="#4d4d4d" /><path
           class="NCS-55A1-36H-S_Rear_corest13"
           d="M1328.6 132.6l-.1-1.3c.4-.1.7-.2.9-.5.2-.2.3-.5.3-.9s-.1-.7-.3-.9c-.2-.2-.4-.3-.6-.3-.2 0-.3 0-.4.1-.1.1-.2.2-.3.5-.1.2-.1.5-.3 1-.2.7-.4 1.2-.6 1.5-.4.4-.8.6-1.3.6-.3 0-.6-.1-.9-.3-.3-.2-.5-.5-.7-.8-.1-.3-.2-.8-.2-1.3 0-.8.2-1.4.5-1.8.4-.4.8-.6 1.4-.6l.1 1.3c-.3.1-.6.2-.7.4-.1.2-.2.5-.2.8 0 .4.1.7.2.9.1.1.2.2.4.2s.3-.1.4-.2c.1-.2.3-.6.4-1.2.1-.6.3-1.1.5-1.4.2-.3.4-.5.7-.7.3-.2.6-.3 1-.3s.7.1 1 .3c.3.2.6.5.7.9.1.4.2.8.2 1.4 0 .8-.2 1.4-.6 1.9-.3.4-.8.6-1.5.7z"
           id="NCS-55A1-36H-S_Rear_corepath178"
           fill="#4d4d4d" /><path
           class="NCS-55A1-36H-S_Rear_corest13"
           d="M1329.5 115.2h1.1v4.3c-.4 0-.8-.2-1.2-.4-.4-.2-.9-.7-1.5-1.4-.5-.6-.9-.9-1.1-1-.3-.2-.5-.3-.8-.3-.3 0-.5.1-.6.2-.1.1-.2.4-.2.6 0 .3.1.5.2.6.1.1.4.2.8.3l-.1 1.2c-.7-.1-1.2-.3-1.5-.7-.3-.4-.4-.9-.4-1.5s.2-1.1.5-1.5c.3-.4.8-.5 1.3-.5.3 0 .6.1.8.2.3.1.5.3.8.5.2.2.5.4.8.8l.7.7.3.3v-2.4z"
           id="NCS-55A1-36H-S_Rear_corepath180"
           fill="#4d4d4d" /></g><g
         id="NCS-55A1-36H-S_Rear_coreg192"><path
           class="NCS-55A1-36H-S_Rear_corest13"
           d="M1330.7 59.1h-6.4v-4.4h1.1v3.1h1.5v-2.7h1.1v2.7h2.7z"
           id="NCS-55A1-36H-S_Rear_corepath184"
           fill="#4d4d4d" /><path
           class="NCS-55A1-36H-S_Rear_corest13"
           d="M1330.7 48.4v1.4l-1.5.6V53l1.5.5v1.4l-6.4-2.5V51zm-2.6 2.4l-2.4.9 2.4.9z"
           id="NCS-55A1-36H-S_Rear_corepath186"
           fill="#4d4d4d" /><path
           class="NCS-55A1-36H-S_Rear_corest13"
           d="M1330.7 47.8h-6.4v-1.3l4.3-2.6h-4.3v-1.2h6.4V44l-4.2 2.6h4.2z"
           id="NCS-55A1-36H-S_Rear_corepath188"
           fill="#4d4d4d" /><path
           class="NCS-55A1-36H-S_Rear_corest13"
           d="M1329 34.5l-.1-1.2c.3 0 .5-.1.7-.3.2-.2.2-.4.2-.6 0-.3-.1-.5-.3-.6-.2-.2-.5-.3-.8-.3-.3 0-.6.1-.7.3-.1.2-.3.4-.3.6 0 .2 0 .3.1.6l-1-.1c0-.3-.1-.6-.2-.8-.2-.2-.4-.3-.6-.3-.2 0-.4.1-.5.2-.1.1-.2.3-.2.5s.1.4.2.5c.1.1.4.2.6.3l-.2 1.1c-.4-.1-.7-.2-.9-.4-.2-.2-.4-.4-.5-.7-.1-.3-.2-.6-.2-1 0-.6.2-1.1.6-1.5.3-.3.7-.5 1.1-.5.6 0 1 .3 1.4.9.1-.4.3-.7.5-.9.3-.2.6-.3 1-.3.6 0 1 .2 1.4.6.4.4.6.9.6 1.5s-.2 1.1-.5 1.5c-.5.6-.9.8-1.4.9z"
           id="NCS-55A1-36H-S_Rear_corepath190"
           fill="#4d4d4d" /></g><path
         class="NCS-55A1-36H-S_Rear_corest13"
         id="NCS-55A1-36H-S_Rear_corepolygon194"
         fill="#4d4d4d"
         d="M1331 17.7l-7 4.1 7 4z" /><path
         class="NCS-55A1-36H-S_Rear_corest13"
         id="NCS-55A1-36H-S_Rear_corepolygon196"
         fill="#4d4d4d"
         d="M1325 102.8l7-4-7-4.1z" /></g></g><text
     xml:space="preserve"
     style="font-style:normal;font-weight:normal;font-size:40px;line-height:1.25;font-family:sans-serif;fill:#000000;fill-opacity:1;stroke:none"
     x="130.63341"
     y="114.7025"
     id="text110"><tspan
       sodipodi:role="line"
       id="tspan108"
       x="130.63341"
       y="114.7025" /></text></svg>
