<?xml version="1.0" encoding="utf-8"?>
<!-- Generator: Adobe Illustrator 19.2.1, SVG Export Plug-In . SVG Version: 6.00 Build 0)  -->
<svg version="1.1" id="Layer_1" xmlns="http://www.w3.org/2000/svg" xmlns:xlink="http://www.w3.org/1999/xlink" x="0px" y="0px"
	 viewBox="0 0 16 16" style="enable-background:new 0 0 16 16;" xml:space="preserve">
<style type="text/css">
	.st0{fill:#FFFFFF;}
	.st1{fill:#FF7300;}
	 @keyframes pulse {
   100% {
    opacity: 0;
 }
 }
</style>
<g style="animation: pulse 2s ease-out infinite;">
	<path class="st0" d="M14.5,1.1H1.5c-1.4,0-1.9,1-1.2,2.2L6.7,14c0.7,1.2,1.9,1.2,2.6,0l6.4-10.7C16.4,2.1,15.8,1.1,14.5,1.1z"/>
	<path class="st1" d="M14.5,1.1H1.5c-1.4,0-1.9,1-1.2,2.2L6.7,14c0.7,1.2,1.9,1.2,2.6,0l6.4-10.7C16.4,2.1,15.8,1.1,14.5,1.1z
		 M8,12.7c-0.7,0-1.3-0.5-1.3-1.1s0.6-1.1,1.3-1.1s1.3,0.5,1.3,1.1S8.7,12.7,8,12.7z M9.1,7.6C9,8.8,8.5,9.7,8,9.7s-1-1-1.1-2.1
		S6.6,5,6.6,4.4S7.2,3.3,8,3.3s1.4,0.5,1.4,1.1S9.3,6.4,9.1,7.6z"/>
	
</g>
</svg>

