<?xml version="1.0" encoding="utf-8"?>
<!-- Generator: Adobe Illustrator 19.2.1, SVG Export Plug-In . SVG Version: 6.00 Build 0)  -->
<svg version="1.1" id="Layer_1" xmlns="http://www.w3.org/2000/svg" xmlns:xlink="http://www.w3.org/1999/xlink" x="0px" y="0px"
	 viewBox="0 0 16 16" style="enable-background:new 0 0 16 16;" xml:space="preserve">
<style type="text/css">
	.st0{fill:#FFFFFF;}
	.st1{fill:#EB2300;}
	 @keyframes pulse {
   100% {
    opacity: 0;
 }
 }
 
</style>
<g style="animation: pulse 1s ease-out infinite;">
	<path class="st0" d="M11.3,0H4.7L0,4.7v6.6L4.7,16h6.6l4.7-4.7V4.7L11.3,0z"/>
	<path class="st1" d="M11.3,0H4.7L0,4.7v6.6L4.7,16h6.6l4.7-4.7V4.7L11.3,0z M12.3,10.8c0.4,0.4,0.4,1.1,0,1.5
		c-0.4,0.4-1.1,0.4-1.5,0L8.2,9.7l-2.6,2.6c-0.4,0.4-1.1,0.4-1.5,0c-0.4-0.4-0.4-1.1,0-1.5l2.6-2.6L4,5.5C3.6,5.1,3.6,4.4,4,4
		c0.4-0.4,1.1-0.4,1.5,0l2.6,2.7L10.8,4c0.4-0.4,1.1-0.4,1.5,0c0.4,0.4,0.4,1.1,0,1.5L9.6,8.2L12.3,10.8z"/>
	
</g>
</svg>
