<?xml version="1.0" encoding="utf-8"?>
<!-- Generator: Adobe Illustrator 19.2.1, SVG Export Plug-In . SVG Version: 6.00 Build 0)  -->
<svg version="1.1" id="Layer_1" xmlns="http://www.w3.org/2000/svg" xmlns:xlink="http://www.w3.org/1999/xlink" x="0px" y="0px"
	 viewBox="0 0 16 16" style="enable-background:new 0 0 16 16;" xml:space="preserve">
<style type="text/css">
	.st0{fill:#FFFFFF;}
	.st1{fill:#FFCC00;}
	 @keyframes pulse {
   100% {
    opacity: 0;
 }
 }
</style>
<g style="animation: pulse 3s ease-out infinite;">
	<path class="st0" d="M15.7,12.7L9.3,2C8.6,0.8,7.4,0.8,6.7,2L0.3,12.7c-0.7,1.2-0.2,2.2,1.2,2.2h12.9
		C15.8,14.9,16.4,13.9,15.7,12.7z"/>
	<path class="st1" d="M15.7,12.7L9.3,2C8.6,0.8,7.4,0.8,6.7,2L0.3,12.7c-0.7,1.2-0.2,2.2,1.2,2.2h12.9
		C15.8,14.9,16.4,13.9,15.7,12.7z M8,13.6c-0.7,0-1.3-0.5-1.3-1.2s0.6-1.2,1.3-1.2s1.3,0.5,1.3,1.2C9.3,13.1,8.7,13.6,8,13.6z
		 M9.1,8.4C9,9.6,8.5,10.6,8,10.6s-1-1-1.1-2.2C6.7,7.2,6.6,5.7,6.6,5.1S7.2,4,8,4s1.4,0.5,1.4,1.1S9.3,7.2,9.1,8.4z"/>
	
</g>
</svg>
