<?xml version="1.0" encoding="utf-8"?>
<!-- Generator: Adobe Illustrator 19.2.1, SVG Export Plug-In . SVG Version: 6.00 Build 0)  -->
<svg version="1.1" id="Layer_1" xmlns="http://www.w3.org/2000/svg" xmlns:xlink="http://www.w3.org/1999/xlink" x="0px" y="0px"
	 viewBox="0 0 16 16" style="enable-background:new 0 0 16 16;" xml:space="preserve">
<style type="text/css">
	.st0{fill:#FFFFFF;}
	.st1{fill:#EB2300;}
</style>
<g>
	<path class="st0" d="M16,8c0-4.4-3.6-8-8-8S0,3.6,0,8c0,4.4,3.6,8,8,8S16,12.4,16,8z"/>
	<path class="st1" d="M16,8c0-4.4-3.6-8-8-8S0,3.6,0,8c0,4.4,3.6,8,8,8S16,12.4,16,8z M7.4,12.7L3.5,8.9C3.2,8.5,3.2,8,3.5,7.7
		s0.9-0.3,1.2,0l2.5,2.5V3.8C7.2,3.4,7.6,3,8,3c0.5,0,0.8,0.3,0.8,0.8v6.3l2.5-2.4c0.3-0.3,0.9-0.3,1.2,0s0.3,0.9,0,1.2l-3.9,3.9
		C8.3,13.1,7.8,13.1,7.4,12.7z"/>
</g>
</svg>
