<?xml version="1.0" encoding="utf-8"?>
<!-- Generator: Adobe Illustrator 19.2.1, SVG Export Plug-In . SVG Version: 6.00 Build 0)  -->
<svg version="1.1" id="Layer_1" xmlns="http://www.w3.org/2000/svg" xmlns:xlink="http://www.w3.org/1999/xlink" x="0px" y="0px"
	 viewBox="0 0 16 16" style="enable-background:new 0 0 16 16;" xml:space="preserve">
<style type="text/css">
	.st0{fill:#FFFFFF;}
	.st1{fill:#A55B10;}
</style>
<g>
	<path class="st0" d="M15.3,2.3c-0.4-0.4-1.7-1.7-1.7-1.7s-0.4-0.2-0.7,0.1c-0.4,0.4-1.7,0.9-2.7,0.1L9.7,0.4c0,0,0-0.4-1-0.4
		C8.5,0,8.4,0,8.3,0c0,0,0,0-0.6,0C7.6,0,7.5,0,7.3,0c-1,0-1,0.4-1,0.4L5.9,0.9c-1,0.7-2.3,0.2-2.7-0.1C2.8,0.4,2.5,0.6,2.5,0.6
		S1.1,1.9,0.7,2.3S0.9,3,0.9,3c0.7,0.9,0.8,1.6,0.9,2.1v6.7h0l0,0.1c0,0,0.1,2.7,3.8,2.7c0,0,1.6-0.1,2.1,1.3c0,0,0.1,0.1,0.3,0.1
		c0.2,0,0.3-0.1,0.3-0.1c0.6-1.4,2.1-1.3,2.1-1.3c3.7,0,3.8-2.7,3.8-2.7l0-0.1h0V5.4h0c0,0-0.1-1.1,0.9-2.4
		C15.1,3,15.6,2.6,15.3,2.3z"/>
	<path class="st1" d="M15.3,2.3c-0.4-0.4-1.7-1.7-1.7-1.7s-0.4-0.2-0.7,0.1c-0.4,0.4-1.7,0.9-2.7,0.1L9.7,0.4c0,0,0-0.4-1-0.4
		C8.5,0,8.4,0,8.3,0c0,0,0,0-0.6,0C7.6,0,7.5,0,7.3,0c-1,0-1,0.4-1,0.4L5.9,0.9c-1,0.7-2.3,0.2-2.7-0.1C2.8,0.4,2.5,0.6,2.5,0.6
		S1.1,1.9,0.7,2.3S0.9,3,0.9,3c0.7,0.9,0.8,1.6,0.9,2.1v6.7h0l0,0.1c0,0,0.1,2.7,3.8,2.7c0,0,1.6-0.1,2.1,1.3c0,0,0.1,0.1,0.3,0.1
		c0.2,0,0.3-0.1,0.3-0.1c0.6-1.4,2.1-1.3,2.1-1.3c3.7,0,3.8-2.7,3.8-2.7l0-0.1h0V5.4h0c0,0-0.1-1.1,0.9-2.4
		C15.1,3,15.6,2.6,15.3,2.3z M11.7,10.4c0.4,0.4,0.4,1,0,1.3c-0.4,0.4-1,0.4-1.3,0L8,9.3l-2.4,2.4c-0.4,0.4-1,0.4-1.3,0
		c-0.4-0.4-0.4-1,0-1.3L6.7,8L4.3,5.6c-0.4-0.4-0.4-1,0-1.3c0.4-0.4,1-0.4,1.3,0L8,6.7l2.4-2.4c0.4-0.4,1-0.4,1.3,0
		c0.4,0.4,0.4,1,0,1.3L9.3,8L11.7,10.4z"/>
</g>
</svg>
