<?xml version="1.0" encoding="utf-8"?>
<!-- Generator: Adobe Illustrator 19.2.1, SVG Export Plug-In . SVG Version: 6.00 Build 0)  -->
<svg version="1.1" id="Layer_1" xmlns="http://www.w3.org/2000/svg" xmlns:xlink="http://www.w3.org/1999/xlink" x="0px" y="0px"
	 viewBox="0 0 16 16" style="enable-background:new 0 0 16 16;" xml:space="preserve">
<style type="text/css">
	.st0{fill:#FFFFFF;}
	.st1{fill:#00CFD2;}
</style>
<g>
	<path class="st0" d="M15.7,7.2l-1.4-1.4L9.6,1.1L8.8,0.3c-0.5-0.5-1.2-0.5-1.6,0L6.4,1.1L1.8,5.7L0.3,7.2c-0.5,0.5-0.5,1.2,0,1.6
		l6.8,6.8c0.5,0.5,1.2,0.5,1.6,0l6.8-6.8C16.1,8.4,16.1,7.6,15.7,7.2z"/>
	<path class="st1" d="M15.7,7.2l-1.4-1.4L9.6,1.1L8.8,0.3c-0.5-0.5-1.2-0.5-1.6,0L6.4,1.1L1.8,5.7L0.3,7.2c-0.5,0.5-0.5,1.2,0,1.6
		l6.8,6.8c0.5,0.5,1.2,0.5,1.6,0l6.8-6.8C16.1,8.4,16.1,7.6,15.7,7.2z M8,12.7c-0.7,0-1.3-0.5-1.3-1.1c0-0.6,0.6-1.1,1.3-1.1
		s1.3,0.5,1.3,1.1C9.3,12.1,8.7,12.7,8,12.7z M6.6,4.4c0-0.6,0.6-1.1,1.4-1.1c0.8,0,1.4,0.5,1.4,1.1c0,0.6-0.1,2-0.3,3.2
		C9,8.8,8.5,9.7,8,9.7s-1-1-1.1-2.1C6.7,6.4,6.6,5,6.6,4.4z"/>
</g>
</svg>
