<?xml version="1.0" encoding="utf-8"?>
<!-- Generator: Adobe Illustrator 19.2.1, SVG Export Plug-In . SVG Version: 6.00 Build 0)  -->
<svg version="1.1" id="Layer_1" xmlns="http://www.w3.org/2000/svg" xmlns:xlink="http://www.w3.org/1999/xlink" x="0px" y="0px"
	 viewBox="0 0 16 16" style="enable-background:new 0 0 16 16;" xml:space="preserve">
<style type="text/css">
	.st0{fill:#FFFFFF;}
	.st1{fill:#7CBB59;}
</style>
<g>
	<path class="st0" d="M0,8c0,4.4,3.6,8,8,8s8-3.6,8-8s-3.6-8-8-8S0,3.6,0,8z"/>
	<path class="st1" d="M0,8c0,4.4,3.6,8,8,8s8-3.6,8-8s-3.6-8-8-8S0,3.6,0,8z M8.6,3.3l3.9,3.9c0.3,0.3,0.3,0.9,0,1.2s-0.9,0.3-1.2,0
		L8.8,5.8v6.3C8.8,12.6,8.4,13,8,13c-0.5,0-0.8-0.3-0.8-0.8V5.9L4.7,8.3c-0.3,0.3-0.9,0.3-1.2,0s-0.3-0.9,0-1.2l3.9-3.9
		C7.7,2.9,8.2,2.9,8.6,3.3z"/>
</g>
</svg>
