<?xml version="1.0" encoding="UTF-8" standalone="no"?>
<svg
   xmlns:dc="http://purl.org/dc/elements/1.1/"
   xmlns:cc="http://creativecommons.org/ns#"
   xmlns:rdf="http://www.w3.org/1999/02/22-rdf-syntax-ns#"
   xmlns:svg="http://www.w3.org/2000/svg"
   xmlns="http://www.w3.org/2000/svg"
   xmlns:sodipodi="http://sodipodi.sourceforge.net/DTD/sodipodi-0.dtd"
   xmlns:inkscape="http://www.inkscape.org/namespaces/inkscape"
   width="280.1"
   height="157"
   viewBox="0 0 280.1 157"
   version="1.1"
   id="svg158"
   sodipodi:docname="NCS-5502-Rear-powersupply.svg"
   inkscape:version="1.0.1 (3bc2e813f5, 2020-09-07)">
  <metadata
     id="metadata164">
    <rdf:RDF>
      <cc:Work
         rdf:about="">
        <dc:format>image/svg+xml</dc:format>
        <dc:type
           rdf:resource="http://purl.org/dc/dcmitype/StillImage" />
      </cc:Work>
    </rdf:RDF>
  </metadata>
  <defs
     id="defs162" />
  <sodipodi:namedview
     pagecolor="#ffffff"
     bordercolor="#666666"
     borderopacity="1"
     objecttolerance="10"
     gridtolerance="10"
     guidetolerance="10"
     inkscape:pageopacity="0"
     inkscape:pageshadow="2"
     inkscape:window-width="1280"
     inkscape:window-height="658"
     id="namedview160"
     showgrid="false"
     inkscape:zoom="3.1210191"
     inkscape:cx="140.05"
     inkscape:cy="78.5"
     inkscape:window-x="-6"
     inkscape:window-y="-6"
     inkscape:window-maximized="1"
     inkscape:current-layer="svg158" />
  <path
     d="M275 31h5V6.6c0-3.1-2.5-5.6-5.6-5.6H136v4h137.4c.8 0 1.6.8 1.6 1.6z"
     clip-rule="evenodd"
     fill="#818181"
     fill-rule="evenodd"
     id="path2" />
  <path
     stroke-miterlimit="2"
     d="M275 31h5V6.6c0-3.1-2.5-5.6-5.6-5.6H136v4h137.4c.8 0 1.6.8 1.6 1.6v0z"
     fill="none"
     stroke="gray"
     stroke-width=".06"
     stroke-linecap="square"
     id="path4" />
  <path
     clip-rule="evenodd"
     fill="#8f8f8f"
     fill-rule="evenodd"
     d="M275 28h5v4h-5z"
     id="path6" />
  <path
     stroke-miterlimit="2"
     fill="none"
     stroke="gray"
     stroke-width=".06"
     stroke-linecap="square"
     d="M280 27v4h-5v-4"
     id="path8" />
  <path
     clip-rule="evenodd"
     fill="#8f8f8f"
     fill-rule="evenodd"
     d="M136 2h14v4h-14z"
     id="path10" />
  <path
     stroke-miterlimit="2"
     fill="none"
     stroke="gray"
     stroke-width=".06"
     stroke-linecap="square"
     d="M150 6h-14V2h14"
     id="path12" />
  <g
     id="g156">
    <path
       d="M250 152v5h24.4c3.1 0 5.6-2.5 5.6-5.6V13h-4v137.4c0 .8-.8 1.6-1.6 1.6z"
       clip-rule="evenodd"
       fill="#c4c4c4"
       fill-rule="evenodd"
       id="path14" />
    <path
       stroke-miterlimit="2"
       d="M250 152v5h24.4c3.1 0 5.6-2.5 5.6-5.6V13h-4v137.4c0 .8-.8 1.6-1.6 1.6v0z"
       fill="none"
       stroke="gray"
       stroke-width=".06"
       stroke-linecap="square"
       id="path16" />
    <path
       clip-rule="evenodd"
       fill="#8f8f8f"
       fill-rule="evenodd"
       d="M250 152h4v5h-4z"
       id="path18" />
    <path
       stroke-miterlimit="2"
       fill="none"
       stroke="gray"
       stroke-width=".06"
       stroke-linecap="square"
       d="M254 157h-4v-5h4"
       id="path20" />
    <path
       clip-rule="evenodd"
       fill="#8f8f8f"
       fill-rule="evenodd"
       d="M280 13v14h-4V13z"
       id="path22" />
    <path
       stroke-miterlimit="2"
       fill="none"
       stroke="gray"
       stroke-width=".06"
       stroke-linecap="square"
       d="M276 27V13h4v14"
       id="path24" />
    <g
       id="g38">
      <path
         d="M30 152v5H5.6c-3.1 0-5.6-2.5-5.6-5.6V13h4v137.4c0 .8.8 1.6 1.6 1.6z"
         clip-rule="evenodd"
         fill="#c4c4c4"
         fill-rule="evenodd"
         id="path26" />
      <path
         stroke-miterlimit="2"
         d="M30 152v5H5.6c-3.1 0-5.6-2.5-5.6-5.6V13h4v137.4c0 .8.8 1.6 1.6 1.6v0z"
         fill="none"
         stroke="gray"
         stroke-width=".06"
         stroke-linecap="square"
         id="path28" />
      <path
         clip-rule="evenodd"
         fill="#8f8f8f"
         fill-rule="evenodd"
         d="M27 152h4v5h-4z"
         id="path30" />
      <path
         stroke-miterlimit="2"
         fill="none"
         stroke="gray"
         stroke-width=".06"
         stroke-linecap="square"
         d="M26 157h4v-5h-4"
         id="path32" />
      <path
         clip-rule="evenodd"
         fill="#8f8f8f"
         fill-rule="evenodd"
         d="M1 13v14h4V13z"
         id="path34" />
      <path
         stroke-miterlimit="2"
         fill="none"
         stroke="gray"
         stroke-width=".06"
         stroke-linecap="square"
         d="M5 27V13H1v14"
         id="path36" />
    </g>
    <g
       id="g154">
      <path
         fill="#1a1a1a"
         d="M9 4h145v142H9z"
         id="path40" />
      <path
         d="M147 0H16C10.5 0 6 4.5 6 10v139.4c0 .9.7 1.6 1.6 1.6H147c5.5 0 10-4.5 10-10V10c0-5.5-4.4-10-10-10zM91 8h21.1c1.4 0 2.7.5 3.8 1.3l14.7 11.9-13 13c-8.8-7.8-20.2-12.8-32.7-13.6V14c.1-3.3 2.8-6 6.1-6zm-6 110.6c9-.7 17.1-4.2 23.7-9.6l5.6 5.6c-8 6.8-18.2 11.2-29.3 12zm29-14.7c5.9-6.7 9.8-15.4 10.6-24.9h8c-.8 11.7-5.5 22.3-12.9 30.5zM124.6 72c-.7-9.3-4.4-17.7-10.1-24.4l5.6-5.6c7.1 8.1 11.7 18.5 12.5 30zM85 24.9c11.4.8 21.7 5.3 29.8 12.4l-5.6 5.6c-6.6-5.6-15-9.3-24.2-10zm-41.7 84c-7.1-8.1-11.6-18.5-12.4-29.9h8c.7 9.2 4.4 17.6 10 24.3zm5.2-60.7C43.1 54.8 39.6 63 38.9 72h-8c.8-11.2 5.1-21.4 12-29.4zm-.9-10.3C55.8 30.5 66.4 25.8 78 25v8c-9.5.8-18.1 4.6-24.8 10.6zM50.9 8H72c3.3 0 6 2.7 6 6v6.7c-12.8.8-24.3 6-33.3 14.1l-13-13L47.1 9.3c1.1-.8 2.4-1.3 3.8-1.3zM10 36c0-2.2 1.8-4 4-4h3.9c1.4 0 2.7-.5 3.8-1.3l4.3-3.5 13.3 13.3C31.9 49.1 27.2 60 26.4 72H13V41h-3zm4 84c-2.2 0-4-1.8-4-4v-5h3V79h13.7c.8 12.5 5.8 23.9 13.6 32.8l-12.5 12.5c-.6.6-1.5.6-2.2.1l-3.8-3.1c-1.1-.9-2.4-1.3-3.8-1.3zm58 23H49.4c-.4 0-.7-.1-1-.4l-14.6-11.8c-.8-.6-.8-1.7-.1-2.4l11.7-11.7c8.9 7.8 20.2 12.8 32.8 13.7v6.7c-.2 3.2-2.9 5.9-6.2 5.9zm6-16.4c-11.4-.8-21.8-5.4-29.9-12.5l5.6-5.6c6.7 5.7 15.1 9.4 24.3 10.1zm34.2 16.4H91c-3.3 0-6-2.7-6-6v-6.7c12.2-.8 23.4-5.6 32.2-13.1l12.9 12.9-14.2 11.5c-1 .9-2.4 1.4-3.7 1.4zm40.8-27c0 2.2-1.8 4-4 4h-4c-1.4 0-2.7.5-3.8 1.3l-5.6 4.5-13.4-13.4c8.1-9 13.3-20.6 14.1-33.4H150v32h3zm0-75h-3v31h-13.4c-.8-12.3-5.7-23.4-13.4-32.1l13.2-13.2 4.9 4c1.1.9 2.4 1.3 3.8 1.3h3.9c2.2 0 4 1.8 4 4z"
         fill="#c0bfbf"
         id="path42" />
      <path
         d="M81.7 107.8c-17.6 0-32-14.4-32-32s14.4-32 32-32 32 14.4 32 32-14.3 32-32 32zm0-60c-15.4 0-28 12.6-28 28s12.6 28 28 28 28-12.6 28-28c0-15.5-12.6-28-28-28z"
         fill="#989898"
         id="path44" />
      <path
         d="M81.7 44.3c17.4 0 31.5 14.1 31.5 31.5s-14.1 31.5-31.5 31.5-31.5-14.2-31.5-31.5 14.1-31.5 31.5-31.5m0 60c15.7 0 28.5-12.8 28.5-28.5S97.4 47.3 81.7 47.3 53.2 60.1 53.2 75.8s12.8 28.5 28.5 28.5m0-61c-17.9 0-32.5 14.6-32.5 32.5s14.6 32.5 32.5 32.5 32.5-14.6 32.5-32.5-14.6-32.5-32.5-32.5zm0 60c-15.2 0-27.5-12.3-27.5-27.5s12.3-27.5 27.5-27.5 27.5 12.3 27.5 27.5-12.3 27.5-27.5 27.5z"
         fill="#4e4e4e"
         id="path46" />
      <path
         d="M81.7 106.3c-16.8 0-30.5-13.7-30.5-30.5s13.7-30.5 30.5-30.5 30.5 13.7 30.5 30.5-13.7 30.5-30.5 30.5zm0-60c-16.3 0-29.5 13.2-29.5 29.5s13.2 29.5 29.5 29.5 29.5-13.2 29.5-29.5S98 46.3 81.7 46.3z"
         fill="#e6e6e5"
         id="path48" />
      <path
         d="M81.7 129.8c-29.8 0-54-24.2-54-54s24.2-54 54-54 54 24.2 54 54-24.2 54-54 54zm0-103c-27 0-49 22-49 49s22 49 49 49 49-22 49-49-22-49-49-49z"
         fill="#989898"
         id="path50" />
      <path
         d="M81.7 22.3c29.5 0 53.5 24 53.5 53.5s-24 53.5-53.5 53.5-53.5-24-53.5-53.5 24-53.5 53.5-53.5m0 103c27.3 0 49.5-22.2 49.5-49.5S109 26.3 81.7 26.3 32.2 48.5 32.2 75.8s22.2 49.5 49.5 49.5m0-104c-30.1 0-54.5 24.4-54.5 54.5s24.4 54.5 54.5 54.5 54.5-24.4 54.5-54.5-24.4-54.5-54.5-54.5zm0 103c-26.7 0-48.5-21.8-48.5-48.5C33.2 49 55 27.3 81.7 27.3s48.5 21.8 48.5 48.5-21.7 48.5-48.5 48.5z"
         fill="#4e4e4e"
         id="path52" />
      <path
         d="M81.7 128.3c-28.9 0-52.5-23.6-52.5-52.5s23.6-52.5 52.5-52.5 52.5 23.6 52.5 52.5-23.5 52.5-52.5 52.5zm0-103.3c-28 0-50.8 22.8-50.8 50.8 0 28 22.8 50.8 50.8 50.8 28 0 50.8-22.8 50.8-50.8 0-28-22.8-50.8-50.8-50.8z"
         fill="#e6e6e5"
         id="path54" />
      <g
         id="g70">
        <path
           d="M25.5 128.8l43.1-43.1c5.5-5.5 5.5-14.3 0-19.8L25.5 22.8v-5.7l57 57c.9.9.9 2.5 0 3.4l-57 57z"
           fill="#989898"
           id="path56" />
        <path
           d="M26 18.3l56.1 56.1c.8.8.8 2 0 2.7L26 133.2V129l43-43c5.7-5.7 5.7-14.9 0-20.5l-43-43v-4.2m-1-2.4V23l43.3 43.3c5.3 5.3 5.3 13.8 0 19.1l-43.2 43.2s-.1.1-.1.2v6.3c0 .2.1.3.3.3.1 0 .1 0 .2-.1l57.4-57.4c1.1-1.1 1.1-3 0-4.1z"
           fill="#4e4e4e"
           id="path58" />
        <path
           d="M70.4 64.1L27 20.7v1.4l42.7 42.7c6 6 6 15.9 0 21.9l-42.2 42.2c-.3.3-.5.7-.5 1.2v.7l43.4-43.4c6.4-6.4 6.4-16.9 0-23.3z"
           fill="#e6e6e5"
           id="path60" />
        <g
           id="g68">
          <path
             d="M92.6 88.5c-3.4-3.4-5.3-7.9-5.3-12.7 0-4.8 1.9-9.3 5.3-12.7l45.9-45.9v5.7l-43.1 43c-5.5 5.5-5.5 14.3 0 19.8l43.1 43.1v5.7z"
             fill="#989898"
             id="path62" />
          <path
             d="M138 18.3v4.2l-43 43c-5.7 5.7-5.7 14.9 0 20.5l43 43v4.2L92.9 88.1c-6.8-6.8-6.8-17.9 0-24.7L138 18.3m1-2.4L92.2 62.7c-7.2 7.2-7.2 18.9 0 26.2l46.8 46.8v-7.1L95.8 85.3c-5.3-5.3-5.3-13.8 0-19.1L139 23z"
             fill="#4e4e4e"
             id="path64" />
          <path
             d="M93.6 64.1L137 20.7v1.4L94.4 64.8c-6 6-6 15.9 0 21.9l42.7 42.7v1.4L93.6 87.4c-6.4-6.4-6.4-16.9 0-23.3z"
             fill="#e6e6e5"
             id="path66" />
        </g>
      </g>
      <g
         id="g110">
        <circle
           transform="rotate(-45.001 140.77 16.079)"
           stroke-miterlimit="10"
           cx="140.8"
           cy="16.1"
           r="12"
           clip-rule="evenodd"
           fill="#d9d9d8"
           fill-rule="evenodd"
           stroke="#4e4e4e"
           stroke-width=".4"
           id="circle72" />
        <circle
           transform="rotate(-45.001 141.03 16.002)"
           stroke-miterlimit="10"
           cx="141"
           cy="16"
           r="11"
           clip-rule="evenodd"
           fill="#d9d9d8"
           fill-rule="evenodd"
           stroke="#4e4e4e"
           stroke-width=".4"
           id="circle74" />
        <path
           fill="#4e4e4e"
           d="M139 9h3v14h-3z"
           id="path76" />
        <path
           fill="#4e4e4e"
           d="M134 15h14v3h-14z"
           id="path78" />
        <g
           id="g88">
          <circle
             transform="rotate(-45.001 140.769 134.4)"
             stroke-miterlimit="10"
             cx="140.8"
             cy="134.4"
             r="12"
             clip-rule="evenodd"
             fill="#d9d9d8"
             fill-rule="evenodd"
             stroke="#4e4e4e"
             stroke-width=".4"
             id="circle80" />
          <circle
             transform="rotate(-45.001 141.03 134.002)"
             stroke-miterlimit="10"
             cx="141"
             cy="134"
             r="11"
             clip-rule="evenodd"
             fill="#d9d9d8"
             fill-rule="evenodd"
             stroke="#4e4e4e"
             stroke-width=".4"
             id="circle82" />
          <path
             fill="#4e4e4e"
             d="M139 127h3v14h-3z"
             id="path84" />
          <path
             fill="#4e4e4e"
             d="M134 133h14v3h-14z"
             id="path86" />
        </g>
        <g
           id="g108">
          <circle
             transform="rotate(-45.001 22.407 16.077)"
             stroke-miterlimit="10"
             cx="22.4"
             cy="16.1"
             r="12"
             clip-rule="evenodd"
             fill="#d9d9d8"
             fill-rule="evenodd"
             stroke="#4e4e4e"
             stroke-width=".4"
             id="circle90" />
          <circle
             transform="rotate(-45.001 22.03 16)"
             stroke-miterlimit="10"
             cx="22"
             cy="16"
             r="11"
             clip-rule="evenodd"
             fill="#d9d9d8"
             fill-rule="evenodd"
             stroke="#4e4e4e"
             stroke-width=".4"
             id="circle92" />
          <path
             fill="#4e4e4e"
             d="M21 9h3v14h-3z"
             id="path94" />
          <path
             fill="#4e4e4e"
             d="M15 15h14v3H15z"
             id="path96" />
          <g
             id="g106">
            <path
               stroke-miterlimit="10"
               d="M22.1 146.8c-15.6-2.3-15.6-22.4 0-24.7h.5c15.6 2.3 15.6 22.4 0 24.7h-.5z"
               clip-rule="evenodd"
               fill="#d9d9d8"
               fill-rule="evenodd"
               stroke="#4e4e4e"
               stroke-width=".4"
               id="path98" />
            <circle
               transform="rotate(-45.001 22.029 134.001)"
               stroke-miterlimit="10"
               cx="22"
               cy="134"
               r="11"
               clip-rule="evenodd"
               fill="#d9d9d8"
               fill-rule="evenodd"
               stroke="#4e4e4e"
               stroke-width=".4"
               id="circle100" />
            <path
               d="M21 139.4v-10c0-.8.7-1.5 1.5-1.5s1.5.7 1.5 1.5v10c0 .8-.7 1.5-1.5 1.5s-1.5-.7-1.5-1.5z"
               fill="#4e4e4e"
               id="path102" />
            <path
               d="M15.9 134.5c0-.8.7-1.5 1.5-1.5h10c.8 0 1.5.7 1.5 1.5s-.7 1.5-1.5 1.5h-10c-.8 0-1.5-.7-1.5-1.5z"
               fill="#4e4e4e"
               id="path104" />
          </g>
        </g>
      </g>
      <g
         id="g116">
        <path
           d="M34 146.5c-14 0-25.5-11.4-25.5-25.5V43.5h8v15.9c0 1.9 1.2 3.6 3 4.2V121c0 8 6.5 14.5 14.5 14.5h96c8 0 14.5-6.5 14.5-14.5V63.6c1.8-.6 3-2.3 3-4.2V43.5h8V121c0 14.1-11.4 25.5-25.5 25.5z"
           fill="#333"
           id="path112" />
        <path
           d="M155 44v77c0 13.8-11.2 25-25 25H34c-13.8 0-25-11.2-25-25V44h7v15.4c0 2 1.2 3.8 3 4.6v57c0 8.3 6.7 15 15 15h96c8.3 0 15-6.7 15-15V63.9c1.8-.8 3-2.6 3-4.6V44h7m1-1h-9v16.4c0 1.9-1.3 3.4-3 3.8V121c0 7.7-6.3 14-14 14H34c-7.7 0-14-6.3-14-14V63.2c-1.7-.5-3-2-3-3.8V43H8v78c0 14.4 11.6 26 26 26h96c14.4 0 26-11.6 26-26z"
           fill="#4e4e4e"
           id="path114" />
      </g>
      <path
         d="M20 60h-.5c-1.4 0-2.5-1.1-2.5-2.5V43h3zM143 60h.5c1.4 0 2.5-1.1 2.5-2.5V43h-3z"
         fill="#818181"
         id="path118" />
      <path
         d="M275 54V6h-43V2h-56v4h-20v144h120l-1-46h-20V54zm-16 60.6c4.2 0 7.6 3.4 7.6 7.6 0 4.2-3.4 7.6-7.6 7.6-4.2 0-7.6-3.4-7.6-7.6 0-4.2 3.4-7.6 7.6-7.6zm2-96.6c5.5 0 10 4.5 10 10s-4.5 10-10 10-10-4.5-10-10 4.5-10 10-10z"
         clip-rule="evenodd"
         fill="#c0bfbf"
         fill-rule="evenodd"
         id="path120" />
      <g
         id="g138">
        <path
           d="M159.1 122.5c-.8 0-1.5-.7-1.5-1.5V9c0-.8.7-1.5 1.5-1.5h88c.8 0 1.5.7 1.5 1.5v112c0 .8-.7 1.5-1.5 1.5z"
           clip-rule="evenodd"
           fill="#333"
           fill-rule="evenodd"
           id="path122" />
        <path
           d="M247 8c.6 0 1 .5 1 1v112c0 .6-.5 1-1 1h-88c-.6 0-1-.5-1-1V9c0-.6.5-1 1-1h88m0-1h-88c-1.1 0-2 .9-2 2v112c0 1.1.9 2 2 2h88c1.1 0 2-.9 2-2V9c0-1.1-.9-2-2-2z"
           fill="#989898"
           id="path124" />
        <g
           id="g136">
          <path
             stroke-miterlimit="2"
             d="M171 97.6V31.4c0-7.9 6.4-14.4 14.4-14.4h17.4c4 0 7.2 1.6 9.5 4L229 35.4c2.4 3.2 4 6.4 4 10.4v37.5c0 4-1.6 8-4 10.4L212.4 108c-2.4 2.4-5.6 4-9.5 4h-17.5c-8 0-14.4-6.4-14.4-14.4z"
             fill="none"
             stroke="#000"
             stroke-width=".06"
             stroke-linecap="round"
             stroke-linejoin="round"
             id="path126" />
          <path
             d="M171 97.6V31.4c0-7.9 6.4-14.4 14.4-14.4h17.4c4 0 7.2 1.6 9.5 4L229 35.4c2.4 3.2 4 6.4 4 10.4v37.5c0 4-1.6 8-4 10.4L212.4 108c-2.4 2.4-5.6 4-9.5 4h-17.5c-8 0-14.4-6.4-14.4-14.4z"
             clip-rule="evenodd"
             fill="#262626"
             fill-rule="evenodd"
             id="path128" />
          <path
             d="M215 68.2v-6.6c0-.9-.7-1.6-1.6-1.6h-11.6c-.4 0-.8.4-.8.8v7.4s0 .8.8.8h12.4c.8 0 .8-.8.8-.8zM199 45.4v-5.8c0-.9-.7-1.6-1.6-1.6h-12.6s-.8.8-.8 1.6v5.7c0 .8.8 1.6.8 1.6h12.6c.8.1 1.6-.7 1.6-1.5z"
             clip-rule="evenodd"
             fill="#818181"
             fill-rule="evenodd"
             id="path130" />
          <path
             d="M199 90.2v-6.4c0-.4-.4-.8-.8-.8h-13.4s-.8 0-.8.8v6.4l.8.8h12.6c.8 0 1.6-.8 1.6-.8z"
             clip-rule="evenodd"
             fill="#989898"
             fill-rule="evenodd"
             id="path132" />
          <path
             stroke-miterlimit="2"
             d="M215 68.2v-6.6c0-.9-.7-1.6-1.6-1.6h-11.6c-.4 0-.8.4-.8.8v7.4s0 .8.8.8h12.4c.8 0 .8-.8.8-.8zM199 45.4v-5.8c0-.9-.7-1.6-1.6-1.6h-12.6s-.8.8-.8 1.6v5.7c0 .8.8 1.6.8 1.6h12.6c.8.1 1.6-.7 1.6-1.5zM199 90.2v-6.4c0-.4-.4-.8-.8-.8h-13.4s-.8 0-.8.8v6.4l.8.8h12.6c.8 0 1.6-.8 1.6-.8z"
             fill="none"
             stroke="#8c8c8c"
             stroke-width=".06"
             stroke-linecap="round"
             stroke-linejoin="round"
             id="path134" />
        </g>
      </g>
      <g
         id="g152">
        <path
           d="M249 110.5c-4.7 0-8.5-3.8-8.5-8.5V60c0-4.7 3.8-8.5 8.5-8.5s8.5 3.8 8.5 8.5v42c0 4.7-3.8 8.5-8.5 8.5z"
           fill="#b4b4b4"
           id="path140" />
        <path
           d="M249 52c4.4 0 8 3.6 8 8v42c0 4.4-3.6 8-8 8s-8-3.6-8-8V60c0-4.4 3.6-8 8-8m0-1c-5 0-9 4-9 9v42c0 5 4 9 9 9s9-4 9-9V60c0-5-4-9-9-9z"
           fill="#4e4e4e"
           id="path142" />
        <g
           id="g150">
          <path
             fill="#989898"
             d="M258 63h10v36h-10z"
             id="path144" />
          <path
             fill="#4e4e4e"
             d="M268 63h6v36h-6z"
             id="path146" />
          <path
             fill="#ccc"
             d="M258 61h16v1h-16zM258 99h16v1h-16z"
             id="path148" />
        </g>
      </g>
    </g>
  </g>
  <text
     xml:space="preserve"
     style="font-style:normal;font-weight:normal;font-size:40px;line-height:1.25;font-family:sans-serif;fill:#000000;fill-opacity:1;stroke:none"
     x="185.19592"
     y="138.41634"
     id="text168"><tspan
       sodipodi:role="line"
       id="tspan166"
       x="185.19592"
       y="138.41634" /></text>
</svg>
