<?xml version="1.0" encoding="UTF-8" standalone="no"?>
<svg
   xmlns:dc="http://purl.org/dc/elements/1.1/"
   xmlns:cc="http://creativecommons.org/ns#"
   xmlns:rdf="http://www.w3.org/1999/02/22-rdf-syntax-ns#"
   xmlns:svg="http://www.w3.org/2000/svg"
   xmlns="http://www.w3.org/2000/svg"
   xmlns:sodipodi="http://sodipodi.sourceforge.net/DTD/sodipodi-0.dtd"
   xmlns:inkscape="http://www.inkscape.org/namespaces/inkscape"
   width="1670"
   height="165"
   viewBox="0 0 1670 165"
   version="1.1"
   id="svg150"
   sodipodi:docname="NCS-5501_Rear_core.svg"
   inkscape:version="1.0.1 (3bc2e813f5, 2020-09-07)">
  <metadata
     id="metadata156">
    <rdf:RDF>
      <cc:Work
         rdf:about="">
        <dc:format>image/svg+xml</dc:format>
        <dc:type
           rdf:resource="http://purl.org/dc/dcmitype/StillImage" />
      </cc:Work>
    </rdf:RDF>
  </metadata>
  <defs
     id="defs154" />
  <sodipodi:namedview
     pagecolor="#ffffff"
     bordercolor="#666666"
     borderopacity="1"
     objecttolerance="10"
     gridtolerance="10"
     guidetolerance="10"
     inkscape:pageopacity="0"
     inkscape:pageshadow="2"
     inkscape:window-width="1280"
     inkscape:window-height="658"
     id="namedview152"
     showgrid="false"
     inkscape:zoom="0.6239521"
     inkscape:cx="835"
     inkscape:cy="82.5"
     inkscape:window-x="-6"
     inkscape:window-y="-6"
     inkscape:window-maximized="1"
     inkscape:current-layer="svg150" />
  <path
     clip-rule="evenodd"
     fill="#cbcbca"
     fill-rule="evenodd"
     d="M.5.5h1669v164H.5z"
     id="path2" />
  <path
     d="M1669 1v163H1V1h1668m1-1H0v165h1670V0z"
     fill="#1a1a1a"
     id="path4" />
  <path
     d="M7 160.5c-1.9 0-3.5-1.6-3.5-3.5V7c0-1.9 1.6-3.5 3.5-3.5h1656c1.9 0 3.5 1.6 3.5 3.5v150c0 1.9-1.6 3.5-3.5 3.5H7z"
     clip-rule="evenodd"
     fill="#1a1a1a"
     fill-rule="evenodd"
     id="path6" />
  <path
     d="M1663 4c1.6 0 3 1.3 3 3v150c0 1.7-1.3 3-3 3H7c-1.6 0-3-1.3-3-3V7c0-1.7 1.3-3 3-3h1656m0-1H7C4.8 3 3 4.8 3 7v150c0 2.2 1.8 4 4 4h1656c2.2 0 4-1.8 4-4V7c0-2.2-1.8-4-4-4z"
     fill="#979797"
     id="path8" />
  <g
     clip-rule="evenodd"
     fill-rule="evenodd"
     id="g16">
    <path
       d="M22.2 159H7.8c-1.6 0-2.8-1.3-2.8-2.8V7.8C5 6.3 6.3 5 7.8 5h14.3C23.7 5 25 6.3 25 7.8v148.3c0 1.6-1.3 2.9-2.8 2.9z"
       fill="#b3b2b3"
       id="path10" />
    <path
       fill="#b3b2b3"
       d="M11.5 5h7v154h-7z"
       id="path12" />
    <path
       fill="#cbcbca"
       d="M8.5 5h3v154h-3zM18.5 5h3v154h-3z"
       id="path14" />
  </g>
  <path
     fill="#b3b2b3"
     d="M240.5 9h4.9l1-3h103.2l1 3h4.9V4h2v156h-119V4h2z"
     id="path18" />
  <path
     d="M357 4.5v155H239V4.5h1v5h5.7l.2-.7.8-2.3h102.6l.8 2.3.2.7h5.7v-5h1m1-1h-3v5h-4l-1-3H246l-1 3h-4v-5h-3v157h120V3.5z"
     fill="#676767"
     id="path20" />
  <path
     d="M243.5 159V11H273c.8 0 1.5.7 1.5 1.5v123c0 1.4 1.1 2.5 2.5 2.5h42c1.4 0 2.5-1.1 2.5-2.5v-123c0-.8.7-1.5 1.5-1.5h29.5v148h-109z"
     fill="#cbcbca"
     id="path22" />
  <path
     d="M352 11.5v147H244v-147h29c.6 0 1 .4 1 1v123c0 1.7 1.3 3 3 3h42c1.7 0 3-1.3 3-3v-123c0-.6.4-1 1-1h29m1-1h-30c-1.1 0-2 .9-2 2v123c0 1.1-.9 2-2 2h-42c-1.1 0-2-.9-2-2v-123c0-1.1-.9-2-2-2h-30v149h110v-149z"
     fill="#979797"
     id="path24" />
  <path
     clip-rule="evenodd"
     fill="#333"
     fill-rule="evenodd"
     d="M289.5 147.3h17v1.7h-17zM292 150.7h11.9v1.7H292zM294.6 154.1h6.8v1.7h-6.8zM297.1 140.5h1.7v6.8h-1.7z"
     id="path26" />
  <path
     d="M246.8 41.3v-10h2.7c1 0 1.6 0 1.9.1.5.2.9.5 1.2 1 .3.5.5 1.2.5 2 0 .7-.1 1.3-.4 1.8-.3.5-.6.8-1 1-.4.2-1.1.3-2.1.3h-1.1v3.8h-1.7zm1.7-8.4v2.9h.9c.6 0 1 0 1.3-.1.2-.1.4-.2.5-.5.1-.3.2-.5.2-.8 0-.3-.1-.6-.2-.8-.1-.2-.3-.4-.5-.5-.2-.1-.7-.1-1.4-.1h-.8zM254.5 41.3v-10h2.5l1.5 6.8 1.5-6.8h2.5v10H261v-7.9l-1.6 7.9h-1.6l-1.6-7.9v7.9h-1.7zM266.4 31.2c.8 0 1.4.4 1.9 1.1.5.8.7 2.1.7 4s-.2 3.2-.7 4c-.5.8-1.1 1.1-1.9 1.1-.8 0-1.4-.4-1.9-1.1-.5-.7-.7-2.1-.7-4s.2-3.2.7-4c.4-.7 1.1-1.1 1.9-1.1zm0 1.6c-.3 0-.6.2-.7.6-.2.4-.3 1.4-.3 2.9s.1 2.5.3 2.9c.2.4.4.6.7.6.3 0 .6-.2.7-.6.2-.4.3-1.4.3-2.9s-.1-2.5-.3-2.9c-.2-.4-.4-.6-.7-.6z"
     id="path28" />
  <g
     id="g32">
    <path
       d="M325.4 41.3v-10h5.6V33h-4v2.4h3.4V37H327v4.3h-1.6zM334.3 41.3V33h-2.4v-1.7h6.5V33H336v8.3h-1.7zM341.8 31.2c.8 0 1.4.4 1.9 1.1.5.8.7 2.1.7 4s-.2 3.2-.7 4c-.5.8-1.1 1.1-1.9 1.1-.8 0-1.4-.4-1.9-1.1-.5-.7-.7-2.1-.7-4s.2-3.2.7-4c.4-.7 1.1-1.1 1.9-1.1zm0 1.6c-.3 0-.6.2-.7.6-.2.4-.3 1.4-.3 2.9s.1 2.5.3 2.9c.2.4.4.6.7.6.3 0 .6-.2.7-.6.2-.4.3-1.4.3-2.9s-.1-2.5-.3-2.9c-.2-.4-.4-.6-.7-.6z"
       id="path30" />
  </g>
  <path
     clip-rule="evenodd"
     fill-rule="evenodd"
     d="M256.5 28.6l-11.2-7.2 11.2-7.2zM337 28.6l11.2-7.2-11.2-7.2z"
     id="path34" />
  <g
     id="g46">
    <path
       d="M298 105c-6.9 0-12.5-5.6-12.5-12.5S291.1 80 298 80s12.5 5.6 12.5 12.5S304.9 105 298 105z"
       fill="#e5e5e4"
       id="path36" />
    <path
       d="M298 80.5c6.6 0 12 5.4 12 12s-5.4 12-12 12-12-5.4-12-12 5.4-12 12-12m0-1c-7.2 0-13 5.8-13 13s5.8 13 13 13 13-5.8 13-13-5.8-13-13-13z"
       fill="#595a5a"
       id="path38" />
    <g
       id="g44">
      <circle
         cx="298"
         cy="92.5"
         r="7.5"
         fill="#1a1a1a"
         id="circle40" />
      <path
         d="M298 85.5c3.9 0 7 3.1 7 7s-3.1 7-7 7-7-3.1-7-7 3.1-7 7-7m0-1c-4.4 0-8 3.6-8 8s3.6 8 8 8 8-3.6 8-8-3.6-8-8-8z"
         fill="gray"
         id="path42" />
    </g>
  </g>
  <g
     id="g58">
    <path
       d="M298 45c-6.9 0-12.5-5.6-12.5-12.5S291.1 20 298 20s12.5 5.6 12.5 12.5S304.9 45 298 45z"
       fill="#e5e5e4"
       id="path48" />
    <path
       d="M298 20.5c6.6 0 12 5.4 12 12s-5.4 12-12 12-12-5.4-12-12 5.4-12 12-12m0-1c-7.2 0-13 5.8-13 13s5.8 13 13 13 13-5.8 13-13-5.8-13-13-13z"
       fill="#595a5a"
       id="path50" />
    <g
       id="g56">
      <circle
         cx="298"
         cy="32.5"
         r="7.5"
         fill="#1a1a1a"
         id="circle52" />
      <path
         d="M298 25.5c3.9 0 7 3.1 7 7s-3.1 7-7 7-7-3.1-7-7 3.1-7 7-7m0-1c-4.4 0-8 3.6-8 8s3.6 8 8 8 8-3.6 8-8-3.6-8-8-8z"
         fill="gray"
         id="path54" />
    </g>
  </g>
  <g
     id="g72">
    <path
       d="M335.9 101.1l9.5 17.2h-19l9.5-17.2m0-1c-.3 0-.7.2-.9.5l-9.5 17.2c-.4.7.1 1.5.9 1.5h19c.8 0 1.3-.8.9-1.5l-9.5-17.2c-.2-.3-.6-.5-.9-.5z"
       id="path60" />
    <circle
       cx="335.9"
       cy="115"
       r=".5"
       clip-rule="evenodd"
       fill-rule="evenodd"
       id="circle62" />
    <path
       d="M335.9 114.9s0 .1 0 0v.1s-.1 0 0-.1c-.1.1 0 0 0 0m0-1c-.6 0-1 .5-1 1.1 0 .6.5 1 1 1s1-.5 1-1c0-.6-.4-1.1-1-1.1z"
       id="path64" />
    <g
       id="g70">
      <path
         d="M335.8 112.5l-.3-6.3c0-.1 0-.2.1-.3.1-.1.2-.1.3-.1.1 0 .2 0 .3.1.1.1.1.2.1.3l-.3 6.3h-.2z"
         clip-rule="evenodd"
         fill="#1a1a1a"
         fill-rule="evenodd"
         id="path66" />
      <path
         d="M335.9 105.3c-.5 0-.9.4-.9 1l.4 6.7h1.1l.4-6.7c-.1-.5-.5-1-1-1z"
         id="path68" />
    </g>
  </g>
  <g
     id="g88">
    <path
       d="M335 131.2l8.8 16h-17.6l8.8-16m0-2.1l-10.5 19h21l-10.5-19z"
       id="path74" />
    <path
       d="M335.7 142.5c.5.4 1.3 1.2 1.3 1.9 0 .5-.5 1.2-1.4 1.2 0 0-.8 0-1.1-.5 0-.1-.1-.1-.1-.1 0-.1.2-.3.3-.4.2-.2.4-.5.5-.8.3-.6.4-1 .5-1.3m-.3-1.2c-.8 0-.5 1.1-1 1.9-.6 1-1.3 1.4-.7 2.4.6 1 1.9 1 1.9 1 1.4 0 2.4-1.2 2.4-2.2 0-1.5-1.8-3.1-2.6-3.1z"
       id="path76" />
    <path
       d="M331.3 141.3c.1 0 .3.1.4.2.2.1.5.3.9.4.5.2.9.2 1.2.2-.3.6-1 1.5-1.7 1.6h-.1c-.4 0-1.1-.4-1.3-1.2 0 0-.1-.8.3-1.1l.3-.1m0-1c-.2 0-.5.1-.8.4-.9.8-.7 2-.7 2 .2 1.3 1.3 2 2.3 2h.3c1.4-.2 2.8-2.3 2.6-3.1-.1-.8-1.1-.3-2-.6-.7-.3-1.2-.7-1.7-.7z"
       id="path78" />
    <path
       d="M338.1 139.7c.3 0 .6.2.8.4.2.2.4.6.3 1 0 0-.1.8-.6 1-.1 0-.1.1-.1.1-.1 0-.3-.2-.4-.3-.2-.2-.5-.4-.8-.6-.4-.3-.8-.4-1.2-.5.4-.5 1.3-1.1 2-1.1m0-1c-1.4 0-3.1 1.6-3.2 2.4-.1.8 1 .6 1.8 1.1.8.5 1.1 1.1 1.7 1.1.2 0 .4-.1.6-.2 1-.5 1.2-1.8 1.2-1.8.1-1.4-.9-2.5-1.9-2.6h-.2z"
       id="path80" />
    <path
       d="M334.7 137.3h.1s.7.1 1 .6c0 .1.1.1.1.1 0 .1-.2.3-.3.4-.2.2-.4.5-.6.8-.3.4-.4.8-.5 1.2-.5-.4-1.2-1.4-1.2-2 .1-.5.6-1.1 1.4-1.1m0-1c-1.3 0-2.2 1-2.3 2-.1 1.4 1.6 3.3 2.3 3.3h.1c.7 0 .5-1.1 1.1-1.8.7-1 1.5-1.3.9-2.3-.5-1-1.8-1.2-1.8-1.2h-.3z"
       id="path82" />
    <circle
       cx="335.2"
       cy="141.7"
       r=".5"
       clip-rule="evenodd"
       fill="#f5de63"
       fill-rule="evenodd"
       id="circle84" />
    <path
       d="M335.2 140.7c-.5 0-1 .4-1 1 0 .5.4 1 1 1 .5 0 1-.4 1-1-.1-.5-.5-1-1-1z"
       id="path86" />
  </g>
  <g
     id="g94">
    <path
       d="M1030 158.5c-.8 0-1.5-.7-1.5-1.5V7c0-.8.7-1.5 1.5-1.5h2c.8 0 1.5.7 1.5 1.5v150c0 .8-.7 1.5-1.5 1.5h-2z"
       fill="#b3b2b3"
       id="path90" />
    <path
       d="M1032 6c.6 0 1 .4 1 1v150c0 .6-.4 1-1 1h-2c-.6 0-1-.4-1-1V7c0-.6.4-1 1-1h2m0-1h-2c-1.1 0-2 .9-2 2v150c0 1.1.9 2 2 2h2c1.1 0 2-.9 2-2V7c0-1.1-.9-2-2-2z"
       fill="#676767"
       id="path92" />
  </g>
  <g
     id="g100">
    <path
       d="M672 158.8c-.8 0-1.5-.7-1.5-1.5V7.2c0-.8.7-1.5 1.5-1.5h2c.8 0 1.5.7 1.5 1.5v150c0 .8-.7 1.5-1.5 1.5h-2z"
       fill="#b3b2b3"
       id="path96" />
    <path
       d="M674 6.2c.6 0 1 .4 1 1v150c0 .6-.4 1-1 1h-2c-.6 0-1-.4-1-1V7.2c0-.6.4-1 1-1h2m0-1h-2c-1.1 0-2 .9-2 2v150c0 1.1.9 2 2 2h2c1.1 0 2-.9 2-2V7.2c0-1.1-.9-2-2-2z"
       fill="#676767"
       id="path98" />
  </g>
  <g
     id="g140">
    <path
       fill="#cbcbca"
       d="M1348.5 9h4.9l1-3h71.2l1 3h4.9V4h2v156h-87V4h2z"
       id="path102" />
    <path
       d="M1433 4.5v155h-86V4.5h1v5h5.7l.2-.7.8-2.3h70.6l.8 2.3.2.7h5.7v-5h1m1-1h-3v5h-4l-1-3h-72l-1 3h-4v-5h-3v157h88V3.5z"
       fill="#979797"
       id="path104" />
    <path
       d="M1355.2 41.3v-10h5.6V33h-4v2.4h3.4V37h-3.4v4.3h-1.6zM1364 41.3V33h-2.4v-1.7h6.5V33h-2.4v8.3h-1.7zM1372.9 41.3h-1.6V34c-.6.7-1.3 1.1-2 1.5v-1.7c.4-.2.9-.5 1.4-1 .5-.5.8-1 1-1.6h1.3v10.1zM1401.4 41.3v-10h2.7c1 0 1.6 0 1.9.1.5.2.9.5 1.2 1 .3.5.5 1.2.5 2 0 .7-.1 1.3-.4 1.8-.3.5-.6.8-1 1-.4.2-1.1.3-2.1.3h-1.1v3.8h-1.7zm1.7-8.4v2.9h.9c.6 0 1 0 1.3-.1.2-.1.4-.2.5-.5.1-.2.2-.5.2-.8 0-.3-.1-.6-.2-.8-.1-.2-.3-.4-.5-.5-.2-.1-.7-.1-1.4-.1h-.8zM1409.1 41.3v-10h2.5l1.5 6.8 1.5-6.8h2.5v10h-1.5v-7.9l-1.6 7.9h-1.6l-1.6-7.9v7.9h-1.7zM1422.3 41.3h-1.6V34c-.6.7-1.3 1.1-2 1.5v-1.7c.4-.2.9-.5 1.4-1 .5-.5.8-1 1-1.6h1.3v10.1z"
       id="path106" />
    <path
       clip-rule="evenodd"
       fill-rule="evenodd"
       d="M1365.5 28.6l-11.2-7.2 11.2-7.2zM1413 28.6l11.2-7.2-11.2-7.2z"
       id="path108" />
    <g
       id="g122">
      <path
         d="M1365.4 101.1l9.5 17.2h-19l9.5-17.2m0-1c-.3 0-.7.2-.9.5l-9.5 17.2c-.4.7.1 1.5.9 1.5h19c.8 0 1.3-.8.9-1.5l-9.5-17.2c-.2-.3-.5-.5-.9-.5z"
         id="path110" />
      <circle
         cx="1365.4"
         cy="115"
         r=".5"
         clip-rule="evenodd"
         fill-rule="evenodd"
         id="circle112" />
      <path
         d="M1365.4 114.9c.1 0 .1.1 0 0v0c0 .1 0 0 0 0m0-1c-.6 0-1 .5-1 1.1 0 .6.5 1 1 1s1-.5 1-1c.1-.6-.4-1.1-1-1.1z"
         id="path114" />
      <g
         id="g120">
        <path
           d="M1365.4 112.5l-.3-6.3c0-.1 0-.2.1-.3.1-.1.2-.1.3-.1.1 0 .2 0 .3.1.1.1.1.2.1.3l-.3 6.3h-.2z"
           clip-rule="evenodd"
           fill="#1a1a1a"
           fill-rule="evenodd"
           id="path116" />
        <path
           d="M1365.4 105.3c-.5 0-.9.4-.9 1l.4 6.7h1.1l.4-6.7c0-.5-.4-1-1-1z"
           id="path118" />
      </g>
    </g>
    <g
       id="g138">
      <path
         d="M1365.4 131.2l8.8 16h-17.6l8.8-16m0-2.1l-10.5 19h21l-10.5-19z"
         id="path124" />
      <path
         d="M1366.1 142.5c.5.4 1.3 1.2 1.3 1.9 0 .5-.5 1.2-1.4 1.2 0 0-.8 0-1.1-.5 0-.1-.1-.1-.1-.1 0-.1.2-.3.3-.4.2-.2.4-.5.5-.8.3-.6.4-1 .5-1.3m-.3-1.2c-.8 0-.5 1.1-1 1.9-.6 1-1.3 1.4-.7 2.4.6 1 1.9 1 1.9 1 1.4 0 2.4-1.2 2.4-2.2 0-1.5-1.8-3.1-2.6-3.1z"
         id="path126" />
      <path
         d="M1361.8 141.3c.1 0 .3.1.4.2.2.1.5.3.9.4.5.2.9.2 1.2.2-.3.6-1 1.5-1.7 1.6h-.1c-.4 0-1.1-.4-1.3-1.2 0 0-.1-.8.3-1.1.2-.1.2-.1.3-.1m-.1-1c-.2 0-.5.1-.8.4-.9.8-.7 2-.7 2 .2 1.3 1.3 2 2.3 2h.3c1.4-.2 2.8-2.3 2.6-3.1-.1-.8-1.1-.3-2-.6-.7-.3-1.2-.7-1.7-.7z"
         id="path128" />
      <path
         d="M1368.5 139.7c.6.1 1.2.6 1.1 1.5 0 0-.1.7-.6 1-.1 0-.1.1-.1.1-.1 0-.3-.2-.4-.3-.2-.2-.5-.4-.8-.6-.4-.3-.8-.4-1.2-.5.4-.6 1.3-1.2 2-1.2m0-1c-1.4 0-3.1 1.6-3.2 2.4-.1.8 1 .6 1.8 1.1.8.5 1.1 1.1 1.7 1.1.2 0 .4-.1.6-.2 1-.5 1.2-1.8 1.2-1.8.1-1.4-.9-2.5-1.9-2.6h-.2z"
         id="path130" />
      <path
         d="M1365.1 137.3h.1s.8.1 1 .6c0 .1.1.1.1.1 0 .1-.2.3-.3.4-.2.2-.4.5-.6.8-.3.4-.4.8-.5 1.2-.5-.4-1.2-1.4-1.2-2 .1-.5.6-1.1 1.4-1.1m0-1c-1.3 0-2.2 1-2.3 2-.1 1.4 1.6 3.3 2.3 3.3h.1c.7 0 .5-1.1 1.1-1.8.7-1 1.5-1.3.9-2.3-.5-1-1.8-1.2-1.8-1.2h-.3z"
         id="path132" />
      <circle
         cx="1365.6"
         cy="141.7"
         r=".5"
         clip-rule="evenodd"
         fill="#f5de63"
         fill-rule="evenodd"
         id="circle134" />
      <path
         d="M1365.6 140.7c-.5 0-1 .4-1 1 0 .5.4 1 1 1 .5 0 1-.4 1-1 0-.5-.5-1-1-1z"
         id="path136" />
    </g>
  </g>
  <g
     clip-rule="evenodd"
     fill-rule="evenodd"
     id="g148">
    <path
       d="M1662.2 159h-14.3c-1.6 0-2.8-1.3-2.8-2.8V7.8c0-1.6 1.3-2.8 2.8-2.8h14.3c1.6 0 2.8 1.3 2.8 2.8v148.3c0 1.6-1.3 2.9-2.8 2.9z"
       fill="#b3b2b3"
       id="path142" />
    <path
       fill="#b3b2b3"
       d="M1651.5 5h7v154h-7z"
       id="path144" />
    <path
       fill="#cbcbca"
       d="M1648.5 5h3v154h-3zM1658.5 5h3v154h-3z"
       id="path146" />
  </g>
  <text
     xml:space="preserve"
     style="font-style:normal;font-weight:normal;font-size:40px;line-height:1.25;font-family:sans-serif;fill:#000000;fill-opacity:1;stroke:none"
     x="458.36853"
     y="97.763916"
     id="text160"><tspan
       sodipodi:role="line"
       id="tspan158"
       x="458.36853"
       y="97.763916" /></text>
</svg>
