<?xml version="1.0" encoding="UTF-8" standalone="no"?>
<svg
   xmlns:dc="http://purl.org/dc/elements/1.1/"
   xmlns:cc="http://creativecommons.org/ns#"
   xmlns:rdf="http://www.w3.org/1999/02/22-rdf-syntax-ns#"
   xmlns:svg="http://www.w3.org/2000/svg"
   xmlns="http://www.w3.org/2000/svg"
   xmlns:sodipodi="http://sodipodi.sourceforge.net/DTD/sodipodi-0.dtd"
   xmlns:inkscape="http://www.inkscape.org/namespaces/inkscape"
   id="N540-24Q8L2DD-SYS_rear_fansLayer_1"
   data-name="Layer 1"
   viewBox="0 0 1112.9735 145.97356"
   version="1.1"
   sodipodi:docname="N540-24Q8L2DD-SYS_rear_fans.svg"
   width="1112.9735"
   height="145.97356"
   inkscape:version="0.92.1 r15371">
  <metadata
     id="N540-24Q8L2DD-SYS_rear_fansmetadata45">
    <rdf:RDF>
      <cc:Work
         rdf:about="">
        <dc:format>image/svg+xml</dc:format>
        <dc:type
           rdf:resource="http://purl.org/dc/dcmitype/StillImage" />
        <dc:title></dc:title>
      </cc:Work>
    </rdf:RDF>
  </metadata>
  <sodipodi:namedview
     pagecolor="#ffffff"
     bordercolor="#666666"
     borderopacity="1"
     objecttolerance="10"
     gridtolerance="10"
     guidetolerance="10"
     inkscape:pageopacity="0"
     inkscape:pageshadow="2"
     inkscape:window-width="1920"
     inkscape:window-height="986"
     id="N540-24Q8L2DD-SYS_rear_fansnamedview43"
     showgrid="false"
     fit-margin-top="0"
     fit-margin-left="0"
     fit-margin-right="0"
     fit-margin-bottom="0"
     inkscape:zoom="1.5732629"
     inkscape:cx="345.14257"
     inkscape:cy="72.986779"
     inkscape:window-x="-11"
     inkscape:window-y="-11"
     inkscape:window-maximized="1"
     inkscape:current-layer="Layer_1" />
  <defs
     id="N540-24Q8L2DD-SYS_rear_fansdefs4">
    <style
       id="N540-24Q8L2DD-SYS_rear_fansstyle2">.cls-1{fill:#e6e6e6;}.cls-2{fill:#b3b3b3;fill-rule:evenodd;}</style>
  </defs>
  <circle
     cx="846.59674"
     cy="72.98291"
     r="72.040001"
     id="N540-24Q8L2DD-SYS_rear_fanscircle6" />
  <circle
     class="N540-24Q8L2DD-SYS_rear_fanscls-1"
     cx="846.59674"
     cy="72.98291"
     r="36.5"
     id="N540-24Q8L2DD-SYS_rear_fanscircle8"
     style="fill:#e6e6e6" />
  <path
     class="N540-24Q8L2DD-SYS_rear_fanscls-2"
     d="m 795.99678,20.362907 v 0 a 73,73 0 0 0 -2,103.250003 v 0 a 73,73 0 0 0 105.16,0 v 0 a 73,73 0 0 0 -2,-103.250003 v 0 a 73,73 0 0 0 -101.16,0 z m 59.36,39.37 6.86,-11.88 h 13.78 l 6.86,11.88 -6.86,11.87 h -13.77 z m 5.28,12.92 -6.86,11.88 h -13.71 l -6.86,-11.88 6.86,-11.87 h 13.72 z m 1.58,-26.91 -6.86,-11.87 6.87,-11.89 h 13.77 l 6.86,11.87 -6.86,11.89 z m -1.58,1.06 -6.86,11.87 h -13.71 l -6.86,-11.87 6.86,-11.88 h 13.72 z m -29,-1.06 h -13.73 l -6.86,-11.87 6.86,-11.89 h 13.72 l 6.86,11.87 z m 0,2.11 6.86,11.88 -6.86,11.87 h -13.73 l -6.86,-11.87 6.86,-11.88 z m -15.57,24.8 -6.87,11.88 h -13.72 l -6.86,-11.88 6.86,-11.87 h 13.72 z m 1.85,1.06 h 13.72 l 6.86,11.87 -6.86,11.87 h -13.73 l -6.86,-11.87 z m 13.72,25.86 6.86,12.130003 -6.86,11.87 h -13.73 l -6.86,-11.87 6.86,-12.130003 z m 1.58,-1.06 6.86,-11.87 h 13.72 l 6.86,11.87 -6.86,11.870003 h -13.73 z m 29,1.06 h 13.78 l 6.86,12.130003 -6.86,11.87 h -13.77 l -6.86,-11.87 z m 0,-2.12 -6.85,-11.87 6.86,-11.87 h 13.77 l 6.86,11.87 -6.86,11.87 z m 15.31,-24.8 6.87,-11.87 h 13.72 l 7.12,11.87 -7.12,11.88 h -13.72 z m 6.86,-14 -6.86,-11.87 6.86,-11.88 h 13.72 l 7.12,11.88 -7.12,11.87 z m -2.39,-39.67 17.1,10.33 -2.22,3.67 -12.1,0.74 -5,-11 z m -21.8,-13.0000004 17.13,10.3000004 -2.22,3.7 -12.1,0.74 -5,-11.0000004 z m -6.41,3.13 6.86,11.8700004 -6.86,11.87 h -13.72 l -6.86,-11.87 6.86,-11.8700004 z m -19.37,-3.13 2.23,3.7 -5,11.0000004 -12.13,-0.7 -2.23,-3.69 z m -21.76,13.0000004 2.22,3.7 -5,11 -12.13,-0.7 -2.22,-3.7 z m -17.18,15.9 h 13.72 l 6.86,11.88 -6.86,11.91 h -13.72 l -6.86,-11.87 z m -13.72,16 h 4.32 l 6.86,10 -6.86,10 h -4.32 z m 0,45.38 v -20 h 4.32 l 6.86,10 -6.86,10 z m 6.86,2.22 6.86,-11.87 h 13.72 l 6.86,11.87 -6.86,11.900003 h -13.72 z m 24,28.430003 -17.13,-10.29 2.22,-3.7 12.1,-0.74 5,11 z m 21.8,13.07 -17.13,-10.3 2.23,-3.69 12.1,-0.74 5,11 z m 5.65,-3.52 -6.86,-11.87 6.86,-11.87 h 13.72 l 6.86,11.87 -6.86,11.87 z m 20.13,3.52 -2.22,-3.7 5,-11 12.1,0.74 2.22,3.69 z m 21.8,-13 -2.22,-3.7 5,-11 12.1,0.74 2.22,3.7 z m 16.15,-16.56 h -13.75 l -6.86,-11.870003 6.86,-11.87 h 13.72 l 7.12,11.87 z m 13.32,-14.090003 h -4.32 l -6.86,-10 6.86,-10 h 4.32 z m 0,-25.39 h -4.32 l -6.86,-10 6.86,-10 h 4.32 z"
     id="N540-24Q8L2DD-SYS_rear_fanspath10"
     inkscape:connector-curvature="0"
     style="fill:#b3b3b3;fill-rule:evenodd" />
  <circle
     cx="1039.9968"
     cy="72.98291"
     r="72.040001"
     id="N540-24Q8L2DD-SYS_rear_fanscircle12" />
  <circle
     class="N540-24Q8L2DD-SYS_rear_fanscls-1"
     cx="1039.9968"
     cy="72.98291"
     r="36.5"
     id="N540-24Q8L2DD-SYS_rear_fanscircle14"
     style="fill:#e6e6e6" />
  <path
     class="N540-24Q8L2DD-SYS_rear_fanscls-2"
     d="m 989.40678,20.362907 v 0 a 73,73 0 0 0 -2,103.250003 v 0 a 73,73 0 0 0 105.16002,0 v 0 a 73,73 0 0 0 -2,-103.250003 v 0 a 73,73 0 0 0 -101.16002,0 z m 59.36002,39.37 6.86,-11.88 h 13.72 l 6.86,11.88 -6.86,11.87 h -13.72 z m 5.28,12.92 -6.86,11.88 h -13.72 l -6.86,-11.88 6.86,-11.87 h 13.72 z m 1.58,-26.91 -6.86,-11.87 6.86,-11.89 h 13.72 l 6.86,11.87 -6.86,11.87 z m -1.58,1.06 -6.86,11.87 h -13.72 l -6.86,-11.87 6.86,-11.88 h 13.72 z m -29,-1.06 h -13.72 l -6.86,-11.87 6.84,-11.89 h 13.69 l 6.86,11.87 z m 0,2.11 6.86,11.88 -6.91,11.87 h -13.72 l -6.86,-11.87 6.86,-11.88 z m -15.57,24.8 -6.86,11.88 h -13.72002 l -6.9,-11.88 6.86,-11.87 h 13.72002 z m 1.85,1.06 h 13.67 l 6.86,11.87 -6.86,11.87 h -13.72 l -6.86,-11.87 z m 13.67,25.86 6.86,12.130003 -6.86,11.87 h -13.72 l -6.86,-11.87 6.86,-12.130003 z m 1.58,-1.06 6.86,-11.87 h 13.72 l 6.86,11.87 -6.86,11.870003 h -13.72 z m 29,1.06 h 13.72 l 6.86,12.130003 -6.86,11.87 h -13.72 l -6.86,-11.87 z m 0,-2.12 -6.86,-11.87 6.86,-11.87 h 13.72 l 6.86,11.87 -6.86,11.87 z m 15.31,-24.8 6.86,-11.87 h 13.72 l 7.12,11.87 -7.12,11.88 h -13.67 z m 6.86,-14 -6.86,-11.87 6.86,-11.88 h 13.72 l 7.12,11.88 -7.12,11.87 z m -2.38,-39.67 17.13,10.29 -2.22,3.7 -12.1,0.74 -5,-11 z m -21.77,-13.0000004 17.13,10.3000004 -2.22,3.7 -12.1,0.74 -5,-11.0000004 z m -6.41,3.13 6.86,11.8700004 -6.86,11.87 h -13.72 l -6.86,-11.87 6.86,-11.8700004 z m -19.37,-3.13 2.23,3.7 -5,11.0000004 -12.1,-0.74 -2.23,-3.69 z m -21.76,13.0000004 2.22,3.7 -5,11 -12.10002,-0.74 -2.22,-3.7 z m -17.18002,15.9 h 13.72002 l 6.86,11.88 -6.86,11.87 h -13.72002 l -6.88,-11.83 z m -13.72,16 h 4.32 l 6.86,10 -6.86,10 h -4.32 z m 0,45.38 v -20 h 4.32 l 6.86,10 -6.86,10 z m 6.86,2.22 6.86,-11.87 h 13.72002 l 6.86,11.87 -6.86,11.870003 h -13.72002 z m 24.00002,28.430003 -17.13002,-10.29 2.22,-3.7 12.10002,-0.74 5,11 z m 21.8,13.07 -17.13,-10.3 2.23,-3.69 12.1,-0.74 5,11 z m 5.65,-3.52 -6.86,-11.87 6.86,-11.87 h 13.72 l 6.86,11.87 -6.86,11.87 z m 20.13,3.52 -2.22,-3.7 5,-11 12.1,0.74 2.22,3.69 z m 21.77,-13 -2.22,-3.7 5,-11 12.1,0.74 2.22,3.7 z m 16.15,-16.56 h -13.72 l -6.86,-11.870003 6.86,-11.87 h 13.72 l 7.12,11.87 z m 13.32,-14.090003 h -4.32 l -6.86,-10 6.86,-10 h 4.32 z m 0,-25.39 h -4.32 l -6.86,-10 6.86,-10 h 4.32 z"
     id="N540-24Q8L2DD-SYS_rear_fanspath16"
     inkscape:connector-curvature="0"
     style="fill:#b3b3b3;fill-rule:evenodd" />
  <circle
     cx="653.19678"
     cy="72.98291"
     r="72.040001"
     id="N540-24Q8L2DD-SYS_rear_fanscircle18" />
  <circle
     class="N540-24Q8L2DD-SYS_rear_fanscls-1"
     cx="653.19678"
     cy="72.98291"
     r="36.5"
     id="N540-24Q8L2DD-SYS_rear_fanscircle20"
     style="fill:#e6e6e6" />
  <path
     class="N540-24Q8L2DD-SYS_rear_fanscls-2"
     d="m 602.60678,20.362907 v 0 a 73,73 0 0 0 -2,103.250003 v 0 a 73,73 0 0 0 105.16,0 v 0 a 73,73 0 0 0 -2,-103.250003 v 0 a 73,73 0 0 0 -101.16,0 z m 59.39,39.37 6.86,-11.88 h 13.72 l 6.86,11.88 -6.86,11.87 h -13.75 z m 5.28,12.92 -6.86,11.88 h -13.75 l -6.86,-11.88 6.86,-11.87 h 13.72 z m 1.58,-26.91 -6.86,-11.87 6.83,-11.89 h 13.72 l 6.86,11.87 -6.86,11.87 z m -1.58,1.06 -6.86,11.87 h -13.75 l -6.86,-11.87 6.86,-11.88 h 13.72 z m -29,-1.06 h -13.77 l -6.86,-11.87 6.86,-11.89 h 13.72 l 6.86,11.87 z m 0,2.11 6.86,11.88 -6.86,11.87 h -13.77 l -6.86,-11.87 6.86,-11.88 z m -15.57,24.8 -6.91,11.88 h -13.72 l -6.86,-11.88 6.86,-11.87 h 13.72 z m 1.85,1.06 h 13.72 l 6.86,11.87 -6.86,11.87 h -13.77 l -6.86,-11.87 z m 13.72,25.86 6.86,12.130003 -6.86,11.87 h -13.77 l -6.86,-11.87 6.86,-12.130003 z m 1.58,-1.06 6.86,-11.87 h 13.72 l 6.86,11.87 -6.86,11.870003 h -13.77 z m 29,1.06 h 13.72 l 6.86,12.130003 -6.86,11.87 h -13.75 l -6.83,-11.87 z m 0,-2.12 -6.86,-11.87 6.86,-11.87 h 13.72 l 6.86,11.87 -6.86,11.87 z m 15.31,-24.8 6.83,-11.87 h 13.72 l 7.12,11.87 -7.12,11.88 h -13.72 z m 6.86,-14 -6.86,-11.87 6.83,-11.86 h 13.72 l 7.12,11.88 -7.12,11.87 z m -2.46,-39.67 17.13,10.33 -2.22,3.67 -12.1,0.74 -5,-11 z m -21.77,-13.0000004 17.13,10.3000004 -2.22,3.7 -12.1,0.74 -5,-11.0000004 z m -6.41,3.13 6.86,11.8700004 -6.86,11.87 h -13.72 l -6.86,-11.87 6.86,-11.8700004 z m -19.39,-3.13 2.23,3.7 -5,11.0000004 -12.11,-0.7 -2.23,-3.69 z m -21.74,13.0000004 2.22,3.7 -5,11 -12.13,-0.7 -2.22,-3.7 z m -17.18,15.9 h 13.72 l 6.86,11.88 -6.86,11.91 h -13.72 l -6.86,-11.87 z m -13.72,16 h 4.32 l 6.86,10 -6.86,10 h -4.32 z m 0,45.38 v -20 h 4.32 l 6.86,10 -6.86,10 z m 6.86,2.22 6.86,-11.87 h 13.72 l 6.86,11.87 -6.86,11.900003 h -13.72 z m 24,28.430003 -17.13,-10.29 2.22,-3.7 12.1,-0.74 5,11 z m 21.78,13.07 -17.13,-10.3 2.23,-3.69 12.1,-0.74 5,11 z m 5.65,-3.52 -6.86,-11.87 6.86,-11.87 h 13.72 l 6.86,11.87 -6.86,11.87 z m 20.15,3.52 -2.22,-3.7 5,-11 12.1,0.74 2.22,3.69 z m 21.77,-13 -2.22,-3.7 5,-11 12.1,0.74 2.22,3.7 z m 16.15,-16.56 h -13.72 l -6.86,-11.870003 6.86,-11.91 h 13.72 l 7.12,11.87 z m 13.28,-14.130003 h -4.32 l -6.86,-10 6.86,-10 h 4.32 z m 0,-25.39 h -4.32 l -6.86,-10 6.86,-10 h 4.32 z"
     id="N540-24Q8L2DD-SYS_rear_fanspath22"
     inkscape:connector-curvature="0"
     style="fill:#b3b3b3;fill-rule:evenodd" />
  <circle
     cx="459.79675"
     cy="72.98291"
     r="72.040001"
     id="N540-24Q8L2DD-SYS_rear_fanscircle24" />
  <circle
     class="N540-24Q8L2DD-SYS_rear_fanscls-1"
     cx="459.79675"
     cy="72.98291"
     r="36.5"
     id="N540-24Q8L2DD-SYS_rear_fanscircle26"
     style="fill:#e6e6e6" />
  <path
     class="N540-24Q8L2DD-SYS_rear_fanscls-2"
     d="m 409.20678,20.362907 v 0 a 73,73 0 0 0 -2,103.250003 v 0 a 73,73 0 0 0 105.16,0 v 0 a 73,73 0 0 0 -2,-103.250003 v 0 a 73,73 0 0 0 -101.16,0 z m 59.36,39.37 6.86,-11.88 h 13.72 l 6.85,11.88 -6.86,11.87 h -13.71 z m 5.28,12.92 -6.85,11.88 h -13.73 l -6.86,-11.88 6.86,-11.87 h 13.73 z m 1.58,-26.91 -6.86,-11.87 6.86,-11.89 h 13.72 l 6.85,11.89 -6.86,11.87 z m -1.58,1.06 -6.85,11.87 h -13.73 l -6.86,-11.87 6.86,-11.88 h 13.73 z m -29,-1.06 h -13.74 l -6.86,-11.87 6.86,-11.89 h 13.72 l 6.86,11.87 z m 0,2.11 6.86,11.88 -6.86,11.87 h -13.74 l -6.86,-11.87 6.86,-11.88 z m -15.57,24.8 -6.88,11.88 h -13.72 l -6.86,-11.88 6.86,-11.87 h 13.72 z m 1.85,1.06 h 13.72 l 6.86,11.87 -6.86,11.87 h -13.74 l -6.86,-11.87 z m 13.72,25.86 6.86,12.130003 -6.86,11.87 h -13.74 l -6.86,-11.87 6.86,-12.130003 z m 1.58,-1.06 6.86,-11.87 h 13.71 l 6.86,11.87 -6.86,11.870003 h -13.73 z m 29,1.06 h 13.72 l 6.85,12.130003 -6.86,11.87 h -13.71 l -6.86,-11.87 z m 0,-2.12 -6.86,-11.87 6.86,-11.87 h 13.72 l 6.85,11.87 -6.86,11.87 z m 15.31,-24.8 6.86,-11.87 h 13.72 l 7.12,11.87 -7.12,11.88 h -13.72 z m 6.86,-14 -6.86,-11.87 6.86,-11.88 h 13.72 l 7.12,11.88 -7.12,11.87 z m -2.43,-39.67 17.13,10.33 -2.22,3.67 -12.1,0.74 -5,-11 z m -21.77,-13.0000004 17.13,10.3000004 -2.22,3.7 -12.1,0.74 -5,-11.0000004 z m -6.4,3.09 6.85,11.9100004 -6.85,11.83 h -13.73 l -6.86,-11.83 6.86,-11.8700004 z m -19.38,-3.09 2.23,3.7 -5,11.0000004 -12.13,-0.7 -2.23,-3.69 z m -21.76,13.0000004 2.22,3.7 -5,11 -12.08,-0.7 -2.22,-3.7 z m -17.18,15.9 h 13.72 l 6.86,11.88 -6.86,11.91 h -13.72 l -6.86,-11.87 z m -13.68,16.03 h 4.32 l 6.86,10 -6.86,10 h -4.32 z m 0,45.38 v -20 h 4.32 l 6.86,10 -6.86,10 z m 6.86,2.22 6.86,-11.87 h 13.68 l 6.86,11.87 -6.86,11.870003 h -13.72 z m 24,28.430003 -17.13,-10.29 2.27,-3.67 12.1,-0.74 5,11 z m 21.76,13.04 -17.13,-10.3 2.23,-3.69 12.1,-0.74 5,11 z m 5.65,-3.52 -6.86,-11.87 6.86,-11.87 h 13.73 l 6.86,11.87 -6.86,11.91 z m 20.13,3.52 -2.22,-3.7 5,-11 12.1,0.74 2.22,3.69 z m 21.77,-13 -2.22,-3.7 5,-11 12.1,0.74 2.22,3.7 z m 16.15,-16.56 h -13.72 l -6.86,-11.870003 6.86,-11.87 h 13.72 l 7.12,11.87 z m 13.32,-14.090003 h -4.32 l -6.86,-10 6.86,-10 h 4.32 z m 0,-25.39 h -4.32 l -6.86,-10 6.86,-10 h 4.32 z"
     id="N540-24Q8L2DD-SYS_rear_fanspath28"
     inkscape:connector-curvature="0"
     style="fill:#b3b3b3;fill-rule:evenodd" />
  <circle
     cx="266.39676"
     cy="72.98291"
     r="72.040001"
     id="N540-24Q8L2DD-SYS_rear_fanscircle30" />
  <circle
     class="N540-24Q8L2DD-SYS_rear_fanscls-1"
     cx="266.39676"
     cy="72.98291"
     r="36.5"
     id="N540-24Q8L2DD-SYS_rear_fanscircle32"
     style="fill:#e6e6e6" />
  <path
     class="N540-24Q8L2DD-SYS_rear_fanscls-2"
     d="m 215.80678,20.362907 v 0 a 73,73 0 0 0 -2,103.250003 v 0 a 73,73 0 0 0 105.16,0 v 0 a 73,73 0 0 0 -2,-103.250003 v 0 a 73,73 0 0 0 -101.16,0 z m 59.36,39.37 6.83,-11.88 h 13.72 l 6.86,11.88 -6.86,11.87 h -13.72 z m 5.28,12.92 -6.86,11.88 h -13.72 l -6.87,-11.88 6.86,-11.87 h 13.72 z m 1.55,-26.91 -6.86,-11.87 6.86,-11.89 h 13.72 l 6.86,11.87 -6.86,11.87 z m -1.58,1.06 -6.86,11.87 h -13.69 l -6.87,-11.87 6.86,-11.88 h 13.72 z m -29,-1.06 h -13.71 l -6.86,-11.87 6.86,-11.89 h 13.72 l 6.86,11.87 z m 0,2.11 6.86,11.88 -6.86,11.87 h -13.71 l -6.86,-11.87 6.86,-11.88 z m -15.57,24.8 -6.85,11.88 h -13.72 l -6.86,-11.88 6.86,-11.87 h 13.72 z m 1.85,1.06 h 13.72 l 6.86,11.87 -6.86,11.87 h -13.71 l -6.86,-11.87 z m 13.72,25.86 6.86,12.130003 -6.86,11.87 h -13.71 l -6.86,-11.87 6.86,-12.130003 z m 1.58,-1.06 6.86,-11.87 h 13.72 l 6.86,11.87 -6.86,11.870003 h -13.71 z m 29,1.06 h 13.72 l 6.86,12.130003 -6.86,11.87 h -13.72 l -6.86,-11.87 z m 0,-2.12 -6.83,-11.87 6.83,-11.87 h 13.72 l 6.86,11.87 -6.86,11.87 z m 15.31,-24.8 6.89,-11.87 h 13.72 l 7.08,11.87 -7.12,11.88 h -13.68 z m 6.86,-14 -6.86,-11.87 6.86,-11.88 h 13.72 l 7.11,11.9 -7.12,11.87 z m -2.4,-39.67 17.13,10.33 -2.22,3.67 -12.1,0.74 -5,-11 z m -21.77,-13.0000004 17.13,10.3000004 -2.22,3.7 -12.1,0.74 -5,-11.0000004 z m -6.41,3.13 6.86,11.8700004 -6.86,11.87 h -13.72 l -6.87,-11.87 6.86,-11.8700004 z m -19.37,-3.13 2.23,3.7 -5,11.0000004 -12.13,-0.7 -2.23,-3.69 z m -21.76,13.0000004 2.22,3.7 -5,11 -12.13,-0.7 -2.22,-3.7 z m -17.18,15.9 h 13.72 l 6.86,11.88 -6.86,11.91 h -13.72 l -6.86,-11.87 z m -13.72,16 h 4.32 l 6.86,10 -6.86,10 h -4.32 z m 0,45.38 v -20 h 4.32 l 6.86,10 -6.86,10 z m 6.86,2.22 6.86,-11.87 h 13.72 l 6.86,11.87 -6.86,11.900003 h -13.72 z m 24,28.430003 -17.13,-10.29 2.22,-3.7 12.1,-0.74 5,11 z m 21.8,13.07 -17.13,-10.3 2.23,-3.69 12.1,-0.74 5,11 z m 5.65,-3.52 -6.87,-11.83 6.86,-11.87 h 13.72 l 6.86,11.87 -6.86,11.87 z m 20.13,3.52 -2.22,-3.7 5,-11 12.1,0.74 2.22,3.69 z m 21.77,-13 -2.22,-3.7 5,-11 12.1,0.74 2.22,3.7 z m 16.15,-16.56 h -13.72 l -6.86,-11.870003 6.86,-11.87 h 13.72 l 7.08,11.83 z m 13.32,-14.090003 h -4.32 l -6.86,-10 6.86,-10 h 4.32 z m 0,-25.39 h -4.32 l -6.86,-10 6.86,-10 h 4.32 z"
     id="N540-24Q8L2DD-SYS_rear_fanspath34"
     inkscape:connector-curvature="0"
     style="fill:#b3b3b3;fill-rule:evenodd" />
  <circle
     cx="72.99678"
     cy="72.98291"
     r="72.040001"
     id="N540-24Q8L2DD-SYS_rear_fanscircle36" />
  <circle
     class="N540-24Q8L2DD-SYS_rear_fanscls-1"
     cx="72.99678"
     cy="72.98291"
     r="36.5"
     id="N540-24Q8L2DD-SYS_rear_fanscircle38"
     style="fill:#e6e6e6" />
  <path
     class="N540-24Q8L2DD-SYS_rear_fanscls-2"
     d="m 22.406778,20.362907 v 0 a 73,73 0 0 0 -2,103.250003 v 0 a 73,73 0 0 0 105.160002,0 v 0 a 73,73 0 0 0 -2,-103.250003 v 0 a 73,73 0 0 0 -101.160002,0 z m 59.36,39.37 6.86,-11.88 h 13.720002 l 6.86,11.88 -6.86,11.87 H 88.626778 Z m 5.28,12.92 -6.86,11.88 h -13.72 l -6.86,-11.88 6.86,-11.87 h 13.72 z m 1.58,-26.91 -6.86,-11.87 6.86,-11.89 h 13.720002 l 6.86,11.87 -6.86,11.87 z m -1.58,1.06 -6.86,11.87 h -13.72 l -6.86,-11.87 6.86,-11.88 h 13.72 z m -29,-1.06 h -13.74 l -6.86,-11.87 6.86,-11.89 h 13.69 l 6.86,11.87 z m 0,2.11 6.86,11.88 -6.91,11.87 h -13.69 l -6.86,-11.87 6.86,-11.88 z m -15.59,24.8 -6.86,11.88 h -13.72 l -6.88,-11.88 6.88,-11.87 h 13.72 z m 1.85,1.06 h 13.69 l 6.86,11.87 -6.86,11.87 h -13.69 l -6.86,-11.87 z m 13.69,25.86 6.86,12.130003 -6.86,11.87 h -13.69 l -6.86,-11.87 6.86,-12.130003 z m 1.58,-1.06 6.86,-11.87 h 13.72 l 6.86,11.87 -6.86,11.870003 h -13.69 z m 29,1.06 h 13.720002 l 6.86,12.130003 -6.86,11.87 H 88.626778 l -6.86,-11.87 z m 0,-2.12 -6.81,-11.87 6.86,-11.87 h 13.720002 l 6.86,11.87 -6.86,11.87 z m 15.310002,-24.8 6.91,-11.87 h 13.72 l 7.12,11.87 -7.12,11.88 h -13.72 z m 6.86,-14 -6.86,-11.87 6.86,-11.88 h 13.72 l 7.12,11.88 -7.12,11.87 z m -2.38,-39.67 17.13,10.33 -2.22,3.67 -12.1,0.74 -5,-11 z M 86.596778,5.9829066 103.72678,16.282907 l -2.22,3.7 -12.100002,0.74 -5,-11.0000004 z m -6.41,3.13 6.86,11.8700004 -6.86,11.87 h -13.72 l -6.86,-11.87 6.86,-11.8700004 z m -19.37,-3.13 2.23,3.7 -5,11.0000004 -12.13,-0.7 -2.23,-3.69 z m -21.76,13.0000004 2.22,3.7 -5,11 -12.13,-0.7 -2.22,-3.7 z m -17.18,15.94 h 13.72 l 6.86,11.88 -6.86,11.87 h -13.72 l -6.88,-11.87 z m -13.7200005,16 h 4.3200005 l 6.86,10 -6.86,10 H 8.1567775 Z m 0,45.38 v -20 h 4.3200005 l 6.86,10 -6.86,10 z m 6.8400005,2.21 6.86,-11.87 h 13.74 l 6.86,11.87 -6.86,11.870003 h -13.72 z m 24,28.430003 -17.07,-10.29 2.22,-3.7 12.1,-0.74 5,11 z m 21.82,13.04 -17.13,-10.3 2.23,-3.69 12.1,-0.74 5,11 z m 5.65,-3.52 -6.86,-11.87 6.86,-11.87 h 13.72 l 6.86,11.87 -6.86,11.87 z m 20.13,3.52 -2.22,-3.7 5,-11 12.100002,0.74 2.22,3.69 z m 21.770002,-13 -2.22,-3.7 5,-11 12.1,0.74 2.22,3.7 z m 16.15,-16.56 h -13.72 l -6.86,-11.870003 6.86,-11.87 h 13.72 l 7.12,11.87 z m 13.32,-14.090003 h -4.32 l -6.86,-10 6.86,-10 h 4.32 z m 0,-25.39 h -4.32 l -6.86,-10 6.86,-10 h 4.32 z"
     id="N540-24Q8L2DD-SYS_rear_fanspath40"
     inkscape:connector-curvature="0"
     style="fill:#b3b3b3;fill-rule:evenodd" />
</svg>
