<?xml version="1.0" encoding="UTF-8" standalone="no"?>
<svg
   xmlns:dc="http://purl.org/dc/elements/1.1/"
   xmlns:cc="http://creativecommons.org/ns#"
   xmlns:rdf="http://www.w3.org/1999/02/22-rdf-syntax-ns#"
   xmlns:svg="http://www.w3.org/2000/svg"
   xmlns="http://www.w3.org/2000/svg"
   xmlns:sodipodi="http://sodipodi.sourceforge.net/DTD/sodipodi-0.dtd"
   xmlns:inkscape="http://www.inkscape.org/namespaces/inkscape"
   width="200"
   height="155.25"
   viewBox="0 0 200 155.25"
   version="1.1"
   id="svg341"
   sodipodi:docname="N540-FH-AGG-SYS_Power_Module-DC.svg"
   inkscape:version="0.92.1 r15371">
  <metadata
     id="metadata345">
    <rdf:RDF>
      <cc:Work
         rdf:about="">
        <dc:format>image/svg+xml</dc:format>
        <dc:type
           rdf:resource="http://purl.org/dc/dcmitype/StillImage" />
      </cc:Work>
    </rdf:RDF>
  </metadata>
  <sodipodi:namedview
     pagecolor="#ffffff"
     bordercolor="#666666"
     borderopacity="1"
     objecttolerance="10"
     gridtolerance="10"
     guidetolerance="10"
     inkscape:pageopacity="0"
     inkscape:pageshadow="2"
     inkscape:window-width="2560"
     inkscape:window-height="1315"
     id="N540-FH-AGG-SYS_Power_Module-DCnamedview343"
     showgrid="false"
     inkscape:zoom="1.5201288"
     inkscape:cx="100"
     inkscape:cy="77.625"
     inkscape:window-x="-13"
     inkscape:window-y="-13"
     inkscape:window-maximized="1"
     inkscape:current-layer="svg341" />
  <defs
     id="N540-FH-AGG-SYS_Power_Module-DCdefs5">
    <clipPath
       id="N540-FH-AGG-SYS_Power_Module-DCa">
      <path
         fill="none"
         d="M7.07 9.9h77.78v132.86H7.07z"
         id="N540-FH-AGG-SYS_Power_Module-DCpath2" />
    </clipPath>
  </defs>
  <g
     data-name="Layer 1"
     id="N540-FH-AGG-SYS_Power_Module-DCg247">
    <path
       fill="#1a1a1a"
       d="M0 0h200v155.25H0z"
       id="N540-FH-AGG-SYS_Power_Module-DCpath7" />
    <path
       fill="#ccc"
       d="M168.69 143.76v9.06H4.04v-31.04h191.92v21.98zM6 4.78a1.52 1.52 0 010-3h189a1.52 1.52 0 010 3z"
       id="N540-FH-AGG-SYS_Power_Module-DCpath9" />
    <path
       d="M195 2.25a1 1 0 010 2H6a1 1 0 010-2h189m0-1H6a2 2 0 00-2 2 2 2 0 002 2h189a2 2 0 002-2 2 2 0 00-2-2z"
       fill="#333"
       id="N540-FH-AGG-SYS_Power_Module-DCpath11" />
    <path
       d="M196 120.27V6c-3 0-5.44-1.8-5.44-4H39.39v118.27z"
       fill="#ccc"
       id="N540-FH-AGG-SYS_Power_Module-DCpath13" />
    <path
       fill="#1a1a1a"
       d="M99.89 129.08l4.32 7.53h8.64l4.32-7.53-4.32-7.53h-8.64zM99.89 48.88l4.32 7.53h8.64l4.32-7.53-4.32-7.53h-8.64zM99.89 28.83l4.32 7.53h8.64l4.32-7.53-4.32-7.53h-8.64zM135.04 129.08l4.32 7.53H148l4.32-7.53-4.32-7.53h-8.64zM135.04 48.88l4.32 7.53H148l4.32-7.53-4.32-7.53h-8.64zM135.04 28.83l4.32 7.53H148l4.32-7.53L148 21.3h-8.64zM170.19 129.08l4.32 7.53h8.64l4.32-7.53-4.32-7.53h-8.64zM170.19 48.88l4.32 7.53h8.64l4.32-7.53-4.32-7.53h-8.64zM170.19 28.83l4.32 7.53h8.64l4.32-7.53-4.32-7.53h-8.64zM112.85 16.31l3.01-5.24H101.2l3.01 5.24zM148 16.31l3.01-5.24h-14.66l3.01 5.24zM183.15 16.31l3.45-6h-15.53l3.44 6z"
       id="N540-FH-AGG-SYS_Power_Module-DCpath15" />
    <path
       d="M192.93 6.6l-1.87 132.12H83l1.87 10.74H9.55c0-2.78-5.16-5-6.52-5V2H189c0 2.54 1.75 4.6 3.93 4.6z"
       fill="#ccc"
       id="N540-FH-AGG-SYS_Power_Module-DCpath17" />
    <rect
       x=".5"
       y="3.51"
       width="3.04"
       height="149.97"
       rx=".5"
       fill="#ccc"
       id="N540-FH-AGG-SYS_Power_Module-DCrect19" />
    <path
       d="M3 4v149H1V4h2m0-1H1a1 1 0 00-1 1v149a1 1 0 001 1h2a1 1 0 001-1V4a1 1 0 00-1-1z"
       fill="#333"
       id="N540-FH-AGG-SYS_Power_Module-DCpath21" />
    <rect
       x="196.46"
       y="3.26"
       width="3.04"
       height="149.73"
       rx=".5"
       fill="#ccc"
       id="N540-FH-AGG-SYS_Power_Module-DCrect23" />
    <path
       d="M199 3.76v148.73h-2V3.76h2m0-1h-2a1 1 0 00-1 1v148.73a1 1 0 001 1h2a1 1 0 001-1V3.76a1 1 0 00-1-1z"
       fill="#333"
       id="N540-FH-AGG-SYS_Power_Module-DCpath25" />
    <path
       d="M16.61 110.21a10.07 10.07 0 1110.11-10.07 10.1 10.1 0 01-10.11 10.07z"
       fill="#333"
       fill-rule="evenodd"
       id="N540-FH-AGG-SYS_Power_Module-DCpath27" />
    <path
       d="M16.61 90.57A9.57 9.57 0 117 100.14a9.6 9.6 0 019.6-9.57m0-1a10.57 10.57 0 1010.61 10.57 10.59 10.59 0 00-10.6-10.57z"
       fill="gray"
       id="N540-FH-AGG-SYS_Power_Module-DCpath29" />
    <path
       d="M16.61 105.18a5 5 0 115.06-5 5.05 5.05 0 01-5.06 5z"
       fill="#ccc"
       fill-rule="evenodd"
       id="N540-FH-AGG-SYS_Power_Module-DCpath31" />
    <path
       d="M16.61 95.6a4.54 4.54 0 11-4.55 4.54 4.56 4.56 0 014.55-4.54m0-1a5.54 5.54 0 105.56 5.54 5.54 5.54 0 00-5.56-5.54z"
       fill="gray"
       id="N540-FH-AGG-SYS_Power_Module-DCpath33" />
    <ellipse
       cx="16.61"
       cy="98.13"
       rx="2.02"
       ry="1.01"
       fill="#f2f2f2"
       id="N540-FH-AGG-SYS_Power_Module-DCellipse35" />
    <ellipse
       cx="16.61"
       cy="124.3"
       rx="10.11"
       ry="10.07"
       fill="#333"
       id="N540-FH-AGG-SYS_Power_Module-DCellipse37" />
    <path
       d="M16.61 114.73A9.57 9.57 0 117 124.3a9.6 9.6 0 019.6-9.57m0-1a10.57 10.57 0 1010.62 10.57 10.59 10.59 0 00-10.61-10.57z"
       fill="gray"
       id="N540-FH-AGG-SYS_Power_Module-DCpath39" />
    <path
       d="M16.61 129.33a5 5 0 115.06-5 5.05 5.05 0 01-5.06 5z"
       fill="#ccc"
       fill-rule="evenodd"
       id="N540-FH-AGG-SYS_Power_Module-DCpath41" />
    <path
       d="M16.61 119.76a4.54 4.54 0 11-4.55 4.54 4.56 4.56 0 014.55-4.54m0-1a5.54 5.54 0 105.56 5.54 5.54 5.54 0 00-5.56-5.54z"
       fill="gray"
       id="N540-FH-AGG-SYS_Power_Module-DCpath43" />
    <ellipse
       cx="16.61"
       cy="122.28"
       rx="2.02"
       ry="1.01"
       fill="#f2f2f2"
       id="N540-FH-AGG-SYS_Power_Module-DCellipse45" />
    <text
       transform="translate(29.72 103.92)"
       font-size="10.06"
       letter-spacing="-.04em"
       font-family="ArialNarrow,'Arial Narrow'"
       id="N540-FH-AGG-SYS_Power_Module-DCtext51">F<tspan
   x="4.59"
   y="0"
   letter-spacing="0"
   id="N540-FH-AGG-SYS_Power_Module-DCtspan47">AI</tspan>
<tspan
   x="12.39"
   y="0"
   letter-spacing="-.03em"
   id="N540-FH-AGG-SYS_Power_Module-DCtspan49">L</tspan>
</text>
    <text
       transform="translate(29.72 128.07)"
       font-size="10.06"
       font-family="ArialNarrow,'Arial Narrow'"
       id="N540-FH-AGG-SYS_Power_Module-DCtext53">OK</text>
    <g
       clip-path="url(#a)"
       id="N540-FH-AGG-SYS_Power_Module-DCg235">
      <path
         d="M49.43 23.72L56 27.46v7.47l-6.57 3.74-6.57-3.74v-7.47z"
         id="N540-FH-AGG-SYS_Power_Module-DCpath55" />
      <path
         d="M49.43 24.29l6.07 3.46v6.89l-6.07 3.46-6.07-3.46v-6.89l6.07-3.46m0-1.15l-7.07 4v8l7.07 4 7.07-4v-8z"
         fill="#cacac9"
         id="N540-FH-AGG-SYS_Power_Module-DCpath57" />
      <path
         d="M63.57 23.72l6.57 3.74v7.47l-6.57 3.74L57 34.93v-7.47z"
         id="N540-FH-AGG-SYS_Power_Module-DCpath59" />
      <path
         d="M63.57 24.29l6.08 3.46v6.89l-6.08 3.46-6.07-3.46v-6.89l6.07-3.46m0-1.15l-7.07 4v8l7.07 4 7.08-4v-8z"
         fill="#cacac9"
         id="N540-FH-AGG-SYS_Power_Module-DCpath61" />
      <path
         d="M77.72 23.72l6.57 3.74v7.47l-6.57 3.74-6.58-3.74v-7.47z"
         id="N540-FH-AGG-SYS_Power_Module-DCpath63" />
      <path
         d="M77.72 24.29l6.07 3.46v6.89l-6.07 3.46-6.07-3.46v-6.89l6.07-3.46m0-1.15l-7.07 4v8l7.07 4 7.07-4v-8z"
         fill="#cacac9"
         id="N540-FH-AGG-SYS_Power_Module-DCpath65" />
      <path
         d="M56.5 11.64l6.57 3.74v7.47l-6.57 3.74-6.57-3.74v-7.47z"
         id="N540-FH-AGG-SYS_Power_Module-DCpath67" />
      <path
         d="M56.5 12.22l6.07 3.45v6.89L56.5 26l-6.07-3.46v-6.87l6.07-3.45m0-1.15l-7.07 4v8.05l7.07 4 7.07-4v-8l-7.07-4z"
         fill="#cacac9"
         id="N540-FH-AGG-SYS_Power_Module-DCpath69" />
      <path
         d="M42.36 11.64l6.57 3.74v7.47l-6.57 3.74-6.57-3.74v-7.47z"
         id="N540-FH-AGG-SYS_Power_Module-DCpath71" />
      <path
         d="M42.36 12.22l6.07 3.45v6.89L42.36 26l-6.07-3.46v-6.87l6.07-3.45m0-1.15l-7.07 4v8.05l7.07 4 7.07-4v-8l-7.07-4z"
         fill="#cacac9"
         id="N540-FH-AGG-SYS_Power_Module-DCpath73" />
      <path
         d="M49.43 47.87L56 51.62v7.47l-6.57 3.74-6.57-3.74v-7.47z"
         id="N540-FH-AGG-SYS_Power_Module-DCpath75" />
      <path
         d="M49.43 48.45l6.07 3.46v6.89l-6.07 3.45-6.07-3.45v-6.89l6.07-3.46m0-1.15l-7.07 4v8.05l7.07 4 7.07-4v-8.02l-7.07-4z"
         fill="#cacac9"
         id="N540-FH-AGG-SYS_Power_Module-DCpath77" />
      <path
         d="M63.57 47.87l6.57 3.75v7.47l-6.57 3.74L57 59.09v-7.47z"
         id="N540-FH-AGG-SYS_Power_Module-DCpath79" />
      <path
         d="M63.57 48.45l6.08 3.46v6.89l-6.08 3.45-6.07-3.45v-6.89l6.07-3.46m0-1.15l-7.07 4v8.05l7.07 4 7.08-4v-8.02l-7.08-4z"
         fill="#cacac9"
         id="N540-FH-AGG-SYS_Power_Module-DCpath81" />
      <path
         d="M77.72 47.87l6.57 3.75v7.47l-6.57 3.74-6.58-3.74v-7.47z"
         id="N540-FH-AGG-SYS_Power_Module-DCpath83" />
      <path
         d="M77.72 48.45l6.07 3.46v6.89l-6.07 3.45-6.07-3.45v-6.89l6.07-3.46m0-1.15l-7.07 4v8.05l7.07 4 7.07-4v-8.02l-7.07-4z"
         fill="#cacac9"
         id="N540-FH-AGG-SYS_Power_Module-DCpath85" />
      <path
         d="M56.5 35.8l6.57 3.74v7.47l-6.57 3.74-6.57-3.74v-7.47z"
         id="N540-FH-AGG-SYS_Power_Module-DCpath87" />
      <path
         d="M56.5 36.37l6.07 3.46v6.89l-6.07 3.45-6.07-3.45v-6.89l6.07-3.46m0-1.15l-7.07 4v8l7.07 4 7.07-4v-8z"
         fill="#cacac9"
         id="N540-FH-AGG-SYS_Power_Module-DCpath89" />
      <path
         d="M70.64 35.8l6.58 3.74v7.47l-6.58 3.74-6.57-3.74v-7.47z"
         id="N540-FH-AGG-SYS_Power_Module-DCpath91" />
      <path
         d="M70.65 36.37l6.07 3.46v6.89l-6.07 3.45-6.08-3.45v-6.89l6.08-3.46m0-1.15l-7.08 4v8l7.08 4 7.07-4v-8z"
         fill="#cacac9"
         id="N540-FH-AGG-SYS_Power_Module-DCpath93" />
      <path
         d="M42.36 35.8l6.57 3.74v7.47l-6.57 3.74-6.57-3.74v-7.47z"
         id="N540-FH-AGG-SYS_Power_Module-DCpath95" />
      <path
         d="M42.36 36.37l6.07 3.46v6.89l-6.07 3.45-6.07-3.45v-6.89l6.07-3.46m0-1.15l-7.07 4v8l7.07 4 7.07-4v-8z"
         fill="#cacac9"
         id="N540-FH-AGG-SYS_Power_Module-DCpath97" />
      <path
         d="M49.43 72.03L56 75.77v7.47l-6.57 3.74-6.57-3.74v-7.47z"
         id="N540-FH-AGG-SYS_Power_Module-DCpath99" />
      <path
         d="M49.43 72.61l6.07 3.45V83l-6.07 3.46L43.36 83v-6.94l6.07-3.45m0-1.15l-7.07 4v8l7.07 4 7.07-4v-8z"
         fill="#cacac9"
         id="N540-FH-AGG-SYS_Power_Module-DCpath101" />
      <path
         d="M63.57 72.03l6.57 3.74v7.47l-6.57 3.74L57 83.24v-7.47z"
         id="N540-FH-AGG-SYS_Power_Module-DCpath103" />
      <path
         d="M63.57 72.61l6.08 3.45V83l-6.08 3.46L57.5 83v-6.94l6.07-3.45m0-1.15l-7.07 4v8l7.07 4 7.08-4v-8z"
         fill="#cacac9"
         id="N540-FH-AGG-SYS_Power_Module-DCpath105" />
      <path
         d="M77.72 72.03l6.57 3.74v7.47l-6.57 3.74-6.58-3.74v-7.47z"
         id="N540-FH-AGG-SYS_Power_Module-DCpath107" />
      <path
         d="M77.72 72.61l6.07 3.45V83l-6.07 3.46L71.65 83v-6.94l6.07-3.45m0-1.15l-7.07 4v8l7.07 4 7.07-4v-8z"
         fill="#cacac9"
         id="N540-FH-AGG-SYS_Power_Module-DCpath109" />
      <path
         d="M56.5 59.95l6.57 3.74v7.47l-6.57 3.75-6.57-3.75v-7.47z"
         id="N540-FH-AGG-SYS_Power_Module-DCpath111" />
      <path
         d="M56.5 60.53L62.57 64v6.89l-6.07 3.44-6.07-3.46V64l6.07-3.45m0-1.15l-7.07 4v8.06l7.07 4 7.07-4V63.4z"
         fill="#cacac9"
         id="N540-FH-AGG-SYS_Power_Module-DCpath113" />
      <path
         d="M70.64 59.95l6.58 3.74v7.47l-6.58 3.75-6.57-3.75v-7.47z"
         id="N540-FH-AGG-SYS_Power_Module-DCpath115" />
      <path
         d="M70.65 60.53L76.72 64v6.89l-6.07 3.46-6.08-3.46V64l6.08-3.45m0-1.15l-7.08 4v8.06l7.08 4 7.07-4V63.4z"
         fill="#cacac9"
         id="N540-FH-AGG-SYS_Power_Module-DCpath117" />
      <path
         d="M42.36 59.95l6.57 3.74v7.47l-6.57 3.75-6.57-3.75v-7.47z"
         id="N540-FH-AGG-SYS_Power_Module-DCpath119" />
      <path
         d="M42.36 60.53L48.43 64v6.89l-6.07 3.46-6.07-3.46V64l6.07-3.45m0-1.15l-7.07 4v8.06l7.07 4 7.07-4V63.4z"
         fill="#cacac9"
         id="N540-FH-AGG-SYS_Power_Module-DCpath121" />
      <path
         d="M56.5 84.11l6.57 3.74v7.47l-6.57 3.74-6.57-3.74v-7.47z"
         id="N540-FH-AGG-SYS_Power_Module-DCpath123" />
      <path
         d="M56.5 84.68l6.07 3.46V95l-6.07 3.49L50.43 95v-6.86l6.07-3.46m0-1.15l-7.07 4v8l7.07 4 7.07-4v-8z"
         fill="#cacac9"
         id="N540-FH-AGG-SYS_Power_Module-DCpath125" />
      <path
         d="M56.48 108.27l6.58 3.75v7.47l-6.58 3.74-6.57-3.74v-7.47z"
         id="N540-FH-AGG-SYS_Power_Module-DCpath127" />
      <path
         d="M56.49 108.85l6.07 3.46v6.89l-6.07 3.45-6.08-3.45v-6.89l6.08-3.46m0-1.15l-7.08 4v8l7.08 4 7.07-4v-8z"
         fill="#cacac9"
         id="N540-FH-AGG-SYS_Power_Module-DCpath129" />
      <path
         d="M70.64 84.11l6.58 3.74v7.47l-6.58 3.74-6.57-3.74v-7.47z"
         id="N540-FH-AGG-SYS_Power_Module-DCpath131" />
      <path
         d="M70.65 84.68l6.07 3.46V95l-6.07 3.46L64.57 95v-6.86l6.08-3.46m0-1.15l-7.08 4v8l7.08 4 7.07-4v-8z"
         fill="#cacac9"
         id="N540-FH-AGG-SYS_Power_Module-DCpath133" />
      <path
         d="M70.6 108.27l6.57 3.74v7.47l-6.57 3.74-6.57-3.74v-7.47z"
         id="N540-FH-AGG-SYS_Power_Module-DCpath135" />
      <path
         d="M70.6 108.84l6.07 3.46v6.89l-6.07 3.45-6.07-3.45v-6.89l6.07-3.46m0-1.15l-7.07 4v8.06l7.07 4 7.07-4v-8.06z"
         fill="#cacac9"
         id="N540-FH-AGG-SYS_Power_Module-DCpath137" />
      <path
         d="M63.56 96.19l6.58 3.74v7.48l-6.58 3.74-6.58-3.74v-7.48z"
         id="N540-FH-AGG-SYS_Power_Module-DCpath139" />
      <path
         d="M63.56 96.76l6.08 3.46v6.9l-6.08 3.46-6.07-3.46v-6.9l6.07-3.46m0-1.15l-7.07 4v8.06l7.07 4 7.08-4v-8.03l-7.08-4z"
         fill="#cacac9"
         id="N540-FH-AGG-SYS_Power_Module-DCpath141" />
      <path
         d="M77.72 96.19l6.57 3.74v7.48l-6.57 3.74-6.58-3.74v-7.48z"
         id="N540-FH-AGG-SYS_Power_Module-DCpath143" />
      <path
         d="M77.72 96.76l6.07 3.46v6.9l-6.07 3.46-6.08-3.46v-6.9l6.08-3.46m0-1.15l-7.08 4v8.06l7.08 4 7.07-4v-8.03l-7.07-4z"
         fill="#cacac9"
         id="N540-FH-AGG-SYS_Power_Module-DCpath145" />
      <path
         d="M49.43 144.5l6.57 3.74v7.47l-6.57 3.74-6.57-3.74v-7.47z"
         id="N540-FH-AGG-SYS_Power_Module-DCpath147" />
      <path
         d="M49.43 145.07l6.07 3.46v6.89l-6.07 3.46-6.07-3.46v-6.89l6.07-3.46m0-1.15l-7.07 4V156l7.07 4 7.07-4v-8l-7.07-4z"
         fill="#cacac9"
         id="N540-FH-AGG-SYS_Power_Module-DCpath149" />
      <path
         d="M63.57 144.5l6.57 3.74v7.47l-6.57 3.74-6.57-3.74v-7.47z"
         id="N540-FH-AGG-SYS_Power_Module-DCpath151" />
      <path
         d="M63.57 145.07l6.08 3.46v6.89l-6.08 3.46-6.07-3.46v-6.89l6.07-3.46m0-1.15l-7.07 4V156l7.07 4 7.08-4v-8l-7.08-4z"
         fill="#cacac9"
         id="N540-FH-AGG-SYS_Power_Module-DCpath153" />
      <path
         d="M77.72 144.5l6.57 3.74v7.47l-6.57 3.74-6.58-3.74v-7.47z"
         id="N540-FH-AGG-SYS_Power_Module-DCpath155" />
      <path
         d="M77.72 145.07l6.07 3.46v6.89l-6.07 3.46-6.07-3.46v-6.89l6.07-3.46m0-1.15l-7.07 4V156l7.07 4 7.07-4v-8l-7.07-4z"
         fill="#cacac9"
         id="N540-FH-AGG-SYS_Power_Module-DCpath157" />
      <path
         d="M91.86 144.5l6.57 3.74v7.47l-6.57 3.74-6.57-3.74v-7.47z"
         id="N540-FH-AGG-SYS_Power_Module-DCpath159" />
      <path
         d="M91.86 145.07l6.07 3.46v6.89l-6.07 3.46-6.07-3.46v-6.89l6.07-3.46m0-1.15l-7.07 4V156l7.07 4 7.07-4v-8l-7.07-4z"
         fill="#cacac9"
         id="N540-FH-AGG-SYS_Power_Module-DCpath161" />
      <path
         d="M63.53 120.34l6.57 3.74v7.47l-6.57 3.75-6.57-3.75v-7.47z"
         id="N540-FH-AGG-SYS_Power_Module-DCpath163" />
      <path
         d="M63.53 120.92l6.07 3.45v6.89l-6.07 3.46-6.07-3.46v-6.89l6.07-3.45m0-1.15l-7.07 4v8l7.07 4 7.07-4v-8z"
         fill="#cacac9"
         id="N540-FH-AGG-SYS_Power_Module-DCpath165" />
      <path
         d="M77.67 120.34l6.57 3.74v7.47l-6.57 3.75-6.57-3.75v-7.47z"
         id="N540-FH-AGG-SYS_Power_Module-DCpath167" />
      <path
         d="M77.67 120.92l6.07 3.45v6.89l-6.07 3.46-6.07-3.46v-6.89l6.07-3.45m0-1.15l-7.07 4v8l7.07 4 7.07-4v-8z"
         fill="#cacac9"
         id="N540-FH-AGG-SYS_Power_Module-DCpath169" />
      <path
         d="M28.22 11.64l6.57 3.74v7.47l-6.57 3.74-6.57-3.74v-7.47z"
         id="N540-FH-AGG-SYS_Power_Module-DCpath171" />
      <path
         d="M28.22 12.22l6.07 3.45v6.89L28.22 26l-6.07-3.46v-6.87l6.07-3.45m0-1.15l-7.07 4v8.05l7.07 4 7.07-4v-8l-7.07-4z"
         fill="#cacac9"
         id="N540-FH-AGG-SYS_Power_Module-DCpath173" />
      <path
         d="M35.29 23.72l6.57 3.74v7.47l-6.57 3.74-6.57-3.74v-7.47z"
         id="N540-FH-AGG-SYS_Power_Module-DCpath175" />
      <path
         d="M35.29 24.29l6.07 3.46v6.89l-6.07 3.46-6.07-3.46v-6.89l6.07-3.46m0-1.15l-7.07 4v8l7.07 4 7.07-4v-8z"
         fill="#cacac9"
         id="N540-FH-AGG-SYS_Power_Module-DCpath177" />
      <path
         d="M28.22 35.8l6.57 3.74v7.47l-6.57 3.74-6.57-3.74v-7.47z"
         id="N540-FH-AGG-SYS_Power_Module-DCpath179" />
      <path
         d="M28.22 36.37l6.07 3.46v6.89l-6.07 3.45-6.07-3.45v-6.89l6.07-3.46m0-1.15l-7.07 4v8l7.07 4 7.07-4v-8z"
         fill="#cacac9"
         id="N540-FH-AGG-SYS_Power_Module-DCpath181" />
      <path
         d="M35.29 47.87l6.57 3.75v7.47l-6.57 3.74-6.57-3.74v-7.47z"
         id="N540-FH-AGG-SYS_Power_Module-DCpath183" />
      <path
         d="M35.29 48.45l6.07 3.46v6.89l-6.07 3.45-6.07-3.45v-6.89l6.07-3.46m0-1.15l-7.07 4v8.05l7.07 4 7.07-4v-8.02l-7.07-4z"
         fill="#cacac9"
         id="N540-FH-AGG-SYS_Power_Module-DCpath185" />
      <path
         d="M28.22 59.95l6.57 3.74v7.47l-6.57 3.75-6.57-3.75v-7.47z"
         id="N540-FH-AGG-SYS_Power_Module-DCpath187" />
      <path
         d="M28.22 60.53L34.29 64v6.89l-6.07 3.46-6.07-3.46V64l6.07-3.45m0-1.15l-7.07 4v8.06l7.07 4 7.07-4V63.4z"
         fill="#cacac9"
         id="N540-FH-AGG-SYS_Power_Module-DCpath189" />
      <path
         d="M35.29 72.03l6.57 3.74v7.47l-6.57 3.74-6.57-3.74v-7.47z"
         id="N540-FH-AGG-SYS_Power_Module-DCpath191" />
      <path
         d="M35.29 72.61l6.07 3.45V83l-6.07 3.46L29.22 83v-6.94l6.07-3.45m0-1.15l-7.07 4v8l7.07 4 7.07-4v-8z"
         fill="#cacac9"
         id="N540-FH-AGG-SYS_Power_Module-DCpath193" />
      <path
         d="M14.14 11.64l6.57 3.74v7.47l-6.57 3.74-6.57-3.74v-7.47z"
         id="N540-FH-AGG-SYS_Power_Module-DCpath195" />
      <path
         d="M14.14 12.22l6.07 3.45v6.89L14.14 26l-6.07-3.44v-6.89l6.07-3.45m0-1.15l-7.07 4v8.05l7.07 4 7.07-4v-8l-7.07-4z"
         fill="#cacac9"
         id="N540-FH-AGG-SYS_Power_Module-DCpath197" />
      <path
         d="M21.21 23.72l6.57 3.74v7.47l-6.57 3.74-6.57-3.74v-7.47z"
         id="N540-FH-AGG-SYS_Power_Module-DCpath199" />
      <path
         d="M21.21 24.29l6.07 3.46v6.89l-6.07 3.46-6.07-3.46v-6.89l6.07-3.46m0-1.15l-7.07 4v8l7.07 4 7.07-4v-8z"
         fill="#cacac9"
         id="N540-FH-AGG-SYS_Power_Module-DCpath201" />
      <path
         d="M14.14 35.8l6.57 3.74v7.47l-6.57 3.74-6.57-3.74v-7.47z"
         id="N540-FH-AGG-SYS_Power_Module-DCpath203" />
      <path
         d="M14.14 36.37l6.07 3.46v6.89l-6.07 3.45-6.07-3.45v-6.89l6.07-3.46m0-1.15l-7.07 4v8l7.07 4 7.07-4v-8z"
         fill="#cacac9"
         id="N540-FH-AGG-SYS_Power_Module-DCpath205" />
      <path
         d="M21.21 47.87l6.57 3.75v7.47l-6.57 3.74-6.57-3.74v-7.47z"
         id="N540-FH-AGG-SYS_Power_Module-DCpath207" />
      <path
         d="M21.21 48.45l6.07 3.46v6.89l-6.07 3.45-6.07-3.45v-6.89l6.07-3.46m0-1.15l-7.07 4v8.05l7.07 4 7.07-4v-8.02l-7.07-4z"
         fill="#cacac9"
         id="N540-FH-AGG-SYS_Power_Module-DCpath209" />
      <path
         d="M14.14 59.95l6.57 3.74v7.47l-6.57 3.75-6.57-3.75v-7.47z"
         id="N540-FH-AGG-SYS_Power_Module-DCpath211" />
      <path
         d="M14.14 60.53L20.21 64v6.89l-6.07 3.46-6.07-3.48V64l6.07-3.45m0-1.15l-7.07 4v8.06l7.07 4 7.07-4V63.4z"
         fill="#cacac9"
         id="N540-FH-AGG-SYS_Power_Module-DCpath213" />
      <path
         d="M21.21 72.03l6.57 3.74v7.47l-6.57 3.74-6.57-3.74v-7.47z"
         id="N540-FH-AGG-SYS_Power_Module-DCpath215" />
      <path
         d="M21.21 72.61l6.07 3.45V83l-6.07 3.46L15.14 83v-6.94l6.07-3.45m0-1.15l-7.07 4v8l7.07 4 7.07-4v-8z"
         fill="#cacac9"
         id="N540-FH-AGG-SYS_Power_Module-DCpath217" />
      <path
         d="M7.07 23.72l6.57 3.74v7.47l-6.57 3.74L.5 34.93v-7.47z"
         id="N540-FH-AGG-SYS_Power_Module-DCpath219" />
      <path
         d="M7.07 24.29l6.07 3.46v6.89L7.07 38.1 1 34.64v-6.89l6.07-3.46m0-1.15L0 27.17v8l7.07 4 7.07-4v-8l-7.07-4z"
         fill="#cacac9"
         id="N540-FH-AGG-SYS_Power_Module-DCpath221" />
      <path
         d="M7.07 47.87l6.57 3.75v7.47l-6.57 3.74L.5 59.09v-7.47z"
         id="N540-FH-AGG-SYS_Power_Module-DCpath223" />
      <path
         d="M7.07 48.45l6.07 3.46v6.89l-6.07 3.45L1 58.8v-6.89l6.07-3.46m0-1.15L0 51.33v8.05l7.07 4 7.07-4v-8.05l-7.07-4z"
         fill="#cacac9"
         id="N540-FH-AGG-SYS_Power_Module-DCpath225" />
      <path
         d="M7.07 72.03l6.57 3.74v7.47l-6.57 3.74L.5 83.24v-7.47z"
         id="N540-FH-AGG-SYS_Power_Module-DCpath227" />
      <path
         d="M7.07 72.61l6.07 3.45V83l-6.07 3.41L1 83v-6.94l6.07-3.45m0-1.15L0 75.48v8l7.07 4 7.07-4v-8l-7.07-4z"
         fill="#cacac9"
         id="N540-FH-AGG-SYS_Power_Module-DCpath229" />
      <path
         d="M35.29 144.5l6.57 3.74v7.47l-6.57 3.74-6.57-3.74v-7.47z"
         id="N540-FH-AGG-SYS_Power_Module-DCpath231" />
      <path
         d="M35.29 145.07l6.07 3.46v6.89l-6.07 3.46-6.07-3.46v-6.89l6.07-3.46m0-1.15l-7.07 4V156l7.07 4 7.07-4v-8l-7.07-4z"
         fill="#cacac9"
         id="N540-FH-AGG-SYS_Power_Module-DCpath233" />
    </g>
    <rect
       x="68.68"
       y="8.29"
       width="20.22"
       height="134.88"
       rx="10"
       fill="#b3b3b3"
       id="N540-FH-AGG-SYS_Power_Module-DCrect237" />
    <path
       d="M78.9 9.29a9 9 0 019 9v114.89a9 9 0 01-9 9h-.22a9 9 0 01-9-9V18.29a9 9 0 019-9h.22m0-2h-.22a11 11 0 00-11 11v114.89a11 11 0 0011 11h.22a11 11 0 0011-11V18.29a11 11 0 00-11-11z"
       fill="#4d4d4d"
       id="N540-FH-AGG-SYS_Power_Module-DCpath239" />
    <path
       fill="#333"
       d="M97.98 1.85h1.01v17.11h-1.01zM179.8 15.94h17.17v1.01H179.8z"
       id="N540-FH-AGG-SYS_Power_Module-DCpath241" />
    <rect
       x="179.29"
       y="114.73"
       width="19.2"
       height="38.25"
       rx="6.5"
       fill="#b3b3b3"
       id="N540-FH-AGG-SYS_Power_Module-DCrect243" />
    <path
       d="M192 115.23a6 6 0 016 6v25.25a6 6 0 01-6 6h-6.2a6 6 0 01-6-6v-25.25a6 6 0 016-6h6.2m0-1h-6.2a7 7 0 00-7 7v25.25a7 7 0 007 7h6.2a7 7 0 007-7v-25.25a7 7 0 00-7-7z"
       fill="#4d4d4d"
       id="N540-FH-AGG-SYS_Power_Module-DCpath245" />
  </g>
  <path
     d="M97.49 110.34a1.2 1.2 0 01-1.28-1.08V50.2a1.21 1.21 0 011.28-1.08h92.66a1.21 1.21 0 011.29 1.08v59.06a1.2 1.2 0 01-1.29 1.08z"
     fill="#333"
     fill-rule="evenodd"
     id="N540-FH-AGG-SYS_Power_Module-DCpath249" />
  <path
     d="M97.49 48.73v.78h92.66a.83.83 0 01.9.69v59.06a.82.82 0 01-.9.69H97.49a.83.83 0 01-.9-.69V50.2a.84.84 0 01.9-.69v-.78m0 0a1.59 1.59 0 00-1.67 1.47v59.06a1.58 1.58 0 001.67 1.47h92.66a1.58 1.58 0 001.68-1.47V50.2a1.59 1.59 0 00-1.68-1.47z"
     fill="#999"
     id="N540-FH-AGG-SYS_Power_Module-DCpath251" />
  <path
     fill="#4d4d4d"
     d="M99.82 60.03h88v39.4h-88z"
     id="N540-FH-AGG-SYS_Power_Module-DCpath253" />
  <path
     fill="#ccc"
     d="M104.02 72.63h33v15h-33z"
     id="N540-FH-AGG-SYS_Power_Module-DCpath255" />
  <path
     d="M136.52 73.13v14h-32v-14h32m1-1h-34v16h34z"
     fill="#999"
     id="N540-FH-AGG-SYS_Power_Module-DCpath257" />
  <path
     d="M109.52 92.13a1.54 1.54 0 01-1.5-1.5v-20.3a1.54 1.54 0 011.5-1.5h22.2a1.54 1.54 0 011.5 1.5v20.2a1.54 1.54 0 01-1.5 1.5z"
     fill="#ccc"
     id="N540-FH-AGG-SYS_Power_Module-DCpath259" />
  <path
     d="M131.72 69.33a.94.94 0 011 .88.24.24 0 010 .12v20.2a.93.93 0 01-.87 1 .29.29 0 01-.13 0h-22.2a.94.94 0 01-1-.87V70.33a1 1 0 01.88-1h22.32m0-1h-22.2a2 2 0 00-2 2v20.2a2 2 0 002 2h22.2a2 2 0 002-2v-20.2a2 2 0 00-2-2z"
     fill="#666"
     id="N540-FH-AGG-SYS_Power_Module-DCpath261" />
  <path
     d="M132.62 90.73a1.41 1.41 0 01-1.2-.8 3.68 3.68 0 00-3.2-2 3.57 3.57 0 00-3.2 2 1.38 1.38 0 01-1.2.8h-6.2a1.41 1.41 0 01-1.2-.8 3.68 3.68 0 00-3.2-2 3.57 3.57 0 00-3.2 2 1.38 1.38 0 01-1.2.8h-.2a1.32 1.32 0 01-1.3-1.3v-4.3a1.16 1.16 0 01.6-1.1l1.2-.7a2.28 2.28 0 001.1-2v-1.7a2.31 2.31 0 00-1.1-2l-1.2-.7a1.25 1.25 0 01-.6-1.1v-4.3a1.32 1.32 0 011.3-1.3h.2a1.42 1.42 0 011.2.8 3.66 3.66 0 003.2 2 3.54 3.54 0 003.2-2 1.45 1.45 0 011.2-.8h6.2a1.42 1.42 0 011.2.8 3.66 3.66 0 003.2 2 3.53 3.53 0 003.2-2 1.45 1.45 0 011.2-.8 1.32 1.32 0 011.3 1.3v4.3a1.13 1.13 0 01-.6 1.1l-1.2.7a2.33 2.33 0 00-1.1 2v1.7a2.31 2.31 0 001.1 2l1.2.7a1.23 1.23 0 01.6 1.1v4.3a1.31 1.31 0 01-1.3 1.3z"
     fill="#ccc"
     id="N540-FH-AGG-SYS_Power_Module-DCpath263" />
  <path
     d="M132.62 70.73a.86.86 0 01.8.8v4.3a1 1 0 01-.4.7l-1.3.7a2.72 2.72 0 00-1.4 2.4v1.7a2.7 2.7 0 001.4 2.4l1.2.7a.82.82 0 01.4.7v4.3a.86.86 0 01-.8.8.75.75 0 01-.7-.5 4 4 0 00-3.67-2.2 4.46 4.46 0 00-3.7 2.2.54.54 0 01-.6.5h-6.2a.75.75 0 01-.7-.5 4 4 0 00-3.7-2.2 4.46 4.46 0 00-3.7 2.2.73.73 0 01-.7.5h-.2a.86.86 0 01-.8-.8v-4.3a1 1 0 01.4-.7l1.2-.7a2.66 2.66 0 001.4-2.4v-1.7a2.68 2.68 0 00-1.4-2.4l-1.2-.7a1.33 1.33 0 01-.4-.7v-4.3a.86.86 0 01.8-.8h.2a.76.76 0 01.7.5 4 4 0 003.7 2.2 4.45 4.45 0 003.7-2.2c.2-.3.4-.5.7-.5h6.2a.76.76 0 01.7.5 4 4 0 003.7 2.2 4.45 4.45 0 003.7-2.2.78.78 0 01.7-.5m0-1a1.72 1.72 0 00-1.6 1.1 3.14 3.14 0 01-2.8 1.7 3.29 3.29 0 01-2.8-1.7 1.89 1.89 0 00-1.6-1.1h-6.2a1.72 1.72 0 00-1.6 1.1 3.14 3.14 0 01-2.8 1.7 3.29 3.29 0 01-2.8-1.7 1.89 1.89 0 00-1.6-1.1h-.2a1.81 1.81 0 00-1.8 1.78v4.32a1.91 1.91 0 00.9 1.6l1.2.7a1.7 1.7 0 01.9 1.6v1.7A1.88 1.88 0 01109 83l-1.2.7a1.58 1.58 0 00-.9 1.4v4.3a1.79 1.79 0 001.78 1.8h.22a1.7 1.7 0 001.6-1.1 3.18 3.18 0 012.8-1.7 3.29 3.29 0 012.8 1.7 1.88 1.88 0 001.6 1.1h6.2a1.7 1.7 0 001.6-1.1 3.18 3.18 0 012.8-1.7 3.29 3.29 0 012.8 1.7 1.88 1.88 0 001.6 1.1 1.78 1.78 0 001.8-1.78v-4.29a1.91 1.91 0 00-.9-1.6l-1.2-.7a1.72 1.72 0 01-.9-1.6v-1.7a1.93 1.93 0 01.9-1.6l1.2-.7a1.68 1.68 0 00.9-1.6v-4.3a1.76 1.76 0 00-1.85-1.6z"
     fill="#999"
     id="N540-FH-AGG-SYS_Power_Module-DCpath265" />
  <circle
     cx="120.62"
     cy="80.43"
     r="8"
     fill="#b3b3b3"
     id="N540-FH-AGG-SYS_Power_Module-DCcircle267" />
  <path
     d="M120.62 72.93a7.5 7.5 0 11-7.47 7.53 7.55 7.55 0 017.5-7.5m0-1a8.5 8.5 0 108.5 8.5 8.51 8.51 0 00-8.5-8.5z"
     fill="#666"
     id="N540-FH-AGG-SYS_Power_Module-DCpath269" />
  <path
     d="M120.62 85.53a5 5 0 115-5 5 5 0 01-5 5z"
     fill="#ccc"
     id="N540-FH-AGG-SYS_Power_Module-DCpath271" />
  <path
     d="M120.62 75.93a4.5 4.5 0 11-4.47 4.53 4.49 4.49 0 014.46-4.5m0-1a5.49 5.49 0 00-5.5 5.46 5.5 5.5 0 105.5-5.5z"
     fill="#666"
     id="N540-FH-AGG-SYS_Power_Module-DCpath273" />
  <path
     d="M120.52 85.53v-4a.47.47 0 00-.43-.5h-1.87v-1.1H120a.46.46 0 00.5-.43.09.09 0 000-.07v-4h.3v4a.47.47 0 00.44.5h1.89V81h-1.8a.48.48 0 00-.5.44v4.06z"
     fill="#e6e6e6"
     id="N540-FH-AGG-SYS_Power_Module-DCpath275" />
  <path
     d="M120.62 80.23a1.47 1.47 0 00.6.2h1.3v.1h-1.3a1.19 1.19 0 00-.6.2 1.38 1.38 0 00-.6-.2h-1.3v-.1H120a1.38 1.38 0 00.6-.2m.6-5.3h-1.3v4.5h-2.3v2.1h2.3V86h1.3v-4.5h2.3v-2.1h-2.3z"
     fill="#666"
     id="N540-FH-AGG-SYS_Power_Module-DCpath277" />
  <path
     fill="#ccc"
     d="M150.32 72.63h33v15h-33z"
     id="N540-FH-AGG-SYS_Power_Module-DCpath279" />
  <path
     d="M182.82 73.13v14h-32v-14h32m1-1h-34v16h34z"
     fill="#999"
     id="N540-FH-AGG-SYS_Power_Module-DCpath281" />
  <path
     d="M155.82 92.13a1.54 1.54 0 01-1.5-1.5v-20.3a1.54 1.54 0 011.5-1.5H178a1.54 1.54 0 011.5 1.5v20.2A1.54 1.54 0 01178 92z"
     fill="#ccc"
     id="N540-FH-AGG-SYS_Power_Module-DCpath283" />
  <path
     d="M178.15 69.33a.94.94 0 011 .88.24.24 0 010 .12v20.2a.93.93 0 01-.87 1 .29.29 0 01-.13 0h-22.33a.94.94 0 01-1-.87V70.33a1 1 0 01.88-1h22.45m0-1h-22.33a2 2 0 00-2 2v20.2a2 2 0 002 2H178a2 2 0 002-2v-20.2a1.86 1.86 0 00-1.71-2h-.16z"
     fill="#666"
     id="N540-FH-AGG-SYS_Power_Module-DCpath285" />
  <path
     d="M178.92 90.73a1.41 1.41 0 01-1.2-.8 3.57 3.57 0 00-4.72-1.64 3.62 3.62 0 00-1.64 1.64 1.38 1.38 0 01-1.17.8H164a1.41 1.41 0 01-1.2-.8 3.57 3.57 0 00-4.8-1.64 3.62 3.62 0 00-1.64 1.64 1.38 1.38 0 01-1.2.8H155a1.32 1.32 0 01-1.3-1.3v-4.3a1.16 1.16 0 01.6-1.1l1.2-.7a2.28 2.28 0 001.1-2v-1.7a2.31 2.31 0 00-1.1-2l-1.2-.7a1.25 1.25 0 01-.6-1.1v-4.3a1.32 1.32 0 011.3-1.3h.2a1.42 1.42 0 011.2.8 3.56 3.56 0 004.76 1.64 3.44 3.44 0 001.59-1.67 1.45 1.45 0 011.2-.8h6.2a1.42 1.42 0 011.2.8 3.56 3.56 0 004.76 1.64 3.44 3.44 0 001.64-1.64 1.45 1.45 0 011.2-.8 1.32 1.32 0 011.3 1.3v4.3a1.13 1.13 0 01-.6 1.1l-1.2.7a2.33 2.33 0 00-1.1 2v1.7a2.31 2.31 0 001.1 2l1.2.7a1.23 1.23 0 01.6 1.1v4.3a1.31 1.31 0 01-1.33 1.33z"
     fill="#ccc"
     id="N540-FH-AGG-SYS_Power_Module-DCpath287" />
  <path
     d="M178.92 70.73a.86.86 0 01.8.8v4.3a1 1 0 01-.4.7l-1.2.7a2.72 2.72 0 00-1.4 2.4v1.7a2.69 2.69 0 001.43 2.4l1.2.7a.82.82 0 01.4.7v4.3a.86.86 0 01-.8.8.75.75 0 01-.7-.5 4 4 0 00-3.7-2.2 4.46 4.46 0 00-3.7 2.2c-.2.3-.4.5-.7.5H164a.75.75 0 01-.7-.5 4 4 0 00-3.7-2.2 4.46 4.46 0 00-3.7 2.2c-.2.3-.4.5-.7.5h-.2a.86.86 0 01-.8-.8v-4.3a1 1 0 01.4-.7l1.2-.7a2.66 2.66 0 001.4-2.4v-1.7a2.68 2.68 0 00-1.4-2.4l-1.2-.7a.86.86 0 01-.4-.7v-4.3a.86.86 0 01.8-.8h.2a.76.76 0 01.7.5 4 4 0 003.7 2.2 4.45 4.45 0 003.7-2.2c.2-.3.4-.5.7-.5h6.2a.76.76 0 01.7.5 4 4 0 003.7 2.2 4.45 4.45 0 003.7-2.2.78.78 0 01.7-.5m0-1a1.72 1.72 0 00-1.6 1.1 3.14 3.14 0 01-2.8 1.7 3.29 3.29 0 01-2.8-1.7 1.89 1.89 0 00-1.6-1.1H164a1.72 1.72 0 00-1.6 1.1 3.14 3.14 0 01-2.8 1.7 3.29 3.29 0 01-2.8-1.7 1.89 1.89 0 00-1.6-1.1h-.2a1.81 1.81 0 00-1.8 1.78v4.32a1.91 1.91 0 00.9 1.6l1.2.7a1.7 1.7 0 01.9 1.6v1.7a1.88 1.88 0 01-.9 1.6l-1.2.7a1.74 1.74 0 00-.9 1.6v4.3a1.79 1.79 0 001.78 1.8h.22a1.7 1.7 0 001.6-1.1 3.18 3.18 0 012.8-1.7 3.29 3.29 0 012.8 1.7 1.88 1.88 0 001.6 1.1h6.2a1.7 1.7 0 001.6-1.1 3.18 3.18 0 012.8-1.7 3.29 3.29 0 012.8 1.7 1.88 1.88 0 001.6 1.1 1.78 1.78 0 001.8-1.78v-4.32a1.91 1.91 0 00-.9-1.6l-1.2-.7a1.72 1.72 0 01-.9-1.6v-1.7a1.93 1.93 0 01.9-1.6l1.2-.7a1.68 1.68 0 00.9-1.6v-4.3a1.79 1.79 0 00-1.78-1.8z"
     fill="#999"
     id="N540-FH-AGG-SYS_Power_Module-DCpath289" />
  <circle
     cx="166.92"
     cy="80.43"
     r="8"
     fill="#b3b3b3"
     id="N540-FH-AGG-SYS_Power_Module-DCcircle291" />
  <path
     d="M166.92 72.93a7.5 7.5 0 11-7.5 7.5 7.55 7.55 0 017.5-7.5m0-1a8.5 8.5 0 108.5 8.5 8.51 8.51 0 00-8.5-8.5z"
     fill="#666"
     id="N540-FH-AGG-SYS_Power_Module-DCpath293" />
  <path
     d="M166.92 85.53a5 5 0 115-5 5 5 0 01-5 5z"
     fill="#ccc"
     id="N540-FH-AGG-SYS_Power_Module-DCpath295" />
  <path
     d="M166.92 75.93a4.5 4.5 0 11-4.5 4.5 4.5 4.5 0 014.5-4.5m0-1a5.49 5.49 0 00-5.5 5.46 5.5 5.5 0 105.5-5.5z"
     fill="#666"
     id="N540-FH-AGG-SYS_Power_Module-DCpath297" />
  <path
     d="M166.82 85.53v-4a.47.47 0 00-.43-.5h-1.87v-1.1h1.8a.46.46 0 00.5-.43.09.09 0 000-.07v-4h.33v4a.47.47 0 00.44.5h1.86V81h-1.8a.48.48 0 00-.5.44v4.06z"
     fill="#e6e6e6"
     id="N540-FH-AGG-SYS_Power_Module-DCpath299" />
  <path
     d="M166.92 80.23a1.47 1.47 0 00.6.2h1.3v.1h-1.3a1.19 1.19 0 00-.6.2 1.38 1.38 0 00-.6-.2H165v-.1h1.3a1 1 0 00.6-.2m.7-5.3h-1.3v4.5H164v2.1h2.3V86h1.3v-4.5h2.3v-2.1h-2.3z"
     fill="#666"
     id="N540-FH-AGG-SYS_Power_Module-DCpath301" />
  <path
     fill="#4d4d4d"
     d="M141.92 55.93h4v46h-4z"
     id="N540-FH-AGG-SYS_Power_Module-DCpath303" />
  <path
     d="M145.42 56.43v45h-3v-45h3m1-1h-5v47h5z"
     fill="#666"
     id="N540-FH-AGG-SYS_Power_Module-DCpath305" />
  <path
     fill="#4d4d4d"
     d="M141.92 102.53h4v3h-4z"
     id="N540-FH-AGG-SYS_Power_Module-DCpath307" />
  <path
     d="M145.42 103v2h-3v-2h3m1-1h-5v4h5z"
     fill="#666"
     id="N540-FH-AGG-SYS_Power_Module-DCpath309" />
  <path
     fill="#4d4d4d"
     d="M141.92 53.43h4v3h-4z"
     id="N540-FH-AGG-SYS_Power_Module-DCpath311" />
  <path
     d="M145.42 53.93v2h-3v-2h3m1-1h-5v4h5z"
     fill="#666"
     id="N540-FH-AGG-SYS_Power_Module-DCpath313" />
  <path
     fill="#333"
     d="M99.82 53.23h88v6h-88z"
     id="N540-FH-AGG-SYS_Power_Module-DCpath315" />
  <path
     fill="#666"
     d="M187.82 53.23v-1h-88v1zM99.82 60.23h88v-1h-88z"
     id="N540-FH-AGG-SYS_Power_Module-DCpath317" />
  <path
     fill="#333"
     d="M99.82 100.23h88v6h-88z"
     id="N540-FH-AGG-SYS_Power_Module-DCpath319" />
  <path
     fill="#666"
     d="M99.82 107.23h88v-1h-88zM99.82 99.23v1h88v-1z"
     id="N540-FH-AGG-SYS_Power_Module-DCpath321" />
  <path
     fill="#333"
     d="M153.65 36.23h11v2h-11zM120.82 31.73v4h-4v2h4v4h2v-4h4v-2h-4v-4z"
     id="N540-FH-AGG-SYS_Power_Module-DCpath323" />
  <path
     d="M140.82 42.46a12.74 12.74 0 119-3.72 12.72 12.72 0 01-9 3.72z"
     fill="#d9d9d9"
     fill-rule="evenodd"
     id="N540-FH-AGG-SYS_Power_Module-DCpath325" />
  <path
     d="M140.82 17.27a12.43 12.43 0 11-8.82 3.65 12.45 12.45 0 018.82-3.65m0-.54a13 13 0 109.19 3.8 13 13 0 00-9.19-3.8z"
     fill="#4d4d4d"
     id="N540-FH-AGG-SYS_Power_Module-DCpath327" />
  <path
     d="M140.82 41.28A11.56 11.56 0 11149 37.9a11.54 11.54 0 01-8.18 3.38z"
     fill="#d9d9d9"
     fill-rule="evenodd"
     id="N540-FH-AGG-SYS_Power_Module-DCpath329" />
  <path
     d="M140.82 18.45a11.27 11.27 0 11-8 3.3 11.29 11.29 0 018-3.3m0-.54a11.83 11.83 0 108.33 3.46 11.82 11.82 0 00-8.33-3.46z"
     fill="#4d4d4d"
     id="N540-FH-AGG-SYS_Power_Module-DCpath331" />
  <path
     fill="#4d4d4d"
     d="M139.04 22.04h3.55v15.37h-3.55z"
     id="N540-FH-AGG-SYS_Power_Module-DCpath333" />
  <path
     fill="#4d4d4d"
     d="M133.13 27.96h15.37v3.55h-15.37z"
     id="N540-FH-AGG-SYS_Power_Module-DCpath335" />
  <circle
     cx="142.82"
     cy="124.73"
     r="9.5"
     fill="#ccc"
     id="N540-FH-AGG-SYS_Power_Module-DCcircle337" />
  <path
     d="M142.82 115.73a9 9 0 11-9 9 9 9 0 019-9m0-1a10 10 0 1010 10 10 10 0 00-10-10z"
     fill="#999"
     id="N540-FH-AGG-SYS_Power_Module-DCpath339" />
  <text
     xml:space="preserve"
     style="font-style:normal;font-weight:normal;font-size:40px;line-height:1.25;font-family:sans-serif;letter-spacing:0px;word-spacing:0px;fill:#000000;fill-opacity:1;stroke:none"
     x="117.17"
     y="129.08"
     id="N540-FH-AGG-SYS_Power_Module-DCtext349"><tspan
       sodipodi:role="line"
       id="N540-FH-AGG-SYS_Power_Module-DCtspan347"
       x="117.17"
       y="165.57321" /></text>
</svg>
