<?xml version="1.0" encoding="UTF-8" standalone="no"?>
<svg
   id="N540-FH-AGG-SYS_Power_Module_FillerLayer_1"
   data-name="Layer 1"
   viewBox="0 0 200 155.25121"
   version="1.1"
   sodipodi:docname="N540-FH-AGG-SYS_Power_Module_Filler.svg"
   width="200"
   height="155.25121"
   inkscape:version="1.1.1 (3bf5ae0d25, 2021-09-20)"
   xmlns:inkscape="http://www.inkscape.org/namespaces/inkscape"
   xmlns:sodipodi="http://sodipodi.sourceforge.net/DTD/sodipodi-0.dtd"
   xmlns="http://www.w3.org/2000/svg"
   xmlns:svg="http://www.w3.org/2000/svg">
  <defs
     id="N540-FH-AGG-SYS_Power_Module_Fillerdefs11" />
  <sodipodi:namedview
     id="N540-FH-AGG-SYS_Power_Module_Fillernamedview9"
     pagecolor="#ffffff"
     bordercolor="#666666"
     borderopacity="1.0"
     inkscape:pageshadow="2"
     inkscape:pageopacity="0.0"
     inkscape:pagecheckerboard="0"
     showgrid="false"
     fit-margin-top="0"
     fit-margin-left="0"
     fit-margin-right="0"
     fit-margin-bottom="0"
     inkscape:zoom="3.0402576"
     inkscape:cx="100.15599"
     inkscape:cy="77.625"
     inkscape:window-width="1280"
     inkscape:window-height="658"
     inkscape:window-x="-6"
     inkscape:window-y="-6"
     inkscape:window-maximized="1"
     inkscape:current-layer="Layer_1" />
  <path
     d="M 199.63,148.77 V 6.47 c 0,-3.35 -3,-6.1 -6.69,-6.1 H 7.06 c -3.67,0 -6.69,2.75 -6.69,6.1 v 142.3 c 0,3.36 3,6.1 6.69,6.1 h 186 a 6.4,6.4 0 0 0 6.56,-6.1 z"
     fill="#eeeeee"
     id="N540-FH-AGG-SYS_Power_Module_Fillerpath2" />
  <path
     d="M 193.07,155.25 H 7.06 C 3.17,155.25 0,152.34 0,148.77 V 6.47 C 0,2.9 3.17,0 7.06,0 h 185.88 c 3.89,0 7.06,2.9 7.06,6.47 v 142.3 a 6.81,6.81 0 0 1 -6.93,6.48 z M 7.06,0.75 c -3.48,0 -6.31,2.57 -6.31,5.72 v 142.3 c 0,3.16 2.83,5.73 6.31,5.73 h 186 a 6,6 0 0 0 6.18,-5.73 V 6.47 c 0,-3.15 -2.83,-5.72 -6.31,-5.72 z"
     fill="#808080"
     id="N540-FH-AGG-SYS_Power_Module_Fillerpath4" />
  <path
     d="M 190,139.91 V 15.34 C 190,12.4 187.28,10 184,10 H 16 c -3.32,0 -6,2.4 -6,5.34 v 124.57 c 0,2.93 2.72,5.34 6,5.34 h 168 c 3.2,0 5.92,-2.41 5.92,-5.34 z"
     fill="#bfbfbf"
     stroke="#808080"
     stroke-miterlimit="10"
     stroke-width="0.75"
     id="N540-FH-AGG-SYS_Power_Module_Fillerpath6" />
</svg>
