<?xml version="1.0" encoding="UTF-8" standalone="no"?>
<svg
   xmlns:dc="http://purl.org/dc/elements/1.1/"
   xmlns:cc="http://creativecommons.org/ns#"
   xmlns:rdf="http://www.w3.org/1999/02/22-rdf-syntax-ns#"
   xmlns:svg="http://www.w3.org/2000/svg"
   xmlns="http://www.w3.org/2000/svg"
   xmlns:sodipodi="http://sodipodi.sourceforge.net/DTD/sodipodi-0.dtd"
   xmlns:inkscape="http://www.inkscape.org/namespaces/inkscape"
   version="1.1"
   id="N560-4-FAN-HLayer_1"
   x="0"
   y="0"
   viewBox="0 0 250.00002 240"
   xml:space="preserve"
   width="250"
   height="240"
   sodipodi:docname="N560-4-FAN-H.svg"
   inkscape:version="1.0.1 (3bc2e813f5, 2020-09-07)"><metadata
     id="metadata121"><rdf:RDF><cc:Work
         rdf:about=""><dc:format>image/svg+xml</dc:format><dc:type
           rdf:resource="http://purl.org/dc/dcmitype/StillImage" /></cc:Work></rdf:RDF></metadata><defs
     id="defs119" /><sodipodi:namedview
     pagecolor="#ffffff"
     bordercolor="#666666"
     borderopacity="1"
     objecttolerance="10"
     gridtolerance="10"
     guidetolerance="10"
     inkscape:pageopacity="0"
     inkscape:pageshadow="2"
     inkscape:window-width="1280"
     inkscape:window-height="658"
     id="namedview117"
     showgrid="false"
     inkscape:zoom="2.0416667"
     inkscape:cx="125"
     inkscape:cy="120"
     inkscape:window-x="-6"
     inkscape:window-y="-6"
     inkscape:window-maximized="1"
     inkscape:current-layer="N560-4-FAN-HLayer_1" /><style
     type="text/css"
     id="N560-4-FAN-Hstyle2" /><path
     class="N560-4-FAN-Hst0"
     id="N560-4-FAN-Hrect4"
     fill="#333"
     d="M3 62h64v116H3z" /><g
     id="N560-4-FAN-Hg10"><path
       class="N560-4-FAN-Hst1"
       d="M6 239.5c-1.9 0-3.5-1.6-3.5-3.5v-56.5c0-1.9 1.6-3.5 3.5-3.5h56c2.5 0 4.5-2 4.5-4.5v-102c0-2.5-2-4.5-4.5-4.5H6c-1.9 0-3.5-1.6-3.5-3.5V4C2.5 2.1 4.1.5 6 .5h240c1.9 0 3.5 1.6 3.5 3.5v232c0 1.9-1.6 3.5-3.5 3.5z"
       id="N560-4-FAN-Hpath6"
       fill="#b3b3b3" /><path
       class="N560-4-FAN-Hst2"
       d="M246 1c1.7 0 3 1.3 3 3v232c0 1.7-1.3 3-3 3H6c-1.7 0-3-1.3-3-3v-56.5c0-1.7 1.3-3 3-3h56c2.8 0 5-2.2 5-5v-102c0-2.8-2.2-5-5-5H6c-1.7 0-3-1.3-3-3V4c0-1.7 1.3-3 3-3h240m0-1H6C3.8 0 2 1.8 2 4v57.5c0 2.2 1.8 4 4 4h56c2.2 0 4 1.8 4 4v102c0 2.2-1.8 4-4 4H6c-2.2 0-4 1.8-4 4V236c0 2.2 1.8 4 4 4h240c2.2 0 4-1.8 4-4V4c0-2.2-1.8-4-4-4z"
       id="N560-4-FAN-Hpath8"
       fill="#1a1a1a" /></g><g
     id="N560-4-FAN-Hg16"><path
       class="N560-4-FAN-Hst3"
       d="M131 235.5c-1.9 0-3.5-1.6-3.5-3.5v-13c0-7.4-6.1-13.5-13.5-13.5-4.3 0-8.5 1.9-12.2 5.6-1 1-1.3 6.4-1.3 6.9v14c0 1.9-1.6 3.5-3.5 3.5H16c-1.9 0-3.5-1.6-3.5-3.5v-50.5c0-1.9 1.6-3.5 3.5-3.5h46c2.5 0 4.5-2 4.5-4.5v-106c0-2.5-2-4.5-4.5-4.5H16c-1.9 0-3.5-1.6-3.5-3.5V14c0-1.9 1.6-3.5 3.5-3.5h81c1.9 0 3.5 1.6 3.5 3.5v13c0 7.4 6.1 13.5 13.5 13.5 4.3 0 8.5-1.9 12.2-5.6.9-.8 1.3-2 1.3-3.2V14c0-1.9 1.6-3.5 3.5-3.5h107c1.9 0 3.5 1.6 3.5 3.5v218c0 1.9-1.6 3.5-3.5 3.5z"
       id="N560-4-FAN-Hpath12"
       fill="#ccc" /><path
       class="N560-4-FAN-Hst4"
       d="M238 11c1.7 0 3 1.3 3 3v218c0 1.7-1.3 3-3 3H131c-1.7 0-3-1.3-3-3v-13c0-7.7-6.3-14-14-14-4.4 0-8.7 2-12.5 5.8-1.3 1.3-1.5 7.2-1.5 7.2v14c0 1.7-1.3 3-3 3H16c-1.7 0-3-1.3-3-3v-50.5c0-1.7 1.3-3 3-3h46c2.8 0 5-2.2 5-5v-106c0-2.8-2.2-5-5-5H16c-1.7 0-3-1.3-3-3V14c0-1.7 1.3-3 3-3h81c1.7 0 3 1.3 3 3v13c0 7.7 6.3 14 14 14 4.4 0 8.7-2 12.5-5.8.9-.9 1.5-2.2 1.5-3.6V14c0-1.7 1.3-3 3-3h107m0-1H131c-2.2 0-4 1.8-4 4v17.7c0 1.1-.4 2.1-1.2 2.9-3.9 3.9-8 5.5-11.8 5.5-7.2 0-13-5.8-13-13V14c0-2.2-1.8-4-4-4H16c-2.2 0-4 1.8-4 4v45.5c0 2.2 1.8 4 4 4h46c2.2 0 4 1.8 4 4v106c0 2.2-1.8 4-4 4H16c-2.2 0-4 1.8-4 4V232c0 2.2 1.8 4 4 4h81c2.2 0 4-1.8 4-4v-14c0-1.1.4-5.8 1.2-6.5 3.9-3.9 8-5.5 11.8-5.5 7.2 0 13 5.8 13 13v13c0 2.2 1.8 4 4 4h107c2.2 0 4-1.8 4-4V14c0-2.2-1.8-4-4-4z"
       id="N560-4-FAN-Hpath14"
       fill="gray" /></g><g
     id="N560-4-FAN-Hg30"><path
       d="M32.7 39.5v6.6c0 .3-.1.5-.1.8-.1.2-.2.4-.4.6-.2.2-.4.3-.6.4-.2.1-.5.2-.8.2-.3 0-.5-.1-.8-.2-.3-.1-.4-.2-.6-.4-.2-.2-.3-.4-.4-.6-.1-.2-.2-.5-.2-.8v-6.6H30V46c0 .3.1.5.2.7.1.2.3.2.5.2s.4-.1.5-.2c.1-.1.2-.4.2-.7v-6.5z"
       id="N560-4-FAN-Hpath18" /><path
       d="M33.8 48v-8.5H35l1.8 5.1v-5.1H38V48h-1.2L35 42.9V48z"
       id="N560-4-FAN-Hpath20" /><path
       d="M39.2 48v-8.5h1.2v7.3h2.4V48z"
       id="N560-4-FAN-Hpath22" /><path
       d="M43.5 41.5c0-.3.1-.6.2-.9.1-.3.3-.5.5-.7.2-.2.4-.3.7-.4.3-.1.5-.1.7-.1.2 0 .5 0 .7.1.2.1.5.2.7.4.2.2.3.4.5.7.1.3.2.6.2.9V46c0 .4-.1.7-.2.9-.1.3-.3.5-.5.6-.2.2-.4.3-.7.4-.3.1-.5.1-.7.1-.2 0-.5 0-.7-.1-.2-.1-.5-.2-.7-.4-.2-.2-.4-.4-.5-.6-.1-.3-.2-.6-.2-.9zm1.3 4.5c0 .3.1.5.2.7.2.1.4.2.6.2.2 0 .4-.1.6-.2.2-.1.2-.4.2-.7v-4.5c0-.3-.1-.5-.2-.7-.2-.1-.4-.2-.6-.2-.2 0-.4.1-.6.2-.2.1-.2.4-.2.7z"
       id="N560-4-FAN-Hpath24" /><path
       d="M52.6 45.6v.5c0 .3 0 .5-.1.8-.1.2-.2.4-.4.6-.2.2-.4.3-.6.4-.2.1-.5.2-.8.2-.2 0-.5 0-.7-.1-.2-.1-.5-.2-.6-.3-.1-.1-.4-.4-.6-.7-.2-.3-.2-.6-.2-1v-4.7c0-.3 0-.5.1-.8.1-.2.2-.4.4-.6.2-.2.4-.3.6-.4.2-.1.5-.2.8-.2.6 0 1 .2 1.4.6.2.2.3.4.4.7.1.3.1.5.1.8v.5h-1.2v-.4c0-.2-.1-.4-.2-.6-.1-.2-.3-.3-.6-.3s-.5.1-.6.3c-.1.2-.1.4-.1.7V46c0 .2.1.5.2.6.1.1.3.3.6.3h.3c.1 0 .2-.1.3-.1.1-.1.1-.2.2-.3 0-.1.1-.3.1-.4v-.4h1.2z"
       id="N560-4-FAN-Hpath26" /><path
       d="M53.6 48v-8.5h1.2v3.9l1.8-3.9h1.2l-1.7 3.4 2 5.1h-1.3l-1.4-3.8-.7 1.2V48z"
       id="N560-4-FAN-Hpath28" /></g><g
     id="N560-4-FAN-Hg56"><path
       d="M223 226.9h-8.5v-1.2l5.1-1.8h-5.1v-1.2h8.5v1.2l-5.1 1.9h5.1z"
       id="N560-4-FAN-Hpath32" /><path
       d="M214.4 218h1.2v2.4h2.3c-.1-.1-.2-.3-.3-.4-.1-.2-.1-.4-.1-.6 0-.4.1-.8.4-1 .3-.3.6-.4 1.1-.4h2.2c.3 0 .5 0 .8.2.3.2.4.2.6.4.2.2.3.4.4.6.1.2.1.5.1.7 0 .2 0 .5-.1.7-.1.2-.2.4-.4.6-.2.2-.4.3-.6.4-.2.1-.5.1-.8.1h-.4v-1.2h.3c.2 0 .4-.1.5-.2.1-.1.2-.3.2-.5s-.1-.3-.2-.4c-.1-.1-.3-.2-.5-.2h-2c-.2 0-.3.1-.4.2-.1.1-.2.2-.2.4 0 .1 0 .2.1.3 0 .1.1.1.1.2 0 0 .1.1.2.1s.1.1.1.1v1.1h-4.6z"
       id="N560-4-FAN-Hpath34" /><path
       d="M214.4 214l3.6 1.4s-.1-.1-.1-.2v-.3c0-.2.1-.4.2-.6.1-.2.2-.3.4-.4.1-.1.2-.1.3-.1.1 0 .2-.1.3-.1h2.5c.1 0 .2.1.3.1.1 0 .2.1.3.1.3.2.5.4.6.6.1.3.2.6.2.9 0 .3-.1.6-.2.9-.1.3-.3.5-.6.6-.1.1-.2.1-.3.2-.1.1-.2.1-.3.1h-2.4c-.1 0-.2 0-.3-.1-.1 0-.2-.1-.3-.1l-4.3-1.6V214zm5.2.8c-.2 0-.3.1-.4.2-.1.1-.2.3-.2.4 0 .1.1.3.2.4.1.1.3.2.4.2h1.6c.2 0 .3-.1.4-.2.1-.1.2-.3.2-.4 0-.1-.1-.3-.2-.4-.1-.1-.3-.2-.4-.2z"
       id="N560-4-FAN-Hpath36" /><path
       d="M216.2 212.7c-.3 0-.5 0-.8-.2-.2-.1-.4-.2-.6-.4-.2-.2-.3-.4-.4-.6-.1-.2-.1-.5-.1-.7 0-.2 0-.5.1-.7.1-.2.2-.4.4-.6.2-.2.4-.3.6-.4.2-.1.5-.2.8-.2h5c.3 0 .5.1.8.2.2.1.4.2.6.4.2.2.3.4.4.6.1.2.1.4.1.7 0 .3 0 .5-.1.7-.1.2-.2.4-.4.6-.2.2-.4.3-.6.4-.2.1-.5.2-.8.2zm5-1.2c.2 0 .3-.1.4-.2.1-.1.2-.3.2-.4 0-.1-.1-.3-.2-.4-.1-.1-.3-.2-.4-.2h-5c-.2 0-.3.1-.4.2-.1.1-.2.3-.2.4 0 .1.1.3.2.4.1.1.3.2.4.2z"
       id="N560-4-FAN-Hpath38" /><path
       d="M220.3 208.1H219v-3.6h1.2v3.6z"
       id="N560-4-FAN-Hpath40" /><path
       d="M223 201.5h-1.3v2.4h-1.2l-6.1-1.8v-1.3l6.1 1.8v-1.2h-2.4v-1.2h2.4v-.6h1.2v.6h1.3z"
       id="N560-4-FAN-Hpath42" /><path
       d="M220.3 199H219v-3.6h1.2v3.6z"
       id="N560-4-FAN-Hpath44" /><path
       d="M223 194.3h-8.5v-3.6h1.2v2.4h2.6V191h1.2v2.1h3.6v1.2z"
       id="N560-4-FAN-Hpath46" /><path
       d="M223 191l-8.5-1.9v-1l8.5-1.9v1.2l-1.8.4v1.7l1.8.4zm-3-3l-3.1.6 3.1.6z"
       id="N560-4-FAN-Hpath48" /><path
       d="M223 185.6h-8.5v-1.2l5.1-1.8h-5.1v-1.2h8.5v1.2l-5.1 1.9h5.1z"
       id="N560-4-FAN-Hpath50" /><path
       d="M220.3 180.3H219v-3.6h1.2v3.6z"
       id="N560-4-FAN-Hpath52" /><path
       d="M223 175.6h-8.5v-1.2h3.7v-1.5h-3.7v-1.2h8.5v1.2h-3.8v1.5h3.8z"
       id="N560-4-FAN-Hpath54" /></g><g
     id="N560-4-FAN-Hg76"><path
       d="M36.3 195v-8.5H40v1.2h-2.4v2.6h2.1v1.2h-2.1v3.6h-1.3z"
       id="N560-4-FAN-Hpath58" /><path
       d="M42 195l1.9-8.5h1l1.9 8.5h-1.2l-.4-1.8h-1.7l-.4 1.8zm3-3l-.6-3.1-.6 3.1z"
       id="N560-4-FAN-Hpath60" /><path
       d="M49.8 195v-8.5H51l1.8 5.1v-5.1H54v8.5h-1.2l-1.9-5.1v5.1z"
       id="N560-4-FAN-Hpath62" /><path
       d="M30.5 199.9h-1.2v-.3c0-.3-.1-.5-.2-.7-.1-.2-.4-.3-.7-.3-.2 0-.3 0-.4.1-.1.1-.2.1-.3.2-.1.1-.1.2-.1.4v.8c0 .1 0 .2.1.3.1.1.1.2.2.2.1.1.2.1.4.2l.9.4c.3.1.5.2.7.4.2.1.3.3.4.5.1.2.1.4.2.7v.8c0 .4 0 .7-.1 1-.1.3-.2.6-.3.8-.2.2-.4.4-.7.5-.3.1-.6.2-1 .2-.3 0-.6-.1-.8-.2-.3-.1-.5-.2-.7-.4-.2-.2-.3-.4-.4-.6-.1-.2-.2-.5-.2-.8v-.5h1.2v.4c0 .2.1.4.2.6.1.2.4.3.7.3.2 0 .4 0 .5-.1.1-.1.2-.1.3-.3.1-.1.1-.2.1-.4v-.5-.6c0-.1 0-.3-.1-.3-.1-.1-.1-.2-.2-.2-.1-.1-.2-.1-.4-.2l-.9-.4c-.5-.2-.9-.5-1.1-.9-.2-.4-.3-.8-.3-1.3 0-.3 0-.6.1-.9.1-.3.2-.5.4-.7.2-.2.4-.4.6-.5.2-.1.6-.2.9-.2.3 0 .6.1.8.2.3.1.5.3.7.4.4.4.6.8.6 1.3v.6z"
       id="N560-4-FAN-Hpath64" /><path
       d="M34.6 206v-7.4h-1.4v-1.2h4.1v1.2h-1.4v7.4z"
       id="N560-4-FAN-Hpath66" /><path
       d="M39 206l1.9-8.5h1l1.9 8.5h-1.2l-.4-1.8h-1.7l-.4 1.8zm3-3l-.6-3.1-.6 3.1z"
       id="N560-4-FAN-Hpath68" /><path
       d="M47 206v-7.4h-1.4v-1.2h4.1v1.2h-1.4v7.4z"
       id="N560-4-FAN-Hpath70" /><path
       d="M56.5 197.5v6.6c0 .3-.1.5-.1.8-.1.2-.2.4-.4.6-.2.2-.4.3-.6.4-.2.1-.5.2-.8.2-.3 0-.5-.1-.8-.2-.2-.1-.4-.2-.6-.4-.2-.2-.3-.4-.4-.6-.1-.2-.2-.5-.2-.8v-6.6h1.2v6.5c0 .3.1.5.2.7.1.1.3.2.5.2s.4-.1.5-.2c.1-.1.2-.4.2-.7v-6.5z"
       id="N560-4-FAN-Hpath72" /><path
       d="M64 199.9h-1.2v-.3c0-.3-.1-.5-.2-.7-.1-.2-.4-.3-.7-.3-.2 0-.3 0-.4.1-.1.1-.2.1-.3.2-.1.1-.1.2-.1.4v.8c0 .1 0 .2.1.3.1.1.1.2.2.2.1.1.2.1.4.2l.9.4c.3.1.5.2.7.4.2.1.3.3.4.5.1.2.1.4.2.7v.8c0 .4 0 .7-.1 1-.1.3-.2.6-.3.8-.2.2-.4.4-.7.5-.3.1-.6.2-1 .2-.3 0-.6-.1-.8-.2-.3-.1-.5-.2-.7-.4-.2-.2-.3-.4-.4-.6-.1-.2-.2-.5-.2-.8v-.5H61v.4c0 .2.1.4.2.6.1.2.4.3.7.3.2 0 .4 0 .5-.1.1-.1.2-.1.3-.3.1-.1.1-.2.1-.4v-.5-.6c0-.1 0-.3-.1-.3-.1-.1-.1-.2-.2-.2-.1-.1-.2-.1-.4-.2l-.9-.4c-.5-.2-.9-.5-1.1-.9-.2-.4-.3-.8-.3-1.3 0-.3 0-.6.1-.9.1-.3.2-.5.4-.7.2-.2.4-.4.6-.5.2-.1.6-.2.9-.2.3 0 .6.1.8.2.3.1.5.3.7.4.4.4.6.8.6 1.3v.6z"
       id="N560-4-FAN-Hpath74" /></g><g
     id="N560-4-FAN-Hg94"><g
       id="N560-4-FAN-Hg82"><circle
         class="N560-4-FAN-Hst5"
         cx="45.5"
         cy="219.5"
         r="10"
         id="N560-4-FAN-Hcircle78"
         clip-rule="evenodd"
         fill="#333"
         fill-rule="evenodd" /><path
         class="N560-4-FAN-Hst4"
         d="M45.5 210c5.2 0 9.5 4.3 9.5 9.5s-4.3 9.5-9.5 9.5-9.5-4.3-9.5-9.5 4.3-9.5 9.5-9.5m0-1c-5.8 0-10.5 4.7-10.5 10.5S39.7 230 45.5 230 56 225.3 56 219.5 51.3 209 45.5 209z"
         id="N560-4-FAN-Hpath80"
         fill="gray" /></g><g
       id="N560-4-FAN-Hg88"><circle
         class="N560-4-FAN-Hst6"
         cx="45.5"
         cy="219.5"
         r="5"
         id="N560-4-FAN-Hcircle84"
         clip-rule="evenodd"
         fill="#ccc"
         fill-rule="evenodd" /><path
         class="N560-4-FAN-Hst4"
         d="M45.5 215c2.5 0 4.5 2 4.5 4.5s-2 4.5-4.5 4.5-4.5-2-4.5-4.5 2-4.5 4.5-4.5m0-1c-3 0-5.5 2.5-5.5 5.5s2.5 5.5 5.5 5.5 5.5-2.5 5.5-5.5-2.5-5.5-5.5-5.5z"
         id="N560-4-FAN-Hpath86"
         fill="gray" /></g><g
       id="N560-4-FAN-Hg92"><ellipse
         class="N560-4-FAN-Hst7"
         cx="45.5"
         cy="217.5"
         rx="2"
         ry="1"
         id="N560-4-FAN-Hellipse90"
         clip-rule="evenodd"
         fill="#f2f2f2"
         fill-rule="evenodd" /></g></g><g
     id="N560-4-FAN-Hg100"><path
       class="N560-4-FAN-Hst8"
       d="M114 226c-5.8 0-10.5-4.7-10.5-10.5v-190c0-5.8 4.7-10.5 10.5-10.5s10.5 4.7 10.5 10.5v190c0 5.8-4.7 10.5-10.5 10.5z"
       id="N560-4-FAN-Hpath96"
       fill="#e6e6e6" /><path
       class="N560-4-FAN-Hst9"
       d="M114 15.5c5.5 0 10 4.5 10 10v190c0 5.5-4.5 10-10 10s-10-4.5-10-10v-190c0-5.5 4.5-10 10-10m0-1c-6.1 0-11 4.9-11 11v190c0 6.1 4.9 11 11 11s11-4.9 11-11v-190c0-6.1-4.9-11-11-11z"
       id="N560-4-FAN-Hpath98"
       fill="#4d4d4d" /></g><path
     class="N560-4-FAN-Hst9"
     id="N560-4-FAN-Hpolygon102"
     fill="#4d4d4d"
     d="M54.2 51v2.5H28.7v3h25.5V59l5.5-4z" /><g
     id="N560-4-FAN-Hg108"><path
       class="N560-4-FAN-Hst8"
       d="M208 121.5c-5.2 0-9.5-4.3-9.5-9.5V25c0-5.2 4.3-9.5 9.5-9.5h18c5.2 0 9.5 4.3 9.5 9.5v87c0 5.2-4.3 9.5-9.5 9.5z"
       id="N560-4-FAN-Hpath104"
       fill="#e6e6e6" /><path
       class="N560-4-FAN-Hst10"
       d="M226 16c5 0 9 4 9 9v87c0 5-4 9-9 9h-18c-5 0-9-4-9-9V25c0-5 4-9 9-9h18m0-1h-18c-5.5 0-10 4.5-10 10v87c0 5.5 4.5 10 10 10h18c5.5 0 10-4.5 10-10V25c0-5.5-4.5-10-10-10z"
       id="N560-4-FAN-Hpath106"
       fill="#666" /></g><g
     id="N560-4-FAN-Hg228"><g
       id="N560-4-FAN-Hg134"><g
         id="N560-4-FAN-Hg114"><path
           class="N560-4-FAN-Hst3"
           id="N560-4-FAN-Hrect110"
           fill="#ccc"
           d="M10.5 104h53v8h-53z" /><path
           class="N560-4-FAN-Hst9"
           d="M63 104.5v7H11v-7h52m1-1H10v9h54z"
           id="N560-4-FAN-Hpath112"
           fill="#4d4d4d" /></g><g
         id="N560-4-FAN-Hg120"><path
           class="N560-4-FAN-Hst3"
           id="N560-4-FAN-Hrect116"
           fill="#ccc"
           d="M10.5 112h53v8h-53z" /><path
           class="N560-4-FAN-Hst9"
           d="M63 112.5v7H11v-7h52m1-1H10v9h54z"
           id="N560-4-FAN-Hpath118"
           fill="#4d4d4d" /></g><g
         id="N560-4-FAN-Hg126"><path
           class="N560-4-FAN-Hst3"
           id="N560-4-FAN-Hrect122"
           fill="#ccc"
           d="M10.5 120h53v8h-53z" /><path
           class="N560-4-FAN-Hst9"
           d="M63 120.5v7H11v-7h52m1-1H10v9h54z"
           id="N560-4-FAN-Hpath124"
           fill="#4d4d4d" /></g><g
         id="N560-4-FAN-Hg132"><path
           class="N560-4-FAN-Hst3"
           id="N560-4-FAN-Hrect128"
           fill="#ccc"
           d="M10.5 128h53v8h-53z" /><path
           class="N560-4-FAN-Hst9"
           d="M63 128.5v7H11v-7h52m1-1H10v9h54z"
           id="N560-4-FAN-Hpath130"
           fill="#4d4d4d" /></g></g><g
       id="N560-4-FAN-Hg158"><g
         id="N560-4-FAN-Hg140"><path
           class="N560-4-FAN-Hst3"
           d="M3.5 98.5V71.1c0-3.1 2.5-5.6 5.6-5.6h49.8c3.1 0 5.6 2.5 5.6 5.6v27.4z"
           id="N560-4-FAN-Hpath136"
           fill="#ccc" /><path
           class="N560-4-FAN-Hst9"
           d="M58.9 66c2.8 0 5.1 2.3 5.1 5.1V98H4V71.1C4 68.3 6.3 66 9.1 66h49.8m0-1H9.1C5.7 65 3 67.7 3 71.1V99h62V71.1c0-3.4-2.7-6.1-6.1-6.1z"
           id="N560-4-FAN-Hpath138"
           fill="#4d4d4d" /></g><g
         id="N560-4-FAN-Hg156"><g
           id="N560-4-FAN-Hg146"><path
             class="N560-4-FAN-Hst11"
             d="M29.5 95.5c-3.1 0-6-1.2-8.1-3.4-4.5-4.5-4.5-11.8 0-16.3 2.2-2.2 5.1-3.4 8.1-3.4s6 1.2 8.1 3.4c4.5 4.5 4.5 11.8 0 16.3-2.2 2.2-5 3.4-8.1 3.4z"
             id="N560-4-FAN-Hpath142"
             clip-rule="evenodd"
             fill="#d9d9d9"
             fill-rule="evenodd" /><path
             class="N560-4-FAN-Hst9"
             d="M29.5 73c2.9 0 5.7 1.1 7.8 3.2 2.1 2.1 3.2 4.8 3.2 7.8s-1.1 5.7-3.2 7.8c-2.1 2.1-4.8 3.2-7.8 3.2-2.9 0-5.7-1.1-7.8-3.2-2.1-2.1-3.2-4.8-3.2-7.8s1.1-5.7 3.2-7.8c2.1-2.1 4.8-3.2 7.8-3.2m0-1c-3.1 0-6.1 1.2-8.5 3.5-4.7 4.7-4.7 12.3 0 17 2.3 2.3 5.4 3.5 8.5 3.5 3.1 0 6.1-1.2 8.5-3.5 4.7-4.7 4.7-12.3 0-17-2.4-2.3-5.5-3.5-8.5-3.5z"
             id="N560-4-FAN-Hpath144"
             fill="#4d4d4d" /></g><g
           id="N560-4-FAN-Hg152"><path
             class="N560-4-FAN-Hst11"
             d="M29.5 93.5c-2.5 0-4.9-1-6.7-2.8-3.7-3.7-3.7-9.7 0-13.4 1.8-1.8 4.2-2.8 6.7-2.8s4.9 1 6.7 2.8c3.7 3.7 3.7 9.7 0 13.4-1.8 1.8-4.2 2.8-6.7 2.8z"
             id="N560-4-FAN-Hpath148"
             clip-rule="evenodd"
             fill="#d9d9d9"
             fill-rule="evenodd" /><path
             class="N560-4-FAN-Hst9"
             d="M29.5 75c2.4 0 4.7.9 6.4 2.6 3.5 3.5 3.5 9.2 0 12.7-1.7 1.7-4 2.6-6.4 2.6-2.4 0-4.7-.9-6.4-2.6-3.5-3.5-3.5-9.2 0-12.7 1.7-1.7 4-2.6 6.4-2.6m0-1c-2.6 0-5.1 1-7.1 2.9-3.9 3.9-3.9 10.2 0 14.1 2 2 4.5 2.9 7.1 2.9 2.6 0 5.1-1 7.1-2.9 3.9-3.9 3.9-10.2 0-14.1-2-1.9-4.6-2.9-7.1-2.9z"
             id="N560-4-FAN-Hpath150"
             fill="#4d4d4d" /></g><path
           class="N560-4-FAN-Hst9"
           id="N560-4-FAN-Hpolygon154"
           fill="#4d4d4d"
           d="M28 82.5h-5v3h5v5h3v-5h5v-3h-5v-5h-3z" /></g></g><g
       id="N560-4-FAN-Hg182"><g
         id="N560-4-FAN-Hg164"><path
           class="N560-4-FAN-Hst3"
           d="M9.1 174.5c-3.1 0-5.6-2.5-5.6-5.6v-27.4h61v27.4c0 3.1-2.5 5.6-5.6 5.6z"
           id="N560-4-FAN-Hpath160"
           fill="#ccc" /><path
           class="N560-4-FAN-Hst9"
           d="M64 142v26.9c0 2.8-2.3 5.1-5.1 5.1H9.1c-2.8 0-5.1-2.3-5.1-5.1V142h60m1-1H3v27.9c0 3.4 2.7 6.1 6.1 6.1h49.8c3.4 0 6.1-2.7 6.1-6.1z"
           id="N560-4-FAN-Hpath162"
           fill="#4d4d4d" /></g><g
         id="N560-4-FAN-Hg180"><g
           id="N560-4-FAN-Hg170"><path
             class="N560-4-FAN-Hst11"
             d="M29.5 167.5c-3.1 0-6-1.2-8.1-3.4-2.1-2.2-3.4-5-3.4-8.1 0-3.1 1.2-6 3.4-8.1 2.2-2.1 5.1-3.4 8.1-3.4s6 1.2 8.1 3.4c4.5 4.5 4.5 11.8 0 16.3-2.2 2.1-5 3.3-8.1 3.3z"
             id="N560-4-FAN-Hpath166"
             clip-rule="evenodd"
             fill="#d9d9d9"
             fill-rule="evenodd" /><path
             class="N560-4-FAN-Hst9"
             d="M29.5 145c2.9 0 5.7 1.1 7.8 3.2 4.3 4.3 4.3 11.3 0 15.6-2.1 2.1-4.8 3.2-7.8 3.2-2.9 0-5.7-1.1-7.8-3.2-4.3-4.3-4.3-11.3 0-15.6 2.1-2.1 4.8-3.2 7.8-3.2m0-1c-3.1 0-6.1 1.2-8.5 3.5-4.7 4.7-4.7 12.3 0 17 2.3 2.3 5.4 3.5 8.5 3.5 3.1 0 6.1-1.2 8.5-3.5 4.7-4.7 4.7-12.3 0-17-2.4-2.3-5.5-3.5-8.5-3.5z"
             id="N560-4-FAN-Hpath168"
             fill="#4d4d4d" /></g><g
           id="N560-4-FAN-Hg176"><path
             class="N560-4-FAN-Hst11"
             d="M29.5 165.5c-2.5 0-4.9-1-6.7-2.8-3.7-3.7-3.7-9.7 0-13.4 1.8-1.8 4.2-2.8 6.7-2.8s4.9 1 6.7 2.8c3.7 3.7 3.7 9.7 0 13.4-1.8 1.8-4.2 2.8-6.7 2.8z"
             id="N560-4-FAN-Hpath172"
             clip-rule="evenodd"
             fill="#d9d9d9"
             fill-rule="evenodd" /><path
             class="N560-4-FAN-Hst9"
             d="M29.5 147c2.4 0 4.7.9 6.4 2.6 3.5 3.5 3.5 9.2 0 12.7-1.7 1.7-4 2.6-6.4 2.6-2.4 0-4.7-.9-6.4-2.6-1.7-1.7-2.6-4-2.6-6.4 0-2.4.9-4.7 2.6-6.4 1.7-1.6 4-2.5 6.4-2.5m0-1c-2.6 0-5.1 1-7.1 2.9-3.9 3.9-3.9 10.2 0 14.1 2 2 4.5 2.9 7.1 2.9 2.6 0 5.1-1 7.1-2.9 3.9-3.9 3.9-10.2 0-14.1-2-1.9-4.6-2.9-7.1-2.9z"
             id="N560-4-FAN-Hpath174"
             fill="#4d4d4d" /></g><path
           class="N560-4-FAN-Hst9"
           id="N560-4-FAN-Hpolygon178"
           fill="#4d4d4d"
           d="M28 157.5h-5v-3h5v-5h3v5h5v3h-5v5h-3z" /></g></g><g
       id="N560-4-FAN-Hg188"><path
         class="N560-4-FAN-Hst3"
         id="N560-4-FAN-Hpolygon184"
         fill="#ccc"
         d="M6.5 103.5v-5h46v43h-46v-5h-6v-33z" /><path
         class="N560-4-FAN-Hst10"
         d="M52 99v42H7v-5H1v-32h6v-5h45m1-1H6v5H0v34h6v5h47z"
         id="N560-4-FAN-Hpath186"
         fill="#666" /></g><g
       id="N560-4-FAN-Hg226"><g
         id="N560-4-FAN-Hg194"><path
           class="N560-4-FAN-Hst3"
           id="N560-4-FAN-Hrect190"
           fill="#ccc"
           d="M17.5 112.5h3v15h-3z" /><path
           class="N560-4-FAN-Hst4"
           d="M20 113v14h-2v-14h2m1-1h-4v16h4z"
           id="N560-4-FAN-Hpath192"
           fill="gray" /></g><g
         id="N560-4-FAN-Hg200"><path
           class="N560-4-FAN-Hst3"
           id="N560-4-FAN-Hrect196"
           fill="#ccc"
           d="M26.5 107.5h3v25h-3z" /><path
           class="N560-4-FAN-Hst4"
           d="M29 108v24h-2v-24h2m1-1h-4v26h4z"
           id="N560-4-FAN-Hpath198"
           fill="gray" /></g><g
         id="N560-4-FAN-Hg206"><path
           class="N560-4-FAN-Hst3"
           id="N560-4-FAN-Hrect202"
           fill="#ccc"
           d="M29.5 108.5h3v23h-3z" /><path
           class="N560-4-FAN-Hst4"
           d="M32 109v22h-2v-22h2m1-1h-4v24h4z"
           id="N560-4-FAN-Hpath204"
           fill="gray" /></g><g
         id="N560-4-FAN-Hg212"><path
           class="N560-4-FAN-Hst3"
           id="N560-4-FAN-Hrect208"
           fill="#ccc"
           d="M32.5 109.5h3v21h-3z" /><path
           class="N560-4-FAN-Hst4"
           d="M35 110v20h-2v-20h2m1-1h-4v22h4z"
           id="N560-4-FAN-Hpath210"
           fill="gray" /></g><g
         id="N560-4-FAN-Hg218"><path
           class="N560-4-FAN-Hst3"
           id="N560-4-FAN-Hrect214"
           fill="#ccc"
           d="M11.5 112.5h3v15h-3z" /><path
           class="N560-4-FAN-Hst4"
           d="M14 113v14h-2v-14h2m1-1h-4v16h4z"
           id="N560-4-FAN-Hpath216"
           fill="gray" /></g><g
         id="N560-4-FAN-Hg224"><path
           class="N560-4-FAN-Hst3"
           id="N560-4-FAN-Hpolygon220"
           fill="#ccc"
           d="M51.1 120.1l-14.6 10V110z" /><path
           class="N560-4-FAN-Hst4"
           d="M37 111l13.2 9.1-13.2 9V111m-1-1.9V131l16-11z"
           id="N560-4-FAN-Hpath222"
           fill="gray" /></g></g></g><text
     xml:space="preserve"
     style="font-style:normal;font-weight:normal;font-size:40px;line-height:1.25;font-family:sans-serif;fill:#000000;fill-opacity:1;stroke:none"
     x="156.2449"
     y="179.2653"
     id="text125"><tspan
       sodipodi:role="line"
       id="tspan123"
       x="156.2449"
       y="179.2653" /></text></svg>
