<?xml version="1.0" encoding="UTF-8" standalone="no"?>
<!-- Generator: Adobe Illustrator 23.0.2, SVG Export Plug-In . SVG Version: 6.00 Build 0)  -->

<svg
   xmlns:dc="http://purl.org/dc/elements/1.1/"
   xmlns:cc="http://creativecommons.org/ns#"
   xmlns:rdf="http://www.w3.org/1999/02/22-rdf-syntax-ns#"
   xmlns:svg="http://www.w3.org/2000/svg"
   xmlns="http://www.w3.org/2000/svg"
   xmlns:sodipodi="http://sodipodi.sourceforge.net/DTD/sodipodi-0.dtd"
   xmlns:inkscape="http://www.inkscape.org/namespaces/inkscape"
   version="1.1"
   id="N560-4-PWR-FAN_FillerLayer_1"
   x="0px"
   y="0px"
   viewBox="0 0 250.00002 170"
   xml:space="preserve"
   sodipodi:docname="N560-4-PWR-FAN_Filler.svg"
   width="250.00002"
   height="170"
   inkscape:version="0.92.2 (5c3e80d, 2017-08-06)"><metadata
     id="N560-4-PWR-FAN_Fillermetadata25"><rdf:RDF><cc:Work
         rdf:about=""><dc:format>image/svg+xml</dc:format><dc:type
           rdf:resource="http://purl.org/dc/dcmitype/StillImage" /><dc:title></dc:title></cc:Work></rdf:RDF></metadata><defs
     id="N560-4-PWR-FAN_Fillerdefs23" /><sodipodi:namedview
     pagecolor="#ffffff"
     bordercolor="#666666"
     borderopacity="1"
     objecttolerance="10"
     gridtolerance="10"
     guidetolerance="10"
     inkscape:pageopacity="0"
     inkscape:pageshadow="2"
     inkscape:window-width="732"
     inkscape:window-height="480"
     id="N560-4-PWR-FAN_Fillernamedview21"
     showgrid="false"
     inkscape:zoom="1.136"
     inkscape:cx="125"
     inkscape:cy="85"
     inkscape:window-x="0"
     inkscape:window-y="0"
     inkscape:window-maximized="0"
     inkscape:current-layer="Layer_1" /><style
     type="text/css"
     id="N560-4-PWR-FAN_Fillerstyle2">
	.N560-4-PWR-FAN_Fillerst0{fill:#EEEEEE;}
	.N560-4-PWR-FAN_Fillerst1{fill:#808080;}
	.N560-4-PWR-FAN_Fillerst2{fill:#BFBFBF;}
</style><g
     id="N560-4-PWR-FAN_Fillerg18"><g
       id="N560-4-PWR-FAN_Fillerg8"><path
         class="N560-4-PWR-FAN_Fillerst0"
         d="M 0.4,6 C 0.4,3 2.5,0.5 5,0.5 h 239.9 c 2.5,0 4.6,2.5 4.6,5.5 v 158 c 0,3 -2.1,5.5 -4.6,5.5 H 5.1 C 2.6,169.5 0.5,167 0.5,164 Z"
         id="N560-4-PWR-FAN_Fillerpath4"
         inkscape:connector-curvature="0"
         style="fill:#eeeeee" /><path
         class="N560-4-PWR-FAN_Fillerst1"
         d="m 249.2,164 c 0,2.8 -1.9,5 -4.2,5 H 5.1 c -2.4,0 -4.2,-2.2 -4.2,-5 V 6 C 0.9,3.2 2.8,1 5.1,1 H 245 c 2.4,0 4.2,2.2 4.2,5 v 158 m 0.8,0 V 6 c 0,-3.3 -2.3,-6 -5.1,-6 H 5.1 C 2.3,0 0,2.7 0,6 v 158 c 0,3.3 2.3,6 5.1,6 H 245 c 2.7,0 5,-2.7 5,-6 z"
         id="N560-4-PWR-FAN_Fillerpath6"
         inkscape:connector-curvature="0"
         style="fill:#808080" /></g><g
       id="N560-4-PWR-FAN_Fillerg16"><path
         class="N560-4-PWR-FAN_Fillerst2"
         d="m 9.8,16 c 0,-3 2.1,-5.5 4.6,-5.5 h 221.2 c 2.5,0 4.6,2.5 4.6,5.5 v 138 c 0,3 -2.1,5.5 -4.6,5.5 H 14.4 c -2.5,0 -4.6,-2.5 -4.6,-5.5 0,0 0,-138 0,-138 z"
         id="N560-4-PWR-FAN_Fillerpath10"
         inkscape:connector-curvature="0"
         style="fill:#bfbfbf" /><g
         id="N560-4-PWR-FAN_Fillerg14"><path
           class="N560-4-PWR-FAN_Fillerst1"
           d="m 239.9,154 c 0,2.8 -1.9,5 -4.2,5 H 14.4 c -2.4,0 -4.2,-2.2 -4.2,-5 V 16 c 0,-2.8 1.9,-5 4.2,-5 h 221.2 c 2.4,0 4.2,2.2 4.2,5 l 0.1,138 m 0.8,0 V 16 c 0,-3.3 -2.3,-6 -5.1,-6 H 14.4 c -2.8,0 -5.1,2.7 -5.1,6 v 138 c 0,3.3 2.3,6 5.1,6 h 221.2 c 2.8,0 5.1,-2.7 5.1,-6 z"
           id="N560-4-PWR-FAN_Fillerpath12"
           inkscape:connector-curvature="0"
           style="fill:#808080" /></g></g></g></svg>