<?xml version="1.0" encoding="UTF-8" standalone="no"?>
<svg
   xmlns:dc="http://purl.org/dc/elements/1.1/"
   xmlns:cc="http://creativecommons.org/ns#"
   xmlns:rdf="http://www.w3.org/1999/02/22-rdf-syntax-ns#"
   xmlns:svg="http://www.w3.org/2000/svg"
   xmlns="http://www.w3.org/2000/svg"
   xmlns:sodipodi="http://sodipodi.sourceforge.net/DTD/sodipodi-0.dtd"
   xmlns:inkscape="http://www.inkscape.org/namespaces/inkscape"
   version="1.1"
   id="N560-4-RSP4ELayer_1"
   x="0"
   y="0"
   viewBox="0 0 1361 124"
   xml:space="preserve"
   width="1361"
   height="124"
   sodipodi:docname="N560-4-RSP4E.svg"
   inkscape:version="1.0.1 (3bc2e813f5, 2020-09-07)"><metadata
     id="metadata486"><rdf:RDF><cc:Work
         rdf:about=""><dc:format>image/svg+xml</dc:format><dc:type
           rdf:resource="http://purl.org/dc/dcmitype/StillImage" /></cc:Work></rdf:RDF></metadata><defs
     id="defs484" /><sodipodi:namedview
     pagecolor="#ffffff"
     bordercolor="#666666"
     borderopacity="1"
     objecttolerance="10"
     gridtolerance="10"
     guidetolerance="10"
     inkscape:pageopacity="0"
     inkscape:pageshadow="2"
     inkscape:window-width="1280"
     inkscape:window-height="658"
     id="namedview482"
     showgrid="false"
     inkscape:zoom="0.76561352"
     inkscape:cx="680.5"
     inkscape:cy="62"
     inkscape:window-x="-6"
     inkscape:window-y="-6"
     inkscape:window-maximized="1"
     inkscape:current-layer="N560-4-RSP4ELayer_1" /><style
     type="text/css"
     id="N560-4-RSP4Estyle2">.N560-4-RSP4Est1{fill-rule:evenodd;clip-rule:evenodd;fill:#d8d8d8}.N560-4-RSP4Est2{fill:gray}.N560-4-RSP4Est3,.N560-4-RSP4Est4{fill-rule:evenodd;clip-rule:evenodd;fill:#d2d2d2;stroke:#5f5f5f;stroke-linecap:round;stroke-linejoin:round;stroke-miterlimit:3}.N560-4-RSP4Est4{fill:#5f5f5f;stroke-width:4.824957e-02}.N560-4-RSP4Est5{fill:#ccc}.N560-4-RSP4Est6{fill:#d1a05e}.N560-4-RSP4Est7{fill:#4c1800}.N560-4-RSP4Est8{fill:#9c5c1e}.N560-4-RSP4Est9{fill:#885f38}.N560-4-RSP4Est11{font-family:'DINCondensed-Bold'}.N560-4-RSP4Est13{fill:#4d4d4d}.N560-4-RSP4Est14{fill-rule:evenodd;clip-rule:evenodd;fill:#333}.N560-4-RSP4Est15,.N560-4-RSP4Est16{fill-rule:evenodd;clip-rule:evenodd;fill:#ccc}.N560-4-RSP4Est16{fill:#f2f2f2}.N560-4-RSP4Est17{fill:#333}.N560-4-RSP4Est18{fill-rule:evenodd;clip-rule:evenodd;fill:#505050;stroke:#000;stroke-linecap:square;stroke-miterlimit:10}.N560-4-RSP4Est19{fill:#fff}.N560-4-RSP4Est20{fill:#1a1a1a}.N560-4-RSP4Est26{fill:none;stroke:#fff;stroke-linecap:square;stroke-miterlimit:10}.N560-4-RSP4Est28{fill:#666}.N560-4-RSP4Est29{fill:#999}</style><path
     d="M1352 0H8C3.6 0 0 3.6 0 8v107c0 4.4 3.6 8 8 8h1344c4.4 0 8-3.6 8-8V8c0-4.4-3.6-8-8-8zM625 34v88H479V34c0-3.3 2.7-6 6-6h134c3.3 0 6 2.7 6 6z"
     id="N560-4-RSP4Epath4"
     clip-rule="evenodd"
     fill="#bfbfbf"
     fill-rule="evenodd"
     stroke="#1a1a1a"
     stroke-miterlimit="10" /><g
     id="N560-4-RSP4Eg20"><g
       id="N560-4-RSP4Eg10"><path
         class="N560-4-RSP4Est1"
         d="M.5 79V51h11.8C19.9 51 26 57.3 26 65s-6.1 14-13.7 14z"
         id="N560-4-RSP4Epath6"
         clip-rule="evenodd"
         fill="#d8d8d8"
         fill-rule="evenodd" /><path
         class="N560-4-RSP4Est2"
         d="M12.3 51.5c7.3 0 13.2 6.1 13.2 13.5s-5.9 13.5-13.2 13.5H1v-27H12.3m0-1H0v29H12.3c7.9 0 14.2-6.5 14.2-14.5.1-8-6.3-14.5-14.2-14.5z"
         id="N560-4-RSP4Epath8"
         fill="gray" /></g><g
       id="N560-4-RSP4Eg18"><path
         class="N560-4-RSP4Est3"
         d="M9.8 74.1c-5.4-1.9-8.1-7.8-6.2-13.2 1.9-5.4 7.8-8.1 13.2-6.1 5.4 1.9 8.1 7.8 6.2 13.2-2 5.3-7.9 8-13.2 6.1z"
         id="N560-4-RSP4Epath12"
         clip-rule="evenodd"
         fill="#d2d2d2"
         fill-rule="evenodd"
         stroke="#5f5f5f"
         stroke-linecap="round"
         stroke-linejoin="round"
         stroke-miterlimit="3" /><path
         class="N560-4-RSP4Est4"
         d="M18.1 55.9L5.6 70.8c.7 1.1 1.7 1.9 2.9 2.4L21 58.3c-.8-1-1.7-1.9-2.9-2.4z"
         id="N560-4-RSP4Epath14" /><path
         class="N560-4-RSP4Est4"
         d="M10 64.9l-1.2 1.4c1.1 1.2 2.5 2.3 3.8 3.2l1.1-1.4 1.1.9c1.2-1.1 2.3-2.4 3.2-3.8l-1-.9 1.1-1.3c-1.1-1.2-2.5-2.3-3.8-3.2l-1.1 1.3-1.3-1.1c-1.2 1.1-2.3 2.4-3.2 3.8z"
         id="N560-4-RSP4Epath16" /></g></g><g
     id="N560-4-RSP4Eg36"><g
       id="N560-4-RSP4Eg26"><path
         class="N560-4-RSP4Est1"
         d="M1347.7 79c-7.6 0-13.7-6.3-13.7-14s6.1-14 13.7-14h11.8v28z"
         id="N560-4-RSP4Epath22"
         clip-rule="evenodd"
         fill="#d8d8d8"
         fill-rule="evenodd" /><path
         class="N560-4-RSP4Est2"
         d="M1347.7 51.5H1359v27H1347.7c-7.3 0-13.2-6.1-13.2-13.5s5.9-13.5 13.2-13.5m0-1c-7.9 0-14.3 6.5-14.2 14.5 0 8 6.3 14.5 14.2 14.5H1360v-29h-12.2z"
         id="N560-4-RSP4Epath24"
         fill="gray" /></g><g
       id="N560-4-RSP4Eg34"><path
         class="N560-4-RSP4Est3"
         d="M1350.2 74.1c-5.3 1.9-11.2-.8-13.2-6.1-1.9-5.4.8-11.3 6.2-13.2 5.4-2 11.3.7 13.2 6.1 1.9 5.4-.8 11.3-6.2 13.2z"
         id="N560-4-RSP4Epath28"
         clip-rule="evenodd"
         fill="#d2d2d2"
         fill-rule="evenodd"
         stroke="#5f5f5f"
         stroke-linecap="round"
         stroke-linejoin="round"
         stroke-miterlimit="3" /><path
         class="N560-4-RSP4Est4"
         d="M1341.9 55.9c-1.2.5-2.1 1.4-2.9 2.4l12.5 14.9c1.2-.5 2.2-1.3 2.9-2.4z"
         id="N560-4-RSP4Epath30" /><path
         class="N560-4-RSP4Est4"
         d="M1350 64.9l1.3-1.1c-.9-1.4-2-2.7-3.2-3.8l-1.3 1.1-1.1-1.3c-1.3.9-2.7 2-3.8 3.2l1.1 1.3-1 .9c.9 1.4 2 2.7 3.2 3.8l1.1-.9 1.1 1.4c1.3-.9 2.7-2 3.8-3.2z"
         id="N560-4-RSP4Epath32" /></g></g><g
     id="N560-4-RSP4Eg52"><path
       d="M223.2 52v-8.5l-1.4 1.1v-1.5l1.4-1h1.4v10h-1.4z"
       id="N560-4-RSP4Epath38" /><path
       d="M226.9 52V42h2.1c.4 0 .7.1 1 .2.3.1.6.3.8.5.2.3.4.6.5.9.1.3.1.8.1 1.4 0 .4 0 .8-.1 1.1l-.3.9c-.2.3-.5.6-.8.8-.3.2-.8.3-1.3.3h-.7V52zm1.4-8.6v3.4h.7c.3 0 .5 0 .7-.1.2-.1.3-.2.4-.4.1-.1.1-.3.1-.5v-.7-.7c0-.2-.1-.4-.1-.6 0-.2-.2-.3-.3-.4-.1-.1-.4-.1-.6-.1h-.9z"
       id="N560-4-RSP4Epath40" /><path
       d="M232.6 52V42h2.1c.4 0 .7.1 1 .2.3.1.6.3.8.5.2.3.4.6.5.9.1.3.1.8.1 1.4 0 .4 0 .8-.1 1.1l-.3.9c-.2.3-.5.6-.8.8-.3.2-.8.3-1.3.3h-.6V52zm1.4-8.6v3.4h.7c.3 0 .5 0 .7-.1.2-.1.3-.2.4-.4.1-.1.1-.3.1-.5v-.7-.7c0-.2-.1-.4-.1-.6 0-.2-.2-.3-.3-.4-.1-.1-.4-.1-.6-.1h-.9z"
       id="N560-4-RSP4Epath42" /><path
       d="M242.9 44.9h-1.4v-.3c0-.3-.1-.6-.2-.8-.2-.2-.4-.4-.8-.4-.2 0-.4 0-.5.1l-.3.3c-.1.1-.1.3-.2.4v1c0 .1 0 .2.1.4.1.1.1.2.2.3.1.1.3.1.4.2l1.1.4c.3.1.6.3.8.4.2.2.4.4.5.6.1.2.2.5.2.8 0 .3.1.6.1 1s0 .8-.1 1.2c-.1.4-.2.7-.4.9-.2.3-.5.5-.8.6-.3.1-.7.2-1.2.2-.3 0-.7-.1-1-.2-.3-.1-.6-.3-.8-.5-.2-.2-.4-.5-.5-.7-.1-.2-.2-.6-.2-.9v-.5h1.4v.4c0 .3.1.5.2.7.2.2.4.3.8.3.2 0 .4 0 .6-.1l.3-.3c.1-.1.1-.3.1-.5v-.6-.6c0-.1-.1-.3-.1-.4l-.3-.3c-.1-.1-.2-.1-.4-.2l-1-.4c-.6-.3-1-.6-1.2-1-.2-.4-.3-.9-.3-1.6 0-.4.1-.7.2-1.1.1-.3.3-.6.5-.9.2-.2.4-.4.7-.6.3-.1.7-.2 1.1-.2.4 0 .7.1 1 .2.3.1.5.3.8.5.4.4.6 1 .6 1.5z"
       id="N560-4-RSP4Epath44" /><path
       d="M224.5 56.4c0-.4.1-.8.2-1.1.1-.3.3-.6.6-.8.2-.2.5-.3.8-.4.3-.1.6-.2.9-.2.3 0 .6.1.9.2.3.1.5.3.8.4.2.2.4.5.5.8.1.3.2.7.2 1.1v5.3c0 .4-.1.8-.2 1.1-.1.3-.3.5-.5.7-.2.2-.5.4-.8.5-.3.1-.6.2-.9.2-.3 0-.6-.1-.9-.2-.3-.1-.5-.3-.8-.5-.2-.2-.4-.4-.6-.7-.1-.3-.2-.7-.2-1.1zm1.4 5.3c0 .3.1.6.3.8.2.2.4.2.7.2.3 0 .5-.1.7-.2.2-.2.3-.4.3-.8v-5.3c0-.3-.1-.6-.3-.8-.2-.2-.4-.2-.7-.2-.3 0-.5.1-.7.2-.2.2-.3.4-.3.8z"
       id="N560-4-RSP4Epath46" /><path
       d="M235.1 54v7.7c0 .3-.1.6-.2.9-.1.3-.3.5-.5.7-.2.2-.5.4-.7.5-.3.1-.6.2-.9.2-.3 0-.6-.1-.9-.2-.3-.1-.5-.3-.7-.5-.2-.2-.4-.5-.5-.7-.1-.3-.2-.6-.2-.9V54h1.4v7.6c0 .4.1.6.3.8.2.2.4.3.6.3.2 0 .5-.1.6-.3.1-.2.3-.4.3-.8V54z"
       id="N560-4-RSP4Epath48" /><path
       d="M237.4 64v-8.6h-1.7V54h4.7v1.3h-1.7V64z"
       id="N560-4-RSP4Epath50" /></g><g
     id="N560-4-RSP4Eg66"><path
       d="M166.2 52v-8.5l-1.4 1.1v-1.5l1.4-1h1.4v10h-1.4z"
       id="N560-4-RSP4Epath54" /><path
       d="M169.9 52V42h2.1c.4 0 .7.1 1 .2.3.1.6.3.8.5.2.3.4.6.5.9.1.3.1.8.1 1.4 0 .4 0 .8-.1 1.1l-.3.9c-.2.3-.5.6-.8.8-.3.2-.8.3-1.3.3h-.7V52zm1.4-8.6v3.4h.7c.3 0 .5 0 .7-.1.2-.1.3-.2.4-.4.1-.1.1-.3.1-.5v-.7-.7c0-.2-.1-.4-.1-.6 0-.2-.2-.3-.3-.4-.1-.1-.4-.1-.6-.1h-.9z"
       id="N560-4-RSP4Epath56" /><path
       d="M175.6 52V42h2.1c.4 0 .7.1 1 .2.3.1.6.3.8.5.2.3.4.6.5.9.1.3.1.8.1 1.4 0 .4 0 .8-.1 1.1l-.3.9c-.2.3-.5.6-.8.8-.3.2-.8.3-1.3.3h-.6V52zm1.4-8.6v3.4h.7c.3 0 .5 0 .7-.1.2-.1.3-.2.4-.4.1-.1.1-.3.1-.5v-.7-.7c0-.2-.1-.4-.1-.6 0-.2-.2-.3-.3-.4-.1-.1-.4-.1-.6-.1h-.9z"
       id="N560-4-RSP4Epath58" /><path
       d="M185.9 44.9h-1.4v-.3c0-.3-.1-.6-.2-.8-.2-.2-.4-.4-.8-.4-.2 0-.4 0-.5.1l-.3.3c-.1.1-.1.3-.2.4v1c0 .1 0 .2.1.4.1.1.1.2.2.3.1.1.3.1.4.2l1.1.4c.3.1.6.3.8.4.2.2.4.4.5.6.1.2.2.5.2.8 0 .3.1.6.1 1s0 .8-.1 1.2c-.1.4-.2.7-.4.9-.2.3-.5.5-.8.6-.3.1-.7.2-1.2.2-.3 0-.7-.1-1-.2-.3-.1-.6-.3-.8-.5-.2-.2-.4-.5-.5-.7-.1-.2-.2-.6-.2-.9v-.5h1.4v.4c0 .3.1.5.2.7.2.2.4.3.8.3.2 0 .4 0 .6-.1l.3-.3c.1-.1.1-.3.1-.5v-.6-.6c0-.1-.1-.3-.1-.4l-.3-.3c-.1-.1-.2-.1-.4-.2l-1-.4c-.6-.3-1-.6-1.2-1-.2-.4-.3-.9-.3-1.6 0-.4.1-.7.2-1.1.1-.3.3-.6.5-.9.2-.2.4-.4.7-.6.3-.1.7-.2 1.1-.2.4 0 .7.1 1 .2.3.1.5.3.8.5.4.4.6 1 .6 1.5z"
       id="N560-4-RSP4Epath60" /><path
       d="M171.3 64V54h1.4v10z"
       id="N560-4-RSP4Epath62" /><path
       d="M174.1 64V54h1.4l2.2 6v-6h1.4v10h-1.3l-2.2-6v6z"
       id="N560-4-RSP4Epath64" /></g><g
     id="N560-4-RSP4Eg98"><g
       id="N560-4-RSP4Eg70"><circle
         class="N560-4-RSP4Est5"
         cx="177.5"
         cy="83.5"
         r="15"
         id="N560-4-RSP4Ecircle68"
         fill="#ccc" /></g><g
       id="N560-4-RSP4Eg78"><circle
         class="N560-4-RSP4Est6"
         cx="177.5"
         cy="83.5"
         r="12"
         id="N560-4-RSP4Ecircle72"
         fill="#d1a05e" /><g
         id="N560-4-RSP4Eg76"><path
           class="N560-4-RSP4Est7"
           d="M177.5 72c6.3 0 11.5 5.2 11.5 11.5S183.8 95 177.5 95 166 89.8 166 83.5 171.2 72 177.5 72m0-1c-6.9 0-12.5 5.6-12.5 12.5S170.6 96 177.5 96 190 90.4 190 83.5 184.4 71 177.5 71z"
           id="N560-4-RSP4Epath74"
           fill="#4c1800" /></g></g><g
       id="N560-4-RSP4Eg82"><circle
         class="N560-4-RSP4Est8"
         cx="177.5"
         cy="83.5"
         r="10.5"
         id="N560-4-RSP4Ecircle80"
         fill="#9c5c1e" /></g><g
       id="N560-4-RSP4Eg86"><circle
         class="N560-4-RSP4Est6"
         cx="177.5"
         cy="83.5"
         r="6.5"
         id="N560-4-RSP4Ecircle84"
         fill="#d1a05e" /></g><g
       id="N560-4-RSP4Eg94"><circle
         class="N560-4-RSP4Est9"
         cx="177.5"
         cy="83.5"
         r="5"
         id="N560-4-RSP4Ecircle88"
         fill="#885f38" /><g
         id="N560-4-RSP4Eg92"><path
           class="N560-4-RSP4Est7"
           d="M177.5 79c2.5 0 4.5 2 4.5 4.5s-2 4.5-4.5 4.5-4.5-2-4.5-4.5 2-4.5 4.5-4.5m0-1c-3 0-5.5 2.5-5.5 5.5s2.5 5.5 5.5 5.5 5.5-2.5 5.5-5.5-2.5-5.5-5.5-5.5z"
           id="N560-4-RSP4Epath90"
           fill="#4c1800" /></g></g><circle
       class="N560-4-RSP4Est7"
       cx="177.5"
       cy="83.5"
       r="1.5"
       id="N560-4-RSP4Ecircle96"
       fill="#4c1800" /></g><g
     id="N560-4-RSP4Eg130"><g
       id="N560-4-RSP4Eg102"><circle
         class="N560-4-RSP4Est5"
         cx="232.5"
         cy="83.5"
         r="15"
         id="N560-4-RSP4Ecircle100"
         fill="#ccc" /></g><g
       id="N560-4-RSP4Eg110"><circle
         class="N560-4-RSP4Est6"
         cx="232.5"
         cy="83.5"
         r="12"
         id="N560-4-RSP4Ecircle104"
         fill="#d1a05e" /><g
         id="N560-4-RSP4Eg108"><path
           class="N560-4-RSP4Est7"
           d="M232.5 72c6.3 0 11.5 5.2 11.5 11.5S238.8 95 232.5 95 221 89.8 221 83.5 226.2 72 232.5 72m0-1c-6.9 0-12.5 5.6-12.5 12.5S225.6 96 232.5 96 245 90.4 245 83.5 239.4 71 232.5 71z"
           id="N560-4-RSP4Epath106"
           fill="#4c1800" /></g></g><g
       id="N560-4-RSP4Eg114"><circle
         class="N560-4-RSP4Est8"
         cx="232.5"
         cy="83.5"
         r="10.5"
         id="N560-4-RSP4Ecircle112"
         fill="#9c5c1e" /></g><g
       id="N560-4-RSP4Eg118"><circle
         class="N560-4-RSP4Est6"
         cx="232.5"
         cy="83.5"
         r="6.5"
         id="N560-4-RSP4Ecircle116"
         fill="#d1a05e" /></g><g
       id="N560-4-RSP4Eg126"><circle
         class="N560-4-RSP4Est9"
         cx="232.5"
         cy="83.5"
         r="5"
         id="N560-4-RSP4Ecircle120"
         fill="#885f38" /><g
         id="N560-4-RSP4Eg124"><path
           class="N560-4-RSP4Est7"
           d="M232.5 79c2.5 0 4.5 2 4.5 4.5s-2 4.5-4.5 4.5-4.5-2-4.5-4.5 2-4.5 4.5-4.5m0-1c-3 0-5.5 2.5-5.5 5.5s2.5 5.5 5.5 5.5 5.5-2.5 5.5-5.5-2.5-5.5-5.5-5.5z"
           id="N560-4-RSP4Epath122"
           fill="#4c1800" /></g></g><circle
       class="N560-4-RSP4Est7"
       cx="232.5"
       cy="83.5"
       r="1.5"
       id="N560-4-RSP4Ecircle128"
       fill="#4c1800" /></g><g
     id="N560-4-RSP4Eg148"><path
       d="M324.9 52v-8.5l-1.4 1.1v-1.5l1.4-1h1.4v10h-1.4z"
       id="N560-4-RSP4Epath132" /><path
       d="M328.4 44.1c0-.3.1-.6.2-.9.1-.3.3-.5.5-.7.2-.2.4-.3.7-.4.3-.1.5-.1.8-.1.3 0 .5 0 .8.1.3.1.5.2.7.4.2.2.4.4.5.7.1.3.2.6.2.9V50c0 .3-.1.6-.2.9-.1.3-.3.5-.5.7-.2.2-.4.3-.7.4-.3.1-.5.1-.8.1-.3 0-.5 0-.8-.1-.3-.1-.5-.2-.7-.4-.2-.2-.4-.4-.5-.7-.1-.3-.2-.6-.2-.9zm1.5 5.9c0 .2.1.4.2.5.1.1.3.2.5.2s.4-.1.5-.2c.1-.1.2-.3.2-.5v-5.9c0-.2-.1-.4-.2-.5-.1-.1-.3-.2-.5-.2s-.4.1-.5.2c-.1.1-.2.3-.2.5z"
       id="N560-4-RSP4Epath134" /><path
       d="M333.8 52V42h1.4l1.8 5.3 1.8-5.3h1.4v10h-1.4v-6l-1.4 4.3h-.7l-1.4-4.3v6z"
       id="N560-4-RSP4Epath136" /><path
       d="M341.6 52V42h1.4v4.3h1.8V42h1.4v10h-1.4v-4.4H343V52z"
       id="N560-4-RSP4Epath138" /><path
       d="M347.1 52v-1.3l2.7-7.4h-2.5V42h4.1v1.1l-2.7 7.5h2.7V52z"
       id="N560-4-RSP4Epath140" /><path
       d="M329.5 56.4c0-.4.1-.8.2-1.1.1-.3.3-.6.6-.8.2-.2.5-.3.8-.4.3-.1.6-.2.9-.2.3 0 .6.1.9.2.3.1.5.3.8.4.2.2.4.5.5.8.1.3.2.7.2 1.1v5.3c0 .4-.1.8-.2 1.1-.1.3-.3.5-.5.7-.2.2-.5.4-.8.5-.3.1-.6.2-.9.2-.3 0-.6-.1-.9-.2-.3-.1-.5-.3-.8-.5-.2-.2-.4-.4-.6-.7-.1-.3-.2-.7-.2-1.1zm1.4 5.3c0 .3.1.6.3.8.2.2.4.2.7.2.3 0 .5-.1.7-.2.2-.2.3-.4.3-.8v-5.3c0-.3-.1-.6-.3-.8-.2-.2-.4-.2-.7-.2-.3 0-.5.1-.7.2-.2.2-.3.4-.3.8z"
       id="N560-4-RSP4Epath142" /><path
       d="M340.1 54v7.7c0 .3-.1.6-.2.9-.1.3-.3.5-.5.7-.2.2-.5.4-.7.5-.3.1-.6.2-.9.2-.3 0-.6-.1-.9-.2-.3-.1-.5-.3-.7-.5-.2-.2-.4-.5-.5-.7-.1-.3-.2-.6-.2-.9V54h1.4v7.6c0 .4.1.6.3.8.2.2.4.3.6.3.2 0 .5-.1.6-.3.1-.2.3-.4.3-.8V54z"
       id="N560-4-RSP4Epath144" /><path
       d="M342.4 64v-8.6h-1.7V54h4.7v1.3h-1.7V64z"
       id="N560-4-RSP4Epath146" /></g><g
     id="N560-4-RSP4Eg194"><path
       d="M50.1 103V93h1.4l2.2 6v-6h1.4v10h-1.3l-2.2-6v6z"
       id="N560-4-RSP4Epath174" /><path
       d="M60.5 93v1.3h-2.8V97c.1-.1.3-.2.5-.3.2-.1.4-.1.7-.1.5 0 .9.1 1.2.4.3.3.5.7.5 1.3v2.6c0 .3-.1.6-.2.9-.1.3-.3.5-.5.7-.2.2-.4.3-.7.4-.3.1-.5.1-.8.1-.3 0-.5 0-.8-.1-.3-.1-.5-.2-.7-.4-.2-.2-.4-.4-.5-.7-.1-.3-.2-.6-.2-.9v-.4h1.4v.4c0 .2.1.4.2.6.1.1.3.2.5.2s.4-.1.5-.2c.1-.1.2-.3.2-.5v-2.3c0-.2-.1-.4-.2-.5-.1-.1-.3-.2-.5-.2-.1 0-.2 0-.3.1-.1 0-.2.1-.2.1-.1.1-.1.1-.1.2s-.1.1-.1.2h-1.3V93z"
       id="N560-4-RSP4Epath176" /><path
       d="M65.1 93l-1.6 4.2s.1-.1.2-.1h.4c.3 0 .5.1.7.2.2.1.4.3.5.5.1.1.1.2.2.3 0 .1.1.2.1.4V101.4c0 .1-.1.3-.1.4 0 .1-.1.2-.2.3-.2.3-.4.5-.7.7-.3.2-.7.3-1.1.3-.4 0-.7-.1-1-.3-.3-.2-.6-.4-.7-.7-.1-.1-.1-.2-.2-.3 0-.1-.1-.2-.1-.4 0-.1 0-.3-.1-.5v-.8-.8-.5c0-.1 0-.3.1-.4 0-.1.1-.2.1-.4l1.9-5zm-.9 6.1c0-.2-.1-.4-.2-.5-.1-.1-.3-.2-.5-.2s-.4.1-.5.2c-.1.1-.2.3-.2.5v1.8c0 .2.1.4.2.5.1.1.3.2.5.2s.4-.1.5-.2c.1-.1.2-.3.2-.5z"
       id="N560-4-RSP4Epath178" /><path
       d="M66.6 95.1c0-.3.1-.6.2-.9.1-.3.3-.5.5-.7.2-.2.4-.3.7-.4.3-.1.5-.1.8-.1.3 0 .5 0 .8.1.3.1.5.2.7.4.2.2.4.4.5.7.1.3.2.6.2.9v5.9c0 .3-.1.6-.2.9-.1.3-.3.5-.5.7-.2.2-.4.3-.7.4-.3.1-.5.1-.8.1-.3 0-.5 0-.8-.1-.3-.1-.5-.2-.7-.4-.2-.2-.4-.4-.5-.7-.1-.3-.2-.6-.2-.9zM68 101c0 .2.1.4.2.5.1.1.3.2.5.2s.4-.1.5-.2c.1-.1.2-.3.2-.5v-5.9c0-.2-.1-.4-.2-.5-.1-.1-.3-.2-.5-.2s-.4.1-.5.2c-.1.1-.2.3-.2.5z"
       id="N560-4-RSP4Epath180" /><path
       d="M79.2 95.9h-1.4v-.3c0-.3-.1-.6-.2-.8-.2-.2-.4-.4-.8-.4-.2 0-.4 0-.5.1l-.3.3c-.1.1-.1.3-.2.4v1c0 .1 0 .2.1.4.1.1.1.2.2.3.1.1.3.1.4.2l1.1.4c.3.1.6.3.8.4.2.1.4.4.5.6.1.2.2.5.2.8 0 .3.1.6.1 1s0 .8-.1 1.2c-.1.4-.2.7-.4.9-.2.3-.5.5-.8.6-.3.1-.7.2-1.2.2-.3 0-.7-.1-1-.2-.3-.1-.6-.3-.8-.5-.2-.2-.4-.5-.5-.7-.1-.2-.2-.6-.2-.9v-.5h1.4v.4c0 .3.1.5.2.7.2.2.4.3.8.3.2 0 .4 0 .6-.1.2-.1.2-.2.3-.3.1-.1.1-.3.1-.5v-.6-.6c0-.1-.1-.3-.1-.4l-.3-.3c-.1-.1-.2-.1-.4-.2l-1-.4c-.6-.3-1-.6-1.2-1-.2-.4-.3-.9-.3-1.6 0-.4.1-.7.2-1.1.1-.3.3-.6.5-.9.2-.2.4-.4.7-.6.3-.1.7-.2 1.1-.2.4 0 .7.1 1 .2.3.1.5.3.8.5.4.4.6 1 .6 1.5z"
       id="N560-4-RSP4Epath182" /><path
       d="M80.3 103V93h4.3v1.3h-2.8v2.9h2.5v1.3h-2.5v2.9h2.8v1.4h-4.3z"
       id="N560-4-RSP4Epath184" /><path
       d="M85.5 103V93h2.3c1.7 0 2.5 1 2.5 2.9 0 .6-.1 1.1-.3 1.5-.2.4-.5.7-1 1l1.5 4.6H89l-1.3-4.3h-.9v4.3zm1.4-8.6v3.1h.8c.3 0 .5 0 .6-.1.1-.1.3-.2.3-.3.1-.1.1-.3.2-.5s0-.4 0-.7v-.7c0-.2-.1-.4-.2-.5-.2-.3-.5-.4-1-.4h-.7z"
       id="N560-4-RSP4Epath186" /><path
       d="M91.5 103V93h1.4v10z"
       id="N560-4-RSP4Epath188" /><path
       d="M94.3 103V93h4.3v1.3h-2.8v2.9h2.5v1.3h-2.5v2.9h2.8v1.4h-4.3z"
       id="N560-4-RSP4Epath190" /><path
       d="M104.1 95.9h-1.4v-.3c0-.3-.1-.6-.2-.8-.2-.2-.4-.4-.8-.4-.2 0-.4 0-.5.1l-.3.3c-.1.1-.1.3-.2.4v1c0 .1 0 .2.1.4.1.1.1.2.2.3.1.1.3.1.4.2l1.1.4c.3.1.6.3.8.4.2.1.4.4.5.6.1.2.2.5.2.8 0 .3.1.6.1 1s0 .8-.1 1.2c-.1.4-.2.7-.4.9-.2.3-.5.5-.8.6-.3.1-.7.2-1.2.2-.3 0-.7-.1-1-.2-.3-.1-.6-.3-.8-.5-.2-.2-.4-.5-.5-.7-.1-.2-.2-.6-.2-.9v-.5h1.4v.4c0 .3.1.5.2.7.2.2.4.3.8.3.2 0 .4 0 .6-.1.2-.1.2-.2.3-.3.1-.1.1-.3.1-.5v-.6-.6c0-.1-.1-.3-.1-.4l-.3-.3c-.1-.1-.2-.1-.4-.2l-1-.4c-.6-.3-1-.6-1.2-1-.2-.4-.3-.9-.3-1.6 0-.4.1-.7.2-1.1.1-.3.3-.6.5-.9.2-.2.4-.4.7-.6.3-.1.7-.2 1.1-.2.4 0 .7.1 1 .2.3.1.5.3.8.5.4.4.6 1 .6 1.5z"
       id="N560-4-RSP4Epath192" /></g><g
     id="N560-4-RSP4Eg210"><path
       d="M726.3 110.4v.6c0 .3-.1.6-.2.8-.1.2-.3.5-.4.7-.1.2-.4.4-.7.5-.3.1-.5.2-.8.2-.3 0-.5 0-.8-.1-.3-.1-.5-.2-.7-.4-.2-.2-.4-.4-.5-.7-.1-.3-.2-.6-.2-1v-5.1c0-.3.1-.6.2-.8.1-.3.3-.5.4-.7.1-.2.4-.3.7-.4.3-.1.6-.2.9-.2.6 0 1.1.2 1.5.6.2.2.3.4.4.7.1.3.2.6.2.9v.5H725v-.5c0-.3-.1-.5-.2-.7-.1-.2-.3-.3-.6-.3s-.5.1-.7.3c-.1.2-.2.5-.2.8v4.7c0 .3.1.5.2.7.1.2.3.3.6.3h.3c.1 0 .2-.1.3-.1.1-.1.1-.2.2-.3.1-.1.1-.3.1-.5v-.5z"
       id="N560-4-RSP4Epath196" /><path
       d="M727.3 105.9c0-.4.1-.7.2-1 .1-.3.3-.5.5-.7.2-.2.4-.3.7-.4.3-.1.5-.1.8-.1.3 0 .5 0 .8.1.3.1.5.2.7.4.2.2.4.4.5.7.1.3.2.6.2 1v4.9c0 .4-.1.7-.2 1-.1.3-.3.5-.5.7-.2.2-.5.3-.7.4-.2.1-.5.1-.8.1-.3 0-.5 0-.8-.1-.3-.1-.5-.2-.7-.4-.2-.2-.4-.4-.5-.7-.1-.3-.2-.6-.2-1zm1.3 4.9c0 .3.1.6.3.7.2.2.4.2.6.2.2 0 .5-.1.6-.2.2-.2.3-.4.3-.7v-4.9c0-.3-.1-.6-.3-.7-.2-.2-.4-.2-.6-.2-.2 0-.5.1-.6.2-.2.2-.3.4-.3.7z"
       id="N560-4-RSP4Epath198" /><path
       d="M732.8 113v-9.3h1.3l2 5.6v-5.6h1.3v9.3h-1.2l-2-5.6v5.6z"
       id="N560-4-RSP4Epath200" /><path
       d="M742.9 106.4h-1.3v-.3c0-.3-.1-.6-.2-.8-.1-.2-.4-.3-.7-.3-.2 0-.3 0-.4.1l-.3.3c-.1.1-.1.2-.1.4v.9c0 .2 0 .2.1.3.1.1.1.2.2.2.1.1.2.1.4.2l1 .4c.3.1.5.2.7.4.2.2.3.3.4.5.1.2.2.4.2.7 0 .3.1.6.1.9 0 .4 0 .8-.1 1.1-.1.3-.2.6-.4.9-.2.2-.4.4-.7.6-.3.1-.7.2-1.1.2-.3 0-.6-.1-.9-.2-.3-.1-.5-.3-.7-.5-.2-.2-.4-.4-.5-.7-.1-.3-.2-.6-.2-.9v-.5h1.3v.4c0 .2.1.5.2.7.1.2.4.3.7.3.2 0 .4 0 .5-.1l.3-.3c.1-.1.1-.3.1-.4v-.6-.6c0-.2-.1-.3-.1-.4-.1-.1-.1-.2-.2-.2s-.2-.1-.4-.2l-.9-.4c-.6-.2-1-.5-1.2-.9-.2-.4-.3-.9-.3-1.4 0-.3 0-.7.1-1 .1-.3.2-.6.4-.8.2-.2.4-.4.7-.5.3-.1.6-.2 1-.2.3 0 .6.1.9.2.3.1.5.3.7.5.4.4.6.9.6 1.4v.6z"
       id="N560-4-RSP4Epath202" /><path
       d="M743.9 105.9c0-.4.1-.7.2-1 .1-.3.3-.5.5-.7.2-.2.4-.3.7-.4.3-.1.5-.1.8-.1.3 0 .5 0 .8.1.3.1.5.2.7.4.2.2.4.4.5.7.1.3.2.6.2 1v4.9c0 .4-.1.7-.2 1-.1.3-.3.5-.5.7-.2.2-.5.3-.7.4-.3.1-.5.1-.8.1-.3 0-.5 0-.8-.1-.3-.1-.5-.2-.7-.4-.2-.2-.4-.4-.5-.7-.1-.3-.2-.6-.2-1zm1.3 4.9c0 .3.1.6.3.7.2.2.4.2.6.2.2 0 .5-.1.6-.2.2-.2.3-.4.3-.7v-4.9c0-.3-.1-.6-.3-.7-.2-.2-.4-.2-.6-.2-.2 0-.5.1-.6.2-.2.2-.3.4-.3.7z"
       id="N560-4-RSP4Epath204" /><path
       d="M749.5 113v-9.3h1.3v7.9h2.6v1.3h-3.9z"
       id="N560-4-RSP4Epath206" /><path
       d="M754.3 113v-9.3h4v1.2h-2.6v2.7h2.3v1.2h-2.3v2.7h2.6v1.3h-4z"
       id="N560-4-RSP4Epath208" /></g><g
     id="N560-4-RSP4Eg226"><path
       d="M993.3 29.4v.6c0 .3-.1.6-.2.8-.1.2-.3.5-.4.7-.2.2-.4.4-.7.5-.3.1-.5.2-.8.2-.3 0-.5 0-.8-.1-.3-.1-.5-.2-.7-.4-.2-.2-.4-.4-.5-.7-.1-.3-.2-.6-.2-1v-5.1c0-.3.1-.6.2-.8.1-.3.3-.5.4-.7.2-.2.4-.3.7-.4.3-.1.6-.2.9-.2.6 0 1.1.2 1.5.6.2.2.3.4.4.7.1.3.2.6.2.9v.5H992V25c0-.3-.1-.5-.2-.7-.1-.2-.3-.3-.6-.3s-.5.1-.7.3c-.1.2-.2.5-.2.8v4.7c0 .3.1.5.2.7.1.2.3.3.6.3h.3c.1 0 .2-.1.3-.1.1-.1.1-.2.2-.3.1-.1.1-.3.1-.5v-.5z"
       id="N560-4-RSP4Epath212" /><path
       d="M994.3 24.9c0-.4.1-.7.2-1 .1-.3.3-.5.5-.7.2-.2.4-.3.7-.4.3-.1.5-.1.8-.1.3 0 .5 0 .8.1.3.1.5.2.7.4.2.2.4.4.5.7.1.3.2.6.2 1v4.9c0 .4-.1.7-.2 1-.1.3-.3.5-.5.7-.2.2-.5.3-.7.4-.3.1-.5.1-.8.1-.3 0-.5 0-.8-.1-.3-.1-.5-.2-.7-.4-.2-.2-.4-.4-.5-.7-.1-.3-.2-.6-.2-1zm1.3 4.9c0 .3.1.6.3.7.2.2.4.2.6.2.2 0 .5-.1.6-.2.2-.2.3-.4.3-.7v-4.9c0-.3-.1-.6-.3-.7-.2-.2-.4-.2-.6-.2-.2 0-.5.1-.6.2-.2.2-.3.4-.3.7z"
       id="N560-4-RSP4Epath214" /><path
       d="M999.9 32v-9.3h1.3l2 5.6v-5.6h1.3V32h-1.2l-2-5.6V32z"
       id="N560-4-RSP4Epath216" /><path
       d="M1010 25.4h-1.3v-.3c0-.3-.1-.6-.2-.8-.1-.2-.4-.3-.7-.3-.2 0-.3 0-.4.1l-.3.3c-.1.1-.1.2-.1.4v.9c0 .1 0 .2.1.3.1.1.1.2.2.2.1.1.2.1.4.2l1 .4c.3.1.5.2.7.4.2.2.3.3.4.5.1.2.2.4.2.7 0 .3.1.6.1.9 0 .4 0 .8-.1 1.1-.1.3-.2.6-.4.9-.2.2-.4.4-.7.6-.3.1-.7.2-1.1.2-.3 0-.6-.1-.9-.2-.3-.1-.5-.3-.7-.5-.2-.2-.4-.4-.5-.7-.1-.3-.2-.6-.2-.9v-.5h1.3v.4c0 .2.1.5.2.7.1.2.4.3.7.3.2 0 .4 0 .5-.1l.3-.3c.1-.1.1-.3.1-.4v-.6-.6c0-.2-.1-.3-.1-.4-.1-.1-.1-.2-.2-.2s-.2-.1-.4-.2l-.9-.4c-.6-.2-1-.5-1.2-.9-.2-.4-.3-.9-.3-1.4 0-.3 0-.7.1-1 .1-.3.2-.6.4-.8.2-.2.4-.4.7-.5.3-.1.6-.2 1-.2.3 0 .6.1.9.2.3.1.5.3.7.5.4.4.6.9.6 1.4v.6z"
       id="N560-4-RSP4Epath218" /><path
       d="M1010.9 24.9c0-.4.1-.7.2-1 .1-.3.3-.5.5-.7.2-.2.4-.3.7-.4.3-.1.5-.1.8-.1.3 0 .5 0 .8.1.3.1.5.2.7.4.2.2.4.4.5.7.1.3.2.6.2 1v4.9c0 .4-.1.7-.2 1-.1.3-.3.5-.5.7-.2.2-.5.3-.7.4-.2.1-.5.1-.8.1-.3 0-.5 0-.8-.1-.3-.1-.5-.2-.7-.4-.2-.2-.4-.4-.5-.7-.1-.3-.2-.6-.2-1zm1.3 4.9c0 .3.1.6.3.7.2.2.4.2.6.2.2 0 .5-.1.6-.2.2-.2.3-.4.3-.7v-4.9c0-.3-.1-.6-.3-.7-.2-.2-.4-.2-.6-.2-.2 0-.5.1-.6.2-.2.2-.3.4-.3.7z"
       id="N560-4-RSP4Epath220" /><path
       d="M1016.5 32v-9.3h1.3v7.9h2.6V32z"
       id="N560-4-RSP4Epath222" /><path
       d="M1021.3 32v-9.3h4V24h-2.6v2.7h2.3V28h-2.3v2.7h2.6V32z"
       id="N560-4-RSP4Epath224" /></g><g
     id="N560-4-RSP4Eg234"><path
       d="M657.1 106.4h-1.3v-.3c0-.3-.1-.6-.2-.8-.1-.2-.4-.3-.7-.3-.2 0-.3 0-.4.1l-.3.3c-.1.1-.1.2-.1.4v.9c0 .1 0 .2.1.3.1.1.1.2.2.2.1.1.2.1.4.2l1 .4c.3.1.5.2.7.4.2.2.3.3.4.5.1.2.2.4.2.7 0 .3.1.6.1.9 0 .4 0 .8-.1 1.1-.1.3-.2.6-.4.9-.2.2-.4.4-.7.6-.3.1-.7.2-1.1.2-.3 0-.6-.1-.9-.2-.3-.1-.5-.3-.7-.5-.2-.2-.4-.4-.5-.7-.1-.3-.2-.6-.2-.9v-.5h1.3v.4c0 .2.1.5.2.7.1.2.4.3.7.3.2 0 .4 0 .5-.1l.3-.3c.1-.1.1-.3.1-.4v-.6-.6c0-.2-.1-.3-.1-.4-.1-.1-.1-.2-.2-.2s-.2-.1-.4-.2l-.9-.4c-.6-.2-1-.5-1.2-.9-.2-.4-.3-.9-.3-1.4 0-.3 0-.7.1-1 .1-.3.2-.6.4-.8.2-.2.4-.4.7-.5.3-.1.6-.2 1-.2.3 0 .6.1.9.2.3.1.5.3.7.5.4.4.6.9.6 1.4v.6z"
       id="N560-4-RSP4Epath228" /><path
       d="M662.3 106.4H661v-.3c0-.3-.1-.6-.2-.8-.1-.2-.4-.3-.7-.3-.2 0-.3 0-.4.1l-.3.3c-.1.1-.1.2-.1.4v.9c0 .1 0 .2.1.3.1.1.1.2.2.2.1.1.2.1.4.2l1 .4c.3.1.5.2.7.4.2.2.3.3.4.5.1.2.2.4.2.7 0 .3.1.6.1.9 0 .4 0 .8-.1 1.1-.1.3-.2.6-.4.9-.2.2-.4.4-.7.6-.3.1-.7.2-1.1.2-.3 0-.6-.1-.9-.2-.3-.1-.5-.3-.7-.5-.2-.2-.4-.4-.5-.7-.1-.3-.2-.6-.2-.9v-.5h1.3v.4c0 .2.1.5.2.7.1.2.4.3.7.3.2 0 .4 0 .5-.1l.3-.3c.1-.1.1-.3.1-.4v-.6-.6c0-.2-.1-.3-.1-.4-.1-.1-.1-.2-.2-.2s-.2-.1-.4-.2l-.9-.4c-.6-.2-1-.5-1.2-.9-.2-.4-.3-.9-.3-1.4 0-.3 0-.7.1-1 .1-.3.2-.6.4-.8.2-.2.4-.4.7-.5.3-.1.6-.2 1-.2.3 0 .6.1.9.2.3.1.5.3.7.5.4.4.6.9.6 1.4v.6z"
       id="N560-4-RSP4Epath230" /><path
       d="M663.3 113v-9.3h2c.8 0 1.3.2 1.7.6.4.4.6 1 .6 1.8v4.3c0 .9-.2 1.5-.6 1.9-.4.4-1 .6-1.8.6h-1.9zm1.4-8v6.8h.6c.4 0 .6-.1.8-.3.2-.2.2-.5.2-.9v-4.5c0-.4-.1-.6-.2-.8-.1-.2-.4-.3-.8-.3z"
       id="N560-4-RSP4Epath232" /></g><g
     id="N560-4-RSP4Eg244"><path
       d="M454.8 113v-9.3h1.9c.4 0 .8.1 1.1.2.3.1.5.3.7.5.2.2.3.5.4.7.1.3.1.6.1.9v.3c0 .3 0 .5-.1.6-.1.1-.1.3-.2.5s-.4.5-.7.6c.3.1.5.4.7.6.1.3.2.7.2 1.2v.5c0 .8-.2 1.4-.6 1.9-.4.4-1 .7-1.9.7h-1.6zm1.3-8v2.5h.6c.4 0 .7-.1.9-.3.2-.2.2-.5.2-1 0-.4-.1-.7-.3-.9-.2-.2-.5-.3-.9-.3zm0 3.7v3h.6c.3 0 .5 0 .6-.1.2-.1.3-.2.3-.3 0-.1.1-.3.1-.5v-.6-.6c0-.2-.1-.3-.2-.4-.1-.1-.2-.2-.4-.3-.1-.1-.3-.1-.6-.1h-.4z"
       id="N560-4-RSP4Epath236" /><path
       d="M460.4 113v-9.3h1.3v9.3z"
       id="N560-4-RSP4Epath238" /><path
       d="M463.8 113v-8h-1.5v-1.2h4.4v1.2h-1.5v8z"
       id="N560-4-RSP4Epath240" /><path
       d="M471.6 106.4h-1.3v-.3c0-.3-.1-.6-.2-.8-.1-.2-.4-.3-.7-.3-.2 0-.3 0-.4.1l-.3.3c-.1.1-.1.2-.1.4v.9c0 .1 0 .2.1.3.1.1.1.2.2.2.1.1.2.1.4.2l1 .4c.3.1.5.2.7.4.2.2.3.3.4.5.1.2.2.4.2.7 0 .3.1.6.1.9 0 .4 0 .8-.1 1.1-.1.3-.2.6-.4.9-.2.2-.4.4-.7.6-.3.1-.7.2-1.1.2-.3 0-.6-.1-.9-.2-.3-.1-.5-.3-.7-.5-.2-.2-.4-.4-.5-.7-.1-.3-.2-.6-.2-.9v-.5h1.3v.4c0 .2.1.5.2.7.1.2.4.3.7.3.2 0 .4 0 .5-.1l.3-.3c.1-.1.1-.3.1-.4v-.6-.6c0-.2-.1-.3-.1-.4-.1-.1-.1-.2-.2-.2s-.2-.1-.4-.2l-.9-.4c-.6-.2-1-.5-1.2-.9-.2-.4-.3-.9-.3-1.4 0-.3 0-.7.1-1 .1-.3.2-.6.4-.8.2-.2.4-.4.7-.5.3-.1.6-.2 1-.2.3 0 .6.1.9.2.3.1.5.3.7.5.4.4.6.9.6 1.4v.6z"
       id="N560-4-RSP4Epath242" /></g><g
     id="N560-4-RSP4Eg254"><path
       d="M918.4 32v-9.3h1.3l1.7 4.9 1.7-4.9h1.3V32h-1.3v-5.6l-1.3 4h-.7l-1.3-4V32z"
       id="N560-4-RSP4Epath246" /><path
       d="M925.5 24.9c0-.4.1-.7.2-1 .1-.3.3-.5.5-.7.2-.2.4-.3.7-.4.3-.1.5-.1.8-.1.3 0 .5 0 .8.1.3.1.5.2.7.4.2.2.4.4.5.7.1.3.2.6.2 1v.5h-1.3v-.5c0-.3-.1-.6-.3-.7-.2-.2-.4-.2-.6-.2-.2 0-.5.1-.6.2-.2.2-.3.4-.3.7v4.9c0 .3.1.6.3.7.2.2.4.2.6.2.2 0 .5-.1.6-.2.2-.2.3-.4.3-.7v-1.7h-1.1v-1.2h2.4v2.9c0 .4-.1.7-.2 1-.1.3-.3.5-.5.7-.2.2-.5.3-.7.4-.3.1-.5.1-.8.1-.3 0-.5 0-.8-.1-.3-.1-.5-.2-.7-.4-.2-.2-.4-.4-.5-.7-.1-.3-.2-.6-.2-1z"
       id="N560-4-RSP4Epath248" /><path
       d="M931.2 32v-9.3h1.3l1.7 4.9 1.7-4.9h1.3V32h-1.3v-5.6l-1.3 4h-.7l-1.3-4V32z"
       id="N560-4-RSP4Epath250" /><path
       d="M939.3 32v-8h-1.5v-1.2h4.4V24h-1.5v8z"
       id="N560-4-RSP4Epath252" /></g><path
     id="N560-4-RSP4Erect256"
     clip-rule="evenodd"
     fill="#e6e6e6"
     fill-rule="evenodd"
     d="M895.5 103.5h64v15h-64z" /><g
     id="N560-4-RSP4Eg266"><path
       d="M915.9 115v-9.3h1.3l1.7 4.9 1.7-4.9h1.3v9.3h-1.3v-5.6l-1.3 4h-.7l-1.3-4v5.6z"
       id="N560-4-RSP4Epath258" /><path
       d="M923.1 107.9c0-.4.1-.7.2-1 .1-.3.3-.5.5-.7.2-.2.4-.3.7-.4.3-.1.5-.1.8-.1.3 0 .5 0 .8.1.3.1.5.2.7.4.2.2.4.4.5.7.1.3.2.6.2 1v.5h-1.3v-.5c0-.3-.1-.6-.3-.7-.2-.2-.4-.2-.6-.2-.2 0-.5.1-.6.2-.2.2-.3.4-.3.7v4.9c0 .3.1.6.3.7.2.2.4.2.6.2.2 0 .5-.1.6-.2.2-.2.3-.4.3-.7v-1.7h-1.1v-1.2h2.4v2.9c0 .4-.1.7-.2 1-.1.3-.3.5-.5.7-.2.2-.5.3-.7.4-.2.1-.5.1-.8.1-.3 0-.5 0-.8-.1-.3-.1-.5-.2-.7-.4-.2-.2-.4-.4-.5-.7-.1-.3-.2-.6-.2-1z"
       id="N560-4-RSP4Epath260" /><path
       d="M928.7 115v-9.3h1.3l1.7 4.9 1.7-4.9h1.3v9.3h-1.3v-5.6l-1.3 4h-.7l-1.3-4v5.6z"
       id="N560-4-RSP4Epath262" /><path
       d="M936.8 115v-8h-1.5v-1.2h4.4v1.2h-1.5v8z"
       id="N560-4-RSP4Epath264" /></g><text
     class="N560-4-RSP4Est11 st12"
     id="N560-4-RSP4Etext268"
     x="832.328"
     y="35.015"
     font-size="13"
     font-family="DINCondensed-Bold">USB MEM</text><g
     id="N560-4-RSP4Eg278"><path
       d="M1113.7 25.4h-1.3v-.3c0-.3-.1-.6-.2-.8-.1-.2-.4-.3-.7-.3-.2 0-.3 0-.4.1l-.3.3c-.1.1-.1.2-.1.4v.9c0 .1 0 .2.1.3.1.1.1.2.2.2.1.1.2.1.4.2l1 .4c.3.1.5.2.7.4.2.2.3.3.4.5.1.2.2.4.2.7 0 .3.1.6.1.9 0 .4 0 .8-.1 1.1-.1.3-.2.6-.4.9-.2.2-.4.4-.7.6-.3.1-.7.2-1.1.2-.3 0-.6-.1-.9-.2-.3-.1-.5-.3-.7-.5-.2-.2-.4-.4-.5-.7-.1-.3-.2-.6-.2-.9v-.5h1.3v.4c0 .2.1.5.2.7.1.2.4.3.7.3.2 0 .4 0 .5-.1l.3-.3c.1-.1.1-.3.1-.4v-.6-.6c0-.2-.1-.3-.1-.4-.1-.1-.1-.2-.2-.2s-.2-.1-.4-.2l-.9-.4c-.6-.2-1-.5-1.2-.9-.2-.4-.3-.9-.3-1.4 0-.3 0-.7.1-1 .1-.3.2-.6.4-.8.2-.2.4-.4.7-.5.3-.1.6-.2 1-.2.3 0 .6.1.9.2.3.1.5.3.7.5.4.4.6.9.6 1.4v.6z"
       id="N560-4-RSP4Epath270" /><path
       d="M1116.6 32v-3.9l-1.8-5.3h1.4l1.1 3.7 1.1-3.7h1.4l-1.8 5.3V32z"
       id="N560-4-RSP4Epath272" /><path
       d="M1121 32v-9.3h1.3l2 5.6v-5.6h1.3V32h-1.2l-2-5.6V32z"
       id="N560-4-RSP4Epath274" /><path
       d="M1131.7 29.4v.6c0 .3-.1.6-.2.8-.1.3-.3.5-.4.7-.2.2-.4.4-.7.5-.3.1-.5.2-.8.2-.3 0-.5 0-.8-.1-.3-.1-.5-.2-.7-.4-.2-.2-.4-.4-.5-.7-.1-.3-.2-.6-.2-1v-5.1c0-.3.1-.6.2-.8.1-.3.3-.5.4-.7.2-.2.4-.3.7-.4.3-.1.6-.2.9-.2.6 0 1.1.2 1.5.6.2.2.3.4.4.7.1.3.2.6.2.9v.5h-1.3V25c0-.3-.1-.5-.2-.7-.1-.2-.3-.3-.6-.3s-.5.1-.7.3c-.1.2-.2.5-.2.8v4.7c0 .3.1.5.2.7.1.2.3.3.6.3h.3c.1 0 .2-.1.3-.1.1-.1.1-.2.2-.3.1-.1.1-.3.1-.5v-.5z"
       id="N560-4-RSP4Epath276" /></g><g
     id="N560-4-RSP4Eg286"><path
       d="M1116 54l2.1-9.3h1.1l2.1 9.3h-1.3l-.4-2h-1.8l-.4 2zm3.3-3.2l-.6-3.4-.6 3.4z"
       id="N560-4-RSP4Epath280" /><path
       d="M1126.7 51.4v.6c0 .3-.1.6-.2.8-.1.2-.3.5-.4.7-.2.2-.4.4-.7.5-.3.1-.5.2-.8.2-.3 0-.5 0-.8-.1-.3-.1-.5-.2-.7-.4-.2-.2-.4-.4-.5-.7-.1-.3-.2-.6-.2-1v-5.1c0-.3.1-.6.2-.8.1-.3.3-.5.4-.7.2-.2.4-.3.7-.4.3-.1.6-.2.9-.2.6 0 1.1.2 1.5.6.2.2.3.4.4.7.1.3.2.6.2.9v.5h-1.3V47c0-.3-.1-.5-.2-.7-.1-.2-.3-.3-.6-.3s-.5.1-.7.3c-.1.2-.2.5-.2.8v4.7c0 .3.1.5.2.7.1.2.3.3.6.3h.3c.1 0 .2-.1.3-.1.1-.1.1-.2.2-.3.1-.1.1-.3.1-.5v-.5z"
       id="N560-4-RSP4Epath282" /><path
       d="M1129.3 54v-8h-1.5v-1.2h4.4V46h-1.5v8z"
       id="N560-4-RSP4Epath284" /></g><g
     id="N560-4-RSP4Eg294"><path
       d="M1112.9 76v-9.3h2c.4 0 .7 0 1 .1.3.1.5.3.8.5.2.2.4.5.5.9.1.3.1.8.1 1.3 0 .4 0 .8-.1 1.1 0 .3-.1.6-.3.8-.2.3-.4.5-.7.7-.3.2-.7.3-1.2.3h-.7V76zm1.4-8v3.1h.6c.3 0 .5 0 .6-.1.1-.1.3-.2.3-.3.1-.1.1-.3.1-.5v-.6-.6c0-.2 0-.4-.1-.5-.1-.1-.2-.3-.3-.3-.1 0-.3-.1-.6-.1h-.6z"
       id="N560-4-RSP4Epath288" /><path
       d="M1125.8 66.8l-1.4 9.3h-1.2l-1-6-1 6h-1.2l-1.4-9.3h1.4l.7 5.9 1-5.9h1l1.1 6 .6-6z"
       id="N560-4-RSP4Epath290" /><path
       d="M1127.2 76v-9.3h2.1c1.6 0 2.3.9 2.3 2.7 0 .5-.1 1-.3 1.4-.2.4-.5.7-.9.9l1.4 4.2h-1.4l-1.2-4h-.8v4h-1.2zm1.4-8v2.9h.8c.2 0 .4 0 .6-.1l.3-.3c.1-.1.1-.3.1-.4v-.6-.6c0-.2-.1-.3-.2-.5-.2-.2-.5-.4-.9-.4z"
       id="N560-4-RSP4Epath292" /></g><g
     id="N560-4-RSP4Eg304"><path
       d="M1117.3 91.4h-1.3v-.3c0-.3-.1-.6-.2-.8-.1-.2-.4-.3-.7-.3-.2 0-.3 0-.4.1l-.3.3c-.1.1-.1.2-.1.4v.9c0 .1 0 .2.1.3.1.1.1.2.2.2.1.1.2.1.4.2l1 .4c.3.1.5.2.7.4.2.2.3.3.4.5.1.2.2.4.2.7 0 .3.1.6.1.9 0 .4 0 .8-.1 1.1-.1.3-.2.6-.4.9-.2.2-.4.4-.7.6-.3.2-.7.2-1.1.2-.3 0-.6-.1-.9-.2-.3-.1-.5-.3-.7-.5-.2-.2-.4-.4-.5-.7-.1-.3-.2-.6-.2-.9v-.5h1.3v.4c0 .2.1.5.2.7.1.2.4.3.7.3.2 0 .4 0 .5-.1l.3-.3c.1-.1.1-.3.1-.4v-.6-.6c0-.2-.1-.3-.1-.4-.1-.1-.1-.2-.2-.2s-.2-.1-.4-.2l-.9-.4c-.6-.2-1-.5-1.2-.9-.2-.4-.3-.9-.3-1.4 0-.3 0-.7.1-1 .1-.3.2-.6.4-.8.2-.2.4-.4.7-.5.3-.1.6-.2 1-.2.3 0 .6.1.9.2.3.1.5.3.7.5.4.4.6.9.6 1.4v.6z"
       id="N560-4-RSP4Epath296" /><path
       d="M1119.9 98v-8h-1.5v-1.2h4.4V90h-1.5v8z"
       id="N560-4-RSP4Epath298" /><path
       d="M1122.6 98l2.1-9.3h1.1l2.1 9.3h-1.3l-.4-2h-1.8l-.4 2zm3.3-3.2l-.6-3.4-.6 3.4z"
       id="N560-4-RSP4Epath300" /><path
       d="M1129.3 98v-8h-1.5v-1.2h4.4V90h-1.5v8z"
       id="N560-4-RSP4Epath302" /></g><g
     id="N560-4-RSP4Eg320"><path
       d="M267.9 52v-8.5l-1.4 1.1v-1.5l1.4-1h1.4v10h-1.4z"
       id="N560-4-RSP4Epath306" /><path
       d="M271.4 44.1c0-.3.1-.6.2-.9.1-.3.3-.5.5-.7.2-.2.4-.3.7-.4.3-.1.5-.1.8-.1.3 0 .5 0 .8.1.3.1.5.2.7.4.2.2.4.4.5.7.1.3.2.6.2.9V50c0 .3-.1.6-.2.9-.1.3-.3.5-.5.7-.2.2-.4.3-.7.4-.3.1-.5.1-.8.1-.3 0-.5 0-.8-.1-.3-.1-.5-.2-.7-.4-.2-.2-.4-.4-.5-.7-.1-.3-.2-.6-.2-.9zm1.5 5.9c0 .2.1.4.2.5.1.1.3.2.5.2s.4-.1.5-.2c.1-.1.2-.3.2-.5v-5.9c0-.2-.1-.4-.2-.5-.1-.1-.3-.2-.5-.2s-.4.1-.5.2c-.1.1-.2.3-.2.5z"
       id="N560-4-RSP4Epath308" /><path
       d="M276.8 52V42h1.4l1.8 5.3 1.8-5.3h1.4v10h-1.4v-6l-1.4 4.3h-.7l-1.4-4.3v6z"
       id="N560-4-RSP4Epath310" /><path
       d="M284.6 52V42h1.4v4.3h1.8V42h1.4v10h-1.4v-4.4H286V52z"
       id="N560-4-RSP4Epath312" /><path
       d="M290.1 52v-1.3l2.7-7.4h-2.5V42h4.1v1.1l-2.7 7.5h2.7V52z"
       id="N560-4-RSP4Epath314" /><path
       d="M276.3 64V54h1.4v10z"
       id="N560-4-RSP4Epath316" /><path
       d="M279.1 64V54h1.4l2.2 6v-6h1.4v10h-1.3l-2.2-6v6z"
       id="N560-4-RSP4Epath318" /></g><g
     id="N560-4-RSP4Eg352"><g
       id="N560-4-RSP4Eg324"><circle
         class="N560-4-RSP4Est5"
         cx="282.5"
         cy="83.5"
         r="15"
         id="N560-4-RSP4Ecircle322"
         fill="#ccc" /></g><g
       id="N560-4-RSP4Eg332"><circle
         class="N560-4-RSP4Est6"
         cx="282.5"
         cy="83.5"
         r="12"
         id="N560-4-RSP4Ecircle326"
         fill="#d1a05e" /><g
         id="N560-4-RSP4Eg330"><path
           class="N560-4-RSP4Est7"
           d="M282.5 72c6.3 0 11.5 5.2 11.5 11.5S288.8 95 282.5 95 271 89.8 271 83.5 276.2 72 282.5 72m0-1c-6.9 0-12.5 5.6-12.5 12.5S275.6 96 282.5 96 295 90.4 295 83.5 289.4 71 282.5 71z"
           id="N560-4-RSP4Epath328"
           fill="#4c1800" /></g></g><g
       id="N560-4-RSP4Eg336"><circle
         class="N560-4-RSP4Est8"
         cx="282.5"
         cy="83.5"
         r="10.5"
         id="N560-4-RSP4Ecircle334"
         fill="#9c5c1e" /></g><g
       id="N560-4-RSP4Eg340"><circle
         class="N560-4-RSP4Est6"
         cx="282.5"
         cy="83.5"
         r="6.5"
         id="N560-4-RSP4Ecircle338"
         fill="#d1a05e" /></g><g
       id="N560-4-RSP4Eg348"><circle
         class="N560-4-RSP4Est9"
         cx="282.5"
         cy="83.5"
         r="5"
         id="N560-4-RSP4Ecircle342"
         fill="#885f38" /><g
         id="N560-4-RSP4Eg346"><path
           class="N560-4-RSP4Est7"
           d="M282.5 79c2.5 0 4.5 2 4.5 4.5s-2 4.5-4.5 4.5-4.5-2-4.5-4.5 2-4.5 4.5-4.5m0-1c-3 0-5.5 2.5-5.5 5.5s2.5 5.5 5.5 5.5 5.5-2.5 5.5-5.5-2.5-5.5-5.5-5.5z"
           id="N560-4-RSP4Epath344"
           fill="#4c1800" /></g></g><circle
       class="N560-4-RSP4Est7"
       cx="282.5"
       cy="83.5"
       r="1.5"
       id="N560-4-RSP4Ecircle350"
       fill="#4c1800" /></g><g
     id="N560-4-RSP4Eg384"><g
       id="N560-4-RSP4Eg356"><circle
         class="N560-4-RSP4Est5"
         cx="337.5"
         cy="83.5"
         r="15"
         id="N560-4-RSP4Ecircle354"
         fill="#ccc" /></g><g
       id="N560-4-RSP4Eg364"><circle
         class="N560-4-RSP4Est6"
         cx="337.5"
         cy="83.5"
         r="12"
         id="N560-4-RSP4Ecircle358"
         fill="#d1a05e" /><g
         id="N560-4-RSP4Eg362"><path
           class="N560-4-RSP4Est7"
           d="M337.5 72c6.3 0 11.5 5.2 11.5 11.5S343.8 95 337.5 95 326 89.8 326 83.5 331.2 72 337.5 72m0-1c-6.9 0-12.5 5.6-12.5 12.5S330.6 96 337.5 96 350 90.4 350 83.5 344.4 71 337.5 71z"
           id="N560-4-RSP4Epath360"
           fill="#4c1800" /></g></g><g
       id="N560-4-RSP4Eg368"><circle
         class="N560-4-RSP4Est8"
         cx="337.5"
         cy="83.5"
         r="10.5"
         id="N560-4-RSP4Ecircle366"
         fill="#9c5c1e" /></g><g
       id="N560-4-RSP4Eg372"><circle
         class="N560-4-RSP4Est6"
         cx="337.5"
         cy="83.5"
         r="6.5"
         id="N560-4-RSP4Ecircle370"
         fill="#d1a05e" /></g><g
       id="N560-4-RSP4Eg380"><circle
         class="N560-4-RSP4Est9"
         cx="337.5"
         cy="83.5"
         r="5"
         id="N560-4-RSP4Ecircle374"
         fill="#885f38" /><g
         id="N560-4-RSP4Eg378"><path
           class="N560-4-RSP4Est7"
           d="M337.5 79c2.5 0 4.5 2 4.5 4.5s-2 4.5-4.5 4.5-4.5-2-4.5-4.5 2-4.5 4.5-4.5m0-1c-3 0-5.5 2.5-5.5 5.5s2.5 5.5 5.5 5.5 5.5-2.5 5.5-5.5-2.5-5.5-5.5-5.5z"
           id="N560-4-RSP4Epath376"
           fill="#4c1800" /></g></g><circle
       class="N560-4-RSP4Est7"
       cx="337.5"
       cy="83.5"
       r="1.5"
       id="N560-4-RSP4Ecircle382"
       fill="#4c1800" /></g><g
     id="N560-4-RSP4Eg418"><g
       id="N560-4-RSP4Eg398"><g
         id="N560-4-RSP4Eg396"><path
           class="N560-4-RSP4Est13"
           id="N560-4-RSP4Erect386"
           fill="#4d4d4d"
           d="M61.4 71.9h3.2v12.5h-3.2z" /><path
           class="N560-4-RSP4Est13"
           d="M90 75.5c-.1-.1-1.1-.7-2.7-.7-2 0-3.5 1.4-3.5 3.3s1.4 3.3 3.5 3.3c1.5 0 2.5-.6 2.7-.7v3.4c-.4.1-1.5.4-2.9.4-3.6 0-6.7-2.4-6.7-6.5 0-3.7 2.8-6.5 6.7-6.5 1.5 0 2.6.4 2.9.4z"
           id="N560-4-RSP4Epath388"
           fill="#4d4d4d" /><path
           class="N560-4-RSP4Est13"
           d="M57 75.5c-.1-.1-1.1-.7-2.7-.7-2 0-3.5 1.4-3.5 3.3s1.4 3.3 3.5 3.3c1.5 0 2.5-.6 2.7-.7v3.4c-.4.1-1.5.4-2.9.4-3.6 0-6.7-2.4-6.7-6.5 0-3.7 2.8-6.5 6.7-6.5 1.5 0 2.6.4 2.9.4z"
           id="N560-4-RSP4Epath390"
           fill="#4d4d4d" /><path
           class="N560-4-RSP4Est13"
           d="M106.5 78.2c0 3.6-2.8 6.5-6.6 6.5s-6.6-2.9-6.6-6.5 2.8-6.5 6.6-6.5c3.9 0 6.6 2.9 6.6 6.5zm-6.6-3.3c-1.9 0-3.3 1.5-3.3 3.3 0 1.8 1.4 3.3 3.3 3.3s3.3-1.5 3.3-3.3c0-1.8-1.4-3.3-3.3-3.3z"
           id="N560-4-RSP4Epath392"
           fill="#4d4d4d" /><path
           class="N560-4-RSP4Est13"
           d="M76.5 74.8s-1.4-.4-2.5-.4c-1.3 0-2 .4-2 1 0 .8.9 1 1.4 1.2l.9.3c2 .7 3 2.1 3 3.6 0 3.1-2.8 4.2-5.2 4.2-1.7 0-3.3-.3-3.4-.3v-2.9c.3.1 1.6.5 3 .5 1.6 0 2.3-.5 2.3-1.2 0-.6-.6-1-1.4-1.2-.2-.1-.5-.2-.7-.2-1.8-.6-3.2-1.6-3.2-3.7 0-2.3 1.8-3.9 4.7-3.9 1.5 0 3 .4 3.1.4z"
           id="N560-4-RSP4Epath394"
           fill="#4d4d4d" /></g></g><path
       class="N560-4-RSP4Est13"
       d="M44.1 58.5c0-.9-.7-1.6-1.6-1.6-.9 0-1.6.7-1.6 1.6v3.3c0 .9.7 1.6 1.6 1.6.9 0 1.6-.7 1.6-1.6z"
       id="N560-4-RSP4Epath400"
       fill="#4d4d4d" /><path
       class="N560-4-RSP4Est13"
       d="M52.7 54.2c0-.9-.7-1.6-1.6-1.6-.9 0-1.6.7-1.6 1.6v7.6c0 .9.7 1.6 1.6 1.6.9 0 1.6-.7 1.6-1.6z"
       id="N560-4-RSP4Epath402"
       fill="#4d4d4d" /><path
       class="N560-4-RSP4Est13"
       d="M61.4 48.3c0-.9-.7-1.6-1.6-1.6-.9 0-1.6.7-1.6 1.6v16.6c0 .9.7 1.6 1.6 1.6.9 0 1.6-.7 1.6-1.6z"
       id="N560-4-RSP4Epath404"
       fill="#4d4d4d" /><path
       class="N560-4-RSP4Est13"
       d="M70 54.2c0-.9-.7-1.6-1.6-1.6-.9 0-1.6.7-1.6 1.6v7.6c0 .9.7 1.6 1.6 1.6.9 0 1.6-.7 1.6-1.6z"
       id="N560-4-RSP4Epath406"
       fill="#4d4d4d" /><path
       class="N560-4-RSP4Est13"
       d="M78.6 58.5c0-.9-.7-1.6-1.6-1.6-.9 0-1.6.7-1.6 1.6v3.3c0 .9.7 1.6 1.6 1.6.9 0 1.6-.7 1.6-1.6z"
       id="N560-4-RSP4Epath408"
       fill="#4d4d4d" /><path
       class="N560-4-RSP4Est13"
       d="M87.2 54.2c0-.9-.7-1.6-1.6-1.6-.9 0-1.6.7-1.6 1.6v7.6c0 .9.7 1.6 1.6 1.6.9 0 1.6-.7 1.6-1.6z"
       id="N560-4-RSP4Epath410"
       fill="#4d4d4d" /><path
       class="N560-4-RSP4Est13"
       d="M95.8 48.3c0-.9-.7-1.6-1.6-1.6-.9 0-1.6.7-1.6 1.6v16.6c0 .9.7 1.6 1.6 1.6.9 0 1.6-.7 1.6-1.6z"
       id="N560-4-RSP4Epath412"
       fill="#4d4d4d" /><path
       class="N560-4-RSP4Est13"
       d="M104.4 54.2c0-.9-.7-1.6-1.6-1.6-.9 0-1.6.7-1.6 1.6v7.6c0 .9.7 1.6 1.6 1.6.9 0 1.6-.7 1.6-1.6z"
       id="N560-4-RSP4Epath414"
       fill="#4d4d4d" /><path
       class="N560-4-RSP4Est13"
       d="M113 58.5c0-.9-.7-1.6-1.6-1.6-.9 0-1.6.7-1.6 1.6v3.3c0 .9.7 1.6 1.6 1.6.9 0 1.6-.7 1.6-1.6z"
       id="N560-4-RSP4Epath416"
       fill="#4d4d4d" /></g><g
     id="N560-4-RSP4Eg436"><g
       id="N560-4-RSP4Eg424"><circle
         class="N560-4-RSP4Est14"
         cx="1063"
         cy="90"
         r="6.5"
         id="N560-4-RSP4Ecircle420"
         clip-rule="evenodd"
         fill="#333"
         fill-rule="evenodd" /><path
         class="N560-4-RSP4Est2"
         d="M1063 84c3.3 0 6 2.7 6 6s-2.7 6-6 6-6-2.7-6-6 2.7-6 6-6m0-1c-3.9 0-7 3.1-7 7s3.1 7 7 7 7-3.1 7-7-3.1-7-7-7z"
         id="N560-4-RSP4Epath422"
         fill="gray" /></g><g
       id="N560-4-RSP4Eg430"><circle
         class="N560-4-RSP4Est15"
         cx="1063"
         cy="90"
         r="3.2"
         id="N560-4-RSP4Ecircle426"
         clip-rule="evenodd"
         fill="#ccc"
         fill-rule="evenodd" /><path
         class="N560-4-RSP4Est2"
         d="M1063 87.3c1.5 0 2.7 1.2 2.7 2.7 0 1.5-1.2 2.7-2.7 2.7-1.5 0-2.7-1.2-2.7-2.7 0-1.5 1.2-2.7 2.7-2.7m0-1c-2 0-3.7 1.6-3.7 3.7s1.6 3.7 3.7 3.7 3.7-1.6 3.7-3.7-1.7-3.7-3.7-3.7z"
         id="N560-4-RSP4Epath428"
         fill="gray" /></g><g
       id="N560-4-RSP4Eg434"><ellipse
         class="N560-4-RSP4Est16"
         cx="1063"
         cy="88.7"
         rx="1.3"
         ry=".7"
         id="N560-4-RSP4Eellipse432"
         clip-rule="evenodd"
         fill="#f2f2f2"
         fill-rule="evenodd" /></g></g><g
     id="N560-4-RSP4Eg454"><g
       id="N560-4-RSP4Eg442"><circle
         class="N560-4-RSP4Est14"
         cx="887"
         cy="112"
         r="6.5"
         id="N560-4-RSP4Ecircle438"
         clip-rule="evenodd"
         fill="#333"
         fill-rule="evenodd" /><path
         class="N560-4-RSP4Est2"
         d="M887 106c3.3 0 6 2.7 6 6s-2.7 6-6 6-6-2.7-6-6 2.7-6 6-6m0-1c-3.9 0-7 3.1-7 7s3.1 7 7 7 7-3.1 7-7-3.1-7-7-7z"
         id="N560-4-RSP4Epath440"
         fill="gray" /></g><g
       id="N560-4-RSP4Eg448"><circle
         class="N560-4-RSP4Est15"
         cx="887"
         cy="112"
         r="3.2"
         id="N560-4-RSP4Ecircle444"
         clip-rule="evenodd"
         fill="#ccc"
         fill-rule="evenodd" /><path
         class="N560-4-RSP4Est2"
         d="M887 109.3c1.5 0 2.7 1.2 2.7 2.7 0 1.5-1.2 2.7-2.7 2.7-1.5 0-2.7-1.2-2.7-2.7 0-1.5 1.2-2.7 2.7-2.7m0-1c-2 0-3.7 1.6-3.7 3.7s1.6 3.7 3.7 3.7 3.7-1.6 3.7-3.7-1.7-3.7-3.7-3.7z"
         id="N560-4-RSP4Epath446"
         fill="gray" /></g><g
       id="N560-4-RSP4Eg452"><ellipse
         class="N560-4-RSP4Est16"
         cx="887"
         cy="110.7"
         rx="1.3"
         ry=".7"
         id="N560-4-RSP4Eellipse450"
         clip-rule="evenodd"
         fill="#f2f2f2"
         fill-rule="evenodd" /></g></g><g
     id="N560-4-RSP4Eg472"><g
       id="N560-4-RSP4Eg460"><circle
         class="N560-4-RSP4Est14"
         cx="464"
         cy="94"
         r="6.5"
         id="N560-4-RSP4Ecircle456"
         clip-rule="evenodd"
         fill="#333"
         fill-rule="evenodd" /><path
         class="N560-4-RSP4Est2"
         d="M464 88c3.3 0 6 2.7 6 6s-2.7 6-6 6-6-2.7-6-6 2.7-6 6-6m0-1c-3.9 0-7 3.1-7 7s3.1 7 7 7 7-3.1 7-7-3.1-7-7-7z"
         id="N560-4-RSP4Epath458"
         fill="gray" /></g><g
       id="N560-4-RSP4Eg466"><circle
         class="N560-4-RSP4Est15"
         cx="464"
         cy="94"
         r="3.2"
         id="N560-4-RSP4Ecircle462"
         clip-rule="evenodd"
         fill="#ccc"
         fill-rule="evenodd" /><path
         class="N560-4-RSP4Est2"
         d="M464 91.3c1.5 0 2.7 1.2 2.7 2.7 0 1.5-1.2 2.7-2.7 2.7-1.5 0-2.7-1.2-2.7-2.7 0-1.5 1.2-2.7 2.7-2.7m0-1c-2 0-3.7 1.6-3.7 3.7s1.6 3.7 3.7 3.7 3.7-1.6 3.7-3.7-1.7-3.7-3.7-3.7z"
         id="N560-4-RSP4Epath464"
         fill="gray" /></g><g
       id="N560-4-RSP4Eg470"><ellipse
         class="N560-4-RSP4Est16"
         cx="464"
         cy="92.7"
         rx="1.3"
         ry=".7"
         id="N560-4-RSP4Eellipse468"
         clip-rule="evenodd"
         fill="#f2f2f2"
         fill-rule="evenodd" /></g></g><g
     id="N560-4-RSP4Eg490"><g
       id="N560-4-RSP4Eg478"><circle
         class="N560-4-RSP4Est14"
         cx="1148"
         cy="28"
         r="7.5"
         id="N560-4-RSP4Ecircle474"
         clip-rule="evenodd"
         fill="#333"
         fill-rule="evenodd" /><path
         class="N560-4-RSP4Est2"
         d="M1148 21c3.9 0 7 3.1 7 7s-3.1 7-7 7-7-3.1-7-7 3.1-7 7-7m0-1c-4.4 0-8 3.6-8 8s3.6 8 8 8 8-3.6 8-8-3.6-8-8-8z"
         id="N560-4-RSP4Epath476"
         fill="gray" /></g><g
       id="N560-4-RSP4Eg484"><circle
         class="N560-4-RSP4Est15"
         cx="1148"
         cy="28"
         r="3.7"
         id="N560-4-RSP4Ecircle480"
         clip-rule="evenodd"
         fill="#ccc"
         fill-rule="evenodd" /><path
         class="N560-4-RSP4Est2"
         d="M1148 24.8c1.8 0 3.2 1.4 3.2 3.2 0 1.8-1.4 3.2-3.2 3.2-1.8 0-3.2-1.4-3.2-3.2 0-1.8 1.4-3.2 3.2-3.2m0-1c-2.3 0-4.2 1.9-4.2 4.2 0 2.3 1.9 4.2 4.2 4.2 2.3 0 4.2-1.9 4.2-4.2 0-2.3-1.9-4.2-4.2-4.2z"
         id="N560-4-RSP4Epath482"
         fill="gray" /></g><g
       id="N560-4-RSP4Eg488"><ellipse
         class="N560-4-RSP4Est16"
         cx="1148"
         cy="26.5"
         rx="1.5"
         ry=".8"
         id="N560-4-RSP4Eellipse486"
         clip-rule="evenodd"
         fill="#f2f2f2"
         fill-rule="evenodd" /></g></g><g
     id="N560-4-RSP4Eg508"><g
       id="N560-4-RSP4Eg496"><circle
         class="N560-4-RSP4Est14"
         cx="1148"
         cy="49.3"
         r="7.5"
         id="N560-4-RSP4Ecircle492"
         clip-rule="evenodd"
         fill="#333"
         fill-rule="evenodd" /><path
         class="N560-4-RSP4Est2"
         d="M1148 42.3c3.9 0 7 3.1 7 7s-3.1 7-7 7-7-3.1-7-7 3.1-7 7-7m0-1c-4.4 0-8 3.6-8 8s3.6 8 8 8 8-3.6 8-8-3.6-8-8-8z"
         id="N560-4-RSP4Epath494"
         fill="gray" /></g><g
       id="N560-4-RSP4Eg502"><circle
         class="N560-4-RSP4Est15"
         cx="1148"
         cy="49.3"
         r="3.7"
         id="N560-4-RSP4Ecircle498"
         clip-rule="evenodd"
         fill="#ccc"
         fill-rule="evenodd" /><path
         class="N560-4-RSP4Est2"
         d="M1148 46.1c1.8 0 3.2 1.4 3.2 3.2 0 1.8-1.4 3.2-3.2 3.2-1.8 0-3.2-1.4-3.2-3.2 0-1.7 1.4-3.2 3.2-3.2m0-1c-2.3 0-4.2 1.9-4.2 4.2 0 2.3 1.9 4.2 4.2 4.2 2.3 0 4.2-1.9 4.2-4.2 0-2.3-1.9-4.2-4.2-4.2z"
         id="N560-4-RSP4Epath500"
         fill="gray" /></g><g
       id="N560-4-RSP4Eg506"><ellipse
         class="N560-4-RSP4Est16"
         cx="1148"
         cy="47.8"
         rx="1.5"
         ry=".8"
         id="N560-4-RSP4Eellipse504"
         clip-rule="evenodd"
         fill="#f2f2f2"
         fill-rule="evenodd" /></g></g><g
     id="N560-4-RSP4Eg526"><g
       id="N560-4-RSP4Eg514"><path
         class="N560-4-RSP4Est14"
         d="M1148 78.2c-4.1 0-7.5-3.4-7.5-7.5s3.4-7.5 7.5-7.5 7.5 3.4 7.5 7.5-3.4 7.5-7.5 7.5z"
         id="N560-4-RSP4Epath510"
         clip-rule="evenodd"
         fill="#333"
         fill-rule="evenodd" /><path
         class="N560-4-RSP4Est2"
         d="M1148 63.7c3.9 0 7 3.1 7 7s-3.1 7-7 7-7-3.1-7-7 3.1-7 7-7m0-1c-4.4 0-8 3.6-8 8s3.6 8 8 8 8-3.6 8-8-3.6-8-8-8z"
         id="N560-4-RSP4Epath512"
         fill="gray" /></g><g
       id="N560-4-RSP4Eg520"><circle
         class="N560-4-RSP4Est15"
         cx="1148"
         cy="70.7"
         r="3.7"
         id="N560-4-RSP4Ecircle516"
         clip-rule="evenodd"
         fill="#ccc"
         fill-rule="evenodd" /><path
         class="N560-4-RSP4Est2"
         d="M1148 67.5c1.8 0 3.2 1.4 3.2 3.2 0 1.8-1.4 3.2-3.2 3.2-1.8 0-3.2-1.4-3.2-3.2 0-1.8 1.4-3.2 3.2-3.2m0-1c-2.3 0-4.2 1.9-4.2 4.2 0 2.3 1.9 4.2 4.2 4.2 2.3 0 4.2-1.9 4.2-4.2 0-2.3-1.9-4.2-4.2-4.2z"
         id="N560-4-RSP4Epath518"
         fill="gray" /></g><g
       id="N560-4-RSP4Eg524"><ellipse
         class="N560-4-RSP4Est16"
         cx="1148"
         cy="69.1"
         rx="1.5"
         ry=".8"
         id="N560-4-RSP4Eellipse522"
         clip-rule="evenodd"
         fill="#f2f2f2"
         fill-rule="evenodd" /></g></g><g
     id="N560-4-RSP4Eg544"><g
       id="N560-4-RSP4Eg532"><circle
         class="N560-4-RSP4Est14"
         cx="1148"
         cy="92"
         r="7.5"
         id="N560-4-RSP4Ecircle528"
         clip-rule="evenodd"
         fill="#333"
         fill-rule="evenodd" /><path
         class="N560-4-RSP4Est2"
         d="M1148 85c3.9 0 7 3.1 7 7s-3.1 7-7 7-7-3.1-7-7 3.1-7 7-7m0-1c-4.4 0-8 3.6-8 8s3.6 8 8 8 8-3.6 8-8-3.6-8-8-8z"
         id="N560-4-RSP4Epath530"
         fill="gray" /></g><g
       id="N560-4-RSP4Eg538"><circle
         class="N560-4-RSP4Est15"
         cx="1148"
         cy="92"
         r="3.7"
         id="N560-4-RSP4Ecircle534"
         clip-rule="evenodd"
         fill="#ccc"
         fill-rule="evenodd" /><path
         class="N560-4-RSP4Est2"
         d="M1148 88.8c1.8 0 3.2 1.4 3.2 3.2 0 1.8-1.4 3.2-3.2 3.2-1.8 0-3.2-1.4-3.2-3.2 0-1.8 1.4-3.2 3.2-3.2m0-1c-2.3 0-4.2 1.9-4.2 4.2 0 2.3 1.9 4.2 4.2 4.2 2.3 0 4.2-1.9 4.2-4.2 0-2.3-1.9-4.2-4.2-4.2z"
         id="N560-4-RSP4Epath536"
         fill="gray" /></g><g
       id="N560-4-RSP4Eg542"><ellipse
         class="N560-4-RSP4Est16"
         cx="1148"
         cy="90.5"
         rx="1.5"
         ry=".8"
         id="N560-4-RSP4Eellipse540"
         clip-rule="evenodd"
         fill="#f2f2f2"
         fill-rule="evenodd" /></g></g><g
     id="N560-4-RSP4Eg554"><path
       d="M406.7 21v-9.3h1.9c.4 0 .8.1 1.1.2.3.1.5.3.7.5.2.2.3.5.4.7.1.3.1.6.1.9v.3c0 .3 0 .5-.1.6-.1.1-.1.3-.2.5s-.4.5-.7.6c.3.1.5.4.7.6.2.2.2.7.2 1.2v.5c0 .8-.2 1.4-.6 1.9-.4.4-1 .6-1.9.6h-1.6zm1.4-8v2.5h.6c.4 0 .7-.1.9-.3.2-.2.2-.5.2-1 0-.4-.1-.7-.3-.9-.2-.2-.5-.3-.9-.3zm0 3.7v3h.6c.3 0 .5 0 .6-.1.2-.1.3-.2.3-.3 0-.1.1-.3.1-.5v-.6-.6c0-.2-.1-.3-.2-.4-.1-.1-.2-.2-.4-.3-.1-.1-.3-.1-.6-.1h-.4z"
       id="N560-4-RSP4Epath546" /><path
       d="M412.3 21v-9.3h1.3V21z"
       id="N560-4-RSP4Epath548" /><path
       d="M415.8 21v-8h-1.5v-1.2h4.4V13h-1.5v8z"
       id="N560-4-RSP4Epath550" /><path
       d="M423.5 14.4h-1.3v-.3c0-.3-.1-.6-.2-.8-.1-.2-.4-.3-.7-.3-.2 0-.3 0-.4.1l-.3.3c-.1.1-.1.2-.1.4v.9c0 .1 0 .2.1.3.1.1.1.2.2.2.1.1.2.1.4.2l1 .4c.3.1.5.2.7.4.2.2.3.3.4.5.1.2.2.4.2.7 0 .3.1.6.1.9 0 .4 0 .8-.1 1.1-.1.3-.2.6-.4.9-.2.2-.4.4-.7.6-.3.1-.7.2-1.1.2-.3 0-.6-.1-.9-.2-.3-.1-.5-.3-.7-.5-.2-.2-.4-.4-.5-.7-.1-.3-.2-.6-.2-.9v-.5h1.3v.4c0 .2.1.5.2.7.1.2.4.3.7.3.2 0 .4 0 .5-.1l.3-.3c.1-.1.1-.3.1-.4v-.6-.6c0-.2-.1-.3-.1-.4-.1-.1-.1-.2-.2-.2s-.2-.1-.4-.2l-.9-.4c-.6-.2-1-.5-1.2-.9-.2-.4-.3-.9-.3-1.4 0-.3 0-.7.1-1 .1-.3.2-.6.4-.8.2-.2.4-.4.7-.5.3-.1.6-.2 1-.2.3 0 .6.1.9.2.3.1.5.3.7.5.4.4.6.9.6 1.4v.6z"
       id="N560-4-RSP4Epath552" /></g><g
     id="N560-4-RSP4Eg588"><g
       id="N560-4-RSP4Eg560"><path
         class="N560-4-RSP4Est14"
         id="N560-4-RSP4Erect556"
         clip-rule="evenodd"
         fill="#333"
         fill-rule="evenodd"
         d="M382.5 39.5h65v49h-65z" /><path
         class="N560-4-RSP4Est5"
         d="M447 40v48h-64V40h64m1-1h-66v50h66z"
         id="N560-4-RSP4Epath558"
         fill="#ccc" /></g><g
       id="N560-4-RSP4Eg586"><path
         class="N560-4-RSP4Est17"
         id="N560-4-RSP4Erect562"
         fill="#333"
         d="M387 41h56v46h-56z" /><path
         class="N560-4-RSP4Est5"
         d="M440.8 42.1H389c-.6 0-1 .4-1 1v41.8c0 .6.4 1 1 1h12.7v-9.2h26.8v9.2h12.3c.6 0 1-.4 1-1V43.1c0-.5-.5-1-1-1z"
         id="N560-4-RSP4Epath564"
         fill="#ccc" /><path
         class="N560-4-RSP4Est18"
         id="N560-4-RSP4Epolygon566"
         clip-rule="evenodd"
         fill="#505050"
         fill-rule="evenodd"
         stroke="#000"
         stroke-linecap="square"
         stroke-miterlimit="10"
         d="M394.8 81.5h7v-5.4h26.7v5.4h7V48.8h-40.7v23.4z" /><g
         id="N560-4-RSP4Eg584"><path
           class="N560-4-RSP4Est19"
           id="N560-4-RSP4Erect568"
           fill="#fff"
           d="M428.1 49.7h1v12h-1z" /><path
           class="N560-4-RSP4Est19"
           id="N560-4-RSP4Erect570"
           fill="#fff"
           d="M424.1 49.7h1v12h-1z" /><path
           class="N560-4-RSP4Est19"
           id="N560-4-RSP4Erect572"
           fill="#fff"
           d="M420.1 49.7h1v12h-1z" /><path
           class="N560-4-RSP4Est19"
           id="N560-4-RSP4Erect574"
           fill="#fff"
           d="M416.1 49.7h1v12h-1z" /><path
           class="N560-4-RSP4Est19"
           id="N560-4-RSP4Erect576"
           fill="#fff"
           d="M413.1 49.7h1v12h-1z" /><path
           class="N560-4-RSP4Est19"
           id="N560-4-RSP4Erect578"
           fill="#fff"
           d="M409.1 49.7h1v12h-1z" /><path
           class="N560-4-RSP4Est19"
           id="N560-4-RSP4Erect580"
           fill="#fff"
           d="M405.1 49.7h1v12h-1z" /><path
           class="N560-4-RSP4Est19"
           id="N560-4-RSP4Erect582"
           fill="#fff"
           d="M401.1 49.7h1v12h-1z" /></g></g></g><g
     id="N560-4-RSP4Eg622"><g
       id="N560-4-RSP4Eg594"><path
         class="N560-4-RSP4Est14"
         id="N560-4-RSP4Erect590"
         clip-rule="evenodd"
         fill="#333"
         fill-rule="evenodd"
         d="M748.5 39.5h65v49h-65z" /><path
         class="N560-4-RSP4Est5"
         d="M813 40v48h-64V40h64m1-1h-66v50h66z"
         id="N560-4-RSP4Epath592"
         fill="#ccc" /></g><g
       id="N560-4-RSP4Eg620"><path
         class="N560-4-RSP4Est17"
         id="N560-4-RSP4Erect596"
         fill="#333"
         d="M753 41h56v46h-56z" /><path
         class="N560-4-RSP4Est5"
         d="M806.8 42.1H755c-.6 0-1 .4-1 1v41.8c0 .6.4 1 1 1h12.7v-9.2h26.8v9.2h12.3c.6 0 1-.4 1-1V43.1c0-.5-.5-1-1-1z"
         id="N560-4-RSP4Epath598"
         fill="#ccc" /><path
         class="N560-4-RSP4Est18"
         id="N560-4-RSP4Epolygon600"
         clip-rule="evenodd"
         fill="#505050"
         fill-rule="evenodd"
         stroke="#000"
         stroke-linecap="square"
         stroke-miterlimit="10"
         d="M760.8 81.5h7v-5.4h26.7v5.4h7V48.8h-40.7v23.4z" /><g
         id="N560-4-RSP4Eg618"><path
           class="N560-4-RSP4Est19"
           id="N560-4-RSP4Erect602"
           fill="#fff"
           d="M794.1 49.7h1v12h-1z" /><path
           class="N560-4-RSP4Est19"
           id="N560-4-RSP4Erect604"
           fill="#fff"
           d="M790.1 49.7h1v12h-1z" /><path
           class="N560-4-RSP4Est19"
           id="N560-4-RSP4Erect606"
           fill="#fff"
           d="M786.1 49.7h1v12h-1z" /><path
           class="N560-4-RSP4Est19"
           id="N560-4-RSP4Erect608"
           fill="#fff"
           d="M782.1 49.7h1v12h-1z" /><path
           class="N560-4-RSP4Est19"
           id="N560-4-RSP4Erect610"
           fill="#fff"
           d="M779.1 49.7h1v12h-1z" /><path
           class="N560-4-RSP4Est19"
           id="N560-4-RSP4Erect612"
           fill="#fff"
           d="M775.1 49.7h1v12h-1z" /><path
           class="N560-4-RSP4Est19"
           id="N560-4-RSP4Erect614"
           fill="#fff"
           d="M771.1 49.7h1v12h-1z" /><path
           class="N560-4-RSP4Est19"
           id="N560-4-RSP4Erect616"
           fill="#fff"
           d="M767.1 49.7h1v12h-1z" /></g></g></g><g
     id="N560-4-RSP4Eg656"><g
       id="N560-4-RSP4Eg628"><path
         class="N560-4-RSP4Est14"
         id="N560-4-RSP4Erect624"
         clip-rule="evenodd"
         fill="#333"
         fill-rule="evenodd"
         d="M974.5 47.5h65v49h-65z" /><path
         class="N560-4-RSP4Est5"
         d="M1039 48v48h-64V48h64m1-1h-66v50h66z"
         id="N560-4-RSP4Epath626"
         fill="#ccc" /></g><g
       id="N560-4-RSP4Eg654"><path
         class="N560-4-RSP4Est17"
         id="N560-4-RSP4Erect630"
         fill="#333"
         d="M979 49h56v46h-56z" /><path
         class="N560-4-RSP4Est5"
         d="M1032.8 50.1H981c-.6 0-1 .4-1 1v41.8c0 .6.4 1 1 1h12.7v-9.2h26.8v9.2h12.3c.6 0 1-.4 1-1V51.1c0-.5-.5-1-1-1z"
         id="N560-4-RSP4Epath632"
         fill="#ccc" /><path
         class="N560-4-RSP4Est18"
         id="N560-4-RSP4Epolygon634"
         clip-rule="evenodd"
         fill="#505050"
         fill-rule="evenodd"
         stroke="#000"
         stroke-linecap="square"
         stroke-miterlimit="10"
         d="M986.8 89.5h7v-5.4h26.7v5.4h7V56.8h-40.7v23.4z" /><g
         id="N560-4-RSP4Eg652"><path
           class="N560-4-RSP4Est19"
           id="N560-4-RSP4Erect636"
           fill="#fff"
           d="M1020.1 57.7h1v12h-1z" /><path
           class="N560-4-RSP4Est19"
           id="N560-4-RSP4Erect638"
           fill="#fff"
           d="M1016.1 57.7h1v12h-1z" /><path
           class="N560-4-RSP4Est19"
           id="N560-4-RSP4Erect640"
           fill="#fff"
           d="M1012.1 57.7h1v12h-1z" /><path
           class="N560-4-RSP4Est19"
           id="N560-4-RSP4Erect642"
           fill="#fff"
           d="M1008.1 57.7h1v12h-1z" /><path
           class="N560-4-RSP4Est19"
           id="N560-4-RSP4Erect644"
           fill="#fff"
           d="M1005.1 57.7h1v12h-1z" /><path
           class="N560-4-RSP4Est19"
           id="N560-4-RSP4Erect646"
           fill="#fff"
           d="M1001.1 57.7h1v12h-1z" /><path
           class="N560-4-RSP4Est19"
           id="N560-4-RSP4Erect648"
           fill="#fff"
           d="M997.1 57.7h1v12h-1z" /><path
           class="N560-4-RSP4Est19"
           id="N560-4-RSP4Erect650"
           fill="#fff"
           d="M993.1 57.7h1v12h-1z" /></g></g></g><g
     id="N560-4-RSP4Eg736"><g
       id="N560-4-RSP4Eg662"><path
         class="N560-4-RSP4Est5"
         id="N560-4-RSP4Erect658"
         fill="#ccc"
         d="M488.5 33.5h129v66h-129z" /><path
         class="N560-4-RSP4Est13"
         d="M617 34v65H489V34h128m1-1H488v67h130z"
         id="N560-4-RSP4Epath660"
         fill="#4d4d4d" /></g><g
       id="N560-4-RSP4Eg668"><path
         class="N560-4-RSP4Est5"
         id="N560-4-RSP4Erect664"
         fill="#ccc"
         d="M488.5 99.5h129v5h-129z" /><path
         class="N560-4-RSP4Est13"
         d="M617 100v4H489v-4h128m1-1H488v6h130z"
         id="N560-4-RSP4Epath666"
         fill="#4d4d4d" /></g><g
       id="N560-4-RSP4Eg674"><path
         class="N560-4-RSP4Est5"
         d="M488.5 33.5V32c0-1.9 1.6-3.5 3.5-3.5h122c1.9 0 3.5 1.6 3.5 3.5v1.5z"
         id="N560-4-RSP4Epath670"
         fill="#ccc" /><path
         class="N560-4-RSP4Est13"
         d="M614 29c1.7 0 3 1.3 3 3v1H489v-1c0-1.7 1.3-3 3-3h122m0-1H492c-2.2 0-4 1.8-4 4v2h130v-2c0-2.2-1.8-4-4-4z"
         id="N560-4-RSP4Epath672"
         fill="#4d4d4d" /></g><g
       id="N560-4-RSP4Eg680"><path
         class="N560-4-RSP4Est5"
         d="M617.5 100.5v-69h1.5c1.9 0 3.5 1.6 3.5 3.5v62c0 1.9-1.6 3.5-3.5 3.5z"
         id="N560-4-RSP4Epath676"
         fill="#ccc" /><path
         class="N560-4-RSP4Est13"
         d="M619 32c1.7 0 3 1.3 3 3v62c0 1.7-1.3 3-3 3h-1V32h1m0-1h-2v70h2c2.2 0 4-1.8 4-4V35c0-2.2-1.8-4-4-4z"
         id="N560-4-RSP4Epath678"
         fill="#4d4d4d" /></g><g
       id="N560-4-RSP4Eg686"><path
         class="N560-4-RSP4Est5"
         d="M487 100.5c-1.9 0-3.5-1.6-3.5-3.5V35c0-1.9 1.6-3.5 3.5-3.5h1.5v69z"
         id="N560-4-RSP4Epath682"
         fill="#ccc" /><path
         class="N560-4-RSP4Est13"
         d="M488 32v68h-1c-1.7 0-3-1.3-3-3V35c0-1.7 1.3-3 3-3h1m1-1h-2c-2.2 0-4 1.8-4 4v62c0 2.2 1.8 4 4 4h2z"
         id="N560-4-RSP4Epath684"
         fill="#4d4d4d" /></g><g
       id="N560-4-RSP4Eg694"><path
         class="N560-4-RSP4Est5"
         id="N560-4-RSP4Epolygon688"
         fill="#ccc"
         d="M655.5 35.5v21.3l-7.7 7.7h-25.3v-29z" /><g
         id="N560-4-RSP4Eg692"><path
           class="N560-4-RSP4Est13"
           d="M655 36v20.6l-7.4 7.4H623V36h32m1-1h-34v30h26l8-8z"
           id="N560-4-RSP4Epath690"
           fill="#4d4d4d" /></g></g><g
       id="N560-4-RSP4Eg702"><path
         class="N560-4-RSP4Est5"
         id="N560-4-RSP4Epolygon696"
         fill="#ccc"
         d="M450.5 35.5h33v29h-25.3l-7.7-7.7z" /><g
         id="N560-4-RSP4Eg700"><path
           class="N560-4-RSP4Est13"
           d="M483 36v28h-24.6l-7.4-7.4V36h32m1-1h-34v22l8 8h26z"
           id="N560-4-RSP4Epath698"
           fill="#4d4d4d" /></g></g><g
       id="N560-4-RSP4Eg726"><g
         id="N560-4-RSP4Eg710"><circle
           class="N560-4-RSP4Est13"
           cx="639"
           cy="49"
           r="9.5"
           id="N560-4-RSP4Ecircle704"
           fill="#4d4d4d" /><g
           id="N560-4-RSP4Eg708"><path
             class="N560-4-RSP4Est20"
             d="M639 40c5 0 9 4 9 9s-4 9-9 9-9-4-9-9 4-9 9-9m0-1c-5.5 0-10 4.5-10 10s4.5 10 10 10 10-4.5 10-10-4.5-10-10-10z"
             id="N560-4-RSP4Epath706"
             fill="#1a1a1a" /></g></g><g
         id="N560-4-RSP4Eg716"><circle
           class="N560-4-RSP4Est13"
           cx="639"
           cy="49"
           r="8"
           id="N560-4-RSP4Ecircle712"
           fill="#4d4d4d" /><path
           class="N560-4-RSP4Est20"
           d="M639 41.5c4.1 0 7.5 3.3 7.5 7.5s-3.3 7.5-7.5 7.5-7.5-3.3-7.5-7.5 3.4-7.5 7.5-7.5m0-1c-4.7 0-8.5 3.8-8.5 8.5s3.8 8.5 8.5 8.5 8.5-3.8 8.5-8.5-3.8-8.5-8.5-8.5z"
           id="N560-4-RSP4Epath714"
           fill="#1a1a1a" /></g><g
         id="N560-4-RSP4Eg724"><path
           class="N560-4-RSP4Est13"
           d="M637.7 53.5v-3.4c0-.3-.2-.5-.5-.5h-7v-1.1h7c.3 0 .5-.2.5-.5v-3.4h2.6V48c0 .3.2.5.5.5h7v1.1h-7c-.3 0-.5.2-.5.5v3.4z"
           id="N560-4-RSP4Epath718"
           fill="#4d4d4d" /><g
           id="N560-4-RSP4Eg722"><path
             class="N560-4-RSP4Est20"
             d="M639.8 45v2.9c0 .6.4 1 1 1h6.5v.1h-6.5c-.6 0-1 .4-1 1v3h-1.6v-2.9c0-.6-.4-1-1-1h-6.5V49h6.5c.6 0 1-.4 1-1v-3h1.6m1-1h-3.6v3.9h-7.5V50h7.5v4h3.6v-3.9h7.5V48h-7.5z"
             id="N560-4-RSP4Epath720"
             fill="#1a1a1a" /></g></g></g><path
       d="M493.5 120c-3.9 0-7-3.1-7-7v-9h133v9c0 3.9-3.1 7-7 7z"
       id="N560-4-RSP4Epath728"
       fill="#e6e6e6"
       stroke="#4d4d4d"
       stroke-miterlimit="10" /><path
       class="N560-4-RSP4Est5"
       d="M487.5 105v8c0 3.3 2.7 6 6 6h119c3.3 0 6-2.7 6-6v-8zm19 11.5c-2.5 0-4.5-2-4.5-4.5s2-4.5 4.5-4.5 4.5 2 4.5 4.5-2 4.5-4.5 4.5zm93.5.5c-2.5 0-4.5-2-4.5-4.5s2-4.5 4.5-4.5 4.5 2 4.5 4.5-2 4.5-4.5 4.5z"
       id="N560-4-RSP4Epath730"
       fill="#ccc" /><path
       d="M616 102H490c-1.1 0-2 .9-2 2v1h130v-1c0-1.1-.9-2-2-2z"
       id="N560-4-RSP4Epath732"
       fill="#ccc"
       stroke="#4d4d4d"
       stroke-miterlimit="10" /><text
       transform="rotate(90 284.29 321.146)"
       class="N560-4-RSP4Est11 st23"
       id="N560-4-RSP4Etext734"
       font-size="11"
       font-family="DINCondensed-Bold">A900-CM-BLANK</text></g><g
     id="N560-4-RSP4Eg780"><g
       id="N560-4-RSP4Eg772"><g
         id="N560-4-RSP4Eg770"><path
           class="N560-4-RSP4Est17"
           id="N560-4-RSP4Erect738"
           fill="#333"
           d="M897.5 39h64.9v58h-64.9z" /><g
           id="N560-4-RSP4Eg768"><path
             d="M899.1 42.8c0-1.1.9-2 2-2h57.8c1.1 0 2 .9 2 2v50.3c0 1.1-.9 2-2 2H901c-1.1 0-2-.9-2-2z"
             id="N560-4-RSP4Epath740"
             fill="#c2c2c2"
             stroke="#000"
             stroke-miterlimit="10" /><g
             id="N560-4-RSP4Eg766"><g
               id="N560-4-RSP4Eg746"><path
                 id="N560-4-RSP4Epolygon742"
                 fill="#505050"
                 d="M943 80.7v5.9h-4.9v3.9h-15.8v-3.9h-3.9v-5.9h-11.8V54.2h47.2v26.5z" /><path
                 d="M922.8 90v-3.9h-3.9v-5.9h-11.8V54.7h46.2v25.5h-10.8v5.9h-4.9V90h-14.8m-1 5h16.8v-7.9h4.9v-5.9h10.8V41h-48.2v40.2h11.8v5.9h3.9V91z"
                 id="N560-4-RSP4Epath744"
                 data-cv-id="PORT-0" /></g><g
               id="N560-4-RSP4Eg764"><path
                 class="N560-4-RSP4Est26"
                 id="N560-4-RSP4Eline748"
                 fill="none"
                 stroke="#fff"
                 stroke-linecap="square"
                 stroke-miterlimit="10"
                 d="M943.5 50.6v10.8" /><path
                 class="N560-4-RSP4Est26"
                 id="N560-4-RSP4Eline750"
                 fill="none"
                 stroke="#fff"
                 stroke-linecap="square"
                 stroke-miterlimit="10"
                 d="M939.5 50.6v10.8" /><path
                 class="N560-4-RSP4Est26"
                 id="N560-4-RSP4Eline752"
                 fill="none"
                 stroke="#fff"
                 stroke-linecap="square"
                 stroke-miterlimit="10"
                 d="M935.6 50.6v10.8" /><path
                 class="N560-4-RSP4Est26"
                 id="N560-4-RSP4Eline754"
                 fill="none"
                 stroke="#fff"
                 stroke-linecap="square"
                 stroke-miterlimit="10"
                 d="M931.7 50.6v10.8" /><path
                 class="N560-4-RSP4Est26"
                 id="N560-4-RSP4Eline756"
                 fill="none"
                 stroke="#fff"
                 stroke-linecap="square"
                 stroke-miterlimit="10"
                 d="M927.7 50.6v10.8" /><path
                 class="N560-4-RSP4Est26"
                 id="N560-4-RSP4Eline758"
                 fill="none"
                 stroke="#fff"
                 stroke-linecap="square"
                 stroke-miterlimit="10"
                 d="M923.8 50.6v10.8" /><path
                 class="N560-4-RSP4Est26"
                 id="N560-4-RSP4Eline760"
                 fill="none"
                 stroke="#fff"
                 stroke-linecap="square"
                 stroke-miterlimit="10"
                 d="M919.9 50.6v10.8" /><path
                 class="N560-4-RSP4Est26"
                 id="N560-4-RSP4Eline762"
                 fill="none"
                 stroke="#fff"
                 stroke-linecap="square"
                 stroke-miterlimit="10"
                 d="M916 50.6v10.8" /></g></g></g></g></g><g
       id="N560-4-RSP4Eg778"><path
         id="N560-4-RSP4Erect774"
         fill="#e6e6e6"
         d="M906.5 42.5h47v5h-47z" /><path
         class="N560-4-RSP4Est2"
         d="M953 43v4h-46v-4h46m1-1h-48v6h48z"
         id="N560-4-RSP4Epath776"
         fill="gray" /></g></g><g
     id="N560-4-RSP4Eg800"><g
       id="N560-4-RSP4Eg786"><path
         class="N560-4-RSP4Est28"
         id="N560-4-RSP4Erect782"
         fill="#666"
         d="M14.5 116.5h69v6h-69z" /><path
         class="N560-4-RSP4Est17"
         d="M83 117v5H15v-5h68m1-1H14v7h70z"
         id="N560-4-RSP4Epath784"
         fill="#333" /></g><g
       id="N560-4-RSP4Eg792"><path
         class="N560-4-RSP4Est29"
         id="N560-4-RSP4Erect788"
         fill="#999"
         d="M83.5 116.5h219v6h-219z" /><path
         class="N560-4-RSP4Est17"
         d="M302 117v5H84v-5h218m1-1H83v7h220z"
         id="N560-4-RSP4Epath790"
         fill="#333" /></g><g
       id="N560-4-RSP4Eg798"><path
         class="N560-4-RSP4Est13"
         d="M302.5 122.5v-6H325c.8 0 1.5.7 1.5 1.5v3c0 .8-.7 1.5-1.5 1.5z"
         id="N560-4-RSP4Epath794"
         fill="#4d4d4d" /><path
         class="N560-4-RSP4Est17"
         d="M325 117c.6 0 1 .4 1 1v3c0 .6-.4 1-1 1h-22v-5h22m0-1h-23v7h23c1.1 0 2-.9 2-2v-3c0-1.1-.9-2-2-2z"
         id="N560-4-RSP4Epath796"
         fill="#333" /></g></g><g
     id="N560-4-RSP4Eg820"><g
       id="N560-4-RSP4Eg806"><path
         class="N560-4-RSP4Est28"
         id="N560-4-RSP4Erect802"
         fill="#666"
         d="M1273.5 116.5h69v6h-69z" /><path
         class="N560-4-RSP4Est17"
         d="M1342 117v5h-68v-5h68m1-1h-70v7h70z"
         id="N560-4-RSP4Epath804"
         fill="#333" /></g><g
       id="N560-4-RSP4Eg812"><path
         class="N560-4-RSP4Est29"
         id="N560-4-RSP4Erect808"
         fill="#999"
         d="M1054.5 116.5h219v6h-219z" /><path
         class="N560-4-RSP4Est17"
         d="M1273 117v5h-218v-5h218m1-1h-220v7h220z"
         id="N560-4-RSP4Epath810"
         fill="#333" /></g><g
       id="N560-4-RSP4Eg818"><path
         class="N560-4-RSP4Est13"
         d="M1032 122.5c-.8 0-1.5-.7-1.5-1.5v-3c0-.8.7-1.5 1.5-1.5h22.5v6z"
         id="N560-4-RSP4Epath814"
         fill="#4d4d4d" /><path
         class="N560-4-RSP4Est17"
         d="M1054 117v5h-22c-.6 0-1-.4-1-1v-3c0-.6.4-1 1-1h22m1-1h-23c-1.1 0-2 .9-2 2v3c0 1.1.9 2 2 2h23z"
         id="N560-4-RSP4Epath816"
         fill="#333" /></g></g><g
     id="N560-4-RSP4Eg834"><g
       id="N560-4-RSP4Eg832"><g
         id="N560-4-RSP4Eg826"><path
           class="N560-4-RSP4Est20"
           d="M839.6 41.2c0-.9.8-1.6 1.6-1.6h20.2c.9 0 1.6.8 1.6 1.6v50.3c0 .9-.8 1.6-1.6 1.6h-20.2c-.9 0-1.6-.8-1.6-1.6z"
           id="N560-4-RSP4Epath822"
           fill="#1a1a1a" /><path
           class="N560-4-RSP4Est5"
           d="M862.6 91.5c0 .7-.4 1.1-1.1 1.1h-20.2c-.7 0-1.1-.4-1.1-1.1V41.2c0-.7.4-1.1 1.1-1.1h20.2c.7 0 1.1.4 1.1 1.1v50.3m1 0V41.2c0-1.2-1-2.2-2.2-2.2h-20.2c-1.2 0-2.2 1-2.2 2.2v50.3c0 1.2 1 2.2 2.2 2.2h20.2c1.3 0 2.2-1 2.2-2.2z"
           id="N560-4-RSP4Epath824"
           fill="#ccc" /></g><g
         id="N560-4-RSP4Eg830"><path
           class="N560-4-RSP4Est13"
           id="N560-4-RSP4Erect828"
           fill="#4d4d4d"
           d="M852.3 46.2h5.6v40.3h-5.6z" /></g></g></g><g
     id="N560-4-RSP4Eg848"><g
       id="N560-4-RSP4Eg846"><g
         id="N560-4-RSP4Eg840"><path
           class="N560-4-RSP4Est20"
           d="M665.6 41.2c0-.9.8-1.6 1.6-1.6h20.2c.9 0 1.6.8 1.6 1.6v50.3c0 .9-.8 1.6-1.6 1.6h-20.2c-.9 0-1.6-.8-1.6-1.6z"
           id="N560-4-RSP4Epath836"
           fill="#1a1a1a" /><path
           class="N560-4-RSP4Est5"
           d="M688.6 91.5c0 .7-.4 1.1-1.1 1.1h-20.2c-.7 0-1.1-.4-1.1-1.1V41.2c0-.7.4-1.1 1.1-1.1h20.2c.7 0 1.1.4 1.1 1.1v50.3m1 0V41.2c0-1.2-1-2.2-2.2-2.2h-20.2c-1.2 0-2.2 1-2.2 2.2v50.3c0 1.2 1 2.2 2.2 2.2h20.2c1.3 0 2.2-1 2.2-2.2z"
           id="N560-4-RSP4Epath838"
           fill="#ccc" /></g><g
         id="N560-4-RSP4Eg844"><path
           class="N560-4-RSP4Est13"
           id="N560-4-RSP4Erect842"
           fill="#4d4d4d"
           d="M678.3 46.2h5.6v40.3h-5.6z" /></g></g></g><g
     id="N560-4-RSP4Eg854"><path
       class="N560-4-RSP4Est14"
       d="M461 82.2a6.7 6.7 0 110-13.4 6.7 6.7 0 010 13.4z"
       id="N560-4-RSP4Epath850"
       clip-rule="evenodd"
       fill="#333"
       fill-rule="evenodd" /><path
       class="N560-4-RSP4Est2"
       d="M461 69.2c3.5 0 6.3 2.8 6.3 6.3s-2.8 6.3-6.3 6.3-6.3-2.8-6.3-6.3 2.8-6.3 6.3-6.3m0-.7c-3.9 0-7 3.1-7 7s3.1 7 7 7 7-3.1 7-7-3.1-7-7-7z"
       id="N560-4-RSP4Epath852"
       fill="gray" /></g><g
     id="N560-4-RSP4Eg872"><g
       id="N560-4-RSP4Eg860"><circle
         class="N560-4-RSP4Est14"
         cx="643"
         cy="109"
         r="6.5"
         id="N560-4-RSP4Ecircle856"
         clip-rule="evenodd"
         fill="#333"
         fill-rule="evenodd" /><path
         class="N560-4-RSP4Est2"
         d="M643 103c3.3 0 6 2.7 6 6s-2.7 6-6 6-6-2.7-6-6 2.7-6 6-6m0-1c-3.9 0-7 3.1-7 7s3.1 7 7 7 7-3.1 7-7-3.1-7-7-7z"
         id="N560-4-RSP4Epath858"
         fill="gray" /></g><g
       id="N560-4-RSP4Eg866"><circle
         class="N560-4-RSP4Est15"
         cx="643"
         cy="109"
         r="3.2"
         id="N560-4-RSP4Ecircle862"
         clip-rule="evenodd"
         fill="#ccc"
         fill-rule="evenodd" /><path
         class="N560-4-RSP4Est2"
         d="M643 106.3c1.5 0 2.7 1.2 2.7 2.7 0 1.5-1.2 2.7-2.7 2.7-1.5 0-2.7-1.2-2.7-2.7 0-1.5 1.2-2.7 2.7-2.7m0-1c-2 0-3.7 1.6-3.7 3.7s1.6 3.7 3.7 3.7 3.7-1.6 3.7-3.7-1.7-3.7-3.7-3.7z"
         id="N560-4-RSP4Epath864"
         fill="gray" /></g><g
       id="N560-4-RSP4Eg870"><ellipse
         class="N560-4-RSP4Est16"
         cx="643"
         cy="107.7"
         rx="1.3"
         ry=".7"
         id="N560-4-RSP4Eellipse868"
         clip-rule="evenodd"
         fill="#f2f2f2"
         fill-rule="evenodd" /></g></g><text
     class="N560-4-RSP4Est11 st12"
     id="N560-4-RSP4Etext874"
     x="773.323"
     y="35.015"
     font-size="13"
     font-family="DINCondensed-Bold">TOD</text><g
     id="N560-4-RSP4Eg878"><path
       class="N560-4-RSP4Est28"
       d="M1278 12c5 0 9 4 9 9v18c0 5-4 9-9 9h-87c-5 0-9-4-9-9V21c0-5 4-9 9-9h87m0-1h-87c-5.5 0-10 4.5-10 10v18c0 5.5 4.5 10 10 10h87c5.5 0 10-4.5 10-10V21c0-5.5-4.5-10-10-10z"
       id="N560-4-RSP4Epath876"
       fill="#666" /></g><g
     id="N560-4-RSP4Eg900"><path
       d="M524.8 13.9c0-.4.1-.7.2-1 .1-.3.3-.5.5-.7.2-.2.4-.3.7-.4.3-.1.5-.1.8-.1.3 0 .5 0 .8.1.3.1.5.2.7.4.2.2.4.4.5.7.1.3.2.6.2 1v.5h-1.3v-.5c0-.3-.1-.6-.3-.7-.2-.2-.4-.2-.6-.2-.2 0-.5.1-.6.2-.2.2-.3.4-.3.7v4.9c0 .3.1.6.3.7.2.2.4.2.6.2.2 0 .5-.1.6-.2.2-.2.3-.4.3-.7v-1.7h-1.1v-1.2h2.4v2.9c0 .4-.1.7-.2 1-.1.3-.3.5-.5.7-.2.2-.5.3-.7.4-.3.1-.5.1-.8.1-.3 0-.5 0-.8-.1-.3-.1-.5-.2-.7-.4-.2-.2-.4-.4-.5-.7-.1-.3-.2-.6-.2-1z"
       id="N560-4-RSP4Epath880" /><path
       d="M530.4 21v-9.3h1.3l2 5.6v-5.6h1.3V21h-1.2l-2-5.6V21z"
       id="N560-4-RSP4Epath882" /><path
       d="M540.5 14.4h-1.3v-.3c0-.3-.1-.6-.2-.8-.1-.2-.4-.3-.7-.3-.2 0-.3 0-.4.1l-.3.3c-.1.1-.1.2-.1.4v.9c0 .1 0 .2.1.3.1.1.1.2.2.2.1.1.2.1.4.2l1 .4c.3.1.5.2.7.4.2.2.3.3.4.5.1.2.2.4.2.7 0 .3.1.6.1.9 0 .4 0 .8-.1 1.1-.1.3-.2.6-.4.9-.2.2-.4.4-.7.6-.3.1-.7.2-1.1.2-.3 0-.6-.1-.9-.2-.3-.1-.5-.3-.7-.5-.2-.2-.4-.4-.5-.7-.1-.3-.2-.6-.2-.9v-.5h1.3v.4c0 .2.1.5.2.7.1.2.4.3.7.3.2 0 .4 0 .5-.1l.3-.3c.1-.1.1-.3.1-.4v-.6-.6c0-.2-.1-.3-.1-.4-.1-.1-.1-.2-.2-.2s-.2-.1-.4-.2l-.9-.4c-.6-.2-1-.5-1.2-.9-.2-.4-.3-.9-.3-1.4 0-.3 0-.7.1-1 .1-.3.2-.6.4-.8.2-.2.4-.4.7-.5.3-.1.6-.2 1-.2.3 0 .6.1.9.2.3.1.5.3.7.5.4.4.6.9.6 1.4v.6z"
       id="N560-4-RSP4Epath884" /><path
       d="M545.8 14.4h-1.3v-.3c0-.3-.1-.6-.2-.8-.1-.2-.4-.3-.7-.3-.2 0-.3 0-.4.1l-.3.3c-.1.1-.1.2-.1.4v.9c0 .1 0 .2.1.3.1.1.1.2.2.2.1.1.2.1.4.2l1 .4c.3.1.5.2.7.4.2.2.3.3.4.5.1.2.2.4.2.7 0 .3.1.6.1.9 0 .4 0 .8-.1 1.1-.1.3-.2.6-.4.9-.2.2-.4.4-.7.6-.3.1-.7.2-1.1.2-.3 0-.6-.1-.9-.2-.3-.1-.5-.3-.7-.5-.2-.2-.4-.4-.5-.7-.1-.3-.2-.6-.2-.9v-.5h1.3v.4c0 .2.1.5.2.7.1.2.4.3.7.3.2 0 .4 0 .5-.1l.3-.3c.1-.1.1-.3.1-.4v-.6-.6c0-.2-.1-.3-.1-.4-.1-.1-.1-.2-.2-.2s-.2-.1-.4-.2l-.9-.4c-.6-.2-1-.5-1.2-.9-.2-.4-.3-.9-.3-1.4 0-.3 0-.7.1-1 .1-.3.2-.6.4-.8.2-.2.4-.4.7-.5.3-.1.6-.2 1-.2.3 0 .6.1.9.2.3.1.5.3.7.5.4.4.6.9.6 1.4v.6z"
       id="N560-4-RSP4Epath886" /><path
       d="M549.2 21v-9.3h1.3l1.7 4.9 1.7-4.9h1.3V21h-1.3v-5.6l-1.3 4h-.7l-1.3-4V21z"
       id="N560-4-RSP4Epath888" /><path
       d="M556.3 13.9c0-.4.1-.7.2-1 .1-.3.3-.5.5-.7.2-.2.4-.3.7-.4.3-.1.5-.1.8-.1.3 0 .5 0 .8.1.3.1.5.2.7.4.2.2.4.4.5.7.1.3.2.6.2 1v4.9c0 .4-.1.7-.2 1-.1.3-.3.5-.5.7-.2.2-.5.3-.7.4-.3.1-.5.1-.8.1-.3 0-.5 0-.8-.1-.3-.1-.5-.2-.7-.4-.2-.2-.4-.4-.5-.7-.1-.3-.2-.6-.2-1zm1.4 4.9c0 .3.1.6.3.7.2.2.4.2.6.2.2 0 .5-.1.6-.2.2-.2.3-.4.3-.7v-4.9c0-.3-.1-.6-.3-.7-.2-.2-.4-.2-.6-.2-.2 0-.5.1-.6.2-.2.2-.3.4-.3.7z"
       id="N560-4-RSP4Epath890" /><path
       d="M562 21v-9.3h2c.8 0 1.3.2 1.7.6.4.4.6 1 .6 1.8v4.3c0 .9-.2 1.5-.6 1.9-.4.4-1 .6-1.8.6H562zm1.3-8v6.8h.6c.4 0 .6-.1.8-.3.2-.2.2-.5.2-.9v-4.5c0-.4-.1-.6-.2-.8-.1-.2-.4-.3-.8-.3z"
       id="N560-4-RSP4Epath892" /><path
       d="M571.8 11.8V19c0 .3-.1.6-.2.8-.1.3-.3.5-.5.7-.2.2-.4.4-.7.5-.3.1-.5.2-.8.2-.3 0-.6-.1-.8-.2-.3-.1-.5-.3-.7-.5-.2-.2-.4-.4-.5-.7-.1-.3-.2-.5-.2-.8v-7.2h1.3v7c0 .3.1.6.2.7.2.2.4.2.6.2.2 0 .4-.1.6-.2.2-.2.2-.4.2-.7v-7z"
       id="N560-4-RSP4Epath894" /><path
       d="M573 21v-9.3h1.3v7.9h2.6V21z"
       id="N560-4-RSP4Epath896" /><path
       d="M577.8 21v-9.3h4V13h-2.6v2.7h2.3V17h-2.3v2.7h2.6V21z"
       id="N560-4-RSP4Epath898" /></g><g
     id="N560-4-RSP4Eg922"><path
       d="M674.1 11.8V19c0 .3-.1.6-.2.8-.1.3-.3.5-.5.7-.2.2-.4.4-.7.5-.3.1-.5.2-.8.2-.3 0-.6-.1-.8-.2-.3-.1-.5-.3-.7-.5-.2-.2-.4-.4-.5-.7-.1-.3-.2-.5-.2-.8v-7.2h1.3v7c0 .3.1.6.2.7.2.2.4.2.6.2.2 0 .4-.1.6-.2.2-.2.2-.4.2-.7v-7z"
       id="N560-4-RSP4Epath902" /><path
       d="M679.6 14.4h-1.3v-.3c0-.3-.1-.6-.2-.8-.1-.2-.4-.3-.7-.3-.2 0-.3 0-.4.1l-.3.3c-.1.1-.1.2-.1.4v.9c0 .1 0 .2.1.3.1.1.1.2.2.2.1.1.2.1.4.2l1 .4c.3.1.5.2.7.4.2.2.3.3.4.5.1.2.2.4.2.7 0 .3.1.6.1.9 0 .4 0 .8-.1 1.1-.1.3-.2.6-.4.9-.2.2-.4.4-.7.6-.3.1-.7.2-1.1.2-.3 0-.6-.1-.9-.2-.3-.1-.5-.3-.7-.5-.2-.2-.4-.4-.5-.7-.1-.3-.2-.6-.2-.9v-.5h1.3v.4c0 .2.1.5.2.7.1.2.4.3.7.3.2 0 .4 0 .5-.1l.3-.3c.1-.1.1-.3.1-.4v-.6-.6c0-.2-.1-.3-.1-.4-.1-.1-.1-.2-.2-.2s-.2-.1-.4-.2l-.9-.4c-.6-.2-1-.5-1.2-.9-.2-.4-.3-.9-.3-1.4 0-.3 0-.7.1-1 .1-.3.2-.6.4-.8.2-.2.4-.4.7-.5.3-.1.6-.2 1-.2.3 0 .6.1.9.2.3.1.5.3.7.5.4.4.6.9.6 1.4v.6z"
       id="N560-4-RSP4Epath904" /><path
       d="M680.6 21v-9.3h1.9c.4 0 .8.1 1.1.2.3.1.5.3.7.5.2.2.3.5.4.7.1.3.1.6.1.9v.3c0 .3 0 .5-.1.6-.1.1-.1.3-.2.5s-.4.5-.7.6c.3.1.5.4.7.6.2.2.2.7.2 1.2v.5c0 .8-.2 1.4-.6 1.9-.4.4-1 .6-1.9.6h-1.6zm1.3-8v2.5h.6c.4 0 .7-.1.9-.3.2-.2.2-.5.2-1 0-.4-.1-.7-.3-.9-.2-.2-.5-.3-.9-.3zm0 3.7v3h.6c.3 0 .5 0 .6-.1.2-.1.3-.2.3-.3 0-.1.1-.3.1-.5v-.6-.6c0-.2-.1-.3-.2-.4-.1-.1-.2-.2-.4-.3-.1-.1-.3-.1-.6-.1h-.4z"
       id="N560-4-RSP4Epath906" /><path
       d="M663.7 30.4v.6c0 .3-.1.6-.2.8-.1.2-.3.5-.4.7-.2.2-.4.4-.7.5-.3.1-.5.2-.8.2-.3 0-.5 0-.8-.1-.3-.1-.5-.2-.7-.4-.2-.2-.4-.4-.5-.7-.1-.3-.2-.6-.2-1v-5.1c0-.3.1-.6.2-.8.1-.3.3-.5.4-.7.2-.2.4-.3.7-.4.3-.1.6-.2.9-.2.6 0 1.1.2 1.5.6.2.2.3.4.4.7.1.3.2.6.2.9v.5h-1.3V26c0-.3-.1-.5-.2-.7-.1-.2-.3-.3-.6-.3s-.5.1-.7.3c-.1.2-.2.5-.2.8v4.7c0 .3.1.5.2.7.1.2.3.3.6.3h.3c.1 0 .2-.1.3-.1.1-.1.1-.2.2-.3.1-.1.1-.3.1-.5v-.5z"
       id="N560-4-RSP4Epath908" /><path
       d="M664.7 25.9c0-.4.1-.7.2-1 .1-.3.3-.5.5-.7.2-.2.4-.3.7-.4.3-.1.5-.1.8-.1.3 0 .5 0 .8.1.3.1.5.2.7.4.2.2.4.4.5.7.1.3.2.6.2 1v4.9c0 .4-.1.7-.2 1-.1.3-.3.5-.5.7-.2.2-.5.3-.7.4-.3.1-.5.1-.8.1-.3 0-.5 0-.8-.1-.3-.1-.5-.2-.7-.4-.2-.2-.4-.4-.5-.7-.1-.3-.2-.6-.2-1zm1.3 4.9c0 .3.1.6.3.7.2.2.4.2.6.2.2 0 .5-.1.6-.2.2-.2.3-.4.3-.7v-4.9c0-.3-.1-.6-.3-.7-.2-.2-.4-.2-.6-.2-.2 0-.5.1-.6.2-.2.2-.3.4-.3.7z"
       id="N560-4-RSP4Epath910" /><path
       d="M670.2 33v-9.3h1.3l2 5.6v-5.6h1.3V33h-1.2l-2-5.6V33z"
       id="N560-4-RSP4Epath912" /><path
       d="M680.3 26.4H679v-.3c0-.3-.1-.6-.2-.8-.1-.2-.4-.3-.7-.3-.2 0-.3 0-.4.1l-.3.3c-.1.1-.1.2-.1.4v.9c0 .1 0 .2.1.3.1.1.1.2.2.2.1.1.2.1.4.2l1 .4c.3.1.5.2.7.4.2.2.3.3.4.5.1.2.2.4.2.7 0 .3.1.6.1.9 0 .4 0 .8-.1 1.1-.1.3-.2.6-.4.9-.2.2-.4.4-.7.6-.3.1-.7.2-1.1.2-.3 0-.6-.1-.9-.2-.3-.1-.5-.3-.7-.5-.2-.2-.4-.4-.5-.7-.1-.3-.2-.6-.2-.9v-.5h1.3v.4c0 .2.1.5.2.7.1.2.4.3.7.3.2 0 .4 0 .5-.1l.3-.3c.1-.1.1-.3.1-.4v-.6-.6c0-.2-.1-.3-.1-.4-.1-.1-.1-.2-.2-.2s-.2-.1-.4-.2l-.9-.4c-.6-.2-1-.5-1.2-.9-.2-.4-.3-.9-.3-1.4 0-.3 0-.7.1-1 .1-.3.2-.6.4-.8.2-.2.4-.4.7-.5.3-.1.6-.2 1-.2.3 0 .6.1.9.2.3.1.5.3.7.5.4.4.6.9.6 1.4v.6z"
       id="N560-4-RSP4Epath914" /><path
       d="M681.3 25.9c0-.4.1-.7.2-1 .1-.3.3-.5.5-.7.2-.2.4-.3.7-.4.3-.1.5-.1.8-.1.3 0 .5 0 .8.1.3.1.5.2.7.4.2.2.4.4.5.7.1.3.2.6.2 1v4.9c0 .4-.1.7-.2 1-.1.3-.3.5-.5.7-.2.2-.5.3-.7.4-.2.1-.5.1-.8.1-.3 0-.5 0-.8-.1-.3-.1-.5-.2-.7-.4-.2-.2-.4-.4-.5-.7-.1-.3-.2-.6-.2-1zm1.3 4.9c0 .3.1.6.3.7.2.2.4.2.6.2.2 0 .5-.1.6-.2.2-.2.3-.4.3-.7v-4.9c0-.3-.1-.6-.3-.7-.2-.2-.4-.2-.6-.2-.2 0-.5.1-.6.2-.2.2-.3.4-.3.7z"
       id="N560-4-RSP4Epath916" /><path
       d="M686.9 33v-9.3h1.3v7.9h2.6V33z"
       id="N560-4-RSP4Epath918" /><path
       d="M691.7 33v-9.3h4V25H693v2.7h2.3V29H693v2.7h2.6V33z"
       id="N560-4-RSP4Epath920" /></g><g
     id="N560-4-RSP4Eg936"><g
       id="N560-4-RSP4Eg934"><g
         id="N560-4-RSP4Eg928"><path
           class="N560-4-RSP4Est20"
           d="M707.6 41.2c0-.9.8-1.6 1.6-1.6h20.2c.9 0 1.6.8 1.6 1.6v50.3c0 .9-.8 1.6-1.6 1.6h-20.2c-.9 0-1.6-.8-1.6-1.6z"
           id="N560-4-RSP4Epath924"
           fill="#1a1a1a" /><path
           class="N560-4-RSP4Est5"
           d="M730.6 91.5c0 .7-.4 1.1-1.1 1.1h-20.2c-.7 0-1.1-.4-1.1-1.1V41.2c0-.7.4-1.1 1.1-1.1h20.2c.7 0 1.1.4 1.1 1.1v50.3m1 0V41.2c0-1.2-1-2.2-2.2-2.2h-20.2c-1.2 0-2.2 1-2.2 2.2v50.3c0 1.2 1 2.2 2.2 2.2h20.2c1.3 0 2.2-1 2.2-2.2z"
           id="N560-4-RSP4Epath926"
           fill="#ccc" /></g><g
         id="N560-4-RSP4Eg932"><path
           class="N560-4-RSP4Est13"
           id="N560-4-RSP4Erect930"
           fill="#4d4d4d"
           d="M720.3 46.2h5.6v40.3h-5.6z" /></g></g></g><g
     id="N560-4-RSP4Eg958"><path
       d="M716.1 11.8V19c0 .3-.1.6-.2.8-.1.3-.3.5-.5.7-.2.2-.4.4-.7.5-.3.1-.5.2-.8.2-.3 0-.6-.1-.8-.2-.3-.1-.5-.3-.7-.5-.2-.2-.4-.4-.5-.7-.1-.3-.2-.5-.2-.8v-7.2h1.3v7c0 .3.1.6.2.7.2.2.4.2.6.2.2 0 .4-.1.6-.2.2-.2.2-.4.2-.7v-7z"
       id="N560-4-RSP4Epath938" /><path
       d="M721.6 14.4h-1.3v-.3c0-.3-.1-.6-.2-.8-.1-.2-.4-.3-.7-.3-.2 0-.3 0-.4.1l-.3.3c-.1.1-.1.2-.1.4v.9c0 .1 0 .2.1.3.1.1.1.2.2.2.1.1.2.1.4.2l1 .4c.3.1.5.2.7.4.2.2.3.3.4.5.1.2.2.4.2.7 0 .3.1.6.1.9 0 .4 0 .8-.1 1.1-.1.3-.2.6-.4.9-.2.2-.4.4-.7.6-.3.1-.7.2-1.1.2-.3 0-.6-.1-.9-.2-.3-.1-.5-.3-.7-.5-.2-.2-.4-.4-.5-.7-.1-.3-.2-.6-.2-.9v-.5h1.3v.4c0 .2.1.5.2.7.1.2.4.3.7.3.2 0 .4 0 .5-.1l.3-.3c.1-.1.1-.3.1-.4v-.6-.6c0-.2-.1-.3-.1-.4-.1-.1-.1-.2-.2-.2s-.2-.1-.4-.2l-.9-.4c-.6-.2-1-.5-1.2-.9-.2-.4-.3-.9-.3-1.4 0-.3 0-.7.1-1 .1-.3.2-.6.4-.8.2-.2.4-.4.7-.5.3-.1.6-.2 1-.2.3 0 .6.1.9.2.3.1.5.3.7.5.4.4.6.9.6 1.4v.6z"
       id="N560-4-RSP4Epath940" /><path
       d="M722.6 21v-9.3h1.9c.4 0 .8.1 1.1.2.3.1.5.3.7.5.2.2.3.5.4.7.1.3.1.6.1.9v.3c0 .3 0 .5-.1.6-.1.1-.1.3-.2.5s-.4.5-.7.6c.3.1.5.4.7.6.2.2.2.7.2 1.2v.5c0 .8-.2 1.4-.6 1.9-.4.4-1 .6-1.9.6h-1.6zm1.3-8v2.5h.6c.4 0 .7-.1.9-.3.2-.2.2-.5.2-1 0-.4-.1-.7-.3-.9-.2-.2-.5-.3-.9-.3zm0 3.7v3h.6c.3 0 .5 0 .6-.1.2-.1.3-.2.3-.3 0-.1.1-.3.1-.5v-.6-.6c0-.2-.1-.3-.2-.4-.1-.1-.2-.2-.4-.3-.1-.1-.3-.1-.6-.1h-.4z"
       id="N560-4-RSP4Epath942" /><path
       d="M705.7 30.4v.6c0 .3-.1.6-.2.8-.1.2-.3.5-.4.7-.2.2-.4.4-.7.5-.3.1-.5.2-.8.2-.3 0-.5 0-.8-.1-.3-.1-.5-.2-.7-.4-.2-.2-.4-.4-.5-.7-.1-.3-.2-.6-.2-1v-5.1c0-.3.1-.6.2-.8.1-.3.3-.5.4-.7.2-.2.4-.3.7-.4.3-.1.6-.2.9-.2.6 0 1.1.2 1.5.6.2.2.3.4.4.7.1.3.2.6.2.9v.5h-1.3V26c0-.3-.1-.5-.2-.7-.1-.2-.3-.3-.6-.3s-.5.1-.7.3c-.1.2-.2.5-.2.8v4.7c0 .3.1.5.2.7.1.2.3.3.6.3h.3c.1 0 .2-.1.3-.1.1-.1.1-.2.2-.3.1-.1.1-.3.1-.5v-.5z"
       id="N560-4-RSP4Epath944" /><path
       d="M706.7 25.9c0-.4.1-.7.2-1 .1-.3.3-.5.5-.7.2-.2.4-.3.7-.4.3-.1.5-.1.8-.1.3 0 .5 0 .8.1.3.1.5.2.7.4.2.2.4.4.5.7.1.3.2.6.2 1v4.9c0 .4-.1.7-.2 1-.1.3-.3.5-.5.7-.2.2-.5.3-.7.4-.3.1-.5.1-.8.1-.3 0-.5 0-.8-.1-.3-.1-.5-.2-.7-.4-.2-.2-.4-.4-.5-.7-.1-.3-.2-.6-.2-1zm1.3 4.9c0 .3.1.6.3.7.2.2.4.2.6.2.2 0 .5-.1.6-.2.2-.2.3-.4.3-.7v-4.9c0-.3-.1-.6-.3-.7-.2-.2-.4-.2-.6-.2-.2 0-.5.1-.6.2-.2.2-.3.4-.3.7z"
       id="N560-4-RSP4Epath946" /><path
       d="M712.2 33v-9.3h1.3l2 5.6v-5.6h1.3V33h-1.2l-2-5.6V33z"
       id="N560-4-RSP4Epath948" /><path
       d="M722.3 26.4H721v-.3c0-.3-.1-.6-.2-.8-.1-.2-.4-.3-.7-.3-.2 0-.3 0-.4.1l-.3.3c-.1.1-.1.2-.1.4v.9c0 .1 0 .2.1.3.1.1.1.2.2.2.1.1.2.1.4.2l1 .4c.3.1.5.2.7.4.2.2.3.3.4.5.1.2.2.4.2.7 0 .3.1.6.1.9 0 .4 0 .8-.1 1.1-.1.3-.2.6-.4.9-.2.2-.4.4-.7.6-.3.1-.7.2-1.1.2-.3 0-.6-.1-.9-.2-.3-.1-.5-.3-.7-.5-.2-.2-.4-.4-.5-.7-.1-.3-.2-.6-.2-.9v-.5h1.3v.4c0 .2.1.5.2.7.1.2.4.3.7.3.2 0 .4 0 .5-.1l.3-.3c.1-.1.1-.3.1-.4v-.6-.6c0-.2-.1-.3-.1-.4-.1-.1-.1-.2-.2-.2s-.2-.1-.4-.2l-.9-.4c-.6-.2-1-.5-1.2-.9-.2-.4-.3-.9-.3-1.4 0-.3 0-.7.1-1 .1-.3.2-.6.4-.8.2-.2.4-.4.7-.5.3-.1.6-.2 1-.2.3 0 .6.1.9.2.3.1.5.3.7.5.4.4.6.9.6 1.4v.6z"
       id="N560-4-RSP4Epath950" /><path
       d="M723.3 25.9c0-.4.1-.7.2-1 .1-.3.3-.5.5-.7.2-.2.4-.3.7-.4.3-.1.5-.1.8-.1.3 0 .5 0 .8.1.3.1.5.2.7.4.2.2.4.4.5.7.1.3.2.6.2 1v4.9c0 .4-.1.7-.2 1-.1.3-.3.5-.5.7-.2.2-.5.3-.7.4-.2.1-.5.1-.8.1-.3 0-.5 0-.8-.1-.3-.1-.5-.2-.7-.4-.2-.2-.4-.4-.5-.7-.1-.3-.2-.6-.2-1zm1.3 4.9c0 .3.1.6.3.7.2.2.4.2.6.2.2 0 .5-.1.6-.2.2-.2.3-.4.3-.7v-4.9c0-.3-.1-.6-.3-.7-.2-.2-.4-.2-.6-.2-.2 0-.5.1-.6.2-.2.2-.3.4-.3.7z"
       id="N560-4-RSP4Epath952" /><path
       d="M728.9 33v-9.3h1.3v7.9h2.6V33z"
       id="N560-4-RSP4Epath954" /><path
       d="M733.7 33v-9.3h4V25H735v2.7h2.3V29H735v2.7h2.6V33z"
       id="N560-4-RSP4Epath956" /></g><g
     id="N560-4-RSP4Eg976"><g
       id="N560-4-RSP4Eg964"><circle
         class="N560-4-RSP4Est14"
         cx="710"
         cy="109"
         r="6.5"
         id="N560-4-RSP4Ecircle960"
         clip-rule="evenodd"
         fill="#333"
         fill-rule="evenodd" /><path
         class="N560-4-RSP4Est2"
         d="M710 103c3.3 0 6 2.7 6 6s-2.7 6-6 6-6-2.7-6-6 2.7-6 6-6m0-1c-3.9 0-7 3.1-7 7s3.1 7 7 7 7-3.1 7-7-3.1-7-7-7z"
         id="N560-4-RSP4Epath962"
         fill="gray" /></g><g
       id="N560-4-RSP4Eg970"><circle
         class="N560-4-RSP4Est15"
         cx="710"
         cy="109"
         r="3.2"
         id="N560-4-RSP4Ecircle966"
         clip-rule="evenodd"
         fill="#ccc"
         fill-rule="evenodd" /><path
         class="N560-4-RSP4Est2"
         d="M710 106.3c1.5 0 2.7 1.2 2.7 2.7 0 1.5-1.2 2.7-2.7 2.7-1.5 0-2.7-1.2-2.7-2.7 0-1.5 1.2-2.7 2.7-2.7m0-1c-2 0-3.7 1.6-3.7 3.7s1.6 3.7 3.7 3.7 3.7-1.6 3.7-3.7-1.7-3.7-3.7-3.7z"
         id="N560-4-RSP4Epath968"
         fill="gray" /></g><g
       id="N560-4-RSP4Eg974"><ellipse
         class="N560-4-RSP4Est16"
         cx="710"
         cy="107.7"
         rx="1.3"
         ry=".7"
         id="N560-4-RSP4Eellipse972"
         clip-rule="evenodd"
         fill="#f2f2f2"
         fill-rule="evenodd" /></g></g><path
     class="N560-4-RSP4Est14"
     id="N560-4-RSP4Epolygon978"
     clip-rule="evenodd"
     fill="#333"
     fill-rule="evenodd"
     d="M518.6 16.5l-2.3 4-2.3-4-2.3-4h9.2z" /><text
     xml:space="preserve"
     style="line-height:1.25;-inkscape-font-specification:'sans-serif Bold'"
     x="16.433"
     y="20.406"
     id="N560-4-RSP4Etext497"
     transform="scale(.89221 1.12081)"
     font-style="normal"
     font-variant="normal"
     font-weight="700"
     font-stretch="normal"
     font-size="13.933"
     font-family="sans-serif"
     letter-spacing="0"
     word-spacing="0"
     fill="#000"
     fill-opacity="1"
     stroke="none"
     stroke-width=".348"><tspan
       id="N560-4-RSP4Etspan495"
       x="16.433"
       y="20.406"
       style="-inkscape-font-specification:'sans-serif Bold'"
       font-style="normal"
       font-variant="normal"
       font-weight="700"
       font-stretch="normal"
       font-family="sans-serif"
       stroke-width=".348">N560-4-RSP4E</tspan></text><text
     xml:space="preserve"
     style="font-style:normal;font-weight:normal;font-size:40px;line-height:1.25;font-family:sans-serif;fill:#000000;fill-opacity:1;stroke:none"
     x="1213.406"
     y="88.817657"
     id="text490"><tspan
       sodipodi:role="line"
       id="tspan488"
       x="1213.406"
       y="88.817657" /></text></svg>
