<?xml version="1.0" encoding="UTF-8" standalone="no"?>
<svg
   xmlns:dc="http://purl.org/dc/elements/1.1/"
   xmlns:cc="http://creativecommons.org/ns#"
   xmlns:rdf="http://www.w3.org/1999/02/22-rdf-syntax-ns#"
   xmlns:svg="http://www.w3.org/2000/svg"
   xmlns="http://www.w3.org/2000/svg"
   xmlns:sodipodi="http://sodipodi.sourceforge.net/DTD/sodipodi-0.dtd"
   xmlns:inkscape="http://www.inkscape.org/namespaces/inkscape"
   version="1.1"
   id="N560-4-PWR-FANLayer_1"
   x="0"
   y="0"
   viewBox="0 0 280 170"
   xml:space="preserve"
   width="280"
   height="170"
   sodipodi:docname="N560-4-PWR-FAN.svg"
   inkscape:version="1.0.1 (3bc2e813f5, 2020-09-07)"><metadata
     id="metadata135"><rdf:RDF><cc:Work
         rdf:about=""><dc:format>image/svg+xml</dc:format><dc:type
           rdf:resource="http://purl.org/dc/dcmitype/StillImage" /></cc:Work></rdf:RDF></metadata><defs
     id="defs133" /><sodipodi:namedview
     pagecolor="#ffffff"
     bordercolor="#666666"
     borderopacity="1"
     objecttolerance="10"
     gridtolerance="10"
     guidetolerance="10"
     inkscape:pageopacity="0"
     inkscape:pageshadow="2"
     inkscape:window-width="1280"
     inkscape:window-height="658"
     id="namedview131"
     showgrid="false"
     inkscape:zoom="2.8823529"
     inkscape:cx="140"
     inkscape:cy="85"
     inkscape:window-x="-6"
     inkscape:window-y="-6"
     inkscape:window-maximized="1"
     inkscape:current-layer="N560-4-PWR-FANLayer_1" /><style
     type="text/css"
     id="N560-4-PWR-FANstyle2">.N560-4-PWR-FANst0{fill:#b3b3b3}.N560-4-PWR-FANst2{fill:#ccc}.N560-4-PWR-FANst3{fill:gray}.N560-4-PWR-FANst4{fill:#e6e6e6}.N560-4-PWR-FANst6{fill-rule:evenodd;clip-rule:evenodd;fill:#333}.N560-4-PWR-FANst7,.N560-4-PWR-FANst8{fill-rule:evenodd;clip-rule:evenodd;fill:#ccc}.N560-4-PWR-FANst8{fill:#f2f2f2}.N560-4-PWR-FANst12{fill:none;stroke:#fff;stroke-linecap:square;stroke-miterlimit:10}.N560-4-PWR-FANst13{fill:#666}</style><g
     id="N560-4-PWR-FANg8"><path
       class="N560-4-PWR-FANst0"
       d="M4 169.5c-1.9 0-3.5-1.6-3.5-3.5V4C.5 2.1 2.1.5 4 .5h241c1.9 0 3.5 1.6 3.5 3.5v39c0 3.6 2.9 6.5 6.5 6.5h19c3 0 5.5 2.5 5.5 5.5v34c0 3-2.5 5.5-5.5 5.5h-19c-3.6 0-6.5 2.9-6.5 6.5v65c0 1.9-1.6 3.5-3.5 3.5z"
       id="N560-4-PWR-FANpath4"
       fill="#b3b3b3" /><path
       d="M245 1c1.7 0 3 1.3 3 3v39c0 3.9 3.1 7 7 7h19c2.8 0 5 2.2 5 5v34c0 2.8-2.2 5-5 5h-19c-3.9 0-7 3.1-7 7v65c0 1.7-1.3 3-3 3H4c-1.7 0-3-1.3-3-3V4c0-1.7 1.3-3 3-3h241m0-1H4C1.8 0 0 1.8 0 4v162c0 2.2 1.8 4 4 4h241c2.2 0 4-1.8 4-4v-65c0-3.3 2.7-6 6-6h19c3.3 0 6-2.7 6-6V55c0-3.3-2.7-6-6-6h-19c-3.3 0-6-2.7-6-6V4c0-2.2-1.8-4-4-4z"
       id="N560-4-PWR-FANpath6"
       fill="#1a1a1a" /></g><g
     id="N560-4-PWR-FANg16"><path
       class="N560-4-PWR-FANst2"
       d="M13.3 164.5c-3 0-5.5-2.5-5.5-5.5V50c0-3 2.5-5.5 5.5-5.5H33c3.6 0 6.5-2.9 6.5-6.5V11c0-3 2.5-5.5 5.5-5.5h102c3 0 5.5 2.5 5.5 5.5v20c0 7.4 6.1 13.5 13.5 13.5 3.9 0 7.8-1.7 11.3-4.8 1.4-1.3 2.2-3 2.2-4.9V11c0-3 2.5-5.5 5.5-5.5h49.7c3 0 5.5 2.5 5.5 5.5v148c0 3-2.5 5.5-5.5 5.5z"
       id="N560-4-PWR-FANpath10"
       fill="#ccc" /><g
       id="N560-4-PWR-FANg14"><path
         class="N560-4-PWR-FANst3"
         d="M234.7 6c2.8 0 5 2.2 5 5v148c0 2.8-2.2 5-5 5H13.3c-2.8 0-5-2.2-5-5V50c0-2.8 2.2-5 5-5H33c3.9 0 7-3.1 7-7V11c0-2.8 2.2-5 5-5h102c2.8 0 5 2.2 5 5v20c0 7.7 6.3 14 14 14 4.1 0 8.1-1.7 11.7-5 1.5-1.3 2.3-3.3 2.3-5.2V11c0-2.8 2.2-5 5-5h49.7m0-1H185c-3.3 0-6 2.7-6 6v23.8c0 1.7-.7 3.3-2 4.5-3.6 3.3-7.5 4.7-11 4.7-7.2 0-13-5.8-13-13V11c0-3.3-2.7-6-6-6H45c-3.3 0-6 2.7-6 6v27c0 3.3-2.7 6-6 6H13.3c-3.3 0-6 2.7-6 6v109c0 3.3 2.7 6 6 6h221.4c3.3 0 6-2.7 6-6V11c0-3.3-2.7-6-6-6z"
         id="N560-4-PWR-FANpath12"
         fill="gray" /></g></g><g
     id="N560-4-PWR-FANg22"><path
       class="N560-4-PWR-FANst4"
       d="M24.6 41.5c-5 0-9.1-4.1-9.1-9.1v-2.9c0-5 4.1-9.1 9.1-9.1h140.9c5 0 9.1 4.1 9.1 9.1v2.9c0 5-4.1 9.1-9.1 9.1z"
       id="N560-4-PWR-FANpath18"
       fill="#e6e6e6" /><path
       d="M165.4 21c4.7 0 8.6 3.8 8.6 8.6v2.9c0 4.7-3.8 8.6-8.6 8.6H24.6c-4.7 0-8.6-3.8-8.6-8.6v-2.9c0-4.7 3.8-8.6 8.6-8.6h140.8m0-1H24.6c-5.3 0-9.6 4.3-9.6 9.6v2.9c0 5.3 4.3 9.6 9.6 9.6h140.9c5.3 0 9.6-4.3 9.6-9.6v-2.9c-.1-5.3-4.4-9.6-9.7-9.6z"
       id="N560-4-PWR-FANpath20"
       fill="#4d4d4d" /></g><g
     id="N560-4-PWR-FANg52"><path
       d="M30 154.9h-8.5v-1.2l5.1-1.8h-5.1v-1.2H30v1.2l-5.1 1.9H30z"
       id="N560-4-PWR-FANpath24" /><path
       d="M21.4 146h1.2v2.4h2.3c-.1-.1-.2-.3-.3-.4-.1-.2-.1-.4-.1-.6 0-.4.1-.8.4-1 .3-.2.6-.4 1.1-.4h2.2c.3 0 .5.1.8.2.2.1.4.2.6.4.2.2.3.4.4.6.1.2.1.4.1.7 0 .3 0 .5-.1.7-.1.2-.2.4-.4.6-.2.2-.4.3-.6.4-.2.1-.5.2-.8.2h-.4v-1.2h.3c.2 0 .4-.1.5-.2.1-.1.2-.3.2-.4 0-.1-.1-.3-.2-.4-.1-.1-.3-.2-.5-.2h-2c-.2 0-.3.1-.4.2-.1.1-.2.2-.2.4 0 .1 0 .2.1.3.1.1.1.1.1.2 0 0 .1.1.2.1s.1.1.1.1v1.1h-4.6z"
       id="N560-4-PWR-FANpath26" /><path
       d="M21.4 142l3.6 1.4s-.1-.1-.1-.2v-.3c0-.2.1-.4.2-.6.1-.2.2-.3.4-.4.1-.1.2-.1.3-.1.1 0 .2-.1.3-.1h2.5c.1 0 .2.1.3.1.1 0 .2.1.3.1.3.2.5.4.6.6.1.3.2.6.2.9 0 .3-.1.6-.2.9-.1.3-.3.5-.6.6-.1.1-.2.1-.3.2-.1.1-.2.1-.3.1h-2.4c-.1 0-.2 0-.3-.1-.1 0-.2-.1-.3-.1l-4.3-1.6V142zm5.2.8c-.2 0-.3.1-.4.2-.1.1-.2.3-.2.4 0 .1.1.3.2.4.1.1.3.2.4.2h1.6c.2 0 .3-.1.4-.2.1-.1.2-.3.2-.4 0-.1-.1-.3-.2-.4-.1-.1-.3-.2-.4-.2z"
       id="N560-4-PWR-FANpath28" /><path
       d="M23.2 140.7c-.3 0-.5-.1-.8-.2-.2-.1-.4-.2-.6-.4-.2-.2-.3-.4-.4-.6-.1-.2-.1-.4-.1-.7 0-.3 0-.5.1-.7.1-.2.2-.4.4-.6.2-.2.4-.3.6-.4.2-.1.5-.2.8-.2h5c.3 0 .5.1.8.2.3.1.4.2.6.4.2.2.3.4.4.6.1.2.1.4.1.7 0 .3 0 .5-.1.7-.1.2-.2.4-.4.6-.2.2-.4.3-.6.4-.2.1-.5.2-.8.2zm5-1.2c.2 0 .3-.1.4-.2.1-.1.2-.3.2-.4 0-.1-.1-.3-.2-.4-.1-.1-.3-.2-.4-.2h-5c-.2 0-.3.1-.4.2-.1.1-.2.3-.2.4 0 .1.1.3.2.4.1.1.3.2.4.2z"
       id="N560-4-PWR-FANpath30" /><path
       d="M27.3 136.1H26v-3.6h1.2v3.6z"
       id="N560-4-PWR-FANpath32" /><path
       d="M30 129.5h-1.3v2.4h-1.2l-6.1-1.8v-1.3l6.1 1.8v-1.2h-2.4v-1.2h2.4v-.6h1.2v.6H30z"
       id="N560-4-PWR-FANpath34" /><path
       d="M27.3 127H26v-3.6h1.2v3.6z"
       id="N560-4-PWR-FANpath36" /><path
       d="M30 122.3h-8.5v-1.8c0-.3 0-.6.1-.9.1-.3.2-.5.5-.7.2-.2.5-.4.8-.4.3-.1.7-.1 1.2-.1.4 0 .7 0 1 .1.3 0 .5.1.7.3.3.2.5.4.7.7.2.3.2.6.2 1.1v.6H30zm-7.4-1.2h2.9v-.6c0-.2 0-.4-.1-.6l-.3-.3c-.1-.1-.3-.1-.4-.1h-1.2c-.2 0-.3 0-.5.1l-.3.3c-.1.1-.1.3-.1.6z"
       id="N560-4-PWR-FANpath38" /><path
       d="M21.4 111.1l8.5 1.3v1.2l-5.5.9 5.5.9v1.2l-8.5 1.3v-1.3l5.4-.6-5.4-1v-1l5.6-1-5.6-.6z"
       id="N560-4-PWR-FANpath40" /><path
       d="M30 110.3h-8.5v-2c0-1.4.8-2.2 2.5-2.2.5 0 .9.1 1.3.2.4.2.6.4.9.8l3.9-1.3v1.3l-3.6 1.1v.7H30zm-7.4-1.2h2.7v-.7c0-.2 0-.4-.1-.5-.1-.1-.1-.2-.3-.3-.1-.1-.2-.1-.4-.1h-1.2c-.2 0-.3.1-.4.1-.2.2-.3.4-.3.9z"
       id="N560-4-PWR-FANpath42" /><path
       d="M27.3 105.2H26v-3.6h1.2v3.6z"
       id="N560-4-PWR-FANpath44" /><path
       d="M30 100.5h-8.5v-3.6h1.2v2.4h2.6v-2.1h1.2v2.1H30z"
       id="N560-4-PWR-FANpath46" /><path
       d="M30 97.2l-8.5-1.9v-1l8.5-1.9v1.2l-1.9.4v1.7l1.9.3zm-3-3l-3.1.6 3.1.6z"
       id="N560-4-PWR-FANpath48" /><path
       d="M30 91.8h-8.5v-1.2l5.1-1.8h-5.1v-1.2H30v1.2l-5.1 1.9H30z"
       id="N560-4-PWR-FANpath50" /></g><g
     id="N560-4-PWR-FANg62"><path
       d="M70.9 149.6v.5c0 .3 0 .5-.1.8-.1.3-.2.4-.4.6-.2.2-.4.3-.6.4-.2.1-.5.2-.8.2-.2 0-.5 0-.7-.1-.2-.1-.5-.2-.6-.3-.1-.1-.4-.4-.5-.6-.1-.2-.2-.6-.2-1v-4.7c0-.3 0-.5.1-.8.1-.2.2-.4.4-.6.2-.2.4-.3.6-.4.2-.1.5-.2.8-.2.6 0 1 .2 1.4.6.2.2.3.4.4.7.1.3.1.5.1.8v.5h-1.2v-.4c0-.2-.1-.4-.2-.6-.1-.2-.3-.3-.6-.3s-.5.1-.6.3c-.1.2-.1.4-.1.7v4.4c0 .2.1.5.2.6.1.1.3.3.6.3h.3c.1 0 .2-.1.3-.1.1-.1.1-.2.2-.3.1-.1.1-.3.1-.4v-.4h1.1z"
       id="N560-4-PWR-FANpath54" /><path
       d="M71.9 152v-8.5h2c1.4 0 2.2.8 2.2 2.5 0 .5-.1.9-.2 1.3-.2.4-.4.6-.8.9l1.3 3.9H75l-1.1-3.6h-.7v3.6h-1.3zm1.3-7.4v2.7h.7c.2 0 .4 0 .5-.1.1-.1.2-.1.3-.3.1-.1.1-.2.1-.4v-.6-.6c0-.2-.1-.3-.1-.4-.2-.2-.4-.3-.9-.3z"
       id="N560-4-PWR-FANpath56" /><path
       d="M77.1 152v-8.5h1.2v8.5z"
       id="N560-4-PWR-FANpath58" /><path
       d="M80.3 152v-7.4h-1.4v-1.2H83v1.2h-1.4v7.4z"
       id="N560-4-PWR-FANpath60" /></g><g
     id="N560-4-PWR-FANg80"><g
       id="N560-4-PWR-FANg68"><circle
         class="N560-4-PWR-FANst6"
         cx="54.5"
         cy="147.5"
         r="10"
         id="N560-4-PWR-FANcircle64"
         clip-rule="evenodd"
         fill="#333"
         fill-rule="evenodd" /><path
         class="N560-4-PWR-FANst3"
         d="M54.5 138c5.2 0 9.5 4.3 9.5 9.5s-4.3 9.5-9.5 9.5-9.5-4.3-9.5-9.5 4.3-9.5 9.5-9.5m0-1c-5.8 0-10.5 4.7-10.5 10.5S48.7 158 54.5 158 65 153.3 65 147.5 60.3 137 54.5 137z"
         id="N560-4-PWR-FANpath66"
         fill="gray" /></g><g
       id="N560-4-PWR-FANg74"><circle
         class="N560-4-PWR-FANst7"
         cx="54.5"
         cy="147.5"
         r="5"
         id="N560-4-PWR-FANcircle70"
         clip-rule="evenodd"
         fill="#ccc"
         fill-rule="evenodd" /><path
         class="N560-4-PWR-FANst3"
         d="M54.5 143c2.5 0 4.5 2 4.5 4.5s-2 4.5-4.5 4.5-4.5-2-4.5-4.5 2-4.5 4.5-4.5m0-1c-3 0-5.5 2.5-5.5 5.5s2.5 5.5 5.5 5.5 5.5-2.5 5.5-5.5-2.5-5.5-5.5-5.5z"
         id="N560-4-PWR-FANpath72"
         fill="gray" /></g><g
       id="N560-4-PWR-FANg78"><ellipse
         class="N560-4-PWR-FANst8"
         cx="54.5"
         cy="145.5"
         rx="2"
         ry="1"
         id="N560-4-PWR-FANellipse76"
         clip-rule="evenodd"
         fill="#f2f2f2"
         fill-rule="evenodd" /></g></g><g
     id="N560-4-PWR-FANg88"><path
       d="M67.1 130v-8.5h1.2l1.6 4.5 1.6-4.5h1.2v8.5h-1.2v-5.2l-1.2 3.7h-.6l-1.2-3.7v5.2z"
       id="N560-4-PWR-FANpath82" /><path
       d="M73.8 130v-8.5H75v8.5z"
       id="N560-4-PWR-FANpath84" /><path
       d="M76.1 130v-8.5h1.2l1.8 5.1v-5.1h1.2v8.5h-1.2l-1.9-5.1v5.1z"
       id="N560-4-PWR-FANpath86" /></g><g
     id="N560-4-PWR-FANg106"><g
       id="N560-4-PWR-FANg94"><circle
         class="N560-4-PWR-FANst6"
         cx="54.5"
         cy="125.5"
         r="10"
         id="N560-4-PWR-FANcircle90"
         clip-rule="evenodd"
         fill="#333"
         fill-rule="evenodd" /><path
         class="N560-4-PWR-FANst3"
         d="M54.5 116c5.2 0 9.5 4.3 9.5 9.5s-4.3 9.5-9.5 9.5-9.5-4.3-9.5-9.5 4.3-9.5 9.5-9.5m0-1c-5.8 0-10.5 4.7-10.5 10.5S48.7 136 54.5 136 65 131.3 65 125.5 60.3 115 54.5 115z"
         id="N560-4-PWR-FANpath92"
         fill="gray" /></g><g
       id="N560-4-PWR-FANg100"><circle
         class="N560-4-PWR-FANst7"
         cx="54.5"
         cy="125.5"
         r="5"
         id="N560-4-PWR-FANcircle96"
         clip-rule="evenodd"
         fill="#ccc"
         fill-rule="evenodd" /><path
         class="N560-4-PWR-FANst3"
         d="M54.5 121c2.5 0 4.5 2 4.5 4.5s-2 4.5-4.5 4.5-4.5-2-4.5-4.5 2-4.5 4.5-4.5m0-1c-3 0-5.5 2.5-5.5 5.5s2.5 5.5 5.5 5.5 5.5-2.5 5.5-5.5-2.5-5.5-5.5-5.5z"
         id="N560-4-PWR-FANpath98"
         fill="gray" /></g><g
       id="N560-4-PWR-FANg104"><ellipse
         class="N560-4-PWR-FANst8"
         cx="54.5"
         cy="123.5"
         rx="2"
         ry="1"
         id="N560-4-PWR-FANellipse102"
         clip-rule="evenodd"
         fill="#f2f2f2"
         fill-rule="evenodd" /></g></g><g
     id="N560-4-PWR-FANg116"><path
       d="M122.6 145.9h-1.2v-.3c0-.3-.1-.5-.2-.7-.1-.2-.4-.3-.7-.3-.2 0-.3 0-.4.1-.1.1-.2.1-.3.2-.1.1-.1.2-.1.4v.8c0 .1 0 .2.1.3.1.1.1.2.2.2.1.1.2.1.4.2l.9.4c.3.1.5.2.7.4.2.1.3.3.4.5.1.2.1.4.2.7v.8c0 .4 0 .7-.1 1-.1.3-.2.6-.3.8-.2.2-.4.4-.7.5-.3.1-.6.2-1 .2-.3 0-.6-.1-.8-.2-.3-.1-.5-.2-.7-.4-.2-.2-.3-.4-.4-.6-.1-.2-.2-.5-.2-.8v-.5h1.2v.4c0 .2.1.4.2.6.1.2.4.3.7.3.2 0 .4 0 .5-.1.1-.1.2-.1.3-.3.1-.1.1-.2.1-.4v-.5-.6c0-.1 0-.3-.1-.3-.1-.1-.1-.2-.2-.2-.1-.1-.2-.1-.4-.2l-.9-.4c-.5-.2-.9-.5-1.1-.9-.2-.4-.3-.8-.3-1.3 0-.3 0-.6.1-.9.1-.3.2-.5.4-.7.2-.2.4-.4.6-.5.2-.1.6-.2.9-.2.3 0 .6.1.8.2.3.1.5.3.7.4.4.4.6.8.6 1.3v.6z"
       id="N560-4-PWR-FANpath108" /><path
       d="M124.3 152v-7.4h-1.4v-1.2h4.1v1.2h-1.4v7.4z"
       id="N560-4-PWR-FANpath110" /><path
       d="M126.3 152l1.9-8.5h1l1.9 8.5h-1.2l-.4-1.8h-1.7l-.4 1.8zm3-3l-.6-3.1-.6 3.1z"
       id="N560-4-PWR-FANpath112" /><path
       d="M131.9 152v-7.4h-1.4v-1.2h4.1v1.2h-1.4v7.4z"
       id="N560-4-PWR-FANpath114" /></g><g
     id="N560-4-PWR-FANg124"><path
       d="M113.1 130v-8.5h1.2l1.6 4.5 1.6-4.5h1.2v8.5h-1.2v-5.2l-1.2 3.7h-.6l-1.2-3.7v5.2z"
       id="N560-4-PWR-FANpath118" /><path
       d="M119.2 130l1.9-8.5h1l1.9 8.5h-1.2l-.4-1.8h-1.7l-.4 1.8zm3-3l-.6-3.1-.6 3.1z"
       id="N560-4-PWR-FANpath120" /><path
       d="M127.5 121.5v6.5c0 .6-.2 1.1-.6 1.5-.2.2-.4.3-.7.5-.3.2-.5.2-.9.2s-.7-.1-1-.3c-.3-.2-.5-.3-.6-.5l1-.8c.1.1.2.2.3.2.1.1.2.1.4.1h.3c.1 0 .2-.1.3-.2.1-.1.2-.2.2-.3.1-.1.1-.3.1-.5v-6.4z"
       id="N560-4-PWR-FANpath122" /></g><g
     id="N560-4-PWR-FANg142"><g
       id="N560-4-PWR-FANg130"><circle
         class="N560-4-PWR-FANst6"
         cx="100.5"
         cy="125.5"
         r="10"
         id="N560-4-PWR-FANcircle126"
         clip-rule="evenodd"
         fill="#333"
         fill-rule="evenodd" /><path
         class="N560-4-PWR-FANst3"
         d="M100.5 116c5.2 0 9.5 4.3 9.5 9.5s-4.3 9.5-9.5 9.5-9.5-4.3-9.5-9.5 4.3-9.5 9.5-9.5m0-1c-5.8 0-10.5 4.7-10.5 10.5s4.7 10.5 10.5 10.5 10.5-4.7 10.5-10.5-4.7-10.5-10.5-10.5z"
         id="N560-4-PWR-FANpath128"
         fill="gray" /></g><g
       id="N560-4-PWR-FANg136"><circle
         class="N560-4-PWR-FANst7"
         cx="100.5"
         cy="125.5"
         r="5"
         id="N560-4-PWR-FANcircle132"
         clip-rule="evenodd"
         fill="#ccc"
         fill-rule="evenodd" /><path
         class="N560-4-PWR-FANst3"
         d="M100.5 121c2.5 0 4.5 2 4.5 4.5s-2 4.5-4.5 4.5-4.5-2-4.5-4.5 2-4.5 4.5-4.5m0-1c-3 0-5.5 2.5-5.5 5.5s2.5 5.5 5.5 5.5 5.5-2.5 5.5-5.5-2.5-5.5-5.5-5.5z"
         id="N560-4-PWR-FANpath134"
         fill="gray" /></g><g
       id="N560-4-PWR-FANg140"><ellipse
         class="N560-4-PWR-FANst8"
         cx="100.5"
         cy="123.5"
         rx="2"
         ry="1"
         id="N560-4-PWR-FANellipse138"
         clip-rule="evenodd"
         fill="#f2f2f2"
         fill-rule="evenodd" /></g></g><g
     id="N560-4-PWR-FANg160"><g
       id="N560-4-PWR-FANg148"><circle
         class="N560-4-PWR-FANst6"
         cx="146.5"
         cy="147.5"
         r="10"
         id="N560-4-PWR-FANcircle144"
         clip-rule="evenodd"
         fill="#333"
         fill-rule="evenodd" /><path
         class="N560-4-PWR-FANst3"
         d="M146.5 138c5.2 0 9.5 4.3 9.5 9.5s-4.3 9.5-9.5 9.5-9.5-4.3-9.5-9.5 4.3-9.5 9.5-9.5m0-1c-5.8 0-10.5 4.7-10.5 10.5s4.7 10.5 10.5 10.5 10.5-4.7 10.5-10.5-4.7-10.5-10.5-10.5z"
         id="N560-4-PWR-FANpath146"
         fill="gray" /></g><g
       id="N560-4-PWR-FANg154"><circle
         class="N560-4-PWR-FANst7"
         cx="146.5"
         cy="147.5"
         r="5"
         id="N560-4-PWR-FANcircle150"
         clip-rule="evenodd"
         fill="#ccc"
         fill-rule="evenodd" /><path
         class="N560-4-PWR-FANst3"
         d="M146.5 143c2.5 0 4.5 2 4.5 4.5s-2 4.5-4.5 4.5-4.5-2-4.5-4.5 2-4.5 4.5-4.5m0-1c-3 0-5.5 2.5-5.5 5.5s2.5 5.5 5.5 5.5 5.5-2.5 5.5-5.5-2.5-5.5-5.5-5.5z"
         id="N560-4-PWR-FANpath152"
         fill="gray" /></g><g
       id="N560-4-PWR-FANg158"><ellipse
         class="N560-4-PWR-FANst8"
         cx="146.5"
         cy="145.5"
         rx="2"
         ry="1"
         id="N560-4-PWR-FANellipse156"
         clip-rule="evenodd"
         fill="#f2f2f2"
         fill-rule="evenodd" /></g></g><g
     id="N560-4-PWR-FANg168"><path
       d="M159.1 130v-8.5h3.6v1.2h-2.4v2.6h2.1v1.2h-2.1v3.6h-1.2z"
       id="N560-4-PWR-FANpath162" /><path
       d="M162.3 130l1.9-8.5h1l1.9 8.5H166l-.4-1.8h-1.7l-.4 1.8zm3.1-3l-.6-3.1-.6 3.1z"
       id="N560-4-PWR-FANpath164" /><path
       d="M167.7 130v-8.5h1.2l1.8 5.1v-5.1h1.2v8.5h-1.2l-1.9-5.1v5.1z"
       id="N560-4-PWR-FANpath166" /></g><g
     id="N560-4-PWR-FANg186"><g
       id="N560-4-PWR-FANg174"><circle
         class="N560-4-PWR-FANst6"
         cx="146.5"
         cy="125.5"
         r="10"
         id="N560-4-PWR-FANcircle170"
         clip-rule="evenodd"
         fill="#333"
         fill-rule="evenodd" /><path
         class="N560-4-PWR-FANst3"
         d="M146.5 116c5.2 0 9.5 4.3 9.5 9.5s-4.3 9.5-9.5 9.5-9.5-4.3-9.5-9.5 4.3-9.5 9.5-9.5m0-1c-5.8 0-10.5 4.7-10.5 10.5s4.7 10.5 10.5 10.5 10.5-4.7 10.5-10.5-4.7-10.5-10.5-10.5z"
         id="N560-4-PWR-FANpath172"
         fill="gray" /></g><g
       id="N560-4-PWR-FANg180"><circle
         class="N560-4-PWR-FANst7"
         cx="146.5"
         cy="125.5"
         r="5"
         id="N560-4-PWR-FANcircle176"
         clip-rule="evenodd"
         fill="#ccc"
         fill-rule="evenodd" /><path
         class="N560-4-PWR-FANst3"
         d="M146.5 121c2.5 0 4.5 2 4.5 4.5s-2 4.5-4.5 4.5-4.5-2-4.5-4.5 2-4.5 4.5-4.5m0-1c-3 0-5.5 2.5-5.5 5.5s2.5 5.5 5.5 5.5 5.5-2.5 5.5-5.5-2.5-5.5-5.5-5.5z"
         id="N560-4-PWR-FANpath178"
         fill="gray" /></g><g
       id="N560-4-PWR-FANg184"><ellipse
         class="N560-4-PWR-FANst8"
         cx="146.5"
         cy="123.5"
         rx="2"
         ry="1"
         id="N560-4-PWR-FANellipse182"
         clip-rule="evenodd"
         fill="#f2f2f2"
         fill-rule="evenodd" /></g></g><g
     id="N560-4-PWR-FANg230"><g
       id="N560-4-PWR-FANg222"><g
         id="N560-4-PWR-FANg220"><path
           id="N560-4-PWR-FANrect188"
           fill="#333"
           d="M60.5 44h64.9v58H60.5z" /><g
           id="N560-4-PWR-FANg218"><path
             d="M62.1 47.8c0-1.1.9-2 2-2h57.8c1.1 0 2 .9 2 2v50.3c0 1.1-.9 2-2 2H64c-1.1 0-2-.9-2-2z"
             id="N560-4-PWR-FANpath190"
             fill="#c2c2c2"
             stroke="#000"
             stroke-miterlimit="10" /><g
             id="N560-4-PWR-FANg216"><g
               id="N560-4-PWR-FANg196"><path
                 id="N560-4-PWR-FANpolygon192"
                 fill="#505050"
                 d="M106 85.7v5.9h-4.9v3.9H85.3v-3.9h-3.9v-5.9H69.6V59.2h47.2v26.5z" /><path
                 d="M85.8 95v-3.9h-3.9v-5.9H70.1V59.7h46.2v25.5h-10.8v5.9h-4.9V95H85.8m-1 5h16.8v-7.9h4.9v-5.9h10.8V46H69.1v40.2h11.8v5.9h3.9V96z"
                 id="N560-4-PWR-FANpath194" /></g><g
               id="N560-4-PWR-FANg214"><path
                 class="N560-4-PWR-FANst12"
                 id="N560-4-PWR-FANline198"
                 fill="none"
                 stroke="#fff"
                 stroke-linecap="square"
                 stroke-miterlimit="10"
                 d="M106.5 55.6v10.8" /><path
                 class="N560-4-PWR-FANst12"
                 id="N560-4-PWR-FANline200"
                 fill="none"
                 stroke="#fff"
                 stroke-linecap="square"
                 stroke-miterlimit="10"
                 d="M102.5 55.6v10.8" /><path
                 class="N560-4-PWR-FANst12"
                 id="N560-4-PWR-FANline202"
                 fill="none"
                 stroke="#fff"
                 stroke-linecap="square"
                 stroke-miterlimit="10"
                 d="M98.6 55.6v10.8" /><path
                 class="N560-4-PWR-FANst12"
                 id="N560-4-PWR-FANline204"
                 fill="none"
                 stroke="#fff"
                 stroke-linecap="square"
                 stroke-miterlimit="10"
                 d="M94.7 55.6v10.8" /><path
                 class="N560-4-PWR-FANst12"
                 id="N560-4-PWR-FANline206"
                 fill="none"
                 stroke="#fff"
                 stroke-linecap="square"
                 stroke-miterlimit="10"
                 d="M90.7 55.6v10.8" /><path
                 class="N560-4-PWR-FANst12"
                 id="N560-4-PWR-FANline208"
                 fill="none"
                 stroke="#fff"
                 stroke-linecap="square"
                 stroke-miterlimit="10"
                 d="M86.8 55.6v10.8" /><path
                 class="N560-4-PWR-FANst12"
                 id="N560-4-PWR-FANline210"
                 fill="none"
                 stroke="#fff"
                 stroke-linecap="square"
                 stroke-miterlimit="10"
                 d="M82.9 55.6v10.8" /><path
                 class="N560-4-PWR-FANst12"
                 id="N560-4-PWR-FANline212"
                 fill="none"
                 stroke="#fff"
                 stroke-linecap="square"
                 stroke-miterlimit="10"
                 d="M79 55.6v10.8" /></g></g></g></g></g><g
       id="N560-4-PWR-FANg228"><path
         class="N560-4-PWR-FANst4"
         id="N560-4-PWR-FANrect224"
         fill="#e6e6e6"
         d="M69.5 47.5h47v5h-47z" /><path
         class="N560-4-PWR-FANst3"
         d="M116 48v4H70v-4h46m1-1H69v6h48z"
         id="N560-4-PWR-FANpath226"
         fill="gray" /></g></g><g
     id="N560-4-PWR-FANg236"><path
       class="N560-4-PWR-FANst4"
       d="M208 117.5c-5.2 0-9.5-4.3-9.5-9.5V21c0-5.2 4.3-9.5 9.5-9.5h18c5.2 0 9.5 4.3 9.5 9.5v87c0 5.2-4.3 9.5-9.5 9.5z"
       id="N560-4-PWR-FANpath232"
       fill="#e6e6e6" /><path
       class="N560-4-PWR-FANst13"
       d="M226 12c5 0 9 4 9 9v87c0 5-4 9-9 9h-18c-5 0-9-4-9-9V21c0-5 4-9 9-9h18m0-1h-18c-5.5 0-10 4.5-10 10v87c0 5.5 4.5 10 10 10h18c5.5 0 10-4.5 10-10V21c0-5.5-4.5-10-10-10z"
       id="N560-4-PWR-FANpath234"
       fill="#666" /></g><g
     id="N560-4-PWR-FANg256"><g
       id="N560-4-PWR-FANg242"><circle
         class="N560-4-PWR-FANst0"
         cx="264.9"
         cy="71.9"
         r="12.5"
         id="N560-4-PWR-FANcircle238"
         fill="#b3b3b3" /><path
         class="N560-4-PWR-FANst13"
         d="M264.9 59.9c6.6 0 12 5.4 12 12s-5.4 12-12 12-12-5.4-12-12 5.4-12 12-12m0-1c-7.2 0-13 5.8-13 13s5.8 13 13 13 13-5.8 13-13-5.8-13-13-13z"
         id="N560-4-PWR-FANpath240"
         fill="#666" /></g><g
       id="N560-4-PWR-FANg248"><circle
         class="N560-4-PWR-FANst2"
         cx="264.9"
         cy="71.9"
         r="10.5"
         id="N560-4-PWR-FANcircle244"
         fill="#ccc" /><path
         class="N560-4-PWR-FANst13"
         d="M264.9 61.9c5.5 0 10 4.5 10 10s-4.5 10-10 10-10-4.5-10-10 4.5-10 10-10m0-1c-6.1 0-11 4.9-11 11s4.9 11 11 11 11-4.9 11-11-4.9-11-11-11z"
         id="N560-4-PWR-FANpath246"
         fill="#666" /></g><g
       id="N560-4-PWR-FANg254"><path
         class="N560-4-PWR-FANst4"
         d="M263.1 77.9v-4.6c0-.3-.2-.5-.5-.5h-9.2V71h9.2c.3 0 .5-.2.5-.5v-4.6h3.6v4.6c0 .3.2.5.5.5h9.2v1.8h-9.2c-.3 0-.5.2-.5.5v4.6z"
         id="N560-4-PWR-FANpath250"
         fill="#e6e6e6" /><path
         class="N560-4-PWR-FANst13"
         d="M266.3 66.4v4.1c0 .6.4 1 1 1h8.8v.8h-8.8c-.6 0-1 .4-1 1v4.1h-2.6v-4.1c0-.6-.4-1-1-1h-8.8v-.8h8.8c.6 0 1-.4 1-1v-4.1h2.6m1-1h-4.6v5.1h-9.8v2.8h9.8v5.1h4.6v-5.1h9.8v-2.8h-9.8z"
         id="N560-4-PWR-FANpath252"
         fill="#666" /></g></g><text
     xml:space="preserve"
     style="font-style:normal;font-weight:normal;font-size:40px;line-height:1.25;font-family:sans-serif;fill:#000000;fill-opacity:1;stroke:none"
     x="172.77551"
     y="94.020409"
     id="text139"><tspan
       sodipodi:role="line"
       id="tspan137"
       x="172.77551"
       y="94.020409" /></text></svg>
