<?xml version="1.0" encoding="UTF-8" standalone="no"?>
<svg
   xmlns:dc="http://purl.org/dc/elements/1.1/"
   xmlns:cc="http://creativecommons.org/ns#"
   xmlns:rdf="http://www.w3.org/1999/02/22-rdf-syntax-ns#"
   xmlns:svg="http://www.w3.org/2000/svg"
   xmlns="http://www.w3.org/2000/svg"
   xmlns:sodipodi="http://sodipodi.sourceforge.net/DTD/sodipodi-0.dtd"
   xmlns:inkscape="http://www.inkscape.org/namespaces/inkscape"
   version="1.1"
   id="NCS560-FILLER-PTLayer_1"
   x="0"
   y="0"
   viewBox="0 0 435.96439 122.89986"
   xml:space="preserve"
   width="435.96436"
   height="122.89986"
   sodipodi:docname="NCS560-FILLER-PT.svg"
   inkscape:version="0.92.1 r15371"><metadata
     id="metadata33"><rdf:RDF><cc:Work
         rdf:about=""><dc:format>image/svg+xml</dc:format><dc:type
           rdf:resource="http://purl.org/dc/dcmitype/StillImage" /><dc:title></dc:title></cc:Work></rdf:RDF></metadata><defs
     id="defs31" /><sodipodi:namedview
     pagecolor="#ffffff"
     bordercolor="#666666"
     borderopacity="1"
     objecttolerance="10"
     gridtolerance="10"
     guidetolerance="10"
     inkscape:pageopacity="0"
     inkscape:pageshadow="2"
     inkscape:window-width="2560"
     inkscape:window-height="1315"
     id="namedview29"
     showgrid="false"
     inkscape:zoom="5.4591619"
     inkscape:cx="217.98218"
     inkscape:cy="61.449927"
     inkscape:window-x="-13"
     inkscape:window-y="-13"
     inkscape:window-maximized="1"
     inkscape:current-layer="NCS560-FILLER-PTLayer_1"
     fit-margin-top="0"
     fit-margin-left="0"
     fit-margin-right="0"
     fit-margin-bottom="0" /><style
     type="text/css"
     id="NCS560-FILLER-PTstyle3" /><g
     id="NCS560-FILLER-PTg5"
     transform="matrix(1.00207,0,0,1.00903,-0.501035,-0.504515)"><g
       id="NCS560-FILLER-PTg7"><path
         class="st0"
         d="m 360.5,121.9 c 0,-1.2 -0.3,-2.3 -0.7,-3.3 -0.1,-0.2 -0.3,-0.3 -0.4,-0.3 h -13.7 c -0.2,0 -0.3,0.1 -0.4,0.2 -0.6,1 -0.9,2.1 -0.9,3.3 H 96.2 c 0,-1.1 -0.2,-2.2 -0.7,-3.2 -0.1,-0.2 -0.3,-0.3 -0.4,-0.3 H 81.3 c -0.2,0 -0.3,0.1 -0.4,0.2 -0.6,0.9 -0.9,2.1 -0.8,3.3 H 35.8 c -3.4,0 -6.2,-2.9 -6.5,-6.7 0,-0.3 -0.2,-0.5 -0.5,-0.5 H 15.7 C 10.8,109.7 5.9,104.1 1,97.9 V 85.5 c 0.8,-4.6 4.2,-8.2 8.3,-8.7 h 20.1 c 0.3,0 0.5,-0.2 0.5,-0.5 V 6.8 C 29.9,3.6 32.2,1 35.1,1 H 401 c 2.4,0 4.4,2.2 4.5,5 0,0.3 0.2,0.5 0.5,0.5 l 21.8,0.2 c 4.4,0.6 7.6,4.8 7.1,9.3 v 19.2 c 0.6,4.9 -3,9.4 -7.9,10.2 h -21 c -0.3,0 -0.5,0.2 -0.5,0.5 V 115 c 0.1,3.7 -2.5,6.8 -5.7,7 h -39.3 z"
         id="NCS560-FILLER-PTpath9"
         inkscape:connector-curvature="0"
         style="clip-rule:evenodd;fill:#eeeded;fill-rule:evenodd" /><path
         class="st1"
         d="m 401.1,1.5 c 2.2,0 3.9,2 4,4.5 0,0.5 0.5,1 1,1 l 21.7,0.2 c 4.2,0.6 7.2,4.6 6.7,8.8 v 19.3 c 0.5,4.6 -2.8,8.8 -7.4,9.5 h -21 c -0.6,0 -1,0.4 -1,1 v 69.1 c 0.1,3.4 -2.3,6.3 -5.2,6.5 H 361 c -0.1,-1.1 -0.3,-2.1 -0.8,-3 -0.2,-0.3 -0.5,-0.6 -0.9,-0.6 h -13.7 c -0.3,0 -0.7,0.2 -0.9,0.5 -0.6,0.9 -0.9,2 -0.9,3.1 H 96.7 c 0,-1 -0.3,-2 -0.8,-2.9 -0.2,-0.3 -0.5,-0.6 -0.9,-0.6 H 81.3 c -0.3,0 -0.6,0.2 -0.8,0.4 -0.6,0.9 -0.9,1.9 -0.9,3 H 35.8 c -3.1,0 -5.7,-2.7 -6,-6.2 0,-0.5 -0.5,-0.9 -1,-0.9 H 15.9 C 11.1,109.4 6.3,103.9 1.5,97.9 V 85.6 c 0.8,-4.4 4,-7.8 7.8,-8.3 h 20.1 c 0.6,0 1,-0.4 1,-1 V 6.8 c 0,-2.9 2.1,-5.3 4.7,-5.3 h 366 m 0,-1 H 35.1 C 32,0.5 29.4,3.3 29.4,6.8 V 76.2 H 9.3 c -4.4,0.5 -7.9,4.3 -8.8,9.2 v 12.8 c 4.7,6 9.7,11.7 15,17 h 13.3 c 0.4,4 3.4,7.1 7,7.1 h 44.8 c -0.2,-1.2 0,-2.5 0.7,-3.5 H 95 c 0.5,1.1 0.8,2.3 0.6,3.5 h 249.2 c -0.2,-1.3 0.2,-2.6 0.8,-3.6 h 13.7 c 0.5,1.1 0.8,2.3 0.7,3.6 h 39.9 c 3.5,-0.2 6.3,-3.5 6.2,-7.5 v -69 h 21.1 c 5.2,-0.8 8.9,-5.5 8.3,-10.7 v -19 C 436,11.3 432.6,6.9 427.9,6.2 L 406,6 c 0,-3.1 -2.2,-5.5 -4.9,-5.5 z"
         id="NCS560-FILLER-PTpath11"
         inkscape:connector-curvature="0"
         style="fill:#808080" /></g><g
       id="NCS560-FILLER-PTg13"><path
         class="st2"
         d="m 38,118.7 c -2.3,0 -4.6,-1.7 -4.6,-4.8 V 9.3 c 0,-2.9 2.3,-5.6 4.6,-5.6 h 359.6 c 2.5,0 4.8,2.7 4.8,5.6 v 104.6 c 0,3.1 -2.5,4.8 -4.8,4.8 z"
         id="NCS560-FILLER-PTpath15"
         inkscape:connector-curvature="0"
         style="clip-rule:evenodd;fill:#bfbebe;fill-rule:evenodd" /><path
         class="st1"
         d="m 397.6,4.7 c 2.2,0 3.8,2 3.8,4.6 v 104.6 c 0,2.8 -1.7,4.8 -3.8,4.8 H 38 c -2,0 -4.6,-2 -4.6,-4.8 V 9.3 C 33.4,6.7 36,4.7 38,4.7 h 359.4 m 0.2,-1 H 38 c -2.7,0 -5.6,2.5 -5.6,5.6 v 104.6 c 0,3.2 2.9,5.8 5.6,5.8 h 359.6 c 2.8,0 4.8,-2.6 4.8,-5.8 V 9.3 c 0,-3.1 -2,-5.6 -4.8,-5.6 z"
         id="NCS560-FILLER-PTpath17"
         inkscape:connector-curvature="0"
         style="fill:#808080" /></g><g
       id="NCS560-FILLER-PTg19"><path
         class="st3"
         d="m 24.1,91.4 c 0,-5.3 -4.5,-8.8 -10,-8.8 -5.5,0 -10,3.4 -10,8.8 0,5.8 4.5,10.2 10,10.2 5.5,0 10,-4.4 10,-10.2 z"
         id="NCS560-FILLER-PTpath21"
         inkscape:connector-curvature="0"
         style="clip-rule:evenodd;fill:#dddddc;fill-rule:evenodd" /><g
         id="NCS560-FILLER-PTg23"><g
           id="NCS560-FILLER-PTg25"><path
             class="st4"
             d="M 13.8,101.7 C 8.4,101.7 4,97 4,91.3 c 0,-5.6 4.2,-8.8 9.8,-8.8 5.8,0 10.5,3.4 10.5,8.8 0,5.5 -4.9,10.4 -10.5,10.4 z m 0,-18.7 c -5.3,0 -9.3,3 -9.3,8.3 0,5.5 4.2,10 9.3,10 5.3,0 10,-4.7 10,-10 0,-5.2 -4.5,-8.3 -10,-8.3 z"
             id="NCS560-FILLER-PTpath27"
             inkscape:connector-curvature="0"
             style="fill:#a4a4a4" /></g><g
           id="NCS560-FILLER-PTg29"><path
             class="st4"
             id="NCS560-FILLER-PTrect31"
             d="m 7.2,90.5 h 13.9 v 2.3 H 7.2 Z"
             inkscape:connector-curvature="0"
             style="fill:#a4a4a4" /></g><g
           id="NCS560-FILLER-PTg33"><path
             class="st4"
             id="NCS560-FILLER-PTrect35"
             d="m 13,85.7 h 2.3 V 98.6 H 13 Z"
             inkscape:connector-curvature="0"
             style="fill:#a4a4a4" /></g></g></g><g
       id="NCS560-FILLER-PTg37"><path
         class="st3"
         d="m 430.9,26.3 c 0,-5.3 -4.5,-9.8 -10,-9.8 -5.5,0 -10,4.4 -10,9.8 0,5.8 4.5,9.2 10,9.2 5.4,0.1 10,-3.4 10,-9.2 z"
         id="NCS560-FILLER-PTpath39"
         inkscape:connector-curvature="0"
         style="clip-rule:evenodd;fill:#dddddc;fill-rule:evenodd" /><g
         id="NCS560-FILLER-PTg41"><g
           id="NCS560-FILLER-PTg43"><path
             class="st4"
             d="m 420.5,35.7 c -5.4,0 -9.8,-3.7 -9.8,-9.5 0,-5.6 4.2,-9.8 9.8,-9.8 5.8,0 10.5,4.4 10.5,9.8 0,5.6 -4.9,9.5 -10.5,9.5 z m 0,-18.8 c -5.3,0 -9.3,4 -9.3,9.3 0,5.5 4.2,9 9.3,9 5.3,0 10,-3.7 10,-9 0,-5.1 -4.5,-9.3 -10,-9.3 z"
             id="NCS560-FILLER-PTpath45"
             inkscape:connector-curvature="0"
             style="fill:#a4a4a4" /></g><g
           id="NCS560-FILLER-PTg47"><path
             class="st4"
             id="NCS560-FILLER-PTrect49"
             d="m 414.4,25.7 h 13 v 1 h -13 z"
             inkscape:connector-curvature="0"
             style="fill:#a4a4a4" /></g><g
           id="NCS560-FILLER-PTg51"><path
             class="st4"
             id="NCS560-FILLER-PTrect53"
             d="m 419.4,19.7 h 3 v 13 h -3 z"
             inkscape:connector-curvature="0"
             style="fill:#a4a4a4" /></g></g></g></g><text
     xml:space="preserve"
     style="font-style:normal;font-weight:normal;font-size:40px;line-height:1.25;font-family:sans-serif;fill:#000000;fill-opacity:1;stroke:none"
     x="127.19099"
     y="90.791451"
     id="text37"><tspan
       sodipodi:role="line"
       id="tspan35"
       x="127.19099"
       y="127.28466" /></text>
</svg>