<?xml version="1.0" encoding="UTF-8" standalone="no"?>
<svg
   xmlns:dc="http://purl.org/dc/elements/1.1/"
   xmlns:cc="http://creativecommons.org/ns#"
   xmlns:rdf="http://www.w3.org/1999/02/22-rdf-syntax-ns#"
   xmlns:svg="http://www.w3.org/2000/svg"
   xmlns="http://www.w3.org/2000/svg"
   xmlns:sodipodi="http://sodipodi.sourceforge.net/DTD/sodipodi-0.dtd"
   xmlns:inkscape="http://www.inkscape.org/namespaces/inkscape"
   version="1.1"
   id="NCS560-FILLER-LCLayer_1"
   x="0"
   y="0"
   viewBox="0 0 579.90002 77.099998"
   xml:space="preserve"
   width="579.9"
   height="77.1"
   sodipodi:docname="NCS560-FILLER-LC.svg"
   inkscape:version="1.0.1 (3bc2e813f5, 2020-09-07)"><metadata
     id="metadata30"><rdf:RDF><cc:Work
         rdf:about=""><dc:format>image/svg+xml</dc:format><dc:type
           rdf:resource="http://purl.org/dc/dcmitype/StillImage" /></cc:Work></rdf:RDF></metadata><defs
     id="defs28" /><sodipodi:namedview
     pagecolor="#ffffff"
     bordercolor="#666666"
     borderopacity="1"
     objecttolerance="10"
     gridtolerance="10"
     guidetolerance="10"
     inkscape:pageopacity="0"
     inkscape:pageshadow="2"
     inkscape:window-width="1280"
     inkscape:window-height="658"
     id="namedview26"
     showgrid="false"
     inkscape:zoom="1.7968615"
     inkscape:cx="289.95001"
     inkscape:cy="38.549999"
     inkscape:window-x="-6"
     inkscape:window-y="-6"
     inkscape:window-maximized="1"
     inkscape:current-layer="NCS560-FILLER-LCLayer_1" /><style
     type="text/css"
     id="NCS560-FILLER-LCstyle3">.NCS560-FILLER-LC-st1{fill-rule:evenodd;clip-rule:evenodd;fill:#d8d8d8;stroke:#a5a5a5;stroke-width:.24;stroke-linecap:round;stroke-linejoin:round;stroke-miterlimit:3}.NCS560-FILLER-LC-st2{fill-rule:evenodd;clip-rule:evenodd;fill:#ddd}.NCS560-FILLER-LC-st3{fill:#a5a5a5}</style><g
     id="NCS560-FILLER-LCg5"><path
       d="M6.2.5l567.6.2c3.1 0 5.6 2.6 5.6 5.9l-.1 64.1c0 3.2-2.5 5.9-5.6 5.9L6.1 76.3C3 76.3.5 73.6.5 70.4l.1-64C.6 3.2 3.1.5 6.2.5h0z"
       id="NCS560-FILLER-LCpath7"
       clip-rule="evenodd"
       fill="#bfbfbf"
       fill-rule="evenodd"
       stroke="gray"
       stroke-linecap="round"
       stroke-linejoin="round"
       stroke-miterlimit="3" /><path
       class="NCS560-FILLER-LC-st1"
       d="M.6 23h12c7.7-.1 14.1 6.3 14.1 14.3 0 7.9-6.4 14.4-14.1 14.3H.6V23h0z"
       id="NCS560-FILLER-LCpath9"
       clip-rule="evenodd"
       fill="#d8d8d8"
       fill-rule="evenodd"
       stroke="#a5a5a5"
       stroke-width=".24"
       stroke-linecap="round"
       stroke-linejoin="round"
       stroke-miterlimit="3" /><path
       class="NCS560-FILLER-LC-st1"
       d="M579.4 23h-12c-7.7-.1-14.1 6.3-14.1 14.3 0 7.9 6.4 14.4 14.1 14.3h12V23h0z"
       id="NCS560-FILLER-LCpath11"
       clip-rule="evenodd"
       fill="#d8d8d8"
       fill-rule="evenodd"
       stroke="#a5a5a5"
       stroke-width=".24"
       stroke-linecap="round"
       stroke-linejoin="round"
       stroke-miterlimit="3" /><g
       id="NCS560-FILLER-LCg13"><path
         class="NCS560-FILLER-LC-st2"
         d="M23.2 37.2c0-5.3-4.5-9.7-10-9.7s-10 4.4-10 9.7c0 5.8 4.5 10.2 10 10.2s10-4.5 10-10.2z"
         id="NCS560-FILLER-LCpath15"
         clip-rule="evenodd"
         fill="#ddd"
         fill-rule="evenodd" /><g
         id="NCS560-FILLER-LCg17"><g
           id="NCS560-FILLER-LCg19"><path
             class="NCS560-FILLER-LC-st3"
             d="M12.9 47.4c-5.4 0-9.7-4.7-9.7-10.4 0-5.5 4.2-9.7 9.7-9.7 5.7 0 10.4 4.4 10.4 9.7 0 5.6-4.8 10.4-10.4 10.4zm0-19.6c-5.3 0-9.3 4-9.3 9.3 0 5.5 4.2 10 9.3 10 5.3 0 10-4.7 10-10 0-5.2-4.5-9.3-10-9.3z"
             id="NCS560-FILLER-LCpath21"
             fill="#a5a5a5" /></g><g
           id="NCS560-FILLER-LCg23"><path
             class="NCS560-FILLER-LC-st3"
             id="NCS560-FILLER-LCrect25"
             fill="#a5a5a5"
             d="M6.4 36.2h13.8v2.3H6.4z" /></g><g
           id="NCS560-FILLER-LCg27"><path
             class="NCS560-FILLER-LC-st3"
             id="NCS560-FILLER-LCrect29"
             fill="#a5a5a5"
             d="M12.1 30.5h2.3v13.8h-2.3z" /></g></g></g><g
       id="NCS560-FILLER-LCg31"><path
         class="NCS560-FILLER-LC-st2"
         d="M576.8 37.2c0-5.3-4.5-9.7-10-9.7-5.4 0-10 4.4-10 9.7 0 5.8 4.5 10.2 10 10.2 5.5-.1 10-4.5 10-10.2z"
         id="NCS560-FILLER-LCpath33"
         clip-rule="evenodd"
         fill="#ddd"
         fill-rule="evenodd" /><g
         id="NCS560-FILLER-LCg35"><g
           id="NCS560-FILLER-LCg37"><path
             class="NCS560-FILLER-LC-st3"
             d="M566.5 47.4c-5.4 0-9.7-4.7-9.7-10.4 0-5.5 4.2-9.7 9.7-9.7 5.7 0 10.4 4.4 10.4 9.7 0 5.6-4.8 10.4-10.4 10.4zm0-19.6c-5.3 0-9.3 4-9.3 9.3 0 5.5 4.2 10 9.3 10 5.3 0 10-4.7 10-10 0-5.2-4.5-9.3-10-9.3z"
             id="NCS560-FILLER-LCpath39"
             fill="#a5a5a5" /></g><g
           id="NCS560-FILLER-LCg41"><path
             class="NCS560-FILLER-LC-st3"
             id="NCS560-FILLER-LCrect43"
             fill="#a5a5a5"
             d="M560 36.2h13.8v2.3H560z" /></g><g
           id="NCS560-FILLER-LCg45"><path
             class="NCS560-FILLER-LC-st3"
             id="NCS560-FILLER-LCrect47"
             fill="#a5a5a5"
             d="M565.7 30.5h2.3v13.8h-2.3z" /></g></g></g></g><text
     xml:space="preserve"
     style="font-style:normal;font-weight:normal;font-size:40px;line-height:1.25;font-family:sans-serif;fill:#000000;fill-opacity:1;stroke:none"
     x="125.21834"
     y="61.77438"
     id="text34"><tspan
       sodipodi:role="line"
       id="tspan32"
       x="125.21834"
       y="61.77438" /></text></svg>
