<?xml version="1.0" encoding="UTF-8" standalone="no"?>
<svg
   xmlns:dc="http://purl.org/dc/elements/1.1/"
   xmlns:cc="http://creativecommons.org/ns#"
   xmlns:rdf="http://www.w3.org/1999/02/22-rdf-syntax-ns#"
   xmlns:svg="http://www.w3.org/2000/svg"
   xmlns="http://www.w3.org/2000/svg"
   xmlns:sodipodi="http://sodipodi.sourceforge.net/DTD/sodipodi-0.dtd"
   xmlns:inkscape="http://www.inkscape.org/namespaces/inkscape"
   version="1.1"
   id="QSFPLayer_1"
   x="0"
   y="0"
   viewBox="0 0 69 33"
   xml:space="preserve"
   width="69"
   height="33"
   sodipodi:docname="QSFP.svg"
   inkscape:version="1.0.1 (3bc2e813f5, 2020-09-07)"><metadata
     id="metadata50"><rdf:RDF><cc:Work
         rdf:about=""><dc:format>image/svg+xml</dc:format><dc:type
           rdf:resource="http://purl.org/dc/dcmitype/StillImage" /></cc:Work></rdf:RDF></metadata><defs
     id="defs48" /><sodipodi:namedview
     pagecolor="#ffffff"
     bordercolor="#666666"
     borderopacity="1"
     objecttolerance="10"
     gridtolerance="10"
     guidetolerance="10"
     inkscape:pageopacity="0"
     inkscape:pageshadow="2"
     inkscape:window-width="1280"
     inkscape:window-height="658"
     id="namedview46"
     showgrid="false"
     inkscape:zoom="14.848485"
     inkscape:cx="34.5"
     inkscape:cy="-0.87551065"
     inkscape:window-x="-6"
     inkscape:window-y="-6"
     inkscape:window-maximized="1"
     inkscape:current-layer="QSFPLayer_1" /><style
     type="text/css"
     id="QSFPstyle2">.QSFPst2{fill:#333}.QSFPst3{fill:#b3b3b3}.QSFPst4{fill:#999}.QSFPst5{fill:gray}.QSFPst7{fill:#ccc}.QSFPst8{fill:#666}</style><g
     id="QSFPg86"
     transform="scale(.88462 .61111)"><g
       id="QSFPg8"><path
         d="M2.1 53.5v-6.3l-.3-.2C1 46.7.5 45.9.5 45.1c0-.8.5-1.6 1.3-1.9l.3-.2V4.2c0-2 1.7-3.7 3.7-3.7h66.4c2 0 3.7 1.7 3.7 3.7V43l.3.1c.8.3 1.3 1.1 1.3 2 0 .9-.5 1.6-1.3 2l-.3.1v6.3z"
         id="QSFPpath4"
         fill="#4d4d4d" /><path
         d="M72.2 1c1.8 0 3.2 1.4 3.2 3.2v39.2l.6.3c.6.3 1 .8 1 1.5 0 .6-.4 1.2-1 1.5l-.6.3v6H2.6v-6.2l-.6-.2c-.6-.3-1-.8-1-1.5 0-.6.4-1.2 1-1.5l.6-.3V4.2C2.6 2.4 4 1 5.8 1h66.4m0-1H5.8C3.5 0 1.6 1.9 1.6 4.2v38.5C.7 43.1 0 44 0 45.1c0 1.1.7 2 1.6 2.4V54h74.8v-6.5c.9-.4 1.6-1.3 1.6-2.4 0-1.1-.7-2-1.6-2.4V4.2c0-2.3-1.9-4.2-4.2-4.2z"
         id="QSFPpath6"
         fill="#1a1a1a" /></g><g
       id="QSFPg12"><path
         class="QSFPst2"
         id="QSFPrect10"
         fill="#333"
         d="M5.8 2.4h66.4V51H5.8z" /></g><g
       id="QSFPg18"><path
         class="QSFPst3"
         d="M12.1 37c-.4 0-.8-.4-.8-.8V5.6c0-.4.4-.8.8-.8h53.7c.4 0 .8.4.8.8v30.6c0 .4-.4.8-.8.8z"
         id="QSFPpath14"
         fill="#b3b3b3" /><path
         class="QSFPst2"
         d="M65.9 5.1c.3 0 .5.2.5.5v30.6c0 .3-.2.5-.5.5H12.1c-.3 0-.5-.2-.5-.5V5.6c0-.3.2-.5.5-.5h53.8m0-.5H12.1c-.6 0-1.1.5-1.1 1.1v30.6c0 .6.5 1.1 1.1 1.1h53.7c.6 0 1.1-.5 1.1-1.1V5.6c0-.5-.4-1-1-1z"
         id="QSFPpath16"
         data-cv-id="PORT-0"
         fill="#333" /></g><g
       id="QSFPg24"><path
         class="QSFPst3"
         d="M5.8 52.6V28.3c0-.4.4-.8.8-.8H7v21.2c0 1.7 1.4 3.1 3.1 3.1h58c1.7 0 3.1-1.4 3.1-3.1V27.5h.4c.4 0 .8.4.8.8v24.4H5.8z"
         id="QSFPpath20"
         fill="#b3b3b3" /><path
         class="QSFPst4"
         d="M71.4 27.7c.3 0 .5.2.5.5v24.1H6.1v-24c0-.3.2-.5.5-.5h.1v21c0 1.8 1.5 3.3 3.3 3.3h58c1.8 0 3.3-1.5 3.3-3.3l.1-21.1m0-.5h-.6v21.5c0 1.5-1.2 2.8-2.8 2.8H10c-1.5 0-2.8-1.2-2.8-2.8V27.2h-.6c-.6 0-1.1.5-1.1 1.1v24.6h66.9V28.3c.1-.6-.4-1.1-1-1.1z"
         id="QSFPpath22"
         fill="#999" /></g><g
       id="QSFPg30"><path
         class="QSFPst5"
         d="M23.5 30.7c-1.2 0-2.1-.9-2.1-2.1v-.3l-.3-.1h-8.7V11.9h9v-.3c0-1.2.9-2.2 2.1-2.2h8.4V6.2h14.2v3.2h8.4c1.2 0 2.1.9 2.1 2.1v.3l.3.1h8.7v16.3h-9v.3c0 1.2-.9 2.2-2.1 2.2z"
         id="QSFPpath26"
         fill="gray" /><path
         class="QSFPst2"
         d="M45.8 6.5v3.2h8.7c1 0 1.8.8 1.8 1.8v.6h8.9V28h-8.9v.6c0 1-.8 1.8-1.8 1.8h-31c-1 0-1.8-.8-1.8-1.8V28h-8.9V12.2h8.9v-.5-.1c0-1 .8-1.8 1.8-1.8h8.7V6.5h13.6m.6-.5H31.6v3.2h-8.2c-1.3 0-2.4 1.1-2.4 2.4v.1h-9v16.9h9v.1c0 1.3 1.1 2.4 2.4 2.4h31.1c1.3 0 2.4-1.1 2.4-2.4v-.1h9v-17h-9v-.1c0-1.3-1.1-2.4-2.4-2.4h-8.2V6z"
         id="QSFPpath28"
         fill="#333" /></g><g
       id="QSFPg36"><path
         class="QSFPst3"
         d="M9 50.8c-.7 0-1.3-.6-1.3-1.3V29h1.1v7.1c0 1.6 1.3 2.9 2.9 2.9h54.8c1.6 0 2.9-1.3 2.9-2.9V29h1.1v20.4c0 .7-.6 1.3-1.3 1.3H9z"
         id="QSFPpath32"
         fill="#b3b3b3" /><path
         d="M70.1 29.3v20.2c0 .6-.5 1.1-1.1 1.1H9c-.6 0-1.1-.5-1.1-1.1V29.3h.5v6.8c0 1.7 1.4 3.2 3.2 3.2h54.8c1.7 0 3.2-1.4 3.2-3.2v-6.8h.5m.5-.6H69V36c0 1.5-1.2 2.6-2.6 2.6H11.6C10.1 38.6 9 37.4 9 36v-7.3H7.4v20.7c0 .9.7 1.6 1.6 1.6h60c.9 0 1.6-.7 1.6-1.6z"
         id="QSFPpath34"
         fill="#e6e6e6" /></g><g
       id="QSFPg56"><g
         id="QSFPg42"><circle
           class="QSFPst7"
           cx="29.6"
           cy="19.6"
           r="1.3"
           id="QSFPcircle38"
           fill="#ccc" /><path
           class="QSFPst8"
           d="M29.6 18.6c.6 0 1.1.5 1.1 1.1 0 .6-.5 1.1-1.1 1.1-.6 0-1.1-.5-1.1-1.1 0-.6.5-1.1 1.1-1.1m0-.5c-.9 0-1.6.7-1.6 1.6 0 .9.7 1.6 1.6 1.6.9 0 1.6-.7 1.6-1.6 0-.9-.8-1.6-1.6-1.6z"
           id="QSFPpath40"
           fill="#666" /></g><g
         id="QSFPg48"><circle
           class="QSFPst7"
           cx="48.4"
           cy="19.6"
           r="1.3"
           id="QSFPcircle44"
           fill="#ccc" /><path
           class="QSFPst8"
           d="M48.4 18.6c.6 0 1.1.5 1.1 1.1 0 .6-.5 1.1-1.1 1.1-.6 0-1.1-.5-1.1-1.1.1-.6.6-1.1 1.1-1.1m0-.5c-.9 0-1.6.7-1.6 1.6 0 .9.7 1.6 1.6 1.6.9 0 1.6-.7 1.6-1.6 0-.9-.7-1.6-1.6-1.6z"
           id="QSFPpath46"
           fill="#666" /></g><g
         id="QSFPg54"><path
           class="QSFPst2"
           id="QSFPrect50"
           fill="#333"
           d="M32.9 18.8H45v1.6H32.9z" /><path
           class="QSFPst4"
           d="M44.8 19.1v1.1H33.2v-1.1h11.6m.5-.5H32.7v2.1h12.6z"
           id="QSFPpath52"
           fill="#999" /></g></g><g
       id="QSFPg70"><g
         id="QSFPg62"><path
           class="QSFPst3"
           d="M19.6 25.5c-.9.1-1.7.3-2.6.4-.6-3.8-.6-7.6 0-11.4.9.1 1.7.3 2.6.4-.5 3.5-.5 7.1 0 10.6z"
           id="QSFPpath58"
           fill="#b3b3b3" /><path
           class="QSFPst2"
           d="M17.4 15.1l.7.1.9.1c-.5 3.2-.5 6.5 0 9.7l-1.6.2c-.4-3.3-.4-6.7 0-10.1m-.4-.6c-.6 3.8-.6 7.6 0 11.4.9-.1 1.7-.3 2.6-.4-.6-3.5-.6-7 0-10.5-.9-.2-1.7-.4-2.6-.5z"
           id="QSFPpath60"
           fill="#333" /></g><g
         id="QSFPg68"><path
           class="QSFPst3"
           d="M58.4 14.9c.9-.1 1.7-.3 2.6-.4.6 3.8.6 7.6 0 11.4-.9-.1-1.7-.3-2.6-.4.5-3.5.5-7.1 0-10.6z"
           id="QSFPpath64"
           fill="#b3b3b3" /><path
           class="QSFPst2"
           d="M60.6 25.3l-.7-.1-.9-.2c.5-3.2.5-6.5 0-9.7l1.6-.2c.4 3.4.4 6.8 0 10.2m.4.6c.6-3.8.6-7.6 0-11.4-.9.1-1.7.3-2.6.4.6 3.5.6 7 0 10.5.9.2 1.7.3 2.6.5z"
           id="QSFPpath66"
           fill="#333" /></g></g><g
       id="QSFPg84"><g
         id="QSFPg76"><path
           class="QSFPst7"
           d="M69 27.7c-.4 0-.8-.4-.8-.8V11.6h2.4c.7 0 1.3.6 1.3 1.3v10.5c0 .1-.1.3-.3.3h-1.9v4z"
           id="QSFPpath72"
           fill="#ccc" /><path
           class="QSFPst5"
           d="M70.6 11.9c.6 0 1.1.5 1.1 1.1v10.5h-2.1v4H69c-.3 0-.5-.2-.5-.5V12h2.1m0-.6H68V27c0 .6.5 1.1 1.1 1.1h1.1v-4h1.6c.3 0 .5-.2.5-.5V13c-.1-.9-.8-1.6-1.7-1.6z"
           id="QSFPpath74"
           fill="gray" /></g><g
         id="QSFPg82"><path
           class="QSFPst7"
           d="M8.2 27.7v-4H6.3c-.1 0-.3-.1-.3-.3V13c0-.7.6-1.3 1.3-1.3h2.4V27c0 .4-.4.8-.8.8h-.7z"
           id="QSFPpath78"
           fill="#ccc" /><path
           class="QSFPst5"
           d="M9.5 11.9v15c0 .3-.2.5-.5.5h-.6v-3.9H6.3V13c0-.6.5-1.1 1.1-1.1h2.1m.5-.5H7.4c-.9 0-1.6.7-1.6 1.6v10.5c0 .3.2.5.5.5h1.6v4H9c.6 0 1.1-.5 1.1-1.1V11.4z"
           id="QSFPpath80"
           fill="gray" /></g></g></g><text
     xml:space="preserve"
     style="font-style:normal;font-weight:normal;font-size:40px;line-height:1.25;font-family:sans-serif;fill:#000000;fill-opacity:1;stroke:none"
     x="22.897959"
     y="16.230612"
     id="text54"><tspan
       sodipodi:role="line"
       id="tspan52"
       x="22.897959"
       y="16.230612" /></text></svg>
