<?xml version="1.0" encoding="UTF-8" standalone="no"?>
<svg
   xmlns:dc="http://purl.org/dc/elements/1.1/"
   xmlns:cc="http://creativecommons.org/ns#"
   xmlns:rdf="http://www.w3.org/1999/02/22-rdf-syntax-ns#"
   xmlns:svg="http://www.w3.org/2000/svg"
   xmlns="http://www.w3.org/2000/svg"
   xmlns:sodipodi="http://sodipodi.sourceforge.net/DTD/sodipodi-0.dtd"
   xmlns:inkscape="http://www.inkscape.org/namespaces/inkscape"
   version="1.1"
   id="sfp"
   x="0"
   y="0"
   viewBox="0 0 40.000011 25"
   xml:space="preserve"
   width="40"
   height="25"
   sodipodi:docname="SFP.svg"
   inkscape:version="1.0.1 (3bc2e813f5, 2020-09-07)"><metadata
     id="metadata44"><rdf:RDF><cc:Work
         rdf:about=""><dc:format>image/svg+xml</dc:format><dc:type
           rdf:resource="http://purl.org/dc/dcmitype/StillImage" /></cc:Work></rdf:RDF></metadata><defs
     id="defs42" /><sodipodi:namedview
     pagecolor="#ffffff"
     bordercolor="#666666"
     borderopacity="1"
     objecttolerance="10"
     gridtolerance="10"
     guidetolerance="10"
     inkscape:pageopacity="0"
     inkscape:pageshadow="2"
     inkscape:window-width="1280"
     inkscape:window-height="658"
     id="namedview40"
     showgrid="false"
     inkscape:zoom="19.6"
     inkscape:cx="20"
     inkscape:cy="1.7346945"
     inkscape:window-x="-6"
     inkscape:window-y="-6"
     inkscape:window-maximized="1"
     inkscape:current-layer="sfp" /><style
     type="text/css"
     id="style2">.st0{fill:gray}.st1{fill:#4d4d4d}.st2{fill:#333}.st3{fill:#b3b3b3}.st4{fill:#e6e6e6}.st5{fill:#ccc}</style><g
     id="g8"><path
       class="st0"
       d="M36.8 24.9H3.2c-1.6 0-3-1.3-3-3V3.1c0-1.6 1.3-3 3-3h33.7c1.6 0 3 1.3 3 3v18.8c-.1 1.6-1.4 3-3.1 3z"
       id="path4"
       fill="gray" /><path
       class="st1"
       d="M37 1c1.1 0 2 .9 2 2v19c0 1.1-.9 2-2 2H3c-1.1 0-2-.9-2-2V3c0-1.1.9-2 2-2h34m0-1H3C1.3 0 0 1.3 0 3v19c0 1.7 1.3 3 3 3h34c1.7 0 3-1.3 3-3V3c0-1.7-1.3-3-3-3z"
       id="path6"
       fill="#4d4d4d" /></g><g
     id="Layer_3"><g
       id="g24"><path
         class="st1"
         id="rect10"
         fill="#4d4d4d"
         d="M18 5.7h4v.6h-4z" /><path
         class="st1"
         id="rect12"
         fill="#4d4d4d"
         d="M18 6.7h4v.6h-4z" /><path
         class="st1"
         id="rect14"
         fill="#4d4d4d"
         d="M18 11.7h4v.6h-4z" /><path
         class="st1"
         id="rect16"
         fill="#4d4d4d"
         d="M18 13.7h4v.6h-4z" /><path
         class="st1"
         id="rect18"
         fill="#4d4d4d"
         d="M18 17.7h4v.6h-4z" /><path
         class="st1"
         id="polygon20"
         fill="#4d4d4d"
         d="M18.7 4.3H21.3v-1h7.4V6h.6V1h-.6v1.8h-8v.9h-1.4v-.9h-8V1h-.6v5h.6V3.3h7.4z" /><path
         class="st1"
         d="M36.7 1v4.7h-3.4V1h-.6v4.7h-1.4V1h-.6v5h.3v.3h5.7v.4H31v.6h5.7v12.4h-2.4V19h-.6v.7h-2.4V19h-.6v1.7h-5.4V19h-.6v.7h-2.4V19h-.6v4h-3.4v-4h-.6v.7h-2.4V19h-.6v1.7H9.3V19h-.6v.7H6.3V19h-.6v.7H3.3V7.3H9v-.6H3.3v-.4H9V6h.3V1h-.6v4.7H7.3V1h-.6v4.7H3.3V1h-.6v23h.6v-3.7h2.4V24h.6v-2.7h2.4V24h.6v-2.7h5.4V23h-.2v.6h11V23h-.2v-1.7h5.4V24h.6v-2.7h2.4V24h.6v-3.7h2.4V24h.6V1zM6.3 20.7v-.4h2.4v.4zm11.4-.4v.4h-2.4v-.4zM15.3 23v-1.7h2.4V23zm9.4-2.7v.4h-2.4v-.4zM22.3 23v-1.7h2.4V23zm11.4-2.3h-2.4v-.4h2.4z"
         id="path22"
         fill="#4d4d4d" /></g></g><g
     id="g49"><g
       id="g31"><path
         class="st2"
         id="rect27"
         fill="#333"
         d="M4 5h14v14H4z" /><path
         class="st3"
         data-cv-id="PORT-0"
         d="M17.4 5.6v12.8H4.6V5.6h12.8M18 5H4v14h14z"
         id="path29"
         fill="#b3b3b3" /></g><g
       id="g37"><circle
         class="st3"
         cx="11"
         cy="12"
         r="6"
         id="circle33"
         fill="#b3b3b3" /><path
         class="st4"
         d="M11 7c2.8 0 5 2.2 5 5s-2.2 5-5 5-5-2.2-5-5 2.2-5 5-5m0-1c-3.3 0-6 2.7-6 6s2.7 6 6 6 6-2.7 6-6-2.7-6-6-6z"
         id="path35"
         fill="#e6e6e6" /></g><g
       id="g43"><circle
         class="st5"
         cx="11"
         cy="12"
         r="3"
         id="circle39"
         fill="#ccc" /><path
         class="st0"
         d="M11 10c1.1 0 2 .9 2 2s-.9 2-2 2-2-.9-2-2 .9-2 2-2m0-1c-1.7 0-3 1.3-3 3s1.3 3 3 3 3-1.3 3-3-1.3-3-3-3z"
         id="path41"
         fill="gray" /></g><g
       id="g47"><circle
         class="st1"
         cx="11"
         cy="12"
         r="1"
         id="circle45"
         fill="#4d4d4d" /></g></g><g
     id="g73"><g
       id="g55"><path
         class="st2"
         id="rect51"
         fill="#333"
         d="M22 5h14v14H22z" /><path
         class="st3"
         data-cv-id="PORT-1"
         d="M35.4 5.6v12.8H22.6V5.6h12.8M36 5H22v14h14z"
         id="path53"
         fill="#b3b3b3" /></g><g
       id="g61"><circle
         class="st3"
         cx="29"
         cy="12"
         r="6"
         id="circle57"
         fill="#b3b3b3" /><path
         class="st4"
         d="M29 7c2.8 0 5 2.2 5 5s-2.2 5-5 5-5-2.2-5-5 2.2-5 5-5m0-1c-3.3 0-6 2.7-6 6s2.7 6 6 6 6-2.7 6-6-2.7-6-6-6z"
         id="path59"
         fill="#e6e6e6" /></g><g
       id="g67"><circle
         class="st5"
         cx="29"
         cy="12"
         r="3"
         id="circle63"
         fill="#ccc" /><path
         class="st0"
         d="M29 10c1.1 0 2 .9 2 2s-.9 2-2 2-2-.9-2-2 .9-2 2-2m0-1c-1.7 0-3 1.3-3 3s1.3 3 3 3 3-1.3 3-3-1.3-3-3-3z"
         id="path65"
         fill="gray" /></g><g
       id="g71"><circle
         class="st1"
         cx="29"
         cy="12"
         r="1"
         id="circle69"
         fill="#4d4d4d" /></g></g><text
     xml:space="preserve"
     style="font-style:normal;font-weight:normal;font-size:40px;line-height:1.25;font-family:sans-serif;fill:#000000;fill-opacity:1;stroke:none"
     x="14.183673"
     y="14.693878"
     id="text48"><tspan
       sodipodi:role="line"
       id="tspan46"
       x="14.183673"
       y="14.693878" /></text></svg>
