<?xml version="1.0" encoding="UTF-8" standalone="no"?>
<svg
   xmlns:dc="http://purl.org/dc/elements/1.1/"
   xmlns:cc="http://creativecommons.org/ns#"
   xmlns:rdf="http://www.w3.org/1999/02/22-rdf-syntax-ns#"
   xmlns:svg="http://www.w3.org/2000/svg"
   xmlns="http://www.w3.org/2000/svg"
   xmlns:sodipodi="http://sodipodi.sourceforge.net/DTD/sodipodi-0.dtd"
   xmlns:inkscape="http://www.inkscape.org/namespaces/inkscape"
   width="582"
   height="84"
   viewBox="0 0 582 84"
   version="1.1"
   id="svg554"
   sodipodi:docname="A900-IMA8CS1Z-M.svg"
   inkscape:version="1.0.1 (3bc2e813f5, 2020-09-07)">
  <metadata
     id="metadata560">
    <rdf:RDF>
      <cc:Work
         rdf:about="">
        <dc:format>image/svg+xml</dc:format>
        <dc:type
           rdf:resource="http://purl.org/dc/dcmitype/StillImage" />
      </cc:Work>
    </rdf:RDF>
  </metadata>
  <defs
     id="defs558" />
  <sodipodi:namedview
     pagecolor="#ffffff"
     bordercolor="#666666"
     borderopacity="1"
     objecttolerance="10"
     gridtolerance="10"
     guidetolerance="10"
     inkscape:pageopacity="0"
     inkscape:pageshadow="2"
     inkscape:window-width="1280"
     inkscape:window-height="658"
     id="namedview556"
     showgrid="false"
     inkscape:zoom="1.790378"
     inkscape:cx="291"
     inkscape:cy="42"
     inkscape:window-x="-6"
     inkscape:window-y="-6"
     inkscape:window-maximized="1"
     inkscape:current-layer="svg554" />
  <path
     d="M31.5 5.5V2c0-.8.7-1.5 1.5-1.5h516c.8 0 1.5.7 1.5 1.5v3.5z"
     clip-rule="evenodd"
     fill="#dcdcdc"
     fill-rule="evenodd"
     id="path2" />
  <path
     d="M549 1c.6 0 1 .4 1 1v3H32V2c0-.6.4-1 1-1h516m0-1H33c-1.1 0-2 .9-2 2v4h520V2c0-1.1-.9-2-2-2z"
     fill="gray"
     id="path4" />
  <path
     d="M43 83.5c-.8 0-1.5-.7-1.5-1.5v-3.5h499V82c0 .8-.7 1.5-1.5 1.5z"
     clip-rule="evenodd"
     fill="#dcdcdc"
     fill-rule="evenodd"
     id="path6" />
  <path
     d="M540 79v3c0 .6-.4 1-1 1H43c-.6 0-1-.4-1-1v-3h498m1-1H41v4c0 1.1.9 2 2 2h496c1.1 0 2-.9 2-2z"
     fill="gray"
     id="path8" />
  <path
     d="M5.7 80.3c-2.9 0-5.2-2.4-5.2-5.5V9c0-3.1 2.3-5.5 5.2-5.5l570.7.1c2.8 0 5.2 2.5 5.2 5.5V75c0 3.1-2.3 5.5-5.2 5.5z"
     clip-rule="evenodd"
     fill="#bfbfbf"
     fill-rule="evenodd"
     id="path10" />
  <path
     d="M5.7 4l570.7.1c2.6 0 4.6 2.3 4.6 5V75c0 2.8-2 5-4.6 5L5.7 79.8c-2.6 0-4.6-2.2-4.6-5V9c-.1-2.7 2-5 4.6-5m0-1C2.6 3 0 5.7 0 9v65.7c0 3.4 2.5 6 5.7 6l570.6.3c3.2 0 5.7-2.7 5.7-6V9.1c0-3.3-2.5-6-5.7-6z"
     fill="#1a1a1a"
     id="path12" />
  <path
     clip-rule="evenodd"
     fill="#dadada"
     fill-rule="evenodd"
     d="M66.5 70.5l-.1 10-64.9-.1v-9.9z"
     id="path14" />
  <path
     d="M66 71l-.1 9L2 79.9V71h64m1-1H1v10.9l65.9.1z"
     fill="gray"
     id="path16" />
  <path
     clip-rule="evenodd"
     fill="#dadada"
     fill-rule="evenodd"
     d="M516.5 70.5h65v10h-65z"
     id="path18" />
  <path
     d="M581 71v9h-64v-9h64m1-1h-66v11h66z"
     fill="gray"
     id="path20" />
  <path
     clip-rule="evenodd"
     fill="#dcdcdc"
     fill-rule="evenodd"
     d="M69.5 78.5h441v1.9h-441z"
     id="path22" />
  <path
     d="M70 79l440 .1v.9l-440-.1V79m-1-1v2.9l442 .1v-2.9z"
     fill="gray"
     id="path24" />
  <path
     stroke-miterlimit="3"
     d="M5.8 35.6c4.1-4.2 10.9-4.3 15.1-.1 4.2 4.1 4.1 10.9-.2 15-4.1 4-10.6 3.9-14.7-.2s-4.2-10.5-.2-14.7z"
     clip-rule="evenodd"
     fill="#d8d8d8"
     fill-rule="evenodd"
     stroke="#9a9a9a"
     stroke-linecap="round"
     stroke-linejoin="round"
     id="path26" />
  <path
     stroke-miterlimit="3"
     d="M575.2 50.5c4.3-4.1 4.3-10.8.2-15.1-4.2-4.1-11-4.1-15.1.2-4 4.1-3.9 10.7.2 14.8 4.1 4.1 10.6 4.1 14.7.1z"
     clip-rule="evenodd"
     fill="#d8d8d8"
     fill-rule="evenodd"
     stroke="#9a9a9a"
     stroke-width=".048"
     stroke-linecap="round"
     stroke-linejoin="round"
     id="path28" />
  <path
     d="M569.7 57.5c-7.6 0-13.7-6.3-13.7-14s6.2-14 13.7-14h11.8v28z"
     clip-rule="evenodd"
     fill="#d8d8d8"
     fill-rule="evenodd"
     id="path30" />
  <path
     d="M569.7 30H581v27H569.7c-7.3 0-13.2-6.1-13.2-13.5 0-3.6 1.4-7 3.9-9.5 2.4-2.6 5.8-4 9.3-4m0-1c-7.8 0-14.2 6.5-14.2 14.5S561.9 58 569.7 58H582V29H569.7z"
     fill="gray"
     id="path32" />
  <g
     stroke-miterlimit="3"
     clip-rule="evenodd"
     fill-rule="evenodd"
     stroke="#5f5f5f"
     stroke-linecap="round"
     stroke-linejoin="round"
     id="g40">
    <path
       d="M566.5 52.7c-5.4-1.9-8.1-7.8-6.2-13.2 1.9-5.4 7.8-8.1 13.2-6.1 5.4 1.9 8.1 7.8 6.2 13.2-1.9 5.4-7.9 8.1-13.2 6.1z"
       fill="#d2d2d2"
       id="path34" />
    <path
       d="M574.9 34.5l-12.5 14.9c.7 1.1 1.7 1.9 2.9 2.4L577.7 37c-.7-1.1-1.7-1.9-2.8-2.5z"
       fill="#5f5f5f"
       stroke-width=".048"
       id="path36" />
    <path
       d="M566.7 43.5l-1.2 1.4c1.1 1.2 2.5 2.3 3.8 3.2l1.1-1.4 1.1.9c1.2-1.1 2.3-2.4 3.2-3.8l-1.1-.9 1.1-1.3c-1.1-1.2-2.5-2.3-3.8-3.2l-1.1 1.3-1.3-1.1c-1.2 1.1-2.3 2.4-3.2 3.8z"
       fill="#5f5f5f"
       stroke-width=".048"
       id="path38" />
  </g>
  <path
     d="M.5 57.5v-28h11.8c7.6 0 13.7 6.3 13.7 14s-6.1 14-13.7 14z"
     clip-rule="evenodd"
     fill="#d8d8d8"
     fill-rule="evenodd"
     id="path42" />
  <path
     d="M12.3 30c7.3 0 13.2 6.1 13.2 13.5S19.6 57 12.3 57H1V30H12.3m0-1H0v29H12.3c7.9 0 14.2-6.5 14.2-14.5.1-8-6.3-14.5-14.2-14.5z"
     fill="gray"
     id="path44" />
  <g
     stroke-miterlimit="3"
     clip-rule="evenodd"
     fill-rule="evenodd"
     stroke="#5f5f5f"
     stroke-linecap="round"
     stroke-linejoin="round"
     id="g52">
    <path
       d="M9.8 52.6c-5.4-1.9-8.1-7.8-6.2-13.2 1.9-5.4 7.8-8.1 13.2-6.1 5.4 1.9 8.1 7.8 6.2 13.2-2 5.3-7.9 8-13.2 6.1z"
       fill="#d2d2d2"
       id="path46" />
    <path
       d="M18.1 34.4L5.6 49.3c.7 1.1 1.7 1.9 2.9 2.4L21 36.8c-.8-1-1.7-1.9-2.9-2.4z"
       fill="#5f5f5f"
       stroke-width=".048"
       id="path48" />
    <path
       d="M10 43.4l-1.2 1.4c1.1 1.2 2.5 2.3 3.8 3.2l1.1-1.4 1.1.9c1.2-1.1 2.3-2.4 3.2-3.8l-1-.9 1.1-1.3c-1.1-1.2-2.5-2.3-3.8-3.2l-1.1 1.3-1.3-1.1c-1.2 1.1-2.3 2.4-3.2 3.8z"
       fill="#5f5f5f"
       stroke-width=".048"
       id="path50" />
  </g>
  <g
     fill="#3e3f3b"
     id="g56">
    <path
       d="M547.5 63.5v1.1l-1.1.4v2l1.1.4v1.1l-5-2v-1.1zm-2 1.8l-1.9.7 1.9.7zM546.3 63.1l-.1-.9c.2 0 .3-.1.4-.2.1-.1.1-.2.1-.4s-.1-.4-.3-.5c-.2-.1-.6-.2-1.1-.3.3.2.4.5.4.9s-.2.7-.5 1c-.3.3-.7.4-1.2.4s-.9-.2-1.2-.5c-.3-.3-.5-.7-.5-1.2s.2-.9.6-1.3c.4-.3 1-.5 1.9-.5.9 0 1.6.2 2 .5.4.3.6.8.6 1.3 0 .4-.1.7-.3 1-.1.5-.4.7-.8.7zm-2.1-2.1c-.3 0-.5.1-.7.2-.2.1-.3.3-.3.5s.1.3.2.4c.1.1.4.2.7.2.3 0 .6-.1.7-.2.1-.1.2-.3.2-.5s-.1-.3-.2-.5c-.1-.1-.3-.1-.6-.1zM542.4 57.6c0-.5.2-.9.5-1.1.4-.3 1.1-.5 2-.5.9 0 1.6.2 2 .5.3.3.5.6.5 1.1 0 .5-.2.9-.6 1.2-.4.3-1 .4-2 .4-.9 0-1.6-.2-2-.5-.2-.2-.4-.6-.4-1.1zm.8 0c0 .1 0 .2.1.3.1.1.2.2.4.2.2.1.7.1 1.3.1.6 0 1 0 1.2-.1.2-.1.4-.1.4-.2.1-.1.1-.2.1-.3 0-.1 0-.2-.1-.3-.1-.1-.2-.2-.4-.2-.2-.1-.6-.1-1.2-.1s-1 0-1.2.1c-.2.1-.4.1-.4.2-.1.1-.2.2-.2.3zM542.4 53.7c0-.5.2-.9.5-1.1.4-.3 1.1-.5 2-.5.9 0 1.6.2 2 .5.3.3.5.6.5 1.1 0 .5-.2.9-.6 1.2-.4.3-1 .4-2 .4-.9 0-1.6-.2-2-.5-.2-.2-.4-.6-.4-1.1zm.8 0c0 .1 0 .2.1.3.1.1.2.2.4.2.2.1.7.1 1.3.1.6 0 1 0 1.2-.1.2-.1.4-.1.4-.2s.1-.2.1-.3c0-.1 0-.2-.1-.3-.1-.1-.2-.2-.4-.2-.2-.1-.7-.1-1.2-.1s-1 0-1.2.1c-.2.1-.4.1-.4.2-.1.1-.2.2-.2.3zM546.1 51.4h-1v-1.9h1zM547.5 49h-5v-1h5zM547.5 47h-5v-1.5l3.4-.9-3.4-.9v-1.5h5v.9h-3.9l3.9 1v1l-3.9 1h3.9zM547.5 36.6v1.1l-1.1.4v2l1.1.4v1.1l-5-2v-1.1zm-2 1.9l-1.9.7 1.9.7zM544.8 35.5c-.1.2-.2.4-.4.5-.2.1-.4.2-.6.2-.4 0-.7-.1-.9-.4-.2-.3-.4-.6-.4-1.1 0-.5.1-.8.4-1.1.2-.3.6-.4.9-.4.2 0 .4.1.6.2.2.1.3.3.4.5.1-.3.3-.5.5-.6.2-.1.5-.2.7-.2.5 0 .8.1 1.1.4.3.3.4.7.4 1.2s-.1.8-.4 1.1c-.3.4-.7.5-1.2.5-.3 0-.5-.1-.7-.2-.2-.1-.3-.3-.4-.6zm-1-.2c.2 0 .3-.1.4-.2.1-.1.2-.3.2-.4 0-.2-.1-.3-.2-.4-.1-.1-.3-.2-.4-.2-.2 0-.3.1-.4.2-.1.1-.2.3-.2.4 0 .2.1.3.2.4.1.1.2.2.4.2zm2.1.1c.3 0 .5-.1.6-.2.1-.1.2-.3.2-.5s-.1-.4-.2-.5c-.1-.1-.3-.2-.6-.2-.2 0-.4.1-.6.2-.2.1-.2.3-.2.5s.1.4.2.5c.3.1.4.2.6.2zM545.6 29l.3-1c.5.2 1 .4 1.2.8.3.4.4.8.4 1.3 0 .7-.2 1.2-.7 1.6-.5.4-1.1.6-1.9.6-.8 0-1.5-.2-1.9-.6-.5-.4-.7-1-.7-1.7 0-.6.2-1.1.5-1.5.2-.2.5-.4.9-.5l.2 1c-.3.1-.5.2-.6.4-.2.2-.2.4-.2.7 0 .4.1.7.4.9.3.2.7.3 1.3.3.6 0 1.1-.1 1.4-.3.3-.2.4-.5.4-.9 0-.3-.1-.5-.3-.7-.1-.2-.3-.3-.7-.4zM545.8 27.4l-.1-1c.3-.1.6-.2.7-.4.2-.2.2-.4.2-.7 0-.3-.1-.6-.2-.7-.1-.2-.3-.2-.5-.2-.1 0-.2 0-.3.1-.1.1-.2.2-.2.4 0 .1-.1.4-.2.8-.1.5-.3.9-.5 1.1-.3.3-.6.5-1 .5-.3 0-.5-.1-.7-.2-.2-.1-.4-.4-.5-.6-.1-.3-.2-.6-.2-1 0-.6.1-1.1.4-1.4.3-.3.6-.5 1.1-.5v1c-.3 0-.4.1-.6.3-.1.1-.2.4-.2.6 0 .3.1.5.2.7.1.1.2.2.3.2.1 0 .2-.1.3-.2.1-.1.2-.4.3-.9.1-.5.2-.9.4-1.1.1-.2.3-.4.5-.6.2-.1.5-.2.8-.2.3 0 .6.1.8.2.2.2.4.4.6.7.2.3.2.7.2 1.1 0 .6-.1 1.1-.4 1.5-.3.4-.6.4-1.2.5zM547.5 20.2v1h-3.6c.3.4.6.8.7 1.2h-.9c-.1-.3-.2-.5-.5-.8-.2-.3-.5-.5-.8-.6v-.8zM547.5 19h-.9l-3.3-2.6v2.3h-.8V15h.8l3.4 2.7v-2.9h.8zM546.1 14.4h-1v-1.9h1zM547.5 12h-5v-1.5l3.4-.9-3.4-.9V7.2h5v.9h-3.9l3.9 1v1l-3.9 1h3.9z"
       id="path54" />
  </g>
  <g
     fill="#3e3f3b"
     id="g60">
    <path
       d="M264.4 44.1h-5.7v-1.9c0-.7 0-1.2.1-1.4.1-.3.3-.6.6-.8.3-.2.7-.3 1.1-.3.4 0 .6.1.9.2.3.1.4.3.6.5.2.2.2.4.3.6.1.3.1.7.1 1.2v.8h2.2v1.1zm-4.7-1.1h1.6v-.6c0-.5 0-.8-.1-.9-.1-.1-.2-.3-.3-.4-.1-.1-.3-.1-.4-.1-.2 0-.4.1-.5.2-.1.1-.2.3-.3.5v.8zM264.4 38l-5.7 1.4v-1.2l3.9-.9-3.9-1v-1.4l4-1-4-.9v-1.2l5.7 1.4v1.2l-4.3 1.1 4.3 1.1zM264.4 31.2h-5.7v-2.4c0-.6.1-1.1.2-1.3.1-.2.3-.5.5-.7.2-.2.6-.2.9-.2.4 0 .8.1 1.1.4.3.3.5.6.5 1.1.1-.2.3-.5.5-.6.2-.1.5-.4.9-.7l1.1-.7v1.4l-1.2.8c-.4.3-.7.5-.8.6-.1.1-.2.2-.2.3 0 .1-.1.3-.1.6v.2h2.4v1.2zm-3.3-1.1v-.9c0-.6 0-.9-.1-1-.1-.1-.1-.2-.2-.3-.1-.1-.3-.1-.4-.1-.2 0-.3.1-.5.2s-.2.2-.2.4V30.1z"
       id="path58" />
  </g>
  <g
     fill="#3e3f3b"
     id="g64">
    <path
       d="M271.8 45l-.1-1.1c.4-.1.7-.2.8-.4.1-.2.3-.5.3-.8 0-.4-.1-.7-.2-.8-.1-.1-.3-.3-.6-.3-.1 0-.3 0-.3.1s-.2.2-.2.4c0 .1-.1.4-.2.9-.2.6-.3 1.1-.6 1.3-.3.4-.7.5-1.2.5-.3 0-.6-.1-.8-.2-.3-.2-.4-.4-.6-.7-.1-.3-.2-.7-.2-1.1 0-.7.2-1.3.5-1.6.3-.3.7-.6 1.3-.6l.1 1.2c-.3 0-.5.2-.6.3-.1.1-.2.4-.2.7 0 .3.1.6.2.8.1.1.2.2.4.2.1 0 .3-.1.3-.2.1-.1.2-.5.4-1.1.1-.6.3-1 .4-1.2.1-.2.3-.5.6-.6.3-.1.5-.2.9-.2.3 0 .6.1.9.3.3.2.5.4.6.8.1.4.2.7.2 1.2 0 .7-.2 1.3-.5 1.7-.5.2-1 .4-1.6.5zM273.6 38.1h-4.8v1.7h-1v-4.6h1v1.7h4.8zM273.6 29.9v1.3l-1.3.5V34l1.3.5v1.2l-5.7-2.2v-1.2zm-2.2 2.1l-2.1.8 2.1.8zM273.6 28.6h-4.8v1.7h-1v-4.6h1v1.7h4.8z"
       id="path62" />
  </g>
  <path
     d="M65.2 14.7V8.3h1.3v5.3h3.2v1.1zM84.8 12.6l1.3-.1c.1.4.2.7.5.9.2.2.5.3.9.3s.7-.1.9-.3c.2-.2.3-.4.3-.6 0-.2 0-.3-.1-.4-.1-.1-.2-.2-.5-.3-.2-.1-.5-.1-1-.3-.7-.2-1.2-.4-1.5-.6-.4-.4-.6-.8-.6-1.3 0-.3.1-.6.3-.9.2-.3.5-.5.8-.7.3-.1.8-.2 1.3-.2.8 0 1.4.2 1.8.5.4.4.6.8.6 1.4l-1.3.1c-.1-.3-.2-.6-.4-.7-.2-.1-.5-.2-.8-.2-.4 0-.7.1-.9.2-.1.1-.2.2-.2.4s.1.3.2.4c.2.1.6.3 1.2.4.6.2 1.1.3 1.4.5.3.2.5.4.7.7.2.3.3.6.3 1s-.1.7-.3 1c-.2.3-.5.6-.9.7-.4.2-.8.2-1.4.2-.8 0-1.4-.2-1.9-.6-.3-.2-.6-.8-.7-1.5zM77.3 6.7c.9 0 1.6.3 2.1 1 .6.8.9 2 .9 3.8 0 1.8-.3 3-.9 3.8-.5.6-1.2 1-2.1 1-.9 0-1.6-.3-2.2-1-.6-.7-.8-1.9-.8-3.7 0-1.8.3-3 .9-3.8.5-.8 1.2-1.1 2.1-1.1zm0 1.4c-.2 0-.4.1-.6.2-.2.1-.3.4-.4.7-.1.5-.2 1.2-.2 2.3 0 1.1.1 1.8.2 2.3.1.5.2.7.4.8.2.1.4.2.6.2.2 0 .4-.1.6-.2.2-.1.3-.4.4-.7.1-.5.2-1.2.2-2.3 0-1.1-.1-1.8-.2-2.2-.1-.4-.3-.7-.4-.8-.2-.2-.4-.3-.6-.3z"
     fill="#3e3f3b"
     id="path66" />
  <path
     clip-rule="evenodd"
     fill="#c3c3c3"
     fill-rule="evenodd"
     d="M54.5 10.5h7v5h-7z"
     id="path68" />
  <path
     d="M61 11v4h-6v-4h6m1-1h-8v6h8z"
     fill="gray"
     id="path70" />
  <path
     clip-rule="evenodd"
     fill="#c3c3c3"
     fill-rule="evenodd"
     d="M93.5 10.5h7v5h-7z"
     id="path72" />
  <path
     d="M100 11v4h-6v-4h6m1-1h-8v6h8z"
     fill="gray"
     id="path74" />
  <path
     d="M116.2 14.7V8.3h1.3v5.3h3.2v1.1zM135.8 12.6l1.3-.1c.1.4.2.7.5.9.2.2.5.3.9.3s.7-.1.9-.3c.2-.2.3-.4.3-.6 0-.2 0-.3-.1-.4-.1-.1-.2-.2-.5-.3-.2-.1-.5-.1-1-.3-.7-.2-1.2-.4-1.5-.6-.4-.4-.6-.8-.6-1.3 0-.3.1-.6.3-.9.2-.3.5-.5.8-.7.3-.1.8-.2 1.3-.2.8 0 1.4.2 1.8.5.4.4.6.8.6 1.4l-1.3.1c-.1-.3-.2-.6-.4-.7-.2-.1-.5-.2-.8-.2-.4 0-.7.1-.9.2-.1.1-.2.2-.2.4s.1.3.2.4c.2.1.6.3 1.2.4.6.2 1.1.3 1.4.5.3.2.5.4.7.7.2.3.3.6.3 1s-.1.7-.3 1c-.2.3-.5.6-.9.7-.4.2-.8.2-1.4.2-.8 0-1.4-.2-1.9-.6-.3-.2-.6-.8-.7-1.5zM131.3 14.4V16H125c.1-.6.3-1.2.6-1.8.3-.6 1-1.3 2-2.2.8-.7 1.3-1.3 1.5-1.5.2-.4.4-.7.4-1.1 0-.4-.1-.7-.3-.9-.2-.2-.5-.3-.9-.3s-.7.1-.9.3c-.2.2-.3.6-.4 1.1l-1.8-.2c.1-1 .4-1.7 1-2.1.6-.4 1.3-.6 2.1-.6.9 0 1.6.2 2.2.7.5.5.8 1.1.8 1.8 0 .4-.1.8-.2 1.2-.1.4-.4.8-.7 1.2-.2.3-.6.7-1.2 1.2s-.9.9-1.1 1c-.2.2-.3.3-.4.5h3.6z"
     fill="#3e3f3b"
     id="path76" />
  <path
     clip-rule="evenodd"
     fill="#c3c3c3"
     fill-rule="evenodd"
     d="M105.5 10.5h7v5h-7z"
     id="path78" />
  <path
     d="M112 11v4h-6v-4h6m1-1h-8v6h8z"
     fill="gray"
     id="path80" />
  <path
     clip-rule="evenodd"
     fill="#c3c3c3"
     fill-rule="evenodd"
     d="M144.5 10.5h7v5h-7z"
     id="path82" />
  <path
     d="M151 11v4h-6v-4h6m1-1h-8v6h8z"
     fill="gray"
     id="path84" />
  <path
     d="M166.2 14.7V8.3h1.3v5.3h3.2v1.1zM185.8 12.6l1.3-.1c.1.4.2.7.5.9.2.2.5.3.9.3s.7-.1.9-.3c.2-.2.3-.4.3-.6 0-.2 0-.3-.1-.4-.1-.1-.2-.2-.5-.3-.2-.1-.5-.1-1-.3-.7-.2-1.2-.4-1.5-.6-.4-.4-.6-.8-.6-1.3 0-.3.1-.6.3-.9.2-.3.5-.5.8-.7.3-.1.8-.2 1.3-.2.8 0 1.4.2 1.8.5.4.4.6.8.6 1.4l-1.3.1c-.1-.3-.2-.6-.4-.7-.2-.1-.5-.2-.8-.2-.4 0-.7.1-.9.2-.1.1-.2.2-.2.4s.1.3.2.4c.2.1.6.3 1.2.4.6.2 1.1.3 1.4.5.3.2.5.4.7.7.2.3.3.6.3 1s-.1.7-.3 1c-.2.3-.5.6-.9.7-.4.2-.8.2-1.4.2-.8 0-1.4-.2-1.9-.6-.3-.2-.6-.8-.7-1.5zM178.8 16v-1.9H175v-1.6l4-5.9h1.5v5.9h1.2v1.6h-1.2V16zm0-3.4V9.4l-2.1 3.2z"
     fill="#3e3f3b"
     id="path86" />
  <g
     id="g92">
    <path
       clip-rule="evenodd"
       fill="#c3c3c3"
       fill-rule="evenodd"
       d="M155.5 10.5h7v5h-7z"
       id="path88" />
    <path
       d="M162 11v4h-6v-4h6m1-1h-8v6h8z"
       fill="gray"
       id="path90" />
  </g>
  <g
     id="g98">
    <path
       clip-rule="evenodd"
       fill="#c3c3c3"
       fill-rule="evenodd"
       d="M194.5 10.5h7v5h-7z"
       id="path94" />
    <path
       d="M201 11v4h-6v-4h6m1-1h-8v6h8z"
       fill="gray"
       id="path96" />
  </g>
  <g
     id="g114">
    <path
       d="M216.2 14.7V8.3h1.3v5.3h3.2v1.1zM235.8 12.6l1.3-.1c.1.4.2.7.5.9.2.2.5.3.9.3s.7-.1.9-.3c.2-.2.3-.4.3-.6 0-.2 0-.3-.1-.4-.1-.1-.2-.2-.5-.3-.2-.1-.5-.1-1-.3-.7-.2-1.2-.4-1.5-.6-.4-.4-.6-.8-.6-1.3 0-.3.1-.6.3-.9.2-.3.5-.5.8-.7.3-.1.8-.2 1.3-.2.8 0 1.4.2 1.8.5.4.4.6.8.6 1.4l-1.3.1c-.1-.3-.2-.6-.4-.7-.2-.1-.5-.2-.8-.2-.4 0-.7.1-.9.2-.1.1-.2.2-.2.4s.1.3.2.4c.2.1.6.3 1.2.4.6.2 1.1.3 1.4.5.3.2.5.4.7.7.2.3.3.6.3 1s-.1.7-.3 1c-.2.3-.5.6-.9.7-.4.2-.8.2-1.4.2-.8 0-1.4-.2-1.9-.6-.3-.2-.6-.8-.7-1.5zM231.3 9l-1.7.2c0-.4-.2-.6-.3-.8-.2-.2-.4-.3-.7-.3-.4 0-.7.2-1 .5-.3.3-.4 1-.5 2.1.4-.5 1-.8 1.7-.8s1.4.3 1.9.9c.5.6.8 1.3.8 2.2 0 1-.3 1.7-.8 2.3-.6.6-1.3.9-2.2.9-.9 0-1.7-.4-2.3-1.1-.6-.7-.9-1.9-.9-3.6 0-1.7.3-2.9.9-3.7.6-.8 1.4-1.1 2.5-1.1.7 0 1.3.2 1.8.6.4.4.7.9.8 1.7zm-4 3.9c0 .6.1 1 .4 1.3.3.3.6.5.9.5.3 0 .6-.1.8-.4.2-.3.3-.7.3-1.3 0-.6-.1-1-.4-1.3-.3-.3-.5-.4-.9-.4-.3 0-.6.1-.9.4-.3.3-.2.7-.2 1.2z"
       fill="#3e3f3b"
       id="path100" />
    <g
       id="g106">
      <path
         clip-rule="evenodd"
         fill="#c3c3c3"
         fill-rule="evenodd"
         d="M205.5 10.5h7v5h-7z"
         id="path102" />
      <path
         d="M212 11v4h-6v-4h6m1-1h-8v6h8z"
         fill="gray"
         id="path104" />
    </g>
    <g
       id="g112">
      <path
         clip-rule="evenodd"
         fill="#c3c3c3"
         fill-rule="evenodd"
         d="M244.5 10.5h7v5h-7z"
         id="path108" />
      <path
         d="M251 11v4h-6v-4h6m1-1h-8v6h8z"
         fill="gray"
         id="path110" />
    </g>
  </g>
  <g
     id="g130">
    <path
       d="M65.2 66.7v-6.4h1.3v5.3h3.2v1.1zM84.8 64.6l1.3-.1c.1.4.2.7.5.9.2.2.5.3.9.3s.7-.1.9-.3c.2-.2.3-.4.3-.6 0-.2 0-.3-.1-.4-.1-.1-.2-.2-.5-.3-.2-.1-.5-.1-1-.3-.7-.2-1.2-.4-1.5-.6-.4-.4-.6-.8-.6-1.3 0-.3.1-.6.3-.9.2-.3.5-.5.8-.7.3-.1.8-.2 1.3-.2.8 0 1.4.2 1.8.5.4.4.6.8.6 1.4l-1.3.1c-.1-.3-.2-.6-.4-.7-.2-.1-.5-.2-.8-.2-.4 0-.7.1-.9.2-.1.1-.2.2-.2.4s.1.3.2.4c.2.1.6.3 1.2.4.6.2 1.1.3 1.4.5.3.2.5.4.7.7.2.3.3.6.3 1s-.1.7-.3 1c-.2.3-.5.6-.9.7-.4.2-.8.2-1.4.2-.8 0-1.4-.2-1.9-.6-.3-.2-.6-.8-.7-1.5zM78.8 69.6H77v-6.7c-.7.6-1.4 1.1-2.3 1.4v-1.6c.5-.2 1-.4 1.5-.9.5-.4.9-.9 1.1-1.5h1.4v9.3z"
       fill="#3e3f3b"
       id="path116" />
    <g
       id="g122">
      <path
         clip-rule="evenodd"
         fill="#c3c3c3"
         fill-rule="evenodd"
         d="M54.5 62.5h7v5h-7z"
         id="path118" />
      <path
         d="M61 63v4h-6v-4h6m1-1h-8v6h8z"
         fill="gray"
         id="path120" />
    </g>
    <g
       id="g128">
      <path
         clip-rule="evenodd"
         fill="#c3c3c3"
         fill-rule="evenodd"
         d="M93.5 62.5h7v5h-7z"
         id="path124" />
      <path
         d="M100 63v4h-6v-4h6m1-1h-8v6h8z"
         fill="gray"
         id="path126" />
    </g>
  </g>
  <g
     id="g146">
    <path
       d="M116.2 66.7v-6.4h1.3v5.3h3.2v1.1zM135.8 64.6l1.3-.1c.1.4.2.7.5.9.2.2.5.3.9.3s.7-.1.9-.3c.2-.2.3-.4.3-.6 0-.2 0-.3-.1-.4-.1-.1-.2-.2-.5-.3-.2-.1-.5-.1-1-.3-.7-.2-1.2-.4-1.5-.6-.4-.4-.6-.8-.6-1.3 0-.3.1-.6.3-.9.2-.3.5-.5.8-.7.3-.1.8-.2 1.3-.2.8 0 1.4.2 1.8.5.4.4.6.8.6 1.4l-1.3.1c-.1-.3-.2-.6-.4-.7-.2-.1-.5-.2-.8-.2-.4 0-.7.1-.9.2-.1.1-.2.2-.2.4s.1.3.2.4c.2.1.6.3 1.2.4.6.2 1.1.3 1.4.5.3.2.5.4.7.7.2.3.3.6.3 1s-.1.7-.3 1c-.2.3-.5.6-.9.7-.4.2-.8.2-1.4.2-.8 0-1.4-.2-1.9-.6-.3-.2-.6-.8-.7-1.5zM125.2 67.2l1.7-.2c.1.4.2.8.4 1 .2.2.5.3.9.3s.7-.1.9-.4c.3-.3.4-.7.4-1.1 0-.4-.1-.8-.4-1.1-.3-.3-.5-.4-.9-.4-.2 0-.5 0-.8.1l.2-1.5c.5 0 .9-.1 1.1-.3.3-.2.4-.5.4-.9 0-.3-.1-.6-.3-.7-.2-.2-.4-.3-.7-.3-.3 0-.6.1-.8.3-.2.2-.3.5-.4.9l-1.6-.3c.1-.6.3-1 .5-1.3.2-.3.6-.6 1-.8.4-.2.9-.3 1.4-.3.9 0 1.6.3 2.1.8.4.5.7 1 .7 1.5 0 .8-.4 1.5-1.3 2 .5.1 1 .4 1.3.8.3.4.5.9.5 1.4 0 .8-.3 1.5-.9 2.1-.6.6-1.3.9-2.2.9-.8 0-1.5-.2-2.1-.7-.6-.5-1-1-1.1-1.8z"
       fill="#3e3f3b"
       id="path132" />
    <g
       id="g138">
      <path
         clip-rule="evenodd"
         fill="#c3c3c3"
         fill-rule="evenodd"
         d="M105.5 62.5h7v5h-7z"
         id="path134" />
      <path
         d="M112 63v4h-6v-4h6m1-1h-8v6h8z"
         fill="gray"
         id="path136" />
    </g>
    <g
       id="g144">
      <path
         clip-rule="evenodd"
         fill="#c3c3c3"
         fill-rule="evenodd"
         d="M144.5 62.5h7v5h-7z"
         id="path140" />
      <path
         d="M151 63v4h-6v-4h6m1-1h-8v6h8z"
         fill="gray"
         id="path142" />
    </g>
  </g>
  <g
     id="g162">
    <path
       d="M166.2 66.7v-6.4h1.3v5.3h3.2v1.1zM185.8 64.6l1.3-.1c.1.4.2.7.5.9.2.2.5.3.9.3s.7-.1.9-.3c.2-.2.3-.4.3-.6 0-.2 0-.3-.1-.4-.1-.1-.2-.2-.5-.3-.2-.1-.5-.1-1-.3-.7-.2-1.2-.4-1.5-.6-.4-.4-.6-.8-.6-1.3 0-.3.1-.6.3-.9.2-.3.5-.5.8-.7.3-.1.8-.2 1.3-.2.8 0 1.4.2 1.8.5.4.4.6.8.6 1.4l-1.3.1c-.1-.3-.2-.6-.4-.7-.2-.1-.5-.2-.8-.2-.4 0-.7.1-.9.2-.1.1-.2.2-.2.4s.1.3.2.4c.2.1.6.3 1.2.4.6.2 1.1.3 1.4.5.3.2.5.4.7.7.2.3.3.6.3 1s-.1.7-.3 1c-.2.3-.5.6-.9.7-.4.2-.8.2-1.4.2-.8 0-1.4-.2-1.9-.6-.3-.2-.6-.8-.7-1.5zM175.3 67.3l1.8-.2c.1.4.2.7.5 1 .2.2.5.4.9.4s.7-.2.9-.5c.2-.3.4-.8.4-1.4 0-.6-.1-1-.4-1.3-.3-.3-.6-.4-1-.4-.5 0-1 .2-1.4.7l-1.4-.2.9-4.8h4.7v1.7h-3.4l-.3 1.6c.4-.2.8-.3 1.2-.3.8 0 1.5.3 2 .9.6.6.8 1.3.8 2.2 0 .8-.2 1.4-.7 2.1-.6.8-1.4 1.2-2.5 1.2-.9 0-1.6-.2-2.1-.7-.5-.5-.8-1.3-.9-2z"
       fill="#3e3f3b"
       id="path148" />
    <g
       id="g154">
      <path
         clip-rule="evenodd"
         fill="#c3c3c3"
         fill-rule="evenodd"
         d="M155.5 62.5h7v5h-7z"
         id="path150" />
      <path
         d="M162 63v4h-6v-4h6m1-1h-8v6h8z"
         fill="gray"
         id="path152" />
    </g>
    <g
       id="g160">
      <path
         clip-rule="evenodd"
         fill="#c3c3c3"
         fill-rule="evenodd"
         d="M194.5 62.5h7v5h-7z"
         id="path156" />
      <path
         d="M201 63v4h-6v-4h6m1-1h-8v6h8z"
         fill="gray"
         id="path158" />
    </g>
  </g>
  <g
     id="g178">
    <path
       d="M216.2 66.7v-6.4h1.3v5.3h3.2v1.1zM235.8 64.6l1.3-.1c.1.4.2.7.5.9.2.2.5.3.9.3s.7-.1.9-.3c.2-.2.3-.4.3-.6 0-.2 0-.3-.1-.4-.1-.1-.2-.2-.5-.3-.2-.1-.5-.1-1-.3-.7-.2-1.2-.4-1.5-.6-.4-.4-.6-.8-.6-1.3 0-.3.1-.6.3-.9.2-.3.5-.5.8-.7.3-.1.8-.2 1.3-.2.8 0 1.4.2 1.8.5.4.4.6.8.6 1.4l-1.3.1c-.1-.3-.2-.6-.4-.7-.2-.1-.5-.2-.8-.2-.4 0-.7.1-.9.2-.1.1-.2.2-.2.4s.1.3.2.4c.2.1.6.3 1.2.4.6.2 1.1.3 1.4.5.3.2.5.4.7.7.2.3.3.6.3 1s-.1.7-.3 1c-.2.3-.5.6-.9.7-.4.2-.8.2-1.4.2-.8 0-1.4-.2-1.9-.6-.3-.2-.6-.8-.7-1.5zM225.3 62.1v-1.7h6.1v1.3c-.5.5-1 1.2-1.5 2.1-.5.9-.9 1.9-1.2 3-.3 1-.4 2-.4 2.8h-1.7c0-1.3.3-2.6.8-3.9.5-1.3 1.2-2.5 2-3.6z"
       fill="#3e3f3b"
       id="path164" />
    <g
       id="g170">
      <path
         clip-rule="evenodd"
         fill="#c3c3c3"
         fill-rule="evenodd"
         d="M205.5 62.5h7v5h-7z"
         id="path166" />
      <path
         d="M212 63v4h-6v-4h6m1-1h-8v6h8z"
         fill="gray"
         id="path168" />
    </g>
    <g
       id="g176">
      <path
         clip-rule="evenodd"
         fill="#c3c3c3"
         fill-rule="evenodd"
         d="M244.5 62.5h7v5h-7z"
         id="path172" />
      <path
         d="M251 63v4h-6v-4h6m1-1h-8v6h8z"
         fill="gray"
         id="path174" />
    </g>
  </g>
  <g
     id="g236">
    <path
       d="M254 56H53c-1.1 0-2-.9-2-2V22c0-1.1.9-2 2-2h201c1.1 0 2 .9 2 2v32c0 1.1-.9 2-2 2z"
       clip-rule="evenodd"
       fill="#3e3f3b"
       fill-rule="evenodd"
       id="path180" />
    <path
       data-cv-id="PORT-0"
       clip-rule="evenodd"
       fill="#1a1a1a"
       fill-rule="evenodd"
       d="M54 23.8h49v29.7H54z"
       id="path182" />
    <path
       d="M102.5 24.3V53h-48V24.3h48m1-1h-50V54h50z"
       fill="gray"
       id="path184" />
    <path
       clip-rule="evenodd"
       fill="#ccc"
       fill-rule="evenodd"
       d="M69.7 50.5h17.6v3.3H69.7z"
       id="path186" />
    <path
       d="M87.1 50.7v2.9H69.9v-2.9h17.2m.4-.4h-18V54h18z"
       fill="#1a1a1a"
       id="path188" />
    <g
       id="g192">
      <path
         clip-rule="evenodd"
         fill="#ccc"
         fill-rule="evenodd"
         d="M66.8 20h3.3v3.7h-3.3zM76.8 20h3.3v3.7h-3.3zM86.9 20h3.3v3.7h-3.3z"
         id="path190" />
    </g>
    <g
       id="g206">
      <path
         clip-rule="evenodd"
         fill="#1a1a1a"
         fill-rule="evenodd"
         d="M104 23.8h49v29.7h-49z"
         id="path194" />
      <path
         d="M152.5 24.3V53h-48V24.3h48m1-1h-50V54h50z"
         fill="gray"
         id="path196" />
      <path
         clip-rule="evenodd"
         fill="#ccc"
         fill-rule="evenodd"
         d="M119.7 50.5h17.6v3.3h-17.6z"
         id="path198" />
      <path
         d="M137.1 50.7v2.9h-17.2v-2.9h17.2m.4-.4h-18V54h18z"
         fill="#1a1a1a"
         id="path200" />
      <g
         id="g204">
        <path
           clip-rule="evenodd"
           fill="#ccc"
           fill-rule="evenodd"
           d="M116.8 20h3.3v3.7h-3.3zM126.8 20h3.3v3.7h-3.3zM136.9 20h3.3v3.7h-3.3z"
           id="path202" />
      </g>
    </g>
    <g
       id="g220">
      <path
         clip-rule="evenodd"
         fill="#1a1a1a"
         fill-rule="evenodd"
         d="M154 23.8h49v29.7h-49z"
         id="path208" />
      <path
         d="M202.4 24.3V53h-48V24.3h48m1-1h-50V54h50z"
         fill="gray"
         id="path210" />
      <path
         clip-rule="evenodd"
         fill="#ccc"
         fill-rule="evenodd"
         d="M169.6 50.5h17.6v3.3h-17.6z"
         id="path212" />
      <path
         d="M187 50.7v2.9h-17.2v-2.9H187m.5-.4h-18V54h18z"
         fill="#1a1a1a"
         id="path214" />
      <g
         id="g218">
        <path
           clip-rule="evenodd"
           fill="#ccc"
           fill-rule="evenodd"
           d="M166.8 20h3.3v3.7h-3.3zM176.8 20h3.3v3.7h-3.3zM186.8 20h3.3v3.7h-3.3z"
           id="path216" />
      </g>
    </g>
    <g
       id="g234">
      <path
         clip-rule="evenodd"
         fill="#1a1a1a"
         fill-rule="evenodd"
         d="M203.9 23.8h49v29.7h-49z"
         id="path222" />
      <path
         d="M252.4 24.3V53h-48V24.3h48m1-1h-50V54h50z"
         fill="gray"
         id="path224" />
      <path
         clip-rule="evenodd"
         fill="#ccc"
         fill-rule="evenodd"
         d="M219.6 50.5h17.6v3.3h-17.6z"
         id="path226" />
      <path
         d="M237 50.7v2.9h-17.2v-2.9H237m.4-.4h-18V54h18z"
         fill="#1a1a1a"
         id="path228" />
      <g
         id="g232">
        <path
           clip-rule="evenodd"
           fill="#ccc"
           fill-rule="evenodd"
           d="M216.7 20h3.3v3.7h-3.3zM226.8 20h3.3v3.7h-3.3zM236.8 20h3.3v3.7h-3.3z"
           id="path230" />
      </g>
    </g>
  </g>
  <g
     id="g252">
    <path
       d="M291.2 14.7V8.3h1.3v5.3h3.2v1.1zM310.8 12.6l1.3-.1c.1.4.2.7.5.9.2.2.5.3.9.3s.7-.1.9-.3c.2-.2.3-.4.3-.6 0-.2 0-.3-.1-.4-.1-.1-.2-.2-.5-.3-.2-.1-.5-.1-1-.3-.7-.2-1.2-.4-1.5-.6-.4-.4-.6-.8-.6-1.3 0-.3.1-.6.3-.9.2-.3.5-.5.8-.7.3-.1.8-.2 1.3-.2.8 0 1.4.2 1.8.5.4.4.6.8.6 1.4l-1.3.1c-.1-.3-.2-.6-.4-.7-.2-.1-.5-.2-.8-.2-.4 0-.7.1-.9.2-.1.1-.2.2-.2.4s.1.3.2.4c.2.1.6.3 1.2.4.6.2 1.1.3 1.4.5.3.2.5.4.7.7.2.3.3.6.3 1s-.1.7-.3 1c-.2.3-.5.6-.9.7-.4.2-.8.2-1.4.2-.8 0-1.4-.2-1.9-.6-.3-.2-.6-.8-.7-1.5zM301.8 11c-.5-.2-.8-.5-1-.8-.2-.3-.3-.7-.3-1.1 0-.7.2-1.3.7-1.7.5-.5 1.2-.7 2.1-.7.9 0 1.6.2 2.1.7.5.5.7 1 .7 1.7 0 .4-.1.8-.3 1.2-.2.3-.5.6-.9.8.5.2.9.5 1.2.9.3.4.4.9.4 1.4 0 .9-.3 1.6-.8 2.1s-1.3.8-2.2.8c-.8 0-1.6-.2-2.1-.7-.7-.5-1-1.2-1-2.2 0-.5.1-1 .4-1.4.1-.5.5-.8 1-1zm.2 2.2c0 .5.1.9.4 1.1.3.3.6.4.9.4.4 0 .7-.1.9-.4.2-.3.4-.6.4-1.1 0-.4-.1-.8-.4-1-.2-.3-.6-.4-.9-.4-.4 0-.8.2-1 .5-.2.3-.3.5-.3.9zm.2-4c0 .4.1.6.3.8.2.2.5.3.8.3.3 0 .6-.1.8-.3.2-.2.3-.5.3-.8 0-.3-.1-.6-.3-.8-.2-.2-.5-.3-.8-.3-.3 0-.6.1-.8.3-.2.2-.3.5-.3.8z"
       fill="#3e3f3b"
       id="path238" />
    <g
       id="g244">
      <path
         clip-rule="evenodd"
         fill="#c3c3c3"
         fill-rule="evenodd"
         d="M280.5 10.5h7v5h-7z"
         id="path240" />
      <path
         d="M287 11v4h-6v-4h6m1-1h-8v6h8z"
         fill="gray"
         id="path242" />
    </g>
    <g
       id="g250">
      <path
         clip-rule="evenodd"
         fill="#c3c3c3"
         fill-rule="evenodd"
         d="M319.5 10.5h7v5h-7z"
         id="path246" />
      <path
         d="M326 11v4h-6v-4h6m1-1h-8v6h8z"
         fill="gray"
         id="path248" />
    </g>
  </g>
  <g
     id="g272">
    <path
       d="M342.2 14.7V8.3h1.3v5.3h3.2v1.1zM361.8 12.6l1.3-.1c.1.4.2.7.5.9.2.2.5.3.9.3s.7-.1.9-.3c.2-.2.3-.4.3-.6 0-.2 0-.3-.1-.4-.1-.1-.2-.2-.5-.3-.2-.1-.5-.1-1-.3-.7-.2-1.2-.4-1.5-.6-.4-.4-.6-.8-.6-1.3 0-.3.1-.6.3-.9.2-.3.5-.5.8-.7.3-.1.8-.2 1.3-.2.8 0 1.4.2 1.8.5.4.4.6.8.6 1.4l-1.3.1c-.1-.3-.2-.6-.4-.7-.2-.1-.5-.2-.8-.2-.4 0-.7.1-.9.2-.1.1-.2.2-.2.4s.1.3.2.4c.2.1.6.3 1.2.4.6.2 1.1.3 1.4.5.3.2.5.4.7.7.2.3.3.6.3 1s-.1.7-.3 1c-.2.3-.5.6-.9.7-.4.2-.8.2-1.4.2-.8 0-1.4-.2-1.9-.6-.3-.2-.6-.8-.7-1.5z"
       fill="#3e3f3b"
       id="path254" />
    <g
       fill="#3e3f3b"
       id="g258">
      <path
         d="M352.2 16h-1.8V9.3c-.7.6-1.4 1.1-2.3 1.4V9c.5-.2 1-.4 1.5-.9.5-.4.9-.9 1.1-1.5h1.4V16zM357.9 6.7c.9 0 1.6.3 2.1 1 .6.8.9 2 .9 3.8 0 1.8-.3 3-.9 3.8-.5.6-1.2 1-2.1 1-.9 0-1.6-.3-2.2-1-.6-.7-.8-1.9-.8-3.7 0-1.8.3-3 .9-3.8.5-.8 1.2-1.1 2.1-1.1zm0 1.4c-.2 0-.4.1-.6.2-.2.1-.3.4-.4.7-.1.5-.2 1.2-.2 2.3 0 1.1.1 1.8.2 2.3.1.4.2.7.4.8.2.1.4.2.6.2.2 0 .4-.1.6-.2.2-.1.3-.4.4-.7.1-.5.2-1.2.2-2.3 0-1.1-.1-1.8-.2-2.2-.1-.4-.2-.7-.4-.8-.2-.1-.4-.3-.6-.3z"
         id="path256" />
    </g>
    <g
       id="g264">
      <path
         clip-rule="evenodd"
         fill="#c3c3c3"
         fill-rule="evenodd"
         d="M331.5 10.5h7v5h-7z"
         id="path260" />
      <path
         d="M338 11v4h-6v-4h6m1-1h-8v6h8z"
         fill="gray"
         id="path262" />
    </g>
    <g
       id="g270">
      <path
         clip-rule="evenodd"
         fill="#c3c3c3"
         fill-rule="evenodd"
         d="M370.5 10.5h7v5h-7z"
         id="path266" />
      <path
         d="M377 11v4h-6v-4h6m1-1h-8v6h8z"
         fill="gray"
         id="path268" />
    </g>
  </g>
  <g
     id="g292">
    <path
       d="M442.2 14.7V8.3h1.3v5.3h3.2v1.1zM461.8 12.6l1.3-.1c.1.4.2.7.5.9.2.2.5.3.9.3s.7-.1.9-.3c.2-.2.3-.4.3-.6 0-.2 0-.3-.1-.4-.1-.1-.2-.2-.5-.3-.2-.1-.5-.1-1-.3-.7-.2-1.2-.4-1.5-.6-.4-.4-.6-.8-.6-1.3 0-.3.1-.6.3-.9.2-.3.5-.5.8-.7.3-.1.8-.2 1.3-.2.8 0 1.4.2 1.8.5.4.4.6.8.6 1.4l-1.3.1c-.1-.3-.2-.6-.4-.7-.2-.1-.5-.2-.8-.2-.4 0-.7.1-.9.2-.1.1-.2.2-.2.4s.1.3.2.4c.2.1.6.3 1.2.4.6.2 1.1.3 1.4.5.3.2.5.4.7.7.2.3.3.6.3 1s-.1.7-.3 1c-.2.3-.5.6-.9.7-.4.2-.8.2-1.4.2-.8 0-1.4-.2-1.9-.6-.3-.2-.6-.8-.7-1.5z"
       fill="#3e3f3b"
       id="path274" />
    <g
       fill="#3e3f3b"
       id="g278">
      <path
         d="M452.2 16h-1.8V9.3c-.7.6-1.4 1.1-2.3 1.4V9c.5-.2 1-.4 1.5-.9.5-.4.9-.9 1.1-1.5h1.4V16zM458.4 16v-1.9h-3.8v-1.6l4-5.9h1.5v5.9h1.2v1.6h-1.2V16zm0-3.4V9.4l-2.1 3.2z"
         id="path276" />
    </g>
    <g
       id="g284">
      <path
         clip-rule="evenodd"
         fill="#c3c3c3"
         fill-rule="evenodd"
         d="M431.5 10.5h7v5h-7z"
         id="path280" />
      <path
         d="M438 11v4h-6v-4h6m1-1h-8v6h8z"
         fill="gray"
         id="path282" />
    </g>
    <g
       id="g290">
      <path
         clip-rule="evenodd"
         fill="#c3c3c3"
         fill-rule="evenodd"
         d="M470.5 10.5h7v5h-7z"
         id="path286" />
      <path
         d="M477 11v4h-6v-4h6m1-1h-8v6h8z"
         fill="gray"
         id="path288" />
    </g>
  </g>
  <g
     id="g346">
    <path
       clip-rule="evenodd"
       fill="#1a1a1a"
       fill-rule="evenodd"
       d="M488 23.8h49v29.7h-49z"
       id="path294" />
    <path
       d="M536.5 24.3V53h-48V24.3h48m1-1h-50V54h50z"
       fill="gray"
       id="path296" />
    <path
       clip-rule="evenodd"
       fill="#ccc"
       fill-rule="evenodd"
       d="M503.7 50.5h17.6v3.3h-17.6z"
       id="path298" />
    <path
       d="M521.1 50.7v2.9h-17.2v-2.9h17.2m.4-.4h-18V54h18z"
       fill="#1a1a1a"
       id="path300" />
    <g
       id="g304">
      <path
         clip-rule="evenodd"
         fill="#ccc"
         fill-rule="evenodd"
         d="M500.8 20h3.3v3.7h-3.3zM510.8 20h3.3v3.7h-3.3zM520.9 20h3.3v3.7h-3.3z"
         id="path302" />
    </g>
    <g
       id="g324">
      <path
         d="M500.2 14.7V8.3h1.3v5.3h3.2v1.1zM519.8 12.6l1.3-.1c.1.4.2.7.5.9.2.2.5.3.9.3s.7-.1.9-.3c.2-.2.3-.4.3-.6 0-.2 0-.3-.1-.4-.1-.1-.2-.2-.5-.3-.2-.1-.5-.1-1-.3-.7-.2-1.2-.4-1.5-.6-.4-.4-.6-.8-.6-1.3 0-.3.1-.6.3-.9.2-.3.5-.5.8-.7.3-.1.8-.2 1.3-.2.8 0 1.4.2 1.8.5.4.4.6.8.6 1.4l-1.3.1c-.1-.3-.2-.6-.4-.7-.2-.1-.5-.2-.8-.2-.4 0-.7.1-.9.2-.1.1-.2.2-.2.4s.1.3.2.4c.2.1.6.3 1.2.4.6.2 1.1.3 1.4.5.3.2.5.4.7.7.2.3.3.6.3 1s-.1.7-.3 1c-.2.3-.5.6-.9.7-.4.2-.8.2-1.4.2-.8 0-1.4-.2-1.9-.6-.3-.2-.6-.8-.7-1.5z"
         fill="#3e3f3b"
         id="path306" />
      <g
         fill="#3e3f3b"
         id="g310">
        <path
           d="M510.2 16h-1.8V9.3c-.7.6-1.4 1.1-2.3 1.4V9c.5-.2 1-.4 1.5-.9.5-.4.9-.9 1.1-1.5h1.4V16zM518.9 9l-1.7.2c0-.4-.2-.6-.3-.8-.2-.2-.4-.3-.7-.3-.4 0-.7.2-1 .5-.3.3-.4 1-.5 2.1.4-.5 1-.8 1.7-.8s1.4.3 1.9.9c.5.6.8 1.3.8 2.2 0 1-.3 1.7-.8 2.3-.6.6-1.3.9-2.2.9-.9 0-1.7-.4-2.3-1.1-.6-.7-.9-1.9-.9-3.6 0-1.7.3-2.9.9-3.7.6-.8 1.4-1.1 2.5-1.1.7 0 1.3.2 1.8.6.4.4.7.9.8 1.7zm-4 3.9c0 .6.1 1 .4 1.3.3.3.6.5.9.5.3 0 .6-.1.8-.4.2-.3.3-.7.3-1.3 0-.6-.1-1-.4-1.3-.2-.3-.5-.4-.9-.4-.3 0-.6.1-.9.4-.1.3-.2.7-.2 1.2z"
           id="path308" />
      </g>
      <g
         id="g316">
        <path
           clip-rule="evenodd"
           fill="#c3c3c3"
           fill-rule="evenodd"
           d="M489.5 10.5h7v5h-7z"
           id="path312" />
        <path
           d="M496 11v4h-6v-4h6m1-1h-8v6h8z"
           fill="gray"
           id="path314" />
      </g>
      <g
         id="g322">
        <path
           clip-rule="evenodd"
           fill="#c3c3c3"
           fill-rule="evenodd"
           d="M528.5 10.5h7v5h-7z"
           id="path318" />
        <path
           d="M535 11v4h-6v-4h6m1-1h-8v6h8z"
           fill="gray"
           id="path320" />
      </g>
    </g>
    <g
       id="g344">
      <path
         d="M500.2 66.7v-6.4h1.3v5.3h3.2v1.1zM519.8 64.6l1.3-.1c.1.4.2.7.5.9.2.2.5.3.9.3s.7-.1.9-.3c.2-.2.3-.4.3-.6 0-.2 0-.3-.1-.4-.1-.1-.2-.2-.5-.3-.2-.1-.5-.1-1-.3-.7-.2-1.2-.4-1.5-.6-.4-.4-.6-.8-.6-1.3 0-.3.1-.6.3-.9.2-.3.5-.5.8-.7.3-.1.8-.2 1.3-.2.8 0 1.4.2 1.8.5.4.4.6.8.6 1.4l-1.3.1c-.1-.3-.2-.6-.4-.7-.2-.1-.5-.2-.8-.2-.4 0-.7.1-.9.2-.1.1-.2.2-.2.4s.1.3.2.4c.2.1.6.3 1.2.4.6.2 1.1.3 1.4.5.3.2.5.4.7.7.2.3.3.6.3 1s-.1.7-.3 1c-.2.3-.5.6-.9.7-.4.2-.8.2-1.4.2-.8 0-1.4-.2-1.9-.6-.3-.2-.6-.8-.7-1.5z"
         fill="#3e3f3b"
         id="path326" />
      <g
         fill="#3e3f3b"
         id="g330">
        <path
           d="M510.2 69.6h-1.8v-6.7c-.7.6-1.4 1.1-2.3 1.4v-1.6c.5-.2 1-.4 1.5-.9.5-.4.9-.9 1.1-1.5h1.4v9.3zM512.9 62.1v-1.7h6.1v1.3c-.5.5-1 1.2-1.5 2.1-.5.9-.9 1.9-1.2 3-.3 1-.4 2-.4 2.8h-1.7c0-1.3.3-2.6.8-3.9.5-1.3 1.2-2.5 2-3.6z"
           id="path328" />
      </g>
      <g
         id="g336">
        <path
           clip-rule="evenodd"
           fill="#c3c3c3"
           fill-rule="evenodd"
           d="M489.5 62.5h7v5h-7z"
           id="path332" />
        <path
           d="M496 63v4h-6v-4h6m1-1h-8v6h8z"
           fill="gray"
           id="path334" />
      </g>
      <g
         id="g342">
        <path
           clip-rule="evenodd"
           fill="#c3c3c3"
           fill-rule="evenodd"
           d="M528.5 62.5h7v5h-7z"
           id="path338" />
        <path
           d="M535 63v4h-6v-4h6m1-1h-8v6h8z"
           fill="gray"
           id="path340" />
      </g>
    </g>
  </g>
  <g
     id="g496">
    <path
       d="M392.2 14.7V8.3h1.3v5.3h3.2v1.1zM411.8 12.6l1.3-.1c.1.4.2.7.5.9.2.2.5.3.9.3s.7-.1.9-.3c.2-.2.3-.4.3-.6 0-.2 0-.3-.1-.4-.1-.1-.2-.2-.5-.3-.2-.1-.5-.1-1-.3-.7-.2-1.2-.4-1.5-.6-.4-.4-.6-.8-.6-1.3 0-.3.1-.6.3-.9.2-.3.5-.5.8-.7.3-.1.8-.2 1.3-.2.8 0 1.4.2 1.8.5.4.4.6.8.6 1.4l-1.3.1c-.1-.3-.2-.6-.4-.7-.2-.1-.5-.2-.8-.2-.4 0-.7.1-.9.2-.1.1-.2.2-.2.4s.1.3.2.4c.2.1.6.3 1.2.4.6.2 1.1.3 1.4.5.3.2.5.4.7.7.2.3.3.6.3 1s-.1.7-.3 1c-.2.3-.5.6-.9.7-.4.2-.8.2-1.4.2-.8 0-1.4-.2-1.9-.6-.3-.2-.6-.8-.7-1.5z"
       fill="#3e3f3b"
       id="path348" />
    <g
       fill="#3e3f3b"
       id="g352">
      <path
         d="M402.2 16h-1.8V9.3c-.7.6-1.4 1.1-2.3 1.4V9c.5-.2 1-.4 1.5-.9.5-.4.9-.9 1.1-1.5h1.4V16zM410.9 14.4V16h-6.3c.1-.6.3-1.2.6-1.8.3-.6 1-1.3 2-2.2.8-.7 1.3-1.3 1.5-1.5.2-.4.4-.7.4-1.1 0-.4-.1-.7-.3-.9-.2-.2-.5-.3-.9-.3s-.7.1-.9.3c-.2.2-.3.6-.4 1.1l-1.8-.2c.1-1 .4-1.7 1-2.1.6-.4 1.3-.6 2.1-.6.9 0 1.6.2 2.2.7.5.5.8 1.1.8 1.8 0 .4-.1.8-.2 1.2-.1.4-.4.8-.7 1.2-.2.3-.6.7-1.2 1.2s-.9.9-1.1 1c-.2.2-.3.3-.4.5h3.6z"
         id="path350" />
    </g>
    <path
       clip-rule="evenodd"
       fill="#c3c3c3"
       fill-rule="evenodd"
       d="M381.5 10.5h7v5h-7z"
       id="path354" />
    <path
       d="M388 11v4h-6v-4h6m1-1h-8v6h8z"
       fill="gray"
       id="path356" />
    <path
       clip-rule="evenodd"
       fill="#c3c3c3"
       fill-rule="evenodd"
       d="M420.5 10.5h7v5h-7z"
       id="path358" />
    <path
       d="M427 11v4h-6v-4h6m1-1h-8v6h8z"
       fill="gray"
       id="path360" />
    <g
       id="g376">
      <path
         d="M291.2 66.7v-6.4h1.3v5.3h3.2v1.1zM310.8 64.6l1.3-.1c.1.4.2.7.5.9.2.2.5.3.9.3s.7-.1.9-.3c.2-.2.3-.4.3-.6 0-.2 0-.3-.1-.4-.1-.1-.2-.2-.5-.3-.2-.1-.5-.1-1-.3-.7-.2-1.2-.4-1.5-.6-.4-.4-.6-.8-.6-1.3 0-.3.1-.6.3-.9.2-.3.5-.5.8-.7.3-.1.8-.2 1.3-.2.8 0 1.4.2 1.8.5.4.4.6.8.6 1.4l-1.3.1c-.1-.3-.2-.6-.4-.7-.2-.1-.5-.2-.8-.2-.4 0-.7.1-.9.2-.1.1-.2.2-.2.4s.1.3.2.4c.2.1.6.3 1.2.4.6.2 1.1.3 1.4.5.3.2.5.4.7.7.2.3.3.6.3 1s-.1.7-.3 1c-.2.3-.5.6-.9.7-.4.2-.8.2-1.4.2-.8 0-1.4-.2-1.9-.6-.3-.2-.6-.8-.7-1.5zM300.3 67.5l1.7-.2c0 .4.2.6.3.8.1.2.4.3.7.3.4 0 .7-.2.9-.5.3-.3.4-1 .5-2.1-.4.5-1 .8-1.7.8s-1.4-.3-1.9-.8c-.5-.6-.8-1.3-.8-2.2 0-.9.3-1.7.8-2.3.6-.6 1.3-.9 2.1-.9.9 0 1.7.4 2.3 1.1.6.7.9 1.9.9 3.6 0 1.7-.3 2.9-.9 3.7-.6.8-1.5 1.1-2.5 1.1-.7 0-1.3-.2-1.8-.6-.2-.5-.5-1-.6-1.8zm4-3.9c0-.6-.1-1-.4-1.3-.3-.3-.6-.5-.9-.5-.3 0-.6.1-.8.4-.2.3-.3.7-.3 1.3 0 .6.1 1 .4 1.3.2.3.5.4.9.4.3 0 .6-.1.9-.4.1-.3.2-.7.2-1.2z"
         fill="#3e3f3b"
         id="path362" />
      <g
         id="g368">
        <path
           clip-rule="evenodd"
           fill="#c3c3c3"
           fill-rule="evenodd"
           d="M280.5 62.5h7v5h-7z"
           id="path364" />
        <path
           d="M287 63v4h-6v-4h6m1-1h-8v6h8z"
           fill="gray"
           id="path366" />
      </g>
      <g
         id="g374">
        <path
           clip-rule="evenodd"
           fill="#c3c3c3"
           fill-rule="evenodd"
           d="M319.5 62.5h7v5h-7z"
           id="path370" />
        <path
           d="M326 63v4h-6v-4h6m1-1h-8v6h8z"
           fill="gray"
           id="path372" />
      </g>
    </g>
    <g
       id="g396">
      <path
         d="M342.2 66.7v-6.4h1.3v5.3h3.2v1.1zM361.8 64.6l1.3-.1c.1.4.2.7.5.9.2.2.5.3.9.3s.7-.1.9-.3c.2-.2.3-.4.3-.6 0-.2 0-.3-.1-.4-.1-.1-.2-.2-.5-.3-.2-.1-.5-.1-1-.3-.7-.2-1.2-.4-1.5-.6-.4-.4-.6-.8-.6-1.3 0-.3.1-.6.3-.9.2-.3.5-.5.8-.7.3-.1.8-.2 1.3-.2.8 0 1.4.2 1.8.5.4.4.6.8.6 1.4l-1.3.1c-.1-.3-.2-.6-.4-.7-.2-.1-.5-.2-.8-.2-.4 0-.7.1-.9.2-.1.1-.2.2-.2.4s.1.3.2.4c.2.1.6.3 1.2.4.6.2 1.1.3 1.4.5.3.2.5.4.7.7.2.3.3.6.3 1s-.1.7-.3 1c-.2.3-.5.6-.9.7-.4.2-.8.2-1.4.2-.8 0-1.4-.2-1.9-.6-.3-.2-.6-.8-.7-1.5z"
         fill="#3e3f3b"
         id="path378" />
      <g
         fill="#3e3f3b"
         id="g382">
        <path
           d="M352.6 69.6h-1.8v-6.7c-.7.6-1.4 1.1-2.3 1.4v-1.6c.5-.2 1-.4 1.5-.9.5-.4.9-.9 1.1-1.5h1.4v9.3zM359.1 69.6h-1.8v-6.7c-.7.6-1.4 1.1-2.3 1.4v-1.6c.5-.2 1-.4 1.5-.9.5-.4.9-.9 1.1-1.5h1.4v9.3z"
           id="path380" />
      </g>
      <g
         id="g388">
        <path
           clip-rule="evenodd"
           fill="#c3c3c3"
           fill-rule="evenodd"
           d="M331.5 62.5h7v5h-7z"
           id="path384" />
        <path
           d="M338 63v4h-6v-4h6m1-1h-8v6h8z"
           fill="gray"
           id="path386" />
      </g>
      <g
         id="g394">
        <path
           clip-rule="evenodd"
           fill="#c3c3c3"
           fill-rule="evenodd"
           d="M370.5 62.5h7v5h-7z"
           id="path390" />
        <path
           d="M377 63v4h-6v-4h6m1-1h-8v6h8z"
           fill="gray"
           id="path392" />
      </g>
    </g>
    <g
       id="g416">
      <path
         d="M392.2 66.7v-6.4h1.3v5.3h3.2v1.1zM411.8 64.6l1.3-.1c.1.4.2.7.5.9.2.2.5.3.9.3s.7-.1.9-.3c.2-.2.3-.4.3-.6 0-.2 0-.3-.1-.4-.1-.1-.2-.2-.5-.3-.2-.1-.5-.1-1-.3-.7-.2-1.2-.4-1.5-.6-.4-.4-.6-.8-.6-1.3 0-.3.1-.6.3-.9.2-.3.5-.5.8-.7.3-.1.8-.2 1.3-.2.8 0 1.4.2 1.8.5.4.4.6.8.6 1.4l-1.3.1c-.1-.3-.2-.6-.4-.7-.2-.1-.5-.2-.8-.2-.4 0-.7.1-.9.2-.1.1-.2.2-.2.4s.1.3.2.4c.2.1.6.3 1.2.4.6.2 1.1.3 1.4.5.3.2.5.4.7.7.2.3.3.6.3 1s-.1.7-.3 1c-.2.3-.5.6-.9.7-.4.2-.8.2-1.4.2-.8 0-1.4-.2-1.9-.6-.3-.2-.6-.8-.7-1.5z"
         fill="#3e3f3b"
         id="path398" />
      <g
         fill="#3e3f3b"
         id="g402">
        <path
           d="M402.2 69.6h-1.8v-6.7c-.7.6-1.4 1.1-2.3 1.4v-1.6c.5-.2 1-.4 1.5-.9.5-.4.9-.9 1.1-1.5h1.4v9.3zM404.8 67.2l1.7-.2c.1.4.2.8.4 1 .2.2.5.3.9.3s.7-.1.9-.4c.3-.3.4-.7.4-1.1 0-.4-.1-.8-.4-1.1-.3-.3-.5-.4-.9-.4-.2 0-.5 0-.8.1l.2-1.5c.5 0 .9-.1 1.1-.3.3-.2.4-.5.4-.9 0-.3-.1-.6-.3-.7-.2-.2-.4-.3-.7-.3-.3 0-.6.1-.8.3-.2.2-.3.5-.4.9l-1.6-.3c.1-.6.3-1 .5-1.3.2-.3.6-.6 1-.8.4-.2.9-.3 1.4-.3.9 0 1.6.3 2.1.8.4.5.7 1 .7 1.5 0 .8-.4 1.5-1.3 2 .5.1 1 .4 1.3.8.3.4.5.9.5 1.4 0 .8-.3 1.5-.9 2.1-.6.6-1.3.9-2.2.9-.8 0-1.5-.2-2.1-.7-.7-.4-1-1-1.1-1.8z"
           id="path400" />
      </g>
      <g
         id="g408">
        <path
           clip-rule="evenodd"
           fill="#c3c3c3"
           fill-rule="evenodd"
           d="M381.5 62.5h7v5h-7z"
           id="path404" />
        <path
           d="M388 63v4h-6v-4h6m1-1h-8v6h8z"
           fill="gray"
           id="path406" />
      </g>
      <g
         id="g414">
        <path
           clip-rule="evenodd"
           fill="#c3c3c3"
           fill-rule="evenodd"
           d="M420.5 62.5h7v5h-7z"
           id="path410" />
        <path
           d="M427 63v4h-6v-4h6m1-1h-8v6h8z"
           fill="gray"
           id="path412" />
      </g>
    </g>
    <g
       id="g436">
      <path
         d="M442.2 66.7v-6.4h1.3v5.3h3.2v1.1zM461.8 64.6l1.3-.1c.1.4.2.7.5.9.2.2.5.3.9.3s.7-.1.9-.3c.2-.2.3-.4.3-.6 0-.2 0-.3-.1-.4-.1-.1-.2-.2-.5-.3-.2-.1-.5-.1-1-.3-.7-.2-1.2-.4-1.5-.6-.4-.4-.6-.8-.6-1.3 0-.3.1-.6.3-.9.2-.3.5-.5.8-.7.3-.1.8-.2 1.3-.2.8 0 1.4.2 1.8.5.4.4.6.8.6 1.4l-1.3.1c-.1-.3-.2-.6-.4-.7-.2-.1-.5-.2-.8-.2-.4 0-.7.1-.9.2-.1.1-.2.2-.2.4s.1.3.2.4c.2.1.6.3 1.2.4.6.2 1.1.3 1.4.5.3.2.5.4.7.7.2.3.3.6.3 1s-.1.7-.3 1c-.2.3-.5.6-.9.7-.4.2-.8.2-1.4.2-.8 0-1.4-.2-1.9-.6-.3-.2-.6-.8-.7-1.5z"
         fill="#3e3f3b"
         id="path418" />
      <g
         fill="#3e3f3b"
         id="g422">
        <path
           d="M452.2 69.6h-1.8v-6.7c-.7.6-1.4 1.1-2.3 1.4v-1.6c.5-.2 1-.4 1.5-.9.5-.4.9-.9 1.1-1.5h1.4v9.3zM454.9 67.3l1.8-.2c.1.4.2.7.5 1 .2.2.5.4.9.4s.7-.2.9-.5c.3-.3.4-.8.4-1.4 0-.6-.1-1-.4-1.3-.3-.3-.6-.4-1-.4-.5 0-1 .2-1.4.7l-1.4-.2.9-4.8h4.7v1.7h-3.4l-.3 1.6c.4-.2.8-.3 1.2-.3.8 0 1.5.3 2 .9.6.6.8 1.3.8 2.2 0 .8-.2 1.4-.7 2.1-.6.8-1.4 1.2-2.5 1.2-.9 0-1.6-.2-2.1-.7-.5-.7-.8-1.3-.9-2z"
           id="path420" />
      </g>
      <g
         id="g428">
        <path
           clip-rule="evenodd"
           fill="#c3c3c3"
           fill-rule="evenodd"
           d="M431.5 62.5h7v5h-7z"
           id="path424" />
        <path
           d="M438 63v4h-6v-4h6m1-1h-8v6h8z"
           fill="gray"
           id="path426" />
      </g>
      <g
         id="g434">
        <path
           clip-rule="evenodd"
           fill="#c3c3c3"
           fill-rule="evenodd"
           d="M470.5 62.5h7v5h-7z"
           id="path430" />
        <path
           d="M477 63v4h-6v-4h6m1-1h-8v6h8z"
           fill="gray"
           id="path432" />
      </g>
    </g>
    <g
       id="g494">
      <path
         d="M480 56H279c-1.1 0-2-.9-2-2V22c0-1.1.9-2 2-2h201c1.1 0 2 .9 2 2v32c0 1.1-.9 2-2 2z"
         clip-rule="evenodd"
         fill="#3e3f3b"
         fill-rule="evenodd"
         id="path438" />
      <path
         clip-rule="evenodd"
         fill="#1a1a1a"
         fill-rule="evenodd"
         d="M280 23.8h49v29.7h-49z"
         id="path440" />
      <path
         d="M328.5 24.3V53h-48V24.3h48m1-1h-50V54h50z"
         fill="gray"
         id="path442" />
      <path
         clip-rule="evenodd"
         fill="#ccc"
         fill-rule="evenodd"
         d="M295.7 50.5h17.6v3.3h-17.6z"
         id="path444" />
      <path
         d="M313.1 50.7v2.9h-17.2v-2.9h17.2m.4-.4h-18V54h18z"
         fill="#1a1a1a"
         id="path446" />
      <g
         id="g450">
        <path
           clip-rule="evenodd"
           fill="#ccc"
           fill-rule="evenodd"
           d="M292.8 20h3.3v3.7h-3.3zM302.8 20h3.3v3.7h-3.3zM312.9 20h3.3v3.7h-3.3z"
           id="path448" />
      </g>
      <g
         id="g464">
        <path
           clip-rule="evenodd"
           fill="#1a1a1a"
           fill-rule="evenodd"
           d="M330 23.8h49v29.7h-49z"
           id="path452" />
        <path
           d="M378.5 24.3V53h-48V24.3h48m1-1h-50V54h50z"
           fill="gray"
           id="path454" />
        <path
           clip-rule="evenodd"
           fill="#ccc"
           fill-rule="evenodd"
           d="M345.7 50.5h17.6v3.3h-17.6z"
           id="path456" />
        <path
           d="M363.1 50.7v2.9h-17.2v-2.9h17.2m.4-.4h-18V54h18z"
           fill="#1a1a1a"
           id="path458" />
        <g
           id="g462">
          <path
             clip-rule="evenodd"
             fill="#ccc"
             fill-rule="evenodd"
             d="M342.8 20h3.3v3.7h-3.3zM352.8 20h3.3v3.7h-3.3zM362.9 20h3.3v3.7h-3.3z"
             id="path460" />
        </g>
      </g>
      <g
         id="g478">
        <path
           clip-rule="evenodd"
           fill="#1a1a1a"
           fill-rule="evenodd"
           d="M380 23.8h49v29.7h-49z"
           id="path466" />
        <path
           d="M428.4 24.3V53h-48V24.3h48m1-1h-50V54h50z"
           fill="gray"
           id="path468" />
        <path
           clip-rule="evenodd"
           fill="#ccc"
           fill-rule="evenodd"
           d="M395.6 50.5h17.6v3.3h-17.6z"
           id="path470" />
        <path
           d="M413 50.7v2.9h-17.2v-2.9H413m.5-.4h-18V54h18z"
           fill="#1a1a1a"
           id="path472" />
        <g
           id="g476">
          <path
             clip-rule="evenodd"
             fill="#ccc"
             fill-rule="evenodd"
             d="M392.8 20h3.3v3.7h-3.3zM402.8 20h3.3v3.7h-3.3zM412.8 20h3.3v3.7h-3.3z"
             id="path474" />
        </g>
      </g>
      <g
         id="g492">
        <path
           clip-rule="evenodd"
           fill="#1a1a1a"
           fill-rule="evenodd"
           d="M429.9 23.8h49v29.7h-49z"
           id="path480" />
        <path
           d="M478.4 24.3V53h-48V24.3h48m1-1h-50V54h50z"
           fill="gray"
           id="path482" />
        <path
           clip-rule="evenodd"
           fill="#ccc"
           fill-rule="evenodd"
           d="M445.6 50.5h17.6v3.3h-17.6z"
           id="path484" />
        <path
           d="M463 50.7v2.9h-17.2v-2.9H463m.4-.4h-18V54h18z"
           fill="#1a1a1a"
           id="path486" />
        <g
           id="g490">
          <path
             clip-rule="evenodd"
             fill="#ccc"
             fill-rule="evenodd"
             d="M442.7 20h3.3v3.7h-3.3zM452.8 20h3.3v3.7h-3.3zM462.8 20h3.3v3.7h-3.3z"
             id="path488" />
        </g>
      </g>
    </g>
  </g>
  <g
     id="g502">
    <path
       clip-rule="evenodd"
       fill="#c3c3c3"
       fill-rule="evenodd"
       d="M256.5 10.5h7v5h-7z"
       id="path498" />
    <path
       d="M263 11v4h-6v-4h6m1-1h-8v6h8z"
       fill="gray"
       id="path500" />
  </g>
  <g
     id="g508">
    <path
       clip-rule="evenodd"
       fill="#c3c3c3"
       fill-rule="evenodd"
       d="M266.5 10.5h7v5h-7z"
       id="path504" />
    <path
       d="M273 11v4h-6v-4h6m1-1h-8v6h8z"
       fill="gray"
       id="path506" />
  </g>
  <g
     fill="#1a1a1a"
     id="g512">
    <path
       d="M20 62.1l.8.3c-.1.5-.3.8-.6 1-.3.2-.7.3-1.1.3-.6 0-1-.2-1.4-.6-.4-.4-.6-.9-.6-1.6 0-.7.2-1.3.6-1.7.4-.4.9-.6 1.5-.6.5 0 1 .2 1.3.5.2.2.3.4.4.8l-.9.2c-.1-.2-.2-.4-.3-.5-.1-.1-.4-.2-.6-.2-.3 0-.6.1-.8.3-.2.2-.3.7-.3 1.2s.1.9.3 1.2c.2.3.4.3.8.3.2 0 .4-.1.6-.2.2-.1.2-.4.3-.7zM21.6 63.6v-4.3h.9v3.5h2.2v.7h-3.1zM29.1 63.6h-.9l-.4-1h-1.7l-.4 1h-.9l1.7-4.3h.9zm-1.6-1.7l-.6-1.6-.6 1.6zM29.4 62.2l.8-.1c.1.3.2.5.3.6.1.1.4.2.6.2.3 0 .5-.1.6-.2.1-.1.2-.3.2-.4 0-.1 0-.2-.1-.3-.1-.1-.2-.1-.3-.2-.1 0-.3-.1-.7-.2-.5-.1-.8-.3-1-.4-.3-.2-.4-.5-.4-.9 0-.2.1-.4.2-.6.1-.2.3-.3.5-.4.2-.1.5-.1.8-.1.5 0 .9.1 1.2.4.3.3.4.6.4.9h-.9c0-.2-.1-.4-.2-.5h-.3c-.3 0-.4.1-.6.2-.1.1-.1.2-.1.3 0 .1 0 .2.1.3.1.1.4.2.8.3.4.1.7.2.9.3.2.1.4.3.5.4.1.2.2.4.2.7 0 .2-.1.5-.2.7-.1.2-.3.4-.6.5-.2.1-.6.2-.9.2-.5 0-1-.1-1.3-.4-.3-.4-.5-.8-.5-1.3zM33.4 62.2l.8-.1c.1.3.2.5.3.6.1.1.4.2.6.2.3 0 .5-.1.6-.2.1-.1.2-.3.2-.4 0-.1 0-.2-.1-.3-.1-.1-.2-.1-.3-.2-.1 0-.3-.1-.7-.2-.5-.1-.8-.3-1-.4-.3-.2-.4-.5-.4-.9 0-.2.1-.4.2-.6.1-.2.3-.3.5-.4.2-.1.5-.1.8-.1.5 0 .9.1 1.2.4.3.3.4.6.4.9h-.9c0-.2-.1-.4-.2-.5h-.3c-.3 0-.4.1-.6.2-.1.1-.1.2-.1.3 0 .1 0 .2.1.3.1.1.4.2.8.3.4.1.7.2.9.3.2.1.4.3.5.4.1.2.2.4.2.7 0 .2-.1.5-.2.7-.1.2-.3.4-.6.5-.2.1-.6.2-.9.2-.5 0-1-.1-1.3-.4-.3-.4-.5-.8-.5-1.3zM41.2 63.6h-.8v-3.1c-.3.3-.7.5-1.1.6v-.7c.2-.1.4-.2.7-.4.3-.2.4-.4.5-.7h.7zM19.8 68.6v-4.3h.9v3.5h2.2v.7h-3.1zM27.3 68.6h-.9l-.4-1h-1.7l-.4 1H23l1.7-4.3h.9zm-1.6-1.7l-.6-1.6-.6 1.6zM27.5 67.2l.8-.1c.1.3.2.5.3.6.1.1.4.2.6.2.3 0 .5-.1.6-.2.1-.1.2-.3.2-.4 0-.1 0-.2-.1-.3.1.1 0 0-.1 0s-.3-.1-.7-.2c-.5-.1-.8-.3-1-.4-.3-.2-.4-.5-.4-.9 0-.2.1-.4.2-.6.1-.2.3-.3.5-.4.2-.1.5-.1.8-.1.5 0 .9.1 1.2.4.3.3.4.6.4.9h-.9c0-.2-.1-.4-.2-.5 0-.2-.2-.2-.4-.2-.3 0-.4.1-.6.2-.1.1-.1.2-.1.3 0 .1 0 .2.1.3.1.1.4.2.8.3.4.1.7.2.9.3.2.1.4.3.5.4.1.2.2.4.2.7 0 .2-.1.5-.2.7-.1.2-.3.4-.6.5-.2.1-.6.2-.9.2-.5 0-1-.1-1.3-.4-.3-.4-.5-.8-.6-1.3zM31.8 68.6v-4.3H35v.7h-2.3v1h2.2v.7h-2.2v1.2H35v.7zM35.8 68.6v-4.3h1.8c.5 0 .8 0 1 .1.2.1.4.2.5.4.1.2.2.4.2.7 0 .3-.1.6-.3.8-.2.2-.5.3-.8.4.2.1.3.2.5.4s.3.4.5.7l.5.8h-1l-.7-.9c-.2-.3-.4-.5-.5-.6-.1-.1-.2-.1-.3-.2H36.6v1.8h-.8zm.8-2.4h.6c.4 0 .7 0 .8-.1.1-.1.2-.1.2-.2s.1-.2.1-.3c0-.1 0-.3-.1-.3s-.2-.1-.3-.2H36.6z"
       id="path510" />
  </g>
  <path
     stroke-miterlimit="10"
     d="M43.5 69.5h-28c-3.3 0-6-2.7-6-6v0c0-3.3 2.7-6 6-6h28c3.3 0 6 2.7 6 6v0c0 3.3-2.7 6-6 6z"
     clip-rule="evenodd"
     fill="none"
     stroke="#1a1a1a"
     id="path514" />
  <path
     d="M263.2 19c0-.8-.7-1.5-1.5-1.5s-1.5.7-1.5 1.5c0 .7.4 1.2 1 1.4V26h1v-5.6c.6-.2 1-.7 1-1.4zM272 19c0-.8-.7-1.5-1.5-1.5s-1.5.7-1.5 1.5c0 .7.4 1.2 1 1.4V26h1v-5.6c.6-.2 1-.7 1-1.4z"
     fill="#1a1a1a"
     id="path516" />
  <path
     data-cv-id="PORT-0"
     fill="none"
     d="M55.179 25.131h22.189V52H55.179z"
     id="path518" />
  <path
     data-cv-id="PORT-1"
     fill="none"
     d="M78.884 25.131h22.189V52H78.884z"
     id="path520" />
  <path
     data-cv-id="PORT-2"
     fill="none"
     d="M105.77 25.131h22.189V52H105.77z"
     id="path522" />
  <path
     data-cv-id="PORT-3"
     fill="none"
     d="M129.072 25.131h22.189V52h-22.189z"
     id="path524" />
  <path
     data-cv-id="PORT-4"
     fill="none"
     d="M155.241 25.131h22.189V52h-22.189z"
     id="path526" />
  <path
     data-cv-id="PORT-5"
     fill="none"
     d="M178.9 25.131h22.189V52H178.9z"
     id="path528" />
  <path
     data-cv-id="PORT-6"
     fill="none"
     d="M205.5 25.131h22.189V52H205.5z"
     id="path530" />
  <path
     data-cv-id="PORT-7"
     fill="none"
     d="M228.708 25.131h22.189V52h-22.189z"
     id="path532" />
  <path
     data-cv-id="PORT-8"
     fill="none"
     d="M281.405 25.131h22.189V52h-22.189z"
     id="path534" />
  <path
     data-cv-id="PORT-9"
     fill="none"
     d="M305.086 25.131h22.189V52h-22.189z"
     id="path536" />
  <path
     data-cv-id="PORT-10"
     fill="none"
     d="M331.434 25.131h22.189V52h-22.189z"
     id="path538" />
  <path
     data-cv-id="PORT-11"
     fill="none"
     d="M354.735 25.131h22.189V52h-22.189z"
     id="path540" />
  <path
     data-cv-id="PORT-12"
     fill="none"
     d="M381.263 25.131h22.189V52h-22.189z"
     id="path542" />
  <path
     data-cv-id="PORT-13"
     fill="none"
     d="M405.102 25.131h22.189V52h-22.189z"
     id="path544" />
  <path
     data-cv-id="PORT-14"
     fill="none"
     d="M431.63 25.131h22.189V52H431.63z"
     id="path546" />
  <path
     data-cv-id="PORT-15"
     fill="none"
     d="M454.931 25.131h22.189V52h-22.189z"
     id="path548" />
  <path
     data-cv-id="PORT-16"
     fill="none"
     d="M489.524 25.131h22.189V52h-22.189z"
     id="path550" />
  <path
     data-cv-id="PORT-17"
     fill="none"
     d="M513.184 25.131h22.189V52h-22.189z"
     id="path552" />
  <text
     xml:space="preserve"
     style="font-style:normal;font-weight:normal;font-size:40px;line-height:1.25;font-family:sans-serif;fill:#000000;fill-opacity:1;stroke:none"
     x="32.953934"
     y="32.395393"
     id="text564"><tspan
       sodipodi:role="line"
       id="tspan562"
       x="32.953934"
       y="32.395393" /></text>
</svg>
