<?xml version="1.0" encoding="UTF-8" standalone="no"?>
<svg
   xmlns:dc="http://purl.org/dc/elements/1.1/"
   xmlns:cc="http://creativecommons.org/ns#"
   xmlns:rdf="http://www.w3.org/1999/02/22-rdf-syntax-ns#"
   xmlns:svg="http://www.w3.org/2000/svg"
   xmlns="http://www.w3.org/2000/svg"
   xmlns:sodipodi="http://sodipodi.sourceforge.net/DTD/sodipodi-0.dtd"
   xmlns:inkscape="http://www.inkscape.org/namespaces/inkscape"
   version="1.1"
   id="NCS560-FILLER-FTLayer_1"
   x="0"
   y="0"
   viewBox="0 0 1233.7434 278.3029"
   xml:space="preserve"
   width="1233.743"
   height="278.303"
   sodipodi:docname="NCS560-FILLER-FT.svg"
   inkscape:version="1.0.1 (3bc2e813f5, 2020-09-07)"><metadata
     id="metadata61"><rdf:RDF><cc:Work
         rdf:about=""><dc:format>image/svg+xml</dc:format><dc:type
           rdf:resource="http://purl.org/dc/dcmitype/StillImage" /></cc:Work></rdf:RDF></metadata><defs
     id="defs59" /><sodipodi:namedview
     pagecolor="#ffffff"
     bordercolor="#666666"
     borderopacity="1"
     objecttolerance="10"
     gridtolerance="10"
     guidetolerance="10"
     inkscape:pageopacity="0"
     inkscape:pageshadow="2"
     inkscape:window-width="1280"
     inkscape:window-height="658"
     id="namedview57"
     showgrid="false"
     inkscape:zoom="0.8445843"
     inkscape:cx="616.87152"
     inkscape:cy="139.1515"
     inkscape:window-x="-6"
     inkscape:window-y="-6"
     inkscape:window-maximized="1"
     inkscape:current-layer="NCS560-FILLER-FTLayer_1" /><style
     type="text/css"
     id="NCS560-FILLER-FTstyle3" /><g
     id="NCS560-FILLER-FTA907-FAN-E"
     transform="rotate(90 616.884 616.837)"><path
       class="st0"
       id="NCS560-FILLER-FTrect6"
       clip-rule="evenodd"
       fill="#d8d8d8"
       fill-rule="evenodd"
       stroke="gray"
       stroke-width=".24"
       stroke-linecap="round"
       stroke-linejoin="round"
       stroke-miterlimit="3"
       d="M37 5.5h203.2v1220.6H37z" /><path
       class="st1"
       id="NCS560-FILLER-FTpolygon8"
       clip-rule="evenodd"
       fill="#ababab"
       fill-rule="evenodd"
       d="M229.5 1226.1V5.5h10.7v1220.6z" /><path
       class="st2"
       d="M240.2 1226.1h-10.7m0-1220.6h10.7v1220.6"
       id="NCS560-FILLER-FTpath10"
       fill="none"
       stroke="gray"
       stroke-width=".24"
       stroke-linecap="round"
       stroke-linejoin="round"
       stroke-miterlimit="3" /><path
       class="st1"
       id="NCS560-FILLER-FTpolygon12"
       clip-rule="evenodd"
       fill="#ababab"
       fill-rule="evenodd"
       d="M48.3 10.8h180.6V.1H48.3z" /><path
       class="st2"
       d="M48.3.1v10.7m180.6 0V.1H48.3"
       id="NCS560-FILLER-FTpath14"
       fill="none"
       stroke="gray"
       stroke-width=".24"
       stroke-linecap="round"
       stroke-linejoin="round"
       stroke-miterlimit="3" /><path
       class="st1"
       id="NCS560-FILLER-FTpolygon16"
       clip-rule="evenodd"
       fill="#ababab"
       fill-rule="evenodd"
       d="M228.9 1222.9H48.3v10.7h180.6z" /><path
       class="st2"
       d="M228.9 1233.6v-10.7m-180.6 0v10.7h180.6"
       id="NCS560-FILLER-FTpath18"
       fill="none"
       stroke="gray"
       stroke-width=".24"
       stroke-linecap="round"
       stroke-linejoin="round"
       stroke-miterlimit="3" /><path
       class="st3"
       d="M45.3 1166.8h186.5c1.4 0 2.7-1.2 2.7-2.7V57.6c0-1.5-1.3-2.7-2.7-2.7h-34.1c-1.5 0-2.7-1.2-2.7-2.7V6.8c0-1.5-1.3-2.7-2.7-2.7h-147c-1.5 0-2.7 1.2-2.7 2.7v1157.3c0 1.5 1.2 2.7 2.7 2.7z"
       id="NCS560-FILLER-FTpath20"
       clip-rule="evenodd"
       fill="#eee"
       fill-rule="evenodd"
       stroke="gray"
       stroke-linecap="round"
       stroke-linejoin="round"
       stroke-miterlimit="3" /><path
       class="st4"
       d="M55 1156.7h167.1c1.3 0 1.9-1 1.9-2.5V66.7c0-1.5-.7-3-1.9-3h-30.5c-1.3 0-2.5-.8-2.5-2.3V16.8c0-1.5-1-3.1-2.3-3.1H55c-1.3 0-2 1.6-2 3.1v1137.4c0 1.4.7 2.5 2 2.5z"
       id="NCS560-FILLER-FTpath22"
       clip-rule="evenodd"
       fill="#bfbfbf"
       fill-rule="evenodd"
       stroke="gray"
       stroke-linecap="round"
       stroke-linejoin="round"
       stroke-miterlimit="3" /><g
       id="NCS560-FILLER-FTg24"><path
         class="st5"
         d="M5.9 1172.5h177.8c3.1 0 5.6 2.5 5.6 5.6v39.5c0 3.2-2.6 5.6-5.6 5.6H5.9c-3.2 0-5.6-2.5-5.6-5.6v-39.5c-.1-3.1 2.4-5.6 5.6-5.6z"
         id="NCS560-FILLER-FTpath26"
         clip-rule="evenodd"
         fill="#d8d8d8"
         fill-rule="evenodd"
         stroke="gray"
         stroke-width=".5"
         stroke-linecap="round"
         stroke-linejoin="round"
         stroke-miterlimit="3" /><g
         id="NCS560-FILLER-FTg28"><path
           class="st6"
           d="M115.2 1197.9c0-6.1-4.9-11-10.9-11s-10.9 4.9-10.9 11c0 6 4.9 10.9 10.9 10.9 6.1 0 10.9-4.9 10.9-10.9z"
           id="NCS560-FILLER-FTpath30"
           clip-rule="evenodd"
           fill="#d8d8d8"
           fill-rule="evenodd"
           stroke="#a5a5a5"
           stroke-width="1.02"
           stroke-linecap="round"
           stroke-linejoin="round"
           stroke-miterlimit="3" /><path
           class="st7"
           id="NCS560-FILLER-FTline32"
           fill="none"
           stroke="#5f5f5f"
           stroke-width="3"
           stroke-miterlimit="3"
           d="M110.6 1198.1H97.9" /><path
           class="st7"
           id="NCS560-FILLER-FTline34"
           fill="none"
           stroke="#5f5f5f"
           stroke-width="3"
           stroke-miterlimit="3"
           d="M104.3 1204.5v-12.6" /><path
           class="st8"
           id="NCS560-FILLER-FTpolygon36"
           clip-rule="evenodd"
           fill="#595959"
           fill-rule="evenodd"
           d="M109.7 1198l-5.4 5.4-5.4-5.4 5.4-5.4z" /></g><g
         id="NCS560-FILLER-FTg38"><path
           class="st6"
           d="M171.7 1197.9c0-6.1-4.9-11-10.9-11s-10.9 4.9-10.9 11c0 6 4.9 10.9 10.9 10.9s10.9-4.9 10.9-10.9z"
           id="NCS560-FILLER-FTpath40"
           clip-rule="evenodd"
           fill="#d8d8d8"
           fill-rule="evenodd"
           stroke="#a5a5a5"
           stroke-width="1.02"
           stroke-linecap="round"
           stroke-linejoin="round"
           stroke-miterlimit="3" /><path
           class="st7"
           id="NCS560-FILLER-FTline42"
           fill="none"
           stroke="#5f5f5f"
           stroke-width="3"
           stroke-miterlimit="3"
           d="M167 1198.1h-12.7" /><path
           class="st7"
           id="NCS560-FILLER-FTline44"
           fill="none"
           stroke="#5f5f5f"
           stroke-width="3"
           stroke-miterlimit="3"
           d="M160.8 1204.5v-12.6" /><path
           class="st8"
           id="NCS560-FILLER-FTpolygon46"
           clip-rule="evenodd"
           fill="#595959"
           fill-rule="evenodd"
           d="M166.1 1198l-5.3 5.4-5.4-5.4 5.4-5.4z" /></g><g
         id="NCS560-FILLER-FTg48"><path
           class="st9"
           d="M29.2 1201.1c0-5.3-4.5-9.7-10-9.7s-10 4.4-10 9.7c0 5.8 4.5 10.2 10 10.2s10-4.4 10-10.2z"
           id="NCS560-FILLER-FTpath50"
           clip-rule="evenodd"
           fill="#ddd"
           fill-rule="evenodd" /><g
           id="NCS560-FILLER-FTg52"><g
             id="NCS560-FILLER-FTg54"><path
               class="st10"
               d="M18.9 1211.4c-5.4 0-9.7-4.7-9.7-10.4 0-5.5 4.2-9.7 9.7-9.7 5.7 0 10.4 4.4 10.4 9.7 0 5.5-4.8 10.4-10.4 10.4zm0-19.7c-5.3 0-9.3 4-9.3 9.3 0 5.5 4.2 10 9.3 10 5.3 0 10-4.7 10-10 0-5.1-4.5-9.3-10-9.3z"
               id="NCS560-FILLER-FTpath56"
               fill="#a5a5a5" /></g><g
             id="NCS560-FILLER-FTg58"><path
               class="st10"
               id="NCS560-FILLER-FTrect60"
               fill="#a5a5a5"
               d="M12.3 1200.2h13.8v2.3H12.3z" /></g><g
             id="NCS560-FILLER-FTg62"><path
               class="st10"
               id="NCS560-FILLER-FTrect64"
               fill="#a5a5a5"
               d="M18.1 1194.4h2.3v13.8h-2.3z" /></g></g></g></g><g
       id="NCS560-FILLER-FTg66"><path
         class="st5"
         d="M250 1181h2.1c2 0 3.5 1.6 3.5 3.5v0c0 2-1.6 3.5-3.5 3.5h-44.5c-3.1 0-5.6 2.6-5.6 5.6v32.5c0 3.1 2.6 5.6 5.6 5.6h64.9c3.1 0 5.6-2.6 5.6-5.6V7c0-3.2-2.6-5.6-5.6-5.6h-64.9c-3.1 0-5.6 2.5-5.6 5.6v32.4c0 3.1 2.6 5.6 5.6 5.6h44.5c2 0 3.5 1.6 3.5 3.5v0c0 2-1.6 3.5-3.5 3.5H250c-3.2 0-5.6 2.5-5.6 5.6v1117.6c0 3.2 2.5 5.8 5.6 5.8z"
         id="NCS560-FILLER-FTpath68"
         clip-rule="evenodd"
         fill="#d8d8d8"
         fill-rule="evenodd"
         stroke="gray"
         stroke-width=".5"
         stroke-linecap="round"
         stroke-linejoin="round"
         stroke-miterlimit="3" /><path
         class="st1"
         id="NCS560-FILLER-FTpolygon70"
         clip-rule="evenodd"
         fill="#ababab"
         fill-rule="evenodd"
         d="M251.7 1181V52.1h-7.3V1181z" /><path
         class="st1"
         id="NCS560-FILLER-FTpolygon72"
         clip-rule="evenodd"
         fill="#ababab"
         fill-rule="evenodd"
         d="M271 1231.8V1.3h7.2v1230.5z" /><g
         id="NCS560-FILLER-FTg74"><path
           class="st9"
           d="M229.6 20.9c0-5.3-4.5-9.7-10-9.7-5.4 0-10 4.4-10 9.7 0 5.8 4.5 10.2 10 10.2 5.5-.1 10-4.5 10-10.2z"
           id="NCS560-FILLER-FTpath76"
           clip-rule="evenodd"
           fill="#ddd"
           fill-rule="evenodd" /><g
           id="NCS560-FILLER-FTg78"><g
             id="NCS560-FILLER-FTg80"><path
               class="st10"
               d="M219.3 31.1c-5.4 0-9.7-4.7-9.7-10.4 0-5.5 4.2-9.7 9.7-9.7 5.7 0 10.4 4.4 10.4 9.7.1 5.6-4.8 10.4-10.4 10.4zm0-19.7c-5.3 0-9.3 4-9.3 9.3 0 5.5 4.2 10 9.3 10 5.3 0 10-4.7 10-10 0-5.1-4.5-9.3-10-9.3z"
               id="NCS560-FILLER-FTpath82"
               fill="#a5a5a5" /></g><g
             id="NCS560-FILLER-FTg84"><path
               class="st10"
               id="NCS560-FILLER-FTrect86"
               fill="#a5a5a5"
               d="M212.8 19.9h13.8v2.3h-13.8z" /></g><g
             id="NCS560-FILLER-FTg88"><path
               class="st10"
               id="NCS560-FILLER-FTrect90"
               fill="#a5a5a5"
               d="M218.6 14.2h2.3V28h-2.3z" /></g></g></g><g
         id="NCS560-FILLER-FTg92"><path
           class="st9"
           d="M229.7 1209c0-5.3-4.5-9.7-10-9.7-5.4 0-10 4.4-10 9.7 0 5.8 4.5 10.2 10 10.2s10-4.4 10-10.2z"
           id="NCS560-FILLER-FTpath94"
           clip-rule="evenodd"
           fill="#ddd"
           fill-rule="evenodd" /><g
           id="NCS560-FILLER-FTg96"><g
             id="NCS560-FILLER-FTg98"><path
               class="st10"
               d="M219.4 1219.3c-5.4 0-9.7-4.7-9.7-10.4 0-5.5 4.2-9.7 9.7-9.7 5.7 0 10.4 4.4 10.4 9.7.1 5.5-4.8 10.4-10.4 10.4zm0-19.7c-5.3 0-9.3 4-9.3 9.3 0 5.5 4.2 10 9.3 10 5.3 0 10-4.7 10-10 0-5.1-4.5-9.3-10-9.3z"
               id="NCS560-FILLER-FTpath100"
               fill="#a5a5a5" /></g><g
             id="NCS560-FILLER-FTg102"><path
               class="st10"
               id="NCS560-FILLER-FTrect104"
               fill="#a5a5a5"
               d="M212.9 1208.1h13.8v2.3h-13.8z" /></g><g
             id="NCS560-FILLER-FTg106"><path
               class="st10"
               id="NCS560-FILLER-FTrect108"
               fill="#a5a5a5"
               d="M218.7 1202.3h2.3v13.8h-2.3z" /></g></g></g></g></g><text
     xml:space="preserve"
     style="font-style:normal;font-weight:normal;font-size:40px;line-height:1.25;font-family:sans-serif;fill:#000000;fill-opacity:1;stroke:none"
     x="358.75638"
     y="158.65793"
     id="text65"><tspan
       sodipodi:role="line"
       id="tspan63"
       x="358.75638"
       y="158.65793" /></text></svg>
