<?xml version="1.0" encoding="UTF-8" standalone="no"?>
<svg
   xmlns:dc="http://purl.org/dc/elements/1.1/"
   xmlns:cc="http://creativecommons.org/ns#"
   xmlns:rdf="http://www.w3.org/1999/02/22-rdf-syntax-ns#"
   xmlns:svg="http://www.w3.org/2000/svg"
   xmlns="http://www.w3.org/2000/svg"
   xmlns:sodipodi="http://sodipodi.sourceforge.net/DTD/sodipodi-0.dtd"
   xmlns:inkscape="http://www.inkscape.org/namespaces/inkscape"
   width="1209"
   height="120.3"
   viewBox="0 0 1209 120.3"
   version="1.1"
   id="svg1034"
   sodipodi:docname="N540-12Z20G-SYS-D_front_RSP.svg"
   inkscape:version="1.0.1 (3bc2e813f5, 2020-09-07)">
  <metadata
     id="metadata1040">
    <rdf:RDF>
      <cc:Work
         rdf:about="">
        <dc:format>image/svg+xml</dc:format>
        <dc:type
           rdf:resource="http://purl.org/dc/dcmitype/StillImage" />
      </cc:Work>
    </rdf:RDF>
  </metadata>
  <defs
     id="defs1038" />
  <sodipodi:namedview
     pagecolor="#ffffff"
     bordercolor="#666666"
     borderopacity="1"
     objecttolerance="10"
     gridtolerance="10"
     guidetolerance="10"
     inkscape:pageopacity="0"
     inkscape:pageshadow="2"
     inkscape:window-width="1280"
     inkscape:window-height="658"
     id="namedview1036"
     showgrid="false"
     inkscape:zoom="0.89412738"
     inkscape:cx="604.5"
     inkscape:cy="60.15"
     inkscape:window-x="-6"
     inkscape:window-y="-6"
     inkscape:window-maximized="1"
     inkscape:current-layer="svg1034" />
  <path
     fill="#333"
     d="M0 0h73v118H0z"
     id="path2" />
  <path
     d="M70.8 114c0 1.1-.9 2-2 2H4c-1.1 0-2-.9-2-2V4.7c0-1.1.9-2 2-2h64.9c1.1 0 2 .9 2 2V92z"
     fill="#c2c2c2"
     stroke="#000"
     stroke-miterlimit="10"
     id="path4" />
  <path
     fill="#505050"
     d="M22.9 17.1v-5.9h4.9V3.3h15.8v7.9h3.9v5.9h11.8v26.5H12.1V17.1z"
     id="path6" />
  <path
     d="M43.1 10.7v1H47v5.9h11.8v25.5H12.6V17.6h10.8v-5.9h4.9V3.8h14.8m1-1H27.3v7.9h-4.9v5.9H11.6v27.5h48.2V16.6H48v-5.9h-3.9V6.8z"
     id="path8" />
  <g
     fill="none"
     stroke="#fff"
     stroke-linecap="square"
     stroke-miterlimit="10"
     id="g12">
    <path
       d="M22.4 41.2V30.4M26.4 41.2V30.4M30.3 41.2V30.4M34.2 41.2V30.4M38.2 41.2V30.4M42.1 41.2V30.4M46 41.2V30.4M49.9 41.2V30.4"
       id="path10" />
  </g>
  <path
     fill="#c2c2c2"
     stroke="#000"
     stroke-linecap="square"
     stroke-miterlimit="10"
     d="M61.7 6.8h-9.8v7.8h9.8zM19.5 6.8H9.7v7.8h9.8z"
     id="path14" />
  <path
     d="M12 114.1c-.9 0-1.5-.8-1.5-1.6V60.3c0-.9.8-1.6 1.5-1.6h47.8c.9 0 1.5.8 1.5 1.6v52.2c0 .9-.8 1.6-1.5 1.6z"
     fill="#1a1a1a"
     id="path16" />
  <path
     d="M59.9 59.1c.7 0 1 .4 1 1.1v52.2c0 .7-.4 1.1-1 1.1H12c-.7 0-1-.4-1-1.1V60.2c0-.7.4-1.1 1-1.1h47.9m0-1.1H12c-1.1 0-2.1 1-2.1 2.2v52.2c0 1.2 1 2.2 2.1 2.2h47.8c1.1 0 2.1-1 2.1-2.2V60.2c.1-1.2-.9-2.2-2-2.2z"
     fill="#ccc"
     id="path18" />
  <g
     fill="#b3b3b3"
     id="g22">
    <path
       d="M23 105v3h2v-5h-4v2zM32 105v3h2v-5h-4v2zM40 105v3h2v-5h-4v2zM49 105v3h2v-5h-4v2z"
       id="path20" />
  </g>
  <path
     fill="#4d4d4d"
     d="M16.8 96.8h38.3v5.6H16.8z"
     id="path24" />
  <g
     fill="#b3b3b3"
     id="g28">
    <path
       d="M23 72v3h2v-5h-4v2zM32 72v3h2v-5h-4v2zM40 72v3h2v-5h-4v2zM49 72v3h2v-5h-4v2z"
       id="path26" />
  </g>
  <path
     fill="#4d4d4d"
     d="M16.8 63.8h38.3v5.6H16.8z"
     id="path30" />
  <path
     fill="#e6e6e6"
     d="M11 92h50v2H11zM11 78h50v2H11z"
     id="path32" />
  <path
     fill="#c2c2c2"
     d="M11 79h50v14H11z"
     id="path34" />
  <path
     fill="#333"
     d="M744.9 21.2h463.2v98.2H744.9z"
     id="path36" />
  <path
     d="M1207.2 22.1v96.4H745.8V22.1h461.4m1.8-1.8H744v100h465z"
     fill="#1a1a1a"
     id="path38" />
  <path
     fill="#4d4d4d"
     d="M745.5 22h55.3v96.5h-55.3z"
     id="path40" />
  <path
     d="M800.3 22.5V118H746V22.5h54.3m1-1H745V119h56.3z"
     fill="#a6a6a6"
     id="path42" />
  <g
     clip-rule="evenodd"
     fill="#856427"
     fill-rule="evenodd"
     id="g46">
    <path
       d="M750.4 47.5h1.1v4.3h-1.1zM753.7 47.5h1.1v4.3h-1.1zM760.2 47.5h1.1v4.3h-1.1zM756.9 47.5h1.1v4.3h-1.1zM763.4 47.5h1.1v4.3h-1.1zM766.6 47.5h1.1v4.3h-1.1zM771 47.5h1.1v4.3H771z"
       id="path44" />
  </g>
  <path
     d="M793.1 51.4v-8.8h4.4v8.8zm0-15.2v-9.8h4.4v9.8z"
     fill="#b3b3b3"
     id="path48" />
  <path
     d="M797 26.9v8.8h-3.4v-8.8h3.4m0 16.2v7.8h-3.4v-7.8h3.4m1-17.2h-5.4v10.8h5.4zm0 16.2h-5.4v9.7h5.4z"
     id="path50" />
  <path
     d="M793.1 114.2v-8.8h4.4v8.8zm0-14.1v-9.8h4.4v9.8z"
     fill="#b3b3b3"
     id="path52" />
  <path
     d="M797 90.8v8.8h-3.4v-8.8h3.4m0 15.2v7.8h-3.4V106h3.4m1-16.2h-5.4v10.8h5.4zm0 15.2h-5.4v9.8h5.4z"
     id="path54" />
  <path
     clip-rule="evenodd"
     fill="#737373"
     fill-rule="evenodd"
     d="M768.2 29.6h3.3V34h-3.3z"
     id="path56" />
  <path
     d="M771.1 30.1v3.4h-2.3v-3.4h2.3m1-1h-4.3v5.4h4.3z"
     fill="#333"
     id="path58" />
  <path
     clip-rule="evenodd"
     fill="#737373"
     fill-rule="evenodd"
     d="M773.6 29.6h3.3V34h-3.3z"
     id="path60" />
  <path
     d="M776.5 30.1v3.4h-2.3v-3.4h2.3m1-1h-4.3v5.4h4.3z"
     fill="#333"
     id="path62" />
  <path
     clip-rule="evenodd"
     fill="#737373"
     fill-rule="evenodd"
     d="M768.2 107.6h3.3v4.4h-3.3z"
     id="path64" />
  <path
     d="M771.1 108.1v3.4h-2.3v-3.4h2.3m1-1h-4.3v5.4h4.3z"
     fill="#333"
     id="path66" />
  <path
     clip-rule="evenodd"
     fill="#737373"
     fill-rule="evenodd"
     d="M773.6 107.6h3.3v4.4h-3.3z"
     id="path68" />
  <path
     d="M776.5 108.1v3.4h-2.3v-3.4h2.3m1-1h-4.3v5.4h4.3z"
     fill="#333"
     id="path70" />
  <g
     clip-rule="evenodd"
     fill="#856427"
     fill-rule="evenodd"
     id="g74">
    <path
       d="M750.4 85.5h1.1v4.3h-1.1zM753.7 85.5h1.1v4.3h-1.1zM760.2 85.5h1.1v4.3h-1.1zM756.9 85.5h1.1v4.3h-1.1zM763.4 85.5h1.1v4.3h-1.1zM766.6 85.5h1.1v4.3h-1.1zM771 85.5h1.1v4.3H771z"
       id="path72" />
  </g>
  <path
     d="M763.6 81.7c0-.6.1-1.2.7-1.7.8-.8 1.6-1.6 2.2-1.6h13.7c.6 0 1.4.7 2.1 1.5.1.5.3.9.6 1.3.1.2.2.4.3.5z"
     clip-rule="evenodd"
     fill="#e4e0dc"
     fill-rule="evenodd"
     id="path76" />
  <path
     d="M780.2 78.9c.4 0 1.1.6 1.6 1.2.1.4.3.8.5 1.1h-18.2c.1-.3.2-.6.5-.9.6-.6 1.4-1.4 1.9-1.4h13.7m0-1h-13.7c-.9 0-1.7.9-2.6 1.7-.9.9-.9 1.7-.9 2.6h20.8c0-.9-1-1.7-1-2.6-.8-.9-1.7-1.7-2.6-1.7z"
     fill="#a6a6a6"
     id="path78" />
  <g
     id="g84">
    <path
       d="M783 80.6c-.2-.2-.4-.3-.5-.5-.6-.6-1.2-1.2-1.9-1.6l-.1-.1h-14.3l-.1.1c-.7.4-1.3 1-1.9 1.6l-.5.5h-18V57.8h18.1c.2.2.5.3.7.4.6.3 1 .6 1.5 1.5l.1.3h14.7l.1-.3c.5-.8.9-1.1 1.4-1.5.2-.1.4-.3.6-.4H801v22.8z"
       fill="#e4e0dc"
       id="path80" />
    <path
       d="M800.3 58.3v21.8h-17.1l-.4-.4c-.6-.6-1.3-1.3-2-1.7l-.2-.1H765.9l-.2.1c-.7.4-1.4 1-2 1.7l-.4.4H746V58.3h17.4l.6.3c.5.3.9.5 1.3 1.3l.3.5H780.9l.3-.5c.4-.7.8-1 1.2-1.3.1-.1.3-.2.5-.3h17.4M782.8 57c-.8.9-1.7.9-2.5 2.4h-14.1c-.8-1.5-1.7-1.5-2.5-2.2H745V81h18.7c.8-.8 1.7-1.7 2.5-2.2h14.1c.8.5 1.7 1.4 2.5 2.2h18.5V57.3h-18.5z"
       fill="#a6a6a6"
       id="path82" />
  </g>
  <path
     clip-rule="evenodd"
     fill="#404040"
     fill-rule="evenodd"
     d="M767.4 75.2l-5.6-10.3H772zM779.4 64.4l-5.6 10.2H785z"
     id="path86" />
  <g
     id="g92">
    <path
       d="M766.5 59c-.7 0-1.5-.8-2.2-1.6-.6-.6-.7-1.1-.7-1.7h19.6c-.1.2-.2.4-.3.5-.2.4-.5.9-.6 1.3-.7.7-1.5 1.5-2.1 1.5z"
       clip-rule="evenodd"
       fill="#e4e0dc"
       fill-rule="evenodd"
       id="path88" />
    <path
       d="M782.4 56.1c-.2.3-.4.7-.5 1.1-.6.6-1.3 1.2-1.6 1.2h-13.7c-.5 0-1.3-.8-1.9-1.4-.3-.3-.4-.6-.5-.9h18.2m1.4-1H763c0 .9 0 1.7.9 2.6.9.9 1.7 1.7 2.6 1.7h13.7c.9 0 1.7-.9 2.6-1.7 0-.8 1-1.7 1-2.6z"
       fill="#a6a6a6"
       id="path90" />
  </g>
  <g
     id="g150">
    <path
       fill="#4d4d4d"
       d="M803.5 22h55.3v96.5h-55.3z"
       id="path94" />
    <path
       d="M858.3 22.5V118H804V22.5h54.3m1-1H803V119h56.3z"
       fill="#a6a6a6"
       id="path96" />
    <g
       clip-rule="evenodd"
       fill="#856427"
       fill-rule="evenodd"
       id="g100">
      <path
         d="M808.4 47.5h1.1v4.3h-1.1zM811.7 47.5h1.1v4.3h-1.1zM818.2 47.5h1.1v4.3h-1.1zM814.9 47.5h1.1v4.3h-1.1zM821.4 47.5h1.1v4.3h-1.1zM824.6 47.5h1.1v4.3h-1.1zM829 47.5h1.1v4.3H829z"
         id="path98" />
    </g>
    <path
       d="M851.1 51.4v-8.8h4.4v8.8zm0-15.2v-9.8h4.4v9.8z"
       fill="#b3b3b3"
       id="path102" />
    <path
       d="M855 26.9v8.8h-3.4v-8.8h3.4m0 16.2v7.8h-3.4v-7.8h3.4m1-17.2h-5.4v10.8h5.4zm0 16.2h-5.4v9.7h5.4z"
       id="path104" />
    <path
       d="M851.1 114.2v-8.8h4.4v8.8zm0-14.1v-9.8h4.4v9.8z"
       fill="#b3b3b3"
       id="path106" />
    <path
       d="M855 90.8v8.8h-3.4v-8.8h3.4m0 15.2v7.8h-3.4V106h3.4m1-16.2h-5.4v10.8h5.4zm0 15.2h-5.4v9.8h5.4z"
       id="path108" />
    <path
       clip-rule="evenodd"
       fill="#737373"
       fill-rule="evenodd"
       d="M826.2 29.6h3.3V34h-3.3z"
       id="path110" />
    <path
       d="M829.1 30.1v3.4h-2.3v-3.4h2.3m1-1h-4.3v5.4h4.3z"
       fill="#333"
       id="path112" />
    <path
       clip-rule="evenodd"
       fill="#737373"
       fill-rule="evenodd"
       d="M831.6 29.6h3.3V34h-3.3z"
       id="path114" />
    <path
       d="M834.5 30.1v3.4h-2.3v-3.4h2.3m1-1h-4.3v5.4h4.3z"
       fill="#333"
       id="path116" />
    <path
       clip-rule="evenodd"
       fill="#737373"
       fill-rule="evenodd"
       d="M826.2 107.6h3.3v4.4h-3.3z"
       id="path118" />
    <path
       d="M829.1 108.1v3.4h-2.3v-3.4h2.3m1-1h-4.3v5.4h4.3z"
       fill="#333"
       id="path120" />
    <path
       clip-rule="evenodd"
       fill="#737373"
       fill-rule="evenodd"
       d="M831.6 107.6h3.3v4.4h-3.3z"
       id="path122" />
    <path
       d="M834.5 108.1v3.4h-2.3v-3.4h2.3m1-1h-4.3v5.4h4.3z"
       fill="#333"
       id="path124" />
    <g
       clip-rule="evenodd"
       fill="#856427"
       fill-rule="evenodd"
       id="g128">
      <path
         d="M808.4 85.5h1.1v4.3h-1.1zM811.7 85.5h1.1v4.3h-1.1zM818.2 85.5h1.1v4.3h-1.1zM814.9 85.5h1.1v4.3h-1.1zM821.4 85.5h1.1v4.3h-1.1zM824.6 85.5h1.1v4.3h-1.1zM829 85.5h1.1v4.3H829z"
         id="path126" />
    </g>
    <g
       id="g134">
      <path
         d="M821.6 81.7c0-.6.1-1.2.7-1.7.8-.8 1.6-1.6 2.2-1.6h13.7c.6 0 1.4.7 2.1 1.5.1.5.3.9.6 1.3.1.2.2.4.3.5z"
         clip-rule="evenodd"
         fill="#e4e0dc"
         fill-rule="evenodd"
         id="path130" />
      <path
         d="M838.2 78.9c.4 0 1.1.6 1.6 1.2.1.4.3.8.5 1.1h-18.2c.1-.3.2-.6.5-.9.6-.6 1.4-1.4 1.9-1.4h13.7m0-1h-13.7c-.9 0-1.7.9-2.6 1.7-.9.9-.9 1.7-.9 2.6h20.8c0-.9-1-1.7-1-2.6-.8-.9-1.7-1.7-2.6-1.7z"
         fill="#a6a6a6"
         id="path132" />
    </g>
    <g
       id="g140">
      <path
         d="M841 80.6c-.2-.2-.4-.3-.5-.5-.6-.6-1.2-1.2-1.9-1.6l-.1-.1h-14.3l-.1.1c-.7.4-1.3 1-1.9 1.6l-.5.5h-18V57.8h18.1c.2.2.5.3.7.4.6.3 1 .6 1.5 1.5l.1.3h14.7l.1-.3c.5-.8.9-1.1 1.4-1.5.2-.1.4-.3.6-.4H859v22.8z"
         fill="#e4e0dc"
         id="path136" />
      <path
         d="M858.3 58.3v21.8h-17.1l-.4-.4c-.6-.6-1.3-1.3-2-1.7l-.2-.1H823.9l-.2.1c-.7.4-1.4 1-2 1.7l-.4.4H804V58.3h17.4l.6.3c.5.3.9.5 1.3 1.3l.3.5H838.9l.3-.5c.4-.7.8-1 1.2-1.3.1-.1.3-.2.5-.3h17.4M840.8 57c-.8.9-1.7.9-2.5 2.4h-14.1c-.8-1.5-1.7-1.5-2.5-2.2H803V81h18.7c.8-.8 1.7-1.7 2.5-2.2h14.1c.8.5 1.7 1.4 2.5 2.2h18.5V57.3h-18.5z"
         fill="#a6a6a6"
         id="path138" />
    </g>
    <path
       clip-rule="evenodd"
       fill="#404040"
       fill-rule="evenodd"
       d="M825.4 75.2l-5.6-10.3H830zM837.4 64.4l-5.6 10.2H843z"
       id="path142" />
    <g
       id="g148">
      <path
         d="M824.5 59c-.7 0-1.5-.8-2.2-1.6-.6-.6-.7-1.1-.7-1.7h19.6c-.1.2-.2.4-.3.5-.2.4-.5.9-.6 1.3-.7.7-1.5 1.5-2.1 1.5z"
         clip-rule="evenodd"
         fill="#e4e0dc"
         fill-rule="evenodd"
         id="path144" />
      <path
         d="M840.4 56.1c-.2.3-.4.7-.5 1.1-.6.6-1.3 1.2-1.6 1.2h-13.7c-.5 0-1.3-.8-1.9-1.4-.3-.3-.4-.6-.5-.9h18.2m1.4-1H821c0 .9 0 1.7.9 2.6.9.9 1.7 1.7 2.6 1.7h13.7c.9 0 1.7-.9 2.6-1.7 0-.8 1-1.7 1-2.6z"
         fill="#a6a6a6"
         id="path146" />
    </g>
  </g>
  <g
     id="g208">
    <path
       fill="#4d4d4d"
       d="M861.5 22h55.3v96.5h-55.3z"
       id="path152" />
    <path
       d="M916.3 22.5V118H862V22.5h54.3m1-1H861V119h56.3z"
       fill="#a6a6a6"
       id="path154" />
    <g
       clip-rule="evenodd"
       fill="#856427"
       fill-rule="evenodd"
       id="g158">
      <path
         d="M866.4 47.5h1.1v4.3h-1.1zM869.7 47.5h1.1v4.3h-1.1zM876.2 47.5h1.1v4.3h-1.1zM872.9 47.5h1.1v4.3h-1.1zM879.4 47.5h1.1v4.3h-1.1zM882.6 47.5h1.1v4.3h-1.1zM887 47.5h1.1v4.3H887z"
         id="path156" />
    </g>
    <path
       d="M909.1 51.4v-8.8h4.4v8.8zm0-15.2v-9.8h4.4v9.8z"
       fill="#b3b3b3"
       id="path160" />
    <path
       d="M913 26.9v8.8h-3.4v-8.8h3.4m0 16.2v7.8h-3.4v-7.8h3.4m1-17.2h-5.4v10.8h5.4zm0 16.2h-5.4v9.7h5.4z"
       id="path162" />
    <path
       d="M909.1 114.2v-8.8h4.4v8.8zm0-14.1v-9.8h4.4v9.8z"
       fill="#b3b3b3"
       id="path164" />
    <path
       d="M913 90.8v8.8h-3.4v-8.8h3.4m0 15.2v7.8h-3.4V106h3.4m1-16.2h-5.4v10.8h5.4zm0 15.2h-5.4v9.8h5.4z"
       id="path166" />
    <path
       clip-rule="evenodd"
       fill="#737373"
       fill-rule="evenodd"
       d="M884.2 29.6h3.3V34h-3.3z"
       id="path168" />
    <path
       d="M887.1 30.1v3.4h-2.3v-3.4h2.3m1-1h-4.3v5.4h4.3z"
       fill="#333"
       id="path170" />
    <path
       clip-rule="evenodd"
       fill="#737373"
       fill-rule="evenodd"
       d="M889.6 29.6h3.3V34h-3.3z"
       id="path172" />
    <path
       d="M892.5 30.1v3.4h-2.3v-3.4h2.3m1-1h-4.3v5.4h4.3z"
       fill="#333"
       id="path174" />
    <path
       clip-rule="evenodd"
       fill="#737373"
       fill-rule="evenodd"
       d="M884.2 107.6h3.3v4.4h-3.3z"
       id="path176" />
    <path
       d="M887.1 108.1v3.4h-2.3v-3.4h2.3m1-1h-4.3v5.4h4.3z"
       fill="#333"
       id="path178" />
    <path
       clip-rule="evenodd"
       fill="#737373"
       fill-rule="evenodd"
       d="M889.6 107.6h3.3v4.4h-3.3z"
       id="path180" />
    <path
       d="M892.5 108.1v3.4h-2.3v-3.4h2.3m1-1h-4.3v5.4h4.3z"
       fill="#333"
       id="path182" />
    <g
       clip-rule="evenodd"
       fill="#856427"
       fill-rule="evenodd"
       id="g186">
      <path
         d="M866.4 85.5h1.1v4.3h-1.1zM869.7 85.5h1.1v4.3h-1.1zM876.2 85.5h1.1v4.3h-1.1zM872.9 85.5h1.1v4.3h-1.1zM879.4 85.5h1.1v4.3h-1.1zM882.6 85.5h1.1v4.3h-1.1zM887 85.5h1.1v4.3H887z"
         id="path184" />
    </g>
    <g
       id="g192">
      <path
         d="M879.6 81.7c0-.6.1-1.2.7-1.7.8-.8 1.6-1.6 2.2-1.6h13.7c.6 0 1.4.7 2.1 1.5.1.5.3.9.6 1.3.1.2.2.4.3.5z"
         clip-rule="evenodd"
         fill="#e4e0dc"
         fill-rule="evenodd"
         id="path188" />
      <path
         d="M896.2 78.9c.4 0 1.1.6 1.6 1.2.1.4.3.8.5 1.1h-18.2c.1-.3.2-.6.5-.9.6-.6 1.4-1.4 1.9-1.4h13.7m0-1h-13.7c-.9 0-1.7.9-2.6 1.7-.9.9-.9 1.7-.9 2.6h20.8c0-.9-1-1.7-1-2.6-.8-.9-1.7-1.7-2.6-1.7z"
         fill="#a6a6a6"
         id="path190" />
    </g>
    <g
       id="g198">
      <path
         d="M899 80.6c-.2-.2-.4-.3-.5-.5-.6-.6-1.2-1.2-1.9-1.6l-.1-.1h-14.3l-.1.1c-.7.4-1.3 1-1.9 1.6l-.5.5h-18V57.8h18.1c.2.2.5.3.7.4.6.3 1 .6 1.5 1.5l.1.3h14.7l.1-.3c.5-.8.9-1.1 1.4-1.5.2-.1.4-.3.6-.4H917v22.8z"
         fill="#e4e0dc"
         id="path194" />
      <path
         d="M916.3 58.3v21.8h-17.1l-.4-.4c-.6-.6-1.3-1.3-2-1.7l-.2-.1H881.9l-.2.1c-.7.4-1.4 1-2 1.7l-.4.4H862V58.3h17.4l.6.3c.5.3.9.5 1.3 1.3l.3.5H896.9l.3-.5c.4-.7.8-1 1.2-1.3.1-.1.3-.2.5-.3h17.4M898.8 57c-.8.9-1.7.9-2.5 2.4h-14.1c-.8-1.5-1.7-1.5-2.5-2.2H861V81h18.7c.8-.8 1.7-1.7 2.5-2.2h14.1c.8.5 1.7 1.4 2.5 2.2h18.5V57.3h-18.5z"
         fill="#a6a6a6"
         id="path196" />
    </g>
    <path
       clip-rule="evenodd"
       fill="#404040"
       fill-rule="evenodd"
       d="M883.4 75.2l-5.6-10.3H888zM895.4 64.4l-5.6 10.2H901z"
       id="path200" />
    <g
       id="g206">
      <path
         d="M882.5 59c-.7 0-1.5-.8-2.2-1.6-.6-.6-.7-1.1-.7-1.7h19.6c-.1.2-.2.4-.3.5-.2.4-.5.9-.6 1.3-.7.7-1.5 1.5-2.1 1.5z"
         clip-rule="evenodd"
         fill="#e4e0dc"
         fill-rule="evenodd"
         id="path202" />
      <path
         d="M898.4 56.1c-.2.3-.4.7-.5 1.1-.6.6-1.3 1.2-1.6 1.2h-13.7c-.5 0-1.3-.8-1.9-1.4-.3-.3-.4-.6-.5-.9h18.2m1.4-1H879c0 .9 0 1.7.9 2.6.9.9 1.7 1.7 2.6 1.7h13.7c.9 0 1.7-.9 2.6-1.7 0-.8 1-1.7 1-2.6z"
         fill="#a6a6a6"
         id="path204" />
    </g>
  </g>
  <g
     id="g266">
    <path
       fill="#4d4d4d"
       d="M919.5 22h55.3v96.5h-55.3z"
       id="path210" />
    <path
       d="M974.3 22.5V118H920V22.5h54.3m1-1H919V119h56.3z"
       fill="#a6a6a6"
       id="path212" />
    <g
       clip-rule="evenodd"
       fill="#856427"
       fill-rule="evenodd"
       id="g216">
      <path
         d="M924.4 47.5h1.1v4.3h-1.1zM927.7 47.5h1.1v4.3h-1.1zM934.2 47.5h1.1v4.3h-1.1zM930.9 47.5h1.1v4.3h-1.1zM937.4 47.5h1.1v4.3h-1.1zM940.6 47.5h1.1v4.3h-1.1zM945 47.5h1.1v4.3H945z"
         id="path214" />
    </g>
    <path
       d="M967.1 51.4v-8.8h4.4v8.8zm0-15.2v-9.8h4.4v9.8z"
       fill="#b3b3b3"
       id="path218" />
    <path
       d="M971 26.9v8.8h-3.4v-8.8h3.4m0 16.2v7.8h-3.4v-7.8h3.4m1-17.2h-5.4v10.8h5.4zm0 16.2h-5.4v9.7h5.4z"
       id="path220" />
    <path
       d="M967.1 114.2v-8.8h4.4v8.8zm0-14.1v-9.8h4.4v9.8z"
       fill="#b3b3b3"
       id="path222" />
    <path
       d="M971 90.8v8.8h-3.4v-8.8h3.4m0 15.2v7.8h-3.4V106h3.4m1-16.2h-5.4v10.8h5.4zm0 15.2h-5.4v9.8h5.4z"
       id="path224" />
    <path
       clip-rule="evenodd"
       fill="#737373"
       fill-rule="evenodd"
       d="M942.2 29.6h3.3V34h-3.3z"
       id="path226" />
    <path
       d="M945.1 30.1v3.4h-2.3v-3.4h2.3m1-1h-4.3v5.4h4.3z"
       fill="#333"
       id="path228" />
    <path
       clip-rule="evenodd"
       fill="#737373"
       fill-rule="evenodd"
       d="M947.6 29.6h3.3V34h-3.3z"
       id="path230" />
    <path
       d="M950.5 30.1v3.4h-2.3v-3.4h2.3m1-1h-4.3v5.4h4.3z"
       fill="#333"
       id="path232" />
    <path
       clip-rule="evenodd"
       fill="#737373"
       fill-rule="evenodd"
       d="M942.2 107.6h3.3v4.4h-3.3z"
       id="path234" />
    <path
       d="M945.1 108.1v3.4h-2.3v-3.4h2.3m1-1h-4.3v5.4h4.3z"
       fill="#333"
       id="path236" />
    <path
       clip-rule="evenodd"
       fill="#737373"
       fill-rule="evenodd"
       d="M947.6 107.6h3.3v4.4h-3.3z"
       id="path238" />
    <path
       d="M950.5 108.1v3.4h-2.3v-3.4h2.3m1-1h-4.3v5.4h4.3z"
       fill="#333"
       id="path240" />
    <g
       clip-rule="evenodd"
       fill="#856427"
       fill-rule="evenodd"
       id="g244">
      <path
         d="M924.4 85.5h1.1v4.3h-1.1zM927.7 85.5h1.1v4.3h-1.1zM934.2 85.5h1.1v4.3h-1.1zM930.9 85.5h1.1v4.3h-1.1zM937.4 85.5h1.1v4.3h-1.1zM940.6 85.5h1.1v4.3h-1.1zM945 85.5h1.1v4.3H945z"
         id="path242" />
    </g>
    <g
       id="g250">
      <path
         d="M937.6 81.7c0-.6.1-1.2.7-1.7.8-.8 1.6-1.6 2.2-1.6h13.7c.6 0 1.4.7 2.1 1.5.1.5.3.9.6 1.3.1.2.2.4.3.5z"
         clip-rule="evenodd"
         fill="#e4e0dc"
         fill-rule="evenodd"
         id="path246" />
      <path
         d="M954.2 78.9c.4 0 1.1.6 1.6 1.2.1.4.3.8.5 1.1h-18.2c.1-.3.2-.6.5-.9.6-.6 1.4-1.4 1.9-1.4h13.7m0-1h-13.7c-.9 0-1.7.9-2.6 1.7-.9.9-.9 1.7-.9 2.6h20.8c0-.9-1-1.7-1-2.6-.8-.9-1.7-1.7-2.6-1.7z"
         fill="#a6a6a6"
         id="path248" />
    </g>
    <g
       id="g256">
      <path
         d="M957 80.6c-.2-.2-.4-.3-.5-.5-.6-.6-1.2-1.2-1.9-1.6l-.1-.1h-14.3l-.1.1c-.7.4-1.3 1-1.9 1.6l-.5.5h-18V57.8h18.1c.2.2.5.3.7.4.6.3 1 .6 1.5 1.5l.1.3h14.7l.1-.3c.5-.8.9-1.1 1.4-1.5.2-.1.4-.3.6-.4H975v22.8z"
         fill="#e4e0dc"
         id="path252" />
      <path
         d="M974.3 58.3v21.8h-17.1l-.4-.4c-.6-.6-1.3-1.3-2-1.7l-.2-.1H939.9l-.2.1c-.7.4-1.4 1-2 1.7l-.4.4H920V58.3h17.4l.6.3c.5.3.9.5 1.3 1.3l.3.5H954.9l.3-.5c.4-.7.8-1 1.2-1.3.1-.1.3-.2.5-.3h17.4M956.8 57c-.8.9-1.7.9-2.5 2.4h-14.1c-.8-1.5-1.7-1.5-2.5-2.2H919V81h18.7c.8-.8 1.7-1.7 2.5-2.2h14.1c.8.5 1.7 1.4 2.5 2.2h18.5V57.3h-18.5z"
         fill="#a6a6a6"
         id="path254" />
    </g>
    <path
       clip-rule="evenodd"
       fill="#404040"
       fill-rule="evenodd"
       d="M941.4 75.2l-5.6-10.3H946zM953.4 64.4l-5.6 10.2H959z"
       id="path258" />
    <g
       id="g264">
      <path
         d="M940.5 59c-.7 0-1.5-.8-2.2-1.6-.6-.6-.7-1.1-.7-1.7h19.6c-.1.2-.2.4-.3.5-.2.4-.5.9-.6 1.3-.7.7-1.5 1.5-2.1 1.5z"
         clip-rule="evenodd"
         fill="#e4e0dc"
         fill-rule="evenodd"
         id="path260" />
      <path
         d="M956.4 56.1c-.2.3-.4.7-.5 1.1-.6.6-1.3 1.2-1.6 1.2h-13.7c-.5 0-1.3-.8-1.9-1.4-.3-.3-.4-.6-.5-.9h18.2m1.4-1H937c0 .9 0 1.7.9 2.6.9.9 1.7 1.7 2.6 1.7h13.7c.9 0 1.7-.9 2.6-1.7 0-.8 1-1.7 1-2.6z"
         fill="#a6a6a6"
         id="path262" />
    </g>
  </g>
  <g
     id="g324">
    <path
       fill="#4d4d4d"
       d="M977.5 22h55.3v96.5h-55.3z"
       id="path268" />
    <path
       d="M1032.3 22.5V118H978V22.5h54.3m1-1H977V119h56.3z"
       fill="#a6a6a6"
       id="path270" />
    <g
       clip-rule="evenodd"
       fill="#856427"
       fill-rule="evenodd"
       id="g274">
      <path
         d="M982.4 47.5h1.1v4.3h-1.1zM985.7 47.5h1.1v4.3h-1.1zM992.2 47.5h1.1v4.3h-1.1zM988.9 47.5h1.1v4.3h-1.1zM995.4 47.5h1.1v4.3h-1.1zM998.6 47.5h1.1v4.3h-1.1zM1003 47.5h1.1v4.3h-1.1z"
         id="path272" />
    </g>
    <path
       d="M1025.1 51.4v-8.8h4.4v8.8zm0-15.2v-9.8h4.4v9.8z"
       fill="#b3b3b3"
       id="path276" />
    <path
       d="M1029 26.9v8.8h-3.4v-8.8h3.4m0 16.2v7.8h-3.4v-7.8h3.4m1-17.2h-5.4v10.8h5.4zm0 16.2h-5.4v9.7h5.4z"
       id="path278" />
    <path
       d="M1025.1 114.2v-8.8h4.4v8.8zm0-14.1v-9.8h4.4v9.8z"
       fill="#b3b3b3"
       id="path280" />
    <path
       d="M1029 90.8v8.8h-3.4v-8.8h3.4m0 15.2v7.8h-3.4V106h3.4m1-16.2h-5.4v10.8h5.4zm0 15.2h-5.4v9.8h5.4z"
       id="path282" />
    <path
       clip-rule="evenodd"
       fill="#737373"
       fill-rule="evenodd"
       d="M1000.2 29.6h3.3V34h-3.3z"
       id="path284" />
    <path
       d="M1003.1 30.1v3.4h-2.3v-3.4h2.3m1-1h-4.3v5.4h4.3z"
       fill="#333"
       id="path286" />
    <path
       clip-rule="evenodd"
       fill="#737373"
       fill-rule="evenodd"
       d="M1005.6 29.6h3.3V34h-3.3z"
       id="path288" />
    <path
       d="M1008.5 30.1v3.4h-2.3v-3.4h2.3m1-1h-4.3v5.4h4.3z"
       fill="#333"
       id="path290" />
    <path
       clip-rule="evenodd"
       fill="#737373"
       fill-rule="evenodd"
       d="M1000.2 107.6h3.3v4.4h-3.3z"
       id="path292" />
    <path
       d="M1003.1 108.1v3.4h-2.3v-3.4h2.3m1-1h-4.3v5.4h4.3z"
       fill="#333"
       id="path294" />
    <path
       clip-rule="evenodd"
       fill="#737373"
       fill-rule="evenodd"
       d="M1005.6 107.6h3.3v4.4h-3.3z"
       id="path296" />
    <path
       d="M1008.5 108.1v3.4h-2.3v-3.4h2.3m1-1h-4.3v5.4h4.3z"
       fill="#333"
       id="path298" />
    <g
       clip-rule="evenodd"
       fill="#856427"
       fill-rule="evenodd"
       id="g302">
      <path
         d="M982.4 85.5h1.1v4.3h-1.1zM985.7 85.5h1.1v4.3h-1.1zM992.2 85.5h1.1v4.3h-1.1zM988.9 85.5h1.1v4.3h-1.1zM995.4 85.5h1.1v4.3h-1.1zM998.6 85.5h1.1v4.3h-1.1zM1003 85.5h1.1v4.3h-1.1z"
         id="path300" />
    </g>
    <g
       id="g308">
      <path
         d="M995.6 81.7c0-.6.1-1.2.7-1.7.8-.8 1.6-1.6 2.2-1.6h13.7c.6 0 1.4.7 2.1 1.5.1.5.3.9.6 1.3.1.2.2.4.3.5z"
         clip-rule="evenodd"
         fill="#e4e0dc"
         fill-rule="evenodd"
         id="path304" />
      <path
         d="M1012.2 78.9c.4 0 1.1.6 1.6 1.2.1.4.3.8.5 1.1h-18.2c.1-.3.2-.6.5-.9.6-.6 1.4-1.4 1.9-1.4h13.7m0-1h-13.7c-.9 0-1.7.9-2.6 1.7-.9.9-.9 1.7-.9 2.6h20.8c0-.9-1-1.7-1-2.6-.8-.9-1.7-1.7-2.6-1.7z"
         fill="#a6a6a6"
         id="path306" />
    </g>
    <g
       id="g314">
      <path
         d="M1015 80.6c-.2-.2-.4-.3-.5-.5-.6-.6-1.2-1.2-1.9-1.6l-.1-.1h-14.3l-.1.1c-.7.4-1.3 1-1.9 1.6l-.5.5h-18V57.8h18.1c.2.2.5.3.7.4.6.3 1 .6 1.5 1.5l.1.3h14.7l.1-.3c.5-.8.9-1.1 1.4-1.5.2-.1.4-.3.6-.4h18.1v22.8z"
         fill="#e4e0dc"
         id="path310" />
      <path
         d="M1032.3 58.3v21.8h-17.1l-.4-.4c-.6-.6-1.3-1.3-2-1.7l-.2-.1H997.9l-.2.1c-.7.4-1.4 1-2 1.7l-.4.4H978V58.3h17.4l.6.3c.5.3.9.5 1.3 1.3l.3.5H1012.9l.3-.5c.4-.7.8-1 1.2-1.3.1-.1.3-.2.5-.3h17.4m-17.5-1.3c-.8.9-1.7.9-2.5 2.4h-14.1c-.8-1.5-1.7-1.5-2.5-2.2H977V81h18.7c.8-.8 1.7-1.7 2.5-2.2h14.1c.8.5 1.7 1.4 2.5 2.2h18.5V57.3h-18.5z"
         fill="#a6a6a6"
         id="path312" />
    </g>
    <path
       clip-rule="evenodd"
       fill="#404040"
       fill-rule="evenodd"
       d="M999.4 75.2l-5.6-10.3h10.2zM1011.4 64.4l-5.6 10.2h11.2z"
       id="path316" />
    <g
       id="g322">
      <path
         d="M998.5 59c-.7 0-1.5-.8-2.2-1.6-.6-.6-.7-1.1-.7-1.7h19.6c-.1.2-.2.4-.3.5-.2.4-.5.9-.6 1.3-.7.7-1.5 1.5-2.1 1.5z"
         clip-rule="evenodd"
         fill="#e4e0dc"
         fill-rule="evenodd"
         id="path318" />
      <path
         d="M1014.4 56.1c-.2.3-.4.7-.5 1.1-.6.6-1.3 1.2-1.6 1.2h-13.7c-.5 0-1.3-.8-1.9-1.4-.3-.3-.4-.6-.5-.9h18.2m1.4-1H995c0 .9 0 1.7.9 2.6.9.9 1.7 1.7 2.6 1.7h13.7c.9 0 1.7-.9 2.6-1.7 0-.8 1-1.7 1-2.6z"
         fill="#a6a6a6"
         id="path320" />
    </g>
  </g>
  <g
     id="g382">
    <path
       fill="#4d4d4d"
       d="M1035.5 22h55.3v96.5h-55.3z"
       id="path326" />
    <path
       d="M1090.3 22.5V118H1036V22.5h54.3m1-1H1035V119h56.3z"
       fill="#a6a6a6"
       id="path328" />
    <g
       clip-rule="evenodd"
       fill="#856427"
       fill-rule="evenodd"
       id="g332">
      <path
         d="M1040.4 47.5h1.1v4.3h-1.1zM1043.7 47.5h1.1v4.3h-1.1zM1050.2 47.5h1.1v4.3h-1.1zM1046.9 47.5h1.1v4.3h-1.1zM1053.4 47.5h1.1v4.3h-1.1zM1056.6 47.5h1.1v4.3h-1.1zM1061 47.5h1.1v4.3h-1.1z"
         id="path330" />
    </g>
    <path
       d="M1083.1 51.4v-8.8h4.4v8.8zm0-15.2v-9.8h4.4v9.8z"
       fill="#b3b3b3"
       id="path334" />
    <path
       d="M1087 26.9v8.8h-3.4v-8.8h3.4m0 16.2v7.8h-3.4v-7.8h3.4m1-17.2h-5.4v10.8h5.4zm0 16.2h-5.4v9.7h5.4z"
       id="path336" />
    <path
       d="M1083.1 114.2v-8.8h4.4v8.8zm0-14.1v-9.8h4.4v9.8z"
       fill="#b3b3b3"
       id="path338" />
    <path
       d="M1087 90.8v8.8h-3.4v-8.8h3.4m0 15.2v7.8h-3.4V106h3.4m1-16.2h-5.4v10.8h5.4zm0 15.2h-5.4v9.8h5.4z"
       id="path340" />
    <path
       clip-rule="evenodd"
       fill="#737373"
       fill-rule="evenodd"
       d="M1058.2 29.6h3.3V34h-3.3z"
       id="path342" />
    <path
       d="M1061.1 30.1v3.4h-2.3v-3.4h2.3m1-1h-4.3v5.4h4.3z"
       fill="#333"
       id="path344" />
    <path
       clip-rule="evenodd"
       fill="#737373"
       fill-rule="evenodd"
       d="M1063.6 29.6h3.3V34h-3.3z"
       id="path346" />
    <path
       d="M1066.5 30.1v3.4h-2.3v-3.4h2.3m1-1h-4.3v5.4h4.3z"
       fill="#333"
       id="path348" />
    <path
       clip-rule="evenodd"
       fill="#737373"
       fill-rule="evenodd"
       d="M1058.2 107.6h3.3v4.4h-3.3z"
       id="path350" />
    <path
       d="M1061.1 108.1v3.4h-2.3v-3.4h2.3m1-1h-4.3v5.4h4.3z"
       fill="#333"
       id="path352" />
    <path
       clip-rule="evenodd"
       fill="#737373"
       fill-rule="evenodd"
       d="M1063.6 107.6h3.3v4.4h-3.3z"
       id="path354" />
    <path
       d="M1066.5 108.1v3.4h-2.3v-3.4h2.3m1-1h-4.3v5.4h4.3z"
       fill="#333"
       id="path356" />
    <g
       clip-rule="evenodd"
       fill="#856427"
       fill-rule="evenodd"
       id="g360">
      <path
         d="M1040.4 85.5h1.1v4.3h-1.1zM1043.7 85.5h1.1v4.3h-1.1zM1050.2 85.5h1.1v4.3h-1.1zM1046.9 85.5h1.1v4.3h-1.1zM1053.4 85.5h1.1v4.3h-1.1zM1056.6 85.5h1.1v4.3h-1.1zM1061 85.5h1.1v4.3h-1.1z"
         id="path358" />
    </g>
    <g
       id="g366">
      <path
         d="M1053.6 81.7c0-.6.1-1.2.7-1.7.8-.8 1.6-1.6 2.2-1.6h13.7c.6 0 1.4.7 2.1 1.5.1.5.3.9.6 1.3.1.2.2.4.3.5z"
         clip-rule="evenodd"
         fill="#e4e0dc"
         fill-rule="evenodd"
         id="path362" />
      <path
         d="M1070.2 78.9c.4 0 1.1.6 1.6 1.2.1.4.3.8.5 1.1h-18.2c.1-.3.2-.6.5-.9.6-.6 1.4-1.4 1.9-1.4h13.7m0-1h-13.7c-.9 0-1.7.9-2.6 1.7-.9.9-.9 1.7-.9 2.6h20.8c0-.9-1-1.7-1-2.6-.8-.9-1.7-1.7-2.6-1.7z"
         fill="#a6a6a6"
         id="path364" />
    </g>
    <g
       id="g372">
      <path
         d="M1073 80.6c-.2-.2-.4-.3-.5-.5-.6-.6-1.2-1.2-1.9-1.6l-.1-.1h-14.3l-.1.1c-.7.4-1.3 1-1.9 1.6l-.5.5h-18V57.8h18.1c.2.2.5.3.7.4.6.3 1 .6 1.5 1.5l.1.3h14.7l.1-.3c.5-.8.9-1.1 1.4-1.5.2-.1.4-.3.6-.4h18.1v22.8z"
         fill="#e4e0dc"
         id="path368" />
      <path
         d="M1090.3 58.3v21.8h-17.1l-.4-.4c-.6-.6-1.3-1.3-2-1.7l-.2-.1H1055.9l-.2.1c-.7.4-1.4 1-2 1.7l-.4.4H1036V58.3h17.4l.6.3c.5.3.9.5 1.3 1.3l.3.5H1070.9l.3-.5c.4-.7.8-1 1.2-1.3.1-.1.3-.2.5-.3h17.4m-17.5-1.3c-.8.9-1.7.9-2.5 2.4h-14.1c-.8-1.5-1.7-1.5-2.5-2.2H1035V81h18.7c.8-.8 1.7-1.7 2.5-2.2h14.1c.8.5 1.7 1.4 2.5 2.2h18.5V57.3h-18.5z"
         fill="#a6a6a6"
         id="path370" />
    </g>
    <path
       clip-rule="evenodd"
       fill="#404040"
       fill-rule="evenodd"
       d="M1057.4 75.2l-5.6-10.3h10.2zM1069.4 64.4l-5.6 10.2h11.2z"
       id="path374" />
    <g
       id="g380">
      <path
         d="M1056.5 59c-.7 0-1.5-.8-2.2-1.6-.6-.6-.7-1.1-.7-1.7h19.6c-.1.2-.2.4-.3.5-.2.4-.5.9-.6 1.3-.7.7-1.5 1.5-2.1 1.5z"
         clip-rule="evenodd"
         fill="#e4e0dc"
         fill-rule="evenodd"
         id="path376" />
      <path
         d="M1072.4 56.1c-.2.3-.4.7-.5 1.1-.6.6-1.3 1.2-1.6 1.2h-13.7c-.5 0-1.3-.8-1.9-1.4-.3-.3-.4-.6-.5-.9h18.2m1.4-1H1053c0 .9 0 1.7.9 2.6.9.9 1.7 1.7 2.6 1.7h13.7c.9 0 1.7-.9 2.6-1.7 0-.8 1-1.7 1-2.6z"
         fill="#a6a6a6"
         id="path378" />
    </g>
  </g>
  <g
     id="g440">
    <path
       fill="#4d4d4d"
       d="M1093.5 22h55.3v96.5h-55.3z"
       id="path384" />
    <path
       d="M1148.3 22.5V118H1094V22.5h54.3m1-1H1093V119h56.3z"
       fill="#a6a6a6"
       id="path386" />
    <g
       clip-rule="evenodd"
       fill="#856427"
       fill-rule="evenodd"
       id="g390">
      <path
         d="M1098.4 47.5h1.1v4.3h-1.1zM1101.7 47.5h1.1v4.3h-1.1zM1108.2 47.5h1.1v4.3h-1.1zM1104.9 47.5h1.1v4.3h-1.1zM1111.4 47.5h1.1v4.3h-1.1zM1114.6 47.5h1.1v4.3h-1.1zM1119 47.5h1.1v4.3h-1.1z"
         id="path388" />
    </g>
    <path
       d="M1141.1 51.4v-8.8h4.4v8.8zm0-15.2v-9.8h4.4v9.8z"
       fill="#b3b3b3"
       id="path392" />
    <path
       d="M1145 26.9v8.8h-3.4v-8.8h3.4m0 16.2v7.8h-3.4v-7.8h3.4m1-17.2h-5.4v10.8h5.4zm0 16.2h-5.4v9.7h5.4z"
       id="path394" />
    <path
       d="M1141.1 114.2v-8.8h4.4v8.8zm0-14.1v-9.8h4.4v9.8z"
       fill="#b3b3b3"
       id="path396" />
    <path
       d="M1145 90.8v8.8h-3.4v-8.8h3.4m0 15.2v7.8h-3.4V106h3.4m1-16.2h-5.4v10.8h5.4zm0 15.2h-5.4v9.8h5.4z"
       id="path398" />
    <path
       clip-rule="evenodd"
       fill="#737373"
       fill-rule="evenodd"
       d="M1116.2 29.6h3.3V34h-3.3z"
       id="path400" />
    <path
       d="M1119.1 30.1v3.4h-2.3v-3.4h2.3m1-1h-4.3v5.4h4.3z"
       fill="#333"
       id="path402" />
    <path
       clip-rule="evenodd"
       fill="#737373"
       fill-rule="evenodd"
       d="M1121.6 29.6h3.3V34h-3.3z"
       id="path404" />
    <path
       d="M1124.5 30.1v3.4h-2.3v-3.4h2.3m1-1h-4.3v5.4h4.3z"
       fill="#333"
       id="path406" />
    <path
       clip-rule="evenodd"
       fill="#737373"
       fill-rule="evenodd"
       d="M1116.2 107.6h3.3v4.4h-3.3z"
       id="path408" />
    <path
       d="M1119.1 108.1v3.4h-2.3v-3.4h2.3m1-1h-4.3v5.4h4.3z"
       fill="#333"
       id="path410" />
    <path
       clip-rule="evenodd"
       fill="#737373"
       fill-rule="evenodd"
       d="M1121.6 107.6h3.3v4.4h-3.3z"
       id="path412" />
    <path
       d="M1124.5 108.1v3.4h-2.3v-3.4h2.3m1-1h-4.3v5.4h4.3z"
       fill="#333"
       id="path414" />
    <g
       clip-rule="evenodd"
       fill="#856427"
       fill-rule="evenodd"
       id="g418">
      <path
         d="M1098.4 85.5h1.1v4.3h-1.1zM1101.7 85.5h1.1v4.3h-1.1zM1108.2 85.5h1.1v4.3h-1.1zM1104.9 85.5h1.1v4.3h-1.1zM1111.4 85.5h1.1v4.3h-1.1zM1114.6 85.5h1.1v4.3h-1.1zM1119 85.5h1.1v4.3h-1.1z"
         id="path416" />
    </g>
    <g
       id="g424">
      <path
         d="M1111.6 81.7c0-.6.1-1.2.7-1.7.8-.8 1.6-1.6 2.2-1.6h13.7c.6 0 1.4.7 2.1 1.5.1.5.3.9.6 1.3.1.2.2.4.3.5z"
         clip-rule="evenodd"
         fill="#e4e0dc"
         fill-rule="evenodd"
         id="path420" />
      <path
         d="M1128.2 78.9c.4 0 1.1.6 1.6 1.2.1.4.3.8.5 1.1h-18.2c.1-.3.2-.6.5-.9.6-.6 1.4-1.4 1.9-1.4h13.7m0-1h-13.7c-.9 0-1.7.9-2.6 1.7-.9.9-.9 1.7-.9 2.6h20.8c0-.9-1-1.7-1-2.6-.8-.9-1.7-1.7-2.6-1.7z"
         fill="#a6a6a6"
         id="path422" />
    </g>
    <g
       id="g430">
      <path
         d="M1131 80.6c-.2-.2-.4-.3-.5-.5-.6-.6-1.2-1.2-1.9-1.6l-.1-.1h-14.3l-.1.1c-.7.4-1.3 1-1.9 1.6l-.5.5h-18V57.8h18.1c.2.2.5.3.7.4.6.3 1 .6 1.5 1.5l.1.3h14.7l.1-.3c.5-.8.9-1.1 1.4-1.5.2-.1.4-.3.6-.4h18.1v22.8z"
         fill="#e4e0dc"
         id="path426" />
      <path
         d="M1148.3 58.3v21.8h-17.1l-.4-.4c-.6-.6-1.3-1.3-2-1.7l-.2-.1H1113.9l-.2.1c-.7.4-1.4 1-2 1.7l-.4.4H1094V58.3h17.4l.6.3c.5.3.9.5 1.3 1.3l.3.5H1128.9l.3-.5c.4-.7.8-1 1.2-1.3.1-.1.3-.2.5-.3h17.4m-17.5-1.3c-.8.9-1.7.9-2.5 2.4h-14.1c-.8-1.5-1.7-1.5-2.5-2.2H1093V81h18.7c.8-.8 1.7-1.7 2.5-2.2h14.1c.8.5 1.7 1.4 2.5 2.2h18.5V57.3h-18.5z"
         fill="#a6a6a6"
         id="path428" />
    </g>
    <path
       clip-rule="evenodd"
       fill="#404040"
       fill-rule="evenodd"
       d="M1115.4 75.2l-5.6-10.3h10.2zM1127.4 64.4l-5.6 10.2h11.2z"
       id="path432" />
    <g
       id="g438">
      <path
         d="M1114.5 59c-.7 0-1.5-.8-2.2-1.6-.6-.6-.7-1.1-.7-1.7h19.6c-.1.2-.2.4-.3.5-.2.4-.5.9-.6 1.3-.7.7-1.5 1.5-2.1 1.5z"
         clip-rule="evenodd"
         fill="#e4e0dc"
         fill-rule="evenodd"
         id="path434" />
      <path
         d="M1130.4 56.1c-.2.3-.4.7-.5 1.1-.6.6-1.3 1.2-1.6 1.2h-13.7c-.5 0-1.3-.8-1.9-1.4-.3-.3-.4-.6-.5-.9h18.2m1.4-1H1111c0 .9 0 1.7.9 2.6.9.9 1.7 1.7 2.6 1.7h13.7c.9 0 1.7-.9 2.6-1.7 0-.8 1-1.7 1-2.6z"
         fill="#a6a6a6"
         id="path436" />
    </g>
  </g>
  <g
     id="g498">
    <path
       fill="#4d4d4d"
       d="M1151.5 22h55.3v96.5h-55.3z"
       id="path442" />
    <path
       d="M1206.3 22.5V118H1152V22.5h54.3m1-1H1151V119h56.3z"
       fill="#a6a6a6"
       id="path444" />
    <g
       clip-rule="evenodd"
       fill="#856427"
       fill-rule="evenodd"
       id="g448">
      <path
         d="M1156.4 47.5h1.1v4.3h-1.1zM1159.7 47.5h1.1v4.3h-1.1zM1166.2 47.5h1.1v4.3h-1.1zM1162.9 47.5h1.1v4.3h-1.1zM1169.4 47.5h1.1v4.3h-1.1zM1172.6 47.5h1.1v4.3h-1.1zM1177 47.5h1.1v4.3h-1.1z"
         id="path446" />
    </g>
    <path
       d="M1199.1 51.4v-8.8h4.4v8.8zm0-15.2v-9.8h4.4v9.8z"
       fill="#b3b3b3"
       id="path450" />
    <path
       d="M1203 26.9v8.8h-3.4v-8.8h3.4m0 16.2v7.8h-3.4v-7.8h3.4m1-17.2h-5.4v10.8h5.4zm0 16.2h-5.4v9.7h5.4z"
       id="path452" />
    <path
       d="M1199.1 114.2v-8.8h4.4v8.8zm0-14.1v-9.8h4.4v9.8z"
       fill="#b3b3b3"
       id="path454" />
    <path
       d="M1203 90.8v8.8h-3.4v-8.8h3.4m0 15.2v7.8h-3.4V106h3.4m1-16.2h-5.4v10.8h5.4zm0 15.2h-5.4v9.8h5.4z"
       id="path456" />
    <path
       clip-rule="evenodd"
       fill="#737373"
       fill-rule="evenodd"
       d="M1174.2 29.6h3.3V34h-3.3z"
       id="path458" />
    <path
       d="M1177.1 30.1v3.4h-2.3v-3.4h2.3m1-1h-4.3v5.4h4.3z"
       fill="#333"
       id="path460" />
    <path
       clip-rule="evenodd"
       fill="#737373"
       fill-rule="evenodd"
       d="M1179.6 29.6h3.3V34h-3.3z"
       id="path462" />
    <path
       d="M1182.5 30.1v3.4h-2.3v-3.4h2.3m1-1h-4.3v5.4h4.3z"
       fill="#333"
       id="path464" />
    <path
       clip-rule="evenodd"
       fill="#737373"
       fill-rule="evenodd"
       d="M1174.2 107.6h3.3v4.4h-3.3z"
       id="path466" />
    <path
       d="M1177.1 108.1v3.4h-2.3v-3.4h2.3m1-1h-4.3v5.4h4.3z"
       fill="#333"
       id="path468" />
    <path
       clip-rule="evenodd"
       fill="#737373"
       fill-rule="evenodd"
       d="M1179.6 107.6h3.3v4.4h-3.3z"
       id="path470" />
    <path
       d="M1182.5 108.1v3.4h-2.3v-3.4h2.3m1-1h-4.3v5.4h4.3z"
       fill="#333"
       id="path472" />
    <g
       clip-rule="evenodd"
       fill="#856427"
       fill-rule="evenodd"
       id="g476">
      <path
         d="M1156.4 85.5h1.1v4.3h-1.1zM1159.7 85.5h1.1v4.3h-1.1zM1166.2 85.5h1.1v4.3h-1.1zM1162.9 85.5h1.1v4.3h-1.1zM1169.4 85.5h1.1v4.3h-1.1zM1172.6 85.5h1.1v4.3h-1.1zM1177 85.5h1.1v4.3h-1.1z"
         id="path474" />
    </g>
    <g
       id="g482">
      <path
         d="M1169.6 81.7c0-.6.1-1.2.7-1.7.8-.8 1.6-1.6 2.2-1.6h13.7c.6 0 1.4.7 2.1 1.5.1.5.3.9.6 1.3.1.2.2.4.3.5z"
         clip-rule="evenodd"
         fill="#e4e0dc"
         fill-rule="evenodd"
         id="path478" />
      <path
         d="M1186.2 78.9c.4 0 1.1.6 1.6 1.2.1.4.3.8.5 1.1h-18.2c.1-.3.2-.6.5-.9.6-.6 1.4-1.4 1.9-1.4h13.7m0-1h-13.7c-.9 0-1.7.9-2.6 1.7-.9.9-.9 1.7-.9 2.6h20.8c0-.9-1-1.7-1-2.6-.8-.9-1.7-1.7-2.6-1.7z"
         fill="#a6a6a6"
         id="path480" />
    </g>
    <g
       id="g488">
      <path
         d="M1189 80.6c-.2-.2-.4-.3-.5-.5-.6-.6-1.2-1.2-1.9-1.6l-.1-.1h-14.3l-.1.1c-.7.4-1.3 1-1.9 1.6l-.5.5h-18V57.8h18.1c.2.2.5.3.7.4.6.3 1 .6 1.5 1.5l.1.3h14.7l.1-.3c.5-.8.9-1.1 1.4-1.5.2-.1.4-.3.6-.4h18.1v22.8z"
         fill="#e4e0dc"
         id="path484" />
      <path
         d="M1206.3 58.3v21.8h-17.1l-.4-.4c-.6-.6-1.3-1.3-2-1.7l-.2-.1H1171.9l-.2.1c-.7.4-1.4 1-2 1.7l-.4.4H1152V58.3h17.4l.6.3c.5.3.9.5 1.3 1.3l.3.5H1186.9l.3-.5c.4-.7.8-1 1.2-1.3.1-.1.3-.2.5-.3h17.4m-17.5-1.3c-.8.9-1.7.9-2.5 2.4h-14.1c-.8-1.5-1.7-1.5-2.5-2.2H1151V81h18.7c.8-.8 1.7-1.7 2.5-2.2h14.1c.8.5 1.7 1.4 2.5 2.2h18.5V57.3h-18.5z"
         fill="#a6a6a6"
         id="path486" />
    </g>
    <path
       clip-rule="evenodd"
       fill="#404040"
       fill-rule="evenodd"
       d="M1173.4 75.2l-5.6-10.3h10.2zM1185.4 64.4l-5.6 10.2h11.2z"
       id="path490" />
    <g
       id="g496">
      <path
         d="M1172.5 59c-.7 0-1.5-.8-2.2-1.6-.6-.6-.7-1.1-.7-1.7h19.6c-.1.2-.2.4-.3.5-.2.4-.5.9-.6 1.3-.7.7-1.5 1.5-2.1 1.5z"
         clip-rule="evenodd"
         fill="#e4e0dc"
         fill-rule="evenodd"
         id="path492" />
      <path
         d="M1188.4 56.1c-.2.3-.4.7-.5 1.1-.6.6-1.3 1.2-1.6 1.2h-13.7c-.5 0-1.3-.8-1.9-1.4-.3-.3-.4-.6-.5-.9h18.2m1.4-1H1169c0 .9 0 1.7.9 2.6.9.9 1.7 1.7 2.6 1.7h13.7c.9 0 1.7-.9 2.6-1.7 0-.8 1-1.7 1-2.6z"
         fill="#a6a6a6"
         id="path494" />
    </g>
  </g>
  <g
     id="g966">
    <path
       fill="#333"
       d="M220.9 21.2h463.2v98.2H220.9z"
       id="path500" />
    <path
       d="M683.2 22.1v96.4H221.8V22.1h461.4m1.8-1.8H220v100h465z"
       fill="#1a1a1a"
       id="path502" />
    <path
       fill="#4d4d4d"
       d="M221.5 22h55.3v96.5h-55.3z"
       id="path504" />
    <path
       d="M276.3 22.5V118H222V22.5h54.3m1-1H221V119h56.3z"
       fill="#a6a6a6"
       id="path506" />
    <g
       clip-rule="evenodd"
       fill="#856427"
       fill-rule="evenodd"
       id="g510">
      <path
         d="M226.4 47.5h1.1v4.3h-1.1zM229.7 47.5h1.1v4.3h-1.1zM236.2 47.5h1.1v4.3h-1.1zM232.9 47.5h1.1v4.3h-1.1zM239.4 47.5h1.1v4.3h-1.1zM242.6 47.5h1.1v4.3h-1.1zM247 47.5h1.1v4.3H247z"
         id="path508" />
    </g>
    <path
       d="M269.1 51.4v-8.8h4.4v8.8zm0-15.2v-9.8h4.4v9.8z"
       fill="#b3b3b3"
       id="path512" />
    <path
       d="M273 26.9v8.8h-3.4v-8.8h3.4m0 16.2v7.8h-3.4v-7.8h3.4m1-17.2h-5.4v10.8h5.4zm0 16.2h-5.4v9.7h5.4z"
       id="path514" />
    <path
       d="M269.1 114.2v-8.8h4.4v8.8zm0-14.1v-9.8h4.4v9.8z"
       fill="#b3b3b3"
       id="path516" />
    <path
       d="M273 90.8v8.8h-3.4v-8.8h3.4m0 15.2v7.8h-3.4V106h3.4m1-16.2h-5.4v10.8h5.4zm0 15.2h-5.4v9.8h5.4z"
       id="path518" />
    <path
       clip-rule="evenodd"
       fill="#737373"
       fill-rule="evenodd"
       d="M244.2 29.6h3.3V34h-3.3z"
       id="path520" />
    <path
       d="M247.1 30.1v3.4h-2.3v-3.4h2.3m1-1h-4.3v5.4h4.3z"
       fill="#333"
       id="path522" />
    <path
       clip-rule="evenodd"
       fill="#737373"
       fill-rule="evenodd"
       d="M249.6 29.6h3.3V34h-3.3z"
       id="path524" />
    <path
       d="M252.5 30.1v3.4h-2.3v-3.4h2.3m1-1h-4.3v5.4h4.3z"
       fill="#333"
       id="path526" />
    <path
       clip-rule="evenodd"
       fill="#737373"
       fill-rule="evenodd"
       d="M244.2 107.6h3.3v4.4h-3.3z"
       id="path528" />
    <path
       d="M247.1 108.1v3.4h-2.3v-3.4h2.3m1-1h-4.3v5.4h4.3z"
       fill="#333"
       id="path530" />
    <path
       clip-rule="evenodd"
       fill="#737373"
       fill-rule="evenodd"
       d="M249.6 107.6h3.3v4.4h-3.3z"
       id="path532" />
    <path
       d="M252.5 108.1v3.4h-2.3v-3.4h2.3m1-1h-4.3v5.4h4.3z"
       fill="#333"
       id="path534" />
    <g
       clip-rule="evenodd"
       fill="#856427"
       fill-rule="evenodd"
       id="g538">
      <path
         d="M226.4 85.5h1.1v4.3h-1.1zM229.7 85.5h1.1v4.3h-1.1zM236.2 85.5h1.1v4.3h-1.1zM232.9 85.5h1.1v4.3h-1.1zM239.4 85.5h1.1v4.3h-1.1zM242.6 85.5h1.1v4.3h-1.1zM247 85.5h1.1v4.3H247z"
         id="path536" />
    </g>
    <g
       id="g544">
      <path
         d="M239.6 81.7c0-.6.1-1.2.7-1.7.8-.8 1.6-1.6 2.2-1.6h13.7c.6 0 1.4.7 2.1 1.5.1.5.3.9.6 1.3.1.2.2.4.3.5z"
         clip-rule="evenodd"
         fill="#e4e0dc"
         fill-rule="evenodd"
         id="path540" />
      <path
         d="M256.2 78.9c.4 0 1.1.6 1.6 1.2.1.4.3.8.5 1.1h-18.2c.1-.3.2-.6.5-.9.6-.6 1.4-1.4 1.9-1.4h13.7m0-1h-13.7c-.9 0-1.7.9-2.6 1.7-.9.9-.9 1.7-.9 2.6h20.8c0-.9-1-1.7-1-2.6-.8-.9-1.7-1.7-2.6-1.7z"
         fill="#a6a6a6"
         id="path542" />
    </g>
    <g
       id="g550">
      <path
         d="M259 80.6c-.2-.2-.4-.3-.5-.5-.6-.6-1.2-1.2-1.9-1.6l-.1-.1h-14.3l-.1.1c-.7.4-1.3 1-1.9 1.6l-.5.5h-18V57.8h18.1c.2.2.5.3.7.4.6.3 1 .6 1.5 1.5l.1.3h14.7l.1-.3c.5-.8.9-1.1 1.4-1.5.2-.1.4-.3.6-.4H277v22.8z"
         fill="#e4e0dc"
         id="path546" />
      <path
         d="M276.3 58.3v21.8h-17.1l-.4-.4c-.6-.6-1.3-1.3-2-1.7l-.2-.1H242l-.2.1c-.7.4-1.4 1-2 1.7l-.4.4H222V58.3h17.4l.6.3c.5.3.9.5 1.3 1.3l.3.5H256.9l.3-.5c.4-.7.8-1 1.2-1.3.1-.1.3-.2.5-.3h17.4M258.8 57c-.8.9-1.7.9-2.5 2.4h-14.1c-.8-1.5-1.7-1.5-2.5-2.2H221V81h18.7c.8-.8 1.7-1.7 2.5-2.2h14.1c.8.5 1.7 1.4 2.5 2.2h18.5V57.3h-18.5z"
         fill="#a6a6a6"
         id="path548" />
    </g>
    <path
       clip-rule="evenodd"
       fill="#404040"
       fill-rule="evenodd"
       d="M243.4 75.2l-5.6-10.3H248zM255.4 64.4l-5.6 10.2H261z"
       id="path552" />
    <g
       id="g558">
      <path
         d="M242.5 59c-.7 0-1.5-.8-2.2-1.6-.6-.6-.7-1.1-.7-1.7h19.6c-.1.2-.2.4-.3.5-.2.4-.5.9-.6 1.3-.7.7-1.5 1.5-2.1 1.5z"
         clip-rule="evenodd"
         fill="#e4e0dc"
         fill-rule="evenodd"
         id="path554" />
      <path
         d="M258.4 56.1c-.2.3-.4.7-.5 1.1-.6.6-1.3 1.2-1.6 1.2h-13.7c-.5 0-1.3-.8-1.9-1.4-.3-.3-.4-.6-.5-.9h18.2m1.4-1H239c0 .9 0 1.7.9 2.6.9.9 1.7 1.7 2.6 1.7h13.7c.9 0 1.7-.9 2.6-1.7 0-.8 1-1.7 1-2.6z"
         fill="#a6a6a6"
         id="path556" />
    </g>
    <g
       id="g616">
      <path
         fill="#4d4d4d"
         d="M279.5 22h55.3v96.5h-55.3z"
         id="path560" />
      <path
         d="M334.3 22.5V118H280V22.5h54.3m1-1H279V119h56.3z"
         fill="#a6a6a6"
         id="path562" />
      <g
         clip-rule="evenodd"
         fill="#856427"
         fill-rule="evenodd"
         id="g566">
        <path
           d="M284.4 47.5h1.1v4.3h-1.1zM287.7 47.5h1.1v4.3h-1.1zM294.2 47.5h1.1v4.3h-1.1zM290.9 47.5h1.1v4.3h-1.1zM297.4 47.5h1.1v4.3h-1.1zM300.6 47.5h1.1v4.3h-1.1zM305 47.5h1.1v4.3H305z"
           id="path564" />
      </g>
      <path
         d="M327.1 51.4v-8.8h4.4v8.8zm0-15.2v-9.8h4.4v9.8z"
         fill="#b3b3b3"
         id="path568" />
      <path
         d="M331 26.9v8.8h-3.4v-8.8h3.4m0 16.2v7.8h-3.4v-7.8h3.4m1-17.2h-5.4v10.8h5.4zm0 16.2h-5.4v9.7h5.4z"
         id="path570" />
      <path
         d="M327.1 114.2v-8.8h4.4v8.8zm0-14.1v-9.8h4.4v9.8z"
         fill="#b3b3b3"
         id="path572" />
      <path
         d="M331 90.8v8.8h-3.4v-8.8h3.4m0 15.2v7.8h-3.4V106h3.4m1-16.2h-5.4v10.8h5.4zm0 15.2h-5.4v9.8h5.4z"
         id="path574" />
      <path
         clip-rule="evenodd"
         fill="#737373"
         fill-rule="evenodd"
         d="M302.2 29.6h3.3V34h-3.3z"
         id="path576" />
      <path
         d="M305.1 30.1v3.4h-2.3v-3.4h2.3m1-1h-4.3v5.4h4.3z"
         fill="#333"
         id="path578" />
      <path
         clip-rule="evenodd"
         fill="#737373"
         fill-rule="evenodd"
         d="M307.6 29.6h3.3V34h-3.3z"
         id="path580" />
      <path
         d="M310.5 30.1v3.4h-2.3v-3.4h2.3m1-1h-4.3v5.4h4.3z"
         fill="#333"
         id="path582" />
      <path
         clip-rule="evenodd"
         fill="#737373"
         fill-rule="evenodd"
         d="M302.2 107.6h3.3v4.4h-3.3z"
         id="path584" />
      <path
         d="M305.1 108.1v3.4h-2.3v-3.4h2.3m1-1h-4.3v5.4h4.3z"
         fill="#333"
         id="path586" />
      <path
         clip-rule="evenodd"
         fill="#737373"
         fill-rule="evenodd"
         d="M307.6 107.6h3.3v4.4h-3.3z"
         id="path588" />
      <path
         d="M310.5 108.1v3.4h-2.3v-3.4h2.3m1-1h-4.3v5.4h4.3z"
         fill="#333"
         id="path590" />
      <g
         clip-rule="evenodd"
         fill="#856427"
         fill-rule="evenodd"
         id="g594">
        <path
           d="M284.4 85.5h1.1v4.3h-1.1zM287.7 85.5h1.1v4.3h-1.1zM294.2 85.5h1.1v4.3h-1.1zM290.9 85.5h1.1v4.3h-1.1zM297.4 85.5h1.1v4.3h-1.1zM300.6 85.5h1.1v4.3h-1.1zM305 85.5h1.1v4.3H305z"
           id="path592" />
      </g>
      <g
         id="g600">
        <path
           d="M297.6 81.7c0-.6.1-1.2.7-1.7.8-.8 1.6-1.6 2.2-1.6h13.7c.6 0 1.4.7 2.1 1.5.1.5.3.9.6 1.3.1.2.2.4.3.5z"
           clip-rule="evenodd"
           fill="#e4e0dc"
           fill-rule="evenodd"
           id="path596" />
        <path
           d="M314.2 78.9c.4 0 1.1.6 1.6 1.2.1.4.3.8.5 1.1h-18.2c.1-.3.2-.6.5-.9.6-.6 1.4-1.4 1.9-1.4h13.7m0-1h-13.7c-.9 0-1.7.9-2.6 1.7-.9.9-.9 1.7-.9 2.6h20.8c0-.9-1-1.7-1-2.6-.8-.9-1.7-1.7-2.6-1.7z"
           fill="#a6a6a6"
           id="path598" />
      </g>
      <g
         id="g606">
        <path
           d="M317 80.6c-.2-.2-.4-.3-.5-.5-.6-.6-1.2-1.2-1.9-1.6l-.1-.1h-14.3l-.1.1c-.7.4-1.3 1-1.9 1.6l-.5.5h-18V57.8h18.1c.2.2.5.3.7.4.6.3 1 .6 1.5 1.5l.1.3h14.7l.1-.3c.5-.8.9-1.1 1.4-1.5.2-.1.4-.3.6-.4H335v22.8z"
           fill="#e4e0dc"
           id="path602" />
        <path
           d="M334.3 58.3v21.8h-17.1l-.4-.4c-.6-.6-1.3-1.3-2-1.7l-.2-.1H300l-.2.1c-.7.4-1.4 1-2 1.7l-.4.4H280V58.3h17.4l.6.3c.5.3.9.5 1.3 1.3l.3.5H314.9l.3-.5c.4-.7.8-1 1.2-1.3.1-.1.3-.2.5-.3h17.4M316.8 57c-.8.9-1.7.9-2.5 2.4h-14.1c-.8-1.5-1.7-1.5-2.5-2.2H279V81h18.7c.8-.8 1.7-1.7 2.5-2.2h14.1c.8.5 1.7 1.4 2.5 2.2h18.5V57.3h-18.5z"
           fill="#a6a6a6"
           id="path604" />
      </g>
      <path
         clip-rule="evenodd"
         fill="#404040"
         fill-rule="evenodd"
         d="M301.4 75.2l-5.6-10.3H306zM313.4 64.4l-5.6 10.2H319z"
         id="path608" />
      <g
         id="g614">
        <path
           d="M300.5 59c-.7 0-1.5-.8-2.2-1.6-.6-.6-.7-1.1-.7-1.7h19.6c-.1.2-.2.4-.3.5-.2.4-.5.9-.6 1.3-.7.7-1.5 1.5-2.1 1.5z"
           clip-rule="evenodd"
           fill="#e4e0dc"
           fill-rule="evenodd"
           id="path610" />
        <path
           d="M316.4 56.1c-.2.3-.4.7-.5 1.1-.6.6-1.3 1.2-1.6 1.2h-13.7c-.5 0-1.3-.8-1.9-1.4-.3-.3-.4-.6-.5-.9h18.2m1.4-1H297c0 .9 0 1.7.9 2.6.9.9 1.7 1.7 2.6 1.7h13.7c.9 0 1.7-.9 2.6-1.7 0-.8 1-1.7 1-2.6z"
           fill="#a6a6a6"
           id="path612" />
      </g>
    </g>
    <g
       id="g674">
      <path
         fill="#4d4d4d"
         d="M337.5 22h55.3v96.5h-55.3z"
         id="path618" />
      <path
         d="M392.3 22.5V118H338V22.5h54.3m1-1H337V119h56.3z"
         fill="#a6a6a6"
         id="path620" />
      <g
         clip-rule="evenodd"
         fill="#856427"
         fill-rule="evenodd"
         id="g624">
        <path
           d="M342.4 47.5h1.1v4.3h-1.1zM345.7 47.5h1.1v4.3h-1.1zM352.2 47.5h1.1v4.3h-1.1zM348.9 47.5h1.1v4.3h-1.1zM355.4 47.5h1.1v4.3h-1.1zM358.6 47.5h1.1v4.3h-1.1zM363 47.5h1.1v4.3H363z"
           id="path622" />
      </g>
      <path
         d="M385.1 51.4v-8.8h4.4v8.8zm0-15.2v-9.8h4.4v9.8z"
         fill="#b3b3b3"
         id="path626" />
      <path
         d="M389 26.9v8.8h-3.4v-8.8h3.4m0 16.2v7.8h-3.4v-7.8h3.4m1-17.2h-5.4v10.8h5.4zm0 16.2h-5.4v9.7h5.4z"
         id="path628" />
      <path
         d="M385.1 114.2v-8.8h4.4v8.8zm0-14.1v-9.8h4.4v9.8z"
         fill="#b3b3b3"
         id="path630" />
      <path
         d="M389 90.8v8.8h-3.4v-8.8h3.4m0 15.2v7.8h-3.4V106h3.4m1-16.2h-5.4v10.8h5.4zm0 15.2h-5.4v9.8h5.4z"
         id="path632" />
      <path
         clip-rule="evenodd"
         fill="#737373"
         fill-rule="evenodd"
         d="M360.2 29.6h3.3V34h-3.3z"
         id="path634" />
      <path
         d="M363.1 30.1v3.4h-2.3v-3.4h2.3m1-1h-4.3v5.4h4.3z"
         fill="#333"
         id="path636" />
      <path
         clip-rule="evenodd"
         fill="#737373"
         fill-rule="evenodd"
         d="M365.6 29.6h3.3V34h-3.3z"
         id="path638" />
      <path
         d="M368.5 30.1v3.4h-2.3v-3.4h2.3m1-1h-4.3v5.4h4.3z"
         fill="#333"
         id="path640" />
      <path
         clip-rule="evenodd"
         fill="#737373"
         fill-rule="evenodd"
         d="M360.2 107.6h3.3v4.4h-3.3z"
         id="path642" />
      <path
         d="M363.1 108.1v3.4h-2.3v-3.4h2.3m1-1h-4.3v5.4h4.3z"
         fill="#333"
         id="path644" />
      <path
         clip-rule="evenodd"
         fill="#737373"
         fill-rule="evenodd"
         d="M365.6 107.6h3.3v4.4h-3.3z"
         id="path646" />
      <path
         d="M368.5 108.1v3.4h-2.3v-3.4h2.3m1-1h-4.3v5.4h4.3z"
         fill="#333"
         id="path648" />
      <g
         clip-rule="evenodd"
         fill="#856427"
         fill-rule="evenodd"
         id="g652">
        <path
           d="M342.4 85.5h1.1v4.3h-1.1zM345.7 85.5h1.1v4.3h-1.1zM352.2 85.5h1.1v4.3h-1.1zM348.9 85.5h1.1v4.3h-1.1zM355.4 85.5h1.1v4.3h-1.1zM358.6 85.5h1.1v4.3h-1.1zM363 85.5h1.1v4.3H363z"
           id="path650" />
      </g>
      <g
         id="g658">
        <path
           d="M355.6 81.7c0-.6.1-1.2.7-1.7.8-.8 1.6-1.6 2.2-1.6h13.7c.6 0 1.4.7 2.1 1.5.1.5.3.9.6 1.3.1.2.2.4.3.5z"
           clip-rule="evenodd"
           fill="#e4e0dc"
           fill-rule="evenodd"
           id="path654" />
        <path
           d="M372.2 78.9c.4 0 1.1.6 1.6 1.2.1.4.3.8.5 1.1h-18.2c.1-.3.2-.6.5-.9.6-.6 1.4-1.4 1.9-1.4h13.7m0-1h-13.7c-.9 0-1.7.9-2.6 1.7-.9.9-.9 1.7-.9 2.6h20.8c0-.9-1-1.7-1-2.6-.8-.9-1.7-1.7-2.6-1.7z"
           fill="#a6a6a6"
           id="path656" />
      </g>
      <g
         id="g664">
        <path
           d="M375 80.6c-.2-.2-.4-.3-.5-.5-.6-.6-1.2-1.2-1.9-1.6l-.1-.1h-14.3l-.1.1c-.7.4-1.3 1-1.9 1.6l-.5.5h-18V57.8h18.1c.2.2.5.3.7.4.6.3 1 .6 1.5 1.5l.1.3h14.7l.1-.3c.5-.8.9-1.1 1.4-1.5.2-.1.4-.3.6-.4H393v22.8z"
           fill="#e4e0dc"
           id="path660" />
        <path
           d="M392.3 58.3v21.8h-17.1l-.4-.4c-.6-.6-1.3-1.3-2-1.7l-.2-.1H358l-.2.1c-.7.4-1.4 1-2 1.7l-.4.4H338V58.3h17.4l.6.3c.5.3.9.5 1.3 1.3l.3.5H372.9l.3-.5c.4-.7.8-1 1.2-1.3.1-.1.3-.2.5-.3h17.4M374.8 57c-.8.9-1.7.9-2.5 2.4h-14.1c-.8-1.5-1.7-1.5-2.5-2.2H337V81h18.7c.8-.8 1.7-1.7 2.5-2.2h14.1c.8.5 1.7 1.4 2.5 2.2h18.5V57.3h-18.5z"
           fill="#a6a6a6"
           id="path662" />
      </g>
      <path
         clip-rule="evenodd"
         fill="#404040"
         fill-rule="evenodd"
         d="M359.4 75.2l-5.6-10.3H364zM371.4 64.4l-5.6 10.2H377z"
         id="path666" />
      <g
         id="g672">
        <path
           d="M358.5 59c-.7 0-1.5-.8-2.2-1.6-.6-.6-.7-1.1-.7-1.7h19.6c-.1.2-.2.4-.3.5-.2.4-.5.9-.6 1.3-.7.7-1.5 1.5-2.1 1.5z"
           clip-rule="evenodd"
           fill="#e4e0dc"
           fill-rule="evenodd"
           id="path668" />
        <path
           d="M374.4 56.1c-.2.3-.4.7-.5 1.1-.6.6-1.3 1.2-1.6 1.2h-13.7c-.5 0-1.3-.8-1.9-1.4-.3-.3-.4-.6-.5-.9h18.2m1.4-1H355c0 .9 0 1.7.9 2.6.9.9 1.7 1.7 2.6 1.7h13.7c.9 0 1.7-.9 2.6-1.7 0-.8 1-1.7 1-2.6z"
           fill="#a6a6a6"
           id="path670" />
      </g>
    </g>
    <g
       id="g732">
      <path
         fill="#4d4d4d"
         d="M395.5 22h55.3v96.5h-55.3z"
         id="path676" />
      <path
         d="M450.3 22.5V118H396V22.5h54.3m1-1H395V119h56.3z"
         fill="#a6a6a6"
         id="path678" />
      <g
         clip-rule="evenodd"
         fill="#856427"
         fill-rule="evenodd"
         id="g682">
        <path
           d="M400.4 47.5h1.1v4.3h-1.1zM403.7 47.5h1.1v4.3h-1.1zM410.2 47.5h1.1v4.3h-1.1zM406.9 47.5h1.1v4.3h-1.1zM413.4 47.5h1.1v4.3h-1.1zM416.6 47.5h1.1v4.3h-1.1zM421 47.5h1.1v4.3H421z"
           id="path680" />
      </g>
      <path
         d="M443.1 51.4v-8.8h4.4v8.8zm0-15.2v-9.8h4.4v9.8z"
         fill="#b3b3b3"
         id="path684" />
      <path
         d="M447 26.9v8.8h-3.4v-8.8h3.4m0 16.2v7.8h-3.4v-7.8h3.4m1-17.2h-5.4v10.8h5.4zm0 16.2h-5.4v9.7h5.4z"
         id="path686" />
      <path
         d="M443.1 114.2v-8.8h4.4v8.8zm0-14.1v-9.8h4.4v9.8z"
         fill="#b3b3b3"
         id="path688" />
      <path
         d="M447 90.8v8.8h-3.4v-8.8h3.4m0 15.2v7.8h-3.4V106h3.4m1-16.2h-5.4v10.8h5.4zm0 15.2h-5.4v9.8h5.4z"
         id="path690" />
      <path
         clip-rule="evenodd"
         fill="#737373"
         fill-rule="evenodd"
         d="M418.2 29.6h3.3V34h-3.3z"
         id="path692" />
      <path
         d="M421.1 30.1v3.4h-2.3v-3.4h2.3m1-1h-4.3v5.4h4.3z"
         fill="#333"
         id="path694" />
      <path
         clip-rule="evenodd"
         fill="#737373"
         fill-rule="evenodd"
         d="M423.6 29.6h3.3V34h-3.3z"
         id="path696" />
      <path
         d="M426.5 30.1v3.4h-2.3v-3.4h2.3m1-1h-4.3v5.4h4.3z"
         fill="#333"
         id="path698" />
      <path
         clip-rule="evenodd"
         fill="#737373"
         fill-rule="evenodd"
         d="M418.2 107.6h3.3v4.4h-3.3z"
         id="path700" />
      <path
         d="M421.1 108.1v3.4h-2.3v-3.4h2.3m1-1h-4.3v5.4h4.3z"
         fill="#333"
         id="path702" />
      <path
         clip-rule="evenodd"
         fill="#737373"
         fill-rule="evenodd"
         d="M423.6 107.6h3.3v4.4h-3.3z"
         id="path704" />
      <path
         d="M426.5 108.1v3.4h-2.3v-3.4h2.3m1-1h-4.3v5.4h4.3z"
         fill="#333"
         id="path706" />
      <g
         clip-rule="evenodd"
         fill="#856427"
         fill-rule="evenodd"
         id="g710">
        <path
           d="M400.4 85.5h1.1v4.3h-1.1zM403.7 85.5h1.1v4.3h-1.1zM410.2 85.5h1.1v4.3h-1.1zM406.9 85.5h1.1v4.3h-1.1zM413.4 85.5h1.1v4.3h-1.1zM416.6 85.5h1.1v4.3h-1.1zM421 85.5h1.1v4.3H421z"
           id="path708" />
      </g>
      <g
         id="g716">
        <path
           d="M413.6 81.7c0-.6.1-1.2.7-1.7.8-.8 1.6-1.6 2.2-1.6h13.7c.6 0 1.4.7 2.1 1.5.1.5.3.9.6 1.3.1.2.2.4.3.5z"
           clip-rule="evenodd"
           fill="#e4e0dc"
           fill-rule="evenodd"
           id="path712" />
        <path
           d="M430.2 78.9c.4 0 1.1.6 1.6 1.2.1.4.3.8.5 1.1h-18.2c.1-.3.2-.6.5-.9.6-.6 1.4-1.4 1.9-1.4h13.7m0-1h-13.7c-.9 0-1.7.9-2.6 1.7-.9.9-.9 1.7-.9 2.6h20.8c0-.9-1-1.7-1-2.6-.8-.9-1.7-1.7-2.6-1.7z"
           fill="#a6a6a6"
           id="path714" />
      </g>
      <g
         id="g722">
        <path
           d="M433 80.6c-.2-.2-.4-.3-.5-.5-.6-.6-1.2-1.2-1.9-1.6l-.1-.1h-14.3l-.1.1c-.7.4-1.3 1-1.9 1.6l-.5.5h-18V57.8h18.1c.2.2.5.3.7.4.6.3 1 .6 1.5 1.5l.1.3h14.7l.1-.3c.5-.8.9-1.1 1.4-1.5.2-.1.4-.3.6-.4H451v22.8z"
           fill="#e4e0dc"
           id="path718" />
        <path
           d="M450.3 58.3v21.8h-17.1l-.4-.4c-.6-.6-1.3-1.3-2-1.7l-.2-.1H416l-.2.1c-.7.4-1.4 1-2 1.7l-.4.4H396V58.3h17.4l.6.3c.5.3.9.5 1.3 1.3l.3.5H430.9l.3-.5c.4-.7.8-1 1.2-1.3.1-.1.3-.2.5-.3h17.4M432.8 57c-.8.9-1.7.9-2.5 2.4h-14.1c-.8-1.5-1.7-1.5-2.5-2.2H395V81h18.7c.8-.8 1.7-1.7 2.5-2.2h14.1c.8.5 1.7 1.4 2.5 2.2h18.5V57.3h-18.5z"
           fill="#a6a6a6"
           id="path720" />
      </g>
      <path
         clip-rule="evenodd"
         fill="#404040"
         fill-rule="evenodd"
         d="M417.4 75.2l-5.6-10.3H422zM429.4 64.4l-5.6 10.2H435z"
         id="path724" />
      <g
         id="g730">
        <path
           d="M416.5 59c-.7 0-1.5-.8-2.2-1.6-.6-.6-.7-1.1-.7-1.7h19.6c-.1.2-.2.4-.3.5-.2.4-.5.9-.6 1.3-.7.7-1.5 1.5-2.1 1.5z"
           clip-rule="evenodd"
           fill="#e4e0dc"
           fill-rule="evenodd"
           id="path726" />
        <path
           d="M432.4 56.1c-.2.3-.4.7-.5 1.1-.6.6-1.3 1.2-1.6 1.2h-13.7c-.5 0-1.3-.8-1.9-1.4-.3-.3-.4-.6-.5-.9h18.2m1.4-1H413c0 .9 0 1.7.9 2.6.9.9 1.7 1.7 2.6 1.7h13.7c.9 0 1.7-.9 2.6-1.7 0-.8 1-1.7 1-2.6z"
           fill="#a6a6a6"
           id="path728" />
      </g>
    </g>
    <g
       id="g790">
      <path
         fill="#4d4d4d"
         d="M453.5 22h55.3v96.5h-55.3z"
         id="path734" />
      <path
         d="M508.3 22.5V118H454V22.5h54.3m1-1H453V119h56.3z"
         fill="#a6a6a6"
         id="path736" />
      <g
         clip-rule="evenodd"
         fill="#856427"
         fill-rule="evenodd"
         id="g740">
        <path
           d="M458.4 47.5h1.1v4.3h-1.1zM461.7 47.5h1.1v4.3h-1.1zM468.2 47.5h1.1v4.3h-1.1zM464.9 47.5h1.1v4.3h-1.1zM471.4 47.5h1.1v4.3h-1.1zM474.6 47.5h1.1v4.3h-1.1zM479 47.5h1.1v4.3H479z"
           id="path738" />
      </g>
      <path
         d="M501.1 51.4v-8.8h4.4v8.8zm0-15.2v-9.8h4.4v9.8z"
         fill="#b3b3b3"
         id="path742" />
      <path
         d="M505 26.9v8.8h-3.4v-8.8h3.4m0 16.2v7.8h-3.4v-7.8h3.4m1-17.2h-5.4v10.8h5.4zm0 16.2h-5.4v9.7h5.4z"
         id="path744" />
      <path
         d="M501.1 114.2v-8.8h4.4v8.8zm0-14.1v-9.8h4.4v9.8z"
         fill="#b3b3b3"
         id="path746" />
      <path
         d="M505 90.8v8.8h-3.4v-8.8h3.4m0 15.2v7.8h-3.4V106h3.4m1-16.2h-5.4v10.8h5.4zm0 15.2h-5.4v9.8h5.4z"
         id="path748" />
      <path
         clip-rule="evenodd"
         fill="#737373"
         fill-rule="evenodd"
         d="M476.2 29.6h3.3V34h-3.3z"
         id="path750" />
      <path
         d="M479.1 30.1v3.4h-2.3v-3.4h2.3m1-1h-4.3v5.4h4.3z"
         fill="#333"
         id="path752" />
      <path
         clip-rule="evenodd"
         fill="#737373"
         fill-rule="evenodd"
         d="M481.6 29.6h3.3V34h-3.3z"
         id="path754" />
      <path
         d="M484.5 30.1v3.4h-2.3v-3.4h2.3m1-1h-4.3v5.4h4.3z"
         fill="#333"
         id="path756" />
      <path
         clip-rule="evenodd"
         fill="#737373"
         fill-rule="evenodd"
         d="M476.2 107.6h3.3v4.4h-3.3z"
         id="path758" />
      <path
         d="M479.1 108.1v3.4h-2.3v-3.4h2.3m1-1h-4.3v5.4h4.3z"
         fill="#333"
         id="path760" />
      <path
         clip-rule="evenodd"
         fill="#737373"
         fill-rule="evenodd"
         d="M481.6 107.6h3.3v4.4h-3.3z"
         id="path762" />
      <path
         d="M484.5 108.1v3.4h-2.3v-3.4h2.3m1-1h-4.3v5.4h4.3z"
         fill="#333"
         id="path764" />
      <g
         clip-rule="evenodd"
         fill="#856427"
         fill-rule="evenodd"
         id="g768">
        <path
           d="M458.4 85.5h1.1v4.3h-1.1zM461.7 85.5h1.1v4.3h-1.1zM468.2 85.5h1.1v4.3h-1.1zM464.9 85.5h1.1v4.3h-1.1zM471.4 85.5h1.1v4.3h-1.1zM474.6 85.5h1.1v4.3h-1.1zM479 85.5h1.1v4.3H479z"
           id="path766" />
      </g>
      <g
         id="g774">
        <path
           d="M471.6 81.7c0-.6.1-1.2.7-1.7.8-.8 1.6-1.6 2.2-1.6h13.7c.6 0 1.4.7 2.1 1.5.1.5.3.9.6 1.3.1.2.2.4.3.5z"
           clip-rule="evenodd"
           fill="#e4e0dc"
           fill-rule="evenodd"
           id="path770" />
        <path
           d="M488.2 78.9c.4 0 1.1.6 1.6 1.2.1.4.3.8.5 1.1h-18.2c.1-.3.2-.6.5-.9.6-.6 1.4-1.4 1.9-1.4h13.7m0-1h-13.7c-.9 0-1.7.9-2.6 1.7-.9.9-.9 1.7-.9 2.6h20.8c0-.9-1-1.7-1-2.6-.8-.9-1.7-1.7-2.6-1.7z"
           fill="#a6a6a6"
           id="path772" />
      </g>
      <g
         id="g780">
        <path
           d="M491 80.6c-.2-.2-.4-.3-.5-.5-.6-.6-1.2-1.2-1.9-1.6l-.1-.1h-14.3l-.1.1c-.7.4-1.3 1-1.9 1.6l-.5.5h-18V57.8h18.1c.2.2.5.3.7.4.6.3 1 .6 1.5 1.5l.1.3h14.7l.1-.3c.5-.8.9-1.1 1.4-1.5.2-.1.4-.3.6-.4H509v22.8z"
           fill="#e4e0dc"
           id="path776" />
        <path
           d="M508.3 58.3v21.8h-17.1l-.4-.4c-.6-.6-1.3-1.3-2-1.7l-.2-.1H474l-.2.1c-.7.4-1.4 1-2 1.7l-.4.4H454V58.3h17.4l.6.3c.5.3.9.5 1.3 1.3l.3.5H488.9l.3-.5c.4-.7.8-1 1.2-1.3.1-.1.3-.2.5-.3h17.4M490.8 57c-.8.9-1.7.9-2.5 2.4h-14.1c-.8-1.5-1.7-1.5-2.5-2.2H453V81h18.7c.8-.8 1.7-1.7 2.5-2.2h14.1c.8.5 1.7 1.4 2.5 2.2h18.5V57.3h-18.5z"
           fill="#a6a6a6"
           id="path778" />
      </g>
      <path
         clip-rule="evenodd"
         fill="#404040"
         fill-rule="evenodd"
         d="M475.4 75.2l-5.6-10.3H480zM487.4 64.4l-5.6 10.2H493z"
         id="path782" />
      <g
         id="g788">
        <path
           d="M474.5 59c-.7 0-1.5-.8-2.2-1.6-.6-.6-.7-1.1-.7-1.7h19.6c-.1.2-.2.4-.3.5-.2.4-.5.9-.6 1.3-.7.7-1.5 1.5-2.1 1.5z"
           clip-rule="evenodd"
           fill="#e4e0dc"
           fill-rule="evenodd"
           id="path784" />
        <path
           d="M490.4 56.1c-.2.3-.4.7-.5 1.1-.6.6-1.3 1.2-1.6 1.2h-13.7c-.5 0-1.3-.8-1.9-1.4-.3-.3-.4-.6-.5-.9h18.2m1.4-1H471c0 .9 0 1.7.9 2.6.9.9 1.7 1.7 2.6 1.7h13.7c.9 0 1.7-.9 2.6-1.7 0-.8 1-1.7 1-2.6z"
           fill="#a6a6a6"
           id="path786" />
      </g>
    </g>
    <g
       id="g848">
      <path
         fill="#4d4d4d"
         d="M511.5 22h55.3v96.5h-55.3z"
         id="path792" />
      <path
         d="M566.3 22.5V118H512V22.5h54.3m1-1H511V119h56.3z"
         fill="#a6a6a6"
         id="path794" />
      <g
         clip-rule="evenodd"
         fill="#856427"
         fill-rule="evenodd"
         id="g798">
        <path
           d="M516.4 47.5h1.1v4.3h-1.1zM519.7 47.5h1.1v4.3h-1.1zM526.2 47.5h1.1v4.3h-1.1zM522.9 47.5h1.1v4.3h-1.1zM529.4 47.5h1.1v4.3h-1.1zM532.6 47.5h1.1v4.3h-1.1zM537 47.5h1.1v4.3H537z"
           id="path796" />
      </g>
      <path
         d="M559.1 51.4v-8.8h4.4v8.8zm0-15.2v-9.8h4.4v9.8z"
         fill="#b3b3b3"
         id="path800" />
      <path
         d="M563 26.9v8.8h-3.4v-8.8h3.4m0 16.2v7.8h-3.4v-7.8h3.4m1-17.2h-5.4v10.8h5.4zm0 16.2h-5.4v9.7h5.4z"
         id="path802" />
      <path
         d="M559.1 114.2v-8.8h4.4v8.8zm0-14.1v-9.8h4.4v9.8z"
         fill="#b3b3b3"
         id="path804" />
      <path
         d="M563 90.8v8.8h-3.4v-8.8h3.4m0 15.2v7.8h-3.4V106h3.4m1-16.2h-5.4v10.8h5.4zm0 15.2h-5.4v9.8h5.4z"
         id="path806" />
      <path
         clip-rule="evenodd"
         fill="#737373"
         fill-rule="evenodd"
         d="M534.2 29.6h3.3V34h-3.3z"
         id="path808" />
      <path
         d="M537.1 30.1v3.4h-2.3v-3.4h2.3m1-1h-4.3v5.4h4.3z"
         fill="#333"
         id="path810" />
      <path
         clip-rule="evenodd"
         fill="#737373"
         fill-rule="evenodd"
         d="M539.6 29.6h3.3V34h-3.3z"
         id="path812" />
      <path
         d="M542.5 30.1v3.4h-2.3v-3.4h2.3m1-1h-4.3v5.4h4.3z"
         fill="#333"
         id="path814" />
      <path
         clip-rule="evenodd"
         fill="#737373"
         fill-rule="evenodd"
         d="M534.2 107.6h3.3v4.4h-3.3z"
         id="path816" />
      <path
         d="M537.1 108.1v3.4h-2.3v-3.4h2.3m1-1h-4.3v5.4h4.3z"
         fill="#333"
         id="path818" />
      <path
         clip-rule="evenodd"
         fill="#737373"
         fill-rule="evenodd"
         d="M539.6 107.6h3.3v4.4h-3.3z"
         id="path820" />
      <path
         d="M542.5 108.1v3.4h-2.3v-3.4h2.3m1-1h-4.3v5.4h4.3z"
         fill="#333"
         id="path822" />
      <g
         clip-rule="evenodd"
         fill="#856427"
         fill-rule="evenodd"
         id="g826">
        <path
           d="M516.4 85.5h1.1v4.3h-1.1zM519.7 85.5h1.1v4.3h-1.1zM526.2 85.5h1.1v4.3h-1.1zM522.9 85.5h1.1v4.3h-1.1zM529.4 85.5h1.1v4.3h-1.1zM532.6 85.5h1.1v4.3h-1.1zM537 85.5h1.1v4.3H537z"
           id="path824" />
      </g>
      <g
         id="g832">
        <path
           d="M529.6 81.7c0-.6.1-1.2.7-1.7.8-.8 1.6-1.6 2.2-1.6h13.7c.6 0 1.4.7 2.1 1.5.1.5.3.9.6 1.3.1.2.2.4.3.5z"
           clip-rule="evenodd"
           fill="#e4e0dc"
           fill-rule="evenodd"
           id="path828" />
        <path
           d="M546.2 78.9c.4 0 1.1.6 1.6 1.2.1.4.3.8.5 1.1h-18.2c.1-.3.2-.6.5-.9.6-.6 1.4-1.4 1.9-1.4h13.7m0-1h-13.7c-.9 0-1.7.9-2.6 1.7-.9.9-.9 1.7-.9 2.6h20.8c0-.9-1-1.7-1-2.6-.8-.9-1.7-1.7-2.6-1.7z"
           fill="#a6a6a6"
           id="path830" />
      </g>
      <g
         id="g838">
        <path
           d="M549 80.6c-.2-.2-.4-.3-.5-.5-.6-.6-1.2-1.2-1.9-1.6l-.1-.1h-14.3l-.1.1c-.7.4-1.3 1-1.9 1.6l-.5.5h-18V57.8h18.1c.2.2.5.3.7.4.6.3 1 .6 1.5 1.5l.1.3h14.7l.1-.3c.5-.8.9-1.1 1.4-1.5.2-.1.4-.3.6-.4H567v22.8z"
           fill="#e4e0dc"
           id="path834" />
        <path
           d="M566.3 58.3v21.8h-17.1l-.4-.4c-.6-.6-1.3-1.3-2-1.7l-.2-.1H532l-.2.1c-.7.4-1.4 1-2 1.7l-.4.4H512V58.3h17.4l.6.3c.5.3.9.5 1.3 1.3l.3.5H546.9l.3-.5c.4-.7.8-1 1.2-1.3.1-.1.3-.2.5-.3h17.4M548.8 57c-.8.9-1.7.9-2.5 2.4h-14.1c-.8-1.5-1.7-1.5-2.5-2.2H511V81h18.7c.8-.8 1.7-1.7 2.5-2.2h14.1c.8.5 1.7 1.4 2.5 2.2h18.5V57.3h-18.5z"
           fill="#a6a6a6"
           id="path836" />
      </g>
      <path
         clip-rule="evenodd"
         fill="#404040"
         fill-rule="evenodd"
         d="M533.4 75.2l-5.6-10.3H538zM545.4 64.4l-5.6 10.2H551z"
         id="path840" />
      <g
         id="g846">
        <path
           d="M532.5 59c-.7 0-1.5-.8-2.2-1.6-.6-.6-.7-1.1-.7-1.7h19.6c-.1.2-.2.4-.3.5-.2.4-.5.9-.6 1.3-.7.7-1.5 1.5-2.1 1.5z"
           clip-rule="evenodd"
           fill="#e4e0dc"
           fill-rule="evenodd"
           id="path842" />
        <path
           d="M548.4 56.1c-.2.3-.4.7-.5 1.1-.6.6-1.3 1.2-1.6 1.2h-13.7c-.5 0-1.3-.8-1.9-1.4-.3-.3-.4-.6-.5-.9h18.2m1.4-1H529c0 .9 0 1.7.9 2.6.9.9 1.7 1.7 2.6 1.7h13.7c.9 0 1.7-.9 2.6-1.7 0-.8 1-1.7 1-2.6z"
           fill="#a6a6a6"
           id="path844" />
      </g>
    </g>
    <g
       id="g906">
      <path
         fill="#4d4d4d"
         d="M569.5 22h55.3v96.5h-55.3z"
         id="path850" />
      <path
         d="M624.3 22.5V118H570V22.5h54.3m1-1H569V119h56.3z"
         fill="#a6a6a6"
         id="path852" />
      <g
         clip-rule="evenodd"
         fill="#856427"
         fill-rule="evenodd"
         id="g856">
        <path
           d="M574.4 47.5h1.1v4.3h-1.1zM577.7 47.5h1.1v4.3h-1.1zM584.2 47.5h1.1v4.3h-1.1zM580.9 47.5h1.1v4.3h-1.1zM587.4 47.5h1.1v4.3h-1.1zM590.6 47.5h1.1v4.3h-1.1zM595 47.5h1.1v4.3H595z"
           id="path854" />
      </g>
      <path
         d="M617.1 51.4v-8.8h4.4v8.8zm0-15.2v-9.8h4.4v9.8z"
         fill="#b3b3b3"
         id="path858" />
      <path
         d="M621 26.9v8.8h-3.4v-8.8h3.4m0 16.2v7.8h-3.4v-7.8h3.4m1-17.2h-5.4v10.8h5.4zm0 16.2h-5.4v9.7h5.4z"
         id="path860" />
      <path
         d="M617.1 114.2v-8.8h4.4v8.8zm0-14.1v-9.8h4.4v9.8z"
         fill="#b3b3b3"
         id="path862" />
      <path
         d="M621 90.8v8.8h-3.4v-8.8h3.4m0 15.2v7.8h-3.4V106h3.4m1-16.2h-5.4v10.8h5.4zm0 15.2h-5.4v9.8h5.4z"
         id="path864" />
      <path
         clip-rule="evenodd"
         fill="#737373"
         fill-rule="evenodd"
         d="M592.2 29.6h3.3V34h-3.3z"
         id="path866" />
      <path
         d="M595.1 30.1v3.4h-2.3v-3.4h2.3m1-1h-4.3v5.4h4.3z"
         fill="#333"
         id="path868" />
      <path
         clip-rule="evenodd"
         fill="#737373"
         fill-rule="evenodd"
         d="M597.6 29.6h3.3V34h-3.3z"
         id="path870" />
      <path
         d="M600.5 30.1v3.4h-2.3v-3.4h2.3m1-1h-4.3v5.4h4.3z"
         fill="#333"
         id="path872" />
      <path
         clip-rule="evenodd"
         fill="#737373"
         fill-rule="evenodd"
         d="M592.2 107.6h3.3v4.4h-3.3z"
         id="path874" />
      <path
         d="M595.1 108.1v3.4h-2.3v-3.4h2.3m1-1h-4.3v5.4h4.3z"
         fill="#333"
         id="path876" />
      <path
         clip-rule="evenodd"
         fill="#737373"
         fill-rule="evenodd"
         d="M597.6 107.6h3.3v4.4h-3.3z"
         id="path878" />
      <path
         d="M600.5 108.1v3.4h-2.3v-3.4h2.3m1-1h-4.3v5.4h4.3z"
         fill="#333"
         id="path880" />
      <g
         clip-rule="evenodd"
         fill="#856427"
         fill-rule="evenodd"
         id="g884">
        <path
           d="M574.4 85.5h1.1v4.3h-1.1zM577.7 85.5h1.1v4.3h-1.1zM584.2 85.5h1.1v4.3h-1.1zM580.9 85.5h1.1v4.3h-1.1zM587.4 85.5h1.1v4.3h-1.1zM590.6 85.5h1.1v4.3h-1.1zM595 85.5h1.1v4.3H595z"
           id="path882" />
      </g>
      <g
         id="g890">
        <path
           d="M587.6 81.7c0-.6.1-1.2.7-1.7.8-.8 1.6-1.6 2.2-1.6h13.7c.6 0 1.4.7 2.1 1.5.1.5.3.9.6 1.3.1.2.2.4.3.5z"
           clip-rule="evenodd"
           fill="#e4e0dc"
           fill-rule="evenodd"
           id="path886" />
        <path
           d="M604.2 78.9c.4 0 1.1.6 1.6 1.2.1.4.3.8.5 1.1h-18.2c.1-.3.2-.6.5-.9.6-.6 1.4-1.4 1.9-1.4h13.7m0-1h-13.7c-.9 0-1.7.9-2.6 1.7-.9.9-.9 1.7-.9 2.6h20.8c0-.9-1-1.7-1-2.6-.8-.9-1.7-1.7-2.6-1.7z"
           fill="#a6a6a6"
           id="path888" />
      </g>
      <g
         id="g896">
        <path
           d="M607 80.6c-.2-.2-.4-.3-.5-.5-.6-.6-1.2-1.2-1.9-1.6l-.1-.1h-14.3l-.1.1c-.7.4-1.3 1-1.9 1.6l-.5.5h-18V57.8h18.1c.2.2.5.3.7.4.6.3 1 .6 1.5 1.5l.1.3h14.7l.1-.3c.5-.8.9-1.1 1.4-1.5.2-.1.4-.3.6-.4H625v22.8z"
           fill="#e4e0dc"
           id="path892" />
        <path
           d="M624.3 58.3v21.8h-17.1l-.4-.4c-.6-.6-1.3-1.3-2-1.7l-.2-.1H590l-.2.1c-.7.4-1.4 1-2 1.7l-.4.4H570V58.3h17.4l.6.3c.5.3.9.5 1.3 1.3l.3.5H604.9l.3-.5c.4-.7.8-1 1.2-1.3.1-.1.3-.2.5-.3h17.4M606.8 57c-.8.9-1.7.9-2.5 2.4h-14.1c-.8-1.5-1.7-1.5-2.5-2.2H569V81h18.7c.8-.8 1.7-1.7 2.5-2.2h14.1c.8.5 1.7 1.4 2.5 2.2h18.5V57.3h-18.5z"
           fill="#a6a6a6"
           id="path894" />
      </g>
      <path
         clip-rule="evenodd"
         fill="#404040"
         fill-rule="evenodd"
         d="M591.4 75.2l-5.6-10.3H596zM603.4 64.4l-5.6 10.2H609z"
         id="path898" />
      <g
         id="g904">
        <path
           d="M590.5 59c-.7 0-1.5-.8-2.2-1.6-.6-.6-.7-1.1-.7-1.7h19.6c-.1.2-.2.4-.3.5-.2.4-.5.9-.6 1.3-.7.7-1.5 1.5-2.1 1.5z"
           clip-rule="evenodd"
           fill="#e4e0dc"
           fill-rule="evenodd"
           id="path900" />
        <path
           d="M606.4 56.1c-.2.3-.4.7-.5 1.1-.6.6-1.3 1.2-1.6 1.2h-13.7c-.5 0-1.3-.8-1.9-1.4-.3-.3-.4-.6-.5-.9h18.2m1.4-1H587c0 .9 0 1.7.9 2.6.9.9 1.7 1.7 2.6 1.7h13.7c.9 0 1.7-.9 2.6-1.7 0-.8 1-1.7 1-2.6z"
           fill="#a6a6a6"
           id="path902" />
      </g>
    </g>
    <g
       id="g964">
      <path
         fill="#4d4d4d"
         d="M627.5 22h55.3v96.5h-55.3z"
         id="path908" />
      <path
         d="M682.3 22.5V118H628V22.5h54.3m1-1H627V119h56.3z"
         fill="#a6a6a6"
         id="path910" />
      <g
         clip-rule="evenodd"
         fill="#856427"
         fill-rule="evenodd"
         id="g914">
        <path
           d="M632.4 47.5h1.1v4.3h-1.1zM635.7 47.5h1.1v4.3h-1.1zM642.2 47.5h1.1v4.3h-1.1zM638.9 47.5h1.1v4.3h-1.1zM645.4 47.5h1.1v4.3h-1.1zM648.6 47.5h1.1v4.3h-1.1zM653 47.5h1.1v4.3H653z"
           id="path912" />
      </g>
      <path
         d="M675.1 51.4v-8.8h4.4v8.8zm0-15.2v-9.8h4.4v9.8z"
         fill="#b3b3b3"
         id="path916" />
      <path
         d="M679 26.9v8.8h-3.4v-8.8h3.4m0 16.2v7.8h-3.4v-7.8h3.4m1-17.2h-5.4v10.8h5.4zm0 16.2h-5.4v9.7h5.4z"
         id="path918" />
      <path
         d="M675.1 114.2v-8.8h4.4v8.8zm0-14.1v-9.8h4.4v9.8z"
         fill="#b3b3b3"
         id="path920" />
      <path
         d="M679 90.8v8.8h-3.4v-8.8h3.4m0 15.2v7.8h-3.4V106h3.4m1-16.2h-5.4v10.8h5.4zm0 15.2h-5.4v9.8h5.4z"
         id="path922" />
      <path
         clip-rule="evenodd"
         fill="#737373"
         fill-rule="evenodd"
         d="M650.2 29.6h3.3V34h-3.3z"
         id="path924" />
      <path
         d="M653.1 30.1v3.4h-2.3v-3.4h2.3m1-1h-4.3v5.4h4.3z"
         fill="#333"
         id="path926" />
      <path
         clip-rule="evenodd"
         fill="#737373"
         fill-rule="evenodd"
         d="M655.6 29.6h3.3V34h-3.3z"
         id="path928" />
      <path
         d="M658.5 30.1v3.4h-2.3v-3.4h2.3m1-1h-4.3v5.4h4.3z"
         fill="#333"
         id="path930" />
      <path
         clip-rule="evenodd"
         fill="#737373"
         fill-rule="evenodd"
         d="M650.2 107.6h3.3v4.4h-3.3z"
         id="path932" />
      <path
         d="M653.1 108.1v3.4h-2.3v-3.4h2.3m1-1h-4.3v5.4h4.3z"
         fill="#333"
         id="path934" />
      <path
         clip-rule="evenodd"
         fill="#737373"
         fill-rule="evenodd"
         d="M655.6 107.6h3.3v4.4h-3.3z"
         id="path936" />
      <path
         d="M658.5 108.1v3.4h-2.3v-3.4h2.3m1-1h-4.3v5.4h4.3z"
         fill="#333"
         id="path938" />
      <g
         clip-rule="evenodd"
         fill="#856427"
         fill-rule="evenodd"
         id="g942">
        <path
           d="M632.4 85.5h1.1v4.3h-1.1zM635.7 85.5h1.1v4.3h-1.1zM642.2 85.5h1.1v4.3h-1.1zM638.9 85.5h1.1v4.3h-1.1zM645.4 85.5h1.1v4.3h-1.1zM648.6 85.5h1.1v4.3h-1.1zM653 85.5h1.1v4.3H653z"
           id="path940" />
      </g>
      <g
         id="g948">
        <path
           d="M645.6 81.7c0-.6.1-1.2.7-1.7.8-.8 1.6-1.6 2.2-1.6h13.7c.6 0 1.4.7 2.1 1.5.1.5.3.9.6 1.3.1.2.2.4.3.5z"
           clip-rule="evenodd"
           fill="#e4e0dc"
           fill-rule="evenodd"
           id="path944" />
        <path
           d="M662.2 78.9c.4 0 1.1.6 1.6 1.2.1.4.3.8.5 1.1h-18.2c.1-.3.2-.6.5-.9.6-.6 1.4-1.4 1.9-1.4h13.7m0-1h-13.7c-.9 0-1.7.9-2.6 1.7-.9.9-.9 1.7-.9 2.6h20.8c0-.9-1-1.7-1-2.6-.8-.9-1.7-1.7-2.6-1.7z"
           fill="#a6a6a6"
           id="path946" />
      </g>
      <g
         id="g954">
        <path
           d="M665 80.6c-.2-.2-.4-.3-.5-.5-.6-.6-1.2-1.2-1.9-1.6l-.1-.1h-14.3l-.1.1c-.7.4-1.3 1-1.9 1.6l-.5.5h-18V57.8h18.1c.2.2.5.3.7.4.6.3 1 .6 1.5 1.5l.1.3h14.7l.1-.3c.5-.8.9-1.1 1.4-1.5.2-.1.4-.3.6-.4H683v22.8z"
           fill="#e4e0dc"
           id="path950" />
        <path
           d="M682.3 58.3v21.8h-17.1l-.4-.4c-.6-.6-1.3-1.3-2-1.7l-.2-.1H647.9l-.2.1c-.7.4-1.4 1-2 1.7l-.4.4H628V58.3h17.4l.6.3c.5.3.9.5 1.3 1.3l.3.5H662.9l.3-.5c.4-.7.8-1 1.2-1.3.1-.1.3-.2.5-.3h17.4M664.8 57c-.8.9-1.7.9-2.5 2.4h-14.1c-.8-1.5-1.7-1.5-2.5-2.2H627V81h18.7c.8-.8 1.7-1.7 2.5-2.2h14.1c.8.5 1.7 1.4 2.5 2.2h18.5V57.3h-18.5z"
           fill="#a6a6a6"
           id="path952" />
      </g>
      <path
         clip-rule="evenodd"
         fill="#404040"
         fill-rule="evenodd"
         d="M649.4 75.2l-5.6-10.3H654zM661.4 64.4l-5.6 10.2H667z"
         id="path956" />
      <g
         id="g962">
        <path
           d="M648.5 59c-.7 0-1.5-.8-2.2-1.6-.6-.6-.7-1.1-.7-1.7h19.6c-.1.2-.2.4-.3.5-.2.4-.5.9-.6 1.3-.7.7-1.5 1.5-2.1 1.5z"
           clip-rule="evenodd"
           fill="#e4e0dc"
           fill-rule="evenodd"
           id="path958" />
        <path
           d="M664.4 56.1c-.2.3-.4.7-.5 1.1-.6.6-1.3 1.2-1.6 1.2h-13.7c-.5 0-1.3-.8-1.9-1.4-.3-.3-.4-.6-.5-.9h18.2m1.4-1H645c0 .9 0 1.7.9 2.6.9.9 1.7 1.7 2.6 1.7h13.7c.9 0 1.7-.9 2.6-1.7 0-.8 1-1.7 1-2.6z"
           fill="#a6a6a6"
           id="path960" />
      </g>
    </g>
  </g>
  <path
     data-cv-id="PORT-0"
     fill="none"
     d="M222 22.5h54.3v35.8H222z"
     id="path968" />
  <path
     data-cv-id="PORT-1"
     fill="none"
     d="M226.4 85.5h42.7v28.7h-42.7z"
     id="path970" />
  <path
     data-cv-id="PORT-2"
     fill="none"
     d="M280 22.5h54.3v35.8H280z"
     id="path972" />
  <path
     data-cv-id="PORT-3"
     fill="none"
     d="M280 80.1h47.1v34.1H280z"
     id="path974" />
  <path
     data-cv-id="PORT-4"
     fill="none"
     d="M332 25.9h60.3v32.4H332z"
     id="path976" />
  <path
     data-cv-id="PORT-5"
     fill="none"
     d="M342.4 85.5H390v29.3h-47.6z"
     id="path978" />
  <path
     data-cv-id="PORT-6"
     fill="none"
     d="M392.3 25.9H448v25.9h-55.7z"
     id="path980" />
  <path
     data-cv-id="PORT-7"
     fill="none"
     d="M400.4 85.5h42.7v28.7h-42.7z"
     id="path982" />
  <path
     data-cv-id="PORT-8"
     fill="none"
     d="M454 22.5h52v29.3h-52z"
     id="path984" />
  <path
     data-cv-id="PORT-9"
     fill="none"
     d="M458.4 85.5h49.9V118h-49.9z"
     id="path986" />
  <path
     data-cv-id="PORT-10"
     fill="none"
     d="M506 25.9h60.3v32.4H506z"
     id="path988" />
  <path
     data-cv-id="PORT-11"
     fill="none"
     d="M522.9 85.5h35.7v29.3h-35.7z"
     id="path990" />
  <path
     data-cv-id="PORT-12"
     fill="none"
     d="M570 22.5h46.6v29.3H570z"
     id="path992" />
  <path
     data-cv-id="PORT-13"
     fill="none"
     d="M570 80.1h47.6v33.7H570z"
     id="path994" />
  <path
     data-cv-id="PORT-14"
     fill="none"
     d="M628 22.5h54.3v35.8H628z"
     id="path996" />
  <path
     data-cv-id="PORT-15"
     fill="none"
     d="M628 80.1h46.6V105H628z"
     id="path998" />
  <path
     data-cv-id="PORT-16"
     fill="none"
     d="M746 22.5h54.3v35.8H746z"
     id="path1000" />
  <path
     data-cv-id="PORT-17"
     fill="none"
     d="M750.4 85.5h49.9V118h-49.9z"
     id="path1002" />
  <path
     data-cv-id="PORT-18"
     fill="none"
     d="M804 22.5h54.3v35.8H804z"
     id="path1004" />
  <path
     data-cv-id="PORT-19"
     fill="none"
     d="M808.4 89.8H855v24h-46.6z"
     id="path1006" />
  <path
     data-cv-id="PORT-20"
     fill="none"
     d="M862 22.5h46.6v29.3H862z"
     id="path1008" />
  <path
     data-cv-id="PORT-21"
     fill="none"
     d="M866.4 89.8h43.2v24h-43.2z"
     id="path1010" />
  <path
     data-cv-id="PORT-22"
     fill="none"
     d="M920 22.5h54.3v35.8H920z"
     id="path1012" />
  <path
     data-cv-id="PORT-23"
     fill="none"
     d="M914 89.8h58v25h-58z"
     id="path1014" />
  <path
     data-cv-id="PORT-24"
     fill="none"
     d="M972 25.9h52.6v25.9H972z"
     id="path1016" />
  <path
     data-cv-id="PORT-25"
     fill="none"
     d="M978 80.1h47.6v33.7H978z"
     id="path1018" />
  <path
     data-cv-id="PORT-26"
     fill="none"
     d="M1036 22.5h52v29.3h-52z"
     id="path1020" />
  <path
     data-cv-id="PORT-27"
     fill="none"
     d="M1040.4 89.8h46.6v24h-46.6z"
     id="path1022" />
  <path
     data-cv-id="PORT-28"
     fill="none"
     d="M1094 22.5h47.6v28.4H1094z"
     id="path1024" />
  <path
     data-cv-id="PORT-29"
     fill="none"
     d="M1098.4 85.5h42.2v29.3h-42.2z"
     id="path1026" />
  <path
     data-cv-id="PORT-30"
     fill="none"
     d="M1152 22.5h54.3v35.8H1152z"
     id="path1028" />
  <path
     data-cv-id="PORT-31"
     fill="none"
     d="M1151.7 80.6h54.6V118h-54.6z"
     id="path1030" />
  <path
     data-cv-id="PORT-32"
     fill="none"
     d="M9.7 14.6h50.1v29.5H9.7z"
     id="path1032" />
  <text
     xml:space="preserve"
     style="font-style:normal;font-weight:normal;font-size:40px;line-height:1.25;font-family:sans-serif;fill:#000000;fill-opacity:1;stroke:none"
     x="158.81406"
     y="91.709526"
     id="text1044"><tspan
       sodipodi:role="line"
       id="tspan1042"
       x="158.81406"
       y="91.709526" /></text>
</svg>
