<?xml version="1.0" encoding="UTF-8" standalone="no"?>
<svg
   xmlns:dc="http://purl.org/dc/elements/1.1/"
   xmlns:cc="http://creativecommons.org/ns#"
   xmlns:rdf="http://www.w3.org/1999/02/22-rdf-syntax-ns#"
   xmlns:svg="http://www.w3.org/2000/svg"
   xmlns="http://www.w3.org/2000/svg"
   xmlns:sodipodi="http://sodipodi.sourceforge.net/DTD/sodipodi-0.dtd"
   xmlns:inkscape="http://www.inkscape.org/namespaces/inkscape"
   width="88"
   height="55"
   viewBox="0 0 88 55"
   version="1.1"
   id="svg94"
   sodipodi:docname="N540-12Z20G-SYS-D_front_dcpower.svg"
   inkscape:version="1.0.1 (3bc2e813f5, 2020-09-07)">
  <metadata
     id="metadata100">
    <rdf:RDF>
      <cc:Work
         rdf:about="">
        <dc:format>image/svg+xml</dc:format>
        <dc:type
           rdf:resource="http://purl.org/dc/dcmitype/StillImage" />
      </cc:Work>
    </rdf:RDF>
  </metadata>
  <defs
     id="defs98" />
  <sodipodi:namedview
     pagecolor="#ffffff"
     bordercolor="#666666"
     borderopacity="1"
     objecttolerance="10"
     gridtolerance="10"
     guidetolerance="10"
     inkscape:pageopacity="0"
     inkscape:pageshadow="2"
     inkscape:window-width="1280"
     inkscape:window-height="658"
     id="namedview96"
     showgrid="false"
     inkscape:zoom="8.5090909"
     inkscape:cx="44"
     inkscape:cy="27.5"
     inkscape:window-x="-6"
     inkscape:window-y="-6"
     inkscape:window-maximized="1"
     inkscape:current-layer="svg94" />
  <path
     fill="#4d4d4d"
     d="M0 7.8h88v39.4H0z"
     id="path2" />
  <path
     fill="#ccc"
     d="M4.2 20.4h33v15h-33z"
     id="path4" />
  <path
     d="M36.7 20.9v14h-32v-14h32m1-1h-34v16h34z"
     fill="#999"
     id="path6" />
  <path
     d="M9.7 39.9c-.8 0-1.5-.7-1.5-1.5V18.1c0-.8.7-1.5 1.5-1.5h22.2c.8 0 1.5.7 1.5 1.5v20.2c0 .8-.7 1.5-1.5 1.5z"
     fill="#ccc"
     id="path8" />
  <path
     d="M31.9 17.1c.6 0 1 .4 1 1v20.2c0 .6-.4 1-1 1H9.7c-.6 0-1-.4-1-1V18.1c0-.6.4-1 1-1h22.2m0-1H9.7c-1.1 0-2 .9-2 2v20.2c0 1.1.9 2 2 2h22.2c1.1 0 2-.9 2-2V18.1c0-1.1-.9-2-2-2z"
     fill="#666"
     id="path10" />
  <path
     d="M32.8 38.5c-.5 0-.9-.3-1.2-.8-.6-1.2-1.9-2-3.2-2-1.4 0-2.6.8-3.2 2-.3.5-.7.8-1.2.8h-6.2c-.5 0-.9-.3-1.2-.8-.6-1.2-1.9-2-3.2-2-1.4 0-2.6.8-3.2 2-.3.5-.7.8-1.2.8h-.2c-.7 0-1.3-.6-1.3-1.3v-4.3c0-.5.2-.9.6-1.1l1.2-.7c.7-.4 1.1-1.2 1.1-2v-1.7c0-.8-.4-1.6-1.1-2l-1.2-.7c-.4-.2-.6-.7-.6-1.1v-4.3c0-.7.6-1.3 1.3-1.3H9c.5 0 .9.3 1.2.8.6 1.2 1.9 2 3.2 2 1.4 0 2.6-.8 3.2-2 .3-.5.7-.8 1.2-.8H24c.5 0 .9.3 1.2.8.6 1.2 1.9 2 3.2 2 1.4 0 2.6-.8 3.2-2 .3-.5.7-.8 1.2-.8.7 0 1.3.6 1.3 1.3v4.3c0 .5-.2.9-.6 1.1l-1.2.7c-.7.4-1.1 1.2-1.1 2v1.7c0 .8.4 1.6 1.1 2l1.2.7c.4.2.6.7.6 1.1v4.3c0 .7-.6 1.3-1.3 1.3z"
     fill="#ccc"
     id="path12" />
  <path
     d="M32.8 18.5c.4 0 .8.4.8.8v4.3c0 .3-.2.5-.4.7l-1.3.7c-.9.5-1.4 1.4-1.4 2.4v1.7c0 1 .5 1.9 1.4 2.4l1.2.7c.2.1.4.4.4.7v4.3c0 .4-.4.8-.8.8-.3 0-.6-.2-.7-.5-.7-1.4-2.1-2.2-3.7-2.2-1.5 0-2.9.9-3.7 2.2 0 .3-.3.5-.6.5h-6.2c-.3 0-.6-.2-.7-.5-.7-1.4-2.1-2.2-3.7-2.2-1.5 0-2.9.9-3.7 2.2-.1.3-.4.5-.7.5h-.2c-.4 0-.8-.4-.8-.8v-4.3c0-.3.2-.5.4-.7l1.2-.7c.9-.5 1.4-1.4 1.4-2.4v-1.7c0-1-.5-1.9-1.4-2.4l-1.2-.7c-.2-.2-.4-.5-.4-.7v-4.3c0-.4.4-.8.8-.8H9c.3 0 .6.2.7.5.7 1.4 2.1 2.2 3.7 2.2 1.5 0 2.9-.9 3.7-2.2.2-.3.4-.5.7-.5H24c.3 0 .6.2.7.5.7 1.4 2.1 2.2 3.7 2.2 1.5 0 2.9-.9 3.7-2.2.1-.3.4-.5.7-.5m0-1c-.7 0-1.3.4-1.6 1.1-.5 1-1.6 1.7-2.8 1.7-1.2 0-2.2-.7-2.8-1.7-.3-.6-.9-1.1-1.6-1.1h-6.2c-.7 0-1.3.4-1.6 1.1-.5 1-1.6 1.7-2.8 1.7-1.2 0-2.2-.7-2.8-1.7-.3-.6-.9-1.1-1.6-1.1h-.2c-1 0-1.8.8-1.8 1.8v4.3c0 .6.3 1.2.9 1.6l1.2.7c.6.3.9.9.9 1.6v1.7c0 .6-.3 1.2-.9 1.6l-1.2.7c-.5.2-.9.8-.9 1.4v4.3c0 1 .8 1.8 1.8 1.8H9c.7 0 1.3-.4 1.6-1.1.5-1 1.6-1.7 2.8-1.7 1.2 0 2.2.7 2.8 1.7.3.6.9 1.1 1.6 1.1H24c.7 0 1.3-.4 1.6-1.1.5-1 1.6-1.7 2.8-1.7 1.2 0 2.2.7 2.8 1.7.3.6.9 1.1 1.6 1.1 1 0 1.8-.8 1.8-1.8v-4.3c0-.6-.3-1.2-.9-1.6l-1.2-.7c-.6-.3-.9-.9-.9-1.6v-1.7c0-.6.3-1.2.9-1.6l1.2-.7c.6-.3.9-.9.9-1.6v-4.3c0-.8-.8-1.6-1.8-1.6z"
     fill="#999"
     id="path14" />
  <g
     id="g30">
    <circle
       cx="20.8"
       cy="28.2"
       r="8"
       fill="#b3b3b3"
       id="circle16" />
    <path
       d="M20.8 20.7c4.1 0 7.5 3.4 7.5 7.5s-3.4 7.5-7.5 7.5-7.5-3.4-7.5-7.5 3.4-7.5 7.5-7.5m0-1c-4.7 0-8.5 3.8-8.5 8.5s3.8 8.5 8.5 8.5 8.5-3.8 8.5-8.5-3.8-8.5-8.5-8.5z"
       fill="#666"
       id="path18" />
    <path
       d="M20.8 33.3c-2.8 0-5-2.3-5-5 0-2.8 2.3-5 5-5 2.8 0 5 2.3 5 5s-2.2 5-5 5z"
       fill="#ccc"
       id="path20" />
    <path
       d="M20.8 23.7c2.5 0 4.5 2 4.5 4.5s-2 4.5-4.5 4.5-4.5-2-4.5-4.5 2-4.5 4.5-4.5m0-1c-3.1 0-5.5 2.5-5.5 5.5s2.5 5.5 5.5 5.5c3.1 0 5.5-2.5 5.5-5.5s-2.4-5.5-5.5-5.5z"
       fill="#666"
       id="path22" />
    <g
       id="g28">
      <path
         d="M20.7 33.3v-4c0-.3-.2-.5-.5-.5h-1.8v-1.1h1.8c.3 0 .5-.2.5-.5v-4h.3v4c0 .3.2.5.5.5h1.8v1.1h-1.8c-.3 0-.5.2-.5.5v4z"
         fill="#e6e6e6"
         id="path24" />
      <path
         d="M20.8 28c.2.1.4.2.6.2h1.3v.1h-1.3c-.2 0-.5.1-.6.2-.2-.1-.4-.2-.6-.2h-1.3v-.1h1.3c.2 0 .4-.1.6-.2m.6-5.3h-1.3v4.5h-2.3v2.1h2.3v4.5h1.3v-4.5h2.3v-2.1h-2.3z"
         fill="#666"
         id="path26" />
    </g>
  </g>
  <g
     id="g64">
    <path
       fill="#ccc"
       d="M50.5 20.4h33v15h-33z"
       id="path32" />
    <path
       d="M83 20.9v14H51v-14h32m1-1H50v16h34z"
       fill="#999"
       id="path34" />
    <g
       id="g62">
      <path
         d="M56 39.9c-.8 0-1.5-.7-1.5-1.5V18.1c0-.8.7-1.5 1.5-1.5h22.2c.8 0 1.5.7 1.5 1.5v20.2c0 .8-.7 1.5-1.5 1.5z"
         fill="#ccc"
         id="path36" />
      <path
         d="M78.3 17.1c.6 0 1 .4 1 1v20.2c0 .6-.4 1-1 1H56c-.6 0-1-.4-1-1V18.1c0-.6.4-1 1-1h22.3m0-1H56c-1.1 0-2 .9-2 2v20.2c0 1.1.9 2 2 2h22.2c1.1 0 2-.9 2-2V18.1c.1-1.1-.8-2-1.9-2z"
         fill="#666"
         id="path38" />
      <g
         id="g60">
        <path
           d="M79.1 38.5c-.5 0-.9-.3-1.2-.8-.6-1.2-1.9-2-3.2-2-1.3 0-2.6.8-3.2 2-.3.5-.7.8-1.2.8h-6.2c-.5 0-.9-.3-1.2-.8-.6-1.2-1.9-2-3.2-2-1.3 0-2.6.8-3.2 2-.3.5-.7.8-1.2.8h-.2c-.7 0-1.3-.6-1.3-1.3v-4.3c0-.5.2-.9.6-1.1l1.2-.7c.7-.4 1.1-1.2 1.1-2v-1.7c0-.8-.4-1.6-1.1-2l-1.2-.7c-.4-.2-.6-.7-.6-1.1v-4.3c0-.7.6-1.3 1.3-1.3h.2c.5 0 .9.3 1.2.8.6 1.2 1.9 2 3.2 2 1.3 0 2.6-.8 3.2-2 .3-.5.7-.8 1.2-.8h6.2c.5 0 .9.3 1.2.8.6 1.2 1.9 2 3.2 2 1.3 0 2.6-.8 3.2-2 .3-.5.7-.8 1.2-.8.7 0 1.3.6 1.3 1.3v4.3c0 .5-.2.9-.6 1.1l-1.2.7c-.7.4-1.1 1.2-1.1 2v1.7c0 .8.4 1.6 1.1 2l1.2.7c.4.2.6.7.6 1.1v4.3c0 .7-.6 1.3-1.3 1.3z"
           fill="#ccc"
           id="path40" />
        <path
           d="M79.1 18.5c.4 0 .8.4.8.8v4.3c0 .3-.2.5-.4.7l-1.2.7c-.9.5-1.4 1.4-1.4 2.4v1.7c0 1 .5 1.9 1.4 2.4l1.2.7c.2.1.4.4.4.7v4.3c0 .4-.4.8-.8.8-.3 0-.6-.2-.7-.5-.7-1.4-2.1-2.2-3.7-2.2-1.5 0-2.9.9-3.7 2.2-.2.3-.4.5-.7.5h-6.2c-.3 0-.6-.2-.7-.5-.7-1.4-2.1-2.2-3.7-2.2-1.5 0-2.9.9-3.7 2.2-.2.3-.4.5-.7.5h-.2c-.4 0-.8-.4-.8-.8v-4.3c0-.3.2-.5.4-.7l1.2-.7c.9-.5 1.4-1.4 1.4-2.4v-1.7c0-1-.5-1.9-1.4-2.4l-1.2-.7c-.2-.1-.4-.4-.4-.7v-4.3c0-.4.4-.8.8-.8h.2c.3 0 .6.2.7.5.7 1.4 2.1 2.2 3.7 2.2 1.5 0 2.9-.9 3.7-2.2.2-.3.4-.5.7-.5h6.2c.3 0 .6.2.7.5.7 1.4 2.1 2.2 3.7 2.2 1.5 0 2.9-.9 3.7-2.2.1-.3.4-.5.7-.5m0-1c-.7 0-1.3.4-1.6 1.1-.5 1-1.6 1.7-2.8 1.7-1.2 0-2.2-.7-2.8-1.7-.3-.6-.9-1.1-1.6-1.1h-6.2c-.7 0-1.3.4-1.6 1.1-.5 1-1.6 1.7-2.8 1.7-1.2 0-2.2-.7-2.8-1.7-.3-.6-.9-1.1-1.6-1.1h-.2c-1 0-1.8.8-1.8 1.8v4.3c0 .6.3 1.2.9 1.6l1.2.7c.6.3.9.9.9 1.6v1.7c0 .6-.3 1.2-.9 1.6l-1.2.7c-.6.3-.9.9-.9 1.6v4.3c0 1 .8 1.8 1.8 1.8h.2c.7 0 1.3-.4 1.6-1.1.5-1 1.6-1.7 2.8-1.7 1.2 0 2.2.7 2.8 1.7.3.6.9 1.1 1.6 1.1h6.2c.7 0 1.3-.4 1.6-1.1.5-1 1.6-1.7 2.8-1.7 1.2 0 2.2.7 2.8 1.7.3.6.9 1.1 1.6 1.1 1 0 1.8-.8 1.8-1.8v-4.3c0-.6-.3-1.2-.9-1.6l-1.2-.7c-.6-.3-.9-.9-.9-1.6v-1.7c0-.6.3-1.2.9-1.6l1.2-.7c.6-.3.9-.9.9-1.6v-4.3c0-1-.8-1.8-1.8-1.8z"
           fill="#999"
           id="path42" />
        <g
           id="g58">
          <circle
             cx="67.1"
             cy="28.2"
             r="8"
             fill="#b3b3b3"
             id="circle44" />
          <path
             d="M67.1 20.7c4.1 0 7.5 3.4 7.5 7.5s-3.4 7.5-7.5 7.5-7.5-3.4-7.5-7.5 3.4-7.5 7.5-7.5m0-1c-4.7 0-8.5 3.8-8.5 8.5s3.8 8.5 8.5 8.5 8.5-3.8 8.5-8.5-3.8-8.5-8.5-8.5z"
             fill="#666"
             id="path46" />
          <path
             d="M67.1 33.3c-2.8 0-5-2.3-5-5 0-2.8 2.3-5 5-5 2.8 0 5 2.3 5 5 .1 2.7-2.2 5-5 5z"
             fill="#ccc"
             id="path48" />
          <path
             d="M67.1 23.7c2.5 0 4.5 2 4.5 4.5s-2 4.5-4.5 4.5-4.5-2-4.5-4.5 2-4.5 4.5-4.5m0-1c-3.1 0-5.5 2.5-5.5 5.5s2.5 5.5 5.5 5.5c3.1 0 5.5-2.5 5.5-5.5s-2.4-5.5-5.5-5.5z"
             fill="#666"
             id="path50" />
          <g
             id="g56">
            <path
               d="M67 33.3v-4c0-.3-.2-.5-.5-.5h-1.8v-1.1h1.8c.3 0 .5-.2.5-.5v-4h.3v4c0 .3.2.5.5.5h1.8v1.1h-1.8c-.3 0-.5.2-.5.5v4z"
               fill="#e6e6e6"
               id="path52" />
            <path
               d="M67.1 28c.2.1.4.2.6.2H69v.1h-1.3c-.2 0-.5.1-.6.2-.2-.1-.4-.2-.6-.2h-1.3v-.1h1.3c.2 0 .5-.1.6-.2m.7-5.3h-1.3v4.5h-2.3v2.1h2.3v4.5h1.3v-4.5h2.3v-2.1h-2.3z"
               fill="#666"
               id="path54" />
          </g>
        </g>
      </g>
    </g>
  </g>
  <g
     id="g80">
    <path
       fill="#4d4d4d"
       d="M42.1 3.7h4v46h-4z"
       id="path66" />
    <path
       d="M45.6 4.2v45h-3v-45h3m1-1h-5v47h5z"
       fill="#666"
       id="path68" />
    <path
       fill="#4d4d4d"
       d="M42.1 50.3h4v3h-4z"
       id="path70" />
    <path
       d="M45.6 50.8v2h-3v-2h3m1-1h-5v4h5z"
       fill="#666"
       id="path72" />
    <g
       id="g78">
      <path
         fill="#4d4d4d"
         d="M42.1 1.2h4v3h-4z"
         id="path74" />
      <path
         d="M45.6 1.7v2h-3v-2h3m1-1h-5v4h5z"
         fill="#666"
         id="path76" />
    </g>
  </g>
  <path
     fill="#333"
     d="M0 1h88v6H0z"
     id="path82" />
  <g
     fill="#666"
     id="g86">
    <path
       d="M88 1V0H0v1zM0 8h88V7H0z"
       id="path84" />
  </g>
  <g
     id="g92">
    <path
       fill="#333"
       d="M0 48h88v6H0z"
       id="path88" />
    <path
       fill="#666"
       d="M0 55h88v-1H0zM0 47v1h88v-1z"
       id="path90" />
  </g>
  <text
     xml:space="preserve"
     style="font-style:normal;font-weight:normal;font-size:40px;line-height:1.25;font-family:sans-serif;fill:#000000;fill-opacity:1;stroke:none"
     x="7.286325"
     y="44.775642"
     id="text104"><tspan
       sodipodi:role="line"
       id="tspan102"
       x="7.286325"
       y="44.775642" /></text>
</svg>
