<?xml version="1.0" encoding="UTF-8" standalone="no"?>
<svg
   xmlns:dc="http://purl.org/dc/elements/1.1/"
   xmlns:cc="http://creativecommons.org/ns#"
   xmlns:rdf="http://www.w3.org/1999/02/22-rdf-syntax-ns#"
   xmlns:svg="http://www.w3.org/2000/svg"
   xmlns="http://www.w3.org/2000/svg"
   xmlns:sodipodi="http://sodipodi.sourceforge.net/DTD/sodipodi-0.dtd"
   xmlns:inkscape="http://www.inkscape.org/namespaces/inkscape"
   xml:space="preserve"
   width="2509.4"
   height="280"
   version="1.1"
   id="svg294"
   viewBox="0 0 2509.3999 280"
   sodipodi:docname="A9K-8T-L.svg"
   inkscape:version="0.92.1 r15371"><metadata
     id="metadata300"><rdf:RDF><cc:Work
         rdf:about=""><dc:format>image/svg+xml</dc:format><dc:type
           rdf:resource="http://purl.org/dc/dcmitype/StillImage" /></cc:Work></rdf:RDF></metadata><defs
     id="defs298" /><sodipodi:namedview
     pagecolor="#ffffff"
     bordercolor="#666666"
     borderopacity="1"
     objecttolerance="10"
     gridtolerance="10"
     guidetolerance="10"
     inkscape:pageopacity="0"
     inkscape:pageshadow="2"
     inkscape:window-width="1920"
     inkscape:window-height="986"
     id="namedview296"
     showgrid="false"
     inkscape:zoom="0.69774856"
     inkscape:cx="1254.75"
     inkscape:cy="140"
     inkscape:window-x="-11"
     inkscape:window-y="-11"
     inkscape:window-maximized="1"
     inkscape:current-layer="svg294" /><path
     style="clip-rule:evenodd;fill:#f0f0f0;fill-rule:evenodd"
     d="M121.5 15.5h2274v264h-2274z"
     id="path2" /><path
     style="fill:none;stroke:#c2c2c2;stroke-linecap:round;stroke-linejoin:round;stroke-miterlimit:10"
     d="M121.5 279.5h2274v-264h-2274z"
     id="path4" /><path
     d="M250.5 83c0-9-6-16.5-15-16.5h0m-31.5 0c-9 0-16.5 7.5-16.5 16.5m0 139.5c0 9 7.5 16.5 16.5 16.5m31.5 0c9 0 15-7.5 15-16.5"
     style="fill:none;stroke:#000;stroke-linecap:round;stroke-linejoin:round;stroke-miterlimit:10"
     id="path6" /><path
     style="clip-rule:evenodd;fill:#737d84;fill-rule:evenodd"
     d="M339 69.5h111v60H339z"
     id="path8" /><path
     style="fill:none;stroke:#737d84;stroke-width:.06;stroke-linecap:round;stroke-linejoin:round;stroke-miterlimit:10"
     d="M450 69.5H339h0v60h111z"
     id="path10" /><path
     data-cv-id="PORT-0"
     style="clip-rule:evenodd;fill-rule:evenodd"
     d="M340.5 74h108v54h-108z"
     id="path12" /><path
     style="fill:none;stroke:#737d84;stroke-width:.06;stroke-linecap:round;stroke-linejoin:round;stroke-miterlimit:10"
     d="M340.5 74v54h108V74z"
     id="path14" /><path
     style="clip-rule:evenodd;fill:#fff;fill-rule:evenodd"
     d="M369 69.5h43.5V74H369z"
     id="path16" /><path
     style="fill:none;stroke:#737d84;stroke-width:.06;stroke-linecap:round;stroke-linejoin:round;stroke-miterlimit:10"
     d="M369 69.5V74h43.5v-4.5zM426 93.5v18M420 93.5v18M414 93.5v18M406.5 93.5v18M393 93.5v18M385.5 93.5v18M375 93.5v18M363 93.5v18M369 93.5v18M432 93.5v18M400.5 93.5v18"
     id="path18" /><path
     d="M396.6 147.3c0 3-1.1 4.6-3.1 4.6-1.7 0-2.9-1.6-2.9-4.5s1.3-4.6 3.1-4.6 2.9 1.7 2.9 4.5zm-4.8.1c0 2.3.7 3.6 1.8 3.6 1.2 0 1.8-1.4 1.8-3.7 0-2.2-.6-3.6-1.8-3.6-1 .1-1.8 1.3-1.8 3.7z"
     id="path20" /><path
     style="clip-rule:evenodd;fill:#737373;fill-rule:evenodd"
     d="M288 77v12l10.5-6z"
     id="path22" /><path
     d="m289.1 105.5-.9 2.9H287l3.1-9.1h1.4l3.1 9.1h-1.3l-1-2.9h-3.2zm3-.9-.9-2.6c-.2-.6-.3-1.1-.5-1.7-.1.5-.3 1.1-.5 1.6l-.9 2.6h2.8z"
     style="fill:#737373"
     id="path24" /><path
     d="m294 109 3.8-9.8h.9l-3.8 9.8h-.9z"
     style="fill:#737373"
     id="path26" /><path
     d="M298 99.3h1.2v8.1h3.9v1H298v-9.1z"
     style="fill:#737373"
     id="path28" /><path
     style="clip-rule:evenodd;fill:#737d84;fill-rule:evenodd"
     d="M574.5 69.5h111v60h-111z"
     id="path30" /><path
     style="fill:none;stroke:#737d84;stroke-width:.06;stroke-linecap:round;stroke-linejoin:round;stroke-miterlimit:10"
     d="M685.5 69.5h-111 0v60h111z"
     id="path32" /><path
     data-cv-id="PORT-1"
     style="clip-rule:evenodd;fill-rule:evenodd"
     d="M577.5 74H684v54H577.5z"
     id="path34" /><path
     style="fill:none;stroke:#737d84;stroke-width:.06;stroke-linecap:round;stroke-linejoin:round;stroke-miterlimit:10"
     d="M577.5 74v54H684V74z"
     id="path36" /><path
     style="clip-rule:evenodd;fill:#fff;fill-rule:evenodd"
     d="M606 69.5h42V74h-42z"
     id="path38" /><path
     style="fill:none;stroke:#737d84;stroke-width:.06;stroke-linecap:round;stroke-linejoin:round;stroke-miterlimit:10"
     d="M606 69.5V74h42v-4.5zM661.5 93.5v18M655.5 93.5v18M649.5 93.5v18M643.5 93.5v18M628.5 93.5v18M621 93.5v18M612 93.5v18M598.5 93.5v18M606 93.5v18M667.5 93.5v18M636 93.5v18"
     id="path40" /><path
     d="m630.2 144.1-1.6.8-.2-.9 1.9-1h1v8.8h-1.1v-7.7z"
     id="path42" /><path
     style="clip-rule:evenodd;fill:#737373;fill-rule:evenodd"
     d="M523.5 77v12l10.5-6z"
     id="path44" /><path
     d="m524.6 105.5-.9 2.9h-1.2l3.1-9.1h1.4l3.1 9.1h-1.3l-1-2.9h-3.2zm3-.9-.9-2.6c-.2-.6-.3-1.1-.5-1.7-.1.5-.3 1.1-.5 1.6l-.9 2.6h2.8z"
     style="fill:#737373"
     id="path46" /><path
     d="m529.4 109 3.8-9.8h.9l-3.8 9.8h-.9z"
     style="fill:#737373"
     id="path48" /><path
     d="M533.7 99.3h1.2v8.1h3.9v1h-5.1v-9.1z"
     style="fill:#737373"
     id="path50" /><path
     style="clip-rule:evenodd;fill:#737d84;fill-rule:evenodd"
     d="M810 69.5h112.5v60H810z"
     id="path52" /><path
     style="fill:none;stroke:#737d84;stroke-width:.06;stroke-linecap:round;stroke-linejoin:round;stroke-miterlimit:10"
     d="M922.5 69.5H810h0v60h112.5z"
     id="path54" /><path
     data-cv-id="PORT-2"
     style="clip-rule:evenodd;fill-rule:evenodd"
     d="M813 74h106.5v54H813z"
     id="path56" /><path
     style="fill:none;stroke:#737d84;stroke-width:.06;stroke-linecap:round;stroke-linejoin:round;stroke-miterlimit:10"
     d="M813 74v54h106.5V74z"
     id="path58" /><path
     style="clip-rule:evenodd;fill:#fff;fill-rule:evenodd"
     d="M841.5 69.5h42V74h-42z"
     id="path60" /><path
     style="fill:none;stroke:#737d84;stroke-width:.06;stroke-linecap:round;stroke-linejoin:round;stroke-miterlimit:10"
     d="M841.5 69.5V74h42v-4.5zM898.5 93.5v18M891 93.5v18M885 93.5v18M879 93.5v18M865.5 93.5v18M856.5 93.5v18M847.5 93.5v18M835.5 93.5v18M841.5 93.5v18M904.5 93.5v18M873 93.5v18"
     id="path62" /><path
     d="M863 151.8v-.8l.9-.9c2.2-2.1 3.3-3.3 3.3-4.6 0-.9-.4-1.7-1.7-1.7-.8 0-1.5.4-1.9.7l-.4-.8c.6-.5 1.5-.9 2.5-.9 1.9 0 2.7 1.3 2.7 2.6 0 1.6-1.2 2.9-3 4.7l-.7.6h3.9v1H863z"
     id="path64" /><path
     style="clip-rule:evenodd;fill:#737373;fill-rule:evenodd"
     d="M760.5 77v12l9-6z"
     id="path66" /><path
     d="m760 105.5-.9 2.9h-1.2l3.1-9.1h1.4l3.1 9.1h-1.3l-1-2.9H760zm3-.9-.9-2.6c-.2-.6-.3-1.1-.5-1.7-.1.5-.3 1.1-.5 1.6l-.9 2.6h2.8zM766.5 109l3.8-9.8h.9l-3.8 9.8h-.9z"
     style="fill:#737373"
     id="path68" /><path
     d="M770.5 99.3h1.2v8.1h3.9v1h-5.1v-9.1z"
     style="fill:#737373"
     id="path70" /><path
     style="clip-rule:evenodd;fill:#737d84;fill-rule:evenodd"
     d="M1047 69.5h111v60h-111z"
     id="path72" /><path
     style="fill:none;stroke:#737d84;stroke-width:.06;stroke-linecap:round;stroke-linejoin:round;stroke-miterlimit:10"
     d="M1158 69.5h-111 0v60h111z"
     id="path74" /><path
     data-cv-id="PORT-3"
     style="clip-rule:evenodd;fill-rule:evenodd"
     d="M1048.5 74h108v54h-108z"
     id="path76" /><path
     style="fill:none;stroke:#737d84;stroke-width:.06;stroke-linecap:round;stroke-linejoin:round;stroke-miterlimit:10"
     d="M1048.5 74v54h108V74z"
     id="path78" /><path
     style="clip-rule:evenodd;fill:#fff;fill-rule:evenodd"
     d="M1077 69.5h43.5V74H1077z"
     id="path80" /><path
     style="fill:none;stroke:#737d84;stroke-width:.06;stroke-linecap:round;stroke-linejoin:round;stroke-miterlimit:10"
     d="M1077 69.5V74h43.5v-4.5zM1134 93.5v18M1128 93.5v18M1120.5 93.5v18M1114.5 93.5v18M1101 93.5v18M1093.5 93.5v18M1083 93.5v18M1071 93.5v18M1077 93.5v18M1140 93.5v18M1108.5 93.5v18"
     id="path82" /><path
     d="M1098.8 150.4c.3.2 1.1.6 1.9.6 1.5 0 2-1 2-1.7 0-1.2-1.1-1.8-2.3-1.8h-.7v-.9h.7c.9 0 2-.4 2-1.5 0-.7-.4-1.3-1.5-1.3-.7 0-1.4.3-1.8.6l-.3-.9c.5-.3 1.4-.7 2.3-.7 1.7 0 2.5 1 2.5 2.1 0 .9-.5 1.7-1.6 2.1 1.1.2 2 1 2 2.3 0 1.4-1.1 2.6-3.2 2.6-1 0-1.8-.3-2.3-.6l.3-.9z"
     id="path84" /><path
     style="clip-rule:evenodd;fill:#737373;fill-rule:evenodd"
     d="M996 77v12l10.5-6z"
     id="path86" /><path
     d="m997.2 105.5-.9 2.9H995l3.1-9.1h1.4l3.1 9.1h-1.3l-1-2.9h-3.1zm2.9-.9-.9-2.6c-.2-.6-.3-1.1-.5-1.7-.1.5-.3 1.1-.5 1.6l-.9 2.6h2.8z"
     style="fill:#737373"
     id="path88" /><path
     d="m1001.9 109 3.8-9.8h.9l-3.8 9.8h-.9z"
     style="fill:#737373"
     id="path90" /><path
     d="M1006 99.3h1.2v8.1h3.9v1h-5.1v-9.1z"
     style="fill:#737373"
     id="path92" /><path
     style="clip-rule:evenodd;fill:#737d84;fill-rule:evenodd"
     d="M1239 233h36v19.5h-36z"
     id="path94" /><path
     style="fill:none;stroke:#000;stroke-width:.06;stroke-linecap:round;stroke-linejoin:round;stroke-miterlimit:10"
     d="M1275 233h-36 0v19.5h36z"
     id="path96" /><path
     d="M1255.5 152c-6 0-10.5-4.5-10.5-10.5s4.5-10.5 10.5-10.5 10.5 4.5 10.5 10.5-4.5 10.5-10.5 10.5z"
     style="clip-rule:evenodd;fill-rule:evenodd"
     id="path98" /><path
     d="M1255.5 152c-6 0-10.5-4.5-10.5-10.5s4.5-10.5 10.5-10.5 10.5 4.5 10.5 10.5-4.5 10.5-10.5 10.5h0z"
     style="fill:none;stroke:#000;stroke-width:.06;stroke-linecap:round;stroke-linejoin:round;stroke-miterlimit:10"
     id="path100" /><path
     d="M154.4 102.8c.2.4.4 1.3.4 2.4 0 2.6-1.6 4.5-4.6 4.5-2.8 0-4.8-1.9-4.8-4.8 0-1.1.2-1.9.4-2.2l1 .3c-.2.4-.4 1.1-.4 1.8 0 2.1 1.4 3.6 3.8 3.6 2.2 0 3.7-1.3 3.7-3.5 0-.7-.1-1.4-.4-1.9l.9-.2zM145.6 99.9v-1.2h8.1v-3.9h1v5.1h-9.1zM151.8 89.5l2.9.9v1.2l-9.1-3.1v-1.4l9.1-3.1v1.3l-2.9 1v3.2zm-.9-3-2.6.9c-.6.2-1.1.3-1.7.5.5.1 1.1.3 1.6.5l2.6.9v-2.8zM153.2 82.2c.3-.5.6-1.3.6-2.1 0-1.2-.6-1.9-1.6-1.9-.9 0-1.3.5-1.8 1.7-.5 1.5-1.3 2.4-2.6 2.4-1.4 0-2.5-1.2-2.5-2.9 0-.9.2-1.6.4-2l1 .3c-.2.3-.4.9-.4 1.7 0 1.2.7 1.7 1.4 1.7.9 0 1.3-.6 1.8-1.8.6-1.5 1.3-2.3 2.7-2.3 1.4 0 2.6 1 2.6 3.2 0 .9-.3 1.8-.6 2.3l-1-.3zM153.2 73.2c.3-.5.6-1.3.6-2.1 0-1.2-.6-1.9-1.6-1.9-.9 0-1.3.5-1.8 1.7-.5 1.5-1.3 2.4-2.6 2.4-1.4 0-2.5-1.2-2.5-2.9 0-.9.2-1.6.4-2l1 .3c-.2.3-.4.9-.4 1.7 0 1.2.7 1.7 1.4 1.7.9 0 1.3-.6 1.8-1.8.6-1.5 1.3-2.3 2.7-2.3 1.4 0 2.6 1 2.6 3.2 0 .9-.3 1.8-.6 2.3l-1-.3zM147 57.5l.8 1.6-.9.2-1-1.9v-1h8.8v1.1H147zM162.1 102.9v-1.2h8.1v-3.9h1v5.1h-9.1zM168.3 94l2.9.9v1.2l-9.1-3.1v-1.4l9.1-3.1v1.3l-2.9 1V94zm-.9-3-2.6.9c-.6.2-1.1.3-1.7.5.5.1 1.1.3 1.6.5l2.6.9V91zM169.8 85.1c.3-.5.6-1.3.6-2.1 0-1.2-.6-1.9-1.6-1.9-.9 0-1.3.5-1.8 1.7-.5 1.5-1.3 2.4-2.6 2.4-1.4 0-2.5-1.2-2.5-2.9 0-.9.2-1.6.4-2l1 .3c-.2.3-.4.9-.4 1.7 0 1.2.7 1.7 1.4 1.7.9 0 1.3-.6 1.8-1.8.6-1.5 1.3-2.3 2.7-2.3 1.4 0 2.6 1 2.6 3.2 0 .9-.3 1.8-.6 2.3l-1-.3zM166.9 71.2v3.5h3.3v-3.9h1V76h-9.1v-5h1v3.7h2.9v-3.5h.9zM162.2 67.2c-.1-.6-.2-1.4-.2-2.3 0-1.3.2-2.1.7-2.6.4-.5 1-.7 1.7-.7 1.2 0 2 .8 2.3 1.7.2-.7.9-1.1 1.8-1.3 1.3-.3 2.1-.5 2.5-.7v1.2c-.3.1-1 .4-2.2.6-1.3.3-1.7.8-1.8 1.8V66h3.9v1.2h-8.7zm4.1-1.2v-1.2c0-1.3-.7-2.1-1.7-2.1-1.2 0-1.7.9-1.7 2.1 0 .6.1 1 .1 1.2h3.3zM2318.8 195.4l-16.1-6.2v-2.3l16.1-6.6v2.4l-4.9 1.9v6.7l4.9 1.8v2.3zm-6.6-4.7v-5.5l-4.5 1.7c-1.4.5-2.5.9-3.3 1.1 1 .2 2.1.5 3.1.9l4.7 1.8zM2315.1 179.3l-.2-1.9c.9-.2 1.5-.5 1.9-.9.4-.5.6-1 .6-1.7 0-.6-.1-1.1-.4-1.6-.3-.5-.7-.8-1.1-1.1-.4-.3-1.1-.5-1.9-.7-.8-.2-1.6-.3-2.4-.3h-.4c.6.4 1.1.9 1.5 1.6.4.7.6 1.4.6 2.2 0 1.3-.5 2.5-1.5 3.4-1 .9-2.2 1.4-3.8 1.4-1.6 0-2.9-.5-3.9-1.4-1-1-1.5-2.2-1.5-3.6 0-1 .3-2 .8-2.9.6-.9 1.4-1.5 2.4-2s2.6-.7 4.5-.7c2.1 0 3.7.2 4.9.7 1.2.4 2.1 1.1 2.8 2 .6.9 1 1.9 1 3.1 0 1.3-.3 2.3-1 3.1-.6.6-1.6 1.1-2.9 1.3zm-7.1-8.1c-1.1 0-2 .3-2.7.9-.7.6-1 1.3-1 2.2 0 .9.4 1.6 1.1 2.3.7.7 1.6 1 2.8 1 1 0 1.9-.3 2.5-.9.6-.6 1-1.4 1-2.3 0-.9-.3-1.7-1-2.3-.7-.6-1.6-.9-2.7-.9zM2318.8 166.9h-16.1v-2.1h8l-8-8v-2.9l6.5 6.8 9.6-7.1v2.8l-8.2 5.7 2.6 2.6h5.6v2.2zM2314 152.6h-2v-6.1h2v6.1zM2310.1 142c-.3.8-.7 1.4-1.3 1.8-.6.4-1.2.6-2 .6-1.2 0-2.2-.4-3-1.3-.8-.8-1.2-2-1.2-3.4s.4-2.5 1.2-3.4c.8-.9 1.8-1.3 3-1.3.7 0 1.4.2 2 .6.6.4 1 1 1.3 1.8.3-1 .8-1.7 1.6-2.3.8-.6 1.6-.8 2.6-.8 1.4 0 2.5.5 3.5 1.5.9 1 1.4 2.3 1.4 3.8 0 1.6-.5 2.9-1.4 3.8-.9 1-2.1 1.5-3.5 1.5-1 0-1.9-.3-2.6-.8-.9-.4-1.3-1.2-1.6-2.1zm-3.3.4c.8 0 1.4-.2 1.9-.7.5-.5.7-1.1.7-1.9 0-.8-.2-1.4-.7-1.9-.5-.5-1.1-.7-1.8-.7s-1.3.3-1.8.8-.7 1.1-.7 1.9c0 .8.2 1.4.7 1.9.4.3 1 .6 1.7.6zm7.4.6c.6 0 1.1-.1 1.6-.4.5-.3.9-.7 1.2-1.2.3-.5.4-1.1.4-1.7 0-.9-.3-1.7-.9-2.3-.6-.6-1.4-.9-2.3-.9-1 0-1.7.3-2.4 1-.6.6-.9 1.4-.9 2.4 0 .9.3 1.7.9 2.3.7.5 1.5.8 2.4.8zM2318.8 126.4h-14.2v5.3h-1.9V119h1.9v5.3h14.2v2.1zM2314 118.3h-2v-6.1h2v6.1zM2318.8 109.7h-16.1v-2.1h14.2v-7.9h1.9v10z"
     id="path102" /><path
     d="M2362.5 95c-6 0-12 6-12 12s6 12 12 12 10.5-6 10.5-12-4.5-12-10.5-12h0z"
     style="fill:#8c8c8c;stroke:#000;stroke-linecap:round;stroke-linejoin:round;stroke-miterlimit:10"
     id="path104" /><path
     d="M2364.4 87.1c.3-.4.5-1 .5-1.6 0-.9-.5-1.5-1.2-1.5s-1 .4-1.4 1.3c-.4 1.2-1 1.9-2 1.9-1.1 0-1.9-.9-1.9-2.3 0-.7.2-1.2.3-1.6l.7.3c-.1.2-.3.7-.3 1.3 0 1 .6 1.3 1.1 1.3.7 0 1-.4 1.4-1.4.5-1.2 1-1.8 2.1-1.8s2 .8 2 2.5c0 .7-.2 1.4-.5 1.8l-.8-.2zM2359.2 79.3v2.2h-.8v-5.2h.8v2.2h6.3v.9h-6.3zM2363.3 73.7l2.2.7v.9l-7.1-2.4v-1.1l7.1-2.4v1l-2.2.8v2.5zm-.7-2.3-2 .7c-.5.2-.9.3-1.3.4.4.1.9.2 1.3.4l2 .7v-2.2zM2359.2 66.1v2.2h-.8V63h.8v2.2h6.3v.9h-6.3zM2358.4 60.2h4.2c1.6 0 2.3-.7 2.3-1.6 0-1-.7-1.7-2.3-1.7h-4.2V56h4.1c2.2 0 3.1 1.1 3.1 2.7 0 1.4-.8 2.5-3 2.5h-4.2v-1zM2364.4 54.1c.3-.4.5-1 .5-1.6 0-.9-.5-1.5-1.2-1.5s-1 .4-1.4 1.3c-.4 1.2-1 1.9-2 1.9-1.1 0-1.9-.9-1.9-2.3 0-.7.2-1.2.3-1.6l.7.3c-.1.2-.3.7-.3 1.3 0 1 .6 1.3 1.1 1.3.7 0 1-.4 1.4-1.4.5-1.2 1-1.8 2.1-1.8s2 .8 2 2.5c0 .7-.2 1.4-.5 1.8l-.8-.2z"
     id="path106" /><path
     d="M2395.5 278v-7.5c0-1.5-1.5-1.5-3-1.5h0H123c-1.5 0-1.5 0-1.5 1.5v7.5s0 1.5 1.5 1.5h2269.5c1.5 0 3-1.5 3-1.5h0z"
     style="fill:#b2b2b2;stroke:gray;stroke-linecap:round;stroke-linejoin:round;stroke-miterlimit:10"
     id="path108" /><path
     d="M121.5 89v76.5c0 3-3 4.5-6 4.5H54c-1.5 0-1.5-1.5-1.5-3s-1.5-3-3-3c-22.5-3-36-24-33-46.5 3-18 18-31.5 34.5-33h64.5c3 0 6 1.5 6 4.5z"
     style="clip-rule:evenodd;fill:#bfbfbf;fill-rule:evenodd"
     id="path110" /><path
     d="M121.5 89v76.5c0 3-3 4.5-6 4.5h0H54c-1.5 0-1.5-1.5-1.5-3h0c0-1.5-1.5-3-3-3-22.5-3-36-24-33-46.5 3-18 18-31.5 34.5-33h64.5c3 0 6 1.5 6 4.5h0z"
     style="fill:none;stroke:gray;stroke-linecap:round;stroke-linejoin:round;stroke-miterlimit:10"
     id="path112" /><path
     style="clip-rule:evenodd;fill:#d9d9d9;fill-rule:evenodd"
     d="M45 168.5h94.5v24H45z"
     id="path114" /><path
     d="M46.5 188v-13.5c0-1.5 3-4.5 6-4.5h81c3 0 4.5 3 4.5 4.5h0V188c0 1.5 0 3-1.5 3h-87c-1.5 0-3-1.5-3-3h0z"
     style="fill:none;stroke:gray;stroke-width:.06;stroke-linecap:round;stroke-linejoin:round;stroke-miterlimit:10"
     id="path116" /><path
     style="clip-rule:evenodd;fill:#595959;fill-rule:evenodd"
     d="M57 191h69v16.5H57z"
     id="path118" /><path
     style="fill:none;stroke:gray;stroke-width:.06;stroke-linecap:round;stroke-linejoin:round;stroke-miterlimit:10"
     d="M126 207.5H57h0V191h69z"
     id="path120" /><path
     style="clip-rule:evenodd;fill:#7f7f7f;fill-rule:evenodd"
     d="M0 189.5h21V251H0z"
     id="path122" /><path
     d="M19.5 249.5H6c-3 0-4.5-1.5-4.5-3h0V194c0-1.5 1.5-3 4.5-3h13.5"
     style="fill:none;stroke:gray;stroke-width:.06;stroke-linecap:round;stroke-linejoin:round;stroke-miterlimit:10"
     id="path124" /><path
     style="clip-rule:evenodd;fill:#7f7f7f;fill-rule:evenodd"
     d="M16.5 189.5h21V251h-21z"
     id="path126" /><path
     d="M19.5 249.5H36m0-58.5H19.5"
     style="fill:none;stroke:gray;stroke-width:.06;stroke-linecap:round;stroke-linejoin:round;stroke-miterlimit:10"
     id="path128" /><path
     style="clip-rule:evenodd;fill:#666;fill-rule:evenodd"
     d="M34.5 189.5h24V251h-24z"
     id="path130" /><path
     d="M36 249.5h16.5c1.5 0 4.5-1.5 4.5-3h0V194c0-1.5-3-3-4.5-3h0H36"
     style="fill:none;stroke:gray;stroke-width:.06;stroke-linecap:round;stroke-linejoin:round;stroke-miterlimit:10"
     id="path132" /><path
     style="clip-rule:evenodd;fill:#d9d9d9;fill-rule:evenodd"
     d="M36 206h93v45H36z"
     id="path134" /><path
     d="M37.5 249.5C48 237.5 54 224 57 207.5h69v42H37.5h0z"
     style="fill:none;stroke:gray;stroke-width:.06;stroke-linecap:round;stroke-linejoin:round;stroke-miterlimit:10"
     id="path136" /><path
     d="M162 204.5c3 0 7.5 7.5 7.5 15 0 9-4.5 16.5-7.5 16.5-4.5 0-7.5-7.5-7.5-16.5 0-7.5 3-15 7.5-15z"
     style="clip-rule:evenodd;fill:#8c8c8c;fill-rule:evenodd"
     id="path138" /><path
     d="M159 230v-19.5c4.5 1.5 7.5 7.5 6 12-1.5 3-3 6-6 7.5h0z"
     style="fill:none;stroke:#404040;stroke-width:.06;stroke-linecap:round;stroke-linejoin:round;stroke-miterlimit:10"
     id="path140" /><path
     style="clip-rule:evenodd;fill:#8c8c8c;fill-rule:evenodd"
     d="M159 239h-10.5l-3 10.5h-9V191H159z"
     id="path142" /><path
     style="fill:none;stroke:gray;stroke-width:.06;stroke-linecap:round;stroke-linejoin:round;stroke-miterlimit:10"
     d="M159 239h-10.5l-3 10.5h-9 0V191H159z"
     id="path144" /><path
     d="M109.5 249.5c9-10.5 15-22.5 16.5-36V191h10.5v58.5h-27z"
     style="clip-rule:evenodd;fill:#a6a6a6;fill-rule:evenodd"
     id="path146" /><path
     d="M109.5 249.5c9-10.5 15-22.5 16.5-36h0V191h10.5v58.5h-27 0z"
     style="fill:none;stroke:gray;stroke-width:.06;stroke-linecap:round;stroke-linejoin:round;stroke-miterlimit:10"
     id="path148" /><path
     d="M34.5 266v-12l12-4.5H480c3 0 6 3 6 4.5v12c0 3-3 4.5-6 4.5H46.5l-12-4.5z"
     style="clip-rule:evenodd;fill:#595959;fill-rule:evenodd"
     id="path150" /><path
     d="M34.5 266v-12l12-4.5H480c3 0 6 3 6 4.5v12c0 3-3 4.5-6 4.5h0H46.5l-12-4.5h0z"
     style="fill:none;stroke:gray;stroke-width:.06;stroke-linecap:round;stroke-linejoin:round;stroke-miterlimit:10"
     id="path152" /><path
     d="M2388 89v76.5c0 3 3 4.5 4.5 4.5h61.5c1.5 0 3-1.5 3-3s1.5-3 3-3c21-3 36-24 33-46.5-3-18-18-31.5-36-33h-64.5c-1.5 0-4.5 1.5-4.5 4.5z"
     style="clip-rule:evenodd;fill:#bfbfbf;fill-rule:evenodd"
     id="path154" /><path
     d="M2388 89v76.5c0 3 3 4.5 4.5 4.5h61.5c1.5 0 3-1.5 3-3h0c0-1.5 1.5-3 3-3 21-3 36-24 33-46.5-3-18-18-31.5-36-33h0-64.5c-1.5 0-4.5 1.5-4.5 4.5h0z"
     style="fill:none;stroke:gray;stroke-linecap:round;stroke-linejoin:round;stroke-miterlimit:10"
     id="path156" /><path
     d="M2461.5 188v-13.5c0-1.5-1.5-4.5-4.5-4.5h0-81c-3 0-6 3-6 4.5h0V188c0 1.5 1.5 3 3 3h87c1.5 0 1.5-1.5 1.5-3h0z"
     style="fill:#d9d9d9;stroke:gray;stroke-linecap:round;stroke-linejoin:round;stroke-miterlimit:10"
     id="path158" /><path
     style="clip-rule:evenodd;fill:#595959;fill-rule:evenodd"
     d="M2382 191h69v16.5h-69z"
     id="path160" /><path
     style="fill:none;stroke:gray;stroke-width:.06;stroke-linecap:round;stroke-linejoin:round;stroke-miterlimit:10"
     d="M2382 207.5h69V191h-69z"
     id="path162" /><path
     style="clip-rule:evenodd;fill:#7f7f7f;fill-rule:evenodd"
     d="M2488.5 189.5h21V251h-21z"
     id="path164" /><path
     d="M2490 249.5h13.5c3 0 4.5-1.5 4.5-3h0V194c0-1.5-1.5-3-4.5-3h0-13.5"
     style="fill:none;stroke:gray;stroke-width:.06;stroke-linecap:round;stroke-linejoin:round;stroke-miterlimit:10"
     id="path166" /><path
     style="clip-rule:evenodd;fill:#7f7f7f;fill-rule:evenodd"
     d="M2470.5 189.5h21V251h-21z"
     id="path168" /><path
     d="M2490 249.5h-18m0-58.5h18"
     style="fill:none;stroke:gray;stroke-width:.06;stroke-linecap:round;stroke-linejoin:round;stroke-miterlimit:10"
     id="path170" /><path
     style="clip-rule:evenodd;fill:#666;fill-rule:evenodd"
     d="M2451 189.5h24V251h-24z"
     id="path172" /><path
     d="M2473.5 249.5H2457c-3 0-4.5-1.5-4.5-3h0V194c0-1.5 1.5-3 4.5-3h16.5"
     style="fill:none;stroke:gray;stroke-width:.06;stroke-linecap:round;stroke-linejoin:round;stroke-miterlimit:10"
     id="path174" /><path
     style="clip-rule:evenodd;fill:#d9d9d9;fill-rule:evenodd"
     d="M2380.5 206h93v45h-93z"
     id="path176" /><path
     d="M2470.5 249.5c-9-12-15-25.5-19.5-42h0-69v42h88.5z"
     style="fill:none;stroke:gray;stroke-width:.06;stroke-linecap:round;stroke-linejoin:round;stroke-miterlimit:10"
     id="path178" /><path
     d="M2347.5 204.5c-4.5 0-7.5 7.5-7.5 15 0 9 3 16.5 7.5 16.5s7.5-7.5 7.5-16.5c0-7.5-3-15-7.5-15z"
     style="clip-rule:evenodd;fill:#8c8c8c;fill-rule:evenodd"
     id="path180" /><path
     d="M2350.5 230v-19.5c-4.5 1.5-7.5 7.5-6 12 0 3 3 6 6 7.5h0z"
     style="fill:none;stroke:#404040;stroke-width:.06;stroke-linecap:round;stroke-linejoin:round;stroke-miterlimit:10"
     id="path182" /><path
     style="clip-rule:evenodd;fill:#8c8c8c;fill-rule:evenodd"
     d="M2350.5 239h10.5l3 10.5h7.5l1.5-58.5h-22.5z"
     id="path184" /><path
     style="fill:none;stroke:gray;stroke-width:.06;stroke-linecap:round;stroke-linejoin:round;stroke-miterlimit:10"
     d="M2350.5 239h10.5l3 10.5h7.5l1.5-58.5h-22.5z"
     id="path186" /><path
     d="M2398.5 249.5c-7.5-10.5-13.5-22.5-16.5-36V191h-10.5v58.5h27z"
     style="clip-rule:evenodd;fill:#a6a6a6;fill-rule:evenodd"
     id="path188" /><path
     d="M2398.5 249.5c-7.5-10.5-13.5-22.5-16.5-36h0V191h-10.5v58.5h27z"
     style="fill:none;stroke:gray;stroke-width:.06;stroke-linecap:round;stroke-linejoin:round;stroke-miterlimit:10"
     id="path190" /><path
     d="M2475 266v-12l-12-4.5h-435c-1.5 0-4.5 3-4.5 4.5v12c0 3 3 4.5 4.5 4.5h435l12-4.5z"
     style="clip-rule:evenodd;fill:#595959;fill-rule:evenodd"
     id="path192" /><path
     d="M2475 266v-12l-12-4.5h-435c-1.5 0-4.5 3-4.5 4.5v12c0 3 3 4.5 4.5 4.5h435l12-4.5h0z"
     style="fill:none;stroke:gray;stroke-width:.06;stroke-linecap:round;stroke-linejoin:round;stroke-miterlimit:10"
     id="path194" /><path
     d="M2346 14V3.5c0-1.5-1.5-3-1.5-3h0H135c-1.5 0-1.5 1.5-1.5 3V14c0 1.5 0 1.5 1.5 1.5h2209.5s1.5 0 1.5-1.5h0z"
     style="fill:#bfbfbf;stroke:gray;stroke-linecap:round;stroke-linejoin:round;stroke-miterlimit:10"
     id="path196" /><path
     style="clip-rule:evenodd;fill:#737d84;fill-rule:evenodd"
     d="M1381.5 69.5h111v60h-111z"
     id="path198" /><path
     style="fill:none;stroke:#737d84;stroke-width:.06;stroke-linecap:round;stroke-linejoin:round;stroke-miterlimit:10"
     d="M1492.5 69.5h-111 0v60h111z"
     id="path200" /><path
     data-cv-id="PORT-4"
     style="clip-rule:evenodd;fill-rule:evenodd"
     d="M1383 74h108v54h-108z"
     id="path202" /><path
     style="fill:none;stroke:#737d84;stroke-width:.06;stroke-linecap:round;stroke-linejoin:round;stroke-miterlimit:10"
     d="M1383 74v54h108V74z"
     id="path204" /><path
     style="clip-rule:evenodd;fill:#fff;fill-rule:evenodd"
     d="M1411.5 69.5h43.5V74h-43.5z"
     id="path206" /><path
     style="fill:none;stroke:#737d84;stroke-width:.06;stroke-linecap:round;stroke-linejoin:round;stroke-miterlimit:10"
     d="M1411.5 69.5V74h43.5v-4.5zM1468.5 93.5v18M1462.5 93.5v18M1456.5 93.5v18M1449 93.5v18M1435.5 93.5v18M1428 93.5v18M1417.5 93.5v18M1405.5 93.5v18M1411.5 93.5v18M1474.5 93.5v18M1443 93.5v18"
     id="path208" /><path
     d="M1438 151.8v-2.4h-4.1v-.8l3.9-5.6h1.3v5.5h1.2v.9h-1.2v2.4h-1.1zm0-3.4v-4.3c-.3.5-.5.9-.7 1.3l-2.1 3h2.8z"
     id="path210" /><path
     style="clip-rule:evenodd;fill:#737373;fill-rule:evenodd"
     d="M1330.5 77v12l10.5-6z"
     id="path212" /><path
     d="m1331.5 105.5-.9 2.9h-1.2l3.1-9.1h1.4l3.1 9.1h-1.3l-1-2.9h-3.2zm3-.9-.9-2.6c-.2-.6-.3-1.1-.5-1.7-.1.5-.3 1.1-.5 1.6l-.9 2.6h2.8z"
     style="fill:#737373"
     id="path214" /><path
     d="m1336.4 109 3.8-9.8h.9l-3.8 9.8h-.9z"
     style="fill:#737373"
     id="path216" /><path
     d="M1340.4 99.3h1.2v8.1h3.9v1h-5.1v-9.1z"
     style="fill:#737373"
     id="path218" /><path
     style="clip-rule:evenodd;fill:#737d84;fill-rule:evenodd"
     d="M1617 69.5h112.5v60H1617z"
     id="path220" /><path
     style="fill:none;stroke:#737d84;stroke-width:.06;stroke-linecap:round;stroke-linejoin:round;stroke-miterlimit:10"
     d="M1729.5 69.5H1617h0v60h112.5z"
     id="path222" /><path
     data-cv-id="PORT-5"
     style="clip-rule:evenodd;fill-rule:evenodd"
     d="M1620 74h106.5v54H1620z"
     id="path224" /><path
     style="fill:none;stroke:#737d84;stroke-width:.06;stroke-linecap:round;stroke-linejoin:round;stroke-miterlimit:10"
     d="M1620 74v54h106.5V74z"
     id="path226" /><path
     style="clip-rule:evenodd;fill:#fff;fill-rule:evenodd"
     d="M1648.5 69.5h42V74h-42z"
     id="path228" /><path
     style="fill:none;stroke:#737d84;stroke-width:.06;stroke-linecap:round;stroke-linejoin:round;stroke-miterlimit:10"
     d="M1648.5 69.5V74h42v-4.5zM1704 93.5v18M1698 93.5v18M1692 93.5v18M1686 93.5v18M1671 93.5v18M1663.5 93.5v18M1654.5 93.5v18M1641 93.5v18M1648.5 93.5v18M1711.5 93.5v18M1680 93.5v18"
     id="path230" /><path
     d="M1675.5 144h-3.3l-.3 2.3c.2 0 .4-.1.7-.1.7 0 1.4.1 1.9.5.7.4 1.3 1.1 1.3 2.3 0 1.7-1.4 3-3.3 3-1 0-1.8-.3-2.2-.5l.3-.9c.4.2 1.1.5 1.9.5 1.1 0 2.1-.7 2.1-1.9 0-1.1-.8-1.9-2.5-1.9-.5 0-.9.1-1.2.1l.6-4.2h4.2v.8z"
     id="path232" /><path
     style="clip-rule:evenodd;fill:#737373;fill-rule:evenodd"
     d="M1566 77v12l10.5-6z"
     id="path234" /><path
     d="m1566.9 105.5-.9 2.9h-1.2l3.1-9.1h1.4l3.1 9.1h-1.3l-1-2.9h-3.2zm3-.9-.9-2.6c-.2-.6-.3-1.1-.5-1.7-.1.5-.3 1.1-.5 1.6l-.9 2.6h2.8z"
     style="fill:#737373"
     id="path236" /><path
     d="m1572 109 3.8-9.8h.9l-3.8 9.8h-.9z"
     style="fill:#737373"
     id="path238" /><path
     d="M1576.1 99.3h1.2v8.1h3.9v1h-5.1v-9.1z"
     style="fill:#737373"
     id="path240" /><path
     style="clip-rule:evenodd;fill:#737d84;fill-rule:evenodd"
     d="M1854 69.5h111v60h-111z"
     id="path242" /><path
     style="fill:none;stroke:#737d84;stroke-width:.06;stroke-linecap:round;stroke-linejoin:round;stroke-miterlimit:10"
     d="M1965 69.5h-111 0v60h111z"
     id="path244" /><path
     data-cv-id="PORT-6"
     style="clip-rule:evenodd;fill-rule:evenodd"
     d="M1855.5 74H1962v54h-106.5z"
     id="path246" /><path
     style="fill:none;stroke:#737d84;stroke-width:.06;stroke-linecap:round;stroke-linejoin:round;stroke-miterlimit:10"
     d="M1855.5 74v54H1962V74z"
     id="path248" /><path
     style="clip-rule:evenodd;fill:#fff;fill-rule:evenodd"
     d="M1884 69.5h42V74h-42z"
     id="path250" /><path
     style="fill:none;stroke:#737d84;stroke-width:.06;stroke-linecap:round;stroke-linejoin:round;stroke-miterlimit:10"
     d="M1884 69.5V74h42v-4.5zM1941 93.5v18M1933.5 93.5v18M1927.5 93.5v18M1921.5 93.5v18M1908 93.5v18M1899 93.5v18M1890 93.5v18M1878 93.5v18M1884 93.5v18M1947 93.5v18M1915.5 93.5v18"
     id="path252" /><path
     d="M1910.6 143.8c-.2 0-.6 0-.9.1-1.9.3-2.8 1.7-3.1 3.1.4-.6 1.1-1 2.1-1 1.6 0 2.6 1.1 2.6 2.8 0 1.6-1.1 3.1-2.9 3.1-1.9 0-3.1-1.5-3.1-3.7 0-1.7.6-3.1 1.5-4 .7-.7 1.7-1.2 2.8-1.3.4-.1.6-.1.9-.1v1zm-.3 5.1c0-1.3-.7-2-1.8-2-.7 0-1.4.4-1.7 1.1-.1.1-.1.3-.1.5 0 1.4.7 2.5 1.9 2.5 1 0 1.7-.8 1.7-2.1z"
     id="path254" /><path
     style="clip-rule:evenodd;fill:#737373;fill-rule:evenodd"
     d="M1803 77v12l9-6z"
     id="path256" /><path
     d="m1802.6 105.5-.9 2.9h-1.2l3.1-9.1h1.4l3.1 9.1h-1.3l-1-2.9h-3.2zm3-.9-.9-2.6c-.2-.6-.3-1.1-.5-1.7-.1.5-.3 1.1-.5 1.6l-.9 2.6h2.8zM1809.1 109l3.8-9.8h.9l-3.8 9.8h-.9z"
     style="fill:#737373"
     id="path258" /><path
     d="M1813.2 99.3h1.2v8.1h3.9v1h-5.1v-9.1z"
     style="fill:#737373"
     id="path260" /><path
     style="clip-rule:evenodd;fill:#737d84;fill-rule:evenodd"
     d="M2089.5 69.5h111v60h-111z"
     id="path262" /><path
     style="fill:none;stroke:#737d84;stroke-width:.06;stroke-linecap:round;stroke-linejoin:round;stroke-miterlimit:10"
     d="M2200.5 69.5h-111 0v60h111z"
     id="path264" /><path
     data-cv-id="PORT-7"
     style="clip-rule:evenodd;fill-rule:evenodd"
     d="M2091 74h108v54h-108z"
     id="path266" /><path
     style="fill:none;stroke:#737d84;stroke-width:.06;stroke-linecap:round;stroke-linejoin:round;stroke-miterlimit:10"
     d="M2091 74v54h108V74z"
     id="path268" /><path
     style="clip-rule:evenodd;fill:#fff;fill-rule:evenodd"
     d="M2119.5 69.5h43.5V74h-43.5z"
     id="path270" /><path
     style="fill:none;stroke:#737d84;stroke-width:.06;stroke-linecap:round;stroke-linejoin:round;stroke-miterlimit:10"
     d="M2119.5 69.5V74h43.5v-4.5zM2176.5 93.5v18M2170.5 93.5v18M2164.5 93.5v18M2157 93.5v18M2143.5 93.5v18M2136 93.5v18M2125.5 93.5v18M2113.5 93.5v18M2119.5 93.5v18M2182.5 93.5v18M2151 93.5v18"
     id="path272" /><path
     d="M2146.9 143v.8l-3.8 8h-1.2l3.8-7.8h-4.3v-1h5.5z"
     id="path274" /><path
     style="clip-rule:evenodd;fill:#737373;fill-rule:evenodd"
     d="M2038.5 77v12l10.5-6z"
     id="path276" /><path
     d="m2039.5 105.5-.9 2.9h-1.2l3.1-9.1h1.4l3.1 9.1h-1.3l-1-2.9h-3.2zm3-.9-.9-2.6c-.2-.6-.3-1.1-.5-1.7-.1.5-.3 1.1-.5 1.6l-.9 2.6h2.8z"
     style="fill:#737373"
     id="path278" /><path
     d="m2044.4 109 3.8-9.8h.9l-3.8 9.8h-.9z"
     style="fill:#737373"
     id="path280" /><path
     d="M2048.6 99.3h1.2v8.1h3.9v1h-5.1v-9.1z"
     style="fill:#737373"
     id="path282" /><path
     d="M52.9 145.9c-13 0-23-10.1-23-21.6 0-13 10.1-21.6 23-21.6 11.5 0 21.6 8.6 21.6 21.6 0 11.5-10 21.6-21.6 21.6z"
     style="clip-rule:evenodd;fill:#d9d9d9;fill-rule:evenodd;stroke:#9a9a9a;stroke-width:.77999997;stroke-miterlimit:10"
     id="path284" /><path
     d="M52.9 145.9c-13 0-23-10.1-23-21.6 0-13 10.1-21.6 23-21.6 11.5 0 21.6 8.6 21.6 21.6 0 11.5-10 21.6-21.6 21.6h0zM52.9 135.8v-24.4M64.5 124.3H40"
     style="fill:none;stroke:#000;stroke-linecap:round;stroke-linejoin:round;stroke-miterlimit:10"
     id="path286" /><g
     id="g292"><path
       d="M2457.9 145.9c-13 0-23-10.1-23-21.6 0-13 10.1-21.6 23-21.6 11.5 0 21.6 8.6 21.6 21.6 0 11.5-10 21.6-21.6 21.6z"
       style="clip-rule:evenodd;fill:#d9d9d9;fill-rule:evenodd;stroke:#9a9a9a;stroke-width:.77999997;stroke-miterlimit:10"
       id="path288" /><path
       d="M2457.9 145.9c-13 0-23-10.1-23-21.6 0-13 10.1-21.6 23-21.6 11.5 0 21.6 8.6 21.6 21.6 0 11.5-10 21.6-21.6 21.6h0zM2457.9 135.8v-24.4M2469.5 124.3H2445"
       style="fill:none;stroke:#000;stroke-linecap:round;stroke-linejoin:round;stroke-miterlimit:10"
       id="path290" /></g><text
     xml:space="preserve"
     style="font-style:normal;font-weight:normal;font-size:40px;line-height:1.25;font-family:sans-serif;letter-spacing:0px;word-spacing:0px;fill:#000000;fill-opacity:1;stroke:none"
     x="617.70105"
     y="231.27184"
     id="text304"><tspan
       sodipodi:role="line"
       id="tspan302"
       x="617.70105"
       y="267.76505" /></text>
</svg>