<?xml version="1.0" encoding="UTF-8" standalone="no"?>
<svg
   xmlns:dc="http://purl.org/dc/elements/1.1/"
   xmlns:cc="http://creativecommons.org/ns#"
   xmlns:rdf="http://www.w3.org/1999/02/22-rdf-syntax-ns#"
   xmlns:svg="http://www.w3.org/2000/svg"
   xmlns="http://www.w3.org/2000/svg"
   xmlns:sodipodi="http://sodipodi.sourceforge.net/DTD/sodipodi-0.dtd"
   xmlns:inkscape="http://www.inkscape.org/namespaces/inkscape"
   xml:space="preserve"
   width="2779.4"
   height="310.5"
   version="1.1"
   id="svg210"
   viewBox="0 0 2779.3999 310.5"
   sodipodi:docname="A9K-4T-B.svg"
   inkscape:version="0.92.1 r15371"><metadata
     id="metadata216"><rdf:RDF><cc:Work
         rdf:about=""><dc:format>image/svg+xml</dc:format><dc:type
           rdf:resource="http://purl.org/dc/dcmitype/StillImage" /></cc:Work></rdf:RDF></metadata><defs
     id="defs214" /><sodipodi:namedview
     pagecolor="#ffffff"
     bordercolor="#666666"
     borderopacity="1"
     objecttolerance="10"
     gridtolerance="10"
     guidetolerance="10"
     inkscape:pageopacity="0"
     inkscape:pageshadow="2"
     inkscape:window-width="1920"
     inkscape:window-height="986"
     id="namedview212"
     showgrid="false"
     inkscape:zoom="0.62996942"
     inkscape:cx="1389.75"
     inkscape:cy="155.25"
     inkscape:window-x="-11"
     inkscape:window-y="-11"
     inkscape:window-maximized="1"
     inkscape:current-layer="svg210" /><path
     style="clip-rule:evenodd;fill:#f0f0f0;fill-rule:evenodd"
     d="M135 18h2518.5v291H135z"
     id="path2" /><path
     style="fill:none;stroke:#c2c2c2;stroke-width:.06;stroke-linecap:round;stroke-linejoin:round;stroke-miterlimit:10"
     d="M135 309h2518.5V18H135z"
     id="path4" /><path
     d="M277.5 91.5c0-10.5-7.5-18-18-18h0m-33 0c-10.5 0-18 7.5-18 18m0 154.5c0 10.5 7.5 18 18 18m33 0c10.5 0 18-7.5 18-18"
     style="fill:none;stroke:#000;stroke-linecap:round;stroke-linejoin:round;stroke-miterlimit:10"
     id="path6" /><path
     style="clip-rule:evenodd;fill:#737d84;fill-rule:evenodd"
     d="M375 78h124.5v66H375z"
     id="path8" /><path
     style="fill:none;stroke:#737d84;stroke-width:.06;stroke-linecap:round;stroke-linejoin:round;stroke-miterlimit:10"
     d="M499.5 78H375h0v66h124.5z"
     id="path10" /><path
     data-cv-id="PORT-0"
     style="clip-rule:evenodd;fill-rule:evenodd"
     d="M378 82.5h118.5v60H378z"
     id="path12" /><path
     style="fill:none;stroke:#737d84;stroke-width:.06;stroke-linecap:round;stroke-linejoin:round;stroke-miterlimit:10"
     d="M378 82.5v60h118.5v-60z"
     id="path14" /><path
     style="clip-rule:evenodd;fill:#fff;fill-rule:evenodd"
     d="M409.5 78H456v4.5h-46.5z"
     id="path16" /><path
     style="fill:none;stroke:#737d84;stroke-width:.06;stroke-linecap:round;stroke-linejoin:round;stroke-miterlimit:10"
     d="M409.5 78v4.5H456V78zM472.5 103.5V123M465 103.5V123M457.5 103.5V123M451.5 103.5V123M435 103.5V123M426 103.5V123M415.5 103.5V123M402 103.5V123M409.5 103.5V123M478.5 103.5V123M444 103.5V123"
     id="path18" /><path
     d="M440.4 162.9c0 3.3-1.2 5.1-3.4 5.1-1.9 0-3.2-1.8-3.2-5 0-3.3 1.4-5.1 3.4-5.1s3.2 1.9 3.2 5zm-5.3.1c0 2.5.8 4 2 4 1.4 0 2-1.6 2-4.1 0-2.4-.6-4-2-4-1.2.1-2 1.5-2 4.1z"
     id="path20" /><path
     style="clip-rule:evenodd;fill:#737373;fill-rule:evenodd"
     d="M319.5 85.5V99l10.5-7.5z"
     id="path22" /><path
     d="m319.2 118.4-1 3.2h-1.4l3.4-10.1h1.6l3.4 10.1h-1.4l-1.1-3.2h-3.5zm3.3-1-1-2.9c-.2-.7-.4-1.3-.5-1.8-.1.6-.3 1.2-.5 1.8l-1 2.9h3zM325.4 122.2l4.2-10.9h1l-4.2 10.9h-1z"
     style="fill:#737373"
     id="path24" /><path
     d="M329.5 111.5h1.3v9h4.3v1.1h-5.6v-10.1z"
     style="fill:#737373"
     id="path26" /><path
     style="clip-rule:evenodd;fill:#737d84;fill-rule:evenodd"
     d="M636 78h124.5v66H636z"
     id="path28" /><path
     style="fill:none;stroke:#737d84;stroke-width:.06;stroke-linecap:round;stroke-linejoin:round;stroke-miterlimit:10"
     d="M760.5 78H636h0v66h124.5z"
     id="path30" /><path
     data-cv-id="PORT-1"
     style="clip-rule:evenodd;fill-rule:evenodd"
     d="M639 82.5h118.5v60H639z"
     id="path32" /><path
     style="fill:none;stroke:#737d84;stroke-width:.06;stroke-linecap:round;stroke-linejoin:round;stroke-miterlimit:10"
     d="M639 82.5v60h118.5v-60z"
     id="path34" /><path
     style="clip-rule:evenodd;fill:#fff;fill-rule:evenodd"
     d="M670.5 78H717v4.5h-46.5z"
     id="path36" /><path
     style="fill:none;stroke:#737d84;stroke-width:.06;stroke-linecap:round;stroke-linejoin:round;stroke-miterlimit:10"
     d="M670.5 78v4.5H717V78zM733.5 103.5V123M726 103.5V123M720 103.5V123M712.5 103.5V123M696 103.5V123M688.5 103.5V123M678 103.5V123M663 103.5V123M670.5 103.5V123M739.5 103.5V123M705 103.5V123"
     id="path38" /><path
     d="m697.9 159.3-1.7.9-.3-1 2.1-1.1h1.1v9.8h-1.3v-8.6z"
     id="path40" /><path
     style="clip-rule:evenodd;fill:#737373;fill-rule:evenodd"
     d="M580.5 85.5V99l10.5-7.5z"
     id="path42" /><path
     d="m580.4 118.4-1 3.2H578l3.4-10.1h1.6l3.4 10.1H585l-1.1-3.2h-3.5zm3.3-1-1-2.9c-.2-.7-.4-1.3-.5-1.8-.1.6-.3 1.2-.5 1.8l-1 2.9h3zM586.4 122.2l4.2-10.9h1l-4.2 10.9h-1zM592 111.5h1.3v9h4.3v1.1H592v-10.1z"
     style="fill:#737373"
     id="path44" /><path
     style="clip-rule:evenodd;fill:#737d84;fill-rule:evenodd"
     d="M898.5 78h123v66h-123z"
     id="path46" /><path
     style="fill:none;stroke:#737d84;stroke-width:.06;stroke-linecap:round;stroke-linejoin:round;stroke-miterlimit:10"
     d="M1021.5 78h-123 0v66h123z"
     id="path48" /><path
     data-cv-id="PORT-2"
     style="clip-rule:evenodd;fill-rule:evenodd"
     d="M900 82.5h118.5v60H900z"
     id="path50" /><path
     style="fill:none;stroke:#737d84;stroke-width:.06;stroke-linecap:round;stroke-linejoin:round;stroke-miterlimit:10"
     d="M900 82.5v60h118.5v-60z"
     id="path52" /><path
     style="clip-rule:evenodd;fill:#fff;fill-rule:evenodd"
     d="M931.5 78h48v4.5h-48z"
     id="path54" /><path
     style="fill:none;stroke:#737d84;stroke-width:.06;stroke-linecap:round;stroke-linejoin:round;stroke-miterlimit:10"
     d="M931.5 78v4.5h48V78zM994.5 103.5V123M987 103.5V123M981 103.5V123M973.5 103.5V123M958.5 103.5V123M949.5 103.5V123M939 103.5V123M925.5 103.5V123M931.5 103.5V123M1002 103.5V123M967.5 103.5V123"
     id="path56" /><path
     d="M956 167.8v-.8l1-1c2.5-2.4 3.6-3.6 3.6-5.1 0-1-.5-1.9-1.9-1.9-.9 0-1.6.4-2.1.8l-.4-.9c.7-.6 1.6-1 2.8-1 2.1 0 3 1.4 3 2.8 0 1.8-1.3 3.3-3.4 5.2l-.8.7h4.4v1.1H956z"
     id="path58" /><path
     style="clip-rule:evenodd;fill:#737373;fill-rule:evenodd"
     d="M841.5 85.5V99l12-7.5z"
     id="path60" /><path
     d="m842.7 118.4-1 3.2h-1.4l3.4-10.1h1.6l3.4 10.1h-1.4l-1.1-3.2h-3.5zm3.3-1-1-2.9c-.2-.7-.4-1.3-.5-1.8-.1.6-.3 1.2-.5 1.8l-1 2.9h3zM848.9 122.2l4.2-10.9h1l-4.2 10.9h-1z"
     style="fill:#737373"
     id="path62" /><path
     d="M852.9 111.5h1.3v9h4.3v1.1h-5.6v-10.1z"
     style="fill:#737373"
     id="path64" /><path
     style="clip-rule:evenodd;fill:#737d84;fill-rule:evenodd"
     d="M1159.5 78h123v66h-123z"
     id="path66" /><path
     style="fill:none;stroke:#737d84;stroke-width:.06;stroke-linecap:round;stroke-linejoin:round;stroke-miterlimit:10"
     d="M1282.5 78h-123 0v66h123z"
     id="path68" /><path
     data-cv-id="PORT-3"
     style="clip-rule:evenodd;fill-rule:evenodd"
     d="M1162.5 82.5H1281v60h-118.5z"
     id="path70" /><path
     style="fill:none;stroke:#737d84;stroke-width:.06;stroke-linecap:round;stroke-linejoin:round;stroke-miterlimit:10"
     d="M1162.5 82.5v60H1281v-60z"
     id="path72" /><path
     style="clip-rule:evenodd;fill:#fff;fill-rule:evenodd"
     d="M1194 78h46.5v4.5H1194z"
     id="path74" /><path
     style="fill:none;stroke:#737d84;stroke-width:.06;stroke-linecap:round;stroke-linejoin:round;stroke-miterlimit:10"
     d="M1194 78v4.5h46.5V78zM1255.5 103.5V123M1249.5 103.5V123M1242 103.5V123M1234.5 103.5V123M1219.5 103.5V123M1210.5 103.5V123M1200 103.5V123M1186.5 103.5V123M1194 103.5V123M1263 103.5V123M1228.5 103.5V123"
     id="path76" /><path
     d="M1217.4 166.3c.4.2 1.2.6 2.2.6 1.7 0 2.2-1.1 2.2-1.9 0-1.4-1.2-2-2.5-2h-.7v-1h.7c1 0 2.2-.5 2.2-1.7 0-.8-.5-1.5-1.7-1.5-.8 0-1.5.3-1.9.6l-.3-1c.5-.4 1.5-.8 2.5-.8 1.9 0 2.8 1.1 2.8 2.3 0 1-.6 1.9-1.8 2.3 1.2.2 2.2 1.1 2.2 2.5 0 1.6-1.2 2.9-3.6 2.9-1.1 0-2.1-.3-2.5-.7l.2-.6z"
     id="path78" /><path
     style="clip-rule:evenodd;fill:#737373;fill-rule:evenodd"
     d="M1102.5 85.5V99l12-7.5z"
     id="path80" /><path
     d="m1103.6 118.4-1 3.2h-1.4l3.4-10.1h1.6l3.4 10.1h-1.4l-1.1-3.2h-3.5zm3.3-1-1-2.9c-.2-.7-.4-1.3-.5-1.8-.1.6-.3 1.2-.5 1.8l-1 2.9h3zM1109.8 122.2l4.2-10.9h1l-4.2 10.9h-1z"
     style="fill:#737373"
     id="path82" /><path
     d="M1114.1 111.5h1.3v9h4.3v1.1h-5.6v-10.1z"
     style="fill:#737373"
     id="path84" /><path
     style="clip-rule:evenodd;fill:#737d84;fill-rule:evenodd"
     d="M1372.5 258h40.5v22.5h-40.5z"
     id="path86" /><path
     style="fill:none;stroke:#000;stroke-width:.06;stroke-linecap:round;stroke-linejoin:round;stroke-miterlimit:10"
     d="M1413 258h-40.5 0v22.5h40.5z"
     id="path88" /><path
     d="M1390.5 168c-6 0-10.5-6-10.5-12s4.5-10.5 10.5-10.5c7.5 0 12 4.5 12 10.5s-4.5 12-12 12z"
     style="clip-rule:evenodd;fill-rule:evenodd"
     id="path90" /><path
     d="M1390.5 168c-6 0-10.5-6-10.5-12s4.5-10.5 10.5-10.5c7.5 0 12 4.5 12 10.5s-4.5 12-12 12h0z"
     style="fill:none;stroke:#000;stroke-width:.06;stroke-linecap:round;stroke-linejoin:round;stroke-miterlimit:10"
     id="path92" /><path
     d="M172.2 113.4c.2.5.5 1.4.5 2.7 0 2.9-1.8 5-5.1 5-3.2 0-5.3-2.1-5.3-5.3 0-1.3.3-2.1.4-2.4l1.1.3c-.2.5-.4 1.2-.4 2 0 2.4 1.5 3.9 4.2 3.9 2.5 0 4.1-1.4 4.1-3.9 0-.8-.2-1.6-.4-2.1l.9-.2zM162.4 109.9v-1.3h9v-4.3h1.1v5.6h-10.1zM169.3 99.2l3.2 1v1.3l-10.1-3.4v-1.6l10.1-3.5v1.4l-3.2 1.1v3.7zm-1-3.3-2.9 1c-.7.2-1.3.4-1.8.5.6.2 1.2.3 1.8.5l2.9 1v-3zM170.9 90.5c.4-.6.7-1.4.7-2.3 0-1.3-.7-2.1-1.7-2.1-.9 0-1.5.5-2 1.9-.6 1.6-1.4 2.7-2.9 2.7-1.6 0-2.7-1.3-2.7-3.3 0-1 .2-1.8.5-2.2l1.1.4c-.2.3-.5 1-.5 1.9 0 1.4.8 1.9 1.5 1.9.9 0 1.4-.6 1.9-2 .7-1.7 1.5-2.6 3-2.6 1.6 0 2.9 1.2 2.9 3.5 0 1-.3 2-.6 2.6l-1.2-.4zM170.9 80c.4-.6.7-1.4.7-2.3 0-1.3-.7-2.1-1.7-2.1-.9 0-1.5.5-2 1.9-.6 1.6-1.4 2.7-2.9 2.7-1.6 0-2.7-1.3-2.7-3.3 0-1 .2-1.8.5-2.2l1.1.4c-.2.3-.5 1-.5 1.9 0 1.4.8 1.9 1.5 1.9.9 0 1.4-.6 1.9-2 .7-1.7 1.5-2.6 3-2.6 1.6 0 2.9 1.2 2.9 3.5 0 1-.3 2-.6 2.6l-1.2-.4zM164 63.9l.9 1.7-1 .3-1.1-2.1v-1.1h9.7V64H164zM180.3 114.4v-1.3h9v-4.3h1.1v5.6h-10.1zM187.3 103.8l3.2 1v1.3l-10.1-3.4v-1.6l10.1-3.5V99l-3.2 1.1v3.7zm-1-3.3-2.9 1c-.7.2-1.3.4-1.8.5.6.2 1.2.3 1.8.5l2.9 1v-3zM188.9 95.2c.4-.6.7-1.4.7-2.3 0-1.3-.7-2.1-1.7-2.1-.9 0-1.5.5-2 1.9-.6 1.6-1.4 2.7-2.9 2.7-1.6 0-2.7-1.3-2.7-3.3 0-1 .2-1.8.5-2.2l1.1.4c-.2.3-.5 1-.5 1.9 0 1.4.8 1.9 1.5 1.9.9 0 1.4-.6 1.9-2 .7-1.7 1.5-2.6 3-2.6 1.6 0 2.9 1.2 2.9 3.5 0 1-.3 2-.6 2.6l-1.2-.4zM185.7 79.2v3.9h3.6v-4.4h1.1v5.7h-10.1V79h1.1v4.2h3.2v-3.9h1.1zM180.5 75.5c-.1-.7-.2-1.6-.2-2.5 0-1.4.3-2.3.8-2.9.4-.5 1.1-.8 1.9-.8 1.3 0 2.2.8 2.6 1.9.3-.8 1-1.2 2-1.5 1.4-.3 2.4-.6 2.8-.8v1.4c-.3.2-1.2.4-2.4.7-1.4.3-1.9.8-2 2v1.2h4.4v1.3h-9.9zm4.6-1.3v-1.3c0-1.4-.8-2.3-1.9-2.3-1.3 0-1.9.9-1.9 2.3 0 .6.1 1.1.1 1.3h3.7zM2569.4 217.5l-18.3-7v-2.6l18.3-7.5v2.8l-5.5 2.1v7.6l5.5 2v2.6zm-7.5-5.2v-6.2l-5.1 1.9c-1.5.6-2.8 1-3.8 1.3 1.2.2 2.3.6 3.5 1l5.4 2zM2565.1 199.5l-.2-2.2c1-.2 1.7-.5 2.2-1 .5-.5.7-1.2.7-2 0-.7-.2-1.3-.5-1.8s-.7-.9-1.3-1.3c-.6-.4-1.2-.6-2.1-.8-.9-.2-1.8-.3-2.7-.3h-.4c.7.4 1.3 1.1 1.7 1.8.4.8.7 1.6.7 2.5 0 1.5-.5 2.8-1.6 3.8s-2.5 1.6-4.3 1.6c-1.9 0-3.3-.5-4.5-1.6-1.1-1.1-1.7-2.5-1.7-4.1 0-1.2.3-2.3 1-3.3.6-1 1.5-1.7 2.7-2.2 1.2-.5 2.9-.8 5.1-.8 2.3 0 4.2.3 5.6.8 1.4.5 2.4 1.3 3.2 2.3.7 1 1.1 2.2 1.1 3.5 0 1.4-.4 2.6-1.2 3.5-.9.9-2 1.4-3.5 1.6zm-8-9.2c-1.3 0-2.3.3-3.1 1-.8.7-1.1 1.5-1.1 2.5s.4 1.9 1.2 2.6c.8.7 1.9 1.1 3.2 1.1 1.2 0 2.1-.4 2.8-1.1.7-.7 1.1-1.6 1.1-2.6s-.4-1.9-1.1-2.6c-.7-.6-1.7-.9-3-.9zM2569.4 185.5h-18.3v-2.4h9.1l-9.1-9.1v-3.3l7.4 7.7 10.9-8v3.2l-9.2 6.5 2.9 3h6.3v2.4zM2563.9 170h-2.3v-6.9h2.3v6.9zM2569.4 153.5h-4.4v7.9h-2.1l-11.8-8.3v-1.8h11.8v-2.5h2.1v2.5h4.4v2.2zm-6.5 0h-8.2l8.2 5.7v-5.7zM2569.4 141.7h-16.1v6h-2.2v-14.5h2.2v6h16.1v2.5zM2563.9 132.6h-2.3v-6.9h2.3v6.9zM2569.4 122.7h-18.3v-6.8c0-1.4.2-2.5.6-3.4.4-.9.9-1.5 1.7-2 .8-.5 1.6-.7 2.4-.7.8 0 1.5.2 2.2.6.7.4 1.2 1.1 1.7 1.9.3-1.1.9-2 1.7-2.5.8-.5 1.7-.9 2.8-.9.9 0 1.7.2 2.4.5s1.3.8 1.7 1.3c.4.5.7 1.2.9 2 .2.8.3 1.8.3 2.9v7.1zm-10.6-2.5v-3.9c0-1.1-.1-1.8-.2-2.3-.2-.6-.5-1.1-.9-1.4-.4-.3-1-.5-1.6-.5-.6 0-1.1.1-1.6.4-.5.3-.8.7-.9 1.2-.2.5-.3 1.5-.3 2.8v3.6h5.5zm8.4 0v-4.5c0-.8 0-1.3-.1-1.6-.1-.6-.3-1-.5-1.4-.2-.4-.6-.7-1-.9-.4-.2-1-.4-1.5-.4-.7 0-1.3.2-1.8.5s-.9.8-1.1 1.5c-.2.6-.3 1.5-.3 2.7v4.2h6.3z"
     id="path94" /><path
     d="M2616.3 104.6c-6.9 0-12.9 6-12.9 13.9s6 13.9 12.9 13.9c7.9 0 13.9-6 13.9-13.9-.1-7.9-6-13.9-13.9-13.9z"
     style="clip-rule:evenodd;fill:#8c8c8c;fill-rule:evenodd"
     id="path96" /><path
     d="M2616 106.5c-6 0-12 4.5-12 12s6 12 12 12c7.5 0 13.5-4.5 13.5-12s-6-12-13.5-12h0z"
     style="fill:none;stroke:#000;stroke-linecap:round;stroke-linejoin:round;stroke-miterlimit:10"
     id="path98" /><path
     d="M2619.4 96.9c.3-.4.5-1 .5-1.6 0-.9-.5-1.5-1.2-1.5s-1 .4-1.4 1.3c-.4 1.2-1 1.9-2 1.9-1.1 0-1.9-.9-1.9-2.3 0-.7.2-1.2.3-1.6l.7.3c-.1.2-.3.7-.3 1.3 0 1 .6 1.3 1.1 1.3.7 0 1-.4 1.4-1.4.5-1.2 1-1.8 2.1-1.8s2 .8 2 2.5c0 .7-.2 1.4-.5 1.8l-.8-.2zM2614.2 88v2.2h-.8V85h.8v2.2h6.3v.8h-6.3zM2618.3 80.8l2.2.7v.9l-7.1-2.4v-1l7.1-2.4v1l-2.2.8v2.4zm-.7-2.3-2 .7c-.5.2-.9.3-1.3.4.4.1.9.2 1.3.4l2 .7v-2.2zM2614.2 73v2.2h-.8V70h.8v2h6.3v1h-6.3zM2613.5 67.3h4.2c1.6 0 2.3-.7 2.3-1.6 0-1-.7-1.7-2.3-1.7h-4.2v-1h4.1c2.2 0 3.1 1.1 3.1 2.7 0 1.4-.8 2.5-3 2.5h-4.2v-.9zM2619.4 59.4c.3-.4.5-1 .5-1.6 0-.9-.5-1.5-1.2-1.5s-1 .4-1.4 1.3c-.4 1.2-1 1.9-2 1.9-1.1 0-1.9-.9-1.9-2.3 0-.7.2-1.2.3-1.6l.7.3c-.1.2-.3.7-.3 1.3 0 1 .6 1.3 1.1 1.3.7 0 1-.4 1.4-1.4.5-1.2 1-1.8 2.1-1.8s2 .8 2 2.5c0 .7-.2 1.4-.5 1.8l-.8-.2z"
     id="path100" /><path
     style="clip-rule:evenodd;fill:#b2b2b2;fill-rule:evenodd"
     d="M132 295.5h2523v15H132z"
     id="path102" /><path
     d="M2653.5 307.5V300c0-1.5-1.5-3-3-3h0-2514c-1.5 0-1.5 1.5-1.5 3v7.5c0 1.5 0 1.5 1.5 1.5h2514c1.5 0 3 0 3-1.5h0z"
     style="fill:none;stroke:gray;stroke-width:.06;stroke-linecap:round;stroke-linejoin:round;stroke-miterlimit:10"
     id="path104" /><path
     d="M133.5 99v84c0 3-1.5 6-4.5 6H60c-1.5 0-3-1.5-3-3v-1.5c0-1.5 0-1.5-1.5-3-24-3-40.5-27-37.5-51C22.5 111 37.5 96 57 93h72c3 0 4.5 3 4.5 6z"
     style="clip-rule:evenodd;fill:#bfbfbf;fill-rule:evenodd"
     id="path106" /><path
     d="M133.5 99v84c0 3-1.5 6-4.5 6h0-69c-1.5 0-3-1.5-3-3v-1.5c0-1.5 0-1.5-1.5-3-24-3-40.5-27-37.5-51C22.5 111 37.5 96 57 93h72c3 0 4.5 3 4.5 6h0z"
     style="fill:none;stroke:gray;stroke-width:.06;stroke-linecap:round;stroke-linejoin:round;stroke-miterlimit:10"
     id="path108" /><path
     d="M57 160.5c-12 0-22.5-10.5-22.5-22.5 0-13.5 10.5-22.5 22.5-22.5 13.5 0 24 9 24 22.5 0 12-10.5 22.5-24 22.5z"
     style="clip-rule:evenodd;fill:#d9d9d9;fill-rule:evenodd"
     id="path110" /><path
     d="M57 160.5c-12 0-22.5-10.5-22.5-22.5 0-13.5 10.5-22.5 22.5-22.5 13.5 0 24 9 24 22.5 0 12-10.5 22.5-24 22.5h0z"
     style="fill:none;stroke:#4d4d4d;stroke-linecap:round;stroke-linejoin:round;stroke-miterlimit:10"
     id="path112" /><path
     style="fill:none;stroke:#1a1a1a;stroke-linecap:round;stroke-linejoin:round;stroke-miterlimit:10"
     d="M57 150v-25.5M70.5 138H45"
     id="path114" /><path
     style="clip-rule:evenodd;fill:#d9d9d9;fill-rule:evenodd"
     d="M51 186h105v27H51z"
     id="path116" /><path
     d="M52.5 208.5v-15c0-3 1.5-4.5 4.5-4.5h91.5c3 0 4.5 1.5 4.5 4.5h0v15c0 1.5 0 3-1.5 3H54c-1.5 0-1.5-1.5-1.5-3h0z"
     style="fill:none;stroke:gray;stroke-width:.06;stroke-linecap:round;stroke-linejoin:round;stroke-miterlimit:10"
     id="path118" /><path
     style="clip-rule:evenodd;fill:#595959;fill-rule:evenodd"
     d="M64.5 211.5H141V231H64.5z"
     id="path120" /><path
     style="fill:none;stroke:gray;stroke-width:.06;stroke-linecap:round;stroke-linejoin:round;stroke-miterlimit:10"
     d="M141 231H64.5h0v-19.5H141z"
     id="path122" /><path
     style="clip-rule:evenodd;fill:#7f7f7f;fill-rule:evenodd"
     d="M0 210h22.5v69H0z"
     id="path124" /><path
     d="M21 276H6c-3 0-4.5-1.5-4.5-3h0v-58.5c0-1.5 1.5-3 4.5-3h15"
     style="fill:none;stroke:gray;stroke-width:.06;stroke-linecap:round;stroke-linejoin:round;stroke-miterlimit:10"
     id="path126" /><path
     style="clip-rule:evenodd;fill:#7f7f7f;fill-rule:evenodd"
     d="M19.5 210H42v69H19.5z"
     id="path128" /><path
     d="M21 276h19.5m0-64.5H21"
     style="fill:none;stroke:gray;stroke-width:.06;stroke-linecap:round;stroke-linejoin:round;stroke-miterlimit:10"
     id="path130" /><path
     style="clip-rule:evenodd;fill:#666;fill-rule:evenodd"
     d="M37.5 210h27v69h-27z"
     id="path132" /><path
     d="M40.5 276H57c3 0 6-1.5 6-3h0v-58.5c0-1.5-3-3-6-3h0-16.5"
     style="fill:none;stroke:gray;stroke-width:.06;stroke-linecap:round;stroke-linejoin:round;stroke-miterlimit:10"
     id="path134" /><path
     style="clip-rule:evenodd;fill:#d9d9d9;fill-rule:evenodd"
     d="M40.5 228h102v51h-102z"
     id="path136" /><path
     d="M42 276c10.5-13.5 18-28.5 22.5-45H141v45H42h0z"
     style="fill:none;stroke:gray;stroke-width:.06;stroke-linecap:round;stroke-linejoin:round;stroke-miterlimit:10"
     id="path138" /><path
     d="M180 226.5c3 0 7.5 7.5 7.5 16.5 0 10.5-4.5 18-7.5 18-4.5 0-9-7.5-9-18 0-9 4.5-16.5 9-16.5z"
     style="clip-rule:evenodd;fill:#8c8c8c;fill-rule:evenodd"
     id="path140" /><path
     d="M175.5 253.5v-21c6 3 9 9 7.5 13.5s-4.5 7.5-7.5 7.5h0z"
     style="fill:none;stroke:#404040;stroke-width:.06;stroke-linecap:round;stroke-linejoin:round;stroke-miterlimit:10"
     id="path142" /><path
     style="clip-rule:evenodd;fill:#8c8c8c;fill-rule:evenodd"
     d="M175.5 264H165l-3 12h-10.5v-64.5h24z"
     id="path144" /><path
     style="fill:none;stroke:gray;stroke-width:.06;stroke-linecap:round;stroke-linejoin:round;stroke-miterlimit:10"
     d="M175.5 264H165l-3 12h-10.5 0v-64.5h24z"
     id="path146" /><path
     d="M121.5 276c10.5-12 16.5-25.5 19.5-40.5v-24h10.5V276h-30z"
     style="clip-rule:evenodd;fill:#a6a6a6;fill-rule:evenodd"
     id="path148" /><path
     d="M121.5 276c10.5-12 16.5-25.5 19.5-40.5h0v-24h10.5V276h-30 0z"
     style="fill:none;stroke:gray;stroke-width:.06;stroke-linecap:round;stroke-linejoin:round;stroke-miterlimit:10"
     id="path150" /><path
     d="M37.5 294v-12l15-6h480c3 0 6 3 6 6v12c0 3-3 6-6 6h-480l-15-6z"
     style="clip-rule:evenodd;fill:#595959;fill-rule:evenodd"
     id="path152" /><path
     d="M37.5 294v-12l15-6h480c3 0 6 3 6 6v12c0 3-3 6-6 6h0-480l-15-6h0z"
     style="fill:none;stroke:gray;stroke-width:.06;stroke-linecap:round;stroke-linejoin:round;stroke-miterlimit:10"
     id="path154" /><path
     d="M2646 99v84c0 3 1.5 6 4.5 6h69c1.5 0 3-1.5 3-3v-1.5c0-1.5 0-1.5 1.5-3 25.5-3 42-27 37.5-51-4.5-19.5-19.5-34.5-39-37.5h-72c-3 0-4.5 3-4.5 6z"
     style="clip-rule:evenodd;fill:#bfbfbf;fill-rule:evenodd"
     id="path156" /><path
     d="M2646 99v84c0 3 1.5 6 4.5 6h69c1.5 0 3-1.5 3-3v-1.5c0-1.5 0-1.5 1.5-3 25.5-3 42-27 37.5-51-4.5-19.5-19.5-34.5-39-37.5h0-72c-3 0-4.5 3-4.5 6h0z"
     style="fill:none;stroke:gray;stroke-width:.06;stroke-linecap:round;stroke-linejoin:round;stroke-miterlimit:10"
     id="path158" /><path
     d="M2722.5 160.5c12 0 22.5-10.5 22.5-22.5 0-13.5-10.5-22.5-22.5-22.5-13.5 0-22.5 9-22.5 22.5 0 12 9 22.5 22.5 22.5z"
     style="clip-rule:evenodd;fill:#d9d9d9;fill-rule:evenodd"
     id="path160" /><path
     d="M2722.5 160.5c12 0 22.5-10.5 22.5-22.5 0-13.5-10.5-22.5-22.5-22.5-13.5 0-22.5 9-22.5 22.5 0 12 9 22.5 22.5 22.5h0z"
     style="fill:none;stroke:#4d4d4d;stroke-linecap:round;stroke-linejoin:round;stroke-miterlimit:10"
     id="path162" /><path
     style="fill:none;stroke:#1a1a1a;stroke-linecap:round;stroke-linejoin:round;stroke-miterlimit:10"
     d="M2722.5 150v-25.5M2709 138h25.5"
     id="path164" /><path
     style="clip-rule:evenodd;fill:#d9d9d9;fill-rule:evenodd"
     d="M2625 186h105v27h-105z"
     id="path166" /><path
     d="M2727 208.5v-15c0-3-1.5-4.5-4.5-4.5h0-91.5c-3 0-4.5 1.5-4.5 4.5h0v15c0 1.5 0 3 1.5 3h97.5c1.5 0 1.5-1.5 1.5-3h0z"
     style="fill:none;stroke:gray;stroke-width:.06;stroke-linecap:round;stroke-linejoin:round;stroke-miterlimit:10"
     id="path168" /><path
     style="clip-rule:evenodd;fill:#595959;fill-rule:evenodd"
     d="M2638.5 211.5h76.5V231h-76.5z"
     id="path170" /><path
     style="fill:none;stroke:gray;stroke-width:.06;stroke-linecap:round;stroke-linejoin:round;stroke-miterlimit:10"
     d="M2638.5 231h78v-19.5h-78z"
     id="path172" /><path
     style="clip-rule:evenodd;fill:#7f7f7f;fill-rule:evenodd"
     d="M2757 210h22.5v69H2757z"
     id="path174" /><path
     d="M2758.5 276h15c3 0 4.5-1.5 4.5-3h0v-58.5c0-1.5-1.5-3-4.5-3h0-15"
     style="fill:none;stroke:gray;stroke-width:.06;stroke-linecap:round;stroke-linejoin:round;stroke-miterlimit:10"
     id="path176" /><path
     style="clip-rule:evenodd;fill:#7f7f7f;fill-rule:evenodd"
     d="M2737.5 210h22.5v69h-22.5z"
     id="path178" /><path
     d="M2758.5 276H2739m0-64.5h19.5"
     style="fill:none;stroke:gray;stroke-width:.06;stroke-linecap:round;stroke-linejoin:round;stroke-miterlimit:10"
     id="path180" /><path
     style="clip-rule:evenodd;fill:#666;fill-rule:evenodd"
     d="M2715 210h27v69h-27z"
     id="path182" /><path
     d="M2740.5 276h-18c-3 0-6-1.5-6-3h0v-58.5c0-1.5 3-3 6-3h18"
     style="fill:none;stroke:gray;stroke-width:.06;stroke-linecap:round;stroke-linejoin:round;stroke-miterlimit:10"
     id="path184" /><path
     style="clip-rule:evenodd;fill:#d9d9d9;fill-rule:evenodd"
     d="M2637 228h102v51h-102z"
     id="path186" /><path
     d="M2737.5 276c-10.5-13.5-18-28.5-21-45h0-78v45h99z"
     style="fill:none;stroke:gray;stroke-width:.06;stroke-linecap:round;stroke-linejoin:round;stroke-miterlimit:10"
     id="path188" /><path
     d="M2601 226.5c-4.5 0-9 7.5-9 16.5 0 10.5 4.5 18 9 18 3 0 7.5-7.5 7.5-18 0-9-4.5-16.5-7.5-16.5z"
     style="clip-rule:evenodd;fill:#8c8c8c;fill-rule:evenodd"
     id="path190" /><path
     d="M2604 253.5v-21c-6 3-9 9-7.5 13.5s4.5 7.5 7.5 7.5h0z"
     style="fill:none;stroke:#404040;stroke-width:.06;stroke-linecap:round;stroke-linejoin:round;stroke-miterlimit:10"
     id="path192" /><path
     style="clip-rule:evenodd;fill:#8c8c8c;fill-rule:evenodd"
     d="M2604 264h12l1.5 12h10.5v-64.5h-24z"
     id="path194" /><path
     style="fill:none;stroke:gray;stroke-width:.06;stroke-linecap:round;stroke-linejoin:round;stroke-miterlimit:10"
     d="M2604 264h12l1.5 12h10.5v-64.5h-24z"
     id="path196" /><path
     d="M2658 276c-10.5-12-16.5-25.5-19.5-40.5v-24H2628V276h30z"
     style="clip-rule:evenodd;fill:#a6a6a6;fill-rule:evenodd"
     id="path198" /><path
     d="M2658 276c-10.5-12-16.5-25.5-19.5-40.5h0v-24H2628V276h30z"
     style="fill:none;stroke:gray;stroke-width:.06;stroke-linecap:round;stroke-linejoin:round;stroke-miterlimit:10"
     id="path200" /><path
     d="M2742 294v-12l-13.5-6H2247c-3 0-6 3-6 6v12c0 3 3 6 6 6h481.5l13.5-6z"
     style="clip-rule:evenodd;fill:#595959;fill-rule:evenodd"
     id="path202" /><path
     d="M2742 294v-12l-13.5-6H2247c-3 0-6 3-6 6v12c0 3 3 6 6 6h481.5l13.5-6h0z"
     style="fill:none;stroke:gray;stroke-width:.06;stroke-linecap:round;stroke-linejoin:round;stroke-miterlimit:10"
     id="path204" /><path
     style="clip-rule:evenodd;fill:#bfbfbf;fill-rule:evenodd"
     d="M145.5 0H2601v19.5H145.5z"
     id="path206" /><path
     d="M2598 16.5V3c0-1.5 0-1.5-1.5-1.5h0H150c-1.5 0-3 0-3 1.5v13.5s1.5 1.5 3 1.5h2446.5c1.5 0 1.5-1.5 1.5-1.5h0z"
     style="fill:none;stroke:gray;stroke-width:.06;stroke-linecap:round;stroke-linejoin:round;stroke-miterlimit:10"
     id="path208" /><text
     xml:space="preserve"
     style="font-style:normal;font-weight:normal;font-size:40px;line-height:1.25;font-family:sans-serif;letter-spacing:0px;word-spacing:0px;fill:#000000;fill-opacity:1;stroke:none"
     x="1676.2719"
     y="153.3495"
     id="text220"><tspan
       sodipodi:role="line"
       id="tspan218"
       x="1676.2719"
       y="189.84271" /></text>
</svg>