<?xml version="1.0" encoding="UTF-8" standalone="no"?>
<!-- Generator: Adobe Illustrator 19.2.1, SVG Export Plug-In . SVG Version: 6.00 Build 0)  -->

<svg
   xmlns:dc="http://purl.org/dc/elements/1.1/"
   xmlns:cc="http://creativecommons.org/ns#"
   xmlns:rdf="http://www.w3.org/1999/02/22-rdf-syntax-ns#"
   xmlns:svg="http://www.w3.org/2000/svg"
   xmlns="http://www.w3.org/2000/svg"
   xmlns:sodipodi="http://sodipodi.sourceforge.net/DTD/sodipodi-0.dtd"
   xmlns:inkscape="http://www.inkscape.org/namespaces/inkscape"
   version="1.1"
   id="A9K-FILLER-PTLayer_1"
   x="0px"
   y="0px"
   viewBox="0 0 48.964001 15.043"
   xml:space="preserve"
   inkscape:version="0.91 r13725"
   sodipodi:docname="A9K-FILLER-PT.svg"
   width="48.964001"
   height="15.043"><metadata
     id="A9K-FILLER-PTmetadata25"><rdf:RDF><cc:Work
         rdf:about=""><dc:format>image/svg+xml</dc:format><dc:type
           rdf:resource="http://purl.org/dc/dcmitype/StillImage" /><dc:title></dc:title></cc:Work></rdf:RDF></metadata><defs
     id="A9K-FILLER-PTdefs23" /><sodipodi:namedview
     pagecolor="#ffffff"
     bordercolor="#666666"
     borderopacity="1"
     objecttolerance="10"
     gridtolerance="10"
     guidetolerance="10"
     inkscape:pageopacity="0"
     inkscape:pageshadow="2"
     inkscape:window-width="1366"
     inkscape:window-height="706"
     id="A9K-FILLER-PTnamedview21"
     showgrid="false"
     inkscape:zoom="179.15316"
     inkscape:cx="1.1904383"
     inkscape:cy="-0.31237932"
     inkscape:window-x="-8"
     inkscape:window-y="-8"
     inkscape:window-maximized="1"
     inkscape:current-layer="Layer_1" /><style
     type="text/css"
     id="A9K-FILLER-PTstyle3">
	.A9K-FILLER-PT0{fill-rule:evenodd;clip-rule:evenodd;fill:#EEEEEE;}
	.A9K-FILLER-PT1{fill:#808080;}
	.A9K-FILLER-PT2{fill-rule:evenodd;clip-rule:evenodd;fill:#BFBFBF;}
</style><g
     id="A9K-FILLER-PTg5"
     transform="matrix(0.04206529,0,0,0.06065726,0.0104863,-0.0090829)"><g
       id="A9K-FILLER-PTg7"><path
         class="A9K-FILLER-PT0"
         d="m 1163,228.5 c 0,10.8 -8.7,19.5 -19.5,19.5 l -1124,0 C 8.7,248 0,239.3 0,228.5 L 0,20.5 C 0,9.7 8.7,1 19.5,1 l 1124,0 c 10.8,0 19.5,8.7 19.5,19.5 l 0,208 z"
         id="A9K-FILLER-PTpath9"
         inkscape:connector-curvature="0"
         style="clip-rule:evenodd;fill:#eeeeee;fill-rule:evenodd" /><path
         class="A9K-FILLER-PT1"
         d="m 1144,1 c 10.5,0 19,8.5 19,19 l 0,208 c 0,10.5 -8.5,19 -19,19 L 20,247 C 9.5,247 1,238.5 1,228 L 1,20 C 1,9.5 9.5,1 20,1 L 1144,1 M 1144,0 20,0 C 9,0 0,9 0,20 l 0,208 c 0,11 9,20 20,20 l 1124,0 c 11,0 20,-9 20,-20 l 0,-208 c 0,-11 -9,-20 -20,-20 l 0,0 z"
         id="A9K-FILLER-PTpath11"
         inkscape:connector-curvature="0"
         style="fill:#808080" /></g></g><g
     id="A9K-FILLER-PTg13"
     transform="matrix(0.04206529,0,0,0.06065726,0.0104863,-0.0090829)"><g
       id="A9K-FILLER-PTg15"><path
         class="A9K-FILLER-PT2"
         d="m 30,237.5 c -10.8,0 -19.5,-8.7 -19.5,-19.5 l 0,-188 C 10.5,19.2 19.2,10.5 30,10.5 l 1104,0 c 10.8,0 19.5,8.7 19.5,19.5 l 0,188 c 0,10.8 -8.7,19.5 -19.5,19.5 l -1104,0 z"
         id="A9K-FILLER-PTpath17"
         inkscape:connector-curvature="0"
         style="clip-rule:evenodd;fill:#bfbfbf;fill-rule:evenodd" /><path
         class="A9K-FILLER-PT1"
         d="m 1134,11 c 10.5,0 19,8.5 19,19 l 0,188 c 0,10.5 -8.5,19 -19,19 L 30,237 C 19.5,237 11,228.5 11,218 L 11,30 C 11,19.5 19.5,11 30,11 l 1104,0 m 0,-1 L 30,10 C 19,10 10,19 10,30 l 0,188 c 0,11 9,20 20,20 l 1104,0 c 11,0 20,-9 20,-20 l 0,-188 c 0,-11 -9,-20 -20,-20 l 0,0 z"
         id="A9K-FILLER-PTpath19"
         inkscape:connector-curvature="0"
         style="fill:#808080" /></g></g>
		 
		 <text

     id="A9K-FILLER-PTtextLabel"

     font-size="30"

     style="font-weight:bold;font-size:3px;font-family:Arial;fill:#231f20"

     data-cv-id="FILLER-LABEL"

     x="10"

     y="8"></text>

		 </svg>