<?xml version="1.0" encoding="UTF-8" standalone="no"?>
<svg
   xmlns:dc="http://purl.org/dc/elements/1.1/"
   xmlns:cc="http://creativecommons.org/ns#"
   xmlns:rdf="http://www.w3.org/1999/02/22-rdf-syntax-ns#"
   xmlns:svg="http://www.w3.org/2000/svg"
   xmlns="http://www.w3.org/2000/svg"
   xmlns:sodipodi="http://sodipodi.sourceforge.net/DTD/sodipodi-0.dtd"
   xmlns:inkscape="http://www.inkscape.org/namespaces/inkscape"
   version="1.1"
   id="ASR-9010-FANLayer_1"
   x="0"
   y="0"
   viewBox="0 0 305 3150"
   xml:space="preserve"
   width="305"
   height="3150"
   sodipodi:docname="ASR-9010-FAN.svg"
   inkscape:version="0.92.1 r15371"><metadata
     id="metadata139"><rdf:RDF><cc:Work
         rdf:about=""><dc:format>image/svg+xml</dc:format><dc:type
           rdf:resource="http://purl.org/dc/dcmitype/StillImage" /></cc:Work></rdf:RDF></metadata><defs
     id="defs137" /><sodipodi:namedview
     pagecolor="#ffffff"
     bordercolor="#666666"
     borderopacity="1"
     objecttolerance="10"
     gridtolerance="10"
     guidetolerance="10"
     inkscape:pageopacity="0"
     inkscape:pageshadow="2"
     inkscape:window-width="1920"
     inkscape:window-height="986"
     id="namedview135"
     showgrid="false"
     inkscape:zoom="0.24222279"
     inkscape:cx="152.50125"
     inkscape:cy="1574.9963"
     inkscape:window-x="-11"
     inkscape:window-y="-11"
     inkscape:window-maximized="1"
     inkscape:current-layer="ASR-9010-FANLayer_1" /><style
     type="text/css"
     id="ASR-9010-FANstyle2">.ASR-9010-FANst1{fill:#333}.ASR-9010-FANst3{fill-rule:evenodd;clip-rule:evenodd;fill:#b3b3b3}.ASR-9010-FANst4{fill:none;stroke:#737373;stroke-linecap:round;stroke-linejoin:round;stroke-miterlimit:10}.ASR-9010-FANst7{fill:#666}.ASR-9010-FANst9{fill:gray}.ASR-9010-FANst11{fill:#ccc}.ASR-9010-FANst12{fill:#999}.ASR-9010-FANst14{fill:#1a1a1a}.ASR-9010-FANst18{fill:#b3b3b3}.ASR-9010-FANst19{fill:#e6e6e6}</style><g
     id="ASR-9010-FANg264"
     transform="matrix(0 -.91172 1.1091 0 0 3150)"><g
       id="ASR-9010-FANg8"><path
         id="ASR-9010-FANrect4"
         style="clip-rule:evenodd;fill:#d9d9d9;fill-rule:evenodd"
         d="M150.5.5h3154v274h-3154z" /><path
         class="ASR-9010-FANst1"
         d="M3304 1v273H151V1h3153m1-1H150v275h3155z"
         id="ASR-9010-FANpath6"
         style="fill:#333" /></g><g
       id="ASR-9010-FANg14"><path
         id="ASR-9010-FANrect10"
         style="clip-rule:evenodd;fill:#f2f2f2;fill-rule:evenodd"
         d="M151 1h3153v10H151z" /><path
         class="ASR-9010-FANst3"
         id="ASR-9010-FANrect12"
         style="clip-rule:evenodd;fill:#b3b3b3;fill-rule:evenodd"
         d="M151 264h3153v10H151z" /></g><path
       class="ASR-9010-FANst4"
       d="M2115 250.5h25.5m193.5-18v-27h-24m-195 18v27"
       id="ASR-9010-FANpath16"
       style="fill:none;stroke:#737373;stroke-linecap:round;stroke-linejoin:round;stroke-miterlimit:10" /><path
       class="ASR-9010-FANst4"
       d="M2353.5 250.5h22.5m169.5-18v-27H2523m-169.5 18v27"
       id="ASR-9010-FANpath18"
       style="fill:none;stroke:#737373;stroke-linecap:round;stroke-linejoin:round;stroke-miterlimit:10" /><path
       class="ASR-9010-FANst4"
       d="M2565 250.5h25.5m193.5-18v-27h-24m-195 18v27"
       id="ASR-9010-FANpath20"
       style="fill:none;stroke:#737373;stroke-linecap:round;stroke-linejoin:round;stroke-miterlimit:10" /><path
       class="ASR-9010-FANst4"
       d="M2593.5 183h21m169.5-18v-27h-21m-169.5 18v27"
       id="ASR-9010-FANpath22"
       style="fill:none;stroke:#737373;stroke-linecap:round;stroke-linejoin:round;stroke-miterlimit:10" /><g
       id="ASR-9010-FANg56"><g
         id="ASR-9010-FANg28"><path
           id="ASR-9010-FANrect24"
           style="fill:#fff"
           d="M2961.5 30.5h299v34h-299z" /><path
           d="M3260 31v33h-298V31h298m1-1h-300v35h300z"
           id="ASR-9010-FANpath26"
           style="fill:#4d4d4d" /></g><g
         id="ASR-9010-FANg54"><path
           d="m3007.6 58.5 8.2-21.5h3.1l8.8 21.5h-3.2L3022 52h-9l-2.4 6.5zm6.2-8.8h7.3l-2.2-5.9c-.7-1.8-1.2-3.3-1.5-4.5-.3 1.4-.7 2.7-1.2 4.1z"
           id="ASR-9010-FANpath30" /><path
           d="m3029 51.6 2.7-.2c.1 1.1.4 2 .9 2.6.5.7 1.2 1.2 2.2 1.7 1 .5 2.1.6 3.3.6 1.1 0 2-.2 2.9-.5.9-.3 1.4-.8 1.9-1.3.4-.6.6-1.2.6-1.8 0-.7-.2-1.3-.6-1.8-.4-.5-1-.9-1.9-1.3-.6-.2-1.8-.6-3.8-1-2-.4-3.4-.9-4.1-1.3-1-.5-1.8-1.2-2.3-2-.5-.8-.8-1.7-.8-2.7 0-1.1.3-2.1.9-3 .6-.9 1.5-1.7 2.7-2.1 1.2-.4 2.5-.7 3.9-.7 1.6 0 3 .3 4.2.8 1.2.5 2.2 1.3 2.8 2.3.6 1 1 2.1 1.1 3.4l-2.7.2c-.1-1.4-.6-2.4-1.5-3.1-.8-.7-2.1-1-3.7-1-1.7 0-3 .3-3.8.9-.8.6-1.2 1.4-1.2 2.3 0 .8.3 1.4.8 1.9s2 1 4.3 1.5 3.9 1 4.8 1.4c1.2.6 2.2 1.3 2.8 2.2.6.9.9 1.9.9 3.1 0 1.1-.3 2.2-1 3.2s-1.6 1.8-2.8 2.4c-1.2.6-2.6.8-4.1.8-1.9 0-3.6-.3-4.9-.8-1.3-.6-2.3-1.4-3.1-2.6-1-1.4-1.4-2.7-1.4-4.1z"
           id="ASR-9010-FANpath32" /><path
           d="M3050 58.5V37h9.5c1.9 0 3.4.2 4.4.6 1 .4 1.8 1.1 2.4 2 .6.9.9 2.1.9 3.2 0 1.5-.5 2.8-1.5 3.9s-2.5 1.7-4.6 2c.8.4 1.3.7 1.7 1.1.8.8 1.6 1.7 2.4 2.9l3.7 5.8h-3.6l-2.8-4.5c-.8-1.3-1.5-2.3-2.1-3-.6-.7-1-1.2-1.4-1.4-.4-.3-.9-.5-1.3-.6-.3-.1-.8-.1-1.6-.1h-3.3v9.5h-2.8zm2.9-12h6.1c1.3 0 2.3-.1 3-.4.7-.3 1.3-.7 1.7-1.3.4-.6.6-1.2.6-1.9 0-1-.4-1.9-1.1-2.5-.7-.7-1.9-1-3.5-1h-6.8z"
           id="ASR-9010-FANpath34" /><path
           d="M3070.3 52.1v-2.7h8.1v2.7z"
           id="ASR-9010-FANpath36" /><path
           d="m3081 53.5 2.5-.2c.2 1.2.6 2.1 1.2 2.6s1.4.8 2.3.8c.8 0 1.5-.2 2.1-.6.6-.4 1.1-.9 1.5-1.5.4-.6.7-1.5 1-2.5.3-1 .4-2.1.4-3.2v-.5c-.5.8-1.2 1.5-2.2 2-.9.5-1.9.8-3 .8-1.8 0-3.3-.6-4.5-1.9-1.2-1.3-1.8-3-1.8-5.1 0-2.2.6-3.9 1.9-5.3 1.3-1.3 2.9-2 4.8-2 1.4 0 2.7.4 3.8 1.1 1.2.8 2 1.8 2.6 3.2.6 1.4.9 3.4.9 6 0 2.7-.3 4.9-.9 6.6-.6 1.7-1.5 2.9-2.7 3.7-1.2.8-2.6 1.3-4.1 1.3-1.7 0-3.1-.5-4.1-1.4-1-.9-1.5-2.2-1.7-3.9zm10.8-9.4c0-1.5-.4-2.7-1.2-3.6-.8-.9-1.8-1.3-2.9-1.3-1.2 0-2.2.5-3.1 1.4-.9.9-1.3 2.2-1.3 3.7 0 1.4.4 2.5 1.2 3.3.8.9 1.8 1.3 3.1 1.3 1.2 0 2.2-.4 3-1.3.8-.8 1.2-2 1.2-3.5z"
           id="ASR-9010-FANpath38" /><path
           d="M3097.3 47.9c0-2.5.3-4.6.8-6.1s1.3-2.7 2.3-3.6c1-.8 2.3-1.3 3.9-1.3 1.2 0 2.2.2 3 .7.8.5 1.6 1.1 2.2 2 .6.9 1 1.9 1.3 3.2.3 1.3.5 2.9.5 5.1 0 2.5-.3 4.6-.8 6.1s-1.3 2.7-2.3 3.6c-1 .8-2.3 1.3-3.9 1.3-2.1 0-3.7-.7-4.9-2.2-1.4-1.9-2.1-4.8-2.1-8.8zm2.7 0c0 3.5.4 5.9 1.2 7 .8 1.2 1.8 1.8 3.1 1.8s2.2-.6 3.1-1.8c.8-1.2 1.2-3.5 1.2-7s-.4-5.9-1.2-7c-.8-1.2-1.9-1.7-3.1-1.7-1.2 0-2.2.5-2.9 1.5-1 1.3-1.4 3.7-1.4 7.2z"
           id="ASR-9010-FANpath40" /><path
           d="M3123.9 58.5h-2.6V41.7c-.6.6-1.5 1.2-2.5 1.8-1 .6-2 1.1-2.8 1.4v-2.5c1.5-.7 2.8-1.5 3.9-2.5s1.9-1.9 2.3-2.9h1.7z"
           id="ASR-9010-FANpath42" /><path
           d="M3130.6 47.9c0-2.5.3-4.6.8-6.1s1.3-2.7 2.3-3.6c1-.8 2.3-1.3 3.9-1.3 1.2 0 2.2.2 3 .7.8.5 1.6 1.1 2.2 2 .6.9 1 1.9 1.3 3.2.3 1.3.5 2.9.5 5.1 0 2.5-.3 4.6-.8 6.1s-1.3 2.7-2.3 3.6c-1 .8-2.3 1.3-3.9 1.3-2.1 0-3.7-.7-4.9-2.2-1.4-1.9-2.1-4.8-2.1-8.8zm2.7 0c0 3.5.4 5.9 1.2 7 .8 1.2 1.8 1.8 3.1 1.8s2.2-.6 3.1-1.8c.8-1.2 1.2-3.5 1.2-7s-.4-5.9-1.2-7c-.8-1.2-1.9-1.7-3.1-1.7-1.2 0-2.2.5-2.9 1.5-.9 1.3-1.4 3.7-1.4 7.2z"
           id="ASR-9010-FANpath44" /><path
           d="M3147 52.1v-2.7h8.1v2.7z"
           id="ASR-9010-FANpath46" /><path
           d="M3158.5 58.5V37h14.5v2.5h-11.6v6.7h10.1v2.5h-10.1v9.8z"
           id="ASR-9010-FANpath48" /><path
           d="m3172.7 58.5 8.2-21.5h3.1l8.8 21.5h-3.2L3187 52h-9l-2.4 6.5zm6.2-8.8h7.3l-2.2-5.9c-.7-1.8-1.2-3.3-1.5-4.5-.3 1.4-.7 2.7-1.2 4.1z"
           id="ASR-9010-FANpath50" /><path
           d="M3195 58.5V37h2.9l11.3 16.9V37h2.7v21.5h-2.9l-11.3-16.9v16.9z"
           id="ASR-9010-FANpath52" /></g></g><g
       id="ASR-9010-FANg62"><path
         class="ASR-9010-FANst7"
         d="M260 79c-13.2 0-24-10.8-24-24s10.8-24 24-24 24 10.8 24 24-10.8 24-24 24z"
         id="ASR-9010-FANpath58"
         style="fill:#666" /><path
         class="ASR-9010-FANst1"
         d="M260 32c12.7 0 23 10.3 23 23s-10.3 23-23 23-23-10.3-23-23 10.3-23 23-23m0-2c-13.8 0-25 11.2-25 25s11.2 25 25 25 25-11.2 25-25-11.2-25-25-25z"
         id="ASR-9010-FANpath60"
         style="fill:#333" /></g><g
       id="ASR-9010-FANg80"><path
         d="M2113.5 129c-15 0-27 12-27 27s12 27 27 27 27-12 27-27-12-27-27-27z"
         id="ASR-9010-FANpath64"
         style="fill:none;stroke:#666;stroke-width:6.000000e-02;stroke-linecap:round;stroke-linejoin:round;stroke-miterlimit:10" /><g
         id="ASR-9010-FANg70"><path
           class="ASR-9010-FANst3"
           d="M1329 191c-19.3 0-35-15.7-35-35s15.7-35 35-35 35 15.7 35 35-15.7 35-35 35z"
           id="ASR-9010-FANpath66"
           style="clip-rule:evenodd;fill:#b3b3b3;fill-rule:evenodd" /><path
           class="ASR-9010-FANst9"
           d="M1329 122c18.7 0 34 15.3 34 34s-15.3 34-34 34-34-15.3-34-34 15.3-34 34-34m0-2c-19.9 0-36 16.1-36 36s16.1 36 36 36 36-16.1 36-36-16.1-36-36-36z"
           id="ASR-9010-FANpath68"
           style="fill:gray" /></g><g
         id="ASR-9010-FANg76"><path
           class="ASR-9010-FANst3"
           d="M2133 191c-19.3 0-35-15.7-35-35s15.7-35 35-35 35 15.7 35 35-15.7 35-35 35z"
           id="ASR-9010-FANpath72"
           style="clip-rule:evenodd;fill:#b3b3b3;fill-rule:evenodd" /><path
           class="ASR-9010-FANst9"
           d="M2133 122c18.7 0 34 15.3 34 34s-15.3 34-34 34-34-15.3-34-34 15.3-34 34-34m0-2c-19.9 0-36 16.1-36 36s16.1 36 36 36 36-16.1 36-36-16.1-36-36-36z"
           id="ASR-9010-FANpath74"
           style="fill:gray" /></g><path
         d="M2114.6 182h-769.3c-14.3 0-26-11.7-26-26v0c0-14.3 11.7-26 26-26h769.3c14.3 0 26 11.7 26 26v0c0 14.3-11.7 26-26 26z"
         id="ASR-9010-FANpath78"
         style="fill:#f2f2f2;stroke:#737373;stroke-width:6.000000e-02;stroke-linecap:round;stroke-linejoin:round;stroke-miterlimit:10" /></g><g
       id="ASR-9010-FANg100"><path
         d="M313.5 63V41.5H328V44h-11.6v6.7h10.1v2.5h-10.1V63z"
         id="ASR-9010-FANpath82" /><path
         d="m327.6 63 8.2-21.5h3.1l8.8 21.5h-3.2l-2.5-6.5h-9l-2.4 6.5zm6.2-8.8h7.3l-2.2-5.9c-.7-1.8-1.2-3.3-1.5-4.5-.3 1.4-.7 2.7-1.2 4.1z"
         id="ASR-9010-FANpath84" /><path
         d="M350 63V41.5h2.9l11.3 16.9V41.5h2.7V63H364l-11.3-16.9V63z"
         id="ASR-9010-FANpath86" /><path
         d="m379 56.1 2.7-.2c.1 1.1.4 2 .9 2.6.5.6 1.2 1.2 2.2 1.7 1 .5 2.1.6 3.3.6 1.1 0 2-.2 2.9-.5.9-.3 1.4-.8 1.9-1.3.4-.6.6-1.2.6-1.8 0-.7-.2-1.3-.6-1.8-.4-.5-1-.9-1.9-1.3-.6-.2-1.9-.6-3.8-1s-3.4-.9-4.1-1.3c-1-.5-1.8-1.2-2.3-2-.5-.8-.8-1.7-.8-2.7 0-1.1.3-2.1.9-3 .6-.9 1.5-1.7 2.7-2.1 1.2-.4 2.5-.7 3.9-.7 1.6 0 3 .3 4.2.8 1.2.5 2.2 1.3 2.8 2.3.6 1 1 2.1 1.1 3.4l-2.7.2c-.1-1.4-.6-2.4-1.5-3.1-.9-.7-2.1-1-3.7-1-1.7 0-3 .3-3.8.9-.8.6-1.2 1.4-1.2 2.3 0 .8.3 1.4.8 1.9s2 1 4.3 1.5 3.9 1 4.8 1.4c1.2.6 2.2 1.3 2.8 2.2.6.9.9 1.9.9 3.1 0 1.1-.3 2.2-1 3.2s-1.6 1.8-2.8 2.4c-1.2.6-2.6.8-4.1.8-1.9 0-3.6-.3-4.9-.8-1.3-.5-2.3-1.4-3.1-2.6-.9-1.4-1.3-2.7-1.4-4.1z"
         id="ASR-9010-FANpath88" /><path
         d="M405.5 63V44.1h-7.1v-2.5h17v2.5h-7.1V63z"
         id="ASR-9010-FANpath90" /><path
         d="m413.7 63 8.2-21.5h3.1l8.8 21.5h-3.2l-2.5-6.5h-9l-2.4 6.5zm6.2-8.8h7.3l-2.2-5.9c-.7-1.8-1.2-3.3-1.5-4.5-.3 1.4-.7 2.7-1.2 4.1z"
         id="ASR-9010-FANpath92" /><path
         d="M439.3 63V44.1h-7.1v-2.5h17v2.5h-7.1V63z"
         id="ASR-9010-FANpath94" /><path
         d="M466.3 41.5h2.8v12.4c0 2.2-.2 3.9-.7 5.1-.5 1.2-1.4 2.3-2.6 3.1-1.3.8-2.9 1.2-5 1.2-2 0-3.7-.3-4.9-1-1.2-.7-2.2-1.7-2.7-3s-.8-3.1-.8-5.4V41.5h2.8v12.4c0 1.9.2 3.2.5 4.1.3.9.9 1.6 1.8 2 .8.5 1.9.7 3.1.7 2.1 0 3.6-.5 4.5-1.4.9-.9 1.3-2.8 1.3-5.5V41.5z"
         id="ASR-9010-FANpath96" /><path
         d="m472.9 56.1 2.7-.2c.1 1.1.4 2 .9 2.6.5.6 1.2 1.2 2.2 1.7 1 .5 2.1.6 3.3.6 1.1 0 2-.2 2.9-.5.9-.3 1.4-.8 1.9-1.3.4-.6.6-1.2.6-1.8 0-.7-.2-1.3-.6-1.8-.4-.5-1-.9-1.9-1.3-.6-.2-1.9-.6-3.8-1s-3.4-.9-4.1-1.3c-1-.5-1.8-1.2-2.3-2-.5-.8-.8-1.7-.8-2.7 0-1.1.3-2.1.9-3 .6-.9 1.5-1.7 2.7-2.1 1.2-.4 2.5-.7 3.9-.7 1.6 0 3 .3 4.2.8 1.2.5 2.2 1.3 2.8 2.3.6 1 1 2.1 1.1 3.4l-2.7.2c-.1-1.4-.6-2.4-1.5-3.1-.9-.7-2.1-1-3.7-1-1.7 0-3 .3-3.8.9-.8.6-1.2 1.4-1.2 2.3 0 .8.3 1.4.8 1.9s2 1 4.3 1.5 3.9 1 4.8 1.4c1.2.6 2.2 1.3 2.8 2.2.6.9.9 1.9.9 3.1 0 1.1-.3 2.2-1 3.2s-1.6 1.8-2.8 2.4c-1.2.6-2.6.8-4.1.8-1.9 0-3.6-.3-4.9-.8-1.3-.5-2.3-1.4-3.1-2.6-1-1.4-1.4-2.7-1.4-4.1z"
         id="ASR-9010-FANpath98" /></g><g
       id="ASR-9010-FANg106"><path
         class="ASR-9010-FANst11"
         d="M260 74c-10.5 0-19-8.5-19-19s8.5-19 19-19 19 8.5 19 19-8.5 19-19 19z"
         id="ASR-9010-FANpath102"
         style="fill:#ccc" /><path
         class="ASR-9010-FANst12"
         d="M260 37c9.9 0 18 8.1 18 18s-8.1 18-18 18-18-8.1-18-18 8.1-18 18-18m0-2c-11 0-20 9-20 20s9 20 20 20 20-9 20-20-9-20-20-20z"
         id="ASR-9010-FANpath104"
         style="fill:#999" /></g><g
       id="ASR-9010-FANg182"><g
         id="ASR-9010-FANg112"><path
           id="ASR-9010-FANrect108"
           style="clip-rule:evenodd;fill:#bfbfbf;fill-rule:evenodd"
           d="M1441.5 36.5h579v65h-579z" /><path
           class="ASR-9010-FANst14"
           d="M2020 37v64h-578V37h578m1-1h-580v66h580z"
           id="ASR-9010-FANpath110"
           style="fill:#1a1a1a" /></g><g
         id="ASR-9010-FANg134"><g
           id="ASR-9010-FANg118"><path
             d="M1471.9 91.2c-.7 0-1.3-.4-1.7-.9-.4-.5-.4-1.3 0-1.9l22.6-40.9c.3-.6 1-1 1.7-1s1.3.4 1.7 1l22.6 40.9c.3.6.3 1.3 0 1.9-.4.6-1 .9-1.7.9z"
             id="ASR-9010-FANpath114"
             style="clip-rule:evenodd;fill:#e6e6e6;fill-rule:evenodd" /><path
             d="M1494.5 46.9c.5 0 1 .3 1.3.7l22.6 40.9c.3.5.2 1 0 1.4-.3.4-.7.7-1.2.7h-45.1c-.5 0-1-.3-1.2-.7-.3-.4-.3-1 0-1.4l22.6-40.9c0-.4.4-.7 1-.7m0-1c-.8 0-1.7.4-2.1 1.3l-22.6 40.9c-.9 1.6.3 3.6 2.1 3.6h45.1c1.8 0 3-2 2.1-3.6l-22.6-40.9c-.4-.8-1.2-1.3-2-1.3z"
             id="ASR-9010-FANpath116" /></g><g
           id="ASR-9010-FANg132"><g
             id="ASR-9010-FANg124"><circle
               cx="1494.5"
               cy="81.3"
               r="2"
               id="ASR-9010-FANcircle120"
               style="clip-rule:evenodd;fill-rule:evenodd" /><path
               d="M1494.5 79.8c.8 0 1.5.7 1.5 1.5s-.7 1.5-1.5 1.5-1.5-.7-1.5-1.5.6-1.5 1.5-1.5m0-1c-1.4 0-2.5 1.1-2.5 2.5s1.1 2.5 2.5 2.5 2.5-1.1 2.5-2.5-1.2-2.5-2.5-2.5z"
               id="ASR-9010-FANpath122" /></g><g
             id="ASR-9010-FANg130"><path
               d="m1493.6 76.2-.8-15.6c0-.5.1-.9.5-1.2.3-.3.7-.5 1.2-.5s.9.2 1.2.5c.3.3.5.8.5 1.2l-.8 15.6z"
               id="ASR-9010-FANpath126"
               style="clip-rule:evenodd;fill:#1a1a1a;fill-rule:evenodd" /><path
               d="M1494.5 59.4c.3 0 .6.1.8.4.2.2.3.5.3.9l-.8 15.1h-.7l-.8-15.1c0-.3.1-.6.3-.9.2-.3.5-.4.9-.4m0-1c-1.2 0-2.2 1-2.2 2.3l.9 16h2.6l.9-16c0-1.3-1-2.3-2.2-2.3z"
               id="ASR-9010-FANpath128" /></g></g></g><g
         id="ASR-9010-FANg178"><path
           d="M1572.1 78.7v-20h2.7v8.2h10.4v-8.2h2.7v20h-2.7v-9.4h-10.4v9.4z"
           id="ASR-9010-FANpath136" /><path
           d="M1592.7 78.7v-20h2.7v20z"
           id="ASR-9010-FANpath138" /><path
           d="M1609.4 70.8v-2.4h8.5v7.4c-1.3 1-2.6 1.8-4 2.3-1.4.5-2.8.8-4.3.8-2 0-3.8-.4-5.4-1.3-1.6-.8-2.8-2.1-3.6-3.7-.8-1.6-1.2-3.4-1.2-5.3 0-2 .4-3.8 1.2-5.5.8-1.7 2-2.9 3.5-3.8 1.5-.9 3.3-1.2 5.3-1.2 1.4 0 2.8.2 3.9.7 1.2.5 2.1 1.1 2.8 2 .7.8 1.2 1.9 1.5 3.3l-2.4.7c-.3-1-.7-1.8-1.1-2.4-.4-.6-1.1-1.1-1.9-1.4-.8-.4-1.8-.5-2.8-.5-1.2 0-2.3.2-3.1.6-.8.4-1.6.9-2.1 1.5s-1 1.3-1.3 2c-.5 1.2-.8 2.6-.8 4 0 1.8.3 3.3.9 4.5.6 1.2 1.5 2.1 2.7 2.7 1.2.6 2.4.9 3.7.9 1.1 0 2.3-.2 3.4-.7 1.1-.4 1.9-.9 2.5-1.4v-3.7h-5.9z"
           id="ASR-9010-FANpath140" /><path
           d="M1621.9 78.7v-20h2.7v8.2h10.4v-8.2h2.7v20h-2.7v-9.4h-10.4v9.4z"
           id="ASR-9010-FANpath142" /><path
           d="m1648.9 72.2 2.5-.2c.1 1 .4 1.8.8 2.5s1.1 1.2 2 1.6c.9.4 1.9.6 3.1.6 1 0 1.9-.2 2.7-.5.8-.3 1.4-.7 1.7-1.2.4-.5.6-1.1.6-1.7 0-.6-.2-1.2-.5-1.6-.4-.5-1-.9-1.8-1.2-.5-.2-1.7-.5-3.6-1-1.8-.4-3.1-.9-3.9-1.3-1-.5-1.7-1.1-2.1-1.9-.5-.7-.7-1.6-.7-2.5 0-1 .3-2 .9-2.8.6-.9 1.4-1.5 2.5-2s2.3-.7 3.7-.7c1.5 0 2.8.2 3.9.7 1.1.5 2 1.2 2.6 2.1.6.9.9 2 1 3.2l-2.5.2c-.1-1.3-.6-2.2-1.4-2.9-.8-.6-2-1-3.5-1-1.6 0-2.8.3-3.5.9-.7.6-1.1 1.3-1.1 2.1 0 .7.3 1.3.8 1.8s1.8.9 4 1.4c2.2.5 3.6.9 4.4 1.3 1.2.5 2 1.2 2.6 2 .6.8.8 1.8.8 2.9 0 1.1-.3 2.1-.9 3-.6.9-1.5 1.7-2.6 2.2-1.1.5-2.4.8-3.9.8-1.8 0-3.3-.3-4.6-.8-1.3-.5-2.2-1.3-2.9-2.4-.7-1-1.1-2.2-1.1-3.6z"
           id="ASR-9010-FANpath144" /><path
           d="M1668.5 78.7v-20h7.6c1.3 0 2.3.1 3 .2 1 .2 1.8.5 2.5.9.7.5 1.2 1.1 1.6 1.9.4.8.6 1.7.6 2.7 0 1.7-.5 3.1-1.6 4.3-1.1 1.2-3 1.8-5.9 1.8h-5.1v8.1h-2.7zm2.6-10.6h5.2c1.7 0 2.9-.3 3.7-1 .7-.6 1.1-1.5 1.1-2.7 0-.8-.2-1.6-.6-2.2-.4-.6-1-1-1.7-1.2-.4-.1-1.3-.2-2.5-.2h-5.1v7.3z"
           id="ASR-9010-FANpath146" /><path
           d="M1687.2 78.7v-20h14.5V61h-11.8v6.1h11.1v2.4h-11.1v6.8h12.3v2.4z"
           id="ASR-9010-FANpath148" /><path
           d="M1705.9 78.7v-20h14.5V61h-11.8v6.1h11.1v2.4h-11.1v6.8h12.3v2.4z"
           id="ASR-9010-FANpath150" /><path
           d="M1724.5 78.7v-20h6.9c1.6 0 2.7.1 3.6.3 1.1.3 2.1.7 2.9 1.4 1.1.9 1.8 2 2.4 3.4.5 1.4.8 3 .8 4.8 0 1.5-.2 2.9-.5 4s-.8 2.1-1.4 2.9c-.6.8-1.2 1.4-1.8 1.8-.7.4-1.5.8-2.4 1-.9.2-2 .3-3.2.3h-7.3zm2.6-2.4h4.3c1.3 0 2.4-.1 3.1-.4.7-.3 1.4-.6 1.8-1 .6-.6 1.1-1.5 1.5-2.5.4-1.1.5-2.3.5-3.9 0-2.1-.3-3.7-1-4.8-.7-1.1-1.5-1.9-2.5-2.3-.7-.3-1.9-.4-3.4-.4h-4.2v15.3z"
           id="ASR-9010-FANpath152" /><path
           d="M1752.4 78.7v-20h4l4.7 14.2c.4 1.3.8 2.3 1 3 .2-.7.6-1.8 1.1-3.2l4.8-13.9h3.6v20h-2.6V61.9l-5.8 16.8h-2.4l-5.8-17.1v17.1z"
           id="ASR-9010-FANpath154" /><path
           d="M1775 68.9c0-3.3.9-5.9 2.7-7.8 1.8-1.9 4.1-2.8 6.9-2.8 1.9 0 3.5.4 5 1.3s2.6 2.1 3.4 3.7c.8 1.6 1.2 3.4 1.2 5.4 0 2-.4 3.9-1.2 5.5-.8 1.6-2 2.8-3.5 3.6-1.5.8-3.1 1.2-4.9 1.2-1.9 0-3.6-.5-5.1-1.4-1.5-.9-2.6-2.2-3.4-3.7-.7-1.6-1.1-3.2-1.1-5zm2.7 0c0 2.4.6 4.3 1.9 5.7 1.3 1.4 2.9 2.1 4.9 2.1 2 0 3.6-.7 4.9-2.1 1.3-1.4 1.9-3.4 1.9-6 0-1.6-.3-3.1-.8-4.3-.5-1.2-1.4-2.2-2.4-2.8-1-.6-2.3-1-3.6-1-1.9 0-3.5.6-4.8 1.9-1.3 1.4-2 3.5-2 6.5z"
           id="ASR-9010-FANpath156" /><path
           d="m1803.3 78.7-7.8-20h2.9l5.2 14.6c.4 1.2.8 2.3 1.1 3.3.3-1.1.7-2.2 1.1-3.3l5.4-14.6h2.7l-7.8 20z"
           id="ASR-9010-FANpath158" /><path
           d="M1816.7 78.7v-20h2.7v20z"
           id="ASR-9010-FANpath160" /><path
           d="M1824 78.7v-20h2.7l10.5 15.7V58.6h2.5v20h-2.7l-10.5-15.8v15.8h-2.5z"
           id="ASR-9010-FANpath162" /><path
           d="M1853.6 70.8v-2.4h8.5v7.4c-1.3 1-2.6 1.8-4 2.3-1.4.5-2.8.8-4.3.8-2 0-3.8-.4-5.4-1.3-1.6-.8-2.8-2.1-3.6-3.7-.8-1.6-1.2-3.4-1.2-5.3 0-2 .4-3.8 1.2-5.5.8-1.7 2-2.9 3.5-3.8 1.5-.9 3.3-1.2 5.3-1.2 1.4 0 2.8.2 3.9.7 1.2.5 2.1 1.1 2.8 2 .7.8 1.2 1.9 1.5 3.3l-2.4.7c-.3-1-.7-1.8-1.1-2.4-.4-.6-1.1-1.1-1.9-1.4-.8-.4-1.8-.5-2.8-.5-1.2 0-2.3.2-3.1.6-.8.4-1.6.9-2.1 1.5s-1 1.3-1.3 2c-.5 1.2-.8 2.6-.8 4 0 1.8.3 3.3.9 4.5.6 1.2 1.5 2.1 2.7 2.7 1.2.6 2.4.9 3.7.9 1.1 0 2.3-.2 3.4-.7 1.1-.4 1.9-.9 2.5-1.4v-3.7h-5.9z"
           id="ASR-9010-FANpath164" /><path
           d="M1873.7 78.7v-20h7.5c1.5 0 2.8.2 3.7.6.9.4 1.6 1 2.2 1.9.5.8.8 1.7.8 2.6 0 .9-.2 1.7-.7 2.4-.5.8-1.2 1.4-2.1 1.8 1.2.4 2.1 1 2.8 1.8.7.9 1 1.9 1 3 0 .9-.2 1.8-.6 2.6-.4.8-.9 1.4-1.5 1.9s-1.3.8-2.2 1c-.9.2-2 .3-3.2.3h-7.7zm2.7-11.7h4.3c1.2 0 2-.1 2.5-.2.7-.2 1.2-.5 1.5-1 .3-.5.5-1 .5-1.8 0-.7-.2-1.3-.5-1.8s-.8-.9-1.4-1c-.6-.2-1.6-.3-3-.3h-4V67zm0 9.3h5c.9 0 1.5 0 1.8-.1.6-.1 1.1-.3 1.5-.5.4-.3.7-.6 1-1.1.3-.5.4-1.1.4-1.7 0-.7-.2-1.4-.6-1.9-.4-.6-.9-.9-1.6-1.2-.7-.2-1.7-.3-2.9-.3h-4.6z"
           id="ASR-9010-FANpath166" /><path
           d="M1892.4 78.7v-20h2.7v17.7h9.9v2.4h-12.6z"
           id="ASR-9010-FANpath168" /><path
           d="m1905.9 78.7 7.7-20h2.9l8.2 20h-3l-2.3-6.1h-8.4l-2.2 6.1zm5.8-8.3h6.8l-2.1-5.6c-.6-1.7-1.1-3.1-1.4-4.2-.3 1.3-.6 2.6-1.1 3.8z"
           id="ASR-9010-FANpath170" /><path
           d="M1926.7 78.7v-20h6.9c1.6 0 2.7.1 3.6.3 1.1.3 2.1.7 2.9 1.4 1.1.9 1.8 2 2.4 3.4.5 1.4.8 3 .8 4.8 0 1.5-.2 2.9-.5 4s-.8 2.1-1.4 2.9c-.6.8-1.2 1.4-1.8 1.8-.7.4-1.5.8-2.4 1-.9.2-2 .3-3.2.3h-7.3zm2.7-2.4h4.3c1.3 0 2.4-.1 3.1-.4.7-.3 1.4-.6 1.8-1 .6-.6 1.1-1.5 1.5-2.5.4-1.1.5-2.3.5-3.9 0-2.1-.3-3.7-1-4.8-.7-1.1-1.5-1.9-2.5-2.3-.7-.3-1.9-.4-3.4-.4h-4.2v15.3z"
           id="ASR-9010-FANpath172" /><path
           d="M1947 78.7v-20h14.5V61h-11.8v6.1h11.1v2.4h-11.1v6.8h12.3v2.4z"
           id="ASR-9010-FANpath174" /><path
           d="m1964.7 72.2 2.5-.2c.1 1 .4 1.8.8 2.5s1.1 1.2 2 1.6c.9.4 1.9.6 3.1.6 1 0 1.9-.2 2.7-.5.8-.3 1.4-.7 1.7-1.2.4-.5.6-1.1.6-1.7 0-.6-.2-1.2-.5-1.6-.4-.5-1-.9-1.8-1.2-.5-.2-1.7-.5-3.6-1-1.8-.4-3.1-.9-3.9-1.3-1-.5-1.7-1.1-2.1-1.9-.5-.7-.7-1.6-.7-2.5 0-1 .3-2 .9-2.8.6-.9 1.4-1.5 2.5-2s2.3-.7 3.7-.7c1.5 0 2.8.2 3.9.7 1.1.5 2 1.2 2.6 2.1.6.9.9 2 1 3.2l-2.5.2c-.1-1.3-.6-2.2-1.4-2.9-.8-.6-2-1-3.5-1-1.6 0-2.8.3-3.5.9-.7.6-1.1 1.3-1.1 2.1 0 .7.3 1.3.8 1.8s1.8.9 4 1.4c2.2.5 3.6.9 4.4 1.3 1.2.5 2 1.2 2.6 2 .6.8.8 1.8.8 2.9 0 1.1-.3 2.1-.9 3-.6.9-1.5 1.7-2.6 2.2-1.1.5-2.4.8-3.9.8-1.8 0-3.3-.3-4.6-.8-1.3-.5-2.2-1.3-2.9-2.4-.7-1-1-2.2-1.1-3.6z"
           id="ASR-9010-FANpath176" /></g><path
         class="ASR-9010-FANst14"
         id="ASR-9010-FANrect180"
         style="fill:#1a1a1a"
         d="M1546 36h1v66h-1z" /></g><g
       id="ASR-9010-FANg222"><g
         id="ASR-9010-FANg188"><path
           class="ASR-9010-FANst12"
           d="M3305.5 274.5V.5h83c4.1 0 7.9 1.6 10.8 4.4l50.5 49.2c3 2.9 4.7 6.9 4.7 11.1V149c0 8.5-7 15.5-15.5 15.5h-71c-9.1 0-16.5 7.4-16.5 16.5v78c0 8.5-7 15.5-15.5 15.5z"
           id="ASR-9010-FANpath184"
           style="fill:#999" /><path
           class="ASR-9010-FANst14"
           d="M3388.5 1c3.9 0 7.7 1.5 10.5 4.3l50.5 49.2c2.9 2.8 4.5 6.7 4.5 10.7V149c0 8.3-6.7 15-15 15h-71c-9.4 0-17 7.6-17 17v78c0 8.3-6.7 15-15 15h-30V1h82.5m0-1H3305v275h31c8.8 0 16-7.2 16-16v-78c0-8.8 7.2-16 16-16h71c8.8 0 16-7.2 16-16V65.2c0-4.3-1.7-8.4-4.8-11.5l-50.5-49.2c-3-2.9-7-4.5-11.2-4.5z"
           id="ASR-9010-FANpath186"
           style="fill:#1a1a1a" /></g><g
         id="ASR-9010-FANg220"><g
           id="ASR-9010-FANg194"><path
             class="ASR-9010-FANst11"
             d="M3372 108.5c-19.6 0-35.5-15.9-35.5-35.5s15.9-35.5 35.5-35.5h58.7l17.1 16.6c3 2.9 4.7 6.9 4.7 11.1v43.3z"
             id="ASR-9010-FANpath190"
             style="fill:#ccc" /><path
             class="ASR-9010-FANst7"
             d="m3430.5 38 16.9 16.5c2.9 2.8 4.5 6.7 4.5 10.7V108h-80c-19.3 0-35-15.7-35-35s15.7-35 35-35h58.6m.5-1h-59c-19.9 0-36 16.1-36 36s16.1 36 36 36h81V65.2c0-4.3-1.7-8.4-4.8-11.5z"
             id="ASR-9010-FANpath192"
             style="fill:#666" /></g><g
           id="ASR-9010-FANg198"><path
             class="ASR-9010-FANst18"
             d="M3439 46h-61.1c-18.2 0-32.9 12.1-32.9 27s14.7 27 32.9 27h74.1V67.2c0-3.2 0-6.2-3-11.2z"
             id="ASR-9010-FANpath196"
             style="fill:#b3b3b3" /></g><g
           id="ASR-9010-FANg218"><g
             id="ASR-9010-FANg204"><path
               class="ASR-9010-FANst18"
               d="M3374.9 95.4c-12.4 0-22.4-10.1-22.4-22.4 0-12.3 10.1-22.4 22.4-22.4 12.3 0 22.4 10.1 22.4 22.4 0 12.3-10 22.4-22.4 22.4z"
               id="ASR-9010-FANpath200"
               style="fill:#b3b3b3" /><path
               class="ASR-9010-FANst7"
               d="M3374.9 51.1c12 0 21.9 9.8 21.9 21.8s-9.8 21.8-21.9 21.8c-12.1 0-21.9-9.8-21.9-21.8s9.9-21.8 21.9-21.8m0-1.2c-12.7 0-23 10.3-23 23s10.3 23 23 23 23-10.3 23-23-10.3-23-23-23z"
               id="ASR-9010-FANpath202"
               style="fill:#666" /></g><g
             id="ASR-9010-FANg210"><path
               class="ASR-9010-FANst11"
               d="M3374.9 87.3c-7.9 0-14.4-6.4-14.4-14.4s6.4-14.4 14.4-14.4c7.9 0 14.4 6.4 14.4 14.4s-6.4 14.4-14.4 14.4z"
               id="ASR-9010-FANpath206"
               style="fill:#ccc" /><path
               class="ASR-9010-FANst7"
               d="M3374.9 59.1c7.6 0 13.8 6.2 13.8 13.8 0 7.6-6.2 13.8-13.8 13.8-7.6 0-13.8-6.2-13.8-13.8 0-7.6 6.2-13.8 13.8-13.8m0-1.1c-8.3 0-14.9 6.7-14.9 14.9s6.7 15 14.9 15c8.3 0 15-6.7 15-15s-6.7-14.9-15-14.9z"
               id="ASR-9010-FANpath208"
               style="fill:#666" /></g><g
             id="ASR-9010-FANg216"><path
               class="ASR-9010-FANst19"
               d="M3372.6 80.4v-5.8c0-.3-.3-.6-.6-.6h-11.5v-2.3h11.5c.3 0 .6-.3.6-.6v-5.8h4.6v5.8c0 .3.3.6.6.6h11.5V74h-11.5c-.3 0-.6.3-.6.6v5.8z"
               id="ASR-9010-FANpath212"
               style="fill:#e6e6e6" /><path
               class="ASR-9010-FANst7"
               d="M3376.7 66v5.2c0 .6.5 1.2 1.1 1.2h10.9v1.2h-10.9c-.6 0-1.1.5-1.1 1.2V80h-3.5v-5.2c0-.6-.5-1.2-1.1-1.2h-10.9v-1.2h10.9c.6 0 1.1-.5 1.1-1.2V66h3.5m1.1-1.1h-5.8v6.3h-12v3.5h12.1V81h5.8v-6.3h12.1v-3.5h-12.1v-6.3z"
               id="ASR-9010-FANpath214"
               style="fill:#666" /></g></g></g></g><g
       id="ASR-9010-FANg262"><g
         id="ASR-9010-FANg228"><path
           class="ASR-9010-FANst12"
           d="M119 274.5c-8.5 0-15.5-7-15.5-15.5v-78c0-9.1-7.4-16.5-16.5-16.5H16c-8.5 0-15.5-7-15.5-15.5V65.2C.5 61 2.2 57 5.2 54.1L55.7 4.9C58.6 2.1 62.5.5 66.5.5h83v274z"
           id="ASR-9010-FANpath224"
           style="fill:#999" /><path
           class="ASR-9010-FANst14"
           d="M149 1v273h-30c-8.3 0-15-6.7-15-15v-78c0-9.4-7.6-17-17-17H16c-8.3 0-15-6.7-15-15V65.2c0-4 1.7-7.9 4.5-10.7L56 5.3C58.9 2.5 62.6 1 66.5 1H149m1-1H66.5c-4.2 0-8.2 1.6-11.2 4.5L4.8 53.8C1.7 56.8 0 60.9 0 65.2V149c0 8.8 7.2 16 16 16h71c8.8 0 16 7.2 16 16v78c0 8.8 7.2 16 16 16h31z"
           id="ASR-9010-FANpath226"
           style="fill:#1a1a1a" /></g><g
         id="ASR-9010-FANg260"><g
           id="ASR-9010-FANg234"><path
             class="ASR-9010-FANst11"
             d="M2.5 108.5V65.2c0-4.2 1.7-8.2 4.7-11.1l17.1-16.6H83c19.6 0 35.5 15.9 35.5 35.5s-15.9 35.5-35.5 35.5z"
             id="ASR-9010-FANpath230"
             style="fill:#ccc" /><path
             class="ASR-9010-FANst7"
             d="M83 38c19.3 0 35 15.7 35 35s-15.7 35-35 35H3V65.2c0-4 1.7-7.9 4.5-10.7l17-16.5H83m0-1H24L6.8 53.8C3.7 56.8 2 60.9 2 65.2V109h81c19.9 0 36-16.1 36-36s-16.1-36-36-36z"
             id="ASR-9010-FANpath232"
             style="fill:#666" /></g><g
           id="ASR-9010-FANg238"><path
             class="ASR-9010-FANst18"
             d="M16 46h61.1C95.3 46 110 58.1 110 73s-14.7 27-32.9 27H3V67.2C3 63.9 3 61 6 56z"
             id="ASR-9010-FANpath236"
             style="fill:#b3b3b3" /></g><g
           id="ASR-9010-FANg258"><g
             id="ASR-9010-FANg244"><path
               class="ASR-9010-FANst18"
               d="M80.1 95.4c-12.4 0-22.4-10.1-22.4-22.4 0-12.3 10.1-22.4 22.4-22.4 12.3 0 22.4 10.1 22.4 22.4 0 12.3-10.1 22.4-22.4 22.4z"
               id="ASR-9010-FANpath240"
               style="fill:#b3b3b3" /><path
               class="ASR-9010-FANst7"
               d="M80.1 51.1c12 0 21.8 9.8 21.8 21.8s-9.8 21.8-21.8 21.8S58.2 85 58.2 72.9c0-12.1 9.8-21.8 21.9-21.8m0-1.2c-12.7 0-23 10.3-23 23s10.3 23 23 23 23-10.3 23-23-10.4-23-23-23z"
               id="ASR-9010-FANpath242"
               style="fill:#666" /></g><g
             id="ASR-9010-FANg250"><path
               class="ASR-9010-FANst11"
               d="M80.1 87.3c-7.9 0-14.4-6.4-14.4-14.4s6.4-14.4 14.4-14.4S94.4 65 94.4 72.9 88 87.3 80.1 87.3z"
               id="ASR-9010-FANpath246"
               style="fill:#ccc" /><path
               class="ASR-9010-FANst7"
               d="M80.1 59.1c7.6 0 13.8 6.2 13.8 13.8 0 7.6-6.2 13.8-13.8 13.8-7.6 0-13.8-6.2-13.8-13.8 0-7.6 6.2-13.8 13.8-13.8m0-1.1c-8.3 0-14.9 6.7-14.9 14.9s6.7 15 14.9 15S95 81.2 95 72.9 88.3 58 80.1 58z"
               id="ASR-9010-FANpath248"
               style="fill:#666" /></g><g
             id="ASR-9010-FANg256"><path
               class="ASR-9010-FANst19"
               d="M77.8 80.4v-5.8c0-.3-.3-.6-.6-.6H65.7v-2.3h11.5c.3 0 .6-.3.6-.6v-5.8h4.6v5.8c0 .3.3.6.6.6h11.5V74H82.9c-.3 0-.6.3-.6.6v5.8z"
               id="ASR-9010-FANpath252"
               style="fill:#e6e6e6" /><path
               class="ASR-9010-FANst7"
               d="M81.8 66v5.2c0 .6.5 1.2 1.2 1.2h10.9v1.2h-11c-.6 0-1.2.5-1.2 1.2V80h-3.4v-5.2c0-.6-.5-1.2-1.2-1.2H66.3v-1.2h10.9c.6 0 1.2-.5 1.2-1.2V66h3.4m1.1-1.1h-5.8v6.3h-12v3.5h12.1V81H83v-6.3h12v-3.5H82.9z"
               id="ASR-9010-FANpath254"
               style="fill:#666" /></g></g></g></g></g><text
     xml:space="preserve"
     style="font-style:normal;font-weight:normal;font-size:40px;line-height:1.25;font-family:sans-serif;letter-spacing:0px;word-spacing:0px;fill:#000000;fill-opacity:1;stroke:none"
     x="165.13724"
     y="2596.7903"
     id="text143"><tspan
       sodipodi:role="line"
       id="tspan141"
       x="165.13724"
       y="2633.2834" /></text>
</svg>