<?xml version="1.0" encoding="UTF-8" standalone="no"?>
<svg
   xmlns:dc="http://purl.org/dc/elements/1.1/"
   xmlns:cc="http://creativecommons.org/ns#"
   xmlns:rdf="http://www.w3.org/1999/02/22-rdf-syntax-ns#"
   xmlns:svg="http://www.w3.org/2000/svg"
   xmlns="http://www.w3.org/2000/svg"
   xmlns:sodipodi="http://sodipodi.sourceforge.net/DTD/sodipodi-0.dtd"
   xmlns:inkscape="http://www.inkscape.org/namespaces/inkscape"
   version="1.1"
   id="ASR-920-20SZ-Front-MGMTPortLayer_1"
   x="0"
   y="0"
   viewBox="0 0 66.000008 112"
   xml:space="preserve"
   width="66"
   height="112"
   sodipodi:docname="ASR-920-20SZ-M_slot_R0.svg"
   inkscape:version="0.92.1 r15371"><metadata
     id="metadata61"><rdf:RDF><cc:Work
         rdf:about=""><dc:format>image/svg+xml</dc:format><dc:type
           rdf:resource="http://purl.org/dc/dcmitype/StillImage" /></cc:Work></rdf:RDF></metadata><defs
     id="defs59" /><sodipodi:namedview
     pagecolor="#ffffff"
     bordercolor="#666666"
     borderopacity="1"
     objecttolerance="10"
     gridtolerance="10"
     guidetolerance="10"
     inkscape:pageopacity="0"
     inkscape:pageshadow="2"
     inkscape:window-width="1920"
     inkscape:window-height="986"
     id="namedview57"
     showgrid="false"
     inkscape:zoom="6.8125"
     inkscape:cx="33"
     inkscape:cy="56"
     inkscape:window-x="-11"
     inkscape:window-y="-11"
     inkscape:window-maximized="1"
     inkscape:current-layer="ASR-920-20SZ-Front-MGMTPortLayer_1" /><style
     type="text/css"
     id="ASR-920-20SZ-Front-MGMTPortstyle2">.ASR-920-20SZ-Front-MGMTPortst3,.ASR-920-20SZ-Front-MGMTPortst4{fill:none;stroke:#fff;stroke-linecap:square;stroke-miterlimit:10}.ASR-920-20SZ-Front-MGMTPortst4{fill:#c2c2c2;stroke:#000}.ASR-920-20SZ-Front-MGMTPortst7{fill:#b3b3b3}.ASR-920-20SZ-Front-MGMTPortst8{fill:#4d4d4d}.ASR-920-20SZ-Front-MGMTPortst9{fill:#e6e6e6}.ASR-920-20SZ-Front-MGMTPortst10{fill:gray}</style><g
     id="ASR-920-20SZ-Front-MGMTPortg108"><g
       id="ASR-920-20SZ-Front-MGMTPortg40"><path
         id="ASR-920-20SZ-Front-MGMTPortrect4"
         style="fill:#333"
         d="M0 0h66v112H0z" /><g
         id="ASR-920-20SZ-Front-MGMTPortg38"><path
           d="M63.8 108c0 1.1-.9 2-2 2H4c-1.1 0-2-.9-2-2V4.7c0-1.1.9-2 2-2h57.9c1.1 0 2 .9 2 2V86z"
           id="ASR-920-20SZ-Front-MGMTPortpath6"
           style="fill:#c2c2c2;stroke:#000;stroke-miterlimit:10" /><g
           id="ASR-920-20SZ-Front-MGMTPortg32"><g
             id="ASR-920-20SZ-Front-MGMTPortg12"><path
               id="ASR-920-20SZ-Front-MGMTPortpolygon8"
               data-cv-id="PORT-0"
               style="fill:#505050"
               d="M19.9 17.1v-5.9h4.9V7.3h15.8v3.9h3.9v5.9h11.8v26.5H9.1V17.1z" /><path
               d="M40.1 7.8v3.9H44v5.9h11.8v25.5H9.6V17.6h10.8v-5.9h4.9V7.8h14.8m1-1H24.3v3.9h-4.9v5.9H8.6v27.5h48.2V16.6H45v-5.9h-3.9z"
               id="ASR-920-20SZ-Front-MGMTPortpath10" /></g><g
             id="ASR-920-20SZ-Front-MGMTPortg30"><path
               class="ASR-920-20SZ-Front-MGMTPortst3"
               id="ASR-920-20SZ-Front-MGMTPortline14"
               style="fill:none;stroke:#fff;stroke-linecap:square;stroke-miterlimit:10"
               d="M19.4 41.2V30.4" /><path
               class="ASR-920-20SZ-Front-MGMTPortst3"
               id="ASR-920-20SZ-Front-MGMTPortline16"
               style="fill:none;stroke:#fff;stroke-linecap:square;stroke-miterlimit:10"
               d="M23.4 41.2V30.4" /><path
               class="ASR-920-20SZ-Front-MGMTPortst3"
               id="ASR-920-20SZ-Front-MGMTPortline18"
               style="fill:none;stroke:#fff;stroke-linecap:square;stroke-miterlimit:10"
               d="M27.3 41.2V30.4" /><path
               class="ASR-920-20SZ-Front-MGMTPortst3"
               id="ASR-920-20SZ-Front-MGMTPortline20"
               style="fill:none;stroke:#fff;stroke-linecap:square;stroke-miterlimit:10"
               d="M31.2 41.2V30.4" /><path
               class="ASR-920-20SZ-Front-MGMTPortst3"
               id="ASR-920-20SZ-Front-MGMTPortline22"
               style="fill:none;stroke:#fff;stroke-linecap:square;stroke-miterlimit:10"
               d="M35.2 41.2V30.4" /><path
               class="ASR-920-20SZ-Front-MGMTPortst3"
               id="ASR-920-20SZ-Front-MGMTPortline24"
               style="fill:none;stroke:#fff;stroke-linecap:square;stroke-miterlimit:10"
               d="M39.1 41.2V30.4" /><path
               class="ASR-920-20SZ-Front-MGMTPortst3"
               id="ASR-920-20SZ-Front-MGMTPortline26"
               style="fill:none;stroke:#fff;stroke-linecap:square;stroke-miterlimit:10"
               d="M43 41.2V30.4" /><path
               class="ASR-920-20SZ-Front-MGMTPortst3"
               id="ASR-920-20SZ-Front-MGMTPortline28"
               style="fill:none;stroke:#fff;stroke-linecap:square;stroke-miterlimit:10"
               d="M46.9 41.2V30.4" /></g></g><path
           class="ASR-920-20SZ-Front-MGMTPortst4"
           id="ASR-920-20SZ-Front-MGMTPortpolygon34"
           style="fill:#c2c2c2;stroke:#000;stroke-linecap:square;stroke-miterlimit:10"
           d="M58.7 6.8h-9.8v7.8h9.8z" /><path
           class="ASR-920-20SZ-Front-MGMTPortst4"
           id="ASR-920-20SZ-Front-MGMTPortpolygon36"
           style="fill:#c2c2c2;stroke:#000;stroke-linecap:square;stroke-miterlimit:10"
           d="M16.5 6.8H6.7v7.8h9.8z" /></g></g><g
       id="ASR-920-20SZ-Front-MGMTPortg106"><g
         id="ASR-920-20SZ-Front-MGMTPortg50"><g
           id="ASR-920-20SZ-Front-MGMTPortg48"><g
             id="ASR-920-20SZ-Front-MGMTPortg46"><path
               d="M9 108.1c-.9 0-1.5-.8-1.5-1.6V56.3c0-.9.8-1.6 1.5-1.6h47.8c.9 0 1.5.8 1.5 1.6v50.2c0 .9-.8 1.6-1.5 1.6z"
               id="ASR-920-20SZ-Front-MGMTPortpath42"
               style="fill:#1a1a1a" /><path
               d="M56.9 55.1c.7 0 1 .4 1 1.1v50.2c0 .7-.4 1.1-1 1.1H9c-.7 0-1-.4-1-1.1V56.2c0-.7.4-1.1 1-1.1h47.9m0-1.1H9c-1.1 0-2 1-2 2.2v50.2c0 1.2 1 2.2 2.1 2.2h47.8c1.1 0 2.1-1 2.1-2.2V56.2c0-1.2-1-2.2-2.1-2.2z"
               id="ASR-920-20SZ-Front-MGMTPortpath44"
               style="fill:#ccc" /></g></g></g><g
         id="ASR-920-20SZ-Front-MGMTPortg64"><g
           id="ASR-920-20SZ-Front-MGMTPortg60"><path
             class="ASR-920-20SZ-Front-MGMTPortst7"
             id="ASR-920-20SZ-Front-MGMTPortpolygon52"
             style="fill:#b3b3b3"
             d="M20 99v3h2v-5h-4v2z" /><path
             class="ASR-920-20SZ-Front-MGMTPortst7"
             id="ASR-920-20SZ-Front-MGMTPortpolygon54"
             style="fill:#b3b3b3"
             d="M29 99v3h2v-5h-4v2z" /><path
             class="ASR-920-20SZ-Front-MGMTPortst7"
             id="ASR-920-20SZ-Front-MGMTPortpolygon56"
             style="fill:#b3b3b3"
             d="M37 99v3h2v-5h-4v2z" /><path
             class="ASR-920-20SZ-Front-MGMTPortst7"
             id="ASR-920-20SZ-Front-MGMTPortpolygon58"
             style="fill:#b3b3b3"
             d="M46 99v3h2v-5h-4v2z" /></g><path
           class="ASR-920-20SZ-Front-MGMTPortst8"
           id="ASR-920-20SZ-Front-MGMTPortrect62"
           style="fill:#4d4d4d"
           d="M13.8 90.8h38.3v5.6H13.8z" /></g><g
         id="ASR-920-20SZ-Front-MGMTPortg78"><g
           id="ASR-920-20SZ-Front-MGMTPortg74"><path
             class="ASR-920-20SZ-Front-MGMTPortst7"
             id="ASR-920-20SZ-Front-MGMTPortpolygon66"
             style="fill:#b3b3b3"
             d="M20 68v3h2v-5h-4v2z" /><path
             class="ASR-920-20SZ-Front-MGMTPortst7"
             id="ASR-920-20SZ-Front-MGMTPortpolygon68"
             style="fill:#b3b3b3"
             d="M29 68v3h2v-5h-4v2z" /><path
             class="ASR-920-20SZ-Front-MGMTPortst7"
             id="ASR-920-20SZ-Front-MGMTPortpolygon70"
             style="fill:#b3b3b3"
             d="M37 68v3h2v-5h-4v2z" /><path
             class="ASR-920-20SZ-Front-MGMTPortst7"
             id="ASR-920-20SZ-Front-MGMTPortpolygon72"
             style="fill:#b3b3b3"
             d="M46 68v3h2v-5h-4v2z" /></g><path
           class="ASR-920-20SZ-Front-MGMTPortst8"
           id="ASR-920-20SZ-Front-MGMTPortrect76"
           style="fill:#4d4d4d"
           d="M13.8 59.8h38.3v5.6H13.8z" /></g><g
         id="ASR-920-20SZ-Front-MGMTPortg98"><g
           id="ASR-920-20SZ-Front-MGMTPortg84"><path
             class="ASR-920-20SZ-Front-MGMTPortst9"
             id="ASR-920-20SZ-Front-MGMTPortrect80"
             style="fill:#e6e6e6"
             d="M8.2 86.2h49.5v1.5H8.2z" /><path
             class="ASR-920-20SZ-Front-MGMTPortst10"
             d="M57.5 86.5v1h-49v-1h49m.5-.5H8v2h50z"
             id="ASR-920-20SZ-Front-MGMTPortpath82"
             style="fill:gray" /></g><g
           id="ASR-920-20SZ-Front-MGMTPortg90"><path
             class="ASR-920-20SZ-Front-MGMTPortst9"
             id="ASR-920-20SZ-Front-MGMTPortrect86"
             style="fill:#e6e6e6"
             d="M8.2 74.2h49.5v1.5H8.2z" /><path
             class="ASR-920-20SZ-Front-MGMTPortst10"
             d="M57.5 74.5v1h-49v-1h49m.5-.5H8v2h50z"
             id="ASR-920-20SZ-Front-MGMTPortpath88"
             style="fill:gray" /></g><g
           id="ASR-920-20SZ-Front-MGMTPortg96"><path
             class="ASR-920-20SZ-Front-MGMTPortst9"
             id="ASR-920-20SZ-Front-MGMTPortrect92"
             style="fill:#e6e6e6"
             d="M8.3 75.3h49.4v11.4H8.3z" /><path
             class="ASR-920-20SZ-Front-MGMTPortst10"
             d="M57.4 75.6v10.8H8.6V75.6h48.8m.6-.6H8v12h50z"
             id="ASR-920-20SZ-Front-MGMTPortpath94"
             style="fill:gray" /></g></g><g
         id="ASR-920-20SZ-Front-MGMTPortg104"><path
           class="ASR-920-20SZ-Front-MGMTPortst7"
           d="M13.5 49.7c-.6 0-1.1-.4-1.1-.9v-1.7c0-.5.5-.9 1.1-.9h39c.6 0 1.1.4 1.1.9v1.7c0 .5-.5.9-1.1.9z"
           id="ASR-920-20SZ-Front-MGMTPortpath100"
           style="fill:#b3b3b3" /><path
           d="M52.5 46.6c.5 0 .8.2.8.6v1.7c0 .3-.3.6-.8.6h-39c-.4 0-.8-.2-.8-.6v-1.7c0-.3.3-.6.8-.6h39m0-.6h-39c-.8 0-1.5.5-1.5 1.1v1.7c0 .6.7 1.1 1.5 1.1h39c.8 0 1.5-.5 1.5-1.1v-1.7c0-.6-.7-1.1-1.5-1.1z"
           id="ASR-920-20SZ-Front-MGMTPortpath102"
           style="fill:#999" /></g></g></g><text
     xml:space="preserve"
     style="font-style:normal;font-weight:normal;font-size:40px;line-height:1.25;font-family:sans-serif;letter-spacing:0px;word-spacing:0px;fill:#000000;fill-opacity:1;stroke:none"
     x="10.12844"
     y="47.85321"
     id="text65"><tspan
       sodipodi:role="line"
       id="tspan63"
       x="10.12844"
       y="84.34642" /></text>
</svg>