<?xml version="1.0" encoding="UTF-8" standalone="no"?>
<svg
   xmlns:dc="http://purl.org/dc/elements/1.1/"
   xmlns:cc="http://creativecommons.org/ns#"
   xmlns:rdf="http://www.w3.org/1999/02/22-rdf-syntax-ns#"
   xmlns:svg="http://www.w3.org/2000/svg"
   xmlns="http://www.w3.org/2000/svg"
   xmlns:sodipodi="http://sodipodi.sourceforge.net/DTD/sodipodi-0.dtd"
   xmlns:inkscape="http://www.inkscape.org/namespaces/inkscape"
   xml:space="preserve"
   width="361"
   height="293.5"
   version="1.1"
   id="svg468"
   viewBox="0 0 361 293.5"
   sodipodi:docname="ASR-920-PWR-D.svg"
   inkscape:version="0.92.1 r15371"><metadata
     id="metadata474"><rdf:RDF><cc:Work
         rdf:about=""><dc:format>image/svg+xml</dc:format><dc:type
           rdf:resource="http://purl.org/dc/dcmitype/StillImage" /></cc:Work></rdf:RDF></metadata><defs
     id="defs472" /><sodipodi:namedview
     pagecolor="#ffffff"
     bordercolor="#666666"
     borderopacity="1"
     objecttolerance="10"
     gridtolerance="10"
     guidetolerance="10"
     inkscape:pageopacity="0"
     inkscape:pageshadow="2"
     inkscape:window-width="1920"
     inkscape:window-height="986"
     id="namedview470"
     showgrid="false"
     inkscape:zoom="2.5996593"
     inkscape:cx="180.5"
     inkscape:cy="146.75"
     inkscape:window-x="-11"
     inkscape:window-y="-11"
     inkscape:window-maximized="1"
     inkscape:current-layer="svg468" /><path
     d="M12.5 293H68c4.5 0 7.5-4.5 7.5-9v-1.5c0-3 3-7.5 7.5-7.5s7.5 4.5 7.5 7.5V293H344v-10.5h6l-1.5-1.5c6 0 12-4.5 12-10.5V233c0-4.5-4.5-7.5-9-7.5H350c-3 0-7.5-3-7.5-7.5s4.5-7.5 7.5-7.5h10.5v-120H350c-3 0-7.5-3-7.5-7.5s4.5-7.5 7.5-7.5c6 0 10.5-4.5 10.5-9V11c0-6-6-10.5-12-10.5h1.5-63c-4.5 0-9 3-9 7.5v1.5c0 4.5-3 7.5-6 7.5-4.5 0-7.5-3-7.5-7.5v-9H11C5 .5.5 5 .5 11v186h9c4.5 0 7.5 3 7.5 7.5 0 3-3 6-7.5 6s-9 4.5-9 10.5v-1.5 63-1.5c0 6 4.5 12 10.5 12h1.5z"
     style="clip-rule:evenodd;fill:#c1c5cb;fill-rule:evenodd"
     id="path2" /><path
     d="M12.5 293H68c4.5 0 7.5-4.5 7.5-9h0v-1.5h0c0-3 3-7.5 7.5-7.5s7.5 4.5 7.5 7.5h0V293H344v-10.5h6l-1.5-1.5c6 0 12-4.5 12-10.5h0V233h0c0-4.5-4.5-7.5-9-7.5h0-1.5 0c-3 0-7.5-3-7.5-7.5s4.5-7.5 7.5-7.5h10.5v-120H350h0c-3 0-7.5-3-7.5-7.5s4.5-7.5 7.5-7.5c6 0 10.5-4.5 10.5-9h0V11c0-6-6-10.5-12-10.5h1.5-63 0c-4.5 0-9 3-9 7.5h0v1.5h0c0 4.5-3 7.5-6 7.5-4.5 0-7.5-3-7.5-7.5h0v-9H11C5 .5.5 5 .5 11v186h9c4.5 0 7.5 3 7.5 7.5h0c0 3-3 6-7.5 6s-9 4.5-9 10.5v-1.5 63-1.5c0 6 4.5 12 10.5 12h1.5z"
     style="fill:none;stroke:#8c8c8c;stroke-linecap:square;stroke-miterlimit:2"
     id="path4" /><path
     style="fill:none;stroke:#262626;stroke-width:.06;stroke-linecap:square;stroke-miterlimit:2"
     d="M8 8H.5v189H8M264.5 8V.5H8V8M351.5 210.5h9v-120h-9M90.5 284v9H344v-9"
     id="path6" /><path
     d="M75.5 48.5c0-12-9-21-21-21s-21 9-21 21c0 10.5 9 21 21 21s21-10.5 21-21z"
     style="clip-rule:evenodd;fill:#333;fill-rule:evenodd"
     id="path8" /><path
     d="M75.5 48.5c0-12-9-21-21-21s-21 9-21 21c0 10.5 9 21 21 21s21-10.5 21-21h0z"
     style="fill:none;stroke:#000;stroke-width:.06;stroke-linecap:round;stroke-linejoin:round;stroke-miterlimit:2"
     id="path10" /><path
     d="M66.5 48.5C66.5 41 62 35 54.5 35c-6 0-12 6-12 13.5 0 6 6 12 12 12 7.5 0 12-6 12-12h0z"
     style="fill:#8c8c8c;stroke:#000;stroke-linecap:round;stroke-linejoin:round;stroke-miterlimit:2"
     id="path12" /><path
     style="clip-rule:evenodd;fill:#c1c5cb;fill-rule:evenodd"
     d="M29 194h13.5v67.5H29z"
     id="path14" /><path
     style="fill:none;stroke:#7f7f7f;stroke-width:.06;stroke-linecap:square;stroke-miterlimit:2"
     d="M42.5 194v67.5h0H29V194z"
     id="path16" /><path
     style="clip-rule:evenodd;fill:#c1c5cb;fill-rule:evenodd"
     d="M26 206h18v18H26z"
     id="path18" /><path
     d="M42.5 222.5V209M29 209v13.5"
     style="fill:none;stroke:#7f7f7f;stroke-width:.06;stroke-linecap:square;stroke-miterlimit:2"
     id="path20" /><path
     style="clip-rule:evenodd;fill:#c1c5cb;fill-rule:evenodd"
     d="M26 194h18v16.5H26z"
     id="path22" /><path
     d="M42.5 209v-13.5m-13.5 0V209"
     style="fill:none;stroke:#7f7f7f;stroke-width:.06;stroke-linecap:square;stroke-miterlimit:2"
     id="path24" /><path
     style="clip-rule:evenodd;fill:#c1c5cb;fill-rule:evenodd"
     d="M26 245h18v16.5H26z"
     id="path26" /><path
     d="M42.5 260v-12M29 248v12"
     style="fill:none;stroke:#7f7f7f;stroke-width:.06;stroke-linecap:square;stroke-miterlimit:2"
     id="path28" /><path
     style="clip-rule:evenodd;fill:#c1c5cb;fill-rule:evenodd"
     d="M26 231.5h18v18H26z"
     id="path30" /><path
     d="M42.5 248v-15M29 233v15"
     style="fill:none;stroke:#7f7f7f;stroke-width:.06;stroke-linecap:square;stroke-miterlimit:2"
     id="path32" /><path
     d="M75.5 129.5h6L80 131c1.5 0 3-1.5 3-3v-6s-1.5-1.5-3-1.5h1.5-6c-1.5 0-3 1.5-3 1.5H74v6h-1.5c0 1.5 1.5 3 3 3v-1.5z"
     style="clip-rule:evenodd;fill-rule:evenodd"
     id="path34" /><path
     d="M75.5 129.5h6L80 131c1.5 0 3-1.5 3-3h0v-6h0s-1.5-1.5-3-1.5h1.5-6 0c-1.5 0-3 1.5-3 1.5H74v6h-1.5c0 1.5 1.5 3 3 3v-1.5z"
     style="fill:none;stroke:#000;stroke-width:.06;stroke-linecap:round;stroke-linejoin:round;stroke-miterlimit:2"
     id="path36" /><path
     d="M92 129.5h6l1.5 1.5s1.5-1.5 1.5-3h-1.5v-6h1.5l-1.5-1.5H92h1.5c-1.5 0-1.5 1.5-1.5 1.5h-1.5v6H92c0 1.5 0 3 1.5 3l-1.5-1.5z"
     style="clip-rule:evenodd;fill-rule:evenodd"
     id="path38" /><path
     d="M92 129.5h6l1.5 1.5s1.5-1.5 1.5-3h0-1.5v-6h1.5l-1.5-1.5H92h1.5c-1.5 0-1.5 1.5-1.5 1.5h-1.5v6H92c0 1.5 0 3 1.5 3l-1.5-1.5z"
     style="fill:none;stroke:#000;stroke-width:.06;stroke-linecap:round;stroke-linejoin:round;stroke-miterlimit:2"
     id="path40" /><path
     d="M111.5 129.5h6v1.5s1.5-1.5 1.5-3v-6l-1.5-1.5h-6c-1.5 0-1.5 1.5-1.5 1.5v6c0 1.5 0 3 1.5 3v-1.5z"
     style="clip-rule:evenodd;fill-rule:evenodd"
     id="path42" /><path
     d="M111.5 129.5h6v1.5s1.5-1.5 1.5-3h0v-6h0l-1.5-1.5h0-6 0c-1.5 0-1.5 1.5-1.5 1.5h0v6h0c0 1.5 0 3 1.5 3v-1.5z"
     style="fill:none;stroke:#000;stroke-width:.06;stroke-linecap:round;stroke-linejoin:round;stroke-miterlimit:2"
     id="path44" /><path
     d="M129.5 129.5h6v1.5c1.5 0 1.5-1.5 1.5-3v-6s0-1.5-1.5-1.5h-6c-1.5 0-1.5 1.5-1.5 1.5v6c0 1.5 0 3 1.5 3v-1.5z"
     style="clip-rule:evenodd;fill-rule:evenodd"
     id="path46" /><path
     d="M129.5 129.5h6v1.5c1.5 0 1.5-1.5 1.5-3h0v-6h0s0-1.5-1.5-1.5h0-6 0c-1.5 0-1.5 1.5-1.5 1.5h0v6h0c0 1.5 0 3 1.5 3v-1.5z"
     style="fill:none;stroke:#000;stroke-width:.06;stroke-linecap:round;stroke-linejoin:round;stroke-miterlimit:2"
     id="path48" /><path
     d="M149 129.5h6l-1.5 1.5c1.5 0 1.5-1.5 1.5-3v-6s0-1.5-1.5-1.5h1.5-7.5L146 122h1.5v6H146c0 1.5 1.5 3 1.5 3l1.5-1.5z"
     style="clip-rule:evenodd;fill-rule:evenodd"
     id="path50" /><path
     d="M149 129.5h6l-1.5 1.5c1.5 0 1.5-1.5 1.5-3h0v-6h0s0-1.5-1.5-1.5h1.5-7.5L146 122h1.5v6H146c0 1.5 1.5 3 1.5 3l1.5-1.5z"
     style="fill:none;stroke:#000;stroke-width:.06;stroke-linecap:round;stroke-linejoin:round;stroke-miterlimit:2"
     id="path52" /><path
     d="M165.5 129.5h6v1.5c1.5 0 1.5-1.5 1.5-3v-6s0-1.5-1.5-1.5h-6L164 122v6c0 1.5 1.5 3 1.5 3v-1.5z"
     style="clip-rule:evenodd;fill-rule:evenodd"
     id="path54" /><path
     d="M165.5 129.5h6v1.5c1.5 0 1.5-1.5 1.5-3h0v-6h0s0-1.5-1.5-1.5h0-6 0L164 122h0v6h0c0 1.5 1.5 3 1.5 3v-1.5z"
     style="fill:none;stroke:#000;stroke-width:.06;stroke-linecap:round;stroke-linejoin:round;stroke-miterlimit:2"
     id="path56" /><path
     d="M185 129.5h4.5v1.5c1.5 0 3-1.5 3-3v-6s-1.5-1.5-3-1.5H185c-1.5 0-3 1.5-3 1.5v6c0 1.5 1.5 3 3 3v-1.5z"
     style="clip-rule:evenodd;fill-rule:evenodd"
     id="path58" /><path
     d="M185 129.5h4.5v1.5c1.5 0 3-1.5 3-3h0v-6h0s-1.5-1.5-3-1.5h0-4.5 0c-1.5 0-3 1.5-3 1.5h0v6h0c0 1.5 1.5 3 3 3v-1.5z"
     style="fill:none;stroke:#000;stroke-width:.06;stroke-linecap:round;stroke-linejoin:round;stroke-miterlimit:2"
     id="path60" /><path
     d="M203 129.5h6v1.5s1.5-1.5 1.5-3v-6l-1.5-1.5h-6c-1.5 0-1.5 1.5-1.5 1.5v6c0 1.5 0 3 1.5 3v-1.5z"
     style="clip-rule:evenodd;fill-rule:evenodd"
     id="path62" /><path
     d="M203 129.5h6v1.5s1.5-1.5 1.5-3h0v-6h0l-1.5-1.5h0-6 0c-1.5 0-1.5 1.5-1.5 1.5h0v6h0c0 1.5 0 3 1.5 3v-1.5z"
     style="fill:none;stroke:#000;stroke-width:.06;stroke-linecap:round;stroke-linejoin:round;stroke-miterlimit:2"
     id="path64" /><path
     d="M222.5 129.5h3l1.5 1.5s1.5-1.5 1.5-3H227v-6h1.5l-1.5-1.5h-6c-1.5 0-1.5 1.5-1.5 1.5v6c0 1.5 0 3 1.5 3l1.5-1.5z"
     style="clip-rule:evenodd;fill-rule:evenodd"
     id="path66" /><path
     d="M222.5 129.5h3l1.5 1.5s1.5-1.5 1.5-3h0-1.5v-6h1.5l-1.5-1.5h-6c-1.5 0-1.5 1.5-1.5 1.5h0v6h0c0 1.5 0 3 1.5 3l1.5-1.5z"
     style="fill:none;stroke:#000;stroke-width:.06;stroke-linecap:round;stroke-linejoin:round;stroke-miterlimit:2"
     id="path68" /><path
     d="M239 129.5h6v1.5c1.5 0 1.5-1.5 1.5-3v-6s0-1.5-1.5-1.5h-6l-1.5 1.5v6c0 1.5 1.5 3 1.5 3v-1.5z"
     style="clip-rule:evenodd;fill-rule:evenodd"
     id="path70" /><path
     d="M239 129.5h6v1.5c1.5 0 1.5-1.5 1.5-3h0v-6h0s0-1.5-1.5-1.5h0-6 0l-1.5 1.5h0v6h0c0 1.5 1.5 3 1.5 3v-1.5z"
     style="fill:none;stroke:#000;stroke-width:.06;stroke-linecap:round;stroke-linejoin:round;stroke-miterlimit:2"
     id="path72" /><path
     d="M257 129.5h6v1.5c1.5 0 1.5-1.5 1.5-3v-6s0-1.5-1.5-1.5h-6l-1.5 1.5v6c0 1.5 1.5 3 1.5 3v-1.5z"
     style="clip-rule:evenodd;fill-rule:evenodd"
     id="path74" /><path
     d="M257 129.5h6v1.5c1.5 0 1.5-1.5 1.5-3h0v-6h0s0-1.5-1.5-1.5h0-6 0l-1.5 1.5h0v6h0c0 1.5 1.5 3 1.5 3v-1.5z"
     style="fill:none;stroke:#000;stroke-width:.06;stroke-linecap:round;stroke-linejoin:round;stroke-miterlimit:2"
     id="path76" /><path
     d="M276.5 129.5h6L281 131c1.5 0 1.5-1.5 1.5-3h1.5v-6h-1.5s0-1.5-1.5-1.5h1.5-6c-1.5 0-3 1.5-3 1.5h1.5v6h-1.5c0 1.5 1.5 3 3 3v-1.5z"
     style="clip-rule:evenodd;fill-rule:evenodd"
     id="path78" /><path
     d="M276.5 129.5h6L281 131c1.5 0 1.5-1.5 1.5-3h1.5v-6h-1.5s0-1.5-1.5-1.5h1.5-6 0c-1.5 0-3 1.5-3 1.5h1.5v6h-1.5c0 1.5 1.5 3 3 3v-1.5z"
     style="fill:none;stroke:#000;stroke-width:.06;stroke-linecap:round;stroke-linejoin:round;stroke-miterlimit:2"
     id="path80" /><path
     d="M293 129.5h6v1.5c1.5 0 3-1.5 3-3h-1.5v-6h1.5s-1.5-1.5-3-1.5h-6 1.5c-1.5 0-3 1.5-3 1.5v6c0 1.5 1.5 3 3 3l-1.5-1.5z"
     style="clip-rule:evenodd;fill-rule:evenodd"
     id="path82" /><path
     d="M293 129.5h6v1.5c1.5 0 3-1.5 3-3h0-1.5v-6h1.5s-1.5-1.5-3-1.5h0-6 1.5c-1.5 0-3 1.5-3 1.5h0v6h0c0 1.5 1.5 3 3 3l-1.5-1.5z"
     style="fill:none;stroke:#000;stroke-width:.06;stroke-linecap:round;stroke-linejoin:round;stroke-miterlimit:2"
     id="path84" /><path
     d="M312.5 129.5h4.5l1.5 1.5s1.5-1.5 1.5-3v-6l-1.5-1.5h-6c-1.5 0-1.5 1.5-1.5 1.5h-1.5v6h1.5c0 1.5 0 3 1.5 3v-1.5z"
     style="clip-rule:evenodd;fill-rule:evenodd"
     id="path86" /><path
     d="M312.5 129.5h4.5l1.5 1.5s1.5-1.5 1.5-3h0v-6h0l-1.5-1.5h-6 0c-1.5 0-1.5 1.5-1.5 1.5h-1.5v6h1.5c0 1.5 0 3 1.5 3v-1.5z"
     style="fill:none;stroke:#000;stroke-width:.06;stroke-linecap:round;stroke-linejoin:round;stroke-miterlimit:2"
     id="path88" /><path
     d="M75.5 111.5h6H80c1.5 0 3 0 3-1.5v-6s-1.5-1.5-3-1.5h1.5-6c-1.5 0-3 1.5-3 1.5H74v6h-1.5c0 1.5 1.5 1.5 3 1.5z"
     style="clip-rule:evenodd;fill-rule:evenodd"
     id="path90" /><path
     d="M75.5 111.5h6H80c1.5 0 3 0 3-1.5h0v-6h0s-1.5-1.5-3-1.5h1.5-6 0c-1.5 0-3 1.5-3 1.5H74v6h-1.5c0 1.5 1.5 1.5 3 1.5h0z"
     style="fill:none;stroke:#000;stroke-width:.06;stroke-linecap:round;stroke-linejoin:round;stroke-miterlimit:2"
     id="path92" /><path
     d="M92 111.5h7.5s1.5 0 1.5-1.5h-1.5v-6h1.5l-1.5-1.5H92h1.5c-1.5 0-1.5 1.5-1.5 1.5h-1.5v6H92c0 1.5 0 1.5 1.5 1.5H92z"
     style="clip-rule:evenodd;fill-rule:evenodd"
     id="path94" /><path
     d="M92 111.5h7.5s1.5 0 1.5-1.5h0-1.5v-6h1.5l-1.5-1.5H92h1.5c-1.5 0-1.5 1.5-1.5 1.5h-1.5v6H92c0 1.5 0 1.5 1.5 1.5H92z"
     style="fill:none;stroke:#000;stroke-width:.06;stroke-linecap:round;stroke-linejoin:round;stroke-miterlimit:2"
     id="path96" /><path
     d="M111.5 111.5h6s1.5 0 1.5-1.5v-6l-1.5-1.5h-6c-1.5 0-1.5 1.5-1.5 1.5v6c0 1.5 0 1.5 1.5 1.5z"
     style="clip-rule:evenodd;fill-rule:evenodd"
     id="path98" /><path
     d="M111.5 111.5h6s1.5 0 1.5-1.5h0v-6h0l-1.5-1.5h0-6 0c-1.5 0-1.5 1.5-1.5 1.5h0v6h0c0 1.5 0 1.5 1.5 1.5h0z"
     style="fill:none;stroke:#000;stroke-width:.06;stroke-linecap:round;stroke-linejoin:round;stroke-miterlimit:2"
     id="path100" /><path
     d="M129.5 111.5h6c1.5 0 1.5 0 1.5-1.5v-6s0-1.5-1.5-1.5h-6c-1.5 0-1.5 1.5-1.5 1.5v6c0 1.5 0 1.5 1.5 1.5z"
     style="clip-rule:evenodd;fill-rule:evenodd"
     id="path102" /><path
     d="M129.5 111.5h6c1.5 0 1.5 0 1.5-1.5h0v-6h0s0-1.5-1.5-1.5h0-6 0c-1.5 0-1.5 1.5-1.5 1.5h0v6h0c0 1.5 0 1.5 1.5 1.5h0z"
     style="fill:none;stroke:#000;stroke-width:.06;stroke-linecap:round;stroke-linejoin:round;stroke-miterlimit:2"
     id="path104" /><path
     d="M149 111.5h6-1.5c1.5 0 1.5 0 1.5-1.5v-6s0-1.5-1.5-1.5h1.5-7.5L146 104h1.5v6H146c0 1.5 1.5 1.5 1.5 1.5h1.5z"
     style="clip-rule:evenodd;fill-rule:evenodd"
     id="path106" /><path
     d="M149 111.5h6-1.5c1.5 0 1.5 0 1.5-1.5h0v-6h0s0-1.5-1.5-1.5h1.5-7.5L146 104h1.5v6H146c0 1.5 1.5 1.5 1.5 1.5h1.5z"
     style="fill:none;stroke:#000;stroke-width:.06;stroke-linecap:round;stroke-linejoin:round;stroke-miterlimit:2"
     id="path108" /><path
     d="M165.5 111.5h6c1.5 0 1.5 0 1.5-1.5v-6s0-1.5-1.5-1.5h-6L164 104v6c0 1.5 1.5 1.5 1.5 1.5z"
     style="clip-rule:evenodd;fill-rule:evenodd"
     id="path110" /><path
     d="M165.5 111.5h6c1.5 0 1.5 0 1.5-1.5h0v-6h0s0-1.5-1.5-1.5h0-6 0L164 104h0v6h0c0 1.5 1.5 1.5 1.5 1.5h0z"
     style="fill:none;stroke:#000;stroke-width:.06;stroke-linecap:round;stroke-linejoin:round;stroke-miterlimit:2"
     id="path112" /><path
     d="M185 111.5h4.5c1.5 0 3 0 3-1.5v-6s-1.5-1.5-3-1.5H185c-1.5 0-3 1.5-3 1.5v6c0 1.5 1.5 1.5 3 1.5z"
     style="clip-rule:evenodd;fill-rule:evenodd"
     id="path114" /><path
     d="M185 111.5h4.5c1.5 0 3 0 3-1.5h0v-6h0s-1.5-1.5-3-1.5h0-4.5 0c-1.5 0-3 1.5-3 1.5h0v6h0c0 1.5 1.5 1.5 3 1.5h0z"
     style="fill:none;stroke:#000;stroke-width:.06;stroke-linecap:round;stroke-linejoin:round;stroke-miterlimit:2"
     id="path116" /><path
     d="M203 111.5h6s1.5 0 1.5-1.5v-6l-1.5-1.5h-6c-1.5 0-1.5 1.5-1.5 1.5v6c0 1.5 0 1.5 1.5 1.5z"
     style="clip-rule:evenodd;fill-rule:evenodd"
     id="path118" /><path
     d="M203 111.5h6s1.5 0 1.5-1.5h0v-6h0l-1.5-1.5h0-6 0c-1.5 0-1.5 1.5-1.5 1.5h0v6h0c0 1.5 0 1.5 1.5 1.5h0z"
     style="fill:none;stroke:#000;stroke-width:.06;stroke-linecap:round;stroke-linejoin:round;stroke-miterlimit:2"
     id="path120" /><path
     d="M222.5 111.5h4.5s1.5 0 1.5-1.5H227v-6h1.5l-1.5-1.5h-6c-1.5 0-1.5 1.5-1.5 1.5v6c0 1.5 0 1.5 1.5 1.5h1.5z"
     style="clip-rule:evenodd;fill-rule:evenodd"
     id="path122" /><path
     d="M222.5 111.5h4.5s1.5 0 1.5-1.5h0-1.5v-6h1.5l-1.5-1.5h-6c-1.5 0-1.5 1.5-1.5 1.5h0v6h0c0 1.5 0 1.5 1.5 1.5h1.5z"
     style="fill:none;stroke:#000;stroke-width:.06;stroke-linecap:round;stroke-linejoin:round;stroke-miterlimit:2"
     id="path124" /><path
     d="M239 111.5h6c1.5 0 1.5 0 1.5-1.5v-6s0-1.5-1.5-1.5h-6l-1.5 1.5v6c0 1.5 1.5 1.5 1.5 1.5z"
     style="clip-rule:evenodd;fill-rule:evenodd"
     id="path126" /><path
     d="M239 111.5h6c1.5 0 1.5 0 1.5-1.5h0v-6h0s0-1.5-1.5-1.5h0-6 0l-1.5 1.5h0v6h0c0 1.5 1.5 1.5 1.5 1.5h0z"
     style="fill:none;stroke:#000;stroke-width:.06;stroke-linecap:round;stroke-linejoin:round;stroke-miterlimit:2"
     id="path128" /><path
     d="M257 111.5h6c1.5 0 1.5 0 1.5-1.5v-6s0-1.5-1.5-1.5h-6l-1.5 1.5v6c0 1.5 1.5 1.5 1.5 1.5z"
     style="clip-rule:evenodd;fill-rule:evenodd"
     id="path130" /><path
     d="M257 111.5h6c1.5 0 1.5 0 1.5-1.5h0v-6h0s0-1.5-1.5-1.5h0-6 0l-1.5 1.5h0v6h0c0 1.5 1.5 1.5 1.5 1.5h0z"
     style="fill:none;stroke:#000;stroke-width:.06;stroke-linecap:round;stroke-linejoin:round;stroke-miterlimit:2"
     id="path132" /><path
     d="M276.5 111.5h6-1.5c1.5 0 1.5 0 1.5-1.5h1.5v-6h-1.5s0-1.5-1.5-1.5h1.5-6c-1.5 0-3 1.5-3 1.5h1.5v6h-1.5c0 1.5 1.5 1.5 3 1.5z"
     style="clip-rule:evenodd;fill-rule:evenodd"
     id="path134" /><path
     d="M276.5 111.5h6-1.5c1.5 0 1.5 0 1.5-1.5h1.5v-6h-1.5s0-1.5-1.5-1.5h1.5-6 0c-1.5 0-3 1.5-3 1.5h1.5v6h-1.5c0 1.5 1.5 1.5 3 1.5h0z"
     style="fill:none;stroke:#000;stroke-width:.06;stroke-linecap:round;stroke-linejoin:round;stroke-miterlimit:2"
     id="path136" /><path
     d="M293 111.5h6c1.5 0 3 0 3-1.5h-1.5v-6h1.5s-1.5-1.5-3-1.5h-6 1.5c-1.5 0-3 1.5-3 1.5v6c0 1.5 1.5 1.5 3 1.5H293z"
     style="clip-rule:evenodd;fill-rule:evenodd"
     id="path138" /><path
     d="M293 111.5h6c1.5 0 3 0 3-1.5h0-1.5v-6h1.5s-1.5-1.5-3-1.5h0-6 1.5c-1.5 0-3 1.5-3 1.5h0v6h0c0 1.5 1.5 1.5 3 1.5H293z"
     style="fill:none;stroke:#000;stroke-width:.06;stroke-linecap:round;stroke-linejoin:round;stroke-miterlimit:2"
     id="path140" /><path
     d="M312.5 111.5h6s1.5 0 1.5-1.5v-6l-1.5-1.5h-6c-1.5 0-1.5 1.5-1.5 1.5h-1.5v6h1.5c0 1.5 0 1.5 1.5 1.5z"
     style="clip-rule:evenodd;fill-rule:evenodd"
     id="path142" /><path
     d="M312.5 111.5h6s1.5 0 1.5-1.5h0v-6h0l-1.5-1.5h-6 0c-1.5 0-1.5 1.5-1.5 1.5h-1.5v6h1.5c0 1.5 0 1.5 1.5 1.5h0z"
     style="fill:none;stroke:#000;stroke-width:.06;stroke-linecap:round;stroke-linejoin:round;stroke-miterlimit:2"
     id="path144" /><path
     d="M75.5 95h6L80 93.5c1.5 0 3 0 3-1.5v-6s-1.5-1.5-3-1.5h1.5-6c-1.5 0-3 1.5-3 1.5l1.5 1.5V92h-1.5c0 1.5 1.5 1.5 3 1.5V95z"
     style="clip-rule:evenodd;fill-rule:evenodd"
     id="path146" /><path
     d="M75.5 95h6L80 93.5c1.5 0 3 0 3-1.5h0v-6s-1.5-1.5-3-1.5h1.5-6 0c-1.5 0-3 1.5-3 1.5l1.5 1.5V92h-1.5c0 1.5 1.5 1.5 3 1.5V95z"
     style="fill:none;stroke:#000;stroke-width:.06;stroke-linecap:round;stroke-linejoin:round;stroke-miterlimit:2"
     id="path148" /><path
     d="M92 95h6l1.5-1.5s1.5 0 1.5-1.5h-1.5v-4.5L101 86l-1.5-1.5H92h1.5C92 84.5 92 86 92 86l-1.5 1.5V92H92c0 1.5 0 1.5 1.5 1.5L92 95z"
     style="clip-rule:evenodd;fill-rule:evenodd"
     id="path150" /><path
     d="M92 95h6l1.5-1.5s1.5 0 1.5-1.5h0-1.5v-4.5L101 86l-1.5-1.5H92h1.5C92 84.5 92 86 92 86l-1.5 1.5V92H92c0 1.5 0 1.5 1.5 1.5L92 95z"
     style="fill:none;stroke:#000;stroke-width:.06;stroke-linecap:round;stroke-linejoin:round;stroke-miterlimit:2"
     id="path152" /><path
     d="M111.5 95h6v-1.5s1.5 0 1.5-1.5v-6l-1.5-1.5h-6c-1.5 0-1.5 1.5-1.5 1.5v6c0 1.5 0 1.5 1.5 1.5V95z"
     style="clip-rule:evenodd;fill-rule:evenodd"
     id="path154" /><path
     d="M111.5 95h6v-1.5s1.5 0 1.5-1.5h0v-6l-1.5-1.5h0-6 0c-1.5 0-1.5 1.5-1.5 1.5v6h0c0 1.5 0 1.5 1.5 1.5V95z"
     style="fill:none;stroke:#000;stroke-width:.06;stroke-linecap:round;stroke-linejoin:round;stroke-miterlimit:2"
     id="path156" /><path
     d="M129.5 95h6v-1.5c1.5 0 1.5 0 1.5-1.5v-6s0-1.5-1.5-1.5h-6c-1.5 0-1.5 1.5-1.5 1.5v6c0 1.5 0 1.5 1.5 1.5V95z"
     style="clip-rule:evenodd;fill-rule:evenodd"
     id="path158" /><path
     d="M129.5 95h6v-1.5c1.5 0 1.5 0 1.5-1.5h0v-6s0-1.5-1.5-1.5h0-6 0c-1.5 0-1.5 1.5-1.5 1.5v6h0c0 1.5 0 1.5 1.5 1.5V95z"
     style="fill:none;stroke:#000;stroke-width:.06;stroke-linecap:round;stroke-linejoin:round;stroke-miterlimit:2"
     id="path160" /><path
     d="M149 95h6l-1.5-1.5c1.5 0 1.5 0 1.5-1.5v-6s0-1.5-1.5-1.5h1.5-7.5L146 86l1.5 1.5V92H146c0 1.5 1.5 1.5 1.5 1.5L149 95z"
     style="clip-rule:evenodd;fill-rule:evenodd"
     id="path162" /><path
     d="M149 95h6l-1.5-1.5c1.5 0 1.5 0 1.5-1.5h0v-6s0-1.5-1.5-1.5h1.5-7.5L146 86l1.5 1.5V92H146c0 1.5 1.5 1.5 1.5 1.5L149 95z"
     style="fill:none;stroke:#000;stroke-width:.06;stroke-linecap:round;stroke-linejoin:round;stroke-miterlimit:2"
     id="path164" /><path
     d="M165.5 95h6v-1.5c1.5 0 1.5 0 1.5-1.5v-6s0-1.5-1.5-1.5h-6L164 86v6c0 1.5 1.5 1.5 1.5 1.5V95z"
     style="clip-rule:evenodd;fill-rule:evenodd"
     id="path166" /><path
     d="M165.5 95h6v-1.5c1.5 0 1.5 0 1.5-1.5h0v-6s0-1.5-1.5-1.5h0-6 0L164 86v6h0c0 1.5 1.5 1.5 1.5 1.5V95z"
     style="fill:none;stroke:#000;stroke-width:.06;stroke-linecap:round;stroke-linejoin:round;stroke-miterlimit:2"
     id="path168" /><path
     d="M185 95h4.5v-1.5c1.5 0 3 0 3-1.5v-6s-1.5-1.5-3-1.5H185c-1.5 0-3 1.5-3 1.5v6c0 1.5 1.5 1.5 3 1.5V95z"
     style="clip-rule:evenodd;fill-rule:evenodd"
     id="path170" /><path
     d="M185 95h4.5v-1.5c1.5 0 3 0 3-1.5h0v-6s-1.5-1.5-3-1.5h0-4.5 0c-1.5 0-3 1.5-3 1.5v6h0c0 1.5 1.5 1.5 3 1.5V95z"
     style="fill:none;stroke:#000;stroke-width:.06;stroke-linecap:round;stroke-linejoin:round;stroke-miterlimit:2"
     id="path172" /><path
     d="M203 95h6v-1.5s1.5 0 1.5-1.5v-6l-1.5-1.5h-6c-1.5 0-1.5 1.5-1.5 1.5v6c0 1.5 0 1.5 1.5 1.5V95z"
     style="clip-rule:evenodd;fill-rule:evenodd"
     id="path174" /><path
     d="M203 95h6v-1.5s1.5 0 1.5-1.5h0v-6l-1.5-1.5h0-6 0c-1.5 0-1.5 1.5-1.5 1.5v6h0c0 1.5 0 1.5 1.5 1.5V95z"
     style="fill:none;stroke:#000;stroke-width:.06;stroke-linecap:round;stroke-linejoin:round;stroke-miterlimit:2"
     id="path176" /><path
     d="M222.5 95h3l1.5-1.5s1.5 0 1.5-1.5H227v-4.5l1.5-1.5-1.5-1.5h-6c-1.5 0-1.5 1.5-1.5 1.5v6c0 1.5 0 1.5 1.5 1.5l1.5 1.5z"
     style="clip-rule:evenodd;fill-rule:evenodd"
     id="path178" /><path
     d="M222.5 95h3l1.5-1.5s1.5 0 1.5-1.5h0-1.5v-4.5l1.5-1.5-1.5-1.5h-6c-1.5 0-1.5 1.5-1.5 1.5v6h0c0 1.5 0 1.5 1.5 1.5l1.5 1.5z"
     style="fill:none;stroke:#000;stroke-width:.06;stroke-linecap:round;stroke-linejoin:round;stroke-miterlimit:2"
     id="path180" /><path
     d="M239 95h6v-1.5c1.5 0 1.5 0 1.5-1.5v-6s0-1.5-1.5-1.5h-6l-1.5 1.5v6c0 1.5 1.5 1.5 1.5 1.5V95z"
     style="clip-rule:evenodd;fill-rule:evenodd"
     id="path182" /><path
     d="M239 95h6v-1.5c1.5 0 1.5 0 1.5-1.5h0v-6s0-1.5-1.5-1.5h0-6 0l-1.5 1.5v6h0c0 1.5 1.5 1.5 1.5 1.5V95z"
     style="fill:none;stroke:#000;stroke-width:.06;stroke-linecap:round;stroke-linejoin:round;stroke-miterlimit:2"
     id="path184" /><path
     d="M257 95h6v-1.5c1.5 0 1.5 0 1.5-1.5v-6s0-1.5-1.5-1.5h-6l-1.5 1.5v6c0 1.5 1.5 1.5 1.5 1.5V95z"
     style="clip-rule:evenodd;fill-rule:evenodd"
     id="path186" /><path
     d="M257 95h6v-1.5c1.5 0 1.5 0 1.5-1.5h0v-6s0-1.5-1.5-1.5h0-6 0l-1.5 1.5v6h0c0 1.5 1.5 1.5 1.5 1.5V95z"
     style="fill:none;stroke:#000;stroke-width:.06;stroke-linecap:round;stroke-linejoin:round;stroke-miterlimit:2"
     id="path188" /><path
     d="M276.5 95h6l-1.5-1.5c1.5 0 1.5 0 1.5-1.5h1.5v-4.5l-1.5-1.5s0-1.5-1.5-1.5h1.5-6c-1.5 0-3 1.5-3 1.5l1.5 1.5V92h-1.5c0 1.5 1.5 1.5 3 1.5V95z"
     style="clip-rule:evenodd;fill-rule:evenodd"
     id="path190" /><path
     d="M276.5 95h6l-1.5-1.5c1.5 0 1.5 0 1.5-1.5h1.5v-4.5l-1.5-1.5s0-1.5-1.5-1.5h1.5-6 0c-1.5 0-3 1.5-3 1.5l1.5 1.5V92h-1.5c0 1.5 1.5 1.5 3 1.5V95z"
     style="fill:none;stroke:#000;stroke-width:.06;stroke-linecap:round;stroke-linejoin:round;stroke-miterlimit:2"
     id="path192" /><path
     d="M293 95h6v-1.5c1.5 0 3 0 3-1.5h-1.5v-4.5L302 86s-1.5-1.5-3-1.5h-6 1.5c-1.5 0-3 1.5-3 1.5v6c0 1.5 1.5 1.5 3 1.5L293 95z"
     style="clip-rule:evenodd;fill-rule:evenodd"
     id="path194" /><path
     d="M293 95h6v-1.5c1.5 0 3 0 3-1.5h0-1.5v-4.5L302 86s-1.5-1.5-3-1.5h0-6 1.5c-1.5 0-3 1.5-3 1.5v6h0c0 1.5 1.5 1.5 3 1.5L293 95z"
     style="fill:none;stroke:#000;stroke-width:.06;stroke-linecap:round;stroke-linejoin:round;stroke-miterlimit:2"
     id="path196" /><path
     d="M312.5 95h4.5l1.5-1.5s1.5 0 1.5-1.5v-6l-1.5-1.5h-6c-1.5 0-1.5 1.5-1.5 1.5l-1.5 1.5V92h1.5c0 1.5 0 1.5 1.5 1.5V95z"
     style="clip-rule:evenodd;fill-rule:evenodd"
     id="path198" /><path
     d="M312.5 95h4.5l1.5-1.5s1.5 0 1.5-1.5h0v-6l-1.5-1.5h-6 0c-1.5 0-1.5 1.5-1.5 1.5l-1.5 1.5V92h1.5c0 1.5 0 1.5 1.5 1.5V95z"
     style="fill:none;stroke:#000;stroke-width:.06;stroke-linecap:round;stroke-linejoin:round;stroke-miterlimit:2"
     id="path200" /><path
     d="M92 75.5h7.5s1.5 0 1.5-1.5h-1.5v-6h1.5c0-1.5-1.5-1.5-1.5-1.5H92h1.5c-1.5 0-1.5 0-1.5 1.5h-1.5v6H92c0 1.5 0 1.5 1.5 1.5H92z"
     style="clip-rule:evenodd;fill-rule:evenodd"
     id="path202" /><path
     d="M92 75.5h7.5s1.5 0 1.5-1.5h0-1.5v-6h1.5c0-1.5-1.5-1.5-1.5-1.5H92h1.5c-1.5 0-1.5 0-1.5 1.5h-1.5v6H92c0 1.5 0 1.5 1.5 1.5H92z"
     style="fill:none;stroke:#000;stroke-width:.06;stroke-linecap:round;stroke-linejoin:round;stroke-miterlimit:2"
     id="path204" /><path
     d="M111.5 75.5h6s1.5 0 1.5-1.5v-6c0-1.5-1.5-1.5-1.5-1.5h-6c-1.5 0-1.5 0-1.5 1.5v6c0 1.5 0 1.5 1.5 1.5z"
     style="clip-rule:evenodd;fill-rule:evenodd"
     id="path206" /><path
     d="M111.5 75.5h6s1.5 0 1.5-1.5h0v-6h0c0-1.5-1.5-1.5-1.5-1.5h0-6 0c-1.5 0-1.5 0-1.5 1.5h0v6h0c0 1.5 0 1.5 1.5 1.5h0z"
     style="fill:none;stroke:#000;stroke-width:.06;stroke-linecap:round;stroke-linejoin:round;stroke-miterlimit:2"
     id="path208" /><path
     d="M129.5 75.5h6c1.5 0 1.5 0 1.5-1.5v-6c0-1.5 0-1.5-1.5-1.5h-6c-1.5 0-1.5 0-1.5 1.5v6c0 1.5 0 1.5 1.5 1.5z"
     style="clip-rule:evenodd;fill-rule:evenodd"
     id="path210" /><path
     d="M129.5 75.5h6c1.5 0 1.5 0 1.5-1.5h0v-6h0c0-1.5 0-1.5-1.5-1.5h0-6 0c-1.5 0-1.5 0-1.5 1.5h0v6h0c0 1.5 0 1.5 1.5 1.5h0z"
     style="fill:none;stroke:#000;stroke-width:.06;stroke-linecap:round;stroke-linejoin:round;stroke-miterlimit:2"
     id="path212" /><path
     d="M149 75.5h6-1.5c1.5 0 1.5 0 1.5-1.5v-6c0-1.5 0-1.5-1.5-1.5h1.5-7.5s-1.5 0-1.5 1.5h1.5v6H146c0 1.5 1.5 1.5 1.5 1.5h1.5z"
     style="clip-rule:evenodd;fill-rule:evenodd"
     id="path214" /><path
     d="M149 75.5h6-1.5c1.5 0 1.5 0 1.5-1.5h0v-6h0c0-1.5 0-1.5-1.5-1.5h1.5-7.5s-1.5 0-1.5 1.5h1.5v6H146c0 1.5 1.5 1.5 1.5 1.5h1.5z"
     style="fill:none;stroke:#000;stroke-width:.06;stroke-linecap:round;stroke-linejoin:round;stroke-miterlimit:2"
     id="path216" /><path
     d="M165.5 75.5h6c1.5 0 1.5 0 1.5-1.5v-6c0-1.5 0-1.5-1.5-1.5h-6s-1.5 0-1.5 1.5v6c0 1.5 1.5 1.5 1.5 1.5z"
     style="clip-rule:evenodd;fill-rule:evenodd"
     id="path218" /><path
     d="M165.5 75.5h6c1.5 0 1.5 0 1.5-1.5h0v-6h0c0-1.5 0-1.5-1.5-1.5h0-6 0s-1.5 0-1.5 1.5h0v6h0c0 1.5 1.5 1.5 1.5 1.5h0z"
     style="fill:none;stroke:#000;stroke-width:.06;stroke-linecap:round;stroke-linejoin:round;stroke-miterlimit:2"
     id="path220" /><path
     d="M185 75.5h4.5c1.5 0 3 0 3-1.5v-6c0-1.5-1.5-1.5-3-1.5H185c-1.5 0-3 0-3 1.5v6c0 1.5 1.5 1.5 3 1.5z"
     style="clip-rule:evenodd;fill-rule:evenodd"
     id="path222" /><path
     d="M185 75.5h4.5c1.5 0 3 0 3-1.5h0v-6h0c0-1.5-1.5-1.5-3-1.5h0-4.5 0c-1.5 0-3 0-3 1.5h0v6h0c0 1.5 1.5 1.5 3 1.5h0z"
     style="fill:none;stroke:#000;stroke-width:.06;stroke-linecap:round;stroke-linejoin:round;stroke-miterlimit:2"
     id="path224" /><path
     d="M203 75.5h6s1.5 0 1.5-1.5v-6c0-1.5-1.5-1.5-1.5-1.5h-6c-1.5 0-1.5 0-1.5 1.5v6c0 1.5 0 1.5 1.5 1.5z"
     style="clip-rule:evenodd;fill-rule:evenodd"
     id="path226" /><path
     d="M203 75.5h6s1.5 0 1.5-1.5h0v-6h0c0-1.5-1.5-1.5-1.5-1.5h0-6 0c-1.5 0-1.5 0-1.5 1.5h0v6h0c0 1.5 0 1.5 1.5 1.5h0z"
     style="fill:none;stroke:#000;stroke-width:.06;stroke-linecap:round;stroke-linejoin:round;stroke-miterlimit:2"
     id="path228" /><path
     d="M222.5 75.5h4.5s1.5 0 1.5-1.5H227v-6h1.5c0-1.5-1.5-1.5-1.5-1.5h-6c-1.5 0-1.5 0-1.5 1.5v6c0 1.5 0 1.5 1.5 1.5h1.5z"
     style="clip-rule:evenodd;fill-rule:evenodd"
     id="path230" /><path
     d="M222.5 75.5h4.5s1.5 0 1.5-1.5h0-1.5v-6h1.5c0-1.5-1.5-1.5-1.5-1.5h-6c-1.5 0-1.5 0-1.5 1.5h0v6h0c0 1.5 0 1.5 1.5 1.5h1.5z"
     style="fill:none;stroke:#000;stroke-width:.06;stroke-linecap:round;stroke-linejoin:round;stroke-miterlimit:2"
     id="path232" /><path
     d="M239 75.5h6c1.5 0 1.5 0 1.5-1.5v-6c0-1.5 0-1.5-1.5-1.5h-6s-1.5 0-1.5 1.5v6c0 1.5 1.5 1.5 1.5 1.5z"
     style="clip-rule:evenodd;fill-rule:evenodd"
     id="path234" /><path
     d="M239 75.5h6c1.5 0 1.5 0 1.5-1.5h0v-6h0c0-1.5 0-1.5-1.5-1.5h0-6 0s-1.5 0-1.5 1.5h0v6h0c0 1.5 1.5 1.5 1.5 1.5h0z"
     style="fill:none;stroke:#000;stroke-width:.06;stroke-linecap:round;stroke-linejoin:round;stroke-miterlimit:2"
     id="path236" /><path
     d="M257 75.5h6c1.5 0 1.5 0 1.5-1.5v-6c0-1.5 0-1.5-1.5-1.5h-6s-1.5 0-1.5 1.5v6c0 1.5 1.5 1.5 1.5 1.5z"
     style="clip-rule:evenodd;fill-rule:evenodd"
     id="path238" /><path
     d="M257 75.5h6c1.5 0 1.5 0 1.5-1.5h0v-6h0c0-1.5 0-1.5-1.5-1.5h0-6 0s-1.5 0-1.5 1.5h0v6h0c0 1.5 1.5 1.5 1.5 1.5h0z"
     style="fill:none;stroke:#000;stroke-width:.06;stroke-linecap:round;stroke-linejoin:round;stroke-miterlimit:2"
     id="path240" /><path
     d="M276.5 75.5h6-1.5c1.5 0 1.5 0 1.5-1.5h1.5v-6h-1.5c0-1.5 0-1.5-1.5-1.5h1.5-6c-1.5 0-3 0-3 1.5h1.5v6h-1.5c0 1.5 1.5 1.5 3 1.5z"
     style="clip-rule:evenodd;fill-rule:evenodd"
     id="path242" /><path
     d="M276.5 75.5h6-1.5c1.5 0 1.5 0 1.5-1.5h1.5v-6h-1.5c0-1.5 0-1.5-1.5-1.5h1.5-6 0c-1.5 0-3 0-3 1.5h1.5v6h-1.5c0 1.5 1.5 1.5 3 1.5h0z"
     style="fill:none;stroke:#000;stroke-width:.06;stroke-linecap:round;stroke-linejoin:round;stroke-miterlimit:2"
     id="path244" /><path
     d="M92 57.5h7.5s1.5 0 1.5-1.5l-1.5-1.5V50h1.5c0-1.5-1.5-1.5-1.5-1.5L98 47h-6l1.5 1.5c-1.5 0-1.5 0-1.5 1.5h-1.5v4.5L92 56c0 1.5 0 1.5 1.5 1.5H92z"
     style="clip-rule:evenodd;fill-rule:evenodd"
     id="path246" /><path
     d="M92 57.5h7.5s1.5 0 1.5-1.5h0l-1.5-1.5V50h1.5c0-1.5-1.5-1.5-1.5-1.5L98 47h-6l1.5 1.5c-1.5 0-1.5 0-1.5 1.5h-1.5v4.5L92 56c0 1.5 0 1.5 1.5 1.5H92z"
     style="fill:none;stroke:#000;stroke-width:.06;stroke-linecap:round;stroke-linejoin:round;stroke-miterlimit:2"
     id="path248" /><path
     d="M111.5 57.5h6s1.5 0 1.5-1.5v-6c0-1.5-1.5-1.5-1.5-1.5V47h-6v1.5c-1.5 0-1.5 0-1.5 1.5v6c0 1.5 0 1.5 1.5 1.5z"
     style="clip-rule:evenodd;fill-rule:evenodd"
     id="path250" /><path
     d="M111.5 57.5h6s1.5 0 1.5-1.5h0v-6h0c0-1.5-1.5-1.5-1.5-1.5V47h-6v1.5c-1.5 0-1.5 0-1.5 1.5h0v6c0 1.5 0 1.5 1.5 1.5h0z"
     style="fill:none;stroke:#000;stroke-width:.06;stroke-linecap:round;stroke-linejoin:round;stroke-miterlimit:2"
     id="path252" /><path
     d="M129.5 57.5h6c1.5 0 1.5 0 1.5-1.5v-6c0-1.5 0-1.5-1.5-1.5V47h-6v1.5c-1.5 0-1.5 0-1.5 1.5v6c0 1.5 0 1.5 1.5 1.5z"
     style="clip-rule:evenodd;fill-rule:evenodd"
     id="path254" /><path
     d="M129.5 57.5h6c1.5 0 1.5 0 1.5-1.5h0v-6h0c0-1.5 0-1.5-1.5-1.5V47h-6v1.5c-1.5 0-1.5 0-1.5 1.5h0v6c0 1.5 0 1.5 1.5 1.5h0z"
     style="fill:none;stroke:#000;stroke-width:.06;stroke-linecap:round;stroke-linejoin:round;stroke-miterlimit:2"
     id="path256" /><path
     d="M149 57.5h6-1.5c1.5 0 1.5 0 1.5-1.5v-6c0-1.5 0-1.5-1.5-1.5L155 47h-6l-1.5 1.5s-1.5 0-1.5 1.5h1.5v4.5L146 56c0 1.5 1.5 1.5 1.5 1.5h1.5z"
     style="clip-rule:evenodd;fill-rule:evenodd"
     id="path258" /><path
     d="M149 57.5h6-1.5c1.5 0 1.5 0 1.5-1.5h0v-6h0c0-1.5 0-1.5-1.5-1.5L155 47h-6l-1.5 1.5s-1.5 0-1.5 1.5h1.5v4.5L146 56c0 1.5 1.5 1.5 1.5 1.5h1.5z"
     style="fill:none;stroke:#000;stroke-width:.06;stroke-linecap:round;stroke-linejoin:round;stroke-miterlimit:2"
     id="path260" /><path
     d="M165.5 57.5h6c1.5 0 1.5 0 1.5-1.5v-6c0-1.5 0-1.5-1.5-1.5V47h-6v1.5s-1.5 0-1.5 1.5v6c0 1.5 1.5 1.5 1.5 1.5z"
     style="clip-rule:evenodd;fill-rule:evenodd"
     id="path262" /><path
     d="M165.5 57.5h6c1.5 0 1.5 0 1.5-1.5h0v-6h0c0-1.5 0-1.5-1.5-1.5V47h-6v1.5s-1.5 0-1.5 1.5h0v6c0 1.5 1.5 1.5 1.5 1.5h0z"
     style="fill:none;stroke:#000;stroke-width:.06;stroke-linecap:round;stroke-linejoin:round;stroke-miterlimit:2"
     id="path264" /><path
     d="M185 57.5h4.5c1.5 0 3 0 3-1.5v-6c0-1.5-1.5-1.5-3-1.5V47H185v1.5c-1.5 0-3 0-3 1.5v6c0 1.5 1.5 1.5 3 1.5z"
     style="clip-rule:evenodd;fill-rule:evenodd"
     id="path266" /><path
     d="M185 57.5h4.5c1.5 0 3 0 3-1.5h0v-6h0c0-1.5-1.5-1.5-3-1.5V47H185v1.5c-1.5 0-3 0-3 1.5h0v6c0 1.5 1.5 1.5 3 1.5h0z"
     style="fill:none;stroke:#000;stroke-width:.06;stroke-linecap:round;stroke-linejoin:round;stroke-miterlimit:2"
     id="path268" /><path
     d="M203 57.5h6s1.5 0 1.5-1.5v-6c0-1.5-1.5-1.5-1.5-1.5V47h-6v1.5c-1.5 0-1.5 0-1.5 1.5v6c0 1.5 0 1.5 1.5 1.5z"
     style="clip-rule:evenodd;fill-rule:evenodd"
     id="path270" /><path
     d="M203 57.5h6s1.5 0 1.5-1.5h0v-6h0c0-1.5-1.5-1.5-1.5-1.5V47h-6v1.5c-1.5 0-1.5 0-1.5 1.5h0v6c0 1.5 0 1.5 1.5 1.5h0z"
     style="fill:none;stroke:#000;stroke-width:.06;stroke-linecap:round;stroke-linejoin:round;stroke-miterlimit:2"
     id="path272" /><path
     d="M222.5 57.5h4.5s1.5 0 1.5-1.5l-1.5-1.5V50h1.5c0-1.5-1.5-1.5-1.5-1.5l-1.5-1.5h-3l-1.5 1.5c-1.5 0-1.5 0-1.5 1.5v6c0 1.5 0 1.5 1.5 1.5h1.5z"
     style="clip-rule:evenodd;fill-rule:evenodd"
     id="path274" /><path
     d="M222.5 57.5h4.5s1.5 0 1.5-1.5h0l-1.5-1.5V50h1.5c0-1.5-1.5-1.5-1.5-1.5l-1.5-1.5h-3l-1.5 1.5c-1.5 0-1.5 0-1.5 1.5h0v6c0 1.5 0 1.5 1.5 1.5h1.5z"
     style="fill:none;stroke:#000;stroke-width:.06;stroke-linecap:round;stroke-linejoin:round;stroke-miterlimit:2"
     id="path276" /><path
     d="M239 57.5h6c1.5 0 1.5 0 1.5-1.5v-6c0-1.5 0-1.5-1.5-1.5V47h-6v1.5s-1.5 0-1.5 1.5v6c0 1.5 1.5 1.5 1.5 1.5z"
     style="clip-rule:evenodd;fill-rule:evenodd"
     id="path278" /><path
     d="M239 57.5h6c1.5 0 1.5 0 1.5-1.5h0v-6h0c0-1.5 0-1.5-1.5-1.5V47h-6v1.5s-1.5 0-1.5 1.5h0v6c0 1.5 1.5 1.5 1.5 1.5h0z"
     style="fill:none;stroke:#000;stroke-width:.06;stroke-linecap:round;stroke-linejoin:round;stroke-miterlimit:2"
     id="path280" /><path
     d="M257 57.5h6c1.5 0 1.5 0 1.5-1.5v-6c0-1.5 0-1.5-1.5-1.5V47h-6v1.5s-1.5 0-1.5 1.5v6c0 1.5 1.5 1.5 1.5 1.5z"
     style="clip-rule:evenodd;fill-rule:evenodd"
     id="path282" /><path
     d="M257 57.5h6c1.5 0 1.5 0 1.5-1.5h0v-6h0c0-1.5 0-1.5-1.5-1.5V47h-6v1.5s-1.5 0-1.5 1.5h0v6c0 1.5 1.5 1.5 1.5 1.5h0z"
     style="fill:none;stroke:#000;stroke-width:.06;stroke-linecap:round;stroke-linejoin:round;stroke-miterlimit:2"
     id="path284" /><path
     d="M276.5 57.5h6-1.5c1.5 0 1.5 0 1.5-1.5l1.5-1.5V50h-1.5c0-1.5 0-1.5-1.5-1.5l1.5-1.5h-6v1.5c-1.5 0-3 0-3 1.5h1.5v4.5l-1.5 1.5c0 1.5 1.5 1.5 3 1.5z"
     style="clip-rule:evenodd;fill-rule:evenodd"
     id="path286" /><path
     d="M276.5 57.5h6-1.5c1.5 0 1.5 0 1.5-1.5h0l1.5-1.5V50h-1.5c0-1.5 0-1.5-1.5-1.5l1.5-1.5h-6v1.5c-1.5 0-3 0-3 1.5h1.5v4.5l-1.5 1.5c0 1.5 1.5 1.5 3 1.5h0z"
     style="fill:none;stroke:#000;stroke-width:.06;stroke-linecap:round;stroke-linejoin:round;stroke-miterlimit:2"
     id="path288" /><path
     d="M90.5 39.5h6c1.5 0 3 0 3-1.5H98v-6h1.5c0-1.5-1.5-1.5-3-1.5h-6H92c-1.5 0-3 0-3 1.5v6c0 1.5 1.5 1.5 3 1.5h-1.5z"
     style="clip-rule:evenodd;fill-rule:evenodd"
     id="path290" /><path
     d="M90.5 39.5h6c1.5 0 3 0 3-1.5h0H98v-6h1.5c0-1.5-1.5-1.5-3-1.5h0-6H92c-1.5 0-3 0-3 1.5h0v6h0c0 1.5 1.5 1.5 3 1.5h-1.5z"
     style="fill:none;stroke:#000;stroke-width:.06;stroke-linecap:round;stroke-linejoin:round;stroke-miterlimit:2"
     id="path292" /><path
     d="M110 39.5h6s1.5 0 1.5-1.5v-6c0-1.5-1.5-1.5-1.5-1.5h-6c-1.5 0-1.5 0-1.5 1.5H107v6h1.5c0 1.5 0 1.5 1.5 1.5z"
     style="clip-rule:evenodd;fill-rule:evenodd"
     id="path294" /><path
     d="M110 39.5h6s1.5 0 1.5-1.5h0v-6h0c0-1.5-1.5-1.5-1.5-1.5h-6 0c-1.5 0-1.5 0-1.5 1.5H107v6h1.5c0 1.5 0 1.5 1.5 1.5h0z"
     style="fill:none;stroke:#000;stroke-width:.06;stroke-linecap:round;stroke-linejoin:round;stroke-miterlimit:2"
     id="path296" /><path
     d="M128 39.5h6s1.5 0 1.5-1.5v-6c0-1.5-1.5-1.5-1.5-1.5h-6c-1.5 0-1.5 0-1.5 1.5v6c0 1.5 0 1.5 1.5 1.5z"
     style="clip-rule:evenodd;fill-rule:evenodd"
     id="path298" /><path
     d="M128 39.5h6s1.5 0 1.5-1.5h0v-6h0c0-1.5-1.5-1.5-1.5-1.5h0-6 0c-1.5 0-1.5 0-1.5 1.5h0v6h0c0 1.5 0 1.5 1.5 1.5h0z"
     style="fill:none;stroke:#000;stroke-width:.06;stroke-linecap:round;stroke-linejoin:round;stroke-miterlimit:2"
     id="path300" /><path
     d="M147.5 39.5h4.5c1.5 0 1.5 0 1.5-1.5h1.5v-6h-1.5c0-1.5 0-1.5-1.5-1.5h-6c-1.5 0-1.5 0-1.5 1.5v6c0 1.5 0 1.5 1.5 1.5h1.5z"
     style="clip-rule:evenodd;fill-rule:evenodd"
     id="path302" /><path
     d="M147.5 39.5h4.5c1.5 0 1.5 0 1.5-1.5h1.5v-6h-1.5c0-1.5 0-1.5-1.5-1.5h0-6c-1.5 0-1.5 0-1.5 1.5h0v6h0c0 1.5 0 1.5 1.5 1.5h1.5z"
     style="fill:none;stroke:#000;stroke-width:.06;stroke-linecap:round;stroke-linejoin:round;stroke-miterlimit:2"
     id="path304" /><path
     d="M164 39.5h6c1.5 0 1.5 0 1.5-1.5v-6c0-1.5 0-1.5-1.5-1.5h-6s-1.5 0-1.5 1.5v6c0 1.5 1.5 1.5 1.5 1.5z"
     style="clip-rule:evenodd;fill-rule:evenodd"
     id="path306" /><path
     d="M164 39.5h6c1.5 0 1.5 0 1.5-1.5h0v-6h0c0-1.5 0-1.5-1.5-1.5h0-6 0s-1.5 0-1.5 1.5h0v6h0c0 1.5 1.5 1.5 1.5 1.5h0z"
     style="fill:none;stroke:#000;stroke-width:.06;stroke-linecap:round;stroke-linejoin:round;stroke-miterlimit:2"
     id="path308" /><path
     d="M182 39.5h6c1.5 0 1.5 0 1.5-1.5v-6c0-1.5 0-1.5-1.5-1.5h-6s-1.5 0-1.5 1.5v6c0 1.5 1.5 1.5 1.5 1.5z"
     style="clip-rule:evenodd;fill-rule:evenodd"
     id="path310" /><path
     d="M182 39.5h6c1.5 0 1.5 0 1.5-1.5h0v-6h0c0-1.5 0-1.5-1.5-1.5h0-6 0s-1.5 0-1.5 1.5h0v6h0c0 1.5 1.5 1.5 1.5 1.5h0z"
     style="fill:none;stroke:#000;stroke-width:.06;stroke-linecap:round;stroke-linejoin:round;stroke-miterlimit:2"
     id="path312" /><path
     d="M201.5 39.5h6-1.5c1.5 0 3 0 3-1.5v-6c0-1.5-1.5-1.5-3-1.5h1.5-6c-1.5 0-3 0-3 1.5h1.5v6h-1.5c0 1.5 1.5 1.5 3 1.5z"
     style="clip-rule:evenodd;fill-rule:evenodd"
     id="path314" /><path
     d="M201.5 39.5h6-1.5c1.5 0 3 0 3-1.5h0v-6h0c0-1.5-1.5-1.5-3-1.5h1.5-6 0c-1.5 0-3 0-3 1.5h1.5v6h-1.5c0 1.5 1.5 1.5 3 1.5h0z"
     style="fill:none;stroke:#000;stroke-width:.06;stroke-linecap:round;stroke-linejoin:round;stroke-miterlimit:2"
     id="path316" /><path
     d="M219.5 39.5h6s1.5 0 1.5-1.5h-1.5v-6h1.5c0-1.5-1.5-1.5-1.5-1.5h-6c-1.5 0-1.5 0-1.5 1.5v6c0 1.5 0 1.5 1.5 1.5z"
     style="clip-rule:evenodd;fill-rule:evenodd"
     id="path318" /><path
     d="M219.5 39.5h6s1.5 0 1.5-1.5h0-1.5v-6h1.5c0-1.5-1.5-1.5-1.5-1.5h0-6 0c-1.5 0-1.5 0-1.5 1.5h0v6h0c0 1.5 0 1.5 1.5 1.5h0z"
     style="fill:none;stroke:#000;stroke-width:.06;stroke-linecap:round;stroke-linejoin:round;stroke-miterlimit:2"
     id="path320" /><path
     d="M237.5 39.5h6s1.5 0 1.5-1.5v-6c0-1.5-1.5-1.5-1.5-1.5h-6c-1.5 0-1.5 0-1.5 1.5h-1.5v6h1.5c0 1.5 0 1.5 1.5 1.5z"
     style="clip-rule:evenodd;fill-rule:evenodd"
     id="path322" /><path
     d="M237.5 39.5h6s1.5 0 1.5-1.5h0v-6h0c0-1.5-1.5-1.5-1.5-1.5h-6 0c-1.5 0-1.5 0-1.5 1.5h-1.5v6h1.5c0 1.5 0 1.5 1.5 1.5h0z"
     style="fill:none;stroke:#000;stroke-width:.06;stroke-linecap:round;stroke-linejoin:round;stroke-miterlimit:2"
     id="path324" /><path
     d="M255.5 39.5h6c1.5 0 1.5 0 1.5-1.5v-6c0-1.5 0-1.5-1.5-1.5h-6c-1.5 0-1.5 0-1.5 1.5v6c0 1.5 0 1.5 1.5 1.5z"
     style="clip-rule:evenodd;fill-rule:evenodd"
     id="path326" /><path
     d="M255.5 39.5h6c1.5 0 1.5 0 1.5-1.5h0v-6h0c0-1.5 0-1.5-1.5-1.5h0-6 0c-1.5 0-1.5 0-1.5 1.5h0v6h0c0 1.5 0 1.5 1.5 1.5h0z"
     style="fill:none;stroke:#000;stroke-width:.06;stroke-linecap:round;stroke-linejoin:round;stroke-miterlimit:2"
     id="path328" /><path
     d="M275 39.5h4.5c1.5 0 1.5 0 1.5-1.5h1.5v-6H281c0-1.5 0-1.5-1.5-1.5h-6s-1.5 0-1.5 1.5v6c0 1.5 1.5 1.5 1.5 1.5h1.5z"
     style="clip-rule:evenodd;fill-rule:evenodd"
     id="path330" /><path
     d="M275 39.5h4.5c1.5 0 1.5 0 1.5-1.5h1.5v-6H281c0-1.5 0-1.5-1.5-1.5h0-6s-1.5 0-1.5 1.5h0v6h0c0 1.5 1.5 1.5 1.5 1.5h1.5z"
     style="fill:none;stroke:#000;stroke-width:.06;stroke-linecap:round;stroke-linejoin:round;stroke-miterlimit:2"
     id="path332" /><path
     d="M222.5 149h4.5s1.5-1.5 1.5-3l-1.5 1.5v-6l1.5-1.5-1.5-1.5-1.5 1.5h-3l-1.5-1.5c-1.5 0-1.5 1.5-1.5 1.5v7.5-1.5c0 1.5 0 3 1.5 3h1.5z"
     style="clip-rule:evenodd;fill-rule:evenodd"
     id="path334" /><path
     d="M222.5 149h4.5s1.5-1.5 1.5-3h0l-1.5 1.5v-6l1.5-1.5-1.5-1.5-1.5 1.5h-3l-1.5-1.5c-1.5 0-1.5 1.5-1.5 1.5v7.5-1.5c0 1.5 0 3 1.5 3h1.5z"
     style="fill:none;stroke:#000;stroke-width:.06;stroke-linecap:round;stroke-linejoin:round;stroke-miterlimit:2"
     id="path336" /><path
     d="M239 149h6c1.5 0 1.5-1.5 1.5-3v1.5-7.5s0-1.5-1.5-1.5v1.5h-6v-1.5l-1.5 1.5v7.5-1.5c0 1.5 1.5 3 1.5 3z"
     style="clip-rule:evenodd;fill-rule:evenodd"
     id="path338" /><path
     d="M239 149h6c1.5 0 1.5-1.5 1.5-3h0v1.5-7.5s0-1.5-1.5-1.5v1.5h-6v-1.5l-1.5 1.5v7.5-1.5c0 1.5 1.5 3 1.5 3h0z"
     style="fill:none;stroke:#000;stroke-width:.06;stroke-linecap:round;stroke-linejoin:round;stroke-miterlimit:2"
     id="path340" /><path
     d="M257 149h6c1.5 0 1.5-1.5 1.5-3v1.5-7.5s0-1.5-1.5-1.5v1.5h-6v-1.5l-1.5 1.5v7.5-1.5c0 1.5 1.5 3 1.5 3z"
     style="clip-rule:evenodd;fill-rule:evenodd"
     id="path342" /><path
     d="M257 149h6c1.5 0 1.5-1.5 1.5-3h0v1.5-7.5s0-1.5-1.5-1.5v1.5h-6v-1.5l-1.5 1.5v7.5-1.5c0 1.5 1.5 3 1.5 3h0z"
     style="fill:none;stroke:#000;stroke-width:.06;stroke-linecap:round;stroke-linejoin:round;stroke-miterlimit:2"
     id="path344" /><path
     d="M276.5 149h6-1.5c1.5 0 1.5-1.5 1.5-3l1.5 1.5v-6l-1.5-1.5s0-1.5-1.5-1.5l1.5 1.5h-6v-1.5c-1.5 0-3 1.5-3 1.5l1.5 1.5v6l-1.5-1.5c0 1.5 1.5 3 3 3z"
     style="clip-rule:evenodd;fill-rule:evenodd"
     id="path346" /><path
     d="M276.5 149h6-1.5c1.5 0 1.5-1.5 1.5-3h0l1.5 1.5v-6l-1.5-1.5s0-1.5-1.5-1.5l1.5 1.5h-6v-1.5c-1.5 0-3 1.5-3 1.5l1.5 1.5v6l-1.5-1.5c0 1.5 1.5 3 3 3h0z"
     style="fill:none;stroke:#000;stroke-width:.06;stroke-linecap:round;stroke-linejoin:round;stroke-miterlimit:2"
     id="path348" /><path
     d="M293 149h6c1.5 0 3-1.5 3-3l-1.5 1.5v-6l1.5-1.5s-1.5-1.5-3-1.5v1.5h-6l1.5-1.5c-1.5 0-3 1.5-3 1.5v7.5-1.5c0 1.5 1.5 3 3 3H293z"
     style="clip-rule:evenodd;fill-rule:evenodd"
     id="path350" /><path
     d="M293 149h6c1.5 0 3-1.5 3-3h0l-1.5 1.5v-6l1.5-1.5s-1.5-1.5-3-1.5v1.5h-6l1.5-1.5c-1.5 0-3 1.5-3 1.5v7.5-1.5c0 1.5 1.5 3 3 3H293z"
     style="fill:none;stroke:#000;stroke-width:.06;stroke-linecap:round;stroke-linejoin:round;stroke-miterlimit:2"
     id="path352" /><path
     d="M312.5 149h6s1.5-1.5 1.5-3v1.5-7.5l-1.5-1.5-1.5 1.5h-4.5v-1.5c-1.5 0-1.5 1.5-1.5 1.5l-1.5 1.5v6l1.5-1.5c0 1.5 0 3 1.5 3z"
     style="clip-rule:evenodd;fill-rule:evenodd"
     id="path354" /><path
     d="M312.5 149h6s1.5-1.5 1.5-3h0v1.5-7.5l-1.5-1.5-1.5 1.5h-4.5v-1.5c-1.5 0-1.5 1.5-1.5 1.5l-1.5 1.5v6l1.5-1.5c0 1.5 0 3 1.5 3h0z"
     style="fill:none;stroke:#000;stroke-width:.06;stroke-linecap:round;stroke-linejoin:round;stroke-miterlimit:2"
     id="path356" /><path
     d="M222.5 165.5h3l1.5 1.5s1.5-1.5 1.5-3H227v-6l1.5 1.5c0-1.5-1.5-3-1.5-3h-6c-1.5 0-1.5 1.5-1.5 3V158v6c0 1.5 0 3 1.5 3l1.5-1.5z"
     style="clip-rule:evenodd;fill-rule:evenodd"
     id="path358" /><path
     d="M222.5 165.5h3l1.5 1.5s1.5-1.5 1.5-3h0-1.5v-6l1.5 1.5c0-1.5-1.5-3-1.5-3h-6c-1.5 0-1.5 1.5-1.5 3V158v6h0c0 1.5 0 3 1.5 3l1.5-1.5z"
     style="fill:none;stroke:#000;stroke-width:.06;stroke-linecap:round;stroke-linejoin:round;stroke-miterlimit:2"
     id="path360" /><path
     d="M239 165.5h6v1.5c1.5 0 1.5-1.5 1.5-3v-6 1.5c0-1.5 0-3-1.5-3h-6s-1.5 1.5-1.5 3V158v6c0 1.5 1.5 3 1.5 3v-1.5z"
     style="clip-rule:evenodd;fill-rule:evenodd"
     id="path362" /><path
     d="M239 165.5h6v1.5c1.5 0 1.5-1.5 1.5-3h0v-6 1.5c0-1.5 0-3-1.5-3h0-6 0s-1.5 1.5-1.5 3V158v6h0c0 1.5 1.5 3 1.5 3v-1.5z"
     style="fill:none;stroke:#000;stroke-width:.06;stroke-linecap:round;stroke-linejoin:round;stroke-miterlimit:2"
     id="path364" /><path
     d="M222.5 185h4.5l1.5-1.5-1.5-1.5v-4.5h1.5c0-1.5-1.5-3-1.5-3h-6c-1.5 0-1.5 1.5-1.5 3v6s0 1.5 1.5 1.5h1.5z"
     style="clip-rule:evenodd;fill-rule:evenodd"
     id="path366" /><path
     d="M222.5 185h4.5l1.5-1.5h0L227 182v-4.5h1.5c0-1.5-1.5-3-1.5-3h-6c-1.5 0-1.5 1.5-1.5 3h0v6s0 1.5 1.5 1.5h1.5z"
     style="fill:none;stroke:#000;stroke-width:.06;stroke-linecap:round;stroke-linejoin:round;stroke-miterlimit:2"
     id="path368" /><path
     d="M239 185h6c1.5 0 1.5-1.5 1.5-1.5v-6c0-1.5 0-3-1.5-3h-6s-1.5 1.5-1.5 3v6l1.5 1.5z"
     style="clip-rule:evenodd;fill-rule:evenodd"
     id="path370" /><path
     d="M239 185h6c1.5 0 1.5-1.5 1.5-1.5h0v-6h0c0-1.5 0-3-1.5-3h0-6 0s-1.5 1.5-1.5 3h0v6l1.5 1.5h0z"
     style="fill:none;stroke:#000;stroke-width:.06;stroke-linecap:round;stroke-linejoin:round;stroke-miterlimit:2"
     id="path372" /><path
     d="M36.5 149h6c1.5 0 1.5-1.5 1.5-3v1.5-7.5s0-1.5-1.5-1.5v1.5h-6v-1.5L35 140v7.5-1.5c0 1.5 1.5 3 1.5 3z"
     style="clip-rule:evenodd;fill-rule:evenodd"
     id="path374" /><path
     d="M36.5 149h6c1.5 0 1.5-1.5 1.5-3h0v1.5-7.5s0-1.5-1.5-1.5v1.5h-6v-1.5L35 140v7.5-1.5c0 1.5 1.5 3 1.5 3h0z"
     style="fill:none;stroke:#000;stroke-width:.06;stroke-linecap:round;stroke-linejoin:round;stroke-miterlimit:2"
     id="path376" /><path
     d="M36.5 165.5h6v1.5c1.5 0 1.5-1.5 1.5-3v-6 1.5c0-1.5 0-3-1.5-3h-6s-1.5 1.5-1.5 3V158v6c0 1.5 1.5 3 1.5 3v-1.5z"
     style="clip-rule:evenodd;fill-rule:evenodd"
     id="path378" /><path
     d="M36.5 165.5h6v1.5c1.5 0 1.5-1.5 1.5-3h0v-6 1.5c0-1.5 0-3-1.5-3h0-6 0s-1.5 1.5-1.5 3V158v6h0c0 1.5 1.5 3 1.5 3v-1.5z"
     style="fill:none;stroke:#000;stroke-width:.06;stroke-linecap:round;stroke-linejoin:round;stroke-miterlimit:2"
     id="path380" /><path
     style="clip-rule:evenodd;fill:#333;fill-rule:evenodd"
     d="m335 270.5 1.5-1.5 1.5-3V162.5l-1.5-3-1.5-1.5-1.5-1.5-3-1.5h-75l-1.5 1.5-3 1.5-1.5 1.5V269l1.5 1.5 3 1.5 1.5 1.5h75l3-1.5z"
     id="path382" /><path
     style="fill:none;stroke:#000;stroke-width:.23999999;stroke-linecap:round;stroke-linejoin:round;stroke-miterlimit:2"
     d="m335 270.5 1.5-1.5 1.5-3V162.5l-1.5-3-1.5-1.5-1.5-1.5-3-1.5h-75l-1.5 1.5-3 1.5-1.5 1.5V269l1.5 1.5 3 1.5 1.5 1.5h75l3-1.5z"
     id="path384" /><path
     style="clip-rule:evenodd;fill:#333;fill-rule:evenodd"
     d="m260 165.5-1.5 1.5v93l1.5 3 1.5 1.5h63l3-1.5v-3l1.5-1.5V170l-1.5-3v-1.5l-3-1.5h-63z"
     id="path386" /><path
     style="fill:none;stroke:#000;stroke-width:.23999999;stroke-linecap:round;stroke-linejoin:round;stroke-miterlimit:2"
     d="m260 165.5-1.5 1.5v93l1.5 3 1.5 1.5h63l3-1.5v-3l1.5-1.5V170l-1.5-3v-1.5l-3-1.5H323h0-61.5z"
     id="path388" /><path
     d="M318.5 233c0-6-6-10.5-12-10.5H281c-6 0-10.5 4.5-10.5 10.5s4.5 12 10.5 12h25.5c6 0 12-6 12-12z"
     style="clip-rule:evenodd;fill-rule:evenodd"
     id="path390" /><path
     d="M318.5 233c0-6-6-10.5-12-10.5h0H281c-6 0-10.5 4.5-10.5 10.5s4.5 12 10.5 12h25.5c6 0 12-6 12-12h0z"
     style="fill:none;stroke:#000;stroke-width:.06;stroke-linecap:round;stroke-linejoin:round;stroke-miterlimit:2"
     id="path392" /><path
     style="clip-rule:evenodd;fill:#393939;fill-rule:evenodd"
     d="M269 204.5h51V236h-51z"
     id="path394" /><path
     d="M270.5 207.5V230h0c0 3 3 4.5 6 4.5h36-1.5c4.5 0 7.5-1.5 7.5-4.5H317v-22.5h-46.5 0z"
     style="fill:none;stroke:#737373;stroke-width:.06;stroke-linecap:round;stroke-linejoin:round;stroke-miterlimit:2"
     id="path396" /><text
     transform="scale(-1)"
     font-size="19.5"
     style="font-size:19.5px;font-family:MyriadPro-Regular;fill:#fff"
     x="-297.662"
     y="-215.059"
     id="text398">I</text>
<path
     d="M317 207.5V185l1.5-1.5c0-1.5-3-3-7.5-3h1.5-36 0c-3 0-6 1.5-6 3h0v24H317z"
     style="fill:none;stroke:#737373;stroke-width:.06;stroke-linecap:round;stroke-linejoin:round;stroke-miterlimit:2"
     id="path400" /><text
     transform="scale(-1)"
     font-size="19.5"
     style="font-size:19.5px;font-family:MyriadPro-Regular;fill:#fff"
     x="-301.959"
     y="-184.981"
     id="text402">O</text>
<path
     style="clip-rule:evenodd;fill-rule:evenodd"
     d="M65 141.5h129v111H65z"
     id="path404" /><path
     style="fill:none;stroke:#000;stroke-width:.06;stroke-linecap:round;stroke-linejoin:round;stroke-miterlimit:2"
     d="M65 141.5v111h129v-111z"
     id="path406" /><path
     style="clip-rule:evenodd;fill:#404040;fill-rule:evenodd"
     d="M77 143h-9v19.5h4.5V230H68v19.5h9z"
     id="path408" /><path
     style="fill:none;stroke:#000;stroke-width:.06;stroke-linecap:round;stroke-linejoin:round;stroke-miterlimit:2"
     d="M77 143h-9v19.5h4.5V230H68h0v19.5h9z"
     id="path410" /><path
     style="clip-rule:evenodd;fill:#404040;fill-rule:evenodd"
     d="M134 143h-9v19.5h3V230h-3v19.5h9z"
     id="path412" /><path
     style="fill:none;stroke:#000;stroke-width:.06;stroke-linecap:round;stroke-linejoin:round;stroke-miterlimit:2"
     d="M134 143h-9v19.5h3V230h-3 0v19.5h9z"
     id="path414" /><path
     style="clip-rule:evenodd;fill:#404040;fill-rule:evenodd"
     d="M189.5 143H182v19.5h3V230h-3v19.5h7.5z"
     id="path416" /><path
     style="fill:none;stroke:#000;stroke-width:.06;stroke-linecap:round;stroke-linejoin:round;stroke-miterlimit:2"
     d="M189.5 143H182v19.5h3V230h-3 0v19.5h7.5z"
     id="path418" /><path
     style="fill:none;stroke:#262626;stroke-width:.06;stroke-linecap:square;stroke-miterlimit:2"
     d="M74 135.5v7.5h112.5v-7.5"
     id="path420" /><path
     style="fill:none;stroke:#000;stroke-width:.06;stroke-linecap:round;stroke-linejoin:round;stroke-miterlimit:2"
     d="M68 143v105h121.5V143z"
     id="path422" /><path
     style="fill:#4c4c4a"
     d="M194.4 205.4h54v45.5h-54z"
     id="path424" /><path
     d="M203 246.5h36c1.5 0 1.5-1.5 1.5-3l-18-33h-3l-18 33c-1.5 0 0 1.5 0 3h1.5z"
     style="clip-rule:evenodd;fill:#616060;fill-rule:evenodd"
     id="path426" /><path
     d="M203 246.5h36c1.5 0 1.5-1.5 1.5-3h0l-18-33h-3 0l-18 33c-1.5 0 0 1.5 0 3h1.5z"
     style="fill:none;stroke:#000;stroke-linecap:round;stroke-linejoin:round;stroke-miterlimit:2"
     id="path428" /><text
     font-size="34.5"
     style="font-size:34.5px;font-family:MyriadPro-Regular"
     x="215.044"
     y="243.308"
     id="text430">!</text>
<path
     d="M.5 143H65c6 0 10.5-4.5 10.5-10.5v-57C75.5 69.5 71 65 65 65H.5v78z"
     style="clip-rule:evenodd;fill:#c1c5cb;fill-rule:evenodd"
     id="path432" /><path
     d="M.5 143H65c6 0 10.5-4.5 10.5-10.5h0v-57h0C75.5 69.5 71 65 65 65h0H.5v78h0z"
     style="fill:none;stroke:#262626;stroke-width:.06;stroke-linecap:square;stroke-miterlimit:2"
     id="path434" /><path
     style="fill:none;stroke:#262626;stroke-width:.06;stroke-linecap:square;stroke-miterlimit:2"
     d="M8 65H.5v78H8"
     id="path436" /><path
     d="M343.4 38.4c0-11.7-10-21.5-22-21.5s-22 9.8-22 21.5c0 12.7 10 22.5 22 22.5s22-9.7 22-22.5z"
     style="clip-rule:evenodd;fill:#ddd;fill-rule:evenodd"
     id="path438" /><path
     d="M320.6 61.2c-11.9 0-21.5-10.3-21.5-23 0-12.3 9.2-21.5 21.5-21.5 12.7 0 23 9.6 23 21.5 0 12.2-10.7 23-23 23zm0-43.5c-11.7 0-20.5 8.8-20.5 20.5 0 12.1 9.2 22 20.5 22 11.7 0 22-10.3 22-22 0-11.3-9.9-20.5-22-20.5z"
     style="fill:#a5a5a5"
     id="path440" /><path
     style="fill:#a5a5a5"
     d="M306.1 36.4h30.5v5h-30.5z"
     id="path442" /><path
     style="fill:#a5a5a5"
     d="M318.9 23.7h5v30.5h-5z"
     id="path444" /><path
     style="fill:#c1c5cb"
     d="M82.4 160.9h39v77.5h-39zM82.4 145.4h39v11.5h-39zM139.4 160.9h39v77.5h-39zM139.4 145.4h39v11.5h-39z"
     id="path446" /><g
     id="g456"><path
       d="M102.6 213.7c11.7 0 21.5-10 21.5-22s-9.8-22-21.5-22c-12.7 0-22.5 10-22.5 22s9.8 22 22.5 22z"
       style="clip-rule:evenodd;fill:#ddd;fill-rule:evenodd"
       id="path448" /><path
       d="M79.9 190.9c0-11.9 10.3-21.5 23-21.5 12.3 0 21.5 9.2 21.5 21.5 0 12.7-9.6 23-21.5 23-12.3 0-23-10.7-23-23zm43.5 0c0-11.7-8.8-20.5-20.5-20.5-12.1 0-22 9.2-22 20.5 0 11.7 10.3 22 22 22 11.3 0 20.5-9.8 20.5-22z"
       style="fill:#a5a5a5"
       id="path450" /><path
       style="fill:#a5a5a5"
       d="M99.6 176.4h5v30.5h-5z"
       id="path452" /><path
       style="fill:#a5a5a5"
       d="M86.9 189.2h30.5v5H86.9z"
       id="path454" /></g><g
     id="g466"><path
       d="M160.1 213.7c11.7 0 21.5-10 21.5-22s-9.8-22-21.5-22c-12.7 0-22.5 10-22.5 22s9.8 22 22.5 22z"
       style="clip-rule:evenodd;fill:#ddd;fill-rule:evenodd"
       id="path458" /><path
       d="M137.4 190.9c0-11.9 10.3-21.5 23-21.5 12.3 0 21.5 9.2 21.5 21.5 0 12.7-9.6 23-21.5 23-12.3 0-23-10.7-23-23zm43.5 0c0-11.7-8.8-20.5-20.5-20.5-12.1 0-22 9.2-22 20.5 0 11.7 10.3 22 22 22 11.3 0 20.5-9.8 20.5-22z"
       style="fill:#a5a5a5"
       id="path460" /><path
       style="fill:#a5a5a5"
       d="M157.1 176.4h5v30.5h-5z"
       id="path462" /><path
       style="fill:#a5a5a5"
       d="M144.4 189.2h30.5v5h-30.5z"
       id="path464" /></g><text
     xml:space="preserve"
     style="font-style:normal;font-weight:normal;font-size:40px;line-height:1.25;font-family:sans-serif;letter-spacing:0px;word-spacing:0px;fill:#000000;fill-opacity:1;stroke:none"
     x="35.389252"
     y="264.65005"
     id="text478"><tspan
       sodipodi:role="line"
       id="tspan476"
       x="35.389252"
       y="301.14328" /></text>
</svg>