<?xml version="1.0" encoding="UTF-8" standalone="no"?>
<!-- Generator: Adobe Illustrator 22.1.0, SVG Export Plug-In . SVG Version: 6.00 Build 0)  -->

<svg
   xmlns:dc="http://purl.org/dc/elements/1.1/"
   xmlns:cc="http://creativecommons.org/ns#"
   xmlns:rdf="http://www.w3.org/1999/02/22-rdf-syntax-ns#"
   xmlns:svg="http://www.w3.org/2000/svg"
   xmlns="http://www.w3.org/2000/svg"
   xmlns:sodipodi="http://sodipodi.sourceforge.net/DTD/sodipodi-0.dtd"
   xmlns:inkscape="http://www.inkscape.org/namespaces/inkscape"
   version="1.1"
   id="ASR-920-20SZ-Front-PowerSupply_FillerLayer_1"
   x="0px"
   y="0px"
   viewBox="0 0 188.00002 148"
   xml:space="preserve"
   sodipodi:docname="ASR-920-20SZ-Front-PowerSupply_Filler.svg"
   width="188.00002"
   height="148"
   inkscape:version="0.92.2 (5c3e80d, 2017-08-06)"><metadata
     id="ASR-920-20SZ-Front-PowerSupply_Fillermetadata25"><rdf:RDF><cc:Work
         rdf:about=""><dc:format>image/svg+xml</dc:format><dc:type
           rdf:resource="http://purl.org/dc/dcmitype/StillImage" /><dc:title></dc:title></cc:Work></rdf:RDF></metadata><defs
     id="ASR-920-20SZ-Front-PowerSupply_Fillerdefs23" /><sodipodi:namedview
     pagecolor="#ffffff"
     bordercolor="#666666"
     borderopacity="1"
     objecttolerance="10"
     gridtolerance="10"
     guidetolerance="10"
     inkscape:pageopacity="0"
     inkscape:pageshadow="2"
     inkscape:window-width="640"
     inkscape:window-height="480"
     id="ASR-920-20SZ-Front-PowerSupply_Fillernamedview21"
     showgrid="false"
     inkscape:zoom="1.5106383"
     inkscape:cx="94"
     inkscape:cy="74"
     inkscape:window-x="0"
     inkscape:window-y="0"
     inkscape:window-maximized="0"
     inkscape:current-layer="Layer_1" /><style
     type="text/css"
     id="ASR-920-20SZ-Front-PowerSupply_Fillerstyle2">
	.ASR-920-20SZ-Front-PowerSupply_Fillerst0{fill:#EEEEEE;}
	.ASR-920-20SZ-Front-PowerSupply_Fillerst1{fill:#808080;}
	.ASR-920-20SZ-Front-PowerSupply_Fillerst2{fill:#BFBFBF;}
</style><g
     id="ASR-920-20SZ-Front-PowerSupply_Fillerg18"><g
       id="ASR-920-20SZ-Front-PowerSupply_Fillerg8"><path
         class="ASR-920-20SZ-Front-PowerSupply_Fillerst0"
         d="M 0.4,6 C 0.4,3 2.5,0.5 5,0.5 h 177.9 c 2.5,0 4.6,2.5 4.6,5.5 v 136 c 0,3 -2.1,5.5 -4.6,5.5 H 5.1 C 2.6,147.5 0.5,145 0.5,142 Z"
         id="ASR-920-20SZ-Front-PowerSupply_Fillerpath4"
         inkscape:connector-curvature="0"
         style="fill:#eeeeee" /><path
         class="ASR-920-20SZ-Front-PowerSupply_Fillerst1"
         d="m 187.2,142 c 0,2.8 -1.9,5 -4.2,5 H 5.1 c -2.4,0 -4.2,-2.2 -4.2,-5 V 6 C 0.9,3.2 2.8,1 5.1,1 H 183 c 2.4,0 4.2,2.2 4.2,5 v 136 m 0.8,0 V 6 c 0,-3.3 -2.3,-6 -5.1,-6 H 5.1 C 2.3,0 0,2.7 0,6 v 136 c 0,3.3 2.3,6 5.1,6 H 183 c 2.7,0 5,-2.7 5,-6 z"
         id="ASR-920-20SZ-Front-PowerSupply_Fillerpath6"
         inkscape:connector-curvature="0"
         style="fill:#808080" /></g><g
       id="ASR-920-20SZ-Front-PowerSupply_Fillerg16"><path
         class="ASR-920-20SZ-Front-PowerSupply_Fillerst2"
         d="m 9.8,16 c 0,-3 2.1,-5.5 4.6,-5.5 h 159.2 c 2.5,0 4.6,2.5 4.6,5.5 v 116 c 0,3 -2.1,5.5 -4.6,5.5 H 14.4 c -2.5,0 -4.6,-2.5 -4.6,-5.5 0,0 0,-116 0,-116 z"
         id="ASR-920-20SZ-Front-PowerSupply_Fillerpath10"
         inkscape:connector-curvature="0"
         style="fill:#bfbfbf" /><g
         id="ASR-920-20SZ-Front-PowerSupply_Fillerg14"><path
           class="ASR-920-20SZ-Front-PowerSupply_Fillerst1"
           d="m 177.9,132 c 0,2.8 -1.9,5 -4.2,5 H 14.4 c -2.4,0 -4.2,-2.2 -4.2,-5 V 16 c 0,-2.8 1.9,-5 4.2,-5 h 159.2 c 2.4,0 4.2,2.2 4.2,5 l 0.1,116 m 0.8,0 V 16 c 0,-3.3 -2.3,-6 -5.1,-6 H 14.4 c -2.8,0 -5.1,2.7 -5.1,6 v 116 c 0,3.3 2.3,6 5.1,6 h 159.2 c 2.8,0 5.1,-2.7 5.1,-6 z"
           id="ASR-920-20SZ-Front-PowerSupply_Fillerpath12"
           inkscape:connector-curvature="0"
           style="fill:#808080" /></g></g></g></svg>