<?xml version="1.0" encoding="UTF-8" standalone="no"?>
<svg
   xmlns:dc="http://purl.org/dc/elements/1.1/"
   xmlns:cc="http://creativecommons.org/ns#"
   xmlns:rdf="http://www.w3.org/1999/02/22-rdf-syntax-ns#"
   xmlns:svg="http://www.w3.org/2000/svg"
   xmlns="http://www.w3.org/2000/svg"
   xmlns:sodipodi="http://sodipodi.sourceforge.net/DTD/sodipodi-0.dtd"
   xmlns:inkscape="http://www.inkscape.org/namespaces/inkscape"
   version="1.1"
   id="ASR-920-PWR-FILLERLayer_1"
   x="0"
   y="0"
   viewBox="0 0 355.5 294"
   xml:space="preserve"
   width="355.5"
   height="294"
   sodipodi:docname="ASR-920-PWR-FILLER.svg"
   inkscape:version="0.92.1 r15371"><metadata
     id="metadata21"><rdf:RDF><cc:Work
         rdf:about=""><dc:format>image/svg+xml</dc:format><dc:type
           rdf:resource="http://purl.org/dc/dcmitype/StillImage" /></cc:Work></rdf:RDF></metadata><defs
     id="defs19" /><sodipodi:namedview
     pagecolor="#ffffff"
     bordercolor="#666666"
     borderopacity="1"
     objecttolerance="10"
     gridtolerance="10"
     guidetolerance="10"
     inkscape:pageopacity="0"
     inkscape:pageshadow="2"
     inkscape:window-width="1920"
     inkscape:window-height="986"
     id="namedview17"
     showgrid="false"
     inkscape:zoom="2.5952381"
     inkscape:cx="177.75"
     inkscape:cy="147"
     inkscape:window-x="-11"
     inkscape:window-y="-11"
     inkscape:window-maximized="1"
     inkscape:current-layer="ASR-920-PWR-FILLERLayer_1" /><style
     type="text/css"
     id="ASR-920-PWR-FILLERstyle3">.ASR-920-PWR-FILLER-st3{fill:#a5a5a5}</style><g
     id="ASR-920-PWR-FILLERg5"
     transform="translate(-.5 -.5)"><g
       id="ASR-920-PWR-FILLERg7"><path
         d="M89.5 294v-10c0-4.9-3.4-8-6.5-8-4.8 0-8 3.2-8 8v1.5c0 4.1-2.7 8.5-7 8.5H12.5C6.8 294 1 288.2 1 282.5V221c0-4 4.1-8.5 10-8.5 3.1 0 6.5-3.1 6.5-8 0-3.3-3.2-6.5-6.5-6.5H1V11C1 5.1 7.1 1 12.5 1H261v8.5c0 4.8 4.8 8 8 8 4.8 0 8-3.2 8-8 0-5.4 2.6-8.5 7-8.5h61.5c5.7 0 10 4.3 10 10v55.5c0 6.3-3.2 10-8.5 10-4.9 0-8 3.4-8 6.5 0 4.8 3.2 8 8 8h8.5v120.5H347c-4.8 0-8 3.2-8 8 0 3.1 3.1 6.5 8 6.5h1.5c4.3 0 7 4.4 7 8.5V272c0 5.7-4.3 10-10 10H339v12H89.5z"
         id="ASR-920-PWR-FILLERpath9"
         style="clip-rule:evenodd;fill:#bfbfbf;fill-rule:evenodd" /><path
         d="M345.5 1.5c5.4 0 9.5 4.1 9.5 9.5v55.5c0 5.9-3 9.5-8 9.5-5.3 0-8.5 3.6-8.5 7 0 5.1 3.4 8.5 8.5 8.5h8V211h-8c-5.1 0-8.5 3.4-8.5 8.5 0 3.4 3.2 7 8.5 7h1.5c4 0 6.5 4.2 6.5 8V272c0 5.4-4.1 9.5-9.5 9.5h-7v12H90V284c0-5.3-3.6-8.5-7-8.5-5.1 0-8.5 3.4-8.5 8.5v1.5c0 3.8-2.5 8-6.5 8H12.5c-5.4 0-11-5.6-11-11V221c0-3.8 3.9-8 9.5-8 3.4 0 7-3.2 7-8.5 0-3.5-3.5-7-7-7H1.5V11c0-5.6 5.8-9.5 11-9.5h248v8c0 5.2 5 8.5 8.5 8.5 5.1 0 8.5-3.4 8.5-8.5 0-5.2 2.3-8 6.5-8h61.5m0-1H284c-4.5 0-7.5 3-7.5 9 0 4.5-3 7.5-7.5 7.5-3 0-7.5-3-7.5-7.5v-9h-249C6.5.5.5 5 .5 11v187.5H11c3 0 6 3 6 6 0 4.5-3 7.5-6 7.5-6 0-10.5 4.5-10.5 9v61.5c0 6 6 12 12 12H68c4.5 0 7.5-4.5 7.5-9V284c0-4.5 3-7.5 7.5-7.5 3 0 6 3 6 7.5v10.5h250.5v-12h6c6 0 10.5-4.5 10.5-10.5v-37.5c0-4.5-3-9-7.5-9H347c-4.5 0-7.5-3-7.5-6 0-4.5 3-7.5 7.5-7.5h9V90.5h-9c-4.5 0-7.5-3-7.5-7.5 0-3 3-6 7.5-6 6 0 9-4.5 9-10.5V11C356 5 351.5.5 345.5.5z"
         id="ASR-920-PWR-FILLERpath11"
         style="fill:#a6a6a6" /></g><g
       id="ASR-920-PWR-FILLERg13"><path
         d="M340.1 39.5c0-11.7-10-21.5-22-21.5s-22 9.8-22 21.5c0 12.7 10 22.5 22 22.5s22-9.8 22-22.5z"
         id="ASR-920-PWR-FILLERpath15"
         style="clip-rule:evenodd;fill:#ddd;fill-rule:evenodd" /><g
         id="ASR-920-PWR-FILLERg17"><g
           id="ASR-920-PWR-FILLERg19"><path
             class="ASR-920-PWR-FILLER-st3"
             d="M317.3 62.2c-11.9 0-21.5-10.3-21.5-23 0-12.3 9.2-21.5 21.5-21.5 12.7 0 23 9.6 23 21.5 0 12.3-10.7 23-23 23zm0-43.5c-11.7 0-20.5 8.8-20.5 20.5 0 12.1 9.2 22 20.5 22 11.7 0 22-10.3 22-22 0-11.3-9.8-20.5-22-20.5z"
             id="ASR-920-PWR-FILLERpath21"
             style="fill:#a5a5a5" /></g><g
           id="ASR-920-PWR-FILLERg23"><path
             class="ASR-920-PWR-FILLER-st3"
             id="ASR-920-PWR-FILLERrect25"
             style="fill:#a5a5a5"
             d="M302.8 37.5h30.5v5h-30.5z" /></g><g
           id="ASR-920-PWR-FILLERg27"><path
             class="ASR-920-PWR-FILLER-st3"
             id="ASR-920-PWR-FILLERrect29"
             style="fill:#a5a5a5"
             d="M315.6 24.7h5v30.5h-5z" /></g></g></g></g><text
     xml:space="preserve"
     style="font-style:normal;font-weight:normal;font-size:40px;line-height:1.25;font-family:sans-serif;letter-spacing:0px;word-spacing:0px;fill:#000000;fill-opacity:1;stroke:none"
     x="122.53211"
     y="182.6422"
     id="text25"><tspan
       sodipodi:role="line"
       id="tspan23"
       x="122.53211"
       y="219.13541" /></text>
</svg>