<?xml version="1.0" encoding="UTF-8" standalone="no"?>
<svg
   xmlns:dc="http://purl.org/dc/elements/1.1/"
   xmlns:cc="http://creativecommons.org/ns#"
   xmlns:rdf="http://www.w3.org/1999/02/22-rdf-syntax-ns#"
   xmlns:svg="http://www.w3.org/2000/svg"
   xmlns="http://www.w3.org/2000/svg"
   xmlns:sodipodi="http://sodipodi.sourceforge.net/DTD/sodipodi-0.dtd"
   xmlns:inkscape="http://www.inkscape.org/namespaces/inkscape"
   version="1.1"
   id="GLCGLCsfpLayer_1"
   x="0"
   y="0"
   viewBox="0 0 40 24.999999"
   xml:space="preserve"
   width="40"
   height="25"
   sodipodi:docname="GLC.svg"
   inkscape:version="0.92.1 r15371"><metadata
     id="metadata53"><rdf:RDF><cc:Work
         rdf:about=""><dc:format>image/svg+xml</dc:format><dc:type
           rdf:resource="http://purl.org/dc/dcmitype/StillImage" /></cc:Work></rdf:RDF></metadata><defs
     id="defs51" /><sodipodi:namedview
     pagecolor="#ffffff"
     bordercolor="#666666"
     borderopacity="1"
     objecttolerance="10"
     gridtolerance="10"
     guidetolerance="10"
     inkscape:pageopacity="0"
     inkscape:pageshadow="2"
     inkscape:window-width="1920"
     inkscape:window-height="986"
     id="namedview49"
     showgrid="false"
     inkscape:zoom="30.519946"
     inkscape:cx="19.99992"
     inkscape:cy="19.773953"
     inkscape:window-x="-11"
     inkscape:window-y="-11"
     inkscape:window-maximized="1"
     inkscape:current-layer="GLCGLCsfpLayer_1" /><style
     type="text/css"
     id="GLCGLCstyle2">.GLCst3{fill:#ccc}.GLCst4{fill:#999}.GLCst5{fill:#e6e6e6}.GLCst7{fill:#666}</style><g
     id="GLCGLCg8"
     transform="scale(.83333 .49116)"><path
       d="M2 50.4c-.8 0-1.5-.7-1.5-1.5V2C.5 1.2 1.2.5 2 .5h44c.8 0 1.5.7 1.5 1.5v46.9c0 .8-.7 1.5-1.5 1.5z"
       id="GLCGLCpath4"
       style="fill:gray" /><path
       d="M46 1c.6 0 1 .4 1 1v46.9c0 .6-.4 1-1 1H2c-.6 0-1-.4-1-1V2c0-.6.4-1 1-1h44m0-1H2C.9 0 0 .9 0 2v46.9c0 1.1.9 2 2 2h44c1.1 0 2-.9 2-2V2c0-1.1-.9-2-2-2z"
       id="GLCGLCpath6"
       style="fill:#4d4d4d" /></g><path
     id="GLCGLCrect10"
     data-cv-id="PORT-0"
     style="fill:#333;stroke-width:.63976502"
     d="M4.583 1.965h30v15.963h-30z" /><g
     id="GLCGLCg16"
     transform="scale(.83333 .49116)"><path
       class="GLCst3"
       d="M8.5 7.5v-6h6V6c0 .8-.7 1.5-1.5 1.5z"
       id="GLCGLCpath12"
       style="fill:#ccc" /><path
       class="GLCst4"
       d="M14 2v4c0 .6-.4 1-1 1H9V2h5m1-1H8v7h5c1.1 0 2-.9 2-2z"
       id="GLCGLCpath14"
       style="fill:#999" /></g><g
     id="GLCGLCg22"
     transform="scale(.83333 .49116)"><path
       class="GLCst5"
       d="M1.5 41.5V3c0-.8.7-1.5 1.5-1.5h9.5V6c0 .8-.7 1.5-1.5 1.5H7c-.3 0-.5.2-.5.5v28c0 .3.2.5.5.5h34c.3 0 .5-.2.5-.5V8c0-.3-.2-.5-.5-.5h-4c-.8 0-1.5-.7-1.5-1.5V1.5H45c.8 0 1.5.7 1.5 1.5v38.5z"
       id="GLCGLCpath18"
       style="fill:#e6e6e6" /><path
       class="GLCst4"
       d="M45 2c.6 0 1 .4 1 1v38H2V3c0-.6.4-1 1-1h9v4c0 .6-.4 1-1 1H7c-.6 0-1 .4-1 1v28c0 .6.4 1 1 1h34c.6 0 1-.4 1-1V8c0-.6-.4-1-1-1h-4c-.6 0-1-.4-1-1V2h9m0-1H35v5c0 1.1.9 2 2 2h4v28H7V8h4c1.1 0 2-.9 2-2V1H3c-1.1 0-2 .9-2 2v39h46V3c0-1.1-.9-2-2-2z"
       id="GLCGLCpath20"
       style="fill:#999" /></g><g
     id="GLCGLCg28"
     transform="scale(.83333 .49116)"><path
       class="GLCst3"
       d="M2 49.5c-.3 0-.5-.2-.5-.5v-7.5h4v8z"
       id="GLCGLCpath24"
       style="fill:#ccc" /><path
       class="GLCst4"
       d="M5 42v7H2v-7h3m1-1H1v8c0 .6.4 1 1 1h4z"
       id="GLCGLCpath26"
       style="fill:#999" /></g><g
     id="GLCGLCg34"
     transform="scale(.83333 .49116)"><path
       d="M44.5 49.5v-8h2V49c0 .3-.2.5-.5.5z"
       id="GLCGLCpath30"
       style="fill:#b3b3b3" /><path
       class="GLCst4"
       d="M46 42v7h-1v-7h1m1-1h-3v9h2c.6 0 1-.4 1-1z"
       id="GLCGLCpath32"
       style="fill:#999" /></g><g
     id="GLCGLCg42"
     transform="scale(.83333 .49116)"><path
       class="GLCst5"
       d="M41.5 49.5V46c0-.3-.2-.5-.5-.5H31c-.3 0-.5.2-.5.5v3.5h-9V46c0-.3-.2-.5-.5-.5h-9c-.3 0-.5.2-.5.5v3.5h-5v-8h38v8z"
       id="GLCGLCpath36"
       style="fill:#e6e6e6" /><g
       id="GLCGLCg40"><path
         class="GLCst4"
         d="M44 42v7h-2v-3c0-.6-.4-1-1-1H31c-.6 0-1 .4-1 1v3h-8v-3c0-.6-.4-1-1-1h-9c-.6 0-1 .4-1 1v3H7v-7h37m1-1H6v9h6v-4h9v4h10v-4h10v4h4v-6z"
         id="GLCGLCpath38"
         style="fill:#999" /></g></g><g
     id="GLCGLCg92"
     transform="scale(.83333 .49116)"><g
       id="GLCGLCg48"><path
         class="GLCst3"
         id="GLCGLCrect44"
         style="fill:#ccc"
         d="M9 25.5h2v10H9z" /><path
         class="GLCst7"
         d="M10.5 26v9h-1v-9h1m1-1h-3v11h3z"
         id="GLCGLCpath46"
         style="fill:#666" /></g><g
       id="GLCGLCg54"><path
         class="GLCst3"
         id="GLCGLCrect50"
         style="fill:#ccc"
         d="M13 25.5h2v10h-2z" /><path
         class="GLCst7"
         d="M14.5 26v9h-1v-9h1m1-1h-3v11h3z"
         id="GLCGLCpath52"
         style="fill:#666" /></g><g
       id="GLCGLCg60"><path
         class="GLCst3"
         id="GLCGLCrect56"
         style="fill:#ccc"
         d="M17 25.5h2v10h-2z" /><path
         class="GLCst7"
         d="M18.5 26v9h-1v-9h1m1-1h-3v11h3z"
         id="GLCGLCpath58"
         style="fill:#666" /></g><g
       id="GLCGLCg66"><path
         class="GLCst3"
         id="GLCGLCrect62"
         style="fill:#ccc"
         d="M21 25.5h2v10h-2z" /><path
         class="GLCst7"
         d="M22.5 26v9h-1v-9h1m1-1h-3v11h3z"
         id="GLCGLCpath64"
         style="fill:#666" /></g><g
       id="GLCGLCg72"><path
         class="GLCst3"
         id="GLCGLCrect68"
         style="fill:#ccc"
         d="M25 25.5h2v10h-2z" /><path
         class="GLCst7"
         d="M26.5 26v9h-1v-9h1m1-1h-3v11h3z"
         id="GLCGLCpath70"
         style="fill:#666" /></g><g
       id="GLCGLCg78"><path
         class="GLCst3"
         id="GLCGLCrect74"
         style="fill:#ccc"
         d="M29 25.5h2v10h-2z" /><path
         class="GLCst7"
         d="M30.5 26v9h-1v-9h1m1-1h-3v11h3z"
         id="GLCGLCpath76"
         style="fill:#666" /></g><g
       id="GLCGLCg84"><path
         class="GLCst3"
         id="GLCGLCrect80"
         style="fill:#ccc"
         d="M33 25.5h2v10h-2z" /><path
         class="GLCst7"
         d="M34.5 26v9h-1v-9h1m1-1h-3v11h3z"
         id="GLCGLCpath82"
         style="fill:#666" /></g><g
       id="GLCGLCg90"><path
         class="GLCst3"
         id="GLCGLCrect86"
         style="fill:#ccc"
         d="M37 25.5h2v10h-2z" /><path
         class="GLCst7"
         d="M38.5 26v9h-1v-9h1m1-1h-3v11h3z"
         id="GLCGLCpath88"
         style="fill:#666" /></g></g><text
     xml:space="preserve"
     style="font-style:normal;font-weight:normal;font-size:40px;line-height:1.25;font-family:sans-serif;letter-spacing:0px;word-spacing:0px;fill:#000000;fill-opacity:1;stroke:none"
     x="3.2110147"
     y="18.381378"
     id="text57"><tspan
       sodipodi:role="line"
       id="tspan55"
       x="3.2110147"
       y="54.874592" /></text>
</svg>